<?xml version="1.0" standalone="no"?>
<!DOCTYPE svg PUBLIC "-//W3C//DTD SVG 1.1//EN" "http://www.w3.org/Graphics/SVG/1.1/DTD/svg11.dtd" >
<svg xmlns="http://www.w3.org/2000/svg" xmlns:xlink="http://www.w3.org/1999/xlink" version="1.1">
<metadata></metadata>
<defs>
<font id="bpg_phone_sansbold_italic" horiz-adv-x="1075" >
<font-face units-per-em="2048" ascent="1556" descent="-492" />
<missing-glyph horiz-adv-x="684" />
<glyph unicode="&#xd;" horiz-adv-x="717" />
<glyph unicode=" "  horiz-adv-x="684" />
<glyph unicode="&#x09;" horiz-adv-x="684" />
<glyph unicode="&#xa0;" horiz-adv-x="684" />
<glyph unicode="!" horiz-adv-x="862" d="M279 0l68 323h276l-68 -323h-276zM401 472l60 385l145 682h276l-145 -682l-105 -385h-231z" />
<glyph unicode="&#x22;" horiz-adv-x="989" d="M367 918l132 621h242l-132 -621h-242zM736 918l132 621h243l-132 -621h-243z" />
<glyph unicode="#" horiz-adv-x="1802" d="M233 405l48 226h354l50 110l67 141h-305l48 226h361q17 40 36 78.5t36 77.5q27 58 57.5 124.5t56.5 124.5h235l-186 -405h206l95 203l95 202h233l-187 -405h295l-48 -226h-352l-52 -114l-62 -137h302l-48 -226h-358q-46 -100 -95.5 -203.5t-94.5 -201.5h-231l186 405 h-209q-46 -100 -95.5 -203.5t-94.5 -201.5h-232l188 405h-299zM870 631h209l116 251h-207l-55 -116z" />
<glyph unicode="$" horiz-adv-x="1368" d="M172 101l58 275q102 -75 195.5 -114.5t185.5 -45.5l80 376q-97 18 -166.5 49t-111.5 73q-91 96 -55 260q36 171 162.5 270.5t334.5 119.5l50 235h173l-48 -228q37 -4 79 -10.5t85 -15.5t84.5 -20t77.5 -24l-56 -262q-81 49 -162.5 77t-154.5 35l-73 -344 q108 -20 182 -53.5t116.5 -82.5t54 -114t-5.5 -147q-38 -175 -170.5 -278t-346.5 -126l-64 -300h-173l61 294q-99 5 -194.5 30t-197.5 71zM618 991q-13 -61 15 -97t111 -55l66 309q-81 -16 -129.5 -55.5t-62.5 -101.5zM787 226q91 19 142.5 61.5t65.5 105.5 q13 61 -20.5 100.5t-118.5 61.5z" />
<glyph unicode="%" horiz-adv-x="2044" d="M346 1128q42 197 168 314q63 62 137 91.5t162 29.5q170 0 249 -121q38 -57 47 -137t-11 -177q-42 -199 -169 -317q-127 -121 -302 -121q-172 0 -247 122q-76 120 -34 316zM376 -29l1300 1592h243l-1298 -1592h-245zM579 954.5q23 -61.5 91 -61.5q69 0 121 61.5t75 173.5 q25 115 -7 178q-26 57 -89 57q-66 0 -117 -62.5t-74 -172.5q-23 -112 0 -173.5zM1188.5 229q-8.5 77 12.5 177q21 101 63.5 179.5t104.5 136.5q65 62 140 91.5t162 29.5q171 0 248 -122q37 -60 46 -137.5t-12 -177.5t-63 -177t-105 -137q-128 -121 -300 -121 q-175 0 -251 121q-37 60 -45.5 137zM1434 406q-23 -111 1.5 -173t92.5 -62q66 0 118 62t75 173q23 112 -2 174.5t-91 62.5q-68 0 -119 -62t-75 -175z" />
<glyph unicode="&#x26;" horiz-adv-x="1677" d="M221 489q27 128 113.5 239.5t231.5 209.5q-28 59 -36.5 119t3.5 117q19 88 64.5 158.5t117.5 124.5q140 106 336 106q87 0 171.5 -20t175.5 -64l-56 -265q-96 57 -176 88t-143 31q-92 0 -154 -44q-29 -21 -48 -49.5t-27 -63.5q-7 -41 6 -81q16 -46 87 -134l362 -474 q120 153 178 374h259q-44 -152 -119.5 -284t-189.5 -256l245 -321h-353l-99 130q-118 -79 -237.5 -119t-246.5 -40q-126 0 -221 35.5t-159 108.5q-133 145 -85 374zM489 502q-27 -126 46 -211h-1q76 -85 218 -85q75 0 148.5 22.5t141.5 66.5l-364 476q-159 -131 -189 -269z " />
<glyph unicode="'" horiz-adv-x="592" d="M360 918l132 621h242l-132 -621h-242z" />
<glyph unicode="(" horiz-adv-x="840" d="M270.5 210q-28.5 232 18.5 458q48 223 174.5 454t335.5 475h244q-200 -249 -320 -478.5t-167 -450.5q-47 -222 -24.5 -452.5t115.5 -481.5h-244q-104 244 -132.5 476z" />
<glyph unicode=")" horiz-adv-x="840" d="M52 -266q196 249 316 480t167 454q47 222 25 452t-112 477h242q105 -245 132 -474.5t-21 -454.5q-47 -226 -173 -458t-334 -476h-242z" />
<glyph unicode="*" d="M213 893l361 176q-69 42 -143.5 87.5t-141.5 86.5l131 164l263 -184l73 340h190l-73 -340l343 184l61 -164l-358 -174l284 -176l-131 -161l-264 183l-73 -342h-190l73 342l-342 -183z" />
<glyph unicode="+" horiz-adv-x="1802" d="M320 546l51 242h546l116 544h240l-116 -544h547l-51 -242h-547l-116 -546h-240l116 546h-546z" />
<glyph unicode="," horiz-adv-x="684" d="M68 -233l164 353l43 203h282l-45 -214l-248 -342h-196z" />
<glyph unicode="-" horiz-adv-x="776" d="M171 470l51 236h606l-51 -236h-606z" />
<glyph unicode="." horiz-adv-x="684" d="M187 0l68 323h283l-68 -323h-283z" />
<glyph unicode="/" horiz-adv-x="725" d="M-78 -187l899 1726h245l-899 -1726h-245z" />
<glyph unicode="0" horiz-adv-x="1368" d="M242 424q-4 149 38 343q41 195 108 343.5t157 249t202.5 152t244.5 51.5t222 -51.5t137.5 -152t51.5 -249t-37 -343.5q-42 -194 -109 -343t-157.5 -249.5t-202.5 -152t-244 -51.5t-222.5 51.5t-137.5 152t-51 249.5zM554 767q-120 -563 149 -563q270 0 390 563 q60 285 22.5 424t-173.5 139q-135 0 -231.5 -139t-156.5 -424z" />
<glyph unicode="1" horiz-adv-x="1368" d="M234 0l51 241h322l219 1031l-217 -43l-148 -29l55 262l395 77h245l-276 -1298h322l-51 -241h-917z" />
<glyph unicode="2" horiz-adv-x="1368" d="M132 0l46 219l385 325q118 98 191.5 160t106.5 90q57 51 96.5 94.5t65.5 78.5q50 70 62 129q21 101 -34 161q-29 33 -73 48.5t-104 15.5q-85 0 -205 -39t-283 -120l63 294q147 52 265 79.5t208 27.5q119 0 210 -32.5t152 -90.5q58 -62 79 -145.5t-1 -185.5 q-19 -95 -77 -186q-28 -42 -70 -92t-101 -108q-16 -14 -52 -45t-102 -87.5t-166.5 -142t-245.5 -207.5h638l-51 -241h-1003z" />
<glyph unicode="3" horiz-adv-x="1368" d="M149 55l60 282q92 -60 193.5 -92t201.5 -32q170 0 270.5 63t126.5 188q23 108 -40 172v-1q-34 33 -87 49.5t-128 16.5h-208l50 238h218q127 0 204.5 48t97.5 139q20 94 -40 144.5t-191 50.5q-77 0 -182.5 -20.5t-251.5 -67.5l55 260q139 35 250 52.5t201 17.5 q239 0 354 -110q122 -115 81 -306q-24 -115 -86 -193.5t-173 -125.5q37 -20 65.5 -46.5t48.5 -58.5q33 -54 42.5 -118t-7.5 -141q-51 -238 -241 -366h1q-185 -127 -473 -127q-100 0 -201.5 21t-210.5 63z" />
<glyph unicode="4" horiz-adv-x="1368" d="M155 346l50 237l831 956h307l-203 -953h207l-51 -240h-207l-73 -346h-274l73 346h-660zM474 586h392l130 610l-320 -373z" />
<glyph unicode="5" horiz-adv-x="1368" d="M149 46l62 290q99 -61 196.5 -92t194.5 -31q157 0 259 80q106 82 134 215q30 136 -41 213q-71 78 -228 78q-76 0 -169 -22t-207 -69l177 831h853l-52 -244h-596l-57 -268q36 8 70 11.5t68 3.5q262 0 385 -143q61 -73 78.5 -169.5t-9.5 -221.5q-53 -253 -244 -397 q-188 -140 -466 -140q-97 0 -197 18t-211 57z" />
<glyph unicode="6" horiz-adv-x="1368" d="M251 424q-5 149 37 343q77 363 294 576q223 220 520 220q78 0 158.5 -17t170.5 -51l-57 -270q-174 96 -317 96q-309 0 -449 -382q70 51 147.5 77t162.5 26q235 0 343 -145q110 -146 57 -389q-25 -118 -84.5 -218t-143.5 -172q-88 -71 -192 -109t-219 -38 q-137 0 -230.5 51.5t-143 152t-54.5 249.5zM540 508q-30 -143 21 -226q26 -38 67.5 -58t100.5 -20q57 0 107.5 20t90.5 58q42 41 71.5 98t44.5 128q32 143 -20 224q-48 77 -166 77q-60 0 -109 -19.5t-91 -57.5q-85 -79 -117 -224z" />
<glyph unicode="7" horiz-adv-x="1368" d="M334 0l776 1295h-686l52 244h1015l-28 -131l-841 -1408h-288z" />
<glyph unicode="8" horiz-adv-x="1368" d="M206.5 244q-16.5 89 8.5 204q32 152 145 263q36 34 76 60.5t86 46.5q-60 35 -95 92h1q-60 97 -31 237q42 193 204 306q161 110 391 110q118 0 202.5 -27.5t140.5 -81.5q114 -111 72 -307q-28 -138 -130 -237q-30 -29 -62.5 -52t-69.5 -40q38 -20 66.5 -46.5t49.5 -60.5 q65 -111 33 -263q-50 -230 -219 -353q-85 -61 -189.5 -92.5t-232.5 -31.5q-130 0 -224 31.5t-150 92t-72.5 149.5zM490 448q-24 -112 31 -179q62 -65 182 -65q124 0 210 65q85 66 109 179q25 117 -32 180q-57 64 -183 64t-211 -64q-81 -63 -106 -180zM667 1128 q-20 -96 30 -149.5t159 -53.5q54 0 100.5 14t82.5 40t60 63.5t34 85.5q20 95 -31 148.5t-160 53.5t-182 -53.5t-93 -148.5z" />
<glyph unicode="9" horiz-adv-x="1368" d="M213 42l57 264q85 -45 166 -69t152 -24q158 0 268 94t181 289q-68 -50 -146 -76t-162 -26q-114 0 -201.5 38t-142.5 106q-51 72 -66.5 171.5t10.5 219.5q51 239 227 387q175 147 411 147q273 0 373 -203t18 -593q-77 -361 -296 -576v1q-221 -221 -518 -221 q-79 0 -159.5 17t-171.5 54zM603 1029q-30 -144 21 -227q51 -77 165 -77q57 0 108 20.5t93 56.5q86 83 116 227q30 141 -20 224q-27 37 -69 57t-100 20q-114 0 -197 -77q-85 -78 -117 -224z" />
<glyph unicode=":" horiz-adv-x="725" d="M209 0l68 323h282l-68 -323h-282zM376 789l69 323h282l-69 -323h-282z" />
<glyph unicode=";" horiz-adv-x="725" d="M68 -233l164 353l43 203h282l-45 -214l-248 -342h-196zM374 789l69 323h282l-69 -323h-282z" />
<glyph unicode="&#x3c;" horiz-adv-x="1802" d="M323 560l45 215l1436 482l-55 -259l-1006 -332l353 -134l512 -196l-56 -262z" />
<glyph unicode="=" horiz-adv-x="1802" d="M277 346l51 242h1333l-51 -242h-1333zM362 746l51 241h1333l-51 -241h-1333z" />
<glyph unicode="&#x3e;" horiz-adv-x="1802" d="M219 74l56 262l1000 330l-859 332l55 259l1230 -482l-45 -215z" />
<glyph unicode="?" horiz-adv-x="1141" d="M365 0l68 323h275l-68 -323h-275zM371 1160l59 276q239 127 446 127q99 0 171 -26.5t121 -77.5q100 -106 63 -279q-8 -41 -26.5 -80t-46.5 -78q-26 -35 -68.5 -77.5t-96.5 -84.5l-104 -84q-26 -21 -44 -37.5t-31 -29.5q-10 -10 -17 -20t-12 -18v1q-8 -17 -17.5 -45.5 t-19.5 -75.5l-34 -158h-260l40 189q23 105 68 176l-2 -1q21 35 62 75.5t95 84.5l109 89q60 46 90.5 85t38.5 78q15 69 -28 113v-1q-24 23 -57 34.5t-78 11.5q-72 0 -178 -42.5t-243 -124.5z" />
<glyph unicode="@" horiz-adv-x="2150" d="M229 386q0 90 20 183q20 92 57.5 181.5t90.5 172.5t119 158t143 138q77 60 165 109.5t181 84.5t188.5 54t188.5 19q106 0 202 -22.5t180 -65.5q80 -43 146.5 -108.5t112.5 -144.5q55 -100 71.5 -219t-10.5 -244q-57 -273 -260 -434q-102 -81 -233.5 -121.5t-296.5 -44.5 l20 96q-65 -46 -137 -69t-155 -23q-186 0 -274 135q-85 131 -41 342q45 211 187 344q147 135 331 135q85 0 147 -22t107 -68l15 71h215l-151 -711q50 13 96 40.5t82 65.5q95 101 129 260q20 95 8.5 182t-52.5 160q-36 59 -85.5 106t-111 79.5t-133.5 49.5t-152 17 q-115 0 -227 -31t-216 -91q-81 -48 -150.5 -109t-126.5 -138q-114 -153 -154 -334q-31 -146 -3.5 -276.5t102.5 -227.5l1 1q78 -93 196.5 -145.5t261.5 -52.5q120 0 253 46.5t262 132.5l101 -168q-166 -111 -336 -170t-326 -59q-91 0 -176.5 19t-162 53.5t-142 83 t-115.5 107.5q-50 64 -84 139.5t-51 159.5t-17 174zM939 563q-26 -122 18.5 -191t148.5 -69q103 0 176 67q76 71 101 193q27 125 -21 194q-23 33 -59 50.5t-88 17.5q-51 0 -94.5 -17.5t-79.5 -49.5q-36 -35 -62 -84t-40 -111z" />
<glyph unicode="A" horiz-adv-x="1470" d="M-22 0l928 1565h284l262 -1565h-290l-57 381h-615q-53 -93 -109 -190.5t-108 -190.5h-295zM630 627h438l-94 588z" />
<glyph unicode="B" horiz-adv-x="1475" d="M181 0l332 1565h553q117 0 208 -28.5t146 -75.5q55 -54 76 -130q11 -39 10 -83q0 -42 -9 -90q-51 -235 -234 -319q99 -54 137 -151q21 -55 22 -122q0 -52 -13 -112q-47 -216 -224 -338q-169 -116 -431 -116h-573zM511 242h284q143 0 224 57t107 178q8 37 8 67 q0 70 -40 110q-56 58 -199 57h-284zM662 952h259q128 0 199.5 44.5t91.5 139.5q5 25 5 47q0 139 -218 139h-259z" />
<glyph unicode="C" horiz-adv-x="1501" d="M240 446q-6 48 -6 100q0 108 26 234q40 188 122.5 335.5t207.5 255.5q253 218 608 218q137 0 256.5 -38.5t219.5 -119.5l-69 -323q-103 121 -215 180.5t-232 59.5q-237 0 -393 -144.5t-216 -423.5q-22 -109 -22 -197q-1 -26 1 -50q8 -106 57 -178q96 -143 332 -143 q120 0 257.5 60.5t291.5 180.5l-68 -319q-137 -83 -272.5 -123t-271.5 -40q-356 0 -515 218q-80 109 -99 257z" />
<glyph unicode="D" horiz-adv-x="1657" d="M184 0l332 1565h451q447 0 621 -190q118 -127 118 -351q0 -109 -28 -242q-86 -401 -343 -592q-254 -190 -700 -190h-451zM514 242h205q293 0 449 128q159 129 220 412q22 104 22 186q0 145 -67 225q-104 129 -395 129h-205z" />
<glyph unicode="E" horiz-adv-x="1360" d="M180 0l332 1565h1016l-52 -247h-737l-78 -363h706l-52 -246h-706l-98 -464h756l-52 -245h-1035z" />
<glyph unicode="F" horiz-adv-x="1237" d="M179 0l332 1565h931l-52 -247h-653l-77 -361h589l-52 -246h-589l-151 -711h-278z" />
<glyph unicode="G" horiz-adv-x="1665" d="M262 780q81 379 334 595q254 214 618 214q152 0 282.5 -39t241.5 -117l-67 -318q-115 116 -236.5 174.5t-253.5 58.5q-510 0 -631 -568q-23 -107 -23 -195q0 -141 61 -230q97 -143 352 -143q92 0 170 14.5t145 46.5l72 339h-329l51 242h605l-148 -697 q-152 -92 -311.5 -139t-324.5 -47q-362 0 -527 215q-108 144 -108 361q0 108 27 233z" />
<glyph unicode="H" horiz-adv-x="1618" d="M183 0l332 1565h278l-130 -610h654l130 610h278l-332 -1565h-278l150 709h-654l-150 -709h-278z" />
<glyph unicode="I" horiz-adv-x="635" d="M170 0l332 1565h279l-332 -1565h-279z" />
<glyph unicode="J" horiz-adv-x="635" d="M-226 -408l52 246h101q114 0 169 59q61 64 100 245l302 1423h278l-302 -1423q-60 -283 -201 -415q-141 -135 -384 -135h-115z" />
<glyph unicode="K" horiz-adv-x="1409" d="M183 0l332 1565h279l-122 -577l339 267l394 310h376l-937 -733l649 -832h-371l-520 662l-140 -662h-279z" />
<glyph unicode="L" horiz-adv-x="1198" d="M179 0l332 1565h280l-280 -1320h723l-52 -245h-1003z" />
<glyph unicode="M" horiz-adv-x="1855" d="M185 0l332 1565h365l155 -939l311 527l242 412h365l-332 -1565h-274l239 1128l-28 -48t-29 -49q-52 -87 -108.5 -182.5t-113 -192t-112 -191t-105.5 -180.5h-257l-137 844l-239 -1129h-274z" />
<glyph unicode="N" horiz-adv-x="1610" d="M183 0l332 1565h333l357 -1128l240 1128h273l-332 -1565h-334l-358 1126l-239 -1126h-272z" />
<glyph unicode="O" horiz-adv-x="1694" d="M263 780q39 184 119.5 330t201.5 256q248 223 579 223t482 -223q75 -110 93 -256q6 -46 6 -96q0 -108 -27 -234q-38 -183 -119 -329t-202 -257q-247 -223 -577 -223t-484 223q-98 146 -98 354q0 108 26 232zM552 780q-22 -104 -22 -191q0 -136 54 -231q85 -148 286 -148 q200 0 347 148q152 155 209 422q23 106 23 194q0 135 -53 228q-84 148 -284 148q-201 0 -349 -148q-154 -154 -211 -422z" />
<glyph unicode="P" horiz-adv-x="1296" d="M180 0l332 1565h492q269 0 381 -123q77 -85 76 -223q0 -63 -15 -137q-51 -242 -214.5 -362.5t-432.5 -120.5h-213l-127 -599h-279zM637 840h213q123 0 203 62.5t104 179.5q7 35 7 66q0 66 -36 110q-53 64 -176 64h-213z" />
<glyph unicode="Q" horiz-adv-x="1694" d="M263 780q39 184 119.5 330t201.5 256q248 223 579 223t482 -223q75 -109 93 -256q6 -46 6 -96q0 -108 -27 -234q-28 -132 -81 -248.5t-128 -213.5q-68 -85 -149 -151.5t-178 -111.5l221 -317h-347l-168 235q-29 -2 -41.5 -2h-26.5q-330 0 -484 223q-98 146 -98 354 q0 108 26 232zM552 780q-22 -104 -22 -191q0 -136 54 -231q85 -148 286 -148q200 0 347 148q152 155 209 422q23 106 23 194q0 134 -53 228q-84 148 -284 148q-201 0 -349 -148q-154 -154 -211 -422z" />
<glyph unicode="R" horiz-adv-x="1493" d="M183 0l332 1565h493q459 0 459 -335q0 -61 -15 -133q-29 -133 -99.5 -225.5t-182.5 -143.5q42 -40 76.5 -108.5t62.5 -157.5l132 -462h-302l-115 401q-21 69 -44 116.5t-49 69.5h1q-26 21 -64.5 32t-93.5 11h-179l-133 -630h-279zM647 872h214q128 0 203 56.5t99 168.5 q7 35 7 65q0 160 -214 160h-214z" />
<glyph unicode="S" horiz-adv-x="1366" d="M135 78l64 300q129 -84 246 -126t228 -42q153 0 250 58.5t120 166.5q6 26 6 50q0 16 -3 31q-7 36 -32 63t-70 46.5t-111 32.5l-116 26q-112 23 -192 60.5t-123 88.5q-62 74 -62 188q0 50 12 107q46 216 225 341q174 120 434 120q107 0 219 -21t236 -64l-61 -286 q-125 66 -229 99t-193 33q-146 0 -237 -54t-112 -153q-4 -19 -5 -37q-1 -15 3 -29q6 -31 21 -52q24 -20 73.5 -39.5t118.5 -32.5l120 -25q217 -48 313 -166q67 -83 66 -204q0 -52 -12 -110q-51 -236 -230 -356.5t-480 -120.5q-112 0 -232.5 26.5t-254.5 80.5z" />
<glyph unicode="T" horiz-adv-x="1315" d="M252 1318l52 247h1337l-52 -247h-529l-280 -1318h-279l280 1318h-529z" />
<glyph unicode="U" horiz-adv-x="1575" d="M285 598l205 967h279l-201 -945q-21 -101 -21 -175q0 -92 32 -143q58 -92 231 -92q89 0 156 23.5t115 68.5q98 92 145 318l201 945h279l-205 -967q-66 -310 -254 -468.5t-488 -158.5q-301 1 -421 159q-77 102 -76 267q0 91 23 201z" />
<glyph unicode="V" horiz-adv-x="1470" d="M310 1565h293l194 -1180l697 1180h290l-926 -1565h-284z" />
<glyph unicode="W" horiz-adv-x="2126" d="M380 1565h280l40 -1138q131 284 263 569.5t263 568.5h284l41 -1139l525 1139h282l-725 -1565h-311l-37 1169q-99 -218 -199 -436l-200 -436l-137 -297h-310z" />
<glyph unicode="X" horiz-adv-x="1473" d="M6 0l737 834l-337 731h309l240 -522q115 129 231.5 261t229.5 261h309l-665 -754q43 -98 89.5 -200t93 -205.5t92.5 -206t90 -199.5h-310l-271 601l-213 -245q-77 -88 -157.5 -179.5t-155.5 -176.5h-312z" />
<glyph unicode="Y" horiz-adv-x="1315" d="M272 1565h309l268 -580l105 120q101 113 205 230.5t202 229.5h312l-737 -831l-156 -734h-279l156 734z" />
<glyph unicode="Z" horiz-adv-x="1473" d="M72 0l43 207l1132 1111h-872l52 247h1245l-44 -207l-1134 -1113h920l-52 -245h-1290z" />
<glyph unicode="[" horiz-adv-x="840" d="M90 -266l396 1865h493l-45 -214h-235l-305 -1433h235l-46 -218h-493z" />
<glyph unicode="\" horiz-adv-x="725" d="M288 1539h246l165 -1726h-245z" />
<glyph unicode="]" horiz-adv-x="840" d="M114 -266l46 218h235l305 1433h-235l45 214h490l-396 -1865h-490z" />
<glyph unicode="^" horiz-adv-x="1802" d="M346 916l741 623h222l473 -623h-299l-339 376q-123 -94 -248.5 -188t-249.5 -188h-300z" />
<glyph unicode="_" d="M-138 -473l46 217h1115l-46 -217h-1115z" />
<glyph unicode="`" d="M453 1679h295l240 -442h-244z" />
<glyph unicode="a" horiz-adv-x="1319" d="M172 198q-5 28 -5 60q0 46 11 99q44 205 199.5 307.5t418.5 102.5l216 1q3 19 3 35q0 73 -49 115q-60 52 -185 51q-87 0 -193 -29t-224 -86l54 256q127 45 232 66.5t198 21.5q258 0 356 -132q62 -84 63 -223q0 -80 -21 -179l-141 -664h-255l20 98q-78 -61 -169.5 -94 t-199.5 -33q-94 0 -161 26t-112 77q-43 54 -56 124zM437 368q-5 -21 -4 -41q0 -48 28 -83h-1q42 -46 137 -46q64 0 124 25t109 67q47 47 83.5 114.5t52.5 144.5l1 3h-142q-207 0 -293 -46q-74 -39 -95 -138z" />
<glyph unicode="b" horiz-adv-x="1366" d="M168 0l339 1599h256l-110 -518q74 63 156 90t183 27q218 0 318 -174q61 -104 61 -249q0 -87 -22 -189q-29 -137 -85 -247t-141 -194q-174 -174 -392 -174q-101 0 -171.5 28.5t-117.5 89.5l-18 -89h-256zM548 586q-17 -79 -17 -143q0 -86 30 -147q53 -98 176 -98 q59 0 113 25.5t99 72.5q48 52 82.5 125t54.5 165q17 78 17 141q0 13 -1 25q-4 72 -30 122q-49 97 -171 97q-124 0 -217 -97q-48 -52 -82 -123.5t-54 -164.5z" />
<glyph unicode="c" horiz-adv-x="1182" d="M202 334q-4 36 -5 74q0 82 20 178q60 281 251 447q193 165 469 165q172 0 335 -83l-55 -257q-177 111 -322 111q-159 0 -265 -97q-110 -99 -149 -286q-15 -67 -15 -124q0 -20 2 -40q8 -72 40 -124q33 -47 88 -72.5t136 -25.5q72 0 163.5 28t205.5 83l-55 -256 q-98 -44 -193 -64t-192 -20q-262 0 -385 167q-60 84 -74 196z" />
<glyph unicode="d" horiz-adv-x="1366" d="M198 339q-2 25 -1 51q0 90 22 196q29 137 84 245.5t140 192.5q88 87 185 130.5t207 43.5q101 0 171.5 -27t116.5 -90l110 518h255l-339 -1599h-255l19 90q-143 -119 -339 -119q-217 0 -318 174q-50 84 -58 194zM463 420q4 -72 29 -124q26 -47 70.5 -72.5t104.5 -25.5 t115 25.5t100 72.5q48 53 82 125.5t54 164.5q17 79 17 144q0 86 -30 144q-49 97 -174 97t-216 -97q-48 -52 -82 -123.5t-54 -164.5q-17 -78 -16 -141q-1 -13 0 -25z" />
<glyph unicode="e" horiz-adv-x="1323" d="M204 327q-6 40 -5 83q0 76 18 164q60 283 250 452q97 87 211 129.5t245 42.5q240 0 346 -155q70 -99 70 -246q0 -76 -19 -166l-27 -125h-823q-1 -20 -1 -39q0 -121 61 -189q71 -78 223 -78q100 0 213 32.5t249 99.5l-56 -264q-122 -47 -238 -72t-226 -25q-278 0 -409 164 q-66 82 -82 192zM524 721h559q3 22 3 43q0 76 -38 130q-53 75 -172 75q-125 0 -215.5 -63.5t-136.5 -184.5z" />
<glyph unicode="f" horiz-adv-x="758" d="M194 0l203 957h-172l46 215h172l8 38q21 102 60 175.5t97.5 121t137 70t179.5 22.5h211l-48 -226h-212q-79 0 -113 -28q-32 -27 -51 -114l-12 -59h299l-46 -215h-299l-203 -957h-257z" />
<glyph unicode="g" horiz-adv-x="1366" d="M152 -348l56 267q90 -58 171 -85t158 -27q152 0 247 77t133 232q-142 -116 -336 -116q-110 0 -190 43t-131 125q-60 102 -60 245q0 86 22 187q28 132 83.5 240.5t137.5 189.5q86 82 184 125t208 43q100 0 171 -28t117 -89l20 91h255l-213 -999q-63 -298 -227.5 -443.5 t-438.5 -145.5q-101 0 -190 16t-177 52zM467 440q4 -71 29 -121q26 -45 71 -68.5t106 -23.5t116 23.5t99 68.5q46 49 80 119.5t53 161.5q16 74 16 134q0 13 -1 25q-4 70 -29 120q-25 45 -70 68.5t-106 23.5t-116 -23.5t-100 -68.5q-45 -49 -79.5 -119t-53.5 -160 q-16 -74 -16 -135q0 -13 1 -25z" />
<glyph unicode="h" horiz-adv-x="1364" d="M167 0l339 1599h257l-111 -525q74 58 161.5 91t181.5 33q208 0 287 -128q48 -77 48 -197q0 -77 -20 -172l-149 -701h-256l147 692q13 62 13 110q-1 60 -21 97q-36 67 -138 67q-128 0 -220 -81q-91 -80 -123 -227l-139 -658h-257z" />
<glyph unicode="i" horiz-adv-x="598" d="M161 0l249 1172h255l-249 -1172h-255zM436 1295l64 304h255l-64 -304h-255z" />
<glyph unicode="j" horiz-adv-x="598" d="M-156 -416l48 226h85q84 0 117 34q37 37 67 175l245 1153h255l-245 -1153q-48 -221 -158 -328q-116 -107 -307 -107h-107zM432 1295l64 304h255l-64 -304h-255z" />
<glyph unicode="k" horiz-adv-x="1245" d="M169 0l339 1599h256l-181 -853l578 426h341l-741 -551l512 -621h-343l-403 484l-102 -484h-256z" />
<glyph unicode="l" horiz-adv-x="598" d="M161 0l339 1599h255l-339 -1599h-255z" />
<glyph unicode="m" horiz-adv-x="2095" d="M179 0l249 1172h257l-21 -96q73 60 157.5 91t184.5 31q113 0 187.5 -48.5t103.5 -145.5q92 98 194.5 146t223.5 48q190 0 265 -135q45 -78 45 -194q0 -76 -19 -168l-149 -701h-258l147 692q14 67 14 117q0 55 -16 90q-32 67 -129 67q-61 0 -113.5 -20.5t-95.5 -59.5 q-89 -80 -120 -228l-139 -658h-258l147 692q15 69 15 120q0 54 -17 88q-32 66 -129 66q-121 0 -210 -81q-88 -81 -120 -227l-139 -658h-257z" />
<glyph unicode="n" horiz-adv-x="1364" d="M167 0l249 1172h257l-21 -98q74 58 161.5 91t181.5 33q208 0 287 -128q48 -77 48 -197q0 -77 -20 -172l-149 -701h-256l147 692q13 62 13 110q-1 60 -21 97q-36 67 -138 67q-128 0 -220 -81q-91 -80 -123 -227l-139 -658h-257z" />
<glyph unicode="o" horiz-adv-x="1317" d="M203 333q-4 35 -4 73q0 84 20 180q59 281 238 446q91 84 199 125t233 41q250 0 363 -166q70 -105 70 -260q0 -85 -21 -186q-30 -143 -90 -254t-149 -194q-182 -167 -434 -167q-123 0 -214.5 43.5t-146.5 123.5q-51 81 -64 195zM485 586q-16 -76 -16 -139q0 -87 31 -149 q51 -98 177 -98q125 0 220 98q48 51 82.5 122.5t54.5 165.5q16 76 16 138q0 86 -31 147q-52 98 -179 98q-124 0 -217 -97q-99 -104 -138 -286z" />
<glyph unicode="p" horiz-adv-x="1366" d="M79 -416l338 1588h256l-20 -91q74 63 156 90t183 27q218 0 318 -174q61 -104 61 -249q0 -87 -22 -189q-29 -137 -85 -247t-141 -194q-174 -174 -392 -174q-101 0 -171.5 28.5t-117.5 89.5l-107 -505h-256zM548 586q-17 -79 -17 -143q0 -86 30 -147q53 -98 176 -98 q59 0 113 25.5t99 72.5q48 52 82.5 125t54.5 165q17 78 17 141q0 13 -1 25q-4 71 -30 122q-49 97 -171 97q-124 0 -217 -97q-48 -52 -82 -123.5t-54 -164.5z" />
<glyph unicode="q" horiz-adv-x="1366" d="M198 339q-1 25 -1 51q0 90 22 196q29 137 84 245.5t140 192.5q88 87 185 130.5t207 43.5q101 0 171.5 -27t116.5 -90l20 91h255l-338 -1588h-255l108 506q-143 -119 -339 -119q-217 0 -318 174q-49 84 -58 194zM463 420q4 -72 29 -124q26 -47 70.5 -72.5t104.5 -25.5 t115 25.5t100 72.5q48 53 82 125.5t54 164.5q17 79 17 144q0 85 -30 144q-49 97 -174 97t-216 -97q-48 -52 -82 -123.5t-54 -164.5q-17 -78 -17 -141q0 -12 1 -25z" />
<glyph unicode="r" horiz-adv-x="885" d="M162 0l249 1172h257l-20 -94q74 63 161.5 91.5t193.5 28.5q19 0 39.5 -2t39.5 -5q8 -1 24.5 -3t23.5 -3l-58 -284q-48 32 -90 46.5t-80 14.5q-136 0 -226.5 -89t-126.5 -259l-130 -614h-257z" />
<glyph unicode="s" horiz-adv-x="1120" d="M100 51l60 279q110 -69 209.5 -100.5t187.5 -31.5q111 0 176 34t78 94q5 26 0.5 47t-17.5 35q-18 16 -68.5 34t-118.5 35q-5 1 -13 3.5t-19 5.5l1 -1l-27 5q-80 20 -142.5 50.5t-94.5 70.5q-47 58 -47 144q0 39 10 83q18 87 63 154t113 112.5t158 69.5t200 24 q106 0 198.5 -16.5t175.5 -53.5l-55 -260q-88 53 -174 78t-170 25q-231 0 -258 -126q-5 -20 0.5 -37.5t18.5 -29.5q19 -15 61.5 -31t102.5 -31v1l28 -6q8 -2 16 -3.5t16 -3.5q97 -23 162 -54.5t100 -71.5q54 -61 54 -154q0 -39 -9 -84q-36 -170 -194 -271q-150 -98 -377 -98 q-177 0 -405 80z" />
<glyph unicode="t" horiz-adv-x="844" d="M232 957l46 215h133l66 311h256l-66 -311h373l-46 -215h-373l-119 -558q-13 -67 -13 -104q0 -30 8 -41q22 -27 119 -27h223l-48 -227h-223q-223 0 -296 90q-44 55 -44 158q0 66 18 151l119 558h-133z" />
<glyph unicode="u" horiz-adv-x="1364" d="M254 471l149 701h258l-148 -695q-13 -62 -13 -110q0 -59 20 -96q36 -67 140 -67q127 0 219 81q48 42 78 99t46 130l140 658h255l-249 -1172h-255l20 98q-79 -68 -161 -97.5t-182 -29.5q-209 1 -289 127q-49 76 -49 196q0 79 21 177z" />
<glyph unicode="v" horiz-adv-x="1274" d="M274 1172h273l136 -849q85 145 168.5 289.5t169.5 289.5l159 270h271l-687 -1172h-298z" />
<glyph unicode="w" horiz-adv-x="1759" d="M313 1172h258l37 -746l356 746h268l39 -745l354 745h255l-552 -1172h-270l-39 791l-125 -260l-252 -531h-271z" />
<glyph unicode="x" horiz-adv-x="1274" d="M2 0l584 610l-298 562h309l191 -364l350 364h308l-546 -571l318 -601h-306l-215 406q-98 -103 -193.5 -203.5t-192.5 -202.5h-309z" />
<glyph unicode="y" horiz-adv-x="1274" d="M53 -416l48 225h143q61 0 95 25q19 13 48.5 53.5t66.5 98.5q5 9 12.5 20.5t14.5 22.5l-2 -1q3 7 8 13.5t10 13.5q-54 275 -112.5 558.5t-112.5 558.5h275l148 -791q120 197 243 396.5t242 394.5h273l-768 -1249q-59 -97 -116 -168t-102 -103l1 1q-49 -34 -107 -51.5 t-126 -17.5h-182z" />
<glyph unicode="z" horiz-adv-x="1128" d="M67 0l45 215l791 738h-609l47 219h930l-46 -216l-788 -737h631l-46 -219h-955z" />
<glyph unicode="{" horiz-adv-x="1368" d="M347 528l46 218h99q123 0 172 44q55 48 82 176l50 234q50 236 162 317q109 82 368 82h99l-45 -214h-105q-118 0 -160 -33q-38 -33 -63 -156l-52 -242q-17 -83 -43.5 -144t-60.5 -100q-19 -22 -43 -41t-53 -34q46 -30 66 -74q34 -78 -1 -242l-51 -243q-27 -123 -3 -154 q25 -33 146 -33h105l-46 -215h-99q-260 0 -333 82q-78 81 -28 316l50 235q27 132 -8 176q-30 45 -152 45h-99z" />
<glyph unicode="|" horiz-adv-x="725" d="M127 -473l442 2080h243l-442 -2080h-243z" />
<glyph unicode="}" horiz-adv-x="1368" d="M165 -326l46 215h107q123 0 158 31q20 16 35.5 54.5t29.5 101.5l51 243q17 79 44 141t58 100q19 21 43.5 40.5t53.5 35.5q-23 15 -39 34t-27 40q-15 38 -15 99t17 145l52 242q27 125 2 157q-23 32 -145 32h-107l45 214h101q257 0 333 -82q77 -81 27 -317l-50 -234 q-28 -128 5 -176l1 1q31 -45 154 -45h99l-46 -218h-99q-123 0 -174 -45q-52 -44 -80 -176l-50 -235q-50 -235 -161 -316q-111 -82 -368 -82h-101z" />
<glyph unicode="~" horiz-adv-x="1802" d="M291 412l59 277q144 90 243 128q101 37 205 37q111 0 248 -63l12 -4l23 -7q69 -30 122.5 -45.5t95.5 -15.5q38 0 82 11.5t96.5 36t115.5 62t139 89.5l-58 -273q-73 -47 -133.5 -79t-110.5 -49q-51 -19 -101 -27.5t-102 -8.5q-118 0 -252 62q-2 2 -5 2.5t-5 1.5l-10 4 l-18 5q-130 56 -213 56q-40 0 -85 -11.5t-97.5 -35.5t-114.5 -62t-136 -91z" />
<glyph unicode="&#xa1;" horiz-adv-x="862" d="M279 0l144 680l104 387h231l-59 -387l-144 -680h-276zM536 1212l70 327h276l-70 -327h-276z" />
<glyph unicode="&#xa4;" horiz-adv-x="1368" d="M110 231l252 208q-38 115 -14 227q13 59 41 115.5t70 110.5l-163 206l201 165l163 -207q121 64 240 64q57 0 109.5 -15.5t104.5 -47.5l253 211l131 -166l-252 -207q17 -55 20.5 -114.5t-8.5 -114.5q-13 -62 -40 -118t-72 -109l163 -206l-199 -164l-164 208 q-62 -32 -122.5 -49.5t-117.5 -17.5q-54 0 -108.5 15.5t-105.5 47.5l-254 -208zM576 668q-20 -98 32 -162q52 -66 147 -66t176 66q77 64 98 162q21 94 -30 158q-54 63 -149 63t-174 -63q-79 -64 -100 -158z" />
<glyph unicode="&#xa6;" horiz-adv-x="725" d="M154 -344l174 819h243l-174 -819h-243zM368 661l173 816h243l-173 -816h-243z" />
<glyph unicode="&#xa7;" d="M122 -122l52 245q195 -97 303 -97q84 0 135.5 31t63.5 88q17 76 -157 183l-23 19l2 -1q-97 61 -156 111t-85 89q-28 42 -34.5 92t5.5 108q19 88 72 159.5t141 123.5q-37 45 -46.5 98t4.5 116q30 144 163 235q125 85 301 85q75 0 154 -16t168 -50l-53 -248 q-189 99 -294 99q-77 0 -126.5 -29.5t-60.5 -81.5q-13 -66 149 -168l-1 1q8 -5 16.5 -11.5t17.5 -11.5q88 -57 151 -109.5t89 -90.5q26 -43 34.5 -94t-3.5 -106q-19 -91 -71.5 -159t-146.5 -125q32 -48 45 -102.5t2 -109.5q-17 -80 -58 -141.5t-110 -108.5 q-130 -92 -310 -92q-75 0 -156 17t-177 52zM469 777q-6 -28 3 -57.5t29 -56.5l1 1q51 -58 247 -179q52 35 79.5 67.5t34.5 66.5q12 56 -36 110q-26 31 -85.5 74.5t-158.5 105.5q-52 -35 -79.5 -67.5t-34.5 -64.5zM525 952l141 7l-84 -50z" />
<glyph unicode="&#xa8;" d="M470 1321l59 274h274l-59 -274h-274zM854 1321l59 274h274l-59 -274h-274z" />
<glyph unicode="&#xa9;" horiz-adv-x="2150" d="M430.5 472q-27.5 134 6.5 291q34 159 118.5 293t218.5 247q275 226 588 226q157 0 280 -56t211 -170q92 -113 118.5 -246t-7.5 -294q-34 -158 -117 -291.5t-223 -246.5q-272 -225 -586 -225q-157 0 -280 56t-213 169q-87 113 -114.5 247zM607 539.5q23 -104.5 91 -190.5 q67 -86 161.5 -130t215.5 -44q123 0 235.5 44t218.5 130q207 170 260 414q25 120 1.5 225.5t-86.5 191.5h1q-68 82 -164.5 127t-215.5 45q-121 0 -233.5 -42.5t-217.5 -129.5q-104 -87 -171 -191.5t-93 -225.5q-26 -119 -3 -223.5zM729 763q46 219 208 349q163 130 390 130 q75 0 147 -16t144 -50l-45 -213q-80 45 -147 66t-129 21q-129 0 -216 -75q-87 -72 -116 -212q-29 -139 28.5 -213.5t190.5 -74.5q58 0 131.5 21.5t173.5 70.5l-46 -218q-86 -32 -165.5 -49t-153.5 -17q-227 0 -336 130q-106 131 -59 350z" />
<glyph unicode="&#xab;" horiz-adv-x="1317" d="M258 569l25 115l635 475l-62 -289l-327 -243l223 -248l-61 -289zM684 569l25 115l635 475l-62 -289l-327 -243l223 -248l-61 -289z" />
<glyph unicode="&#xac;" horiz-adv-x="1802" d="M348 678l51 241h1333l-136 -638h-241l85 397h-1092z" />
<glyph unicode="&#xad;" horiz-adv-x="776" d="M171 470l51 236h606l-51 -236h-606z" />
<glyph unicode="&#xae;" horiz-adv-x="2150" d="M430.5 472q-27.5 134 6.5 291q34 159 118.5 293t218.5 247q275 226 588 226q157 0 280 -56t211 -170q92 -113 118.5 -246t-7.5 -294q-34 -158 -117 -291.5t-223 -246.5q-272 -225 -586 -225q-157 0 -280 56t-213 169q-87 113 -114.5 247zM607 539.5q23 -104.5 91 -190.5 q67 -86 161.5 -130t215.5 -44q123 0 235.5 44t218.5 130q207 170 260 414q25 120 1.5 225.5t-86.5 191.5h1q-68 82 -164.5 127t-215.5 45q-121 0 -233.5 -42.5t-217.5 -129.5q-104 -87 -171 -191.5t-93 -225.5q-26 -119 -3 -223.5zM773 330l190 895h316q380 0 322 -273 q-17 -80 -68.5 -138.5t-131.5 -87.5q14 -21 28 -51t30 -68l109 -277h-254l-92 222q-15 45 -30.5 71.5t-29.5 37.5l1 -1q-23 20 -63 20h-26l-74 -350h-227zM1111 855h82q47 0 80 5.5t52 17.5q31 17 43 73q11 53 -19 75t-115 22h-82z" />
<glyph unicode="&#xaf;" d="M474 1350l47 219h662l-47 -219h-662z" />
<glyph unicode="&#xb0;" d="M428 1213q32 145 154 248q121 102 271 102q68 0 127.5 -27t95.5 -79q40 -48 51.5 -110.5t-3.5 -133.5q-30 -147 -154 -247q-125 -99 -269 -99q-147 0 -226 99q-78 101 -47 247zM628 1213q-13 -62 21 -105q34 -41 98 -41q63 0 113 41q52 44 65 105t-22 104q-33 44 -93 44 q-33 0 -61.5 -11t-55.5 -33q-51 -41 -65 -104z" />
<glyph unicode="&#xb1;" horiz-adv-x="1802" d="M204 0l51 241h1333l-51 -241h-1333zM355 713l51 241h546l81 378h240l-81 -378h547l-51 -241h-547l-81 -381h-240l81 381h-546z" />
<glyph unicode="&#xb4;" d="M570 1235l426 444h298l-479 -444h-245z" />
<glyph unicode="&#xb6;" horiz-adv-x="1368" d="M362.5 908q-15.5 78 5.5 178q43 201 210 328q165 125 391 125h475l-369 -1732h-213l326 1533h-112l-326 -1533h-212l177 832q-98 11 -168.5 43t-117.5 88q-51 60 -66.5 138z" />
<glyph unicode="&#xb7;" horiz-adv-x="684" d="M308 571l69 326h283l-69 -326h-283z" />
<glyph unicode="&#xb9;" horiz-adv-x="862" d="M268 653l39 184h200l110 515l-68 -13l-161 -28l41 191l268 46h177l-152 -711h200l-39 -184h-615z" />
<glyph unicode="&#xba;" horiz-adv-x="1014" d="M211 459l42 198h750l-42 -198h-750zM310 1122q22 103 67 183t112 138q139 120 333 120q97 0 165 -30t113 -90q87 -117 43 -321q-44 -203 -179 -320q-70 -60 -150.5 -89t-178.5 -29q-194 0 -282 119q-85 118 -43 319zM539 1122q-24 -113 15 -184q19 -31 49 -47.5t72 -16.5 q80 0 149 64h-1q34 35 58 80.5t36 103.5q13 60 9 107.5t-23 82.5q-38 63 -121 63q-82 0 -149 -64v1q-69 -69 -94 -190z" />
<glyph unicode="&#xbb;" horiz-adv-x="1317" d="M193 90l61 289l327 248q-27 27 -52 54.5t-51 56.5q-29 31 -60 66t-60 66l62 289l433 -475l-25 -115zM617 90l61 289l329 248l-104 111l-121 132l62 288l434 -474l-25 -115z" />
<glyph unicode="&#xbf;" horiz-adv-x="1141" d="M196 355q18 81 73 158q27 35 68.5 75t95.5 85l104 84q30 26 50 44t27 26q11 11 18.5 20.5t11.5 17.5q8 16 15.5 43.5t18.5 78.5l34 158h264l-41 -191q-11 -52 -28.5 -97t-38.5 -80q-49 -77 -160 -162v1l-107 -89q-59 -45 -90 -84.5t-39 -78.5q-15 -70 27 -112l-1 1 q49 -45 138 -45q70 0 177 43t244 128l-59 -280q-241 -128 -445 -128q-99 0 -171.5 26t-123.5 77q-99 108 -62 281zM721 1212l70 327h275l-70 -327h-275z" />
<glyph unicode="&#xc0;" horiz-adv-x="1470" d="M4 38l928 1565h284l262 -1565h-290l-57 381h-615q-53 -93 -109 -190.5t-108 -190.5h-295zM656 665h438l-94 588zM807 1969h290l177 -342h-244z" />
<glyph unicode="&#xc1;" horiz-adv-x="1470" d="M4 38l928 1565h284l262 -1565h-290l-57 381h-615q-53 -93 -109 -190.5t-108 -190.5h-295zM656 665h438l-94 588zM844 1627l326 342h286l-365 -342h-247z" />
<glyph unicode="&#xc2;" horiz-adv-x="1470" d="M4 38l928 1565h284l262 -1565h-290l-57 381h-615q-53 -93 -109 -190.5t-108 -190.5h-295zM656 665h438l-94 588zM680 1627l342 344h225l196 -344h-235l-112 162l-183 -162h-233z" />
<glyph unicode="&#xc3;" horiz-adv-x="1470" d="M4 38l928 1565h284l262 -1565h-290l-57 381h-615q-53 -93 -109 -190.5t-108 -190.5h-295zM656 665h438l-94 588zM699 1659q33 154 110 223q39 35 86 54t96 19q39 0 72 -10q18 -6 38.5 -15.5t40.5 -20.5l48 -28q19 -13 30 -18t22 -5q14 0 27 15t18 38l9 44h202 q-17 -75 -45 -131t-66 -91q-39 -37 -83 -55.5t-96 -18.5q-20 0 -36.5 2t-34.5 7.5t-38 15t-46 23.5l-45 34l-1 -1q-20 12 -30 16t-15 4q-18 0 -31.5 -14.5t-18.5 -40.5l-10 -46h-203z" />
<glyph unicode="&#xc4;" horiz-adv-x="1470" d="M4 38l928 1565h284l262 -1565h-290l-57 381h-615q-53 -93 -109 -190.5t-108 -190.5h-295zM656 665h438l-94 588zM734 1659l59 279h279l-59 -279h-279zM1123 1659l59 279h280l-59 -279h-280z" />
<glyph unicode="&#xc5;" horiz-adv-x="1470" d="M-22 0l839 1415q-95 92 -62 242q27 130 138 223q112 91 241 91q128 0 202 -92q71 -92 44 -222q-15 -69 -59 -132.5t-106 -109.5q59 -349 118.5 -707.5t118.5 -707.5h-290l-57 381h-615q-53 -93 -109 -190.5t-108 -190.5h-295zM633 627h433l-92 588zM955 1657 q-11 -48 16 -79q13 -17 31 -24.5t42 -7.5t45.5 7.5t41.5 24.5q40 32 50 79q10 49 -16 81q-24 34 -73 34q-51 0 -88 -33q-39 -31 -49 -82z" />
<glyph unicode="&#xc6;" horiz-adv-x="2095" d="M-25 0l989 1565h1269l-52 -247h-738l-78 -363h709l-52 -246h-709l-98 -464h757l-52 -245h-1036l80 381h-463l-239 -381h-287zM657 627h360l149 703h-65q-58 -92 -113 -178.5t-109 -172.5t-109 -173t-113 -179z" />
<glyph unicode="&#xc7;" horiz-adv-x="1501" d="M267 483.5q-19 147.5 20 334.5q40 188 122.5 335.5t207.5 255.5q253 218 608 218q137 0 256.5 -38.5t219.5 -119.5l-69 -323q-103 121 -215 180.5t-232 59.5q-237 0 -393 -144.5t-216 -423.5q-29 -141 -20.5 -247t56.5 -178q96 -143 332 -143q120 0 257.5 60.5 t291.5 180.5l-68 -319q-137 -83 -272.5 -123t-271.5 -40q-356 0 -515 218q-80 109 -99 256.5zM495 -359l48 223q49 -30 92.5 -45t85.5 -15q79 0 91 58q5 23 -13.5 76t-65.5 139h213q49 -75 69 -135.5t8 -116.5q-23 -108 -104.5 -163.5t-217.5 -55.5q-48 0 -99 9.5t-107 25.5 z" />
<glyph unicode="&#xc8;" horiz-adv-x="1360" d="M206 38l332 1565h1016l-52 -247h-737l-78 -363h706l-52 -246h-706l-98 -464h756l-52 -245h-1035zM776 1969h289l181 -342h-248z" />
<glyph unicode="&#xc9;" horiz-adv-x="1360" d="M206 38l332 1565h1016l-52 -247h-737l-78 -363h706l-52 -246h-706l-98 -464h756l-52 -245h-1035zM813 1627l327 342h284l-364 -342h-247z" />
<glyph unicode="&#xca;" horiz-adv-x="1360" d="M206 38l332 1565h1016l-52 -247h-737l-78 -363h706l-52 -246h-706l-98 -464h756l-52 -245h-1035zM647 1627l343 344h227l196 -344h-233l-116 161q-46 -40 -92 -80.5t-91 -80.5h-234z" />
<glyph unicode="&#xcb;" horiz-adv-x="1360" d="M206 38l332 1565h1016l-52 -247h-737l-78 -363h706l-52 -246h-706l-98 -464h756l-52 -245h-1035zM703 1659l59 279h279l-59 -279h-279zM1094 1659l59 279h278l-59 -279h-278z" />
<glyph unicode="&#xcc;" horiz-adv-x="635" d="M184 38l332 1565h279l-332 -1565h-279zM399 1969h289l181 -342h-247z" />
<glyph unicode="&#xcd;" horiz-adv-x="635" d="M188 38l332 1565h279l-332 -1565h-279zM438 1627l328 342h284l-363 -342h-249z" />
<glyph unicode="&#xce;" horiz-adv-x="635" d="M186 38l332 1565h279l-332 -1565h-279zM272 1627l343 344h227l196 -344h-236l-114 160l-77 -68q-26 -22 -54 -46t-51 -46h-234z" />
<glyph unicode="&#xcf;" horiz-adv-x="635" d="M186 38l332 1565h279l-332 -1565h-279zM328 1659l59 279h278l-59 -279h-278zM718 1659l59 279h279l-59 -279h-279z" />
<glyph unicode="&#xd0;" horiz-adv-x="1665" d="M138 697l47 221h201l137 647h452q446 0 618 -190q175 -190 90 -593q-86 -400 -342 -592q-253 -190 -698 -190h-452l148 697h-201zM521 242h204q293 0 451 128q159 129 220 412q60 284 -45 410q-106 130 -397 130h-204l-85 -404h334l-47 -221h-334z" />
<glyph unicode="&#xd1;" horiz-adv-x="1610" d="M211 38l332 1565h333l357 -1128l240 1128h273l-332 -1565h-334l-358 1126l-239 -1126h-272zM769 1659q14 67 41.5 122t65 93.5t83.5 59.5t97 21q42 0 76.5 -9.5t77.5 -36.5q12 -8 24.5 -16.5t25.5 -14.5q15 -11 27 -15.5t23 -4.5q16 0 28 15t17 38l9 44h202 q-17 -74 -46 -130.5t-65 -91.5q-39 -36 -83.5 -55t-95.5 -19q-18 0 -35.5 2t-36.5 8t-38.5 15t-39.5 19l-55 39q-16 11 -25 14.5t-16 3.5q-18 0 -31.5 -14.5t-18.5 -40.5l-10 -46h-201z" />
<glyph unicode="&#xd2;" horiz-adv-x="1694" d="M273 488.5q-18 146.5 20 329.5q39 184 119.5 330t201.5 256q248 223 579 223t482 -223q75 -109 93 -255.5t-21 -330.5q-38 -183 -119 -329t-202 -257q-247 -223 -577 -223t-484 223q-74 110 -92 256.5zM582 818q-57 -266 32 -422q85 -148 286 -148q200 0 347 148 q152 155 209 422t-30 422q-84 148 -284 148q-201 0 -349 -148q-154 -154 -211 -422zM918 1969h286l181 -342h-245z" />
<glyph unicode="&#xd3;" horiz-adv-x="1694" d="M273 488.5q-18 146.5 20 329.5q39 184 119.5 330t201.5 256q248 223 579 223t482 -223q75 -109 93 -255.5t-21 -330.5q-38 -183 -119 -329t-202 -257q-247 -223 -577 -223t-484 223q-74 110 -92 256.5zM582 818q-57 -266 32 -422q85 -148 286 -148q200 0 347 148 q152 155 209 422t-30 422q-84 148 -284 148q-201 0 -349 -148q-154 -154 -211 -422zM952 1627l327 342h287l-367 -342h-247z" />
<glyph unicode="&#xd4;" horiz-adv-x="1694" d="M273 488.5q-18 146.5 20 329.5q39 184 119.5 330t201.5 256q248 223 579 223t482 -223q75 -109 93 -255.5t-21 -330.5q-38 -183 -119 -329t-202 -257q-247 -223 -577 -223t-484 223q-74 110 -92 256.5zM582 818q-57 -266 32 -422q85 -148 286 -148q200 0 347 148 q152 155 209 422t-30 422q-84 148 -284 148q-201 0 -349 -148q-154 -154 -211 -422zM784 1627l348 344h224l196 -344h-235l-111 162l-183 -162h-239z" />
<glyph unicode="&#xd5;" horiz-adv-x="1694" d="M273 488.5q-18 146.5 20 329.5q39 184 119.5 330t201.5 256q248 223 579 223t482 -223q75 -109 93 -255.5t-21 -330.5q-38 -183 -119 -329t-202 -257q-247 -223 -577 -223t-484 223q-74 110 -92 256.5zM582 818q-57 -266 32 -422q85 -148 286 -148q200 0 347 148 q152 155 209 422t-30 422q-84 148 -284 148q-201 0 -349 -148q-154 -154 -211 -422zM811 1659q14 67 41.5 122t65 93.5t84 59.5t97.5 21q41 0 75 -9.5t78 -36.5l50 -31q14 -11 26.5 -15.5t23.5 -4.5q16 0 28.5 15t17.5 38l9 44h200q-17 -74 -45.5 -130.5t-64.5 -91.5 q-39 -36 -84 -55t-96 -19q-18 0 -35.5 2t-35.5 8h1q-34 11 -78 35l-55 38q-15 11 -25 14.5t-17 3.5q-19 0 -31.5 -14.5t-17.5 -40.5l-10 -46h-202z" />
<glyph unicode="&#xd6;" horiz-adv-x="1694" d="M273 488.5q-18 146.5 20 329.5q39 184 119.5 330t201.5 256q248 223 579 223t482 -223q75 -109 93 -255.5t-21 -330.5q-38 -183 -119 -329t-202 -257q-247 -223 -577 -223t-484 223q-74 110 -92 256.5zM582 818q-57 -266 32 -422q85 -148 286 -148q200 0 347 148 q152 155 209 422t-30 422q-84 148 -284 148q-201 0 -349 -148q-154 -154 -211 -422zM842 1659l59 279h282l-59 -279h-282zM1233 1659l59 279h278l-59 -279h-278z" />
<glyph unicode="&#xd7;" horiz-adv-x="1802" d="M298 218l542 448l-352 448l207 172l353 -448l544 448l133 -172l-542 -448l352 -448l-207 -172l-353 450l-544 -450z" />
<glyph unicode="&#xd8;" horiz-adv-x="1694" d="M79 52l221 205q-102 212 -37 523q39 184 119.5 330t201.5 256q248 223 579 223q124 0 226 -33t176 -102l203 190l128 -139l-214 -202q51 -106 59.5 -236.5t-24.5 -286.5q-38 -183 -119 -329t-202 -257q-247 -223 -577 -223q-124 0 -225.5 34.5t-178.5 100.5l-204 -192z M528.5 617q-4.5 -75 8.5 -135l818 774q-42 49 -103.5 71.5t-139.5 22.5q-201 0 -349 -148q-154 -154 -211 -422q-19 -88 -23.5 -163zM625 307q45 -45 107.5 -71t137.5 -26q200 0 347 148q152 155 209 422q19 88 23 162t-7 134z" />
<glyph unicode="&#xd9;" horiz-adv-x="1575" d="M313 636l205 967h279l-201 -945q-47 -226 11 -318t231 -92q89 0 156 23.5t115 68.5q98 92 145 318l201 945h279l-205 -967q-66 -310 -254 -468.5t-488 -158.5q-301 0 -420.5 158.5t-53.5 468.5zM857 1969h290l181 -342h-248z" />
<glyph unicode="&#xda;" horiz-adv-x="1575" d="M313 636l205 967h279l-201 -945q-47 -226 11 -318t231 -92q89 0 156 23.5t115 68.5q98 92 145 318l201 945h279l-205 -967q-66 -310 -254 -468.5t-488 -158.5q-301 0 -420.5 158.5t-53.5 468.5zM894 1627l327 342h284l-363 -342h-248z" />
<glyph unicode="&#xdb;" horiz-adv-x="1575" d="M313 636l205 967h279l-201 -945q-47 -226 11 -318t231 -92q89 0 156 23.5t115 68.5q98 92 145 318l201 945h279l-205 -967q-66 -310 -254 -468.5t-488 -158.5q-301 0 -420.5 158.5t-53.5 468.5zM729 1627l342 344h228l196 -344h-234l-115 161q-46 -40 -92 -80.5 t-91 -80.5h-234z" />
<glyph unicode="&#xdc;" horiz-adv-x="1575" d="M313 636l205 967h279l-201 -945q-47 -226 11 -318t231 -92q89 0 156 23.5t115 68.5q98 92 145 318l201 945h279l-205 -967q-66 -310 -254 -468.5t-488 -158.5q-301 0 -420.5 158.5t-53.5 468.5zM784 1659l59 279h279l-59 -279h-279zM1175 1659l59 279h279l-59 -279h-279z " />
<glyph unicode="&#xdd;" horiz-adv-x="1315" d="M296 1603h309l268 -580l105 120q101 113 205 230.5t202 229.5h312l-737 -831l-156 -734h-279l156 734zM768 1627l328 342h284l-363 -342h-249z" />
<glyph unicode="&#xde;" horiz-adv-x="1300" d="M180 0l332 1565h279l-56 -265h213q268 0 380.5 -121t62.5 -360q-51 -239 -215 -361t-433 -122h-213l-71 -336h-279zM581 578h213q123 0 203 63t105 178q24 116 -28 178t-177 62h-213z" />
<glyph unicode="&#xdf;" horiz-adv-x="1354" d="M168 0l244 1151q23 106 73.5 189t125.5 142q75 57 172.5 87t209.5 30q225 0 312 -131t36 -390q-148 -7 -240.5 -54t-108.5 -123q-8 -35 9.5 -67t65.5 -66l47 -37q69 -52 116.5 -100.5t64.5 -85.5q17 -40 21 -87t-8 -101q-40 -188 -180 -287t-366 -99q-69 0 -141 15 t-152 42l53 245q94 -38 167.5 -56.5t133.5 -18.5q94 0 151 37t73 109q5 24 3 44t-9 36v-1q-10 17 -33.5 40.5t-63.5 52.5h1l-79 53q-46 32 -76.5 65.5t-46.5 71t-18 80.5t9 94q13 64 46.5 119.5t83 100.5t113.5 78t139 52q1 69 -44.5 106t-130.5 37q-109 0 -179 -58 t-93 -168l-243 -1147h-258z" />
<glyph unicode="&#xe0;" horiz-adv-x="1319" d="M172 198q-13 70 6 159q44 205 199.5 307.5t418.5 102.5l216 1q14 98 -46 149.5t-185 51.5q-87 0 -193 -29t-224 -86l54 256q127 45 232 66.5t198 21.5q258 0 356.5 -132t41.5 -402l-141 -664h-255l20 98q-78 -61 -169.5 -94t-199.5 -33q-94 0 -161 26t-112 77 q-43 54 -56 124zM437 368q-16 -75 24 -124h-1q42 -46 137 -46q64 0 124 25t109 67q47 47 83.5 114.5t52.5 144.5l1 3h-142q-207 0 -293 -46q-74 -39 -95 -138zM539 1679h295l240 -442h-244z" />
<glyph unicode="&#xe1;" horiz-adv-x="1319" d="M172 198q-13 70 6 159q44 205 199.5 307.5t418.5 102.5l216 1q14 98 -46 149.5t-185 51.5q-87 0 -193 -29t-224 -86l54 256q127 45 232 66.5t198 21.5q258 0 356.5 -132t41.5 -402l-141 -664h-255l20 98q-78 -61 -169.5 -94t-199.5 -33q-94 0 -161 26t-112 77 q-43 54 -56 124zM437 368q-16 -75 24 -124h-1q42 -46 137 -46q64 0 124 25t109 67q47 47 83.5 114.5t52.5 144.5l1 3h-142q-207 0 -293 -46q-74 -39 -95 -138zM656 1235l426 444h298l-479 -444h-245z" />
<glyph unicode="&#xe2;" horiz-adv-x="1319" d="M201 236q-13 70 6 159q44 205 199.5 307.5t418.5 102.5l216 1q14 98 -46 149.5t-185 51.5q-87 0 -193 -29t-224 -86l54 256q127 45 232 66.5t198 21.5q258 0 356.5 -132t41.5 -402l-141 -664h-255l20 98q-78 -61 -169.5 -94t-199.5 -33q-94 0 -161 26t-112 77 q-43 54 -56 124zM466 406q-16 -75 24 -124h-1q42 -46 137 -46q64 0 124 25t109 67q47 47 83.5 114.5t52.5 144.5l1 3h-142q-207 0 -293 -46q-74 -39 -95 -138zM482 1235l384 444h184l196 -444h-224l-112 212q-50 -52 -103 -106.5t-101 -105.5h-224z" />
<glyph unicode="&#xe3;" horiz-adv-x="1319" d="M201 236q-13 70 6 159q44 205 199.5 307.5t418.5 102.5l216 1q14 98 -46 149.5t-185 51.5q-87 0 -193 -29t-224 -86l54 256q127 45 232 66.5t198 21.5q258 0 356.5 -132t41.5 -402l-141 -664h-255l20 98q-78 -61 -169.5 -94t-199.5 -33q-94 0 -161 26t-112 77 q-43 54 -56 124zM466 406q-16 -75 24 -124h-1q42 -46 137 -46q64 0 124 25t109 67q47 47 83.5 114.5t52.5 144.5l1 3h-142q-207 0 -293 -46q-74 -39 -95 -138zM512 1281q19 84 49 149.5t69 110.5t86 69t100 24q46 0 79 -17t68 -55l45 -54q25 -27 35 -27q17 0 34 35.5 t37 117.5h197q-19 -84 -49.5 -149.5t-69.5 -110.5t-86 -69t-99 -24q-48 0 -81.5 17t-68.5 52l-45 54q-13 16 -20.5 22t-12.5 6q-17 0 -33 -35t-37 -116h-197z" />
<glyph unicode="&#xe4;" horiz-adv-x="1319" d="M172 198q-13 70 6 159q44 205 199.5 307.5t418.5 102.5l216 1q14 98 -46 149.5t-185 51.5q-87 0 -193 -29t-224 -86l54 256q127 45 232 66.5t198 21.5q258 0 356.5 -132t41.5 -402l-141 -664h-255l20 98q-78 -61 -169.5 -94t-199.5 -33q-94 0 -161 26t-112 77 q-43 54 -56 124zM437 368q-16 -75 24 -124h-1q42 -46 137 -46q64 0 124 25t109 67q47 47 83.5 114.5t52.5 144.5l1 3h-142q-207 0 -293 -46q-74 -39 -95 -138zM556 1321l59 274h274l-59 -274h-274zM940 1321l59 274h274l-59 -274h-274z" />
<glyph unicode="&#xe5;" horiz-adv-x="1319" d="M201 236q-13 70 6 159q44 205 199.5 307.5t418.5 102.5l216 1q14 98 -46 149.5t-185 51.5q-87 0 -193 -29t-224 -86l54 256q127 45 232 66.5t198 21.5q258 0 356.5 -132t41.5 -402l-141 -664h-255l20 98q-78 -61 -169.5 -94t-199.5 -33q-94 0 -161 26t-112 77 q-43 54 -56 124zM466 406q-16 -75 24 -124h-1q42 -46 137 -46q64 0 124 25t109 67q47 47 83.5 114.5t52.5 144.5l1 3h-142q-207 0 -293 -46q-74 -39 -95 -138zM620 1528q27 129 137 219q109 89 236 89q125 0 197 -89q70 -89 42 -219q-27 -127 -135 -216q-108 -90 -235 -90 q-126 0 -198 90q-71 91 -44 216zM816 1528q-9 -48 15 -77q24 -31 73 -31q46 0 85 32q38 31 47 76q11 48 -14 80q-25 31 -71 31q-50 0 -86 -30q-39 -33 -49 -81z" />
<glyph unicode="&#xe6;" horiz-adv-x="2111" d="M187.5 195.5q-13.5 71.5 5.5 161.5q44 205 199 307.5t420 102.5l215 1q14 98 -45.5 149.5t-184.5 51.5q-88 0 -193.5 -29t-223.5 -86l54 256q246 88 428 88q134 0 229 -40.5t142 -115.5q91 72 205 114t236 42q236 0 344 -154q54 -76 67.5 -179t-14.5 -234l-27 -125h-825 q-14 -152 59 -230t226 -78q96 0 208.5 32.5t252.5 99.5l-56 -263q-125 -46 -239.5 -71t-225.5 -25q-157 0 -266.5 52.5t-169.5 155.5q-100 -107 -215 -157.5t-253 -50.5q-100 0 -172 25.5t-119 75.5q-48 52 -61.5 123.5zM452 368q-16 -76 24 -124h-1q22 -24 56.5 -35 t80.5 -11q63 0 123.5 25t108.5 67q47 47 84 114.5t53 144.5l1 3h-142q-207 0 -293 -46q-74 -40 -95 -138zM1273 721h559q6 54 -4 97.5t-31 76.5q-26 32 -70.5 53t-99.5 21q-126 0 -217 -63.5t-137 -184.5z" />
<glyph unicode="&#xe7;" horiz-adv-x="1182" d="M229.5 372q-13.5 112 15.5 252q60 281 251 447q193 165 469 165q172 0 335 -83l-55 -257q-177 111 -322 111q-159 0 -265 -97q-110 -99 -149 -286q-20 -92 -12.5 -164.5t39.5 -123.5q33 -47 88 -72.5t136 -25.5q72 0 163.5 28t205.5 83l-55 -256q-98 -44 -193 -64 t-192 -20q-262 0 -385 167q-61 84 -74.5 196zM332 -353l47 219q51 -30 93 -43.5t83 -13.5q78 0 90 56q5 22 -13.5 74t-64.5 137h209q49 -74 68 -133t7 -115q-23 -106 -102.5 -161t-216.5 -55q-46 0 -96 9.5t-104 25.5z" />
<glyph unicode="&#xe8;" horiz-adv-x="1323" d="M204.5 327q-16.5 110 12.5 247q60 283 250 452q97 87 211 129.5t245 42.5q240 0 346 -155q106 -150 51 -412l-27 -125h-823q-11 -151 60 -228.5t223 -77.5q100 0 213 32.5t249 99.5l-56 -264q-122 -47 -238 -72t-226 -25q-278 0 -409 164q-65 82 -81.5 192zM524 721h559 q13 105 -35 173q-53 75 -172 75q-125 0 -215.5 -63.5t-136.5 -184.5zM598 1679h295l240 -442h-244z" />
<glyph unicode="&#xe9;" horiz-adv-x="1323" d="M204.5 327q-16.5 110 12.5 247q60 283 250 452q97 87 211 129.5t245 42.5q240 0 346 -155q106 -150 51 -412l-27 -125h-823q-11 -151 60 -228.5t223 -77.5q100 0 213 32.5t249 99.5l-56 -264q-122 -47 -238 -72t-226 -25q-278 0 -409 164q-65 82 -81.5 192zM524 721h559 q13 105 -35 173q-53 75 -172 75q-125 0 -215.5 -63.5t-136.5 -184.5zM715 1235l426 444h298l-479 -444h-245z" />
<glyph unicode="&#xea;" horiz-adv-x="1323" d="M234.5 365q-16.5 110 12.5 247q60 283 250 452q97 87 211 129.5t245 42.5q240 0 346 -155q106 -150 51 -412l-27 -125h-823q-11 -151 60 -228.5t223 -77.5q100 0 213 32.5t249 99.5l-56 -264q-122 -47 -238 -72t-226 -25q-278 0 -409 164q-65 82 -81.5 192zM539 1235 l383 444h188l193 -444h-225l-111 212l-66 -69q-32 -35 -68.5 -73t-66.5 -70h-227zM554 759h559q13 105 -35 173q-53 75 -172 75q-125 0 -215.5 -63.5t-136.5 -184.5z" />
<glyph unicode="&#xeb;" horiz-adv-x="1323" d="M204.5 327q-16.5 110 12.5 247q60 283 250 452q97 87 211 129.5t245 42.5q240 0 346 -155q106 -150 51 -412l-27 -125h-823q-11 -151 60 -228.5t223 -77.5q100 0 213 32.5t249 99.5l-56 -264q-122 -47 -238 -72t-226 -25q-278 0 -409 164q-65 82 -81.5 192zM524 721h559 q13 105 -35 173q-53 75 -172 75q-125 0 -215.5 -63.5t-136.5 -184.5zM615 1321l59 274h274l-59 -274h-274zM999 1321l59 274h274l-59 -274h-274z" />
<glyph unicode="&#xec;" horiz-adv-x="598" d="M158 0l249 1172h255l-249 -1172h-255zM246 1717h295l240 -442h-244z" />
<glyph unicode="&#xed;" horiz-adv-x="598" d="M164 0l249 1172h255l-249 -1172h-255zM371 1273l426 444h298l-479 -444h-245z" />
<glyph unicode="&#xee;" horiz-adv-x="598" d="M161 0l249 1172h255l-249 -1172h-255zM168 1235l383 444h188l195 -444h-227l-111 212l-66 -69q-32 -35 -69 -73t-66 -70h-227z" />
<glyph unicode="&#xef;" horiz-adv-x="598" d="M161 0l249 1172h255l-249 -1172h-255zM267 1359l59 274h274l-59 -274h-274zM651 1359l59 274h274l-59 -274h-274z" />
<glyph unicode="&#xf0;" horiz-adv-x="1317" d="M199.5 324q-13.5 107 14.5 239q28 129 87 235t147 187q90 79 195.5 122.5t217.5 43.5q7 0 7.5 0.5l0.5 0.5h1.5t11.5 -1q-14 20 -28.5 40.5t-30.5 43.5q-41 -13 -85.5 -26.5t-89.5 -27.5t-89 -28t-84 -26l-19 169l275 83l-147 220h321l91 -135q88 26 181.5 55t181.5 55 l19 -167l-287 -89l91 -138q48 -72 80 -146t44 -146l-1 1q15 -74 12.5 -155.5t-21.5 -170.5q-56 -265 -240 -427l1 1q-187 -166 -429 -166q-244 0 -356 166l-1 -1q-58 81 -71.5 188zM480 563q-35 -167 21 -269q54 -94 176 -94q125 0 218 94q98 101 134 269q46 216 -18 339 q-40 13 -76 19.5t-71 6.5q-146 0 -246 -94q-100 -93 -138 -271zM1008 923.5q1 18.5 6 39.5l77 -66q-26 0 -41 0.5t-22.5 1t-10 1t-3.5 1.5q-7 4 -6 22.5z" />
<glyph unicode="&#xf1;" horiz-adv-x="1364" d="M198 38l249 1172h257l-21 -98q74 58 161.5 91t181.5 33q208 0 287 -127.5t28 -369.5l-149 -701h-256l147 692q29 140 -7.5 207t-138.5 67q-128 0 -220 -81q-91 -80 -123 -227l-139 -658h-257zM583 1281q19 84 49 149.5t69 110.5t86 69t100 24q47 0 81 -17t66 -55h-1 l46 -53q25 -28 35 -28q17 0 32.5 35.5t35.5 117.5h199q-19 -84 -49 -149.5t-69 -110.5t-85.5 -69t-99.5 -24q-47 0 -81 17t-69 52l-44 54q-12 15 -20.5 21.5t-13.5 6.5q-17 0 -33.5 -35t-36.5 -116h-197z" />
<glyph unicode="&#xf2;" horiz-adv-x="1317" d="M203 333q-13 114 16 253q59 281 238 446q91 84 199 125t233 41q250 0 363 -166q109 -163 49 -446q-30 -143 -90 -254t-149 -194q-182 -167 -434 -167q-123 0 -214.5 43.5t-146.5 123.5q-51 81 -64 195zM485 586q-39 -181 15 -288q51 -98 177 -98q125 0 220 98 q48 51 82.5 122.5t54.5 165.5q39 181 -15 285q-52 98 -179 98q-124 0 -217 -97q-99 -104 -138 -286zM574 1679h295l240 -442h-244z" />
<glyph unicode="&#xf3;" horiz-adv-x="1317" d="M203 333q-13 114 16 253q59 281 238 446q91 84 199 125t233 41q250 0 363 -166q109 -163 49 -446q-30 -143 -90 -254t-149 -194q-182 -167 -434 -167q-123 0 -214.5 43.5t-146.5 123.5q-51 81 -64 195zM485 586q-39 -181 15 -288q51 -98 177 -98q125 0 220 98 q48 51 82.5 122.5t54.5 165.5q39 181 -15 285q-52 98 -179 98q-124 0 -217 -97q-99 -104 -138 -286zM691 1235l426 444h298l-479 -444h-245z" />
<glyph unicode="&#xf4;" horiz-adv-x="1317" d="M233 371q-13 114 16 253q59 281 238 446q91 84 199 125t233 41q250 0 363 -166q109 -163 49 -446q-30 -143 -90 -254t-149 -194q-182 -167 -434 -167q-123 0 -214.5 43.5t-146.5 123.5q-51 81 -64 195zM515 624q-39 -181 15 -288q51 -98 177 -98q125 0 220 98 q48 51 82.5 122.5t54.5 165.5q39 181 -15 285q-52 98 -179 98q-124 0 -217 -97q-99 -104 -138 -286zM515 1235l384 444h185l196 -444h-225l-114 212l-201 -212h-225z" />
<glyph unicode="&#xf5;" horiz-adv-x="1317" d="M233 371q-13 114 16 253q59 281 238 446q91 84 199 125t233 41q250 0 363 -166q109 -163 49 -446q-30 -143 -90 -254t-149 -194q-182 -167 -434 -167q-123 0 -214.5 43.5t-146.5 123.5q-51 81 -64 195zM515 624q-39 -181 15 -288q51 -98 177 -98q125 0 220 98 q48 51 82.5 122.5t54.5 165.5q39 181 -15 285q-52 98 -179 98q-124 0 -217 -97q-99 -104 -138 -286zM546 1281q19 84 49 149.5t69 110.5t86 69t100 24q43 0 78 -17t70 -55l45 -53q25 -28 34 -28q17 0 33.5 35.5t37.5 117.5h197q-19 -84 -49.5 -149.5t-69.5 -110.5t-86 -69 t-99 -24q-47 0 -81 17t-69 52l-44 54q-12 15 -20 21.5t-15 6.5q-17 0 -33 -35t-36 -116h-197z" />
<glyph unicode="&#xf6;" horiz-adv-x="1317" d="M203 333q-13 114 16 253q59 281 238 446q91 84 199 125t233 41q250 0 363 -166q109 -163 49 -446q-30 -143 -90 -254t-149 -194q-182 -167 -434 -167q-123 0 -214.5 43.5t-146.5 123.5q-51 81 -64 195zM485 586q-39 -181 15 -288q51 -98 177 -98q125 0 220 98 q48 51 82.5 122.5t54.5 165.5q39 181 -15 285q-52 98 -179 98q-124 0 -217 -97q-99 -104 -138 -286zM591 1321l59 274h274l-59 -274h-274zM975 1321l59 274h274l-59 -274h-274z" />
<glyph unicode="&#xf7;" horiz-adv-x="1802" d="M320 546l51 242h1333l-51 -242h-1333zM743 148l67 315h316l-67 -315h-316zM897 871l67 317h316l-67 -317h-316z" />
<glyph unicode="&#xf8;" horiz-adv-x="1317" d="M42 17l191 187q-62 156 -14 382q59 281 238 446q91 84 199 125t233 41q90 0 161 -20.5t127 -65.5l25 25l147 142l126 -127l-190 -183q34 -76 37.5 -171.5t-21.5 -211.5q-60 -281 -240 -448t-433 -167q-89 0 -161 22.5t-126 65.5q-42 -40 -88 -83.5t-85 -81.5zM464 426 l517 496q-55 47 -141 47q-128 0 -220 -99q-96 -105 -138 -299q-9 -41 -13.5 -78t-4.5 -67zM534 245q26 -24 62 -34.5t81 -10.5q125 0 220 98q48 51 82.5 122.5t54.5 165.5q11 49 15 88.5t3 72.5z" />
<glyph unicode="&#xf9;" horiz-adv-x="1364" d="M254 471l149 701h258l-148 -695q-29 -139 7 -206t140 -67q127 0 219 81q48 42 78 99t46 130l140 658h255l-249 -1172h-255l20 98q-79 -68 -161 -97.5t-182 -29.5q-209 0 -289.5 126.5t-27.5 373.5zM582 1679h295l240 -442h-244z" />
<glyph unicode="&#xfa;" horiz-adv-x="1364" d="M254 471l149 701h258l-148 -695q-29 -139 7 -206t140 -67q127 0 219 81q48 42 78 99t46 130l140 658h255l-249 -1172h-255l20 98q-79 -68 -161 -97.5t-182 -29.5q-209 0 -289.5 126.5t-27.5 373.5zM699 1235l426 444h298l-479 -444h-245z" />
<glyph unicode="&#xfb;" horiz-adv-x="1364" d="M284 509l149 701h258l-148 -695q-29 -139 7 -206t140 -67q127 0 219 81q48 42 78 99t46 130l140 658h255l-249 -1172h-255l20 98q-79 -68 -161 -97.5t-182 -29.5q-209 0 -289.5 126.5t-27.5 373.5zM523 1235l384 444h185l196 -444h-225l-111 212l-204 -212h-225z" />
<glyph unicode="&#xfc;" horiz-adv-x="1364" d="M254 471l149 701h258l-148 -695q-29 -139 7 -206t140 -67q127 0 219 81q48 42 78 99t46 130l140 658h255l-249 -1172h-255l20 98q-79 -68 -161 -97.5t-182 -29.5q-209 0 -289.5 126.5t-27.5 373.5zM599 1321l59 274h274l-59 -274h-274zM983 1321l59 274h274l-59 -274 h-274z" />
<glyph unicode="&#xfd;" horiz-adv-x="1274" d="M53 -416l48 225h143q61 0 95 25q19 13 48.5 53.5t66.5 98.5q5 9 12.5 20.5t14.5 22.5l-2 -1q3 7 8 13.5t10 13.5q-54 275 -112.5 558.5t-112.5 558.5h275l148 -791q120 197 243 396.5t242 394.5h273l-768 -1249q-59 -97 -116 -168t-102 -103l1 1q-49 -34 -107 -51.5 t-126 -17.5h-182zM668 1235l426 444h298l-479 -444h-245z" />
<glyph unicode="&#xfe;" horiz-adv-x="1366" d="M79 -416l428 2015h256l-110 -518q74 63 156 90t183 27q218 0 318 -174q97 -166 39 -438q-29 -137 -85 -247t-141 -194q-174 -174 -392 -174q-101 0 -171.5 28.5t-117.5 89.5l-107 -505h-256zM548 586q-39 -184 13 -290q53 -98 176 -98q59 0 113 25.5t99 72.5 q48 52 82.5 125t54.5 165q20 94 16 165.5t-30 122.5q-49 97 -171 97q-124 0 -217 -97q-48 -52 -82 -123.5t-54 -164.5z" />
<glyph unicode="&#xff;" horiz-adv-x="1274" d="M53 -416l48 225h143q61 0 95 25q19 13 48.5 53.5t66.5 98.5q5 9 12.5 20.5t14.5 22.5l-2 -1q3 7 8 13.5t10 13.5q-54 275 -112.5 558.5t-112.5 558.5h275l148 -791q120 197 243 396.5t242 394.5h273l-768 -1249q-59 -97 -116 -168t-102 -103l1 1q-49 -34 -107 -51.5 t-126 -17.5h-182zM568 1321l59 274h274l-59 -274h-274zM952 1321l59 274h274l-59 -274h-274z" />
<glyph unicode="&#x401;" horiz-adv-x="1360" d="M180 0l332 1565h1016l-52 -247h-737l-78 -363h706l-52 -246h-706l-98 -464h756l-52 -245h-1035zM703 1659l59 279h279l-59 -279h-279zM1092 1659l59 279h278l-59 -279h-278z" />
<glyph unicode="&#x410;" horiz-adv-x="1470" d="M-22 0l928 1565h284l262 -1565h-290l-57 381h-615q-53 -93 -109 -190.5t-108 -190.5h-295zM630 627h438l-94 588z" />
<glyph unicode="&#x411;" horiz-adv-x="1475" d="M181 0l332 1565h1027l-52 -243h-748l-78 -369h294q133 0 231 -29.5t156.5 -89t77 -149.5t-7.5 -210q-51 -239 -215.5 -357t-443.5 -118h-573zM511 242h284q143 0 224 57t106 176q26 120 -30.5 178t-199.5 58h-284z" />
<glyph unicode="&#x412;" horiz-adv-x="1475" d="M181 0l332 1565h553q117 0 208 -28.5t146 -75.5q55 -54 76 -130t1 -173q-51 -235 -234 -319q100 -54 137.5 -151t8.5 -234q-47 -216 -224 -338q-169 -116 -431 -116h-573zM511 242h284q143 0 224 57t107 178q25 119 -31.5 176.5t-199.5 57.5h-284zM662 952h259 q128 0 199.5 44.5t91.5 139.5q40 186 -213 186h-259z" />
<glyph unicode="&#x413;" horiz-adv-x="1311" d="M179 0l332 1565h1003l-52 -247h-723l-280 -1318h-280z" />
<glyph unicode="&#x414;" horiz-adv-x="1679" d="M15 -320l121 565h99q65 29 108 68.5t68 88.5q160 302 275 843l68 320h961l-280 -1320h170l-121 -565h-247l69 320h-976l-69 -320h-246zM611 245h547l228 1073h-407l-37 -173q-53 -247 -127.5 -459.5t-165.5 -379.5q-8 -16 -17.5 -31t-20.5 -30z" />
<glyph unicode="&#x415;" horiz-adv-x="1360" d="M180 0l332 1565h1016l-52 -247h-737l-78 -363h706l-52 -246h-706l-98 -464h756l-52 -245h-1035z" />
<glyph unicode="&#x416;" horiz-adv-x="2316" d="M-1 0l797 933l-167 237q-33 46 -69.5 97t-73 103t-72 102t-65.5 93h349l480 -676l144 676h277l-143 -675q121 106 237.5 209t234.5 207l295 259h351l-718 -632l172 -402q27 -63 56.5 -131.5t59.5 -137.5t58.5 -135.5t54.5 -126.5h-302l-317 740q-63 -55 -125 -109.5 t-124 -108.5l-14 -13l-108 -509h-277l108 509l-78 107q-12 18 -22 32.5l-20 29t-21 29.5t-24 34q-158 -184 -316.5 -371t-315.5 -370h-302z" />
<glyph unicode="&#x417;" horiz-adv-x="1378" d="M130 82l63 296q91 -61 154 -96.5t100 -44.5q36 -10 84.5 -15.5t109.5 -5.5q169 0 276.5 63t135.5 193q12 56 1 101t-46.5 76t-96 47.5t-147.5 16.5h-241l51 242h248q79 0 138.5 12.5t100.5 37t65.5 60t34.5 80.5q10 47 0 83.5t-36 61.5q-63 54 -244 54q-66 0 -109 -2.5 t-62 -7.5q-21 -5 -101 -32t-220 -76l60 280q78 26 146 43t131 25q120 15 211 15q128 0 228.5 -28t170.5 -82q72 -58 99 -136.5t7 -175.5q-25 -115 -87.5 -195.5t-174.5 -128.5q75 -38 116 -107q32 -55 41 -120.5t-8 -143.5q-26 -125 -96 -220.5t-180 -158.5 q-103 -58 -219 -90t-241 -32q-62 0 -129 8.5t-137 26.5q-66 17 -117 36.5t-80 39.5z" />
<glyph unicode="&#x418;" horiz-adv-x="1610" d="M183 0l332 1565h272l-239 -1126l446 600l390 526h334l-332 -1565h-273l239 1125l-427 -574l-409 -551h-333z" />
<glyph unicode="&#x419;" horiz-adv-x="1610" d="M211 38l332 1565h272l-239 -1126l446 600l390 526h334l-332 -1565h-273l239 1125l-427 -574l-409 -551h-333zM839 1971h188q2 -55 37.5 -84t104.5 -29q134 0 188 113h188q-45 -157 -152.5 -237t-266.5 -80q-165 0 -237 78.5t-50 238.5z" />
<glyph unicode="&#x41a;" horiz-adv-x="1528" d="M184 0l332 1565h279l-145 -681q202 170 405.5 341t404.5 340h362l-749 -631q38 -81 74 -160t74 -160q34 -72 70 -151.5t72.5 -159.5t72 -157t67.5 -146h-313l-342 743l-277 -232l-108 -511h-279z" />
<glyph unicode="&#x41b;" horiz-adv-x="1618" d="M62 -7l52 246q237 51 321 190q68 127 133.5 336t128.5 507l62 293h964l-332 -1565h-278l280 1318h-407l-31 -145q-60 -280 -133 -492.5t-152 -349.5q-83 -130 -235.5 -217.5t-372.5 -120.5z" />
<glyph unicode="&#x41c;" horiz-adv-x="1855" d="M185 0l332 1565h365l155 -939l311 527l242 412h365l-332 -1565h-274l239 1128l-28 -48t-29 -49q-52 -87 -108.5 -182.5t-113 -192t-112 -191t-105.5 -180.5h-257l-137 844l-239 -1129h-274z" />
<glyph unicode="&#x41d;" horiz-adv-x="1618" d="M183 0l332 1565h278l-130 -610h654l130 610h278l-332 -1565h-278l150 709h-654l-150 -709h-278z" />
<glyph unicode="&#x41e;" horiz-adv-x="1694" d="M263 780q39 184 119.5 330t201.5 256q248 223 579 223t482 -223q75 -109 93 -255.5t-21 -330.5q-38 -183 -119 -329t-202 -257q-247 -223 -577 -223t-484 223q-149 221 -72 586zM552 780q-57 -266 32 -422q85 -148 286 -148q200 0 347 148q152 155 209 422t-30 422 q-84 148 -284 148q-201 0 -349 -148q-154 -154 -211 -422z" />
<glyph unicode="&#x41f;" horiz-adv-x="1618" d="M183 0l332 1565h1210l-332 -1565h-278l280 1318h-654l-280 -1318h-278z" />
<glyph unicode="&#x420;" horiz-adv-x="1296" d="M180 0l332 1565h492q269 0 381 -123t61 -360q-51 -242 -214.5 -362.5t-432.5 -120.5h-213l-127 -599h-279zM637 840h213q123 0 203 62.5t104 179.5q24 113 -29 176.5t-176 63.5h-213z" />
<glyph unicode="&#x421;" horiz-adv-x="1501" d="M240 445.5q-19 147.5 20 334.5q40 188 122.5 335.5t207.5 255.5q253 218 608 218q137 0 256.5 -38.5t219.5 -119.5l-69 -323q-103 121 -215 180.5t-232 59.5q-237 0 -393 -144.5t-216 -423.5q-29 -141 -20.5 -247t56.5 -178q96 -143 332 -143q120 0 257.5 60.5 t291.5 180.5l-68 -319q-137 -83 -272.5 -123t-271.5 -40q-356 0 -515 218q-80 109 -99 256.5z" />
<glyph unicode="&#x422;" horiz-adv-x="1315" d="M252 1318l52 247h1337l-52 -247h-529l-280 -1318h-279l280 1318h-529z" />
<glyph unicode="&#x423;" horiz-adv-x="1311" d="M173 0l52 245h100q107 0 148 23q10 6 20.5 16.5t20.5 24.5v-1l60 91q-30 139 -61.5 286.5t-63 296.5t-63 296.5t-60.5 286.5h298l172 -815q131 205 261 408t260 407h298l-868 -1361q-18 -27 -38 -52.5t-41 -45.5q-115 -106 -379 -106h-116z" />
<glyph unicode="&#x424;" horiz-adv-x="1851" d="M275 801q60 281 278 443q203 151 511 179l30 142h279l-30 -142q296 -28 435 -178q150 -162 90 -444q-29 -137 -96 -245t-168 -186t-233 -126t-292 -64l-38 -180h-279l38 179q-143 17 -255 61.5t-181 116.5q-149 163 -89 444zM564 801q-37 -172 36 -263t252 -114l159 752 q-181 -26 -296.5 -117.5t-150.5 -257.5zM1131 426q88 14 162.5 43.5t131.5 76t95.5 110t56.5 145.5q36 172 -34.5 262.5t-251.5 113.5z" />
<glyph unicode="&#x425;" horiz-adv-x="1473" d="M6 0l737 834l-337 731h309l240 -522q115 129 231.5 261t229.5 261h309l-665 -754q43 -98 89.5 -200t93 -205.5t92.5 -206t90 -199.5h-310l-271 601l-213 -245q-77 -88 -157.5 -179.5t-155.5 -176.5h-312z" />
<glyph unicode="&#x426;" horiz-adv-x="1669" d="M185 0l332 1565h278l-280 -1320h654l280 1320h278l-280 -1320h168l-121 -565h-243l69 320h-1135z" />
<glyph unicode="&#x427;" horiz-adv-x="1475" d="M391 1117l95 448h278l-92 -433q-29 -139 6.5 -207.5t141.5 -68.5h338l151 709h279l-332 -1565h-279l129 610h-378q-198 0 -295 127q-96 129 -42 380z" />
<glyph unicode="&#x428;" horiz-adv-x="2300" d="M191 0l332 1565h279l-280 -1320h511l280 1320h277l-280 -1320h513l280 1320h278l-332 -1565h-1858z" />
<glyph unicode="&#x429;" horiz-adv-x="2351" d="M193 0l332 1565h280l-280 -1320h510l280 1320h278l-280 -1320h512l280 1320h278l-280 -1320h169l-121 -565h-246l69 320h-1781z" />
<glyph unicode="&#x42a;" horiz-adv-x="1790" d="M323 1318l52 247h716l-130 -612h297q133 0 230.5 -29.5t156.5 -89t77 -149.5t-8 -210q-25 -119 -81 -208t-140 -148.5t-194 -89t-243 -29.5h-574l280 1318h-439zM810 242h284q74 0 131 14.5t97 44.5q76 54 102 174q13 58 4.5 104t-31.5 74q-58 58 -203 58h-284z" />
<glyph unicode="&#x42b;" horiz-adv-x="1896" d="M181 0l332 1565h279l-130 -612h294q133 0 231 -29.5t156.5 -89t77 -149.5t-7.5 -210q-25 -119 -81.5 -208t-140.5 -148.5t-194 -89t-243 -29.5h-573zM511 242h284q149 0 226 59q79 54 104 174q27 119 -29 178q-55 58 -201 58h-284zM1434 0l332 1565h279l-332 -1565h-279z " />
<glyph unicode="&#x42c;" horiz-adv-x="1475" d="M181 0l332 1565h279l-130 -612h294q133 0 231 -29.5t156.5 -89t77 -149.5t-7.5 -210q-25 -119 -81.5 -208t-140.5 -148.5t-194 -89t-243 -29.5h-573zM511 242h284q149 0 226 59q79 54 104 174q27 119 -29 178q-55 58 -201 58h-284z" />
<glyph unicode="&#x42d;" horiz-adv-x="1501" d="M119 132l67 317q213 -237 453 -237q121 0 217.5 34t163.5 95q63 60 111.5 137t81.5 178h-791l52 246h791q8 94 -9 176t-49 141q-42 61 -124 95t-203 34q-239 0 -553 -236l68 321q134 79 270 117.5t278 38.5q172 0 300.5 -56.5t209.5 -161.5q77 -109 97.5 -257t-19.5 -334 q-38 -182 -123 -332t-206 -259q-126 -104 -278.5 -161t-324.5 -57q-277 0 -480 161z" />
<glyph unicode="&#x42e;" horiz-adv-x="2322" d="M203 0l332 1565h278l-140 -661h229q80 270 299 470q119 109 261 162t307 53q329 0 481 -223q151 -219 73 -586q-76 -363 -322 -586q-247 -223 -576 -223q-330 0 -477 217q-133 201 -99 470h-229l-139 -658h-278zM1137 541q9 -105 53 -183q84 -148 286 -148q199 0 346 148 q153 156 210 422q57 268 -31 422q-84 148 -283 148q-202 0 -349 -148q-77 -78 -130 -183t-82 -239t-20 -239z" />
<glyph unicode="&#x42f;" horiz-adv-x="1493" d="M84 0l557 667q-41 17 -81.5 41t-85.5 58q-63 48 -81 130.5t7 200.5q24 112 77 199t135 147t192.5 91t248.5 31h551l-332 -1565h-276l133 630h-212q-34 -42 -69.5 -84.5t-70.5 -84.5l-382 -461h-311zM699 1097q-24 -112 27.5 -168.5t179.5 -56.5h275l95 450h-275 q-255 0 -302 -225z" />
<glyph unicode="&#x430;" horiz-adv-x="1319" d="M172 198q-13 70 6 159q44 205 199.5 307.5t418.5 102.5l216 1q14 98 -46 149.5t-185 51.5q-87 0 -193 -29t-224 -86l54 256q127 45 232 66.5t198 21.5q258 0 356.5 -132t41.5 -402l-141 -664h-255l20 98q-78 -61 -169.5 -94t-199.5 -33q-94 0 -161 26t-112 77 q-43 54 -56 124zM437 368q-16 -75 24 -124h-1q42 -46 137 -46q64 0 124 25t109 67q47 47 83.5 114.5t52.5 144.5l1 3h-142q-207 0 -293 -46q-74 -39 -95 -138z" />
<glyph unicode="&#x431;" horiz-adv-x="1325" d="M214 327.5q-13 113.5 15 257.5v-1l41 223q9 52 17 95.5t13 63.5q17 83 47.5 154.5t72.5 133.5q138 196 320 279q90 41 201 62t247 22q57 0 107 6.5t95 19.5l28 -212q-44 -17 -82 -27t-63 -11l-124 -8t-125 -8q-51 -4 -103.5 -17.5t-88.5 -29.5h1q-84 -45 -142.5 -96 t-87.5 -105q132 69 298 69q125 0 216 -42.5t145 -123.5q51 -81 64 -194t-16 -252t-91 -253t-147 -195q-89 -81 -198 -124t-234 -43q-255 0 -362 162q-51 81 -64 194.5zM479.5 422.5q4.5 -72.5 30.5 -124.5q26 -45 71.5 -71.5t107.5 -26.5q122 0 217 98q99 105 138 288 q39 180 -16 285q-52 98 -176 98q-63 0 -118.5 -23.5t-101.5 -73.5q-48 -51 -82.5 -121.5t-54.5 -164.5q-20 -91 -15.5 -163.5z" />
<glyph unicode="&#x432;" horiz-adv-x="1268" d="M166 0l249 1172h467q106 0 183 -20.5t124.5 -60t64 -97t0.5 -131.5q-35 -166 -170 -234q78 -42 106 -113t7 -170q-35 -167 -185 -258h1q-142 -88 -363 -88h-484zM467 219h221q106 0 167.5 37t75.5 106q15 69 -30.5 106.5t-151.5 37.5h-221zM575 725h201q87 0 152 34 q26 15 43 35t22 46q10 51 -29 79q-25 16 -59.5 25t-80.5 9h-201z" />
<glyph unicode="&#x433;" horiz-adv-x="1130" d="M164 0l249 1172h849l-47 -219h-592l-202 -953h-257z" />
<glyph unicode="&#x434;" horiz-adv-x="1487" d="M34 -277l105 496h96q41 17 71 42t53 60q68 99 123 249.5t98 354.5l53 247h817l-203 -953h143l-105 -496h-219l59 277h-814l-59 -277h-218zM537 219h31q0 -1 -2 -3l-18 -25zM568 219h421l156 734h-304l-21 -100q-44 -207 -107 -364t-145 -270z" />
<glyph unicode="&#x435;" horiz-adv-x="1323" d="M204.5 327q-16.5 110 12.5 247q60 283 250 452q97 87 211 129.5t245 42.5q240 0 346 -155q106 -150 51 -412l-27 -125h-823q-11 -151 60 -228.5t223 -77.5q100 0 213 32.5t249 99.5l-56 -264q-122 -47 -238 -72t-226 -25q-278 0 -409 164q-65 82 -81.5 192zM524 721h559 q13 105 -35 173q-53 75 -172 75q-125 0 -215.5 -63.5t-136.5 -184.5z" />
<glyph unicode="&#x436;" horiz-adv-x="1937" d="M29 0l621 708q-44 62 -91 128t-97 132l-144 204h314l327 -455l97 455h256l-97 -454l522 454h314l-533 -464q4 -9 8 -18.5t7 -17.5q36 -78 75.5 -164t80 -173.5t79.5 -172.5t74 -162h-286l-240 529l-58 -50t-57 -50l-58 -51l-80 -378h-256l80 378q-29 39 -54.5 74.5 t-54.5 76.5l-202 -232q-65 -72 -131.5 -148.5t-128.5 -148.5h-287z" />
<glyph unicode="&#x437;" horiz-adv-x="1143" d="M118 37l55 258q82 -49 169.5 -74t173.5 -25q135 0 222 49l-2 -1q36 23 59 51.5t30 61.5q15 69 -38 111t-171 42h-181l48 225h189q98 0 166 38q56 33 67 80q9 41 -36 74q-51 39 -156 39q-64 0 -155 -15.5t-218 -49.5l51 242q241 55 386 55q103 0 179.5 -20.5t127.5 -63.5 q109 -88 76 -243q-17 -81 -67 -142t-131 -99q76 -41 106.5 -109.5t10.5 -163.5q-20 -93 -70 -165t-127 -121t-179.5 -74.5t-227.5 -25.5q-83 0 -172.5 17t-184.5 49z" />
<glyph unicode="&#x438;" horiz-adv-x="1399" d="M167 0l249 1172h255l-166 -780q66 81 131 161t130 161l373 458h292l-249 -1172h-255l166 783q-159 -195 -319 -391.5t-318 -391.5h-289z" />
<glyph unicode="&#x439;" horiz-adv-x="1399" d="M198 38l249 1172h255l-166 -780q66 81 131 161t130 161l373 458h292l-249 -1172h-255l166 783q-159 -195 -319 -391.5t-318 -391.5h-289zM668 1599h191q-7 -75 24 -110.5t99 -35.5q70 0 116 35.5t73 110.5h190q-50 -177 -156 -267.5t-268 -90.5q-158 0 -227 90.5 t-42 267.5z" />
<glyph unicode="&#x43a;" horiz-adv-x="1298" d="M168 0l249 1172h255l-98 -458q138 115 277 229.5t276 228.5h327l-561 -467l187 -381q18 -37 39 -79.5t42.5 -85t41.5 -83.5t37 -76h-291l-264 533q-47 -39 -90.5 -76.5t-91.5 -77.5l-80 -379h-255z" />
<glyph unicode="&#x43b;" horiz-adv-x="1374" d="M57 -4l48 226q100 14 165 46.5t98 83.5l-1 -1q50 85 98 234.5t94 368.5l47 218h817l-249 -1172h-255l202 953h-306l-15 -71q-46 -217 -102 -373t-122 -255q-147 -224 -519 -258z" />
<glyph unicode="&#x43c;" horiz-adv-x="1622" d="M171 0l249 1172h325l143 -677l433 677h323l-249 -1172h-256l164 776l-362 -566h-228l-121 564l-164 -774h-257z" />
<glyph unicode="&#x43d;" horiz-adv-x="1407" d="M167 0l249 1172h257l-95 -447h509l95 447h257l-249 -1172h-257l107 506h-509l-107 -506h-257z" />
<glyph unicode="&#x43e;" horiz-adv-x="1317" d="M203 333q-13 114 16 253q59 281 238 446q91 84 199 125t233 41q250 0 363 -166q109 -163 49 -446q-30 -143 -90 -254t-149 -194q-182 -167 -434 -167q-123 0 -214.5 43.5t-146.5 123.5q-51 81 -64 195zM485 586q-39 -181 15 -288q51 -98 177 -98q125 0 220 98 q48 51 82.5 122.5t54.5 165.5q39 181 -15 285q-52 98 -179 98q-124 0 -217 -97q-99 -104 -138 -286z" />
<glyph unicode="&#x43f;" horiz-adv-x="1407" d="M167 0l249 1172h1023l-249 -1172h-257l202 953h-509l-202 -953h-257z" />
<glyph unicode="&#x440;" horiz-adv-x="1366" d="M79 -416l338 1588h256l-20 -91q74 63 156 90t183 27q218 0 318 -174q97 -166 39 -438q-29 -137 -85 -247t-141 -194q-174 -174 -392 -174q-101 0 -171.5 28.5t-117.5 89.5l-107 -505h-256zM548 586q-39 -184 13 -290q53 -98 176 -98q59 0 113 25.5t99 72.5 q48 52 82.5 125t54.5 165q20 94 16 165.5t-30 122.5q-49 97 -171 97q-124 0 -217 -97q-48 -52 -82 -123.5t-54 -164.5z" />
<glyph unicode="&#x441;" horiz-adv-x="1182" d="M201.5 334q-13.5 112 15.5 252q60 281 251 447q193 165 469 165q172 0 335 -83l-55 -257q-177 111 -322 111q-159 0 -265 -97q-110 -99 -149 -286q-20 -92 -12.5 -164.5t39.5 -123.5q33 -47 88 -72.5t136 -25.5q72 0 163.5 28t205.5 83l-55 -256q-98 -44 -193 -64 t-192 -20q-262 0 -385 167q-61 84 -74.5 196z" />
<glyph unicode="&#x442;" horiz-adv-x="1253" d="M243 953l47 219h1127l-47 -219h-437l-202 -953h-254l202 953h-436z" />
<glyph unicode="&#x443;" horiz-adv-x="1274" d="M53 -416l48 225h143q61 0 95 25q19 13 48.5 53.5t66.5 98.5q5 9 12.5 20.5t14.5 22.5l-2 -1q3 7 8 13.5t10 13.5q-54 275 -112.5 558.5t-112.5 558.5h275l148 -791q120 197 243 396.5t242 394.5h273l-768 -1249q-59 -97 -116 -168t-102 -103l1 1q-49 -34 -107 -51.5 t-126 -17.5h-182z" />
<glyph unicode="&#x444;" horiz-adv-x="1839" d="M204 330.5q-7 111.5 22 251.5q29 137 85 250t131 195q79 83 166.5 127t178.5 44q68 0 118 -20t88 -70l92 431h258l-92 -431q60 50 120 70t126 20q183 0 272 -171q86 -167 26 -445q-60 -282 -215 -444q-161 -167 -344 -167q-36 0 -65.5 3t-54.5 12.5t-46.5 27.5t-40.5 49 l-102 -479h-258l102 478q-56 -45 -118 -68t-127 -23q-91 0 -159.5 43t-113.5 124q-42 81 -49 192.5zM468 405.5q1 -79.5 19 -125.5q21 -38 59 -60t86 -22q73 0 197 139l105 495q-64 139 -138 139q-104 0 -180 -82q-81 -84 -128 -303q-21 -101 -20 -180.5zM1086 334 q69 -136 142 -136q48 0 93.5 22t84.5 60q39 45 72 122.5t56 183.5q46 217 1 303q-43 82 -143 82q-37 0 -86 -32.5t-113 -102.5z" />
<glyph unicode="&#x445;" horiz-adv-x="1274" d="M2 0l584 610l-298 562h309l191 -364l350 364h308l-546 -571l318 -601h-306l-215 406q-98 -103 -193.5 -203.5t-192.5 -202.5h-309z" />
<glyph unicode="&#x446;" horiz-adv-x="1464" d="M170 0l249 1172h256l-203 -953h509l203 953h257l-203 -953h146l-105 -496h-222l59 277h-946z" />
<glyph unicode="&#x447;" horiz-adv-x="1270" d="M312 857l67 315h255l-64 -300q-21 -101 12 -147v1q16 -22 43.5 -33.5t69.5 -11.5h255l105 491h255l-249 -1172h-255l98 462h-298q-83 0 -147 25.5t-109 75.5q-80 96 -38 294z" />
<glyph unicode="&#x448;" horiz-adv-x="1968" d="M177 0l249 1172h257l-203 -953h388l203 953h255l-203 -953h390l203 953h256l-249 -1172h-1546z" />
<glyph unicode="&#x449;" horiz-adv-x="2025" d="M179 0l249 1172h257l-203 -953h388l203 953h255l-203 -953h391l203 953h255l-203 -953h145l-105 -496h-220l59 277h-1471z" />
<glyph unicode="&#x44a;" horiz-adv-x="1520" d="M250 953l47 219h610l-95 -447h230q228 0 331.5 -89.5t63.5 -273.5q-39 -184 -180 -273t-369 -89h-486l202 953h-354zM704 219h222q104 0 166 37t76 106q15 69 -31 106.5t-150 37.5h-222z" />
<glyph unicode="&#x44b;" horiz-adv-x="1698" d="M203 38l249 1172h257l-95 -447h227q114 0 197.5 -22t134 -67t67.5 -113.5t-3 -160.5q-39 -184 -181 -273t-369 -89h-484zM506 257h221q104 0 165.5 37t75.5 106q15 69 -30.5 106.5t-149.5 37.5h-221zM1217 0l249 1172h255l-249 -1172h-255z" />
<glyph unicode="&#x44c;" horiz-adv-x="1268" d="M166 0l249 1172h257l-95 -447h227q114 0 197.5 -22t134 -67t67.5 -113.5t-3 -160.5q-39 -184 -181 -273t-369 -89h-484zM469 219h221q104 0 165.5 37t75.5 106q15 69 -30.5 106.5t-149.5 37.5h-221z" />
<glyph unicode="&#x44d;" horiz-adv-x="1180" d="M104 56l54 254q91 -54 171 -82t152 -28q64 0 124.5 19.5t112.5 54.5q45 34 84.5 92.5t68.5 139.5h-551l47 219h541q-2 36 -12 74.5t-30 76.5q-47 93 -222 93q-72 0 -163.5 -26.5t-204.5 -81.5l54 255q198 82 371 82q274 0 397 -167q60 -82 75.5 -193.5t-14.5 -251.5 q-60 -284 -247 -448q-194 -167 -460 -167q-197 0 -348 85z" />
<glyph unicode="&#x44e;" horiz-adv-x="1810" d="M183 0l249 1172h255l-93 -437h136q33 85 87.5 165t125.5 146q83 74 188 113t230 39q251 0 362 -166q110 -164 50 -446q-60 -281 -240 -448t-433 -167q-127 0 -216.5 40t-141.5 121q-94 149 -65 378h-131l-108 -510h-255zM955 586q-39 -181 15 -288q51 -98 179 -98 q124 0 219 98q99 105 138 288q39 180 -16 285q-26 50 -71 74t-107 24q-63 0 -117.5 -23.5t-101.5 -73.5q-99 -104 -138 -286z" />
<glyph unicode="&#x44f;" horiz-adv-x="1294" d="M64 0l449 496q-42 15 -75.5 36t-61.5 50q-71 78 -36 237q75 353 536 353h466l-249 -1172h-254l98 464h-168q-66 -73 -136 -149.5t-138 -151.5l-148 -163h-283zM602 819q-14 -64 30.5 -100t143.5 -36h208l57 270h-208q-99 0 -158 -35t-73 -99z" />
<glyph unicode="&#x451;" horiz-adv-x="1323" d="M204.5 327q-16.5 110 12.5 247q60 283 250 452q97 87 211 129.5t245 42.5q240 0 346 -155q106 -150 51 -412l-27 -125h-823q-11 -151 60 -228.5t223 -77.5q100 0 213 32.5t249 99.5l-56 -264q-122 -47 -238 -72t-226 -25q-278 0 -409 164q-65 82 -81.5 192zM524 721h559 q13 105 -35 173q-53 75 -172 75q-125 0 -215.5 -63.5t-136.5 -184.5zM621 1321l59 274h275l-59 -274h-275zM1006 1321l59 274h274l-59 -274h-274z" />
<glyph unicode="&#x10a0;" horiz-adv-x="1464" d="M228 398l19 89q15 72 75 166t164 211l166 -93q-131 -172 -155 -284l-21 -97q-35 -167 12 -269q46 -95 236 -95q166 0 261 93h-1q100 100 136 271l42 197q64 302 -144 552q-225 270 -165 551l34 162h239l-34 -162q-46 -214 167 -464q115 -136 153.5 -294.5t-1.5 -344.5 l-42 -197q-29 -139 -92.5 -246.5t-160.5 -185.5q-195 -156 -440 -156q-242 0 -374 155q-135 156 -74 441z" />
<glyph unicode="&#x10a1;" horiz-adv-x="1464" d="M221 364l61 287q27 128 91.5 232t166.5 187q191 152 358 163q49 84 76 207q12 59 -106 126q-150 85 -102 307h249q-30 -134 88 -202q148 -84 120 -221q-13 -58 -34.5 -114t-53.5 -109q49 -13 98.5 -51.5t106.5 -105.5q139 -164 85 -419l-62 -290q-45 -213 -247 -388 q-103 -88 -213 -132t-231 -44q-251 0 -375 175q-123 174 -76 392zM467 245q7 -67 41 -121q63 -103 212 -103q75 0 138.5 25.5t117.5 73.5q54 52 89.5 116t52.5 141l56 267q36 170 -38 272q-71 102 -204 102q-152 -2 -257 -102q-109 -103 -146 -280l-52 -243 q-17 -81 -10 -148z" />
<glyph unicode="&#x10a2;" horiz-adv-x="1647" d="M232 408l33 155q38 154 117.5 272.5t198.5 203.5q116 81 243.5 123t263.5 44q138 125 164 239q10 47 6.5 84.5t-23.5 64t-57.5 40.5t-95.5 14q-117 0 -180.5 -40.5t-76.5 -105.5l-43 -203h-231l43 203q32 149 186 260v-1q152 112 350 112q219 0 307 -118q87 -119 50 -288 q-16 -77 -57 -148.5t-113 -143.5q82 -38 187 -158q141 -162 86 -422l-40 -187q-49 -231 -270 -420q-221 -191 -526 -191q-262 0 -417 190q-154 189 -105 421zM487 429q-34 -160 50 -285q82 -123 271 -123q219 0 334 115q120 117 158 293l35 164q32 150 -47 271 q-78 117 -217 117h-89q-161 0 -291 -105q-131 -103 -178 -321z" />
<glyph unicode="&#x10a3;" horiz-adv-x="2179" d="M372 156q67 17 139 31t147 22q-378 394 -268 913l40 187q46 220 212 389q172 175 444 175q98 0 180.5 -42t154.5 -132q174 174 424 174q276 0 365 -191q86 -186 26 -468l-25 -116q-69 -325 -238 -490t-433 -168q-246 0 -354 180q-104 176 -38 489l21 99q14 62 44.5 143 t78.5 184q-16 33 -37.5 54t-49.5 32q-62 27 -167 27q-134 0 -228 -88q-97 -89 -130 -251l-38 -178q-27 -134 -17 -268t55 -265q48 -125 170.5 -226t306.5 -165q100 -35 174.5 -79t121 -96t65 -111.5t5.5 -125.5h-286q31 188 -382 272q-183 -4 -437 -154zM1396 764 q42 -97 192 -97q152 0 233 97q89 107 139 339l24 111q52 247 6 343q-41 91 -193 91q-151 0 -232 -82q-85 -88 -140 -347l-23 -107q-52 -241 -6 -348z" />
<glyph unicode="&#x10a4;" horiz-adv-x="1509" d="M212 310q46 230 179 437h256q-70 -111 -116 -220t-69 -219q-29 -136 34 -211.5t227 -75.5q65 0 126.5 18t116.5 50q106 65 135 200l237 1115q21 103 -35 172q-56 72 -187 72q-124 0 -223 -67q-95 -64 -119 -179q-11 -48 -16 -118.5t-6 -164.5h-219q-21 184 1 283 q23 109 77.5 193.5t142.5 149.5q175 128 395 128q229 0 355 -123q131 -125 84 -346l-238 -1121q-49 -229 -240 -358q-95 -64 -202.5 -96t-232.5 -32q-123 0 -217 38.5t-160 111.5q-62 74 -85 166.5t-1 196.5z" />
<glyph unicode="&#x10a5;" horiz-adv-x="1467" d="M207 285l22 103q24 125 156 324h234q-59 -110 -94.5 -193t-47.5 -142l-17 -77q-29 -139 43 -206q79 -73 220 -73q155 0 253 70t126 203l45 214q27 128 -4 200t-112 88h-201l48 225h206q146 0 213 319l13 58q26 123 -33.5 186.5t-194.5 63.5q-68 0 -124.5 -19t-100.5 -58 q-89 -77 -103 -139l-9 -40q-8 -37 -10 -86t0 -111l-239 -4q-19 107 -2 190l14 64q37 178 231 305q190 123 391 123q130 0 220.5 -38t142.5 -110q50 -72 68.5 -152t0.5 -162l-18 -87q-54 -250 -278 -406q195 -112 131 -410l-45 -214q-43 -205 -233 -351q-185 -146 -444 -146 q-244 0 -376 140q-135 143 -92 348z" />
<glyph unicode="&#x10a6;" horiz-adv-x="1588" d="M293 385l45 208q28 132 98.5 237.5t173.5 178.5q-162 36 -221 141t-22 277l13 61q35 163 182 273h-1q145 112 375 112q121 0 206.5 -26.5t135.5 -76t65.5 -121t-3.5 -161.5l-14 -67q-14 -67 -61 -132.5t-125 -127.5q111 -11 189 -52t130 -112q123 -167 74 -397l-46 -215 q-57 -269 -250 -428q-190 -160 -474 -160q-261 0 -395 158q-132 156 -75 430zM547 416q-37 -174 32 -287v1q69 -109 232 -109q169 0 280 108q59 57 97.5 131.5t58.5 168.5l25 120q39 181 -31 287q-67 106 -234 106q-152 0 -269 -88q-116 -86 -158 -282zM593 1381 q-20 -94 35 -141v1q60 -51 170 -51q111 0 187 58q75 58 90 133l22 101q7 34 -3.5 63t-39.5 52q-62 51 -163 51q-112 0 -191 -44q-68 -39 -86 -126z" />
<glyph unicode="&#x10a7;" horiz-adv-x="2262" d="M279 593l114 538q83 392 274 566q191 176 441 176q121 0 211.5 -43t148.5 -124q106 87 212 127t220 40q132 0 226 -47.5t148 -133.5q48 -91 53.5 -242t-38.5 -357l-41 -194q-158 -740 -650 -1102h-308q568 446 704 1086l63 295q48 225 5 353q-38 117 -247 117 q-75 0 -144.5 -24.5t-137.5 -73.5q23 -51 27 -107t-9 -116l-164 -770q-35 -164 -99.5 -299.5t-155.5 -241.5q-94 -104 -212.5 -161.5t-253.5 -57.5q-253 0 -367 193q-108 191 -20 603zM509 140q46 -119 205 -119q164 0 260 129q53 71 93.5 170t67.5 229l166 778 q31 152 -32 236q-65 85 -209 85q-155 0 -261 -141t-167 -427l-99 -466q-74 -345 -24 -474z" />
<glyph unicode="&#x10a8;" horiz-adv-x="1464" d="M283.5 387.5q0.5 271.5 54.5 525.5l49 231q78 366 278 547q203 182 452 182q132 0 228 -48t153 -136q53 -91 61 -230t-31 -325l-46 -213q-109 -520 -456 -1099h-277q189 302 309.5 572.5t173.5 518.5l47 221q57 274 -2 396q-55 118 -208 118q-85 0 -152.5 -30.5 t-121 -93.5t-93 -160t-67.5 -230l-47 -221q-105 -492 21 -1091h-274q-52 294 -51.5 565.5z" />
<glyph unicode="&#x10a9;" horiz-adv-x="1464" d="M203 278l24 115q20 94 61 175.5t102 152.5h228q-58 -107 -95 -195t-51 -157l-13 -61q-26 -122 45 -203q35 -42 88.5 -63t127.5 -21q69 0 132.5 21t116.5 56q51 38 88 103.5t57 156.5l28 132q33 159 -19 274q-50 110 -163 110h-289l48 224h280q99 0 171 57q71 57 92 161 l21 98q42 197 -193 239l49 230q471 -124 396 -472l-12 -57q-54 -256 -294 -365q122 -65 161.5 -189t0.5 -310l-28 -132q-28 -131 -91 -232.5t-163 -178.5q-198 -150 -437 -150q-121 0 -214.5 37.5t-159.5 109.5q-63 72 -89 157t-6 177z" />
<glyph unicode="&#x10aa;" horiz-adv-x="2867" d="M405 1157l21 98q26 125 80 230.5t135 193.5q167 182 420 182q268 0 344 -227q153 239 393 239q125 0 200 -55.5t104 -178.5q87 106 196.5 164t234.5 58q206 0 324 -151v1q116 -149 74 -351l-30 -138q-81 -382 -512 -699h-289q476 341 555 712l23 110q24 109 -33 200 q-54 90 -157 90q-60 0 -113 -16.5t-97 -47.5q-41 -32 -73 -99.5t-54 -170.5l-71 -333h-236l70 330q21 97 20 165.5t-23 108.5q-43 76 -161 76q-100 0 -183 -76q-87 -76 -126 -263l-73 -341h-233l74 345q40 196 -9 259q-50 63 -187 63q-107 0 -200 -94q-98 -98 -139 -294 l-22 -103q-69 -332 183 -585q257 -256 653 -340q417 -89 555 -394h-335q-94 107 -230.5 159t-316.5 51q-125 -10 -249.5 -45.5t-239.5 -95.5l-115 220q41 10 80 20t80 19.5t87.5 19t102.5 18.5q-617 420 -502 966z" />
<glyph unicode="&#x10ab;" horiz-adv-x="1507" d="M227 393l59 278q53 244 254 420q204 178 450 178q208 0 299 -148l69 327q16 78 -55 136q-76 64 -215 64q-72 0 -128.5 -12t-98.5 -38q-75 -45 -87 -99l-39 -185h-252l39 185q16 74 70 139t150 123q182 112 396 112q208 0 349 -114q149 -118 107 -311l-231 -1087 q-57 -273 -265 -418h1q-202 -146 -424 -146q-246 0 -376 157q-132 159 -72 439zM477 393q-40 -187 32 -279q75 -93 214 -93q64 0 125.5 23t117.5 65q54 44 94.5 116t60.5 168l60 282q42 199 -30 285q-75 87 -210 87q-132 0 -251 -103h1q-119 -104 -155 -273z" />
<glyph unicode="&#x10ac;" horiz-adv-x="1507" d="M264 372l231 1091q42 194 165 290q123 97 269 97q40 0 92.5 -8t118.5 -25q61 -15 109.5 -23t82.5 -8q126 0 361 109l-45 -211q-204 -111 -377 -111q-83 0 -177 28q-90 25 -173 24q-79 2 -126.5 -38t-67.5 -131l-73 -344q178 157 372 157q246 0 374 -161q130 -161 76 -414 l-69 -325q-58 -274 -248 -423q-186 -149 -443 -149q-232 0 -372 151q-138 155 -80 424zM515 372q-37 -170 34 -261q37 -45 89 -67.5t123 -22.5q161 0 261.5 94.5t138.5 272.5l64 300q37 176 -29 268q-67 91 -214 91q-86 0 -151.5 -21.5t-114.5 -66.5t-82 -113.5t-53 -161.5z " />
<glyph unicode="&#x10ad;" horiz-adv-x="2289" d="M361 975l26 123q70 335 236 550q174 225 475 225q144 0 235 -61t132 -189q91 125 209 187.5t264 62.5q292 0 373 -226q76 -216 14 -513l-34 -159q-146 -682 -687 -1153h-332q630 522 768 1166l26 124q57 266 28 409q-27 127 -204 127q-147 0 -239 -84.5t-132 -272.5 l-162 -762h-253l162 762q40 188 -14 272.5t-204 84.5q-157 0 -251 -130q-101 -140 -161 -420l-25 -118q-131 -626 281 -1155h-318q-357 475 -213 1150z" />
<glyph unicode="&#x10ae;" horiz-adv-x="1467" d="M213 313l31 146q19 105 143 253h231q-112 -193 -130 -281l-16 -75q-26 -126 39 -231v1q66 -105 212 -105q169 0 267.5 105.5t141.5 307.5l26 123q28 133 -21 226q-46 91 -150 91h-233l48 224h233q78 0 135 51t80 157l10 45q18 87 -217 159q-278 87 -219 363h250 q-33 -149 204 -214h-1q285 -75 238 -297l-13 -59q-39 -188 -268 -319q231 -159 175 -421l-31 -147q-60 -281 -252 -449q-193 -170 -451 -170q-216 0 -360 150q-147 151 -102 366z" />
<glyph unicode="&#x10af;" horiz-adv-x="1507" d="M204 77q-23 96 3 223l13 58q13 66 78 186h241q-61 -146 -68 -180l-15 -70q-27 -130 56 -198q90 -75 219 -75q143 0 246 89h-1q104 90 131 219l278 1305q-110 -23 -221.5 -46t-237.5 -49q35 -23 61.5 -48t47.5 -55q66 -96 31 -263q-51 -240 -258 -339q-196 -92 -507 -92 l48 226q250 0 360 44q97 38 116 140q34 154 -52 231q-88 82 -318 82l35 166l1197 254l-334 -1570q-48 -232 -245 -376v1q-194 -143 -425 -143q-124 0 -222.5 31.5t-167.5 90.5q-66 62 -89 158z" />
<glyph unicode="&#x10b0;" horiz-adv-x="2289" d="M292.5 205.5q-51.5 206.5 0.5 448.5l12 60q103 486 503 823v-1q401 337 1191 337l-48 -225q-415 0 -738 -118q-264 -96 -443 -300q60 19 110.5 29t88.5 10q287 0 364 -264q109 139 225.5 201.5t250.5 62.5q215 0 347 -145q136 -144 79 -410l-13 -64q-102 -474 -576 -825 h-310q552 425 636 822l14 67q33 155 -35 251q-66 94 -186 94q-118 0 -229 -90q-107 -91 -146 -276l-70 -328h-251l70 328q39 187 -33 276q-72 90 -181 90q-138 -1 -237 -93q-100 -92 -134 -252l-16 -75q-83 -388 291 -817h-330q-155 177 -206.5 383.5z" />
<glyph unicode="&#x10b1;" horiz-adv-x="1507" d="M278 441l305 1432h251l-305 -1432q-21 -99 -16.5 -177t33.5 -132t83 -82.5t132 -28.5q153 0 260 114q112 118 152 309l16 77q37 176 -77 333q-131 177 -101 316q28 133 139 256l245 -71q-64 -54 -100 -100t-47 -84q-10 -55 16.5 -118.5t85.5 -133.5q68 -80 93 -173.5 t2 -199.5l-26 -120q-57 -270 -254 -449q-201 -180 -452 -180q-245 0 -374 157q-130 157 -61 487z" />
<glyph unicode="&#x10b2;" horiz-adv-x="1850" d="M254 236q-27 132 8 298l82 387q39 185 127.5 329.5t219.5 247.5q118 88 235 140.5t226 61.5l-40 173h366l-111 -173q119 -10 220 -62t177 -139q81 -102 106 -248.5t-14 -329.5l-82 -387q-69 -326 -339 -531q-268 -206 -574 -206q-312 0 -490 204q-90 103 -117 235z M511 534q-47 -216 57 -366v1q102 -148 341 -148q243 0 404 150q165 151 210 363l82 387q61 284 -13 428t-283 156q-17 -105 -35 -215.5t-36 -222t-36 -221.5t-36 -215h-267l226 874q-177 -11 -314 -140q-78 -72 -132 -182.5t-86 -261.5z" />
<glyph unicode="&#x10b3;" horiz-adv-x="1610" d="M314 125.5q-20 101.5 8 232.5l26 124q33 157 138 271h234q-101 -184 -131 -327l-15 -70q-33 -155 42 -245q78 -90 233 -90q160 0 244 89q88 95 130 292l245 1153q8 35 -31 66q-42 36 -135 36q-153 0 -175 -102l-110 -518h-209l110 518q22 102 -101 102q-52 0 -99 -53 q-71 -84 -149 -84q-47 1 -92 32.5t-92 93.5l55 255q137 -140 187 -140q32 0 78 41q70 64 138 64q85 0 142 -30t89 -85q81 60 149.5 87.5t135.5 27.5q157 0 268 -88h-1q119 -92 90 -223l-247 -1162q-30 -142 -88 -250t-144 -187q-174 -159 -436 -159q-267 0 -400 150 q-67 77 -87 178.5z" />
<glyph unicode="&#x10b4;" horiz-adv-x="2241" d="M388.5 928q-16.5 104 9.5 229l22 103q54 254 219 431q171 182 457 182q115 0 204 -45t155 -140q208 185 441 185q256 0 364 -150h-1q111 -148 70 -350l-25 -119q-42 -185 -152 -301q-82 -85 -224 -140q113 -47 151 -135q22 -59 25 -129.5t-14 -150.5l-18 -83 q-51 -245 -279 -384q-220 -134 -537 -134q-369 -2 -523 115q-159 121 -92 440h244q-24 -113 -1.5 -182t82.5 -95q74 -26 159 -40t179 -14q223 -3 355 71t163 223l15 70q33 155 -12 237q-43 76 -135 76h-182l47 224h182q44 0 90 17.5t91 52.5q93 69 131 249l26 121 q31 145 -25 215.5t-202 70.5q-167 0 -330 -123q24 -125 -4 -257l-24 -113q-53 -249 -239 -419q-188 -171 -433 -171q-237 0 -355 172q-58 87 -74.5 191zM647 1157q-42 -202 15 -284q59 -80 204 -80q147 0 236 80q93 83 135 284l20 94q46 211 -3 307q-47 90 -206 90 q-163 0 -247 -82t-132 -306z" />
<glyph unicode="&#x10b5;" horiz-adv-x="1507" d="M206 294l5 24q25 120 121 251h257q-106 -148 -130 -259l-6 -30q-26 -122 31 -191l1 1q61 -69 235 -69q74 0 137.5 17.5t114.5 49.5q98 66 122 179l128 603q11 52 -7 113t-64 134q-90 141 -219 141q-115 0 -171 -50q-26 -24 -43.5 -54.5t-25.5 -65.5q-14 -65 -17 -211 h-222q-8 64 -7 116.5t10 94.5q18 88 64.5 159.5t113.5 124.5q70 52 157 79.5t188 27.5q147 0 237 -84h-1q28 -26 54.5 -60.5t49.5 -70.5l85 399h-262l45 210h498l-339 -1593q-49 -230 -242 -358q-95 -62 -202.5 -93.5t-229.5 -31.5q-227 0 -370 128q-146 131 -96 369z" />
<glyph unicode="&#x10b6;" horiz-adv-x="2125" d="M397 1157l24 109q46 219 213 409q174 198 419 198q263 0 322 -262q171 262 443 262q237 0 342 -139q106 -137 53 -386l-27 -129q-37 -174 -132.5 -339.5t-250.5 -325.5h-253q312 338 386 687l22 102q33 155 -10.5 230t-175.5 75q-134 0 -210 -61t-139 -358l-70 -328h-250 l70 328q62 293 6 355q-54 64 -168 64q-59 0 -112.5 -25.5t-97.5 -72.5q-45 -51 -78.5 -122.5t-52.5 -161.5l-24 -109q-78 -369 91 -623q84 -126 197.5 -214t247.5 -135q149 -51 222 -149t65 -241h-281q-18 99 -81 155t-165 69q-19 2 -37.5 3.5t-34.5 1.5q-176 0 -378 -131 l-66 228q69 29 139 49t145 33q-220 191 -297 428.5t-16 525.5z" />
<glyph unicode="&#x10b7;" horiz-adv-x="1509" d="M203 280q22 105 109 257h251q-83 -147 -115 -294q-18 -88 53 -154q38 -32 95 -50t127 -18q162 0 258 69q92 65 137 279l97 455q-72 -62 -159 -94t-187 -32q-202 0 -337 153q-133 154 -82 400l31 143q22 104 95.5 217t201.5 236h290q-322 -315 -358 -487l-24 -109 q-29 -134 43 -234q68 -98 187 -98q162 0 259 94q99 95 127 222l130 612h250l-319 -1501q-28 -133 -84 -234t-140 -172q-169 -143 -464 -143q-229 0 -374 115q-148 119 -98 368z" />
<glyph unicode="&#x10b8;" horiz-adv-x="1614" d="M281 413l39 180q53 254 262 432q105 89 221 134t244 45q120 0 200.5 -33.5t128.5 -111.5l67 318q43 204 15 246q-27 40 -133 40q-73 0 -121.5 -48.5t-66.5 -133.5l-22 -104h-213l22 104q20 93 -6 138q-23 44 -115 44q-69 0 -113.5 -28.5t-58.5 -91.5l-52 -247h-213 l52 247q30 141 145 235q60 48 118.5 71.5t115.5 23.5q93 0 177 -47v1q69 -36 98 -116q39 46 76.5 75t75.5 46q91 41 167 41q195 0 272 -110q78 -108 21 -377l-211 -993q-28 -132 -96.5 -238.5t-177.5 -190.5q-218 -167 -451 -167q-219 0 -372 167q-155 165 -95 449zM526 265 q12 -72 50 -129q40 -57 95.5 -86t124.5 -29q162 0 278 113q119 114 149 259l43 200q21 100 14 172.5t-41 120t-93 70t-143 22.5q-150 0 -276 -120q-65 -60 -105.5 -133.5t-58.5 -159.5l-31 -145q-18 -83 -6 -155z" />
<glyph unicode="&#x10b9;" horiz-adv-x="1507" d="M147 -175l356 1672q36 174 202 277h-1q79 51 161 75t169 24q209 0 328 -92q124 -97 88 -267q-25 -123 -143 -245l-208 41q48 50 77 99.5t40 102.5q28 136 -233 136q-209 0 -248 -172l-99 -465q178 153 368 153q137 0 235.5 -38t155.5 -113.5t71 -187.5t-17 -260l-18 -85 q-37 -171 -141 -334t-280 -321h-329q431 335 501 662l17 78q34 163 -21 271q-51 103 -222 106q-145 -5 -257 -99q-116 -95 -147 -228l-168 -790h-237z" />
<glyph unicode="&#x10ba;" horiz-adv-x="1658" d="M260 534l107 502q108 507 369 811h249q-138 -186 -229.5 -387t-139.5 -424l-107 -502q-22 -103 -8 -193.5t62 -167.5q48 -71 116 -111.5t150 -40.5q170 0 307 115q138 113 177 293l9 43q15 72 15 130t-17 101q-29 79 -148 79h-227l47 224h227q45 0 86.5 14.5t78.5 41.5 q35 28 61.5 73.5t39.5 105.5q29 131 -130 229q-187 117 -133 377h220q-16 -73 22 -137t119 -118q99 -64 139 -150t17 -195q-21 -97 -61 -166t-103 -111q-35 -23 -72 -42.5t-78 -34.5q106 -47 141 -131q46 -112 9 -285l-10 -48q-57 -263 -279 -446q-222 -186 -505 -186 q-309 0 -447 223q-137 219 -74 514z" />
<glyph unicode="&#x10bb;" horiz-adv-x="1507" d="M228 398l61 286q52 244 218 413q172 172 478 172q86 0 159 -35.5t133 -104.5l159 744h249l-318 -1496q-27 -126 -91.5 -231t-158.5 -186q-97 -78 -209.5 -120.5t-235.5 -42.5q-260 0 -381 168q-120 165 -63 433zM474 377q-38 -177 23 -266.5t223 -89.5q138 0 249 91 q113 93 150 273l61 286q31 143 -30 263q-57 113 -212 113t-258.5 -93.5t-143.5 -282.5z" />
<glyph unicode="&#x10bc;" horiz-adv-x="1614" d="M270 393l211 993q57 268 181 377q125 110 320 110q76 0 148 -41v1q32 -17 56 -46t44 -77q67 82 149 117v-1q103 47 198 47q117 0 191 -95h-1q39 -48 50.5 -107t-3.5 -128l-52 -247h-213l52 247q14 63 -19 91.5t-102 28.5q-92 0 -133 -44q-46 -45 -66 -138l-22 -104h-212 l22 104q18 85 -10.5 133.5t-100.5 48.5q-107 0 -150 -40q-46 -43 -89 -246l-67 -318q79 78 174 111.5t215 33.5q254 0 389 -179q68 -90 87 -197t-7 -235l-39 -180q-60 -282 -286 -449t-443 -167q-234 0 -380 167q-148 166 -92 429zM515.5 256q9.5 -65 44.5 -122 q68 -113 230 -113q139 0 266 115q66 57 107 128t59 156l31 145q18 86 8.5 159.5t-48.5 133.5q-74 120 -225 120q-167 0 -274.5 -92.5t-149.5 -292.5l-43 -200q-15 -72 -5.5 -137z" />
<glyph unicode="&#x10bd;" horiz-adv-x="1467" d="M221 364q31 149 139 280h233q-46 -80 -76 -151.5t-44 -136.5q-13 -60 -3 -117t41 -113h-1q61 -105 213 -105q148 0 252 78q102 77 135 235l10 43q26 127 -76 259q-61 77 -70.5 205t28.5 308l109 514h-232l45 210h449l-153 -716q-33 -159 -19.5 -269t71.5 -171 q69 -69 93.5 -157t2.5 -193l-8 -33q-49 -234 -236 -386q-184 -151 -449 -151q-254 0 -379 172q-123 172 -75 395zM516 1120q35 163 150 236q56 36 113 53.5t115 17.5h635l-42 -195h-642q-94 0 -116 -112q-27 -114 106 -114h92l-43 -206h-123q-116 0 -199 65q-86 69 -46 255z " />
<glyph unicode="&#x10be;" horiz-adv-x="1507" d="M255 334l328 1539h251l-160 -750q188 146 352 146q293 0 396 -173q103 -172 54 -403l-77 -359q-45 -216 -229 -376h1q-185 -161 -458 -161q-109 0 -198 37.5t-162 112.5q-147 155 -98 387zM516 377q-36 -171 36 -263q75 -93 209 -93q141 0 250 91q111 93 148 265l59 277 q19 90 12.5 160.5t-37.5 126.5q-61 106 -214 106q-149 0 -254 -93q-105 -91 -149 -292z" />
<glyph unicode="&#x10bf;" horiz-adv-x="1467" d="M219 342l24 113q32 163 144 327h234q-54 -115 -85.5 -197t-42.5 -130l-22 -104q-33 -156 40 -243l1 1q76 -88 213 -88q74 0 135.5 19t113.5 57q103 76 139 251l22 99q42 198 -138 376q-96 96 -133.5 230.5t-20.5 304.5q-47 7 -97.5 14t-102 14t-101.5 14t-95 13l48 228 l397 -60q12 35 25 72.5t26.5 75.5t26 74.5t23.5 69.5h228l-112 -311q110 -13 224.5 -27t222.5 -28l-48 -226l-440 61q-10 -138 31 -249t126 -190q99 -93 143 -210t17 -246l-21 -96q-50 -236 -241 -394l1 1q-191 -161 -449 -161q-229 0 -367 164q-135 165 -89 381z" />
<glyph unicode="&#x10c0;" horiz-adv-x="1464" d="M246 480h250q-25 -117 -27 -204.5t21 -145.5q42 -109 230 -109q151 0 249 60t124 181q32 150 1.5 221t-116.5 71h-257l46 214h257q66 0 108 32h-1q40 30 63 134q7 33 4 58t-18 42q-30 36 -130 36h-260l48 225h260q31 0 57.5 12t49.5 32q49 49 64 124q24 108 -41 144 q-37 20 -174 30.5t-377 10.5l45 213q517 0 674 -85v1q169 -91 123 -305q-35 -165 -206 -281q168 -88 132 -255q-39 -187 -224 -281q93 -54 124 -143.5t4 -217.5q-54 -253 -242 -376q-183 -121 -435 -121q-284 0 -392 167t-34 516z" />
<glyph unicode="&#x10c1;" horiz-adv-x="1507" d="M254.5 130q-19.5 108 9.5 244l319 1499h237l-320 -1506q-32 -163 37 -254q68 -92 227 -92q151 0 249 66.5t129 209.5q13 60 13 106.5t-14.5 77.5t-45 47t-78.5 16h-176l45 211h176q89 0 142.5 44.5t69.5 121.5q12 52 -27 100q-39 49 -155 49h-139l48 225h139 q115 0 175 56q63 59 80 137q15 74 -42 114q-33 23 -101.5 34.5t-175.5 11.5l48 225q284 0 419 -90q145 -95 103 -290q-43 -206 -252 -303q85 -36 118 -104t12 -168q-22 -103 -85.5 -173t-164.5 -108q167 -107 118 -340q-51 -238 -234 -371q-179 -129 -445 -129 q-123 0 -217 38.5t-160 111.5q-62 75 -81.5 183z" />
<glyph unicode="&#x10c2;" horiz-adv-x="1464" d="M86 -269l48 225q129 0 232 18.5t187 57.5q-353 230 -274 607l116 545q42 197 113.5 334.5t164.5 211.5q95 69 207.5 106t236.5 37q126 0 221.5 -37t158.5 -106q57 -74 70 -212.5t-29 -333.5l-116 -545q-80 -379 -521 -609q57 -42 148.5 -58t227.5 -16l-48 -225 q-290 0 -528 193q-352 -193 -615 -193zM529 636q-30 -141 26 -265.5t194 -228.5q364 212 424 497l116 545q54 254 -8 362q-57 102 -212 102q-148 0 -259 -105l1 1q-112 -106 -177 -413z" />
<glyph unicode="&#x10c3;" horiz-adv-x="1464" d="M203 278l24 115q36 169 294 351l108 -159q-131 -99 -157 -216l-13 -61q-23 -106 36 -196q59 -91 225 -91q134 0 246 74q106 70 148 263l28 132q38 181 -24 291q-61 106 -155 106h-289l48 227h280q50 0 103.5 33.5t108.5 98.5q53 66 97 162t72 217h-603l-50 -237h-252 l97 459h1104l-54 -256q-80 -370 -408 -582q256 -131 174 -519l-28 -132q-26 -123 -87 -223.5t-155 -179.5q-188 -158 -449 -158q-226 0 -368 140q-144 143 -101 341z" />
<glyph unicode="&#x10c4;" horiz-adv-x="1464" d="M214 334q35 163 259 349l128 -155q-122 -122 -138 -199q-27 -134 42 -221q73 -87 218 -87q177 0 263 75q89 80 111 182l20 96q24 112 -16 170.5t-163 58.5h-124l47 225h124q106 -2 184 100.5t130 308.5q-120 -72 -231 -105.5t-221 -33.5q-245 0 -335 105q-90 107 -56 269 q36 169 252 288h-1q205 113 561 113l-48 -225q-278 0 -395 -44q-98 -39 -121 -141q-15 -70 21 -123q38 -50 160 -47q115 -2 303.5 87t448.5 267q-165 -775 -444 -927q223 -112 173 -348l-17 -78q-25 -118 -84 -210t-151 -158q-182 -129 -439 -129q-268 0 -388 162 q-118 162 -73 375z" />
<glyph unicode="&#x10c5;" horiz-adv-x="1628" d="M205 278q36 173 210 325q175 152 466 152h318l31 146h-318q-290 0 -403 140q-113 141 -72 330q21 101 80.5 192t147.5 163q93 72 206.5 109.5t247.5 37.5q231 0 370 -130q141 -134 89 -381l-51 -241h156l-47 -220h-156l-31 -146h156l-49 -229h-156l-52 -248 q-57 -264 -260 -374h1q-193 -107 -412 -107q-268 0 -392 135q-125 135 -80 346zM453 269q-11 -51 2 -96t46 -79q78 -73 224 -73q156 0 250 61t123 196l52 248h-318q-191 0 -273 -69v1q-81 -69 -106 -189zM687 1371q-25 -120 46 -187h-1q69 -64 200 -64q6 0 13 0.5t14 0.5 h318l51 241q30 141 -38 212q-69 74 -219 74q-169 0 -264 -77q-93 -74 -120 -200z" />
<glyph unicode="&#x10c6;" horiz-adv-x="2069" d="M327 802l111 521q51 238 194 380q147 143 402 143q236 0 323 -184q154 184 401 184q216 0 325 -111q56 -57 69.5 -157.5t-18.5 -246.5l-112 -529q-53 -247 -227 -385q-173 -137 -368 -137q-137 0 -230 84l-24 -111q-96 -453 -683 -453l45 210q354 0 405 238l227 1067 q18 91 17 153t-22 94q-39 62 -175 62q-118 0 -193 -60q-72 -56 -110 -233l-112 -529q-43 -199 21 -254q70 -59 212 -59l-44 -209q-236 0 -364 123q-128 125 -70 399zM1290 802q-41 -194 22 -242q67 -52 162 -55q146 3 205 74q67 79 97 223l109 513q21 99 17.5 160.5 t-29.5 90.5t-67 43.5t-95 14.5q-145 0 -207 -61q-65 -59 -103 -240z" />
<glyph unicode="&#x10d0;" horiz-adv-x="1306" d="M255 563q13 59 40.5 116.5t70.5 112.5l90 -22l74 -18l78 -17q-32 -43 -52.5 -85.5t-29.5 -86.5q-70 -332 162 -332q228 0 297 332q20 93 -6 167.5t-89 124.5q-129 45 -188.5 160t-51.5 298h260q-7 -99 8.5 -155.5t56.5 -75.5v1q360 -150 282 -520q-59 -273 -215 -411 t-408 -138q-247 0 -342 138t-37 411z" />
<glyph unicode="&#x10d1;" horiz-adv-x="1306" d="M266 612q57 248 190 401.5t339 198.5l37 173q26 112 -84 149q-69 26 -92.5 98.5t-1.5 187.5h259q-20 -111 78 -148q134 -53 85 -283l-39 -180q329 -134 231 -597q-128 -598 -624 -598q-248 0 -342 153.5t-36 444.5zM537 612q-82 -383 153 -383q228 0 310 383 q81 389 -143 391q-239 -2 -320 -391z" />
<glyph unicode="&#x10d2;" horiz-adv-x="1468" d="M159 -119.5q-21 101.5 2 231.5q78 253 249 396.5t434 170.5q171 95 205 246q27 124 -179 141q-88 -10 -141 -44t-66 -94q-2 -6 -2.5 -22.5t-1.5 -51.5l-250 -35q-1 30 2 64t10 64q33 157 160 240.5t334 94.5q227 -11 328.5 -103t64.5 -264q-17 -81 -72.5 -150 t-157.5 -127q311 -145 237 -528l-1 -2q-33 -130 -96 -231t-152 -172.5t-204 -113.5t-251 -53q-125 11 -219.5 53.5t-153 115t-79.5 174zM428 108q-26 -160 34.5 -246t194.5 -100q152 13 247.5 102t139.5 246q54 310 -232 343q-140 -15 -236.5 -104t-147.5 -241z" />
<glyph unicode="&#x10d3;" horiz-adv-x="1975" d="M270 -262q58 48 121.5 84.5t128.5 58.5v1q-175 128 -234 320t-4 450q125 583 572 583q127 0 204 -53.5t106 -158.5q68 106 169.5 163.5t235.5 57.5q476 0 355 -568q-62 -289 -214.5 -435.5t-386.5 -149.5q-235 17 -328 167.5t-33 428.5q35 168 1.5 249t-137.5 81 q-101 -1 -168 -91.5t-106 -273.5q-58 -275 23 -446t287 -236h-1q285 -74 430 -178.5t138 -243.5h-267q-5 37 -36 70.5t-84 62t-127 52.5t-165 42q-88 -5 -184 -57t-200 -146zM1205 687q-78 -362 169 -362q109 0 181 89.5t111 272.5q72 338 -144 338q-245 0 -317 -338z" />
<glyph unicode="&#x10d4;" horiz-adv-x="1328" d="M141 18q11 54 33 107.5t61 116.5l238 -65q-25 -51 -41 -90.5t-22 -68.5q-28 -133 15 -198t161 -65q231 0 285 263l145 679q72 331 -133 331q-228 0 -273 -221q-17 -71 12 -165q-12 -5 -30 -11.5t-37 -13t-36 -12.5t-27 -10l-91 -32l-18 -2q-27 54 -32.5 112.5t9.5 127.5 q47 223 188.5 333t378.5 110q475 0 359 -547l-142 -665q-104 -492 -603 -492q-503 -1 -400 478z" />
<glyph unicode="&#x10d5;" horiz-adv-x="1304" d="M135 -10q13 63 35 118t61 110l97 -31h-1l136 -39q-25 -54 -40.5 -93.5t-20.5 -64.5q-49 -235 200 -235q214 0 254 189l29 136q49 228 -142 228h-144l46 215h144q179 -3 233 247q55 260 -151 260q-204 -1 -247 -201q-12 -64 -11 -143l-126 -35h2q-10 -3 -25.5 -8 t-32.5 -9.5t-33 -9t-26 -7.5q-30 130 -11 212q87 415 556 415q470 0 369 -477q-26 -122 -102.5 -209.5t-205.5 -145.5q112 -36 157 -119.5t17 -214.5l-28 -132q-86 -406 -567 -406q-517 -2 -422 450z" />
<glyph unicode="&#x10d6;" horiz-adv-x="1306" d="M264 608q76 353 268 461q-102 42 -141.5 127t-11.5 216q86 405 511 405q204 0 286 -97t40 -293q-17 -81 -55 -149.5t-94 -121.5q154 -37 201.5 -173t-3.5 -375q-126 -594 -628 -594q-499 0 -373 594zM535 608q-79 -377 149 -377q117 0 193 93.5t117 283.5 q39 185 0.5 274.5t-157.5 88.5q-115 1 -189.5 -88.5t-112.5 -274.5zM619 1391q-47 -217 149 -218q66 1 116 59t82 161q20 103 -11 157t-115 55q-175 0 -221 -214z" />
<glyph unicode="&#x10d7;" horiz-adv-x="2007" d="M281 636q129 606 623 606q131 0 211.5 -49.5t110.5 -140.5q132 190 385 190q464 0 342 -570q-77 -357 -453 -671h-319q435 333 505 665q77 362 -120 362q-103 0 -173 -99.5t-113 -300.5q-131 -614 -639 -614q-493 0 -360 622zM539 332q33 -103 148 -103q239 0 324 399 q85 400 -152 400q-227 0 -309 -384q-44 -209 -11 -312z" />
<glyph unicode="&#x10d8;" horiz-adv-x="1304" d="M247 333q-3 171 35 349q120 562 621 562q497 0 377 -562q-75 -356 -306 -687h-248q115 200 185.5 370.5t100.5 316.5q73 343 -156 343q-119 0 -194.5 -84.5t-112.5 -258.5q-61 -295 -15 -687h-237q-47 167 -50 338z" />
<glyph unicode="&#x10d9;" horiz-adv-x="1306" d="M141 24q9 42 32 93t61 106l210 -105l-43 -100q-52 -261 177 -261q238 0 295 267l8 38q52 248 -186 248h-180l49 227h180q214 0 256 193q19 90 -40.5 159t-201.5 125l48 226q274 -66 389 -193t75 -317q-23 -110 -99.5 -186t-213.5 -121q131 -36 178 -125.5t16 -235.5 l-8 -38q-106 -484 -611 -484q-246 0 -344.5 121.5t-46.5 362.5z" />
<glyph unicode="&#x10da;" horiz-adv-x="2636" d="M298 683q117 552 588 552q116 0 191.5 -48.5t111.5 -136.5q72 94 163 144t195 50q115 -1 186 -49t100 -149q72 90 166 139.5t206 49.5q474 0 358 -546q-66 -305 -348 -496l-86 58l1 -1l-8 6q-14 10 -36.5 26t-42.5 27q104 87 167.5 181.5t85.5 198.5q35 167 1 247 t-139 79q-217 6 -271 -268l-34 -135q-5 -17 -11 -39t-12.5 -46t-12.5 -46.5t-10 -39.5h-218l49 306q30 140 -3.5 209t-134.5 69q-99 0 -161 -69t-92 -209l-79 -306h-214q2 13 5.5 31.5t6.5 38t5.5 37t4.5 29.5q7 42 14.5 84t15.5 87q57 267 -167 267q-201 4 -271 -337 q-119 -558 563 -636q379 -70 553 -192t144 -302h-250q16 100 -138.5 170t-466.5 111q-8 1 -18.5 1h-17.5q-128 0 -230 -40.5t-186 -129.5l-119 201q47 35 97.5 63.5t96.5 48.5q-208 99 -280.5 275.5t-17.5 434.5z" />
<glyph unicode="&#x10db;" horiz-adv-x="1325" d="M262 594q61 287 216.5 430t408.5 143q76 0 130.5 -25t86.5 -79l80 372q36 170 -204 170q-91 0 -148 -44.5t-80 -126.5h-265q45 192 178.5 289t359.5 97q497 -3 416 -385l-191 -896q-111 -525 -595 -525q-517 0 -393 580zM531 596q-78 -367 174 -367q209 0 275 310 q87 408 -140 408q-234 0 -309 -351z" />
<glyph unicode="&#x10dc;" horiz-adv-x="1328" d="M277 568l191 896q68 327 419 327h512l-46 -219h-511q-97 -3 -118 -102l-83 -388q109 125 267 125q252 0 347.5 -149.5t32.5 -445.5q-129 -598 -634 -598q-494 0 -377 554zM536 568q-72 -338 164 -337q236 -1 318 381q78 375 -158 375q-119 0 -199 -104t-125 -315z" />
<glyph unicode="&#x10dd;" horiz-adv-x="1971" d="M288 680q60 283 207 423.5t381 140.5q128 0 204 -50.5t104 -149.5q78 103 174.5 151.5t219.5 48.5q463 0 343 -564q-86 -400 -459 -673h-267q200 208 314.5 375t142.5 298q73 348 -121 348q-118 0 -191 -74.5t-105 -225.5l-62 -238h-217l21 138q3 23 7 49.5t9 50.5 q64 300 -165 300q-193 0 -266 -348q-56 -248 156 -673h-268q-246 276 -162 673z" />
<glyph unicode="&#x10de;" horiz-adv-x="1306" d="M243 508q15 69 44.5 132.5t75.5 126.5l221 -78q-60 -101 -76 -179q-60 -281 172 -281q118 0 195.5 91t117.5 278q67 318 -197 318h-142l45 209h165q100 0 158.5 48.5t80.5 148.5q17 79 -26.5 129t-145.5 67q-112 23 -164 98.5t-35 194.5h259q-2 -45 45 -80.5t145 -60.5 q244 -67 184 -350q-23 -109 -94.5 -186t-181.5 -122q240 -103 176 -414q-125 -584 -631 -584q-495 0 -391 494z" />
<glyph unicode="&#x10df;" horiz-adv-x="1328" d="M138 10h274q-26 -130 13 -192.5t145 -62.5q251 0 308 273l209 981l-149 -20q-56 -8 -111 -15.5t-113 -13.5q105 -56 137.5 -148.5t3.5 -229.5q-38 -182 -206.5 -276t-468.5 -96l52 244q180 2 277.5 33t111.5 95q57 268 -281 379l35 165q85 12 182.5 27t186.5 29 q35 6 71.5 11t69.5 10l283 43q28 4 59 8.5t62.5 9.5t62 9.5t56.5 8.5l-267 -1256q-51 -242 -202.5 -364t-406.5 -122q-489 0 -394 470z" />
<glyph unicode="&#x10e0;" horiz-adv-x="1994" d="M295 709q34 160 128.5 321.5t240.5 322.5q149 156 425 286t674 225l14 -236q-367 -66 -614.5 -170.5t-376.5 -250.5q23 8 48 18.5t47 18.5q127 -1 202 -58t101 -175q79 119 179 176t223 57q476 0 362 -535q-88 -415 -455 -704h-282q211 225 325.5 398.5t142.5 305.5 q66 319 -146 319q-221 0 -289 -319l-54 -175h-211q1 11 3.5 27.5t4.5 33.5t3.5 32.5t2.5 25.5l6 55q69 320 -149 320q-217 0 -284 -319q-27 -130 12.5 -304.5t150.5 -399.5h-278q-244 289 -156 704z" />
<glyph unicode="&#x10e1;" horiz-adv-x="1328" d="M287 622l246 1157h266l-246 -1157q-88 -393 160 -393q114 0 189.5 97.5t117.5 295.5q24 113 15.5 191t-50.5 119q-103 97 -85 181q19 90 89 170t188 150l94 -198q-69 -32 -102 -52.5t-35 -32.5q-10 -47 93 -152q117 -120 63 -376q-65 -304 -221.5 -456t-401.5 -152 q-509 0 -380 608z" />
<glyph unicode="&#x10e2;" horiz-adv-x="1664" d="M223 390q157 736 749 800q17 94 32.5 193t32.5 191h225l-103 -387q282 -32 382.5 -232.5t21.5 -571.5q-180 -843 -845 -843q-675 0 -495 850zM487.5 -87.5q67.5 -157.5 271.5 -157.5t338.5 157t202.5 478q108 508 -180 612l-44 -249q-7 -38 -15 -84t-16.5 -93 t-16.5 -91.5t-14 -79.5h-225l143 596q-169 -48 -279 -200.5t-165 -410.5q-68 -320 -0.5 -477.5z" />
<glyph unicode="&#x10e3;" horiz-adv-x="1376" d="M190 18q20 93 57.5 183t96.5 180q10 -5 24.5 -11t29.5 -13t29.5 -13t23.5 -10l59 -24l55 -22q-39 -66 -66 -133.5t-42 -136.5q-28 -133 13.5 -198t156.5 -65q250 0 305 263l159 745q54 265 -83 265q-118 0 -165 -220l-69 -255h-205q3 14 6.5 33t7 39.5t7 39t5.5 32.5 l18 111q47 220 -104 220h-154l46 216h146q100 0 159.5 -39.5t77.5 -119.5q124 159 284 159q190 0 260 -120t19 -361l-159 -745q-104 -478 -606 -478q-493 0 -392 478z" />
<glyph unicode="&#x10e4;" horiz-adv-x="1973" d="M286 670q122 574 614 574q129 0 207.5 -55t107.5 -159q72 99 170 152t219 53q437 0 337 -472q-32 -146 -103 -245t-187 -151q165 -68 122 -272l-34 -157q-42 -197 -216 -297.5t-480 -100.5q-565 0 -499 361h264q-21 -146 280 -146q342 0 381 183l33 153q33 157 -48 157 h-143l49 229h143q106 0 167 286q28 130 0.5 192t-112.5 62q-103 0 -166 -67t-92 -205l-21 -97q-114 -539 -611 -539q-249 0 -345 140t-37 421zM559 410.5q35 -85.5 146 -85.5q249 0 318 323q81 377 -170 377q-111 0 -182.5 -87.5t-109.5 -267.5q-37 -174 -2 -259.5z" />
<glyph unicode="&#x10e5;" horiz-adv-x="1328" d="M139 18q14 61 36 114.5t62 106.5l240 -69q-54 -91 -69 -152q-28 -133 14 -198t157 -65q245 0 299 263l136 638q79 369 -165 369q-104 2 -165.5 -46.5t-83.5 -151.5q-6 -29 -0.5 -70t19.5 -92l-103 -38l1 1l-139 -54q-50 109 -20 253q89 417 545 417q151 0 218 -92 l134 627h261l-375 -1761q-101 -478 -607 -478q-496 0 -395 478z" />
<glyph unicode="&#x10e6;" horiz-adv-x="1971" d="M283 656q63 295 212 441.5t384 146.5q119 0 195 -52.5t109 -152.5q73 100 166 152.5t206 52.5q486 0 375 -520v-4q-65 -299 -342 -519l-46 28q-13 8 -26 17t-23 17h1q-8 5 -17 12t-18 13l-35 24q97 92 157 195.5t83 216.5q64 304 -150 304q-215 0 -275 -281l-78 -310 h-217l29 173q5 32 11.5 68.5t13.5 70.5q30 142 -10.5 210.5t-154.5 68.5q-102 0 -170 -92t-108 -280q-58 -272 47.5 -449t362.5 -254q198 -67 289 -171t68 -245h-254q15 137 -244 212l1 -1q-38 9 -69 9q-69 0 -161 -42t-195 -117l-84 184q53 51 104.5 84.5t100.5 50.5 q-174 122 -232.5 304.5t-5.5 434.5z" />
<glyph unicode="&#x10e7;" horiz-adv-x="1328" d="M145 46h271q-57 -291 163 -291q248 0 303 263l41 192q-96 -81 -264 -81q-496 0 -374 574q60 281 384 545l225 -86q-151 -125 -234 -237.5t-106 -221.5q-75 -351 152 -351q247 0 298 237l130 614h259l-253 -1193q-101 -470 -606 -470q-246 0 -344 125.5t-45 380.5z" />
<glyph unicode="&#x10e8;" horiz-adv-x="1325" d="M263 602q120 563 616 563q154 0 221 -115l78 368q21 100 -1.5 147.5t-89.5 47.5q-118 0 -157 -180l-14 -68h-233l15 70q19 90 1 133t-75 45q-5 -2 -12.5 -4.5t-14.5 -4.5h1q-7 -3 -22.5 -8t-33 -10t-33 -9.5t-21.5 -6.5l53 247h137q138 0 183 -159q57 80 130.5 119.5 t163.5 39.5q366 0 282 -399l-176 -829q-61 -286 -207.5 -430.5t-373.5 -144.5q-540 0 -417 588zM532 602q-82 -373 194 -373q99 0 165 88.5t105 271.5q75 357 -163 357q-228 0 -301 -344z" />
<glyph unicode="&#x10e9;" horiz-adv-x="1325" d="M159 14l292 1371q90 432 514 432q425 0 344 -378q-10 -52 -42 -116t-83 -133q94 -71 126 -187.5t-3 -280.5q-48 -229 -146 -409t-248 -320q-13 1 -29 2.5t-32.5 3.5t-32 3.5t-27.5 3.5l-65 6l-83 5q156 149 253.5 324t141.5 381q33 155 -4.5 230.5t-149.5 75.5 q-253 -3 -322 -325l-147 -689h-257zM629 1101h8l14 15l-8 -35zM651 1116q57 60 147 91.5t208 36.5q45 99 60 172q40 189 -142 189q-169 0 -220 -238z" />
<glyph unicode="&#x10ea;" horiz-adv-x="1447" d="M176 182l61 287q53 249 136.5 449.5t195.5 353.5l98 -51q11 -5 27.5 -13t33.5 -17t33 -17t25 -13q-84 -88 -151 -243.5t-115 -378.5l-76 -357q-90 -427 217 -427q152 0 242.5 77t123.5 236q55 251 -98 251h-201l45 210h192q135 0 182 233q27 115 -71 161v-1 q-69 29 -93.5 104t-1.5 195h261q-29 -149 44 -191q75 -35 105 -102t10 -161q-48 -225 -251 -335q92 -48 126.5 -147.5t2.5 -251.5q-107 -493 -666 -493q-574 0 -437 642z" />
<glyph unicode="&#x10eb;" horiz-adv-x="1328" d="M266 614q67 315 225 472.5t405 157.5q170 0 226 -90l133 625h259l-246 -1155q-128 -610 -634 -610q-496 0 -368 600zM535 614q-82 -385 145 -385q236 0 320 395q85 404 -150 404q-227 0 -315 -414z" />
<glyph unicode="&#x10ec;" horiz-adv-x="1328" d="M272 554l194 910q74 353 401 353q221 0 270 -153q113 153 252 153h155l-53 -249l-137 45q-57 -2 -94 -48.5t-57 -141.5l-14 -65h-233l13 62q42 193 -131 193q-84 0 -115 -149l-89 -419q52 63 120 91.5t156 28.5q496 0 377 -557q-126 -594 -624 -594q-505 0 -391 540z M540 554q-69 -323 170 -323q115 0 189.5 93.5t115.5 283.5q36 171 -0.5 254.5t-150.5 83.5q-240 0 -324 -392z" />
<glyph unicode="&#x10ed;" horiz-adv-x="1348" d="M173 -181q-14 90 7 205q13 56 56 121.5t119 140.5l176 -151q-34 -31 -55 -61t-27 -56q-28 -133 14.5 -198t158.5 -65q233 0 291 269q16 77 -8.5 145t-78.5 118q-53 68 -74 140t-7 145l90 422h-184q-23 0 -42 -14t-33.5 -35.5t-24.5 -46.5t-15 -47q-5 -23 -6 -50t4 -51 t17.5 -40t35.5 -16h54l-37 -176h-72q-65 0 -111.5 29t-74 75t-35.5 103t4 114q12 56 45.5 117.5t81.5 112.5t107.5 84t124.5 33h202l126 593h232l-124 -593h209l-39 -192h-211l-89 -418q-7 -44 19 -92t83 -104h-1q151 -123 100 -356q-104 -484 -604 -484q-121 0 -206 32.5 t-134.5 94.5t-63.5 152z" />
<glyph unicode="&#x10ee;" horiz-adv-x="1325" d="M288 630l245 1149h266l-142 -665q60 64 127.5 97t140.5 33q496 0 364 -614q-133 -616 -626 -616q-506 0 -375 616zM563 630q-84 -400 145 -399q227 0 313 399q83 395 -149 395q-224 0 -309 -395z" />
<glyph unicode="&#x10ef;" horiz-adv-x="1306" d="M141 24q20 95 68 182t129 172l37 -25l53 -36l92 -65q-44 -59 -70.5 -116.5t-37.5 -111.5q-29 -136 11.5 -202.5t155.5 -66.5q239 0 298 278q42 211 -90 364h1q-151 170 -110 368l28 133l-43 15l-57 21l-227 83l56 263l325 -129l66 312h220l-77 -365l162 -56 q29 -10 63 -21t66 -23l84 -28l-55 -258l-374 132l-17 -79q-6 -29 0.5 -63.5t24 -71.5t44 -75.5t59.5 -76.5q81 -91 111.5 -211.5t1.5 -260.5q-99 -466 -605 -466q-248 0 -346.5 121t-46.5 363z" />
<glyph unicode="&#x10f0;" horiz-adv-x="1304" d="M244 510l30 142h274l-30 -142q-32 -142 7.5 -211.5t154.5 -69.5q238 0 281 209q34 167 -58 167h-234l48 224h234q83 0 107 109q24 102 -62 102h-234l48 227h233q71 0 98 120q4 17 -8 32.5t-37 29t-63 24.5t-87 19q-63 11 -110 37t-76 66.5t-38.5 96t3.5 125.5h264 q-7 -57 41.5 -92.5t149.5 -50.5h-1q282 -30 228 -289q-17 -78 -65.5 -133.5t-126.5 -89.5q138 -72 107 -225q-16 -72 -66 -128t-137 -94q77 -56 102.5 -122t9.5 -145q-93 -434 -589 -434q-504 0 -398 496z" />
<glyph unicode="&#x10f1;" horiz-adv-x="1395" d="M157 97q17 78 39.5 162.5t48.5 168t54.5 163.5t56.5 149q17 42 33 89.5t25 91.5q20 90 23 206.5t-11 248.5h266q11 -118 6 -228t-28 -221q-11 -51 -24.5 -100.5t-30.5 -98.5q-103 -253 -187 -631q-35 -174 22.5 -258t210.5 -84q129 0 199 36t84 111q42 198 -46 199h-180 l46 218h180q88 0 114 119q33 157 -53 157h-182l45 212h182q86 0 117 146q25 119 -63 119h-180l47 219h180q88 0 116 132q8 34 -27 59t-106 42q-81 23 -113.5 97t-10.5 196h242q-5 -45 29.5 -81.5t103.5 -62.5q86 -30 123 -93t17 -157q-38 -179 -210 -237q146 -64 110 -233 q-41 -194 -219 -255q151 -64 110 -260q-18 -82 -75.5 -139.5t-152.5 -89.5q162 -82 114 -307q-77 -362 -586 -362q-578 0 -459 557z" />
<glyph unicode="&#x10f2;" horiz-adv-x="1287" d="M118 -292l64 297q72 2 130 19.5t93 46.5q-104 99 -139 236.5t0 306.5q34 143 90 255.5t134 190.5t177.5 119.5t218.5 41.5q489 0 360 -607q-74 -347 -379 -543q26 -35 75.5 -49.5t124.5 -12.5l-63 -300q-134 45 -225.5 114t-154.5 168q-107 -95 -235 -166.5t-271 -116.5z M530 614q-34 -160 2 -261t138 -148q121 47 200 148t111 261q45 200 8.5 297t-155.5 97q-112 0 -187 -97t-117 -297z" />
<glyph unicode="&#x10f3;" horiz-adv-x="1287" d="M141 27q8 15 16.5 31.5t16.5 33.5l40 83l249 -27l-58 -124q-25 -131 17.5 -197t153.5 -66q224 0 280 263l6 30q64 305 -212 300h-154l49 233h154q242 0 320 366l9 51q-54 -4 -101 -7t-93.5 -6t-94.5 -7t-103 -8l-49 -229h-248l94 441l942 33q-111 -511 -434 -737 q129 -70 173 -176.5t13 -253.5l-6 -30q-102 -475 -598 -476q-484 0 -382 479z" />
<glyph unicode="&#x10f4;" horiz-adv-x="1287" d="M147 52h264q-59 -291 163 -291q226 0 282 263l12 60q49 229 -182 229h-199l48 227h196q109 11 191.5 111t130.5 289q-54 -15 -109.5 -22t-120.5 -7q-494 -3 -405 419q96 452 619 455l-45 -213q-305 -5 -356 -242q-43 -203 230 -203q203 0 534 212l-74 -347 q-44 -210 -141 -349.5t-249 -207.5q133 -41 180.5 -127.5t18.5 -223.5l-12 -60q-102 -476 -593 -476q-244 0 -340.5 125t-42.5 379z" />
<glyph unicode="&#x10f5;" horiz-adv-x="1419" d="M225 411q86 403 567 405h233l34 160h-233q-481 0 -394 410q84 399 574 399q491 0 407 -399l-41 -193h124l-46 -217h-124l-34 -160h124l-54 -253h-124l-32 -152q-85 -397 -580 -397q-486 0 -401 397zM489 417q-41 -192 184 -192q227 0 270 204l35 167h-233 q-217 0 -256 -179zM695 1385q-41 -192 177 -192h233l41 193q20 94 -25.5 140t-160.5 46q-226 0 -265 -187z" />
<glyph unicode="&#x10f6;" horiz-adv-x="2037" d="M279 630q126 589 615 591q125 0 204 -52t111 -154q150 206 396 206q490 0 364 -591q-130 -616 -621 -616q-138 0 -198 103l-25 -119q-95 -443 -613 -448l45 212q128 2 202 60.5t99 173.5l134 634q41 192 6 285t-149 93q-113 0 -189.5 -93t-117.5 -285q-75 -355 199 -361 l-47 -218q-270 4 -372.5 148.5t-42.5 430.5zM1223 460q-25 -119 16.5 -177t153.5 -58q222 0 308 405q41 192 5.5 285t-150.5 93q-215 0 -290 -346z" />
<glyph unicode="&#x10f7;" horiz-adv-x="1494" d="M146 42q46 216 170 356t328 205q364 108 389 226q37 179 -102 179q-169 0 -203 -144l-12 -92l-112 -12l-129 -18l2 100q82 379 499 379q402 0 316 -405q-54 -255 -464 -401q-355 -85 -415 -365q-61 -289 253 -289q332 0 395 295q25 115 -47 199l254 132q51 -75 64.5 -160 t-7.5 -185q-105 -492 -709 -492q-572 0 -470 492z" />
<glyph unicode="&#x10f8;" horiz-adv-x="1287" d="M138 13l252 1182h269l-138 -647q-39 -181 197 -181q217 0 281 305q27 128 -16.5 248t-153.5 231q19 7 46.5 17t56 20.5t54.5 20t43 14.5l70 23q112 -136 152.5 -279t8.5 -295q-113 -531 -591 -531q-154 0 -219 74l-42 -197q-57 -257 181 -257q214 0 277 285h261 q-56 -251 -202.5 -373.5t-384.5 -122.5q-500 0 -402 463z" />
<glyph unicode="&#x10f9;" horiz-adv-x="1395" d="M266 -80q24 113 96.5 197t190.5 141q-332 128 -261 466q54 258 218 386.5t439 128.5q537 -2 427 -515q-68 -321 -471 -511q-341 -129 -374 -282q-36 -170 110 -170q182 0 209 124l24 114h253l-24 -114q-74 -337 -508 -337q-407 0 -329 372zM559 724q-27 -128 26 -201.5 t193 -92.5q142 20 224.5 94.5t108.5 199.5q64 299 -208 299q-280 0 -344 -299z" />
<glyph unicode="&#x10fa;" horiz-adv-x="1393" d="M178 42q58 66 118.5 107.5t123.5 61.5q-105 70 -138.5 195.5t4.5 306.5q54 252 208 378.5t399 129.5q220 -26 310.5 -144t45.5 -330q-12 -57 -38.5 -131t-74.5 -176l-188 92q18 53 31.5 96.5t20.5 75.5q28 133 -17 209.5t-142 94.5q-111 -2 -182.5 -77t-104.5 -215 q-13 -80 -11.5 -148t16.5 -122.5t43 -93t69 -58.5l-3 2q95 -23 172.5 -81t139.5 -158l-203 -143q-11 33 -21.5 50t-22.5 33l-12 17q-42 56 -137 56q-60 0 -118.5 -32.5t-115.5 -101.5z" />
<glyph unicode="&#x10fb;" horiz-adv-x="872" d="M83 47l53 248h262l-53 -248h-262zM244 801l53 249h265l-53 -249h-265zM625 446l53 247h257l-53 -247h-257z" />
<glyph unicode="&#x10fc;" horiz-adv-x="653" d="M295 1060l69 325q45 214 264 214h270l-33 -156l-292 2q-28 0 -37 -42l-18 -85l80 46q253 0 188 -304q-34 -158 -112.5 -238t-203.5 -80q-243 0 -175 318zM462 1054q-34 -159 41 -159q80 0 116 165q28 137 -56 137q-71 0 -101 -143z" />
<glyph unicode="&#x2000;" horiz-adv-x="985" />
<glyph unicode="&#x2001;" horiz-adv-x="1971" />
<glyph unicode="&#x2002;" horiz-adv-x="985" />
<glyph unicode="&#x2003;" horiz-adv-x="1971" />
<glyph unicode="&#x2004;" horiz-adv-x="657" />
<glyph unicode="&#x2005;" horiz-adv-x="492" />
<glyph unicode="&#x2006;" horiz-adv-x="328" />
<glyph unicode="&#x2007;" horiz-adv-x="328" />
<glyph unicode="&#x2008;" horiz-adv-x="246" />
<glyph unicode="&#x2009;" horiz-adv-x="394" />
<glyph unicode="&#x200a;" horiz-adv-x="109" />
<glyph unicode="&#x200f;" horiz-adv-x="0" />
<glyph unicode="&#x2010;" horiz-adv-x="776" d="M171 470l51 236h606l-51 -236h-606z" />
<glyph unicode="&#x2011;" horiz-adv-x="776" d="M171 470l51 236h606l-51 -236h-606z" />
<glyph unicode="&#x2012;" horiz-adv-x="1368" d="M183 477l47 220h1158l-47 -220h-1158z" />
<glyph unicode="&#x2013;" d="M178 477l47 220h884l-47 -220h-884z" />
<glyph unicode="&#x2014;" horiz-adv-x="2150" d="M196 477l47 220h1886l-47 -220h-1886z" />
<glyph unicode="&#x2015;" horiz-adv-x="2150" d="M99 477l47 220h2081l-47 -220h-2081z" />
<glyph unicode="&#x2016;" d="M127 -473l442 2080h243l-442 -2080h-243zM473 -473l442 2080h243l-442 -2080h-243z" />
<glyph unicode="&#x2017;" d="M-138 -473l46 217h1115l-46 -217h-1115zM-67 -135l46 217h1115l-46 -217h-1115z" />
<glyph unicode="&#x2018;" horiz-adv-x="684" d="M351 980l46 217l249 342h196l-165 -353l-44 -206h-282z" />
<glyph unicode="&#x2019;" horiz-adv-x="684" d="M349 1000l165 351l40 188h285l-43 -199l-250 -340h-197z" />
<glyph unicode="&#x201a;" horiz-adv-x="684" d="M83 -233l165 352l43 204h282l-45 -214l-249 -342h-196z" />
<glyph unicode="&#x201b;" horiz-adv-x="684" d="M431 1340l43 199h283l-40 -188q2 -41 4.5 -85.5t4.5 -90t4.5 -90.5t4.5 -85h-200z" />
<glyph unicode="&#x201c;" horiz-adv-x="1114" d="M358 980l46 217l249 342h196l-165 -353l-44 -206h-282zM759 980l46 217l249 342h199l-165 -353l-44 -206h-285z" />
<glyph unicode="&#x201d;" horiz-adv-x="1114" d="M349 980l163 350l45 209h282l-47 -218l-247 -341h-196zM749 980l164 350l45 209h285l-47 -218l-248 -341h-199z" />
<glyph unicode="&#x201e;" horiz-adv-x="1114" d="M91 -233l164 352l43 204h282l-45 -214l-248 -342h-196zM491 -233l165 352l43 204h285l-45 -214l-249 -342h-199z" />
<glyph unicode="&#x201f;" horiz-adv-x="1114" d="M430 1321l47 218h282l-45 -209q2 -41 4 -85.5t4.5 -90t4 -90t3.5 -84.5h-196zM831 1321l47 218h285l-45 -209q2 -41 4 -85.5t4.5 -90t4 -90t3.5 -84.5h-199z" />
<glyph unicode="&#x2020;" d="M226 902l48 224h359l88 413h250l-88 -413h360l-48 -224h-360l-233 -1095h-250l233 1095h-359z" />
<glyph unicode="&#x2021;" d="M81 217l48 227h359l97 458h-359l48 224h359l88 413h250l-88 -413h360l-48 -224h-360l-97 -458h360l-48 -227h-360l-88 -410h-250l88 410h-359z" />
<glyph unicode="&#x2022;" horiz-adv-x="1268" d="M450 785q30 136 145 231q60 47 122.5 70.5t132.5 23.5q135 0 211 -94q75 -94 46 -231q-28 -136 -145 -235q-116 -96 -253 -96t-213 96q-75 96 -46 235z" />
<glyph unicode="&#x2023;" horiz-adv-x="1268" d="M359 350l184 866l683 -433z" />
<glyph unicode="&#x2024;" horiz-adv-x="719" d="M205 0l68 323h284l-68 -323h-284z" />
<glyph unicode="&#x2025;" horiz-adv-x="1436" d="M218 0l68 323h283l-68 -323h-283zM886 0l68 323h284l-68 -323h-284z" />
<glyph unicode="&#x2026;" horiz-adv-x="2150" d="M230 0l68 323h284l-68 -323h-284zM898 0l68 323h282l-68 -323h-282zM1563 0l68 323h285l-68 -323h-285z" />
<glyph unicode="&#x2027;" horiz-adv-x="684" d="M317 605l70 327h283l-70 -327h-283z" />
<glyph unicode="&#x202a;" horiz-adv-x="0" />
<glyph unicode="&#x202b;" horiz-adv-x="0" />
<glyph unicode="&#x202c;" horiz-adv-x="0" />
<glyph unicode="&#x202d;" horiz-adv-x="0" />
<glyph unicode="&#x202e;" horiz-adv-x="0" />
<glyph unicode="&#x202f;" horiz-adv-x="428" />
<glyph unicode="&#x2032;" horiz-adv-x="487" d="M222 1096l297 443h301l-437 -443h-161z" />
<glyph unicode="&#x2035;" horiz-adv-x="487" d="M299 1539h299l107 -443h-163z" />
<glyph unicode="&#x2039;" horiz-adv-x="860" d="M251 569l25 115l634 475l-62 -289l-327 -243l223 -248l-61 -289z" />
<glyph unicode="&#x203a;" horiz-adv-x="860" d="M185 90l61 289l327 248q-53 54 -102 111q-29 31 -60.5 66t-60.5 66l62 289l433 -475l-25 -115z" />
<glyph unicode="&#x203e;" d="M282 1507l46 217h1115l-46 -217h-1115z" />
<glyph unicode="&#x2043;" d="M329 629l62 290h662l-62 -290h-662z" />
<glyph unicode="&#x2044;" horiz-adv-x="358" d="M-433 -29l1296 1592h244l-1296 -1592h-244z" />
<glyph unicode="&#x204b;" horiz-adv-x="1368" d="M176 -193l369 1732h477q109 0 193 -32t141 -93q54 -63 73 -145.5t-2 -182.5q-41 -194 -193 -315q-138 -109 -344 -132l-177 -832h-213l326 1533h-112l-326 -1533h-212z" />
<glyph unicode="&#x204c;" d="M355 769q29 138 144 231q120 96 293 96l-141 -657q-172 0 -251 96q-74 97 -45 234zM694 439l139 657h245l-139 -655z" />
<glyph unicode="&#x204d;" d="M285 441l139 655h248l-139 -657zM571 439l139 657q179 0 254 -96q74 -93 45 -231q-14 -69 -50.5 -126.5t-93.5 -107.5q-116 -96 -294 -96z" />
<glyph unicode="&#x204e;" d="M71 217l361 176q-69 42 -143.5 87.5t-141.5 86.5l131 164l263 -184l73 340h190l-73 -340l343 184l61 -164l-358 -174l284 -176l-131 -161l-264 183l-73 -342h-190l73 342l-342 -183z" />
<glyph unicode="&#x2055;" horiz-adv-x="1802" d="M436 651l49 232h293l-164 208l199 164l163 -206l63 293h233l-63 -295q61 51 125.5 104.5t124.5 101.5l128 -162l-250 -208h293l-49 -232h-291l160 -205l-198 -166l-162 209l-62 -292h-233l62 291l-251 -208l-129 166l250 205h-291z" />
<glyph unicode="&#x205f;" horiz-adv-x="492" />
<glyph unicode="&#x20a4;" horiz-adv-x="1303" d="M103 0l49 235h220l48 224h-178l44 209h178l13 57h-185l44 210h185l11 50q28 132 75 227.5t116 158t161 92.5t210 30q60 0 136.5 -17t157.5 -51l-55 -261q-167 104 -270 104q-117 0 -174 -57q-29 -32 -54 -94.5t-45 -152.5l-6 -29h364l-44 -210h-364l-13 -57h372l-44 -209 h-372l-48 -224h519l-49 -235h-1002z" />
<glyph unicode="&#x20ac;" horiz-adv-x="1368" d="M71 510l128 196h123v1q2 11 5.5 28.5t6.5 31.5q4 19 7.5 35t6.5 29v1h-209l128 196h145q49 116 122 214t157 168q98 75 209.5 114t233.5 39q202 0 365 -158l-70 -328q-113 171 -181 213q-68 40 -157 40q-130 0 -231.5 -76t-168.5 -226h574l-128 -196h-515l-23 -109 q-1 -5 -1 -5.5t-0.5 -1.5t-0.5 -2.5t-1 -7.5h460l-134 -196h-341q4 -150 72 -228t199 -78q45 0 88 9.5t85 29.5q43 20 110.5 73.5t162.5 143.5l-69 -328q-235 -161 -434 -161q-125 0 -220 39t-158 113q-60 71 -89 168t-26 219h-231z" />
<glyph unicode="&#x2116;" horiz-adv-x="2130" d="M46 0l49 235q138 0 150 61l250 1172h315l333 -1048l159 751q14 66 49.5 122.5t81.5 94.5q52 39 134.5 59.5t194.5 20.5l-50 -235q-138 0 -151 -62l-248 -1171h-315l-334 1048l-160 -752q-28 -138 -131 -218q-99 -78 -327 -78zM1386 0l40 190h536l-40 -190h-536zM1517 618 q14 69 46.5 130t79.5 109q49 50 103.5 78t112.5 28q57 0 100 -28t71 -78q26 -48 32 -107.5t-9 -131.5q-32 -145 -125 -241q-102 -104 -215 -104q-115 0 -172 104q-56 95 -24 241zM1720.5 524q8.5 -37 37.5 -37t53.5 37t36.5 94t3 93.5t-38 36.5t-53 -36.5t-36 -93.5 t-3.5 -94z" />
<glyph unicode="&#x2122;" horiz-adv-x="2048" d="M546 1304l35 164h559l-35 -164h-189l-96 -451h-183l96 451h-187zM1038 853l131 615h219l97 -207l71 84l105 123h218l-131 -615h-181l76 359l-163 -190h-93l-89 193l-77 -362h-183z" />
<glyph unicode="&#x2190;" horiz-adv-x="1716" d="M207 579l24 114l490 405l131 -165l-218 -179h1083l-50 -235h-1082l141 -179l-201 -165z" />
<glyph unicode="&#x21b2;" horiz-adv-x="1716" d="M388 362l25 114l491 405l128 -166l-216 -178h330l198 931h235l-248 -1166h-565l141 -179l-199 -165z" />
<glyph unicode="&#x21b5;" horiz-adv-x="1716" d="M203 579l24 114l489 405l130 -165l-216 -179h610l110 518h234l-160 -753h-844l140 -179l-200 -165z" />
<glyph unicode="&#x21e7;" horiz-adv-x="1716" d="M469 966l684 564l445 -564h-308l-205 -966h-513l205 966h-308zM776 169h175l206 965h70l-125 158l-189 -158h69z" />
<glyph unicode="&#x25fc;" horiz-adv-x="1170" d="M0 0v1170h1170v-1170h-1170z" />
<glyph horiz-adv-x="0" />
</font>
</defs>
</svg>
