<?xml version="1.0" standalone="no"?>
<!DOCTYPE svg PUBLIC "-//W3C//DTD SVG 1.1//EN" "http://www.w3.org/Graphics/SVG/1.1/DTD/svg11.dtd" >
<svg xmlns="http://www.w3.org/2000/svg" xmlns:xlink="http://www.w3.org/1999/xlink" version="1.1">
<metadata></metadata>
<defs>
<font id="bpg_nino_elite_capsregular" horiz-adv-x="973" >
<font-face units-per-em="2048" ascent="1475" descent="-573" />
<missing-glyph horiz-adv-x="437" />
<glyph unicode="&#xd;" horiz-adv-x="686" />
<glyph unicode=" "  horiz-adv-x="437" />
<glyph unicode="&#x09;" horiz-adv-x="437" />
<glyph unicode="&#xa0;" horiz-adv-x="437" />
<glyph unicode="!" horiz-adv-x="469" d="M160 93q0 50 24.5 80.5t69.5 30.5q26 0 47.5 -13t33.5 -36.5t12 -53.5q0 -40 -27.5 -70.5t-68.5 -30.5h-2q-36 0 -62.5 28t-26.5 65zM178 1503h123l-44 -1149h-36z" />
<glyph unicode="&#x22;" horiz-adv-x="660" d="M132 1098v486h100v-486h-100zM398 1098v486h102v-486h-102z" />
<glyph unicode="#" horiz-adv-x="1388" d="M132 522l20 88h285l64 332h-313l16 87h313l98 526h112l-97 -526h237l101 526h108l-98 -526h279l-18 -87h-278l-65 -332h302l-15 -88h-302l-96 -522h-111l100 522h-242l-100 -522h-108l99 522h-291zM552 610h237l58 332h-237z" />
<glyph unicode="$" horiz-adv-x="1159" d="M173 100l48 81q37 -30 84.5 -51.5t104.5 -34t116 -12.5q140 0 226.5 73.5t86.5 188.5q0 67 -34 123t-93 97t-146 75q-99 41 -164.5 78t-112.5 81t-68 96t-21 118q0 132 88 222.5t240 111.5v234h92v-234q157 -6 281 -85l-49 -83q-2 1 -20.5 12t-28 15.5t-31 15t-39.5 16 t-43 12t-53 9.5t-58 3q-73 0 -128.5 -21.5t-87 -56t-47 -74t-15.5 -81.5q0 -94 66 -157t228 -128q84 -35 145.5 -72t108 -84t70 -106t23.5 -131q0 -37 -9.5 -74.5t-27 -74.5t-46.5 -70.5t-66 -61t-87 -46.5t-108 -26v-230h-91v230q-95 0 -185 26.5t-149 75.5z" />
<glyph unicode="%" horiz-adv-x="1686" d="M65 1027q0 111 28.5 199t75.5 141.5t105 81.5t121 28h1q144 0 225.5 -106t81.5 -317q0 -112 -25 -200t-69.5 -142.5t-102.5 -83t-127 -28.5q-63 0 -117.5 25.5t-98 76t-69.5 134t-29 191.5zM160 1010q0 -155 61.5 -245.5t161.5 -90.5q74 0 125 43.5t76.5 126.5t25.5 202 q0 167 -55 262t-170 95h-2q-104 0 -163.5 -106.5t-59.5 -286.5zM354 0l885 1477h89l-884 -1477h-90zM983 442q0 111 28.5 199t75.5 141.5t105 81t121 27.5h2q144 0 225.5 -105.5t81.5 -316.5q0 -112 -25 -200t-69.5 -143t-102.5 -83t-127 -28q-63 0 -117.5 25.5t-98 76.5 t-70 134.5t-29.5 190.5zM1079 425q0 -155 61 -245t161 -90q112 0 169.5 95t57.5 274q0 171 -55 264.5t-170 93.5h-2q-106 0 -164 -103t-58 -289z" />
<glyph unicode="&#x26;" horiz-adv-x="1291" d="M65 413q0 288 316 439v7q-135 169 -135 319q0 67 24 129.5t67.5 113t112.5 81t152 30.5q132 0 217.5 -84t85.5 -215q0 -120 -86.5 -217t-288.5 -186v-8q306 -342 466 -496q60 81 100.5 187t69.5 289h101q-35 -199 -86 -329t-124 -204q149 -146 256 -240h-139l-178 167 q-120 -109 -237 -152.5t-252 -43.5q-90 0 -171.5 31.5t-141 85.5t-94.5 131t-35 165zM171 432q0 -103 49 -182.5t130.5 -120.5t181.5 -41h3q120 0 223.5 46.5t176.5 124.5q-250 250 -503 530q-33 -16 -65 -36.5t-68.5 -53.5t-64 -70.5t-45.5 -89t-18 -107.5zM347 1187 q0 -47 10.5 -89.5t32.5 -81.5t39.5 -64t46.5 -62q79 36 134 68.5t101.5 73t70 88.5t23.5 105q0 41 -13 79.5t-38 71t-68 52.5t-99 20h-2q-75 0 -130.5 -38t-81.5 -96.5t-26 -126.5z" />
<glyph unicode="'" horiz-adv-x="393" d="M132 1098v486h100v-486h-100z" />
<glyph unicode="(" horiz-adv-x="590" d="M149 535q0 143 20 276.5t52.5 239.5t80 206.5t94.5 175t105 148.5h86q-171 -207 -261 -462t-90 -587q0 -165 26 -311.5t77 -273t109 -229t139 -216.5h-86q-40 48 -75.5 98t-71.5 113t-65.5 129.5t-56 146t-44.5 163.5t-28.5 182t-10.5 201z" />
<glyph unicode=")" horiz-adv-x="590" d="M32 -501q82 107 142.5 212t110 232.5t75 278t25.5 319.5q0 167 -24.5 314.5t-73 274.5t-110 234t-145.5 215h88q58 -77 103 -148.5t93.5 -172.5t80.5 -203.5t53 -236.5t21 -279q0 -146 -21 -280t-52.5 -235t-81 -202.5t-93.5 -170.5t-103 -152h-88z" />
<glyph unicode="*" horiz-adv-x="1196" d="M169 1151q0 18 10.5 32.5t37.5 14.5l320 -30l4 13l-224 188q-37 25 -37 54q0 19 14.5 31.5t32.5 12.5q5 0 9.5 -1t8 -2t7.5 -3.5t6.5 -4t6.5 -5.5t5 -5.5t5.5 -6.5t5.5 -6l187 -225l13 4l-34 305q0 62 51 62q23 0 35.5 -9t12.5 -38l-31 -320l14 -4l186 225q2 2 10.5 11 t12.5 12t12 7t17 4q20 0 35 -13.5t15 -33.5q0 -12 -4.5 -20t-17.5 -19t-14 -12l-225 -188l3 -13l319 30q28 0 38.5 -14.5t10.5 -32.5q0 -51 -58 -51q-16 0 -18 1l-292 33l-3 -14l225 -186q2 -2 7 -6t7.5 -6.5l6.5 -6.5t6 -7t4.5 -7.5t3.5 -9.5t1 -10q0 -18 -13 -33.5 t-31 -15.5q-31 0 -58 35l-186 227l-14 -4l31 -324q0 -27 -13 -36.5t-35 -9.5q-23 0 -37 13t-14 50l34 307l-13 4l-187 -227q-31 -35 -57 -35q-17 0 -30.5 13t-13.5 31q0 29 37 58l224 186l-4 14l-307 -34q-36 0 -48.5 13.5t-12.5 37.5zM539 1149q0 -16 8 -29.5t20.5 -21 t27.5 -7.5q25 0 43 16.5t18 41.5q0 24 -18.5 41.5t-42.5 17.5q-22 0 -39 -17.5t-17 -41.5z" />
<glyph unicode="+" horiz-adv-x="1304" d="M88 541v88h517v537h96v-537h517v-88h-517v-541h-96v541h-517z" />
<glyph unicode="," horiz-adv-x="408" d="M88 -334q77 93 109.5 157.5t32.5 122.5q0 33 -5 54q-2 -2 -17 -2h-12q-39 0 -66 23t-27 61q0 48 31 73.5t70 25.5q114 0 114 -151q0 -104 -51.5 -208t-144.5 -190z" />
<glyph unicode="-" horiz-adv-x="791" d="M107 498v83h579v-83h-579z" />
<glyph unicode="." horiz-adv-x="395" d="M97 103q0 38 28 68.5t71 30.5q42 0 70.5 -29t28.5 -70q0 -45 -29 -74t-70 -29q-40 0 -69.5 30.5t-29.5 72.5z" />
<glyph unicode="/" horiz-adv-x="569" d="M2 0l455 1457h112l-462 -1457h-105z" />
<glyph unicode="0" d="M107 574v333q0 62 0.5 94.5t3.5 92t9.5 93t19 83.5t30.5 79t46.5 63.5t64.5 52.5t85.5 30.5t109.5 12.5q76 0 135.5 -20.5t97.5 -49t64.5 -82t40 -95t20 -116t7.5 -116.5t1 -122v-333q0 -62 -0.5 -94t-3.5 -91t-9.5 -92.5t-19 -83.5t-30.5 -79t-45.5 -63t-63.5 -52.5 t-85 -31t-109 -12.5q-77 0 -136.5 20.5t-98 49t-65.5 82t-40 95t-20 115.5t-8 115.5t-1 121.5zM202 440q0 -54 4.5 -99.5t13.5 -81t20 -64.5t26.5 -50t30.5 -37.5t34 -26.5t36 -17t37.5 -10t36.5 -4.5t35 -1.5q27 0 49 2.5t51 12t51.5 25t46 45.5t38.5 70t25 100.5t10 136.5 v600q0 76 -10 137t-25 101t-38.5 70t-45.5 45.5t-51.5 25t-51.5 12t-49 2.5q-28 0 -50.5 -2.5t-52.5 -12t-52.5 -25t-45.5 -45.5t-38.5 -70t-25 -101t-9.5 -137v-600z" />
<glyph unicode="1" d="M210 1159v97q169 118 263 228h88v-1484h-85v1405q-23 -22 -54 -52.5t-56 -55t-52.5 -50.5t-54 -49t-49.5 -39z" />
<glyph unicode="2" d="M97 0v93q77 120 185 278t178 261t138.5 213.5t102 193.5t33.5 144q0 64 -16.5 111t-42 73t-64 41.5t-73.5 20t-81 4.5q-130 0 -198 -73.5t-72 -202.5h-86q4 62 21 114.5t44 90t61 66.5t73 46t78 25.5t79 8.5q55 0 103.5 -7t99 -27t86 -52t58.5 -85.5t23 -124.5 q0 -28 -2 -52.5t-10 -54.5t-14 -51.5t-24.5 -59.5t-30.5 -62.5t-43 -75.5t-51 -83t-65.5 -101t-75.5 -114t-92 -136l-234 -349h644v-73h-732z" />
<glyph unicode="3" d="M86 327h93q6 -131 71.5 -205t198.5 -74q66 0 116 16t81.5 43.5t51.5 68t28 85.5t8 101q0 100 -13.5 166.5t-47.5 114.5t-93 69.5t-148 21.5h-47v71q6 0 17.5 -1.5t19.5 -1.5q148 0 223 85.5t75 254.5q0 143 -63 217t-203 74q-70 0 -119.5 -20t-77.5 -58t-40.5 -86.5 t-12.5 -111.5h-99q0 76 21 140t62 111t105 73.5t146 26.5q191 0 283.5 -81.5t92.5 -269.5q0 -54 -5.5 -99.5t-21.5 -92t-41 -81.5t-66 -63t-96 -42v-20q43 -6 77.5 -20.5t59.5 -34.5t44 -47.5t31 -57t19.5 -65t10 -69t2.5 -72.5q0 -201 -91 -309.5t-267 -108.5 q-190 0 -287 86t-98 266z" />
<glyph unicode="4" d="M73 381v99l462 1004h170v-1028h181v-75h-181v-381h-85v381h-547zM132 456h488v971l-20 8z" />
<glyph unicode="5" d="M126 320h95q1 -67 16 -116.5t47 -85t83.5 -53t123.5 -17.5q53 0 94.5 13t70 33.5t49.5 53t32.5 65.5t18 77.5t8.5 81t2 84.5q0 38 -1 67t-4 65t-9 62.5t-16.5 56.5t-24.5 51t-35.5 41.5t-48 32.5t-62.5 19.5t-79 7.5q-84 0 -158.5 -42t-98.5 -117h-86v784h657v-72h-571 v-626q84 81 147.5 114.5t145.5 33.5q69 0 123.5 -16.5t89.5 -41.5t60.5 -65.5t38.5 -76t20 -86.5t8 -84t1 -81q0 -59 -3 -108t-13 -102.5t-27 -95.5t-45 -81t-66.5 -64.5t-93 -41t-122.5 -15.5q-121 0 -201.5 37t-122.5 113.5t-43 194.5z" />
<glyph unicode="6" d="M109 476v500q0 80 4.5 142t16 119t30.5 98t48.5 75t69.5 55t93.5 32t121.5 11q163 0 244 -79.5t90 -239.5h-93q-6 59 -22 102.5t-44.5 76t-74 49t-107.5 16.5q-60 0 -106.5 -17.5t-76.5 -43t-51.5 -71t-32.5 -84t-16.5 -101t-6.5 -103.5t-1 -108v-188h18q19 67 70.5 114 t113 66.5t127.5 19.5q49 0 90 -10t71 -27t54.5 -41t40.5 -49.5t28 -56t18.5 -56.5t10 -55.5t4.5 -48.5t1 -38q0 -57 -1 -98.5t-5 -92.5t-11.5 -88t-20.5 -77.5t-31 -69t-44.5 -55.5t-59.5 -43t-77.5 -26t-98.5 -10q-57 0 -105 8t-84.5 21.5t-65.5 36t-49.5 47.5t-35 60 t-23 68.5t-13.5 79t-6.5 86.5t-1.5 94zM193 413q0 -18 1 -35.5t3.5 -42t7.5 -47t13 -48t20 -48.5t27 -45t36.5 -39.5t47 -31t58.5 -21t71 -7.5q42 0 77 8.5t61 22t46 36t34 44.5t23.5 54.5t15 59.5t8 64.5t3.5 65t1 66.5q0 98 -13 166.5t-43 117t-80 71t-123 22.5 q-147 0 -221 -104t-74 -329z" />
<glyph unicode="7" d="M82 1412v72h728v-120l-465 -1364h-105l492 1412h-650z" />
<glyph unicode="8" d="M100 393q0 35 1.5 65t6 61.5t12 58t19.5 52t29.5 46.5t40 39t52.5 31.5t66 22.5v20q-53 11 -92 37.5t-61.5 60t-36.5 79.5t-18.5 88.5t-4.5 94.5q0 28 1 47.5t4.5 50.5t10 53.5t19.5 51.5t30.5 49.5t45.5 42t62.5 34.5t83 21.5t105.5 8.5q72 0 129 -13.5t94 -34t63.5 -53 t40 -61.5t21.5 -69t9.5 -66t1.5 -62q0 -312 -222 -358l-3 -20q61 -13 105 -40t70 -60.5t40.5 -81.5t19.5 -92.5t5 -103.5q0 -44 -3.5 -83t-14 -82.5t-27.5 -78.5t-46 -68.5t-67 -56t-93 -36t-123 -13.5t-123.5 13.5t-94 36t-67.5 56t-46.5 68.5t-27.5 79t-13.5 82t-3.5 83z M193 376q0 -61 8 -111t28.5 -93.5t52 -73.5t81 -47t113.5 -17q78 0 134 25.5t87.5 73t45 107t13.5 136.5q0 43 -1.5 76t-8.5 73t-18.5 69.5t-32.5 59.5t-50 48.5t-72 30.5t-97 12q-55 0 -98.5 -12t-73 -30.5t-50.5 -48.5t-32.5 -59t-18.5 -70t-8.5 -73.5t-1.5 -75.5z M205 1128q0 -322 271 -322q266 0 266 322q0 76 -12.5 131.5t-41.5 99.5t-82 66.5t-130 22.5q-79 0 -133 -22.5t-83.5 -66.5t-42 -99.5t-12.5 -131.5z" />
<glyph unicode="9" d="M105 1061q0 81 9.5 144.5t34 122t64.5 97t104 61t148 22.5q61 0 109.5 -8.5t85.5 -22t65 -39.5t47.5 -51t32.5 -67t20.5 -77t11 -91.5t4.5 -100.5t1 -114v-190q0 -108 -0.5 -169t-4 -144t-10.5 -127t-19.5 -101.5t-31 -86.5t-45.5 -62t-63 -47.5t-83 -24.5t-107 -10 q-120 0 -195.5 32t-115.5 101.5t-47 184.5h97q9 -245 240 -245q55 0 96 7.5t73 28.5t53.5 43t36 68.5t22.5 86.5t12.5 115.5t5 136t0.5 166.5v85q-68 -94 -147 -138.5t-161 -44.5q-95 0 -161 28.5t-106.5 87t-58 142t-17.5 201.5zM200 1061.5q0 -43.5 2 -78.5t8.5 -76.5 t17.5 -73t30.5 -62.5t46.5 -50.5t66 -32t88 -12.5q58 0 104 15.5t75.5 38t51 57.5t32.5 65.5t17 71t7 64t1 54.5q0 56 -1 86.5t-6 78.5t-15.5 74.5t-30.5 60t-49 50.5t-73 29t-101 12q-50 0 -90 -11.5t-68 -30t-48.5 -47t-33 -59t-19.5 -70t-9.5 -75t-2.5 -79z" />
<glyph unicode=":" horiz-adv-x="567" d="M185 103q0 42 27.5 70.5t71.5 28.5q41 0 70 -29t29 -70q0 -29 -13.5 -52t-36.5 -36t-49 -13q-41 0 -70 29.5t-29 71.5zM185 732q0 41 27.5 69.5t71.5 28.5q27 0 50 -12.5t36 -35.5t13 -50q0 -43 -30 -72.5t-69 -29.5q-41 0 -70 30t-29 72z" />
<glyph unicode=";" horiz-adv-x="537" d="M152 -335q78 91 110.5 156t32.5 125q0 18 -4 52q-2 -2 -17 -2h-11q-38 0 -66 22.5t-28 59.5q0 51 30 77t70 26q114 0 114 -152q0 -105 -51 -209t-144 -189zM169 728q-3 40 24.5 69.5t75.5 29.5q41 0 70 -29t29 -70q0 -29 -13.5 -52.5t-36.5 -36t-49 -12.5 q-41 0 -70.5 29.5t-29.5 71.5z" />
<glyph unicode="&#x3c;" horiz-adv-x="1083" d="M143 463v91l852 329v-60l-807 -315l807 -315v-59z" />
<glyph unicode="=" horiz-adv-x="1083" d="M147 456v57h848v-57h-848zM147 857v60h848v-60h-848z" />
<glyph unicode="&#x3e;" horiz-adv-x="1083" d="M143 132v61l816 322l-816 307v59l865 -327v-76z" />
<glyph unicode="?" horiz-adv-x="885" d="M109 1196q0 100 51 177.5t133.5 118t179.5 40.5q119 0 202 -53t122.5 -145t39.5 -217q0 -37 -6 -69.5t-22.5 -65.5t-30.5 -57t-45 -60.5t-51 -58.5t-62 -66q-2 -3 -3.5 -4.5l-4 -4l-4.5 -4.5q-33 -35 -46.5 -50t-33 -40t-26.5 -45t-7 -41q0 -12 3 -14v-159h-94v159 q0 65 39 124.5t121 140.5q60 55 98 103.5t60 102t22 109.5q0 73 -14.5 132t-45.5 105t-84.5 71t-126.5 25q-50 0 -98 -19t-86 -52t-61 -81t-23 -102q0 -45 15 -90t49.5 -79t81.5 -34q60 0 87 30t27 107q0 41 -9 92h44q30 -68 30 -132q0 -84 -45 -129.5t-134 -45.5 q-72 0 -128.5 41t-85 104.5t-28.5 135.5zM356 105q0 25 11.5 45.5t33 32.5t48.5 12q38 0 59.5 -25t21.5 -65q0 -36 -21.5 -60t-59.5 -24q-27 0 -48.5 11t-33 29.5t-11.5 43.5z" />
<glyph unicode="@" horiz-adv-x="1677" d="M83 703q0 131 35.5 253t106 226t168.5 181.5t230.5 121t283.5 43.5q155 0 285 -52.5t218 -144t136.5 -215t48.5 -264.5q0 -110 -33.5 -202.5t-88.5 -151t-123.5 -90.5t-139.5 -32q-67 0 -114.5 48t-47.5 142v29h-9q-68 -111 -151 -165t-205 -54q-37 0 -74 13t-68.5 38 t-56 59t-38.5 78.5t-14 92.5q0 107 43.5 203t116 164t171 108t205.5 40q133 0 254 -47l-77 -366q-17 -68 -17 -147q0 -146 101 -153h8q46 0 91 27t81.5 74.5t59.5 120.5t23 158q0 131 -41.5 242.5t-117 193t-190 127.5t-253.5 46q-145 0 -273 -52t-223.5 -145t-151 -231.5 t-55.5 -302.5q0 -111 30.5 -210t86 -175t130 -132t166 -85t191.5 -29q228 0 366 89l36 -82q-177 -93 -408 -93q-140 0 -268.5 52.5t-224 143.5t-152.5 223.5t-57 283.5zM530 656q0 -53 20 -96.5t64.5 -73t107.5 -29.5q50 0 99.5 23.5t88.5 62t72 86t54 95.5t30 91l49 246 q-87 29 -161 29q-84 0 -161.5 -32.5t-135.5 -89.5t-92.5 -138.5t-34.5 -173.5z" />
<glyph unicode="A" horiz-adv-x="1216" d="M49 0l477 1501h128l468 -1501h-97l-122 406h-642l-124 -406h-88zM288 478h590l-293 974z" />
<glyph unicode="B" horiz-adv-x="1095" d="M162 0v1501h407q174 0 258 -80.5t84 -265.5q0 -59 -4.5 -100.5t-18 -84t-37.5 -71.5t-64 -54t-97 -40l1 -41q60 -14 104 -38.5t72 -55.5t45 -73t23.5 -87t6.5 -102q0 -201 -92 -304.5t-276 -103.5h-412zM251 71h242q93 0 158 16.5t110.5 54.5t67 100.5t21.5 153.5 q0 49 -6.5 92.5t-25.5 92.5t-50 83t-86 57t-128 23h-303v-673zM251 813h286q54 0 97 11.5t74 33.5t52.5 51t34.5 67t19 79t6 90q0 46 -6 84t-15 66t-25 49.5t-30.5 35.5t-36.5 24t-38.5 15t-42.5 8t-41 3.5t-40 0.5h-294v-618z" />
<glyph unicode="C" horiz-adv-x="1095" d="M135 749q0 85 0.5 135t5 127t12.5 123t23.5 107.5t37.5 98t56 77.5t77.5 62.5t102.5 36t131 14.5q69 0 124.5 -15.5t92 -39t63.5 -59.5t41.5 -70t22.5 -77t10 -74t2 -67h-90q-10 331 -266 331q-51 0 -93.5 -7.5t-75.5 -26t-59 -38.5t-44.5 -56t-32 -66.5t-22 -82.5 t-13.5 -91t-7.5 -105.5t-3 -112.5t-0.5 -124q0 -77 0.5 -123t3 -112t7.5 -104.5t13.5 -90.5t22 -82.5t32 -66.5t44.5 -56t59 -38.5t75.5 -26t93.5 -7.5q67 0 118 26.5t82.5 75t47.5 112t18 142.5h104q-1 -25 -3.5 -49.5t-8.5 -57.5t-14.5 -62.5t-23.5 -62.5t-34.5 -60.5 t-47.5 -53t-62 -43t-79 -28t-97 -10.5q-65 0 -119.5 10t-96 33t-75 48t-57 67.5t-40.5 78t-27.5 93.5t-17 100.5t-9.5 112t-3.5 114.5t-0.5 121z" />
<glyph unicode="D" horiz-adv-x="1216" d="M173 0v1501h388q62 0 113.5 -7t93.5 -22.5t75.5 -36t59.5 -53t44.5 -67t32 -83.5t22 -97.5t13 -114.5t6.5 -129.5t2 -146.5q0 -88 -3 -157t-11 -137.5t-21 -120t-33.5 -100t-49.5 -83.5t-67 -63.5t-86.5 -46t-109.5 -27t-135 -9.5h-334zM266 71h190q67 0 118 3.5t96.5 14 t78.5 24.5t61 40.5t46.5 56t33 77.5t22.5 97.5t13.5 123.5t7 149t1.5 180q0 91 -3.5 158t-13 129t-24.5 104t-40.5 78.5t-59.5 58.5t-82 37.5t-106.5 22t-135.5 6.5h-203v-1360z" />
<glyph unicode="E" d="M175 0v1501h655v-70h-564v-625h539v-71h-539v-664h581v-71h-672z" />
<glyph unicode="F" horiz-adv-x="851" d="M162 0v1501h607v-70h-518v-625h481v-71h-481v-735h-89z" />
<glyph unicode="G" horiz-adv-x="1216" d="M143 629v244q0 73 2.5 128t13 127.5t28 125t51 107.5t79.5 90t115 57t155 22q211 0 315 -90t104 -289h-91q-6 157 -82.5 232.5t-245.5 75.5q-57 0 -103.5 -11t-81.5 -28t-61.5 -51t-44 -63.5t-29.5 -83t-18.5 -92.5t-9.5 -109t-4 -115.5t-1 -127.5v-94q0 -65 1 -108.5 t3.5 -99.5t8 -93.5t14.5 -83t23 -75.5t33 -62t45 -51.5t58.5 -36.5t74.5 -24.5t92 -7.5q176 0 311 49v600h-311v71h404v-733q-206 -58 -404 -58q-86 0 -155 22t-115 57t-79.5 90t-51 107.5t-28 125t-13 128t-2.5 128.5z" />
<glyph unicode="H" horiz-adv-x="1216" d="M166 0v1501h95v-695h654v695h91v-1501h-91v735h-654v-735h-95z" />
<glyph unicode="I" horiz-adv-x="485" d="M188 0v1501h92v-1501h-92z" />
<glyph unicode="J" d="M63 393h93q0 -60 5 -105.5t21 -94t43 -80t74.5 -51.5t112.5 -20q53 0 97.5 14.5t82.5 46.5t59.5 90t21.5 139v1169h89v-1191q0 -54 -11 -100.5t-28 -79t-43 -59t-50.5 -42.5t-55.5 -28t-53.5 -17.5t-49 -8.5t-37.5 -3.5t-24 -0.5q-64 0 -116 12.5t-87.5 33.5t-62 53.5 t-42 67t-24.5 79.5t-12 85.5t-3 90.5z" />
<glyph unicode="K" horiz-adv-x="1095" d="M181 0v1501h93v-1501h-93zM274 754v88l35 -47zM309 795l550 706h107l-570 -699l589 -802h-114z" />
<glyph unicode="L" horiz-adv-x="851" d="M160 0v1501h89v-1430h513v-71h-602z" />
<glyph unicode="M" horiz-adv-x="1704" d="M173 0v1501h181l475 -1452l472 1452h170v-1501h-84v1398l-42 7l-455 -1405h-126l-463 1405l-47 -7v-1398h-81z" />
<glyph unicode="N" horiz-adv-x="1338" d="M185 0v1501h142l651 -1352l44 -78v1430h83v-1501h-137l-656 1369l-43 98v-1467h-84z" />
<glyph unicode="O" horiz-adv-x="1216" d="M143 749q0 87 1 135.5t5 126.5t12 123t23 107.5t37 98.5t56 77t77 62.5t102 36t131 14.5t131 -14.5t102 -36t76.5 -63t55.5 -77t37.5 -98.5t23 -107.5t11.5 -123t5 -126t0 -135.5q0 -87 -0.5 -134.5t-4.5 -125.5t-11.5 -122.5t-23 -107t-37.5 -98t-55.5 -77t-76.5 -63 t-102 -36t-131 -14.5t-131 14.5t-102 36t-77 62.5t-56 77t-37 98.5t-23 107t-12 122t-5 126t-1 134.5zM234 749q0 -88 1 -136.5t4 -122t9.5 -113.5t18.5 -95.5t29.5 -85t44 -64t61.5 -51t81.5 -28t103.5 -11.5q202 0 280 135q59 103 68 342q2 69 2 230v4q0 92 -0.5 136.5 t-3.5 121.5t-9 114.5t-17.5 95t-29 85t-44 63.5t-61 51.5t-81 27t-104 11.5t-104 -11t-81.5 -28t-61.5 -51.5t-44 -64.5t-29.5 -85t-18.5 -95.5t-9.5 -114.5t-4 -122.5t-1 -137.5z" />
<glyph unicode="P" d="M152 0v1501h402q31 0 55 -1.5t59.5 -9.5t61.5 -21.5t54.5 -39.5t46.5 -62t30 -91.5t12 -124.5q0 -227 -79.5 -330t-265.5 -103h-282v-718h-94zM246 789h276q61 0 106 16t80 53t53 103.5t18 160.5q0 60 -7.5 107t-20 79t-32.5 55t-40.5 36t-49 20t-52.5 9.5t-57 2.5h-274 v-642z" />
<glyph unicode="Q" horiz-adv-x="1216" d="M143 749v124q0 75 2.5 128.5t12 127t27 125t50 107.5t78.5 90t115.5 56.5t156.5 22.5q69 0 126.5 -13.5t100 -35.5t76.5 -57.5t56.5 -72t38.5 -86.5t25 -93t14 -100.5t6 -100t1 -98.5v-124q0 -126 -5.5 -212.5t-19.5 -161t-39.5 -127t-64 -95t-95.5 -79.5 q43 0 159.5 -1.5t163.5 -1.5v-71h-271q-34 0 -98 -5t-105 -5q-283 0 -397 127q-86 97 -105 308q-9 96 -9 324zM234 778q0 -101 2 -169.5t7.5 -144.5t16 -125t28 -99t43.5 -79.5t62 -54t83.5 -35t108.5 -10.5q66 0 117.5 17.5t88.5 47.5t63.5 79t42 103t25 128.5t12.5 146.5 t3 166v28v127t-3 115t-9.5 110t-18 92.5t-29 83.5t-44 63.5t-61.5 51.5t-82 27.5t-105 11.5q-56 0 -102.5 -11t-80.5 -28t-60.5 -50.5t-44.5 -64t-30 -83t-18.5 -92.5t-9.5 -108.5t-4 -115.5t-1 -128z" />
<glyph unicode="R" horiz-adv-x="1095" d="M162 0v1501h404q105 0 172 -18t106.5 -61t55.5 -106t15 -161q0 -51 -3 -88t-12 -74.5t-25 -64.5t-41.5 -52t-62.5 -42t-87 -29v-41q35 -8 56.5 -13.5t45.5 -16.5t37 -19.5t27.5 -30t21 -40t14 -56t9.5 -72t4.5 -95t3 -117t0.5 -146.5q0 -69 8 -114l6 -44h-88 q-8 49 -13.5 169t-5.5 195v70q0 30 -2 55t-8.5 58t-18 59.5t-32.5 53.5t-49.5 45.5t-71.5 30t-96 11.5h-281v-747h-89zM251 820h247q70 0 119 8t90 30t65 59.5t37 96t13 141.5q0 68 -11.5 116.5t-31.5 79.5t-54 48.5t-73.5 24.5t-95.5 7h-305v-611z" />
<glyph unicode="S" horiz-adv-x="1095" d="M132 391h98q0 -43 2.5 -75.5t10 -70.5t20.5 -66t36.5 -55t56 -44t79.5 -27.5t106 -10.5q289 0 289 295q0 58 -14 104.5t-32 77.5t-61 67.5t-74.5 57t-98.5 62.5q-16 9 -24 14l-70 44q-94 59 -154.5 112t-91.5 103.5t-42.5 94.5t-11.5 100q0 356 396 356q85 0 149 -20 t103.5 -53.5t65 -83t36 -101.5t12.5 -117h-95q-3 60 -11.5 104t-28 83.5t-50 64t-78.5 38.5t-114 14q-72 0 -124 -12.5t-91 -42.5t-58.5 -81.5t-19.5 -126.5q0 -35 3 -64t10.5 -53.5t14.5 -43t22.5 -36.5t26 -29.5t33 -28t36.5 -25.5t43 -27q3 -2 5 -3v2l105 -71 q26 -17 61.5 -39t61.5 -37.5t57 -35.5t53.5 -38.5t46.5 -42t40 -50t29.5 -58.5t19.5 -71t6 -84q0 -390 -390 -390q-201 0 -300.5 108.5t-99.5 311.5z" />
<glyph unicode="T" d="M46 1431v70h845v-70h-376v-1431h-93v1431h-376z" />
<glyph unicode="U" horiz-adv-x="1216" d="M158 452v1049h90v-949q0 -48 0.5 -74t3.5 -75t8.5 -78t17.5 -72t28.5 -69t42.5 -56t59 -47t78.5 -28t100.5 -11t100.5 11t78.5 28t58.5 47t42 56t28 69t17.5 72t9 78t3 75v74v949h94v-1049q0 -111 -23.5 -196t-62 -138.5t-95 -87t-117 -46.5t-133.5 -13q-429 0 -429 481z " />
<glyph unicode="V" horiz-adv-x="1095" d="M42 1501h95l387 -1452l403 1452h86l-430 -1501h-114z" />
<glyph unicode="W" horiz-adv-x="1825" d="M39 1501h96l332 -1442l21 85l317 1357h147l329 -1436l352 1436h88l-372 -1501h-144l-322 1471h-12l-336 -1471h-135z" />
<glyph unicode="X" horiz-adv-x="1095" d="M48 0l406 776l-372 725h96l344 -672l352 672h92l-385 -725l424 -776h-112l-378 734l-371 -734h-96z" />
<glyph unicode="Y" horiz-adv-x="1095" d="M56 1501h106l366 -798l383 798h87l-427 -876v-625h-91v625z" />
<glyph unicode="Z" d="M68 0v122l721 1309h-680v70h754v-125l-716 -1305h724v-71h-803z" />
<glyph unicode="[" horiz-adv-x="590" d="M196 -513v2013h406v-63h-328v-1891h328v-59h-406z" />
<glyph unicode="\" horiz-adv-x="569" d="M2 1457h112l455 -1457h-104z" />
<glyph unicode="]" horiz-adv-x="590" d="M-12 -454h330v1891h-330v63h407v-2013h-407v59z" />
<glyph unicode="^" horiz-adv-x="1304" d="M152 456l450 994h101l449 -994h-102l-394 896h-4l-395 -896h-105z" />
<glyph unicode="_" horiz-adv-x="1095" d="M0 -137h1096v-111h-1096v111z" />
<glyph unicode="`" horiz-adv-x="656" d="M63 1544h162l200 -307h-84z" />
<glyph unicode="a" d="M93 282q0 66 17.5 118t42.5 86t69.5 59.5t81.5 38.5t96.5 22t96 11.5t98.5 5.5l112 4v115q0 69 -11 118.5t-38 88t-75.5 57.5t-119.5 19q-98 0 -164.5 -50.5t-77.5 -142.5h-92q7 65 37 114.5t77.5 78.5t105.5 43.5t124 14.5q22 0 39.5 -0.5t44 -3.5t47.5 -8.5t46.5 -15 t44.5 -23t38.5 -34.5t31.5 -46.5t20 -61t8 -77.5v-556v-33.5v-34t0.5 -30.5t1 -35.5t2 -35t4 -43t5.5 -45.5h-88v187q-32 -71 -88.5 -120t-120 -70.5t-131.5 -21.5q-136 0 -210.5 83.5t-74.5 223.5zM188 290q0 -109 57 -180t165 -71q48 0 95.5 22.5t82.5 58t63 76.5t42 79.5 t14 65.5v218h-105q-47 0 -83 -2t-81.5 -8t-78.5 -17t-67 -31t-55.5 -47.5t-35 -69.5t-13.5 -94z" />
<glyph unicode="b" d="M143 0q6 33 6 86v1452h85v-692q15 48 34 85.5t37.5 62.5t43.5 42t45 26t49 14t48.5 6t49.5 1q60 0 108 -16t79.5 -41.5t55 -65t36 -77.5t19.5 -88.5t9 -89t2 -88.5v-87q0 -46 -1 -81.5t-5 -83t-10 -84t-18 -79t-28 -73.5t-40 -61.5t-54.5 -49.5t-71.5 -31t-90 -12 q-46 0 -91 11t-87.5 32.5t-75.5 59.5t-48 88q0 -19 -2.5 -81.5t-2.5 -84.5h-82zM244 547q0 -34 0.5 -60t2.5 -64t6 -68t10 -67t16 -65.5t23 -58.5t32 -51t41.5 -39t52.5 -26.5t65 -8.5q56 0 98.5 13.5t71 34t48 59.5t30 73t16 92.5t6.5 101t1 113.5q0 72 -1 115.5t-6.5 103 t-16 94.5t-30 75t-48 61t-71.5 35.5t-98 14.5q-51 0 -91.5 -22.5t-67 -62.5t-45 -87.5t-28 -104t-13.5 -104.5t-4 -97z" />
<glyph unicode="c" horiz-adv-x="851" d="M97 526v19q0 73 1 111t7.5 105t18.5 104t37 84.5t61 72.5t91 43t127 18q287 0 287 -294h-87q0 114 -50.5 175t-167.5 61q-44 0 -79.5 -14t-59.5 -36t-42 -56t-28 -68.5t-15.5 -79t-7.5 -81t-2 -80.5v-122q0 -44 1.5 -79t5 -78t10.5 -76t18 -68.5t28.5 -60.5t40 -45.5 t54 -31t69.5 -10.5q54 0 93.5 13t63 33.5t38.5 54t21.5 65.5t10.5 77h86q-3 -72 -24.5 -128.5t-51.5 -89t-69 -53.5t-71.5 -28.5t-62.5 -7.5q-73 0 -130 18.5t-93.5 43.5t-62 74t-38.5 86.5t-19.5 106t-7.5 108t-1 114.5z" />
<glyph unicode="d" d="M103 530q0 60 0.5 96.5t7 101.5t18 107t35 93.5t56.5 82t84.5 51.5t117.5 21q40 0 78.5 -7.5t80.5 -25.5t76 -54.5t53 -88.5q0 95 3.5 314t3.5 317h85v-1342q0 -138 8 -196h-78l-5 187q-12 -39 -32 -71t-44 -55t-52 -40t-58.5 -26.5t-60.5 -14.5t-61 -5q-48 0 -89 11.5 t-71.5 30t-54.5 48t-40 60t-27.5 72.5t-18 78.5t-10 84.5t-4.5 84.5t-1 85.5zM188 526q0 -91 7 -162.5t19 -122t31 -86.5t39.5 -57.5t49 -33.5t55.5 -16t63 -4q54 0 99.5 20.5t82.5 64t58 121t21 182.5v19q0 59 -0.5 90t-3 87.5t-6.5 88t-13 79t-22 75t-33.5 59.5t-46 49 t-61.5 29t-79 12q-38 0 -69.5 -6t-56 -20t-43.5 -28.5t-33 -41t-24 -48t-16 -58.5t-10 -63.5t-5.5 -72t-2 -75t-0.5 -81.5z" />
<glyph unicode="e" d="M117 368v272q0 229 89 336t270 107q57 0 103.5 -9.5t81.5 -24.5t61.5 -42.5t44.5 -53.5t30.5 -68.5t19.5 -76.5t10.5 -88t4 -93t0.5 -101h-630v-107q0 -55 6.5 -104t24.5 -101.5t47.5 -89.5t79.5 -61t116 -24q127 0 193.5 67t72.5 185h88q-5 -69 -24.5 -122.5t-50 -90 t-74 -59.5t-94 -33.5t-111.5 -10.5q-359 0 -359 393zM202 587h545q0 88 -6.5 151.5t-24 120t-47.5 91.5t-78.5 55t-114.5 20q-67 0 -116 -20t-79.5 -55t-48 -91.5t-24 -120t-6.5 -151.5z" />
<glyph unicode="f" horiz-adv-x="608" d="M57 1003v61h177v207q0 26 1.5 46.5t7.5 50.5t16 53t29.5 48t46.5 41t68 26.5t92 10.5l50 -3v-71h-74q-22 0 -41 -3t-33 -10.5t-25.5 -15.5t-19 -20.5l-13.5 -22.5t-9.5 -26t-5.5 -26.5t-3 -27t-1 -25v-23.5v-209h224v-61h-224v-1003h-86v1003h-177z" />
<glyph unicode="g" d="M103 510q0 181 4.5 230.5t27.5 142.5q4 16 14 37t33.5 51t54 54t80 41t108.5 17q41 0 84.5 -11t85.5 -32.5t77 -58.5t55 -83v168h79q-4 -30 -4 -90v-1037q0 -61 -6.5 -108.5t-22.5 -90t-43 -72.5t-67.5 -52t-97.5 -32.5t-131 -10.5q-68 0 -122.5 17t-87 44t-53.5 62.5 t-29 69t-8 68.5h85q2 -96 65.5 -149.5t164.5 -53.5q51 0 89 5t66 21t47.5 29.5t32 48.5t19.5 58t10 77.5t3.5 88.5t0.5 108v4v129q-15 -48 -42 -83.5t-56 -55t-66.5 -31t-67 -14.5t-63.5 -3q-49 0 -90 9.5t-71.5 25.5t-54.5 41.5t-40.5 52.5t-28.5 64t-18.5 70t-10 76.5 t-4.5 78t-1 79.5zM188 556q0 -54 0.5 -81.5t2.5 -76.5t6.5 -75.5t13.5 -66t22 -61.5t33 -48t45.5 -39t60.5 -22.5t77 -9.5q80 0 141 42.5t83 91.5q26 66 34 149t8 324q0 90 -23 158t-62.5 106t-86 56.5t-99.5 18.5q-52 0 -93 -17.5t-67.5 -43.5t-45.5 -69t-28.5 -79 t-14.5 -89.5t-6 -85.5t-1 -82z" />
<glyph unicode="h" d="M144 0v1538h86v-662q9 35 24 64t34 50t42.5 37.5t47.5 26.5t50.5 17t50 9.5t47.5 2.5q53 0 95.5 -11.5t71 -29.5t49.5 -45t33 -54t19 -61.5t9 -62t2 -60.5v-759h-87v751q0 55 -12 102t-37.5 85t-70.5 60t-105 22q-51 0 -96.5 -22t-83.5 -66t-60.5 -118.5t-22.5 -171.5 v-642h-86z" />
<glyph unicode="i" horiz-adv-x="485" d="M178 1418v120h12l105 -120h-117zM190 0v1094h94v-1094h-94z" />
<glyph unicode="j" horiz-adv-x="485" d="M27 -356q15 -5 38 -5q41 0 66.5 8.5t40 20.5t21.5 42t8 55t1 79v1252h93v-1321q0 -26 -4 -51t-17 -53.5t-33.5 -49t-57 -34.5t-83.5 -14q-58 0 -73 2v69zM190 1418v120h115v-120h-115z" />
<glyph unicode="k" horiz-adv-x="851" d="M149 0v1538h85v-1010l5 4q-5 -351 -5 -532h-85zM239 532v122l41 -66zM280 588l376 476h93l-371 -473l401 -591h-110z" />
<glyph unicode="l" horiz-adv-x="485" d="M195 0v1538h85v-1538h-85z" />
<glyph unicode="m" horiz-adv-x="1460" d="M135 0v1066h73v-193q20 65 68 114t106.5 72.5t117.5 23.5q81 0 147 -53.5t98 -155.5q12 60 41 102.5t69 64.5t81 32t87 10q124 0 192.5 -76.5t72.5 -204.5v-802h-85v769q0 48 -10.5 90.5t-32 79.5t-60.5 59t-92 22q-45 0 -83 -14.5t-65 -39.5t-47.5 -57t-32.5 -70.5 t-18 -77.5t-6 -78v-683h-85v769q-16 251 -195 251q-53 0 -96.5 -20.5t-72.5 -54t-48.5 -78t-28.5 -90.5t-9 -94v-683h-86z" />
<glyph unicode="n" d="M144 0v1064h86v-188q15 58 48 100t75.5 64.5t85.5 32.5t87 10q53 0 95.5 -11.5t71 -29.5t49.5 -45t33 -54t19 -61.5t9 -62t2 -60.5v-759h-87v751q0 56 -12 102.5t-37.5 85.5t-70.5 61t-105 22q-40 0 -77.5 -15t-71.5 -47t-59 -77.5t-40 -110.5t-15 -143v-629h-86z" />
<glyph unicode="o" d="M117 412v240q0 209 88.5 320t270.5 111q180 0 268 -111t88 -320v-240q0 -139 -37.5 -235.5t-118 -149t-200.5 -52.5q-182 0 -270.5 113t-88.5 324zM202 530q0 -70 3 -122.5t10 -105.5t19.5 -91t33 -71.5t49.5 -54t68.5 -32t90.5 -11.5q50 0 89.5 11.5t68 32t48.5 54 t32.5 71.5t20 91t10 105.5t2.5 122.5t-2.5 123.5t-10 107t-20 91.5t-32.5 72t-48.5 54t-68 32t-89.5 12q-51 0 -90.5 -12t-68.5 -32t-49.5 -54t-33 -72t-20 -91.5t-10 -107t-2.5 -123.5z" />
<glyph unicode="p" d="M149 -419v1483h81v-188q17 49 46 87t60 60t67.5 36t66 19t56.5 5q67 0 119.5 -17t86 -41.5t57.5 -65.5t35 -74t17.5 -83t7.5 -76t1 -69v-245q0 -106 -19 -184.5t-60 -136t-110.5 -87t-167.5 -29.5q-27 0 -53 4t-57.5 17t-57.5 34t-49.5 58.5t-36.5 86.5q0 -86 -2.5 -294 t-2.5 -300h-85zM240 434q0 -79 13 -144t36.5 -110t55.5 -76t69 -45.5t79 -14.5q50 0 89.5 11.5t68 31.5t48.5 53.5t32.5 71t20 90.5t10 105.5t2.5 122.5t-2.5 122.5t-10 106t-20 91.5t-32.5 72t-48.5 54t-68 32t-89.5 12q-31 0 -63.5 -12.5t-67 -41.5t-61.5 -72.5 t-44 -111.5t-17 -152v-196z" />
<glyph unicode="q" d="M100 439v89q0 60 1.5 105.5t9 106.5t20 106t36.5 92t57 77t83 49t112 19q46 0 88.5 -8.5t84.5 -27t76 -53.5t52 -83q0 20 3.5 75t3.5 78h81q-6 -37 -6 -88v-1395h-85v594q-39 -200 -311 -200q-60 0 -108 16.5t-79.5 41.5t-54.5 64t-35 76.5t-19 88.5t-8.5 89t-1.5 88z M185 547q0 -56 0.5 -88t5.5 -92t14.5 -98t29 -85.5t46.5 -75t70 -47t97 -19.5q44 0 79.5 9t62 22t46.5 39.5t33 48t22 61.5t13.5 66.5t7 76.5t3 78t0.5 83q0 57 -0.5 85.5t-3 79t-7 78t-13.5 68t-22 63t-33 49.5t-46.5 40.5t-62 23t-79.5 9.5q-263 0 -263 -475z" />
<glyph unicode="r" horiz-adv-x="608" d="M158 0v1064h86v-183q21 46 56 84t76.5 62.5t86.5 39t89 16.5v-87q-146 0 -227 -78t-81 -228v-690h-86z" />
<glyph unicode="s" horiz-adv-x="851" d="M109 282h87q3 -60 13.5 -102.5t35 -78.5t69 -53.5t109.5 -17.5q109 0 160.5 55.5t51.5 163.5q0 50 -17.5 90t-46.5 68.5t-66 52.5t-78.5 44.5t-83 41.5t-79 47.5t-66.5 58t-46 77.5t-17 101q0 69 23 118.5t66.5 78.5t99 42.5t125.5 13.5q69 0 120.5 -21.5t81.5 -60 t45.5 -85.5t18.5 -106h-85q-6 111 -53.5 163t-163.5 52q-84 0 -138 -50.5t-54 -132.5q0 -46 17.5 -83.5t46 -64.5t66 -50.5t79 -44.5t82.5 -42.5t78.5 -49t66.5 -60t46 -78.5t17 -103q0 -143 -78.5 -217t-226.5 -74q-109 0 -176.5 33.5t-98.5 100.5t-31 173z" />
<glyph unicode="t" horiz-adv-x="608" d="M49 1003v61h180v236l83 34v-270h225v-61h-225v-737q0 -51 2 -82t11 -56t20 -36.5t36.5 -19.5t52.5 -9.5t76 -1.5q18 0 27 4v-65q-15 -4 -39 -4q-106 0 -163 17.5t-81.5 58t-24.5 115.5v816h-180z" />
<glyph unicode="u" d="M152 303v761h87v-740v-2q1 -7 -0.5 -25t3 -43.5t10.5 -53.5t22 -56t37 -50t57 -36t80 -14q55 0 101 21t75 53t49.5 71t28.5 74t8 63v738h85v-1064h-65v164q-26 -53 -62 -91t-78 -58.5t-83 -30t-85 -9.5q-52 0 -94 12.5t-71 35.5t-49.5 52.5t-32.5 67.5t-17.5 77t-5.5 83z " />
<glyph unicode="v" horiz-adv-x="851" d="M42 1064h92l285 -1008l294 1008h76l-316 -1064h-112z" />
<glyph unicode="w" horiz-adv-x="1460" d="M32 1064h94l257 -1005l21 -2l243 1007h127l255 -1008l23 1l257 1007h82l-291 -1064h-126l-254 978h-20l-244 -978h-129z" />
<glyph unicode="x" horiz-adv-x="851" d="M56 0l310 568l-263 496h105l215 -451l236 451h90l-286 -496l315 -568h-105l-260 508l-269 -508h-88z" />
<glyph unicode="y" horiz-adv-x="851" d="M42 1064h92l289 -974l284 974h82l-448 -1483h-80l124 392z" />
<glyph unicode="z" horiz-adv-x="729" d="M76 0v78l476 925h-451v61h524v-83l-467 -922h477v-59h-559z" />
<glyph unicode="{" horiz-adv-x="590" d="M48 617v81h13q46 0 80 10t53 25.5t31 39t15.5 45.5t3.5 49q0 63 -24 186t-24 186q0 75 24.5 131.5t70 91t105.5 51.5t134 17h29v-83h-42q-120 0 -171 -55t-51 -167q0 -55 22 -170.5t22 -176.5q0 -78 -38.5 -136t-100.5 -81v-4q60 -18 99.5 -80.5t39.5 -139.5 q0 -58 -22 -173.5t-22 -175.5q0 -223 222 -223h42v-84h-29q-73 0 -132 17.5t-105.5 54t-71.5 99t-25 145.5q0 61 24 178t24 173q0 169 -188 169h-8z" />
<glyph unicode="|" horiz-adv-x="93" d="M0 -613v2299h93v-2299h-93z" />
<glyph unicode="}" horiz-adv-x="590" d="M32 -135h42q221 0 221 223q0 60 -22 175.5t-22 173.5q0 78 39 140t103 80v4q-64 22 -103 80.5t-39 136.5q0 61 22 176.5t22 170.5q0 112 -50.5 167t-170.5 55h-42v83h29q59 0 109 -10.5t91.5 -33t71 -56.5t46 -82.5t16.5 -108.5q0 -65 -23 -188t-23 -184q0 -23 2.5 -41 t8.5 -38.5t19 -35.5t32.5 -28t49.5 -19.5t69 -6.5h14v-81h-9q-39 0 -70 -7t-51 -20.5t-33.5 -29t-20 -36t-9 -38t-2.5 -38.5q0 -56 23 -173t23 -178q0 -83 -25.5 -145.5t-71.5 -99t-105 -54t-132 -17.5h-29v84z" />
<glyph unicode="~" horiz-adv-x="1304" d="M91 345v21q0 125 71 199t173 74q53 0 104 -16.5t176 -67.5q9 -4 14.5 -6t14 -5.5t15.5 -6.5q8 -3 25 -11q71 -30 108.5 -44.5t91.5 -28.5t99 -14q50 0 82.5 21.5t48.5 64.5t16 110h83q0 -4 1.5 -12.5t1.5 -12.5q0 -70 -21 -124t-56.5 -84.5t-76 -45.5t-84.5 -15 q-59 0 -133.5 21t-204.5 78q-13 5 -63.5 28.5t-67.5 30.5t-54 20.5t-64 17.5t-56 4q-157 0 -157 -196h-87z" />
<glyph unicode="&#xa4;" horiz-adv-x="1159" d="M103 74l141 139q-40 34 -66.5 109.5t-26.5 155.5q0 88 27 160.5t73 122.5l-148 140l68 67l141 -148q54 43 123.5 69t143.5 26h2q80 0 150 -26t115 -69l157 148l66 -65l-162 -142q39 -45 63.5 -116.5t24.5 -144.5q0 -89 -24.5 -165t-59.5 -112l150 -149l-68 -70l-147 156 q-51 -50 -123.5 -73.5t-151.5 -23.5q-75 0 -144 23t-118 61l-143 -143zM251 484q0 -73 21.5 -132t54.5 -96t76 -62.5t84.5 -36t81.5 -10.5q46 0 89 10t87 35t76 63.5t52 101t20 141.5q0 43 -11 88t-36.5 88.5t-62 77.5t-91.5 54.5t-121 20.5h-2q-75 0 -136.5 -29.5 t-100.5 -79t-60 -110t-21 -124.5z" />
<glyph unicode="&#xa6;" horiz-adv-x="481" d="M215 361h80v-906h-80v906zM215 673v905h80v-905h-80z" />
<glyph unicode="&#xa7;" horiz-adv-x="940" d="M76 629q0 67 16 122.5t39 91t57 64t62 43.5t62 28q-70 50 -97.5 107t-27.5 144q0 52 11.5 94.5t32 71t46 50t56.5 33t61.5 17t62.5 5.5q59 0 105.5 -18t83.5 -57t56.5 -107t19.5 -161v-12h-70q0 77 -14 129.5t-41 81t-61 40.5t-80 12q-7 0 -13 -0.5l-18 -1.5t-23 -4 t-25.5 -7t-26.5 -12t-25 -17.5t-23 -24t-18.5 -32t-13 -41t-4.5 -50.5q0 -20 1.5 -36.5t7 -32t9.5 -27t15.5 -24t18.5 -21t25.5 -21t29.5 -19.5t36 -20.5t40.5 -21.5t47.5 -24q43 -21 67 -34q54 -27 94 -52.5t77 -60t59.5 -72.5t36 -89t13.5 -112q0 -68 -16 -126 t-39.5 -95.5t-56.5 -68t-60.5 -46.5t-58.5 -28q122 -70 122 -241q0 -60 -16.5 -112t-49 -93.5t-86.5 -65.5t-124 -24q-50 0 -92 12t-71 32.5t-51.5 50t-36 61t-22.5 69.5t-12 72t-3 71h77q0 -22 1.5 -43t7 -50t14.5 -53.5t25 -49.5t37.5 -42.5t54 -28.5t71.5 -11q25 0 49 5 t46.5 15t40.5 26.5t32 38t21.5 51t7.5 64.5q0 26 -4 48t-12.5 40t-19 32.5t-26.5 27.5t-31.5 23.5t-37.5 22t-41 21t-46.5 23t-49.5 25.5q-81 40 -137.5 81t-96.5 92t-59 113t-19 139zM162 632q0 -49 7.5 -87.5t26.5 -73t45 -61.5t70 -56.5t93 -55t122 -59.5 q45 14 81.5 35.5t60 43.5t40.5 49.5t26 50.5t14.5 49t6.5 42.5t1 34.5q0 37 -4 67t-15.5 57t-25.5 48.5t-39 43.5t-50 39t-65.5 38.5t-77.5 39.5t-94 43q-22 -4 -43 -10.5t-43.5 -18.5t-42 -28t-37.5 -39t-30.5 -50t-19.5 -63.5t-7 -78.5z" />
<glyph unicode="&#xa9;" horiz-adv-x="1752" d="M109 813q0 155 60 296.5t162 244.5t245 164t300 61q156 0 297.5 -60.5t244.5 -162.5t163.5 -244t60.5 -299q0 -104 -27.5 -204t-77 -184t-120 -154.5t-155 -120t-183.5 -77t-203 -27.5q-158 0 -300.5 61t-244.5 164t-162 245t-60 297zM196 813q0 -143 53 -272.5 t143 -223.5t216.5 -149.5t267.5 -55.5q136 0 261.5 55.5t217 149t146 223.5t54.5 273q0 144 -55.5 274.5t-147.5 224t-216.5 148.5t-259.5 55q-139 0 -265.5 -55.5t-217 -149.5t-144 -224t-53.5 -273zM522 815q0 129 38.5 220t118.5 141.5t197 50.5q83 0 152.5 -29 t113.5 -87t47 -135h-95q-3 35 -16 64.5t-37 55.5t-66 40.5t-99 14.5q-51 0 -92 -15t-67 -37.5t-45 -56t-28 -62.5t-14.5 -65.5t-6 -56t-0.5 -43.5q0 -62 12 -113t30 -83t45 -56t50 -35.5t51.5 -18.5t44 -8t32.5 -1q49 0 88 15.5t61.5 37t38 51.5t21 51t8.5 43h96 q-6 -23 -10.5 -40.5t-16.5 -48t-26 -53.5t-39 -49.5t-54.5 -43.5t-73.5 -28.5t-95 -11.5q-173 0 -268.5 101t-95.5 291z" />
<glyph unicode="&#xab;" horiz-adv-x="1068" d="M152 406l311 400h78l-253 -400l253 -402h-82zM551 406l306 400h80l-253 -400l253 -402h-83z" />
<glyph unicode="&#xac;" horiz-adv-x="1304" d="M88 596v88h1130v-557h-96v469h-1034z" />
<glyph unicode="&#xad;" horiz-adv-x="788" d="M48 456v91h731v-91h-731z" />
<glyph unicode="&#xae;" horiz-adv-x="1752" d="M109 817q0 156 61 297.5t164 244.5t245 164t297 61q157 0 299.5 -61t244.5 -164t162 -244.5t60 -297.5q0 -105 -27 -204.5t-76 -184t-119.5 -155.5t-154.5 -120.5t-184 -77t-205 -27.5q-155 0 -297 60.5t-245 163.5t-164 245.5t-61 299.5zM196 817q0 -141 54 -271 t145 -224.5t217 -151t264 -56.5q140 0 265.5 55.5t216 149t144 224t53.5 274.5t-53.5 274t-144 223.5t-216 148t-265.5 54.5q-109 0 -212 -35t-187 -100t-147.5 -150.5t-98.5 -192.5t-35 -222zM596 440v765h331q50 0 90.5 -9t67 -22.5t46 -33.5t30 -39.5t16.5 -42.5t8 -39.5 t2 -35.5q0 -129 -130 -183v-5q32 -8 53.5 -25t33 -42t16.5 -48.5t8 -56.5q3 -29 4.5 -60t2 -45.5t3 -30.5t7.5 -26.5t13 -20.5h-102q-19 22 -24 51t-5 122q0 3 -1 9q-1 20 -2 29.5t-5.5 27t-11 26.5t-18.5 21t-29 18t-43 10.5t-59 4.5h-207v-319h-95zM691 832h212 q76 0 129.5 38.5t53.5 112.5q0 36 -11.5 63t-30 42.5t-45.5 25.5t-53 13t-58 3h-197v-298z" />
<glyph unicode="&#xaf;" horiz-adv-x="1310" d="M-25 1492v92h1423v-92h-1423z" />
<glyph unicode="&#xb0;" horiz-adv-x="950" d="M179 1286q0 74 42.5 139.5t115 104.5t155 39t155 -39t115.5 -104.5t43 -139.5q0 -81 -43.5 -148t-115.5 -105t-155 -38q-79 0 -150.5 37t-116.5 104.5t-45 149.5zM234 1286q0 -50 21 -93t56.5 -72.5t82 -46.5t97.5 -17q107 0 182.5 64.5t75.5 164.5q0 35 -13.5 68.5 t-37.5 60.5t-56 48t-71 33t-80 12q-103 0 -180 -67t-77 -155z" />
<glyph unicode="&#xb1;" horiz-adv-x="1304" d="M88 -73h1130v-87h-1130v87zM88 541v88h517v454h96v-454h517v-88h-517v-470h-96v470h-517z" />
<glyph unicode="&#xb4;" horiz-adv-x="788" d="M320 1315l139 261h193l-227 -261h-105z" />
<glyph unicode="&#xb6;" horiz-adv-x="1159" d="M76 1105q0 38 4.5 73.5t16 73.5t28.5 72.5t44 68.5t61 62t80.5 52t102 41t126 26.5t151.5 9.5q174 0 242 -15v-1573h-95v1500h-164v-1500h-94v678h-20q-57 0 -113.5 12t-110.5 35t-101 60t-82 83t-55.5 108.5t-20.5 132.5z" />
<glyph unicode="&#xb7;" horiz-adv-x="740" d="M295 369v176h178v-176h-178z" />
<glyph unicode="&#xba;" horiz-adv-x="656" d="M65 1069q0 117 78 196t189 79h2q62 0 112.5 -21.5t81 -58t47 -81t16.5 -93.5q0 -62 -24 -114.5t-62 -86t-85 -51.5t-96 -18q-116 0 -187.5 73t-71.5 176zM149 1071q0 -51 22.5 -92t63.5 -64.5t91 -23.5q78 0 130 54t52 139q0 22 -4 44.5t-16.5 49t-31.5 46.5t-53 33.5 t-77 13.5h-2q-47 0 -82.5 -18.5t-55 -49t-28.5 -64t-9 -68.5z" />
<glyph unicode="&#xbb;" horiz-adv-x="1068" d="M175 2l254 402l-254 401h84l305 -405l-305 -398h-84zM574 2l253 402l-253 401h80l300 -401l-300 -402h-80z" />
<glyph unicode="&#xc0;" horiz-adv-x="1216" d="M40 0q66 219 192.5 617.5t182.5 580.5l52 154h121l424 -1352h-97l-113 362h-563l-107 -362h-92zM266 439h512l-254 842q-43 -145 -129 -421t-129 -421zM303 1691h162l189 -288h-90z" />
<glyph unicode="&#xc1;" horiz-adv-x="1216" d="M40 0q66 219 192.5 617.5t182.5 580.5l52 154h121l424 -1352h-97l-113 362h-563l-107 -362h-92zM266 439h512l-254 842q-43 -145 -129 -421t-129 -421zM535 1444l132 247h128l-153 -247h-107z" />
<glyph unicode="&#xc2;" horiz-adv-x="1216" d="M40 0q66 219 192.5 617.5t182.5 580.5l52 154h121l424 -1352h-97l-113 362h-563l-107 -362h-92zM266 439h512l-254 842q-43 -145 -129 -421t-129 -421zM274 1450l197 241h112l195 -241h-87l-165 206l-162 -206h-90z" />
<glyph unicode="&#xc3;" horiz-adv-x="1216" d="M40 0q66 219 192.5 617.5t182.5 580.5l52 154h121l424 -1352h-97l-113 362h-563l-107 -362h-92zM200 1492q33 108 81.5 151t122.5 43q27 0 57.5 -9.5t89.5 -34.5l30 -11q75 -35 122 -35q46 0 71 19.5t39 70.5h85q-14 -95 -64.5 -143.5t-123.5 -48.5q-33 0 -152 47.5 t-146 47.5q-47 0 -78.5 -25t-42.5 -72h-91zM266 439h512l-254 842q-43 -145 -129 -421t-129 -421z" />
<glyph unicode="&#xc4;" horiz-adv-x="1216" d="M40 0q66 219 192.5 617.5t182.5 580.5l52 154h121l424 -1352h-97l-113 362h-563l-107 -362h-92zM266 439h512l-254 842q-43 -145 -129 -421t-129 -421zM327 1505v166h95v-166h-95zM630 1505v166h97v-166h-97z" />
<glyph unicode="&#xc5;" horiz-adv-x="1216" d="M40 0q66 219 192.5 617.5t182.5 580.5l52 154h121l424 -1352h-97l-113 362h-563l-107 -362h-92zM266 439h512l-254 842q-43 -145 -129 -421t-129 -421zM442 1633q0 77 59.5 133.5t145.5 56.5q83 0 144 -57t61 -135q0 -85 -60 -142.5t-140 -57.5q-61 0 -109.5 26.5 t-74.5 72.5t-26 103zM528 1633q0 -45 32.5 -80.5t96.5 -35.5q53 0 81 33.5t28 80.5q0 19 -7.5 37.5t-21 34t-36 25.5t-49.5 10q-59 0 -91.5 -31t-32.5 -74z" />
<glyph unicode="&#xc6;" horiz-adv-x="1704" d="M40 0q74 161 205.5 449t176.5 383l235 520h717v-75h-545q8 -90 25 -270.5t24 -274.5h474v-75h-466l51 -581h461v-76h-581v362h-514l-93 -202q-8 -16 -35 -74t-41 -86h-94zM337 439h473l-75 842q-4 0 -10 1t-10 1z" />
<glyph unicode="&#xc7;" horiz-adv-x="1095" d="M117 671v3q0 79 0.5 122.5t4 114t10.5 111t21 97t34 88.5t50.5 69.5t70 56.5t93.5 32t119 13q326 0 326 -372h-95q-2 49 -8.5 90t-23 80t-41.5 66t-65 43t-93 16q-50 0 -90.5 -10t-70.5 -24.5t-53 -45t-38.5 -56.5t-26 -75t-16 -84.5t-8.5 -100.5t-3.5 -109t-0.5 -122 q0 -77 0.5 -120.5t3.5 -108t8.5 -100.5t16 -84.5t26 -74.5t38.5 -56.5t53 -45.5t70.5 -25t90.5 -10q76 0 128 43t76 113t27 164h108q-1 -25 -3.5 -47.5t-8.5 -54t-14 -58.5t-22.5 -58t-32.5 -55.5t-44.5 -48t-58.5 -39.5t-75 -25.5t-93 -9.5q-7 0 -9 2l-86 -107l91 5 q55 0 96 -33.5t41 -93.5q0 -142 -203 -142q-61 0 -157 28l23 36q58 -22 110 -22q26 0 49 4.5t44 15t33.5 30.5t12.5 47q0 46 -32 68.5t-78 22.5q-39 0 -71 -19l-17 21l105 142q-72 11 -127 39.5t-91 61t-60.5 91.5t-37 103t-19 126t-7 129.5t-0.5 142.5z" />
<glyph unicode="&#xc8;" d="M151 0v1352h598v-75h-501v-545h479v-75h-479v-581h516v-76h-613zM240 1691h166l189 -288h-94z" />
<glyph unicode="&#xc9;" d="M151 0v1352h598v-75h-501v-545h479v-75h-479v-581h516v-76h-613zM408 1444l133 247h194l-218 -247h-109z" />
<glyph unicode="&#xca;" d="M151 0v1352h598v-75h-501v-545h479v-75h-479v-581h516v-76h-613zM169 1450l195 241h112l195 -241h-84l-165 204l-165 -204h-88z" />
<glyph unicode="&#xcb;" d="M151 0v1352h598v-75h-501v-545h479v-75h-479v-581h516v-76h-613zM219 1523v168h98v-168h-98zM524 1523v168h93v-168h-93z" />
<glyph unicode="&#xcc;" horiz-adv-x="485" d="M-12 1691h164l187 -288h-90zM162 0v1352h95v-1352h-95z" />
<glyph unicode="&#xcd;" horiz-adv-x="485" d="M162 0v1352h95v-1352h-95zM223 1444l131 247h190l-217 -247h-104z" />
<glyph unicode="&#xce;" horiz-adv-x="485" d="M-42 1450q11 13 45 55.5t51 60.5l102 125h109l200 -241h-87l-170 206l-162 -206h-88zM162 0v1352h95v-1352h-95z" />
<glyph unicode="&#xcf;" horiz-adv-x="485" d="M12 1505v166h95v-166h-95zM162 0v1352h95v-1352h-95zM312 1505v166h96v-166h-96z" />
<glyph unicode="&#xd0;" horiz-adv-x="1216" d="M34 705v80h117v567h352q56 0 103 -6t85 -20t68 -33t53.5 -47.5t41 -60t29.5 -75.5t19.5 -88t12 -103.5t6 -117t1.5 -132.5q0 -79 -2.5 -141.5t-9.5 -124t-19 -108t-30.5 -90t-44.5 -74.5t-60.5 -57t-79 -41.5t-100 -24t-122.5 -8.5h-303v705h-117zM248 76h160q59 0 104 3 t85.5 12.5t69.5 21.5t53.5 35.5t40.5 49.5t29 68.5t20 86.5t11.5 109.5t6 132t1.5 159.5q0 82 -3 141t-11 113.5t-21.5 91.5t-36 69t-52 51t-71.5 32.5t-93.5 19t-118.5 5.5h-174v-492h289v-80h-289v-629z" />
<glyph unicode="&#xd1;" horiz-adv-x="1338" d="M166 13v1327h144l563 -1211l45 -72v656q0 112 1 322t1 305h65v-1327h-139l-562 1226l-45 72q0 -99 -1.5 -326t-1.5 -339v-633h-70zM290 1494q25 105 74.5 151t128.5 46q41 0 153 -46t145 -46q23 0 39.5 4t30 14.5t23.5 28t17 45.5h82q-14 -97 -62.5 -146t-122.5 -49 q-36 0 -154.5 47.5t-143.5 47.5q-95 0 -117 -97h-93z" />
<glyph unicode="&#xd2;" horiz-adv-x="1216" d="M122 674q0 77 0.5 122t4.5 114.5t11.5 111t21.5 97t34 88.5t50.5 69.5t70 56t93 32.5t118.5 13q59 0 108 -9t86.5 -29.5t67 -43t50.5 -61t36.5 -70.5t25 -85t15.5 -90.5t8 -101.5t3 -104t1 -110q0 -78 -1 -121.5t-4.5 -113.5t-10.5 -110.5t-21 -96.5t-34 -88t-50 -69 t-69 -56.5t-92.5 -32.5t-118.5 -13t-118.5 13t-93 32.5t-70 56t-50.5 69.5t-34 88t-21.5 96.5t-11.5 110.5t-4.5 114t-0.5 121zM217 674q0 -77 0.5 -120.5t3.5 -108t8.5 -100.5t16 -84.5t26.5 -74.5t39 -56.5t53.5 -45.5t71 -25t91 -10t91 10.5t70.5 24.5t53 45.5t38.5 56.5 t26 75t15.5 84t8 101t3 107.5v120.5v122t-3 108.5t-8 101.5t-15.5 84t-26 75t-38.5 56.5t-53 45.5t-70.5 24t-91.5 10q-45 0 -82.5 -6.5t-66.5 -23t-52 -33.5t-39.5 -49.5t-28 -58.5t-19 -72.5t-12 -80.5t-6.5 -93.5t-2.5 -99.5t-0.5 -110zM303 1691h162l189 -288h-90z" />
<glyph unicode="&#xd3;" horiz-adv-x="1216" d="M122 674q0 77 0.5 122t4.5 114.5t11.5 111t21.5 97t34 88.5t50.5 69.5t70 56t93 32.5t118.5 13q59 0 108 -9t86.5 -29.5t67 -43t50.5 -61t36.5 -70.5t25 -85t15.5 -90.5t8 -101.5t3 -104t1 -110q0 -78 -1 -121.5t-4.5 -113.5t-10.5 -110.5t-21 -96.5t-34 -88t-50 -69 t-69 -56.5t-92.5 -32.5t-118.5 -13t-118.5 13t-93 32.5t-70 56t-50.5 69.5t-34 88t-21.5 96.5t-11.5 110.5t-4.5 114t-0.5 121zM217 674q0 -77 0.5 -120.5t3.5 -108t8.5 -100.5t16 -84.5t26.5 -74.5t39 -56.5t53.5 -45.5t71 -25t91 -10t91 10.5t70.5 24.5t53 45.5t38.5 56.5 t26 75t15.5 84t8 101t3 107.5v120.5v122t-3 108.5t-8 101.5t-15.5 84t-26 75t-38.5 56.5t-53 45.5t-70.5 24t-91.5 10q-45 0 -82.5 -6.5t-66.5 -23t-52 -33.5t-39.5 -49.5t-28 -58.5t-19 -72.5t-12 -80.5t-6.5 -93.5t-2.5 -99.5t-0.5 -110zM535 1444l132 247h187l-212 -247 h-107z" />
<glyph unicode="&#xd4;" horiz-adv-x="1216" d="M122 674q0 77 0.5 122t4.5 114.5t11.5 111t21.5 97t34 88.5t50.5 69.5t70 56t93 32.5t118.5 13q59 0 108 -9t86.5 -29.5t67 -43t50.5 -61t36.5 -70.5t25 -85t15.5 -90.5t8 -101.5t3 -104t1 -110q0 -78 -1 -121.5t-4.5 -113.5t-10.5 -110.5t-21 -96.5t-34 -88t-50 -69 t-69 -56.5t-92.5 -32.5t-118.5 -13t-118.5 13t-93 32.5t-70 56t-50.5 69.5t-34 88t-21.5 96.5t-11.5 110.5t-4.5 114t-0.5 121zM217 674q0 -77 0.5 -120.5t3.5 -108t8.5 -100.5t16 -84.5t26.5 -74.5t39 -56.5t53.5 -45.5t71 -25t91 -10t91 10.5t70.5 24.5t53 45.5t38.5 56.5 t26 75t15.5 84t8 101t3 107.5v120.5v122t-3 108.5t-8 101.5t-15.5 84t-26 75t-38.5 56.5t-53 45.5t-70.5 24t-91.5 10q-45 0 -82.5 -6.5t-66.5 -23t-52 -33.5t-39.5 -49.5t-28 -58.5t-19 -72.5t-12 -80.5t-6.5 -93.5t-2.5 -99.5t-0.5 -110zM274 1450l197 241h112l195 -241 h-87l-165 206l-162 -206h-90z" />
<glyph unicode="&#xd5;" horiz-adv-x="1216" d="M122 674q0 77 0.5 122t4.5 114.5t11.5 111t21.5 97t34 88.5t50.5 69.5t70 56t93 32.5t118.5 13q59 0 108 -9t86.5 -29.5t67 -43t50.5 -61t36.5 -70.5t25 -85t15.5 -90.5t8 -101.5t3 -104t1 -110q0 -78 -1 -121.5t-4.5 -113.5t-10.5 -110.5t-21 -96.5t-34 -88t-50 -69 t-69 -56.5t-92.5 -32.5t-118.5 -13t-118.5 13t-93 32.5t-70 56t-50.5 69.5t-34 88t-21.5 96.5t-11.5 110.5t-4.5 114t-0.5 121zM217 674q0 -77 0.5 -120.5t3.5 -108t8.5 -100.5t16 -84.5t26.5 -74.5t39 -56.5t53.5 -45.5t71 -25t91 -10t91 10.5t70.5 24.5t53 45.5t38.5 56.5 t26 75t15.5 84t8 101t3 107.5v120.5v122t-3 108.5t-8 101.5t-15.5 84t-26 75t-38.5 56.5t-53 45.5t-70.5 24t-91.5 10q-45 0 -82.5 -6.5t-66.5 -23t-52 -33.5t-39.5 -49.5t-28 -58.5t-19 -72.5t-12 -80.5t-6.5 -93.5t-2.5 -99.5t-0.5 -110zM278 1494q34 110 81.5 153.5 t123.5 43.5q10 0 21.5 -2t20 -4t24 -7.5t23 -8t28.5 -11t29 -11.5l30 -14q70 -34 107 -34q58 0 85 17t40 75h85q-16 -96 -65.5 -145.5t-121.5 -49.5q-35 0 -154 47.5t-144 47.5q-100 0 -122 -97h-91z" />
<glyph unicode="&#xd6;" horiz-adv-x="1216" d="M122 674q0 77 0.5 122t4.5 114.5t11.5 111t21.5 97t34 88.5t50.5 69.5t70 56t93 32.5t118.5 13q59 0 108 -9t86.5 -29.5t67 -43t50.5 -61t36.5 -70.5t25 -85t15.5 -90.5t8 -101.5t3 -104t1 -110q0 -78 -1 -121.5t-4.5 -113.5t-10.5 -110.5t-21 -96.5t-34 -88t-50 -69 t-69 -56.5t-92.5 -32.5t-118.5 -13t-118.5 13t-93 32.5t-70 56t-50.5 69.5t-34 88t-21.5 96.5t-11.5 110.5t-4.5 114t-0.5 121zM217 674q0 -77 0.5 -120.5t3.5 -108t8.5 -100.5t16 -84.5t26.5 -74.5t39 -56.5t53.5 -45.5t71 -25t91 -10t91 10.5t70.5 24.5t53 45.5t38.5 56.5 t26 75t15.5 84t8 101t3 107.5v120.5v122t-3 108.5t-8 101.5t-15.5 84t-26 75t-38.5 56.5t-53 45.5t-70.5 24t-91.5 10q-45 0 -82.5 -6.5t-66.5 -23t-52 -33.5t-39.5 -49.5t-28 -58.5t-19 -72.5t-12 -80.5t-6.5 -93.5t-2.5 -99.5t-0.5 -110zM327 1505v166h95v-166h-95z M630 1505v166h92v-166h-92z" />
<glyph unicode="&#xd7;" d="M49 158l322 320l-322 320l54 52l322 -322l320 322l53 -52l-322 -320l317 -318v-9q-8 -10 -27 -24l-21 -24l-320 322l-322 -322z" />
<glyph unicode="&#xd8;" horiz-adv-x="1216" d="M101 -32l95 175q-31 58 -48.5 135.5t-21.5 138t-4 139.5v229q0 68 2 116.5t11 115t25 113t46 96.5t71.5 81t105 51t143.5 20q66 0 120 -15t95.5 -40.5t81.5 -65.5l94 163l35 -29l-98 -181q73 -143 73 -412v-230q0 -51 -1.5 -89.5t-6 -90.5t-12 -90.5t-22.5 -84t-35 -78.5 t-50.5 -65t-69 -52t-90.5 -32.5t-114 -12.5q-95 0 -166 31.5t-131 92.5l-88 -153zM217 646q0 -103 0.5 -143.5t8 -118.5t23.5 -148l525 934q-35 64 -94 97.5t-154 33.5q-50 0 -91.5 -10.5t-72 -25t-53.5 -46.5t-38.5 -57.5t-26 -75.5t-16 -83t-8 -99t-3 -104t-0.5 -115v-11 v-28zM276 185q36 -67 95.5 -101.5t154.5 -34.5q50 0 90.5 10.5t70.5 25t53 44.5t38.5 56t26 73t16 81t8 95.5t3 100.5t0.5 111q0 122 -0.5 168.5t-8 134.5t-23.5 162z" />
<glyph unicode="&#xd9;" horiz-adv-x="1216" d="M135 408v944h95v-852q0 -55 1 -85.5t6.5 -85t16 -87t32.5 -74t52.5 -64t78.5 -39t109 -16.5q48 0 88 10t69 24.5t51.5 41.5t37 50t24.5 60.5t15 63.5t7.5 69t3 66t0.5 66v852h96v-944q0 -84 -14 -151.5t-41 -114.5t-62 -80.5t-80 -52.5t-92.5 -27.5t-102.5 -8.5 q-391 0 -391 435zM303 1691h162l189 -288h-90z" />
<glyph unicode="&#xda;" horiz-adv-x="1216" d="M135 408v944h95v-852q0 -55 1 -85.5t6.5 -85t16 -87t32.5 -74t52.5 -64t78.5 -39t109 -16.5q48 0 88 10t69 24.5t51.5 41.5t37 50t24.5 60.5t15 63.5t7.5 69t3 66t0.5 66v852h96v-944q0 -84 -14 -151.5t-41 -114.5t-62 -80.5t-80 -52.5t-92.5 -27.5t-102.5 -8.5 q-391 0 -391 435zM535 1444l132 247h187l-212 -247h-107z" />
<glyph unicode="&#xdb;" horiz-adv-x="1216" d="M135 408v944h95v-852q0 -55 1 -85.5t6.5 -85t16 -87t32.5 -74t52.5 -64t78.5 -39t109 -16.5q48 0 88 10t69 24.5t51.5 41.5t37 50t24.5 60.5t15 63.5t7.5 69t3 66t0.5 66v852h96v-944q0 -84 -14 -151.5t-41 -114.5t-62 -80.5t-80 -52.5t-92.5 -27.5t-102.5 -8.5 q-391 0 -391 435zM274 1450l197 241h112l195 -241h-87l-165 206l-162 -206h-90z" />
<glyph unicode="&#xdc;" horiz-adv-x="1216" d="M135 408v944h95v-852q0 -55 1 -85.5t6.5 -85t16 -87t32.5 -74t52.5 -64t78.5 -39t109 -16.5q48 0 88 10t69 24.5t51.5 41.5t37 50t24.5 60.5t15 63.5t7.5 69t3 66t0.5 66v852h96v-944q0 -84 -14 -151.5t-41 -114.5t-62 -80.5t-80 -52.5t-92.5 -27.5t-102.5 -8.5 q-391 0 -391 435zM327 1505v166h95v-166h-95zM630 1505v166h92v-166h-92z" />
<glyph unicode="&#xdd;" horiz-adv-x="1095" d="M61 1340h82l330 -720l347 720h63l-376 -774v-553h-70v553zM391 1444l131 247h188l-212 -247h-107z" />
<glyph unicode="&#xde;" d="M147 0v1501h104v-346h301q31 0 55.5 -2t59.5 -10t61.5 -22t55 -41t47.5 -63.5t31 -92.5t12 -126q0 -227 -80.5 -329.5t-267.5 -102.5h-275v-366h-104zM251 449h269q58 0 101 15t78 50t52.5 99.5t17.5 157.5q0 57 -7 102t-19.5 76t-31.5 54t-39 35.5t-47.5 20t-52 10 t-55.5 2.5h-266v-622z" />
<glyph unicode="&#xdf;" horiz-adv-x="1095" d="M151 0v1213q0 31 4 61t15 65t28 65.5t46 59.5t66 49.5t90 33t117 12.5q57 0 111.5 -18t98 -50.5t70 -83t26.5 -111.5q0 -57 -24 -113.5t-58 -102t-68.5 -88.5t-58 -89t-23.5 -88q0 -31 15.5 -63.5t42 -60.5t59.5 -59.5t67.5 -60.5t68 -64t59.5 -69.5t42 -77.5t16 -87 q0 -148 -83 -223t-232 -75q-130 0 -196.5 67.5t-68.5 193.5h99q13 -187 191 -187q48 0 85 15t60.5 42t35 64t11.5 84q0 41 -15.5 81.5t-41.5 72.5t-59.5 65t-68 61t-68 59t-59.5 59.5t-42 63t-16 69.5q0 58 24.5 114t58.5 102.5t68.5 92.5t59 100t24.5 107q0 44 -21 80.5 t-54.5 59.5t-73 35t-79.5 12q-252 0 -252 -318v-1170h-97z" />
<glyph unicode="&#xe0;" d="M93 282q0 66 17.5 118t43 86t70.5 59.5t82 38.5t96.5 22t95.5 11.5t97 5.5l112 4v115q0 69 -11 118.5t-38 88t-75.5 57.5t-119.5 19q-98 0 -164.5 -50.5t-77.5 -142.5h-92q7 65 37 114.5t77.5 78.5t105.5 43.5t124 14.5q22 0 39.5 -0.5t44 -3.5t47.5 -8.5t46.5 -15 t44.5 -23t38.5 -34.5t31.5 -46.5t20 -61t8 -77.5v-556v-33.5v-34t0.5 -30.5t1 -35.5t2 -35t4 -43t5.5 -45.5h-88v187q-32 -71 -88.5 -120t-120 -70.5t-131.5 -21.5q-136 0 -210.5 83.5t-74.5 223.5zM188 290q0 -109 57 -180t165 -71q80 0 149.5 43t108.5 112.5t39 146.5v225 h-82q-49 0 -86.5 -1.5t-85.5 -8t-83 -18t-71 -32t-59 -49t-37.5 -71.5t-14.5 -96zM236 1544h162l200 -307h-83z" />
<glyph unicode="&#xe1;" d="M93 282q0 66 17.5 118t43 86t70.5 59.5t82 38.5t96.5 22t95.5 11.5t97 5.5l112 4v115q0 69 -11 118.5t-38 88t-75.5 57.5t-119.5 19q-98 0 -164.5 -50.5t-77.5 -142.5h-92q7 65 37 114.5t77.5 78.5t105.5 43.5t124 14.5q22 0 39.5 -0.5t44 -3.5t47.5 -8.5t46.5 -15 t44.5 -23t38.5 -34.5t31.5 -46.5t20 -61t8 -77.5v-556v-33.5v-34t0.5 -30.5t1 -35.5t2 -35t4 -43t5.5 -45.5h-88v187q-32 -71 -88.5 -120t-120 -70.5t-131.5 -21.5q-136 0 -210.5 83.5t-74.5 223.5zM188 290q0 -109 57 -180t165 -71q80 0 149.5 43t108.5 112.5t39 146.5v225 h-82q-49 0 -86.5 -1.5t-85.5 -8t-83 -18t-71 -32t-59 -49t-37.5 -71.5t-14.5 -96zM493 1315l139 261h191l-225 -261h-105z" />
<glyph unicode="&#xe2;" d="M93 282q0 66 17.5 118t43 86t70.5 59.5t82 38.5t96.5 22t95.5 11.5t97 5.5l112 4v115q0 69 -11 118.5t-38 88t-75.5 57.5t-119.5 19q-98 0 -164.5 -50.5t-77.5 -142.5h-92q7 65 37 114.5t77.5 78.5t105.5 43.5t124 14.5q22 0 39.5 -0.5t44 -3.5t47.5 -8.5t46.5 -15 t44.5 -23t38.5 -34.5t31.5 -46.5t20 -61t8 -77.5v-556v-33.5v-34t0.5 -30.5t1 -35.5t2 -35t4 -43t5.5 -45.5h-88v187q-149 -212 -340 -212q-136 0 -210.5 83.5t-74.5 223.5zM188 290q0 -109 57 -180t165 -71q80 0 149.5 43t108.5 112.5t39 146.5v225h-82q-49 0 -86.5 -1.5 t-85.5 -8t-83 -18t-71 -32t-59 -49t-37.5 -71.5t-14.5 -96zM204 1225l211 259h122l212 -259h-78l-195 237l-188 -237h-84z" />
<glyph unicode="&#xe3;" d="M93 282q0 66 17.5 118t43 86t70.5 59.5t82 38.5t96.5 22t95.5 11.5t97 5.5l112 4v115q0 69 -11 118.5t-38 88t-75.5 57.5t-119.5 19q-98 0 -164.5 -50.5t-77.5 -142.5h-92q7 65 37 114.5t77.5 78.5t105.5 43.5t124 14.5q22 0 39.5 -0.5t44 -3.5t47.5 -8.5t46.5 -15 t44.5 -23t38.5 -34.5t31.5 -46.5t20 -61t8 -77.5v-556v-33.5v-34t0.5 -30.5t1 -35.5t2 -35t4 -43t5.5 -45.5h-88v187q-32 -71 -88.5 -120t-120 -70.5t-131.5 -21.5q-136 0 -210.5 83.5t-74.5 223.5zM188 290q0 -109 57 -180t165 -71q80 0 149.5 43t108.5 112.5t39 146.5v225 h-82q-49 0 -86.5 -1.5t-85.5 -8t-83 -18t-71 -32t-59 -49t-37.5 -71.5t-14.5 -96zM204 1372q18 73 48.5 118t71.5 64.5t99 19.5q21 0 87 -25t138.5 -50t110.5 -25q28 0 47 4.5t35.5 16t27.5 31t19 50.5h78q-9 -65 -38 -111t-70.5 -68.5t-93.5 -22.5q-38 0 -169.5 52.5 t-162.5 52.5q-117 0 -141 -107h-87z" />
<glyph unicode="&#xe4;" d="M93 282q0 66 17.5 118t43 86t70.5 59.5t82 38.5t96.5 22t95.5 11.5t97 5.5l112 4v115q0 69 -11 118.5t-38 88t-75.5 57.5t-119.5 19q-98 0 -164.5 -50.5t-77.5 -142.5h-92q7 65 37 114.5t77.5 78.5t105.5 43.5t124 14.5q22 0 39.5 -0.5t44 -3.5t47.5 -8.5t46.5 -15 t44.5 -23t38.5 -34.5t31.5 -46.5t20 -61t8 -77.5v-556v-33.5v-34t0.5 -30.5t1 -35.5t2 -35t4 -43t5.5 -45.5h-88v187q-149 -212 -340 -212q-136 0 -210.5 83.5t-74.5 223.5zM188 290q0 -109 57 -180t165 -71q80 0 149.5 43t108.5 112.5t39 146.5v225h-82q-49 0 -86.5 -1.5 t-85.5 -8t-83 -18t-71 -32t-59 -49t-37.5 -71.5t-14.5 -96zM254 1252v175h95v-175h-95zM602 1252v175h94v-175h-94z" />
<glyph unicode="&#xe5;" d="M93 282q0 66 17.5 118t43 86t70.5 59.5t82 38.5t96.5 22t95.5 11.5t97 5.5l112 4v115q0 69 -11 118.5t-38 88t-75.5 57.5t-119.5 19q-98 0 -164.5 -50.5t-77.5 -142.5h-92q7 65 37 114.5t77.5 78.5t105.5 43.5t124 14.5q22 0 39.5 -0.5t44 -3.5t47.5 -8.5t46.5 -15 t44.5 -23t38.5 -34.5t31.5 -46.5t20 -61t8 -77.5v-556v-33.5v-34t0.5 -30.5t1 -35.5t2 -35t4 -43t5.5 -45.5h-88v187q-32 -71 -88.5 -120t-120 -70.5t-131.5 -21.5q-136 0 -210.5 83.5t-74.5 223.5zM188 290q0 -109 57 -180t165 -71q80 0 149.5 43t108.5 112.5t39 146.5v225 h-82q-49 0 -86.5 -1.5t-85.5 -8t-83 -18t-71 -32t-59 -49t-37.5 -71.5t-14.5 -96zM385 1370q0 83 65.5 145.5t157.5 62.5q88 0 154.5 -63.5t66.5 -145.5q0 -92 -65 -155t-154 -63q-98 0 -161.5 63t-63.5 156zM467 1370q0 -24 8 -47t25 -44t47.5 -33.5t69.5 -12.5 q43 0 73.5 21t43.5 51t13 64q0 49 -36 88t-101 39q-69 0 -106 -37.5t-37 -88.5z" />
<glyph unicode="&#xe6;" horiz-adv-x="1581" d="M86 265q0 69 17.5 123t44.5 89.5t73.5 61t88.5 38.5t106 20.5t110 9t116 1.5h68q0 53 -0.5 84.5t-5.5 81.5t-14.5 80t-28.5 66.5t-45.5 56.5t-68 34t-93.5 14q-98 0 -164 -50t-77 -143h-93q9 66 39.5 115t77.5 78t104.5 43.5t123.5 14.5q62 0 118.5 -20t107 -66.5 t75.5 -113.5q26 46 60.5 83.5t72.5 63t78.5 39.5t79.5 14q73 0 130 -16.5t95 -41t64.5 -67.5t40.5 -83t22 -101.5t9.5 -107t1.5 -115.5h-634v-132q0 -45 5 -86.5t15.5 -86t31 -80.5t49.5 -65.5t72.5 -45.5t97.5 -16q128 0 195.5 67.5t73.5 184.5h92q-9 -86 -38 -147.5 t-76.5 -98t-108 -53.5t-138.5 -17q-102 0 -186.5 64.5t-119.5 179.5q-57 -124 -134.5 -184t-182.5 -60q-71 0 -133.5 18.5t-111 53.5t-76 91t-27.5 127zM181 274q0 -50 12 -89t34 -66.5t54.5 -45.5t72.5 -26t88 -8q51 0 93 16.5t69.5 43t48 67t32 80t18 89.5t8.5 88.5 t2 84.5q0 27 -6 44q-28 -2 -69 -3.5t-73 -2t-71.5 -3.5t-70 -7t-64.5 -13.5t-58.5 -22t-48.5 -33t-38.5 -47.5t-23.5 -64t-9 -82zM786 608h548q0 81 -6.5 141t-24 114.5t-48 88.5t-80.5 53.5t-118 19.5q-83 0 -144.5 -51t-94 -145t-32.5 -221z" />
<glyph unicode="&#xe7;" horiz-adv-x="851" d="M97 526q0 130 11 221t34 157.5t63.5 104.5t97 56t137.5 18q287 0 287 -294h-87q0 114 -50.5 175t-167.5 61q-54 0 -90 -12.5t-64.5 -44.5t-44.5 -89.5t-24.5 -143t-8.5 -209.5q0 -61 1 -94t5 -92.5t12 -94.5t24.5 -79.5t40 -68.5t59.5 -41t83 -17q54 0 93.5 13t63 33.5 t38.5 54t21.5 65.5t10.5 77h86q-3 -70 -24 -125.5t-51 -87.5t-70 -53.5t-72.5 -29.5t-66.5 -11l-107 -141q8 0 54.5 3t60.5 3q61 0 104.5 -36.5t43.5 -100.5q0 -159 -229 -159q-66 0 -163 31l15 29q71 -27 129 -27q28 0 55.5 7t52 20.5t40 38t15.5 56.5q0 55 -38 83t-94 28 q-31 0 -82 -18l-11 8l125 175q-66 9 -117.5 32.5t-84.5 50t-56 74.5t-34.5 84t-17.5 100t-7 101t-1 109z" />
<glyph unicode="&#xe8;" d="M117 368v272q0 229 89 336t270 107q57 0 103.5 -9.5t81.5 -24.5t61.5 -42.5t44.5 -53.5t30.5 -68.5t19.5 -76.5t10.5 -88t4 -93t0.5 -101h-630v-107q0 -55 6.5 -104t24.5 -101.5t47.5 -89.5t79.5 -61t116 -24q127 0 193.5 67t72.5 185h88q-5 -69 -24.5 -122.5t-50 -90 t-74 -59.5t-94 -33.5t-111.5 -10.5q-359 0 -359 393zM202 587h545q0 88 -6.5 151.5t-24 120t-47.5 91.5t-78.5 55t-114.5 20q-67 0 -116 -20t-79.5 -55t-48 -91.5t-24 -120t-6.5 -151.5zM236 1544h162l200 -307h-83z" />
<glyph unicode="&#xe9;" d="M117 368v272q0 229 89 336t270 107q57 0 103.5 -9.5t81.5 -24.5t61.5 -42.5t44.5 -53.5t30.5 -68.5t19.5 -76.5t10.5 -88t4 -93t0.5 -101h-630v-107q0 -55 6.5 -104t24.5 -101.5t47.5 -89.5t79.5 -61t116 -24q127 0 193.5 67t72.5 185h88q-5 -69 -24.5 -122.5t-50 -90 t-74 -59.5t-94 -33.5t-111.5 -10.5q-359 0 -359 393zM202 587h545q0 88 -6.5 151.5t-24 120t-47.5 91.5t-78.5 55t-114.5 20q-67 0 -116 -20t-79.5 -55t-48 -91.5t-24 -120t-6.5 -151.5zM493 1315l139 261h191l-225 -261h-105z" />
<glyph unicode="&#xea;" d="M117 368v272q0 229 89 336t270 107q57 0 103.5 -9.5t81.5 -24.5t61.5 -42.5t44.5 -53.5t30.5 -68.5t19.5 -76.5t10.5 -88t4 -93t0.5 -101h-630v-107q0 -55 6.5 -104t24.5 -101.5t47.5 -89.5t79.5 -61t116 -24q127 0 193.5 67t72.5 185h88q-5 -69 -24.5 -122.5t-50 -90 t-74 -59.5t-94 -33.5t-111.5 -10.5q-359 0 -359 393zM202 587h545q0 88 -6.5 151.5t-24 120t-47.5 91.5t-78.5 55t-114.5 20q-67 0 -116 -20t-79.5 -55t-48 -91.5t-24 -120t-6.5 -151.5zM202 1225l211 259h124l212 -259h-80l-193 237l-192 -237h-82z" />
<glyph unicode="&#xeb;" d="M117 368v272q0 229 89 336t270 107q57 0 103.5 -9.5t81.5 -24.5t61.5 -42.5t44.5 -53.5t30.5 -68.5t19.5 -76.5t10.5 -88t4 -93t0.5 -101h-630v-107q0 -55 6.5 -104t24.5 -101.5t47.5 -89.5t79.5 -61t116 -24q127 0 193.5 67t72.5 185h88q-5 -69 -24.5 -122.5t-50 -90 t-74 -59.5t-94 -33.5t-111.5 -10.5q-359 0 -359 393zM202 587h545q0 88 -6.5 151.5t-24 120t-47.5 91.5t-78.5 55t-114.5 20q-67 0 -116 -20t-79.5 -55t-48 -91.5t-24 -120t-6.5 -151.5zM254 1252v175h95v-175h-95zM602 1252v175h94v-175h-94z" />
<glyph unicode="&#xec;" horiz-adv-x="485" d="M13 1484h183l136 -255h-54zM196 0v1064h86v-1064h-86z" />
<glyph unicode="&#xed;" horiz-adv-x="485" d="M144 1229l210 255h105l-266 -255h-49zM193 0v1064h85v-1064h-85z" />
<glyph unicode="&#xee;" horiz-adv-x="485" d="M-39 1225q162 192 214 259h126q27 -34 100 -122t112 -137h-84l-193 237l-190 -237h-85zM195 0v1064h85v-1064h-85z" />
<glyph unicode="&#xef;" horiz-adv-x="485" d="M17 1252v175h95l83 -175h-178zM195 0v1064h85v-1064h-85zM364 1252v175h93v-175h-93z" />
<glyph unicode="&#xf0;" d="M117 412v240q0 209 88.5 320t270.5 111q90 0 136 -23t72 -71l36 7q0 61 -22.5 129t-56 123.5t-69 98t-64.5 61.5l-201 -112l-34 32l210 116q-31 16 -67 34.5t-48 24.5t-33.5 15t-52.5 20l-9 2q14 15 30 28t24 21q76 -26 121.5 -49t96.5 -61l197 108l32 -34l-187 -103 q49 -46 83 -90t66.5 -111t52.5 -149t31.5 -200t11.5 -268v-220q0 -139 -37.5 -235.5t-118 -149t-200.5 -52.5q-182 0 -270.5 113t-88.5 324zM202 530q0 -71 2.5 -124t10 -106.5t20 -91.5t33 -72t49.5 -54t68.5 -31.5t90.5 -11.5q50 0 89.5 11.5t68 31.5t48.5 54t32.5 72 t20 91.5t10 106.5t2.5 124q0 70 -2.5 123t-10 107t-20 92.5t-32.5 72.5t-48.5 55t-68 33t-89.5 12q-51 0 -90.5 -12t-68.5 -33t-49.5 -55t-33 -72.5t-20 -92.5t-10 -107t-2.5 -123z" />
<glyph unicode="&#xf1;" d="M144 0v1064h86v-188q37 94 122.5 150.5t173.5 56.5q53 0 95.5 -11.5t71 -29.5t49.5 -45t33 -54t19 -61.5t9 -62t2 -60.5v-759h-87v751q0 56 -12 103t-37.5 86.5t-70.5 62t-105 22.5q-41 0 -78 -10.5t-71.5 -36.5t-59 -65.5t-39.5 -101t-15 -138.5v-673h-86zM204 1372 q18 73 48.5 118t71.5 64.5t99 19.5q21 0 87 -25t138.5 -50t110.5 -25q28 0 47 4.5t35.5 16t27.5 31t19 50.5h78q-9 -65 -38 -111t-70.5 -68.5t-93.5 -22.5q-38 0 -169.5 52.5t-162.5 52.5q-117 0 -141 -107h-87z" />
<glyph unicode="&#xf2;" d="M117 412v240q0 209 88.5 320t270.5 111q180 0 268 -111t88 -320v-240q0 -139 -37.5 -235.5t-118 -149t-200.5 -52.5q-182 0 -270.5 113t-88.5 324zM202 530q0 -71 2.5 -124t10 -106.5t20 -91.5t33 -72t49.5 -54t68.5 -31.5t90.5 -11.5q50 0 89.5 11.5t68 31.5t48.5 54 t32.5 72t20 91.5t10 106.5t2.5 124q0 70 -2.5 123t-10 107t-20 92.5t-32.5 72.5t-48.5 55t-68 33t-89.5 12q-51 0 -90.5 -12t-68.5 -33t-49.5 -55t-33 -72.5t-20 -92.5t-10 -107t-2.5 -123zM236 1544h162l200 -307h-83z" />
<glyph unicode="&#xf3;" d="M117 412v240q0 209 88.5 320t270.5 111q180 0 268 -111t88 -320v-240q0 -139 -37.5 -235.5t-118 -149t-200.5 -52.5q-182 0 -270.5 113t-88.5 324zM202 530q0 -71 2.5 -124t10 -106.5t20 -91.5t33 -72t49.5 -54t68.5 -31.5t90.5 -11.5q50 0 89.5 11.5t68 31.5t48.5 54 t32.5 72t20 91.5t10 106.5t2.5 124q0 70 -2.5 123t-10 107t-20 92.5t-32.5 72.5t-48.5 55t-68 33t-89.5 12q-51 0 -90.5 -12t-68.5 -33t-49.5 -55t-33 -72.5t-20 -92.5t-10 -107t-2.5 -123zM493 1315l139 261h191l-225 -261h-105z" />
<glyph unicode="&#xf4;" d="M117 412v240q0 209 88.5 320t270.5 111q180 0 268 -111t88 -320v-240q0 -139 -37.5 -235.5t-118 -149t-200.5 -52.5q-182 0 -270.5 113t-88.5 324zM202 530q0 -71 2.5 -124t10 -106.5t20 -91.5t33 -72t49.5 -54t68.5 -31.5t90.5 -11.5q50 0 89.5 11.5t68 31.5t48.5 54 t32.5 72t20 91.5t10 106.5t2.5 124q0 70 -2.5 123t-10 107t-20 92.5t-32.5 72.5t-48.5 55t-68 33t-89.5 12q-51 0 -90.5 -12t-68.5 -33t-49.5 -55t-33 -72.5t-20 -92.5t-10 -107t-2.5 -123zM202 1225l211 259h124l212 -259h-80l-193 237l-192 -237h-82z" />
<glyph unicode="&#xf5;" d="M117 412v240q0 209 88.5 320t270.5 111q180 0 268 -111t88 -320v-240q0 -139 -37.5 -235.5t-118 -149t-200.5 -52.5q-182 0 -270.5 113t-88.5 324zM202 530q0 -71 2.5 -124t10 -106.5t20 -91.5t33 -72t49.5 -54t68.5 -31.5t90.5 -11.5q50 0 89.5 11.5t68 31.5t48.5 54 t32.5 72t20 91.5t10 106.5t2.5 124q0 70 -2.5 123t-10 107t-20 92.5t-32.5 72.5t-48.5 55t-68 33t-89.5 12q-51 0 -90.5 -12t-68.5 -33t-49.5 -55t-33 -72.5t-20 -92.5t-10 -107t-2.5 -123zM204 1372q18 73 48.5 118t71.5 64.5t99 19.5q21 0 87 -25t138.5 -50t110.5 -25 q28 0 47 4.5t35.5 16t27.5 31t19 50.5h78q-9 -65 -38 -111t-70.5 -68.5t-93.5 -22.5q-38 0 -169.5 52.5t-162.5 52.5q-117 0 -141 -107h-87z" />
<glyph unicode="&#xf6;" d="M117 412v240q0 209 88.5 320t270.5 111q180 0 268 -111t88 -320v-240q0 -139 -37.5 -235.5t-118 -149t-200.5 -52.5q-182 0 -270.5 113t-88.5 324zM202 530q0 -71 2.5 -124t10 -106.5t20 -91.5t33 -72t49.5 -54t68.5 -31.5t90.5 -11.5q50 0 89.5 11.5t68 31.5t48.5 54 t32.5 72t20 91.5t10 106.5t2.5 124q0 70 -2.5 123t-10 107t-20 92.5t-32.5 72.5t-48.5 55t-68 33t-89.5 12q-51 0 -90.5 -12t-68.5 -33t-49.5 -55t-33 -72.5t-20 -92.5t-10 -107t-2.5 -123zM254 1252v175h95v-175h-95zM602 1252v175h94v-175h-94z" />
<glyph unicode="&#xf7;" d="M56 500v66h837v-66h-837zM415 2v120h117v-120h-117zM415 942v122h117v-122h-117z" />
<glyph unicode="&#xf8;" d="M83 -71l104 164q-24 37 -40 88.5t-21.5 104t-7 78t-1.5 48.5v262v1q0 41 0.5 66t7.5 73t19.5 79t39 70.5t64 63t96 40t132.5 16.5q168 0 269 -98q2 5 41 66.5t56 92.5q2 -2 6.5 -5t9 -6.5t8.5 -6.5l-97 -164q23 -43 36.5 -77t19 -71.5t6.5 -62.5t1 -77v-262 q0 -106 -18.5 -184.5t-59.5 -136t-110.5 -87t-167.5 -29.5q-161 0 -263 96l-101 -159zM202 530q0 -106 6.5 -184.5t27.5 -167.5l455 733q-29 60 -81.5 87t-133.5 27q-45 0 -80.5 -7t-63 -22.5t-48 -36t-35 -53t-23.5 -68.5t-14.5 -86t-7.5 -101.5t-2 -120.5zM259 147 q38 -56 85.5 -82t122.5 -26q39 0 73 6.5t57.5 16.5t43.5 25.5t31.5 28.5t22 31.5t14.5 28t9 24.5l2 4q13 45 20 152t7 174q0 102 -6.5 181t-27.5 170z" />
<glyph unicode="&#xf9;" d="M152 303v761h87v-740v-3v-28.5t4 -44.5t11.5 -55.5t23 -55t37 -50.5t56 -34t77.5 -14q55 0 101 19.5t75 49t49.5 66.5t28.5 70t8 61v759h85v-1064h-65v164q-48 -70 -99.5 -112.5t-101.5 -59.5t-107 -17q-52 0 -94 12.5t-71 35.5t-49.5 52.5t-32.5 67.5t-17.5 77t-5.5 83z M236 1544h162l200 -307h-83z" />
<glyph unicode="&#xfa;" d="M152 303v761h87v-740v-3v-28.5t4 -44.5t11.5 -55.5t23 -55t37 -50.5t56 -34t77.5 -14q55 0 101 19.5t75 49t49.5 66.5t28.5 70t8 61v759h85v-1064h-65v164q-48 -70 -99.5 -112.5t-101.5 -59.5t-107 -17q-52 0 -94 12.5t-71 35.5t-49.5 52.5t-32.5 67.5t-17.5 77t-5.5 83z M493 1315l139 261h163l-197 -261h-105z" />
<glyph unicode="&#xfb;" d="M152 303v761h87v-740v-3v-28.5t4 -44.5t11.5 -55.5t23 -55t37 -50.5t56 -34t77.5 -14q55 0 101 19.5t75 49t49.5 66.5t28.5 70t8 61v759h85v-1064h-65v164q-85 -96 -157 -142.5t-151 -46.5q-52 0 -94 12.5t-71 35.5t-49.5 52.5t-32.5 67.5t-17.5 77t-5.5 83zM202 1225 l211 259h124l212 -259h-80l-193 237l-192 -237h-82z" />
<glyph unicode="&#xfc;" d="M152 303v761h87v-740v-3v-28.5t4 -44.5t11.5 -55.5t23 -55t37 -50.5t56 -34t77.5 -14q55 0 101 19.5t75 49t49.5 66.5t28.5 70t8 61v759h85v-1064h-65v164q-85 -96 -157 -142.5t-151 -46.5q-52 0 -94 12.5t-71 35.5t-49.5 52.5t-32.5 67.5t-17.5 77t-5.5 83zM254 1252 v175h95v-175h-95zM602 1252v175h94v-175h-94z" />
<glyph unicode="&#xfd;" horiz-adv-x="851" d="M42 1064h92l289 -974l284 974h82l-448 -1483h-80l124 392zM437 1315l139 261h190l-225 -261h-104z" />
<glyph unicode="&#xfe;" d="M149 -419v1957h85v-664q67 106 147.5 157.5t159.5 51.5q60 0 108 -16t79.5 -41.5t55 -65t36 -77.5t19.5 -88.5t9 -89t2 -88.5v-87q0 -46 -1 -81.5t-5 -83t-10 -84t-18 -79t-28 -73.5t-40 -61.5t-54.5 -49.5t-71.5 -31t-90 -12q-168 0 -293 206q0 -87 -2.5 -297.5 t-2.5 -302.5h-85zM234 434q0 -98 22 -175.5t59 -124.5t82.5 -71t95.5 -24q56 0 98.5 13.5t71 34t48 59.5t30 73t16 92.5t6.5 101t1 113.5q0 72 -1 115.5t-6.5 103t-16 94.5t-30 75t-48 61t-71.5 35.5t-98 14.5q-31 0 -65 -12.5t-69 -43t-62.5 -74t-45 -112.5t-17.5 -153 v-196z" />
<glyph unicode="&#xff;" horiz-adv-x="851" d="M42 1064h92l289 -974l284 974h82l-448 -1483h-80l124 392zM196 1252v175h95l94 -175h-189zM544 1252v175h95v-175h-95z" />
<glyph unicode="&#x2da;" horiz-adv-x="822" d="M213 1370q0 83 65 145.5t156 62.5q88 0 155 -63.5t67 -145.5q0 -92 -65 -155t-154 -63q-98 0 -161 63t-63 156zM293 1370q0 -24 8.5 -47t25.5 -44t47.5 -33.5t69.5 -12.5q63 0 96.5 41t33.5 95q0 49 -36 88t-101 39q-69 0 -106.5 -37.5t-37.5 -88.5z" />
<glyph unicode="&#x2dc;" horiz-adv-x="788" d="M30 1372q28 109 80.5 155.5t138.5 46.5q22 0 88 -25t138.5 -50t110 -25t61 8.5t41 31t27.5 62.5h78q-7 -49 -25 -87.5t-44.5 -63.5t-60 -38t-72.5 -13q-37 0 -169 52.5t-163 52.5q-117 0 -141 -107h-88z" />
<glyph unicode="&#x401;" horiz-adv-x="887" d="M134 -5v1496h600v-93h-504v-583h485v-87h-485v-642h515v-91h-611zM276 1561v130h85v-130h-85zM520 1561v130h82v-130h-82z" />
<glyph unicode="&#x410;" horiz-adv-x="1035" d="M40 0l414 1496h117l393 -1496h-112l-107 410h-501l-117 -410h-87zM265 493h465l-206 862h-40z" />
<glyph unicode="&#x411;" horiz-adv-x="915" d="M132 0v1496h600v-88h-503v-579q123 37 230 37q162 0 247 -117.5t85 -326.5q0 -422 -335 -422h-324zM229 88h203q139 0 197.5 77t58.5 260q0 353 -231 353q-104 0 -228 -33v-657z" />
<glyph unicode="&#x412;" horiz-adv-x="961" d="M134 0v1496h337q149 0 236.5 -93.5t87.5 -262.5q0 -63 -10.5 -114t-35 -97.5t-68.5 -81.5t-107 -56q261 -95 261 -383q0 -198 -86.5 -303t-250.5 -105h-364zM230 82h250q248 0 248 324q0 343 -301 343q-100 0 -197 -17v-650zM230 837q119 -24 197 -24q264 0 264 300 q0 303 -234 303h-227v-579z" />
<glyph unicode="&#x413;" horiz-adv-x="729" d="M132 0v1496h541v-90h-444v-1406h-97z" />
<glyph unicode="&#x414;" horiz-adv-x="1052" d="M15 90q96 0 151 138t55 372v896h614v-1406h129v-461h-86q10 97 10 371h-797q0 -157 12 -371h-88v461zM213 90h521v1316h-424v-823q0 -325 -97 -449v-44z" />
<glyph unicode="&#x415;" horiz-adv-x="887" d="M132 0v1496h602v-90h-505v-579h484v-85h-484v-652h515v-90h-612z" />
<glyph unicode="&#x416;" horiz-adv-x="1479" d="M101 1422v83q47 12 84 12q118 0 118 -252v-154q0 -117 51 -191v2q59 -87 149 -87q65 0 168 19v642h88v-642q106 -19 165 -19q95 0 149 87v-2q53 71 53 191v154q0 252 116 252q32 0 86 -12v-83q-5 1 -13 2.5t-13.5 2t-11.5 0.5q-78 0 -78 -197v-95q0 -90 -32 -157 t-113 -168q46 -31 76 -54.5t57.5 -49.5t42.5 -53.5t28 -59.5t18.5 -75.5t8 -93t2.5 -119.5q0 -219 20 -305h-91q-31 145 -31 305q0 249 -64 357.5t-216 108.5q-71 0 -159 -22v-749h-88v749q-88 22 -163 22q-150 0 -214.5 -108.5t-64.5 -357.5q0 -181 -29 -305h-93 q22 103 22 305q0 89 2.5 144.5t13 106t24 79.5t43 61.5t61.5 55.5t89 58q-41 52 -64 85t-43.5 73.5t-29 80t-8.5 86.5v95q0 197 -80 197q-4 0 -9.5 -0.5t-13.5 -2t-13 -2.5z" />
<glyph unicode="&#x417;" horiz-adv-x="965" d="M76 332h102q5 -140 66.5 -205.5t187.5 -65.5q303 0 303 343q0 172 -81 253h2q-77 88 -200 88q-69 0 -117 -3v66q40 -6 117 -6q119 0 188 88.5t69 235.5q0 309 -257 309q-120 0 -181.5 -64t-66.5 -193h-107q4 151 104.5 248t263 97t249.5 -110.5t87 -295.5 q0 -245 -237 -351q271 -88 271 -351q0 -213 -98 -327.5t-293 -114.5q-164 0 -264.5 97t-107.5 262z" />
<glyph unicode="&#x418;" horiz-adv-x="1072" d="M129 0v1496h90v-1367l44 122l530 1245h110v-1496h-90v1369l-47 -125l-526 -1244h-111z" />
<glyph unicode="&#x419;" horiz-adv-x="1072" d="M129 0v1496h90v-1370l44 122l539 1248h101v-1496h-90v1369l-47 -125l-532 -1244h-105zM297 1691h84q5 -71 45 -119.5t91 -48.5q54 0 92.5 44.5t44.5 123.5h81q-6 -98 -62.5 -162t-155.5 -64q-100 0 -156 62.5t-64 163.5z" />
<glyph unicode="&#x41a;" horiz-adv-x="969" d="M134 0v1496h96v-642q109 -19 202 -19q86 0 143 78.5t57 197.5v154q0 252 115 252q17 0 88 -12v-83q-14 5 -29 5q-46 0 -67.5 -44t-21.5 -153v-95q0 -97 -27 -164.5t-102 -160.5q42 -25 70.5 -46.5t52.5 -46t39 -53t26 -61.5t16.5 -78.5t7.5 -96.5t2 -123q0 -217 20 -305 h-90q-27 137 -27 305q0 250 -63 358t-215 108q-102 0 -197 -22v-749h-96z" />
<glyph unicode="&#x41b;" horiz-adv-x="988" d="M17 -2v102q53 -14 95 -14q111 0 111 354v1056h600v-1496h-96v1406h-417v-1011q0 -410 -183 -410q-78 0 -110 13z" />
<glyph unicode="&#x41c;" horiz-adv-x="1354" d="M129 0v1496h153l362 -1405h17l359 1405h154v-1496h-80v1447l-52 -105l-339 -1342h-101l-339 1334l-48 106v-1440h-86z" />
<glyph unicode="&#x41d;" horiz-adv-x="1047" d="M132 0v1496h93v-679h560v679h93v-1496h-93v734h-560v-734h-93z" />
<glyph unicode="&#x41e;" horiz-adv-x="1127" d="M97 690v116q0 351 111.5 531t332.5 180q224 0 336 -180t112 -531v-116q0 -709 -448 -709q-150 0 -248.5 79.5t-147 236.5t-48.5 393zM196 710q0 -320 89.5 -483.5t255.5 -163.5q349 0 349 647v76q0 647 -349 647q-166 0 -255.5 -164t-89.5 -483v-76z" />
<glyph unicode="&#x41f;" horiz-adv-x="1032" d="M134 0v1496h727v-1496h-95v1405h-537v-1405h-95z" />
<glyph unicode="&#x420;" horiz-adv-x="903" d="M129 0v1496h267q178 0 284 -110t106 -290q0 -217 -89.5 -330.5t-259.5 -113.5q-126 0 -214 36v-688h-94zM223 783q137 -48 219 -48q242 0 242 355q0 318 -299 318h-162v-625z" />
<glyph unicode="&#x421;" horiz-adv-x="967" d="M97 686v124q0 358 96.5 535.5t292.5 177.5q164 0 263 -93.5t105 -251.5h-98q-5 117 -76.5 187t-178.5 70q-68 0 -125 -48.5t-96.5 -133.5t-61.5 -205.5t-22 -261.5v-71q0 -200 36 -347.5t105 -227t164 -79.5q107 0 177 73t78 198h98q-6 -166 -106.5 -262.5t-261.5 -96.5 q-125 0 -213 87t-132 246.5t-44 379.5z" />
<glyph unicode="&#x422;" horiz-adv-x="879" d="M34 1405v91h781v-91h-348v-1405h-88v1405h-345z" />
<glyph unicode="&#x423;" horiz-adv-x="872" d="M48 1503h99l276 -1230h17l273 1230h97l-345 -1457v2q-34 -144 -90.5 -205.5t-155.5 -61.5q-35 0 -97 31v85q46 -32 83 -32q130 0 178 218z" />
<glyph unicode="&#x424;" horiz-adv-x="1308" d="M74 761q0 170 50 298t142 197t214 69h107v198h87v-198h109q181 0 292.5 -152.5t111.5 -411.5q0 -262 -112 -416.5t-292 -154.5h-109v-217h-87v217h-107q-184 0 -295 154.5t-111 416.5zM171 760.5q0 -495.5 315 -495.5h105v991h-105q-315 0 -315 -495.5zM671 265h103 q316 0 316 495.5t-316 495.5h-103v-991z" />
<glyph unicode="&#x425;" horiz-adv-x="1018" d="M59 0l389 786l-341 710h112l279 -625l281 625h111l-338 -710l375 -786h-107l-322 696q-113 -248 -323 -696h-116z" />
<glyph unicode="&#x426;" horiz-adv-x="1089" d="M132 0v1496h93v-1406h539v1406h97v-1406h132v-461h-86q11 114 11 371h-786z" />
<glyph unicode="&#x427;" horiz-adv-x="908" d="M82 1096v400h97v-413q0 -317 227 -317q129 0 241 34v696h97v-1496h-97v735q-165 -45 -286 -45q-137 0 -208 106t-71 300z" />
<glyph unicode="&#x428;" horiz-adv-x="1477" d="M129 0v1496h94v-1405h446v1405h87v-1405h445v1405h90v-1496h-1162z" />
<glyph unicode="&#x429;" horiz-adv-x="1531" d="M129 0v1496h92v-1406h442v1406h93v-1406h440v1406h92v-1406h142v-461h-86q11 87 11 371h-1226z" />
<glyph unicode="&#x42a;" horiz-adv-x="1057" d="M57 1405v91h309v-659q111 29 219 29q347 0 347 -444q0 -422 -336 -422h-327v1405h-212zM366 88h202q143 0 202.5 77t59.5 260q0 353 -232 353q-140 0 -232 -29v-661z" />
<glyph unicode="&#x42b;" horiz-adv-x="1223" d="M132 0v1496h91v-659q99 29 217 29q346 0 346 -444q0 -422 -334 -422h-320zM223 88h204q139 0 198 76.5t59 260.5q0 353 -230 353q-139 0 -231 -29v-661zM951 0v1496h97v-1496h-97z" />
<glyph unicode="&#x42c;" horiz-adv-x="913" d="M132 0v1496h93v-661q108 31 217 31q347 0 347 -444q0 -422 -335 -422h-322zM225 88h204q139 0 198 76.5t59 260.5q0 353 -230 353q-143 0 -231 -29v-661z" />
<glyph unicode="&#x42d;" horiz-adv-x="969" d="M76 332h102q8 -125 77.5 -198t176.5 -73q303 0 303 681h-396v78h396q0 615 -303 615q-98 0 -169.5 -68t-84.5 -172h-102q7 152 107.5 240t264.5 88q191 0 291 -178t100 -518v-100q0 -754 -391 -754q-164 0 -264.5 97t-107.5 262z" />
<glyph unicode="&#x42e;" horiz-adv-x="1430" d="M127 0v1496h94v-676h183q0 208 55.5 366.5t157 244.5t235.5 86q94 0 175.5 -49.5t138 -135.5t88.5 -205t32 -256v-180q0 -346 -111.5 -528t-322.5 -182q-219 0 -333.5 192.5t-114.5 568.5h-183v-742h-94zM507 728q0 -330 87 -497.5t258 -167.5q334 0 334 665v99 q0 280 -91 443t-243 163q-159 0 -252 -160t-93 -446v-99z" />
<glyph unicode="&#x42f;" horiz-adv-x="959" d="M118 0q9 63 9 249q0 82 2.5 135.5t11 102.5t21 80t36 61t54 52t75.5 47q-37 18 -65 37.5t-49 40t-36 45t-25 50.5t-15 59.5t-7.5 68t-2.5 79.5q0 119 41 206t121.5 135t193.5 48h308v-1496h-93v671q-108 25 -218 25q-128 0 -189 -98h2q-64 -103 -64 -364q0 -125 -14 -234 h-97zM229 1101q0 -342 251 -342q136 0 218 19v634h-220q-133 0 -191 -72t-58 -239z" />
<glyph unicode="&#x430;" horiz-adv-x="852" d="M114 273q0 167 83 260.5t240 93.5h150v178q0 217 -168 217q-73 0 -120 -50.5t-53 -134.5h-84q5 125 65.5 182t182.5 57q78 0 130 -17t82.5 -56t43 -94t12.5 -138v-644q0 -60 8 -127h-73q-10 59 -13 143h-13q-23 -81 -92 -125.5t-160 -44.5q-104 0 -162.5 81.5 t-58.5 218.5zM205 293q0 -99 46.5 -165.5t117.5 -66.5q218 0 218 349v154h-138q-117 0 -180.5 -72.5t-63.5 -198.5z" />
<glyph unicode="&#x431;" horiz-adv-x="918" d="M118 632v134q0 681 314 681h69q135 0 216 61v-77q-11 -12 -21 -19.5t-24.5 -16t-19.5 -11.5h2q-69 -20 -187 -20q-262 0 -262 -510l12 -15q26 88 100.5 147.5t158.5 59.5q152 0 229.5 -120.5t77.5 -359.5v-82q0 -111 -23 -205t-65.5 -161t-105 -105t-137.5 -38 q-334 0 -334 657zM205 526q0 -470 247 -470q110 0 174 118t64 310v82q0 403 -227 403q-258 0 -258 -443z" />
<glyph unicode="&#x432;" horiz-adv-x="881" d="M152 0v1069h311q254 0 254 -264q0 -89 -38 -142t-132 -99q197 -85 197 -291q0 -99 -25.5 -158.5t-80.5 -87t-147 -27.5h-339zM244 61h239q86 0 127.5 48.5t41.5 164.5q0 256 -196 256h-212v-469zM244 588h208q79 0 127 61.5t48 156.5q0 204 -171 204h-212v-422z" />
<glyph unicode="&#x433;" horiz-adv-x="632" d="M156 0v1056h400v-87h-312v-969h-88z" />
<glyph unicode="&#x434;" horiz-adv-x="903" d="M46 78q144 0 144 305v673h515v-978h101v-358h-74q12 72 12 280h-637q0 -215 11 -280h-72v358zM171 78h442v901h-339v-608q0 -172 -103 -293z" />
<glyph unicode="&#x435;" horiz-adv-x="864" d="M117 507q0 564 317 564q96 0 162 -50.5t99 -148.5t33 -240q0 -95 -54 -95h-469v-112q0 -368 232 -368q81 0 135.5 62.5t66.5 162.5h79q-9 -137 -83 -217t-193 -80q-325 0 -325 522zM205 600h434v67q0 156 -55 246t-147 90q-103 0 -167.5 -105t-64.5 -298z" />
<glyph unicode="&#x436;" horiz-adv-x="1289" d="M122 0q22 88 22 223q0 121 49 206t133 132q-47 47 -69.5 109.5t-22.5 114.5v69q0 139 -87 139h-13q-2 5 -2 25v24q0 16 -3 24q22 5 56 5q44 0 69 -20t38 -73.5t13 -150.5q0 -138 30.5 -189t113.5 -51q55 0 138 15v454h86v-454q83 -15 137 -15q82 0 113 51.5t31 188.5 q0 98 14 153t37 73t61 18q48 0 69 -7v-71h-10q-50 0 -74 -31.5t-24 -107.5v-69q0 -34 -8 -70.5t-30.5 -79t-56.5 -74.5q33 -17 64 -38t57.5 -47.5t37.5 -50.5q19 -55 27.5 -217t18.5 -208h-91q-19 112 -19 225q0 301 -205 301q-68 0 -149 -19v-507h-86v507q-88 19 -147 19 q-208 0 -208 -301q0 -137 -19 -225h-91z" />
<glyph unicode="&#x437;" horiz-adv-x="816" d="M114 303h86q8 -254 181 -254q102 0 154 56v-2q50 60 50 187q0 236 -231 236q-17 0 -27 -4v61q25 -2 83 -2q75 0 118 58t43 163q0 210 -178 210q-175 0 -183 -221h-73q7 130 74.5 207.5t183.5 77.5q122 0 189.5 -64t67.5 -192q0 -78 -38 -149.5t-97 -111.5v-14 q73 -32 117 -107t44 -172q0 -95 -34 -161t-100.5 -99t-162.5 -33q-255 0 -267 330z" />
<glyph unicode="&#x438;" horiz-adv-x="948" d="M156 0v1056h84v-970l429 970h100v-1056h-85v981l-425 -981h-103z" />
<glyph unicode="&#x439;" horiz-adv-x="948" d="M156 0v1056h90v-949l38 101q218 491 385 848h100v-1056h-91v942l-38 -98q-14 -30 -47 -104.5t-48 -109t-45.5 -102t-48.5 -108t-46 -102.5t-49.5 -108.5t-47 -102t-49.5 -107.5h-103zM259 1435h61q4 -80 41 -121t104 -41q132 0 147 162h57q-8 -100 -60.5 -156t-143.5 -56 q-61 0 -107 25.5t-71 73t-28 113.5z" />
<glyph unicode="&#x43a;" horiz-adv-x="881" d="M162 0v1056h89v-456q75 -17 144 -17q156 0 156 244q0 97 13.5 152t36 73.5t60.5 18.5q45 0 66 -7v-71h-12q-31 0 -51 -14.5t-30.5 -45.5t-10.5 -79v-69q0 -103 -76 -224q52 -27 86 -64.5t49 -77.5t22.5 -93t8 -100.5t5 -111t14.5 -114.5h-92q-17 92 -17 225 q0 154 -48 224.5t-160 70.5q-72 0 -164 -17v-503h-89z" />
<glyph unicode="&#x43b;" horiz-adv-x="903" d="M46 -4v72q14 -3 45 -3q111 0 111 284v707h526v-1056h-89v979h-351v-588q0 -406 -171 -406q-16 0 -71 11z" />
<glyph unicode="&#x43c;" horiz-adv-x="1182" d="M88 0v1056h169l280 -995h19l283 995h169v-1056h-78v1027l-40 -5l-294 -1022h-96l-295 1022l-36 3v-1025h-81z" />
<glyph unicode="&#x43d;" horiz-adv-x="930" d="M156 0v1056h90v-454h417v454h91v-1056h-91v522h-417v-522h-90z" />
<glyph unicode="&#x43e;" horiz-adv-x="920" d="M114 495v66q0 510 335 510q336 0 336 -510v-66q0 -510 -336 -510q-335 0 -335 510zM204 495q0 -204 65.5 -319t179.5 -115q119 0 183 111.5t64 322.5v66q0 102 -16.5 182.5t-47.5 136t-77.5 84.5t-105.5 29q-117 0 -181 -115t-64 -317v-66z" />
<glyph unicode="&#x43f;" horiz-adv-x="915" d="M152 0v1056h590v-1056h-90v968h-408v-968h-92z" />
<glyph unicode="&#x440;" horiz-adv-x="938" d="M149 1066h81q6 -91 6 -132l10 -36q41 84 114.5 135t147.5 51q300 0 300 -552q0 -545 -293 -545q-79 0 -157 48t-104 123l-10 -24v-529h-92v1268q0 130 -3 193zM236 520q0 -99 19 -187.5t52 -153t81 -102t103 -37.5q102 0 164 128.5t62 351.5q0 509 -237 509 q-112 0 -178 -134t-66 -375z" />
<glyph unicode="&#x441;" horiz-adv-x="813" d="M117 532q0 539 298 539q58 0 106.5 -22t82 -61t53 -92.5t21.5 -116.5h-82q-6 69 -31 118.5t-63.5 74t-86.5 24.5q-95 0 -151 -121.5t-56 -342.5q0 -475 207 -475q73 0 122.5 71t58.5 175h82q-5 -147 -75 -232.5t-188 -85.5q-95 0 -162.5 65t-101.5 187.5t-34 294.5z" />
<glyph unicode="&#x442;" horiz-adv-x="725" d="M61 968v88h591v-88h-252v-968h-91v968h-248z" />
<glyph unicode="&#x443;" horiz-adv-x="837" d="M76 1066h86l238 -932h22q167 636 239 932h86q-79 -288 -216 -797.5t-179 -663.5h-79l95 365q-48 184 -146 548t-146 548z" />
<glyph unicode="&#x444;" horiz-adv-x="1357" d="M107 526q0 253 66 389.5t191 136.5q90 0 156 -43t103 -121v586h84v-586q15 28 31 50.5t34.5 41t39.5 32t44.5 22.5t50.5 13.5t57 4.5q254 0 254 -526q0 -522 -254 -522q-84 0 -152.5 42t-104.5 135v-576h-84v576q-12 -38 -33 -69t-47 -50.5t-57 -33t-61 -19t-61 -5.5 q-257 0 -257 522zM200 526q0 -210 57 -337.5t153 -127.5q45 0 81.5 25t59.5 68t39.5 92t24.5 104t11.5 97.5t3.5 78.5q0 37 -1.5 73t-7 84.5t-15 89.5t-26 83.5t-39 72t-56.5 48t-75 18.5q-210 0 -210 -469zM700 526q0 -38 3.5 -81t11.5 -98t24.5 -104t39.5 -91t59 -66.5 t80 -24.5q39 0 70.5 19.5t52.5 51t37 75t24.5 85.5t14 89.5t7 80.5t1.5 64q0 469 -207 469q-42 0 -76 -19.5t-56.5 -50t-39 -74t-25 -84.5t-14 -90.5t-6.5 -82t-1 -68.5z" />
<glyph unicode="&#x445;" horiz-adv-x="822" d="M86 0l275 552l-249 504h88l200 -436l210 436h86l-248 -504l269 -552h-92l-225 478l-219 -478h-95z" />
<glyph unicode="&#x446;" horiz-adv-x="930" d="M152 0v1056h88v-978h406v978h93v-978h100v-360h-75q7 58 7 282h-619z" />
<glyph unicode="&#x447;" horiz-adv-x="816" d="M114 747v309h82v-287q0 -131 43 -187t142 -56q89 0 170 38v492h91v-1056h-91v526q-84 -59 -197 -59q-141 0 -198 77l2 -3q-44 70 -44 206z" />
<glyph unicode="&#x448;" horiz-adv-x="1251" d="M151 0v1056h85v-978h333v978h85v-978h331v978h86v-1056h-920z" />
<glyph unicode="&#x449;" horiz-adv-x="1266" d="M151 0v1056h85v-978h332v978h86v-978h329v978h88v-978h99v-360h-72q11 65 11 282h-958z" />
<glyph unicode="&#x44a;" horiz-adv-x="920" d="M71 976v80h247v-471q104 32 204 32q126 0 196.5 -84t70.5 -236q0 -297 -279 -297h-280v976h-159zM318 78h197q183 0 183 225q0 238 -178 238q-83 0 -202 -38v-425z" />
<glyph unicode="&#x44b;" horiz-adv-x="1108" d="M151 0v1056h93v-468q79 29 198 29q256 0 256 -312q0 -142 -65.5 -223.5t-183.5 -81.5h-298zM244 73h204q160 0 160 228q0 133 -38 186.5t-136 53.5q-76 0 -190 -33v-435zM839 0v1056h93v-1056h-93z" />
<glyph unicode="&#x44c;" horiz-adv-x="847" d="M152 0v1056h94v-469q88 30 198 30q131 0 202 -83.5t71 -236.5q0 -297 -280 -297h-285zM246 78h193q184 0 184 225q0 241 -181 241q-77 0 -196 -43v-423z" />
<glyph unicode="&#x44d;" horiz-adv-x="813" d="M114 303h86q4 -125 52 -185.5t143 -60.5q101 0 145.5 107.5t44.5 355.5h-248v67h248q0 409 -190 409q-57 0 -100 -24t-67.5 -69.5t-27.5 -107.5h-86q5 127 80 201.5t201 74.5q283 0 283 -486v-63q0 -284 -66 -410.5t-217 -126.5q-274 0 -281 318z" />
<glyph unicode="&#x44e;" horiz-adv-x="1198" d="M149 0v1056h90v-469h167q0 241 85.5 362.5t240.5 121.5q167 0 244.5 -129t77.5 -414q0 -543 -322 -543q-326 0 -326 537h-167v-522h-90zM493 528q0 -471 239 -471q234 0 234 471q0 249 -55 358.5t-179 109.5q-120 0 -179.5 -116t-59.5 -352z" />
<glyph unicode="&#x44f;" horiz-adv-x="869" d="M143 0q4 9 4 46v133q0 234 144 307q-144 97 -144 283q0 133 67.5 210t180.5 77h301v-1056h-91v457q-60 10 -163 10q-208 0 -208 -307q0 -99 -11 -160h-80zM234 769q0 -249 206 -249q95 0 165 25v450h-197q-174 0 -174 -226z" />
<glyph unicode="&#x451;" horiz-adv-x="864" d="M120 501q0 568 314 568q140 0 218 -116.5t78 -327.5q0 -95 -32 -95h-488v-108q0 -177 60 -275t167 -98q80 0 135.5 64.5t66.5 168.5h79q-9 -138 -84 -223.5t-192 -85.5q-322 0 -322 528zM210 591h429v68q0 158 -55 247.5t-147 89.5q-102 0 -163 -100h2q-66 -104 -66 -305 zM240 1227v147h86v-147h-86zM522 1227v147h88v-147h-88z" />
<glyph unicode="&#x10a0;" horiz-adv-x="1079" d="M132 467q0 184 117 331l85 -37q-104 -130 -104 -294q0 -259 102 -349q99 -88 215 -88t209 82q94 82 94 357q0 281 -213 510q-214 230 -214 559h97q0 -307 214 -526q215 -220 215 -543q0 -280 -118.5 -398.5t-283.5 -118.5q-177 0 -298 121q-117 124 -117 394z" />
<glyph unicode="&#x10a1;" horiz-adv-x="1121" d="M132 484q0 266 93 382q95 117 314 146q100 206 -53 318q-151 111 -160 231h128q3 -125 133 -216q132 -91 43 -335q164 -37 261 -147q100 -109 100 -379q0 -267 -122 -401q-121 -131 -310 -131q-96 0 -173.5 32t-134.5 96t-88 166.5t-31 237.5zM230 483q0 -255 97 -354 q99 -97 229 -97q164 0 249 97q85 101 85 354q0 248 -88 347q-89 102 -246 119q-150 -11 -238 -117q-88 -102 -88 -349z" />
<glyph unicode="&#x10a2;" horiz-adv-x="1251" d="M132 495q0 226 141 374q142 149 347 149h24q195 164 195 283q0 94 -73 149q-71 53 -166 53q-115 0 -184 -49.5t-69 -138.5q0 -48 22 -110l-79 -2q-27 57 -27 106q0 120 91.5 194.5t245.5 74.5q156 0 239 -82q83 -84 83 -195q0 -129 -183 -293q166 -55 273 -173 q108 -116 108 -340q0 -241 -144 -390q-148 -153 -361 -153q-215 0 -350 149q-133 148 -133 394zM232 495q0 -236 113 -352q113 -113 272 -113q125 0 216.5 56.5t140 162.5t48.5 251q0 203 -117 323q-115 122 -285 122q-176 0 -282 -118t-106 -332z" />
<glyph unicode="&#x10a3;" horiz-adv-x="1710" d="M132 1098q0 149 43 254t132 163t219 59q190 -3 309 -181q134 185 333 185q175 0 294 -126q117 -124 117 -404q0 -261 -120 -396q-117 -137 -291 -137q-179 0 -297 132q-120 135 -120 405q0 170 49 278q-108 163 -276 166q-139 -2 -216.5 -101.5t-77.5 -296.5 q0 -288 149 -488q150 -200 338 -286q435 -149 545 -354h-162q-26 120 -149 179q-123 61 -231 61q-191 -19 -396 -161v122l354 90v5q-218 85 -381 308q-165 227 -165 524zM854 1052q0 -276 93 -366q96 -90 227 -90q101 0 202 90q101 89 101 360q0 100 -13.5 176.5 t-38.5 129.5t-62 87t-82.5 49t-101.5 15q-138 0 -232 -91q-93 -90 -93 -360z" />
<glyph unicode="&#x10a4;" horiz-adv-x="1135" d="M109 352q0 160 101 319h95q-95 -147 -95 -319q0 -180 108 -251t223 -71q121 0 227 73q106 74 106 253v862q0 178 -93 232q-93 55 -194 55q-134 0 -210 -66.5t-76 -186.5q0 -85 46 -204h-84q-59 82 -59 204q0 139 101 234q98 93 276 93q168 0 278 -88t110 -273v-862 q0 -195 -132 -299q-131 -105 -296 -105q-173 0 -305 113q-127 110 -127 287z" />
<glyph unicode="&#x10a5;" horiz-adv-x="1098" d="M109 361q0 102 66 226h90q-55 -160 -55 -226q0 -165 99 -249q98 -82 232 -82q148 0 239 85.5t91 223.5v149q0 192 -88 264q-83 71 -178 71h-146v70h149q81 0 171 94q92 95 92 236q0 134 -95 207t-229 73q-113 0 -196 -70q-86 -73 -86 -171q0 -66 36 -161h-91 q-44 73 -44 158q0 130 108 224q110 95 271 95q100 0 180.5 -25.5t133.5 -72.5t81 -113t28 -145q0 -216 -240 -355v-17q240 -81 240 -372v-139q0 -162 -107 -274q-108 -113 -320 -113q-184 0 -311 113q-121 112 -121 296z" />
<glyph unicode="&#x10a6;" horiz-adv-x="1159" d="M88 1271q0 120 90 213q87 94 261 94q171 0 262 -97q92 -99 92 -225q0 -91 -40.5 -150.5t-112.5 -102.5q141 -18 263 -134q126 -115 126 -385q0 -294 -133 -413q-137 -119 -308 -119q-163 0 -300 121q-137 124 -137 411q0 47 3.5 87.5t11 79.5t20 73t30.5 65.5t42 59 t55.5 52.5t69.5 46q-104 14 -200 88q-95 74 -95 236zM187 1267q0 -128 82 -198q81 -71 171 -71q120 0 185.5 65.5t65.5 184.5q0 138 -76 196q-73 59 -175 59q-100 0 -177 -59q-76 -56 -76 -177zM251 484q0 -276 117 -364q119 -90 220 -90q99 0 222 90q122 87 122 364 q0 247 -107 351q-106 102 -237 102q-139 0 -237 -108q-100 -109 -100 -345z" />
<glyph unicode="&#x10a7;" horiz-adv-x="1747" d="M132 713q0 571 119 717q120 148 313 148q77 0 141.5 -21t117.5 -68.5t85 -118.5q56 108 135.5 158t185.5 50q174 0 280 -139q107 -141 107 -576q0 -659 -315 -919h-118q332 268 332 919q0 435 -93 535q-95 103 -189 103q-74 0 -128.5 -22t-92 -61.5t-78.5 -106.5 q55 -151 55 -604q0 -439 -118 -597t-307 -158q-195 0 -315 162q-117 165 -117 599zM230 713q0 -417 90 -551q91 -132 239 -132q143 0 236 122q95 124 95 561q0 612 -99 700q-102 90 -232 90q-153 0 -241 -117t-88 -673z" />
<glyph unicode="&#x10a8;" horiz-adv-x="1120" d="M132 813q0 487 125 626t307 139q167 0 297 -141q128 -138 128 -624q0 -551 -218 -845h-124q243 220 243 871q0 435 -101 548q-100 114 -225 114q-132 0 -232 -114q-102 -113 -102 -545q0 -336 61.5 -556.5t184.5 -325.5h-135q-209 302 -209 853z" />
<glyph unicode="&#x10a9;" horiz-adv-x="1101" d="M109 368q0 147 72 220l68 -17q-41 -91 -41 -203q0 -180 114 -258q116 -78 215 -78q106 0 217 71q117 72 117 244v139q0 170 -122 263q-121 95 -223 95h-181v74h183q112 0 209 65q98 66 98 176q0 227 -276 329l22 71q343 -106 343 -391q0 -99 -53 -160t-202 -120v-22 q132 -29 217 -136q83 -106 83 -242v-141q0 -176 -129 -286q-130 -107 -303 -107q-172 0 -301 109q-127 110 -127 305z" />
<glyph unicode="&#x10aa;" horiz-adv-x="2230" d="M132 1130q0 169 89 300q93 129 299 129q59 0 104 -12.5t84.5 -42.5t69.5 -81.5t52 -126.5h5q16 82 42 137.5t63.5 87t81.5 44.5t104 13q115 0 182 -60q67 -59 100 -222h12q14 75 41.5 127t68 81.5t87 42t106.5 12.5q377 0 377 -400q0 -380 -284 -608h-90q273 255 273 608 q0 322 -276 322q-125 0 -197 -100q-70 -94 -70 -230v-265h-82v266q0 174 -64 261.5t-184 87.5q-117 0 -182 -98q-66 -97 -66 -233v-284h-80v284q0 114 -71 211q-73 100 -210 100q-94 0 -191 -83q-96 -84 -96 -270q0 -379 273 -600q273 -219 627 -259q319 -60 473 -286h-166 q-22 144 -347 225q-145 11 -240 -3q-104 -15 -330 -148l-22 105l348 92v19q-280 72 -497 287.5t-217 569.5z" />
<glyph unicode="&#x10ab;" horiz-adv-x="1152" d="M132 476q0 244 116 390q118 146 323 146q201 0 315 -189h10v395q1 136 -78.5 210.5t-219.5 74.5q-136 0 -212.5 -51.5t-76.5 -142.5q0 -60 11 -106l-88 -17q-19 54 -19 127q0 77 46 137t134.5 94t206.5 34q192 0 290.5 -98.5t98.5 -286.5v-751q0 -242 -113.5 -366 t-316.5 -124q-182 0 -305 139q-122 138 -122 385zM230 478q0 -224 96 -337q99 -111 228 -111t235 94q104 94 104 315q0 281 -91 386q-88 109 -233 109q-140 0 -242 -102q-97 -99 -97 -354z" />
<glyph unicode="&#x10ac;" horiz-adv-x="1155" d="M164 483v801q0 256 388 256h134q156 0 156 39h122q0 -108 -278 -108h-166q-263 0 -263 -187v-461h12q106 189 326 189q215 0 322.5 -137t107.5 -392q0 -254 -116 -392.5t-314 -138.5q-206 0 -318.5 131.5t-112.5 399.5zM263 483q0 -233 85 -343t252 -110q322 0 322 453 q0 251 -93 352q-94 102 -221 102q-166 0 -255.5 -111t-89.5 -343z" />
<glyph unicode="&#x10ad;" horiz-adv-x="1697" d="M132 846q0 482 125 606q129 126 273 126q235 0 305 -246h19q81 246 312 246q159 0 281 -126q119 -123 119 -608q0 -632 -387 -883h-140q432 254 432 889q0 445 -95 548t-206 103q-130 0 -204.5 -88.5t-74.5 -270.5v-546h-85v546q0 92 -20 161.5t-57 112.5t-86 64t-111 21 q-113 0 -208 -103q-94 -98 -94 -552q0 -627 393 -885h-130q-361 252 -361 885z" />
<glyph unicode="&#x10ae;" horiz-adv-x="1096" d="M109 376q0 122 60 244l75 -37q-36 -98 -36 -207q0 -176 102 -262q108 -84 231 -84q122 0 223 87q103 88 103 289q0 189 -120 292q-117 102 -223 102h-92v67h92q106 0 186 72q83 73 83 166q0 166 -258 221q-255 58 -255 248h99q0 -132 251 -198q253 -63 253 -282 q0 -163 -237 -248v-26q107 -29 180 -90.5t106.5 -143.5t33.5 -182q0 -205 -116 -328q-118 -124 -309 -124q-187 0 -311 114q-121 112 -121 310z" />
<glyph unicode="&#x10af;" horiz-adv-x="1152" d="M132 337q0 187 98 286l54 -52q-54 -81 -54 -232q0 -158 105 -234q107 -75 229 -75q110 0 221 87q108 87 108 271v1113h-22q-224 -67 -519 -96v-18q302 -60 302 -262q0 -123 -78.5 -193.5t-224.5 -70.5h-146v91l146 -10q57 2 94.5 11t66 30.5t41.5 58.5t13 93 q0 94 -109 156q-105 66 -247 66v91q414 32 697 128h82v-1185q0 -226 -132 -332q-130 -107 -293 -107q-158 0 -295 104q-137 103 -137 281z" />
<glyph unicode="&#x10b0;" horiz-adv-x="1694" d="M134 588q-3 189 54 329q57 138 241 339q185 201 619 299v-98q-495 -84 -736 -444l92 51q70 37 137 37q88 0 145.5 -25.5t94.5 -76t65 -138.5h27q36 126 108.5 183t190.5 57q392 0 392 -513q0 -387 -356 -617h-127q386 261 386 617q0 247 -89 342q-88 97 -206 97 q-109 0 -193 -92q-81 -89 -81 -201v-339h-81v339q0 110 -80 201q-77 92 -202 92q-116 0 -209 -93q-94 -91 -94 -346q0 -355 381 -627h-127q-352 242 -352 627z" />
<glyph unicode="&#x10b1;" horiz-adv-x="1155" d="M164 457v1104h97v-1104q-3 -232 95 -331q99 -97 239 -97q132 0 230 74q97 76 97 293q0 188 -146 328q-146 143 -146 265q0 92 58 238l103 -38q-78 -113 -78 -186q0 -110 156 -249q156 -135 156 -358q0 -208 -113 -326t-317 -118q-202 0 -316.5 133.5t-114.5 371.5z" />
<glyph unicode="&#x10b2;" horiz-adv-x="1355" d="M109 722q0 346 165 526q165 183 389 183l-34 177h113l-37 -177q205 0 374 -183q168 -180 168 -526q0 -351 -147 -560q-147 -210 -422 -210q-244 0 -407 208q-162 206 -162 562zM210 722q0 -343 148 -518q151 -174 330 -174q191 0 325 174q138 177 138 518q0 303 -128 474 q-125 171 -318 191l37 -728h-113l34 728q-197 -20 -326 -189q-127 -167 -127 -476z" />
<glyph unicode="&#x10b3;" horiz-adv-x="1196" d="M65 1456v116l116 -42q25 0 84 24t96 24q120 0 178 -208q63 208 220 208q130 0 202 -78t72 -223v-908q0 -195 -117 -306t-318 -111q-178 0 -305 113q-120 111 -120 311q0 191 105 346h84q-88 -175 -88 -341q0 -181 95 -267q96 -84 229 -84q135 0 239 75q102 77 102 278 v926q0 127 -46 164q-43 36 -132 36q-106 0 -144 -78q-36 -76 -36 -158v-275h-78v275q0 84 -36 160q-34 76 -106 76q-44 0 -87 -26q-42 -27 -101 -27h-108z" />
<glyph unicode="&#x10b4;" horiz-adv-x="1618" d="M132 1096q0 212 102 346q104 136 294 136q193 0 295 -185q105 179 319 179q162 0 254 -103t92 -299q0 -303 -231 -442v-11q207 -107 207 -269v-87q0 -183 -134 -296q-135 -113 -378 -113q-234 0 -373 97q-140 99 -140 275v55h105l-3 -55q-3 -146 104.5 -220t305.5 -74 t305.5 81.5t107.5 249.5v81q-8 100 -73 171q-66 75 -136 75h-116v68h120q67 0 150 120q82 122 82 294q0 181 -76 252q-74 74 -180 74q-182 0 -281 -164q44 -153 44 -234q0 -239 -102.5 -374.5t-278.5 -135.5q-164 0 -275 132q-110 134 -110 376zM230 1094q0 -245 82 -332 q84 -89 205 -89q120 0 203 83q85 87 85 338q0 98 -21 176t-58 128.5t-87.5 76.5t-110.5 26q-123 0 -210 -93q-88 -91 -88 -314z" />
<glyph unicode="&#x10b5;" horiz-adv-x="1135" d="M109 326q0 117 84 226l64 -49q-47 -75 -47 -177q0 -130 99.5 -213.5t231.5 -83.5q122 0 228 83q107 85 107 250v539q3 77 -87 189q-89 112 -244 108q-60 1 -106.5 -14.5t-76.5 -45t-45.5 -70.5t-15.5 -92q0 -83 31 -153l-84 -8q-40 61 -40 161q-2 134 90 216t247 82 q189 0 321 -193h12v407h-266v74h357v-1200q0 -192 -122 -301q-120 -109 -306 -109q-173 0 -302 104q-130 106 -130 270z" />
<glyph unicode="&#x10b6;" horiz-adv-x="1626" d="M132 1090q0 240 97.5 364t271.5 124q116 0 190 -57t119 -174h13q28 78 67.5 128t96.5 76.5t133 26.5q190 0 283 -115t93 -326q0 -332 -239 -568h-98q242 208 242 561q0 204 -86 288q-83 83 -195 83q-78 0 -138.5 -35.5t-94 -98t-33.5 -142.5v-251h-78v251q0 122 -75 199 t-200 77q-118 0 -194 -93q-77 -91 -77 -318q26 -524 448 -745q378 -136 477 -360h-157q-66 224 -293 261q-265 -19 -393 -173l-51 85q163 117 362 120v19q-240 125 -363 323t-128 470z" />
<glyph unicode="&#x10b7;" horiz-adv-x="1133" d="M109 339q0 87 51 193l88 -32q-38 -92 -38 -161q0 -139 99 -225q101 -84 232 -84q135 0 237 79q100 81 100 232v482h-12q-161 -132 -314 -132q-187 0 -293.5 105t-106.5 283q0 118 58 224q59 110 224 246h98q-208 -192 -244 -280q-37 -87 -37 -193q0 -167 94 -239 q96 -75 207 -75q126 0 226 80q100 81 100 212v481h90v-1194q0 -177 -118 -284q-116 -105 -309 -105q-164 0 -299 99q-133 98 -133 288z" />
<glyph unicode="&#x10b8;" horiz-adv-x="1157" d="M109 1257v63q0 122 60 190t157 68q140 0 209 -165h10q72 165 202 165q128 0 187 -82q61 -86 61 -191v-821q0 -292 -124 -413q-125 -119 -305 -119q-133 0 -229.5 62.5t-148 183t-51.5 286.5q0 266 110.5 397t318.5 131q194 0 322 -189h15v486q0 97 -46.5 149.5t-113 52.5 t-116.5 -64q-51 -63 -51 -142v-135h-73v135q0 80 -40 142q-40 65 -136 62q-134 0 -134 -196v-56h-84zM236 484q0 -258 86 -357q88 -97 237 -97q137 0 241 90q103 88 103 364q0 230 -89 340.5t-255 110.5q-76 0 -134.5 -26t-101 -80t-65 -141t-22.5 -204z" />
<glyph unicode="&#x10b9;" horiz-adv-x="1154" d="M164 -42v1220q0 189 83 294.5t248 105.5q151 0 227 -82q78 -82 78 -185q0 -92 -41 -162h-75q19 66 19 162q0 61 -27 104t-75 64t-113 21q-116 0 -173.5 -78t-57.5 -252v-341h16q131 183 322 183q206 0 316 -122q112 -122 112 -294q0 -331 -310 -630h-126q335 283 335 622 q0 170 -95 258.5t-232 88.5q-126 0 -233 -100q-105 -99 -105 -235v-642h-93z" />
<glyph unicode="&#x10ba;" horiz-adv-x="1276" d="M132 815q0 425 202 747h105q-209 -318 -209 -749q0 -485 126 -635q127 -148 300 -148q159 0 276 113q114 115 114 297q0 168 -135 263q-135 97 -235 97h-110v74h110q98 0 214 65q118 67 118 203q0 96 -149 190q-146 95 -146 230h89q0 -105 145 -192q147 -89 147 -230 q0 -198 -284 -301v-9q335 -117 335 -391q0 -210 -139 -349q-141 -138 -362 -138q-222 0 -368 180q-144 177 -144 683z" />
<glyph unicode="&#x10bb;" horiz-adv-x="1154" d="M132 483q0 280 116 403q118 126 311 126q203 0 314 -189h23v732h95v-1072q0 -255 -111 -393t-321 -138q-188 0 -310 126q-117 129 -117 405zM230 483q0 -260 90 -357q93 -96 239 -96q161 0 249 94t88 359q0 226 -89.5 339t-250.5 113q-110 0 -180.5 -44t-108 -145 t-37.5 -263z" />
<glyph unicode="&#x10bc;" horiz-adv-x="1157" d="M164 484v775q0 156 63 237.5t188 81.5q126 0 200 -165h10q66 165 207 165q99 0 158.5 -67.5t59.5 -190.5v-107h-84v100q0 196 -136 196q-93 1 -133.5 -60.5t-40.5 -189.5v-43h-73v43q0 118 -48.5 185t-115.5 67q-65 0 -114 -49q-48 -49 -48 -200v-423h17q124 173 321 173 q209 0 318.5 -131t109.5 -397q0 -251 -114 -391.5t-314 -140.5q-182 0 -307 119q-124 121 -124 413zM257 484q0 -275 104 -364q107 -90 239 -90q150 0 235 97q87 98 87 357q0 231 -84 341t-238 110q-159 0 -251 -100t-92 -351z" />
<glyph unicode="&#x10bd;" horiz-adv-x="1120" d="M132 307q0 127 37 179l88 -2q-27 -62 -27 -177q0 -150 102 -217q102 -65 227 -65q140 0 234 82q97 83 97 244q0 141 -145 367q-128 201 -143 416h-198q-92 0 -140.5 -53t-48.5 -132q0 -72 51 -122.5t140 -50.5h94v-73h-94q-116 0 -194 71q-80 72 -80 177q0 106 76 179 q78 75 196 75h196v283h-200v65h286v-348h236v-71h-236q11 -228 151 -419q152 -207 152 -364q0 -171 -120 -285q-121 -114 -310 -114q-195 0 -311 105t-116 250z" />
<glyph unicode="&#x10be;" horiz-adv-x="1155" d="M164 488v1067h93v-733h17q136 190 322 190q210 0 319.5 -136t109.5 -390q0 -265 -124 -400q-123 -134 -306 -134q-173 0 -302 124q-129 125 -129 412zM257 486q0 -260 104 -359q105 -97 241 -97q151 0 235.5 112t84.5 344q0 260 -82 354q-81 95 -238 95 q-106 0 -184.5 -55.5t-119.5 -156.5t-41 -237z" />
<glyph unicode="&#x10bf;" horiz-adv-x="948" d="M88 -39v102q553 32 556 291q6 109 -108.5 162t-347.5 50l-53 44l292 400l-337 169l59 58l322 -161l100 136q82 104 42 184t-122 95q-75 0 -142 -47l-59 48q79 67 203 67q140 -15 195 -128q55 -116 -27 -238l-114 -145l314 -162l-44 -64l-309 154l-245 -341 q468 -9 476 -279q0 -340 -651 -395z" />
<glyph unicode="&#x10c0;" horiz-adv-x="1098" d="M109 341q0 94 60 187l71 -48q-32 -36 -32 -141q3 -123 101 -217q100 -95 228 -95q133 0 231 83q99 83 99 251q0 301 -488 384v82q166 -24 282 -82q50 -25 108 16q60 40 60 125q0 153 -451 219v81q143 -14 247 -56q50 -14 105 22q55 41 55 113q0 92 -231 143 q-228 51 -228 158h108q0 -75 223 -119q226 -44 226 -185q0 -108 -144 -166q185 -99 185 -223q0 -117 -162 -183q206 -132 206 -326q0 -192 -114 -302t-317 -110q-220 3 -325 134q-103 134 -103 255z" />
<glyph unicode="&#x10c1;" horiz-adv-x="1164" d="M152 398v566q0 364 139 583h104q-151 -175 -151 -588v-563q0 -84 24 -151t71 -115t119 -74t165 -26q134 0 211 56.5t77 143.5q0 153 -269 153h-90v69h90q254 0 254 139q0 141 -269 141h-75v68h75q259 0 259 142q0 139 -273 139h-61v64h61q260 0 260 153q0 78 -102 137 q-88 58 -88 112h95q0 -56 96 -114q95 -58 95 -130q0 -137 -164 -188q178 -48 178 -173.5t-178 -179.5q190 -48 190 -167q0 -125 -178 -180q193 -52 193 -186q0 -76 -32 -130.5t-94 -85.5q-127 -61 -261 -61q-235 0 -353 116t-118 330z" />
<glyph unicode="&#x10c2;" horiz-adv-x="1076" d="M132 -22q105 0 346 110q-346 261 -346 820q0 377 125 523q126 147 302 147q173 0 302 -147q128 -145 128 -523q0 -280 -86 -485t-259 -335q237 -110 345 -110v-112q-27 0 -425 183q-195 -87 -306 -132.5t-124 -45.5h-2v107zM225 911q0 -564 334 -784q337 209 337 781 q0 307 -98 449q-98 143 -239 143q-137 0 -237 -143q-97 -142 -97 -446z" />
<glyph unicode="&#x10c3;" horiz-adv-x="1121" d="M134 369q-3 129 54 263h96q-52 -163 -52 -263q0 -151 94.5 -245t232.5 -94q145 0 239 97q93 97 93 222v175q0 164 -113 247q-115 86 -219 86h-149v80h144q91 0 214 120t123 431h-622v-307h-96v378h818q0 -518 -344 -658v-11q344 -102 344 -366v-175q0 -164 -128 -281 q-127 -116 -304 -116q-166 0 -298 113q-127 110 -127 304z" />
<glyph unicode="&#x10c4;" horiz-adv-x="1121" d="M132 1578h100q0 -106 66.5 -176t172.5 -70q240 0 420 246h100v-155q0 -499 -301 -594v-12q301 -83 301 -369v-57q0 -241 -134 -340q-132 -99 -296 -99q-171 0 -300 124q-127 123 -127 286q0 161 54 246h92q-48 -121 -48 -246q0 -145 100 -240q100 -92 229 -92 q136 0 234 77q98 76 98 284v57q0 181 -104 257q-105 78 -204 78h-146v80h146q99 0 204 99q106 99 102 511q-190 -214 -420 -214q-156 0 -247.5 89.5t-91.5 229.5z" />
<glyph unicode="&#x10c5;" horiz-adv-x="1116" d="M132 307q0 157 116 262t387 105h261v224h-252q-138 0 -236.5 22t-159 66t-88.5 106.5t-28 147.5q0 149 110 243q111 95 312 95q192 0 313 -92q122 -87 122 -261v-251h128v-76h-128v-224h128v-76h-128v-278q0 -181 -135 -276q-136 -92 -300 -92q-211 0 -315 105 q-107 107 -107 250zM230 307q0 -88 41.5 -151.5t114 -94.5t168.5 -31q144 0 244 87q98 84 98 200v281h-264q-223 0 -312 -85q-90 -87 -90 -206zM230 1240q0 -145 97 -205.5t320 -60.5h249v251q0 115 -98 195q-95 81 -244 81q-147 0 -235.5 -66t-88.5 -195z" />
<glyph unicode="&#x10d0;" horiz-adv-x="1079" d="M132 467q0 184 117 331l85 -37q-104 -130 -104 -294q0 -259 102 -349q99 -88 215 -88t209 82q94 82 94 357q0 281 -213 510q-214 230 -214 559h97q0 -307 214 -526q215 -220 215 -543q0 -280 -118.5 -398.5t-283.5 -118.5q-177 0 -298 121q-117 124 -117 394z" />
<glyph unicode="&#x10d1;" horiz-adv-x="1121" d="M132 484q0 266 93 382q95 117 314 146q100 206 -53 318q-151 111 -160 231h128q3 -125 133 -216q132 -91 43 -335q164 -37 261 -147q100 -109 100 -379q0 -267 -122 -401q-121 -131 -310 -131q-96 0 -173.5 32t-134.5 96t-88 166.5t-31 237.5zM230 483q0 -255 97 -354 q99 -97 229 -97q164 0 249 97q85 101 85 354q0 248 -88 347q-89 102 -246 119q-150 -11 -238 -117q-88 -102 -88 -349z" />
<glyph unicode="&#x10d2;" horiz-adv-x="1251" d="M132 495q0 226 141 374q142 149 347 149h24q195 164 195 283q0 94 -73 149q-71 53 -166 53q-115 0 -184 -49.5t-69 -138.5q0 -48 22 -110l-79 -2q-27 57 -27 106q0 120 91.5 194.5t245.5 74.5q156 0 239 -82q83 -84 83 -195q0 -129 -183 -293q166 -55 273 -173 q108 -116 108 -340q0 -241 -144 -390q-148 -153 -361 -153q-215 0 -350 149q-133 148 -133 394zM232 495q0 -236 113 -352q113 -113 272 -113q125 0 216.5 56.5t140 162.5t48.5 251q0 203 -117 323q-115 122 -285 122q-176 0 -282 -118t-106 -332z" />
<glyph unicode="&#x10d3;" horiz-adv-x="1710" d="M132 1098q0 149 43 254t132 163t219 59q190 -3 309 -181q134 185 333 185q175 0 294 -126q117 -124 117 -404q0 -261 -120 -396q-117 -137 -291 -137q-179 0 -297 132q-120 135 -120 405q0 170 49 278q-108 163 -276 166q-139 -2 -216.5 -101.5t-77.5 -296.5 q0 -288 149 -488q150 -200 338 -286q435 -149 545 -354h-162q-26 120 -149 179q-123 61 -231 61q-191 -19 -396 -161v122l354 90v5q-218 85 -381 308q-165 227 -165 524zM854 1052q0 -276 93 -366q96 -90 227 -90q101 0 202 90q101 89 101 360q0 100 -13.5 176.5 t-38.5 129.5t-62 87t-82.5 49t-101.5 15q-138 0 -232 -91q-93 -90 -93 -360z" />
<glyph unicode="&#x10d4;" horiz-adv-x="1135" d="M109 352q0 160 101 319h95q-95 -147 -95 -319q0 -180 108 -251t223 -71q121 0 227 73q106 74 106 253v862q0 178 -93 232q-93 55 -194 55q-134 0 -210 -66.5t-76 -186.5q0 -85 46 -204h-84q-59 82 -59 204q0 139 101 234q98 93 276 93q168 0 278 -88t110 -273v-862 q0 -195 -132 -299q-131 -105 -296 -105q-173 0 -305 113q-127 110 -127 287z" />
<glyph unicode="&#x10d5;" horiz-adv-x="1098" d="M109 361q0 102 66 226h90q-55 -160 -55 -226q0 -165 99 -249q98 -82 232 -82q148 0 239 85.5t91 223.5v149q0 192 -88 264q-83 71 -178 71h-146v70h149q81 0 171 94q92 95 92 236q0 134 -95 207t-229 73q-113 0 -196 -70q-86 -73 -86 -171q0 -66 36 -161h-91 q-44 73 -44 158q0 130 108 224q110 95 271 95q100 0 180.5 -25.5t133.5 -72.5t81 -113t28 -145q0 -216 -240 -355v-17q240 -81 240 -372v-139q0 -162 -107 -274q-108 -113 -320 -113q-184 0 -311 113q-121 112 -121 296z" />
<glyph unicode="&#x10d6;" horiz-adv-x="1159" d="M88 1271q0 120 90 213q87 94 261 94q171 0 262 -97q92 -99 92 -225q0 -91 -40.5 -150.5t-112.5 -102.5q141 -18 263 -134q126 -115 126 -385q0 -294 -133 -413q-137 -119 -308 -119q-163 0 -300 121q-137 124 -137 411q0 47 3.5 87.5t11 79.5t20 73t30.5 65.5t42 59 t55.5 52.5t69.5 46q-104 14 -200 88q-95 74 -95 236zM187 1267q0 -128 82 -198q81 -71 171 -71q120 0 185.5 65.5t65.5 184.5q0 138 -76 196q-73 59 -175 59q-100 0 -177 -59q-76 -56 -76 -177zM251 484q0 -276 117 -364q119 -90 220 -90q99 0 222 90q122 87 122 364 q0 247 -107 351q-106 102 -237 102q-139 0 -237 -108q-100 -109 -100 -345z" />
<glyph unicode="&#x10d7;" horiz-adv-x="1747" d="M132 713q0 571 119 717q120 148 313 148q77 0 141.5 -21t117.5 -68.5t85 -118.5q56 108 135.5 158t185.5 50q174 0 280 -139q107 -141 107 -576q0 -659 -315 -919h-118q332 268 332 919q0 435 -93 535q-95 103 -189 103q-74 0 -128.5 -22t-92 -61.5t-78.5 -106.5 q55 -151 55 -604q0 -439 -118 -597t-307 -158q-195 0 -315 162q-117 165 -117 599zM230 713q0 -417 90 -551q91 -132 239 -132q143 0 236 122q95 124 95 561q0 612 -99 700q-102 90 -232 90q-153 0 -241 -117t-88 -673z" />
<glyph unicode="&#x10d8;" horiz-adv-x="1120" d="M132 813q0 487 125 626t307 139q167 0 297 -141q128 -138 128 -624q0 -551 -218 -845h-124q243 220 243 871q0 435 -101 548q-100 114 -225 114q-132 0 -232 -114q-102 -113 -102 -545q0 -336 61.5 -556.5t184.5 -325.5h-135q-209 302 -209 853z" />
<glyph unicode="&#x10d9;" horiz-adv-x="1101" d="M109 368q0 147 72 220l68 -17q-41 -91 -41 -203q0 -180 114 -258q116 -78 215 -78q106 0 217 71q117 72 117 244v139q0 170 -122 263q-121 95 -223 95h-181v74h183q112 0 209 65q98 66 98 176q0 227 -276 329l22 71q343 -106 343 -391q0 -99 -53 -160t-202 -120v-22 q132 -29 217 -136q83 -106 83 -242v-141q0 -176 -129 -286q-130 -107 -303 -107q-172 0 -301 109q-127 110 -127 305z" />
<glyph unicode="&#x10da;" horiz-adv-x="2230" d="M132 1130q0 169 89 300q93 129 299 129q59 0 104 -12.5t84.5 -42.5t69.5 -81.5t52 -126.5h5q16 82 42 137.5t63.5 87t81.5 44.5t104 13q115 0 182 -60q67 -59 100 -222h12q14 75 41.5 127t68 81.5t87 42t106.5 12.5q377 0 377 -400q0 -380 -284 -608h-90q273 255 273 608 q0 322 -276 322q-125 0 -197 -100q-70 -94 -70 -230v-265h-82v266q0 174 -64 261.5t-184 87.5q-117 0 -182 -98q-66 -97 -66 -233v-284h-80v284q0 114 -71 211q-73 100 -210 100q-94 0 -191 -83q-96 -84 -96 -270q0 -379 273 -600q273 -219 627 -259q319 -60 473 -286h-166 q-22 144 -347 225q-145 11 -240 -3q-104 -15 -330 -148l-22 105l348 92v19q-280 72 -497 287.5t-217 569.5z" />
<glyph unicode="&#x10db;" horiz-adv-x="1152" d="M132 476q0 244 116 390q118 146 323 146q201 0 315 -189h10v395q1 136 -78.5 210.5t-219.5 74.5q-136 0 -212.5 -51.5t-76.5 -142.5q0 -60 11 -106l-88 -17q-19 54 -19 127q0 77 46 137t134.5 94t206.5 34q192 0 290.5 -98.5t98.5 -286.5v-751q0 -242 -113.5 -366 t-316.5 -124q-182 0 -305 139q-122 138 -122 385zM230 478q0 -224 96 -337q99 -111 228 -111t235 94q104 94 104 315q0 281 -91 386q-88 109 -233 109q-140 0 -242 -102q-97 -99 -97 -354z" />
<glyph unicode="&#x10dc;" horiz-adv-x="1155" d="M164 483v801q0 256 388 256h134q156 0 156 39h122q0 -108 -278 -108h-166q-263 0 -263 -187v-461h12q106 189 326 189q215 0 322.5 -137t107.5 -392q0 -254 -116 -392.5t-314 -138.5q-206 0 -318.5 131.5t-112.5 399.5zM263 483q0 -233 85 -343t252 -110q322 0 322 453 q0 251 -93 352q-94 102 -221 102q-166 0 -255.5 -111t-89.5 -343z" />
<glyph unicode="&#x10dd;" horiz-adv-x="1697" d="M132 846q0 482 125 606q129 126 273 126q235 0 305 -246h19q81 246 312 246q159 0 281 -126q119 -123 119 -608q0 -632 -387 -883h-140q432 254 432 889q0 445 -95 548t-206 103q-130 0 -204.5 -88.5t-74.5 -270.5v-546h-85v546q0 92 -20 161.5t-57 112.5t-86 64t-111 21 q-113 0 -208 -103q-94 -98 -94 -552q0 -627 393 -885h-130q-361 252 -361 885z" />
<glyph unicode="&#x10de;" horiz-adv-x="1096" d="M109 376q0 122 60 244l75 -37q-36 -98 -36 -207q0 -176 102 -262q108 -84 231 -84q122 0 223 87q103 88 103 289q0 189 -120 292q-117 102 -223 102h-92v67h92q106 0 186 72q83 73 83 166q0 166 -258 221q-255 58 -255 248h99q0 -132 251 -198q253 -63 253 -282 q0 -163 -237 -248v-26q107 -29 180 -90.5t106.5 -143.5t33.5 -182q0 -205 -116 -328q-118 -124 -309 -124q-187 0 -311 114q-121 112 -121 310z" />
<glyph unicode="&#x10df;" horiz-adv-x="1152" d="M132 337q0 187 98 286l54 -52q-54 -81 -54 -232q0 -158 105 -234q107 -75 229 -75q110 0 221 87q108 87 108 271v1113h-22q-224 -67 -519 -96v-18q302 -60 302 -262q0 -123 -78.5 -193.5t-224.5 -70.5h-146v91l146 -10q57 2 94.5 11t66 30.5t41.5 58.5t13 93 q0 94 -109 156q-105 66 -247 66v91q414 32 697 128h82v-1185q0 -226 -132 -332q-130 -107 -293 -107q-158 0 -295 104q-137 103 -137 281z" />
<glyph unicode="&#x10e0;" horiz-adv-x="1694" d="M134 588q-3 189 54 329q57 138 241 339q185 201 619 299v-98q-495 -84 -736 -444l92 51q70 37 137 37q88 0 145.5 -25.5t94.5 -76t65 -138.5h27q36 126 108.5 183t190.5 57q392 0 392 -513q0 -387 -356 -617h-127q386 261 386 617q0 247 -89 342q-88 97 -206 97 q-109 0 -193 -92q-81 -89 -81 -201v-339h-81v339q0 110 -80 201q-77 92 -202 92q-116 0 -209 -93q-94 -91 -94 -346q0 -355 381 -627h-127q-352 242 -352 627z" />
<glyph unicode="&#x10e1;" horiz-adv-x="1155" d="M164 457v1104h97v-1104q-3 -232 95 -331q99 -97 239 -97q132 0 230 74q97 76 97 293q0 188 -146 328q-146 143 -146 265q0 92 58 238l103 -38q-78 -113 -78 -186q0 -110 156 -249q156 -135 156 -358q0 -208 -113 -326t-317 -118q-202 0 -316.5 133.5t-114.5 371.5z" />
<glyph unicode="&#x10e2;" horiz-adv-x="1355" d="M109 722q0 346 165 526q165 183 389 183l-34 177h113l-37 -177q205 0 374 -183q168 -180 168 -526q0 -351 -147 -560q-147 -210 -422 -210q-244 0 -407 208q-162 206 -162 562zM210 722q0 -343 148 -518q151 -174 330 -174q191 0 325 174q138 177 138 518q0 303 -128 474 q-125 171 -318 191l37 -728h-113l34 728q-197 -20 -326 -189q-127 -167 -127 -476z" />
<glyph unicode="&#x10e3;" horiz-adv-x="1196" d="M65 1456v116l116 -42q25 0 84 24t96 24q120 0 178 -208q63 208 220 208q130 0 202 -78t72 -223v-908q0 -195 -117 -306t-318 -111q-178 0 -305 113q-120 111 -120 311q0 191 105 346h84q-88 -175 -88 -341q0 -181 95 -267q96 -84 229 -84q135 0 239 75q102 77 102 278 v926q0 127 -46 164q-43 36 -132 36q-106 0 -144 -78q-36 -76 -36 -158v-275h-78v275q0 84 -36 160q-34 76 -106 76q-44 0 -87 -26q-42 -27 -101 -27h-108z" />
<glyph unicode="&#x10e4;" horiz-adv-x="1618" d="M132 1096q0 212 102 346q104 136 294 136q193 0 295 -185q105 179 319 179q162 0 254 -103t92 -299q0 -303 -231 -442v-11q207 -107 207 -269v-87q0 -183 -134 -296q-135 -113 -378 -113q-234 0 -373 97q-140 99 -140 275v55h105l-3 -55q-3 -146 104.5 -220t305.5 -74 t305.5 81.5t107.5 249.5v81q-8 100 -73 171q-66 75 -136 75h-116v68h120q67 0 150 120q82 122 82 294q0 181 -76 252q-74 74 -180 74q-182 0 -281 -164q44 -153 44 -234q0 -239 -102.5 -374.5t-278.5 -135.5q-164 0 -275 132q-110 134 -110 376zM230 1094q0 -245 82 -332 q84 -89 205 -89q120 0 203 83q85 87 85 338q0 98 -21 176t-58 128.5t-87.5 76.5t-110.5 26q-123 0 -210 -93q-88 -91 -88 -314z" />
<glyph unicode="&#x10e5;" horiz-adv-x="1135" d="M109 326q0 117 84 226l64 -49q-47 -75 -47 -177q0 -130 99.5 -213.5t231.5 -83.5q122 0 228 83q107 85 107 250v539q3 77 -87 189q-89 112 -244 108q-60 1 -106.5 -14.5t-76.5 -45t-45.5 -70.5t-15.5 -92q0 -83 31 -153l-84 -8q-40 61 -40 161q-2 134 90 216t247 82 q189 0 321 -193h12v407h-266v74h357v-1200q0 -192 -122 -301q-120 -109 -306 -109q-173 0 -302 104q-130 106 -130 270z" />
<glyph unicode="&#x10e6;" horiz-adv-x="1626" d="M132 1090q0 240 97.5 364t271.5 124q116 0 190 -57t119 -174h13q28 78 67.5 128t96.5 76.5t133 26.5q190 0 283 -115t93 -326q0 -332 -239 -568h-98q242 208 242 561q0 204 -86 288q-83 83 -195 83q-78 0 -138.5 -35.5t-94 -98t-33.5 -142.5v-251h-78v251q0 122 -75 199 t-200 77q-118 0 -194 -93q-77 -91 -77 -318q26 -524 448 -745q378 -136 477 -360h-157q-66 224 -293 261q-265 -19 -393 -173l-51 85q163 117 362 120v19q-240 125 -363 323t-128 470z" />
<glyph unicode="&#x10e7;" horiz-adv-x="1133" d="M109 339q0 87 51 193l88 -32q-38 -92 -38 -161q0 -139 99 -225q101 -84 232 -84q135 0 237 79q100 81 100 232v482h-12q-161 -132 -314 -132q-187 0 -293.5 105t-106.5 283q0 118 58 224q59 110 224 246h98q-208 -192 -244 -280q-37 -87 -37 -193q0 -167 94 -239 q96 -75 207 -75q126 0 226 80q100 81 100 212v481h90v-1194q0 -177 -118 -284q-116 -105 -309 -105q-164 0 -299 99q-133 98 -133 288z" />
<glyph unicode="&#x10e8;" horiz-adv-x="1157" d="M109 1257v63q0 122 60 190t157 68q140 0 209 -165h10q72 165 202 165q128 0 187 -82q61 -86 61 -191v-821q0 -292 -124 -413q-125 -119 -305 -119q-133 0 -229.5 62.5t-148 183t-51.5 286.5q0 266 110.5 397t318.5 131q194 0 322 -189h15v486q0 97 -46.5 149.5t-113 52.5 t-116.5 -64q-51 -63 -51 -142v-135h-73v135q0 80 -40 142q-40 65 -136 62q-134 0 -134 -196v-56h-84zM236 484q0 -258 86 -357q88 -97 237 -97q137 0 241 90q103 88 103 364q0 230 -89 340.5t-255 110.5q-76 0 -134.5 -26t-101 -80t-65 -141t-22.5 -204z" />
<glyph unicode="&#x10e9;" horiz-adv-x="1154" d="M164 -42v1220q0 189 83 294.5t248 105.5q151 0 227 -82q78 -82 78 -185q0 -92 -41 -162h-75q19 66 19 162q0 61 -27 104t-75 64t-113 21q-116 0 -173.5 -78t-57.5 -252v-341h16q131 183 322 183q206 0 316 -122q112 -122 112 -294q0 -331 -310 -630h-126q335 283 335 622 q0 170 -95 258.5t-232 88.5q-126 0 -233 -100q-105 -99 -105 -235v-642h-93z" />
<glyph unicode="&#x10ea;" horiz-adv-x="1276" d="M132 815q0 425 202 747h105q-209 -318 -209 -749q0 -485 126 -635q127 -148 300 -148q159 0 276 113q114 115 114 297q0 168 -135 263q-135 97 -235 97h-110v74h110q98 0 214 65q118 67 118 203q0 96 -149 190q-146 95 -146 230h89q0 -105 145 -192q147 -89 147 -230 q0 -198 -284 -301v-9q335 -117 335 -391q0 -210 -139 -349q-141 -138 -362 -138q-222 0 -368 180q-144 177 -144 683z" />
<glyph unicode="&#x10eb;" horiz-adv-x="1154" d="M132 483q0 280 116 403q118 126 311 126q203 0 314 -189h23v732h95v-1072q0 -255 -111 -393t-321 -138q-188 0 -310 126q-117 129 -117 405zM230 483q0 -260 90 -357q93 -96 239 -96q161 0 249 94t88 359q0 226 -89.5 339t-250.5 113q-110 0 -180.5 -44t-108 -145 t-37.5 -263z" />
<glyph unicode="&#x10ec;" horiz-adv-x="1157" d="M164 484v775q0 156 63 237.5t188 81.5q126 0 200 -165h10q66 165 207 165q99 0 158.5 -67.5t59.5 -190.5v-107h-84v100q0 196 -136 196q-93 1 -133.5 -60.5t-40.5 -189.5v-43h-73v43q0 118 -48.5 185t-115.5 67q-65 0 -114 -49q-48 -49 -48 -200v-423h17q124 173 321 173 q209 0 318.5 -131t109.5 -397q0 -251 -114 -391.5t-314 -140.5q-182 0 -307 119q-124 121 -124 413zM257 484q0 -275 104 -364q107 -90 239 -90q150 0 235 97q87 98 87 357q0 231 -84 341t-238 110q-159 0 -251 -100t-92 -351z" />
<glyph unicode="&#x10ed;" horiz-adv-x="1120" d="M132 307q0 127 37 179l88 -2q-27 -62 -27 -177q0 -150 102 -217q102 -65 227 -65q140 0 234 82q97 83 97 244q0 141 -145 367q-128 201 -143 416h-198q-92 0 -140.5 -53t-48.5 -132q0 -72 51 -122.5t140 -50.5h94v-73h-94q-116 0 -194 71q-80 72 -80 177q0 106 76 179 q78 75 196 75h196v283h-200v65h286v-348h236v-71h-236q11 -228 151 -419q152 -207 152 -364q0 -171 -120 -285q-121 -114 -310 -114q-195 0 -311 105t-116 250z" />
<glyph unicode="&#x10ee;" horiz-adv-x="1155" d="M164 488v1067h93v-733h17q136 190 322 190q210 0 319.5 -136t109.5 -390q0 -265 -124 -400q-123 -134 -306 -134q-173 0 -302 124q-129 125 -129 412zM257 486q0 -260 104 -359q105 -97 241 -97q151 0 235.5 112t84.5 344q0 260 -82 354q-81 95 -238 95 q-106 0 -184.5 -55.5t-119.5 -156.5t-41 -237z" />
<glyph unicode="&#x10ef;" horiz-adv-x="948" d="M88 -39v102q553 32 556 291q6 109 -108.5 162t-347.5 50l-53 44l292 400l-337 169l59 58l322 -161l100 136q82 104 42 184t-122 95q-75 0 -142 -47l-59 48q79 67 203 67q140 -15 195 -128q55 -116 -27 -238l-114 -145l314 -162l-44 -64l-309 154l-245 -341 q468 -9 476 -279q0 -340 -651 -395z" />
<glyph unicode="&#x10f0;" horiz-adv-x="1098" d="M109 341q0 94 60 187l71 -48q-32 -36 -32 -141q3 -123 101 -217q100 -95 228 -95q133 0 231 83q99 83 99 251q0 301 -488 384v82q166 -24 282 -82q50 -25 108 16q60 40 60 125q0 153 -451 219v81q143 -14 247 -56q50 -14 105 22q55 41 55 113q0 92 -231 143 q-228 51 -228 158h108q0 -75 223 -119q226 -44 226 -185q0 -108 -144 -166q185 -99 185 -223q0 -117 -162 -183q206 -132 206 -326q0 -192 -114 -302t-317 -110q-220 3 -325 134q-103 134 -103 255z" />
<glyph unicode="&#x10f1;" horiz-adv-x="1164" d="M152 398v566q0 364 139 583h104q-151 -175 -151 -588v-563q0 -84 24 -151t71 -115t119 -74t165 -26q134 0 211 56.5t77 143.5q0 153 -269 153h-90v69h90q254 0 254 139q0 141 -269 141h-75v68h75q259 0 259 142q0 139 -273 139h-61v64h61q260 0 260 153q0 78 -102 137 q-88 58 -88 112h95q0 -56 96 -114q95 -58 95 -130q0 -137 -164 -188q178 -48 178 -173.5t-178 -179.5q190 -48 190 -167q0 -125 -178 -180q193 -52 193 -186q0 -76 -32 -130.5t-94 -85.5q-127 -61 -261 -61q-235 0 -353 116t-118 330z" />
<glyph unicode="&#x10f2;" horiz-adv-x="1076" d="M132 -22q105 0 346 110q-346 261 -346 820q0 377 125 523q126 147 302 147q173 0 302 -147q128 -145 128 -523q0 -280 -86 -485t-259 -335q237 -110 345 -110v-112q-27 0 -425 183q-195 -87 -306 -132.5t-124 -45.5h-2v107zM225 911q0 -564 334 -784q337 209 337 781 q0 307 -98 449q-98 143 -239 143q-137 0 -237 -143q-97 -142 -97 -446z" />
<glyph unicode="&#x10f3;" horiz-adv-x="1121" d="M134 369q-3 129 54 263h96q-52 -163 -52 -263q0 -151 94.5 -245t232.5 -94q145 0 239 97q93 97 93 222v175q0 164 -113 247q-115 86 -219 86h-149v80h144q91 0 214 120t123 431h-622v-307h-96v378h818q0 -518 -344 -658v-11q344 -102 344 -366v-175q0 -164 -128 -281 q-127 -116 -304 -116q-166 0 -298 113q-127 110 -127 304z" />
<glyph unicode="&#x10f4;" horiz-adv-x="1121" d="M132 1578h100q0 -106 66.5 -176t172.5 -70q240 0 420 246h100v-155q0 -499 -301 -594v-12q301 -83 301 -369v-57q0 -241 -134 -340q-132 -99 -296 -99q-171 0 -300 124q-127 123 -127 286q0 161 54 246h92q-48 -121 -48 -246q0 -145 100 -240q100 -92 229 -92 q136 0 234 77q98 76 98 284v57q0 181 -104 257q-105 78 -204 78h-146v80h146q99 0 204 99q106 99 102 511q-190 -214 -420 -214q-156 0 -247.5 89.5t-91.5 229.5z" />
<glyph unicode="&#x10f5;" horiz-adv-x="1116" d="M132 307q0 157 116 262t387 105h261v224h-252q-138 0 -236.5 22t-159 66t-88.5 106.5t-28 147.5q0 149 110 243q111 95 312 95q192 0 313 -92q122 -87 122 -261v-251h128v-76h-128v-224h128v-76h-128v-278q0 -181 -135 -276q-136 -92 -300 -92q-211 0 -315 105 q-107 107 -107 250zM230 307q0 -88 41.5 -151.5t114 -94.5t168.5 -31q144 0 244 87q98 84 98 200v281h-264q-223 0 -312 -85q-90 -87 -90 -206zM230 1240q0 -145 97 -205.5t320 -60.5h249v251q0 115 -98 195q-95 81 -244 81q-147 0 -235.5 -66t-88.5 -195z" />
<glyph unicode="&#x10fb;" horiz-adv-x="874" d="M97 103q0 38 28 68.5t71 30.5q42 0 70.5 -29t28.5 -70q0 -45 -29 -74t-70 -29q-40 0 -69.5 30.5t-29.5 72.5zM97 756q0 39 28 68.5t71 29.5q41 0 70 -28.5t29 -69.5q0 -44 -29 -73t-70 -29q-26 0 -49 14t-36.5 37.5t-13.5 50.5zM579 429q0 40 28 69.5t71 29.5 q42 0 71 -28.5t29 -70.5q0 -22 -8 -41.5t-21.5 -33t-32 -21t-38.5 -7.5q-39 0 -69 31.5t-30 71.5z" />
<glyph unicode="&#x2000;" horiz-adv-x="911" />
<glyph unicode="&#x2001;" horiz-adv-x="1823" />
<glyph unicode="&#x2002;" horiz-adv-x="911" />
<glyph unicode="&#x2003;" horiz-adv-x="1823" />
<glyph unicode="&#x2004;" horiz-adv-x="607" />
<glyph unicode="&#x2005;" horiz-adv-x="455" />
<glyph unicode="&#x2006;" horiz-adv-x="303" />
<glyph unicode="&#x2007;" horiz-adv-x="303" />
<glyph unicode="&#x2008;" horiz-adv-x="227" />
<glyph unicode="&#x2009;" horiz-adv-x="364" />
<glyph unicode="&#x200a;" horiz-adv-x="101" />
<glyph unicode="&#x2010;" horiz-adv-x="791" d="M107 498v83h579v-83h-579z" />
<glyph unicode="&#x2011;" horiz-adv-x="791" d="M107 498v83h579v-83h-579z" />
<glyph unicode="&#x2012;" horiz-adv-x="1320" d="M0 408v112h1386v-112h-1386z" />
<glyph unicode="&#x2013;" horiz-adv-x="964" d="M-22 393v87h1007v-87h-1007z" />
<glyph unicode="&#x2014;" horiz-adv-x="1357" d="M-22 393v87h1401v-87h-1401z" />
<glyph unicode="&#x2018;" horiz-adv-x="537" d="M152 1187q0 101 52.5 208.5t144.5 191.5l34 -35q-78 -89 -111 -156.5t-33 -126.5q0 -10 3 -27t4 -24q2 4 17 4h11q38 0 65 -23.5t27 -61.5q0 -52 -30 -77t-70 -25q-114 0 -114 152z" />
<glyph unicode="&#x2019;" horiz-adv-x="537" d="M152 1069q78 92 110.5 156.5t32.5 123.5q0 20 -4 54q-2 -2 -17 -2h-11q-39 0 -66.5 22.5t-27.5 60.5q0 48 30.5 75.5t69.5 27.5q53 0 83.5 -38.5t30.5 -115.5q0 -105 -51 -208t-144 -190z" />
<glyph unicode="&#x201a;" horiz-adv-x="537" d="M152 -334q53 62 84 111t45 89.5t14 79.5q0 20 -4 54q-2 -2 -17 -2h-11q-39 0 -66.5 23t-27.5 61q0 48 30.5 73.5t69.5 25.5q53 0 83.5 -37t30.5 -114q0 -104 -51 -208t-144 -190z" />
<glyph unicode="&#x201c;" horiz-adv-x="662" d="M65 1178q0 102 52 208.5t144 189.5l34 -36q-147 -163 -151 -286l-1 -53l44 9q38 0 62 -22.5t24 -61.5q0 -53 -27.5 -78t-66.5 -25q-114 0 -114 155zM395 1178q0 101 51 207t142 191l37 -36q-53 -61 -85.5 -111t-48 -92t-15.5 -81v-53l39 7q40 0 67.5 -23t27.5 -61 q0 -53 -30.5 -78t-71.5 -25q-113 0 -113 155z" />
<glyph unicode="&#x201d;" horiz-adv-x="857" d="M152 1061q53 62 84 110t45 89t14 82q0 17 -4 51q-2 -2 -17 -2h-11q-39 0 -66.5 22.5t-27.5 60.5q0 50 30.5 77t69.5 27q53 0 83.5 -38t30.5 -117q0 -103 -51 -207t-144 -191zM473 1061q53 61 84.5 110t44.5 89t13 82q0 25 -3 51q-2 -2 -17 -2h-10q-39 0 -66.5 22.5 t-27.5 60.5q0 50 29.5 77t70.5 27q112 0 112 -155q0 -104 -51.5 -208.5t-143.5 -189.5z" />
<glyph unicode="&#x201e;" horiz-adv-x="857" d="M152 -334q53 62 84 111t45 89.5t14 79.5q0 20 -4 54q-2 -2 -17 -2h-11q-39 0 -66.5 23t-27.5 61q0 48 30.5 73.5t69.5 25.5q53 0 83.5 -37t30.5 -114q0 -104 -51 -208t-144 -190zM473 -334q78 91 110 155.5t32 124.5q0 28 -3 54q-2 -2 -17 -2h-10q-39 0 -66.5 23 t-27.5 61q0 48 29.5 73.5t70.5 25.5q112 0 112 -151q0 -104 -51.5 -209.5t-143.5 -188.5z" />
<glyph unicode="&#x2020;" horiz-adv-x="1159" d="M120 644v88l417 107v478h95v-487l408 -108v-87l-415 109v-1013h-97v1020z" />
<glyph unicode="&#x2022;" horiz-adv-x="1095" d="M371 608q0 70 53 122.5t123 52.5q46 0 87 -24t64.5 -64.5t23.5 -86.5q0 -74 -51.5 -125t-123.5 -51q-71 0 -123.5 51t-52.5 125z" />
<glyph unicode="&#x2026;" horiz-adv-x="1181" d="M74 103q0 39 29 69t72 30q28 0 50.5 -13t35.5 -36t13 -50q0 -45 -29 -74t-70 -29t-71 30.5t-30 72.5zM491 103q0 19 7.5 37t20.5 32t31.5 22t40.5 8q41 0 70 -29t29 -70q0 -45 -29 -74t-70 -29t-70.5 30.5t-29.5 72.5zM907 103q0 39 29 69t72 30q27 0 50 -13t36 -36 t13 -50q0 -45 -29 -74t-70 -29q-42 0 -71.5 30.5t-29.5 72.5z" />
<glyph unicode="&#x202f;" horiz-adv-x="364" />
<glyph unicode="&#x2039;" horiz-adv-x="788" d="M147 493l373 498h105l-322 -498l320 -491h-103z" />
<glyph unicode="&#x203a;" horiz-adv-x="788" d="M164 2l322 498l-322 491h102l363 -488l-363 -501h-102z" />
<glyph unicode="&#x205f;" horiz-adv-x="455" />
<glyph unicode="&#x20ac;" horiz-adv-x="1159" d="M29 595v79h135v29q0 69 7 124h-142v80h156q20 118 71.5 220.5t130.5 180.5t191 123.5t242 45.5q171 0 302 -76l-32 -84q-117 72 -280 72q-86 0 -161 -24t-133 -67t-103.5 -103.5t-75.5 -132.5t-46 -155h738v-80h-751q-5 -48 -5 -114v-39h756v-79h-751q21 -160 94 -275 t182.5 -172t245.5 -57q162 0 313 90l29 -76q-155 -105 -353 -105q-131 0 -241 46t-187 126.5t-125.5 188.5t-64.5 234h-142z" />
<glyph unicode="&#x2116;" horiz-adv-x="1931" d="M97 254h81q19 -58 57.5 -104.5t71.5 -46.5q58 0 97.5 47.5t39.5 118.5v1127h-210v90h310l571 -1139l63 -142v1104q0 97 66.5 170t151.5 73q82 0 147.5 -62t87.5 -158h-97q-9 26 -23 49t-31.5 41.5t-39 29t-44.5 10.5q-56 0 -92.5 -46.5t-36.5 -106.5v-1282h-97l-574 1152 l-64 163v-1073q0 -61 -26 -116t-76 -90.5t-112 -35.5q-77 0 -140 66.5t-81 160.5zM1412 727q0 64 26.5 120.5t81 93.5t127.5 37q75 0 131.5 -38t84.5 -95t28 -123q0 -109 -65.5 -182t-178.5 -73q-53 0 -97.5 20.5t-74 56t-46.5 83t-17 100.5zM1430 93v92h441v-92h-441z M1492 717q0 -33 12.5 -63.5t33.5 -52.5t49.5 -35.5t59.5 -13.5q81 0 121 47t40 128q0 61 -46.5 110t-115 49t-111.5 -50t-43 -119z" />
<glyph unicode="&#x2122;" horiz-adv-x="1392" d="M76 1430v70h520v-70h-218v-527h-83v527h-219zM625 903l51 597h122l153 -387q29 -77 44 -124h3l42 120l155 391h120l57 -597h-125v532h-5q-2 -8 -6.5 -18.5l-10.5 -24.5t-9 -23l-13 -41q-4 -8 -14 -37l-149 -380h-93l-200 524h-3l-37 -126v-406h-82z" />
<glyph unicode="&#x25fc;" horiz-adv-x="1066" d="M0 0v1067h1067v-1067h-1067z" />
</font>
</defs>
</svg>
