<?xml version="1.0" standalone="no"?>
<!DOCTYPE svg PUBLIC "-//W3C//DTD SVG 1.1//EN" "http://www.w3.org/Graphics/SVG/1.1/DTD/svg11.dtd" >
<svg xmlns="http://www.w3.org/2000/svg">
<metadata></metadata>
<defs>
<font id="bpg_mrgvlovani_capsregular" horiz-adv-x="0" >
<font-face units-per-em="2048" ascent="1556" descent="-492" />
<missing-glyph horiz-adv-x="651" />
<glyph unicode="&#xd;" horiz-adv-x="682" />
<glyph unicode=" "  horiz-adv-x="651" />
<glyph unicode="&#x09;" horiz-adv-x="651" />
<glyph unicode="&#xa0;" horiz-adv-x="651" />
<glyph unicode="!" horiz-adv-x="821" d="M309 0v254h203v-254h-203zM309 838v655h203v-655l-20 -357h-162z" />
<glyph unicode="&#x22;" horiz-adv-x="942" d="M197 938v555h170v-555h-170zM575 938v555h170v-555h-170z" />
<glyph unicode="#" horiz-adv-x="1716" d="M158 414v153h352l84 334h-322v154h361l102 415h162l-104 -415h292l105 415h160l-103 -415h312v-154h-351l-82 -334h318v-153h-357l-104 -414h-160l103 414h-293l-103 -414h-161l104 414h-315zM672 567h293l82 334h-291z" />
<glyph unicode="$" horiz-adv-x="1303" d="M170 92v180q102 -64 206.5 -96.5t215.5 -33.5v456q-221 36 -321.5 122t-100.5 236q0 163 109 257t313 108v235h100v-232q93 -4 180 -19.5t170 -42.5v-175q-83 42 -170.5 65t-179.5 27v-427q227 -35 334 -125t107 -246q0 -169 -113.5 -266.5t-327.5 -112.5v-303h-100 l-1 301q-105 2 -210 24.5t-211 67.5zM354 973q0 -86 56.5 -134t181.5 -69v410q-116 -13 -177 -66t-61 -141zM692 145q127 17 191.5 72t64.5 145q0 88 -61.5 140t-194.5 76v-433z" />
<glyph unicode="%" horiz-adv-x="1946" d="M113 1114q0 186 93 296t251 110t252 -109.5t94 -296.5q0 -189 -93.5 -298t-252.5 -109t-251.5 109.5t-92.5 297.5zM272 1114q0 -132 49 -206t136 -74t136.5 74t49.5 206q0 129 -50 204t-136 75t-135.5 -74.5t-49.5 -204.5zM426 -29l934 1549h160l-934 -1549h-160z M1143 377q0 188 93.5 297.5t252.5 109.5q158 0 251 -110t93 -297t-93.5 -296.5t-250.5 -109.5q-160 0 -253 109.5t-93 296.5zM1303 377q0 -130 49.5 -204.5t136.5 -74.5q85 0 134.5 74.5t49.5 204.5q0 131 -49.5 205.5t-134.5 74.5q-87 0 -136.5 -74t-49.5 -206z" />
<glyph unicode="&#x26;" horiz-adv-x="1597" d="M129 461q0 128 67 240.5t201 211.5q-48 63 -73 125.5t-25 122.5q0 162 111 260.5t295 98.5q83 0 165.5 -18t167.5 -54v-182q-87 47 -166 71.5t-147 24.5q-105 0 -170.5 -55.5t-65.5 -143.5q0 -51 29.5 -102.5t120.5 -145.5l508 -520q59 89 92 190.5t39 215.5h186 q-12 -132 -64 -261t-145 -255l279 -285h-252l-143 147q-104 -89 -218 -132.5t-245 -43.5q-241 0 -394 137.5t-153 352.5zM322 473q0 -146 106 -243t266 -97q95 0 178 31.5t156 95.5l-530 543q-91 -81 -133.5 -161.5t-42.5 -168.5z" />
<glyph unicode="'" horiz-adv-x="563" d="M197 938v555h170v-555h-170z" />
<glyph unicode="(" horiz-adv-x="799" d="M176 643q0 223 74 449t225 462h160q-134 -230 -199 -455t-65 -456t65.5 -457.5t198.5 -455.5h-160q-150 235 -224.5 462t-74.5 451z" />
<glyph unicode=")" horiz-adv-x="799" d="M164 -270q133 229 198.5 455.5t65.5 457.5t-65.5 456t-198.5 455h160q150 -236 224.5 -462t74.5 -449q0 -224 -74.5 -451t-224.5 -462h-160z" />
<glyph unicode="*" horiz-adv-x="1024" d="M61 858l359 195l-359 194l58 99l336 -203v377h114v-377l336 203l58 -99l-359 -194l359 -195l-58 -98l-336 203v-377h-114v377l-336 -203z" />
<glyph unicode="+" horiz-adv-x="1716" d="M217 557v170h557v557h168v-557h557v-170h-557v-557h-168v557h-557z" />
<glyph unicode="," horiz-adv-x="651" d="M158 -238l82 320v172h211v-172l-164 -320h-129z" />
<glyph unicode="-" horiz-adv-x="739" d="M100 479v164h539v-164h-539z" />
<glyph unicode="." horiz-adv-x="651" d="M219 0v254h211v-254h-211z" />
<glyph unicode="/" horiz-adv-x="690" d="M0 -190l520 1683h170l-520 -1683h-170z" />
<glyph unicode="0" horiz-adv-x="1303" d="M135 745q0 378 132.5 576.5t383.5 198.5t383.5 -198.5t132.5 -576.5q0 -377 -132.5 -575.5t-383.5 -198.5t-383.5 198.5t-132.5 575.5zM338 745q0 -307 78.5 -460.5t234.5 -153.5q157 0 235.5 153.5t78.5 460.5q0 308 -78.5 461.5t-235.5 153.5q-156 0 -234.5 -153.5 t-78.5 -461.5z" />
<glyph unicode="1" horiz-adv-x="1303" d="M225 1237v184l357 72h202v-1323h330v-170h-860v170h330v1139z" />
<glyph unicode="2" horiz-adv-x="1303" d="M150 0v170q115 119 313.5 319.5t249.5 258.5q97 109 135.5 184.5t38.5 148.5q0 119 -83.5 194t-217.5 75q-95 0 -200.5 -33t-225.5 -100v204q122 49 228 74t194 25q232 0 370 -116t138 -310q0 -92 -34.5 -174.5t-125.5 -194.5q-25 -29 -159 -167.5t-378 -387.5h705v-170 h-948z" />
<glyph unicode="3" horiz-adv-x="1303" d="M156 45v195q84 -49 184 -74t209 -25q190 0 289.5 75t99.5 218q0 132 -92.5 206.5t-257.5 74.5h-174v166h182q149 0 228 59.5t79 171.5q0 115 -81.5 176.5t-233.5 61.5q-83 0 -178 -18t-209 -56v180q115 32 215.5 48t189.5 16q230 0 364 -104.5t134 -282.5 q0 -124 -71 -209.5t-202 -118.5q145 -31 226.5 -129t81.5 -242q0 -221 -152 -342t-432 -121q-94 0 -193.5 18.5t-205.5 55.5z" />
<glyph unicode="4" horiz-adv-x="1303" d="M100 352v195l621 946h254v-973h213v-168h-213v-352h-201v352h-674zM264 520h510v797z" />
<glyph unicode="5" horiz-adv-x="1303" d="M158 35v203q90 -49 186 -73t203 -24q173 0 274 91t101 247t-101 247t-274 91q-81 0 -161.5 -18t-164.5 -56v750h793v-170h-608v-366q44 15 88 22.5t88 7.5q250 0 396 -137t146 -371q0 -241 -150 -374.5t-423 -133.5q-94 0 -191.5 16t-201.5 48z" />
<glyph unicode="6" horiz-adv-x="1303" d="M143 745q0 354 168 564.5t451 210.5q76 0 153.5 -15t161.5 -45v-184q-76 36 -153.5 55t-153.5 19q-200 0 -305.5 -135t-120.5 -408q59 87 148 133.5t196 46.5q225 0 355.5 -136.5t130.5 -371.5q0 -230 -136 -369t-362 -139q-259 0 -396 198.5t-137 575.5zM381 479 q0 -161 79.5 -254.5t215.5 -93.5t215.5 93.5t79.5 254.5q0 162 -79.5 255t-215.5 93t-215.5 -93t-79.5 -255z" />
<glyph unicode="7" horiz-adv-x="1303" d="M168 1323v170h960v-86l-542 -1407h-211l510 1323h-717z" />
<glyph unicode="8" horiz-adv-x="1303" d="M139 420q0 143 82 242t228 133q-130 32 -202.5 121t-72.5 217q0 179 127.5 283t349.5 104q223 0 350 -104t127 -283q0 -128 -72.5 -217t-201.5 -121q146 -34 227.5 -133t81.5 -242q0 -217 -132.5 -333t-379.5 -116t-379.5 116t-132.5 333zM342 420q0 -135 82.5 -212 t226.5 -77t227 77.5t83 211.5q0 135 -82.5 212t-227.5 77q-144 0 -226.5 -77t-82.5 -212zM375 1114q0 -116 72.5 -181t203.5 -65q130 0 203.5 65t73.5 181t-73.5 181t-203.5 65q-131 0 -203.5 -65t-72.5 -181z" />
<glyph unicode="9" horiz-adv-x="1303" d="M129 1012q0 230 136 369t362 139q259 0 395.5 -198.5t136.5 -576.5q0 -353 -167.5 -563.5t-450.5 -210.5q-76 0 -154 15t-162 45v184q76 -36 154 -55t153 -19q200 0 305.5 134.5t120.5 408.5q-58 -86 -147 -132t-197 -46q-224 0 -354.5 135.5t-130.5 370.5zM332 1012 q0 -162 79.5 -255t215.5 -93t215.5 93t79.5 255q0 161 -79.5 254.5t-215.5 93.5t-215.5 -93.5t-79.5 -254.5z" />
<glyph unicode=":" horiz-adv-x="690" d="M240 0v254h211v-254h-211zM240 805v254h211v-254h-211z" />
<glyph unicode=";" horiz-adv-x="690" d="M158 -238l82 320v172h211v-172l-164 -320h-129zM240 805v254h211v-254h-211z" />
<glyph unicode="&#x3c;" horiz-adv-x="1716" d="M217 559v166l1282 465v-182l-1032 -367l1032 -365v-182z" />
<glyph unicode="=" horiz-adv-x="1716" d="M217 352v170h1282v-170h-1282zM217 762v168h1282v-168h-1282z" />
<glyph unicode="&#x3e;" horiz-adv-x="1716" d="M217 94v182l1030 365l-1030 367v182l1282 -465v-166z" />
<glyph unicode="?" horiz-adv-x="1087" d="M147 1219v188q94 57 190.5 85t199.5 28q184 0 295.5 -97t111.5 -256q0 -76 -36 -144.5t-126 -154.5l-88 -86q-47 -47 -66.5 -73.5t-27.5 -51.5q-6 -21 -9 -51t-3 -82v-123h-191v154q0 101 28 166t118 151l90 89q57 53 82.5 100t25.5 96q0 89 -65.5 144t-173.5 55 q-79 0 -168.5 -35t-186.5 -102zM391 0v254h203v-254h-203z" />
<glyph unicode="@" horiz-adv-x="2048" d="M135 543q0 182 68 347t194 290q129 127 298 194.5t358 67.5q212 0 393.5 -87t304.5 -247q75 -98 114.5 -213t39.5 -238q0 -263 -159 -415t-439 -158v154q-60 -77 -137.5 -113.5t-180.5 -36.5q-172 0 -279.5 124.5t-107.5 324.5t108 325t279 125q103 0 181 -37.5 t137 -113.5v131h143v-736q146 22 228.5 133.5t82.5 288.5q0 107 -31.5 201t-95.5 174q-104 131 -253.5 200.5t-325.5 69.5q-123 0 -236 -32.5t-209 -96.5q-157 -102 -245.5 -267.5t-88.5 -358.5q0 -159 57.5 -298t166.5 -245q105 -104 243 -158.5t295 -54.5 q129 0 253.5 43.5t228.5 124.5l90 -111q-125 -97 -272.5 -148.5t-299.5 -51.5q-185 0 -349 65.5t-292 190.5t-195 289.5t-67 353.5zM762 537q0 -143 71 -224.5t195 -81.5q123 0 193.5 82t70.5 224q0 140 -72 222.5t-194 82.5q-121 0 -192.5 -82t-71.5 -223z" />
<glyph unicode="A" horiz-adv-x="1401" d="M16 0l570 1493h229l569 -1493h-210l-136 383h-673l-136 -383h-213zM426 551h549l-275 743z" />
<glyph unicode="B" horiz-adv-x="1405" d="M201 0v1493h516q231 0 356 -96t125 -273q0 -137 -64 -218t-188 -101q149 -32 231.5 -133.5t82.5 -253.5q0 -200 -136 -309t-387 -109h-536zM403 166h324q163 0 241.5 67.5t78.5 206.5q0 140 -78.5 206.5t-241.5 66.5h-324v-547zM403 877h299q148 0 220.5 55.5t72.5 169.5 q0 113 -72.5 169t-220.5 56h-299v-450z" />
<glyph unicode="C" horiz-adv-x="1430" d="M115 745q0 360 195 567.5t534 207.5q134 0 252.5 -35.5t222.5 -106.5v-213q-102 95 -217.5 142t-245.5 47q-256 0 -392 -156.5t-136 -452.5q0 -295 136 -451.5t392 -156.5q130 0 245.5 47t217.5 142v-211q-106 -72 -224.5 -108t-250.5 -36q-339 0 -534 207.5t-195 566.5z " />
<glyph unicode="D" horiz-adv-x="1577" d="M201 0v1493h415q434 0 637 -180.5t203 -564.5q0 -386 -204 -567t-636 -181h-415zM403 166h244q309 0 452.5 140t143.5 442q0 300 -143.5 439.5t-452.5 139.5h-244v-1161z" />
<glyph unicode="E" horiz-adv-x="1294" d="M201 0v1493h944v-170h-742v-442h711v-170h-711v-541h760v-170h-962z" />
<glyph unicode="F" horiz-adv-x="1178" d="M201 0v1493h858v-170h-656v-440h592v-170h-592v-713h-202z" />
<glyph unicode="G" horiz-adv-x="1587" d="M115 745q0 366 197.5 570.5t547.5 204.5q146 0 277.5 -36t242.5 -106v-215q-112 95 -238 143t-265 48q-274 0 -411.5 -153t-137.5 -456q0 -302 137.5 -455t411.5 -153q107 0 191 18.5t151 57.5v401h-330v166h530v-641q-117 -83 -258 -125.5t-301 -42.5 q-350 0 -547.5 204.5t-197.5 569.5z" />
<glyph unicode="H" horiz-adv-x="1540" d="M201 0v1493h202v-612h734v612h202v-1493h-202v711h-734v-711h-202z" />
<glyph unicode="I" horiz-adv-x="604" d="M201 0v1493h202v-1493h-202z" />
<glyph unicode="J" horiz-adv-x="604" d="M-106 -240h63q134 0 189 75t55 269v1389h202v-1389q0 -270 -102.5 -392t-329.5 -122h-77v170z" />
<glyph unicode="K" horiz-adv-x="1343" d="M201 0v1493h202v-631l670 631h260l-741 -696l794 -797h-266l-717 719v-719h-202z" />
<glyph unicode="L" horiz-adv-x="1141" d="M201 0v1493h202v-1323h727v-170h-929z" />
<glyph unicode="M" horiz-adv-x="1767" d="M201 0v1493h301l381 -1016l383 1016h301v-1493h-197v1311l-385 -1024h-203l-385 1024v-1311h-196z" />
<glyph unicode="N" horiz-adv-x="1532" d="M201 0v1493h272l662 -1249v1249h196v-1493h-272l-662 1249v-1249h-196z" />
<glyph unicode="O" horiz-adv-x="1612" d="M115 745q0 354 188.5 564.5t503.5 210.5q314 0 502 -210.5t188 -564.5q0 -353 -188 -563.5t-502 -210.5q-315 0 -503.5 210t-188.5 564zM328 745q0 -282 129.5 -446t349.5 -164t348.5 164t128.5 446q0 283 -128.5 447t-348.5 164t-349.5 -164t-129.5 -447z" />
<glyph unicode="P" horiz-adv-x="1235" d="M201 0v1493h456q251 0 379.5 -113.5t128.5 -332.5q0 -221 -128.5 -334t-379.5 -113h-254v-600h-202zM403 766h254q141 0 218 73t77 208q0 134 -77 207t-218 73h-254v-561z" />
<glyph unicode="Q" horiz-adv-x="1612" d="M115 745q0 354 188.5 564.5t503.5 210.5q314 0 502 -210.5t188 -564.5q0 -260 -104.5 -445t-302.5 -273l266 -291h-244l-221 239q-33 -2 -50.5 -3t-33.5 -1q-315 0 -503.5 210.5t-188.5 563.5zM328 745q0 -282 129.5 -446t349.5 -164t348.5 164t128.5 446 q0 283 -128.5 447t-348.5 164t-349.5 -164t-129.5 -447z" />
<glyph unicode="R" horiz-adv-x="1423" d="M201 0v1493h456q256 0 382 -107t126 -323q0 -141 -65.5 -234t-190.5 -129q65 -22 126.5 -94t123.5 -198l205 -408h-217l-191 383q-74 150 -143.5 199t-189.5 49h-220v-631h-202zM403 797h254q146 0 220.5 67.5t74.5 198.5t-74.5 197.5t-220.5 66.5h-254v-530z" />
<glyph unicode="S" horiz-adv-x="1300" d="M135 1094q0 198 139.5 312t384.5 114q105 0 214 -19t223 -57v-197q-115 55 -217 82t-197 27q-165 0 -254.5 -64t-89.5 -182q0 -99 59.5 -149.5t225.5 -81.5l122 -25q226 -43 333.5 -151.5t107.5 -290.5q0 -217 -145.5 -329t-426.5 -112q-106 0 -225.5 24t-247.5 71v208 q123 -69 241 -104t232 -35q173 0 267 68t94 194q0 110 -67.5 172t-221.5 93l-123 24q-226 45 -327 141t-101 267z" />
<glyph unicode="T" horiz-adv-x="1251" d="M-6 1323v170h1263v-170h-530v-1323h-203v1323h-530z" />
<glyph unicode="U" horiz-adv-x="1499" d="M178 561v932h203v-907q0 -240 87 -345.5t282 -105.5q194 0 281 105.5t87 345.5v907h203v-932q0 -292 -144.5 -441t-426.5 -149q-283 0 -427.5 149t-144.5 441z" />
<glyph unicode="V" horiz-adv-x="1401" d="M16 1493h211l473 -1257l474 1257h210l-569 -1493h-229z" />
<glyph unicode="W" horiz-adv-x="2025" d="M68 1493h204l314 -1262l313 1262h227l314 -1262l313 1262h205l-375 -1493h-254l-315 1296l-318 -1296h-254z" />
<glyph unicode="X" horiz-adv-x="1403" d="M61 0l533 797l-465 696h217l371 -555l373 555h217l-480 -717l512 -776h-217l-420 635l-423 -635h-218z" />
<glyph unicode="Y" horiz-adv-x="1251" d="M-4 1493h217l414 -614l411 614h217l-528 -782v-711h-203v711z" />
<glyph unicode="Z" horiz-adv-x="1403" d="M92 0v154l944 1169h-921v170h1173v-154l-944 -1169h967v-170h-1219z" />
<glyph unicode="[" horiz-adv-x="799" d="M176 -270v1826h424v-143h-240v-1540h240v-143h-424z" />
<glyph unicode="\" horiz-adv-x="690" d="M0 1493h170l520 -1683h-170z" />
<glyph unicode="]" horiz-adv-x="799" d="M199 -127h239v1540h-239v143h424v-1826h-424v143z" />
<glyph unicode="^" horiz-adv-x="1716" d="M217 936l543 557h196l543 -557h-201l-440 395l-440 -395h-201z" />
<glyph unicode="_" horiz-adv-x="1024" d="M-20 -340h1064v-143h-1064v143z" />
<glyph unicode="`" horiz-adv-x="1024" d="M170 1638h197l282 -374h-153z" />
<glyph unicode="a" horiz-adv-x="1255" d="M123 326q0 189 126.5 285t377.5 96h258v18q0 127 -83.5 196.5t-234.5 69.5q-96 0 -187 -23t-175 -69v170q101 39 196 58.5t185 19.5q243 0 363 -126t120 -382v-639h-184v170q-63 -102 -157 -150.5t-230 -48.5q-172 0 -273.5 96.5t-101.5 258.5zM307 338 q0 -98 64.5 -155.5t175.5 -57.5q153 0 245.5 108.5t92.5 288.5v41h-183q-223 0 -309 -51t-86 -174z" />
<glyph unicode="b" horiz-adv-x="1300" d="M186 0v1556h185v-606q58 100 146.5 148.5t211.5 48.5q204 0 331.5 -162t127.5 -426t-127.5 -426t-331.5 -162q-123 0 -211.5 48.5t-146.5 148.5v-168h-185zM371 559q0 -203 83.5 -318.5t229.5 -115.5t229.5 115.5t83.5 318.5t-83.5 318.5t-229.5 115.5t-229.5 -115.5 t-83.5 -318.5z" />
<glyph unicode="c" horiz-adv-x="1126" d="M113 559q0 274 150.5 431t412.5 157q85 0 166 -17.5t157 -52.5v-172q-78 43 -156.5 64.5t-158.5 21.5q-179 0 -278 -113.5t-99 -318.5t99 -318.5t278 -113.5q80 0 158.5 21.5t156.5 64.5v-170q-77 -36 -159.5 -54t-175.5 -18q-253 0 -402 159t-149 429z" />
<glyph unicode="d" horiz-adv-x="1300" d="M113 559q0 264 127.5 426t330.5 162q124 0 212.5 -48.5t146.5 -148.5v606h184v-1556h-184v168q-58 -100 -146.5 -148.5t-212.5 -48.5q-203 0 -330.5 162t-127.5 426zM303 559q0 -203 83.5 -318.5t229.5 -115.5t230 115.5t84 318.5t-84 318.5t-230 115.5t-229.5 -115.5 t-83.5 -318.5z" />
<glyph unicode="e" horiz-adv-x="1260" d="M113 549q0 275 148.5 436.5t400.5 161.5q226 0 357.5 -145.5t131.5 -395.5v-90h-846q12 -190 114.5 -289.5t285.5 -99.5q106 0 205.5 26t197.5 78v-174q-99 -42 -203 -64t-211 -22q-268 0 -424.5 156t-156.5 422zM311 659l656 1q-2 151 -84.5 241t-218.5 90 q-154 0 -246.5 -87t-106.5 -245z" />
<glyph unicode="f" horiz-adv-x="721" d="M47 977v143h176v78q0 187 87 272.5t276 85.5h174v-153h-176q-99 0 -137.5 -40t-38.5 -144v-99h303v-143h-303v-977h-185v977h-176z" />
<glyph unicode="g" horiz-adv-x="1300" d="M113 573q0 260 126 417t332 157q124 0 213 -49t146 -148v170h184v-981q0 -286 -127 -425.5t-389 -139.5q-97 0 -183 14.5t-167 44.5v179q81 -44 160 -65t161 -21q181 0 271 94.5t90 285.5v91q-57 -99 -146 -148t-213 -49q-206 0 -332 157t-126 416zM303 573 q0 -199 82.5 -309t230.5 -110q149 0 231.5 110t82.5 309q0 200 -82.5 310t-231.5 110q-148 0 -230.5 -110t-82.5 -310z" />
<glyph unicode="h" horiz-adv-x="1298" d="M186 0v1556h185v-610q66 101 155.5 151t206.5 50q193 0 292 -119.5t99 -351.5v-676h-184v670q0 159 -62 238t-186 79q-149 0 -235 -95t-86 -259v-633h-185z" />
<glyph unicode="i" horiz-adv-x="569" d="M193 0v1120h184v-1120h-184zM193 1323v233h184v-233h-184z" />
<glyph unicode="j" horiz-adv-x="569" d="M-37 -270h49q105 0 143 48.5t38 201.5v1140h184v-1140q0 -214 -81.5 -310t-262.5 -96h-70v156zM193 1323v233h184v-233h-184z" />
<glyph unicode="k" horiz-adv-x="1186" d="M186 0v1556h185v-919l549 483h235l-594 -524l619 -596h-240l-569 547v-547h-185z" />
<glyph unicode="l" horiz-adv-x="569" d="M193 0v1556h184v-1556h-184z" />
<glyph unicode="m" horiz-adv-x="1995" d="M186 0v1120h185v-174q63 103 151 152t209 49q122 0 207.5 -62t126.5 -180q69 124 165 183t226 59q175 0 270 -122.5t95 -348.5v-676h-185v670q0 161 -57 239t-174 78q-143 0 -226 -95t-83 -259v-633h-185v670q0 162 -57 239.5t-176 77.5q-141 0 -224 -95.5t-83 -258.5 v-633h-185z" />
<glyph unicode="n" horiz-adv-x="1298" d="M186 0v1120h185v-174q66 101 155.5 151t206.5 50q193 0 292 -119.5t99 -351.5v-676h-184v670q0 159 -62 238t-186 79q-149 0 -235 -95t-86 -259v-633h-185z" />
<glyph unicode="o" horiz-adv-x="1253" d="M100 559q0 276 136.5 432t377.5 156q240 0 377 -156t137 -432q0 -275 -137 -431.5t-377 -156.5q-241 0 -377.5 156.5t-136.5 431.5zM294 559q0 -201 85.5 -316.5t234.5 -115.5q147 0 233 116t86 316q0 199 -86 315.5t-233 116.5q-148 0 -234 -115.5t-86 -316.5z" />
<glyph unicode="p" horiz-adv-x="1300" d="M186 -426v1546h185v-170q58 100 146.5 148.5t211.5 48.5q204 0 331.5 -162t127.5 -426t-127.5 -426t-331.5 -162q-123 0 -211.5 48.5t-146.5 148.5v-594h-185zM371 559q0 -203 83.5 -318.5t229.5 -115.5t229.5 115.5t83.5 318.5t-83.5 318.5t-229.5 115.5t-229.5 -115.5 t-83.5 -318.5z" />
<glyph unicode="q" horiz-adv-x="1300" d="M113 559q0 264 127.5 426t330.5 162q124 0 212.5 -48.5t146.5 -148.5v170h184v-1546h-184v594q-58 -100 -146.5 -148.5t-212.5 -48.5q-203 0 -330.5 162t-127.5 426zM303 559q0 -203 83.5 -318.5t229.5 -115.5t230 115.5t84 318.5t-84 318.5t-230 115.5t-229.5 -115.5 t-83.5 -318.5z" />
<glyph unicode="r" horiz-adv-x="842" d="M186 0v1120h185v-174q58 102 151 151.5t226 49.5q19 0 42 -2.5t51 -7.5l1 -189q-31 18 -67.5 26.5t-80.5 8.5q-156 0 -239.5 -101.5t-83.5 -291.5v-590h-185z" />
<glyph unicode="s" horiz-adv-x="1067" d="M111 41v190q102 -53 201 -79.5t196 -26.5q130 0 200 44.5t70 125.5q0 75 -50.5 115t-221.5 77l-64 15q-171 36 -247 110.5t-76 204.5q0 158 112 244t318 86q102 0 192 -15t166 -45v-174q-78 40 -162 60t-174 20q-137 0 -205.5 -42t-68.5 -126q0 -64 49 -100.5t197 -69.5 l63 -14q196 -42 278.5 -118.5t82.5 -213.5q0 -156 -123.5 -247t-339.5 -91q-90 0 -187.5 17.5t-205.5 52.5z" />
<glyph unicode="t" horiz-adv-x="803" d="M55 977v143h135v318h185v-318h379v-143h-379v-608q0 -137 37.5 -176t152.5 -39h189v-154h-189q-213 0 -294 79.5t-81 289.5v608h-135z" />
<glyph unicode="u" horiz-adv-x="1298" d="M174 442v678h184v-671q0 -159 62 -238.5t186 -79.5q149 0 235.5 95t86.5 259v635h184v-1120h-184v172q-67 -102 -155.5 -151.5t-205.5 -49.5q-193 0 -293 120t-100 351z" />
<glyph unicode="v" horiz-adv-x="1212" d="M61 1120h195l350 -940l350 940h195l-420 -1120h-250z" />
<glyph unicode="w" horiz-adv-x="1675" d="M86 1120h184l230 -874l229 874h217l230 -874l229 874h184l-293 -1120h-217l-241 918l-242 -918h-217z" />
<glyph unicode="x" horiz-adv-x="1212" d="M59 0l435 586l-398 534h217l297 -399l297 399h217l-405 -545l426 -575h-217l-326 440l-326 -440h-217z" />
<glyph unicode="y" horiz-adv-x="1212" d="M61 1120h195l350 -876l350 876h195l-492 -1224q-78 -200 -152 -261t-198 -61h-147v154h108q76 0 118 36t93 170l33 84z" />
<glyph unicode="z" horiz-adv-x="1075" d="M88 0v168l692 805h-667v147h874v-168l-692 -805h692v-147h-899z" />
<glyph unicode="{" horiz-adv-x="1303" d="M256 541v143h61q143 0 196.5 57.5t53.5 206.5v240q0 221 84.5 294.5t333.5 73.5h62v-143h-68q-141 0 -184 -44t-43 -185v-248q0 -157 -45.5 -228t-155.5 -96q111 -27 156 -98t45 -227v-248q0 -141 43 -185t184 -44h68v-144h-62q-249 0 -333.5 74t-84.5 295v239 q0 151 -54 209t-196 58h-61z" />
<glyph unicode="|" horiz-adv-x="690" d="M260 -483v2048h170v-2048h-170z" />
<glyph unicode="}" horiz-adv-x="1303" d="M256 -190h70q140 0 182.5 43t42.5 186v248q0 156 45 227t156 98q-111 25 -156 96t-45 228v248q0 142 -42.5 185.5t-182.5 43.5h-70v143h63q249 0 332.5 -73.5t83.5 -294.5v-240q0 -149 54 -206.5t196 -57.5h62v-143h-62q-142 0 -196 -58t-54 -209v-239q0 -221 -83.5 -295 t-332.5 -74h-63v144z" />
<glyph unicode="~" horiz-adv-x="1716" d="M217 467v178q105 79 194.5 113.5t186.5 34.5q110 0 257 -60l15 -6q8 -3 22 -8q155 -62 249 -62q86 0 170.5 38t187.5 122v-178q-105 -79 -194.5 -113t-186.5 -34q-110 0 -256 59q-11 4 -16 6q-7 3 -22 8q-155 62 -249 62q-88 0 -174 -38.5t-184 -121.5z" />
<glyph unicode="&#xa1;" horiz-adv-x="821" d="M309 0v655l21 357h162l20 -357v-655h-203zM309 1239v254h203v-254h-203z" />
<glyph unicode="&#xa2;" horiz-adv-x="1303" d="M172 559q0 258 132.5 411t373.5 175v287h102l1 -287q73 -4 141.5 -20.5t136.5 -47.5v-172q-74 41 -142 62t-136 24l-1 -864q70 5 138.5 26t140.5 60v-170q-65 -30 -133.5 -47.5t-145.5 -24.5v-284h-102v288q-241 20 -373.5 173.5t-132.5 410.5zM367 559q0 -185 82 -298 t229 -130v856q-147 -18 -229 -131t-82 -297z" />
<glyph unicode="&#xa3;" horiz-adv-x="1303" d="M129 0v170h236v465h-199v143h199v238q0 261 107 382.5t339 121.5q61 0 136.5 -15.5t154.5 -44.5v-182q-76 41 -144 61.5t-129 20.5q-148 0 -206 -77.5t-58 -289.5v-215h391v-143h-391v-465h557v-170h-993z" />
<glyph unicode="&#xa4;" horiz-adv-x="1303" d="M94 197l207 206q-37 62 -55.5 121t-18.5 117q0 64 19 122t57 114l-207 206l115 115l207 -207q55 39 113 57.5t122 18.5q60 0 118.5 -18t119.5 -56l207 209l114 -115l-206 -206q37 -59 55 -118.5t18 -121.5q0 -63 -19 -120.5t-59 -114.5l209 -207l-114 -113l-207 207 q-59 -40 -117 -59t-119 -19q-58 0 -118 18.5t-121 55.5l-207 -207zM383 643q0 -114 78.5 -192t191.5 -78t191 78.5t78 191.5q0 112 -77.5 189t-191.5 77q-112 0 -191 -77t-79 -189z" />
<glyph unicode="&#xa5;" horiz-adv-x="1303" d="M82 1493h190l379 -700l377 700h191l-318 -586h264v-123h-331l-84 -155v-51h415v-123h-413v-455h-201v455h-416v123h416v51l-84 155h-332v123h264z" />
<glyph unicode="&#xa6;" horiz-adv-x="690" d="M260 -350v758h170v-758h-170zM260 674v758h170v-758h-170z" />
<glyph unicode="&#xa7;" horiz-adv-x="1024" d="M92 723q0 91 46.5 162.5t137.5 120.5q-59 44 -88.5 100t-29.5 125q0 130 100 209.5t266 79.5q73 0 149.5 -14.5t155.5 -43.5v-164q-83 39 -154.5 58.5t-127.5 19.5q-97 0 -151 -40t-54 -111q0 -90 206 -205q26 -15 40 -23q211 -119 276.5 -196t65.5 -178q0 -90 -46 -160 t-139 -123q62 -52 90.5 -106.5t28.5 -118.5q0 -142 -102 -226t-275 -84q-73 0 -150 14.5t-165 43.5v164q87 -39 161 -58.5t132 -19.5q102 0 158.5 42t56.5 118q0 102 -221 225l-25 14q-214 120 -278 196.5t-64 178.5zM254 754q0 -76 69.5 -142.5t319.5 -201.5q63 45 94 90.5 t31 91.5q0 75 -71.5 143t-317.5 201q-63 -46 -94 -91t-31 -91z" />
<glyph unicode="&#xa8;" horiz-adv-x="1024" d="M215 1350v202h203v-202h-203zM606 1350v202h203v-202h-203z" />
<glyph unicode="&#xa9;" horiz-adv-x="2048" d="M283 741q0 154 54 285t163 240t240.5 164t283.5 55t283.5 -55t240.5 -164t163 -240t54 -285q0 -152 -54 -282.5t-163 -239.5t-240.5 -164t-283.5 -55t-283.5 55t-240.5 164t-163 239.5t-54 282.5zM383 741q0 -129 48 -242.5t142 -207.5t207 -141.5t244 -47.5 q132 0 245.5 47.5t207.5 141.5q93 93 139.5 206t46.5 244q0 133 -47 246.5t-139 206.5q-94 94 -207.5 141t-245.5 47q-131 0 -244 -47t-207 -141t-142 -208.5t-48 -244.5zM582 741q0 209 125.5 330t341.5 121q73 0 141 -14t133 -41v-129q-66 33 -131 49t-131 16 q-149 0 -232.5 -87.5t-83.5 -244.5q0 -159 85.5 -246t240.5 -87q64 0 125 15.5t127 49.5v-127q-67 -29 -135.5 -43t-138.5 -14q-216 0 -341.5 122t-125.5 330z" />
<glyph unicode="&#xaa;" horiz-adv-x="965" d="M115 946q0 135 95.5 204t283.5 69h182v4q0 91 -58.5 136.5t-175.5 45.5q-62 0 -130 -17t-136 -51v127q73 28 145.5 42t141.5 14q183 0 272.5 -88t89.5 -267v-448h-149v112q-44 -63 -116 -97t-165 -34q-128 0 -204 67.5t-76 180.5zM139 469v123h688v-123h-688zM262 958 q0 -64 49 -102.5t131 -38.5q104 0 169 72t65 186v29h-127q-161 0 -224 -33.5t-63 -112.5z" />
<glyph unicode="&#xab;" horiz-adv-x="1253" d="M158 559v82l469 418v-191l-301 -268l301 -268v-191zM592 559v82l469 418v-191l-301 -268l301 -268v-191z" />
<glyph unicode="&#xac;" horiz-adv-x="1716" d="M217 692v170h1282v-575h-168v405h-1114z" />
<glyph unicode="&#xad;" horiz-adv-x="739" d="M100 479v164h539v-164h-539z" />
<glyph unicode="&#xae;" horiz-adv-x="2048" d="M283 741q0 154 54 285t163 240t240.5 164t283.5 55t283.5 -55t240.5 -164t163 -240t54 -285q0 -152 -54 -282.5t-163 -239.5t-240.5 -164t-283.5 -55t-283.5 55t-240.5 164t-163 239.5t-54 282.5zM383 741q0 -129 48 -242.5t142 -207.5t207 -141.5t244 -47.5 q132 0 245.5 47.5t207.5 141.5q93 93 139.5 206t46.5 244q0 133 -47 246.5t-139 206.5q-94 94 -207.5 141t-245.5 47q-131 0 -244 -47t-207 -141t-142 -208.5t-48 -244.5zM719 338v836h285q176 0 263 -59.5t87 -180.5q0 -86 -52.5 -142t-148.5 -73q24 -8 57.5 -46.5 t79.5 -111.5l137 -223h-172l-129 209q-59 96 -95.5 121.5t-90.5 25.5h-66v-356h-155zM874 795h123q110 0 153.5 31t43.5 106q0 76 -44 107.5t-153 31.5h-123v-276z" />
<glyph unicode="&#xaf;" horiz-adv-x="1024" d="M213 1378v148h598v-148h-598z" />
<glyph unicode="&#xb0;" horiz-adv-x="1024" d="M195 1200q0 134 92 227t225 93q64 0 123 -24.5t102 -70.5q46 -45 69 -102t23 -123q0 -132 -92.5 -223.5t-226.5 -91.5q-135 0 -225 90t-90 225zM322 1200q0 -79 55 -133.5t135 -54.5t135 54.5t55 133.5t-55.5 135t-134.5 56q-80 0 -135 -55.5t-55 -135.5z" />
<glyph unicode="&#xb1;" horiz-adv-x="1716" d="M217 0v170h1282v-170h-1282zM217 727v170h557v387h168v-387h557v-170h-557v-387h-168v387h-557z" />
<glyph unicode="&#xb2;" horiz-adv-x="821" d="M94 668v110q34 31 97 87q344 305 344 399q0 66 -52 106.5t-137 40.5q-52 0 -113 -17.5t-133 -52.5v123q77 28 143.5 42t123.5 14q145 0 232 -66t87 -174q0 -139 -331 -423q-56 -48 -87 -75h424v-114h-598z" />
<glyph unicode="&#xb3;" horiz-adv-x="821" d="M98 694v121q52 -27 111.5 -40t126.5 -13q109 0 169 39.5t60 109.5q0 74 -55.5 112t-163.5 38h-86v108h94q94 0 142.5 31.5t48.5 91.5q0 58 -50 88.5t-145 30.5q-40 0 -91 -9t-132 -32v115q73 17 137 26t119 9q144 0 228.5 -59t84.5 -158q0 -69 -45 -117t-127 -66 q92 -18 142.5 -72.5t50.5 -136.5q0 -124 -95 -191t-272 -67q-57 0 -119.5 10.5t-132.5 30.5z" />
<glyph unicode="&#xb4;" horiz-adv-x="1024" d="M371 1262l280 376h199l-326 -376h-153z" />
<glyph unicode="&#xb5;" horiz-adv-x="1303" d="M174 -426v1546h184v-696q0 -145 69 -219t204 -74q148 0 222.5 84t74.5 252v653h184v-862q0 -60 17.5 -88.5t54.5 -28.5q9 0 25 5.5t44 17.5v-148q-41 -23 -77.5 -34t-71.5 -11q-69 0 -110 39t-56 119q-50 -79 -122.5 -118.5t-170.5 -39.5q-102 0 -173.5 39t-113.5 117 v-553h-184z" />
<glyph unicode="&#xb6;" horiz-adv-x="1303" d="M158 1071q0 190 130 306t345 116h448v-1690h-141v1567h-190v-1567h-142v846q-215 17 -332.5 127.5t-117.5 294.5z" />
<glyph unicode="&#xb7;" horiz-adv-x="651" d="M219 584v254h211v-254h-211z" />
<glyph unicode="&#xb8;" horiz-adv-x="1024" d="M291 -240q34 -17 71 -24.5t84 -7.5q59 0 89 24t30 70q0 30 -21.5 73.5t-66.5 104.5h119q55 -62 82 -114.5t27 -100.5q0 -89 -60 -134.5t-178 -45.5q-46 0 -89.5 6t-86.5 18v131z" />
<glyph unicode="&#xb9;" horiz-adv-x="821" d="M137 1348v116l230 39h137v-725h205v-110h-553v110h204v611z" />
<glyph unicode="&#xba;" horiz-adv-x="965" d="M96 1108q0 191 104 301.5t283 110.5t282 -110.5t103 -301.5t-103 -300.5t-282 -109.5t-283 110t-104 300zM139 469v123h688v-123h-688zM252 1108q0 -133 63.5 -213t167.5 -80q105 0 167.5 80t62.5 213q0 137 -62 217t-168 80q-105 0 -168 -80.5t-63 -216.5z" />
<glyph unicode="&#xbb;" horiz-adv-x="1253" d="M193 141v191l301 268l-301 268v191l469 -418v-82zM627 141v191l301 268l-301 268v191l469 -418v-82z" />
<glyph unicode="&#xbc;" horiz-adv-x="1985" d="M137 1348v116l230 39h137v-725h205v-110h-553v110h204v611zM446 -29l932 1549h160l-932 -1549h-160zM1226 187v121l392 528h166v-540h135v-109h-135v-186h-144v186h-414zM1331 296h309v419z" />
<glyph unicode="&#xbd;" horiz-adv-x="1985" d="M137 1348v116l230 39h137v-725h205v-110h-553v110h204v611zM446 -29l932 1549h160l-932 -1549h-160zM1257 1v110q34 31 97 87q344 305 344 399q0 66 -52 106.5t-137 40.5q-52 0 -113 -17.5t-133 -52.5v123q77 28 143.5 42t123.5 14q145 0 232 -66t87 -174 q0 -139 -331 -423q-56 -48 -87 -75h424v-114h-598z" />
<glyph unicode="&#xbe;" horiz-adv-x="1985" d="M98 694v121q52 -27 111.5 -40t126.5 -13q109 0 169 39.5t60 109.5q0 74 -55.5 112t-163.5 38h-86v108h94q94 0 142.5 31.5t48.5 91.5q0 58 -50 88.5t-145 30.5q-40 0 -91 -9t-132 -32v115q73 17 137 26t119 9q144 0 228.5 -59t84.5 -158q0 -69 -45 -117t-127 -66 q92 -18 142.5 -72.5t50.5 -136.5q0 -124 -95 -191t-272 -67q-57 0 -119.5 10.5t-132.5 30.5zM446 -29l932 1549h160l-932 -1549h-160zM1226 187v121l392 528h166v-540h135v-109h-135v-186h-144v186h-414zM1331 296h309v419z" />
<glyph unicode="&#xbf;" horiz-adv-x="1087" d="M143 324q0 76 36.5 144.5t125.5 154.5l88 86q48 47 67 73.5t27 51.5q7 21 10 51t3 84v123h190v-156q0 -101 -27.5 -166t-117.5 -152l-90 -88q-58 -53 -83.5 -100t-25.5 -96q0 -89 65.5 -144t174.5 -55q78 0 168 35t186 102v-188q-94 -57 -190 -85t-199 -28 q-184 0 -296 97t-112 256zM494 1239v254h202v-254h-202z" />
<glyph unicode="&#xc0;" horiz-adv-x="1401" d="M16 0l570 1493h229l569 -1493h-210l-136 383h-673l-136 -383h-213zM426 551h549l-275 743zM456 1899h187l196 -264h-153z" />
<glyph unicode="&#xc1;" horiz-adv-x="1401" d="M16 0l570 1493h229l569 -1493h-210l-136 383h-673l-136 -383h-213zM426 551h549l-275 743zM559 1635l196 264h185l-228 -264h-153z" />
<glyph unicode="&#xc2;" horiz-adv-x="1401" d="M16 0l570 1493h229l569 -1493h-210l-136 383h-673l-136 -383h-213zM395 1635l211 266h188l211 -266h-139l-166 178l-166 -178h-139zM426 551h549l-275 743z" />
<glyph unicode="&#xc3;" horiz-adv-x="1401" d="M16 0l570 1493h229l569 -1493h-210l-136 383h-673l-136 -383h-213zM370 1667q0 101 51.5 160t137.5 59q36 0 66.5 -8t78.5 -35l57 -30q23 -13 40 -19t32 -6q32 0 52 25.5t20 66.5v6h125q-2 -100 -53.5 -159.5t-135.5 -59.5q-34 0 -63.5 8t-81.5 35l-57 33 q-25 14 -40.5 19.5t-27.5 5.5q-36 0 -56 -25t-20 -70v-6h-125zM426 551h549l-275 743z" />
<glyph unicode="&#xc4;" horiz-adv-x="1401" d="M16 0l570 1493h229l569 -1493h-210l-136 383h-673l-136 -383h-213zM403 1667v203h203v-203h-203zM426 551h549l-275 743zM794 1667v203h203v-203h-203z" />
<glyph unicode="&#xc5;" horiz-adv-x="1401" d="M16 0l533 1397q-61 41 -92 98.5t-31 130.5q0 115 79.5 195t194.5 80q114 0 194.5 -80.5t80.5 -194.5q0 -70 -31.5 -129t-91.5 -100l532 -1397h-210l-136 383h-673l-136 -383h-213zM428 551h545l-273 743zM549 1626q0 -63 44 -107t107 -44t107.5 44t44.5 107t-44.5 107.5 t-107.5 44.5q-64 0 -107.5 -43.5t-43.5 -108.5z" />
<glyph unicode="&#xc6;" horiz-adv-x="1995" d="M8 0l625 1493h1212v-170h-741v-442h711v-170h-711v-541h760v-170h-963v383h-528l-160 -383h-205zM442 551h459v784h-129z" />
<glyph unicode="&#xc7;" horiz-adv-x="1430" d="M115 745q0 360 195 567.5t534 207.5q134 0 252.5 -35.5t222.5 -106.5v-213q-102 95 -217.5 142t-245.5 47q-256 0 -392 -156.5t-136 -452.5q0 -295 136 -451.5t392 -156.5q130 0 245.5 47t217.5 142v-211q-106 -72 -224.5 -108t-250.5 -36q-339 0 -534 207.5t-195 566.5z M592 -240q34 -17 71 -24.5t84 -7.5q59 0 89 24t30 70q0 30 -21.5 73.5t-66.5 104.5h119q55 -62 82 -114.5t27 -100.5q0 -89 -60 -134.5t-178 -45.5q-46 0 -89.5 6t-86.5 18v131z" />
<glyph unicode="&#xc8;" horiz-adv-x="1294" d="M201 0v1493h944v-170h-742v-442h711v-170h-711v-541h760v-170h-962zM426 1899h187l196 -264h-153z" />
<glyph unicode="&#xc9;" horiz-adv-x="1294" d="M201 0v1493h944v-170h-742v-442h711v-170h-711v-541h760v-170h-962zM529 1635l196 264h185l-228 -264h-153z" />
<glyph unicode="&#xca;" horiz-adv-x="1294" d="M201 0v1493h944v-170h-742v-442h711v-170h-711v-541h760v-170h-962zM365 1635l211 266h188l211 -266h-139l-166 178l-166 -178h-139z" />
<glyph unicode="&#xcb;" horiz-adv-x="1294" d="M201 0v1493h944v-170h-742v-442h711v-170h-711v-541h760v-170h-962zM373 1667v203h203v-203h-203zM764 1667v203h203v-203h-203z" />
<glyph unicode="&#xcc;" horiz-adv-x="604" d="M59 1899h187l196 -264h-153zM201 0v1493h202v-1493h-202z" />
<glyph unicode="&#xcd;" horiz-adv-x="604" d="M162 1635l196 264h185l-228 -264h-153zM201 0v1493h202v-1493h-202z" />
<glyph unicode="&#xce;" horiz-adv-x="604" d="M-2 1635l211 266h188l211 -266h-139l-166 178l-166 -178h-139zM201 0v1493h202v-1493h-202z" />
<glyph unicode="&#xcf;" horiz-adv-x="604" d="M6 1667v203h203v-203h-203zM201 0v1493h202v-1493h-202zM397 1667v203h203v-203h-203z" />
<glyph unicode="&#xd0;" horiz-adv-x="1587" d="M10 700v144h201v649h416q433 0 636 -180.5t203 -564.5q0 -386 -203.5 -567t-635.5 -181h-416v700h-201zM414 166h243q309 0 452.5 140t143.5 442q0 300 -143.5 439.5t-452.5 139.5h-243v-483h336v-144h-336v-534z" />
<glyph unicode="&#xd1;" horiz-adv-x="1532" d="M201 0v1493h272l662 -1249v1249h196v-1493h-272l-662 1249v-1249h-196zM436 1667q0 101 51.5 160t137.5 59q36 0 66.5 -8t78.5 -35l57 -30q23 -13 40 -19t32 -6q32 0 52 25.5t20 66.5v6h125q-2 -100 -53.5 -159.5t-135.5 -59.5q-34 0 -63.5 8t-81.5 35l-57 33 q-25 14 -40.5 19.5t-27.5 5.5q-36 0 -56 -25t-20 -70v-6h-125z" />
<glyph unicode="&#xd2;" horiz-adv-x="1612" d="M115 745q0 354 188.5 564.5t503.5 210.5q314 0 502 -210.5t188 -564.5q0 -353 -188 -563.5t-502 -210.5q-315 0 -503.5 210t-188.5 564zM328 745q0 -282 129.5 -446t349.5 -164t348.5 164t128.5 446q0 283 -128.5 447t-348.5 164t-349.5 -164t-129.5 -447zM563 1899h187 l196 -264h-153z" />
<glyph unicode="&#xd3;" horiz-adv-x="1612" d="M115 745q0 354 188.5 564.5t503.5 210.5q314 0 502 -210.5t188 -564.5q0 -353 -188 -563.5t-502 -210.5q-315 0 -503.5 210t-188.5 564zM328 745q0 -282 129.5 -446t349.5 -164t348.5 164t128.5 446q0 283 -128.5 447t-348.5 164t-349.5 -164t-129.5 -447zM666 1635 l196 264h185l-228 -264h-153z" />
<glyph unicode="&#xd4;" horiz-adv-x="1612" d="M115 745q0 354 188.5 564.5t503.5 210.5q314 0 502 -210.5t188 -564.5q0 -353 -188 -563.5t-502 -210.5q-315 0 -503.5 210t-188.5 564zM328 745q0 -282 129.5 -446t349.5 -164t348.5 164t128.5 446q0 283 -128.5 447t-348.5 164t-349.5 -164t-129.5 -447zM502 1635 l211 266h188l211 -266h-139l-166 178l-166 -178h-139z" />
<glyph unicode="&#xd5;" horiz-adv-x="1612" d="M115 745q0 354 188.5 564.5t503.5 210.5q314 0 502 -210.5t188 -564.5q0 -353 -188 -563.5t-502 -210.5q-315 0 -503.5 210t-188.5 564zM328 745q0 -282 129.5 -446t349.5 -164t348.5 164t128.5 446q0 283 -128.5 447t-348.5 164t-349.5 -164t-129.5 -447zM477 1667 q0 101 51.5 160t137.5 59q36 0 66.5 -8t78.5 -35l57 -30q23 -13 40 -19t32 -6q32 0 52 25.5t20 66.5v6h125q-2 -100 -53.5 -159.5t-135.5 -59.5q-34 0 -63.5 8t-81.5 35l-57 33q-25 14 -40.5 19.5t-27.5 5.5q-36 0 -56 -25t-20 -70v-6h-125z" />
<glyph unicode="&#xd6;" horiz-adv-x="1612" d="M115 745q0 354 188.5 564.5t503.5 210.5q314 0 502 -210.5t188 -564.5q0 -353 -188 -563.5t-502 -210.5q-315 0 -503.5 210t-188.5 564zM328 745q0 -282 129.5 -446t349.5 -164t348.5 164t128.5 446q0 283 -128.5 447t-348.5 164t-349.5 -164t-129.5 -447zM510 1667v203 h203v-203h-203zM901 1667v203h203v-203h-203z" />
<glyph unicode="&#xd7;" horiz-adv-x="1716" d="M281 184l456 457l-456 459l118 121l459 -459l459 459l119 -121l-457 -459l457 -457l-119 -121l-459 459l-459 -459z" />
<glyph unicode="&#xd8;" horiz-adv-x="1612" d="M102 18l170 201q-78 102 -117.5 234t-39.5 292q0 354 188.5 564.5t503.5 210.5q130 0 240.5 -38.5t197.5 -113.5l162 191l102 -89l-170 -198q78 -103 118 -236t40 -291q0 -353 -188 -563.5t-502 -210.5q-128 0 -238.5 37.5t-201.5 112.5l-162 -191zM328 745 q0 -112 19.5 -206t58.5 -162l718 848q-61 64 -141.5 97.5t-175.5 33.5q-220 0 -349.5 -164t-129.5 -447zM489 266q62 -64 142.5 -97.5t175.5 -33.5q220 0 348.5 164t128.5 446q0 112 -19.5 204t-58.5 163z" />
<glyph unicode="&#xd9;" horiz-adv-x="1499" d="M178 561v932h203v-907q0 -240 87 -345.5t282 -105.5q194 0 281 105.5t87 345.5v907h203v-932q0 -292 -144.5 -441t-426.5 -149q-283 0 -427.5 149t-144.5 441zM506 1899h187l196 -264h-153z" />
<glyph unicode="&#xda;" horiz-adv-x="1499" d="M178 561v932h203v-907q0 -240 87 -345.5t282 -105.5q194 0 281 105.5t87 345.5v907h203v-932q0 -292 -144.5 -441t-426.5 -149q-283 0 -427.5 149t-144.5 441zM609 1635l196 264h185l-228 -264h-153z" />
<glyph unicode="&#xdb;" horiz-adv-x="1499" d="M178 561v932h203v-907q0 -240 87 -345.5t282 -105.5q194 0 281 105.5t87 345.5v907h203v-932q0 -292 -144.5 -441t-426.5 -149q-283 0 -427.5 149t-144.5 441zM445 1635l211 266h188l211 -266h-139l-166 178l-166 -178h-139z" />
<glyph unicode="&#xdc;" horiz-adv-x="1499" d="M178 561v932h203v-907q0 -240 87 -345.5t282 -105.5q194 0 281 105.5t87 345.5v907h203v-932q0 -292 -144.5 -441t-426.5 -149q-283 0 -427.5 149t-144.5 441zM453 1667v203h203v-203h-203zM844 1667v203h203v-203h-203z" />
<glyph unicode="&#xdd;" horiz-adv-x="1251" d="M-4 1493h217l414 -614l411 614h217l-528 -782v-711h-203v711zM486 1635l196 264h185l-228 -264h-153z" />
<glyph unicode="&#xde;" horiz-adv-x="1239" d="M201 0v1493h202v-264h254q251 0 379.5 -112.5t128.5 -332.5t-128.5 -333t-379.5 -113h-254v-338h-202zM403 504h254q141 0 218 73t77 207t-76.5 206.5t-218.5 72.5h-254v-559z" />
<glyph unicode="&#xdf;" horiz-adv-x="1290" d="M186 0v1137q0 200 119.5 309.5t337.5 109.5q208 0 317.5 -116t112.5 -340q-151 -8 -235 -65.5t-84 -153.5q0 -47 29 -87.5t94 -82.5l57 -37q166 -106 214 -177t48 -171q0 -172 -112.5 -263.5t-323.5 -91.5q-64 0 -132 12.5t-141 36.5v164q80 -30 150 -44.5t135 -14.5 q116 0 176 47.5t60 138.5q0 63 -29.5 105t-130.5 104l-92 55q-96 59 -139.5 126.5t-43.5 158.5q0 127 83.5 213t234.5 115q-8 103 -73.5 159t-178.5 56q-130 0 -198 -69.5t-68 -200.5v-1133h-187z" />
<glyph unicode="&#xe0;" horiz-adv-x="1255" d="M123 326q0 189 126.5 285t377.5 96h258v18q0 127 -83.5 196.5t-234.5 69.5q-96 0 -187 -23t-175 -69v170q101 39 196 58.5t185 19.5q243 0 363 -126t120 -382v-639h-184v170q-63 -102 -157 -150.5t-230 -48.5q-172 0 -273.5 96.5t-101.5 258.5zM252 1638h197l282 -374 h-153zM307 338q0 -98 64.5 -155.5t175.5 -57.5q153 0 245.5 108.5t92.5 288.5v41h-183q-223 0 -309 -51t-86 -174z" />
<glyph unicode="&#xe1;" horiz-adv-x="1255" d="M123 326q0 189 126.5 285t377.5 96h258v18q0 127 -83.5 196.5t-234.5 69.5q-96 0 -187 -23t-175 -69v170q101 39 196 58.5t185 19.5q243 0 363 -126t120 -382v-639h-184v170q-63 -102 -157 -150.5t-230 -48.5q-172 0 -273.5 96.5t-101.5 258.5zM307 338 q0 -98 64.5 -155.5t175.5 -57.5q153 0 245.5 108.5t92.5 288.5v41h-183q-223 0 -309 -51t-86 -174zM453 1262l280 376h199l-326 -376h-153z" />
<glyph unicode="&#xe2;" horiz-adv-x="1255" d="M123 326q0 189 126.5 285t377.5 96h258v18q0 127 -83.5 196.5t-234.5 69.5q-96 0 -187 -23t-175 -69v170q101 39 196 58.5t185 19.5q243 0 363 -126t120 -382v-639h-184v170q-63 -102 -157 -150.5t-230 -48.5q-172 0 -273.5 96.5t-101.5 258.5zM275 1262l245 376h148 l245 -376h-139l-180 245l-180 -245h-139zM307 338q0 -98 64.5 -155.5t175.5 -57.5q153 0 245.5 108.5t92.5 288.5v41h-183q-223 0 -309 -51t-86 -174z" />
<glyph unicode="&#xe3;" horiz-adv-x="1255" d="M123 326q0 189 126.5 285t377.5 96h258v18q0 127 -83.5 196.5t-234.5 69.5q-96 0 -187 -23t-175 -69v170q101 39 196 58.5t185 19.5q243 0 363 -126t120 -382v-639h-184v170q-63 -102 -157 -150.5t-230 -48.5q-172 0 -273.5 96.5t-101.5 258.5zM264 1309q2 135 53 208.5 t142 73.5q38 0 70 -14t69 -47l57 -55q22 -20 38.5 -29.5t29.5 -9.5q38 0 56 36.5t20 118.5h125q-2 -135 -53 -208.5t-142 -73.5q-38 0 -70 14t-69 47l-57 55q-22 20 -38.5 29.5t-29.5 9.5q-38 0 -56 -36.5t-20 -118.5h-125zM307 338q0 -98 64.5 -155.5t175.5 -57.5 q153 0 245.5 108.5t92.5 288.5v41h-183q-223 0 -309 -51t-86 -174z" />
<glyph unicode="&#xe4;" horiz-adv-x="1255" d="M123 326q0 189 126.5 285t377.5 96h258v18q0 127 -83.5 196.5t-234.5 69.5q-96 0 -187 -23t-175 -69v170q101 39 196 58.5t185 19.5q243 0 363 -126t120 -382v-639h-184v170q-63 -102 -157 -150.5t-230 -48.5q-172 0 -273.5 96.5t-101.5 258.5zM297 1350v202h203v-202 h-203zM307 338q0 -98 64.5 -155.5t175.5 -57.5q153 0 245.5 108.5t92.5 288.5v41h-183q-223 0 -309 -51t-86 -174zM688 1350v202h203v-202h-203z" />
<glyph unicode="&#xe5;" horiz-adv-x="1255" d="M123 326q0 189 126.5 285t377.5 96h258v18q0 127 -83.5 196.5t-234.5 69.5q-96 0 -187 -23t-175 -69v170q101 39 196 58.5t185 19.5q243 0 363 -126t120 -382v-639h-184v170q-63 -102 -157 -150.5t-230 -48.5q-172 0 -273.5 96.5t-101.5 258.5zM307 338 q0 -98 64.5 -155.5t175.5 -57.5q153 0 245.5 108.5t92.5 288.5v41h-183q-223 0 -309 -51t-86 -174zM320 1524q0 115 79.5 194.5t194.5 79.5t194.5 -79.5t79.5 -194.5t-79.5 -195t-194.5 -80t-194.5 80t-79.5 195zM442 1524q0 -65 43.5 -108.5t108.5 -43.5q64 0 108 44 t44 108q0 63 -44 107t-108 44q-65 0 -108.5 -43.5t-43.5 -107.5z" />
<glyph unicode="&#xe6;" horiz-adv-x="2011" d="M123 326q0 189 126.5 285t377.5 96h258v18q0 127 -83.5 196.5t-234.5 69.5q-96 0 -187 -23t-175 -69v170q101 39 196 58.5t185 19.5q142 0 248.5 -48t160.5 -136q74 90 180 137t238 47q226 0 358 -145.5t132 -395.5v-90h-846q12 -191 114 -291t285 -100q104 0 204 26.5 t200 79.5v-174q-100 -42 -204 -64t-210 -22q-167 0 -291 60.5t-201 179.5q-73 -120 -181 -180t-251 -60q-189 0 -294 93.5t-105 261.5zM307 338q0 -98 64.5 -155.5t175.5 -57.5q153 0 245.5 108.5t92.5 288.5v41h-183q-223 0 -309 -51t-86 -174zM1063 659l655 1 q-1 151 -83.5 241t-219.5 90q-153 0 -245.5 -87t-106.5 -245z" />
<glyph unicode="&#xe7;" horiz-adv-x="1126" d="M113 559q0 274 150.5 431t412.5 157q85 0 166 -17.5t157 -52.5v-172q-78 43 -156.5 64.5t-158.5 21.5q-179 0 -278 -113.5t-99 -318.5t99 -318.5t278 -113.5q80 0 158.5 21.5t156.5 64.5v-170q-77 -36 -159.5 -54t-175.5 -18q-253 0 -402 159t-149 429zM434 -240 q34 -17 71 -24.5t84 -7.5q59 0 89 24t30 70q0 30 -21.5 73.5t-66.5 104.5h119q55 -62 82 -114.5t27 -100.5q0 -89 -60 -134.5t-178 -45.5q-46 0 -89.5 6t-86.5 18v131z" />
<glyph unicode="&#xe8;" horiz-adv-x="1260" d="M113 549q0 275 148.5 436.5t400.5 161.5q226 0 357.5 -145.5t131.5 -395.5v-90h-846q12 -190 114.5 -289.5t285.5 -99.5q106 0 205.5 26t197.5 78v-174q-99 -42 -203 -64t-211 -22q-268 0 -424.5 156t-156.5 422zM309 1638h197l282 -374h-153zM311 659l656 1 q-2 151 -84.5 241t-218.5 90q-154 0 -246.5 -87t-106.5 -245z" />
<glyph unicode="&#xe9;" horiz-adv-x="1260" d="M113 549q0 275 148.5 436.5t400.5 161.5q226 0 357.5 -145.5t131.5 -395.5v-90h-846q12 -190 114.5 -289.5t285.5 -99.5q106 0 205.5 26t197.5 78v-174q-99 -42 -203 -64t-211 -22q-268 0 -424.5 156t-156.5 422zM311 659l656 1q-2 151 -84.5 241t-218.5 90 q-154 0 -246.5 -87t-106.5 -245zM510 1262l280 376h199l-326 -376h-153z" />
<glyph unicode="&#xea;" horiz-adv-x="1260" d="M113 549q0 275 148.5 436.5t400.5 161.5q226 0 357.5 -145.5t131.5 -395.5v-90h-846q12 -190 114.5 -289.5t285.5 -99.5q106 0 205.5 26t197.5 78v-174q-99 -42 -203 -64t-211 -22q-268 0 -424.5 156t-156.5 422zM311 659l656 1q-2 151 -84.5 241t-218.5 90 q-154 0 -246.5 -87t-106.5 -245zM332 1262l245 376h148l245 -376h-139l-180 245l-180 -245h-139z" />
<glyph unicode="&#xeb;" horiz-adv-x="1260" d="M113 549q0 275 148.5 436.5t400.5 161.5q226 0 357.5 -145.5t131.5 -395.5v-90h-846q12 -190 114.5 -289.5t285.5 -99.5q106 0 205.5 26t197.5 78v-174q-99 -42 -203 -64t-211 -22q-268 0 -424.5 156t-156.5 422zM311 659l656 1q-2 151 -84.5 241t-218.5 90 q-154 0 -246.5 -87t-106.5 -245zM354 1350v202h203v-202h-203zM745 1350v202h203v-202h-203z" />
<glyph unicode="&#xec;" horiz-adv-x="569" d="M-56 1638h197l282 -374h-153zM193 0v1120h184v-1120h-184z" />
<glyph unicode="&#xed;" horiz-adv-x="569" d="M145 1262l280 376h199l-326 -376h-153zM193 0v1120h184v-1120h-184z" />
<glyph unicode="&#xee;" horiz-adv-x="569" d="M-33 1262l245 376h148l245 -376h-139l-180 245l-180 -245h-139zM193 0v1120h184v-1120h-184z" />
<glyph unicode="&#xef;" horiz-adv-x="569" d="M-11 1350v202h203v-202h-203zM193 0v1120h184v-1120h-184zM380 1350v202h203v-202h-203z" />
<glyph unicode="&#xf0;" horiz-adv-x="1253" d="M113 537q0 250 138 405.5t359 155.5q18 0 44 -2.5t68 -7.5l-159 180l-319 -107l-33 99l281 92l-181 204h228l127 -145l333 111l33 -97l-295 -98l164 -186q126 -143 183 -287t57 -317q0 -255 -142 -410.5t-372 -155.5q-231 0 -372.5 155.5t-141.5 410.5zM307 537 q0 -188 87 -299t233 -111q145 0 232 111t87 299q0 122 -27 216t-81 162q-50 17 -94 25t-85 8q-167 0 -259.5 -108t-92.5 -303z" />
<glyph unicode="&#xf1;" horiz-adv-x="1298" d="M186 0v1120h185v-174q66 101 155.5 151t206.5 50q193 0 292 -119.5t99 -351.5v-676h-184v670q0 159 -62 238t-186 79q-149 0 -235 -95t-86 -259v-633h-185zM334 1309q2 135 53 208.5t142 73.5q38 0 70 -14t69 -47l57 -55q22 -20 38.5 -29.5t29.5 -9.5q38 0 56 36.5 t20 118.5h125q-2 -135 -53 -208.5t-142 -73.5q-38 0 -70 14t-69 47l-57 55q-22 20 -38.5 29.5t-29.5 9.5q-38 0 -56 -36.5t-20 -118.5h-125z" />
<glyph unicode="&#xf2;" horiz-adv-x="1253" d="M100 559q0 276 136.5 432t377.5 156q240 0 377 -156t137 -432q0 -275 -137 -431.5t-377 -156.5q-241 0 -377.5 156.5t-136.5 431.5zM285 1638h197l282 -374h-153zM294 559q0 -201 85.5 -316.5t234.5 -115.5q147 0 233 116t86 316q0 199 -86 315.5t-233 116.5 q-148 0 -234 -115.5t-86 -316.5z" />
<glyph unicode="&#xf3;" horiz-adv-x="1253" d="M100 559q0 276 136.5 432t377.5 156q240 0 377 -156t137 -432q0 -275 -137 -431.5t-377 -156.5q-241 0 -377.5 156.5t-136.5 431.5zM294 559q0 -201 85.5 -316.5t234.5 -115.5q147 0 233 116t86 316q0 199 -86 315.5t-233 116.5q-148 0 -234 -115.5t-86 -316.5zM486 1262 l280 376h199l-326 -376h-153z" />
<glyph unicode="&#xf4;" horiz-adv-x="1253" d="M100 559q0 276 136.5 432t377.5 156q240 0 377 -156t137 -432q0 -275 -137 -431.5t-377 -156.5q-241 0 -377.5 156.5t-136.5 431.5zM294 559q0 -201 85.5 -316.5t234.5 -115.5q147 0 233 116t86 316q0 199 -86 315.5t-233 116.5q-148 0 -234 -115.5t-86 -316.5zM308 1262 l245 376h148l245 -376h-139l-180 245l-180 -245h-139z" />
<glyph unicode="&#xf5;" horiz-adv-x="1253" d="M100 559q0 276 136.5 432t377.5 156q240 0 377 -156t137 -432q0 -275 -137 -431.5t-377 -156.5q-241 0 -377.5 156.5t-136.5 431.5zM294 559q0 -201 85.5 -316.5t234.5 -115.5q147 0 233 116t86 316q0 199 -86 315.5t-233 116.5q-148 0 -234 -115.5t-86 -316.5zM297 1309 q2 135 53 208.5t142 73.5q38 0 70 -14t69 -47l57 -55q22 -20 38.5 -29.5t29.5 -9.5q38 0 56 36.5t20 118.5h125q-2 -135 -53 -208.5t-142 -73.5q-38 0 -70 14t-69 47l-57 55q-22 20 -38.5 29.5t-29.5 9.5q-38 0 -56 -36.5t-20 -118.5h-125z" />
<glyph unicode="&#xf6;" horiz-adv-x="1253" d="M100 559q0 276 136.5 432t377.5 156q240 0 377 -156t137 -432q0 -275 -137 -431.5t-377 -156.5q-241 0 -377.5 156.5t-136.5 431.5zM294 559q0 -201 85.5 -316.5t234.5 -115.5q147 0 233 116t86 316q0 199 -86 315.5t-233 116.5q-148 0 -234 -115.5t-86 -316.5zM330 1350 v202h203v-202h-203zM721 1350v202h203v-202h-203z" />
<glyph unicode="&#xf7;" horiz-adv-x="1716" d="M217 557v170h1282v-170h-1282zM735 150v245h246v-245h-246zM735 889v246h246v-246h-246z" />
<glyph unicode="&#xf8;" horiz-adv-x="1253" d="M72 -16l149 182q-54 77 -81 175.5t-27 217.5q0 276 136.5 432t377.5 156q93 0 172.5 -25.5t146.5 -77.5l139 168l95 -79l-146 -179q53 -77 80 -176t27 -219q0 -275 -137 -431.5t-377 -156.5q-96 0 -176.5 26t-143.5 77l-139 -168zM307 545q0 -72 9.5 -127t29.5 -101 l488 592q-42 41 -93.5 61.5t-113.5 20.5q-151 0 -235.5 -117.5t-84.5 -328.5zM418 209q41 -42 92.5 -62t116.5 -20q147 0 233 116t86 316q0 79 -10 137.5t-31 104.5z" />
<glyph unicode="&#xf9;" horiz-adv-x="1298" d="M174 442v678h184v-671q0 -159 62 -238.5t186 -79.5q149 0 235.5 95t86.5 259v635h184v-1120h-184v172q-67 -102 -155.5 -151.5t-205.5 -49.5q-193 0 -293 120t-100 351zM293 1638h197l282 -374h-153z" />
<glyph unicode="&#xfa;" horiz-adv-x="1298" d="M174 442v678h184v-671q0 -159 62 -238.5t186 -79.5q149 0 235.5 95t86.5 259v635h184v-1120h-184v172q-67 -102 -155.5 -151.5t-205.5 -49.5q-193 0 -293 120t-100 351zM494 1262l280 376h199l-326 -376h-153z" />
<glyph unicode="&#xfb;" horiz-adv-x="1298" d="M174 442v678h184v-671q0 -159 62 -238.5t186 -79.5q149 0 235.5 95t86.5 259v635h184v-1120h-184v172q-67 -102 -155.5 -151.5t-205.5 -49.5q-193 0 -293 120t-100 351zM316 1262l245 376h148l245 -376h-139l-180 245l-180 -245h-139z" />
<glyph unicode="&#xfc;" horiz-adv-x="1298" d="M174 442v678h184v-671q0 -159 62 -238.5t186 -79.5q149 0 235.5 95t86.5 259v635h184v-1120h-184v172q-67 -102 -155.5 -151.5t-205.5 -49.5q-193 0 -293 120t-100 351zM338 1350v202h203v-202h-203zM729 1350v202h203v-202h-203z" />
<glyph unicode="&#xfd;" horiz-adv-x="1212" d="M61 1120h195l350 -876l350 876h195l-492 -1224q-78 -200 -152 -261t-198 -61h-147v154h108q76 0 118 36t93 170l33 84zM465 1262l280 376h199l-326 -376h-153z" />
<glyph unicode="&#xfe;" horiz-adv-x="1300" d="M186 -426v1982h185v-606q58 100 146.5 148.5t211.5 48.5q204 0 331.5 -162t127.5 -426t-127.5 -426t-331.5 -162q-123 0 -211.5 48.5t-146.5 148.5v-594h-185zM371 559q0 -203 83.5 -318.5t229.5 -115.5t229.5 115.5t83.5 318.5t-83.5 318.5t-229.5 115.5t-229.5 -115.5 t-83.5 -318.5z" />
<glyph unicode="&#xff;" horiz-adv-x="1212" d="M61 1120h195l350 -876l350 876h195l-492 -1224q-78 -200 -152 -261t-198 -61h-147v154h108q76 0 118 36t93 170l33 84zM309 1350v202h203v-202h-203zM700 1350v202h203v-202h-203z" />
<glyph unicode="&#x100;" horiz-adv-x="1401" d="M16 0l570 1493h229l569 -1493h-210l-136 383h-673l-136 -383h-213zM401 1693v148h598v-148h-598zM426 551h549l-275 743z" />
<glyph unicode="&#x101;" horiz-adv-x="1255" d="M123 326q0 189 126.5 285t377.5 96h258v18q0 127 -83.5 196.5t-234.5 69.5q-96 0 -187 -23t-175 -69v170q101 39 196 58.5t185 19.5q243 0 363 -126t120 -382v-639h-184v170q-63 -102 -157 -150.5t-230 -48.5q-172 0 -273.5 96.5t-101.5 258.5zM287 1378v148h598v-148 h-598zM307 338q0 -98 64.5 -155.5t175.5 -57.5q153 0 245.5 108.5t92.5 288.5v41h-183q-223 0 -309 -51t-86 -174z" />
<glyph unicode="&#x102;" horiz-adv-x="1401" d="M16 0l570 1493h229l569 -1493h-210l-136 383h-673l-136 -383h-213zM405 1938h118q11 -75 59.5 -112.5t135.5 -37.5q86 0 134 37t61 113h118q-10 -143 -89 -215t-224 -72t-224 72t-89 215zM426 551h549l-275 743z" />
<glyph unicode="&#x103;" horiz-adv-x="1255" d="M123 326q0 189 126.5 285t377.5 96h258v18q0 127 -83.5 196.5t-234.5 69.5q-96 0 -187 -23t-175 -69v170q101 39 196 58.5t185 19.5q243 0 363 -126t120 -382v-639h-184v170q-63 -102 -157 -150.5t-230 -48.5q-172 0 -273.5 96.5t-101.5 258.5zM278 1568h118 q11 -75 59.5 -112.5t135.5 -37.5q86 0 134 37t61 113h118q-10 -143 -89 -215t-224 -72t-224 72t-89 215zM307 338q0 -98 64.5 -155.5t175.5 -57.5q153 0 245.5 108.5t92.5 288.5v41h-183q-223 0 -309 -51t-86 -174z" />
<glyph unicode="&#x104;" horiz-adv-x="1401" d="M16 0l570 1493h229l569 -1493h-210l-136 383h-673l-136 -383h-213zM426 551h549l-275 743zM1072 -215q0 48 26.5 100.5t81.5 114.5h119q-45 -61 -66.5 -105t-21.5 -75q0 -46 27.5 -69t81.5 -23q32 0 63 7.5t62 22.5v-133q-38 -10 -72 -15t-64 -5q-122 0 -179.5 43.5 t-57.5 136.5z" />
<glyph unicode="&#x105;" horiz-adv-x="1255" d="M123 326q0 189 126.5 285t377.5 96h258v18q0 127 -83.5 196.5t-234.5 69.5q-96 0 -187 -23t-175 -69v170q101 39 196 58.5t185 19.5q243 0 363 -126t120 -382v-639h-184v170q-63 -102 -157 -150.5t-230 -48.5q-172 0 -273.5 96.5t-101.5 258.5zM307 338 q0 -98 64.5 -155.5t175.5 -57.5q153 0 245.5 108.5t92.5 288.5v41h-183q-223 0 -309 -51t-86 -174zM779 -215q0 48 26.5 100.5t81.5 114.5h119q-45 -61 -66.5 -105t-21.5 -75q0 -46 27.5 -69t81.5 -23q32 0 63 7.5t62 22.5v-133q-38 -10 -72 -15t-64 -5q-122 0 -179.5 43.5 t-57.5 136.5z" />
<glyph unicode="&#x106;" horiz-adv-x="1430" d="M115 745q0 360 195 567.5t534 207.5q134 0 252.5 -35.5t222.5 -106.5v-213q-102 95 -217.5 142t-245.5 47q-256 0 -392 -156.5t-136 -452.5q0 -295 136 -451.5t392 -156.5q130 0 245.5 47t217.5 142v-211q-106 -72 -224.5 -108t-250.5 -36q-339 0 -534 207.5t-195 566.5z M672 1635l196 264h185l-228 -264h-153z" />
<glyph unicode="&#x107;" horiz-adv-x="1126" d="M113 559q0 274 150.5 431t412.5 157q85 0 166 -17.5t157 -52.5v-172q-78 43 -156.5 64.5t-158.5 21.5q-179 0 -278 -113.5t-99 -318.5t99 -318.5t278 -113.5q80 0 158.5 21.5t156.5 64.5v-170q-77 -36 -159.5 -54t-175.5 -18q-253 0 -402 159t-149 429zM508 1262l280 376 h199l-326 -376h-153z" />
<glyph unicode="&#x108;" horiz-adv-x="1430" d="M115 745q0 360 195 567.5t534 207.5q134 0 252.5 -35.5t222.5 -106.5v-213q-102 95 -217.5 142t-245.5 47q-256 0 -392 -156.5t-136 -452.5q0 -295 136 -451.5t392 -156.5q130 0 245.5 47t217.5 142v-211q-106 -72 -224.5 -108t-250.5 -36q-339 0 -534 207.5t-195 566.5z M539 1635l211 266h188l211 -266h-139l-166 178l-166 -178h-139z" />
<glyph unicode="&#x109;" horiz-adv-x="1126" d="M113 559q0 274 150.5 431t412.5 157q85 0 166 -17.5t157 -52.5v-172q-78 43 -156.5 64.5t-158.5 21.5q-179 0 -278 -113.5t-99 -318.5t99 -318.5t278 -113.5q80 0 158.5 21.5t156.5 64.5v-170q-77 -36 -159.5 -54t-175.5 -18q-253 0 -402 159t-149 429zM357 1262l245 376 h148l245 -376h-139l-180 245l-180 -245h-139z" />
<glyph unicode="&#x10a;" horiz-adv-x="1430" d="M115 745q0 360 195 567.5t534 207.5q134 0 252.5 -35.5t222.5 -106.5v-213q-102 95 -217.5 142t-245.5 47q-256 0 -392 -156.5t-136 -452.5q0 -295 136 -451.5t392 -156.5q130 0 245.5 47t217.5 142v-211q-106 -72 -224.5 -108t-250.5 -36q-339 0 -534 207.5t-195 566.5z M742 1667v205h204v-205h-204z" />
<glyph unicode="&#x10b;" horiz-adv-x="1126" d="M113 559q0 274 150.5 431t412.5 157q85 0 166 -17.5t157 -52.5v-172q-78 43 -156.5 64.5t-158.5 21.5q-179 0 -278 -113.5t-99 -318.5t99 -318.5t278 -113.5q80 0 158.5 21.5t156.5 64.5v-170q-77 -36 -159.5 -54t-175.5 -18q-253 0 -402 159t-149 429zM574 1348v204h204 v-204h-204z" />
<glyph unicode="&#x10c;" horiz-adv-x="1430" d="M115 745q0 360 195 567.5t534 207.5q134 0 252.5 -35.5t222.5 -106.5v-213q-102 95 -217.5 142t-245.5 47q-256 0 -392 -156.5t-136 -452.5q0 -295 136 -451.5t392 -156.5q130 0 245.5 47t217.5 142v-211q-106 -72 -224.5 -108t-250.5 -36q-339 0 -534 207.5t-195 566.5z M508 1901h139l166 -178l166 178h139l-211 -266h-188z" />
<glyph unicode="&#x10d;" horiz-adv-x="1126" d="M113 559q0 274 150.5 431t412.5 157q85 0 166 -17.5t157 -52.5v-172q-78 43 -156.5 64.5t-158.5 21.5q-179 0 -278 -113.5t-99 -318.5t99 -318.5t278 -113.5q80 0 158.5 21.5t156.5 64.5v-170q-77 -36 -159.5 -54t-175.5 -18q-253 0 -402 159t-149 429zM330 1638h139 l180 -245l180 245h139l-245 -376h-148z" />
<glyph unicode="&#x10e;" horiz-adv-x="1577" d="M201 0v1493h415q434 0 637 -180.5t203 -564.5q0 -386 -204 -567t-636 -181h-415zM403 166h244q309 0 452.5 140t143.5 442q0 300 -143.5 439.5t-452.5 139.5h-244v-1161zM443 1921h139l166 -178l166 178h139l-211 -266h-188z" />
<glyph unicode="&#x10f;" horiz-adv-x="1300" d="M113 559q0 264 127.5 426t330.5 162q124 0 212.5 -48.5t146.5 -148.5v606h184v-1556h-184v168q-58 -100 -146.5 -148.5t-212.5 -48.5q-203 0 -330.5 162t-127.5 426zM303 559q0 -203 83.5 -318.5t229.5 -115.5t230 115.5t84 318.5t-84 318.5t-230 115.5t-229.5 -115.5 t-83.5 -318.5zM1229 1178l71 376h199l-117 -376h-153z" />
<glyph unicode="&#x110;" horiz-adv-x="1587" d="M10 700v144h201v649h416q433 0 636 -180.5t203 -564.5q0 -386 -203.5 -567t-635.5 -181h-416v700h-201zM414 166h243q309 0 452.5 140t143.5 442q0 300 -143.5 439.5t-452.5 139.5h-243v-483h336v-144h-336v-534z" />
<glyph unicode="&#x111;" horiz-adv-x="1300" d="M113 559q0 264 127.5 426t330.5 162q124 0 212.5 -48.5t146.5 -148.5v334h-326v125h326v147h184v-147h154v-125h-154v-1284h-184v168q-58 -100 -146.5 -148.5t-212.5 -48.5q-203 0 -330.5 162t-127.5 426zM303 559q0 -203 83.5 -318.5t229.5 -115.5t230 115.5t84 318.5 t-84 318.5t-230 115.5t-229.5 -115.5t-83.5 -318.5z" />
<glyph unicode="&#x112;" horiz-adv-x="1294" d="M201 0v1493h944v-170h-742v-442h711v-170h-711v-541h760v-170h-962zM374 1695v148h598v-148h-598z" />
<glyph unicode="&#x113;" horiz-adv-x="1260" d="M113 549q0 275 148.5 436.5t400.5 161.5q226 0 357.5 -145.5t131.5 -395.5v-90h-846q12 -190 114.5 -289.5t285.5 -99.5q106 0 205.5 26t197.5 78v-174q-99 -42 -203 -64t-211 -22q-268 0 -424.5 156t-156.5 422zM311 659l656 1q-2 151 -84.5 241t-218.5 90 q-154 0 -246.5 -87t-106.5 -245zM363 1378v148h598v-148h-598z" />
<glyph unicode="&#x114;" horiz-adv-x="1294" d="M201 0v1493h944v-170h-742v-442h711v-170h-711v-541h760v-170h-962zM360 1901h118q13 -54 62.5 -82.5t132.5 -28.5q82 0 130.5 27.5t64.5 83.5h118q-10 -119 -90 -180.5t-223 -61.5q-144 0 -223.5 61t-89.5 181z" />
<glyph unicode="&#x115;" horiz-adv-x="1260" d="M113 549q0 275 148.5 436.5t400.5 161.5q226 0 357.5 -145.5t131.5 -395.5v-90h-846q12 -190 114.5 -289.5t285.5 -99.5q106 0 205.5 26t197.5 78v-174q-99 -42 -203 -64t-211 -22q-268 0 -424.5 156t-156.5 422zM311 659l656 1q-2 151 -84.5 241t-218.5 90 q-154 0 -246.5 -87t-106.5 -245zM349 1608h118q11 -75 59.5 -112.5t135.5 -37.5q86 0 134 37t61 113h118q-10 -143 -89 -215t-224 -72t-224 72t-89 215z" />
<glyph unicode="&#x116;" horiz-adv-x="1294" d="M201 0v1493h944v-170h-742v-442h711v-170h-711v-541h760v-170h-962zM571 1667v205h204v-205h-204z" />
<glyph unicode="&#x117;" horiz-adv-x="1260" d="M113 549q0 275 148.5 436.5t400.5 161.5q226 0 357.5 -145.5t131.5 -395.5v-90h-846q12 -190 114.5 -289.5t285.5 -99.5q106 0 205.5 26t197.5 78v-174q-99 -42 -203 -64t-211 -22q-268 0 -424.5 156t-156.5 422zM311 659l656 1q-2 151 -84.5 241t-218.5 90 q-154 0 -246.5 -87t-106.5 -245zM560 1348v204h204v-204h-204z" />
<glyph unicode="&#x118;" horiz-adv-x="1294" d="M201 0v1493h944v-170h-742v-442h711v-170h-711v-541h760v-170h-962zM792 -215q0 48 26.5 100.5t81.5 114.5h119q-45 -61 -66.5 -105t-21.5 -75q0 -46 27.5 -69t81.5 -23q32 0 63 7.5t62 22.5v-133q-38 -10 -72 -15t-64 -5q-122 0 -179.5 43.5t-57.5 136.5z" />
<glyph unicode="&#x119;" horiz-adv-x="1260" d="M113 549q0 275 148.5 436.5t400.5 161.5q226 0 357.5 -145.5t131.5 -395.5v-90h-846q12 -190 114.5 -289.5t285.5 -99.5q106 0 205.5 26t197.5 78v-174q-99 -42 -203 -64t-211 -22q-268 0 -424.5 156t-156.5 422zM311 659l656 1q-2 151 -84.5 241t-218.5 90 q-154 0 -246.5 -87t-106.5 -245zM708 -215q0 48 26.5 100.5t81.5 114.5h119q-45 -61 -66.5 -105t-21.5 -75q0 -46 27.5 -69t81.5 -23q32 0 63 7.5t62 22.5v-133q-38 -10 -72 -15t-64 -5q-122 0 -179.5 43.5t-57.5 136.5z" />
<glyph unicode="&#x11a;" horiz-adv-x="1294" d="M201 0v1493h944v-170h-742v-442h711v-170h-711v-541h760v-170h-962zM373 1895h139l166 -178l166 178h139l-211 -266h-188z" />
<glyph unicode="&#x11b;" horiz-adv-x="1260" d="M113 549q0 275 148.5 436.5t400.5 161.5q226 0 357.5 -145.5t131.5 -395.5v-90h-846q12 -190 114.5 -289.5t285.5 -99.5q106 0 205.5 26t197.5 78v-174q-99 -42 -203 -64t-211 -22q-268 0 -424.5 156t-156.5 422zM311 659l656 1q-2 151 -84.5 241t-218.5 90 q-154 0 -246.5 -87t-106.5 -245zM341 1634h139l180 -245l180 245h139l-245 -376h-148z" />
<glyph unicode="&#x11c;" horiz-adv-x="1587" d="M115 745q0 366 197.5 570.5t547.5 204.5q146 0 277.5 -36t242.5 -106v-215q-112 95 -238 143t-265 48q-274 0 -411.5 -153t-137.5 -456q0 -302 137.5 -455t411.5 -153q107 0 191 18.5t151 57.5v401h-330v166h530v-641q-117 -83 -258 -125.5t-301 -42.5 q-350 0 -547.5 204.5t-197.5 569.5zM555 1635l211 266h188l211 -266h-139l-166 178l-166 -178h-139z" />
<glyph unicode="&#x11d;" horiz-adv-x="1300" d="M113 573q0 260 126 417t332 157q124 0 213 -49t146 -148v170h184v-981q0 -286 -127 -425.5t-389 -139.5q-97 0 -183 14.5t-167 44.5v179q81 -44 160 -65t161 -21q181 0 271 94.5t90 285.5v91q-57 -99 -146 -148t-213 -49q-206 0 -332 157t-126 416zM297 1262l245 376h148 l245 -376h-139l-180 245l-180 -245h-139zM303 573q0 -199 82.5 -309t230.5 -110q149 0 231.5 110t82.5 309q0 200 -82.5 310t-231.5 110q-148 0 -230.5 -110t-82.5 -310z" />
<glyph unicode="&#x11e;" horiz-adv-x="1587" d="M115 745q0 366 197.5 570.5t547.5 204.5q146 0 277.5 -36t242.5 -106v-215q-112 95 -238 143t-265 48q-274 0 -411.5 -153t-137.5 -456q0 -302 137.5 -455t411.5 -153q107 0 191 18.5t151 57.5v401h-330v166h530v-641q-117 -83 -258 -125.5t-301 -42.5 q-350 0 -547.5 204.5t-197.5 569.5zM482 1901h118q13 -54 62.5 -82.5t132.5 -28.5q82 0 130.5 27.5t64.5 83.5h118q-10 -119 -90 -180.5t-223 -61.5q-144 0 -223.5 61t-89.5 181z" />
<glyph unicode="&#x11f;" horiz-adv-x="1300" d="M113 573q0 260 126 417t332 157q124 0 213 -49t146 -148v170h184v-981q0 -286 -127 -425.5t-389 -139.5q-97 0 -183 14.5t-167 44.5v179q81 -44 160 -65t161 -21q181 0 271 94.5t90 285.5v91q-57 -99 -146 -148t-213 -49q-206 0 -332 157t-126 416zM303 573 q0 -199 82.5 -309t230.5 -110q149 0 231.5 110t82.5 309q0 200 -82.5 310t-231.5 110q-148 0 -230.5 -110t-82.5 -310zM338 1608h118q11 -75 59.5 -112.5t135.5 -37.5q86 0 134 37t61 113h118q-10 -143 -89 -215t-224 -72t-224 72t-89 215z" />
<glyph unicode="&#x120;" horiz-adv-x="1587" d="M115 745q0 366 197.5 570.5t547.5 204.5q146 0 277.5 -36t242.5 -106v-215q-112 95 -238 143t-265 48q-274 0 -411.5 -153t-137.5 -456q0 -302 137.5 -455t411.5 -153q107 0 191 18.5t151 57.5v401h-330v166h530v-641q-117 -83 -258 -125.5t-301 -42.5 q-350 0 -547.5 204.5t-197.5 569.5zM758 1667v205h204v-205h-204z" />
<glyph unicode="&#x121;" horiz-adv-x="1300" d="M113 573q0 260 126 417t332 157q124 0 213 -49t146 -148v170h184v-981q0 -286 -127 -425.5t-389 -139.5q-97 0 -183 14.5t-167 44.5v179q81 -44 160 -65t161 -21q181 0 271 94.5t90 285.5v91q-57 -99 -146 -148t-213 -49q-206 0 -332 157t-126 416zM303 573 q0 -199 82.5 -309t230.5 -110q149 0 231.5 110t82.5 309q0 200 -82.5 310t-231.5 110q-148 0 -230.5 -110t-82.5 -310zM514 1348v204h204v-204h-204z" />
<glyph unicode="&#x122;" horiz-adv-x="1587" d="M115 745q0 366 197.5 570.5t547.5 204.5q146 0 277.5 -36t242.5 -106v-215q-112 95 -238 143t-265 48q-274 0 -411.5 -153t-137.5 -456q0 -302 137.5 -455t411.5 -153q107 0 191 18.5t151 57.5v401h-330v166h530v-641q-117 -83 -258 -125.5t-301 -42.5 q-350 0 -547.5 204.5t-197.5 569.5zM712 -470l82 320h211l-164 -320h-129z" />
<glyph unicode="&#x123;" horiz-adv-x="1300" d="M113 573q0 260 126 417t332 157q124 0 213 -49t146 -148v170h184v-981q0 -286 -127 -425.5t-389 -139.5q-97 0 -183 14.5t-167 44.5v179q81 -44 160 -65t161 -21q181 0 271 94.5t90 285.5v91q-57 -99 -146 -148t-213 -49q-206 0 -332 157t-126 416zM303 573 q0 -199 82.5 -309t230.5 -110q149 0 231.5 110t82.5 309q0 200 -82.5 310t-231.5 110q-148 0 -230.5 -110t-82.5 -310zM511 1269l164 319h129l-82 -319h-211z" />
<glyph unicode="&#x124;" horiz-adv-x="1540" d="M201 0v1493h202v-612h734v612h202v-1493h-202v711h-734v-711h-202zM465 1635l211 266h188l211 -266h-139l-166 178l-166 -178h-139z" />
<glyph unicode="&#x125;" horiz-adv-x="1298" d="M-27 1635l211 266h188l211 -266h-139l-166 178l-166 -178h-139zM186 0v1556h185v-610q66 101 155.5 151t206.5 50q193 0 292 -119.5t99 -351.5v-676h-184v670q0 159 -62 238t-186 79q-149 0 -235 -95t-86 -259v-633h-185z" />
<glyph unicode="&#x126;" horiz-adv-x="1876" d="M201 1105v164h168v224h202v-224h734v224h202v-224h168v-164h-168v-1105h-202v711h-734v-711h-202v1105h-168zM571 881h734v224h-734v-224z" />
<glyph unicode="&#x127;" horiz-adv-x="1423" d="M120 1270v164h125v122h185v-122h352v-164h-352v-324q66 101 155.5 151t206.5 50q193 0 292 -119.5t99 -351.5v-676h-184v670q0 159 -62 238t-186 79q-149 0 -235 -95t-86 -259v-633h-185v1270h-125z" />
<glyph unicode="&#x128;" horiz-adv-x="604" d="M-28 1667q0 101 51.5 160t137.5 59q36 0 66.5 -8t78.5 -35l57 -30q23 -13 40 -19t32 -6q32 0 52 25.5t20 66.5v6h125q-2 -100 -53.5 -159.5t-135.5 -59.5q-34 0 -63.5 8t-81.5 35l-57 33q-25 14 -40.5 19.5t-27.5 5.5q-36 0 -56 -25t-20 -70v-6h-125zM201 0v1493h202 v-1493h-202z" />
<glyph unicode="&#x129;" horiz-adv-x="569" d="M-44 1309q2 135 53 208.5t142 73.5q38 0 70 -14t69 -47l57 -55q22 -20 38.5 -29.5t29.5 -9.5q38 0 56 36.5t20 118.5h125q-2 -135 -53 -208.5t-142 -73.5q-38 0 -70 14t-69 47l-57 55q-22 20 -38.5 29.5t-29.5 9.5q-38 0 -56 -36.5t-20 -118.5h-125zM193 0v1120h184 v-1120h-184z" />
<glyph unicode="&#x12a;" horiz-adv-x="604" d="M4 1693v148h598v-148h-598zM201 0v1493h202v-1493h-202z" />
<glyph unicode="&#x12b;" horiz-adv-x="569" d="M-13 1378v148h598v-148h-598zM193 0v1120h184v-1120h-184z" />
<glyph unicode="&#x12c;" horiz-adv-x="604" d="M-11 1901h118q13 -54 62.5 -82.5t132.5 -28.5q82 0 130.5 27.5t64.5 83.5h118q-10 -119 -90 -180.5t-223 -61.5q-144 0 -223.5 61t-89.5 181zM201 0v1493h202v-1493h-202z" />
<glyph unicode="&#x12d;" horiz-adv-x="569" d="M-27 1608h118q11 -75 59.5 -112.5t135.5 -37.5q86 0 134 37t61 113h118q-10 -143 -89 -215t-224 -72t-224 72t-89 215zM193 0v1120h184v-1120h-184z" />
<glyph unicode="&#x12e;" horiz-adv-x="604" d="M177 -215q0 48 26.5 100.5t81.5 114.5h119q-45 -61 -66.5 -105t-21.5 -75q0 -46 27.5 -69t81.5 -23q32 0 63 7.5t62 22.5v-133q-38 -10 -72 -15t-64 -5q-122 0 -179.5 43.5t-57.5 136.5zM201 0v1493h202v-1493h-202z" />
<glyph unicode="&#x12f;" horiz-adv-x="569" d="M151 -215q0 48 26.5 100.5t81.5 114.5h119q-45 -61 -66.5 -105t-21.5 -75q0 -46 27.5 -69t81.5 -23q32 0 63 7.5t62 22.5v-133q-38 -10 -72 -15t-64 -5q-122 0 -179.5 43.5t-57.5 136.5zM193 0v1120h184v-1120h-184zM193 1323v233h184v-233h-184z" />
<glyph unicode="&#x130;" horiz-adv-x="604" d="M201 0v1493h202v-1493h-202zM201 1667v205h204v-205h-204z" />
<glyph unicode="&#x131;" horiz-adv-x="569" d="M193 0v1120h184v-1120h-184z" />
<glyph unicode="&#x132;" horiz-adv-x="1208" d="M201 0v1493h202v-1493h-202zM498 -240h63q134 0 189 75t55 269v1389h202v-1389q0 -270 -102.5 -392t-329.5 -122h-77v170z" />
<glyph unicode="&#x133;" horiz-adv-x="1138" d="M193 0v1120h184v-1120h-184zM193 1323v233h184v-233h-184zM531 -270h49q105 0 143 48.5t38 201.5v1140h184v-1140q0 -214 -81.5 -310t-262.5 -96h-70v156zM761 1323v233h184v-233h-184z" />
<glyph unicode="&#x134;" horiz-adv-x="604" d="M-106 -240h63q134 0 189 75t55 269v1389h202v-1389q0 -270 -102.5 -392t-329.5 -122h-77v170zM-3 1635l211 266h188l211 -266h-139l-166 178l-166 -178h-139z" />
<glyph unicode="&#x135;" horiz-adv-x="569" d="M-37 -270h49q105 0 143 48.5t38 201.5v1140h184v-1140q0 -214 -81.5 -310t-262.5 -96h-70v156zM-33 1262l245 376h148l245 -376h-139l-180 245l-180 -245h-139z" />
<glyph unicode="&#x136;" horiz-adv-x="1343" d="M201 0v1493h202v-631l670 631h260l-741 -696l794 -797h-266l-717 719v-719h-202zM645 -442l82 320h211l-164 -320h-129z" />
<glyph unicode="&#x137;" horiz-adv-x="1186" d="M186 0v1556h185v-919l549 483h235l-594 -524l619 -596h-240l-569 547v-547h-185zM534 -442l82 320h211l-164 -320h-129z" />
<glyph unicode="&#x138;" horiz-adv-x="1186" d="M186 0v1120h185v-485l549 485h235l-594 -526l619 -594h-240l-569 545v-545h-185z" />
<glyph unicode="&#x139;" horiz-adv-x="1141" d="M201 0v1493h202v-1323h727v-170h-929zM225 1636l196 264h185l-228 -264h-153z" />
<glyph unicode="&#x13a;" horiz-adv-x="600" d="M193 0v1556h184v-1556h-184zM205 1636l196 264h185l-228 -264h-153z" />
<glyph unicode="&#x13b;" horiz-adv-x="1141" d="M201 0v1493h202v-1323h727v-170h-929zM517 -442l82 320h211l-164 -320h-129z" />
<glyph unicode="&#x13c;" horiz-adv-x="569" d="M136 -442l82 320h211l-164 -320h-129zM193 0v1556h184v-1556h-184z" />
<glyph unicode="&#x13d;" horiz-adv-x="1141" d="M201 0v1493h202v-1323h727v-170h-929zM600 1118l71 376h199l-117 -376h-153z" />
<glyph unicode="&#x13e;" horiz-adv-x="768" d="M193 0v1556h184v-1556h-184zM498 1180l71 376h199l-117 -376h-153z" />
<glyph unicode="&#x13f;" horiz-adv-x="1141" d="M201 0v1493h202v-1323h727v-170h-929zM780 703v254h211v-254h-211z" />
<glyph unicode="&#x140;" horiz-adv-x="700" d="M193 0v1556h184v-1556h-184zM433 699v254h211v-254h-211z" />
<glyph unicode="&#x141;" horiz-adv-x="1151" d="M-14 575l225 158v760h203v-616l313 219l80 -111l-393 -274v-541h727v-170h-930v571l-148 -106z" />
<glyph unicode="&#x142;" horiz-adv-x="582" d="M2 684l197 141v731h184v-602l125 90l76 -106l-201 -141v-797h-184v666l-123 -88z" />
<glyph unicode="&#x143;" horiz-adv-x="1532" d="M201 0v1493h272l662 -1249v1249h196v-1493h-272l-662 1249v-1249h-196zM568 1636l196 264h185l-228 -264h-153z" />
<glyph unicode="&#x144;" horiz-adv-x="1298" d="M186 0v1120h185v-174q66 101 155.5 151t206.5 50q193 0 292 -119.5t99 -351.5v-676h-184v670q0 159 -62 238t-186 79q-149 0 -235 -95t-86 -259v-633h-185zM437 1269l280 376h199l-326 -376h-153z" />
<glyph unicode="&#x145;" horiz-adv-x="1532" d="M201 0v1493h272l662 -1249v1249h196v-1493h-272l-662 1249v-1249h-196zM618 -442l82 320h211l-164 -320h-129z" />
<glyph unicode="&#x146;" horiz-adv-x="1298" d="M186 0v1120h185v-174q66 101 155.5 151t206.5 50q193 0 292 -119.5t99 -351.5v-676h-184v670q0 159 -62 238t-186 79q-149 0 -235 -95t-86 -259v-633h-185zM506 -442l82 320h211l-164 -320h-129z" />
<glyph unicode="&#x147;" horiz-adv-x="1532" d="M201 0v1493h272l662 -1249v1249h196v-1493h-272l-662 1249v-1249h-196zM452 1887h139l166 -178l166 178h139l-211 -266h-188z" />
<glyph unicode="&#x148;" horiz-adv-x="1298" d="M186 0v1120h185v-174q66 101 155.5 151t206.5 50q193 0 292 -119.5t99 -351.5v-676h-184v670q0 159 -62 238t-186 79q-149 0 -235 -95t-86 -259v-633h-185zM334 1638h139l180 -245l180 245h139l-245 -376h-148z" />
<glyph unicode="&#x149;" horiz-adv-x="1666" d="M205 1022l82 319v152h211v-152l-164 -319h-129zM527 0v1120h185v-174q66 101 155.5 151t206.5 50q193 0 292 -119.5t99 -351.5v-676h-184v670q0 159 -62 238t-186 79q-149 0 -235 -95t-86 -259v-633h-185z" />
<glyph unicode="&#x14a;" horiz-adv-x="1532" d="M213 0v1493h184l738 -1149v1149h184v-1513q0 -214 -82 -310q-81 -96 -262 -96h-254v156h233q105 0 143 48q38 49 38 222l-738 1149v-1149h-184z" />
<glyph unicode="&#x14b;" horiz-adv-x="1298" d="M186 0v1120h185v-174q66 101 155 151q90 50 207 50q193 0 292 -119q99 -120 99 -352v-696q0 -214 -82 -310q-81 -96 -262 -96h-254v156h233q105 0 143 48q38 49 38 202v690q0 159 -62 238t-186 79q-149 0 -235 -95t-86 -259v-633h-185z" />
<glyph unicode="&#x14c;" horiz-adv-x="1612" d="M115 745q0 354 188.5 564.5t503.5 210.5q314 0 502 -210.5t188 -564.5q0 -353 -188 -563.5t-502 -210.5q-315 0 -503.5 210t-188.5 564zM328 745q0 -282 129.5 -446t349.5 -164t348.5 164t128.5 446q0 283 -128.5 447t-348.5 164t-349.5 -164t-129.5 -447zM508 1693v148 h598v-148h-598z" />
<glyph unicode="&#x14d;" horiz-adv-x="1253" d="M100 559q0 276 136.5 432t377.5 156q240 0 377 -156t137 -432q0 -275 -137 -431.5t-377 -156.5q-241 0 -377.5 156.5t-136.5 431.5zM294 559q0 -201 85.5 -316.5t234.5 -115.5q147 0 233 116t86 316q0 199 -86 315.5t-233 116.5q-148 0 -234 -115.5t-86 -316.5zM328 1378 v148h598v-148h-598z" />
<glyph unicode="&#x14e;" horiz-adv-x="1612" d="M115 745q0 354 188.5 564.5t503.5 210.5q314 0 502 -210.5t188 -564.5q0 -353 -188 -563.5t-502 -210.5q-315 0 -503.5 210t-188.5 564zM328 745q0 -282 129.5 -446t349.5 -164t348.5 164t128.5 446q0 283 -128.5 447t-348.5 164t-349.5 -164t-129.5 -447zM494 1901h118 q13 -54 62.5 -82.5t132.5 -28.5q82 0 130.5 27.5t64.5 83.5h118q-10 -119 -90 -180.5t-223 -61.5q-144 0 -223.5 61t-89.5 181z" />
<glyph unicode="&#x14f;" horiz-adv-x="1253" d="M100 559q0 276 136.5 432t377.5 156q240 0 377 -156t137 -432q0 -275 -137 -431.5t-377 -156.5q-241 0 -377.5 156.5t-136.5 431.5zM294 559q0 -201 85.5 -316.5t234.5 -115.5q147 0 233 116t86 316q0 199 -86 315.5t-233 116.5q-148 0 -234 -115.5t-86 -316.5zM314 1608 h118q11 -75 59.5 -112.5t135.5 -37.5q86 0 134 37t61 113h118q-10 -143 -89 -215t-224 -72t-224 72t-89 215z" />
<glyph unicode="&#x150;" horiz-adv-x="1612" d="M115 745q0 354 188.5 564.5t503.5 210.5q314 0 502 -210.5t188 -564.5q0 -353 -188 -563.5t-502 -210.5q-315 0 -503.5 210t-188.5 564zM328 745q0 -282 129.5 -446t349.5 -164t348.5 164t128.5 446q0 283 -128.5 447t-348.5 164t-349.5 -164t-129.5 -447zM525 1635 l196 264h185l-228 -264h-153zM860 1635l196 264h185l-228 -264h-153z" />
<glyph unicode="&#x151;" horiz-adv-x="1253" d="M100 559q0 276 136.5 432t377.5 156q240 0 377 -156t137 -432q0 -275 -137 -431.5t-377 -156.5q-241 0 -377.5 156.5t-136.5 431.5zM294 559q0 -201 85.5 -316.5t234.5 -115.5q147 0 233 116t86 316q0 199 -86 315.5t-233 116.5q-148 0 -234 -115.5t-86 -316.5zM400 1262 l190 376h170l-223 -376h-137zM719 1262l205 376h178l-248 -376h-135z" />
<glyph unicode="&#x152;" horiz-adv-x="2191" d="M115 748q0 365 223.5 555t656.5 190h1047v-170h-742v-442h711v-170h-711v-541h760v-170h-1065q-433 0 -656.5 190t-223.5 558zM328 748q0 -289 160 -433.5t481 -144.5h129v1153h-129q-321 0 -481 -143.5t-160 -431.5z" />
<glyph unicode="&#x153;" horiz-adv-x="2095" d="M113 559q0 276 136.5 432t377.5 156q140 0 245.5 -55.5t171.5 -163.5q78 107 194 163t259 56q226 0 358 -145.5t132 -395.5v-90h-846q12 -190 114 -289.5t285 -99.5q106 0 206 26t198 78v-174q-100 -42 -204 -64t-210 -22q-160 0 -281 55t-202 164 q-71 -110 -175.5 -164.5t-244.5 -54.5q-241 0 -377.5 156.5t-136.5 431.5zM307 559q0 -201 85.5 -316.5t234.5 -115.5q147 0 233 116t86 316q0 199 -86 315.5t-233 116.5q-148 0 -234 -115.5t-86 -316.5zM1147 659l655 1q-2 152 -84 241.5t-219 89.5q-153 0 -245.5 -87 t-106.5 -245z" />
<glyph unicode="&#x154;" horiz-adv-x="1423" d="M201 0v1493h456q256 0 382 -107t126 -323q0 -141 -65.5 -234t-190.5 -129q65 -22 126.5 -94t123.5 -198l205 -408h-217l-191 383q-74 150 -143.5 199t-189.5 49h-220v-631h-202zM403 797h254q146 0 220.5 67.5t74.5 198.5t-74.5 197.5t-220.5 66.5h-254v-530zM520 1636 l196 264h185l-228 -264h-153z" />
<glyph unicode="&#x155;" horiz-adv-x="842" d="M186 0v1120h185v-174q58 102 151 151.5t226 49.5q19 0 42 -2.5t51 -7.5l1 -189q-31 18 -67.5 26.5t-80.5 8.5q-156 0 -239.5 -101.5t-83.5 -291.5v-590h-185zM437 1269l280 376h199l-326 -376h-153z" />
<glyph unicode="&#x156;" horiz-adv-x="1423" d="M201 0v1493h456q256 0 382 -107t126 -323q0 -141 -65.5 -234t-190.5 -129q65 -22 126.5 -94t123.5 -198l205 -408h-217l-191 383q-74 150 -143.5 199t-189.5 49h-220v-631h-202zM403 797h254q146 0 220.5 67.5t74.5 198.5t-74.5 197.5t-220.5 66.5h-254v-530zM634 -442 l82 320h211l-164 -320h-129z" />
<glyph unicode="&#x157;" horiz-adv-x="842" d="M130 -442l82 320h211l-164 -320h-129zM186 0v1120h185v-174q58 102 151 151.5t226 49.5q19 0 42 -2.5t51 -7.5l1 -189q-31 18 -67.5 26.5t-80.5 8.5q-156 0 -239.5 -101.5t-83.5 -291.5v-590h-185z" />
<glyph unicode="&#x158;" horiz-adv-x="1423" d="M201 0v1493h456q256 0 382 -107t126 -323q0 -141 -65.5 -234t-190.5 -129q65 -22 126.5 -94t123.5 -198l205 -408h-217l-191 383q-74 150 -143.5 199t-189.5 49h-220v-631h-202zM332 1887h139l166 -178l166 178h139l-211 -266h-188zM403 797h254q146 0 220.5 67.5 t74.5 198.5t-74.5 197.5t-220.5 66.5h-254v-530z" />
<glyph unicode="&#x159;" horiz-adv-x="842" d="M186 0v1120h185v-174q58 102 151 151.5t226 49.5q19 0 42 -2.5t51 -7.5l1 -189q-31 18 -67.5 26.5t-80.5 8.5q-156 0 -239.5 -101.5t-83.5 -291.5v-590h-185zM220 1638h139l180 -245l180 245h139l-245 -376h-148z" />
<glyph unicode="&#x15a;" horiz-adv-x="1300" d="M135 1094q0 198 139.5 312t384.5 114q105 0 214 -19t223 -57v-197q-115 55 -217 82t-197 27q-165 0 -254.5 -64t-89.5 -182q0 -99 59.5 -149.5t225.5 -81.5l122 -25q226 -43 333.5 -151.5t107.5 -290.5q0 -217 -145.5 -329t-426.5 -112q-106 0 -225.5 24t-247.5 71v208 q123 -69 241 -104t232 -35q173 0 267 68t94 194q0 110 -67.5 172t-221.5 93l-123 24q-226 45 -327 141t-101 267zM520 1636l196 264h185l-228 -264h-153z" />
<glyph unicode="&#x15b;" horiz-adv-x="1067" d="M111 41v190q102 -53 201 -79.5t196 -26.5q130 0 200 44.5t70 125.5q0 75 -50.5 115t-221.5 77l-64 15q-171 36 -247 110.5t-76 204.5q0 158 112 244t318 86q102 0 192 -15t166 -45v-174q-78 40 -162 60t-174 20q-137 0 -205.5 -42t-68.5 -126q0 -64 49 -100.5t197 -69.5 l63 -14q196 -42 278.5 -118.5t82.5 -213.5q0 -156 -123.5 -247t-339.5 -91q-90 0 -187.5 17.5t-205.5 52.5zM437 1269l280 376h199l-326 -376h-153z" />
<glyph unicode="&#x15c;" horiz-adv-x="1300" d="M135 1094q0 198 139.5 312t384.5 114q105 0 214 -19t223 -57v-197q-115 55 -217 82t-197 27q-165 0 -254.5 -64t-89.5 -182q0 -99 59.5 -149.5t225.5 -81.5l122 -25q226 -43 333.5 -151.5t107.5 -290.5q0 -217 -145.5 -329t-426.5 -112q-106 0 -225.5 24t-247.5 71v208 q123 -69 241 -104t232 -35q173 0 267 68t94 194q0 110 -67.5 172t-221.5 93l-123 24q-226 45 -327 141t-101 267zM354 1635l211 266h188l211 -266h-139l-166 178l-166 -178h-139z" />
<glyph unicode="&#x15d;" horiz-adv-x="1067" d="M111 41v190q102 -53 201 -79.5t196 -26.5q130 0 200 44.5t70 125.5q0 75 -50.5 115t-221.5 77l-64 15q-171 36 -247 110.5t-76 204.5q0 158 112 244t318 86q102 0 192 -15t166 -45v-174q-78 40 -162 60t-174 20q-137 0 -205.5 -42t-68.5 -126q0 -64 49 -100.5t197 -69.5 l63 -14q196 -42 278.5 -118.5t82.5 -213.5q0 -156 -123.5 -247t-339.5 -91q-90 0 -187.5 17.5t-205.5 52.5zM230 1262l245 376h148l245 -376h-139l-180 245l-180 -245h-139z" />
<glyph unicode="&#x15e;" horiz-adv-x="1300" d="M135 1094q0 198 139.5 312t384.5 114q105 0 214 -19t223 -57v-197q-115 55 -217 82t-197 27q-165 0 -254.5 -64t-89.5 -182q0 -99 59.5 -149.5t225.5 -81.5l122 -25q226 -43 333.5 -151.5t107.5 -290.5q0 -217 -145.5 -329t-426.5 -112q-106 0 -225.5 24t-247.5 71v208 q123 -69 241 -104t232 -35q173 0 267 68t94 194q0 110 -67.5 172t-221.5 93l-123 24q-226 45 -327 141t-101 267zM430 -240q34 -17 71 -24.5t84 -7.5q59 0 89 24t30 70q0 30 -21.5 73.5t-66.5 104.5h119q55 -62 82 -114.5t27 -100.5q0 -89 -60 -134.5t-178 -45.5 q-46 0 -89.5 6t-86.5 18v131z" />
<glyph unicode="&#x15f;" horiz-adv-x="1067" d="M111 41v190q102 -53 201 -79.5t196 -26.5q130 0 200 44.5t70 125.5q0 75 -50.5 115t-221.5 77l-64 15q-171 36 -247 110.5t-76 204.5q0 158 112 244t318 86q102 0 192 -15t166 -45v-174q-78 40 -162 60t-174 20q-137 0 -205.5 -42t-68.5 -126q0 -64 49 -100.5t197 -69.5 l63 -14q196 -42 278.5 -118.5t82.5 -213.5q0 -156 -123.5 -247t-339.5 -91q-90 0 -187.5 17.5t-205.5 52.5zM314 -240q34 -17 71 -24.5t84 -7.5q59 0 89 24t30 70q0 30 -21.5 73.5t-66.5 104.5h119q55 -62 82 -114.5t27 -100.5q0 -89 -60 -134.5t-178 -45.5q-46 0 -89.5 6 t-86.5 18v131z" />
<glyph unicode="&#x160;" horiz-adv-x="1300" d="M135 1094q0 198 139.5 312t384.5 114q105 0 214 -19t223 -57v-197q-115 55 -217 82t-197 27q-165 0 -254.5 -64t-89.5 -182q0 -99 59.5 -149.5t225.5 -81.5l122 -25q226 -43 333.5 -151.5t107.5 -290.5q0 -217 -145.5 -329t-426.5 -112q-106 0 -225.5 24t-247.5 71v208 q123 -69 241 -104t232 -35q173 0 267 68t94 194q0 110 -67.5 172t-221.5 93l-123 24q-226 45 -327 141t-101 267zM346 1901h139l166 -178l166 178h139l-211 -266h-188z" />
<glyph unicode="&#x161;" horiz-adv-x="1067" d="M111 41v190q102 -53 201 -79.5t196 -26.5q130 0 200 44.5t70 125.5q0 75 -50.5 115t-221.5 77l-64 15q-171 36 -247 110.5t-76 204.5q0 158 112 244t318 86q102 0 192 -15t166 -45v-174q-78 40 -162 60t-174 20q-137 0 -205.5 -42t-68.5 -126q0 -64 49 -100.5t197 -69.5 l63 -14q196 -42 278.5 -118.5t82.5 -213.5q0 -156 -123.5 -247t-339.5 -91q-90 0 -187.5 17.5t-205.5 52.5zM216 1638h139l180 -245l180 245h139l-245 -376h-148z" />
<glyph unicode="&#x162;" horiz-adv-x="1251" d="M-6 1323v170h1263v-170h-530v-1323h-203v1323h-530zM371 -240q34 -17 71 -24.5t84 -7.5q59 0 89 24t30 70q0 30 -21.5 73.5t-66.5 104.5h119q55 -62 82 -114.5t27 -100.5q0 -89 -60 -134.5t-178 -45.5q-46 0 -89.5 6t-86.5 18v131z" />
<glyph unicode="&#x163;" horiz-adv-x="803" d="M55 977v143h135v318h185v-318h379v-143h-379v-608q0 -137 37.5 -176t152.5 -39h189v-154h-189q-213 0 -294 79.5t-81 289.5v608h-135zM261 -240q34 -17 71 -24.5t84 -7.5q59 0 89 24t30 70q0 30 -21.5 73.5t-66.5 104.5h119q55 -62 82 -114.5t27 -100.5q0 -89 -60 -134.5 t-178 -45.5q-46 0 -89.5 6t-86.5 18v131z" />
<glyph unicode="&#x164;" horiz-adv-x="1251" d="M-6 1323v170h1263v-170h-530v-1323h-203v1323h-530zM322 1887h139l166 -178l166 178h139l-211 -266h-188z" />
<glyph unicode="&#x165;" horiz-adv-x="803" d="M55 977v143h135v318h185v-318h379v-143h-379v-608q0 -137 37.5 -176t152.5 -39h189v-154h-189q-213 0 -294 79.5t-81 289.5v608h-135zM496 1290l71 376h199l-117 -376h-153z" />
<glyph unicode="&#x166;" horiz-adv-x="1251" d="M-6 1323v170h1263v-170h-530v-576h265v-170h-265v-577h-203v577h-265v170h265v576h-530z" />
<glyph unicode="&#x167;" horiz-adv-x="803" d="M55 602v142h135v233h-135v143h135v318h185v-318h379v-143h-379v-233h190v-142h-190v-233q0 -137 37 -176q38 -39 153 -39h189v-154h-189q-213 0 -294 80q-81 79 -81 289v233h-135z" />
<glyph unicode="&#x168;" horiz-adv-x="1499" d="M178 561v932h203v-907q0 -240 87 -345.5t282 -105.5q194 0 281 105.5t87 345.5v907h203v-932q0 -292 -144.5 -441t-426.5 -149q-283 0 -427.5 149t-144.5 441zM420 1667q0 101 51.5 160t137.5 59q36 0 66.5 -8t78.5 -35l57 -30q23 -13 40 -19t32 -6q32 0 52 25.5t20 66.5 v6h125q-2 -100 -53.5 -159.5t-135.5 -59.5q-34 0 -63.5 8t-81.5 35l-57 33q-25 14 -40.5 19.5t-27.5 5.5q-36 0 -56 -25t-20 -70v-6h-125z" />
<glyph unicode="&#x169;" horiz-adv-x="1298" d="M174 442v678h184v-671q0 -159 62 -238.5t186 -79.5q149 0 235.5 95t86.5 259v635h184v-1120h-184v172q-67 -102 -155.5 -151.5t-205.5 -49.5q-193 0 -293 120t-100 351zM313 1309q2 135 53 208.5t142 73.5q38 0 70 -14t69 -47l57 -55q22 -20 38.5 -29.5t29.5 -9.5 q38 0 56 36.5t20 118.5h125q-2 -135 -53 -208.5t-142 -73.5q-38 0 -70 14t-69 47l-57 55q-22 20 -38.5 29.5t-29.5 9.5q-38 0 -56 -36.5t-20 -118.5h-125z" />
<glyph unicode="&#x16a;" horiz-adv-x="1499" d="M178 561v932h203v-907q0 -240 87 -345.5t282 -105.5q194 0 281 105.5t87 345.5v907h203v-932q0 -292 -144.5 -441t-426.5 -149q-283 0 -427.5 149t-144.5 441zM451 1693v148h598v-148h-598z" />
<glyph unicode="&#x16b;" horiz-adv-x="1298" d="M174 442v678h184v-671q0 -159 62 -238.5t186 -79.5q149 0 235.5 95t86.5 259v635h184v-1120h-184v172q-67 -102 -155.5 -151.5t-205.5 -49.5q-193 0 -293 120t-100 351zM344 1378v148h598v-148h-598z" />
<glyph unicode="&#x16c;" horiz-adv-x="1499" d="M178 561v932h203v-907q0 -240 87 -345.5t282 -105.5q194 0 281 105.5t87 345.5v907h203v-932q0 -292 -144.5 -441t-426.5 -149q-283 0 -427.5 149t-144.5 441zM437 1901h118q13 -54 62.5 -82.5t132.5 -28.5q82 0 130.5 27.5t64.5 83.5h118q-10 -119 -90 -180.5 t-223 -61.5q-144 0 -223.5 61t-89.5 181z" />
<glyph unicode="&#x16d;" horiz-adv-x="1298" d="M174 442v678h184v-671q0 -159 62 -238.5t186 -79.5q149 0 235.5 95t86.5 259v635h184v-1120h-184v172q-67 -102 -155.5 -151.5t-205.5 -49.5q-193 0 -293 120t-100 351zM330 1608h118q11 -75 59.5 -112.5t135.5 -37.5q86 0 134 37t61 113h118q-10 -143 -89 -215t-224 -72 t-224 72t-89 215z" />
<glyph unicode="&#x16e;" horiz-adv-x="1499" d="M178 561v932h203v-907q0 -240 87 -345.5t282 -105.5q194 0 281 105.5t87 345.5v907h203v-932q0 -292 -144.5 -441t-426.5 -149q-283 0 -427.5 149t-144.5 441zM478 1849q0 115 79.5 194.5t194.5 79.5t194.5 -79.5t79.5 -194.5t-79.5 -195t-194.5 -80t-194.5 80t-79.5 195 zM600 1849q0 -65 43.5 -108.5t108.5 -43.5q64 0 108 44t44 108q0 63 -44 107t-108 44q-65 0 -108.5 -43.5t-43.5 -107.5z" />
<glyph unicode="&#x16f;" horiz-adv-x="1298" d="M174 442v678h184v-671q0 -159 62 -238.5t186 -79.5q149 0 235.5 95t86.5 259v635h184v-1120h-184v172q-67 -102 -155.5 -151.5t-205.5 -49.5q-193 0 -293 120t-100 351zM362 1465q0 115 79.5 194.5t194.5 79.5t194.5 -79.5t79.5 -194.5t-79.5 -195t-194.5 -80t-194.5 80 t-79.5 195zM484 1465q0 -65 43.5 -108.5t108.5 -43.5q64 0 108 44t44 108q0 63 -44 107t-108 44q-65 0 -108.5 -43.5t-43.5 -107.5z" />
<glyph unicode="&#x170;" horiz-adv-x="1499" d="M178 561v932h203v-907q0 -240 87 -345.5t282 -105.5q194 0 281 105.5t87 345.5v907h203v-932q0 -292 -144.5 -441t-426.5 -149q-283 0 -427.5 149t-144.5 441zM468 1635l196 264h185l-228 -264h-153zM803 1635l196 264h185l-228 -264h-153z" />
<glyph unicode="&#x171;" horiz-adv-x="1298" d="M174 442v678h184v-671q0 -159 62 -238.5t186 -79.5q149 0 235.5 95t86.5 259v635h184v-1120h-184v172q-67 -102 -155.5 -151.5t-205.5 -49.5q-193 0 -293 120t-100 351zM416 1262l190 376h170l-223 -376h-137zM735 1262l205 376h178l-248 -376h-135z" />
<glyph unicode="&#x172;" horiz-adv-x="1499" d="M178 561v932h203v-907q0 -240 87 -345.5t282 -105.5q194 0 281 105.5t87 345.5v907h203v-932q0 -292 -144.5 -441t-426.5 -149q-283 0 -427.5 149t-144.5 441zM582 -230q0 48 26.5 100.5t81.5 114.5h119q-45 -61 -66.5 -105t-21.5 -75q0 -46 27.5 -69t81.5 -23 q32 0 63 7.5t62 22.5v-133q-38 -10 -72 -15t-64 -5q-122 0 -179.5 43.5t-57.5 136.5z" />
<glyph unicode="&#x173;" horiz-adv-x="1298" d="M174 442v678h184v-671q0 -159 62 -238.5t186 -79.5q149 0 235.5 95t86.5 259v635h184v-1120h-184v172q-67 -102 -155.5 -151.5t-205.5 -49.5q-193 0 -293 120t-100 351zM883 -215q0 48 26.5 100.5t81.5 114.5h119q-45 -61 -66.5 -105t-21.5 -75q0 -46 27.5 -69t81.5 -23 q32 0 63 7.5t62 22.5v-133q-38 -10 -72 -15t-64 -5q-122 0 -179.5 43.5t-57.5 136.5z" />
<glyph unicode="&#x174;" horiz-adv-x="2025" d="M68 1493h204l314 -1262l313 1262h227l314 -1262l313 1262h205l-375 -1493h-254l-315 1296l-318 -1296h-254zM708 1642l211 266h188l211 -266h-139l-166 178l-166 -178h-139z" />
<glyph unicode="&#x175;" horiz-adv-x="1675" d="M86 1120h184l230 -874l229 874h217l230 -874l229 874h184l-293 -1120h-217l-241 918l-242 -918h-217zM518 1269l245 376h148l245 -376h-139l-180 245l-180 -245h-139z" />
<glyph unicode="&#x176;" horiz-adv-x="1251" d="M-4 1493h217l414 -614l411 614h217l-528 -782v-711h-203v711zM321 1642l211 266h188l211 -266h-139l-166 178l-166 -178h-139z" />
<glyph unicode="&#x177;" horiz-adv-x="1212" d="M61 1120h195l350 -876l350 876h195l-492 -1224q-78 -200 -152 -261t-198 -61h-147v154h108q76 0 118 36t93 170l33 84zM287 1269l245 376h148l245 -376h-139l-180 245l-180 -245h-139z" />
<glyph unicode="&#x178;" horiz-adv-x="1251" d="M-4 1493h217l414 -614l411 614h217l-528 -782v-711h-203v711zM330 1667v203h203v-203h-203zM721 1667v203h203v-203h-203z" />
<glyph unicode="&#x179;" horiz-adv-x="1403" d="M92 0v154l944 1169h-921v170h1173v-154l-944 -1169h967v-170h-1219zM520 1636l196 264h185l-228 -264h-153z" />
<glyph unicode="&#x17a;" horiz-adv-x="1075" d="M88 0v168l692 805h-667v147h874v-168l-692 -805h692v-147h-899zM437 1269l280 376h199l-326 -376h-153z" />
<glyph unicode="&#x17b;" horiz-adv-x="1403" d="M92 0v154l944 1169h-921v170h1173v-154l-944 -1169h967v-170h-1219zM578 1648v205h204v-205h-204z" />
<glyph unicode="&#x17c;" horiz-adv-x="1075" d="M88 0v168l692 805h-667v147h874v-168l-692 -805h692v-147h-899zM410 1348v204h204v-204h-204z" />
<glyph unicode="&#x17d;" horiz-adv-x="1403" d="M92 0v154l944 1169h-921v170h1173v-154l-944 -1169h967v-170h-1219zM397 1901h139l166 -178l166 178h139l-211 -266h-188z" />
<glyph unicode="&#x17e;" horiz-adv-x="1075" d="M88 0v168l692 805h-667v147h874v-168l-692 -805h692v-147h-899zM220 1638h139l180 -245l180 245h139l-245 -376h-148z" />
<glyph unicode="&#x17f;" horiz-adv-x="721" d="M47 977v143h176v78q0 187 87 272.5t276 85.5h174v-153h-176q-99 0 -138 -40q-38 -41 -38 -144v-1219h-185v977h-176z" />
<glyph unicode="&#x186;" horiz-adv-x="1430" d="M115 115v211q102 -95 217.5 -142t245.5 -47q256 0 392 156.5t136 451.5q0 296 -136 452.5t-392 156.5q-130 0 -245.5 -47t-217.5 -142v213q104 71 222.5 106.5t252.5 35.5q339 0 534 -207.5t195 -567.5q0 -359 -195 -566.5t-534 -207.5q-132 0 -250.5 36t-224.5 108z" />
<glyph unicode="&#x190;" horiz-adv-x="1303" d="M156 434q0 144 81.5 242t226.5 129q-131 33 -202 118.5t-71 209.5q0 178 134 282.5t364 104.5q89 0 189.5 -16t215.5 -48v-180q-114 38 -209 56t-178 18q-152 0 -233.5 -61.5t-81.5 -176.5q0 -112 79 -171.5t228 -59.5h182v-166h-174q-165 0 -257.5 -74.5t-92.5 -206.5 q0 -143 99.5 -218t289.5 -75q109 0 209 25t184 74v-195q-106 -37 -205.5 -55.5t-193.5 -18.5q-280 0 -432 121t-152 342z" />
<glyph unicode="&#x192;" horiz-adv-x="1303" d="M31 -217q52 -33 100.5 -49.5t95.5 -16.5q97 0 151.5 68.5t88.5 234.5l137 685h-248v143h279l63 330q36 183 135 280.5t250 97.5q53 0 103 -9t96 -27v-164q-38 29 -78 43t-84 14q-96 0 -153 -61t-82 -193l-60 -311h287v-143h-317l-127 -635q-58 -285 -152 -390.5 t-280 -105.5q-58 0 -108 10.5t-97 32.5v166z" />
<glyph unicode="&#x194;" horiz-adv-x="1403" d="M129 1353h217l371 -555l373 555h217l-475 -703q327 -449 324 -844q-3 -236 -416 -236q-408 0 -440 236q-49 366 294 851zM503 -130q3 -138 216 -138q205 0 204 138q-3 330 -221 625q-206 -301 -199 -625z" />
<glyph unicode="&#x1c4;" horiz-adv-x="2912" d="M201 0v1493h415q434 0 637 -180.5t203 -564.5q0 -386 -204 -567t-636 -181h-415zM403 166h244q309 0 452.5 140t143.5 442q0 300 -143.5 439.5t-452.5 139.5h-244v-1161zM1549 0v154l944 1169h-921v170h1173v-154l-944 -1169h967v-170h-1219zM1854 1901h139l166 -178 l166 178h139l-211 -266h-188z" />
<glyph unicode="&#x1c5;" horiz-adv-x="2660" d="M201 0v1493h415q434 0 637 -180.5t203 -564.5q0 -386 -204 -567t-636 -181h-415zM403 166h244q309 0 452.5 140t143.5 442q0 300 -143.5 439.5t-452.5 139.5h-244v-1161zM1581 0v168l692 805h-667v147h874v-168l-692 -805h692v-147h-899zM1713 1638h139l180 -245l180 245 h139l-245 -376h-148z" />
<glyph unicode="&#x1c6;" horiz-adv-x="2364" d="M113 559q0 264 127.5 426t330.5 162q124 0 212.5 -48.5t146.5 -148.5v606h184v-1556h-184v168q-58 -100 -146.5 -148.5t-212.5 -48.5q-203 0 -330.5 162t-127.5 426zM303 559q0 -203 83.5 -318.5t229.5 -115.5t230 115.5t84 318.5t-84 318.5t-230 115.5t-229.5 -115.5 t-83.5 -318.5zM1294 0v168l692 805h-667v147h874v-168l-692 -805h692v-147h-899zM1426 1638h139l180 -245l180 245h139l-245 -376h-148z" />
<glyph unicode="&#x1c7;" horiz-adv-x="1711" d="M201 0v1493h202v-1323h727v-170h-929zM1063 -240h63q134 0 189 75t55 269v1389h202v-1389q0 -270 -102.5 -392t-329.5 -122h-77v170z" />
<glyph unicode="&#x1c8;" horiz-adv-x="1611" d="M201 0v1493h202v-1323h727v-170h-929zM1088 -270h49q105 0 143 48.5t38 201.5v1140h184v-1140q0 -214 -81.5 -310t-262.5 -96h-70v156zM1318 1323v233h184v-233h-184z" />
<glyph unicode="&#x1c9;" horiz-adv-x="935" d="M193 0v1556h184v-1556h-184zM337 -270h49q105 0 143 48.5t38 201.5v1140h184v-1140q0 -214 -81.5 -310t-262.5 -96h-70v156zM567 1323v233h184v-233h-184z" />
<glyph unicode="&#x1ca;" horiz-adv-x="1907" d="M201 0v1493h272l662 -1249v1249h196v-1493h-272l-662 1249v-1249h-196zM1269 -240h63q134 0 189 75t55 269v1389h202v-1389q0 -270 -102.5 -392t-329.5 -122h-77v170z" />
<glyph unicode="&#x1cb;" horiz-adv-x="1892" d="M201 0v1493h272l662 -1249v1249h196v-1493h-272l-662 1249v-1249h-196zM1305 -270h49q105 0 143 48.5t38 201.5v1140h184v-1140q0 -214 -81.5 -310t-262.5 -96h-70v156zM1535 1323v233h184v-233h-184z" />
<glyph unicode="&#x1cc;" horiz-adv-x="1633" d="M186 0v1120h185v-174q66 101 155.5 151t206.5 50q193 0 292 -119.5t99 -351.5v-676h-184v670q0 159 -62 238t-186 79q-149 0 -235 -95t-86 -259v-633h-185zM1088 -270h49q105 0 143 48.5t38 201.5v1140h184v-1140q0 -214 -81.5 -310t-262.5 -96h-70v156zM1318 1323v233 h184v-233h-184z" />
<glyph unicode="&#x1cd;" horiz-adv-x="1401" d="M16 0l570 1493h229l569 -1493h-210l-136 383h-673l-136 -383h-213zM397 1901h139l166 -178l166 178h139l-211 -266h-188zM426 551h549l-275 743z" />
<glyph unicode="&#x1ce;" horiz-adv-x="1255" d="M123 326q0 189 126.5 285t377.5 96h258v18q0 127 -83.5 196.5t-234.5 69.5q-96 0 -187 -23t-175 -69v170q101 39 196 58.5t185 19.5q243 0 363 -126t120 -382v-639h-184v170q-63 -102 -157 -150.5t-230 -48.5q-172 0 -273.5 96.5t-101.5 258.5zM283 1638h139l180 -245 l180 245h139l-245 -376h-148zM307 338q0 -98 64.5 -155.5t175.5 -57.5q153 0 245.5 108.5t92.5 288.5v41h-183q-223 0 -309 -51t-86 -174z" />
<glyph unicode="&#x1cf;" horiz-adv-x="604" d="M-2 1901h139l166 -178l166 178h139l-211 -266h-188zM201 0v1493h202v-1493h-202z" />
<glyph unicode="&#x1d0;" horiz-adv-x="569" d="M-31 1638h139l180 -245l180 245h139l-245 -376h-148zM193 0v1120h184v-1120h-184z" />
<glyph unicode="&#x1d1;" horiz-adv-x="1612" d="M115 745q0 354 188.5 564.5t503.5 210.5q314 0 502 -210.5t188 -564.5q0 -353 -188 -563.5t-502 -210.5q-315 0 -503.5 210t-188.5 564zM328 745q0 -282 129.5 -446t349.5 -164t348.5 164t128.5 446q0 283 -128.5 447t-348.5 164t-349.5 -164t-129.5 -447zM502 1901h139 l166 -178l166 178h139l-211 -266h-188z" />
<glyph unicode="&#x1d2;" horiz-adv-x="1253" d="M100 559q0 276 136.5 432t377.5 156q240 0 377 -156t137 -432q0 -275 -137 -431.5t-377 -156.5q-241 0 -377.5 156.5t-136.5 431.5zM294 559q0 -201 85.5 -316.5t234.5 -115.5q147 0 233 116t86 316q0 199 -86 315.5t-233 116.5q-148 0 -234 -115.5t-86 -316.5zM311 1638 h139l180 -245l180 245h139l-245 -376h-148z" />
<glyph unicode="&#x1d3;" horiz-adv-x="1499" d="M178 561v932h203v-907q0 -240 87 -345.5t282 -105.5q194 0 281 105.5t87 345.5v907h203v-932q0 -292 -144.5 -441t-426.5 -149q-283 0 -427.5 149t-144.5 441zM453 1901h139l166 -178l166 178h139l-211 -266h-188z" />
<glyph unicode="&#x1d4;" horiz-adv-x="1298" d="M174 442v678h184v-671q0 -159 62 -238.5t186 -79.5q149 0 235.5 95t86.5 259v635h184v-1120h-184v172q-67 -102 -155.5 -151.5t-205.5 -49.5q-193 0 -293 120t-100 351zM311 1638h139l180 -245l180 245h139l-245 -376h-148z" />
<glyph unicode="&#x1d6;" horiz-adv-x="1298" d="M174 442v678h184v-671q0 -159 62 -238.5t186 -79.5q149 0 235.5 95t86.5 259v635h184v-1120h-184v172q-67 -102 -155.5 -151.5t-205.5 -49.5q-193 0 -293 120t-100 351zM336 1693v148h598v-148h-598zM338 1350v202h203v-202h-203zM729 1350v202h203v-202h-203z" />
<glyph unicode="&#x1df;" horiz-adv-x="1255" d="M123 326q0 189 126.5 285t377.5 96h258v18q0 127 -83.5 196.5t-234.5 69.5q-96 0 -187 -23t-175 -69v170q101 39 196 58.5t185 19.5q243 0 363 -126t120 -382v-639h-184v170q-63 -102 -157 -150.5t-230 -48.5q-172 0 -273.5 96.5t-101.5 258.5zM295 1693v148h598v-148 h-598zM297 1350v202h203v-202h-203zM307 338q0 -98 64.5 -155.5t175.5 -57.5q153 0 245.5 108.5t92.5 288.5v41h-183q-223 0 -309 -51t-86 -174zM688 1350v202h203v-202h-203z" />
<glyph unicode="&#x1e2;" horiz-adv-x="1995" d="M8 0l625 1493h1212v-170h-741v-442h711v-170h-711v-541h760v-170h-963v383h-528l-160 -383h-205zM442 551h459v784h-129zM940 1696v148h598v-148h-598z" />
<glyph unicode="&#x1e3;" horiz-adv-x="2011" d="M123 326q0 189 126.5 285t377.5 96h258v18q0 127 -83.5 196.5t-234.5 69.5q-96 0 -187 -23t-175 -69v170q101 39 196 58.5t185 19.5q142 0 248.5 -48t160.5 -136q74 90 180 137t238 47q226 0 358 -145.5t132 -395.5v-90h-846q12 -191 114 -291t285 -100q104 0 204 26.5 t200 79.5v-174q-100 -42 -204 -64t-210 -22q-167 0 -291 60.5t-201 179.5q-73 -120 -181 -180t-251 -60q-189 0 -294 93.5t-105 261.5zM307 338q0 -98 64.5 -155.5t175.5 -57.5q153 0 245.5 108.5t92.5 288.5v41h-183q-223 0 -309 -51t-86 -174zM701 1375v148h598v-148h-598 zM1063 659l655 1q-1 151 -83.5 241t-219.5 90q-153 0 -245.5 -87t-106.5 -245z" />
<glyph unicode="&#x1ea;" horiz-adv-x="1612" d="M115 745q0 354 188.5 564.5t503.5 210.5q314 0 502 -210.5t188 -564.5q0 -353 -188 -563.5t-502 -210.5q-315 0 -503.5 210t-188.5 564zM328 745q0 -282 129.5 -446t349.5 -164t348.5 164t128.5 446q0 283 -128.5 447t-348.5 164t-349.5 -164t-129.5 -447zM640 -230 q0 48 26.5 100.5t81.5 114.5h119q-45 -61 -66.5 -105t-21.5 -75q0 -46 27.5 -69t81.5 -23q32 0 63 7.5t62 22.5v-133q-38 -10 -72 -15t-64 -5q-122 0 -179.5 43.5t-57.5 136.5z" />
<glyph unicode="&#x1eb;" horiz-adv-x="1253" d="M100 559q0 276 136.5 432t377.5 156q240 0 377 -156t137 -432q0 -275 -137 -431.5t-377 -156.5q-241 0 -377.5 156.5t-136.5 431.5zM294 559q0 -201 85.5 -316.5t234.5 -115.5q147 0 233 116t86 316q0 199 -86 315.5t-233 116.5q-148 0 -234 -115.5t-86 -316.5zM460 -230 q0 48 26.5 100.5t81.5 114.5h119q-45 -61 -66.5 -105t-21.5 -75q0 -46 27.5 -69t81.5 -23q32 0 63 7.5t62 22.5v-133q-38 -10 -72 -15t-64 -5q-122 0 -179.5 43.5t-57.5 136.5z" />
<glyph unicode="&#x1ec;" horiz-adv-x="1612" d="M115 745q0 354 188.5 564.5t503.5 210.5q314 0 502 -210.5t188 -564.5q0 -353 -188 -563.5t-502 -210.5q-315 0 -503.5 210t-188.5 564zM328 745q0 -282 129.5 -446t349.5 -164t348.5 164t128.5 446q0 283 -128.5 447t-348.5 164t-349.5 -164t-129.5 -447zM508 1693v148 h598v-148h-598zM640 -231q0 48 26.5 100.5t81.5 114.5h119q-45 -61 -66.5 -105t-21.5 -75q0 -46 27.5 -69t81.5 -23q32 0 63 7.5t62 22.5v-133q-38 -10 -72 -15t-64 -5q-122 0 -179.5 43.5t-57.5 136.5z" />
<glyph unicode="&#x1ed;" horiz-adv-x="1253" d="M113 559q0 276 136.5 432t377.5 156q240 0 377 -156t137 -432q0 -275 -137 -431.5t-377 -156.5q-241 0 -377.5 156.5t-136.5 431.5zM307 559q0 -201 85.5 -316.5t234.5 -115.5q147 0 233 116t86 316q0 199 -86 315.5t-233 116.5q-148 0 -234 -115.5t-86 -316.5zM328 1377 v148h598v-148h-598zM460 -231q0 48 26.5 100.5t81.5 114.5h119q-45 -61 -66.5 -105t-21.5 -75q0 -46 27.5 -69t81.5 -23q32 0 63 7.5t62 22.5v-133q-38 -10 -72 -15t-64 -5q-122 0 -179.5 43.5t-57.5 136.5z" />
<glyph unicode="&#x218;" horiz-adv-x="1300" d="M135 1094q0 198 139.5 312t384.5 114q105 0 214 -19t223 -57v-197q-115 55 -217 82t-197 27q-165 0 -254.5 -64t-89.5 -182q0 -99 59.5 -149.5t225.5 -81.5l122 -25q226 -43 333.5 -151.5t107.5 -290.5q0 -217 -145.5 -329t-426.5 -112q-106 0 -225.5 24t-247.5 71v208 q123 -69 241 -104t232 -35q173 0 267 68t94 194q0 110 -67.5 172t-221.5 93l-123 24q-226 45 -327 141t-101 267zM480 -452l82 320h211l-164 -320h-129z" />
<glyph unicode="&#x219;" horiz-adv-x="1067" d="M111 41v190q102 -53 201 -79.5t196 -26.5q130 0 200 44.5t70 125.5q0 75 -50.5 115t-221.5 77l-64 15q-171 36 -247 110.5t-76 204.5q0 158 112 244t318 86q102 0 192 -15t166 -45v-174q-78 40 -162 60t-174 20q-137 0 -205.5 -42t-68.5 -126q0 -64 49 -100.5t197 -69.5 l63 -14q196 -42 278.5 -118.5t82.5 -213.5q0 -156 -123.5 -247t-339.5 -91q-90 0 -187.5 17.5t-205.5 52.5zM406 -452l82 320h211l-164 -320h-129z" />
<glyph unicode="&#x21a;" horiz-adv-x="1251" d="M-6 1323v170h1263v-170h-530v-1323h-203v1323h-530zM445 -452l82 320h211l-164 -320h-129z" />
<glyph unicode="&#x21b;" horiz-adv-x="803" d="M55 977v143h135v318h185v-318h379v-143h-379v-608q0 -137 37.5 -176t152.5 -39h189v-154h-189q-213 0 -294 79.5t-81 289.5v608h-135zM362 -452l82 320h211l-164 -320h-129z" />
<glyph unicode="&#x22b;" horiz-adv-x="1253" d="M113 559q0 276 136.5 432t377.5 156q240 0 377 -156t137 -432q0 -275 -137 -431.5t-377 -156.5q-241 0 -377.5 156.5t-136.5 431.5zM307 559q0 -201 85.5 -316.5t234.5 -115.5q147 0 233 116t86 316q0 199 -86 315.5t-233 116.5q-148 0 -234 -115.5t-86 -316.5zM328 1693 v148h598v-148h-598zM330 1350v202h203v-202h-203zM721 1350v202h203v-202h-203z" />
<glyph unicode="&#x22d;" horiz-adv-x="1253" d="M113 559q0 276 136.5 432t377.5 156q240 0 377 -156t137 -432q0 -275 -137 -431.5t-377 -156.5q-241 0 -377.5 156.5t-136.5 431.5zM297 1309q2 135 53 208.5t142 73.5q38 0 70 -14t69 -47l57 -55q22 -20 38.5 -29.5t29.5 -9.5q38 0 56 36.5t20 118.5h125 q-2 -135 -53 -208.5t-142 -73.5q-38 0 -70 14t-69 47l-57 55q-22 20 -38.5 29.5t-29.5 9.5q-38 0 -56 -36.5t-20 -118.5h-125zM307 559q0 -201 85.5 -316.5t234.5 -115.5q147 0 233 116t86 316q0 199 -86 315.5t-233 116.5q-148 0 -234 -115.5t-86 -316.5zM327 1693v148h598 v-148h-598z" />
<glyph unicode="&#x22e;" horiz-adv-x="1612" d="M115 745q0 354 188.5 564.5t503.5 210.5q314 0 502 -210.5t188 -564.5q0 -353 -188 -563.5t-502 -210.5q-315 0 -503.5 210t-188.5 564zM328 745q0 -282 129.5 -446t349.5 -164t348.5 164t128.5 446q0 283 -128.5 447t-348.5 164t-349.5 -164t-129.5 -447zM705 1666v205 h204v-205h-204z" />
<glyph unicode="&#x22f;" horiz-adv-x="1253" d="M100 559q0 276 136.5 432t377.5 156q240 0 377 -156t137 -432q0 -275 -137 -431.5t-377 -156.5q-241 0 -377.5 156.5t-136.5 431.5zM294 559q0 -201 85.5 -316.5t234.5 -115.5q147 0 233 116t86 316q0 199 -86 315.5t-233 116.5q-148 0 -234 -115.5t-86 -316.5zM525 1348 v204h204v-204h-204z" />
<glyph unicode="&#x231;" horiz-adv-x="1253" d="M113 559q0 276 136.5 432t377.5 156q240 0 377 -156t137 -432q0 -275 -137 -431.5t-377 -156.5q-241 0 -377.5 156.5t-136.5 431.5zM307 559q0 -201 85.5 -316.5t234.5 -115.5q147 0 233 116t86 316q0 199 -86 315.5t-233 116.5q-148 0 -234 -115.5t-86 -316.5zM328 1693 v148h598v-148h-598zM525 1348v204h204v-204h-204z" />
<glyph unicode="&#x232;" horiz-adv-x="1251" d="M-4 1493h217l414 -614l411 614h217l-528 -782v-711h-203v711zM327 1693v148h598v-148h-598z" />
<glyph unicode="&#x233;" horiz-adv-x="1212" d="M61 1120h195l350 -876l350 876h195l-492 -1224q-78 -200 -152 -261t-198 -61h-147v154h108q76 0 118 36t93 170l33 84zM307 1378v148h598v-148h-598z" />
<glyph unicode="&#x237;" horiz-adv-x="569" d="M-37 -270h49q105 0 143 48.5t38 201.5v1140h184v-1140q0 -214 -81.5 -310t-262.5 -96h-70v156z" />
<glyph unicode="&#x250;" horiz-adv-x="1255" d="M123 479v639h184v-170q63 102 157 150q94 49 230 49q172 0 274 -97q101 -96 101 -258q0 -189 -127 -285q-126 -96 -377 -96h-258v-18q0 -127 83 -197q84 -69 235 -69q96 0 187 23t175 69v-170q-101 -39 -196 -59q-95 -19 -185 -19q-243 0 -363 126t-120 382zM307 555h183 q223 0 309 51t86 174q0 98 -65 156q-64 57 -175 57q-153 0 -245 -109q-93 -108 -93 -288v-41z" />
<glyph unicode="&#x251;" horiz-adv-x="1300" d="M113 559q0 264 127 426q128 162 331 162q124 0 213 -49q88 -48 146 -148v170h184v-1120h-184v168q-58 -100 -146 -148q-89 -49 -213 -49q-203 0 -331 162q-127 162 -127 426zM303 559q0 -203 83 -319q84 -115 230 -115t230 115q84 116 84 319t-84 319q-84 115 -230 115 t-230 -115q-83 -116 -83 -319z" />
<glyph unicode="&#x252;" horiz-adv-x="1300" d="M113 -2v1120h184v-168q58 100 147 148q88 49 212 49q203 0 330 -162q128 -162 128 -426t-128 -426q-127 -162 -330 -162q-124 0 -212 49q-89 48 -147 148v-170h-184zM297 559q0 -203 84 -319q84 -115 230 -115t229 115q84 116 84 319t-84 319q-83 115 -229 115t-230 -115 q-84 -116 -84 -319z" />
<glyph unicode="&#x253;" horiz-adv-x="1300" d="M186 0v1002v148q0 214 82 310q81 96 262 96h254v-156h-233q-109 0 -143 -48q-38 -52 -38 -202v-148v-52q58 100 148 148q88 49 211 49q204 0 331 -162q128 -162 128 -426t-128 -426q-127 -162 -331 -162q-123 0 -211 49q-89 48 -147 148v-168h-185zM371 559 q0 -203 83 -319q84 -115 230 -115t230 115q83 116 83 319t-83 319q-84 115 -230 115t-230 -115q-83 -116 -83 -319z" />
<glyph unicode="&#x254;" horiz-adv-x="1126" d="M113 43v170q78 -43 157 -65q78 -21 158 -21q179 0 278 113q99 114 99 319t-99 319q-99 113 -278 113q-80 0 -158 -21q-79 -22 -157 -65v172q76 35 157 53q81 17 166 17q262 0 412 -157q151 -157 151 -431q0 -270 -149 -429t-402 -159q-93 0 -176 18q-82 18 -159 54z" />
<glyph unicode="&#x255;" horiz-adv-x="1126" d="M113 559q0 274 151 431q150 157 412 157q83 0 166 -17q78 -17 157 -53v-172q-75 42 -157 65q-78 21 -158 21q-179 0 -278 -113q-99 -114 -99 -319t99 -319q4 -5 13 -14q84 176 280 176q299 0 300 -246q1 -189 -333 -189q-80 0 -153 17q-6 -57 -6 -125l-153 -3 q0 104 12 188q-57 35 -104 86q-149 161 -149 429zM549 146q58 -19 135 -19q146 0 146 57q-2 75 -132 75q-101 0 -149 -113z" />
<glyph unicode="&#x256;" horiz-adv-x="1300" d="M113 559q0 264 127 426q128 162 331 162q124 0 213 -49q88 -48 146 -148v606h184v-1576q0 -153 38 -202q38 -48 143 -48h49v-156h-70q-181 0 -262 96q-82 96 -82 310v148v40q-58 -100 -146 -148q-89 -49 -213 -49q-203 0 -331 162q-127 162 -127 426zM303 559 q0 -203 83 -319q84 -115 230 -115t230 115q84 116 84 319t-84 319q-84 115 -230 115t-230 -115q-83 -116 -83 -319z" />
<glyph unicode="&#x257;" horiz-adv-x="1489" d="M113 559q0 264 127 426q128 162 331 162q124 0 213 -49q88 -48 146 -148v52v148q0 214 82 310q81 96 262 96h254v-156h-233q-109 0 -143 -48q-38 -52 -38 -202v-148v-1002h-184v168q-58 -100 -146 -148q-89 -49 -213 -49q-203 0 -331 162q-127 162 -127 426zM303 559 q0 -203 83 -319q84 -115 230 -115t230 115q84 116 84 319t-84 319q-84 115 -230 115t-230 -115q-83 -116 -83 -319z" />
<glyph unicode="&#x258;" horiz-adv-x="1260" d="M113 516v90q0 250 131 396q132 145 358 145q252 0 400 -161q149 -162 149 -437q0 -266 -157 -422q-156 -156 -424 -156q-107 0 -211 22t-203 64v174q98 -52 198 -78q99 -26 205 -26q183 0 285 99q103 100 115 290h-846zM297 660l656 -1q-14 158 -107 245q-92 87 -246 87 q-136 0 -218 -90q-83 -90 -85 -241z" />
<glyph unicode="&#x259;" horiz-adv-x="1260" d="M113 512v90h846q-12 190 -115 290q-102 99 -285 99q-106 0 -205 -26q-100 -26 -198 -78v174q99 42 203 64t211 22q268 0 424 -156q157 -156 157 -422q0 -275 -149 -437q-148 -161 -400 -161q-226 0 -358 145q-131 146 -131 396zM297 458q2 -151 85 -241q82 -90 218 -90 q154 0 246 87q93 87 107 245z" />
<glyph unicode="&#x25a;" horiz-adv-x="1629" d="M124 375l766 443q-19 39 -46 74q-76 100 -285 99q-108 -1 -205 -26q-100 -26 -198 -78v174q99 42 203 64t211 22q268 0 424 -156q36 -35 63 -76l203 117h184v-148q0 -153 38 -202q38 -48 143 -48h43v-156h-64q-175 0 -262 96q-82 90 -82 290l-140 -81q31 -96 31 -214 q0 -275 -149 -437q-148 -161 -400 -161q-228 0 -358 145q-92 103 -120 259zM320 321q30 -69 62 -104q82 -90 218 -90q168 0 246 87q102 138 100 345q1 62 -9 118z" />
<glyph unicode="&#x25b;" horiz-adv-x="1107" d="M133 326q0 108 69 181t193 97q-112 24 -172 89q-60 64 -60 157q0 141 114 220q113 78 309 78q76 0 161 -12t183 -36v-167q-97 29 -177 42q-81 13 -152 13q-119 0 -188 -46q-70 -46 -70 -110q0 -70 68 -115q67 -44 183 -44h155v-152h-148q-137 0 -209 -51 q-78 -56 -78 -144q0 -90 84 -146q85 -56 236 -56q93 0 178 18q85 19 156 56v-171q-90 -28 -174 -42q-85 -14 -165 -14q-238 0 -367 91t-129 264z" />
<glyph unicode="&#x25c;" horiz-adv-x="1116" d="M113 34v173q76 -34 167 -51q91 -18 191 -18q173 0 263 52q91 53 91 151q0 81 -85 136q-84 55 -234 55h-158v144h165q136 0 208 44q72 43 72 104q0 74 -74 117q-75 43 -213 43q-75 0 -162 -12q-86 -13 -190 -40v167q105 24 196 36q92 12 172 12q210 0 332 -79t122 -213 q0 -94 -65 -158q-65 -65 -184 -90q132 -23 206 -97q75 -74 75 -183q0 -166 -139 -258q-138 -91 -393 -91q-85 0 -176 14t-187 42z" />
<glyph unicode="&#x25d;" horiz-adv-x="1567" d="M113 34v173q76 -34 167 -51q91 -18 191 -18q173 0 263 52q91 53 91 151q0 81 -85 136q-84 55 -234 55h-158v144h165q136 0 208 44q72 43 72 104q0 74 -74 117q-75 43 -213 43q-75 0 -162 -12q-86 -13 -190 -40v167q105 24 196 36q92 12 172 12q210 0 332 -79 q100 -65 118 -167l226 131h184v-148q0 -153 38 -202q38 -48 143 -48h43v-156h-64q-175 0 -262 96q-82 90 -82 290l-280 -162l-1 1l-6 -6q-65 -65 -184 -90q132 -23 206 -97q75 -74 75 -183q0 -166 -139 -258q-138 -91 -393 -91q-85 0 -176 14t-187 42z" />
<glyph unicode="&#x25e;" horiz-adv-x="1396" d="M113 556q0 397 367 543q112 45 311 46q230 0 364 -86q134 -87 134 -235q0 -103 -71 -174t-202 -98q131 -28 202 -99t71 -174q0 -148 -134 -234q-134 -87 -364 -87q-196 -2 -311 60q-367 194 -367 538zM320 566q0 -446 453 -447q157 0 230 54q85 64 85 138q0 78 -79 132 q-43 30 -228 30h-182v157h182q185 0 228 30q79 55 79 132t-85 138q-76 54 -230 54q-452 0 -453 -418z" />
<glyph unicode="&#x25f;" horiz-adv-x="744" d="M-37 -270h49q105 0 143 48q38 50 38 202v20h-181v143h181v977h184v-977h176v-143h-176v-20q0 -214 -81 -310q-82 -96 -263 -96h-70v156z" />
<glyph unicode="&#x260;" horiz-adv-x="1305" d="M113 573q0 233 126 390t332 157h359v30q0 214 82 310q81 96 262 96h70v-156h-49q-105 0 -143 -48q-38 -49 -38 -202v-30v-43v-938q0 -286 -127 -425q-127 -140 -389 -140q-97 0 -183 14q-86 15 -167 45v179q81 -44 160 -65t161 -21q181 0 271 94q90 95 90 286v91 q-57 -99 -146 -148t-213 -49q-206 0 -332 157t-126 416zM303 573q0 -199 83 -309q82 -110 230 -110q149 0 232 110q82 110 82 309v420h-314q-148 0 -230 -110q-83 -110 -83 -310z" />
<glyph unicode="&#x261;" horiz-adv-x="1300" d="M113 573q0 233 126 390t332 157h543v-981q0 -286 -127 -425q-127 -140 -389 -140q-97 0 -183 14q-86 15 -167 45v179q81 -44 160 -65t161 -21q181 0 271 94q90 95 90 286v91q-57 -99 -146 -148t-213 -49q-206 0 -332 157t-126 416zM303 573q0 -199 83 -309 q82 -110 230 -110q149 0 232 110q82 110 82 309v420h-314q-148 0 -230 -110q-83 -110 -83 -310z" />
<glyph unicode="&#x262;" horiz-adv-x="1289" d="M113 588q0 274 151 431q150 157 412 157q62 0 166 -18q104 -17 231 -92v-172q-120 77 -231 104q-87 22 -158 22q-179 0 -278 -114q-99 -113 -99 -318t99 -318q99 -114 278 -114q173 0 253 22v282h-155v140h321v-528q-72 -34 -159 -54q-78 -18 -280 -18q-253 0 -402 159 t-149 429z" />
<glyph unicode="&#x263;" horiz-adv-x="1403" d="M206 1120h217l303 -400l291 400h217l-393 -548q283 -446 283 -766q0 -232 -384 -236q-423 -5 -424 236q-2 342 287 773zM503 -130q2 -138 216 -138q203 0 204 138q1 250 -203 582q-220 -308 -217 -582z" />
<glyph unicode="&#x264;" horiz-adv-x="1212" d="M96 1120h217l297 -399l297 399h217l-405 -545q179 -241 179 -408q1 -167 -286 -167q-302 0 -302 167q0 177 184 419zM484 223q0 -104 123 -104q114 0 114 104q0 63 -119 217q-118 -158 -118 -217z" />
<glyph unicode="&#x265;" horiz-adv-x="1298" d="M174 442v678h184v-671q0 -159 62 -239q62 -79 186 -79q149 0 236 95q86 95 86 259v635h184v-1546h-184v598q-67 -102 -156 -152q-88 -49 -205 -49q-193 0 -293 120t-100 351z" />
<glyph unicode="&#x266;" horiz-adv-x="1298" d="M186 0v1002v148q0 214 82 310q81 96 262 96h254v-156h-233q-105 0 -143 -48q-38 -49 -38 -202v-204h1q66 101 155 151q90 50 207 50q193 0 292 -119q99 -120 99 -352v-676h-184v670q0 159 -62 238t-186 79q-149 0 -235 -95t-86 -259v-633h-185z" />
<glyph unicode="&#x267;" horiz-adv-x="1298" d="M186 0v1002v148q0 214 82 310q81 96 262 96h254v-156h-233q-105 0 -143 -48q-38 -49 -38 -202v-204h1q66 101 155 151q90 50 207 50q193 0 292 -119q99 -120 99 -352v-696q0 -214 -82 -310q-81 -96 -262 -96h-254v156h233q105 0 143 48q38 49 38 202v690q0 159 -62 238 t-186 79q-149 0 -235 -95t-86 -259v-633h-185z" />
<glyph unicode="&#x268;" horiz-adv-x="761" d="M116 452v164h180v504h184v-504h164v-164h-164v-452h-184v452h-180zM296 1323v233h184v-233h-184z" />
<glyph unicode="&#x269;" horiz-adv-x="793" d="M193 406v714h184v-714q0 -153 38 -202q38 -48 143 -48h49v-156h-70q-181 0 -263 96q-81 96 -81 310z" />
<glyph unicode="&#x26a;" horiz-adv-x="761" d="M116 0v164h176v792h-176v164h528v-164h-168v-792h168v-164h-528z" />
<glyph unicode="&#x26b;" horiz-adv-x="998" d="M176 631q2 135 53 208q51 74 142 74q25 0 47 -6v649h184v-787q2 -1 3 -2q17 -9 30 -9q38 0 56 37q18 36 20 118h125q-2 -135 -53 -208q-51 -74 -142 -74q-20 0 -39 4v-635h-184v770q-6 4 -11 7q-17 9 -30 9q-38 0 -56 -37q-18 -36 -20 -118h-125z" />
<glyph unicode="&#x26c;" horiz-adv-x="998" d="M77 815q1 246 246 246q53 0 95 -25v520h184v-770h250v-160h-250v-626h-184v596q0 15 -1 30h-61q-280 0 -279 189zM246 843q0 -57 92 -57h64q-23 132 -78 132q-77 0 -78 -75z" />
<glyph unicode="&#x26d;" horiz-adv-x="570" d="M193 -20v148v1428h184v-1428v-148q0 -153 38 -202q38 -48 143 -48h49v-156h-70q-181 0 -262 96q-82 96 -82 310z" />
<glyph unicode="&#x26e;" horiz-adv-x="1446" d="M193 0v1556h184v-436h869v-168l-411 -476q105 0 234 -56q99 -43 184 -151q81 -104 81 -242q0 -221 -152 -342t-432 -121q-94 0 -193 18q-100 19 -206 56v195q84 -49 184 -74t209 -25q190 0 289 75q100 75 100 218q0 132 -92 207q-91 74 -258 74h-174v166l430 499h-662 v-973h-184z" />
<glyph unicode="&#x26f;" horiz-adv-x="1995" d="M186 446v676h185v-670q0 -162 57 -240t174 -78q143 0 226 96q83 94 83 258v634h185v-670q0 -162 57 -240t176 -78q141 0 224 96t83 258v634h185v-1120h-185v174q-63 -104 -151 -152q-88 -50 -209 -50q-122 0 -208 62q-85 62 -126 180q-69 -124 -165 -182 q-96 -60 -226 -60q-175 0 -270 123t-95 349z" />
<glyph unicode="&#x270;" horiz-adv-x="1995" d="M186 445v676h185v-670q0 -161 57 -239t174 -78q143 0 226 95t83 259v633h185v-670q0 -162 57 -239q57 -78 176 -78q141 0 224 96q83 95 83 258v633h185v-1547h-185v601q-63 -103 -151 -152t-209 -49q-122 0 -208 62q-85 62 -126 180q-69 -124 -165 -183t-226 -59 q-175 0 -270 122q-95 123 -95 349z" />
<glyph unicode="&#x271;" horiz-adv-x="1995" d="M186 0v1120h185v-174q63 103 151 152t209 49q122 0 207 -62q86 -62 127 -180q69 124 165 183t226 59q175 0 270 -123q95 -122 95 -348v-696q0 -214 -82 -310q-81 -96 -262 -96h-254v156h233q105 0 143 48q38 49 38 202q-2 86 0 500q0 110 -1 190q0 161 -57 239t-174 78 q-143 0 -226 -95t-83 -259v-633h-185v670q0 162 -57 240q-57 77 -176 77q-141 0 -224 -95q-83 -96 -83 -259v-633h-185z" />
<glyph unicode="&#x272;" horiz-adv-x="1323" d="M-37 -270h49q105 0 143 48q38 49 38 202v1140h185v-174q66 101 156 151q89 50 206 50q193 0 292 -119q99 -120 99 -352v-676h-184v670q0 159 -62 238t-186 79q-149 0 -235 -95t-86 -259l-1 -653q0 -214 -81 -310q-82 -96 -263 -96h-70v156z" />
<glyph unicode="&#x273;" horiz-adv-x="1315" d="M186 0v1120h185v-174q66 101 155 151q90 50 207 50q193 0 292 -119q99 -120 99 -352v-696q0 -153 38 -202q38 -48 143 -48h49v-156h-70q-181 0 -262 96q-82 96 -82 310v690q0 159 -62 238t-186 79q-149 0 -235 -95t-86 -259v-633h-185z" />
<glyph unicode="&#x274;" horiz-adv-x="1298" d="M179 0v1147h272l477 -903v903h196v-1147h-272l-477 903v-903h-196z" />
<glyph unicode="&#x275;" horiz-adv-x="1253" d="M113 559q0 276 137 432q136 156 377 156q240 0 377 -156t137 -432q0 -275 -137 -431q-137 -157 -377 -157q-241 0 -377 157q-137 156 -137 431zM309 611h635q-10 163 -84 263q-86 117 -233 117q-148 0 -234 -115q-75 -101 -84 -265zM315 447q17 -123 77 -205 q86 -115 235 -115q147 0 233 116q60 81 78 204h-623z" />
<glyph unicode="&#x276;" horiz-adv-x="1757" d="M113 561q0 274 168 416q167 143 492 143h785v-154h-556v-291h533v-155h-533v-364h570v-156h-799q-325 0 -492 142q-168 143 -168 419zM298 559q0 -217 120 -325q120 -109 360 -109h37v865h-37q-240 0 -360 -108q-120 -107 -120 -323z" />
<glyph unicode="&#x277;" horiz-adv-x="1491" d="M154 468q3 19 14 190q22 66 37 122q95 368 543 367q420 -2 538 -367q38 -120 42 -122q14 -101 14 -190q0 -230 -87 -364t-234 -134q-103 0 -174 71t-99 202q-28 -131 -99 -202t-174 -71q-147 0 -234 134q-97 149 -87 364zM316 486q9 -167 54 -230q60 -85 138 -85 q77 0 132 79q30 43 30 228v182h156v-182q0 -185 30 -228q55 -79 132 -79q75 0 138 85q36 48 54 230q-5 75 -20 178q-3 23 -63 116q-105 160 -359 160q-242 0 -340 -160q-59 -96 -62 -116q-24 -112 -20 -178z" />
<glyph unicode="&#x278;" horiz-adv-x="1253" d="M113 559q0 276 137 432q108 124 282 149v251h-240v164h240h184h240v-164h-240v-250q178 -24 288 -150q137 -156 137 -432q0 -275 -137 -431q-110 -127 -288 -151v-238h240v-164h-240h-184h-240v164h240v239q-174 25 -282 150q-137 156 -137 431zM307 559q0 -201 85 -317 q56 -75 140 -101v836q-83 -26 -139 -101q-86 -116 -86 -317zM716 139q86 26 144 104q86 116 86 316q0 199 -86 315q-58 79 -144 105v-840z" />
<glyph unicode="&#x279;" horiz-adv-x="961" d="M113 172q31 -18 67 -26q37 -9 81 -9q156 0 239 101q84 102 84 292v590h185v-1120h-185v174q-58 -102 -151 -152q-93 -49 -226 -49q-19 0 -42 3q-23 2 -51 7z" />
<glyph unicode="&#x27a;" horiz-adv-x="961" d="M113 172q31 -18 67 -26q37 -9 81 -9q159 0 239 101q84 105 84 292v1016h185v-1546h-185v174q-58 -102 -151 -152q-93 -49 -226 -49q-19 0 -42 3q-23 2 -51 7z" />
<glyph unicode="&#x27b;" horiz-adv-x="960" d="M113 172q31 -18 67 -26q37 -9 81 -9q156 0 239 101q84 102 84 292v590h185v-1140q0 -153 38 -202q38 -48 143 -48h49v-156h-70q-181 0 -262 96q-82 96 -82 310l-1 194q-58 -102 -151 -152q-93 -49 -226 -49q-19 0 -42 3q-23 2 -51 7z" />
<glyph unicode="&#x27c;" horiz-adv-x="961" d="M113 -426v1546h185v-174q58 102 151 152q93 49 226 49q19 0 42 -3q23 -2 51 -7l1 -189q-31 18 -67 26q-37 9 -81 9q-156 0 -239 -101q-84 -102 -84 -292v-1016h-185z" />
<glyph unicode="&#x27d;" horiz-adv-x="961" d="M112 -20v1140h186v-174q58 102 151 152q93 49 226 49q19 0 42 -3q23 -2 51 -7l1 -189q-31 18 -67 26q-37 9 -81 9q-156 0 -239 -101q-84 -101 -84 -292v-590h-2v-20q0 -153 38 -202q38 -48 143 -48h233v-156h-254q-181 0 -262 96q-82 96 -82 310z" />
<glyph unicode="&#x27e;" horiz-adv-x="902" d="M112 0v600v141q0 212 82 310q81 96 262 96h254v-156h-233q-105 0 -143 -48q-39 -50 -38 -202l1 -151v-590h-185z" />
<glyph unicode="&#x27f;" horiz-adv-x="902" d="M112 991v156h254q181 0 262 -96q82 -98 82 -310v-141v-600h-185v590l1 151q1 152 -38 202q-38 48 -143 48h-233z" />
<glyph unicode="&#x280;" horiz-adv-x="1232" d="M50 0v1120h388q217 0 325 -80q107 -81 107 -243q0 -105 -56 -175t-162 -97q55 -17 108 -71q52 -54 105 -148l174 -306h-195l-162 287q-63 113 -122 149q-59 37 -156 37h-169v-473h-185zM235 628h198q119 0 182 43q64 43 64 126q0 84 -64 126q-63 42 -182 42h-198v-337z " />
<glyph unicode="&#x281;" horiz-adv-x="1232" d="M50 0v1120h185v-473h169q97 0 156 37q59 36 122 149l162 287h195l-174 -306q-53 -94 -105 -148q-53 -54 -108 -71q106 -27 162 -97t56 -175q0 -162 -107 -243q-108 -80 -325 -80h-388zM235 155h198q119 0 182 42q64 42 64 126q0 83 -64 126q-63 43 -182 43h-198v-337z " />
<glyph unicode="&#x282;" horiz-adv-x="1067" d="M111 -20v61v190q102 -53 201 -79q99 -27 196 -27q130 0 200 45q70 44 70 125q0 75 -50 115q-51 40 -222 77l-64 15q-171 36 -247 110q-76 75 -76 205q0 158 112 244t318 86q102 0 192 -15t166 -45v-174q-78 40 -162 60t-174 20q-137 0 -205 -42q-69 -42 -69 -126 q0 -64 49 -101q49 -36 197 -69l63 -14q196 -42 278 -119q83 -76 83 -213q0 -156 -123 -247q-124 -91 -340 -91q-90 0 -188 17l-21 4v-12q0 -153 38 -202q38 -48 143 -48h233v-156h-254q-181 0 -262 96q-82 96 -82 310z" />
<glyph unicode="&#x283;" horiz-adv-x="688" d="M-37 -270h49q105 0 143 48q38 49 38 202q-1 624 -3 1218q0 181 87 272q81 86 276 86h174v-153h-176q-99 0 -137 -40q-39 -40 -39 -144l2 -1239q0 -214 -81 -310q-82 -96 -263 -96h-70v156z" />
<glyph unicode="&#x284;" horiz-adv-x="780" d="M55 -270h49q105 0 143 48q38 49 38 202v20h-181v143h181v834h-179v143h176v78q0 181 87 272q81 86 276 86h174v-153h-176q-99 0 -137 -40q-39 -40 -39 -144l2 -1076h176v-143h-176v-20q0 -214 -81 -310q-82 -96 -263 -96h-70v156z" />
<glyph unicode="&#x285;" horiz-adv-x="945" d="M55 972v153h174q195 0 276 -86q93 -97 87 -272q-3 -89 -3 -787q0 -153 38 -202q38 -48 143 -48h49v-156h-70q-181 0 -263 96q-82 97 -81 310l2 808q0 104 -39 144q-38 40 -137 40h-176z" />
<glyph unicode="&#x286;" horiz-adv-x="688" d="M-270 -210q0 210 270 210h190v1198q0 180 87 272q81 86 276 86h174v-153h-176q-100 0 -137 -40q-39 -41 -39 -144l2 -1219h181v-155h-191q-18 -111 -71 -175q-82 -96 -263 -96q-303 0 -303 216zM-115 -205q3 -65 127 -65q110 0 143 48q18 23 25 68h-179q-119 0 -116 -51z " />
<glyph unicode="&#x287;" horiz-adv-x="803" d="M55 0v143h379v608q0 137 -38 176q-37 39 -152 39h-189v154h189q213 0 294 -80q81 -79 81 -289v-608h135v-143h-135v-318h-185v318h-379z" />
<glyph unicode="&#x288;" horiz-adv-x="803" d="M55 977v143h135v318h185v-318h379v-143h-379v-1033q0 -137 37 -176q38 -39 153 -39h189v-154h-189q-213 0 -294 79t-81 290v1033h-135z" />
<glyph unicode="&#x289;" horiz-adv-x="1298" d="M0 452v164h174v504h184v-504h570v504h184v-504h186v-164h-186v-452h-184v172q-67 -102 -156 -152q-88 -49 -205 -49q-193 0 -293 120t-100 351v10h-174zM358 449q0 -159 62 -239q62 -79 186 -79q149 0 236 95q77 85 85 226h-569v-3z" />
<glyph unicode="&#x28a;" horiz-adv-x="1265" d="M113 956v164h442v-220q-109 -69 -172 -174q-66 -111 -66 -246q0 -159 88 -256t232 -97t232 97q88 98 88 256q0 146 -66 246q-71 111 -171 174v220h436v-164h-236q114 -100 170 -213q54 -110 54 -246q0 -235 -142 -381t-367 -146t-367 145q-142 146 -142 374q0 147 52 254 q53 109 172 213h-237z" />
<glyph unicode="&#x28b;" horiz-adv-x="1225" d="M193 406v714h184v-714q0 -153 38 -202q40 -50 143 -48l51 1q144 0 232 97q88 98 88 256q0 146 -66 246q-79 119 -171 174q-76 44 -122 56h322q114 -100 170 -213q54 -110 54 -246q0 -235 -142 -381t-367 -146h-70q-181 0 -263 96q-81 96 -81 310z" />
<glyph unicode="&#x28c;" horiz-adv-x="1212" d="M61 0l420 1120h250l420 -1120h-195l-350 940l-350 -940h-195z" />
<glyph unicode="&#x28d;" horiz-adv-x="1675" d="M86 0l293 1120h217l241 -918l242 918h217l293 -1120h-184l-230 874l-229 -874h-217l-230 874l-229 -874h-184z" />
<glyph unicode="&#x28e;" horiz-adv-x="1212" d="M61 0l492 1224q78 200 152 261t198 61h147v-154h-108q-76 0 -118 -36t-93 -170l-33 -84l453 -1102h-195l-350 876l-350 -876h-195z" />
<glyph unicode="&#x28f;" horiz-adv-x="1251" d="M102 1149h217l293 -456l302 456h217l-419 -624v-525h-203v525z" />
<glyph unicode="&#x290;" horiz-adv-x="1075" d="M88 0v168l692 805h-667v147h874v-168l-692 -805h692v-147h-2v-20q0 -153 38 -202q38 -48 143 -48h49v-156h-70q-181 0 -262 96q-82 96 -82 310v20h-713z" />
<glyph unicode="&#x291;" horiz-adv-x="1075" d="M88 0v168l692 805h-667v147h874v-168l-692 -805h175q60 288 279 288q227 0 228 -246q1 -189 -333 -189h-41q-3 -51 -3 -111h-153q0 59 3 111h-362zM624 147h20q174 0 174 54q0 91 -70 91q-88 -2 -124 -145z" />
<glyph unicode="&#x292;" horiz-adv-x="1183" d="M88 -167q84 -49 184 -74t209 -25q190 0 289 75q100 75 100 218q0 132 -92 207q-93 74 -258 74h-174v166l430 499h-667v147h874v-168l-411 -476q106 0 234 -56q98 -42 184 -151q81 -104 81 -242q0 -221 -152 -342t-432 -121q-94 0 -193 18q-100 19 -206 56v195z" />
<glyph unicode="&#x293;" horiz-adv-x="1183" d="M109 973v147h874v-168l-411 -476q105 0 234 -56q100 -43 184 -151q81 -103 81 -242q0 -113 -39 -198q100 -101 100 -265h-153q0 82 -40 138l-20 -17q-151 -121 -432 -121q-335 0 -333 189q2 251 300 246q246 -4 404 -63q12 42 12 91q0 133 -92 207q-94 74 -258 74h-174 v166l430 499h-667zM323 -219q0 -47 158 -47q190 0 289 75l7 5q-125 42 -322 42q-131 0 -132 -75z" />
<glyph unicode="&#x294;" horiz-adv-x="1045" d="M88 1312v172q76 35 157 52q81 18 166 18q275 0 413 -157q109 -125 109 -311q0 -170 -108 -285q-112 -119 -282 -149v-652h-202l-1 798h63q192 0 278 114q58 76 58 174q-1 133 -58 198q-99 114 -278 114q-80 0 -159 -22q-78 -21 -156 -64z" />
<glyph unicode="&#x295;" horiz-adv-x="1045" d="M88 1086q0 186 110 311q137 157 412 157q85 0 166 -18q81 -17 157 -52v-172q-78 43 -157 64q-78 22 -158 22q-179 0 -278 -114q-57 -65 -58 -198q0 -98 58 -174q86 -114 278 -114h62v-798h-202v652q-170 30 -282 149q-108 115 -108 285z" />
<glyph unicode="&#x296;" horiz-adv-x="1045" d="M88 70v172q78 -43 156 -64q79 -22 159 -22q179 0 278 114q57 65 58 198q0 98 -58 174q-86 114 -278 114h-63l1 798h202v-652q170 -30 282 -149q108 -115 108 -285q0 -186 -109 -311q-138 -157 -413 -157q-85 0 -166 18q-81 17 -157 52z" />
<glyph unicode="&#x297;" horiz-adv-x="1045" d="M88 32v1056q0 186 110 311q137 157 412 157q85 0 166 -18q81 -17 157 -52v-172q-78 43 -157 64q-78 22 -158 22q-179 0 -278 -114q-57 -65 -58 -198v-1056q1 -133 58 -198q99 -114 278 -114q80 0 158 22q79 21 157 64v-172q-76 -35 -157 -52q-81 -18 -166 -18 q-275 0 -412 157q-110 125 -110 311z" />
<glyph unicode="&#x298;" horiz-adv-x="1234" d="M95 565q0 212 154 368q154 157 370 157q212 0 366 -157q154 -156 154 -368q0 -216 -152 -368q-151 -152 -368 -152q-216 0 -370 152t-154 368zM276 566q0 -141 102 -240q100 -99 241 -99t240 99t99 240q0 138 -100 240q-102 102 -240 102q-140 0 -240 -102 q-102 -102 -102 -240zM504 567q0 46 34 80q32 34 80 34q46 0 80 -34q32 -34 32 -80q0 -47 -33 -80t-80 -33t-79 33q-34 33 -34 80z" />
<glyph unicode="&#x299;" horiz-adv-x="1187" d="M179 0v1149h397q178 0 274 -74t96 -210q0 -105 -49 -168q-49 -62 -145 -77q115 -25 179 -103q63 -78 63 -195q0 -154 -105 -238q-104 -84 -297 -84h-413zM380 980l1 -280h210q85 0 127 43q42 42 42 105q0 46 -42 89t-128 43h-210zM381 170h221q93 0 139 51q49 54 49 117 q0 92 -44 141q-46 51 -140 51h-225v-360z" />
<glyph unicode="&#x29a;" horiz-adv-x="1396" d="M113 279q0 103 71 174t202 99q-131 27 -202 98t-71 174q0 148 134 235q134 86 364 86q200 0 311 -46q367 -151 367 -543q0 -344 -367 -538q-115 -62 -311 -60q-230 0 -364 87q-134 86 -134 234zM314 311q0 -74 85 -138q73 -54 230 -54q452 1 453 447q-1 418 -453 418 q-154 0 -230 -54q-85 -61 -85 -138t79 -132q43 -30 228 -30h182v-157h-182q-185 0 -228 -30q-79 -54 -79 -132z" />
<glyph unicode="&#x29b;" horiz-adv-x="1450" d="M113 588q0 274 151 431q150 157 412 157q62 0 166 -18q32 -6 49 -11v1q0 215 82 310q81 96 262 96h254v-156h-233q-106 0 -143 -48q-38 -50 -38 -202v-148h-2v-106q-121 77 -231 104q-85 22 -158 22q-179 0 -278 -114q-99 -112 -99 -318t99 -318q99 -114 278 -114 q175 0 253 22v282h-155v140h321v-528q-72 -34 -159 -54q-78 -18 -280 -18q-254 0 -402 159q-149 160 -149 429z" />
<glyph unicode="&#x29c;" horiz-adv-x="1298" d="M179 0v1147h202v-447h541v447h202v-1147h-202v530h-541v-530h-202z" />
<glyph unicode="&#x29d;" horiz-adv-x="750" d="M-270 -205q0 205 270 205h193v1120h184v-1120h181v-155h-191q-18 -112 -71 -175q-82 -96 -263 -96q-303 0 -303 221zM-115 -205q4 -65 127 -65q105 0 143 48q18 23 27 68h-181q-119 0 -116 -51zM193 1323v233h184v-233h-184z" />
<glyph unicode="&#x29e;" horiz-adv-x="1366" d="M186 1120h240l569 -547v547h185v-1556h-185v919l-549 -483h-235l594 524z" />
<glyph unicode="&#x29f;" horiz-adv-x="1194" d="M179 0v1147h202v-977h639v-170h-841z" />
<glyph unicode="&#x2a0;" horiz-adv-x="1489" d="M113 559q0 264 127 426q128 162 331 162q124 0 213 -49q88 -48 146 -148v50v120v28q0 214 82 310q81 96 262 96h254v-156h-233q-105 0 -143 -48q-38 -49 -38 -202v-28v-120v-1426h-184v594q-58 -100 -146 -148q-89 -49 -213 -49q-203 0 -331 162q-127 162 -127 426z M303 559q0 -203 83 -319q84 -115 230 -115t230 115q84 116 84 319t-84 319q-84 115 -230 115t-230 -115q-83 -116 -83 -319z" />
<glyph unicode="&#x2a1;" horiz-adv-x="1045" d="M88 1312v172q76 35 157 52q81 18 166 18q275 0 413 -157q109 -125 109 -311q0 -170 -108 -285q-112 -119 -282 -149v-212h231v-164h-231v-276h-202v276h-229v164h228v358h63q192 0 278 114q58 76 58 174q-1 133 -58 198q-99 114 -278 114q-80 0 -159 -22 q-78 -21 -156 -64z" />
<glyph unicode="&#x2a2;" horiz-adv-x="1045" d="M88 1086q0 186 110 311q137 157 412 157q85 0 166 -18q81 -17 157 -52v-172q-78 43 -157 64q-78 22 -158 22q-179 0 -278 -114q-57 -65 -58 -198q0 -98 58 -174q86 -114 278 -114h62v-358h229v-164h-229v-276h-202v276h-231v164h231v212q-170 30 -282 149 q-108 115 -108 285z" />
<glyph unicode="&#x2a3;" horiz-adv-x="2077" d="M113 559q0 264 127 426q128 162 331 162q124 0 213 -49q88 -48 146 -148v606h184v-436h873v-168l-692 -805h692v-147h-873h-26h-158v168q-58 -100 -146 -148q-89 -49 -213 -49q-203 0 -331 162q-127 162 -127 426zM303 559q0 -203 83 -319q84 -115 230 -115t230 115 q84 116 84 319t-84 319q-84 115 -230 115t-230 -115q-83 -116 -83 -319zM1114 198l666 775h-666v-775z" />
<glyph unicode="&#x2a4;" horiz-adv-x="2166" d="M113 559q0 264 127.5 426t330.5 162q124 0 213 -49q88 -48 146 -148v606h184v-436h874v-168l-411 -476q106 0 234 -56q98 -42 184 -151q81 -104 81 -242q0 -221 -152 -342t-432 -121q-94 0 -193 18q-100 19 -206 56v195q84 -49 184 -74t209 -25q190 0 289 75 q100 75 100 218q0 132 -92 207q-93 74 -258 74h-174v166l430 499h-667v-973h-184v168q-58 -100 -146 -148q-89 -49 -213 -49q-203 0 -330.5 162t-127.5 426zM303 559q0 -203 83 -319q84 -115 230 -115t230 115.5t84 318.5t-84 318.5t-230 115.5t-230 -115q-83 -116 -83 -319 z" />
<glyph unicode="&#x2a5;" horiz-adv-x="2074" d="M113 559q0 264 127.5 426t330.5 162q124 0 213 -49q88 -48 146 -148v606h184v-436h872v-168l-692 -805h175q60 288 279 288q227 0 228 -246q1 -189 -333 -189h-41q-3 -51 -3 -111h-153q0 59 3 111h-362h-157v168q-58 -100 -146 -148q-89 -49 -213 -49q-203 0 -330.5 162 t-127.5 426zM303 559q0 -203 83 -319q84 -115 230 -115t230 115.5t84 318.5t-84 318.5t-230 115.5t-230 -115q-83 -116 -83 -319zM1114 199l665 774h-665v-774zM1623 147h20q174 0 174 54q0 91 -70 91q-88 -2 -124 -145z" />
<glyph unicode="&#x2a6;" horiz-adv-x="1688" d="M55 977v143h135v318h185v-318h379v-143h-379v-608q0 -137 37 -176q38 -39 153 -39h179v77q102 -53 201 -79q99 -27 196 -27q130 0 200 45q70 44 70 125q0 75 -51 115q-44 36 -221 77l-64 15q-171 36 -247 110q-76 75 -76 205q0 158 112 244t318 86q102 0 192 -15t166 -45 v-174q-78 40 -162 60t-174 20q-137 0 -206 -42q-68 -42 -68 -126q0 -64 49 -101q49 -36 197 -69l63 -14q198 -44 279 -119q82 -76 82 -213q0 -156 -124 -247q-123 -91 -339 -91q-90 0 -187 17q-93 17 -196 50v-38h-189q-213 0 -294 80q-81 79 -81 289v608h-135z" />
<glyph unicode="&#x2a7;" horiz-adv-x="1249" d="M55 977v143h135v318h185v-318h376v78q0 181 87 272q81 86 276 86h174v-153h-176q-99 0 -137 -40q-39 -40 -39 -144l2 -1239q0 -214 -81 -310q-82 -96 -263 -96h-70v156h49q105 0 143 48q38 49 38 202v20h-189q-213 0 -294 79.5t-81 289.5v608h-135zM375 369 q0 -137 37.5 -176t152.5 -39h188q-2 418 -2 823h-376v-608z" />
<glyph unicode="&#x2a8;" horiz-adv-x="1594" d="M55 977v143h135v318h185v-318h379v-122q149 149 404 149q85 0 166 -17q81 -18 157 -53v-172q-78 43 -157 65q-78 21 -158 21q-179 0 -278 -113q-99 -114 -99 -319t99 -319l8 -9q79 171 285 171q299 0 300 -246q0 -118 -101 -159q-75 -30 -232 -30q-84 0 -157 18 q-2 -50 -2 -126l-153 -3q0 79 6 144h-277q-213 0 -294 79.5t-81 289.5v608h-135zM375 369q0 -137 37.5 -176t152.5 -39h158q-128 157 -128 405q0 263 139 418h-359v-608zM1017 151q66 -24 149 -24q95 0 116 7q31 11 30 50q-1 75 -132 75q-114 0 -154 -86q-5 -10 -9 -22z" />
<glyph unicode="&#x2a9;" horiz-adv-x="1737" d="M47 977v143h176v78q0 187 87 272q87 86 276 86h174v-153h-176q-99 0 -138 -40q-38 -40 -38 -144v-99h301h2h183v-174q66 101 155 151q90 50 207 50q193 0 292 -119q99 -120 99 -352v-696q0 -214 -82 -310q-81 -96 -262 -96h-254v156h233q105 0 143 48q38 49 38 202v690 q0 159 -62 238t-186 79q-149 0 -235 -95t-86 -259v-633h-185v977h-301v-977h-185v977h-176z" />
<glyph unicode="&#x2aa;" horiz-adv-x="1312" d="M193 0v1556h184v-739q0 158 112 244t318 86q102 0 192 -15t166 -45v-174q-78 40 -162 60t-174 20q-137 0 -205 -42q-69 -42 -69 -126q0 -64 49 -101q49 -36 197 -69l63 -14q198 -44 278 -119q83 -76 83 -213q0 -156 -123 -247q-124 -91 -340 -91q-90 0 -188 17 q-93 17 -197 50v-38h-184zM377 227q98 -50 193 -75q99 -27 196 -27q130 0 200 45q70 44 70 125q0 75 -50 115q-45 36 -222 77l-64 15q-171 36 -247 110.5t-76 204.5v-590z" />
<glyph unicode="&#x2ab;" horiz-adv-x="1340" d="M193 0v1556h184v-436h873v-168l-692 -805h692v-147h-873h-26h-158zM377 198l666 775h-666v-775z" />
<glyph unicode="&#x2ac;" horiz-adv-x="1055" d="M54 597h116l145 -489l144 489h137l145 -489l144 489h116l-185 -627h-136l-152 514l-153 -514h-136zM54 1311h116l145 -489l144 489h137l145 -489l144 489h116l-185 -627h-136l-152 514l-153 -514h-136z" />
<glyph unicode="&#x2ad;" horiz-adv-x="1055" d="M54 173v424h947v-424h-143v261h-661v-261h-143zM54 887v424h947v-424h-143v261h-661v-261h-143z" />
<glyph unicode="&#x2ae;" horiz-adv-x="1168" d="M0 1400v156h70q181 0 262 -96q82 -96 82 -310v-32v-670q0 -159 62 -238t186 -79q149 0 235 95t86 259v633h185v-1556h-185v610q-66 -101 -155 -151q-90 -50 -207 -50q-193 0 -292 119q-99 120 -99 352v676v32q0 153 -38 202q-38 48 -143 48h-49z" />
<glyph unicode="&#x2af;" horiz-adv-x="1359" d="M0 1400v156h70q181 0 262 -96q82 -96 82 -310v-32v-670q0 -159 62 -238t186 -79q149 0 235 95t86 259v633h185v-1138q-4 -148 38 -202q38 -48 142 -48h50v-156h-70q-182 0 -264 96q-75 89 -80 310l-1 20v172q-66 -101 -155 -151q-90 -50 -207 -50q-193 0 -292 119 q-99 120 -99 352v676v32q0 153 -38 202q-38 48 -143 48h-49z" />
<glyph unicode="&#x2b0;" horiz-adv-x="817" d="M117 926v871h117v-341q41 56 98 84q56 28 130 28q121 0 184 -67q62 -67 62 -196v-379h-116v375q0 89 -39 133.5t-117 44.5q-94 0 -148 -53q-54 -54 -54 -146v-354h-117z" />
<glyph unicode="&#x2b1;" horiz-adv-x="1298" d="M117 925v561v83q0 119 52 173q51 54 165 54h160v-87h-147q-66 0 -90 -27q-24 -28 -24 -113v-115h1q41 57 98 85q56 28 130 28q121 0 184 -67q62 -67 62 -197v-378h-116v375q0 89 -39 133t-117 44q-94 0 -148 -53t-54 -145v-354h-117z" />
<glyph unicode="&#x2b2;" horiz-adv-x="358" d="M-22 687v88h31q66 0 90 27t24 113v638h116v-638q0 -120 -52 -174q-51 -54 -165 -54h-44zM123 1667v130h116v-130h-116z" />
<glyph unicode="&#x2b3;" horiz-adv-x="530" d="M117 926v627h117v-97q36 57 95 85q58 27 142 27q12 0 27 -1q14 -1 32 -4v-106q-19 10 -42 14.5t-51 4.5q-98 0 -151 -56q-52 -57 -52 -164v-330h-117z" />
<glyph unicode="&#x2b4;" horiz-adv-x="605" d="M71 1022q20 -10 43 -15q23 -4 50 -4q99 0 151 57q53 56 53 163v330h116v-627h-116v97q-37 -57 -95 -84q-59 -28 -143 -28q-12 0 -26 1q-15 2 -32 4z" />
<glyph unicode="&#x2b5;" horiz-adv-x="606" d="M71 1022q20 -10 43 -15q23 -4 50 -4q99 0 151 57q53 56 53 163v330h116v-627h-116v97q-37 -57 -95 -84q-59 -28 -143 -28q-12 0 -26 1q-15 2 -32 4zM369 915v83h115v-83q0 -86 24 -113t90 -27h31v-88h-44q-114 0 -165 54t-51 174z" />
<glyph unicode="&#x2b6;" horiz-adv-x="776" d="M32 926v627h116v-265h107q61 0 98 21q37 20 77 83l102 161h123l-110 -171q-33 -53 -66 -83q-34 -30 -68 -40q67 -15 102 -54t35 -98q0 -91 -67 -136q-68 -45 -205 -45h-244zM148 1013h125q75 0 114 23q41 24 41 71q0 46 -41 70q-39 25 -114 25h-125v-189z" />
<glyph unicode="&#x2b7;" horiz-adv-x="1055" d="M54 1553h116l145 -489l144 489h137l145 -489l144 489h116l-185 -627h-136l-152 514l-153 -514h-136z" />
<glyph unicode="&#x2b8;" horiz-adv-x="763" d="M38 1553h123l221 -490l220 490h123l-310 -685q-49 -112 -96 -146q-46 -35 -124 -35h-93v87h68q48 0 74 20q27 20 59 95l21 47z" />
<glyph unicode="&#x2bb;" horiz-adv-x="651" d="M174 1001v173l164 319h129l-82 -319v-173h-211z" />
<glyph unicode="&#x2bc;" horiz-adv-x="651" d="M178 1022l82 319v152h211v-152l-164 -319h-129z" />
<glyph unicode="&#x2c0;" horiz-adv-x="757" d="M117 1661v96q48 20 99 29q51 10 104 10q174 0 261 -88q68 -70 68 -174q0 -95 -68 -159q-70 -67 -177 -84v-365h-128v447h39q121 0 176 64q36 42 36 97q-1 75 -36 111q-63 64 -176 64q-50 0 -100 -12q-49 -12 -98 -36z" />
<glyph unicode="&#x2c1;" horiz-adv-x="757" d="M117 1534q0 104 69 174q87 88 260 88q53 0 104 -10q51 -9 99 -29v-96q-49 24 -99 36q-49 12 -99 12q-113 0 -175 -64q-36 -36 -37 -111q0 -55 37 -97q54 -64 175 -64h39v-447h-127v365q-107 17 -178 84q-68 64 -68 159z" />
<glyph unicode="&#x2c6;" horiz-adv-x="1024" d="M193 1262l245 376h148l245 -376h-139l-180 245l-180 -245h-139z" />
<glyph unicode="&#x2c7;" horiz-adv-x="1024" d="M193 1638h139l180 -245l180 245h139l-245 -376h-148z" />
<glyph unicode="&#x2c8;" horiz-adv-x="563" d="M214 999v555h136v-555h-136z" />
<glyph unicode="&#x2cc;" horiz-adv-x="563" d="M214 252h136v-555h-136v555z" />
<glyph unicode="&#x2d0;" horiz-adv-x="690" d="M111 0l178 330l179 -330h-357zM111 1059h357l-179 -330z" />
<glyph unicode="&#x2d1;" horiz-adv-x="690" d="M111 1059h357l-179 -330z" />
<glyph unicode="&#x2d2;" horiz-adv-x="629" d="M117 1249v123q64 0 108 44t44 108q0 63 -44 107t-108 44v123q115 0 195 -80q79 -79 79 -194t-79 -195q-80 -80 -195 -80z" />
<glyph unicode="&#x2d6;" horiz-adv-x="845" d="M193 618v148h225v225h148v-225h225v-148h-225v-225h-148v225h-225z" />
<glyph unicode="&#x2d8;" horiz-adv-x="1024" d="M199 1608h118q11 -75 59.5 -112.5t135.5 -37.5q86 0 134 37t61 113h118q-10 -143 -89 -215t-224 -72t-224 72t-89 215z" />
<glyph unicode="&#x2d9;" horiz-adv-x="1024" d="M410 1348v204h204v-204h-204z" />
<glyph unicode="&#x2da;" horiz-adv-x="1024" d="M238 1524q0 115 79.5 194.5t194.5 79.5t194.5 -79.5t79.5 -194.5t-79.5 -195t-194.5 -80t-194.5 80t-79.5 195zM360 1524q0 -65 43.5 -108.5t108.5 -43.5q64 0 108 44t44 108q0 63 -44 107t-108 44q-65 0 -108.5 -43.5t-43.5 -107.5z" />
<glyph unicode="&#x2db;" horiz-adv-x="1024" d="M332 -215q0 48 26.5 100.5t81.5 114.5h119q-45 -61 -66.5 -105t-21.5 -75q0 -46 27.5 -69t81.5 -23q32 0 63 7.5t62 22.5v-133q-38 -10 -72 -15t-64 -5q-122 0 -179.5 43.5t-57.5 136.5z" />
<glyph unicode="&#x2dc;" horiz-adv-x="1024" d="M182 1309q2 135 53 208.5t142 73.5q38 0 70 -14t69 -47l57 -55q22 -20 38.5 -29.5t29.5 -9.5q38 0 56 36.5t20 118.5h125q-2 -135 -53 -208.5t-142 -73.5q-38 0 -70 14t-69 47l-57 55q-22 20 -38.5 29.5t-29.5 9.5q-38 0 -56 -36.5t-20 -118.5h-125z" />
<glyph unicode="&#x2dd;" horiz-adv-x="1024" d="M240 1262l190 376h170l-223 -376h-137zM559 1262l205 376h178l-248 -376h-135z" />
<glyph unicode="&#x2de;" horiz-adv-x="646" d="M-1 868l278 164h184v-148q0 -153 38 -202q38 -48 143 -48h43v-156h-64q-175 0 -262 96q-82 90 -82 290l-277 -162z" />
<glyph unicode="&#x2e0;" horiz-adv-x="872" d="M117 1553h137l191 -224l183 224h137l-248 -307q178 -249 178 -429q0 -129 -242 -132q-266 -3 -267 132q-1 192 181 433zM304 853q2 -77 136 -77q128 0 129 77q0 140 -128 326q-140 -174 -137 -326z" />
<glyph unicode="&#x2e1;" horiz-adv-x="340" d="M117 926v871h116v-871h-116z" />
<glyph unicode="&#x2e2;" horiz-adv-x="764" d="M117 965v107q64 -30 127 -45q62 -15 123 -15q82 0 126 25t44 70q0 42 -32 65q-28 20 -139 43l-40 8q-108 21 -156 62q-48 42 -48 115q0 88 71 136q70 49 200 49q64 0 121 -9q57 -8 104 -25v-97q-49 22 -102 33q-52 11 -109 11q-87 0 -130 -23q-43 -24 -43 -71 q0 -36 31 -56q31 -21 124 -39l40 -8q125 -24 175 -66q52 -43 52 -120q0 -87 -78 -138q-77 -51 -213 -51q-57 0 -119 10q-61 10 -129 29z" />
<glyph unicode="&#x2e3;" horiz-adv-x="909" d="M117 926l274 328l-251 299h137l187 -223l187 223h137l-255 -305l268 -322h-137l-205 246l-205 -246h-137z" />
<glyph unicode="&#x2e4;" horiz-adv-x="757" d="M117 1534q0 104 69 174q87 88 260 88q53 0 104 -10q51 -9 99 -29v-96q-49 24 -99 36q-49 12 -99 12q-113 0 -175 -64q-36 -36 -37 -111q0 -55 37 -97q54 -64 175 -64h39v-447h-127v365q-107 17 -178 84q-68 64 -68 159z" />
<glyph unicode="&#x2e5;" horiz-adv-x="1010" d="M214 1232v136h583v-1368h-136v1232h-447z" />
<glyph unicode="&#x2e6;" horiz-adv-x="1010" d="M214 924v136h447v308h136v-1368h-136v924h-447z" />
<glyph unicode="&#x2e7;" horiz-adv-x="1010" d="M214 616v136h447v616h136v-1368h-136v616h-447z" />
<glyph unicode="&#x2e8;" horiz-adv-x="1010" d="M214 308v136h447v924h136v-1368h-136v308h-447z" />
<glyph unicode="&#x2e9;" horiz-adv-x="1010" d="M214 0v136h447v1232h136v-1368h-583z" />
<glyph unicode="&#x300;" d="M-855 1638h197l282 -374h-153z" />
<glyph unicode="&#x301;" d="M-654 1262l280 376h199l-326 -376h-153z" />
<glyph unicode="&#x302;" d="M-832 1262l245 376h148l245 -376h-139l-180 245l-180 -245h-139z" />
<glyph unicode="&#x303;" d="M-843 1309q2 135 53 208.5t142 73.5q38 0 70 -14t69 -47l57 -55q22 -20 38.5 -29.5t29.5 -9.5q38 0 56 36.5t20 118.5h125q-2 -135 -53 -208.5t-142 -73.5q-38 0 -70 14t-69 47l-57 55q-22 20 -38.5 29.5t-29.5 9.5q-38 0 -56 -36.5t-20 -118.5h-125z" />
<glyph unicode="&#x304;" d="M-806 1378v148h598v-148h-598z" />
<glyph unicode="&#x305;" d="M-1023 1378v148h1024v-148h-1024z" />
<glyph unicode="&#x306;" d="M-832 1608h118q11 -75 59.5 -112.5t135.5 -37.5q86 0 134 37t61 113h118q-10 -143 -89 -215t-224 -72t-224 72t-89 215z" />
<glyph unicode="&#x307;" d="M-603 1348v204h204v-204h-204z" />
<glyph unicode="&#x308;" d="M-810 1350v202h203v-202h-203zM-419 1350v202h203v-202h-203z" />
<glyph unicode="&#x30a;" d="M-787 1524q0 115 79.5 194.5t194.5 79.5t194.5 -79.5t79.5 -194.5t-79.5 -195t-194.5 -80t-194.5 80t-79.5 195zM-665 1524q0 -65 43.5 -108.5t108.5 -43.5q64 0 108 44t44 108q0 63 -44 107t-108 44q-65 0 -108.5 -43.5t-43.5 -107.5z" />
<glyph unicode="&#x30b;" d="M-779 1262l190 376h170l-223 -376h-137zM-460 1262l205 376h178l-248 -376h-135z" />
<glyph unicode="&#x30c;" d="M-826 1638h139l180 -245l180 245h139l-245 -376h-148z" />
<glyph unicode="&#x30d;" d="M-580 1260v444h136v-444h-136z" />
<glyph unicode="&#x30e;" d="M-783 1260v444h136v-444h-136zM-376 1260v444h136v-444h-136z" />
<glyph unicode="&#x30f;" d="M-931 1638h178l205 -376h-135zM-589 1638h170l190 -376h-137z" />
<glyph unicode="&#x310;" d="M-832 1608h118q11 -75 59.5 -112.5t135.5 -37.5q86 0 134 37t61 113h118q-10 -143 -89 -215t-224 -72t-224 72t-89 215zM-609 1546v204h204v-204h-204z" />
<glyph unicode="&#x311;" d="M-832 1321q10 143 89 215t224 72t224 -72t89 -215h-118q-11 75 -59.5 112.5t-135.5 37.5q-86 0 -134 -37t-61 -113h-118z" />
<glyph unicode="&#x312;" d="M-481 1001l164 319h129l-82 -319h-211z" />
<glyph unicode="&#x315;" d="M-71 1178l71 376h199l-117 -376h-153z" />
<glyph unicode="&#x316;" d="M-855 -130h197l282 -374h-153z" />
<glyph unicode="&#x317;" d="M-654 -506l280 376h199l-326 -376h-153z" />
<glyph unicode="&#x318;" d="M-440 -377h176v177h136v-490h-136v177h-176v136z" />
<glyph unicode="&#x319;" d="M-440 -200h136v-177h176v-136h-176v-177h-136v490z" />
<glyph unicode="&#x31c;" d="M-509 -475q0 115 79 195q80 80 195 80v-123q-64 0 -108 -44t-44 -108q0 -63 44 -107t108 -44v-123q-115 0 -195 79q-79 80 -79 195z" />
<glyph unicode="&#x31d;" d="M-529 -377h177v177h136v-177h177v-136h-490v136z" />
<glyph unicode="&#x31e;" d="M-529 -200h490v-136h-177v-177h-136v177h-177v136z" />
<glyph unicode="&#x31f;" d="M-529 -377h177v177h136v-177h177v-136h-177v-177h-136v177h-177v136z" />
<glyph unicode="&#x320;" d="M-529 -200h490v-136h-490v136z" />
<glyph unicode="&#x321;" d="M-646 -270h233q105 0 143 48q38 49 38 202v148h184v-148q0 -214 -82 -310q-81 -96 -262 -96h-254v156z" />
<glyph unicode="&#x322;" d="M-649 -20v148h184v-148q0 -153 38 -202q38 -48 143 -48h233v-156h-254q-181 0 -262 96q-82 96 -82 310z" />
<glyph unicode="&#x324;" d="M-810 -132h203v-202h-203v202zM-419 -132h203v-202h-203v202z" />
<glyph unicode="&#x325;" d="M-787 -406q0 115 79.5 194.5t194.5 79.5t194.5 -79.5t79.5 -194.5t-79.5 -195t-194.5 -80t-194.5 80t-79.5 195zM-665 -406q0 -65 43.5 -108.5t108.5 -43.5q64 0 108 44t44 108q0 63 -44 107t-108 44q-65 0 -108.5 -43.5t-43.5 -107.5z" />
<glyph unicode="&#x326;" d="M-662 -452l82 320h211l-164 -320h-129z" />
<glyph unicode="&#x329;" d="M-580 -132h136v-444h-136v444z" />
<glyph unicode="&#x32a;" d="M-784 -132h551v-330h-137v194h-277v-194h-137v330z" />
<glyph unicode="&#x32c;" d="M-826 -133h139l180 -245l180 245h139l-245 -376h-148z" />
<glyph unicode="&#x32d;" d="M-832 -506l245 376h148l245 -376h-139l-180 245l-180 -245h-139z" />
<glyph unicode="&#x32e;" d="M-832 -127h118q11 -75 59.5 -112.5t135.5 -37.5q86 0 134 37t61 113h118q-10 -143 -89 -215t-224 -72t-224 72t-89 215z" />
<glyph unicode="&#x32f;" d="M-832 -418q10 143 89 215t224 72t224 -72t89 -215h-118q-11 75 -59.5 112.5t-135.5 37.5q-86 0 -134 -37t-61 -113h-118z" />
<glyph unicode="&#x330;" d="M-843 -414q2 135 53 208.5t142 73.5q38 0 70 -14t69 -47l57 -55q22 -20 38.5 -29.5t29.5 -9.5q38 0 56 36.5t20 118.5h125q-2 -135 -53 -208.5t-142 -73.5q-38 0 -70 14t-69 47l-57 55q-22 20 -38.5 29.5t-29.5 9.5q-38 0 -56 -36.5t-20 -118.5h-125z" />
<glyph unicode="&#x331;" d="M-806 -131h598v-148h-598v148z" />
<glyph unicode="&#x332;" d="M-1023 -132h1024v-148h-1024v148z" />
<glyph unicode="&#x339;" d="M-508 -199q115 0 195 -79q79 -80 79 -195t-79 -195q-80 -80 -195 -80v123q64 0 108 44t44 108q0 63 -44 107t-108 44v123z" />
<glyph unicode="&#x33a;" d="M-782 -130h137v-194h277v194h137v-330h-551v330z" />
<glyph unicode="&#x33b;" d="M-784 -132h551v-550h-551v550zM-647 -268v-278h277v278h-277z" />
<glyph unicode="&#x33d;" d="M-734 1340l126 126l-125 125l96 96l125 -125l125 125l96 -96l-125 -125l125 -125l-96 -96l-125 125l-126 -126z" />
<glyph unicode="&#x361;" d="M-853 1520q0 240 508 300q229 27 345 27t345 -27q508 -60 508 -300h-118q-127 142 -395 165q-285 25 -340 25t-340 -25q-268 -23 -395 -165h-118z" />
<glyph unicode="&#x374;" horiz-adv-x="570" d="M160 1140l65 498h190l-110 -498h-145z" />
<glyph unicode="&#x375;" horiz-adv-x="570" d="M160 -426l110 498h145l-65 -498h-190z" />
<glyph unicode="&#x37a;" horiz-adv-x="740" d="M259 -92h149v-164q0 -104 51 -104h20v-66h-132q-88 0 -88 183v151z" />
<glyph unicode="&#x37e;" horiz-adv-x="690" d="M158 -238l82 320v172h211v-172l-164 -320h-129zM240 805v254h211v-254h-211z" />
<glyph unicode="&#x384;" horiz-adv-x="1024" d="M371 1262l280 376h199l-326 -376h-153z" />
<glyph unicode="&#x385;" horiz-adv-x="1024" d="M215 1350v202h203v-202h-203zM371 1626l280 376h199l-326 -376h-153zM606 1350v202h203v-202h-203z" />
<glyph unicode="&#x386;" horiz-adv-x="1418" d="M16 0l570 1493h229l569 -1493h-210l-136 383h-673l-136 -383h-213zM77 1262l280 376h199l-326 -376h-153zM426 551h549l-275 743z" />
<glyph unicode="&#x387;" horiz-adv-x="651" d="M219 584v254h211v-254h-211z" />
<glyph unicode="&#x388;" horiz-adv-x="1528" d="M-25 1262l280 376h199l-326 -376h-153zM435 0v1493h944v-170h-742v-442h711v-170h-711v-541h760v-170h-962z" />
<glyph unicode="&#x389;" horiz-adv-x="1784" d="M-13 1262l280 376h199l-326 -376h-153zM429 0v1493h202v-612h734v612h202v-1493h-202v711h-734v-711h-202z" />
<glyph unicode="&#x38a;" horiz-adv-x="836" d="M-19 1262l280 376h199l-326 -376h-153zM435 0v1493h202v-1493h-202z" />
<glyph unicode="&#x38c;" horiz-adv-x="1664" d="M-14 1262l280 376h199l-326 -376h-153zM155 745q0 354 188.5 564.5t503.5 210.5q314 0 502 -210.5t188 -564.5q0 -353 -188 -563.5t-502 -210.5q-315 0 -503.5 210t-188.5 564zM368 745q0 -282 129.5 -446t349.5 -164t348.5 164t128.5 446q0 283 -128.5 447t-348.5 164 t-349.5 -164t-129.5 -447z" />
<glyph unicode="&#x38e;" horiz-adv-x="1689" d="M-31 1262l280 376h199l-326 -376h-153zM422 1493h217l414 -614l411 614h217l-528 -782v-711h-203v711z" />
<glyph unicode="&#x38f;" horiz-adv-x="1691" d="M-36 1262l280 376h199l-326 -376h-153zM132 0v178h319q-158 139 -231 288q-72 149 -72 333q0 318 192 515q191 197 496 197q303 0 496 -197q192 -196 192 -505q0 -194 -71 -342t-232 -289h320v-178h-600v178q177 97 276 263t99 368q0 240 -132 385t-348 145 t-348.5 -145.5t-132.5 -384.5q0 -202 99 -368q100 -166 278 -263v-178h-600z" />
<glyph unicode="&#x390;" horiz-adv-x="599" d="M5 1350v202h203v-202h-203zM161 1626l280 376h199l-326 -376h-153zM208 0v1120h184v-1120h-184zM396 1350v202h203v-202h-203z" />
<glyph unicode="&#x391;" horiz-adv-x="1401" d="M16 0l570 1493h229l569 -1493h-210l-136 383h-673l-136 -383h-213zM426 551h549l-275 743z" />
<glyph unicode="&#x392;" horiz-adv-x="1405" d="M201 0v1493h516q231 0 356 -96t125 -273q0 -137 -64 -218t-188 -101q149 -32 231.5 -133.5t82.5 -253.5q0 -200 -136 -309t-387 -109h-536zM403 166h324q163 0 241.5 67.5t78.5 206.5q0 140 -78.5 206.5t-241.5 66.5h-324v-547zM403 877h299q148 0 220.5 55.5t72.5 169.5 q0 113 -72.5 169t-220.5 56h-299v-450z" />
<glyph unicode="&#x393;" horiz-adv-x="1141" d="M201 0v1493h929v-170h-727v-1323h-202z" />
<glyph unicode="&#x394;" horiz-adv-x="1401" d="M16 0l570 1493h229l569 -1493h-1368zM290 168h821l-411 1126z" />
<glyph unicode="&#x395;" horiz-adv-x="1294" d="M201 0v1493h944v-170h-742v-442h711v-170h-711v-541h760v-170h-962z" />
<glyph unicode="&#x396;" horiz-adv-x="1403" d="M92 0v154l944 1169h-921v170h1173v-154l-944 -1169h967v-170h-1219z" />
<glyph unicode="&#x397;" horiz-adv-x="1540" d="M201 0v1493h202v-612h734v612h202v-1493h-202v711h-734v-711h-202z" />
<glyph unicode="&#x398;" horiz-adv-x="1612" d="M115 745q0 354 189 565q188 210 503 210q314 0 502 -210.5t188 -564.5q0 -353 -188 -563q-188 -211 -502 -211q-315 0 -503 210q-189 210 -189 564zM328 745q0 -282 129.5 -446t349.5 -164t349 164q128 164 128 446q0 283 -128 447q-129 164 -349 164t-349 -164 q-130 -164 -130 -447zM453 710v170h706v-170h-706z" />
<glyph unicode="&#x399;" horiz-adv-x="604" d="M201 0v1493h202v-1493h-202z" />
<glyph unicode="&#x39a;" horiz-adv-x="1343" d="M201 0v1493h202v-631l670 631h260l-741 -696l794 -797h-266l-717 719v-719h-202z" />
<glyph unicode="&#x39b;" horiz-adv-x="1401" d="M16 0l570 1493h229l569 -1493h-210l-474 1294l-471 -1294h-213z" />
<glyph unicode="&#x39c;" horiz-adv-x="1767" d="M201 0v1493h301l381 -1016l383 1016h301v-1493h-197v1311l-385 -1024h-203l-385 1024v-1311h-196z" />
<glyph unicode="&#x39d;" horiz-adv-x="1532" d="M201 0v1493h272l662 -1249v1249h196v-1493h-272l-662 1249v-1249h-196z" />
<glyph unicode="&#x39e;" horiz-adv-x="1294" d="M201 0v170h921v-170h-921zM201 1323v170h921v-170h-921zM306 711v170h711v-170h-711z" />
<glyph unicode="&#x39f;" horiz-adv-x="1612" d="M115 745q0 354 188.5 564.5t503.5 210.5q314 0 502 -210.5t188 -564.5q0 -353 -188 -563.5t-502 -210.5q-315 0 -503.5 210t-188.5 564zM328 745q0 -282 129.5 -446t349.5 -164t348.5 164t128.5 446q0 283 -128.5 447t-348.5 164t-349.5 -164t-129.5 -447z" />
<glyph unicode="&#x3a0;" horiz-adv-x="1540" d="M201 0v1493h1138v-1493h-202v1323h-734v-1323h-202z" />
<glyph unicode="&#x3a1;" horiz-adv-x="1235" d="M201 0v1493h456q251 0 379.5 -113.5t128.5 -332.5q0 -221 -128.5 -334t-379.5 -113h-254v-600h-202zM403 766h254q141 0 218 73t77 208q0 134 -77 207t-218 73h-254v-561z" />
<glyph unicode="&#x3a3;" horiz-adv-x="1294" d="M201 0v170l479 624l-479 529v170h944v-170h-712l479 -525l-479 -628h730v-170h-962z" />
<glyph unicode="&#x3a4;" horiz-adv-x="1251" d="M-6 1323v170h1263v-170h-530v-1323h-203v1323h-530z" />
<glyph unicode="&#x3a5;" horiz-adv-x="1251" d="M-4 1493h217l414 -614l411 614h217l-528 -782v-711h-203v711z" />
<glyph unicode="&#x3a6;" horiz-adv-x="1612" d="M115 745q0 271 189 432q157 135 402 157v159h202v-159q244 -23 401 -157q188 -161 188 -432q0 -270 -188 -431q-157 -134 -401 -157v-157h-202v158q-244 22 -402 156q-189 160 -189 431zM328 745q0 -197 130 -312q98 -87 248 -108v841q-150 -21 -248 -108 q-130 -115 -130 -313zM908 325q150 21 248 108q128 115 128 312q0 198 -128 313q-98 87 -248 108v-841z" />
<glyph unicode="&#x3a7;" horiz-adv-x="1403" d="M61 0l533 797l-465 696h217l371 -555l373 555h217l-480 -717l512 -776h-217l-420 635l-423 -635h-218z" />
<glyph unicode="&#x3a8;" horiz-adv-x="1612" d="M115 1084v409h213v-409q0 -282 130 -446q110 -140 248 -154v1009h202v-1009q138 14 248 154q130 164 130 446v409h213v-409q-5 -360 -189 -564q-188 -210 -402 -210q-1 -72 0 -310h-202q1 134 0 310q-214 0 -402 210q-184 204 -189 564z" />
<glyph unicode="&#x3a9;" horiz-adv-x="1565" d="M78 0v178h319q-158 139 -231 288q-72 149 -72 333q0 318 192 515q191 197 496 197q303 0 496 -197q192 -196 192 -505q0 -194 -71 -342t-232 -289h320v-178h-600v178q177 97 276 263t99 368q0 240 -132 385t-348 145t-348.5 -145.5t-132.5 -384.5q0 -202 99 -368 q100 -166 278 -263v-178h-600z" />
<glyph unicode="&#x3aa;" horiz-adv-x="604" d="M6 1667v203h203v-203h-203zM201 0v1493h202v-1493h-202zM397 1667v203h203v-203h-203z" />
<glyph unicode="&#x3ab;" horiz-adv-x="1251" d="M-4 1493h217l414 -614l411 614h217l-528 -782v-711h-203v711zM328 1667v203h203v-203h-203zM719 1667v203h203v-203h-203z" />
<glyph unicode="&#x3ac;" horiz-adv-x="1306" d="M113 559q0 276 137 432q137 157 349 156q202 0 361 -223v196h184v-1120h-184v217q-75 -246 -364 -246q-212 0 -346 157q-137 156 -137 431zM307 559q0 -201 85 -317q86 -116 204 -115q251 3 364 332v246q-192 286 -361 286q-121 1 -206 -115q-86 -116 -86 -317zM481 1262 l280 376h199l-326 -376h-153z" />
<glyph unicode="&#x3ad;" horiz-adv-x="1123" d="M133 326q0 108 69 181t193 97q-112 24 -172 89q-60 64 -60 157q0 141 114 220q113 78 309 78q76 0 161 -12t183 -36v-167q-97 29 -177 42q-81 13 -152 13q-119 0 -188 -46q-70 -46 -70 -110q0 -70 68 -115q67 -44 183 -44h155v-152h-148q-137 0 -209 -51 q-78 -56 -78 -144q0 -90 84 -146q85 -56 236 -56q93 0 178 18q85 19 156 56v-171q-90 -28 -174 -42q-85 -14 -165 -14q-238 0 -367 91t-129 264zM451 1262l280 376h199l-326 -376h-153z" />
<glyph unicode="&#x3ae;" horiz-adv-x="1340" d="M186 0v1120h185v-174q66 101 155 151q90 50 207 50q193 0 292 -119q99 -120 99 -352v-1102h-184v1096q0 159 -62 238t-186 79q-149 0 -235 -95t-86 -259v-633h-185zM569 1262l280 376h199l-326 -376h-153z" />
<glyph unicode="&#x3af;" horiz-adv-x="592" d="M185 1262l280 376h199l-326 -376h-153zM193 0v1120h184v-1120h-184z" />
<glyph unicode="&#x3b0;" horiz-adv-x="1298" d="M174 442v678h184v-671q0 -159 62 -239q61 -78 223 -79q157 0 223 79q62 75 62 239v671h184v-678q0 -223 -100 -351q-96 -120 -369 -120q-266 0 -369 120q-100 118 -100 351zM343 1350v202h203v-202h-203zM499 1626l280 376h199l-326 -376h-153zM734 1350v202h203v-202 h-203z" />
<glyph unicode="&#x3b1;" horiz-adv-x="1253" d="M113 559q0 276 137 432q137 157 349 156q202 0 361 -223v196h184v-1120h-184v217q-75 -246 -364 -246q-212 0 -346 157q-137 156 -137 431zM307 559q0 -201 85 -317q86 -116 204 -115q251 3 364 332v246q-192 286 -361 286q-121 1 -206 -115q-86 -116 -86 -317z" />
<glyph unicode="&#x3b2;" horiz-adv-x="1307" d="M192 -426v1539q0 487 461 456q399 -27 399 -385q-1 -276 -172 -374q278 -54 280 -357q4 -451 -482 -474q-130 -6 -301 90v-495h-185zM377 342q81 -141 308 -162q288 -25 288 270q0 282 -464 260v170q363 -6 363 298q0 189 -234 202q-261 15 -261 -273v-765z" />
<glyph unicode="&#x3b3;" horiz-adv-x="1212" d="M61 1120h195l350 -940l350 940h195l-420 -1120v-426h-250v426z" />
<glyph unicode="&#x3b4;" horiz-adv-x="1253" d="M113 559q0 204 137 369q53 64 128 100q-156 79 -156 220q0 272 441 272q221 0 341 -70v-153q-102 70 -341 70q-253 0 -253 -117q0 -92 264 -140q208 -37 325 -149q142 -135 142 -412q0 -265 -137 -421q-137 -157 -377 -157q-239 0 -377 157q-137 156 -137 431zM307 559 q0 -203 85 -317q86 -115 235 -115q147 0 233 116t86 306q0 199 -91 295q-97 103 -223 114q-64 6 -116 20q-68 -29 -123 -102q-86 -113 -86 -317z" />
<glyph unicode="&#x3b5;" horiz-adv-x="1107" d="M133 326q0 108 69 181t193 97q-112 24 -172 89q-60 64 -60 157q0 141 114 220q113 78 309 78q76 0 161 -12t183 -36v-167q-97 29 -177 42q-81 13 -152 13q-119 0 -188 -46q-70 -46 -70 -110q0 -70 68 -115q67 -44 183 -44h155v-152h-148q-137 0 -209 -51 q-78 -56 -78 -144q0 -90 84 -146q85 -56 236 -56q93 0 178 18q85 19 156 56v-171q-90 -28 -174 -42q-85 -14 -165 -14q-238 0 -367 91t-129 264z" />
<glyph unicode="&#x3b6;" horiz-adv-x="1282" d="M191 726q9 427 409 645h-370v185h870v-185q-713 -156 -724 -645q-12 -540 352 -541q366 -1 372 -329q5 -282 -500 -282v111q316 22 311 167q-4 148 -180 148q-556 0 -540 726z" />
<glyph unicode="&#x3b7;" horiz-adv-x="1298" d="M186 0v1120h185v-174q66 101 155 151q90 50 207 50q193 0 292 -119q99 -120 99 -352v-1102h-184v1096q0 159 -62 238t-186 79q-149 0 -235 -95t-86 -259v-633h-185z" />
<glyph unicode="&#x3b8;" horiz-adv-x="1253" d="M113 775q0 374 137 585q136 212 377 212q240 0 377 -212q137 -211 137 -585q0 -373 -137 -585q-137 -213 -377 -213q-241 0 -377 213q-137 212 -137 585zM308 710q9 -228 84 -365q86 -156 235 -156q147 0 233 157q76 138 85 364h-637zM310 880h632q-14 195 -82 322 q-86 158 -233 158q-148 0 -234 -156q-69 -126 -83 -324z" />
<glyph unicode="&#x3b9;" horiz-adv-x="569" d="M193 0v1120h184v-1120h-184z" />
<glyph unicode="&#x3ba;" horiz-adv-x="1237" d="M191 0v1120h185v-483l549 483h235l-594 -524l619 -596h-240l-569 547v-547h-185z" />
<glyph unicode="&#x3bb;" horiz-adv-x="1212" d="M61 0l491 1074l-182 482h200l581 -1556h-195l-314 828l-386 -828h-195z" />
<glyph unicode="&#x3bc;" horiz-adv-x="1298" d="M174 -426v1546h184v-671q0 -159 62 -238.5t186 -79.5q149 0 236 95q86 95 86 259v635h184v-1120h-184v172q-73 -111 -156 -152q-129 -62 -205 -49q-175 29 -209 80v-477h-184z" />
<glyph unicode="&#x3bd;" horiz-adv-x="1212" d="M61 1120h195l350 -940l350 940h195l-420 -1120h-250z" />
<glyph unicode="&#x3be;" horiz-adv-x="1282" d="M191 452q0 232 333 344q-280 36 -280 296q0 197 220 279h-208v185h789v-185q-629 0 -629 -291q0 -191 528 -200v-170q-564 0 -568 -258q-4 -266 352 -267q366 -1 372 -329q5 -282 -500 -282v111q316 22 311 167q-4 148 -180 148q-539 0 -540 452z" />
<glyph unicode="&#x3bf;" horiz-adv-x="1253" d="M100 559q0 276 136.5 432t377.5 156q240 0 377 -156t137 -432q0 -275 -137 -431.5t-377 -156.5q-241 0 -377.5 156.5t-136.5 431.5zM294 559q0 -201 85.5 -316.5t234.5 -115.5q147 0 233 116t86 316q0 199 -86 315.5t-233 116.5q-148 0 -234 -115.5t-86 -316.5z" />
<glyph unicode="&#x3c0;" horiz-adv-x="1351" d="M193 0v1120h967v-1120h-184v966h-599v-966h-184z" />
<glyph unicode="&#x3c1;" horiz-adv-x="1300" d="M186 -426v975q0 231 90 371q61 102 212 192q59 35 241 35q204 0 331.5 -162t127.5 -426t-127.5 -426t-331.5 -162q-123 0 -211.5 48.5t-146.5 148.5v-594h-185zM371 559q0 -203 83.5 -318.5t229.5 -115.5t229.5 115.5t83.5 318.5t-83.5 318.5t-229.5 115.5t-229.5 -115.5 t-83.5 -318.5z" />
<glyph unicode="&#x3c2;" horiz-adv-x="1202" d="M137 598q5 609 883 522v-170q-698 63 -698 -352q0 -394 352 -413q366 -18 372 -329q5 -282 -500 -282v111q316 22 311 167q-4 148 -180 148q-540 0 -540 598z" />
<glyph unicode="&#x3c3;" horiz-adv-x="1298" d="M113 559q0 276 137 432q136 156 377 156l611 -1v-155h-234q137 -156 137 -432q0 -275 -137 -431q-137 -157 -377 -157q-241 0 -377 157q-137 156 -137 431zM307 559q0 -201 85.5 -316.5t234.5 -115.5q147 0 233 116t86 316q0 199 -86 315q-86 117 -233 117 q-148 0 -234 -115.5t-86 -316.5z" />
<glyph unicode="&#x3c4;" horiz-adv-x="1083" d="M5 950v170h1073v-170h-446v-950h-181v950h-446z" />
<glyph unicode="&#x3c5;" horiz-adv-x="1298" d="M174 442v678h184v-671q0 -159 62 -239q61 -78 223 -79q157 0 223 79q62 75 62 239v671h184v-678q0 -223 -100 -351q-96 -120 -369 -120q-266 0 -369 120q-100 118 -100 351z" />
<glyph unicode="&#x3c6;" horiz-adv-x="1410" d="M174 588v532h184v-525q0 -392 272 -451v528q0 458 329 458q308 0 310 -481q3 -609 -463 -645v-430h-176v436q-456 54 -456 578zM806 133q310 51 307 516q-2 309 -154 303q-153 -6 -153 -280v-539z" />
<glyph unicode="&#x3c7;" horiz-adv-x="1212" d="M59 -427l435 809l-398 739h217l297 -553l297 553h217l-405 -754l426 -794h-217l-326 607l-326 -607h-217z" />
<glyph unicode="&#x3c8;" horiz-adv-x="1429" d="M191 472v648h185v-641q0 -182 84 -249q73 -55 205 -90v980h183v-980q109 13 198 90q85 74 85 249v641h186v-648q0 -247 -131 -362q-110 -97 -338 -134v-402h-183l-1 401q-213 20 -343 136q-130 118 -130 361z" />
<glyph unicode="&#x3c9;" horiz-adv-x="1715" d="M203 466q12 554 150 654h190q-128 -150 -130 -659q-2 -262 145 -263q219 0 212 692h170q-7 -692 212 -692q147 1 145 263q-2 509 -130 659h190q138 -100 150 -654q10 -467 -335 -466q-278 1 -317 308q-39 -307 -317 -308q-345 0 -335 466z" />
<glyph unicode="&#x3ca;" horiz-adv-x="594" d="M5 1350v202h203v-202h-203zM208 0v1120h184v-1120h-184zM396 1350v202h203v-202h-203z" />
<glyph unicode="&#x3cb;" horiz-adv-x="1298" d="M174 442v678h184v-671q0 -159 62 -239q61 -78 223 -79q157 0 223 79q62 75 62 239v671h184v-678q0 -223 -100 -351q-96 -120 -369 -120q-266 0 -369 120q-100 118 -100 351zM345 1350v202h203v-202h-203zM736 1350v202h203v-202h-203z" />
<glyph unicode="&#x3cc;" horiz-adv-x="1253" d="M113 559q0 276 136.5 432t377.5 156q240 0 377 -156t137 -432q0 -275 -137 -431.5t-377 -156.5q-241 0 -377.5 156.5t-136.5 431.5zM307 559q0 -201 85.5 -316.5t234.5 -115.5q147 0 233 116t86 316q0 199 -86 315.5t-233 116.5q-148 0 -234 -115.5t-86 -316.5zM496 1262 l280 376h199l-326 -376h-153z" />
<glyph unicode="&#x3cd;" horiz-adv-x="1298" d="M174 442v678h184v-671q0 -159 62 -239q61 -78 223 -79q157 0 223 79q62 75 62 239v671h184v-678q0 -223 -100 -351q-96 -120 -369 -120q-266 0 -369 120q-100 118 -100 351zM506 1262l280 376h199l-326 -376h-153z" />
<glyph unicode="&#x3ce;" horiz-adv-x="1715" d="M203 466q12 554 150 654h190q-128 -150 -130 -659q-2 -262 145 -263q219 0 212 692h170q-7 -692 212 -692q147 1 145 263q-2 509 -130 659h190q138 -100 150 -654q10 -467 -335 -466q-278 1 -317 308q-39 -307 -317 -308q-345 0 -335 466zM716 1262l280 376h199 l-326 -376h-153z" />
<glyph unicode="&#x3d0;" horiz-adv-x="1258" d="M167 775q-9 383 119 585q134 212 344 212q333 0 383 -382q27 -205 -158 -375q380 -250 187 -625q-116 -225 -372 -213q-275 15 -391 213q-102 178 -112 585zM363 710q6 -259 60 -364q82 -161 247 -157q175 4 230 156q86 245 -230 385q-67 -30 -307 -20zM366 880 q268 0 346 65q147 123 121 260q-31 161 -203 155q-142 -5 -215 -170q-53 -122 -49 -310z" />
<glyph unicode="&#x3d1;" horiz-adv-x="1268" d="M113 881l195 -1q7 -429 84 -535q115 -156 235 -156q133 0 233 157q80 126 85 364q-330 -10 -439 65q-240 164 -211 415q45 382 383 382q210 0 344 -212q128 -200 119 -585q-9 -387 -137 -585q-137 -213 -377 -213q-219 0 -377 213q-150 200 -137 691zM475 1205 q-26 -137 121 -260q78 -65 346 -65q4 188 -49 310q-73 165 -215 170q-172 6 -203 -155z" />
<glyph unicode="&#x3d2;" horiz-adv-x="1431" d="M0 1323v170q104 -5 226 -78q258 -165 390 -595q39 235 125 393q158 287 453 287q68 0 125 -46q103 -82 103 -257q0 -120 -99 -202q-92 -76 -213 -76v170h19q127 7 127 113q0 38 -7 63q-16 58 -81 58q-55 0 -110 -31q-127 -71 -219 -275q-116 -258 -116 -591v-426h-203 v426q0 157 -42 306q-72 254 -242 433q-123 129 -236 158z" />
<glyph unicode="&#x3d3;" horiz-adv-x="1815" d="M-24 1262l280 376h199l-326 -376h-153zM426 1323v170q104 -5 226 -78q258 -165 390 -595q39 235 125 393q158 287 453 287q68 0 125 -46q103 -82 103 -257q0 -120 -99 -202q-92 -76 -213 -76v170h19q127 7 127 113q0 38 -7 63q-16 58 -81 58q-55 0 -110 -31 q-127 -71 -219 -275q-116 -258 -116 -591v-426h-203v426q0 157 -42 306q-72 254 -242 433q-123 129 -236 158z" />
<glyph unicode="&#x3d4;" horiz-adv-x="1431" d="M0 1323v170q104 -5 226 -78q258 -165 390 -595q39 235 125 393q158 287 453 287q68 0 125 -46q103 -82 103 -257q0 -120 -99 -202q-92 -76 -213 -76v170h19q127 7 127 113q0 38 -7 63q-16 58 -81 58q-55 0 -110 -31q-127 -71 -219 -275q-116 -258 -116 -591v-426h-203 v426q0 157 -42 306q-72 254 -242 433q-123 129 -236 158zM328 1667v203h203v-203h-203zM719 1667v203h203v-203h-203z" />
<glyph unicode="&#x3d5;" horiz-adv-x="1253" d="M113 559q0 273 137 432q107 125 287 150v415h184v-415q177 -29 283 -150q137 -156 137 -432q0 -275 -137 -431q-106 -123 -283 -152v-402h-184v402q-189 36 -287 152q-137 162 -137 431zM307 559q0 -201 85 -317q58 -77 145 -103v838q-87 -25 -144 -101 q-86 -116 -86 -317zM721 139q81 26 139 104q86 116 86 316q0 199 -86 315q-50 69 -139 103v-838z" />
<glyph unicode="&#x3d6;" horiz-adv-x="1775" d="M191 950v170h1405v-170h-113q48 -178 55 -484q10 -467 -335 -466q-278 1 -317 308q-39 -307 -317 -308q-345 -1 -335 466q7 316 54 484h-97zM444 461q-1 -262 145 -263q218 -3 212 624h170q-6 -624 212 -624q147 0 145 263q-3 318 -48 489h-788q-47 -181 -48 -489z" />
<glyph unicode="&#x3d7;" horiz-adv-x="1357" d="M121 0l244 330q211 285 25 520q-67 85 -220 85v185q174 55 340 -115q193 -198 115 -345l350 460h205l-200 -270q-246 -332 -105 -560q65 -105 310 -105q-29 -487 -245 -570q-210 -80 -325 95v160q290 -355 395 148q-107 25 -185 82q-259 192 -130 385l-365 -485h-209z " />
<glyph unicode="&#x3d8;" horiz-adv-x="1612" d="M115 745q0 354 189 565q188 210 503 210q314 0 502 -210.5t188 -564.5q0 -353 -188 -563q-159 -179 -409 -206v-400h-184v400q-252 26 -412 205q-189 210 -189 564zM328 745q0 -282 129.5 -446t349.5 -164t349 164q128 164 128 446q0 283 -128 447q-129 164 -349 164 t-349 -164q-130 -164 -130 -447z" />
<glyph unicode="&#x3d9;" horiz-adv-x="1253" d="M113 559q0 276 136.5 432t377.5 156q240 0 377 -156t137 -432q0 -275 -137 -431q-106 -123 -287 -152v-402h-170v402q-190 27 -297 152q-137 156 -137 431zM307 559q0 -201 85.5 -316.5t234.5 -115.5q147 0 233 116t86 316q0 199 -86 315q-86 117 -233 117 q-148 0 -234 -115.5t-86 -316.5z" />
<glyph unicode="&#x3da;" horiz-adv-x="1336" d="M191 625q0 352 149 583q185 287 552 287h260v-184h-232q-292 0 -439 -225q-104 -159 -105 -461q-1 -442 349 -440q406 1 432 -303q26 -308 -598 -313h-4v132q416 22 413 177q-3 122 -240 122q-536 1 -537 625z" />
<glyph unicode="&#x3db;" horiz-adv-x="1222" d="M136 598q1 533 689 533q116 0 184 141v-170q-75 -144 -180 -144q-508 0 -508 -360q-1 -395 352 -413q366 -18 372 -329q5 -282 -500 -282v111q316 22 311 167q-4 148 -180 148q-541 0 -540 598z" />
<glyph unicode="&#x3dc;" horiz-adv-x="1178" d="M201 0v1493h858v-170h-656v-440h592v-170h-592v-713h-202z" />
<glyph unicode="&#x3dd;" horiz-adv-x="1075" d="M186 -426v1546l732 1v-161h-546v-785h522v-175h-523v-426h-185z" />
<glyph unicode="&#x3de;" horiz-adv-x="1351" d="M179 1304v189q230 0 311 -70q95 -82 76 -264l-110 -421l780 382l-234 -724q-39 -96 -12 -138q66 -108 197 -73v-189q-230 0 -311 70q-95 82 -76 264l154 474l-762 -367l172 656q39 96 12 138q-66 108 -197 73z" />
<glyph unicode="&#x3df;" horiz-adv-x="1351" d="M191 710l281 845h184l-226 -675h730l-281 -880h-184l226 710h-730z" />
<glyph unicode="&#x3e0;" horiz-adv-x="1772" d="M114 1115v198q208 215 594 207q473 -10 710 -306q214 -271 214 -850q0 -424 -246 -790h-225q260 332 260 790q0 465 -82 590q-56 -32 -177 -124q-69 -52 -64 -260v-570h-205q2 33 2 565q0 247 182 390l187 141q-208 249 -556 260q-48 1 -115 -18v-628h-170v585 q-205 -75 -309 -180z" />
<glyph unicode="&#x3e1;" horiz-adv-x="1285" d="M119 0l543 688q-98 127 -144 160q-188 132 -399 132v164q301 0 543 -216q224 -200 396 -632q116 -289 116 -664h-168q0 350 -96 596l-32 80l-239 -308h-185l356 448q-14 35 -64 112l-442 -560h-185z" />
<glyph unicode="&#x3f0;" horiz-adv-x="1357" d="M115 935v185q175 55 340 -115q231 -239 120 -425l400 540h205l-135 -180q-264 -352 -120 -585q105 -170 260 -170v-185q-240 0 -375 195q-148 214 -70 360l-410 -555h-209l164 225q261 358 50 625q-67 85 -220 85z" />
<glyph unicode="&#x3f1;" horiz-adv-x="1300" d="M184 304l2 245q2 204 90 371q61 102 212 192q59 35 241 35q204 0 331.5 -162t127.5 -426t-127.5 -426t-331.5 -162q-123 0 -211.5 48.5t-146.5 148.5q5 -424 293 -424h500v-170h-484q-502 0 -496 730zM371 559q0 -203 83.5 -318.5t229.5 -115.5t229.5 115.5t83.5 318.5 t-83.5 318.5t-229.5 115.5t-229.5 -115.5t-83.5 -318.5z" />
<glyph unicode="&#x3f2;" horiz-adv-x="1126" d="M113 559q0 274 150.5 431t412.5 157q85 0 166 -17.5t157 -52.5v-172q-78 43 -156.5 64.5t-158.5 21.5q-179 0 -278 -113.5t-99 -318.5t99 -318.5t278 -113.5q80 0 158.5 21.5t156.5 64.5v-170q-77 -36 -159.5 -54t-175.5 -18q-253 0 -402 159t-149 429z" />
<glyph unicode="&#x3f3;" horiz-adv-x="569" d="M-37 -270h49q105 0 143 48.5t38 201.5v1140h184v-1140q0 -214 -81.5 -310t-262.5 -96h-70v156zM193 1323v233h184v-233h-184z" />
<glyph unicode="&#x3f4;" horiz-adv-x="1612" d="M115 745q0 354 189 565q188 210 503 210q314 0 502 -210.5t188 -564.5q0 -353 -188 -563q-188 -211 -502 -211q-315 0 -503 210q-189 210 -189 564zM328 710q8 -257 130 -411q129 -164 349 -164t349 164q119 153 127 411h-955zM337 880h939q-22 186 -120 312 q-129 164 -349 164t-349 -164q-96 -121 -121 -312z" />
<glyph unicode="&#x3f5;" horiz-adv-x="1260" d="M113 559q0 276 157 432q156 156 424 156q101 0 211 -22q40 -8 79 -20v-163q-37 13 -74 23q-99 26 -205 26q-183 0 -285 -99q-95 -92 -113 -261h677v-144h-677q18 -169 113 -261q102 -99 285 -99q128 0 205 26l74 25v-167l-79 -18q-104 -22 -211 -22q-268 0 -424 156 q-157 156 -157 432z" />
<glyph unicode="&#x3f6;" horiz-adv-x="1260" d="M196 11v167l74 -25q77 -26 205 -26q183 0 285 99q95 92 113 261h-677v144h677q-18 169 -113 261q-102 99 -285 99q-106 0 -205 -26q-37 -10 -74 -23v163q39 12 79 20q110 22 211 22q268 0 424 -156q157 -156 157 -432t-157 -432q-156 -156 -424 -156q-107 0 -211 22z" />
<glyph unicode="&#x3f7;" horiz-adv-x="1239" d="M201 0v1493h202v-264h254q251 0 379.5 -112.5t128.5 -332.5t-128.5 -333t-379.5 -113h-254v-338h-202zM403 504h254q141 0 218 73t77 207t-76.5 206.5t-218.5 72.5h-254v-559z" />
<glyph unicode="&#x3f8;" horiz-adv-x="1300" d="M186 -426v1982h185v-606q58 100 146.5 148.5t211.5 48.5q204 0 331.5 -162t127.5 -426t-127.5 -426t-331.5 -162q-123 0 -211.5 48.5t-146.5 148.5v-594h-185zM371 559q0 -203 83.5 -318.5t229.5 -115.5t229.5 115.5t83.5 318.5t-83.5 318.5t-229.5 115.5t-229.5 -115.5 t-83.5 -318.5z" />
<glyph unicode="&#x3f9;" horiz-adv-x="1430" d="M115 745q0 360 195 567.5t534 207.5q134 0 252.5 -35.5t222.5 -106.5v-213q-102 95 -217.5 142t-245.5 47q-256 0 -392 -156.5t-136 -452.5q0 -295 136 -451.5t392 -156.5q130 0 245.5 47t217.5 142v-211q-106 -72 -224.5 -108t-250.5 -36q-339 0 -534 207.5t-195 566.5z " />
<glyph unicode="&#x3fa;" horiz-adv-x="1767" d="M201 0v1493h301l381 -479l383 479h301v-1493h-197v1311l-385 -487h-203l-385 487v-1311h-196z" />
<glyph unicode="&#x3fb;" horiz-adv-x="1427" d="M191 -426v1546h254l277 -481l277 481h254v-1120h-184v945l-347 -549l-347 559v-1381h-184z" />
<glyph unicode="&#x3fc;" horiz-adv-x="1300" d="M85 -144h101v693q0 231 90 371q61 102 212 192q59 35 241 35q204 0 331.5 -162t127.5 -426t-127.5 -426t-331.5 -162q-123 0 -211.5 48.5t-146.5 148.5v-312h485v-170h-485v-112h-185v112h-101v170zM371 559q0 -203 83.5 -318.5t229.5 -115.5t229.5 115.5t83.5 318.5 t-83.5 318.5t-229.5 115.5t-229.5 -115.5t-83.5 -318.5z" />
<glyph unicode="&#x3fd;" horiz-adv-x="1430" d="M121 115v211q102 -95 217.5 -142t245.5 -47q256 0 392 156.5t136 451.5q0 296 -136 452.5t-392 156.5q-130 0 -245.5 -47t-217.5 -142v213q104 71 222.5 106.5t252.5 35.5q339 0 534 -207.5t195 -567.5q0 -359 -195 -566.5t-534 -207.5q-132 0 -250.5 36t-224.5 108z" />
<glyph unicode="&#x3fe;" horiz-adv-x="1430" d="M115 745q0 360 195 567.5t534 207.5q134 0 252.5 -35.5t222.5 -106.5v-213q-102 95 -217.5 142t-245.5 47q-256 0 -392 -156.5t-136 -452.5q0 -295 136 -451.5t392 -156.5q130 0 245.5 47t217.5 142v-211q-106 -72 -224.5 -108t-250.5 -36q-339 0 -534 207.5t-195 566.5z M782 584v254h211v-254h-211z" />
<glyph unicode="&#x3ff;" horiz-adv-x="1430" d="M117 115v211q102 -95 217.5 -142t245.5 -47q256 0 392 156.5t136 451.5q0 296 -136 452.5t-392 156.5q-130 0 -245.5 -47t-217.5 -142v213q104 71 222.5 106.5t252.5 35.5q339 0 534 -207.5t195 -567.5q0 -359 -195 -566.5t-534 -207.5q-132 0 -250.5 36t-224.5 108z M443 584v254h211v-254h-211z" />
<glyph unicode="&#x400;" horiz-adv-x="1294" d="M201 0v1493h944v-170h-742v-442h711v-170h-711v-541h760v-170h-962zM506 1899h187l196 -264h-153z" />
<glyph unicode="&#x401;" horiz-adv-x="1294" d="M201 0v1493h944v-170h-742v-442h711v-170h-711v-541h760v-170h-962zM444 1667v203h203v-203h-203zM835 1667v203h203v-203h-203z" />
<glyph unicode="&#x402;" horiz-adv-x="1610" d="M-6 1323v170h1163v-170h-530v-442h417q186 0 299 -119q109 -114 109 -352v-306q0 -270 -102 -392t-330 -122h-76v170h62q134 0 190 75q55 75 55 269v290q0 159 -62 238t-186 79h-376v-711h-203v1323h-430z" />
<glyph unicode="&#x403;" horiz-adv-x="1141" d="M201 0v1493h929v-170h-727v-1323h-202zM545 1635l196 264h185l-228 -264h-153z" />
<glyph unicode="&#x404;" horiz-adv-x="1430" d="M115 745q0 360 195 567q195 208 534 208q134 0 252 -36q119 -35 223 -106v-213q-102 95 -217 142q-116 47 -246 47q-256 0 -392 -156q-103 -119 -128 -317h690v-170h-698q7 -270 136 -417q136 -157 392 -157q130 0 246 47q115 47 217 142v-211q-106 -72 -225 -108 q-118 -36 -250 -36q-339 0 -534 207q-195 208 -195 567z" />
<glyph unicode="&#x405;" horiz-adv-x="1300" d="M135 1094q0 198 139.5 312t384.5 114q105 0 214 -19t223 -57v-197q-115 55 -217 82t-197 27q-165 0 -254.5 -64t-89.5 -182q0 -99 59.5 -149.5t225.5 -81.5l122 -25q226 -43 333.5 -151.5t107.5 -290.5q0 -217 -145.5 -329t-426.5 -112q-106 0 -225.5 24t-247.5 71v208 q123 -69 241 -104t232 -35q173 0 267 68t94 194q0 110 -67.5 172t-221.5 93l-123 24q-226 45 -327 141t-101 267z" />
<glyph unicode="&#x406;" horiz-adv-x="604" d="M201 0v1493h202v-1493h-202z" />
<glyph unicode="&#x407;" horiz-adv-x="604" d="M6 1667v203h203v-203h-203zM201 0v1493h202v-1493h-202zM397 1667v203h203v-203h-203z" />
<glyph unicode="&#x408;" horiz-adv-x="604" d="M-106 -240h63q134 0 189 75t55 269v1389h202v-1389q0 -270 -102.5 -392t-329.5 -122h-77v170z" />
<glyph unicode="&#x409;" horiz-adv-x="2240" d="M54 -29v167q212 46 279 214q117 293 117 858v283h888v-614h234q251 0 387 -109t136 -331q0 -221 -136 -330t-387 -109h-436v1323h-485v-213q0 -488 -132 -830q-98 -253 -465 -309zM1338 166h224q161 0 241 68q79 67 79 205q0 139 -79 207q-78 67 -241 67h-224v-547z" />
<glyph unicode="&#x40a;" horiz-adv-x="2140" d="M201 0v1493h202v-612h634v612h202v-614h234q251 0 387 -109t136 -331q0 -221 -136 -330t-387 -109h-436v711h-634v-711h-202zM1239 166h224q161 0 241 68q79 67 79 205q0 139 -79 207q-78 67 -241 67h-224v-547z" />
<glyph unicode="&#x40b;" horiz-adv-x="1610" d="M-6 1323v170h1163v-170h-530v-442h417q186 0 299 -119q109 -114 109 -352v-410h-201v394q0 159 -62 238t-186 79h-376v-711h-203v1323h-430z" />
<glyph unicode="&#x40c;" horiz-adv-x="1343" d="M201 0v1493h202v-631l670 631h260l-741 -696l794 -797h-266l-717 719v-719h-202zM609 1635l196 264h185l-228 -264h-153z" />
<glyph unicode="&#x40d;" horiz-adv-x="1532" d="M201 0v1493h196v-1249l662 1249h272v-1493h-196v1249l-662 -1249h-272zM497 1899h187l196 -264h-153z" />
<glyph unicode="&#x40e;" horiz-adv-x="1248" d="M35 1493h217l371 -876l373 876h217l-558 -1312q-22 -51 -53 -88q-103 -122 -330 -122h-77v170h63q140 0 189 75q14 22 22 40l45 106zM313 1901h118q13 -54 62.5 -82.5t132.5 -28.5q82 0 130.5 27.5t64.5 83.5h118q-10 -119 -90 -180.5t-223 -61.5q-144 0 -223.5 61 t-89.5 181z" />
<glyph unicode="&#x40f;" horiz-adv-x="1540" d="M201 0v1493h202v-1323h734v1323h202v-1493h-438v-426h-201v426h-499z" />
<glyph unicode="&#x410;" horiz-adv-x="1401" d="M16 0l570 1493h229l569 -1493h-210l-136 383h-673l-136 -383h-213zM426 551h549l-275 743z" />
<glyph unicode="&#x411;" horiz-adv-x="1405" d="M201 0v1493h846v-166h-644v-448h334q251 0 387 -109t136 -331q0 -221 -136 -330t-387 -109h-536zM403 166h324q163 0 241 68q79 67 79 205q0 139 -79 207q-78 67 -241 67h-324v-547z" />
<glyph unicode="&#x412;" horiz-adv-x="1405" d="M201 0v1493h516q231 0 356 -96t125 -273q0 -137 -64 -218t-188 -101q149 -32 231.5 -133.5t82.5 -253.5q0 -200 -136 -309t-387 -109h-536zM403 166h324q163 0 241.5 67.5t78.5 206.5q0 140 -78.5 206.5t-241.5 66.5h-324v-547zM403 877h299q148 0 220.5 55.5t72.5 169.5 q0 113 -72.5 169t-220.5 56h-299v-450z" />
<glyph unicode="&#x413;" horiz-adv-x="1141" d="M201 0v1493h929v-170h-727v-1323h-202z" />
<glyph unicode="&#x414;" horiz-adv-x="1590" d="M49 170h102q132 57 182 183q117 293 117 858v282h888v-1323h201v-596h-201v426h-1088v-426h-201v596zM456 170h680v1153h-485v-212q0 -495 -132 -830q-24 -61 -63 -111z" />
<glyph unicode="&#x415;" horiz-adv-x="1294" d="M201 0v1493h944v-170h-742v-442h711v-170h-711v-541h760v-170h-962z" />
<glyph unicode="&#x416;" horiz-adv-x="1768" d="M59 0l400 796l-350 697h217l308 -612h149v612h202v-612h149l308 612h217l-350 -697l400 -796h-217l-357 711h-150v-711h-202v711h-150l-357 -711h-217z" />
<glyph unicode="&#x417;" horiz-adv-x="1303" d="M156 45v195q84 -49 184 -74t209 -25q190 0 289.5 75t99.5 218q0 132 -92.5 206.5t-257.5 74.5h-174v166h182q149 0 228 59.5t79 171.5q0 115 -81.5 176.5t-233.5 61.5q-83 0 -178 -18t-209 -56v180q115 32 215.5 48t189.5 16q230 0 364 -104.5t134 -282.5 q0 -124 -71 -209.5t-202 -118.5q145 -31 226.5 -129t81.5 -242q0 -221 -152 -342t-432 -121q-94 0 -193.5 18.5t-205.5 55.5z" />
<glyph unicode="&#x418;" horiz-adv-x="1532" d="M201 0v1493h196v-1249l662 1249h272v-1493h-196v1249l-662 -1249h-272z" />
<glyph unicode="&#x419;" horiz-adv-x="1532" d="M201 0v1493h196v-1249l662 1249h272v-1493h-196v1249l-662 -1249h-272zM444 1901h118q13 -54 62.5 -82.5t132.5 -28.5q82 0 130.5 27.5t64.5 83.5h118q-10 -119 -90 -180.5t-223 -61.5q-144 0 -223.5 61t-89.5 181z" />
<glyph unicode="&#x41a;" horiz-adv-x="1343" d="M201 0v1493h202v-631l670 631h260l-741 -696l794 -797h-266l-717 719v-719h-202z" />
<glyph unicode="&#x41b;" horiz-adv-x="1540" d="M54 -28v167q212 46 279 214q117 293 117 858v282h888v-1493h-202v1323h-485v-212q0 -488 -132 -830q-98 -253 -465 -309z" />
<glyph unicode="&#x41c;" horiz-adv-x="1767" d="M201 0v1493h301l381 -1016l383 1016h301v-1493h-197v1311l-385 -1024h-203l-385 1024v-1311h-196z" />
<glyph unicode="&#x41d;" horiz-adv-x="1540" d="M201 0v1493h202v-612h734v612h202v-1493h-202v711h-734v-711h-202z" />
<glyph unicode="&#x41e;" horiz-adv-x="1612" d="M115 745q0 354 188.5 564.5t503.5 210.5q314 0 502 -210.5t188 -564.5q0 -353 -188 -563.5t-502 -210.5q-315 0 -503.5 210t-188.5 564zM328 745q0 -282 129.5 -446t349.5 -164t348.5 164t128.5 446q0 283 -128.5 447t-348.5 164t-349.5 -164t-129.5 -447z" />
<glyph unicode="&#x41f;" horiz-adv-x="1540" d="M201 0v1493h1138v-1493h-202v1323h-734v-1323h-202z" />
<glyph unicode="&#x420;" horiz-adv-x="1235" d="M201 0v1493h456q251 0 379.5 -113.5t128.5 -332.5q0 -221 -128.5 -334t-379.5 -113h-254v-600h-202zM403 766h254q141 0 218 73t77 208q0 134 -77 207t-218 73h-254v-561z" />
<glyph unicode="&#x421;" horiz-adv-x="1430" d="M115 745q0 360 195 567.5t534 207.5q134 0 252.5 -35.5t222.5 -106.5v-213q-102 95 -217.5 142t-245.5 47q-256 0 -392 -156.5t-136 -452.5q0 -295 136 -451.5t392 -156.5q130 0 245.5 47t217.5 142v-211q-106 -72 -224.5 -108t-250.5 -36q-339 0 -534 207.5t-195 566.5z " />
<glyph unicode="&#x422;" horiz-adv-x="1251" d="M-6 1323v170h1263v-170h-530v-1323h-203v1323h-530z" />
<glyph unicode="&#x423;" horiz-adv-x="1248" d="M35 1493h217l371 -876l373 876h217l-558 -1312q-22 -51 -53 -88q-103 -122 -330 -122h-77v170h63q140 0 189 75q14 22 22 40l45 106z" />
<glyph unicode="&#x424;" horiz-adv-x="1612" d="M115 745q0 271 189 432q157 135 402 157v159h202v-159q244 -23 401 -157q188 -161 188 -432q0 -270 -188 -431q-157 -134 -401 -157v-157h-202v158q-244 22 -402 156q-189 160 -189 431zM328 745q0 -197 130 -312q98 -87 248 -108v841q-150 -21 -248 -108 q-130 -115 -130 -313zM908 325q150 21 248 108q128 115 128 312q0 198 -128 313q-98 87 -248 108v-841z" />
<glyph unicode="&#x425;" horiz-adv-x="1403" d="M61 0l533 797l-465 696h217l371 -555l373 555h217l-480 -717l512 -776h-217l-420 635l-423 -635h-218z" />
<glyph unicode="&#x426;" horiz-adv-x="1590" d="M201 0v1493h202v-1323h734v1323h202v-1323h201v-596h-201v426h-1138z" />
<glyph unicode="&#x427;" horiz-adv-x="1404" d="M175 1182v311h201v-295q0 -159 62 -238t186 -79h376v612h203v-1493h-203v711h-417q-186 0 -299 119q-109 114 -109 352z" />
<glyph unicode="&#x428;" horiz-adv-x="2054" d="M201 0v1493h202v-1323h521v1245h202v-1245h521v1323h202v-1493h-1648z" />
<glyph unicode="&#x429;" horiz-adv-x="2100" d="M201 0v1493h202v-1323h521v1245h202v-1245h521v1323h202v-1323h201v-596h-201v426h-1648z" />
<glyph unicode="&#x42a;" horiz-adv-x="1705" d="M50 1323v170h653v-614h334q251 0 387 -109t136 -331q0 -221 -136 -330t-387 -109h-536v1323h-451zM703 166h324q161 0 241 68q79 67 79 205q0 139 -79 207q-78 67 -241 67h-324v-547z" />
<glyph unicode="&#x42b;" horiz-adv-x="1807" d="M201 0v1493h202v-614h334q251 0 387 -109t136 -331q0 -221 -136 -330t-387 -109h-536zM403 166h324q163 0 241 68q79 67 79 205q0 139 -79 207q-78 67 -241 67h-324v-547zM1404 0v1493h202v-1493h-202z" />
<glyph unicode="&#x42c;" horiz-adv-x="1405" d="M201 0v1493h202v-614h334q251 0 387 -109t136 -331q0 -221 -136 -330t-387 -109h-536zM403 166h324q163 0 241 68q79 67 79 205q0 139 -79 207q-78 67 -241 67h-324v-547z" />
<glyph unicode="&#x42d;" horiz-adv-x="1430" d="M111 115v211q102 -95 217 -142q116 -47 246 -47q256 0 392 157q129 147 136 417h-698v170h690q-25 198 -128 317q-136 156 -392 156q-130 0 -246 -47q-115 -47 -217 -142v213q104 71 223 106q118 36 252 36q339 0 534 -208q195 -207 195 -567q0 -359 -195 -567 q-195 -207 -534 -207q-132 0 -250 36q-119 36 -225 108z" />
<glyph unicode="&#x42e;" horiz-adv-x="2111" d="M211 0v1493h202v-612h208q30 261 181 429q189 210 504 210q314 0 502 -210q188 -211 188 -565q0 -353 -188 -563q-188 -211 -502 -211q-315 0 -504 210q-179 200 -188 530h-201v-711h-202zM827 745q0 -282 129 -446q130 -164 350 -164t348 164q129 164 129 446 q0 283 -129 447q-128 164 -348 164t-350 -164q-129 -164 -129 -447z" />
<glyph unicode="&#x42f;" horiz-adv-x="1423" d="M59 0l205 408q62 126 123.5 198t126.5 94q-125 36 -190.5 129t-65.5 234q0 216 126 323t382 107h456v-1493h-202v631h-220q-120 0 -189.5 -49t-143.5 -199l-191 -383h-217zM471 1063q0 -131 74.5 -198.5t220.5 -67.5h254v530h-254q-146 0 -220.5 -66.5t-74.5 -197.5z" />
<glyph unicode="&#x430;" horiz-adv-x="1255" d="M123 326q0 189 126.5 285t377.5 96h258v18q0 127 -83.5 196.5t-234.5 69.5q-96 0 -187 -23t-175 -69v170q101 39 196 58.5t185 19.5q243 0 363 -126t120 -382v-639h-184v170q-63 -102 -157 -150.5t-230 -48.5q-172 0 -273.5 96.5t-101.5 258.5zM307 338 q0 -98 64.5 -155.5t175.5 -57.5q153 0 245.5 108.5t92.5 288.5v41h-183q-223 0 -309 -51t-86 -174z" />
<glyph unicode="&#x431;" horiz-adv-x="1253" d="M113 559q0 204 137 369q53 64 128 100q-156 79 -156 220q0 272 441 272q221 0 341 -70v-153q-102 70 -341 70q-253 0 -253 -117q0 -92 264 -140q208 -37 325 -149q142 -135 142 -412q0 -265 -137 -421q-137 -157 -377 -157q-239 0 -377 157q-137 156 -137 431zM307 559 q0 -203 85 -317q86 -115 235 -115q147 0 233 116t86 306q0 199 -91 295q-97 103 -223 114q-64 6 -116 20q-68 -29 -123 -102q-86 -113 -86 -317z" />
<glyph unicode="&#x432;" horiz-adv-x="1200" d="M186 0v1120h438q197 0 303 -72t106 -205q0 -103 -54 -163q-54 -61 -160 -76q127 -24 197 -100t70 -190q0 -150 -116 -232q-115 -82 -329 -82h-455zM370 153h262q129 0 195 46q63 44 63 135q0 94 -63 135q-69 45 -195 45h-262v-361zM370 673h242q117 0 178 38 q58 36 58 111q0 72 -58 108q-61 37 -178 37h-242v-294z" />
<glyph unicode="&#x433;" horiz-adv-x="1006" d="M186 0v1120h790v-170h-606v-950h-184z" />
<glyph unicode="&#x434;" horiz-adv-x="1376" d="M50 153h106q91 40 131 125q98 211 98 630v212h757v-967h184v-579h-184v426h-908v-426h-184v579zM422 153h536v814h-389v-134q0 -403 -118 -626q-20 -17 -29 -54z" />
<glyph unicode="&#x435;" horiz-adv-x="1260" d="M113 549q0 275 148.5 436.5t400.5 161.5q226 0 357.5 -145.5t131.5 -395.5v-90h-846q12 -190 114.5 -289.5t285.5 -99.5q106 0 205.5 26t197.5 78v-174q-99 -42 -203 -64t-211 -22q-268 0 -424.5 156t-156.5 422zM311 659l656 1q-2 151 -84.5 241t-218.5 90 q-154 0 -246.5 -87t-106.5 -245z" />
<glyph unicode="&#x436;" horiz-adv-x="1502" d="M50 0l340 597l-297 523h196l258 -447h113v447h183v-447h113l258 447h196l-297 -523l340 -597h-197l-299 521h-114v-521h-183v521h-114l-299 -521h-197z" />
<glyph unicode="&#x437;" horiz-adv-x="1107" d="M133 27v171q71 -37 156 -56q85 -18 178 -18q151 0 236 56q84 56 84 146q0 88 -78 144q-72 51 -209 51h-148v152h155q116 0 183 44q68 45 68 115q0 64 -70 110q-69 46 -188 46q-71 0 -152 -13q-80 -13 -177 -42v167q98 24 183 36t161 12q196 0 309 -78q114 -79 114 -220 q0 -93 -60 -157q-60 -65 -172 -89q124 -24 193 -97t69 -181q0 -173 -129 -264t-367 -91q-80 0 -165 14q-84 14 -174 42z" />
<glyph unicode="&#x438;" horiz-adv-x="1345" d="M193 0v1120h183v-897l539 897h237v-1120h-183v899l-540 -899h-236z" />
<glyph unicode="&#x439;" horiz-adv-x="1345" d="M193 0v1120h183v-897l539 897h237v-1120h-183v899l-540 -899h-236zM359 1557h118q11 -75 59.5 -112.5t135.5 -37.5q86 0 134 37t61 113h118q-10 -143 -89 -215t-224 -72t-224 72t-89 215z" />
<glyph unicode="&#x43a;" horiz-adv-x="1237" d="M191 0v1120h185v-483l549 483h235l-594 -524l619 -596h-240l-569 547v-547h-185z" />
<glyph unicode="&#x43b;" horiz-adv-x="1309" d="M46 -29v153q179 27 238 154q98 207 98 630v212h757v-1120h-184v967h-389v-134q0 -366 -118 -626q-94 -207 -402 -236z" />
<glyph unicode="&#x43c;" horiz-adv-x="1545" d="M193 0v1120h262l318 -750l319 750h260v-1120h-178v944l-309 -729h-184l-310 729v-944h-178z" />
<glyph unicode="&#x43d;" horiz-adv-x="1353" d="M193 0v1120h184v-461h599v461h184v-1120h-184v516h-599v-516h-184z" />
<glyph unicode="&#x43e;" horiz-adv-x="1253" d="M100 559q0 276 136.5 432t377.5 156q240 0 377 -156t137 -432q0 -275 -137 -431.5t-377 -156.5q-241 0 -377.5 156.5t-136.5 431.5zM294 559q0 -201 85.5 -316.5t234.5 -115.5q147 0 233 116t86 316q0 199 -86 315.5t-233 116.5q-148 0 -234 -115.5t-86 -316.5z" />
<glyph unicode="&#x43f;" horiz-adv-x="1351" d="M193 0v1120h967v-1120h-184v966h-599v-966h-184z" />
<glyph unicode="&#x440;" horiz-adv-x="1300" d="M186 -426v1546h185v-170q58 100 146.5 148.5t211.5 48.5q204 0 331.5 -162t127.5 -426t-127.5 -426t-331.5 -162q-123 0 -211.5 48.5t-146.5 148.5v-594h-185zM371 559q0 -203 83.5 -318.5t229.5 -115.5t229.5 115.5t83.5 318.5t-83.5 318.5t-229.5 115.5t-229.5 -115.5 t-83.5 -318.5z" />
<glyph unicode="&#x441;" horiz-adv-x="1126" d="M113 559q0 274 150.5 431t412.5 157q85 0 166 -17.5t157 -52.5v-172q-78 43 -156.5 64.5t-158.5 21.5q-179 0 -278 -113.5t-99 -318.5t99 -318.5t278 -113.5q80 0 158.5 21.5t156.5 64.5v-170q-77 -36 -159.5 -54t-175.5 -18q-253 0 -402 159t-149 429z" />
<glyph unicode="&#x442;" horiz-adv-x="1083" d="M5 950v170h1073v-170h-446v-950h-181v950h-446z" />
<glyph unicode="&#x443;" horiz-adv-x="1212" d="M61 1120h195l350 -876l350 876h195l-492 -1224q-78 -200 -152 -261t-198 -61h-147v154h108q76 0 118 36t93 170l33 84z" />
<glyph unicode="&#x444;" horiz-adv-x="1877" d="M113 555q0 278 116 435t318 157q100 0 177 -43q76 -44 122 -127v516h185v-516q46 83 123 127q76 43 176 43q203 0 318 -157q116 -157 116 -435q0 -273 -116 -429q-116 -155 -318 -155q-102 0 -178 43q-77 44 -121 127v-567h-185v569q-45 -83 -122 -127q-76 -45 -177 -45 q-201 0 -317 155q-117 156 -117 429zM308 559q0 -214 68 -323q67 -109 200 -109t202 109q68 110 68 323t-68 323q-69 109 -202 109t-200 -109q-68 -109 -68 -323zM1031 559q0 -212 69 -322t203 -110q133 0 201 109q67 109 67 323t-67 323q-68 109 -201 109q-134 0 -203 -109 q-69 -110 -69 -323z" />
<glyph unicode="&#x445;" horiz-adv-x="1212" d="M59 0l435 586l-398 534h217l297 -399l297 399h217l-405 -545l426 -575h-217l-326 440l-326 -440h-217z" />
<glyph unicode="&#x446;" horiz-adv-x="1394" d="M193 0v1120h184v-967h599v967h184v-967h184v-579h-184v426h-967z" />
<glyph unicode="&#x447;" horiz-adv-x="1210" d="M150 886v234h184v-211q0 -117 52 -176q53 -59 157 -59h297v446h184v-1120h-184v521h-343q-153 0 -255 95q-92 86 -92 270z" />
<glyph unicode="&#x448;" horiz-adv-x="1787" d="M193 0v1120h184v-967h424v908h184v-908h425v967h184v-1120h-1401z" />
<glyph unicode="&#x449;" horiz-adv-x="1828" d="M193 0v1120h184v-967h424v908h184v-908h425v967h184v-967h184v-579h-184v426h-1401z" />
<glyph unicode="&#x44a;" horiz-adv-x="1440" d="M42 966v154h568v-453h271q208 0 329 -85q116 -82 116 -250t-116 -250q-115 -82 -329 -82h-455v966h-384zM610 153h263q129 0 195 46q62 43 62 133q0 94 -62 136q-67 46 -195 46h-263v-361z" />
<glyph unicode="&#x44b;" horiz-adv-x="1567" d="M193 0v1120h184v-453h271q208 0 329 -85q116 -82 116 -250t-116 -250q-115 -82 -329 -82h-455zM377 153h263q129 0 195 46q62 43 62 133q0 94 -62 136q-67 46 -195 46h-263v-361zM1201 0v1120h184v-1120h-184z" />
<glyph unicode="&#x44c;" horiz-adv-x="1207" d="M193 0v1120h184v-453h271q208 0 329 -85q116 -82 116 -250t-116 -250q-115 -82 -329 -82h-455zM377 153h263q129 0 195 46q62 43 62 133q0 94 -62 136q-67 46 -195 46h-263v-361z" />
<glyph unicode="&#x44d;" horiz-adv-x="1260" d="M152 57v174q98 -52 198 -78q99 -26 205 -26q183 0 285 99q95 92 113 261h-677v144h677q-18 169 -113 261q-102 99 -285 99q-106 0 -205 -26q-37 -10 -74 -23v163q39 12 79 20q104 22 211 22q268 0 424 -156q157 -156 157 -432t-157 -432q-156 -156 -424 -156 q-107 0 -211 22t-203 64z" />
<glyph unicode="&#x44e;" horiz-adv-x="1664" d="M193 0v1120h184v-447h153q19 190 131 318q137 156 377 156t377 -156t137 -432q0 -275 -137 -431q-137 -157 -377 -157q-241 0 -377 157q-127 145 -136 393h-148v-521h-184zM718 559q0 -201 85 -317q86 -115 235 -115q147 0 233 116t86 316q0 199 -86 315 q-86 117 -233 117q-148 0 -234 -115q-86 -116 -86 -317z" />
<glyph unicode="&#x44f;" horiz-adv-x="1232" d="M50 0l174 306q53 94 105 148q53 54 108 71q-106 27 -162 97t-56 175q0 162 107 243q108 80 325 80h388v-1120h-185v473h-169q-97 0 -156 -37q-59 -36 -122 -149l-162 -287h-195zM410 797q0 -83 64 -126q63 -43 182 -43h198v337h-198q-119 0 -182 -42q-64 -42 -64 -126z " />
<glyph unicode="&#x450;" horiz-adv-x="1260" d="M113 549q0 275 148.5 436.5t400.5 161.5q226 0 357.5 -145.5t131.5 -395.5v-90h-846q12 -190 114.5 -289.5t285.5 -99.5q106 0 205.5 26t197.5 78v-174q-99 -42 -203 -64t-211 -22q-268 0 -424.5 156t-156.5 422zM260 1643h197l282 -374h-153zM311 659l656 1 q-2 151 -84.5 241t-218.5 90q-154 0 -246.5 -87t-106.5 -245z" />
<glyph unicode="&#x451;" horiz-adv-x="1260" d="M113 549q0 275 148.5 436.5t400.5 161.5q226 0 357.5 -145.5t131.5 -395.5v-90h-846q12 -190 114.5 -289.5t285.5 -99.5q106 0 205.5 26t197.5 78v-174q-99 -42 -203 -64t-211 -22q-268 0 -424.5 156t-156.5 422zM311 659l656 1q-2 151 -84.5 241t-218.5 90 q-154 0 -246.5 -87t-106.5 -245zM365 1350v202h203v-202h-203zM756 1350v202h203v-202h-203z" />
<glyph unicode="&#x452;" horiz-adv-x="1319" d="M40 1284v125h153v147h185v-147h326v-125h-326v-425q66 101 155 151q90 50 207 50q185 0 292 -119q99 -110 99 -352v-609q0 -214 -82 -310q-81 -96 -262 -96h-70v156h49q110 0 143 48q38 55 38 202v603q0 159 -62 238t-186 79q-154 0 -235 -95q-86 -101 -86 -259v-546 h-185v1284h-153z" />
<glyph unicode="&#x453;" horiz-adv-x="1006" d="M186 0v1120h790v-170h-606v-950h-184zM505 1269l280 376h199l-326 -376h-153z" />
<glyph unicode="&#x454;" horiz-adv-x="1260" d="M113 559q0 276 157 432q156 156 424 156q107 0 211 -22q40 -8 79 -20v-163q-37 13 -74 23q-99 26 -205 26q-183 0 -285 -99q-95 -92 -113 -261h677v-144h-677q18 -169 113 -261q102 -99 285 -99q106 0 205 26q100 26 198 78v-174q-99 -42 -203 -64t-211 -22 q-268 0 -424 156q-157 156 -157 432z" />
<glyph unicode="&#x455;" horiz-adv-x="1067" d="M111 41v190q102 -53 201 -79.5t196 -26.5q130 0 200 44.5t70 125.5q0 75 -50.5 115t-221.5 77l-64 15q-171 36 -247 110.5t-76 204.5q0 158 112 244t318 86q102 0 192 -15t166 -45v-174q-78 40 -162 60t-174 20q-137 0 -205.5 -42t-68.5 -126q0 -64 49 -100.5t197 -69.5 l63 -14q196 -42 278.5 -118.5t82.5 -213.5q0 -156 -123.5 -247t-339.5 -91q-90 0 -187.5 17.5t-205.5 52.5z" />
<glyph unicode="&#x456;" horiz-adv-x="569" d="M193 0v1120h184v-1120h-184zM193 1323v233h184v-233h-184z" />
<glyph unicode="&#x457;" horiz-adv-x="569" d="M-11 1350v202h203v-202h-203zM193 0v1120h184v-1120h-184zM380 1350v202h203v-202h-203z" />
<glyph unicode="&#x458;" horiz-adv-x="569" d="M-37 -270h49q105 0 143 48.5t38 201.5v1140h184v-1140q0 -214 -81.5 -310t-262.5 -96h-70v156zM193 1323v233h184v-233h-184z" />
<glyph unicode="&#x459;" horiz-adv-x="1840" d="M46 -29v153q179 27 238 154q98 207 98 630v212h728v-453h171q208 0 329 -85q116 -82 116 -250t-116 -250q-115 -82 -329 -82h-355v967h-360v-134q0 -366 -118 -626q-94 -207 -402 -236zM1110 153h163q129 0 195 46q62 43 62 133q0 94 -62 136q-67 46 -195 46h-163v-361z " />
<glyph unicode="&#x45a;" horiz-adv-x="1826" d="M193 0v1120h184v-453h547v453h184v-453h171q208 0 329 -85q116 -82 116 -250t-116 -250q-115 -82 -329 -82h-355v514h-547v-514h-184zM1108 153h163q129 0 195 46q62 43 62 133q0 95 -62 137q-66 45 -195 45h-163v-361z" />
<glyph unicode="&#x45b;" horiz-adv-x="1305" d="M40 1284v125h153v147h185v-147h326v-125h-326v-425q66 101 155 151q90 50 207 50q189 0 292 -119q99 -115 99 -352v-589h-184v583q0 159 -62 238t-186 79q-152 0 -235 -95q-86 -98 -86 -259v-546h-185v1284h-153z" />
<glyph unicode="&#x45c;" horiz-adv-x="1237" d="M191 0v1120h185v-483l549 483h235l-594 -524l619 -596h-240l-569 547v-547h-185zM599 1269l280 376h199l-326 -376h-153z" />
<glyph unicode="&#x45d;" horiz-adv-x="1345" d="M193 0v1120h183v-897l539 897h237v-1120h-183v899l-540 -899h-236zM270 1643h197l282 -374h-153z" />
<glyph unicode="&#x45e;" horiz-adv-x="1212" d="M61 1120h195l350 -876l350 876h195l-492 -1224q-78 -200 -152 -261t-198 -61h-147v154h108q76 0 118 36t93 170l33 84zM293 1556h118q11 -75 59.5 -112.5t135.5 -37.5q86 0 134 37t61 113h118q-10 -143 -89 -215t-224 -72t-224 72t-89 215z" />
<glyph unicode="&#x45f;" horiz-adv-x="1356" d="M193 0v1120h184v-966h599v966h184v-1120h-393v-426h-184v426h-390z" />
<glyph unicode="&#x490;" horiz-adv-x="1141" d="M201 0v1493h728v306h201v-476h-727v-1323h-202z" />
<glyph unicode="&#x491;" horiz-adv-x="1006" d="M186 0v1120h606v314h184v-484h-606v-950h-184z" />
<glyph unicode="&#x492;" horiz-adv-x="1141" d="M71 830v170h130v493h929v-170h-727v-323h547v-170h-547v-830h-202v830h-130z" />
<glyph unicode="&#x493;" horiz-adv-x="1006" d="M56 500v170h130v450h790v-170h-606v-280h416v-170h-416v-500h-184v500h-130z" />
<glyph unicode="&#x49a;" horiz-adv-x="1343" d="M201 0v1493h202v-631l670 631h260l-741 -696l625 -627h169v-596h-197v426h-69l-717 719v-719h-202z" />
<glyph unicode="&#x49b;" horiz-adv-x="1237" d="M191 0v1120h185v-483l549 483h235l-594 -524l460 -443h159v-579h-184v426h-56l-569 547v-547h-185z" />
<glyph unicode="&#x4b2;" horiz-adv-x="1403" d="M61 0l533 797l-465 696h217l371 -555l373 555h217l-480 -717l400 -606h112v-596h-197v426h-20l-420 635l-423 -635h-218z" />
<glyph unicode="&#x4b3;" horiz-adv-x="1212" d="M59 0l435 586l-398 534h217l297 -399l297 399h217l-405 -545l313 -422h113v-579h-184v426h-33l-326 440l-326 -440h-217z" />
<glyph unicode="&#x10a0;" horiz-adv-x="1317" d="M140 659q0 206 71 313l181 -70q-57 -132 -57 -271q0 -225 95.5 -364t242.5 -139q117 0 213 126.5t96 330.5q0 288 -230.5 489t-230.5 527l207 -1q-30 -226 209.5 -442.5t239.5 -544.5q0 -293 -147 -467.5t-357 -174.5q-240 0 -386.5 187.5t-146.5 500.5z" />
<glyph unicode="&#x10a1;" horiz-adv-x="1348" d="M140 559q0 266 131 409.5t360 164.5q27 143 -93 213.5t-120 254.5h212q0 -84 94.5 -174t65.5 -296q149 -23 283.5 -164.5t134.5 -407.5q0 -275 -142 -431.5t-392 -156.5q-251 0 -392.5 156.5t-141.5 431.5zM334 559q0 -201 90.5 -316.5t249.5 -115.5q157 0 248 116 t91 316q0 189 -96 305.5t-223 116.5q-178 0 -269 -115.5t-91 -306.5z" />
<glyph unicode="&#x10a2;" horiz-adv-x="1436" d="M140 548q0 231 142 376t432 168q90 2 137 -10q46 93 46 204q0 59 -58.5 109.5t-166.5 50.5q-110 0 -164 -38t-56 -94q0 -36 21 -98l-176 -21q-20 75 -20 125q-1 126 112 204t283 78q166 0 280 -87.5t115 -232.5q0 -137 -74 -248q303 -182 302 -486q0 -251 -147.5 -413.5 t-421.5 -162.5q-279 0 -432.5 162.5t-153.5 413.5zM333 552q0 -245 113.5 -336t277.5 -91q161 0 269 86t108 337q-1 153 -87.5 269t-299.5 119q-213 -6 -297 -111t-84 -273z" />
<glyph unicode="&#x10a3;" horiz-adv-x="2005" d="M140 956q0 334 127 482.5t317 148.5q231 0 356 -194q131 209 413 209q239 0 375.5 -151t136.5 -425q0 -260 -136.5 -419t-375.5 -159q-245 0 -382 159t-137 419q0 105 37 211q-119 194 -287 194q-97 0 -171.5 -109t-74.5 -366q0 -434 267.5 -618.5t621.5 -184.5h167v-183 h-154q-511 0 -805.5 277t-294.5 709zM1029 1026q0 -185 86 -304.5t238 -119.5q147 0 230 119t83 305q0 199 -83.5 309.5t-229.5 110.5q-162 0 -243 -116.5t-81 -303.5z" />
<glyph unicode="&#x10a4;" horiz-adv-x="1288" d="M140 503q0 93 83 247l171 -70q-60 -84 -60 -175q0 -179 96 -278.5t220 -99.5q144 0 227.5 95.5t83.5 246.5v678q0 147 -81 221.5t-215 74.5q-116 0 -183 -65t-67 -163q-4 -86 38 -161l-185 -54q-46 117 -51 215q2 138 111 261t340 123q230 0 355 -125t125 -332v-673 q0 -223 -132 -359t-366 -136q-237 0 -373.5 143.5t-136.5 385.5z" />
<glyph unicode="&#x10a5;" horiz-adv-x="1330" d="M140 439q0 154 63 273l173 -59q-36 -74 -36 -210q0 -155 100 -237.5t227 -82.5q116 0 209 72.5t93 224.5v94q0 226 -221 267h-123v166h123q188 -1 208 265q-1 101 -77 166t-218 65q-152 0 -218.5 -65t-66.5 -149q0 -75 27 -150l-183 -58q-45 114 -45 189q1 142 135 265.5 t351 123.5q215 0 355 -119.5t141 -269.5q-1 -241 -242 -374q255 -96 255 -313v-94q-1 -232 -150.5 -344.5t-356.5 -112.5q-242 0 -382.5 124t-140.5 343z" />
<glyph unicode="&#x10a6;" horiz-adv-x="1326" d="M60 1231q0 166 121 267.5t283 101.5q158 0 264.5 -80.5t149.5 -206.5q19 -124 -8 -220q112 -48 214 -158t102 -386q0 -265 -142 -421.5t-382 -156.5q-241 0 -383 156.5t-142 421.5q0 210 91 340q-84 65 -126 145t-42 197zM240 1228q0 -138 96 -221q107 139 352 120 q19 39 19 83q0 117 -74 179.5t-167 62.5q-100 0 -163 -58t-63 -166zM331 549q0 -191 91 -306.5t240 -115.5q147 0 238 116t91 306q0 199 -96 310.5t-243 111.5q-138 0 -229.5 -110.5t-91.5 -311.5z" />
<glyph unicode="&#x10a7;" horiz-adv-x="2121" d="M140 785q0 383 126.5 599t407.5 216q280 0 419 -321q142 323 384 323q280 0 392 -197t112 -550q0 -575 -326 -863h-256q387 279 387 848q0 288 -61 461t-248 173q-153 0 -309 -360q39 -186 39 -329q0 -380 -126.5 -597t-406.5 -217q-281 0 -407.5 217t-126.5 597z M336 785q0 -305 75.5 -481t262.5 -176t263 176.5t76 480.5t-76 481.5t-263 177.5q-186 0 -262 -176t-76 -483z" />
<glyph unicode="&#x10a8;" horiz-adv-x="1309" d="M140 851q0 329 136.5 539t377.5 210q239 0 377 -210t138 -539q0 -452 -199 -860h-222q222 498 222 897q0 231 -85.5 393t-232.5 162q-149 0 -232.5 -160.5t-83.5 -394.5q0 -399 226 -897h-222q-200 408 -200 860z" />
<glyph unicode="&#x10a9;" horiz-adv-x="1290" d="M120 429q0 174 60 298l178 -61q-38 -63 -38 -228q0 -116 90 -215t217 -99q138 0 230 84.5t92 206.5v127q0 172 -71 243t-208 71h-123v176h123q128 0 189 67t67 166q0 153 -265 329h311q135 -156 147 -325q0 -227 -212 -343q243 -123 243 -375v-139q0 -149 -136 -294.5 t-390 -145.5q-240 0 -372 148t-132 309z" />
<glyph unicode="&#x10aa;" horiz-adv-x="2566" d="M140 965q0 325 137 471t317 146q231 0 357 -248q67 268 332 268q236 0 332 -268q126 248 357 248q180 0 317 -136t137 -431q0 -255 -213 -524h-263q281 284 281 524q0 218 -86 314.5t-173 96.5q-128 0 -193 -88.5t-68 -250.5v-332h-193v332q-3 162 -67.5 260.5 t-167.5 98.5q-122 0 -178 -101.5t-56 -270.5v-327l-195 1v326q0 171 -76 261.5t-184 90.5q-87 0 -170.5 -98.5t-83.5 -356.5q0 -381 273.5 -597.5t890.5 -216.5h334v-183h-382q-617 0 -966.5 263.5t-349.5 727.5z" />
<glyph unicode="&#x10ab;" horiz-adv-x="1370" d="M140 569q0 266 141.5 422t392.5 156q196 0 346 -156v201q0 130 -86 196.5t-204 66.5q-160 0 -237.5 -44.5t-77.5 -106.5h-207q0 161 138.5 228.5t340.5 68.5q263 -1 393 -117.5t130 -291.5v-623q0 -305 -133 -451.5t-383 -146.5q-271 0 -412.5 156.5t-141.5 441.5z M340 575q0 -214 87.5 -331t266.5 -117q157 0 241.5 106t84.5 336q0 229 -94.5 325.5t-251.5 96.5q-158 0 -246 -108.5t-88 -307.5z" />
<glyph unicode="&#x10ac;" horiz-adv-x="1370" d="M160 532v750q0 309 341 309h610v-170h-610q-151 0 -151 -143l-3 -308q157 177 347 177q251 0 393.5 -156t142.5 -422q0 -285 -142.5 -441.5t-403.5 -156.5q-250 0 -387 146.5t-137 414.5zM350 532q0 -193 88.5 -299t245.5 -106q169 0 257 113t88 326q0 205 -88.5 315 t-246.5 110q-157 0 -250.5 -114t-93.5 -345z" />
<glyph unicode="&#x10ad;" horiz-adv-x="2002" d="M140 821q0 496 131.5 637t332.5 141q260 0 396 -289q137 289 398 289q200 0 332 -141t132 -637q0 -517 -364 -840h-280q449 358 449 840q0 419 -81 520.5t-188 101.5q-128 0 -215 -113.5t-90 -255.5l-1 -455h-184v452q0 139 -88.5 255.5t-215.5 116.5q-108 0 -189 -100.5 t-81 -521.5q0 -493 449 -840h-280q-363 323 -363 840z" />
<glyph unicode="&#x10ae;" horiz-adv-x="1290" d="M120 419q0 114 47 241l182 -52q-31 -87 -31 -188q2 -104 74.5 -198.5t251.5 -94.5q157 0 231 95.5t74 210.5q0 121 -84 224.5t-179 103.5h-175v156h175q99 0 148 49.5t49 148.5q0 115 -206.5 192.5t-206.5 283.5h221q-1 -117 192.5 -209t193.5 -253q0 -115 -46.5 -179.5 t-147.5 -114.5q127 -68 197 -167.5t70 -234.5q0 -175 -128 -318.5t-378 -143.5q-271 0 -397.5 136.5t-126.5 311.5z" />
<glyph unicode="&#x10af;" horiz-adv-x="1310" d="M120 402q0 69 43 178l186 -53q-31 -47 -31 -129q2 -128 96 -200t244 -72q105 0 202.5 75t97.5 266v980q-245 14 -450 -18q208 -85 208 -260q0 -353 -529 -352v174q343 0 344 168q1 265 -352 230v156q509 3 970 49v-1127q1 -267 -147.5 -380t-343.5 -113 q-251 0 -394.5 113t-143.5 315z" />
<glyph unicode="&#x10b0;" horiz-adv-x="2002" d="M140 589q0 157 60 326q119 299 353 492t717 193v-156q-238 0 -460 -81t-365 -271q107 55 179 55q240 0 376 -289q137 289 378 289q220 0 352 -156t132 -402q0 -365 -354 -598h-281q440 298 440 598q0 169 -81 285.5t-208 116.5q-108 0 -195 -103.5t-90 -275.5l-1 -241 l-184 -2v230q0 179 -88.5 285.5t-195.5 106.5q-148 0 -218.5 -114.5t-71.5 -281.5q0 -317 439 -604h-289q-344 233 -344 598z" />
<glyph unicode="&#x10b1;" horiz-adv-x="1308" d="M160 559v1022h184v-1022q0 -191 85.5 -311.5t224.5 -120.5q147 0 233 96t86 266q2 199 -149.5 335t-153.5 240q-6 100 5 181h190q-15 -76 -18 -145q17 -61 167 -213.5t154 -397.5q0 -245 -137 -381.5t-377 -136.5q-231 0 -362.5 161.5t-131.5 426.5z" />
<glyph unicode="&#x10b2;" horiz-adv-x="1662" d="M140 751q0 354 175 549.5t440 220.5l-23 77h186l-17 -76q269 -23 445 -220t176 -551q0 -358 -188 -569.5t-502 -211.5q-315 0 -503.5 211t-188.5 570zM340 754q0 -286 136 -458t356 -172t353.5 170t133.5 457q0 283 -121.5 441.5t-296.5 183.5l30 -651h-206l30 650 q-170 -27 -293 -181.5t-122 -439.5z" />
<glyph unicode="&#x10b3;" horiz-adv-x="1310" d="M120 462q0 119 83 248l184 -68q-67 -84 -67 -180q0 -162 107 -249.5t220 -87.5q107 0 209.5 87.5t102.5 314.5v695q0 221 -184 221q-147 0 -147 -240l1 -212l-170 -1v213q0 240 -339 240v156q322 0 380 -215q73 215 275 215q375 0 375 -377v-695q0 -294 -154 -424 t-355 -130q-221 0 -371 131.5t-150 357.5z" />
<glyph unicode="&#x10b4;" horiz-adv-x="1932" d="M140 1016q0 284 136.5 435t363.5 151q253 0 391 -185q107 170 317 170q220 0 331.5 -122t111.5 -279q1 -240 -213 -381q194 -100 193 -318q-6 -259 -184.5 -387t-488.5 -128q-386 0 -650 257l122 125q200 -205 528 -205q179 0 325 73t153 250q1 240 -207 261v162 q228 0 227 284q2 123 -59.5 187.5t-188.5 64.5q-147 0 -227 -151q48 -149 48 -264q0 -240 -137 -399t-392 -159q-227 0 -363.5 159t-136.5 399zM340 1014q0 -163 83 -282.5t217 -119.5q157 0 243 119.5t86 284.5q0 213 -78.5 321.5t-250.5 108.5q-134 0 -217 -110t-83 -322z " />
<glyph unicode="&#x10b5;" horiz-adv-x="1330" d="M140 397q0 102 89 255l182 -63q-71 -79 -71 -189q0 -105 93.5 -191.5t219.5 -86.5q141 0 233.5 86.5t93.5 293.5v499q1 105 -103.5 212.5t-287.5 107.5q-92 0 -129.5 -45t-37.5 -163q2 -74 43 -161l-183 -46q-58 133 -58 209q0 165 92 263.5t240 98.5q222 0 424 -172v286 h189v-1089q1 -307 -170 -420t-346 -113q-201 0 -357 113t-156 315z" />
<glyph unicode="&#x10b6;" horiz-adv-x="1962" d="M140 921q0 366 137 522t337 156q251 0 367 -265q127 265 367 265q221 0 347.5 -146t126.5 -422q0 -265 -191 -519h-243q240 278 240 519q0 201 -76 306.5t-204 105.5q-97 0 -183 -116.5t-86 -235.5l-1 -267h-194v267q0 121 -71 236.5t-199 115.5q-107 0 -193 -116.5 t-86 -405.5q0 -348 263 -562t830 -213v-176q-687 0 -987.5 278t-300.5 673z" />
<glyph unicode="&#x10b7;" horiz-adv-x="1331" d="M140 366h205q0 -87 97.5 -165.5t224.5 -78.5q107 0 210 80t103 363v168q-140 -141 -340 -141q-222 0 -361 153.5t-139 388.5q0 242 230 458h277q-308 -239 -307 -483q0 -122 82.5 -239.5t231.5 -117.5q154 0 240 106.5t86 325.5v396h191l-1 -1015q0 -283 -147 -439.5 t-365 -156.5q-254 0 -386 141t-132 256z" />
<glyph unicode="&#x10b8;" horiz-adv-x="1313" d="M50 1288v92q0 220 244 220q191 0 289 -164q89 164 243 164q327 0 327 -303v-759q-2 -274 -124 -420.5t-382 -146.5q-251 0 -387.5 156.5t-136.5 440.5q0 246 138.5 402.5t375.5 156.5q186 0 325 -156v418q0 76 -148 96q-122 -20 -122 -108l10 -142l-227 1l10 141 q0 88 -113 108q-118 -20 -118 -91v-106h-204zM323 576q0 -227 82.5 -338t241.5 -111q167 0 241 106.5t73 298.5q1 228 -88 333.5t-236 105.5q-148 0 -231 -109t-83 -286z" />
<glyph unicode="&#x10b9;" horiz-adv-x="1330" d="M160 1v1196q0 193 108 298t269 105q207 0 326 -105t118 -245h-193q0 108 -67 153.5t-181 45.5q-97 0 -144.5 -64.5t-45.5 -180.5v-232q137 155 340 155q164 0 332 -114t168 -403q0 -356 -222 -619h-225q247 339 247 605q0 192 -94.5 283.5t-241.5 91.5q-138 0 -222 -110 t-83 -262h-1v-598h-188z" />
<glyph unicode="&#x10ba;" horiz-adv-x="1508" d="M140 832q0 359 185 760h215q-200 -347 -200 -735q0 -327 124 -529.5t334 -202.5q171 0 271.5 105.5t100.5 309.5q0 231 -211 245h-154v157h146q49 3 104 42.5t55 160.5q0 100 -148 160.5t-149 286.5h171q1 -106 162.5 -193t161.5 -228q0 -71 -25 -148.5t-167 -149.5 q252 -94 251 -343q0 -286 -173.5 -422t-383.5 -136q-301 0 -485.5 224t-184.5 636z" />
<glyph unicode="&#x10bb;" horiz-adv-x="1328" d="M140 559q0 276 137 432t377 156q194 0 340 -181l-1 615h175v-1022q0 -275 -136.5 -431.5t-377.5 -156.5q-240 0 -377 156.5t-137 431.5zM335 559q0 -200 86 -316t233 -116q149 0 239.5 115.5t90.5 316.5q-2 207 -92 319.5t-238 112.5q-147 0 -233 -116.5t-86 -315.5z" />
<glyph unicode="&#x10bc;" horiz-adv-x="1313" d="M160 538v769q0 293 317 293q164 0 253 -164q98 164 289 164q244 0 244 -220v-92h-204v106q0 71 -118 91q-113 -20 -113 -108l10 -141l-227 -1l10 142q0 88 -132 108q-138 -20 -138 -99v-415q139 156 325 156q237 0 375.5 -156.5t138.5 -402.5q0 -284 -136.5 -440.5 t-387.5 -156.5q-260 0 -382 146.5t-124 420.5zM352 532q-1 -192 73 -298.5t241 -106.5q159 0 241.5 111t82.5 338q0 177 -83 286t-231 109q-147 0 -236 -105.5t-88 -333.5z" />
<glyph unicode="&#x10bd;" horiz-adv-x="1310" d="M140 430q4 138 51 220l187 -56q-39 -79 -39 -164q0 -151 93.5 -228t245.5 -77q122 0 206.5 78.5t84.5 250.5q0 170 -144 264.5t-144 157.5h-164q-161 -1 -253 76.5t-91 187.5q0 162 91.5 234.5t250.5 72.5h133v144h169v-144h296v-157h-296v-210q0 -144 176.5 -288 t176.5 -341q0 -225 -138.5 -352t-353.5 -128q-238 1 -388 128t-150 331zM339 1147q0 -76 52.5 -102.5t138.5 -26.5h119v273h-120q-93 0 -141.5 -22.5t-48.5 -121.5z" />
<glyph unicode="&#x10be;" horiz-adv-x="1328" d="M160 559v1022h175l-1 -615q146 181 340 181q240 0 377 -156t137 -432q0 -275 -137 -431.5t-377 -156.5q-241 0 -377.5 156.5t-136.5 431.5zM344 559q0 -201 90.5 -316.5t239.5 -115.5q147 0 233 116t86 316q0 199 -86 315.5t-233 116.5q-148 0 -239 -107.5t-91 -324.5z " />
<glyph unicode="&#x10bf;" horiz-adv-x="1308" d="M140 424q0 109 53 254l177 -71q-36 -97 -36 -200q0 -102 92.5 -192t229.5 -90q134 0 225 80.5t91 231.5q1 121 -85.5 204.5t-186.5 109t-202 25.5l61 387l-318 40v173l341 -70l35 283h183l-56 -307l303 -39v-173l-330 69l-36 -219q215 -31 351 -172t136 -319 q0 -199 -141 -328.5t-371 -129.5q-226 0 -371 133t-145 320z" />
<glyph unicode="&#x10c0;" horiz-adv-x="1289" d="M120 384v133h200v-101q0 -170 107 -229.5t237 -59.5q127 0 205.5 58t78.5 199q0 193 -110 193h-296v150h286q112 0 110 122q2 115 -110 115h-296v152h294q102 0 102 112q0 105 -205 115q-378 32 -379 258h186q0 -95 351 -126q248 -20 248 -231q0 -140 -144 -197 q154 -64 154 -201q0 -126 -148 -194q158 -105 158 -279q0 -187 -127 -294.5t-372 -107.5q-243 0 -386.5 109t-143.5 304z" />
<glyph unicode="&#x10d0;" horiz-adv-x="1317" d="M140 659q0 206 71 313l181 -70q-57 -132 -57 -271q0 -225 95.5 -364t242.5 -139q117 0 213 126.5t96 330.5q0 288 -230.5 489t-230.5 527l207 -1q-30 -226 209.5 -442.5t239.5 -544.5q0 -293 -147 -467.5t-357 -174.5q-240 0 -386.5 187.5t-146.5 500.5z" />
<glyph unicode="&#x10d1;" horiz-adv-x="1348" d="M140 559q0 266 131 409.5t360 164.5q27 143 -93 213.5t-120 254.5h212q0 -84 94.5 -174t65.5 -296q149 -23 283.5 -164.5t134.5 -407.5q0 -275 -142 -431.5t-392 -156.5q-251 0 -392.5 156.5t-141.5 431.5zM334 559q0 -201 90.5 -316.5t249.5 -115.5q157 0 248 116 t91 316q0 189 -96 305.5t-223 116.5q-178 0 -269 -115.5t-91 -306.5z" />
<glyph unicode="&#x10d2;" horiz-adv-x="1436" d="M140 548q0 231 142 376t432 168q90 2 137 -10q46 93 46 204q0 59 -58.5 109.5t-166.5 50.5q-110 0 -164 -38t-56 -94q0 -36 21 -98l-176 -21q-20 75 -20 125q-1 126 112 204t283 78q166 0 280 -87.5t115 -232.5q0 -137 -74 -248q303 -182 302 -486q0 -251 -147.5 -413.5 t-421.5 -162.5q-279 0 -432.5 162.5t-153.5 413.5zM333 552q0 -245 113.5 -336t277.5 -91q161 0 269 86t108 337q-1 153 -87.5 269t-299.5 119q-213 -6 -297 -111t-84 -273z" />
<glyph unicode="&#x10d3;" horiz-adv-x="2005" d="M140 956q0 334 127 482.5t317 148.5q231 0 356 -194q131 209 413 209q239 0 375.5 -151t136.5 -425q0 -260 -136.5 -419t-375.5 -159q-245 0 -382 159t-137 419q0 105 37 211q-119 194 -287 194q-97 0 -171.5 -109t-74.5 -366q0 -434 267.5 -618.5t621.5 -184.5h167v-183 h-154q-511 0 -805.5 277t-294.5 709zM1029 1026q0 -185 86 -304.5t238 -119.5q147 0 230 119t83 305q0 199 -83.5 309.5t-229.5 110.5q-162 0 -243 -116.5t-81 -303.5z" />
<glyph unicode="&#x10d4;" horiz-adv-x="1288" d="M140 503q0 93 83 247l171 -70q-60 -84 -60 -175q0 -179 96 -278.5t220 -99.5q144 0 227.5 95.5t83.5 246.5v678q0 147 -81 221.5t-215 74.5q-116 0 -183 -65t-67 -163q-4 -86 38 -161l-185 -54q-46 117 -51 215q2 138 111 261t340 123q230 0 355 -125t125 -332v-673 q0 -223 -132 -359t-366 -136q-237 0 -373.5 143.5t-136.5 385.5z" />
<glyph unicode="&#x10d5;" horiz-adv-x="1330" d="M140 439q0 154 63 273l173 -59q-36 -74 -36 -210q0 -155 100 -237.5t227 -82.5q116 0 209 72.5t93 224.5v94q0 226 -221 267h-123v166h123q188 -1 208 265q-1 101 -77 166t-218 65q-152 0 -218.5 -65t-66.5 -149q0 -75 27 -150l-183 -58q-45 114 -45 189q1 142 135 265.5 t351 123.5q215 0 355 -119.5t141 -269.5q-1 -241 -242 -374q255 -96 255 -313v-94q-1 -232 -150.5 -344.5t-356.5 -112.5q-242 0 -382.5 124t-140.5 343z" />
<glyph unicode="&#x10d6;" horiz-adv-x="1326" d="M60 1231q0 166 121 267.5t283 101.5q158 0 264.5 -80.5t149.5 -206.5q19 -124 -8 -220q112 -48 214 -158t102 -386q0 -265 -142 -421.5t-382 -156.5q-241 0 -383 156.5t-142 421.5q0 210 91 340q-84 65 -126 145t-42 197zM240 1228q0 -138 96 -221q107 139 352 120 q19 39 19 83q0 117 -74 179.5t-167 62.5q-100 0 -163 -58t-63 -166zM331 549q0 -191 91 -306.5t240 -115.5q147 0 238 116t91 306q0 199 -96 310.5t-243 111.5q-138 0 -229.5 -110.5t-91.5 -311.5z" />
<glyph unicode="&#x10d7;" horiz-adv-x="2121" d="M140 785q0 383 126.5 599t407.5 216q280 0 419 -321q142 323 384 323q280 0 392 -197t112 -550q0 -575 -326 -863h-256q387 279 387 848q0 288 -61 461t-248 173q-153 0 -309 -360q39 -186 39 -329q0 -380 -126.5 -597t-406.5 -217q-281 0 -407.5 217t-126.5 597z M336 785q0 -305 75.5 -481t262.5 -176t263 176.5t76 480.5t-76 481.5t-263 177.5q-186 0 -262 -176t-76 -483z" />
<glyph unicode="&#x10d8;" horiz-adv-x="1309" d="M140 851q0 329 136.5 539t377.5 210q239 0 377 -210t138 -539q0 -452 -199 -860h-222q222 498 222 897q0 231 -85.5 393t-232.5 162q-149 0 -232.5 -160.5t-83.5 -394.5q0 -399 226 -897h-222q-200 408 -200 860z" />
<glyph unicode="&#x10d9;" horiz-adv-x="1290" d="M120 429q0 174 60 298l178 -61q-38 -63 -38 -228q0 -116 90 -215t217 -99q138 0 230 84.5t92 206.5v127q0 172 -71 243t-208 71h-123v176h123q128 0 189 67t67 166q0 153 -265 329h311q135 -156 147 -325q0 -227 -212 -343q243 -123 243 -375v-139q0 -149 -136 -294.5 t-390 -145.5q-240 0 -372 148t-132 309z" />
</font>
</defs>
</svg>
