<?xml version="1.0" standalone="no"?>
<!DOCTYPE svg PUBLIC "-//W3C//DTD SVG 1.1//EN" "http://www.w3.org/Graphics/SVG/1.1/DTD/svg11.dtd" >
<svg xmlns="http://www.w3.org/2000/svg" xmlns:xlink="http://www.w3.org/1999/xlink" version="1.1">
<metadata></metadata>
<defs>
<font id="alk_rexbold" horiz-adv-x="1042" >
<font-face units-per-em="2048" ascent="1536" descent="-512" />
<missing-glyph horiz-adv-x="372" />
<glyph unicode=" "  horiz-adv-x="372" />
<glyph unicode="&#x09;" horiz-adv-x="372" />
<glyph unicode="&#xa0;" horiz-adv-x="372" />
<glyph unicode="!" horiz-adv-x="473" d="M129 -8v184h207v-184h-207zM141 317v1225h189v-1225h-189z" />
<glyph unicode="&#x26;" horiz-adv-x="1007" d="M100 229v410l166 152l-125 135v374l213 232h283l209 -232v-167h-189v90l-98 118h-127l-102 -118v-224l108 -129h498v-188h-92v-682h-514zM289 307l119 -119h247v494h-235l-131 -129v-246z" />
<glyph unicode="," horiz-adv-x="309" d="M8 -195l53 211v183h191v-207l-94 -236z" />
<glyph unicode="." horiz-adv-x="296" d="M51 0v190h185v-190h-185z" />
<glyph unicode="0" horiz-adv-x="1052" d="M143 240v1067l236 235h297l233 -235v-1067l-231 -248h-301zM330 530l356 740l-88 86h-141l-127 -125v-701zM369 270l88 -94h139l129 137v697z" />
<glyph unicode="1" horiz-adv-x="729" d="M39 0v172h231v1176h-215v186h402v-1362h231v-172h-649z" />
<glyph unicode="2" horiz-adv-x="950" d="M113 0v387l516 598v254l-105 117h-110l-107 -117v-162h-186v232l207 233h280l209 -233v-394l-520 -596v-145h344v162h188v-336h-716z" />
<glyph unicode="3" horiz-adv-x="968" d="M98 236v278h187v-205l114 -123h129l117 123v277l-117 131h-155l-60 114l314 383v148h-326v-162h-186v336h698v-387l-201 -246l219 -248v-419l-221 -236h-291z" />
<glyph unicode="4" horiz-adv-x="974" d="M100 391v275l332 870h350v-958h121v-187h-121v-391h-190v391h-492zM289 578h303v780h-29l-274 -725v-55z" />
<glyph unicode="5" horiz-adv-x="940" d="M106 231v275h187v-203l108 -121h121l109 121v363l-111 133h-399l37 735h608v-186h-432l-19 -365h289l211 -248v-504l-211 -235h-285z" />
<glyph unicode="6" horiz-adv-x="1015" d="M145 229v1090l226 223h291l210 -221v-203h-186v127l-104 111h-136l-114 -115v-342h330l223 -237v-433l-223 -235h-293zM332 303l114 -123h136l118 123v287l-118 123h-250v-410z" />
<glyph unicode="7" horiz-adv-x="837" d="M55 1196v340h686v-276l-413 -1262h-197l424 1290v68h-313v-160h-187z" />
<glyph unicode="8" horiz-adv-x="1021" d="M123 229v394l227 184l-213 172v334l219 233h287l221 -233v-326l-219 -180l234 -186v-390l-228 -239h-301zM311 305l119 -127h143l121 125v248l-194 154l-189 -154v-246zM324 1055l174 -142l180 150v176l-113 121h-129l-112 -121v-184z" />
<glyph unicode="9" horiz-adv-x="976" d="M104 870v435l226 231h286l224 -231v-1088l-224 -221h-286l-211 219v203h186v-131l103 -107h133l114 113v346h-325zM291 944l117 -123h247v410l-116 123h-131l-117 -123v-287z" />
<glyph unicode="?" horiz-adv-x="882" d="M70 1061v244l204 233h312l207 -233v-387l-269 -326v-275h-188v342l268 326v248l-104 119h-140l-104 -119v-172h-186zM328 -6v184h207v-184h-207z" />
<glyph unicode="A" horiz-adv-x="942" d="M63 0l189 1286l78 47v15h-160v186h481l228 -1534h-189l-59 399h-320l-59 -399h-189zM338 586h266l-115 762h-38z" />
<glyph unicode="B" horiz-adv-x="1021" d="M55 1341v191h559l230 -232v-374l-113 -135l154 -152v-410l-230 -229h-491v1280l78 47v14h-187zM352 188h226l118 119v246l-131 129h-213v-494zM352 870h195l108 129v224l-118 118h-185v-471z" />
<glyph unicode="C" horiz-adv-x="1007" d="M143 238v1077l224 233h290l224 -233v-232h-187v158l-116 121h-134l-114 -121v-934l116 -131h129l119 131v170l187 2v-241l-224 -248h-292z" />
<glyph unicode="D" horiz-adv-x="1021" d="M51 1343v187h600l230 -230v-1069l-230 -231h-489v1282l78 47v14h-189zM348 186h225l121 121v918l-121 118h-225v-1157z" />
<glyph unicode="E" horiz-adv-x="933" d="M53 1348v186h738v-363h-187v177h-256v-496h346v-186h-346v-480h275v158h186v-344h-647v1286l78 47v15h-187z" />
<glyph unicode="F" horiz-adv-x="874" d="M53 1343v185h735v-361h-182v176h-258v-528h344v-186h-344v-629h-186v1282l78 47v14h-187z" />
<glyph unicode="G" horiz-adv-x="1054" d="M145 240v1063l228 227h311l227 -227v-279h-186v203l-123 125h-147l-123 -125v-914l125 -135h143l125 135v336h-197v185h383v-594l-225 -240h-315z" />
<glyph unicode="H" horiz-adv-x="1026" d="M55 1343v187h295v-676h346v676h187v-1530h-187v676h-346v-676h-186v1284l76 45v14h-185z" />
<glyph unicode="I" horiz-adv-x="630" d="M57 0v170h166v1135l78 47v14h-227v170h479v-170h-143v-1196h165v-170h-518z" />
<glyph unicode="J" horiz-adv-x="933" d="M72 236v329h186v-260l113 -133h118l113 133v995l78 48v14h-463v170h574v-1296l-203 -236h-314z" />
<glyph unicode="K" horiz-adv-x="1005" d="M51 1343v187h297v-617h98l293 617h205l-336 -711l383 -819h-205l-340 727h-98v-727h-186v1282l78 47v14h-189z" />
<glyph unicode="L" horiz-adv-x="923" d="M51 1348v186h297v-1356h326v164h186v-342h-698v1286l78 47v15h-189z" />
<glyph unicode="M" horiz-adv-x="1331" d="M51 1352v182h481l89 -600l53 -543h6l51 535l88 608h371v-1532h-182v1350h-27l-184 -1211h-236l-190 1211h-27v-1350h-182v1290l74 45v15h-185z" />
<glyph unicode="N" horiz-adv-x="1048" d="M53 1346v184h363l174 -549l168 -641h6l-41 651v539h182v-1530h-198l-240 754l-139 501h-6l24 -518v-737h-182v1284l78 47v15h-189z" />
<glyph unicode="O" d="M143 240v1083l232 231h293l231 -231v-1083l-231 -246h-295zM328 311l125 -133h135l125 133v936l-123 123h-139l-123 -123v-936z" />
<glyph unicode="P" horiz-adv-x="1003" d="M51 1354v180h592l238 -234v-548l-236 -248h-297v-504h-186v1292l78 47v15h-189zM348 690h217l127 135v398l-125 125h-219v-658z" />
<glyph unicode="Q" horiz-adv-x="1056" d="M143 244v1071l234 235h299l237 -235v-1071l-161 -172l106 -178l-145 -97l-121 197h-215zM330 317l125 -137h141l127 137v922l-127 125h-141l-125 -125v-922z" />
<glyph unicode="R" horiz-adv-x="989" d="M49 1346v188h563l236 -238v-530l-166 -178l272 -588h-204l-240 516h-162v-516h-186v1284l78 47v15h-191zM348 702h187l127 138v381l-125 125h-189v-644z" />
<glyph unicode="S" horiz-adv-x="989" d="M121 227v281h184v-207l121 -127h135l121 127v244l-551 385v385l219 229h287l219 -229v-236h-184v160l-115 121h-129l-113 -121v-213l549 -385v-414l-225 -237h-293z" />
<glyph unicode="T" horiz-adv-x="942" d="M43 1206v330h842v-330h-154l-6 162h-170v-1368h-186v1368h-166l-8 -162h-152z" />
<glyph unicode="U" horiz-adv-x="1034" d="M53 1366v170h297v-1229l117 -129h123l117 129v1229h186v-1298l-219 -246h-289l-221 246v1067l78 47v14h-189z" />
<glyph unicode="V" horiz-adv-x="1013" d="M43 1358v178h274l201 -1366h43l205 1366h188l-233 -1544h-365l-192 1306l69 48v12h-190z" />
<glyph unicode="W" horiz-adv-x="1427" d="M37 1358v176h285l108 -1372h21l186 1224h211l186 -1224h19l108 1372h191l-144 -1542h-325l-56 338l-79 702h-9l-80 -698l-55 -342h-334l-116 1308l69 43v15h-186z" />
<glyph unicode="X" horiz-adv-x="923" d="M18 0l295 838l-161 465l63 43v14h-195v174h248l193 -588h8l190 588h195l-236 -696l289 -838h-196l-242 731h-8l-246 -731h-197z" />
<glyph unicode="Y" horiz-adv-x="1013" d="M12 1362v174h254l119 -336l121 -407h12l125 411l117 332h196l-352 -967v-569h-186v569l-268 740l65 39v14h-203z" />
<glyph unicode="Z" horiz-adv-x="860" d="M72 307l499 959l2 96h-301l-12 -178h-168v350h668l-2 -315l-500 -959v-88h360l15 164h168v-336h-727z" />
<glyph unicode="`" horiz-adv-x="589" d="M104 1495l146 160l215 -230l-12 -110h-123z" />
<glyph unicode="a" horiz-adv-x="907" d="M43 0l227 1534h361l227 -1534h-188l-60 399h-319l-60 -399h-188zM317 586h267l-115 762h-39z" />
<glyph unicode="b" horiz-adv-x="1021" d="M164 0v1532h450l230 -232v-374l-113 -135l154 -152v-410l-230 -229h-491zM352 188h226l118 119v246l-131 129h-213v-494zM352 870h195l108 129v224l-118 118h-185v-471z" />
<glyph unicode="c" horiz-adv-x="1007" d="M143 238v1077l224 233h290l224 -233v-232h-187v158l-116 121h-134l-114 -121v-934l116 -131h129l119 131v170l187 2v-241l-224 -248h-292z" />
<glyph unicode="d" horiz-adv-x="1013" d="M154 0v1530h489l229 -230v-1069l-229 -231h-489zM340 186h225l121 121v918l-121 118h-225v-1157z" />
<glyph unicode="e" horiz-adv-x="870" d="M152 0v1534h628v-186h-442v-496h371v-186h-371v-480h471v-186h-657z" />
<glyph unicode="f" horiz-adv-x="841" d="M154 0v1528h626v-185h-440v-528h369v-186h-369v-629h-186z" />
<glyph unicode="g" horiz-adv-x="1054" d="M145 240v1063l228 227h311l227 -227v-279h-186v203l-123 125h-147l-123 -125v-914l125 -135h143l125 135v336h-207v185h393v-594l-225 -240h-315z" />
<glyph unicode="h" horiz-adv-x="1015" d="M154 0v1530h186v-676h346v676h186v-1530h-186v676h-346v-676h-186z" />
<glyph unicode="i" horiz-adv-x="483" d="M150 0v1536h186v-1536h-186z" />
<glyph unicode="j" horiz-adv-x="933" d="M72 236v329h186v-260l113 -133h118l113 133v1227h189v-1296l-203 -236h-314z" />
<glyph unicode="k" horiz-adv-x="995" d="M152 0v1530h186v-617h98l293 617h205l-336 -711l383 -819h-205l-340 727h-98v-727h-186z" />
<glyph unicode="l" horiz-adv-x="843" d="M150 0v1534h186v-1356h463v-178h-649z" />
<glyph unicode="m" horiz-adv-x="1318" d="M150 2v1532h366l88 -600l58 -535h6l55 527l88 608h367v-1532h-187v1350h-22l-187 -1221h-237l-187 1221h-22v-1350h-186z" />
<glyph unicode="n" horiz-adv-x="1032" d="M147 0v1530h252l174 -549l158 -573h6l-35 583v539h187v-1530h-199l-239 754l-134 452h-6l23 -469v-737h-187z" />
<glyph unicode="o" d="M143 240v1083l232 231h293l231 -231v-1083l-231 -246h-295zM328 311l125 -133h135l125 133v936l-123 123h-139l-123 -123v-936z" />
<glyph unicode="p" horiz-adv-x="993" d="M152 0v1534h481l237 -234v-548l-235 -248h-297v-504h-186zM338 690h217l127 135v398l-125 125h-219v-658z" />
<glyph unicode="q" horiz-adv-x="1056" d="M143 244v1071l234 235h299l237 -235v-1071l-161 -172l106 -178l-145 -97l-121 197h-215zM330 317l125 -137h141l127 137v922l-127 125h-141l-125 -125v-922z" />
<glyph unicode="r" horiz-adv-x="964" d="M150 0v1534h450l236 -238v-530l-166 -178l272 -588h-205l-239 516h-162v-516h-186zM336 702h186l127 138v381l-125 125h-188v-644z" />
<glyph unicode="s" horiz-adv-x="989" d="M121 227v281h184v-207l121 -127h135l121 127v244l-551 385v385l219 229h287l219 -229v-236h-184v160l-115 121h-129l-113 -121v-213l549 -385v-414l-225 -237h-293z" />
<glyph unicode="t" horiz-adv-x="802" d="M27 1368v168h729v-168h-273v-1368h-186v1368h-270z" />
<glyph unicode="u" horiz-adv-x="1024" d="M154 238v1298h186v-1229l117 -129h123l116 129v1229h187v-1298l-219 -246h-289z" />
<glyph unicode="v" horiz-adv-x="944" d="M57 1536h191l201 -1358h43l204 1358h189l-234 -1544h-364z" />
<glyph unicode="w" horiz-adv-x="1370" d="M76 1534h188l115 -1364h22l174 1216h220l178 -1216h18l113 1364h190l-145 -1542h-328l-55 338l-76 698h-8l-76 -694l-53 -342h-334z" />
<glyph unicode="x" horiz-adv-x="915" d="M10 0l295 838l-244 696h199l193 -590h8l190 590h195l-236 -696l289 -838h-197l-241 731h-8l-246 -731h-197z" />
<glyph unicode="y" horiz-adv-x="944" d="M25 1536h200l125 -356l121 -394l123 400l125 350h196l-352 -967v-569h-186v569z" />
<glyph unicode="z" horiz-adv-x="813" d="M66 307l456 928l2 127h-428v172h615l-2 -315l-457 -936v-101h506v-182h-690z" />
<glyph unicode="&#xa1;" horiz-adv-x="473" d="M127 860v184h203v-184h-203zM133 -506v1225h189v-1225h-189z" />
<glyph unicode="&#xa8;" horiz-adv-x="897" d="M145 1438v161h207v-161h-207zM526 1438v161h205v-161h-205z" />
<glyph unicode="&#xb4;" horiz-adv-x="643" d="M145 1413l215 229l146 -159l-225 -180h-123z" />
<glyph unicode="&#xb8;" horiz-adv-x="722" d="M160 -311l49 166l102 53v123h129v-203l-123 -64l-14 -51l33 -49h86l55 92l113 -67l-94 -154h-230z" />
<glyph unicode="&#xbf;" horiz-adv-x="882" d="M68 127l268 326v274h188v-342l-268 -326v-247l104 -119h140l104 119v172h187v-244l-205 -234h-312l-206 234v387zM326 866v185h206v-185h-206z" />
<glyph unicode="&#xc0;" horiz-adv-x="942" d="M63 0h189l59 399h320l59 -399h189l-228 1534h-481v-186h160v-15l-78 -47zM211 1817l145 159l215 -229l-12 -111h-123zM338 586l113 762h38l115 -762h-266z" />
<glyph unicode="&#xc1;" horiz-adv-x="942" d="M63 0l189 1286l78 47v15h-160v186h481l228 -1534h-189l-59 399h-320l-59 -399h-189zM338 586h266l-115 762h-38zM354 1747l215 229l146 -159l-226 -181h-122z" />
<glyph unicode="&#xc2;" horiz-adv-x="942" d="M63 0h189l59 399h320l59 -399h189l-228 1534h-481v-186h160v-15l-78 -47zM172 1745l211 166h123l211 -166l-94 -115l-172 123h-11l-176 -121zM338 586l113 762h38l115 -762h-266z" />
<glyph unicode="&#xc3;" horiz-adv-x="942" d="M63 0l189 1286l78 47v15h-160v186h481l228 -1534h-189l-59 399h-320l-59 -399h-189zM164 1759l90 117l90 -72l195 88l168 -135l-89 -119l-100 82l-194 -90zM338 586h266l-115 762h-38z" />
<glyph unicode="&#xc4;" horiz-adv-x="942" d="M63 0l189 1286l78 47v15h-160v186h481l228 -1534h-189l-59 399h-320l-59 -399h-189zM158 1632v162h207v-162h-207zM338 586h266l-115 762h-38zM539 1632v162h204v-162h-204z" />
<glyph unicode="&#xc5;" horiz-adv-x="942" d="M63 0l189 1286l78 47v15h-160v186h481l228 -1534h-189l-59 399h-320l-59 -399h-189zM244 1747v162l131 127h162l131 -127v-162l-129 -135h-164zM338 586h266l-115 762h-38zM375 1800l55 -57h53l54 57v55l-52 50h-55l-55 -50v-55z" />
<glyph unicode="&#xc6;" horiz-adv-x="1433" d="M35 0l414 1288l79 45v15h-153v186h915v-363h-186v177h-236v-496h326v-186h-326v-480h254v158h187v-344h-627v399h-309l-125 -399h-213zM424 586h258v762h-27z" />
<glyph unicode="&#xc7;" horiz-adv-x="1007" d="M143 238v1077l224 233h290l224 -233v-232h-187v158l-116 121h-134l-114 -121v-934l116 -131h129l119 131v170l187 2v-241l-224 -248h-61v-140l-123 -63l-14 -51l33 -49h86l55 92l112 -68l-94 -153h-229l-107 153l50 166l102 53v60h-102z" />
<glyph unicode="&#xc8;" horiz-adv-x="933" d="M53 1348h187v-15l-78 -47v-1286h647v344h-186v-158h-275v480h346v186h-346v496h256v-177h187v363h-738v-186zM193 1808l145 160l215 -229l-12 -111h-123z" />
<glyph unicode="&#xc9;" horiz-adv-x="933" d="M53 1348v186h738v-363h-187v177h-256v-496h346v-186h-346v-480h275v158h186v-344h-647v1286l78 47v15h-187zM346 1743l215 229l146 -160l-226 -180h-123z" />
<glyph unicode="&#xca;" horiz-adv-x="933" d="M53 1348h187v-15l-78 -47v-1286h647v344h-186v-158h-275v480h346v186h-346v496h256v-177h187v363h-738v-186zM170 1741l211 166h123l211 -166l-94 -115l-172 123h-11l-176 -121z" />
<glyph unicode="&#xcb;" horiz-adv-x="933" d="M53 1348v186h738v-363h-187v177h-256v-496h346v-186h-346v-480h275v158h186v-344h-647v1286l78 47v15h-187zM166 1632v162h207v-162h-207zM547 1632v162h205v-162h-205z" />
<glyph unicode="&#xcc;" horiz-adv-x="598" d="M37 0h518v170h-166v1196h143v170h-479v-170h228v-14l-78 -47v-1135h-166v-170zM59 1815l146 159l215 -229l-12 -111h-123z" />
<glyph unicode="&#xcd;" horiz-adv-x="598" d="M37 0v170h166v1135l78 47v14h-228v170h479v-170h-143v-1196h166v-170h-518zM174 1743l215 229l146 -160l-226 -180h-123z" />
<glyph unicode="&#xce;" horiz-adv-x="598" d="M23 1753l210 166h123l211 -166l-94 -115l-172 123h-10l-176 -121zM37 0h518v170h-166v1196h143v170h-479v-170h228v-14l-78 -47v-1135h-166v-170z" />
<glyph unicode="&#xcf;" horiz-adv-x="598" d="M2 1636v162h207v-162h-207zM37 0v170h166v1135l78 47v14h-228v170h479v-170h-143v-1196h166v-170h-518zM383 1636v162h205v-162h-205z" />
<glyph unicode="&#xd0;" horiz-adv-x="1021" d="M45 698v166h117v479h-111v187h600l230 -230v-1069l-230 -231h-489v698h-117zM348 186h225l121 121v918l-121 118h-225v-479h141v-166h-141v-512z" />
<glyph unicode="&#xd1;" horiz-adv-x="1048" d="M53 1346v184h363l174 -549l168 -641h6l-41 651v539h182v-1530h-198l-240 754l-139 501h-6l24 -518v-737h-182v1284l78 47v15h-189zM238 1765l90 117l90 -72l194 88l168 -135l-88 -118l-100 81l-195 -90z" />
<glyph unicode="&#xd2;" d="M143 240l230 -246h295l231 246v1083l-231 231h-293l-232 -231v-1083zM262 1833l146 160l215 -230l-13 -110h-123zM328 311v936l123 123h139l123 -123v-936l-125 -133h-135z" />
<glyph unicode="&#xd3;" d="M143 240v1083l232 231h293l231 -231v-1083l-231 -246h-295zM328 311l125 -133h135l125 133v936l-123 123h-139l-123 -123v-936zM442 1755l215 230l146 -160l-225 -180h-123z" />
<glyph unicode="&#xd4;" d="M143 240l230 -246h295l231 246v1083l-231 231h-293l-232 -231v-1083zM248 1753l211 166h123l211 -166l-95 -115l-172 123h-10l-176 -121zM328 311v936l123 123h139l123 -123v-936l-125 -133h-135z" />
<glyph unicode="&#xd5;" d="M143 240v1083l232 231h293l231 -231v-1083l-231 -246h-295zM252 1784l90 117l90 -72l195 88l168 -135l-88 -119l-101 82l-194 -90zM328 311l125 -133h135l125 133v936l-123 123h-139l-123 -123v-936z" />
<glyph unicode="&#xd6;" d="M143 240v1083l232 231h293l231 -231v-1083l-231 -246h-295zM223 1647v161h207v-161h-207zM328 311l125 -133h135l125 133v936l-123 123h-139l-123 -123v-936zM604 1647v161h205v-161h-205z" />
<glyph unicode="&#xd8;" d="M143 240v1083l232 231h280l47 123l166 -53l-73 -199l104 -102v-1083l-231 -246h-285l-45 -123l-166 53l74 203zM328 311l125 -133h135l125 133v936l-123 123h-139l-123 -123v-936z" />
<glyph unicode="&#xd9;" horiz-adv-x="1034" d="M53 1366h189v-14l-78 -47v-1067l221 -246h289l219 246v1298h-186v-1229l-117 -129h-123l-117 129v1229h-297v-170zM289 1825l145 160l215 -230l-12 -110h-123z" />
<glyph unicode="&#xda;" horiz-adv-x="1034" d="M53 1366v170h297v-1229l117 -129h123l117 129v1229h186v-1298l-219 -246h-289l-221 246v1067l78 47v14h-189zM430 1747l215 229l146 -159l-226 -181h-123z" />
<glyph unicode="&#xdb;" horiz-adv-x="1034" d="M53 1366h189v-14l-78 -47v-1067l221 -246h289l219 246v1298h-186v-1229l-117 -129h-123l-117 129v1229h-297v-170zM248 1747l211 166h123l211 -166l-95 -115l-172 123h-10l-176 -121z" />
<glyph unicode="&#xdc;" horiz-adv-x="1034" d="M53 1366v170h297v-1229l117 -129h123l117 129v1229h186v-1298l-219 -246h-289l-221 246v1067l78 47v14h-189zM236 1645v161h206v-161h-206zM616 1645v161h205v-161h-205z" />
<glyph unicode="&#xdd;" horiz-adv-x="1013" d="M12 1362v174h254l119 -336l121 -407h12l125 411l117 332h196l-352 -967v-569h-186v569l-268 740l65 39v14h-203zM418 1743l215 229l145 -160l-225 -180h-123z" />
<glyph unicode="&#xde;" horiz-adv-x="960" d="M152 0v1534h186v-260h264l236 -248v-518l-236 -248h-264v-260h-186zM338 446h184l127 136v370l-127 135h-184v-641z" />
<glyph unicode="&#xe0;" horiz-adv-x="907" d="M43 0l227 1534h361l227 -1534h-188l-60 399h-319l-60 -399h-188zM201 1812l145 160l215 -229l-12 -111h-123zM317 586h267l-115 762h-39z" />
<glyph unicode="&#xe1;" horiz-adv-x="907" d="M43 0l227 1534h361l227 -1534h-188l-60 399h-319l-60 -399h-188zM317 586h267l-115 762h-39zM340 1743l215 229l145 -160l-225 -180h-123z" />
<glyph unicode="&#xe2;" horiz-adv-x="907" d="M43 0l227 1534h361l227 -1534h-188l-60 399h-319l-60 -399h-188zM180 1741l211 166h123l211 -166l-94 -115l-172 123h-10l-177 -121zM317 586h267l-115 762h-39z" />
<glyph unicode="&#xe3;" horiz-adv-x="907" d="M43 0l227 1534h361l227 -1534h-188l-60 399h-319l-60 -399h-188zM162 1747l90 117l90 -72l195 88l168 -135l-89 -119l-100 82l-194 -90zM317 586h267l-115 762h-39z" />
<glyph unicode="&#xe4;" horiz-adv-x="907" d="M43 0l227 1534h361l227 -1534h-188l-60 399h-319l-60 -399h-188zM160 1632v162h207v-162h-207zM317 586h267l-115 762h-39zM541 1632v162h204v-162h-204z" />
<glyph unicode="&#xe5;" horiz-adv-x="907" d="M43 0l227 1534h361l227 -1534h-188l-60 399h-319l-60 -399h-188zM240 1739v162l131 127h161l132 -127v-162l-129 -135h-164zM317 586h267l-115 762h-39zM371 1792l55 -57h53l53 57v55l-51 49h-55l-55 -49v-55z" />
<glyph unicode="&#xe6;" horiz-adv-x="1396" d="M35 0l491 1534h738v-186h-396v-496h332v-186h-332v-480h414v-186h-600v399h-309l-125 -399h-213zM424 586h258v762h-27z" />
<glyph unicode="&#xe7;" horiz-adv-x="1007" d="M143 238v1077l224 233h290l224 -233v-232h-187v158l-116 121h-134l-114 -121v-934l116 -131h129l119 131v170l187 2v-241l-224 -248h-61v-140l-123 -63l-14 -51l33 -49h86l55 92l112 -68l-94 -153h-229l-107 153l50 166l102 53v60h-102z" />
<glyph unicode="&#xe8;" horiz-adv-x="923" d="M152 0h657v186h-471v480h371v186h-371v496h442v186h-628v-1534zM231 1812l146 160l215 -229l-12 -111h-123z" />
<glyph unicode="&#xe9;" horiz-adv-x="923" d="M152 0v1534h628v-186h-442v-496h371v-186h-371v-480h471v-186h-657zM360 1743l215 229l146 -160l-225 -180h-123z" />
<glyph unicode="&#xea;" horiz-adv-x="923" d="M152 0h657v186h-471v480h371v186h-371v496h442v186h-628v-1534zM197 1753l211 166h122l211 -166l-94 -115l-172 123h-10l-176 -121z" />
<glyph unicode="&#xeb;" horiz-adv-x="923" d="M152 0v1534h628v-186h-442v-496h371v-186h-371v-480h471v-186h-657zM176 1638v162h207v-162h-207zM557 1638v162h205v-162h-205z" />
<glyph unicode="&#xec;" horiz-adv-x="483" d="M-10 1806l145 160l215 -229l-12 -111h-123zM150 0h186v1536h-186v-1536z" />
<glyph unicode="&#xed;" horiz-adv-x="483" d="M117 1735l215 229l145 -160l-225 -180h-123zM150 0v1536h186v-1536h-186z" />
<glyph unicode="&#xee;" horiz-adv-x="483" d="M-31 1739l211 166h123l211 -166l-94 -115l-172 123h-10l-177 -121zM150 0h186v1536h-186v-1536z" />
<glyph unicode="&#xef;" horiz-adv-x="483" d="M-51 1638v162h207v-162h-207zM150 0v1536h186v-1536h-186zM330 1638v162h205v-162h-205z" />
<glyph unicode="&#xf0;" horiz-adv-x="1021" d="M45 705v165h117v660h489l230 -230v-1069l-230 -231h-489v705h-117zM348 186h225l121 121v918l-121 118h-225v-473h141v-165h-141v-519z" />
<glyph unicode="&#xf1;" horiz-adv-x="1032" d="M147 0v1530h252l174 -549l158 -573h6l-35 583v539h187v-1530h-199l-239 754l-134 452h-6l23 -469v-737h-187zM233 1761l91 117l90 -72l194 88l168 -135l-88 -119l-100 82l-195 -90z" />
<glyph unicode="&#xf2;" d="M143 240l230 -246h295l231 246v1083l-231 231h-293l-232 -231v-1083zM283 1833l145 160l215 -230l-12 -110h-123zM328 311v936l123 123h139l123 -123v-936l-125 -133h-135z" />
<glyph unicode="&#xf3;" d="M143 240v1083l232 231h293l231 -231v-1083l-231 -246h-295zM328 311l125 -133h135l125 133v936l-123 123h-139l-123 -123v-936zM399 1763l215 230l146 -160l-225 -180h-123z" />
<glyph unicode="&#xf4;" d="M143 240l230 -246h295l231 246v1083l-231 231h-293l-232 -231v-1083zM248 1739l211 166h123l211 -166l-95 -115l-172 123h-10l-176 -121zM328 311v936l123 123h139l123 -123v-936l-125 -133h-135z" />
<glyph unicode="&#xf5;" d="M143 240v1083l232 231h293l231 -231v-1083l-231 -246h-295zM248 1765l90 117l90 -72l195 88l168 -135l-89 -118l-100 81l-194 -90zM328 311l125 -133h135l125 133v936l-123 123h-139l-123 -123v-936z" />
<glyph unicode="&#xf6;" d="M143 240v1083l232 231h293l231 -231v-1083l-231 -246h-295zM231 1649v161h207v-161h-207zM328 311l125 -133h135l125 133v936l-123 123h-139l-123 -123v-936zM612 1649v161h205v-161h-205z" />
<glyph unicode="&#xf8;" d="M143 240v1083l232 231h280l47 123l166 -53l-73 -199l104 -102v-1083l-231 -246h-285l-45 -123l-166 53l74 203zM328 311l125 -133h135l125 133v936l-123 123h-139l-123 -123v-936z" />
<glyph unicode="&#xf9;" horiz-adv-x="1024" d="M154 238l221 -246h289l219 246v1298h-187v-1229l-116 -129h-123l-117 129v1229h-186v-1298zM266 1804l146 160l215 -229l-13 -111h-122z" />
<glyph unicode="&#xfa;" horiz-adv-x="1024" d="M154 238v1298h186v-1229l117 -129h123l116 129v1229h187v-1298l-219 -246h-289zM422 1735l215 229l145 -160l-225 -180h-123z" />
<glyph unicode="&#xfb;" horiz-adv-x="1024" d="M154 238l221 -246h289l219 246v1298h-187v-1229l-116 -129h-123l-117 129v1229h-186v-1298zM240 1737l211 166h122l211 -166l-94 -115l-172 123h-10l-176 -121z" />
<glyph unicode="&#xfc;" horiz-adv-x="1024" d="M154 238v1298h186v-1229l117 -129h123l116 129v1229h187v-1298l-219 -246h-289zM221 1649v161h207v-161h-207zM602 1649v161h205v-161h-205z" />
<glyph unicode="&#xfd;" horiz-adv-x="944" d="M25 1536h200l125 -356l121 -394l123 400l125 350h196l-352 -967v-569h-186v569zM393 1735l215 229l146 -160l-226 -180h-122z" />
<glyph unicode="&#xfe;" horiz-adv-x="960" d="M152 0v1534h186v-260h264l236 -248v-518l-236 -248h-264v-260h-186zM338 446h184l127 136v370l-127 135h-184v-641z" />
<glyph unicode="&#xff;" horiz-adv-x="944" d="M25 1536h200l125 -356l121 -394l123 400l125 350h196l-352 -967v-569h-186v569zM178 1632v162h207v-162h-207zM559 1632v162h205v-162h-205z" />
<glyph unicode="&#x152;" horiz-adv-x="1452" d="M143 246v1057l232 231h934v-363h-187v193h-254v-512h344v-186h-344v-496h273v174h186v-344h-954zM328 317l125 -149h229v1198h-231l-123 -139v-910z" />
<glyph unicode="&#x153;" horiz-adv-x="1417" d="M143 246v1057l232 231h911v-170h-418v-512h340v-186h-340v-496h445v-170h-940zM328 305l125 -137h229v1198h-231l-123 -123v-938z" />
<glyph unicode="&#x160;" horiz-adv-x="989" d="M121 227v281h184v-207l121 -127h135l121 127v244l-551 385v385l219 229h287l219 -229v-236h-184v160l-115 121h-129l-113 -121v-213l549 -385v-414l-225 -237h-293zM229 1821l97 110l163 -141h11l162 141l94 -108l-201 -183h-123z" />
<glyph unicode="&#x161;" horiz-adv-x="989" d="M121 227v281h184v-207l121 -127h135l121 127v244l-551 385v385l219 229h287l219 -229v-236h-184v160l-115 121h-129l-113 -121v-213l549 -385v-414l-225 -237h-293zM229 1831l97 111l163 -142h11l162 142l94 -109l-201 -182h-123z" />
<glyph unicode="&#x178;" horiz-adv-x="1013" d="M12 1362v174h254l119 -336l121 -407h12l125 411l117 332h196l-352 -967v-569h-186v569l-268 740l65 39v14h-203zM215 1651v161h207v-161h-207zM596 1651v161h205v-161h-205z" />
<glyph unicode="&#x17d;" horiz-adv-x="837" d="M53 307l500 959l2 96h-301l-12 -178h-168v350h667l-2 -315l-499 -959v-88h360l14 164h168v-336h-727zM174 1821l96 110l164 -141h10l162 141l94 -108l-200 -183h-123z" />
<glyph unicode="&#x17e;" horiz-adv-x="837" d="M90 307l457 928l2 127h-428v172h614l-2 -315l-457 -936v-101h506v-182h-690zM178 1827l96 110l164 -141h11l161 141l95 -108l-201 -182h-123z" />
<glyph unicode="&#x2c6;" horiz-adv-x="700" d="M68 1440l211 166h122l211 -166l-94 -115l-172 123h-10l-176 -121z" />
<glyph unicode="&#x2c7;" horiz-adv-x="765" d="M131 1518l96 110l164 -141h10l162 141l94 -108l-200 -183h-123z" />
<glyph unicode="&#x2da;" horiz-adv-x="636" d="M100 1266v161l131 127h162l131 -127v-161l-129 -136h-164zM231 1319l56 -57h53l53 57v55l-51 49h-55l-56 -49v-55z" />
<glyph unicode="&#x2dc;" horiz-adv-x="765" d="M106 1491l91 117l90 -72l194 88l168 -135l-88 -119l-100 82l-195 -90z" />
<glyph unicode="&#x401;" horiz-adv-x="933" d="M53 1348v186h738v-363h-187v177h-256v-496h346v-186h-346v-480h275v158h186v-344h-647v1286l78 47v15h-187zM166 1632v162h207v-162h-207zM547 1632v162h205v-162h-205z" />
<glyph unicode="&#x403;" horiz-adv-x="874" d="M53 1343v185h735v-361h-182v176h-258v-1343h-186v1284l76 45v14h-185zM338 1741l209 223l143 -156l-221 -176h-119z" />
<glyph unicode="&#x404;" horiz-adv-x="995" d="M143 238v1077l224 233h290l224 -233v-232h-187v158l-116 121h-134l-114 -121v-367h358v-178h-358v-389l116 -131h129l119 131v170l187 2v-241l-224 -248h-292z" />
<glyph unicode="&#x405;" horiz-adv-x="989" d="M121 227v281h184v-207l121 -127h135l121 127v244l-551 385v385l219 229h287l219 -229v-236h-184v160l-115 121h-129l-113 -121v-213l549 -385v-414l-225 -237h-293z" />
<glyph unicode="&#x406;" horiz-adv-x="630" d="M57 0v170h166v1137l72 45v14h-221v170h479v-170h-143v-1196h165v-170h-518z" />
<glyph unicode="&#x407;" horiz-adv-x="598" d="M29 1636v162h213v-162h-213zM37 0v170h166v1135l78 47v14h-228v170h479v-170h-143v-1196h166v-170h-518zM332 1636v162h213v-162h-213z" />
<glyph unicode="&#x408;" horiz-adv-x="933" d="M72 236v329h186v-260l113 -133h118l113 133v998l76 45v14h-461v170h574v-1296l-203 -236h-314z" />
<glyph unicode="&#x409;" horiz-adv-x="1466" d="M31 0v172h119l159 1108l90 57v15h-172v182h617v-504h264l235 -248v-549l-237 -233h-449v1352h-149l-193 -1352h-284zM844 186h186l125 125v398l-127 135h-184v-658z" />
<glyph unicode="&#x40a;" horiz-adv-x="1466" d="M55 1343v187h295v-627h305v631h187v-623h266l235 -247v-431l-237 -233h-451v725h-305v-725h-186v1284l76 45v14h-185zM842 186h188l125 125v279l-127 135h-186v-539z" />
<glyph unicode="&#x40c;" horiz-adv-x="1005" d="M51 1343v187h297v-617h98l293 617h205l-336 -711l383 -819h-205l-340 727h-98v-727h-186v1284l76 45v14h-187zM406 1741l208 223l144 -156l-221 -176h-119z" />
<glyph unicode="&#x40e;" horiz-adv-x="987" d="M31 1364h190v-12l-57 -43l264 -772l-168 -537h197l499 1536h-196l-121 -350l-111 -387h-4l-131 385l-114 352h-248v-172zM256 1759l123 137l72 -69h131l73 69l123 -137l-131 -119h-262z" />
<glyph unicode="&#x40f;" horiz-adv-x="1026" d="M55 1343v187h295v-1352h346v1354h187v-1532h-260v-199h-187v199h-272v1284l76 45v14h-185z" />
<glyph unicode="&#x410;" horiz-adv-x="942" d="M63 0l189 1286l78 47v15h-160v186h481l228 -1534h-189l-59 399h-320l-59 -399h-189zM338 586h266l-115 762h-38z" />
<glyph unicode="&#x411;" horiz-adv-x="993" d="M43 1350v186h784v-342h-186v156h-303v-389h297l235 -248v-480l-237 -233h-481v1290l75 45v15h-184zM338 186h219l125 125v328l-127 135h-217v-588z" />
<glyph unicode="&#x412;" horiz-adv-x="1021" d="M55 1341v191h559l230 -232v-374l-113 -135l154 -152v-410l-230 -229h-491v1280l78 47v14h-187zM352 188h226l118 119v246l-131 129h-213v-494zM352 870h195l108 129v224l-118 118h-185v-471z" />
<glyph unicode="&#x413;" horiz-adv-x="874" d="M53 1343v185h735v-361h-182v176h-258v-1343h-186v1284l76 45v14h-185z" />
<glyph unicode="&#x414;" horiz-adv-x="1105" d="M47 -154v318h148l159 1124l78 49v15h-160v182h652v-1370h131v-318h-181v154h-647v-154h-180zM383 164h354v1188h-184z" />
<glyph unicode="&#x415;" horiz-adv-x="933" d="M53 1348v186h738v-363h-187v177h-256v-496h346v-186h-346v-480h275v158h186v-344h-647v1286l78 47v15h-187z" />
<glyph unicode="&#x416;" horiz-adv-x="1454" d="M35 0l373 819l-320 717h205l276 -633h62v633h186v-633h62l276 633h205l-320 -717l373 -819h-205l-329 737h-62v-737h-186v737h-62l-329 -737h-205z" />
<glyph unicode="&#x417;" horiz-adv-x="968" d="M98 231v277h187v-203l114 -127h129l117 127v293l-131 133h-174v180h156l108 133v187l-102 119h-105l-98 -119v-90h-188v168l208 231h261l213 -231v-338l-113 -135l154 -152v-453l-224 -235h-291z" />
<glyph unicode="&#x418;" horiz-adv-x="1048" d="M55 1343v187h295v-539l-28 -616h6l151 606l174 549h252v-1530h-186v737l35 533h-6l-146 -516l-240 -754h-198v1284l76 45v14h-185z" />
<glyph unicode="&#x419;" horiz-adv-x="1048" d="M55 1343v187h295v-539l-28 -616h6l151 606l174 549h252v-1530h-186v737l35 533h-6l-146 -516l-240 -754h-198v1284l76 45v14h-185zM291 1774l102 112l78 -65h125l82 65l98 -112l-114 -127h-254z" />
<glyph unicode="&#x41a;" horiz-adv-x="1005" d="M51 1343v187h297v-617h98l293 617h205l-336 -711l383 -819h-205l-340 727h-98v-727h-186v1282l78 47v14h-189z" />
<glyph unicode="&#x41b;" horiz-adv-x="1019" d="M31 0v172h119l159 1116l84 49v15h-166v182h652v-1534h-187v1352h-184l-193 -1352h-284z" />
<glyph unicode="&#x41c;" horiz-adv-x="1331" d="M51 1352v182h481l89 -600l53 -543h6l51 535l88 608h371v-1532h-182v1350h-27l-184 -1211h-236l-190 1211h-27v-1350h-182v1290l74 45v15h-185z" />
<glyph unicode="&#x41d;" horiz-adv-x="1026" d="M55 1343v187h295v-676h346v676h187v-1530h-187v676h-346v-676h-186v1284l76 45v14h-185z" />
<glyph unicode="&#x41e;" d="M143 240v1083l232 231h293l231 -231v-1083l-231 -246h-295zM328 311l125 -133h135l125 133v936l-123 123h-139l-123 -123v-936z" />
<glyph unicode="&#x41f;" horiz-adv-x="1026" d="M55 1360v172h828v-1532h-187v1354h-346v-1354h-186v1300l76 46v14h-185z" />
<glyph unicode="&#x420;" horiz-adv-x="1003" d="M51 1354v180h592l238 -234v-548l-236 -248h-297v-504h-186v1292l78 47v15h-189zM348 690h217l127 135v398l-125 125h-219v-658z" />
<glyph unicode="&#x421;" horiz-adv-x="1007" d="M143 238v1077l224 233h290l224 -233v-232h-187v158l-116 121h-134l-114 -121v-934l116 -131h129l119 131v170l187 2v-241l-224 -248h-292z" />
<glyph unicode="&#x422;" horiz-adv-x="942" d="M43 1206v330h842v-330h-166v162h-164v-1368h-186v1368h-160v-162h-166z" />
<glyph unicode="&#x423;" horiz-adv-x="987" d="M29 1364v172h250l114 -352l131 -402h4l111 404l121 350h196l-499 -1536h-197l168 537l-264 774l63 39v14h-198z" />
<glyph unicode="&#x424;" horiz-adv-x="1302" d="M139 381v776l232 232h186v147h186v-147h185l231 -232v-776l-231 -246h-185v-135h-186v135h-186zM326 444l125 -137h106v903h-108l-123 -123v-643zM743 307h105l125 137v643l-123 123h-107v-903z" />
<glyph unicode="&#x425;" horiz-adv-x="923" d="M18 0l295 838l-161 465l63 43v14h-195v174h248l193 -588h8l190 588h195l-236 -696l289 -838h-196l-242 731h-8l-246 -731h-197z" />
<glyph unicode="&#x426;" horiz-adv-x="1046" d="M53 1343v187h295v-1352h346v1354h187v-1360h110v-326h-176v154h-653v1284l76 45v14h-185z" />
<glyph unicode="&#x427;" horiz-adv-x="995" d="M51 1343v187h295v-705l127 -135h193v844h186v-1534h-186v504h-273l-233 248v532l76 45v14h-185z" />
<glyph unicode="&#x428;" horiz-adv-x="1435" d="M55 1343v187h295v-1354h285v1356h186v-1356h285v1356h186v-1532h-1128v1284l76 45v14h-185z" />
<glyph unicode="&#x429;" horiz-adv-x="1454" d="M55 1343v187h295v-1354h285v1356h186v-1356h285v1356h186v-1360h111v-326h-176v154h-1063v1284l76 45v14h-185z" />
<glyph unicode="&#x42a;" horiz-adv-x="1034" d="M18 1343v187h361v-500h297l235 -248v-549l-237 -233h-481v1284l73 45v14h-248zM379 186h219l125 125v398l-127 135h-217v-658z" />
<glyph unicode="&#x42b;" horiz-adv-x="1402" d="M143 0v1534h187v-504h297l235 -248v-549l-237 -233h-482zM330 186h219l125 125v398l-127 135h-217v-658zM1073 0v1536h187v-1536h-187z" />
<glyph unicode="&#x42c;" horiz-adv-x="985" d="M143 0v1534h187v-504h297l235 -248v-549l-237 -233h-482zM330 186h219l125 125v398l-127 135h-217v-658z" />
<glyph unicode="&#x42d;" horiz-adv-x="995" d="M115 238v241l186 -2v-170l119 -131h129l117 131v389h-359v178h359v367l-115 121h-133l-117 -121v-158h-186v232l223 233h291l223 -233v-1077l-221 -248h-293z" />
<glyph unicode="&#x42e;" horiz-adv-x="1435" d="M55 1343v187h295v-676h203v469l231 231h277l231 -231v-1083l-231 -246h-279l-229 246v436h-203v-676h-186v1284l76 45v14h-185zM737 311l125 -133h119l125 133v936l-123 123h-123l-123 -123v-936z" />
<glyph unicode="&#x42f;" horiz-adv-x="976" d="M33 0l272 588l-166 178v530l236 238h563v-188h-113v-1346h-186v516h-162l-239 -516h-205zM326 840l127 -138h186v584l74 45v15h-262l-125 -125v-381z" />
<glyph unicode="&#x430;" horiz-adv-x="907" d="M43 0l227 1534h361l227 -1534h-188l-60 399h-319l-60 -399h-188zM317 586h267l-115 762h-39z" />
<glyph unicode="&#x431;" horiz-adv-x="993" d="M152 0v1536h669v-186h-483v-389h297l235 -248v-480l-237 -233h-481zM338 186h219l125 125v328l-127 135h-217v-588z" />
<glyph unicode="&#x432;" horiz-adv-x="1009" d="M152 0v1532h450l229 -232v-374l-112 -135l153 -152v-410l-229 -229h-491zM340 188h225l119 119v246l-131 129h-213v-494zM340 870h195l108 129v224l-119 118h-184v-471z" />
<glyph unicode="&#x433;" horiz-adv-x="827" d="M152 0v1528h626v-185h-440v-1343h-186z" />
<glyph unicode="&#x434;" horiz-adv-x="1105" d="M47 -154v318h148l194 1370h535v-1370h131v-318h-181v154h-647v-154h-180zM383 164h354v1188h-184z" />
<glyph unicode="&#x435;" horiz-adv-x="923" d="M152 0v1534h628v-186h-442v-496h371v-186h-371v-480h471v-186h-657z" />
<glyph unicode="&#x436;" horiz-adv-x="1454" d="M35 0l373 819l-320 717h205l276 -623h62v623h186v-623h62l276 623h205l-320 -717l373 -819h-205l-329 727h-62v-727h-186v727h-62l-329 -727h-205z" />
<glyph unicode="&#x437;" horiz-adv-x="968" d="M98 231v277h187v-203l114 -123h129l117 123v293l-131 129h-174v188h156l108 129v187l-102 119h-105l-98 -119v-90h-188v168l208 231h261l213 -231v-338l-113 -135l154 -152v-453l-224 -235h-291z" />
<glyph unicode="&#x438;" horiz-adv-x="1036" d="M152 0v1530h186v-539l-29 -643h6l152 633l174 549h252v-1530h-186v737l30 551h-6l-141 -534l-240 -754h-198z" />
<glyph unicode="&#x439;" horiz-adv-x="1036" d="M152 0v1530h186v-539l-29 -643h6l152 633l174 549h252v-1530h-186v737l30 551h-6l-141 -534l-240 -754h-198zM274 1774l103 112l78 -65h125l82 65l98 -112l-115 -127h-254z" />
<glyph unicode="&#x43a;" horiz-adv-x="995" d="M152 0v1530h186v-617h98l293 617h205l-336 -711l383 -819h-205l-340 727h-98v-727h-186z" />
<glyph unicode="&#x43b;" horiz-adv-x="1019" d="M31 0v172h119l196 1362h533v-1534h-187v1352h-184l-193 -1352h-284z" />
<glyph unicode="&#x43c;" horiz-adv-x="1318" d="M150 2v1532h370l86 -600l56 -565h6l53 557l86 608h371v-1532h-187v1350h-22l-185 -1233h-235l-191 1233h-22v-1350h-186z" />
<glyph unicode="&#x43d;" horiz-adv-x="1015" d="M154 0v1530h186v-676h346v676h186v-1530h-186v676h-346v-676h-186z" />
<glyph unicode="&#x43e;" d="M143 240v1083l232 231h293l231 -231v-1083l-231 -246h-295zM328 311l125 -133h135l125 133v936l-123 123h-139l-123 -123v-936z" />
<glyph unicode="&#x43f;" horiz-adv-x="1011" d="M150 0v1532h718v-1532h-186v1354h-346v-1354h-186z" />
<glyph unicode="&#x440;" horiz-adv-x="993" d="M152 0v1534h481l237 -234v-548l-235 -248h-297v-504h-186zM338 690h217l127 135v398l-125 125h-219v-658z" />
<glyph unicode="&#x441;" horiz-adv-x="1007" d="M143 238v1077l224 233h290l224 -233v-232h-187v158l-116 121h-134l-114 -121v-934l116 -131h129l119 131v170l187 2v-241l-224 -248h-292z" />
<glyph unicode="&#x442;" horiz-adv-x="802" d="M27 1368v168h729v-168h-273v-1368h-186v1368h-270z" />
<glyph unicode="&#x443;" horiz-adv-x="935" d="M27 1536h202l115 -352l131 -385h4l111 387l121 350h196l-499 -1536h-197l168 537z" />
<glyph unicode="&#x444;" horiz-adv-x="1302" d="M139 381v776l232 232h186v147h186v-147h185l231 -232v-776l-231 -246h-185v-135h-186v135h-186zM326 453l125 -134h106v885h-108l-123 -123v-628zM743 319h105l125 134v628l-123 123h-107v-885z" />
<glyph unicode="&#x445;" horiz-adv-x="915" d="M10 0l295 838l-244 696h199l193 -582h8l190 582h195l-236 -696l289 -838h-197l-241 725h-8l-246 -725h-197z" />
<glyph unicode="&#x446;" horiz-adv-x="1030" d="M150 0v1530h186v-1352h346v1354h186v-1360h111v-326h-176v154h-653z" />
<glyph unicode="&#x447;" horiz-adv-x="956" d="M121 752v778h186v-705l127 -135h193v844h186v-1534h-186v504h-273z" />
<glyph unicode="&#x448;" horiz-adv-x="1423" d="M152 0v1530h186v-1354h285v1356h186v-1356h285v1356h186v-1532h-1128z" />
<glyph unicode="&#x449;" horiz-adv-x="1441" d="M152 0v1530h186v-1354h285v1356h186v-1356h285v1356h186v-1360h111v-326h-177v154h-1062z" />
<glyph unicode="&#x44a;" horiz-adv-x="1034" d="M18 1343v187h361v-500h297l235 -248v-549l-237 -233h-481v1343h-175zM379 186h219l125 125v398l-127 135h-217v-658z" />
<glyph unicode="&#x44b;" horiz-adv-x="1402" d="M143 0v1534h187v-504h297l235 -248v-549l-237 -233h-482zM330 186h219l125 125v398l-127 135h-217v-658zM1073 0v1536h187v-1536h-187z" />
<glyph unicode="&#x44c;" horiz-adv-x="985" d="M143 0v1534h187v-504h297l235 -248v-549l-237 -233h-482zM330 186h219l125 125v398l-127 135h-217v-658z" />
<glyph unicode="&#x44d;" horiz-adv-x="995" d="M115 238v241l186 -2v-170l119 -131h129l117 131v389h-359v178h359v367l-115 121h-133l-117 -121v-158h-186v232l223 233h291l223 -233v-1077l-221 -248h-293z" />
<glyph unicode="&#x44e;" horiz-adv-x="1423" d="M152 0v1530h186v-676h203v469l231 231h277l231 -231v-1083l-231 -246h-279l-229 246v436h-203v-676h-186zM725 311l125 -133h119l125 133v936l-123 123h-123l-123 -123v-936z" />
<glyph unicode="&#x44f;" horiz-adv-x="968" d="M33 0l272 588l-166 178v530l236 238h450v-1534h-186v516h-162l-239 -516h-205zM326 840l127 -138h186v644h-188l-125 -125v-381z" />
<glyph unicode="&#x451;" horiz-adv-x="923" d="M152 0v1534h628v-186h-442v-496h371v-186h-371v-480h471v-186h-657zM176 1638v162h207v-162h-207zM557 1638v162h205v-162h-205z" />
<glyph unicode="&#x453;" horiz-adv-x="864" d="M152 0v1528h626v-361h-182v176h-258v-1343h-186zM362 1741l209 223l144 -156l-221 -176h-119z" />
<glyph unicode="&#x454;" horiz-adv-x="995" d="M143 238v1077l224 233h290l224 -233v-232h-187v158l-116 121h-134l-114 -121v-367h358v-178h-358v-389l116 -131h129l119 131v170l187 2v-241l-224 -248h-292z" />
<glyph unicode="&#x455;" horiz-adv-x="989" d="M121 227v281h184v-207l121 -127h135l121 127v244l-551 385v385l219 229h287l219 -229v-236h-184v160l-115 121h-129l-113 -121v-213l549 -385v-414l-225 -237h-293z" />
<glyph unicode="&#x456;" horiz-adv-x="483" d="M150 0v1536h186v-1536h-186z" />
<glyph unicode="&#x457;" horiz-adv-x="483" d="M-18 1638v162h213v-162h-213zM150 0v1536h186v-1536h-186zM287 1638v162h213v-162h-213z" />
<glyph unicode="&#x458;" horiz-adv-x="933" d="M72 236v329h186v-260l113 -133h118l113 133v1227h189v-1296l-203 -236h-314z" />
<glyph unicode="&#x459;" horiz-adv-x="1466" d="M31 0v172h119l194 1362h500v-504h264l235 -248v-549l-237 -233h-449v1352h-149l-193 -1352h-284zM844 186h186l125 125v398l-127 135h-184v-658z" />
<glyph unicode="&#x45a;" horiz-adv-x="1452" d="M150 0v1530h186v-627h305v631h186v-623h267l235 -247v-431l-237 -233h-451v725h-305v-725h-186zM827 186h189l125 125v279l-127 135h-187v-539z" />
<glyph unicode="&#x45c;" horiz-adv-x="995" d="M152 0v1530h186v-617h98l293 617h205l-336 -711l383 -819h-205l-340 727h-98v-727h-186zM406 1741l208 223l144 -156l-221 -176h-119z" />
<glyph unicode="&#x45e;" horiz-adv-x="935" d="M27 1536l352 -999l-168 -537h197l499 1536h-196l-121 -350l-111 -387h-4l-131 385l-115 352h-202zM207 1759l123 137l71 -69h131l74 69l123 -137l-131 -119h-262z" />
<glyph unicode="&#x45f;" horiz-adv-x="1011" d="M150 0v1532h186v-1354h346v1354h186v-1532h-268v-199h-186v199h-264z" />
<glyph unicode="&#x490;" horiz-adv-x="837" d="M53 1343v185h565v125h170v-310h-440v-1343h-186v1284l76 45v14h-185z" />
<glyph unicode="&#x491;" horiz-adv-x="827" d="M152 0v1528h452v125h174v-310h-440v-1343h-186z" />
<glyph unicode="&#x10d0;" horiz-adv-x="1024" d="M143 242v311h187v-242l119 -131h129l116 131v733l-454 318v186h186v-92l455 -319v-895l-222 -248h-292z" />
<glyph unicode="&#x10d1;" horiz-adv-x="1044" d="M143 242v409l224 248h125v318l-119 129v-289h-189v477h271l223 -248v-387l223 -248v-409l-223 -248h-311zM330 311l119 -131h147l119 131v271l-119 131h-147l-119 -131v-271z" />
<glyph unicode="&#x10d2;" horiz-adv-x="1019" d="M143 229v435l222 235h208l117 131v215l-117 123h-88l-114 -123v-151h-187v225l222 235h249l222 -235v-358l-140 -156l140 -156v-420l-222 -235h-290zM330 303l114 -123h129l117 123v277l-117 131h-131l-112 -121v-287z" />
<glyph unicode="&#x10d3;" horiz-adv-x="1531" d="M145 231v1090l232 231h252l139 -139l137 139h252l232 -231v-530l-232 -232h-252l-231 232v454l-123 123h-96l-123 -123v-938l123 -123h845v-184h-923zM860 866l123 -123h96l123 123v379l-123 123h-96l-123 -123v-379z" />
<glyph unicode="&#x10d4;" horiz-adv-x="1024" d="M143 244v311h187v-242l119 -131h129l116 131v940l-114 121h-134l-116 -121v-157h-187v231l224 234h290l224 -234v-1083l-222 -248h-292z" />
<glyph unicode="&#x10d5;" horiz-adv-x="1019" d="M143 229v324h187v-250l114 -123h129l117 123v277l-117 131l-155 2v184v2h155l117 131v215l-117 123h-108l-115 -123v-151h-186v225l221 235h270l222 -235v-358l-138 -156l138 -156v-420l-222 -235h-290z" />
<glyph unicode="&#x10d6;" horiz-adv-x="1280" d="M123 977v350l231 232h232l231 -232v-350l-78 -78h166l232 -231v-443l-232 -231h-293l-231 231v443l78 77h-105zM309 1053l123 -123h76l123 123v198l-123 123h-76l-123 -123v-198zM567 301l123 -123h137l123 123v291l-123 123h-137l-123 -123v-291z" />
<glyph unicode="&#x10d7;" horiz-adv-x="1529" d="M143 227v1102l232 232h252l137 -140l139 140h252l231 -232v-1147l-176 -186l-135 125l125 133v999l-123 123h-96l-123 -123v-1026l-231 -231h-252zM330 303l123 -123h96l123 123v950l-123 123h-96l-123 -123v-950z" />
<glyph unicode="&#x10d8;" d="M143 176v1147l232 231h293l231 -231v-1147l-176 -186l-135 125l125 133v999l-123 123h-137l-123 -123v-999l125 -133l-136 -125z" />
<glyph unicode="&#x10d9;" horiz-adv-x="1019" d="M143 229v324h187v-250l114 -123h129l117 123v277l-117 131l-155 2v184v2h155l117 131v215l-117 123h-63v186h145l222 -235v-358l-138 -156l138 -156v-420l-222 -235h-290z" />
<glyph unicode="&#x10da;" horiz-adv-x="2058" d="M143 233v1090l232 231h252l139 -139l137 139h252l139 -139l138 139h251l232 -231v-723l-176 -188l-135 127l125 133v575l-123 123h-97l-123 -123v-575h-186v575l-123 123h-96l-123 -123v-575h-186v575l-123 123h-96l-123 -123v-938l123 -123h1353v-184h-1431z" />
<glyph unicode="&#x10db;" d="M143 242v409l224 248h348v352l-115 121h-133l-117 -121v-157h-186v231l223 234h291l223 -234v-1083l-221 -248h-313zM330 311l119 -131h149l117 131v402h-266l-119 -131v-271z" />
<glyph unicode="&#x10dc;" d="M143 242v1083l224 234h514v-187h-437l-114 -121v-352h348l223 -248v-409l-223 -248h-313zM330 311l116 -131h150l119 131v271l-119 131h-266v-402z" />
<glyph unicode="&#x10dd;" horiz-adv-x="1529" d="M143 176v1147l232 231h252l139 -139l137 139h252l231 -231v-1147l-176 -186l-135 125l125 133v999l-123 123h-96l-123 -123v-698h-186v698l-123 123h-96l-123 -123v-999l125 -133l-136 -125z" />
<glyph unicode="&#x10de;" horiz-adv-x="1019" d="M143 229v324h187v-250l114 -123h129l117 123v277l-117 131l-155 2v184v2h155l117 131v78l-411 289v137h186v-43l412 -289v-241l-138 -156l138 -156v-420l-222 -235h-290z" />
<glyph unicode="&#x10df;" horiz-adv-x="1105" d="M92 854l137 129l78 -86h72l39 41v47l-127 135l440 412h232v-1292l-222 -248h-292l-224 248v311h187v-242l118 -131h129l117 131v1010l-217 -203l43 -35v-215l-145 -155h-230z" />
<glyph unicode="&#x10e0;" horiz-adv-x="1529" d="M143 190v1133l232 231h923v-184h-845l-123 -123v-200l45 45h252l137 -138l139 138h252l231 -232v-670l-176 -188l-135 127l125 133v522l-123 123h-96l-123 -123v-532h-186v532l-123 123h-96l-123 -123v-522l125 -133l-136 -127z" />
<glyph unicode="&#x10e1;" horiz-adv-x="1019" d="M143 227v1305h187v-1231l116 -123h129l115 123v352l-125 133l135 127l177 -188v-498l-222 -235h-290z" />
<glyph unicode="&#x10e2;" horiz-adv-x="1089" d="M143 240v901l232 231h76v160h186v-160h78l231 -231v-901l-231 -246h-342zM328 311l125 -133h182l125 133v754l-123 123v-291h-186v291l-123 -123v-754z" />
<glyph unicode="&#x10e3;" horiz-adv-x="1105" d="M72 1372v184h172l139 -139l137 139h211l232 -231v-1085l-222 -248h-292l-224 248v311h187v-242l118 -131h129l117 131v940l-123 123h-55l-123 -123v-348h-186v348l-123 123h-94z" />
<glyph unicode="&#x10e4;" horiz-adv-x="1529" d="M143 793v530l232 231h252l137 -139l139 139h252l231 -231v-362l-139 -156l139 -158v-420l-221 -235h-499l-222 235v199h187v-125l114 -123h338l117 123v277l-117 131h-65v190h65l117 131v217l-123 123h-96l-123 -123v-454l-231 -232h-252zM330 868l123 -123h96l123 123 v379l-123 123h-96l-123 -123v-379z" />
<glyph unicode="&#x10e5;" horiz-adv-x="1026" d="M145 240v311h187v-242l119 -131h129l116 131v672l-114 121h-133l-117 -121v-158h-187v232l224 233h290l37 -39v283h187v-1292l-221 -248h-293z" />
<glyph unicode="&#x10e6;" horiz-adv-x="1529" d="M143 231v1090l232 231h252l139 -139l137 139h252l231 -231v-723l-176 -188l-135 127l125 133v575l-123 123h-96l-123 -123v-575h-186v575l-123 123h-96l-123 -123v-938l123 -123h845v-184h-923z" />
<glyph unicode="&#x10e7;" horiz-adv-x="1024" d="M143 242v311h187v-242l119 -131h129l116 131v369l-37 -39h-290l-224 233v660h187v-586l116 -121h134l114 121v586h187v-1292l-222 -248h-292z" />
<glyph unicode="&#x10e8;" horiz-adv-x="1105" d="M72 1370v184h172l139 -139l137 139h211l232 -231v-1085l-222 -248h-313l-223 248v409l223 248h348v352l-123 123h-55l-123 -123v-231h-186v231l-123 123h-94zM391 307l119 -131h149l117 131v402h-266l-119 -131v-271z" />
<glyph unicode="&#x10e9;" horiz-adv-x="1024" d="M143 0v1292l222 248h251l224 -248v-385l-95 -106l136 -144v-657h-187v584l-116 121h-134l-114 -121v-584h-187zM330 854l37 37h211l75 86v246l-118 131h-89l-116 -131v-369z" />
<glyph unicode="&#x10ea;" horiz-adv-x="1239" d="M141 236v1308h187v-1233l123 -123l342 2l116 123v277l-116 131l-156 2v186h156l116 131v78l-411 289v137h186v-43l412 -289v-241l-138 -156l138 -156v-419l-222 -236h-501z" />
<glyph unicode="&#x10eb;" d="M143 242v409l224 248h348v637h186v-1294l-221 -248h-313zM330 311l119 -131h149l117 131v402h-266l-119 -131v-271z" />
<glyph unicode="&#x10ec;" horiz-adv-x="1064" d="M143 244v1085l232 232h211l139 -140l137 140h174v-185h-96l-123 -123v-231h-186v231l-123 123h-55l-123 -123v-352h348l223 -248v-409l-223 -248h-313zM330 313l116 -131h150l119 131v271l-119 131h-266v-402z" />
<glyph unicode="&#x10ed;" horiz-adv-x="1091" d="M133 1016v211l234 221h41v86h170v-121l127 -158l139 111l114 -137l-137 -107l121 -92l-106 -141l-129 98l-121 -147v-64l317 -223v-311l-221 -248h-293l-223 248v311h186v-242l119 -131h129l117 131v150l-318 221v113h-32zM319 1094l121 -113h33l109 131v18l-109 132h-33 l-121 -113v-55z" />
<glyph unicode="&#x10ee;" horiz-adv-x="1046" d="M145 242v1294h187v-637h348l223 -248v-409l-223 -248h-313zM332 311l117 -131h149l119 131v271l-119 131h-266v-402z" />
<glyph unicode="&#x10ef;" horiz-adv-x="1024" d="M143 242v311h187v-242l119 -131h129l116 131v273l-317 221v364h-209v187h209v178h186v-178h209v-187h-209v-270l318 -223v-434l-222 -248h-292z" />
<glyph unicode="&#x10f0;" horiz-adv-x="1021" d="M145 227v135h187v-61l114 -123h129l117 121l-117 131l-155 2v184v2h155l115 130l-115 129l-155 2v186h155l68 76l-362 252v139h186v-45l412 -289v-2v-70l-138 -155l138 -156v-135l-138 -156l138 -155v-142l-222 -235h-290z" />
<glyph unicode="&#x2000;" horiz-adv-x="1018" />
<glyph unicode="&#x2001;" horiz-adv-x="2036" />
<glyph unicode="&#x2002;" horiz-adv-x="1018" />
<glyph unicode="&#x2003;" horiz-adv-x="2036" />
<glyph unicode="&#x2004;" horiz-adv-x="678" />
<glyph unicode="&#x2005;" horiz-adv-x="509" />
<glyph unicode="&#x2006;" horiz-adv-x="339" />
<glyph unicode="&#x2007;" horiz-adv-x="339" />
<glyph unicode="&#x2008;" horiz-adv-x="254" />
<glyph unicode="&#x2009;" horiz-adv-x="407" />
<glyph unicode="&#x200a;" horiz-adv-x="113" />
<glyph unicode="&#x202f;" horiz-adv-x="407" />
<glyph unicode="&#x205f;" horiz-adv-x="509" />
<glyph unicode="&#x25fc;" horiz-adv-x="1536" d="M0 0v1536h1536v-1536h-1536z" />
</font>
</defs>
</svg>
