<?xml version="1.0" standalone="no"?>
<!DOCTYPE svg PUBLIC "-//W3C//DTD SVG 1.1//EN" "http://www.w3.org/Graphics/SVG/1.1/DTD/svg11.dtd" >
<svg xmlns="http://www.w3.org/2000/svg" xmlns:xlink="http://www.w3.org/1999/xlink" version="1.1">
<metadata></metadata>
<defs>
<font id="mg_bitneonregular" horiz-adv-x="2633" >
<font-face units-per-em="2048" ascent="1638" descent="-410" />
<missing-glyph horiz-adv-x="1024" />
<glyph horiz-adv-x="1024" />
<glyph unicode="&#xd;" horiz-adv-x="1609" />
<glyph unicode=" "  horiz-adv-x="1024" />
<glyph unicode="&#x09;" horiz-adv-x="1024" />
<glyph unicode="&#xa0;" horiz-adv-x="1024" />
<glyph unicode="!" horiz-adv-x="877" d="M0 0v293h293v-293h-293zM0 878v292h293v-292h-293zM0 1317v292h293v-292h-293zM0 1755v293h293v-293h-293z" />
<glyph unicode="&#x22;" horiz-adv-x="1755" d="M0 1317v292h293v-292h-293zM0 1755v293h293v-293h-293zM878 1317v292h292v-292h-292zM878 1755v293h292v-293h-292z" />
<glyph unicode="#" d="M0 439v292h293v-292h-293zM0 1317v292h293v-292h-293zM439 0v293h292v-293h-292zM439 439v292h292v-292h-292zM439 878v292h292v-292h-292zM439 1317v292h292v-292h-292zM439 1755v293h292v-293h-292zM878 439v292h292v-292h-292zM878 1317v292h292v-292h-292zM1317 0 v293h292v-293h-292zM1317 439v292h292v-292h-292zM1317 878v292h292v-292h-292zM1317 1317v292h292v-292h-292zM1317 1755v293h292v-293h-292zM1755 439v292h293v-292h-293zM1755 1317v292h293v-292h-293z" />
<glyph unicode="$" d="M0 0v293h293v-293h-293zM0 1317v292h293v-292h-293zM439 0v293h292v-293h-292zM439 878v292h292v-292h-292zM439 1755v293h292v-293h-292zM878 0v293h292v-293h-292zM878 439v292h292v-292h-292zM878 878v292h292v-292h-292zM878 1317v292h292v-292h-292zM878 1755v293 h292v-293h-292zM1317 0v293h292v-293h-292zM1317 878v292h292v-292h-292zM1317 1755v293h292v-293h-292zM1755 439v292h293v-292h-293zM1755 1755v293h293v-293h-293z" />
<glyph unicode="%" d="M0 0v293h293v-293h-293zM0 1317v292h293v-292h-293zM0 1755v293h293v-293h-293zM439 439v292h292v-292h-292zM439 1317v292h292v-292h-292zM439 1755v293h292v-293h-292zM878 878v292h292v-292h-292zM1317 0v293h292v-293h-292zM1317 439v292h292v-292h-292zM1317 1317 v292h292v-292h-292zM1755 0v293h293v-293h-293zM1755 439v292h293v-292h-293zM1755 1755v293h293v-293h-293z" />
<glyph unicode="&#x26;" d="M0 0v293h293v-293h-293zM0 439v292h293v-292h-293zM0 878v292h293v-292h-293zM0 1317v292h293v-292h-293zM439 0v293h292v-293h-292zM439 878v292h292v-292h-292zM439 1755v293h292v-293h-292zM878 0v293h292v-293h-292zM878 878v292h292v-292h-292zM878 1755v293h292 v-293h-292zM1317 439v292h292v-292h-292zM1317 1317v292h292v-292h-292zM1755 0v293h293v-293h-293zM1755 878v292h293v-292h-293z" />
<glyph unicode="'" horiz-adv-x="877" d="M0 1317v292h293v-292h-293zM0 1755v293h293v-293h-293z" />
<glyph unicode="(" horiz-adv-x="1755" d="M0 439v292h293v-292h-293zM0 878v292h293v-292h-293zM0 1317v292h293v-292h-293zM439 0v293h292v-293h-292zM439 1755v293h292v-293h-292zM878 0v293h292v-293h-292zM878 1755v293h292v-293h-292z" />
<glyph unicode=")" horiz-adv-x="1755" d="M0 0v293h293v-293h-293zM0 1755v293h293v-293h-293zM439 0v293h292v-293h-292zM439 1755v293h292v-293h-292zM878 439v292h292v-292h-292zM878 878v292h292v-292h-292zM878 1317v292h292v-292h-292z" />
<glyph unicode="*" d="M0 0v293h293v-293h-293zM0 878v292h293v-292h-293zM0 1755v293h293v-293h-293zM439 878v292h292v-292h-292zM878 0v293h292v-293h-292zM878 439v292h292v-292h-292zM878 878v292h292v-292h-292zM878 1317v292h292v-292h-292zM878 1755v293h292v-293h-292zM1317 878v292 h292v-292h-292zM1755 0v293h293v-293h-293zM1755 878v292h293v-292h-293zM1755 1755v293h293v-293h-293z" />
<glyph unicode="+" d="M0 878v292h293v-292h-293zM439 878v292h292v-292h-292zM878 0v293h292v-293h-292zM878 439v292h292v-292h-292zM878 878v292h292v-292h-292zM878 1317v292h292v-292h-292zM878 1755v293h292v-293h-292zM1317 878v292h292v-292h-292zM1755 878v292h293v-292h-293z" />
<glyph unicode="," horiz-adv-x="1316" d="M0 -146h293v-293h-293v293zM439 0v293h292v-293h-292z" />
<glyph unicode="-" d="M0 878v292h293v-292h-293zM439 878v292h292v-292h-292zM878 878v292h292v-292h-292zM1317 878v292h292v-292h-292zM1755 878v292h293v-292h-293z" />
<glyph unicode="." horiz-adv-x="877" d="M0 0v293h293v-293h-293z" />
<glyph unicode="/" d="M0 0v293h293v-293h-293zM439 439v292h292v-292h-292zM878 878v292h292v-292h-292zM1317 1317v292h292v-292h-292zM1755 1755v293h293v-293h-293z" />
<glyph unicode="0" d="M0 439v292h293v-292h-293zM0 878v292h293v-292h-293zM0 1317v292h293v-292h-293zM439 0v293h292v-293h-292zM439 1755v293h292v-293h-292zM878 0v293h292v-293h-292zM878 1755v293h292v-293h-292zM1317 0v293h292v-293h-292zM1317 1755v293h292v-293h-292zM1755 439v292 h293v-292h-293zM1755 878v292h293v-292h-293zM1755 1317v292h293v-292h-293z" />
<glyph unicode="1" horiz-adv-x="1316" d="M0 1755v293h293v-293h-293zM439 0v293h292v-293h-292zM439 439v292h292v-292h-292zM439 878v292h292v-292h-292zM439 1317v292h292v-292h-292zM439 1755v293h292v-293h-292z" />
<glyph unicode="2" d="M0 0v293h293v-293h-293zM0 439v292h293v-292h-293zM0 1755v293h293v-293h-293zM439 0v293h292v-293h-292zM439 878v292h292v-292h-292zM439 1755v293h292v-293h-292zM878 0v293h292v-293h-292zM878 878v292h292v-292h-292zM878 1755v293h292v-293h-292zM1317 0v293h292 v-293h-292zM1317 878v292h292v-292h-292zM1317 1755v293h292v-293h-292zM1755 0v293h293v-293h-293zM1755 1317v292h293v-292h-293z" />
<glyph unicode="3" d="M0 0v293h293v-293h-293zM0 1755v293h293v-293h-293zM439 0v293h292v-293h-292zM439 878v292h292v-292h-292zM439 1755v293h292v-293h-292zM878 0v293h292v-293h-292zM878 878v292h292v-292h-292zM878 1755v293h292v-293h-292zM1317 0v293h292v-293h-292zM1317 878v292 h292v-292h-292zM1317 1755v293h292v-293h-292zM1755 439v292h293v-292h-293zM1755 1317v292h293v-292h-293z" />
<glyph unicode="4" d="M0 439v292h293v-292h-293zM0 878v292h293v-292h-293zM439 439v292h292v-292h-292zM439 1317v292h292v-292h-292zM878 439v292h292v-292h-292zM878 1755v293h292v-293h-292zM1317 0v293h292v-293h-292zM1317 439v292h292v-292h-292zM1317 878v292h292v-292h-292z M1317 1317v292h292v-292h-292zM1317 1755v293h292v-293h-292zM1755 439v292h293v-292h-293z" />
<glyph unicode="5" d="M0 0v293h293v-293h-293zM0 878v292h293v-292h-293zM0 1317v292h293v-292h-293zM0 1755v293h293v-293h-293zM439 0v293h292v-293h-292zM439 878v292h292v-292h-292zM439 1755v293h292v-293h-292zM878 0v293h292v-293h-292zM878 878v292h292v-292h-292zM878 1755v293h292 v-293h-292zM1317 0v293h292v-293h-292zM1317 878v292h292v-292h-292zM1317 1755v293h292v-293h-292zM1755 439v292h293v-292h-293zM1755 1755v293h293v-293h-293z" />
<glyph unicode="6" d="M0 439v292h293v-292h-293zM0 878v292h293v-292h-293zM0 1317v292h293v-292h-293zM439 0v293h292v-293h-292zM439 878v292h292v-292h-292zM439 1755v293h292v-293h-292zM878 0v293h292v-293h-292zM878 878v292h292v-292h-292zM878 1755v293h292v-293h-292zM1317 0v293h292 v-293h-292zM1317 878v292h292v-292h-292zM1317 1755v293h292v-293h-292zM1755 439v292h293v-292h-293zM1755 1755v293h293v-293h-293z" />
<glyph unicode="7" d="M0 1755v293h293v-293h-293zM439 0v293h292v-293h-292zM439 1755v293h292v-293h-292zM878 439v292h292v-292h-292zM878 1755v293h292v-293h-292zM1317 878v292h292v-292h-292zM1317 1755v293h292v-293h-292zM1755 1317v292h293v-292h-293zM1755 1755v293h293v-293h-293z " />
<glyph unicode="8" d="M0 439v292h293v-292h-293zM0 1317v292h293v-292h-293zM439 0v293h292v-293h-292zM439 878v292h292v-292h-292zM439 1755v293h292v-293h-292zM878 0v293h292v-293h-292zM878 878v292h292v-292h-292zM878 1755v293h292v-293h-292zM1317 0v293h292v-293h-292zM1317 878v292 h292v-292h-292zM1317 1755v293h292v-293h-292zM1755 439v292h293v-292h-293zM1755 1317v292h293v-292h-293z" />
<glyph unicode="9" d="M0 1317v292h293v-292h-293zM439 0v293h292v-293h-292zM439 878v292h292v-292h-292zM439 1755v293h292v-293h-292zM878 0v293h292v-293h-292zM878 878v292h292v-292h-292zM878 1755v293h292v-293h-292zM1317 0v293h292v-293h-292zM1317 878v292h292v-292h-292zM1317 1755 v293h292v-293h-292zM1755 439v292h293v-292h-293zM1755 878v292h293v-292h-293zM1755 1317v292h293v-292h-293z" />
<glyph unicode=":" horiz-adv-x="877" d="M0 439v292h293v-292h-293zM0 1317v292h293v-292h-293z" />
<glyph unicode=";" horiz-adv-x="1316" d="M0 0v293h293v-293h-293zM439 439v292h292v-292h-292zM439 1317v292h292v-292h-292z" />
<glyph unicode="&#x3c;" horiz-adv-x="1755" d="M0 878v292h293v-292h-293zM439 439v292h292v-292h-292zM439 1317v292h292v-292h-292zM878 0v293h292v-293h-292zM878 1755v293h292v-293h-292z" />
<glyph unicode="=" d="M0 439v292h293v-292h-293zM0 1317v292h293v-292h-293zM439 439v292h292v-292h-292zM439 1317v292h292v-292h-292zM878 439v292h292v-292h-292zM878 1317v292h292v-292h-292zM1317 439v292h292v-292h-292zM1317 1317v292h292v-292h-292zM1755 439v292h293v-292h-293z M1755 1317v292h293v-292h-293z" />
<glyph unicode="&#x3e;" horiz-adv-x="1755" d="M0 0v293h293v-293h-293zM0 1755v293h293v-293h-293zM439 439v292h292v-292h-292zM439 1317v292h292v-292h-292zM878 878v292h292v-292h-292z" />
<glyph unicode="?" d="M0 1317v292h293v-292h-293zM439 1755v293h292v-293h-292zM878 0v293h292v-293h-292zM878 439v292h292v-292h-292zM878 1755v293h292v-293h-292zM1317 878v292h292v-292h-292zM1317 1755v293h292v-293h-292zM1755 1317v292h293v-292h-293z" />
<glyph unicode="@" d="M0 439v292h293v-292h-293zM0 878v292h293v-292h-293zM0 1317v292h293v-292h-293zM439 0v293h292v-293h-292zM439 1755v293h292v-293h-292zM878 0v293h292v-293h-292zM878 439v292h292v-292h-292zM878 878v292h292v-292h-292zM878 1755v293h292v-293h-292zM1317 0v293h292 v-293h-292zM1317 1317v292h292v-292h-292zM1317 1755v293h292v-293h-292zM1755 0v293h293v-293h-293zM1755 439v292h293v-292h-293zM1755 878v292h293v-292h-293zM1755 1317v292h293v-292h-293z" />
<glyph unicode="A" d="M0 0v293h293v-293h-293zM0 439v292h293v-292h-293zM0 878v292h293v-292h-293zM0 1317v292h293v-292h-293zM439 878v292h292v-292h-292zM439 1755v293h292v-293h-292zM878 878v292h292v-292h-292zM878 1755v293h292v-293h-292zM1317 878v292h292v-292h-292zM1317 1755v293 h292v-293h-292zM1755 0v293h293v-293h-293zM1755 439v292h293v-292h-293zM1755 878v292h293v-292h-293zM1755 1317v292h293v-292h-293z" />
<glyph unicode="B" d="M0 0v293h293v-293h-293zM0 439v292h293v-292h-293zM0 878v292h293v-292h-293zM0 1317v292h293v-292h-293zM0 1755v293h293v-293h-293zM439 0v293h292v-293h-292zM439 878v292h292v-292h-292zM439 1755v293h292v-293h-292zM878 0v293h292v-293h-292zM878 878v292h292v-292 h-292zM878 1755v293h292v-293h-292zM1317 0v293h292v-293h-292zM1317 878v292h292v-292h-292zM1317 1755v293h292v-293h-292zM1755 439v292h293v-292h-293zM1755 1317v292h293v-292h-293z" />
<glyph unicode="C" d="M0 439v292h293v-292h-293zM0 878v292h293v-292h-293zM0 1317v292h293v-292h-293zM439 0v293h292v-293h-292zM439 1755v293h292v-293h-292zM878 0v293h292v-293h-292zM878 1755v293h292v-293h-292zM1317 0v293h292v-293h-292zM1317 1755v293h292v-293h-292zM1755 0v293 h293v-293h-293zM1755 1755v293h293v-293h-293z" />
<glyph unicode="D" d="M0 0v293h293v-293h-293zM0 439v292h293v-292h-293zM0 878v292h293v-292h-293zM0 1317v292h293v-292h-293zM0 1755v293h293v-293h-293zM439 0v293h292v-293h-292zM439 1755v293h292v-293h-292zM878 0v293h292v-293h-292zM878 1755v293h292v-293h-292zM1317 0v293h292v-293 h-292zM1317 1755v293h292v-293h-292zM1755 439v292h293v-292h-293zM1755 878v292h293v-292h-293zM1755 1317v292h293v-292h-293z" />
<glyph unicode="E" d="M0 0v293h293v-293h-293zM0 439v292h293v-292h-293zM0 878v292h293v-292h-293zM0 1317v292h293v-292h-293zM0 1755v293h293v-293h-293zM439 0v293h292v-293h-292zM439 878v292h292v-292h-292zM439 1755v293h292v-293h-292zM878 0v293h292v-293h-292zM878 878v292h292v-292 h-292zM878 1755v293h292v-293h-292zM1317 0v293h292v-293h-292zM1317 878v292h292v-292h-292zM1317 1755v293h292v-293h-292zM1755 0v293h293v-293h-293zM1755 878v292h293v-292h-293zM1755 1755v293h293v-293h-293z" />
<glyph unicode="F" d="M0 0v293h293v-293h-293zM0 439v292h293v-292h-293zM0 878v292h293v-292h-293zM0 1317v292h293v-292h-293zM0 1755v293h293v-293h-293zM439 878v292h292v-292h-292zM439 1755v293h292v-293h-292zM878 878v292h292v-292h-292zM878 1755v293h292v-293h-292zM1317 878v292 h292v-292h-292zM1317 1755v293h292v-293h-292zM1755 878v292h293v-292h-293zM1755 1755v293h293v-293h-293z" />
<glyph unicode="G" d="M0 439v292h293v-292h-293zM0 878v292h293v-292h-293zM0 1317v292h293v-292h-293zM439 0v293h292v-293h-292zM439 1755v293h292v-293h-292zM878 0v293h292v-293h-292zM878 1755v293h292v-293h-292zM1317 0v293h292v-293h-292zM1317 878v292h292v-292h-292zM1317 1755v293 h292v-293h-292zM1755 439v292h293v-292h-293zM1755 878v292h293v-292h-293zM1755 1755v293h293v-293h-293z" />
<glyph unicode="H" d="M0 0v293h293v-293h-293zM0 439v292h293v-292h-293zM0 878v292h293v-292h-293zM0 1317v292h293v-292h-293zM0 1755v293h293v-293h-293zM439 878v292h292v-292h-292zM878 878v292h292v-292h-292zM1317 878v292h292v-292h-292zM1755 0v293h293v-293h-293zM1755 439v292h293 v-292h-293zM1755 878v292h293v-292h-293zM1755 1317v292h293v-292h-293zM1755 1755v293h293v-293h-293z" />
<glyph unicode="I" horiz-adv-x="877" d="M0 0v293h293v-293h-293zM0 439v292h293v-292h-293zM0 878v292h293v-292h-293zM0 1317v292h293v-292h-293zM0 1755v293h293v-293h-293z" />
<glyph unicode="J" horiz-adv-x="2194" d="M0 0v293h293v-293h-293zM439 0v293h292v-293h-292zM878 0v293h292v-293h-292zM1317 439v292h292v-292h-292zM1317 878v292h292v-292h-292zM1317 1317v292h292v-292h-292zM1317 1755v293h292v-293h-292z" />
<glyph unicode="K" d="M0 0v293h293v-293h-293zM0 439v292h293v-292h-293zM0 878v292h293v-292h-293zM0 1317v292h293v-292h-293zM0 1755v293h293v-293h-293zM439 878v292h292v-292h-292zM878 878v292h292v-292h-292zM1317 439v292h292v-292h-292zM1317 1317v292h292v-292h-292zM1755 0v293h293 v-293h-293zM1755 1755v293h293v-293h-293z" />
<glyph unicode="L" horiz-adv-x="2194" d="M0 0v293h293v-293h-293zM0 439v292h293v-292h-293zM0 878v292h293v-292h-293zM0 1317v292h293v-292h-293zM0 1755v293h293v-293h-293zM439 0v293h292v-293h-292zM878 0v293h292v-293h-292zM1317 0v293h292v-293h-292z" />
<glyph unicode="M" d="M0 0v293h293v-293h-293zM0 439v292h293v-292h-293zM0 878v292h293v-292h-293zM0 1317v292h293v-292h-293zM0 1755v293h293v-293h-293zM439 1317v292h292v-292h-292zM878 878v292h292v-292h-292zM1317 1317v292h292v-292h-292zM1755 0v293h293v-293h-293zM1755 439v292 h293v-292h-293zM1755 878v292h293v-292h-293zM1755 1317v292h293v-292h-293zM1755 1755v293h293v-293h-293z" />
<glyph unicode="N" d="M0 0v293h293v-293h-293zM0 439v292h293v-292h-293zM0 878v292h293v-292h-293zM0 1317v292h293v-292h-293zM0 1755v293h293v-293h-293zM439 1317v292h292v-292h-292zM878 878v292h292v-292h-292zM1317 439v292h292v-292h-292zM1755 0v293h293v-293h-293zM1755 439v292h293 v-292h-293zM1755 878v292h293v-292h-293zM1755 1317v292h293v-292h-293zM1755 1755v293h293v-293h-293z" />
<glyph unicode="O" d="M0 439v292h293v-292h-293zM0 878v292h293v-292h-293zM0 1317v292h293v-292h-293zM439 0v293h292v-293h-292zM439 1755v293h292v-293h-292zM878 0v293h292v-293h-292zM878 1755v293h292v-293h-292zM1317 0v293h292v-293h-292zM1317 1755v293h292v-293h-292zM1755 439v292 h293v-292h-293zM1755 878v292h293v-292h-293zM1755 1317v292h293v-292h-293z" />
<glyph unicode="P" d="M0 0v293h293v-293h-293zM0 439v292h293v-292h-293zM0 878v292h293v-292h-293zM0 1317v292h293v-292h-293zM0 1755v293h293v-293h-293zM439 878v292h292v-292h-292zM439 1755v293h292v-293h-292zM878 878v292h292v-292h-292zM878 1755v293h292v-293h-292zM1317 878v292 h292v-292h-292zM1317 1755v293h292v-293h-292zM1755 1317v292h293v-292h-293z" />
<glyph unicode="Q" d="M0 439v292h293v-292h-293zM0 878v292h293v-292h-293zM0 1317v292h293v-292h-293zM439 0v293h292v-293h-292zM439 1755v293h292v-293h-292zM878 0v293h292v-293h-292zM878 1755v293h292v-293h-292zM1317 0v293h292v-293h-292zM1317 1755v293h292v-293h-292zM1755 -146h293 v-293h-293v293zM1755 439v292h293v-292h-293zM1755 878v292h293v-292h-293zM1755 1317v292h293v-292h-293z" />
<glyph unicode="R" d="M0 0v293h293v-293h-293zM0 439v292h293v-292h-293zM0 878v292h293v-292h-293zM0 1317v292h293v-292h-293zM0 1755v293h293v-293h-293zM439 878v292h292v-292h-292zM439 1755v293h292v-293h-292zM878 878v292h292v-292h-292zM878 1755v293h292v-293h-292zM1317 878v292 h292v-292h-292zM1317 1755v293h292v-293h-292zM1755 0v293h293v-293h-293zM1755 439v292h293v-292h-293zM1755 1317v292h293v-292h-293z" />
<glyph unicode="S" d="M0 0v293h293v-293h-293zM0 1317v292h293v-292h-293zM439 0v293h292v-293h-292zM439 878v292h292v-292h-292zM439 1755v293h292v-293h-292zM878 0v293h292v-293h-292zM878 878v292h292v-292h-292zM878 1755v293h292v-293h-292zM1317 0v293h292v-293h-292zM1317 878v292 h292v-292h-292zM1317 1755v293h292v-293h-292zM1755 439v292h293v-292h-293zM1755 1755v293h293v-293h-293z" />
<glyph unicode="T" d="M0 1755v293h293v-293h-293zM439 1755v293h292v-293h-292zM878 0v293h292v-293h-292zM878 439v292h292v-292h-292zM878 878v292h292v-292h-292zM878 1317v292h292v-292h-292zM878 1755v293h292v-293h-292zM1317 1755v293h292v-293h-292zM1755 1755v293h293v-293h-293z" />
<glyph unicode="U" d="M0 439v292h293v-292h-293zM0 878v292h293v-292h-293zM0 1317v292h293v-292h-293zM0 1755v293h293v-293h-293zM439 0v293h292v-293h-292zM878 0v293h292v-293h-292zM1317 0v293h292v-293h-292zM1755 439v292h293v-292h-293zM1755 878v292h293v-292h-293zM1755 1317v292 h293v-292h-293zM1755 1755v293h293v-293h-293z" />
<glyph unicode="V" d="M0 878v292h293v-292h-293zM0 1317v292h293v-292h-293zM0 1755v293h293v-293h-293zM439 439v292h292v-292h-292zM878 0v293h292v-293h-292zM1317 439v292h292v-292h-292zM1755 878v292h293v-292h-293zM1755 1317v292h293v-292h-293zM1755 1755v293h293v-293h-293z" />
<glyph unicode="W" d="M0 0v293h293v-293h-293zM0 439v292h293v-292h-293zM0 878v292h293v-292h-293zM0 1317v292h293v-292h-293zM0 1755v293h293v-293h-293zM439 439v292h292v-292h-292zM878 878v292h292v-292h-292zM1317 439v292h292v-292h-292zM1755 0v293h293v-293h-293zM1755 439v292h293 v-292h-293zM1755 878v292h293v-292h-293zM1755 1317v292h293v-292h-293zM1755 1755v293h293v-293h-293z" />
<glyph unicode="X" d="M0 0v293h293v-293h-293zM0 1755v293h293v-293h-293zM439 439v292h292v-292h-292zM439 1317v292h292v-292h-292zM878 878v292h292v-292h-292zM1317 439v292h292v-292h-292zM1317 1317v292h292v-292h-292zM1755 0v293h293v-293h-293zM1755 1755v293h293v-293h-293z" />
<glyph unicode="Y" d="M0 1755v293h293v-293h-293zM439 1317v292h292v-292h-292zM878 0v293h292v-293h-292zM878 439v292h292v-292h-292zM878 878v292h292v-292h-292zM1317 1317v292h292v-292h-292zM1755 1755v293h293v-293h-293z" />
<glyph unicode="Z" d="M0 0v293h293v-293h-293zM0 1755v293h293v-293h-293zM439 0v293h292v-293h-292zM439 439v292h292v-292h-292zM439 1755v293h292v-293h-292zM878 0v293h292v-293h-292zM878 878v292h292v-292h-292zM878 1755v293h292v-293h-292zM1317 0v293h292v-293h-292zM1317 1317v292 h292v-292h-292zM1317 1755v293h292v-293h-292zM1755 0v293h293v-293h-293zM1755 1755v293h293v-293h-293z" />
<glyph unicode="[" horiz-adv-x="1755" d="M0 0v293h293v-293h-293zM0 439v292h293v-292h-293zM0 878v292h293v-292h-293zM0 1317v292h293v-292h-293zM0 1755v293h293v-293h-293zM439 0v293h292v-293h-292zM439 1755v293h292v-293h-292zM878 0v293h292v-293h-292zM878 1755v293h292v-293h-292z" />
<glyph unicode="\" d="M0 1755v293h293v-293h-293zM439 1317v292h292v-292h-292zM878 878v292h292v-292h-292zM1317 439v292h292v-292h-292zM1755 0v293h293v-293h-293z" />
<glyph unicode="]" horiz-adv-x="1755" d="M0 0v293h293v-293h-293zM0 1755v293h293v-293h-293zM439 0v293h292v-293h-292zM439 1755v293h292v-293h-292zM878 0v293h292v-293h-292zM878 439v292h292v-292h-292zM878 878v292h292v-292h-292zM878 1317v292h292v-292h-292zM878 1755v293h292v-293h-292z" />
<glyph unicode="^" horiz-adv-x="1755" d="M0 1317v292h293v-292h-293zM439 1755v293h292v-293h-292zM878 1317v292h292v-292h-292z" />
<glyph unicode="_" d="M0 0v293h293v-293h-293zM0 -146h293v-293h-293v293zM0 439v292h293v-292h-293zM0 878v292h293v-292h-293zM0 1317v292h293v-292h-293zM0 1755v293h293v-293h-293zM439 0v293h292v-293h-292zM439 -146h292v-293h-292v293zM439 439v292h292v-292h-292zM439 878v292h292 v-292h-292zM439 1317v292h292v-292h-292zM439 1755v293h292v-293h-292zM878 0v293h292v-293h-292zM878 -146h292v-293h-292v293zM878 439v292h292v-292h-292zM878 878v292h292v-292h-292zM878 1317v292h292v-292h-292zM878 1755v293h292v-293h-292zM1317 0v293h292v-293 h-292zM1317 -146h292v-293h-292v293zM1317 439v292h292v-292h-292zM1317 878v292h292v-292h-292zM1317 1317v292h292v-292h-292zM1317 1755v293h292v-293h-292zM1755 0v293h293v-293h-293zM1755 -146h293v-293h-293v293zM1755 439v292h293v-292h-293zM1755 878v292h293v-292 h-293zM1755 1317v292h293v-292h-293zM1755 1755v293h293v-293h-293zM2194 0v293h293v-293h-293zM2194 -146h293v-293h-293v293zM2194 439v292h293v-292h-293zM2194 878v292h293v-292h-293zM2194 1317v292h293v-292h-293zM2194 1755v293h293v-293h-293z" />
<glyph unicode="`" horiz-adv-x="1316" d="M0 1755v293h293v-293h-293zM439 1317v292h292v-292h-292z" />
<glyph unicode="a" horiz-adv-x="2194" d="M0 0v293h293v-293h-293zM0 439v292h293v-292h-293zM0 1317v292h293v-292h-293zM439 0v293h292v-293h-292zM439 878v292h292v-292h-292zM439 1317v292h292v-292h-292zM878 0v293h292v-293h-292zM878 1317v292h292v-292h-292zM1317 0v293h292v-293h-292zM1317 439v292h292 v-292h-292zM1317 878v292h292v-292h-292z" />
<glyph unicode="b" horiz-adv-x="2194" d="M0 0v293h293v-293h-293zM0 439v292h293v-292h-293zM0 878v292h293v-292h-293zM0 1317v292h293v-292h-293zM0 1755v293h293v-293h-293zM439 0v293h292v-293h-292zM439 1317v292h292v-292h-292zM878 0v293h292v-293h-292zM878 1317v292h292v-292h-292zM1317 439v292h292 v-292h-292zM1317 878v292h292v-292h-292z" />
<glyph unicode="c" horiz-adv-x="2194" d="M0 439v292h293v-292h-293zM0 878v292h293v-292h-293zM439 0v293h292v-293h-292zM439 1317v292h292v-292h-292zM878 0v293h292v-293h-292zM878 1317v292h292v-292h-292zM1317 0v293h292v-293h-292zM1317 1317v292h292v-292h-292z" />
<glyph unicode="d" horiz-adv-x="2194" d="M0 439v292h293v-292h-293zM0 878v292h293v-292h-293zM439 0v293h292v-293h-292zM439 1317v292h292v-292h-292zM878 0v293h292v-293h-292zM878 1317v292h292v-292h-292zM1317 0v293h292v-293h-292zM1317 439v292h292v-292h-292zM1317 878v292h292v-292h-292zM1317 1317 v292h292v-292h-292zM1317 1755v293h292v-293h-292z" />
<glyph unicode="e" horiz-adv-x="2194" d="M0 439v292h293v-292h-293zM0 878v292h293v-292h-293zM439 0v293h292v-293h-292zM439 1317v292h292v-292h-292zM878 0v293h292v-293h-292zM878 439v292h292v-292h-292zM878 1317v292h292v-292h-292zM1317 0v293h292v-293h-292zM1317 878v292h292v-292h-292zM1317 1317v292 h292v-292h-292z" />
<glyph unicode="f" horiz-adv-x="2194" d="M0 0v293h293v-293h-293zM0 439v292h293v-292h-293zM0 878v292h293v-292h-293zM0 1317v292h293v-292h-293zM439 878v292h292v-292h-292zM439 1755v293h292v-293h-292zM878 878v292h292v-292h-292zM878 1755v293h292v-293h-292zM1317 878v292h292v-292h-292zM1317 1755v293 h292v-293h-292z" />
<glyph unicode="g" horiz-adv-x="2194" d="M0 439v292h293v-292h-293zM0 878v292h293v-292h-293zM439 0v293h292v-293h-292zM439 1317v292h292v-292h-292zM878 0v293h292v-293h-292zM878 -146h292v-293h-292v293zM878 1317v292h292v-292h-292zM1317 0v293h292v-293h-292zM1317 439v292h292v-292h-292zM1317 878v292 h292v-292h-292z" />
<glyph unicode="h" horiz-adv-x="2194" d="M0 0v293h293v-293h-293zM0 439v292h293v-292h-293zM0 878v292h293v-292h-293zM0 1317v292h293v-292h-293zM0 1755v293h293v-293h-293zM439 1317v292h292v-292h-292zM878 1317v292h292v-292h-292zM1317 0v293h292v-293h-292zM1317 439v292h292v-292h-292zM1317 878v292 h292v-292h-292z" />
<glyph unicode="i" horiz-adv-x="877" d="M0 0v293h293v-293h-293zM0 439v292h293v-292h-293zM0 878v292h293v-292h-293zM0 1755v293h293v-293h-293z" />
<glyph unicode="j" horiz-adv-x="1316" d="M0 -146h293v-293h-293v293zM439 0v293h292v-293h-292zM439 439v292h292v-292h-292zM439 878v292h292v-292h-292zM439 1755v293h292v-293h-292z" />
<glyph unicode="k" horiz-adv-x="2194" d="M0 0v293h293v-293h-293zM0 439v292h293v-292h-293zM0 878v292h293v-292h-293zM0 1317v292h293v-292h-293zM0 1755v293h293v-293h-293zM439 878v292h292v-292h-292zM878 439v292h292v-292h-292zM878 878v292h292v-292h-292zM1317 0v293h292v-293h-292zM1317 1317v292h292 v-292h-292z" />
<glyph unicode="l" horiz-adv-x="1316" d="M0 439v292h293v-292h-293zM0 878v292h293v-292h-293zM0 1317v292h293v-292h-293zM0 1755v293h293v-293h-293zM439 0v293h292v-293h-292z" />
<glyph unicode="m" d="M0 0v293h293v-293h-293zM0 439v292h293v-292h-293zM0 878v292h293v-292h-293zM0 1317v292h293v-292h-293zM439 1317v292h292v-292h-292zM878 0v293h292v-293h-292zM878 439v292h292v-292h-292zM878 878v292h292v-292h-292zM878 1317v292h292v-292h-292zM1317 1317v292 h292v-292h-292zM1755 0v293h293v-293h-293zM1755 439v292h293v-292h-293zM1755 878v292h293v-292h-293z" />
<glyph unicode="n" horiz-adv-x="2194" d="M0 0v293h293v-293h-293zM0 439v292h293v-292h-293zM0 878v292h293v-292h-293zM0 1317v292h293v-292h-293zM439 1317v292h292v-292h-292zM878 1317v292h292v-292h-292zM1317 0v293h292v-293h-292zM1317 439v292h292v-292h-292zM1317 878v292h292v-292h-292z" />
<glyph unicode="o" horiz-adv-x="2194" d="M0 439v292h293v-292h-293zM0 878v292h293v-292h-293zM439 0v293h292v-293h-292zM439 1317v292h292v-292h-292zM878 0v293h292v-293h-292zM878 1317v292h292v-292h-292zM1317 439v292h292v-292h-292zM1317 878v292h292v-292h-292z" />
<glyph unicode="p" horiz-adv-x="2194" d="M0 0v293h293v-293h-293zM0 -146h293v-293h-293v293zM0 439v292h293v-292h-293zM0 878v292h293v-292h-293zM0 1317v292h293v-292h-293zM439 0v293h292v-293h-292zM439 1317v292h292v-292h-292zM878 0v293h292v-293h-292zM878 1317v292h292v-292h-292zM1317 439v292h292 v-292h-292zM1317 878v292h292v-292h-292z" />
<glyph unicode="q" horiz-adv-x="2194" d="M0 439v292h293v-292h-293zM0 878v292h293v-292h-293zM439 0v293h292v-293h-292zM439 1317v292h292v-292h-292zM878 0v293h292v-293h-292zM878 1317v292h292v-292h-292zM1317 0v293h292v-293h-292zM1317 -146h292v-293h-292v293zM1317 439v292h292v-292h-292zM1317 878 v292h292v-292h-292zM1317 1317v292h292v-292h-292z" />
<glyph unicode="r" horiz-adv-x="2194" d="M0 0v293h293v-293h-293zM0 439v292h293v-292h-293zM0 878v292h293v-292h-293zM439 1317v292h292v-292h-292zM878 1317v292h292v-292h-292zM1317 1317v292h292v-292h-292z" />
<glyph unicode="s" horiz-adv-x="2194" d="M0 0v293h293v-293h-293zM0 1170v293h293v-293h-293zM439 0v293h292v-293h-292zM439 731v293h292v-293h-292zM439 1170v293h292v-293h-292zM878 0v293h292v-293h-292zM878 439v292h292v-292h-292zM878 1170v293h292v-293h-292zM1317 0v293h292v-293h-292zM1317 1170v293 h292v-293h-292z" />
<glyph unicode="t" horiz-adv-x="2194" d="M0 1317v292h293v-292h-293zM439 439v292h292v-292h-292zM439 878v292h292v-292h-292zM439 1317v292h292v-292h-292zM439 1755v293h292v-293h-292zM878 0v293h292v-293h-292zM878 1317v292h292v-292h-292zM1317 0v293h292v-293h-292zM1317 1317v292h292v-292h-292z" />
<glyph unicode="u" horiz-adv-x="2194" d="M0 439v292h293v-292h-293zM0 878v292h293v-292h-293zM0 1317v292h293v-292h-293zM439 0v293h292v-293h-292zM878 0v293h292v-293h-292zM1317 439v292h292v-292h-292zM1317 878v292h292v-292h-292zM1317 1317v292h292v-292h-292z" />
<glyph unicode="v" horiz-adv-x="2194" d="M0 0v293h293v-293h-293zM0 439v292h293v-292h-293zM0 878v292h293v-292h-293zM0 1317v292h293v-292h-293zM439 0v293h292v-293h-292zM878 439v292h292v-292h-292zM1317 878v292h292v-292h-292zM1317 1317v292h292v-292h-292z" />
<glyph unicode="w" d="M0 439v292h293v-292h-293zM0 878v292h293v-292h-293zM0 1317v292h293v-292h-293zM439 0v293h292v-293h-292zM878 0v293h292v-293h-292zM878 439v292h292v-292h-292zM878 878v292h292v-292h-292zM878 1317v292h292v-292h-292zM1317 0v293h292v-293h-292zM1755 439v292h293 v-292h-293zM1755 878v292h293v-292h-293zM1755 1317v292h293v-292h-293z" />
<glyph unicode="x" horiz-adv-x="2194" d="M0 0v293h293v-293h-293zM0 1317v292h293v-292h-293zM439 439v292h292v-292h-292zM439 878v292h292v-292h-292zM878 439v292h292v-292h-292zM878 878v292h292v-292h-292zM1317 0v293h292v-293h-292zM1317 1317v292h292v-292h-292z" />
<glyph unicode="y" horiz-adv-x="2194" d="M0 439v292h293v-292h-293zM0 878v292h293v-292h-293zM0 1317v292h293v-292h-293zM439 0v293h292v-293h-292zM878 0v293h292v-293h-292zM1317 0v293h292v-293h-292zM1317 -146h292v-293h-292v293zM1317 439v292h292v-292h-292zM1317 878v292h292v-292h-292zM1317 1317v292 h292v-292h-292z" />
<glyph unicode="z" horiz-adv-x="2194" d="M0 0v293h293v-293h-293zM0 1317v292h293v-292h-293zM439 0v293h292v-293h-292zM439 439v292h292v-292h-292zM439 1317v292h292v-292h-292zM878 0v293h292v-293h-292zM878 878v292h292v-292h-292zM878 1317v292h292v-292h-292zM1317 0v293h292v-293h-292zM1317 1317v292 h292v-292h-292z" />
<glyph unicode="{" horiz-adv-x="1755" d="M0 878v292h293v-292h-293zM439 0v293h292v-293h-292zM439 439v292h292v-292h-292zM439 878v292h292v-292h-292zM439 1317v292h292v-292h-292zM439 1755v293h292v-293h-292zM878 0v293h292v-293h-292zM878 1755v293h292v-293h-292z" />
<glyph unicode="|" horiz-adv-x="877" d="M0 0v293h293v-293h-293zM0 439v292h293v-292h-293zM0 878v292h293v-292h-293zM0 1317v292h293v-292h-293zM0 1755v293h293v-293h-293z" />
<glyph unicode="}" horiz-adv-x="1755" d="M0 0v293h293v-293h-293zM0 1755v293h293v-293h-293zM439 0v293h292v-293h-292zM439 439v292h292v-292h-292zM439 878v292h292v-292h-292zM439 1317v292h292v-292h-292zM439 1755v293h292v-293h-292zM878 878v292h292v-292h-292z" />
<glyph unicode="~" horiz-adv-x="2194" d="M0 878v292h293v-292h-293zM439 1317v292h292v-292h-292zM878 878v292h292v-292h-292zM1317 1317v292h292v-292h-292z" />
<glyph unicode="&#xad;" d="M0 878v292h293v-292h-293zM439 878v292h292v-292h-292zM878 878v292h292v-292h-292zM1317 878v292h292v-292h-292zM1755 878v292h293v-292h-293z" />
<glyph unicode="&#x10d0;" horiz-adv-x="2192" d="M0 439v292h293v-292h-293zM439 0v293h292v-293h-292zM439 1317v292h292v-292h-292zM878 0v293h292v-293h-292zM878 1317v292h292v-292h-292zM1317 439v292h292v-292h-292zM1317 878v292h292v-292h-292z" />
<glyph unicode="&#x10d1;" horiz-adv-x="2195" d="M0 439v292h293v-292h-293zM0 878v292h293v-292h-293zM211 1802v293h298v-293h-298zM439 0v293h292v-293h-292zM439 1317v292h292v-292h-292zM647 1754v347h298v-347h-298zM878 0v293h292v-293h-292zM878 1317v292h292v-292h-292zM1317 439v292h292v-292h-292zM1317 878 v292h292v-292h-292z" />
<glyph unicode="&#x10d2;" horiz-adv-x="2195" d="M0 -4v292h293v-292h-293zM0 434v293h293v-293h-293zM130 1270v346h306v-346h-306zM439 -151h292v-292h-292v292zM439 873v293h292v-293h-292zM575 1318v293h306v-293h-306zM878 -151h292v-292h-292v292zM878 873v293h292v-293h-292zM1317 -4v292h292v-292h-292zM1317 434 v293h292v-293h-292z" />
<glyph unicode="&#x10d3;" horiz-adv-x="2195" d="M0 41v293h293v-293h-293zM0 509v293h293v-293h-293zM0 957v292h293v-292h-293zM293 -151h292v-292h-292v292zM437 294v293h293v-293h-293zM437 1319v293h293v-293h-293zM736 -151h292v-292h-292v292zM875 294v293h292v-293h-292zM881 1319v293h292v-293h-292zM1175 -146 h292v-293h-292v293zM1318 588v293h293v-293h-293zM1318 1025v293h293v-293h-293z" />
<glyph unicode="&#x10d4;" horiz-adv-x="2195" d="M6 -140h292v-293h-292v293zM6 885v293h292v-293h-292zM445 -140h292v-293h-292v293zM445 1322v293h292v-293h-292zM884 -140h292v-293h-292v293zM884 1322v293h292v-293h-292zM1322 6v292h293v-292h-293zM1322 445v292h293v-292h-293zM1322 884v292h293v-292h-293z" />
<glyph unicode="&#x10d5;" horiz-adv-x="2195" d="M6 -140h292v-293h-292v293zM6 885v293h292v-293h-292zM445 -140h292v-293h-292v293zM445 1322v293h292v-293h-292zM884 -140h292v-293h-292v293zM884 1322v293h292v-293h-292zM885 660v292h293v-292h-293zM1322 6v292h293v-292h-293zM1322 445v292h293v-292h-293z M1322 884v292h293v-292h-293z" />
<glyph unicode="&#x10d6;" horiz-adv-x="2488" d="M-146 1461v293h292v-293h-292zM225 1897v293h293v-293h-293zM290 148v292h292v-292h-292zM295 587v292h293v-292h-293zM295 1024v293h293v-293h-293zM590 1466v292h292v-292h-292zM729 0v293h292v-293h-292zM729 1025v293h292v-293h-292zM1170 0v293h293v-293h-293z M1172 1025v293h292v-293h-292zM1600 298v293h293v-293h-293zM1605 731v293h292v-293h-292z" />
<glyph unicode="&#x10d7;" d="M0 439v292h293v-292h-293zM0 878v292h293v-292h-293zM439 0v293h292v-293h-292zM439 1317v292h292v-292h-292zM878 439v292h292v-292h-292zM878 878v292h292v-292h-292zM878 1317v292h292v-292h-292zM1317 1317v292h292v-292h-292zM1755 0v293h293v-293h-293zM1755 439 v292h293v-292h-293zM1755 878v292h293v-292h-293z" />
<glyph unicode="&#x10d8;" horiz-adv-x="2195" d="M0 0v293h293v-293h-293zM0 439v292h293v-292h-293zM0 878v292h293v-292h-293zM439 1317v292h292v-292h-292zM878 1317v292h292v-292h-292zM1317 0v293h292v-293h-292zM1317 439v292h292v-292h-292zM1317 878v292h292v-292h-292z" />
<glyph unicode="&#x10d9;" horiz-adv-x="2194" d="M0 0v293h293v-293h-293zM0 -146h293v-293h-293v293zM439 -146h292v-293h-292v293zM878 -146h292v-293h-292v293zM878 878v292h292v-292h-292zM1317 0v293h292v-293h-292zM1317 445v292h292v-292h-292zM1317 878v292h292v-292h-292zM1317 1317v292h292v-292h-292z" />
<glyph unicode="&#x10da;" horiz-adv-x="2194" d="M0 41v293h293v-293h-293zM0 509v293h293v-293h-293zM0 957v292h293v-292h-293zM293 -151h292v-292h-292v292zM437 1319v293h293v-293h-293zM736 -151h292v-292h-292v292zM881 1319v293h292v-293h-292zM1175 -146h292v-293h-292v293zM1318 588v293h293v-293h-293z M1318 1025v293h293v-293h-293z" />
<glyph unicode="&#x10db;" horiz-adv-x="2194" d="M0 287v292h293v-292h-293zM0 724v293h293v-293h-293zM146 1609v293h293v-293h-293zM437 -7v292h293v-292h-293zM443 1018v293h293v-293h-293zM582 1755v293h293v-293h-293zM881 -7v292h292v-292h-292zM881 1018v293h292v-293h-292zM1025 1755v293h293v-293h-293z M1318 355v293h293v-293h-293zM1318 803v293h293v-293h-293zM1318 1271v293h293v-293h-293z" />
<glyph unicode="&#x10dc;" horiz-adv-x="2194" d="M0 355v293h293v-293h-293zM0 803v293h293v-293h-293zM0 1271v293h293v-293h-293zM293 1755v293h292v-293h-292zM437 -7v292h293v-292h-293zM437 1018v293h293v-293h-293zM736 1755v293h292v-293h-292zM875 1018v293h292v-293h-292zM881 -7v292h292v-292h-292zM1170 1753 v292h293v-292h-293zM1318 287v292h293v-292h-293zM1318 724v293h293v-293h-293z" />
<glyph unicode="&#x10dd;" horiz-adv-x="2194" d="M0 0v293h293v-293h-293zM0 439v292h293v-292h-293zM0 878v292h293v-292h-293zM293 1317v292h292v-292h-292zM666 878v292h292v-292h-292zM1024 1317v292h293v-292h-293zM1317 0v293h292v-293h-292zM1317 439v292h292v-292h-292zM1317 878v292h292v-292h-292z" />
<glyph unicode="&#x10de;" horiz-adv-x="2194" d="M0 294v293h293v-293h-293zM437 0v293h293v-293h-293zM585 1760v292h293v-292h-293zM881 0v293h292v-293h-292zM881 1025v293h292v-293h-292zM1024 1760v292h293v-292h-293zM1318 363v292h293v-292h-293zM1318 810v293h293v-293h-293zM1318 1279v292h293v-292h-293z" />
<glyph unicode="&#x10df;" horiz-adv-x="2194" d="M0 0v293h293v-293h-293zM0 -146h293v-293h-293v293zM293 731v293h292v-293h-292zM439 -146h292v-293h-292v293zM731 731v293h293v-293h-293zM878 -146h292v-293h-292v293zM878 1170v293h292v-293h-292zM1317 0v293h292v-293h-292zM1317 445v292h292v-292h-292zM1317 878 v292h292v-292h-292zM1317 1317v292h292v-292h-292z" />
<glyph unicode="&#x10e0;" horiz-adv-x="2194" d="M0 0v293h293v-293h-293zM0 439v292h293v-292h-293zM0 878v292h293v-292h-293zM0 1317v292h293v-292h-293zM439 878v292h292v-292h-292zM439 1758v293h292v-293h-292zM878 878v292h292v-292h-292zM882 1758v293h293v-293h-293zM1317 0v293h292v-293h-292zM1317 439v292 h292v-292h-292zM1317 1755v293h292v-293h-292zM1318 870v293h293v-293h-293z" />
<glyph unicode="&#x10e1;" horiz-adv-x="2194" d="M0 439v292h293v-292h-293zM0 878v292h293v-292h-293zM0 1317v292h293v-292h-293zM0 1755v293h293v-293h-293zM439 0v293h292v-293h-292zM878 0v293h292v-293h-292zM1317 439v292h292v-292h-292zM1318 870v293h293v-293h-293z" />
<glyph unicode="&#x10e2;" horiz-adv-x="2048" d="M0 -146v292h293v-292h-293zM0 293v292h293v-292h-293zM0 731v293h293v-293h-293zM437 -146h587v-293h-587v293zM581 1170v293h292v-293h-292zM585 731v293h293v-293h-293zM1170 -146v292h293v-292h-293zM1170 293v292h293v-292h-293zM1170 731v293h293v-293h-293z" />
<glyph unicode="&#x10e3;" horiz-adv-x="2194" d="M0 878v292h293v-292h-293zM0 1317v292h293v-292h-293zM6 -140h292v-293h-292v293zM293 439v292h292v-292h-292zM445 -140h292v-293h-292v293zM585 878v292h293v-292h-293zM585 1317v292h293v-292h-293zM878 439v292h292v-292h-292zM884 -140h292v-293h-292v293z M1317 1317v292h292v-292h-292zM1322 6v292h293v-292h-293zM1322 445v292h293v-292h-293zM1322 884v292h293v-292h-293z" />
<glyph unicode="&#x10e4;" horiz-adv-x="2925" d="M0 439v292h293v-292h-293zM0 878v292h293v-292h-293zM439 146v293h292v-293h-292zM439 1317v292h292v-292h-292zM878 439v292h292v-292h-292zM878 878v292h292v-292h-292zM878 1317v292h292v-292h-292zM1170 -146h293v-293h-293v293zM1317 1317v292h292v-292h-292z M1609 -146h293v-293h-293v293zM1609 439v292h293v-292h-293zM1755 1317v292h293v-292h-293zM2048 0v293h293v-293h-293zM2048 -146h293v-293h-293v293zM2048 439v292h293v-292h-293zM2048 878v292h293v-292h-293z" />
<glyph unicode="&#x10e5;" horiz-adv-x="2194" d="M0 0v293h293v-293h-293zM0 -146h293v-293h-293v293zM439 -146h292v-293h-292v293zM439 585v293h292v-293h-292zM439 1024v293h292v-293h-292zM878 -146h292v-293h-292v293zM878 1024v293h292v-293h-292zM1317 0v293h292v-293h-292zM1317 445v292h292v-292h-292zM1317 878 v292h292v-292h-292zM1317 1317v292h292v-292h-292zM1317 1755v293h292v-293h-292z" />
<glyph unicode="&#x10e6;" horiz-adv-x="2340" d="M0 41v293h293v-293h-293zM0 509v293h293v-293h-293zM0 957v292h293v-292h-293zM293 -151h292v-292h-292v292zM437 1319v293h293v-293h-293zM731 878v292h293v-292h-293zM736 -151h292v-292h-292v292zM1025 1317v292h293v-292h-293zM1175 -146h292v-293h-292v293z M1463 585v293h292v-293h-292zM1463 1023v292h292v-292h-292z" />
<glyph unicode="&#x10e7;" horiz-adv-x="2194" d="M0 879v293h293v-293h-293zM0 1317v292h293v-292h-293zM145 -146h292v-293h-292v293zM437 585v293h293v-293h-293zM584 -151h292v-292h-292v292zM881 585v293h292v-293h-292zM1027 -151h292v-292h-292v292zM1319 0v293h293v-293h-293zM1319 439v292h293v-292h-293z M1319 878v292h293v-292h-293zM1319 1317v292h293v-292h-293z" />
<glyph unicode="&#x10e8;" horiz-adv-x="2194" d="M0 287v292h293v-292h-293zM0 724v293h293v-293h-293zM0 1463v292h293v-292h-293zM437 -7v292h293v-292h-293zM439 1755v293h292v-293h-292zM443 1018v293h293v-293h-293zM878 1609v293h292v-293h-292zM881 -7v292h292v-292h-292zM881 1018v293h292v-293h-292zM1317 1755 v293h292v-293h-292zM1318 355v293h293v-293h-293zM1318 803v293h293v-293h-293zM1318 1271v293h293v-293h-293z" />
<glyph unicode="&#x10e9;" horiz-adv-x="2194" d="M0 0v293h293v-293h-293zM0 439v292h293v-292h-293zM0 878v292h293v-292h-293zM0 1317v292h293v-292h-293zM293 1755v293h292v-293h-292zM439 878v292h292v-292h-292zM731 1317v292h293v-292h-293zM731 1755v293h293v-293h-293zM878 878v292h292v-292h-292zM1317 0v293 h292v-293h-292zM1317 439v292h292v-292h-292zM1318 870v293h293v-293h-293z" />
<glyph unicode="&#x10ea;" horiz-adv-x="2194" d="M0 1v293h293v-293h-293zM0 439v292h293v-292h-293zM0 878v292h293v-292h-293zM0 1317v292h293v-292h-293zM437 -146h293v-293h-293v293zM878 731v293h292v-293h-292zM881 -146h292v-293h-292v293zM1024 1317v292h293v-292h-293zM1317 0v293h292v-293h-292zM1317 439v292 h292v-292h-292zM1317 878v292h292v-292h-292z" />
<glyph unicode="&#x10eb;" horiz-adv-x="2194" d="M0 293v292h293v-292h-293zM0 731v293h293v-293h-293zM439 0v293h292v-293h-292zM443 1018v293h293v-293h-293zM881 -7v292h292v-292h-292zM881 1018v293h292v-293h-292zM1317 372v292h292v-292h-292zM1317 812v292h292v-292h-292zM1317 1255v293h292v-293h-292z M1317 1693v292h292v-292h-292z" />
<glyph unicode="&#x10ec;" horiz-adv-x="2194" d="M0 355v293h293v-293h-293zM0 803v293h293v-293h-293zM0 1271v293h293v-293h-293zM1 1755v293h293v-293h-293zM437 -7v292h293v-292h-293zM437 1018v293h293v-293h-293zM440 1609v293h293v-293h-293zM875 1018v293h292v-293h-292zM879 1755v293h293v-293h-293zM881 -7v292 h292v-292h-292zM1318 287v292h293v-292h-293zM1318 724v293h293v-293h-293zM1318 1463v292h293v-292h-293z" />
<glyph unicode="&#x10ed;" horiz-adv-x="2340" d="M0 0v293h293v-293h-293zM0 -146h293v-293h-293v293zM293 878v292h292v-292h-292zM439 -146h292v-293h-292v293zM731 585v293h293v-293h-293zM731 1170v293h293v-293h-293zM878 -146h292v-293h-292v293zM1170 0v293h293v-293h-293zM1170 445v292h293v-292h-293zM1170 878 v292h293v-292h-293zM1170 1317v292h293v-292h-293zM1170 1755v293h293v-293h-293zM1609 878v292h293v-292h-293z" />
<glyph unicode="&#x10ee;" horiz-adv-x="2194" d="M0 372v292h293v-292h-293zM0 812v292h293v-292h-293zM0 1255v293h293v-293h-293zM0 1693v292h293v-292h-293zM436 -7v292h293v-292h-293zM436 1018v293h293v-293h-293zM873 1018v293h293v-293h-293zM878 0v293h292v-293h-292zM1317 293v292h292v-292h-292zM1317 731v293 h292v-293h-292z" />
<glyph unicode="&#x10ef;" horiz-adv-x="2486" d="M0 0v293h293v-293h-293zM0 -146h293v-293h-293v293zM439 -146h292v-293h-292v293zM731 1024v293h293v-293h-293zM878 -146h292v-293h-292v293zM1170 0v293h293v-293h-293zM1170 445v292h293v-292h-293zM1170 878v292h293v-292h-293zM1170 1317v292h293v-292h-293z M1170 1755v293h293v-293h-293zM1609 683v293h293v-293h-293z" />
<glyph unicode="&#x10f0;" horiz-adv-x="2194" d="M0 439v292h293v-292h-293zM437 0v293h293v-293h-293zM878 657v292h292v-292h-292zM878 1110v293h292v-293h-292zM878 1755v293h292v-293h-292zM881 0v293h292v-293h-292zM1317 439v292h292v-292h-292zM1317 878v292h292v-292h-292zM1317 1317v292h292v-292h-292z" />
<glyph unicode="&#x2000;" horiz-adv-x="1095" />
<glyph unicode="&#x2001;" horiz-adv-x="2190" />
<glyph unicode="&#x2002;" horiz-adv-x="1095" />
<glyph unicode="&#x2003;" horiz-adv-x="2190" />
<glyph unicode="&#x2004;" horiz-adv-x="730" />
<glyph unicode="&#x2005;" horiz-adv-x="547" />
<glyph unicode="&#x2006;" horiz-adv-x="365" />
<glyph unicode="&#x2007;" horiz-adv-x="365" />
<glyph unicode="&#x2008;" horiz-adv-x="273" />
<glyph unicode="&#x2009;" horiz-adv-x="438" />
<glyph unicode="&#x200a;" horiz-adv-x="121" />
<glyph unicode="&#x2010;" d="M0 878v292h293v-292h-293zM439 878v292h292v-292h-292zM878 878v292h292v-292h-292zM1317 878v292h292v-292h-292zM1755 878v292h293v-292h-293z" />
<glyph unicode="&#x2011;" d="M0 878v292h293v-292h-293zM439 878v292h292v-292h-292zM878 878v292h292v-292h-292zM1317 878v292h292v-292h-292zM1755 878v292h293v-292h-293z" />
<glyph unicode="&#x2012;" d="M0 878v292h293v-292h-293zM439 878v292h292v-292h-292zM878 878v292h292v-292h-292zM1317 878v292h292v-292h-292zM1755 878v292h293v-292h-293z" />
<glyph unicode="&#x2013;" horiz-adv-x="1609" d="M0 878v292h146v-292h-146zM220 878v292h146v-292h-146zM439 878v292h146v-292h-146zM658 878v292h146v-292h-146zM878 878v292h146v-292h-146z" />
<glyph unicode="&#x2014;" d="M0 878v292h293v-292h-293zM439 878v292h292v-292h-292zM878 878v292h292v-292h-292zM1317 878v292h292v-292h-292zM1755 878v292h293v-292h-293z" />
<glyph unicode="&#x202f;" horiz-adv-x="438" />
<glyph unicode="&#x205f;" horiz-adv-x="547" />
<glyph unicode="&#x25fc;" horiz-adv-x="1609" d="M0 0v1609h1609v-1609h-1609z" />
<glyph unicode="&#x2661;" d="M0 878v292h293v-292h-293zM439 439v292h292v-292h-292zM439 1315v293h292v-293h-292zM878 0v293h292v-293h-292zM878 1024v293h292v-293h-292zM1317 439v292h292v-292h-292zM1317 1318v293h292v-293h-292zM1755 876v293h293v-293h-293z" />
</font>
</defs>
</svg>
