<?xml version="1.0" standalone="no"?>
<!DOCTYPE svg PUBLIC "-//W3C//DTD SVG 1.1//EN" "http://www.w3.org/Graphics/SVG/1.1/DTD/svg11.dtd" >
<svg xmlns="http://www.w3.org/2000/svg" xmlns:xlink="http://www.w3.org/1999/xlink" version="1.1">
<metadata></metadata>
<defs>
<font id="mg_bitneon_hollowregular" horiz-adv-x="2633" >
<font-face units-per-em="2048" ascent="1638" descent="-410" />
<missing-glyph horiz-adv-x="1024" />
<glyph horiz-adv-x="1024" />
<glyph unicode="&#xd;" horiz-adv-x="1609" />
<glyph unicode=" "  horiz-adv-x="1024" />
<glyph unicode="&#x09;" horiz-adv-x="1024" />
<glyph unicode="&#xa0;" horiz-adv-x="1024" />
<glyph unicode="!" horiz-adv-x="877" d="M0 -18v328h328v-328h-328zM0 860v328h328v-328h-328zM0 1299v328h328v-328h-328zM0 1738v328h328v-328h-328zM35 18h258v257h-258v-257zM35 895h258v258h-258v-258zM35 1334h258v258h-258v-258zM35 1773h258v257h-258v-257z" />
<glyph unicode="&#x22;" horiz-adv-x="1755" d="M0 1299v328h328v-328h-328zM0 1738v328h328v-328h-328zM35 1334h258v258h-258v-258zM35 1773h258v257h-258v-257zM878 1299v328h327v-328h-327zM878 1738v328h327v-328h-327zM913 1334h257v258h-257v-258zM913 1773h257v257h-257v-257z" />
<glyph unicode="#" d="M0 421v328h328v-328h-328zM0 1299v328h328v-328h-328zM35 456h258v258h-258v-258zM35 1334h258v258h-258v-258zM439 -18v328h328v-328h-328zM439 421v328h328v-328h-328zM439 860v328h328v-328h-328zM439 1299v328h328v-328h-328zM439 1738v328h328v-328h-328zM474 18 h257v257h-257v-257zM474 456h257v258h-257v-258zM474 895h257v258h-257v-258zM474 1334h257v258h-257v-258zM474 1773h257v257h-257v-257zM878 421v328h327v-328h-327zM878 1299v328h327v-328h-327zM913 456h257v258h-257v-258zM913 1334h257v258h-257v-258zM1317 -18v328 h327v-328h-327zM1317 421v328h327v-328h-327zM1317 860v328h327v-328h-327zM1317 1299v328h327v-328h-327zM1317 1738v328h327v-328h-327zM1352 18h257v257h-257v-257zM1352 456h257v258h-257v-258zM1352 895h257v258h-257v-258zM1352 1334h257v258h-257v-258zM1352 1773 h257v257h-257v-257zM1755 421v328h328v-328h-328zM1755 1299v328h328v-328h-328zM1791 456h257v258h-257v-258zM1791 1334h257v258h-257v-258z" />
<glyph unicode="$" d="M0 -18v328h328v-328h-328zM0 1299v328h328v-328h-328zM35 18h258v257h-258v-257zM35 1334h258v258h-258v-258zM439 -18v328h328v-328h-328zM439 860v328h328v-328h-328zM439 1738v328h328v-328h-328zM474 18h257v257h-257v-257zM474 895h257v258h-257v-258zM474 1773h257 v257h-257v-257zM878 -18v328h327v-328h-327zM878 421v328h327v-328h-327zM878 860v328h327v-328h-327zM878 1299v328h327v-328h-327zM878 1738v328h327v-328h-327zM913 18h257v257h-257v-257zM913 456h257v258h-257v-258zM913 895h257v258h-257v-258zM913 1334h257v258h-257 v-258zM913 1773h257v257h-257v-257zM1317 -18v328h327v-328h-327zM1317 860v328h327v-328h-327zM1317 1738v328h327v-328h-327zM1352 18h257v257h-257v-257zM1352 895h257v258h-257v-258zM1352 1773h257v257h-257v-257zM1755 421v328h328v-328h-328zM1755 1738v328h328v-328 h-328zM1791 456h257v258h-257v-258zM1791 1773h257v257h-257v-257z" />
<glyph unicode="%" d="M0 -18v328h328v-328h-328zM0 1299v328h328v-328h-328zM0 1738v328h328v-328h-328zM35 18h258v257h-258v-257zM35 1334h258v258h-258v-258zM35 1773h258v257h-258v-257zM439 421v328h328v-328h-328zM439 1299v328h328v-328h-328zM439 1738v328h328v-328h-328zM474 456h257 v258h-257v-258zM474 1334h257v258h-257v-258zM474 1773h257v257h-257v-257zM878 860v328h327v-328h-327zM913 895h257v258h-257v-258zM1317 -18v328h327v-328h-327zM1317 421v328h327v-328h-327zM1317 1299v328h327v-328h-327zM1352 18h257v257h-257v-257zM1352 456h257v258 h-257v-258zM1352 1334h257v258h-257v-258zM1755 -18v328h328v-328h-328zM1755 421v328h328v-328h-328zM1755 1738v328h328v-328h-328zM1791 18h257v257h-257v-257zM1791 456h257v258h-257v-258zM1791 1773h257v257h-257v-257z" />
<glyph unicode="&#x26;" d="M0 -18v328h328v-328h-328zM0 421v328h328v-328h-328zM0 860v328h328v-328h-328zM0 1299v328h328v-328h-328zM35 18h258v257h-258v-257zM35 456h258v258h-258v-258zM35 895h258v258h-258v-258zM35 1334h258v258h-258v-258zM439 -18v328h328v-328h-328zM439 860v328h328 v-328h-328zM439 1738v328h328v-328h-328zM474 18h257v257h-257v-257zM474 895h257v258h-257v-258zM474 1773h257v257h-257v-257zM878 -18v328h327v-328h-327zM878 860v328h327v-328h-327zM878 1738v328h327v-328h-327zM913 18h257v257h-257v-257zM913 895h257v258h-257v-258 zM913 1773h257v257h-257v-257zM1317 421v328h327v-328h-327zM1317 1299v328h327v-328h-327zM1352 456h257v258h-257v-258zM1352 1334h257v258h-257v-258zM1755 -18v328h328v-328h-328zM1755 860v328h328v-328h-328zM1791 18h257v257h-257v-257zM1791 895h257v258h-257v-258z " />
<glyph unicode="'" horiz-adv-x="877" d="M0 1299v328h328v-328h-328zM0 1738v328h328v-328h-328zM35 1334h258v258h-258v-258zM35 1773h258v257h-258v-257z" />
<glyph unicode="(" horiz-adv-x="1755" d="M0 421v328h328v-328h-328zM0 860v328h328v-328h-328zM0 1299v328h328v-328h-328zM35 456h258v258h-258v-258zM35 895h258v258h-258v-258zM35 1334h258v258h-258v-258zM439 -18v328h328v-328h-328zM439 1738v328h328v-328h-328zM474 18h257v257h-257v-257zM474 1773h257 v257h-257v-257zM878 -18v328h327v-328h-327zM878 1738v328h327v-328h-327zM913 18h257v257h-257v-257zM913 1773h257v257h-257v-257z" />
<glyph unicode=")" horiz-adv-x="1755" d="M0 -18v328h328v-328h-328zM0 1738v328h328v-328h-328zM35 18h258v257h-258v-257zM35 1773h258v257h-258v-257zM439 -18v328h328v-328h-328zM439 1738v328h328v-328h-328zM474 18h257v257h-257v-257zM474 1773h257v257h-257v-257zM878 421v328h327v-328h-327zM878 860v328 h327v-328h-327zM878 1299v328h327v-328h-327zM913 456h257v258h-257v-258zM913 895h257v258h-257v-258zM913 1334h257v258h-257v-258z" />
<glyph unicode="*" d="M0 -18v328h328v-328h-328zM0 860v328h328v-328h-328zM0 1738v328h328v-328h-328zM35 18h258v257h-258v-257zM35 895h258v258h-258v-258zM35 1773h258v257h-258v-257zM439 860v328h328v-328h-328zM474 895h257v258h-257v-258zM878 -18v328h327v-328h-327zM878 421v328h327 v-328h-327zM878 860v328h327v-328h-327zM878 1299v328h327v-328h-327zM878 1738v328h327v-328h-327zM913 18h257v257h-257v-257zM913 456h257v258h-257v-258zM913 895h257v258h-257v-258zM913 1334h257v258h-257v-258zM913 1773h257v257h-257v-257zM1317 860v328h327v-328 h-327zM1352 895h257v258h-257v-258zM1755 -18v328h328v-328h-328zM1755 860v328h328v-328h-328zM1755 1738v328h328v-328h-328zM1791 18h257v257h-257v-257zM1791 895h257v258h-257v-258zM1791 1773h257v257h-257v-257z" />
<glyph unicode="+" d="M0 860v328h328v-328h-328zM35 895h258v258h-258v-258zM439 860v328h328v-328h-328zM474 895h257v258h-257v-258zM878 -18v328h327v-328h-327zM878 421v328h327v-328h-327zM878 860v328h327v-328h-327zM878 1299v328h327v-328h-327zM878 1738v328h327v-328h-327zM913 18 h257v257h-257v-257zM913 456h257v258h-257v-258zM913 895h257v258h-257v-258zM913 1334h257v258h-257v-258zM913 1773h257v257h-257v-257zM1317 860v328h327v-328h-327zM1352 895h257v258h-257v-258zM1755 860v328h328v-328h-328zM1791 895h257v258h-257v-258z" />
<glyph unicode="," horiz-adv-x="1316" d="M0 -129h328v-327h-328v327zM35 -164v-257h258v257h-258zM439 -18v328h328v-328h-328zM474 18h257v257h-257v-257z" />
<glyph unicode="-" d="M0 860v328h328v-328h-328zM35 895h258v258h-258v-258zM439 860v328h328v-328h-328zM474 895h257v258h-257v-258zM878 860v328h327v-328h-327zM913 895h257v258h-257v-258zM1317 860v328h327v-328h-327zM1352 895h257v258h-257v-258zM1755 860v328h328v-328h-328z M1791 895h257v258h-257v-258z" />
<glyph unicode="." horiz-adv-x="877" d="M0 -18v328h328v-328h-328zM35 18h258v257h-258v-257z" />
<glyph unicode="/" d="M0 -18v328h328v-328h-328zM35 18h258v257h-258v-257zM439 421v328h328v-328h-328zM474 456h257v258h-257v-258zM878 860v328h327v-328h-327zM913 895h257v258h-257v-258zM1317 1299v328h327v-328h-327zM1352 1334h257v258h-257v-258zM1755 1738v328h328v-328h-328z M1791 1773h257v257h-257v-257z" />
<glyph unicode="0" d="M0 421v328h328v-328h-328zM0 860v328h328v-328h-328zM0 1299v328h328v-328h-328zM35 456h258v258h-258v-258zM35 895h258v258h-258v-258zM35 1334h258v258h-258v-258zM439 -18v328h328v-328h-328zM439 1738v328h328v-328h-328zM474 18h257v257h-257v-257zM474 1773h257 v257h-257v-257zM878 -18v328h327v-328h-327zM878 1738v328h327v-328h-327zM913 18h257v257h-257v-257zM913 1773h257v257h-257v-257zM1317 -18v328h327v-328h-327zM1317 1738v328h327v-328h-327zM1352 18h257v257h-257v-257zM1352 1773h257v257h-257v-257zM1755 421v328h328 v-328h-328zM1755 860v328h328v-328h-328zM1755 1299v328h328v-328h-328zM1791 456h257v258h-257v-258zM1791 895h257v258h-257v-258zM1791 1334h257v258h-257v-258z" />
<glyph unicode="1" horiz-adv-x="1316" d="M0 1738v328h328v-328h-328zM35 1773h258v257h-258v-257zM439 -18v328h328v-328h-328zM439 421v328h328v-328h-328zM439 860v328h328v-328h-328zM439 1299v328h328v-328h-328zM439 1738v328h328v-328h-328zM474 18h257v257h-257v-257zM474 456h257v258h-257v-258zM474 895 h257v258h-257v-258zM474 1334h257v258h-257v-258zM474 1773h257v257h-257v-257z" />
<glyph unicode="2" d="M0 -18v328h328v-328h-328zM0 421v328h328v-328h-328zM0 1738v328h328v-328h-328zM35 18h258v257h-258v-257zM35 456h258v258h-258v-258zM35 1773h258v257h-258v-257zM439 -18v328h328v-328h-328zM439 860v328h328v-328h-328zM439 1738v328h328v-328h-328zM474 18h257v257 h-257v-257zM474 895h257v258h-257v-258zM474 1773h257v257h-257v-257zM878 -18v328h327v-328h-327zM878 860v328h327v-328h-327zM878 1738v328h327v-328h-327zM913 18h257v257h-257v-257zM913 895h257v258h-257v-258zM913 1773h257v257h-257v-257zM1317 -18v328h327v-328 h-327zM1317 860v328h327v-328h-327zM1317 1738v328h327v-328h-327zM1352 18h257v257h-257v-257zM1352 895h257v258h-257v-258zM1352 1773h257v257h-257v-257zM1755 -18v328h328v-328h-328zM1755 1299v328h328v-328h-328zM1791 18h257v257h-257v-257zM1791 1334h257v258h-257 v-258z" />
<glyph unicode="3" d="M0 -18v328h328v-328h-328zM0 1738v328h328v-328h-328zM35 18h258v257h-258v-257zM35 1773h258v257h-258v-257zM439 -18v328h328v-328h-328zM439 860v328h328v-328h-328zM439 1738v328h328v-328h-328zM474 18h257v257h-257v-257zM474 895h257v258h-257v-258zM474 1773h257 v257h-257v-257zM878 -18v328h327v-328h-327zM878 860v328h327v-328h-327zM878 1738v328h327v-328h-327zM913 18h257v257h-257v-257zM913 895h257v258h-257v-258zM913 1773h257v257h-257v-257zM1317 -18v328h327v-328h-327zM1317 860v328h327v-328h-327zM1317 1738v328h327 v-328h-327zM1352 18h257v257h-257v-257zM1352 895h257v258h-257v-258zM1352 1773h257v257h-257v-257zM1755 421v328h328v-328h-328zM1755 1299v328h328v-328h-328zM1791 456h257v258h-257v-258zM1791 1334h257v258h-257v-258z" />
<glyph unicode="4" d="M0 421v328h328v-328h-328zM0 860v328h328v-328h-328zM35 456h258v258h-258v-258zM35 895h258v258h-258v-258zM439 421v328h328v-328h-328zM439 1299v328h328v-328h-328zM474 456h257v258h-257v-258zM474 1334h257v258h-257v-258zM878 421v328h327v-328h-327zM878 1738 v328h327v-328h-327zM913 456h257v258h-257v-258zM913 1773h257v257h-257v-257zM1317 -18v328h327v-328h-327zM1317 421v328h327v-328h-327zM1317 860v328h327v-328h-327zM1317 1299v328h327v-328h-327zM1317 1738v328h327v-328h-327zM1352 18h257v257h-257v-257zM1352 456 h257v258h-257v-258zM1352 895h257v258h-257v-258zM1352 1334h257v258h-257v-258zM1352 1773h257v257h-257v-257zM1755 421v328h328v-328h-328zM1791 456h257v258h-257v-258z" />
<glyph unicode="5" d="M0 -18v328h328v-328h-328zM0 860v328h328v-328h-328zM0 1299v328h328v-328h-328zM0 1738v328h328v-328h-328zM35 18h258v257h-258v-257zM35 895h258v258h-258v-258zM35 1334h258v258h-258v-258zM35 1773h258v257h-258v-257zM439 -18v328h328v-328h-328zM439 860v328h328 v-328h-328zM439 1738v328h328v-328h-328zM474 18h257v257h-257v-257zM474 895h257v258h-257v-258zM474 1773h257v257h-257v-257zM878 -18v328h327v-328h-327zM878 860v328h327v-328h-327zM878 1738v328h327v-328h-327zM913 18h257v257h-257v-257zM913 895h257v258h-257v-258 zM913 1773h257v257h-257v-257zM1317 -18v328h327v-328h-327zM1317 860v328h327v-328h-327zM1317 1738v328h327v-328h-327zM1352 18h257v257h-257v-257zM1352 895h257v258h-257v-258zM1352 1773h257v257h-257v-257zM1755 421v328h328v-328h-328zM1755 1738v328h328v-328h-328 zM1791 456h257v258h-257v-258zM1791 1773h257v257h-257v-257z" />
<glyph unicode="6" d="M0 421v328h328v-328h-328zM0 860v328h328v-328h-328zM0 1299v328h328v-328h-328zM35 456h258v258h-258v-258zM35 895h258v258h-258v-258zM35 1334h258v258h-258v-258zM439 -18v328h328v-328h-328zM439 860v328h328v-328h-328zM439 1738v328h328v-328h-328zM474 18h257 v257h-257v-257zM474 895h257v258h-257v-258zM474 1773h257v257h-257v-257zM878 -18v328h327v-328h-327zM878 860v328h327v-328h-327zM878 1738v328h327v-328h-327zM913 18h257v257h-257v-257zM913 895h257v258h-257v-258zM913 1773h257v257h-257v-257zM1317 -18v328h327 v-328h-327zM1317 860v328h327v-328h-327zM1317 1738v328h327v-328h-327zM1352 18h257v257h-257v-257zM1352 895h257v258h-257v-258zM1352 1773h257v257h-257v-257zM1755 421v328h328v-328h-328zM1755 1738v328h328v-328h-328zM1791 456h257v258h-257v-258zM1791 1773h257 v257h-257v-257z" />
<glyph unicode="7" d="M0 1738v328h328v-328h-328zM35 1773h258v257h-258v-257zM439 -18v328h328v-328h-328zM439 1738v328h328v-328h-328zM474 18h257v257h-257v-257zM474 1773h257v257h-257v-257zM878 421v328h327v-328h-327zM878 1738v328h327v-328h-327zM913 456h257v258h-257v-258z M913 1773h257v257h-257v-257zM1317 860v328h327v-328h-327zM1317 1738v328h327v-328h-327zM1352 895h257v258h-257v-258zM1352 1773h257v257h-257v-257zM1755 1299v328h328v-328h-328zM1755 1738v328h328v-328h-328zM1791 1334h257v258h-257v-258zM1791 1773h257v257h-257 v-257z" />
<glyph unicode="8" d="M0 421v328h328v-328h-328zM0 1299v328h328v-328h-328zM35 456h258v258h-258v-258zM35 1334h258v258h-258v-258zM439 -18v328h328v-328h-328zM439 860v328h328v-328h-328zM439 1738v328h328v-328h-328zM474 18h257v257h-257v-257zM474 895h257v258h-257v-258zM474 1773 h257v257h-257v-257zM878 -18v328h327v-328h-327zM878 860v328h327v-328h-327zM878 1738v328h327v-328h-327zM913 18h257v257h-257v-257zM913 895h257v258h-257v-258zM913 1773h257v257h-257v-257zM1317 -18v328h327v-328h-327zM1317 860v328h327v-328h-327zM1317 1738v328 h327v-328h-327zM1352 18h257v257h-257v-257zM1352 895h257v258h-257v-258zM1352 1773h257v257h-257v-257zM1755 421v328h328v-328h-328zM1755 1299v328h328v-328h-328zM1791 456h257v258h-257v-258zM1791 1334h257v258h-257v-258z" />
<glyph unicode="9" d="M0 1299v328h328v-328h-328zM35 1334h258v258h-258v-258zM439 -18v328h328v-328h-328zM439 860v328h328v-328h-328zM439 1738v328h328v-328h-328zM474 18h257v257h-257v-257zM474 895h257v258h-257v-258zM474 1773h257v257h-257v-257zM878 -18v328h327v-328h-327zM878 860 v328h327v-328h-327zM878 1738v328h327v-328h-327zM913 18h257v257h-257v-257zM913 895h257v258h-257v-258zM913 1773h257v257h-257v-257zM1317 -18v328h327v-328h-327zM1317 860v328h327v-328h-327zM1317 1738v328h327v-328h-327zM1352 18h257v257h-257v-257zM1352 895h257 v258h-257v-258zM1352 1773h257v257h-257v-257zM1755 421v328h328v-328h-328zM1755 860v328h328v-328h-328zM1755 1299v328h328v-328h-328zM1791 456h257v258h-257v-258zM1791 895h257v258h-257v-258zM1791 1334h257v258h-257v-258z" />
<glyph unicode=":" horiz-adv-x="877" d="M0 421v328h328v-328h-328zM0 1299v328h328v-328h-328zM35 456h258v258h-258v-258zM35 1334h258v258h-258v-258z" />
<glyph unicode=";" horiz-adv-x="1316" d="M0 -18v328h328v-328h-328zM35 18h258v257h-258v-257zM439 421v328h328v-328h-328zM439 1299v328h328v-328h-328zM474 456h257v258h-257v-258zM474 1334h257v258h-257v-258z" />
<glyph unicode="&#x3c;" horiz-adv-x="1755" d="M0 860v328h328v-328h-328zM35 895h258v258h-258v-258zM439 421v328h328v-328h-328zM439 1299v328h328v-328h-328zM474 456h257v258h-257v-258zM474 1334h257v258h-257v-258zM878 -18v328h327v-328h-327zM878 1738v328h327v-328h-327zM913 18h257v257h-257v-257zM913 1773 h257v257h-257v-257z" />
<glyph unicode="=" d="M0 421v328h328v-328h-328zM0 1299v328h328v-328h-328zM35 456h258v258h-258v-258zM35 1334h258v258h-258v-258zM439 421v328h328v-328h-328zM439 1299v328h328v-328h-328zM474 456h257v258h-257v-258zM474 1334h257v258h-257v-258zM878 421v328h327v-328h-327zM878 1299 v328h327v-328h-327zM913 456h257v258h-257v-258zM913 1334h257v258h-257v-258zM1317 421v328h327v-328h-327zM1317 1299v328h327v-328h-327zM1352 456h257v258h-257v-258zM1352 1334h257v258h-257v-258zM1755 421v328h328v-328h-328zM1755 1299v328h328v-328h-328zM1791 456 h257v258h-257v-258zM1791 1334h257v258h-257v-258z" />
<glyph unicode="&#x3e;" horiz-adv-x="1755" d="M0 -18v328h328v-328h-328zM0 1738v328h328v-328h-328zM35 18h258v257h-258v-257zM35 1773h258v257h-258v-257zM439 421v328h328v-328h-328zM439 1299v328h328v-328h-328zM474 456h257v258h-257v-258zM474 1334h257v258h-257v-258zM878 860v328h327v-328h-327zM913 895 h257v258h-257v-258z" />
<glyph unicode="?" d="M0 1299v328h328v-328h-328zM35 1334h258v258h-258v-258zM439 1738v328h328v-328h-328zM474 1773h257v257h-257v-257zM878 -18v328h327v-328h-327zM878 421v328h327v-328h-327zM878 1738v328h327v-328h-327zM913 18h257v257h-257v-257zM913 456h257v258h-257v-258z M913 1773h257v257h-257v-257zM1317 860v328h327v-328h-327zM1317 1738v328h327v-328h-327zM1352 895h257v258h-257v-258zM1352 1773h257v257h-257v-257zM1755 1299v328h328v-328h-328zM1791 1334h257v258h-257v-258z" />
<glyph unicode="@" d="M0 421v328h328v-328h-328zM0 860v328h328v-328h-328zM0 1299v328h328v-328h-328zM35 456h258v258h-258v-258zM35 895h258v258h-258v-258zM35 1334h258v258h-258v-258zM439 -18v328h328v-328h-328zM439 1738v328h328v-328h-328zM474 18h257v257h-257v-257zM474 1773h257 v257h-257v-257zM878 -18v328h327v-328h-327zM878 421v328h327v-328h-327zM878 860v328h327v-328h-327zM878 1738v328h327v-328h-327zM913 18h257v257h-257v-257zM913 456h257v258h-257v-258zM913 895h257v258h-257v-258zM913 1773h257v257h-257v-257zM1317 -18v328h327v-328 h-327zM1317 1299v328h327v-328h-327zM1317 1738v328h327v-328h-327zM1352 18h257v257h-257v-257zM1352 1334h257v258h-257v-258zM1352 1773h257v257h-257v-257zM1755 -18v328h328v-328h-328zM1755 421v328h328v-328h-328zM1755 860v328h328v-328h-328zM1755 1299v328h328 v-328h-328zM1791 18h257v257h-257v-257zM1791 456h257v258h-257v-258zM1791 895h257v258h-257v-258zM1791 1334h257v258h-257v-258z" />
<glyph unicode="A" d="M0 -18v328h328v-328h-328zM0 421v328h328v-328h-328zM0 860v328h328v-328h-328zM0 1299v328h328v-328h-328zM35 18h258v257h-258v-257zM35 456h258v258h-258v-258zM35 895h258v258h-258v-258zM35 1334h258v258h-258v-258zM439 860v328h328v-328h-328zM439 1738v328h328 v-328h-328zM474 895h257v258h-257v-258zM474 1773h257v257h-257v-257zM878 860v328h327v-328h-327zM878 1738v328h327v-328h-327zM913 895h257v258h-257v-258zM913 1773h257v257h-257v-257zM1317 860v328h327v-328h-327zM1317 1738v328h327v-328h-327zM1352 895h257v258 h-257v-258zM1352 1773h257v257h-257v-257zM1755 -18v328h328v-328h-328zM1755 421v328h328v-328h-328zM1755 860v328h328v-328h-328zM1755 1299v328h328v-328h-328zM1791 18h257v257h-257v-257zM1791 456h257v258h-257v-258zM1791 895h257v258h-257v-258zM1791 1334h257v258 h-257v-258z" />
<glyph unicode="B" d="M0 -18v328h328v-328h-328zM0 421v328h328v-328h-328zM0 860v328h328v-328h-328zM0 1299v328h328v-328h-328zM0 1738v328h328v-328h-328zM35 18h258v257h-258v-257zM35 456h258v258h-258v-258zM35 895h258v258h-258v-258zM35 1334h258v258h-258v-258zM35 1773h258v257 h-258v-257zM439 -18v328h328v-328h-328zM439 860v328h328v-328h-328zM439 1738v328h328v-328h-328zM474 18h257v257h-257v-257zM474 895h257v258h-257v-258zM474 1773h257v257h-257v-257zM878 -18v328h327v-328h-327zM878 860v328h327v-328h-327zM878 1738v328h327v-328 h-327zM913 18h257v257h-257v-257zM913 895h257v258h-257v-258zM913 1773h257v257h-257v-257zM1317 -18v328h327v-328h-327zM1317 860v328h327v-328h-327zM1317 1738v328h327v-328h-327zM1352 18h257v257h-257v-257zM1352 895h257v258h-257v-258zM1352 1773h257v257h-257 v-257zM1755 421v328h328v-328h-328zM1755 1299v328h328v-328h-328zM1791 456h257v258h-257v-258zM1791 1334h257v258h-257v-258z" />
<glyph unicode="C" d="M0 421v328h328v-328h-328zM0 860v328h328v-328h-328zM0 1299v328h328v-328h-328zM35 456h258v258h-258v-258zM35 895h258v258h-258v-258zM35 1334h258v258h-258v-258zM439 -18v328h328v-328h-328zM439 1738v328h328v-328h-328zM474 18h257v257h-257v-257zM474 1773h257 v257h-257v-257zM878 -18v328h327v-328h-327zM878 1738v328h327v-328h-327zM913 18h257v257h-257v-257zM913 1773h257v257h-257v-257zM1317 -18v328h327v-328h-327zM1317 1738v328h327v-328h-327zM1352 18h257v257h-257v-257zM1352 1773h257v257h-257v-257zM1755 -18v328h328 v-328h-328zM1755 1738v328h328v-328h-328zM1791 18h257v257h-257v-257zM1791 1773h257v257h-257v-257z" />
<glyph unicode="D" d="M0 -18v328h328v-328h-328zM0 421v328h328v-328h-328zM0 860v328h328v-328h-328zM0 1299v328h328v-328h-328zM0 1738v328h328v-328h-328zM35 18h258v257h-258v-257zM35 456h258v258h-258v-258zM35 895h258v258h-258v-258zM35 1334h258v258h-258v-258zM35 1773h258v257 h-258v-257zM439 -18v328h328v-328h-328zM439 1738v328h328v-328h-328zM474 18h257v257h-257v-257zM474 1773h257v257h-257v-257zM878 -18v328h327v-328h-327zM878 1738v328h327v-328h-327zM913 18h257v257h-257v-257zM913 1773h257v257h-257v-257zM1317 -18v328h327v-328 h-327zM1317 1738v328h327v-328h-327zM1352 18h257v257h-257v-257zM1352 1773h257v257h-257v-257zM1755 421v328h328v-328h-328zM1755 860v328h328v-328h-328zM1755 1299v328h328v-328h-328zM1791 456h257v258h-257v-258zM1791 895h257v258h-257v-258zM1791 1334h257v258 h-257v-258z" />
<glyph unicode="E" d="M0 -18v328h328v-328h-328zM0 421v328h328v-328h-328zM0 860v328h328v-328h-328zM0 1299v328h328v-328h-328zM0 1738v328h328v-328h-328zM35 18h258v257h-258v-257zM35 456h258v258h-258v-258zM35 895h258v258h-258v-258zM35 1334h258v258h-258v-258zM35 1773h258v257 h-258v-257zM439 -18v328h328v-328h-328zM439 860v328h328v-328h-328zM439 1738v328h328v-328h-328zM474 18h257v257h-257v-257zM474 895h257v258h-257v-258zM474 1773h257v257h-257v-257zM878 -18v328h327v-328h-327zM878 860v328h327v-328h-327zM878 1738v328h327v-328 h-327zM913 18h257v257h-257v-257zM913 895h257v258h-257v-258zM913 1773h257v257h-257v-257zM1317 -18v328h327v-328h-327zM1317 860v328h327v-328h-327zM1317 1738v328h327v-328h-327zM1352 18h257v257h-257v-257zM1352 895h257v258h-257v-258zM1352 1773h257v257h-257 v-257zM1755 -18v328h328v-328h-328zM1755 860v328h328v-328h-328zM1755 1738v328h328v-328h-328zM1791 18h257v257h-257v-257zM1791 895h257v258h-257v-258zM1791 1773h257v257h-257v-257z" />
<glyph unicode="F" d="M0 -18v328h328v-328h-328zM0 421v328h328v-328h-328zM0 860v328h328v-328h-328zM0 1299v328h328v-328h-328zM0 1738v328h328v-328h-328zM35 18h258v257h-258v-257zM35 456h258v258h-258v-258zM35 895h258v258h-258v-258zM35 1334h258v258h-258v-258zM35 1773h258v257 h-258v-257zM439 860v328h328v-328h-328zM439 1738v328h328v-328h-328zM474 895h257v258h-257v-258zM474 1773h257v257h-257v-257zM878 860v328h327v-328h-327zM878 1738v328h327v-328h-327zM913 895h257v258h-257v-258zM913 1773h257v257h-257v-257zM1317 860v328h327v-328 h-327zM1317 1738v328h327v-328h-327zM1352 895h257v258h-257v-258zM1352 1773h257v257h-257v-257zM1755 860v328h328v-328h-328zM1755 1738v328h328v-328h-328zM1791 895h257v258h-257v-258zM1791 1773h257v257h-257v-257z" />
<glyph unicode="G" d="M0 421v328h328v-328h-328zM0 860v328h328v-328h-328zM0 1299v328h328v-328h-328zM35 456h258v258h-258v-258zM35 895h258v258h-258v-258zM35 1334h258v258h-258v-258zM439 -18v328h328v-328h-328zM439 1738v328h328v-328h-328zM474 18h257v257h-257v-257zM474 1773h257 v257h-257v-257zM878 -18v328h327v-328h-327zM878 1738v328h327v-328h-327zM913 18h257v257h-257v-257zM913 1773h257v257h-257v-257zM1317 -18v328h327v-328h-327zM1317 860v328h327v-328h-327zM1317 1738v328h327v-328h-327zM1352 18h257v257h-257v-257zM1352 895h257v258 h-257v-258zM1352 1773h257v257h-257v-257zM1755 421v328h328v-328h-328zM1755 860v328h328v-328h-328zM1755 1738v328h328v-328h-328zM1791 456h257v258h-257v-258zM1791 895h257v258h-257v-258zM1791 1773h257v257h-257v-257z" />
<glyph unicode="H" d="M0 -18v328h328v-328h-328zM0 421v328h328v-328h-328zM0 860v328h328v-328h-328zM0 1299v328h328v-328h-328zM0 1738v328h328v-328h-328zM35 18h258v257h-258v-257zM35 456h258v258h-258v-258zM35 895h258v258h-258v-258zM35 1334h258v258h-258v-258zM35 1773h258v257 h-258v-257zM439 860v328h328v-328h-328zM474 895h257v258h-257v-258zM878 860v328h327v-328h-327zM913 895h257v258h-257v-258zM1317 860v328h327v-328h-327zM1352 895h257v258h-257v-258zM1755 -18v328h328v-328h-328zM1755 421v328h328v-328h-328zM1755 860v328h328v-328 h-328zM1755 1299v328h328v-328h-328zM1755 1738v328h328v-328h-328zM1791 18h257v257h-257v-257zM1791 456h257v258h-257v-258zM1791 895h257v258h-257v-258zM1791 1334h257v258h-257v-258zM1791 1773h257v257h-257v-257z" />
<glyph unicode="I" horiz-adv-x="877" d="M0 -18v328h328v-328h-328zM0 421v328h328v-328h-328zM0 860v328h328v-328h-328zM0 1299v328h328v-328h-328zM0 1738v328h328v-328h-328zM35 18h258v257h-258v-257zM35 456h258v258h-258v-258zM35 895h258v258h-258v-258zM35 1334h258v258h-258v-258zM35 1773h258v257 h-258v-257z" />
<glyph unicode="J" horiz-adv-x="2194" d="M0 -18v328h328v-328h-328zM35 18h258v257h-258v-257zM439 -18v328h328v-328h-328zM474 18h257v257h-257v-257zM878 -18v328h327v-328h-327zM913 18h257v257h-257v-257zM1317 421v328h327v-328h-327zM1317 860v328h327v-328h-327zM1317 1299v328h327v-328h-327zM1317 1738 v328h327v-328h-327zM1352 456h257v258h-257v-258zM1352 895h257v258h-257v-258zM1352 1334h257v258h-257v-258zM1352 1773h257v257h-257v-257z" />
<glyph unicode="K" d="M0 -18v328h328v-328h-328zM0 421v328h328v-328h-328zM0 860v328h328v-328h-328zM0 1299v328h328v-328h-328zM0 1738v328h328v-328h-328zM35 18h258v257h-258v-257zM35 456h258v258h-258v-258zM35 895h258v258h-258v-258zM35 1334h258v258h-258v-258zM35 1773h258v257 h-258v-257zM439 860v328h328v-328h-328zM474 895h257v258h-257v-258zM878 860v328h327v-328h-327zM913 895h257v258h-257v-258zM1317 421v328h327v-328h-327zM1317 1299v328h327v-328h-327zM1352 456h257v258h-257v-258zM1352 1334h257v258h-257v-258zM1755 -18v328h328 v-328h-328zM1755 1738v328h328v-328h-328zM1791 18h257v257h-257v-257zM1791 1773h257v257h-257v-257z" />
<glyph unicode="L" horiz-adv-x="2194" d="M0 -18v328h328v-328h-328zM0 421v328h328v-328h-328zM0 860v328h328v-328h-328zM0 1299v328h328v-328h-328zM0 1738v328h328v-328h-328zM35 18h258v257h-258v-257zM35 456h258v258h-258v-258zM35 895h258v258h-258v-258zM35 1334h258v258h-258v-258zM35 1773h258v257 h-258v-257zM439 -18v328h328v-328h-328zM474 18h257v257h-257v-257zM878 -18v328h327v-328h-327zM913 18h257v257h-257v-257zM1317 -18v328h327v-328h-327zM1352 18h257v257h-257v-257z" />
<glyph unicode="M" d="M0 -18v328h328v-328h-328zM0 421v328h328v-328h-328zM0 860v328h328v-328h-328zM0 1299v328h328v-328h-328zM0 1738v328h328v-328h-328zM35 18h258v257h-258v-257zM35 456h258v258h-258v-258zM35 895h258v258h-258v-258zM35 1334h258v258h-258v-258zM35 1773h258v257 h-258v-257zM439 1299v328h328v-328h-328zM474 1334h257v258h-257v-258zM878 860v328h327v-328h-327zM913 895h257v258h-257v-258zM1317 1299v328h327v-328h-327zM1352 1334h257v258h-257v-258zM1755 -18v328h328v-328h-328zM1755 421v328h328v-328h-328zM1755 860v328h328 v-328h-328zM1755 1299v328h328v-328h-328zM1755 1738v328h328v-328h-328zM1791 18h257v257h-257v-257zM1791 456h257v258h-257v-258zM1791 895h257v258h-257v-258zM1791 1334h257v258h-257v-258zM1791 1773h257v257h-257v-257z" />
<glyph unicode="N" d="M0 -18v328h328v-328h-328zM0 421v328h328v-328h-328zM0 860v328h328v-328h-328zM0 1299v328h328v-328h-328zM0 1738v328h328v-328h-328zM35 18h258v257h-258v-257zM35 456h258v258h-258v-258zM35 895h258v258h-258v-258zM35 1334h258v258h-258v-258zM35 1773h258v257 h-258v-257zM439 1299v328h328v-328h-328zM474 1334h257v258h-257v-258zM878 860v328h327v-328h-327zM913 895h257v258h-257v-258zM1317 421v328h327v-328h-327zM1352 456h257v258h-257v-258zM1755 -18v328h328v-328h-328zM1755 421v328h328v-328h-328zM1755 860v328h328 v-328h-328zM1755 1299v328h328v-328h-328zM1755 1738v328h328v-328h-328zM1791 18h257v257h-257v-257zM1791 456h257v258h-257v-258zM1791 895h257v258h-257v-258zM1791 1334h257v258h-257v-258zM1791 1773h257v257h-257v-257z" />
<glyph unicode="O" d="M0 421v328h328v-328h-328zM0 860v328h328v-328h-328zM0 1299v328h328v-328h-328zM35 456h258v258h-258v-258zM35 895h258v258h-258v-258zM35 1334h258v258h-258v-258zM439 -18v328h328v-328h-328zM439 1738v328h328v-328h-328zM474 18h257v257h-257v-257zM474 1773h257 v257h-257v-257zM878 -18v328h327v-328h-327zM878 1738v328h327v-328h-327zM913 18h257v257h-257v-257zM913 1773h257v257h-257v-257zM1317 -18v328h327v-328h-327zM1317 1738v328h327v-328h-327zM1352 18h257v257h-257v-257zM1352 1773h257v257h-257v-257zM1755 421v328h328 v-328h-328zM1755 860v328h328v-328h-328zM1755 1299v328h328v-328h-328zM1791 456h257v258h-257v-258zM1791 895h257v258h-257v-258zM1791 1334h257v258h-257v-258z" />
<glyph unicode="P" d="M0 -18v328h328v-328h-328zM0 421v328h328v-328h-328zM0 860v328h328v-328h-328zM0 1299v328h328v-328h-328zM0 1738v328h328v-328h-328zM35 18h258v257h-258v-257zM35 456h258v258h-258v-258zM35 895h258v258h-258v-258zM35 1334h258v258h-258v-258zM35 1773h258v257 h-258v-257zM439 860v328h328v-328h-328zM439 1738v328h328v-328h-328zM474 895h257v258h-257v-258zM474 1773h257v257h-257v-257zM878 860v328h327v-328h-327zM878 1738v328h327v-328h-327zM913 895h257v258h-257v-258zM913 1773h257v257h-257v-257zM1317 860v328h327v-328 h-327zM1317 1738v328h327v-328h-327zM1352 895h257v258h-257v-258zM1352 1773h257v257h-257v-257zM1755 1299v328h328v-328h-328zM1791 1334h257v258h-257v-258z" />
<glyph unicode="Q" d="M0 421v328h328v-328h-328zM0 860v328h328v-328h-328zM0 1299v328h328v-328h-328zM35 456h258v258h-258v-258zM35 895h258v258h-258v-258zM35 1334h258v258h-258v-258zM439 -18v328h328v-328h-328zM439 1738v328h328v-328h-328zM474 18h257v257h-257v-257zM474 1773h257 v257h-257v-257zM878 -18v328h327v-328h-327zM878 1738v328h327v-328h-327zM913 18h257v257h-257v-257zM913 1773h257v257h-257v-257zM1317 -18v328h327v-328h-327zM1317 1738v328h327v-328h-327zM1352 18h257v257h-257v-257zM1352 1773h257v257h-257v-257zM1755 -129h328 v-327h-328v327zM1755 421v328h328v-328h-328zM1755 860v328h328v-328h-328zM1755 1299v328h328v-328h-328zM1791 -164v-257h257v257h-257zM1791 456h257v258h-257v-258zM1791 895h257v258h-257v-258zM1791 1334h257v258h-257v-258z" />
<glyph unicode="R" d="M0 -18v328h328v-328h-328zM0 421v328h328v-328h-328zM0 860v328h328v-328h-328zM0 1299v328h328v-328h-328zM0 1738v328h328v-328h-328zM35 18h258v257h-258v-257zM35 456h258v258h-258v-258zM35 895h258v258h-258v-258zM35 1334h258v258h-258v-258zM35 1773h258v257 h-258v-257zM439 860v328h328v-328h-328zM439 1738v328h328v-328h-328zM474 895h257v258h-257v-258zM474 1773h257v257h-257v-257zM878 860v328h327v-328h-327zM878 1738v328h327v-328h-327zM913 895h257v258h-257v-258zM913 1773h257v257h-257v-257zM1317 860v328h327v-328 h-327zM1317 1738v328h327v-328h-327zM1352 895h257v258h-257v-258zM1352 1773h257v257h-257v-257zM1755 -18v328h328v-328h-328zM1755 421v328h328v-328h-328zM1755 1299v328h328v-328h-328zM1791 18h257v257h-257v-257zM1791 456h257v258h-257v-258zM1791 1334h257v258 h-257v-258z" />
<glyph unicode="S" d="M0 -18v328h328v-328h-328zM0 1299v328h328v-328h-328zM35 18h258v257h-258v-257zM35 1334h258v258h-258v-258zM439 -18v328h328v-328h-328zM439 860v328h328v-328h-328zM439 1738v328h328v-328h-328zM474 18h257v257h-257v-257zM474 895h257v258h-257v-258zM474 1773h257 v257h-257v-257zM878 -18v328h327v-328h-327zM878 860v328h327v-328h-327zM878 1738v328h327v-328h-327zM913 18h257v257h-257v-257zM913 895h257v258h-257v-258zM913 1773h257v257h-257v-257zM1317 -18v328h327v-328h-327zM1317 860v328h327v-328h-327zM1317 1738v328h327 v-328h-327zM1352 18h257v257h-257v-257zM1352 895h257v258h-257v-258zM1352 1773h257v257h-257v-257zM1755 421v328h328v-328h-328zM1755 1738v328h328v-328h-328zM1791 456h257v258h-257v-258zM1791 1773h257v257h-257v-257z" />
<glyph unicode="T" d="M0 1738v328h328v-328h-328zM35 1773h258v257h-258v-257zM439 1738v328h328v-328h-328zM474 1773h257v257h-257v-257zM878 -18v328h327v-328h-327zM878 421v328h327v-328h-327zM878 860v328h327v-328h-327zM878 1299v328h327v-328h-327zM878 1738v328h327v-328h-327z M913 18h257v257h-257v-257zM913 456h257v258h-257v-258zM913 895h257v258h-257v-258zM913 1334h257v258h-257v-258zM913 1773h257v257h-257v-257zM1317 1738v328h327v-328h-327zM1352 1773h257v257h-257v-257zM1755 1738v328h328v-328h-328zM1791 1773h257v257h-257v-257z " />
<glyph unicode="U" d="M0 421v328h328v-328h-328zM0 860v328h328v-328h-328zM0 1299v328h328v-328h-328zM0 1738v328h328v-328h-328zM35 456h258v258h-258v-258zM35 895h258v258h-258v-258zM35 1334h258v258h-258v-258zM35 1773h258v257h-258v-257zM439 -18v328h328v-328h-328zM474 18h257v257 h-257v-257zM878 -18v328h327v-328h-327zM913 18h257v257h-257v-257zM1317 -18v328h327v-328h-327zM1352 18h257v257h-257v-257zM1755 421v328h328v-328h-328zM1755 860v328h328v-328h-328zM1755 1299v328h328v-328h-328zM1755 1738v328h328v-328h-328zM1791 456h257v258 h-257v-258zM1791 895h257v258h-257v-258zM1791 1334h257v258h-257v-258zM1791 1773h257v257h-257v-257z" />
<glyph unicode="V" d="M0 860v328h328v-328h-328zM0 1299v328h328v-328h-328zM0 1738v328h328v-328h-328zM35 895h258v258h-258v-258zM35 1334h258v258h-258v-258zM35 1773h258v257h-258v-257zM439 421v328h328v-328h-328zM474 456h257v258h-257v-258zM878 -18v328h327v-328h-327zM913 18h257 v257h-257v-257zM1317 421v328h327v-328h-327zM1352 456h257v258h-257v-258zM1755 860v328h328v-328h-328zM1755 1299v328h328v-328h-328zM1755 1738v328h328v-328h-328zM1791 895h257v258h-257v-258zM1791 1334h257v258h-257v-258zM1791 1773h257v257h-257v-257z" />
<glyph unicode="W" d="M0 -18v328h328v-328h-328zM0 421v328h328v-328h-328zM0 860v328h328v-328h-328zM0 1299v328h328v-328h-328zM0 1738v328h328v-328h-328zM35 18h258v257h-258v-257zM35 456h258v258h-258v-258zM35 895h258v258h-258v-258zM35 1334h258v258h-258v-258zM35 1773h258v257 h-258v-257zM439 421v328h328v-328h-328zM474 456h257v258h-257v-258zM878 860v328h327v-328h-327zM913 895h257v258h-257v-258zM1317 421v328h327v-328h-327zM1352 456h257v258h-257v-258zM1755 -18v328h328v-328h-328zM1755 421v328h328v-328h-328zM1755 860v328h328v-328 h-328zM1755 1299v328h328v-328h-328zM1755 1738v328h328v-328h-328zM1791 18h257v257h-257v-257zM1791 456h257v258h-257v-258zM1791 895h257v258h-257v-258zM1791 1334h257v258h-257v-258zM1791 1773h257v257h-257v-257z" />
<glyph unicode="X" d="M0 -18v328h328v-328h-328zM0 1738v328h328v-328h-328zM35 18h258v257h-258v-257zM35 1773h258v257h-258v-257zM439 421v328h328v-328h-328zM439 1299v328h328v-328h-328zM474 456h257v258h-257v-258zM474 1334h257v258h-257v-258zM878 860v328h327v-328h-327zM913 895 h257v258h-257v-258zM1317 421v328h327v-328h-327zM1317 1299v328h327v-328h-327zM1352 456h257v258h-257v-258zM1352 1334h257v258h-257v-258zM1755 -18v328h328v-328h-328zM1755 1738v328h328v-328h-328zM1791 18h257v257h-257v-257zM1791 1773h257v257h-257v-257z" />
<glyph unicode="Y" d="M0 1738v328h328v-328h-328zM35 1773h258v257h-258v-257zM439 1299v328h328v-328h-328zM474 1334h257v258h-257v-258zM878 -18v328h327v-328h-327zM878 421v328h327v-328h-327zM878 860v328h327v-328h-327zM913 18h257v257h-257v-257zM913 456h257v258h-257v-258zM913 895 h257v258h-257v-258zM1317 1299v328h327v-328h-327zM1352 1334h257v258h-257v-258zM1755 1738v328h328v-328h-328zM1791 1773h257v257h-257v-257z" />
<glyph unicode="Z" d="M0 -18v328h328v-328h-328zM0 1738v328h328v-328h-328zM35 18h258v257h-258v-257zM35 1773h258v257h-258v-257zM439 -18v328h328v-328h-328zM439 421v328h328v-328h-328zM439 1738v328h328v-328h-328zM474 18h257v257h-257v-257zM474 456h257v258h-257v-258zM474 1773h257 v257h-257v-257zM878 -18v328h327v-328h-327zM878 860v328h327v-328h-327zM878 1738v328h327v-328h-327zM913 18h257v257h-257v-257zM913 895h257v258h-257v-258zM913 1773h257v257h-257v-257zM1317 -18v328h327v-328h-327zM1317 1299v328h327v-328h-327zM1317 1738v328h327 v-328h-327zM1352 18h257v257h-257v-257zM1352 1334h257v258h-257v-258zM1352 1773h257v257h-257v-257zM1755 -18v328h328v-328h-328zM1755 1738v328h328v-328h-328zM1791 18h257v257h-257v-257zM1791 1773h257v257h-257v-257z" />
<glyph unicode="[" horiz-adv-x="1755" d="M0 -18v328h328v-328h-328zM0 421v328h328v-328h-328zM0 860v328h328v-328h-328zM0 1299v328h328v-328h-328zM0 1738v328h328v-328h-328zM35 18h258v257h-258v-257zM35 456h258v258h-258v-258zM35 895h258v258h-258v-258zM35 1334h258v258h-258v-258zM35 1773h258v257 h-258v-257zM439 -18v328h328v-328h-328zM439 1738v328h328v-328h-328zM474 18h257v257h-257v-257zM474 1773h257v257h-257v-257zM878 -18v328h327v-328h-327zM878 1738v328h327v-328h-327zM913 18h257v257h-257v-257zM913 1773h257v257h-257v-257z" />
<glyph unicode="\" d="M0 1738v328h328v-328h-328zM35 1773h258v257h-258v-257zM439 1299v328h328v-328h-328zM474 1334h257v258h-257v-258zM878 860v328h327v-328h-327zM913 895h257v258h-257v-258zM1317 421v328h327v-328h-327zM1352 456h257v258h-257v-258zM1755 -18v328h328v-328h-328z M1791 18h257v257h-257v-257z" />
<glyph unicode="]" horiz-adv-x="1755" d="M0 -18v328h328v-328h-328zM0 1738v328h328v-328h-328zM35 18h258v257h-258v-257zM35 1773h258v257h-258v-257zM439 -18v328h328v-328h-328zM439 1738v328h328v-328h-328zM474 18h257v257h-257v-257zM474 1773h257v257h-257v-257zM878 -18v328h327v-328h-327zM878 421v328 h327v-328h-327zM878 860v328h327v-328h-327zM878 1299v328h327v-328h-327zM878 1738v328h327v-328h-327zM913 18h257v257h-257v-257zM913 456h257v258h-257v-258zM913 895h257v258h-257v-258zM913 1334h257v258h-257v-258zM913 1773h257v257h-257v-257z" />
<glyph unicode="^" horiz-adv-x="1755" d="M0 1299v328h328v-328h-328zM35 1334h258v258h-258v-258zM439 1738v328h328v-328h-328zM474 1773h257v257h-257v-257zM878 1299v328h327v-328h-327zM913 1334h257v258h-257v-258z" />
<glyph unicode="_" d="M0 -18v328h328v-328h-328zM0 -129h328v-327h-328v327zM0 421v328h328v-328h-328zM0 860v328h328v-328h-328zM0 1299v328h328v-328h-328zM0 1738v328h328v-328h-328zM35 18h258v257h-258v-257zM35 -164v-257h258v257h-258zM35 456h258v258h-258v-258zM35 895h258v258h-258 v-258zM35 1334h258v258h-258v-258zM35 1773h258v257h-258v-257zM439 -18v328h328v-328h-328zM439 -129h328v-327h-328v327zM439 421v328h328v-328h-328zM439 860v328h328v-328h-328zM439 1299v328h328v-328h-328zM439 1738v328h328v-328h-328zM474 18h257v257h-257v-257z M474 -164v-257h257v257h-257zM474 456h257v258h-257v-258zM474 895h257v258h-257v-258zM474 1334h257v258h-257v-258zM474 1773h257v257h-257v-257zM878 -18v328h327v-328h-327zM878 -129h327v-327h-327v327zM878 421v328h327v-328h-327zM878 860v328h327v-328h-327z M878 1299v328h327v-328h-327zM878 1738v328h327v-328h-327zM913 18h257v257h-257v-257zM913 -164v-257h257v257h-257zM913 456h257v258h-257v-258zM913 895h257v258h-257v-258zM913 1334h257v258h-257v-258zM913 1773h257v257h-257v-257zM1317 -18v328h327v-328h-327z M1317 -129h327v-327h-327v327zM1317 421v328h327v-328h-327zM1317 860v328h327v-328h-327zM1317 1299v328h327v-328h-327zM1317 1738v328h327v-328h-327zM1352 18h257v257h-257v-257zM1352 -164v-257h257v257h-257zM1352 456h257v258h-257v-258zM1352 895h257v258h-257v-258 zM1352 1334h257v258h-257v-258zM1352 1773h257v257h-257v-257zM1755 -18v328h328v-328h-328zM1755 -129h328v-327h-328v327zM1755 421v328h328v-328h-328zM1755 860v328h328v-328h-328zM1755 1299v328h328v-328h-328zM1755 1738v328h328v-328h-328zM1791 18h257v257h-257 v-257zM1791 -164v-257h257v257h-257zM1791 456h257v258h-257v-258zM1791 895h257v258h-257v-258zM1791 1334h257v258h-257v-258zM1791 1773h257v257h-257v-257zM2194 -18v328h328v-328h-328zM2194 -129h328v-327h-328v327zM2194 421v328h328v-328h-328zM2194 860v328h328 v-328h-328zM2194 1299v328h328v-328h-328zM2194 1738v328h328v-328h-328zM2229 18h258v257h-258v-257zM2229 -164v-257h258v257h-258zM2229 456h258v258h-258v-258zM2229 895h258v258h-258v-258zM2229 1334h258v258h-258v-258zM2229 1773h258v257h-258v-257z" />
<glyph unicode="`" horiz-adv-x="1316" d="M0 1738v328h328v-328h-328zM35 1773h258v257h-258v-257zM439 1299v328h328v-328h-328zM474 1334h257v258h-257v-258z" />
<glyph unicode="a" horiz-adv-x="2194" d="M0 -18v328h328v-328h-328zM0 421v328h328v-328h-328zM0 1299v328h328v-328h-328zM35 18h258v257h-258v-257zM35 456h258v258h-258v-258zM35 1334h258v258h-258v-258zM439 -18v328h328v-328h-328zM439 860v328h328v-328h-328zM439 1299v328h328v-328h-328zM474 18h257v257 h-257v-257zM474 895h257v258h-257v-258zM474 1334h257v258h-257v-258zM878 -18v328h327v-328h-327zM878 1299v328h327v-328h-327zM913 18h257v257h-257v-257zM913 1334h257v258h-257v-258zM1317 -18v328h327v-328h-327zM1317 421v328h327v-328h-327zM1317 860v328h327v-328 h-327zM1352 18h257v257h-257v-257zM1352 456h257v258h-257v-258zM1352 895h257v258h-257v-258z" />
<glyph unicode="b" horiz-adv-x="2194" d="M0 -18v328h328v-328h-328zM0 421v328h328v-328h-328zM0 860v328h328v-328h-328zM0 1299v328h328v-328h-328zM0 1738v328h328v-328h-328zM35 18h258v257h-258v-257zM35 456h258v258h-258v-258zM35 895h258v258h-258v-258zM35 1334h258v258h-258v-258zM35 1773h258v257 h-258v-257zM439 -18v328h328v-328h-328zM439 1299v328h328v-328h-328zM474 18h257v257h-257v-257zM474 1334h257v258h-257v-258zM878 -18v328h327v-328h-327zM878 1299v328h327v-328h-327zM913 18h257v257h-257v-257zM913 1334h257v258h-257v-258zM1317 421v328h327v-328 h-327zM1317 860v328h327v-328h-327zM1352 456h257v258h-257v-258zM1352 895h257v258h-257v-258z" />
<glyph unicode="c" horiz-adv-x="2194" d="M0 421v328h328v-328h-328zM0 860v328h328v-328h-328zM35 456h258v258h-258v-258zM35 895h258v258h-258v-258zM439 -18v328h328v-328h-328zM439 1299v328h328v-328h-328zM474 18h257v257h-257v-257zM474 1334h257v258h-257v-258zM878 -18v328h327v-328h-327zM878 1299v328 h327v-328h-327zM913 18h257v257h-257v-257zM913 1334h257v258h-257v-258zM1317 -18v328h327v-328h-327zM1317 1299v328h327v-328h-327zM1352 18h257v257h-257v-257zM1352 1334h257v258h-257v-258z" />
<glyph unicode="d" horiz-adv-x="2194" d="M0 421v328h328v-328h-328zM0 860v328h328v-328h-328zM35 456h258v258h-258v-258zM35 895h258v258h-258v-258zM439 -18v328h328v-328h-328zM439 1299v328h328v-328h-328zM474 18h257v257h-257v-257zM474 1334h257v258h-257v-258zM878 -18v328h327v-328h-327zM878 1299v328 h327v-328h-327zM913 18h257v257h-257v-257zM913 1334h257v258h-257v-258zM1317 -18v328h327v-328h-327zM1317 421v328h327v-328h-327zM1317 860v328h327v-328h-327zM1317 1299v328h327v-328h-327zM1317 1738v328h327v-328h-327zM1352 18h257v257h-257v-257zM1352 456h257 v258h-257v-258zM1352 895h257v258h-257v-258zM1352 1334h257v258h-257v-258zM1352 1773h257v257h-257v-257z" />
<glyph unicode="e" horiz-adv-x="2194" d="M0 421v328h328v-328h-328zM0 860v328h328v-328h-328zM35 456h258v258h-258v-258zM35 895h258v258h-258v-258zM439 -18v328h328v-328h-328zM439 1299v328h328v-328h-328zM474 18h257v257h-257v-257zM474 1334h257v258h-257v-258zM878 -18v328h327v-328h-327zM878 421v328 h327v-328h-327zM878 1299v328h327v-328h-327zM913 18h257v257h-257v-257zM913 456h257v258h-257v-258zM913 1334h257v258h-257v-258zM1317 -18v328h327v-328h-327zM1317 860v328h327v-328h-327zM1317 1299v328h327v-328h-327zM1352 18h257v257h-257v-257zM1352 895h257v258 h-257v-258zM1352 1334h257v258h-257v-258z" />
<glyph unicode="f" horiz-adv-x="2194" d="M0 -18v328h328v-328h-328zM0 421v328h328v-328h-328zM0 860v328h328v-328h-328zM0 1299v328h328v-328h-328zM35 18h258v257h-258v-257zM35 456h258v258h-258v-258zM35 895h258v258h-258v-258zM35 1334h258v258h-258v-258zM439 860v328h328v-328h-328zM439 1738v328h328 v-328h-328zM474 895h257v258h-257v-258zM474 1773h257v257h-257v-257zM878 860v328h327v-328h-327zM878 1738v328h327v-328h-327zM913 895h257v258h-257v-258zM913 1773h257v257h-257v-257zM1317 860v328h327v-328h-327zM1317 1738v328h327v-328h-327zM1352 895h257v258 h-257v-258zM1352 1773h257v257h-257v-257z" />
<glyph unicode="g" horiz-adv-x="2194" d="M0 421v328h328v-328h-328zM0 860v328h328v-328h-328zM35 456h258v258h-258v-258zM35 895h258v258h-258v-258zM439 -18v328h328v-328h-328zM439 1299v328h328v-328h-328zM474 18h257v257h-257v-257zM474 1334h257v258h-257v-258zM878 -18v328h327v-328h-327zM878 -129h327 v-327h-327v327zM878 1299v328h327v-328h-327zM913 18h257v257h-257v-257zM913 -164v-257h257v257h-257zM913 1334h257v258h-257v-258zM1317 -18v328h327v-328h-327zM1317 421v328h327v-328h-327zM1317 860v328h327v-328h-327zM1352 18h257v257h-257v-257zM1352 456h257v258 h-257v-258zM1352 895h257v258h-257v-258z" />
<glyph unicode="h" horiz-adv-x="2194" d="M0 -18v328h328v-328h-328zM0 421v328h328v-328h-328zM0 860v328h328v-328h-328zM0 1299v328h328v-328h-328zM0 1738v328h328v-328h-328zM35 18h258v257h-258v-257zM35 456h258v258h-258v-258zM35 895h258v258h-258v-258zM35 1334h258v258h-258v-258zM35 1773h258v257 h-258v-257zM439 1299v328h328v-328h-328zM474 1334h257v258h-257v-258zM878 1299v328h327v-328h-327zM913 1334h257v258h-257v-258zM1317 -18v328h327v-328h-327zM1317 421v328h327v-328h-327zM1317 860v328h327v-328h-327zM1352 18h257v257h-257v-257zM1352 456h257v258 h-257v-258zM1352 895h257v258h-257v-258z" />
<glyph unicode="i" horiz-adv-x="877" d="M0 -18v328h328v-328h-328zM0 421v328h328v-328h-328zM0 860v328h328v-328h-328zM0 1738v328h328v-328h-328zM35 18h258v257h-258v-257zM35 456h258v258h-258v-258zM35 895h258v258h-258v-258zM35 1773h258v257h-258v-257z" />
<glyph unicode="j" horiz-adv-x="1316" d="M0 -129h328v-327h-328v327zM35 -164v-257h258v257h-258zM439 -18v328h328v-328h-328zM439 421v328h328v-328h-328zM439 860v328h328v-328h-328zM439 1738v328h328v-328h-328zM474 18h257v257h-257v-257zM474 456h257v258h-257v-258zM474 895h257v258h-257v-258zM474 1773 h257v257h-257v-257z" />
<glyph unicode="k" horiz-adv-x="2194" d="M0 -18v328h328v-328h-328zM0 421v328h328v-328h-328zM0 860v328h328v-328h-328zM0 1299v328h328v-328h-328zM0 1738v328h328v-328h-328zM35 18h258v257h-258v-257zM35 456h258v258h-258v-258zM35 895h258v258h-258v-258zM35 1334h258v258h-258v-258zM35 1773h258v257 h-258v-257zM439 860v328h328v-328h-328zM474 895h257v258h-257v-258zM878 421v328h327v-328h-327zM878 860v328h327v-328h-327zM913 456h257v258h-257v-258zM913 895h257v258h-257v-258zM1317 -18v328h327v-328h-327zM1317 1299v328h327v-328h-327zM1352 18h257v257h-257 v-257zM1352 1334h257v258h-257v-258z" />
<glyph unicode="l" horiz-adv-x="1316" d="M0 421v328h328v-328h-328zM0 860v328h328v-328h-328zM0 1299v328h328v-328h-328zM0 1738v328h328v-328h-328zM35 456h258v258h-258v-258zM35 895h258v258h-258v-258zM35 1334h258v258h-258v-258zM35 1773h258v257h-258v-257zM439 -18v328h328v-328h-328zM474 18h257v257 h-257v-257z" />
<glyph unicode="m" d="M0 -18v328h328v-328h-328zM0 421v328h328v-328h-328zM0 860v328h328v-328h-328zM0 1299v328h328v-328h-328zM35 18h258v257h-258v-257zM35 456h258v258h-258v-258zM35 895h258v258h-258v-258zM35 1334h258v258h-258v-258zM439 1299v328h328v-328h-328zM474 1334h257v258 h-257v-258zM878 -18v328h327v-328h-327zM878 421v328h327v-328h-327zM878 860v328h327v-328h-327zM878 1299v328h327v-328h-327zM913 18h257v257h-257v-257zM913 456h257v258h-257v-258zM913 895h257v258h-257v-258zM913 1334h257v258h-257v-258zM1317 1299v328h327v-328 h-327zM1352 1334h257v258h-257v-258zM1755 -18v328h328v-328h-328zM1755 421v328h328v-328h-328zM1755 860v328h328v-328h-328zM1791 18h257v257h-257v-257zM1791 456h257v258h-257v-258zM1791 895h257v258h-257v-258z" />
<glyph unicode="n" horiz-adv-x="2194" d="M0 -18v328h328v-328h-328zM0 421v328h328v-328h-328zM0 860v328h328v-328h-328zM0 1299v328h328v-328h-328zM35 18h258v257h-258v-257zM35 456h258v258h-258v-258zM35 895h258v258h-258v-258zM35 1334h258v258h-258v-258zM439 1299v328h328v-328h-328zM474 1334h257v258 h-257v-258zM878 1299v328h327v-328h-327zM913 1334h257v258h-257v-258zM1317 -18v328h327v-328h-327zM1317 421v328h327v-328h-327zM1317 860v328h327v-328h-327zM1352 18h257v257h-257v-257zM1352 456h257v258h-257v-258zM1352 895h257v258h-257v-258z" />
<glyph unicode="o" horiz-adv-x="2194" d="M0 421v328h328v-328h-328zM0 860v328h328v-328h-328zM35 456h258v258h-258v-258zM35 895h258v258h-258v-258zM439 -18v328h328v-328h-328zM439 1299v328h328v-328h-328zM474 18h257v257h-257v-257zM474 1334h257v258h-257v-258zM878 -18v328h327v-328h-327zM878 1299v328 h327v-328h-327zM913 18h257v257h-257v-257zM913 1334h257v258h-257v-258zM1317 421v328h327v-328h-327zM1317 860v328h327v-328h-327zM1352 456h257v258h-257v-258zM1352 895h257v258h-257v-258z" />
<glyph unicode="p" horiz-adv-x="2194" d="M0 -18v328h328v-328h-328zM0 -129h328v-327h-328v327zM0 421v328h328v-328h-328zM0 860v328h328v-328h-328zM0 1299v328h328v-328h-328zM35 18h258v257h-258v-257zM35 -164v-257h258v257h-258zM35 456h258v258h-258v-258zM35 895h258v258h-258v-258zM35 1334h258v258 h-258v-258zM439 -18v328h328v-328h-328zM439 1299v328h328v-328h-328zM474 18h257v257h-257v-257zM474 1334h257v258h-257v-258zM878 -18v328h327v-328h-327zM878 1299v328h327v-328h-327zM913 18h257v257h-257v-257zM913 1334h257v258h-257v-258zM1317 421v328h327v-328 h-327zM1317 860v328h327v-328h-327zM1352 456h257v258h-257v-258zM1352 895h257v258h-257v-258z" />
<glyph unicode="q" horiz-adv-x="2194" d="M0 421v328h328v-328h-328zM0 860v328h328v-328h-328zM35 456h258v258h-258v-258zM35 895h258v258h-258v-258zM439 -18v328h328v-328h-328zM439 1299v328h328v-328h-328zM474 18h257v257h-257v-257zM474 1334h257v258h-257v-258zM878 -18v328h327v-328h-327zM878 1299v328 h327v-328h-327zM913 18h257v257h-257v-257zM913 1334h257v258h-257v-258zM1317 -18v328h327v-328h-327zM1317 -129h327v-327h-327v327zM1317 421v328h327v-328h-327zM1317 860v328h327v-328h-327zM1317 1299v328h327v-328h-327zM1352 18h257v257h-257v-257zM1352 -164v-257 h257v257h-257zM1352 456h257v258h-257v-258zM1352 895h257v258h-257v-258zM1352 1334h257v258h-257v-258z" />
<glyph unicode="r" horiz-adv-x="2194" d="M0 -18v328h328v-328h-328zM0 421v328h328v-328h-328zM0 860v328h328v-328h-328zM35 18h258v257h-258v-257zM35 456h258v258h-258v-258zM35 895h258v258h-258v-258zM439 1299v328h328v-328h-328zM474 1334h257v258h-257v-258zM878 1299v328h327v-328h-327zM913 1334h257 v258h-257v-258zM1317 1299v328h327v-328h-327zM1352 1334h257v258h-257v-258z" />
<glyph unicode="s" horiz-adv-x="2194" d="M0 -18v328h328v-328h-328zM0 1153v327h328v-327h-328zM35 18h258v257h-258v-257zM35 1188h258v257h-258v-257zM439 -18v328h328v-328h-328zM439 714v328h328v-328h-328zM439 1153v327h328v-327h-328zM474 18h257v257h-257v-257zM474 749h257v257h-257v-257zM474 1188h257 v257h-257v-257zM878 -18v328h327v-328h-327zM878 421v328h327v-328h-327zM878 1153v327h327v-327h-327zM913 18h257v257h-257v-257zM913 456h257v258h-257v-258zM913 1188h257v257h-257v-257zM1317 -18v328h327v-328h-327zM1317 1153v327h327v-327h-327zM1352 18h257v257 h-257v-257zM1352 1188h257v257h-257v-257z" />
<glyph unicode="t" horiz-adv-x="2194" d="M0 1299v328h328v-328h-328zM35 1334h258v258h-258v-258zM439 421v328h328v-328h-328zM439 860v328h328v-328h-328zM439 1299v328h328v-328h-328zM439 1738v328h328v-328h-328zM474 456h257v258h-257v-258zM474 895h257v258h-257v-258zM474 1334h257v258h-257v-258z M474 1773h257v257h-257v-257zM878 -18v328h327v-328h-327zM878 1299v328h327v-328h-327zM913 18h257v257h-257v-257zM913 1334h257v258h-257v-258zM1317 -18v328h327v-328h-327zM1317 1299v328h327v-328h-327zM1352 18h257v257h-257v-257zM1352 1334h257v258h-257v-258z" />
<glyph unicode="u" horiz-adv-x="2194" d="M0 421v328h328v-328h-328zM0 860v328h328v-328h-328zM0 1299v328h328v-328h-328zM35 456h258v258h-258v-258zM35 895h258v258h-258v-258zM35 1334h258v258h-258v-258zM439 -18v328h328v-328h-328zM474 18h257v257h-257v-257zM878 -18v328h327v-328h-327zM913 18h257v257 h-257v-257zM1317 421v328h327v-328h-327zM1317 860v328h327v-328h-327zM1317 1299v328h327v-328h-327zM1352 456h257v258h-257v-258zM1352 895h257v258h-257v-258zM1352 1334h257v258h-257v-258z" />
<glyph unicode="v" horiz-adv-x="2194" d="M0 -18v328h328v-328h-328zM0 421v328h328v-328h-328zM0 860v328h328v-328h-328zM0 1299v328h328v-328h-328zM35 18h258v257h-258v-257zM35 456h258v258h-258v-258zM35 895h258v258h-258v-258zM35 1334h258v258h-258v-258zM439 -18v328h328v-328h-328zM474 18h257v257 h-257v-257zM878 421v328h327v-328h-327zM913 456h257v258h-257v-258zM1317 860v328h327v-328h-327zM1317 1299v328h327v-328h-327zM1352 895h257v258h-257v-258zM1352 1334h257v258h-257v-258z" />
<glyph unicode="w" d="M0 421v328h328v-328h-328zM0 860v328h328v-328h-328zM0 1299v328h328v-328h-328zM35 456h258v258h-258v-258zM35 895h258v258h-258v-258zM35 1334h258v258h-258v-258zM439 -18v328h328v-328h-328zM474 18h257v257h-257v-257zM878 -18v328h327v-328h-327zM878 421v328h327 v-328h-327zM878 860v328h327v-328h-327zM878 1299v328h327v-328h-327zM913 18h257v257h-257v-257zM913 456h257v258h-257v-258zM913 895h257v258h-257v-258zM913 1334h257v258h-257v-258zM1317 -18v328h327v-328h-327zM1352 18h257v257h-257v-257zM1755 421v328h328v-328 h-328zM1755 860v328h328v-328h-328zM1755 1299v328h328v-328h-328zM1791 456h257v258h-257v-258zM1791 895h257v258h-257v-258zM1791 1334h257v258h-257v-258z" />
<glyph unicode="x" horiz-adv-x="2194" d="M0 -18v328h328v-328h-328zM0 1299v328h328v-328h-328zM35 18h258v257h-258v-257zM35 1334h258v258h-258v-258zM439 421v328h328v-328h-328zM439 860v328h328v-328h-328zM474 456h257v258h-257v-258zM474 895h257v258h-257v-258zM878 421v328h327v-328h-327zM878 860v328 h327v-328h-327zM913 456h257v258h-257v-258zM913 895h257v258h-257v-258zM1317 -18v328h327v-328h-327zM1317 1299v328h327v-328h-327zM1352 18h257v257h-257v-257zM1352 1334h257v258h-257v-258z" />
<glyph unicode="y" horiz-adv-x="2194" d="M0 421v328h328v-328h-328zM0 860v328h328v-328h-328zM0 1299v328h328v-328h-328zM35 456h258v258h-258v-258zM35 895h258v258h-258v-258zM35 1334h258v258h-258v-258zM439 -18v328h328v-328h-328zM474 18h257v257h-257v-257zM878 -18v328h327v-328h-327zM913 18h257v257 h-257v-257zM1317 -18v328h327v-328h-327zM1317 -129h327v-327h-327v327zM1317 421v328h327v-328h-327zM1317 860v328h327v-328h-327zM1317 1299v328h327v-328h-327zM1352 18h257v257h-257v-257zM1352 -164v-257h257v257h-257zM1352 456h257v258h-257v-258zM1352 895h257v258 h-257v-258zM1352 1334h257v258h-257v-258z" />
<glyph unicode="z" horiz-adv-x="2194" d="M0 -18v328h328v-328h-328zM0 1299v328h328v-328h-328zM35 18h258v257h-258v-257zM35 1334h258v258h-258v-258zM439 -18v328h328v-328h-328zM439 421v328h328v-328h-328zM439 1299v328h328v-328h-328zM474 18h257v257h-257v-257zM474 456h257v258h-257v-258zM474 1334h257 v258h-257v-258zM878 -18v328h327v-328h-327zM878 860v328h327v-328h-327zM878 1299v328h327v-328h-327zM913 18h257v257h-257v-257zM913 895h257v258h-257v-258zM913 1334h257v258h-257v-258zM1317 -18v328h327v-328h-327zM1317 1299v328h327v-328h-327zM1352 18h257v257 h-257v-257zM1352 1334h257v258h-257v-258z" />
<glyph unicode="{" horiz-adv-x="1755" d="M0 860v328h328v-328h-328zM35 895h258v258h-258v-258zM439 -18v328h328v-328h-328zM439 421v328h328v-328h-328zM439 860v328h328v-328h-328zM439 1299v328h328v-328h-328zM439 1738v328h328v-328h-328zM474 18h257v257h-257v-257zM474 456h257v258h-257v-258zM474 895 h257v258h-257v-258zM474 1334h257v258h-257v-258zM474 1773h257v257h-257v-257zM878 -18v328h327v-328h-327zM878 1738v328h327v-328h-327zM913 18h257v257h-257v-257zM913 1773h257v257h-257v-257z" />
<glyph unicode="|" horiz-adv-x="877" d="M0 -18v328h328v-328h-328zM0 421v328h328v-328h-328zM0 860v328h328v-328h-328zM0 1299v328h328v-328h-328zM0 1738v328h328v-328h-328zM35 18h258v257h-258v-257zM35 456h258v258h-258v-258zM35 895h258v258h-258v-258zM35 1334h258v258h-258v-258zM35 1773h258v257 h-258v-257z" />
<glyph unicode="}" horiz-adv-x="1755" d="M0 -18v328h328v-328h-328zM0 1738v328h328v-328h-328zM35 18h258v257h-258v-257zM35 1773h258v257h-258v-257zM439 -18v328h328v-328h-328zM439 421v328h328v-328h-328zM439 860v328h328v-328h-328zM439 1299v328h328v-328h-328zM439 1738v328h328v-328h-328zM474 18h257 v257h-257v-257zM474 456h257v258h-257v-258zM474 895h257v258h-257v-258zM474 1334h257v258h-257v-258zM474 1773h257v257h-257v-257zM878 860v328h327v-328h-327zM913 895h257v258h-257v-258z" />
<glyph unicode="~" horiz-adv-x="2194" d="M0 860v328h328v-328h-328zM35 895h258v258h-258v-258zM439 1299v328h328v-328h-328zM474 1334h257v258h-257v-258zM878 860v328h327v-328h-327zM913 895h257v258h-257v-258zM1317 1299v328h327v-328h-327zM1352 1334h257v258h-257v-258z" />
<glyph unicode="&#xad;" d="M0 860v328h328v-328h-328zM35 895h258v258h-258v-258zM439 860v328h328v-328h-328zM474 895h257v258h-257v-258zM878 860v328h327v-328h-327zM913 895h257v258h-257v-258zM1317 860v328h327v-328h-327zM1352 895h257v258h-257v-258zM1755 860v328h328v-328h-328z M1791 895h257v258h-257v-258z" />
<glyph unicode="&#x10d0;" horiz-adv-x="2192" d="M0 421v328h328v-328h-328zM35 456h258v258h-258v-258zM439 -18v328h328v-328h-328zM439 1299v328h328v-328h-328zM474 18h257v257h-257v-257zM474 1334h257v258h-257v-258zM878 -18v328h327v-328h-327zM878 1299v328h327v-328h-327zM913 18h257v257h-257v-257zM913 1334 h257v258h-257v-258zM1317 421v328h327v-328h-327zM1317 860v328h327v-328h-327zM1352 456h257v258h-257v-258zM1352 895h257v258h-257v-258z" />
<glyph unicode="&#x10d1;" horiz-adv-x="2195" d="M0 421v328h328v-328h-328zM0 860v328h328v-328h-328zM35 456h258v258h-258v-258zM35 895h258v258h-258v-258zM211 1785v327h333v-327h-333zM246 1820h263v257h-263v-257zM439 -18v328h328v-328h-328zM439 1299v328h328v-328h-328zM474 18h257v257h-257v-257zM474 1334 h257v258h-257v-258zM647 1736v382h333v-382h-333zM682 1772h263v311h-263v-311zM878 -18v328h327v-328h-327zM878 1299v328h327v-328h-327zM913 18h257v257h-257v-257zM913 1334h257v258h-257v-258zM1317 421v328h327v-328h-327zM1317 860v328h327v-328h-327zM1352 456h257 v258h-257v-258zM1352 895h257v258h-257v-258z" />
<glyph unicode="&#x10d2;" horiz-adv-x="2195" d="M0 -22v328h328v-328h-328zM0 417v328h328v-328h-328zM35 13h258v258h-258v-258zM35 452h258v257h-258v-257zM130 1252v382h341v-382h-341zM165 1287h271v312h-271v-312zM439 -133h328v-328h-328v328zM439 856v327h328v-327h-328zM474 -168v-258h257v258h-257zM474 891 h257v257h-257v-257zM575 1300v328h341v-328h-341zM610 1336h271v257h-271v-257zM878 -133h327v-328h-327v328zM878 856v327h327v-327h-327zM913 -168v-258h257v258h-257zM913 891h257v257h-257v-257zM1317 -22v328h327v-328h-327zM1317 417v328h327v-328h-327zM1352 13h257 v258h-257v-258zM1352 452h257v257h-257v-257z" />
<glyph unicode="&#x10d3;" horiz-adv-x="2195" d="M0 23v328h328v-328h-328zM0 492v327h328v-327h-328zM0 939v328h328v-328h-328zM35 59h258v257h-258v-257zM35 527h258v257h-258v-257zM35 974h258v258h-258v-258zM293 -133h327v-328h-327v328zM328 -168v-258h257v258h-257zM437 276v328h328v-328h-328zM437 1302v328h328 v-328h-328zM473 312h257v257h-257v-257zM473 1337h257v258h-257v-258zM736 -133h327v-328h-327v328zM771 -168v-258h257v258h-257zM875 276v328h327v-328h-327zM881 1302v328h327v-328h-327zM910 312h257v257h-257v-257zM916 1337h257v258h-257v-258zM1175 -129h327v-327 h-327v327zM1210 -164v-257h257v257h-257zM1318 571v327h328v-327h-328zM1318 1008v328h328v-328h-328zM1353 606h258v257h-258v-257zM1353 1043h258v257h-258v-257z" />
<glyph unicode="&#x10d4;" horiz-adv-x="2195" d="M6 -123h328v-328h-328v328zM6 867v328h328v-328h-328zM41 -158v-257h257v257h-257zM41 903h257v257h-257v-257zM445 -123h327v-328h-327v328zM445 1305v328h327v-328h-327zM480 -158v-257h257v257h-257zM480 1340h257v257h-257v-257zM884 -123h327v-328h-327v328z M884 1305v328h327v-328h-327zM919 -158v-257h257v257h-257zM919 1340h257v257h-257v-257zM1322 -12v328h328v-328h-328zM1322 427v328h328v-328h-328zM1322 866v328h328v-328h-328zM1358 23h257v258h-257v-258zM1358 462h257v258h-257v-258zM1358 901h257v258h-257v-258z " />
<glyph unicode="&#x10d5;" horiz-adv-x="2195" d="M6 -123h328v-328h-328v328zM6 867v328h328v-328h-328zM41 -158v-257h257v257h-257zM41 903h257v257h-257v-257zM445 -123h327v-328h-327v328zM445 1305v328h327v-328h-327zM480 -158v-257h257v257h-257zM480 1340h257v257h-257v-257zM884 -123h327v-328h-327v328z M884 1305v328h327v-328h-327zM885 642v328h328v-328h-328zM919 -158v-257h257v257h-257zM919 1340h257v257h-257v-257zM920 677h258v258h-258v-258zM1322 -12v328h328v-328h-328zM1322 427v328h328v-328h-328zM1322 866v328h328v-328h-328zM1358 23h257v258h-257v-258z M1358 462h257v258h-257v-258zM1358 901h257v258h-257v-258z" />
<glyph unicode="&#x10d6;" horiz-adv-x="2488" d="M-146 1444v328h327v-328h-327zM-111 1479h257v257h-257v-257zM225 1880v327h328v-327h-328zM260 1915h258v257h-258v-257zM290 130v328h327v-328h-327zM295 569v328h328v-328h-328zM295 1006v328h328v-328h-328zM325 165h257v258h-257v-258zM331 604h257v258h-257v-258z M331 1042h257v257h-257v-257zM590 1448v328h327v-328h-327zM625 1483h257v258h-257v-258zM729 -18v328h327v-328h-327zM729 1008v328h327v-328h-327zM764 18h257v257h-257v-257zM764 1043h257v257h-257v-257zM1170 -18v328h328v-328h-328zM1172 1008v328h327v-328h-327z M1205 18h258v257h-258v-257zM1207 1043h257v257h-257v-257zM1600 281v328h328v-328h-328zM1605 714v328h327v-328h-327zM1635 316h258v257h-258v-257zM1640 749h257v257h-257v-257z" />
<glyph unicode="&#x10d7;" d="M0 421v328h328v-328h-328zM0 860v328h328v-328h-328zM35 456h258v258h-258v-258zM35 895h258v258h-258v-258zM439 -18v328h328v-328h-328zM439 1299v328h328v-328h-328zM474 18h257v257h-257v-257zM474 1334h257v258h-257v-258zM878 421v328h327v-328h-327zM878 860v328 h327v-328h-327zM878 1299v328h327v-328h-327zM913 456h257v258h-257v-258zM913 895h257v258h-257v-258zM913 1334h257v258h-257v-258zM1317 1299v328h327v-328h-327zM1352 1334h257v258h-257v-258zM1755 -18v328h328v-328h-328zM1755 421v328h328v-328h-328zM1755 860v328 h328v-328h-328zM1791 18h257v257h-257v-257zM1791 456h257v258h-257v-258zM1791 895h257v258h-257v-258z" />
<glyph unicode="&#x10d8;" horiz-adv-x="2195" d="M0 -18v328h328v-328h-328zM0 421v328h328v-328h-328zM0 860v328h328v-328h-328zM35 18h258v257h-258v-257zM35 456h258v258h-258v-258zM35 895h258v258h-258v-258zM439 1299v328h328v-328h-328zM474 1334h257v258h-257v-258zM878 1299v328h327v-328h-327zM913 1334h257 v258h-257v-258zM1317 -18v328h327v-328h-327zM1317 421v328h327v-328h-327zM1317 860v328h327v-328h-327zM1352 18h257v257h-257v-257zM1352 456h257v258h-257v-258zM1352 895h257v258h-257v-258z" />
<glyph unicode="&#x10d9;" horiz-adv-x="2194" d="M0 -18v328h328v-328h-328zM0 -129h328v-327h-328v327zM35 18h258v257h-258v-257zM35 -164v-257h258v257h-258zM439 -129h328v-327h-328v327zM474 -164v-257h257v257h-257zM878 -129h327v-327h-327v327zM878 860v328h327v-328h-327zM913 -164v-257h257v257h-257zM913 895 h257v258h-257v-258zM1317 -18v328h327v-328h-327zM1317 427v328h327v-328h-327zM1317 860v328h327v-328h-327zM1317 1299v328h327v-328h-327zM1352 18h257v257h-257v-257zM1352 462h257v258h-257v-258zM1352 895h257v258h-257v-258zM1352 1334h257v258h-257v-258z" />
<glyph unicode="&#x10da;" horiz-adv-x="2194" d="M0 23v328h328v-328h-328zM0 492v327h328v-327h-328zM0 939v328h328v-328h-328zM35 59h258v257h-258v-257zM35 527h258v257h-258v-257zM35 974h258v258h-258v-258zM293 -133h327v-328h-327v328zM328 -168v-258h257v258h-257zM437 1302v328h328v-328h-328zM473 1337h257 v258h-257v-258zM736 -133h327v-328h-327v328zM771 -168v-258h257v258h-257zM881 1302v328h327v-328h-327zM916 1337h257v258h-257v-258zM1175 -129h327v-327h-327v327zM1210 -164v-257h257v257h-257zM1318 571v327h328v-327h-328zM1318 1008v328h328v-328h-328zM1353 606 h258v257h-258v-257zM1353 1043h258v257h-258v-257z" />
<glyph unicode="&#x10db;" horiz-adv-x="2194" d="M0 269v328h328v-328h-328zM0 707v327h328v-327h-328zM35 304h258v258h-258v-258zM35 742h258v257h-258v-257zM146 1592v327h328v-327h-328zM181 1627h258v257h-258v-257zM437 -25v328h328v-328h-328zM443 1001v327h328v-327h-328zM473 10h257v258h-257v-258zM478 1036 h258v257h-258v-257zM582 1738v328h328v-328h-328zM617 1773h258v257h-258v-257zM881 -25v328h327v-328h-327zM881 1001v327h327v-327h-327zM916 10h257v258h-257v-258zM916 1036h257v257h-257v-257zM1025 1738v328h328v-328h-328zM1061 1773h257v257h-257v-257zM1318 338 v328h328v-328h-328zM1318 786v327h328v-327h-328zM1318 1254v327h328v-327h-328zM1353 373h258v257h-258v-257zM1353 821h258v257h-258v-257zM1353 1289h258v257h-258v-257z" />
<glyph unicode="&#x10dc;" horiz-adv-x="2194" d="M0 338v328h328v-328h-328zM0 786v327h328v-327h-328zM0 1254v327h328v-327h-328zM35 373h258v257h-258v-257zM35 821h258v257h-258v-257zM35 1289h258v257h-258v-257zM293 1738v328h327v-328h-327zM328 1773h257v257h-257v-257zM437 -25v328h328v-328h-328zM437 1001v327 h328v-327h-328zM473 10h257v258h-257v-258zM473 1036h257v257h-257v-257zM736 1738v328h327v-328h-327zM771 1773h257v257h-257v-257zM875 1001v327h327v-327h-327zM881 -25v328h327v-328h-327zM910 1036h257v257h-257v-257zM916 10h257v258h-257v-258zM1170 1735v328h328 v-328h-328zM1205 1770h258v258h-258v-258zM1318 269v328h328v-328h-328zM1318 707v327h328v-327h-328zM1353 304h258v258h-258v-258zM1353 742h258v257h-258v-257z" />
<glyph unicode="&#x10dd;" horiz-adv-x="2194" d="M0 -18v328h328v-328h-328zM0 421v328h328v-328h-328zM0 860v328h328v-328h-328zM35 18h258v257h-258v-257zM35 456h258v258h-258v-258zM35 895h258v258h-258v-258zM293 1299v328h327v-328h-327zM328 1334h257v258h-257v-258zM666 860v328h327v-328h-327zM701 895h257v258 h-257v-258zM1024 1299v328h328v-328h-328zM1059 1334h258v258h-258v-258zM1317 -18v328h327v-328h-327zM1317 421v328h327v-328h-327zM1317 860v328h327v-328h-327zM1352 18h257v257h-257v-257zM1352 456h257v258h-257v-258zM1352 895h257v258h-257v-258z" />
<glyph unicode="&#x10de;" horiz-adv-x="2194" d="M0 276v328h328v-328h-328zM35 312h258v257h-258v-257zM437 -18v328h328v-328h-328zM473 18h257v257h-257v-257zM585 1742v328h328v-328h-328zM620 1777h258v258h-258v-258zM881 -18v328h327v-328h-327zM881 1008v328h327v-328h-327zM916 18h257v257h-257v-257zM916 1043 h257v257h-257v-257zM1024 1742v328h328v-328h-328zM1059 1777h258v258h-258v-258zM1318 345v328h328v-328h-328zM1318 793v328h328v-328h-328zM1318 1261v328h328v-328h-328zM1353 380h258v258h-258v-258zM1353 828h258v257h-258v-257zM1353 1296h258v258h-258v-258z" />
<glyph unicode="&#x10df;" horiz-adv-x="2194" d="M0 -18v328h328v-328h-328zM0 -129h328v-327h-328v327zM35 18h258v257h-258v-257zM35 -164v-257h258v257h-258zM293 714v328h327v-328h-327zM328 749h257v257h-257v-257zM439 -129h328v-327h-328v327zM474 -164v-257h257v257h-257zM731 714v328h328v-328h-328zM767 749 h257v257h-257v-257zM878 -129h327v-327h-327v327zM878 1153v327h327v-327h-327zM913 -164v-257h257v257h-257zM913 1188h257v257h-257v-257zM1317 -18v328h327v-328h-327zM1317 427v328h327v-328h-327zM1317 860v328h327v-328h-327zM1317 1299v328h327v-328h-327zM1352 18 h257v257h-257v-257zM1352 462h257v258h-257v-258zM1352 895h257v258h-257v-258zM1352 1334h257v258h-257v-258z" />
<glyph unicode="&#x10e0;" horiz-adv-x="2194" d="M0 -18v328h328v-328h-328zM0 421v328h328v-328h-328zM0 860v328h328v-328h-328zM0 1299v328h328v-328h-328zM35 18h258v257h-258v-257zM35 456h258v258h-258v-258zM35 895h258v258h-258v-258zM35 1334h258v258h-258v-258zM439 860v328h328v-328h-328zM439 1741v327h328 v-327h-328zM474 895h257v258h-257v-258zM474 1776h257v257h-257v-257zM878 860v328h327v-328h-327zM882 1741v327h328v-327h-328zM913 895h257v258h-257v-258zM917 1776h258v257h-258v-257zM1317 -18v328h327v-328h-327zM1317 421v328h327v-328h-327zM1317 1738v328h327 v-328h-327zM1318 853v328h328v-328h-328zM1352 18h257v257h-257v-257zM1352 456h257v258h-257v-258zM1352 1773h257v257h-257v-257zM1353 888h258v257h-258v-257z" />
<glyph unicode="&#x10e1;" horiz-adv-x="2194" d="M0 421v328h328v-328h-328zM0 860v328h328v-328h-328zM0 1299v328h328v-328h-328zM0 1738v328h328v-328h-328zM35 456h258v258h-258v-258zM35 895h258v258h-258v-258zM35 1334h258v258h-258v-258zM35 1773h258v257h-258v-257zM439 -18v328h328v-328h-328zM474 18h257v257 h-257v-257zM878 -18v328h327v-328h-327zM913 18h257v257h-257v-257zM1317 421v328h327v-328h-327zM1318 853v328h328v-328h-328zM1352 456h257v258h-257v-258zM1353 888h258v257h-258v-257z" />
<glyph unicode="&#x10e2;" horiz-adv-x="2048" d="M0 -164v328h328v-328h-328zM0 275v328h328v-328h-328zM0 714v328h328v-328h-328zM35 129v-258h258v258h-258zM35 310h258v258h-258v-258zM35 749h258v257h-258v-257zM437 -129h622v-327h-622v327zM473 -164v-257h551v257h-551zM581 1153v327h327v-327h-327zM585 714v328 h328v-328h-328zM616 1188h257v257h-257v-257zM620 749h258v257h-258v-257zM1170 -164v328h328v-328h-328zM1170 275v328h328v-328h-328zM1170 714v328h328v-328h-328zM1205 129v-258h258v258h-258zM1205 310h258v258h-258v-258zM1205 749h258v257h-258v-257z" />
<glyph unicode="&#x10e3;" horiz-adv-x="2194" d="M0 860v328h328v-328h-328zM0 1299v328h328v-328h-328zM6 -123h328v-328h-328v328zM35 895h258v258h-258v-258zM35 1334h258v258h-258v-258zM41 -158v-257h257v257h-257zM293 421v328h327v-328h-327zM328 456h257v258h-257v-258zM445 -123h327v-328h-327v328zM480 -158 v-257h257v257h-257zM585 860v328h328v-328h-328zM585 1299v328h328v-328h-328zM620 895h258v258h-258v-258zM620 1334h258v258h-258v-258zM878 421v328h327v-328h-327zM884 -123h327v-328h-327v328zM913 456h257v258h-257v-258zM919 -158v-257h257v257h-257zM1317 1299v328 h327v-328h-327zM1322 -12v328h328v-328h-328zM1322 427v328h328v-328h-328zM1322 866v328h328v-328h-328zM1352 1334h257v258h-257v-258zM1358 23h257v258h-257v-258zM1358 462h257v258h-257v-258zM1358 901h257v258h-257v-258z" />
<glyph unicode="&#x10e4;" horiz-adv-x="2925" d="M0 421v328h328v-328h-328zM0 860v328h328v-328h-328zM35 456h258v258h-258v-258zM35 895h258v258h-258v-258zM439 129v327h328v-327h-328zM439 1299v328h328v-328h-328zM474 164h257v257h-257v-257zM474 1334h257v258h-257v-258zM878 421v328h327v-328h-327zM878 860v328 h327v-328h-327zM878 1299v328h327v-328h-327zM913 456h257v258h-257v-258zM913 895h257v258h-257v-258zM913 1334h257v258h-257v-258zM1170 -129h328v-327h-328v327zM1205 -164v-257h258v257h-258zM1317 1299v328h327v-328h-327zM1352 1334h257v258h-257v-258zM1609 -129 h328v-327h-328v327zM1609 421v328h328v-328h-328zM1644 -164v-257h258v257h-258zM1644 456h258v258h-258v-258zM1755 1299v328h328v-328h-328zM1791 1334h257v258h-257v-258zM2048 -18v328h328v-328h-328zM2048 -129h328v-327h-328v327zM2048 421v328h328v-328h-328z M2048 860v328h328v-328h-328zM2083 18h258v257h-258v-257zM2083 -164v-257h258v257h-258zM2083 456h258v258h-258v-258zM2083 895h258v258h-258v-258z" />
<glyph unicode="&#x10e5;" horiz-adv-x="2194" d="M0 -18v328h328v-328h-328zM0 -129h328v-327h-328v327zM35 18h258v257h-258v-257zM35 -164v-257h258v257h-258zM439 -129h328v-327h-328v327zM439 568v327h328v-327h-328zM439 1006v328h328v-328h-328zM474 -164v-257h257v257h-257zM474 603h257v257h-257v-257zM474 1042 h257v257h-257v-257zM878 -129h327v-327h-327v327zM878 1006v328h327v-328h-327zM913 -164v-257h257v257h-257zM913 1042h257v257h-257v-257zM1317 -18v328h327v-328h-327zM1317 427v328h327v-328h-327zM1317 860v328h327v-328h-327zM1317 1299v328h327v-328h-327zM1317 1738 v328h327v-328h-327zM1352 18h257v257h-257v-257zM1352 462h257v258h-257v-258zM1352 895h257v258h-257v-258zM1352 1334h257v258h-257v-258zM1352 1773h257v257h-257v-257z" />
<glyph unicode="&#x10e6;" horiz-adv-x="2340" d="M0 23v328h328v-328h-328zM0 492v327h328v-327h-328zM0 939v328h328v-328h-328zM35 59h258v257h-258v-257zM35 527h258v257h-258v-257zM35 974h258v258h-258v-258zM293 -133h327v-328h-327v328zM328 -168v-258h257v258h-257zM437 1302v328h328v-328h-328zM473 1337h257 v258h-257v-258zM731 860v328h328v-328h-328zM736 -133h327v-328h-327v328zM767 895h257v258h-257v-258zM771 -168v-258h257v258h-257zM1025 1299v328h328v-328h-328zM1061 1334h257v258h-257v-258zM1175 -129h327v-327h-327v327zM1210 -164v-257h257v257h-257zM1463 568v327 h328v-327h-328zM1463 1005v328h328v-328h-328zM1498 603h257v257h-257v-257zM1498 1040h257v258h-257v-258z" />
<glyph unicode="&#x10e7;" horiz-adv-x="2194" d="M0 862v327h328v-327h-328zM0 1299v328h328v-328h-328zM35 897h258v257h-258v-257zM35 1334h258v258h-258v-258zM145 -129h328v-327h-328v327zM180 -164v-257h257v257h-257zM437 568v327h328v-327h-328zM473 603h257v257h-257v-257zM584 -133h327v-328h-327v328zM619 -168 v-258h257v258h-257zM881 568v327h327v-327h-327zM916 603h257v257h-257v-257zM1027 -133h328v-328h-328v328zM1062 -168v-258h257v258h-257zM1319 -18v328h328v-328h-328zM1319 421v328h328v-328h-328zM1319 860v328h328v-328h-328zM1319 1299v328h328v-328h-328zM1355 18 h257v257h-257v-257zM1355 456h257v258h-257v-258zM1355 895h257v258h-257v-258zM1355 1334h257v258h-257v-258z" />
<glyph unicode="&#x10e8;" horiz-adv-x="2194" d="M0 269v328h328v-328h-328zM0 707v327h328v-327h-328zM0 1445v328h328v-328h-328zM35 304h258v258h-258v-258zM35 742h258v257h-258v-257zM35 1480h258v258h-258v-258zM437 -25v328h328v-328h-328zM439 1738v328h328v-328h-328zM443 1001v327h328v-327h-328zM473 10h257 v258h-257v-258zM474 1773h257v257h-257v-257zM478 1036h258v257h-258v-257zM878 1592v327h327v-327h-327zM881 -25v328h327v-328h-327zM881 1001v327h327v-327h-327zM913 1627h257v257h-257v-257zM916 10h257v258h-257v-258zM916 1036h257v257h-257v-257zM1317 1738v328h327 v-328h-327zM1318 338v328h328v-328h-328zM1318 786v327h328v-327h-328zM1318 1254v327h328v-327h-328zM1352 1773h257v257h-257v-257zM1353 373h258v257h-258v-257zM1353 821h258v257h-258v-257zM1353 1289h258v257h-258v-257z" />
<glyph unicode="&#x10e9;" horiz-adv-x="2194" d="M0 -18v328h328v-328h-328zM0 421v328h328v-328h-328zM0 860v328h328v-328h-328zM0 1299v328h328v-328h-328zM35 18h258v257h-258v-257zM35 456h258v258h-258v-258zM35 895h258v258h-258v-258zM35 1334h258v258h-258v-258zM293 1738v328h327v-328h-327zM328 1773h257v257 h-257v-257zM439 860v328h328v-328h-328zM474 895h257v258h-257v-258zM731 1299v328h328v-328h-328zM731 1738v328h328v-328h-328zM767 1334h257v258h-257v-258zM767 1773h257v257h-257v-257zM878 860v328h327v-328h-327zM913 895h257v258h-257v-258zM1317 -18v328h327v-328 h-327zM1317 421v328h327v-328h-327zM1318 853v328h328v-328h-328zM1352 18h257v257h-257v-257zM1352 456h257v258h-257v-258zM1353 888h258v257h-258v-257z" />
<glyph unicode="&#x10ea;" horiz-adv-x="2194" d="M0 -16v328h328v-328h-328zM0 421v328h328v-328h-328zM0 860v328h328v-328h-328zM0 1299v328h328v-328h-328zM35 19h258v257h-258v-257zM35 456h258v258h-258v-258zM35 895h258v258h-258v-258zM35 1334h258v258h-258v-258zM437 -129h328v-327h-328v327zM473 -164v-257h257 v257h-257zM878 714v328h327v-328h-327zM881 -129h327v-327h-327v327zM913 749h257v257h-257v-257zM916 -164v-257h257v257h-257zM1024 1299v328h328v-328h-328zM1059 1334h258v258h-258v-258zM1317 -18v328h327v-328h-327zM1317 421v328h327v-328h-327zM1317 860v328h327 v-328h-327zM1352 18h257v257h-257v-257zM1352 456h257v258h-257v-258zM1352 895h257v258h-257v-258z" />
<glyph unicode="&#x10eb;" horiz-adv-x="2194" d="M0 275v328h328v-328h-328zM0 714v328h328v-328h-328zM35 310h258v258h-258v-258zM35 749h258v257h-258v-257zM439 -18v328h328v-328h-328zM443 1001v327h328v-327h-328zM474 18h257v257h-257v-257zM478 1036h258v257h-258v-257zM881 -25v328h327v-328h-327zM881 1001v327 h327v-327h-327zM916 10h257v258h-257v-258zM916 1036h257v257h-257v-257zM1317 354v328h327v-328h-327zM1317 794v328h327v-328h-327zM1317 1238v327h327v-327h-327zM1317 1675v328h327v-328h-327zM1352 389h257v258h-257v-258zM1352 829h257v258h-257v-258zM1352 1273h257 v257h-257v-257zM1352 1710h257v258h-257v-258z" />
<glyph unicode="&#x10ec;" horiz-adv-x="2194" d="M0 338v328h328v-328h-328zM0 786v327h328v-327h-328zM0 1254v327h328v-327h-328zM1 1738v328h328v-328h-328zM35 373h258v257h-258v-257zM35 821h258v257h-258v-257zM35 1289h258v257h-258v-257zM37 1773h257v257h-257v-257zM437 -25v328h328v-328h-328zM437 1001v327 h328v-327h-328zM440 1592v327h328v-327h-328zM473 10h257v258h-257v-258zM473 1036h257v257h-257v-257zM475 1627h258v257h-258v-257zM875 1001v327h327v-327h-327zM879 1738v328h328v-328h-328zM881 -25v328h327v-328h-327zM910 1036h257v257h-257v-257zM914 1773h258v257 h-258v-257zM916 10h257v258h-257v-258zM1318 269v328h328v-328h-328zM1318 707v327h328v-327h-328zM1318 1445v328h328v-328h-328zM1353 304h258v258h-258v-258zM1353 742h258v257h-258v-257zM1353 1480h258v258h-258v-258z" />
<glyph unicode="&#x10ed;" horiz-adv-x="2340" d="M0 -18v328h328v-328h-328zM0 -129h328v-327h-328v327zM35 18h258v257h-258v-257zM35 -164v-257h258v257h-258zM293 860v328h327v-328h-327zM328 895h257v258h-257v-258zM439 -129h328v-327h-328v327zM474 -164v-257h257v257h-257zM731 568v327h328v-327h-328zM731 1153 v327h328v-327h-328zM767 603h257v257h-257v-257zM767 1188h257v257h-257v-257zM878 -129h327v-327h-327v327zM913 -164v-257h257v257h-257zM1170 -18v328h328v-328h-328zM1170 427v328h328v-328h-328zM1170 860v328h328v-328h-328zM1170 1299v328h328v-328h-328zM1170 1738 v328h328v-328h-328zM1205 18h258v257h-258v-257zM1205 462h258v258h-258v-258zM1205 895h258v258h-258v-258zM1205 1334h258v258h-258v-258zM1205 1773h258v257h-258v-257zM1609 860v328h328v-328h-328zM1644 895h258v258h-258v-258z" />
<glyph unicode="&#x10ee;" horiz-adv-x="2194" d="M0 354v328h328v-328h-328zM0 794v328h328v-328h-328zM0 1238v327h328v-327h-328zM0 1675v328h328v-328h-328zM35 389h258v258h-258v-258zM35 829h258v258h-258v-258zM35 1273h258v257h-258v-257zM35 1710h258v258h-258v-258zM436 -25v328h328v-328h-328zM436 1001v327 h328v-327h-328zM471 10h258v258h-258v-258zM471 1036h258v257h-258v-257zM873 1001v327h328v-327h-328zM878 -18v328h327v-328h-327zM908 1036h258v257h-258v-257zM913 18h257v257h-257v-257zM1317 275v328h327v-328h-327zM1317 714v328h327v-328h-327zM1352 310h257v258 h-257v-258zM1352 749h257v257h-257v-257z" />
<glyph unicode="&#x10ef;" horiz-adv-x="2486" d="M0 -18v328h328v-328h-328zM0 -129h328v-327h-328v327zM35 18h258v257h-258v-257zM35 -164v-257h258v257h-258zM439 -129h328v-327h-328v327zM474 -164v-257h257v257h-257zM731 1006v328h328v-328h-328zM767 1042h257v257h-257v-257zM878 -129h327v-327h-327v327z M913 -164v-257h257v257h-257zM1170 -18v328h328v-328h-328zM1170 427v328h328v-328h-328zM1170 860v328h328v-328h-328zM1170 1299v328h328v-328h-328zM1170 1738v328h328v-328h-328zM1205 18h258v257h-258v-257zM1205 462h258v258h-258v-258zM1205 895h258v258h-258v-258z M1205 1334h258v258h-258v-258zM1205 1773h258v257h-258v-257zM1609 666v327h328v-327h-328zM1644 701h258v257h-258v-257z" />
<glyph unicode="&#x10f0;" horiz-adv-x="2194" d="M0 421v328h328v-328h-328zM35 456h258v258h-258v-258zM437 -18v328h328v-328h-328zM473 18h257v257h-257v-257zM878 639v328h327v-328h-327zM878 1093v327h327v-327h-327zM878 1738v328h327v-328h-327zM881 -18v328h327v-328h-327zM913 674h257v258h-257v-258zM913 1128 h257v257h-257v-257zM913 1773h257v257h-257v-257zM916 18h257v257h-257v-257zM1317 421v328h327v-328h-327zM1317 860v328h327v-328h-327zM1317 1299v328h327v-328h-327zM1352 456h257v258h-257v-258zM1352 895h257v258h-257v-258zM1352 1334h257v258h-257v-258z" />
<glyph unicode="&#x2000;" horiz-adv-x="1103" />
<glyph unicode="&#x2001;" horiz-adv-x="2207" />
<glyph unicode="&#x2002;" horiz-adv-x="1103" />
<glyph unicode="&#x2003;" horiz-adv-x="2207" />
<glyph unicode="&#x2004;" horiz-adv-x="735" />
<glyph unicode="&#x2005;" horiz-adv-x="551" />
<glyph unicode="&#x2006;" horiz-adv-x="367" />
<glyph unicode="&#x2007;" horiz-adv-x="367" />
<glyph unicode="&#x2008;" horiz-adv-x="275" />
<glyph unicode="&#x2009;" horiz-adv-x="441" />
<glyph unicode="&#x200a;" horiz-adv-x="122" />
<glyph unicode="&#x2010;" d="M0 860v328h328v-328h-328zM35 895h258v258h-258v-258zM439 860v328h328v-328h-328zM474 895h257v258h-257v-258zM878 860v328h327v-328h-327zM913 895h257v258h-257v-258zM1317 860v328h327v-328h-327zM1352 895h257v258h-257v-258zM1755 860v328h328v-328h-328z M1791 895h257v258h-257v-258z" />
<glyph unicode="&#x2011;" d="M0 860v328h328v-328h-328zM35 895h258v258h-258v-258zM439 860v328h328v-328h-328zM474 895h257v258h-257v-258zM878 860v328h327v-328h-327zM913 895h257v258h-257v-258zM1317 860v328h327v-328h-327zM1352 895h257v258h-257v-258zM1755 860v328h328v-328h-328z M1791 895h257v258h-257v-258z" />
<glyph unicode="&#x2012;" d="M0 860v328h328v-328h-328zM35 895h258v258h-258v-258zM439 860v328h328v-328h-328zM474 895h257v258h-257v-258zM878 860v328h327v-328h-327zM913 895h257v258h-257v-258zM1317 860v328h327v-328h-327zM1352 895h257v258h-257v-258zM1755 860v328h328v-328h-328z M1791 895h257v258h-257v-258z" />
<glyph unicode="&#x2013;" horiz-adv-x="1574" d="M0 860v328h161v-328h-161zM17 895h127v258h-127v-258zM216 860v328h161v-328h-161zM233 895h126v258h-126v-258zM432 860v328h160v-328h-160zM449 895h126v258h-126v-258zM647 860v328h161v-328h-161zM665 895h126v258h-126v-258zM863 860v328h161v-328h-161zM880 895 h127v258h-127v-258z" />
<glyph unicode="&#x2014;" horiz-adv-x="2598" d="M0 860v328h322v-328h-322zM34 895h254v258h-254v-258zM432 860v328h322v-328h-322zM466 895h253v258h-253v-258zM863 860v328h322v-328h-322zM898 895h252v258h-252v-258zM1295 860v328h321v-328h-321zM1329 895h253v258h-253v-258zM1726 860v328h322v-328h-322z M1761 895h253v258h-253v-258z" />
<glyph unicode="&#x202f;" horiz-adv-x="441" />
<glyph unicode="&#x205f;" horiz-adv-x="551" />
<glyph unicode="&#x25fc;" horiz-adv-x="1623" d="M0 0v1624h1624v-1624h-1624z" />
<glyph unicode="&#x2661;" d="M0 860v328h328v-328h-328zM35 895h258v258h-258v-258zM439 421v328h328v-328h-328zM439 1298v327h328v-327h-328zM474 456h257v258h-257v-258zM474 1333h257v257h-257v-257zM878 -18v328h327v-328h-327zM878 1006v328h327v-328h-327zM913 18h257v257h-257v-257zM913 1042 h257v257h-257v-257zM1317 421v328h327v-328h-327zM1317 1300v328h327v-328h-327zM1352 456h257v258h-257v-258zM1352 1336h257v257h-257v-257zM1755 859v327h328v-327h-328zM1791 894h257v257h-257v-257z" />
</font>
</defs>
</svg>
