<?xml version="1.0" standalone="no"?>
<!DOCTYPE svg PUBLIC "-//W3C//DTD SVG 1.1//EN" "http://www.w3.org/Graphics/SVG/1.1/DTD/svg11.dtd" >
<svg xmlns="http://www.w3.org/2000/svg" xmlns:xlink="http://www.w3.org/1999/xlink" version="1.1">
<metadata></metadata>
<defs>
<font id="archyedt-bold" horiz-adv-x="1105" >
<font-face units-per-em="2048" ascent="1536" descent="-512" />
<missing-glyph horiz-adv-x="397" />
<glyph unicode="ff" horiz-adv-x="1349" d="M45 854v102q0 26 11 36.5t38 13.5l105 10h6v121q0 142 110 222.5t330 80.5h19q27 0 39 -12t12 -39v-119q0 -27 -12 -39t-39 -12h-19q-88 0 -129 -27t-41 -84v-92h359v127q0 141 110.5 221t329.5 80h18q27 0 39 -11t12 -38v-119q0 -53 -51 -53h-18q-88 0 -129 -27t-41 -84 v-96h170q27 0 39 -10.5t12 -36.5v-115q0 -27 -12 -39t-39 -12h-170v-750q0 -28 -11.5 -40.5t-37.5 -12.5h-170q-27 0 -39 12.5t-12 40.5v750h-359v-750q0 -28 -11 -40.5t-38 -12.5h-170q-27 0 -39 12.5t-12 40.5v750h-111q-26 0 -37.5 11.5t-11.5 39.5z" />
<glyph unicode="fi" horiz-adv-x="1218" d="M39 854v102q0 26 11.5 36.5t39.5 13.5l103 10h8v112q0 143 109.5 223.5t328.5 80.5h393q28 0 39.5 -12t11.5 -40v-118q0 -28 -11.5 -40t-39.5 -12h-393q-87 0 -128.5 -26.5t-41.5 -83.5v-84h575q28 0 40 -11t12 -38v-914q0 -29 -10 -41t-37 -12h-170q-28 0 -40 12.5 t-12 40.5v750h-358v-750q0 -28 -11 -40.5t-38 -12.5h-170q-27 0 -38 12.5t-11 40.5v750h-111q-28 0 -39.5 11.5t-11.5 39.5z" />
<glyph unicode="fl" horiz-adv-x="1218" d="M39 854v102q0 26 11.5 36.5t39.5 13.5l103 10h8v112q0 143 109.5 223.5t328.5 80.5h405q28 0 40 -12t12 -40v-1327q0 -29 -10 -41t-37 -12h-170q-28 0 -40 12.5t-12 40.5v1157h-188q-87 0 -128.5 -26.5t-41.5 -83.5v-84h170q27 0 39 -10.5t12 -36.5v-115q0 -27 -12 -39 t-39 -12h-170v-750q0 -28 -11 -40.5t-38 -12.5h-170q-27 0 -38 12.5t-11 40.5v750h-111q-28 0 -39.5 11.5t-11.5 39.5z" />
<glyph unicode="ffi" horiz-adv-x="1853" d="M45 854v102q0 26 11 36.5t38 13.5l105 10h6v121q0 142 110 222.5t330 80.5h19q27 0 39 -12t12 -39v-119q0 -27 -12 -39t-39 -12h-19q-88 0 -129 -27t-41 -84v-92h359v112q0 143 110 223.5t330 80.5h393q28 0 40.5 -12t12.5 -40v-118q0 -28 -12.5 -40t-40.5 -12h-393 q-88 0 -129 -26.5t-41 -83.5v-84h575q29 0 41.5 -11t12.5 -38v-914q0 -28 -11.5 -40.5t-38.5 -12.5h-170q-27 0 -39 12.5t-12 40.5v750h-358v-750q0 -28 -11.5 -40.5t-37.5 -12.5h-170q-27 0 -39 12.5t-12 40.5v750h-359v-750q0 -28 -11 -40.5t-38 -12.5h-170 q-27 0 -39 12.5t-12 40.5v750h-111q-26 0 -37.5 11.5t-11.5 39.5z" />
<glyph unicode="ffl" horiz-adv-x="1853" d="M45 854v102q0 26 11.5 36.5t39.5 13.5l103 10h8v121q0 143 109.5 223t328.5 80h19q28 0 40.5 -12t12.5 -39v-119q0 -27 -12.5 -39t-40.5 -12h-19q-170 0 -170 -111v-92h359v112q0 143 110 223.5t330 80.5h405q54 0 54 -52v-1327q0 -28 -11.5 -40.5t-38.5 -12.5h-170 q-27 0 -38 12.5t-11 40.5v1157h-190q-88 0 -129 -26.5t-41 -83.5v-84h170q27 0 39 -10.5t12 -36.5v-115q0 -27 -12 -39t-39 -12h-170v-750q0 -28 -11 -40.5t-38 -12.5h-170q-51 0 -51 53v750h-359v-750q0 -28 -11 -40.5t-38 -12.5h-170q-27 0 -38 12.5t-11 40.5v750h-111 q-28 0 -39.5 11.5t-11.5 39.5z" />
<glyph unicode=" "  horiz-adv-x="397" />
<glyph unicode="&#x09;" horiz-adv-x="397" />
<glyph unicode="&#xa0;" horiz-adv-x="397" />
<glyph unicode="!" horiz-adv-x="567" d="M143 51v166q0 28 11 39.5t39 11.5h178q27 0 38 -11.5t11 -39.5v-166q0 -28 -11 -39.5t-38 -11.5h-178q-28 0 -39 11.5t-11 39.5zM143 799v540q0 54 52 54h180q27 0 38 -12.5t11 -41.5v-540l-27 -375q-2 -29 -12 -40t-37 -11h-127q-27 0 -37 11t-12 40z" />
<glyph unicode="&#x22;" horiz-adv-x="874" d="M123 1339q-3 54 49 54h166q50 0 47 -54l-20 -333q0 -28 -12 -40t-38 -12h-120q-27 0 -37.5 11.5t-12.5 40.5zM489 1339q-3 54 50 54h163q53 0 50 -54l-23 -333q0 -28 -11 -40t-38 -12h-119q-27 0 -38 12t-13 40z" />
<glyph unicode="#" horiz-adv-x="1388" d="M137 420v90q0 26 12 36.5t39 10.5h142l43 154h-86q-54 0 -54 49v90q0 26 13 36.5t41 10.5h141l45 160q13 53 64 53h120q51 0 37 -53l-47 -160h252l45 160q16 53 64 53h120q51 0 37 -53l-45 -160h80q27 0 39 -10.5t12 -36.5v-90q0 -49 -51 -49h-135l-43 -154h80 q28 0 40.5 -10.5t12.5 -36.5v-90q0 -27 -12.5 -39t-40.5 -12h-135l-45 -160q-8 -27 -21.5 -39t-40.5 -12h-121q-52 0 -37 51l46 160h-252l-45 -160q-8 -27 -21.5 -39t-40.5 -12h-123q-50 0 -35 51l45 160h-88q-27 0 -39 12t-12 39zM549 557h252l45 154h-252z" />
<glyph unicode="$" horiz-adv-x="1097" d="M137 434v47q0 25 10.5 36t36.5 11h152q26 0 36.5 -11t10.5 -36v-35q0 -86 164 -86q166 0 166 86v35q0 25 -20.5 42t-71.5 36l-297 109q-63 24 -112.5 84.5t-49.5 132.5v65q0 43 14 82.5t43.5 76t82.5 63.5t124 40v127q0 54 49 54h172q26 0 36.5 -13t10.5 -41v-129 q130 -27 191 -99t61 -161v-39q0 -27 -10 -37t-37 -10h-151q-25 0 -35.5 10.5t-10.5 36.5v39q0 84 -149 84q-147 0 -147 -84v-22q0 -50 63 -72l295 -104q197 -70 197 -213v-105q0 -86 -67 -156t-200 -96v-129q0 -28 -10.5 -40.5t-36.5 -12.5h-172q-26 0 -37.5 12.5 t-11.5 40.5v125q-147 22 -218 92.5t-71 163.5z" />
<glyph unicode="%" horiz-adv-x="1779" d="M137 979v201q0 109 78 169t242 60q319 0 319 -229v-201q0 -229 -319 -229q-164 0 -242 60t-78 169zM356 987q0 -63 101 -63q100 0 100 63v184q0 62 -100 62q-101 0 -101 -62v-184zM441 18q-6 18 3 35l658 1286q26 54 74 54h141q24 0 30 -16t-6 -38l-655 -1286 q-14 -28 -30.5 -40.5t-43.5 -12.5h-143q-22 0 -28 18zM1004 209v201q0 229 319 229t319 -229v-201q0 -229 -319 -229t-319 229zM1223 219q0 -63 100 -63q49 0 73.5 14.5t24.5 48.5v184q0 62 -98 62q-100 0 -100 -62v-184z" />
<glyph unicode="&#x26;" horiz-adv-x="1425" d="M127 309v183q0 83 40 141t132 92q-84 28 -119 79.5t-35 133.5v145q0 326 457 326q106 0 187.5 -18.5t132.5 -49t83.5 -74.5t45 -90.5t12.5 -101.5v-65q0 -27 -10.5 -39.5t-36.5 -12.5h-172q-49 0 -49 52v26q0 76 -45.5 114t-145.5 38q-98 0 -143 -38t-45 -114v-57 q0 -77 49 -114.5t151 -37.5h691q27 0 39 -11t12 -38v-121q0 -27 -12 -39t-39 -12h-121v-289q0 -54 -15 -101t-53 -90.5t-97 -74t-153 -49t-215 -18.5q-120 0 -213 18t-151.5 47.5t-95.5 72t-51.5 88t-14.5 99.5zM397 356q0 -151 260 -151q261 0 261 151v250h-320 q-102 0 -151.5 -36.5t-49.5 -112.5v-101z" />
<glyph unicode="'" horiz-adv-x="507" d="M123 1339q-3 54 49 54h166q50 0 47 -54l-20 -333q-2 -28 -13 -40t-37 -12h-120q-27 0 -37.5 11.5t-12.5 40.5z" />
<glyph unicode="(" horiz-adv-x="731" d="M127 -143v1290q0 143 109.5 223t328.5 80h19q28 0 39.5 -11.5t11.5 -39.5v-119q0 -28 -11.5 -39.5t-39.5 -11.5h-19q-85 0 -123.5 -26.5t-38.5 -84.5v-1233q0 -57 38 -83.5t124 -26.5h19q28 0 39.5 -11.5t11.5 -39.5v-119q0 -28 -11.5 -39.5t-39.5 -11.5h-19 q-219 0 -328.5 80t-109.5 223z" />
<glyph unicode=")" horiz-adv-x="731" d="M94 -276q0 28 11.5 39.5t39.5 11.5h21q85 0 122.5 26t37.5 84v1233q0 58 -37.5 84.5t-122.5 26.5h-21q-28 0 -39.5 11.5t-11.5 39.5v119q0 28 11.5 39.5t39.5 11.5h21q218 0 328 -80.5t110 -222.5v-1290q0 -142 -110 -222.5t-328 -80.5h-21q-28 0 -39.5 11.5t-11.5 39.5 v119z" />
<glyph unicode="*" horiz-adv-x="1107" d="M145 1137.5q-5 15.5 9 40.5l41 77q26 47 69 19l219 -141l-18 266q-1 29 10 40t39 11h88q28 0 39 -11.5t10 -39.5l-20 -260l213 135q46 28 69 -17l41 -79q24 -47 -22 -68l-213 -100l213 -99q27 -11 31 -27.5t-9 -39.5l-41 -82q-24 -46 -69 -17l-211 134l18 -240 q1 -29 -10.5 -41t-38.5 -12h-90q-50 0 -47 53l16 248l-217 -142q-46 -29 -69 19l-41 80q-13 24 -8.5 39.5t30.5 27.5l213 99l-213 100q-26 12 -31 27.5z" />
<glyph unicode="+" horiz-adv-x="1146" d="M121 633v121q0 27 12 38t39 11h291v291q0 28 10.5 40.5t36.5 12.5h121q27 0 39 -12.5t12 -40.5v-291h291q28 0 40.5 -11t12.5 -38v-121q0 -27 -12.5 -39t-40.5 -12h-291v-289q0 -27 -12 -39t-39 -12h-121q-26 0 -36.5 12t-10.5 39v289h-291q-27 0 -39 12t-12 39z" />
<glyph unicode="," horiz-adv-x="544" d="M27 -90q-17 48 32 63q54 18 74.5 42.5t20.5 64.5v137q0 28 11 39.5t38 11.5h176q26 0 36.5 -11.5t10.5 -39.5v-151q0 -234 -295 -304q-27 -6 -40.5 0.5t-22.5 32.5z" />
<glyph unicode="-" horiz-adv-x="892" d="M121 530v121q0 27 12 38t39 11h549q27 0 39 -11t12 -38v-121q0 -49 -51 -49h-549q-51 0 -51 49z" />
<glyph unicode="." horiz-adv-x="512" d="M119 51v166q0 28 11.5 39.5t39.5 11.5h174q27 0 38 -11.5t11 -39.5v-166q0 -28 -11 -39.5t-38 -11.5h-174q-28 0 -39.5 11.5t-11.5 39.5z" />
<glyph unicode="/" horiz-adv-x="749" d="M29 -250l407 1628q12 54 60 54h186q51 0 39 -54l-406 -1628q-8 -29 -20 -41t-39 -12h-188q-51 0 -39 53z" />
<glyph unicode="0" horiz-adv-x="964" d="M84 328v772q0 71 6.5 121t26.5 95.5t55 72.5t93.5 43t140.5 16h163q80 0 133 -12t99 -47t68 -105t22 -178v-772q0 -71 -7 -121t-27 -95.5t-55.5 -72.5t-93.5 -43t-139 -16h-163q-64 0 -109 7t-88 28t-68.5 58t-41 99.5t-15.5 149.5zM307 315q0 -79 29 -112t88 -33h106 q78 0 107 32.5t29 102.5v813q0 80 -29 115t-88 35h-107q-77 0 -106 -34.5t-29 -107.5v-811z" />
<glyph unicode="1" horiz-adv-x="829" d="M55 1057q-41 55 41 114l307 259l-4 -7q13 13 44 16.5t62.5 -4t56 -31t24.5 -58.5l-2 -1166h166q21 0 34 -12t13 -35v-86q0 -47 -47 -47h-549q-47 0 -47 47v86q0 23 13 35t34 12h159v961l-149 -131q-19 -22 -49 -30.5t-47 9.5z" />
<glyph unicode="2" horiz-adv-x="905" d="M55 1049.5v12.5v9v29q0 71 7 121t27 95.5t55.5 72.5t93.5 43t139 16h143q63 0 109 -7.5t90 -29.5t71 -60t43.5 -101t16.5 -150q-1 -89 -31.5 -178.5t-78.5 -163.5t-106 -145t-116 -132t-105.5 -114.5t-77.5 -102t-30 -84.5h496q21 0 34 -12t13 -35v-86q0 -47 -47 -47 h-664q-22 0 -36 5.5t-21 11t-10 24.5t-3.5 28t-0.5 40q0 73 30.5 143t79 130t107 120.5t117 125t107 133t79 156t30.5 181.5q0 86 -22.5 127t-77.5 41h-119q-39 0 -64 -11.5t-36 -36t-14.5 -48.5t-3.5 -64v-35v-11.5v-13.5t-0.5 -13t-2.5 -14l-5 -12.5t-8 -12t-12 -9 t-16.5 -6.5t-21.5 -2h-92q-11 0 -19.5 2t-15 4.5t-11.5 8t-8.5 9.5t-5.5 12t-3.5 11.5t-2 13t-0.5 12z" />
<glyph unicode="3" horiz-adv-x="944" d="M78 506q0 21 12 34t35 13h125q47 0 47 -47l2 -178q0 -98 22 -130t93 -32h131q64 0 85 32t21 117v203q0 93 -24 121.5t-105 28.5h-94q-17 0 -26 9t-9 23v121q0 27 35 27h88q71 0 93 22.5t22 77.5v182q0 81 -26 107.5t-116 26.5h-57q-64 0 -91 -31.5t-30 -104.5v-59 q0 -47 -47 -47h-123q-23 0 -35 13t-12 34v47q0 104 19.5 170t63.5 101.5t101 48t146 12.5h76q113 0 181.5 -15t107.5 -54.5t52 -94t13 -145.5v-189q0 -146 -109 -196q57 -17 93 -81t36 -120v-254q0 -92 -18.5 -153.5t-58.5 -96.5t-94 -49t-134 -14h-155q-70 0 -115 4 t-86 16.5t-63.5 34t-39.5 58.5t-23.5 88.5t-6.5 125.5z" />
<glyph unicode="4" horiz-adv-x="909" d="M-25 512q0 31 13 57l485 842q17 26 40.5 27.5t49.5 -13.5l62 -28q57 -32 24 -86l-413 -731h315v335q0 49 20.5 69t61.5 20h67q74 0 74 -89l-2 -335q72 0 72 -50v-75q0 -37 -70 -37q0 -50 1 -165.5t1 -164.5q0 -52 -22.5 -70t-67.5 -18h-72q-63 0 -63 88v330h-469 q-41 0 -61.5 2.5t-31.5 15.5t-12.5 27t-1.5 49z" />
<glyph unicode="5" horiz-adv-x="942" d="M76 348v101q0 37 13.5 55t49.5 18h99q36 0 49.5 -18t13.5 -55v-150q0 -69 27.5 -94t107.5 -25h86q62 0 89.5 25t27.5 102v262q0 83 -30 127.5t-87 44.5h-301q-5 0 -23.5 -0.5t-24.5 0t-20 2t-19 5.5t-13 10.5t-10 17t-2 25.5l36 536q11 52 34.5 74.5t74.5 22.5h496 q21 0 34 -12.5t13 -35.5v-86q0 -47 -47 -47h-56v-2h-332l-18 -329h197q60 0 104 -7t87 -28.5t70 -58.5t43.5 -100t16.5 -150v-236q0 -87 -15.5 -149.5t-41.5 -99.5t-68.5 -58t-87.5 -28t-108 -7h-144q-101 0 -166 22.5t-98.5 71t-45 106.5t-11.5 148z" />
<glyph unicode="6" horiz-adv-x="911" d="M86 334l2 772q0 108 21 178t65.5 105t96.5 47t132 12h123q82 0 139.5 -15t93 -41.5t55.5 -71t27 -94t7 -120.5q0 -47 -47 -47h-123q-23 0 -35 12t-12 31v47q0 68 -31 93.5t-113 25.5h-65q-62 0 -89.5 -25t-27.5 -102v-252q18 16 57.5 24.5t71.5 8.5h113q101 0 166 -22.5 t98.5 -71t45 -107t11.5 -148.5l-2 -245q0 -87 -15.5 -149.5t-41.5 -99.5t-68.5 -58t-87.5 -28t-108 -7h-144q-81 0 -138.5 16t-91.5 42.5t-53.5 73t-25.5 95.5t-6 121zM305 285q0 -69 27.5 -94t107.5 -25h86q62 0 89.5 25t27.5 102v330q0 69 -27 93.5t-108 24.5h-86 q-59 0 -86.5 -22t-30.5 -90v-344z" />
<glyph unicode="7" horiz-adv-x="901" d="M39 1323v39q0 38 16 55t51 17h642q60 0 84 -20.5t24 -84.5v-41l-463 -1225q-13 -37 -28 -50t-54 -13h-86q-51 0 -64 27t9 65l453 1161h-514q-39 0 -54.5 15t-15.5 55z" />
<glyph unicode="8" horiz-adv-x="931" d="M76 334l2 246q0 214 137 270q-96 66 -96 199v98q0 76 13.5 129.5t36.5 87t62 52.5t83 25.5t106 6.5h102q81 0 137 -16t87.5 -40t48.5 -67t21.5 -83t4.5 -101v-99q0 -59 -27.5 -108t-72.5 -78q83 -31 113 -102t30 -181l-2 -245q0 -87 -15.5 -149.5t-41.5 -99.5t-68.5 -58 t-87.5 -28t-108 -7h-144q-101 0 -166 22.5t-98.5 71t-45 106.5t-11.5 148zM301 285q0 -69 27.5 -94t107.5 -25h86q62 0 89.5 25t27.5 102v330q0 63 -23.5 89t-89.5 29h-26h-62h-20q-62 0 -89.5 -25t-27.5 -102v-329zM342 1032q0 -68 20 -93.5t76 -25.5h62q57 0 77.5 26.5 t20.5 100.5v109q0 68 -20.5 93.5t-77.5 25.5h-62q-57 0 -76.5 -26.5t-19.5 -100.5v-109z" />
<glyph unicode="9" horiz-adv-x="940" d="M82 860l2 246q0 108 22 178t68 105t99 47t133 12h143q81 0 138.5 -16t91.5 -42.5t53.5 -73t25.5 -95.5t6 -121l-2 -772q0 -108 -21 -178t-65.5 -105t-96.5 -47t-132 -12h-123q-82 0 -139.5 15t-93 41.5t-55.5 71t-27 94t-7 120.5q0 47 48 47h122q23 0 35 -12t12 -31v-47 q0 -68 31 -93.5t113 -25.5h65q62 0 89.5 25t27.5 102v252q-18 -16 -57.5 -24.5t-71.5 -8.5h-113q-101 0 -166 22.5t-98.5 71t-45 106.5t-11.5 148zM307 811q0 -69 27.5 -94t107.5 -25h86q59 0 86.5 22.5t30.5 90.5v344q0 69 -27.5 94t-107.5 25h-86q-62 0 -89.5 -25 t-27.5 -102v-330z" />
<glyph unicode=":" horiz-adv-x="512" d="M119 51v166q0 28 11.5 39.5t39.5 11.5h174q27 0 38 -11.5t11 -39.5v-166q0 -28 -11 -39.5t-38 -11.5h-174q-28 0 -39.5 11.5t-11.5 39.5zM119 801v168q0 28 11.5 39.5t39.5 11.5h174q27 0 38 -11.5t11 -39.5v-168q0 -27 -11 -39t-38 -12h-174q-27 0 -39 12t-12 39z" />
<glyph unicode=";" horiz-adv-x="593" d="M76 -90q-16 48 33 63q54 20 73 43.5t19 63.5v137q0 28 11.5 39.5t39.5 11.5h176q26 0 36.5 -11.5t10.5 -39.5v-151q0 -234 -295 -304q-27 -6 -41.5 0.5t-23.5 32.5zM201 801v168q0 28 11.5 39.5t39.5 11.5h176q26 0 36.5 -11.5t10.5 -39.5v-168q0 -27 -10.5 -39 t-36.5 -12h-176q-27 0 -39 12t-12 39z" />
<glyph unicode="&#x3c;" horiz-adv-x="1071" d="M121 604v180q0 25 11.5 37t35.5 23l729 315q25 10 38 -4.5t13 -44.5v-162q0 -25 -11.5 -35.5t-39.5 -21.5l-514 -197l514 -196q19 -7 28 -12.5t16 -16.5t7 -29v-161q0 -30 -13 -45t-38 -5l-729 316q-17 7 -25 12.5t-15 17t-7 29.5z" />
<glyph unicode="=" horiz-adv-x="1189" d="M121 389v123q0 26 12 36.5t39 10.5h844q28 0 39.5 -10.5t11.5 -36.5v-123q0 -28 -11.5 -39.5t-39.5 -11.5h-844q-27 0 -39 12t-12 39zM121 807v123q0 49 51 49h844q28 0 39.5 -11.5t11.5 -37.5v-123q0 -27 -11.5 -38t-39.5 -11h-844q-27 0 -39 11t-12 38z" />
<glyph unicode="&#x3e;" horiz-adv-x="1071" d="M121 276v166q0 18 7 29t16 16.5t28 12.5l516 192l-516 197q-18 7 -27.5 12.5t-16.5 16.5t-7 28v164q0 30 13.5 45.5t37.5 5.5l731 -315q23 -9 34 -20t11 -35v-193q0 -25 -10.5 -35.5t-34.5 -19.5l-731 -316q-23 -10 -37 5.5t-14 43.5z" />
<glyph unicode="?" horiz-adv-x="1157" d="M104 950v125q0 68 24.5 125.5t77 105.5t147 75.5t222.5 27.5q129 0 224 -27.5t148.5 -75.5t79 -105.5t26.5 -125.5v-96q0 -233 -191 -317l-117 -54q-47 -22 -66.5 -45t-19.5 -69v-72q0 -28 -10.5 -38.5t-36.5 -10.5h-180q-27 0 -38 11t-11 38v141q0 41 10.5 72t31.5 52.5 t39.5 34t47.5 26.5l188 96q78 43 78 125v61q0 154 -203 154q-202 0 -202 -154v-80q0 -28 -10.5 -39.5t-36.5 -11.5h-170q-28 0 -40 11.5t-12 39.5zM383 51v166q0 28 11.5 39.5t37.5 11.5h180q26 0 36.5 -11.5t10.5 -39.5v-166q0 -28 -10.5 -39.5t-36.5 -11.5h-180 q-26 0 -37.5 11.5t-11.5 39.5z" />
<glyph unicode="@" horiz-adv-x="1953" d="M143 156v718q0 53 8 97.5t31.5 93t61.5 86.5t102 73.5t150 59t208 37.5t273 14t273 -14t208 -37.5t150 -59t102.5 -73.5t62 -86.5t31.5 -93t8 -97.5v-479q0 -152 -90 -239.5t-290 -87.5q-225 0 -304 127q-144 -127 -323 -127q-254 0 -254 247q0 34 2 52l25 272 q12 144 84.5 221.5t203.5 77.5q135 0 277 -100l6 32q5 28 16.5 40t38.5 12h150q49 0 43 -52l-43 -421q-4 -51 -2 -92.5t26 -68t70 -26.5q43 0 67 25t30.5 58.5t6.5 86.5v430q0 51 -14 88.5t-52 70.5t-102 53.5t-165.5 32t-241.5 11.5q-139 0 -241 -12t-165.5 -32.5 t-101.5 -53.5t-52 -70.5t-14 -87.5v-694q0 -51 14 -88.5t52 -71t101.5 -54t165 -32.5t241.5 -12h358q54 0 54 -51v-115q0 -51 -54 -51h-358q-151 0 -273 14t-208 37.5t-150 59.5t-102 74.5t-61.5 87t-31.5 93t-8 97.5zM817 412q-5 -44 19 -71.5t84 -27.5q66 0 167 49v13 l27 260q-92 67 -164 67q-61 0 -85.5 -32.5t-30.5 -83.5z" />
<glyph unicode="A" horiz-adv-x="1132" d="M31 51l383 1290q8 27 22 39.5t41 12.5h178q51 0 66 -52l381 -1290q3 -11 3 -20q0 -31 -40 -31h-184q-45 0 -60 51l-71 250h-381l-72 -250q-8 -27 -21.5 -39t-39.5 -12h-166q-42 0 -42 31q0 9 3 20zM428 520h260l-67 228q-17 54 -37 191t-23 181q-46 -313 -63 -370z" />
<glyph unicode="B" horiz-adv-x="1216" d="M143 53v1286q0 28 11.5 41t38.5 13h374q135 0 233.5 -24t154.5 -67t82 -97.5t26 -121.5v-120q0 -159 -154 -230q105 -37 161 -100.5t56 -147.5v-161q0 -68 -26 -124t-81.5 -102t-154.5 -72t-233 -26h-438q-27 0 -38.5 12.5t-11.5 40.5zM420 221h211q105 0 164 38.5 t59 113.5v92q0 66 -60 103.5t-163 37.5h-211v-385zM420 815h153q101 0 158 39t57 115v71q0 73 -55.5 102t-165.5 29h-147v-356z" />
<glyph unicode="C" horiz-adv-x="1165" d="M121 317v758q0 54 14 101t49 90.5t88.5 74.5t137.5 49.5t192 18.5t192 -18.5t137.5 -49.5t88.5 -74.5t49 -90.5t14 -101v-98q0 -28 -10.5 -39.5t-36.5 -11.5h-170q-28 0 -39.5 11.5t-11.5 39.5v49q0 154 -209 154q-207 0 -207 -154v-659q0 -154 207 -154q209 0 209 154 v77q0 28 11.5 40t39.5 12h170q26 0 36.5 -12t10.5 -40v-127q0 -54 -14 -101t-49 -90.5t-88.5 -74t-137.5 -49t-192 -18.5t-192 18.5t-137.5 49t-88.5 74t-49 90.5t-14 101z" />
<glyph unicode="D" horiz-adv-x="1259" d="M143 53v1286q0 28 11.5 41t38.5 13h446q134 0 234 -27.5t156 -75.5t83 -105.5t27 -125.5v-725q0 -68 -27 -125.5t-83 -105.5t-156 -75.5t-234 -27.5h-453q-24 0 -33.5 13t-9.5 40zM420 229h219q106 0 164.5 39.5t58.5 114.5v627q0 75 -58.5 114t-164.5 39h-219v-934z" />
<glyph unicode="E" horiz-adv-x="1048" d="M143 53v1286q0 28 11.5 41t38.5 13h700q27 0 39 -11.5t12 -38.5v-129q0 -27 -12 -39t-39 -12h-473v-332h438q28 0 40.5 -11t12.5 -38v-123q0 -26 -12.5 -37.5t-40.5 -11.5h-438v-381h493q28 0 40 -11t12 -38v-129q0 -28 -12 -39.5t-40 -11.5h-720q-27 0 -38.5 12.5 t-11.5 40.5z" />
<glyph unicode="F" horiz-adv-x="1060" d="M143 53v1286q0 28 11.5 41t38.5 13h749q27 0 39 -11.5t12 -38.5v-129q0 -27 -12 -39t-39 -12h-522v-332h487q28 0 39.5 -11t11.5 -38v-131q0 -28 -11.5 -39.5t-39.5 -11.5h-487v-547q0 -28 -11 -40.5t-38 -12.5h-178q-27 0 -38.5 12.5t-11.5 40.5z" />
<glyph unicode="G" horiz-adv-x="1189" d="M121 317v758q0 54 14 101t49 90.5t88.5 74.5t137.5 49.5t192 18.5t192 -18.5t137.5 -49.5t88.5 -74.5t49 -90.5t14 -101v-82q0 -27 -10.5 -39t-36.5 -12h-170q-27 0 -39 12t-12 39v33q0 154 -209 154q-207 0 -207 -154v-659q0 -154 207 -154q209 0 209 152v137h-201 q-28 0 -40.5 11t-12.5 38v131q0 27 12.5 38t40.5 11h418q27 0 39 -11t12 -38v-365q0 -54 -14 -101t-49 -90.5t-88.5 -74t-137.5 -49t-192 -18.5t-192 18.5t-137.5 49t-88.5 74t-49 90.5t-14 101z" />
<glyph unicode="H" horiz-adv-x="1282" d="M143 53v1286q0 28 11.5 41t38.5 13h178q27 0 38 -12.5t11 -41.5v-510h442v510q0 29 11 41.5t38 12.5h179q27 0 38 -12.5t11 -41.5v-1286q0 -28 -11 -40.5t-38 -12.5h-179q-27 0 -38 12.5t-11 40.5v547h-442v-547q0 -28 -11 -40.5t-38 -12.5h-178q-27 0 -38.5 12.5 t-11.5 40.5z" />
<glyph unicode="I" horiz-adv-x="561" d="M143 53v1286q0 28 11.5 41t38.5 13h178q27 0 38 -12.5t11 -41.5v-1286q0 -28 -11 -40.5t-38 -12.5h-178q-27 0 -38.5 12.5t-11.5 40.5z" />
<glyph unicode="J" horiz-adv-x="1054" d="M33 317v123q0 28 11.5 40t39.5 12h172q27 0 38 -12t11 -40v-73q0 -154 176 -154q88 0 126 37.5t38 116.5v972q0 54 49 54h178q27 0 38.5 -13t11.5 -41v-1022q0 -69 -21 -125.5t-69 -105t-137 -75.5t-214 -27q-100 0 -178.5 18.5t-128.5 49t-82.5 74t-45.5 90.5t-13 101z " />
<glyph unicode="K" horiz-adv-x="1196" d="M143 51v1290q0 27 11.5 39.5t38.5 12.5h178q27 0 38 -12.5t11 -39.5v-550h33l364 550q32 52 82 52h191q27 0 33 -16t-9 -36l-428 -632l481 -658q15 -19 8 -35t-34 -16h-228q-16 0 -30.5 8.5t-22.5 17.5t-20 25l-385 537h-35v-537q0 -27 -11 -39t-38 -12h-178 q-27 0 -38.5 12t-11.5 39z" />
<glyph unicode="L" horiz-adv-x="976" d="M143 53v1286q0 28 11.5 41t38.5 13h178q27 0 38 -12.5t11 -41.5v-1110h457q27 0 39 -11t12 -38v-129q0 -27 -12 -39t-39 -12h-691q-43 0 -43 53z" />
<glyph unicode="M" horiz-adv-x="1527" d="M143 51v1290q0 27 11.5 39.5t38.5 12.5h161q32 0 45 -29l314 -715q11 -24 24 -60t20 -59l7 -24q26 80 53 141l303 721q11 25 47 25h170q27 0 38 -12.5t11 -39.5v-1290q0 -27 -11 -39t-38 -12h-170q-27 0 -38 12t-11 39v778q0 -1 -7 -24t-15.5 -50.5t-19 -60t-17.5 -51.5 l-156 -381q-22 -51 -67 -51h-146q-45 0 -65 51l-174 412q-13 29 -29.5 83t-18.5 68v-774q0 -27 -11 -39t-38 -12h-161q-27 0 -38.5 12t-11.5 39z" />
<glyph unicode="N" horiz-adv-x="1280" d="M143 51v1290q0 27 11.5 39.5t38.5 12.5h161q31 0 43 -21l412 -706q16 -26 33.5 -62t27.5 -59l9 -23v819q0 27 11 39.5t38 12.5h162q27 0 38 -12.5t11 -39.5v-1290q0 -27 -11 -39t-38 -12h-162q-33 0 -47 25l-396 677q-60 101 -82 166v-817q0 -27 -11 -39t-38 -12h-161 q-27 0 -38.5 12t-11.5 39z" />
<glyph unicode="O" horiz-adv-x="1239" d="M121 317v758q0 68 26.5 125.5t82 105.5t155 75.5t233.5 27.5t233.5 -27.5t155.5 -75.5t82.5 -105.5t26.5 -125.5v-758q0 -68 -26.5 -125.5t-82.5 -105t-155.5 -75t-233.5 -27.5t-233.5 27.5t-155 75t-82 105t-26.5 125.5zM399 367q0 -75 57.5 -114.5t161.5 -39.5 q105 0 163.5 39.5t58.5 114.5v659q0 75 -58.5 114.5t-163.5 39.5q-104 0 -161.5 -39.5t-57.5 -114.5v-659z" />
<glyph unicode="P" horiz-adv-x="1187" d="M143 53v1286q0 28 11.5 41t38.5 13h430q134 0 233 -27.5t154.5 -75.5t81.5 -105.5t26 -125.5v-232q0 -54 -15.5 -101t-52 -90.5t-92.5 -74t-141.5 -49t-193.5 -18.5h-203v-441q0 -28 -11 -40.5t-38 -12.5h-178q-27 0 -38.5 12.5t-11.5 40.5zM420 723h203 q104 0 162.5 38.5t58.5 112.5v136q0 75 -58 114t-163 39h-203v-440z" />
<glyph unicode="Q" horiz-adv-x="1236" d="M121 317v758q0 68 26.5 125.5t82 105.5t155 75.5t233.5 27.5t233.5 -27.5t155.5 -75.5t82.5 -105.5t26.5 -125.5v-758q0 -109 -69 -192.5t-216 -118.5l220 -194q22 -20 22 -40q0 -16 -16 -32l-90 -96q-15 -18 -33.5 -19.5t-36.5 15.5l-377 350q-207 18 -303 108t-96 219z M399 360q0 -75 57.5 -114t161.5 -39q105 0 163.5 39t58.5 114v672q0 75 -58.5 114.5t-163.5 39.5q-104 0 -161.5 -39.5t-57.5 -114.5v-672z" />
<glyph unicode="R" horiz-adv-x="1228" d="M143 53v1286q0 28 11.5 41t38.5 13h430q134 0 233 -27.5t154.5 -75.5t81.5 -105.5t26 -125.5v-195q0 -98 -54 -175.5t-171 -119.5l221 -516q10 -24 -4 -38.5t-43 -14.5h-180q-14 0 -23.5 7.5t-14 16t-13.5 29.5l-201 477h-12h-203v-477q0 -28 -11 -40.5t-38 -12.5h-178 q-27 0 -38.5 12.5t-11.5 40.5zM420 760h203q105 0 163 39t58 114v97q0 75 -58 114t-163 39h-203v-403z" />
<glyph unicode="S" horiz-adv-x="1171" d="M102 317v129q0 54 50 54h172q27 0 38 -12.5t11 -41.5v-92q0 -147 217 -147t217 147v66q0 30 -12.5 53t-41.5 41.5t-52 29t-68 27.5l-318 119q-77 29 -131.5 102t-54.5 162v121q0 69 23 125.5t74 105t145 76t223 27.5t224 -27.5t147.5 -75.5t77 -105.5t24.5 -125.5v-84 q0 -27 -12 -39t-39 -12h-172q-26 0 -36.5 12t-10.5 39v47q0 148 -199 148q-201 0 -201 -148v-30q0 -80 84 -111l357 -127q111 -39 176 -112.5t65 -182.5v-158q0 -54 -15 -101t-51 -90.5t-90.5 -74t-139 -49t-191.5 -18.5q-132 0 -230 27.5t-153 75t-81 105t-26 125.5z" />
<glyph unicode="T" horiz-adv-x="1009" d="M23 1214v129q0 28 11.5 39t39.5 11h860q27 0 39 -11.5t12 -38.5v-129q0 -27 -12 -39t-39 -12h-291v-1110q0 -28 -11 -40.5t-38 -12.5h-178q-27 0 -39 12.5t-12 40.5v1110h-291q-28 0 -39.5 11.5t-11.5 39.5z" />
<glyph unicode="U" horiz-adv-x="1259" d="M131 317v1022q0 28 12 41t39 13h178q50 0 50 -54v-972q0 -75 57.5 -114.5t161.5 -39.5q105 0 164 39.5t59 114.5v972q0 29 11 41.5t38 12.5h178q27 0 37 -12.5t10 -41.5v-1022q0 -68 -26.5 -125.5t-82 -105t-155 -75t-233.5 -27.5t-233.5 27.5t-155.5 75t-82.5 105 t-26.5 125.5z" />
<glyph unicode="V" horiz-adv-x="1132" d="M31 1341q-4 12 -4 21q0 31 43 31h194q25 0 38.5 -13t21.5 -39l198 -696q14 -49 26 -123.5t18 -123.5l5 -50q25 186 56 295l198 698q8 27 22 39.5t40 12.5h178q41 0 41 -31q0 -9 -4 -21l-381 -1290q-15 -51 -66 -51h-178q-27 0 -41 12t-22 39z" />
<glyph unicode="W" horiz-adv-x="1716" d="M29 1341q-3 10 -3 19q0 33 42 33h182q46 0 59 -52l172 -698q8 -34 16 -77t13 -69l4 -26q10 68 37 172l176 698q13 52 61 52h166q49 0 62 -52l172 -696q20 -89 33 -203q19 136 36 201l177 698q13 52 59 52h156q42 0 42 -33q0 -8 -3 -19l-326 -1290q-12 -51 -64 -51h-174 q-45 0 -57 51l-180 713q-19 71 -29 186q-2 -23 -12 -91t-17 -95l-180 -713q-12 -51 -63 -51h-174q-46 0 -58 51z" />
<glyph unicode="X" horiz-adv-x="1175" d="M48.5 32q1.5 13 8.5 27l371 660l-356 616q-15 23 -10.5 40.5t30.5 17.5h205q46 0 76 -52l227 -393l213 393q27 52 74 52h190q25 0 31.5 -15t-6.5 -37l-369 -626l385 -664q12 -19 6 -35t-32 -16h-205q-44 0 -74 51l-246 422l-223 -422q-26 -51 -74 -51h-192q-17 0 -24 9.5 t-5.5 22.5z" />
<glyph unicode="Y" horiz-adv-x="1116" d="M30 1378.5q10 14.5 36 14.5h202q42 0 62 -52l194 -467q26 -70 35 -108q16 65 37 108l217 467q11 26 23 39t36 13h177q27 0 37 -13.5t-1 -38.5l-387 -809v-481q0 -27 -11 -39t-38 -12h-178q-27 0 -39 12t-12 39v449l-389 841q-11 23 -1 37.5z" />
<glyph unicode="Z" horiz-adv-x="1017" d="M68 51v129q0 19 8 35l526 948h-448q-52 0 -52 51v129q0 27 12.5 38.5t39.5 11.5h729q28 0 40.5 -11.5t12.5 -38.5v-126q0 -21 -12 -41l-525 -947h521q27 0 39 -11t12 -38v-129q0 -27 -12 -39t-39 -12h-801q-28 0 -39.5 11.5t-11.5 39.5z" />
<glyph unicode="[" horiz-adv-x="806" d="M127 -379v1757q0 54 49 54h469q27 0 39 -11.5t12 -38.5v-129q0 -27 -12 -39t-39 -12h-242v-1405h242q27 0 39 -12t12 -39v-129q0 -27 -12 -38t-39 -11h-469q-26 0 -37.5 12.5t-11.5 40.5z" />
<glyph unicode="\" horiz-adv-x="749" d="M29 1378q-12 54 39 54h188q26 0 39.5 -13t19.5 -41l406 -1628q12 -53 -39 -53h-186q-27 0 -40.5 12.5t-19.5 40.5z" />
<glyph unicode="]" horiz-adv-x="806" d="M111 -254q0 27 12.5 39t40.5 12h239v1405h-239q-28 0 -40.5 12t-12.5 39v129q0 27 12.5 38.5t40.5 11.5h467q49 0 49 -54v-1757q0 -28 -11.5 -40.5t-37.5 -12.5h-467q-28 0 -40.5 11t-12.5 38v129z" />
<glyph unicode="^" horiz-adv-x="1181" d="M125 616l313 730q7 16 12.5 24.5t16.5 15.5t27 7h190q16 0 26.5 -7t16 -15t12.5 -25l316 -730q10 -25 -5 -39t-44 -14h-164q-24 0 -34.5 12t-21.5 41l-198 512l-195 -512q-10 -29 -21.5 -41t-35.5 -12h-162q-29 0 -44 14t-5 39z" />
<glyph unicode="_" horiz-adv-x="933" d="M43 -199q0 26 12 36.5t39 10.5h746q28 0 39.5 -10.5t11.5 -36.5v-123q0 -28 -11.5 -39.5t-39.5 -11.5h-746q-27 0 -39 12t-12 39v123z" />
<glyph unicode="`" horiz-adv-x="643" d="M114.5 1435.5q6.5 14.5 32.5 14.5h179q48 0 71 -51l99 -201q22 -51 -27 -51h-133q-41 0 -66 35l-147 217q-15 22 -8.5 36.5z" />
<glyph unicode="a" horiz-adv-x="1058" d="M94 240v92q0 109 81 183.5t226 74.5h283v131q0 59 -34 87t-120 28t-121.5 -25t-35.5 -82v-14q0 -28 -11.5 -39.5t-37.5 -11.5h-152q-27 0 -38 11.5t-11 39.5v26q0 295 414 295q216 0 313.5 -76t97.5 -219v-688q0 -28 -11.5 -40.5t-37.5 -12.5h-154q-26 0 -36 11.5 t-13 41.5l-4 43q-135 -112 -303 -112q-143 0 -219 73.5t-76 182.5zM356 276q0 -79 103 -79q107 0 225 88v116h-229q-56 0 -77.5 -24t-21.5 -68v-33z" />
<glyph unicode="b" d="M121 53v1325q0 28 12 41t39 13h170q26 0 36.5 -13t10.5 -41v-452q144 110 322 110q148 0 222.5 -79t74.5 -220v-454q0 -141 -74.5 -220t-222.5 -79q-184 0 -328 114l-4 -45q-3 -30 -13 -41.5t-36 -11.5h-158q-27 0 -39 12.5t-12 40.5zM389 311q122 -94 238 -94 q64 0 87 29.5t23 79.5v370q0 48 -23 77.5t-87 29.5q-116 0 -238 -94v-398z" />
<glyph unicode="c" horiz-adv-x="1007" d="M100 287v448q0 143 102 222t320 79q216 0 318 -79t102 -222v-35q0 -27 -11 -38t-38 -11h-158q-28 0 -39.5 11t-11.5 38v15q0 58 -35.5 83t-122.5 25q-86 0 -121.5 -25t-35.5 -83v-408q0 -58 35.5 -84t121.5 -26t122 26t36 84v31q0 28 11.5 39.5t39.5 11.5h158 q26 0 37.5 -11.5t11.5 -39.5v-51q0 -144 -102.5 -223.5t-319.5 -79.5q-420 0 -420 303z" />
<glyph unicode="d" d="M100 283v454q0 141 74.5 220t222.5 79q176 0 320 -110v452q0 29 11 41.5t38 12.5h170q49 0 49 -54v-1325q0 -28 -11.5 -40.5t-37.5 -12.5h-158q-27 0 -37.5 12t-13.5 41l-4 45q-144 -114 -326 -114q-148 0 -222.5 79t-74.5 220zM369 326q0 -50 23.5 -79.5t88.5 -29.5 q114 0 236 94v398q-122 94 -236 94q-65 0 -88.5 -29.5t-23.5 -77.5v-370z" />
<glyph unicode="e" horiz-adv-x="1021" d="M100 287v448q0 143 102 222t320 79q410 0 410 -301v-237q0 -25 -10.5 -36t-34.5 -11h-525v-152q0 -57 36.5 -85t123.5 -28t123.5 28t36.5 85v10q0 27 12 39t39 12h144q51 0 51 -51v-22q0 -146 -96 -224.5t-312 -78.5q-420 0 -420 303zM362 631h320v90q0 113 -160 113 q-85 0 -122.5 -28.5t-37.5 -84.5v-90z" />
<glyph unicode="f" horiz-adv-x="714" d="M39 854v102q0 26 11 36.5t38 13.5l105 10h6v127q0 141 110.5 221t329.5 80h18q27 0 39.5 -11t12.5 -38v-119q0 -53 -52 -53h-18q-88 0 -129 -27t-41 -84v-96h170q27 0 39 -10.5t12 -36.5v-115q0 -27 -12 -39t-39 -12h-170v-750q0 -28 -11 -40.5t-38 -12.5h-170 q-27 0 -39 12.5t-12 40.5v750h-111q-26 0 -37.5 11.5t-11.5 39.5z" />
<glyph unicode="g" d="M100 283v454q0 141 74.5 220t222.5 79q185 0 328 -118l4 51q3 29 12.5 40t36.5 11h158q26 0 37.5 -11.5t11.5 -39.5v-1080q0 -141 -109.5 -221t-328.5 -80h-289q-28 0 -39.5 11t-11.5 39v118q0 28 12 41t39 13h289q87 0 128.5 26.5t41.5 83.5v172q-148 -108 -320 -108 q-148 0 -222.5 79t-74.5 220zM369 326q0 -50 23.5 -79.5t88.5 -29.5q114 0 236 94v398q-122 94 -236 94q-65 0 -88.5 -29.5t-23.5 -77.5v-370z" />
<glyph unicode="h" horiz-adv-x="1116" d="M121 53v1325q0 28 12 41t39 13h170q26 0 36.5 -13t10.5 -41v-448q139 106 322 106q138 0 217.5 -76t79.5 -198v-709q0 -28 -12 -40.5t-40 -12.5h-165q-54 0 -54 53v641q0 58 -23.5 83.5t-86.5 25.5q-118 0 -238 -92v-658q0 -28 -10.5 -40.5t-36.5 -12.5h-170 q-27 0 -39 12.5t-12 40.5z" />
<glyph unicode="i" horiz-adv-x="512" d="M121 53v916q0 28 11.5 39.5t39.5 11.5h170q26 0 36.5 -11.5t10.5 -39.5v-916q0 -28 -10.5 -40.5t-36.5 -12.5h-170q-27 0 -39 12.5t-12 40.5zM121 1202v176q0 28 12 41t39 13h170q26 0 36.5 -13t10.5 -41v-176q0 -27 -10.5 -38t-36.5 -11h-170q-28 0 -39.5 11.5 t-11.5 37.5z" />
<glyph unicode="j" horiz-adv-x="509" d="M-119 -244q0 28 12 41t39 13h19q87 0 128.5 26.5t41.5 83.5v1049q0 28 11 39.5t38 11.5h170q26 0 37.5 -11.5t11.5 -39.5v-1080q0 -141 -109.5 -221t-328.5 -80h-19q-28 0 -39.5 11t-11.5 39v118zM121 1202v176q0 54 49 54h172q26 0 36.5 -13t10.5 -41v-176 q0 -27 -10.5 -38t-36.5 -11h-172q-26 0 -37.5 11.5t-11.5 37.5z" />
<glyph unicode="k" horiz-adv-x="1013" d="M121 51v1329q0 52 51 52h170q26 0 36.5 -12.5t10.5 -39.5v-708h45l254 297q15 17 24 25.5t25.5 17t32.5 8.5h184q26 0 33 -16t-8 -35l-332 -389l359 -529q13 -19 6.5 -35t-31.5 -16h-186q-40 0 -74 51l-287 418h-45v-418q0 -27 -10.5 -39t-36.5 -12h-170q-27 0 -39 12 t-12 39z" />
<glyph unicode="l" horiz-adv-x="512" d="M121 53v1325q0 28 12 41t39 13h170q26 0 36.5 -13t10.5 -41v-1325q0 -28 -10.5 -40.5t-36.5 -12.5h-170q-27 0 -39 12.5t-12 40.5z" />
<glyph unicode="m" horiz-adv-x="1710" d="M121 53v918q0 26 11.5 37.5t39.5 11.5h158q27 0 37 -11t12 -38l2 -49q133 114 317 114q94 0 162 -36.5t101 -100.5q28 25 49.5 41.5t65 42.5t101.5 39.5t126 13.5q138 0 217 -75.5t79 -198.5v-709q0 -28 -11.5 -40.5t-37.5 -12.5h-168q-27 0 -39 12.5t-12 40.5v641 q0 58 -24 83.5t-86 25.5q-50 0 -101 -18.5t-77.5 -36t-47.5 -35.5v-660q0 -28 -12 -40.5t-39 -12.5h-166q-53 0 -53 53v641q0 58 -23.5 83.5t-87.5 25.5q-122 0 -225 -92v-658q0 -28 -10.5 -40.5t-36.5 -12.5h-170q-27 0 -39 12.5t-12 40.5z" />
<glyph unicode="n" horiz-adv-x="1116" d="M121 53v918q0 26 11.5 37.5t39.5 11.5h158q27 0 37 -11t12 -38l4 -49q138 114 328 114q138 0 217.5 -76t79.5 -198v-709q0 -28 -12 -40.5t-40 -12.5h-165q-54 0 -54 53v641q0 58 -23.5 83.5t-86.5 25.5q-118 0 -238 -92v-658q0 -28 -10.5 -40.5t-36.5 -12.5h-170 q-27 0 -39 12.5t-12 40.5z" />
<glyph unicode="o" horiz-adv-x="1085" d="M100 287v448q0 141 111.5 221t331.5 80t331 -80t111 -221v-448q0 -142 -111 -222.5t-331 -80.5t-331.5 80.5t-111.5 222.5zM369 309q0 -112 174 -112t174 112v404q0 110 -174 110t-174 -110v-404z" />
<glyph unicode="p" d="M121 -360v1329q0 28 11.5 39.5t39.5 11.5h158q27 0 37 -11t12 -40l4 -49q147 116 328 116q148 0 222.5 -79t74.5 -220v-454q0 -141 -74.5 -220t-222.5 -79q-174 0 -322 108v-452q0 -28 -10.5 -40t-36.5 -12h-170q-28 0 -39.5 12t-11.5 40zM389 311q122 -94 238 -94 q64 0 87 29.5t23 79.5v370q0 48 -23 77.5t-87 29.5q-116 0 -238 -94v-398z" />
<glyph unicode="q" d="M100 283v454q0 141 74.5 220t222.5 79q179 0 326 -116l4 49q3 29 13.5 40t37.5 11h158q26 0 37.5 -11.5t11.5 -39.5v-1329q0 -28 -11.5 -40t-37.5 -12h-170q-27 0 -38 12t-11 40v452q-148 -108 -320 -108q-148 0 -222.5 79t-74.5 220zM369 326q0 -50 23.5 -79.5 t88.5 -29.5q114 0 236 94v398q-122 94 -236 94q-65 0 -88.5 -29.5t-23.5 -77.5v-370z" />
<glyph unicode="r" horiz-adv-x="759" d="M121 53v918q0 26 11.5 37.5t39.5 11.5h158q27 0 37 -11t12 -38l6 -72q127 137 299 137q28 0 40.5 -11.5t12.5 -37.5v-131q0 -27 -12.5 -39t-40.5 -14q-175 -12 -295 -121v-629q0 -28 -10.5 -40.5t-36.5 -12.5h-170q-27 0 -39 12.5t-12 40.5z" />
<glyph unicode="s" horiz-adv-x="966" d="M78 248v47q0 25 10.5 36t36.5 11h151q26 0 37 -11t11 -36v-35q0 -86 163 -86q166 0 166 86v35q0 25 -20.5 42t-71.5 36l-297 108q-63 24 -112.5 84.5t-49.5 132.5v66q0 52 20.5 98t64 86.5t123 64t186.5 23.5q106 0 185 -23.5t122 -64t63.5 -86.5t20.5 -98v-39 q0 -27 -10 -37t-37 -10h-152q-25 0 -35 10.5t-10 36.5v39q0 84 -149 84q-148 0 -148 -84v-23q0 -49 64 -71l295 -105q196 -69 196 -213v-104q0 -51 -23.5 -97t-71.5 -84t-130 -60.5t-189 -22.5t-188.5 22.5t-128 61t-69.5 84t-23 96.5z" />
<glyph unicode="t" horiz-adv-x="743" d="M31 854v102q0 26 11 36.5t38 13.5l94 10h6v196q0 28 11.5 40t39.5 12h170q27 0 38.5 -12t11.5 -40v-196h186q27 0 39 -10.5t12 -36.5v-115q0 -27 -12 -39t-39 -12h-186v-471q0 -57 38.5 -84t124.5 -27h45q28 0 40 -11.5t12 -39.5v-119q0 -28 -12 -39.5t-40 -11.5h-86 q-148 0 -235.5 35t-122.5 99.5t-35 168.5v500h-100q-26 0 -37.5 11.5t-11.5 39.5z" />
<glyph unicode="u" horiz-adv-x="1103" d="M111 258v711q0 28 11.5 39.5t37.5 11.5h168q27 0 39 -12t12 -39v-643q0 -58 24 -83.5t86 -25.5q114 0 226 90v662q0 28 11 39.5t38 11.5h170q26 0 37.5 -11.5t11.5 -39.5v-918q0 -28 -11.5 -39.5t-37.5 -11.5h-158q-27 0 -37.5 11t-13.5 40l-4 45q-126 -112 -315 -112 q-137 0 -216 76t-79 198z" />
<glyph unicode="v" horiz-adv-x="970" d="M23 969q-9 25 5 38t42 13h176q26 0 37 -12t20 -39l150 -465q19 -64 32 -189q13 108 41 187l162 467q9 27 20 39t37 12h156q29 0 43.5 -13t5.5 -38l-323 -922q-10 -29 -18.5 -38t-33.5 -9h-194q-26 0 -34.5 9t-18.5 38z" />
<glyph unicode="w" horiz-adv-x="1466" d="M23 969q-7 25 6.5 38t42.5 13h161q26 0 38.5 -12.5t19.5 -38.5l141 -537q4 -19 8 -42t6 -38.5t3 -17.5q0 14 24 98l150 537q7 26 18.5 38.5t36.5 12.5h164q47 0 57 -51l125 -537l8.5 -42.5t6.5 -36.5t3 -17q0 6 23 96l139 537q7 26 19.5 38.5t38.5 12.5h135q28 0 41 -13 t6 -38l-262 -922q-8 -28 -17.5 -37.5t-34.5 -9.5h-202q-26 0 -36.5 10.5t-17.5 36.5l-114 485q-19 78 -19 109q0 -1 -4 -18.5t-10 -42.5t-12 -48l-142 -485q-7 -26 -16.5 -36.5t-34.5 -10.5h-198q-26 0 -37 10.5t-17 36.5z" />
<glyph unicode="x" horiz-adv-x="972" d="M16 16q-6 16 7 35l313 469l-299 449q-15 20 -9 35.5t33 15.5h185q25 0 41.5 -12.5t34.5 -38.5l178 -267l168 267q32 51 73 51h164q26 0 32.5 -15.5t-7.5 -35.5l-303 -457l307 -461q13 -19 6 -35t-33 -16h-184q-39 0 -72 51l-188 279l-180 -279q-15 -24 -31 -37.5 t-41 -13.5h-164q-25 0 -31 16z" />
<glyph unicode="y" horiz-adv-x="970" d="M23 969q-9 24 5 37.5t42 13.5h170q26 0 37 -12t20 -39l154 -469q8 -25 14.5 -56t10 -53t6.5 -42t3 -21q0 1 3 13.5t6.5 29.5t8.5 37.5t12 43t13 40.5l162 477q8 27 19 39t36 12h156q29 0 43.5 -13.5t5.5 -37.5l-452 -1329q-15 -52 -58 -52h-123q-29 0 -42.5 13.5 t-6.5 38.5l101 333z" />
<glyph unicode="z" horiz-adv-x="913" d="M66 49v121q0 23 16 45l410 586h-340q-54 0 -54 49v121q0 27 12.5 38t41.5 11h620q28 0 39.5 -11t11.5 -38v-119q0 -23 -16 -45l-414 -588h416q28 0 39.5 -11t11.5 -38v-121q0 -26 -11.5 -37.5t-39.5 -11.5h-692q-51 0 -51 49z" />
<glyph unicode="{" horiz-adv-x="921" d="M106 451v116q0 54 52 54h2q83 0 120 26.5t37 83.5v416q0 143 109.5 223t329.5 80h18q28 0 39.5 -11.5t11.5 -39.5v-119q0 -28 -11.5 -39.5t-39.5 -11.5h-18q-85 0 -123.5 -26.5t-38.5 -84.5v-416q0 -142 -127 -192q127 -53 127 -195v-430q0 -57 38 -83.5t124 -26.5h18 q28 0 39.5 -11.5t11.5 -39.5v-119q0 -28 -11.5 -39.5t-39.5 -11.5h-18q-220 0 -329.5 80t-109.5 223v432q0 57 -37 83.5t-120 26.5h-2q-28 0 -40 12t-12 40z" />
<glyph unicode="|" horiz-adv-x="561" d="M143 -379v1757q0 28 11.5 41t38.5 13h178q27 0 38 -12.5t11 -41.5v-1757q0 -28 -11 -40.5t-38 -12.5h-178q-27 0 -38.5 12.5t-11.5 40.5z" />
<glyph unicode="}" horiz-adv-x="921" d="M94 -276q0 27 12 39t39 12h21q86 0 124 26.5t38 83.5v430q0 142 125 195q-125 50 -125 192v416q0 58 -38.5 84.5t-123.5 26.5h-21q-27 0 -39 12t-12 39v119q0 27 12 39t39 12h21q219 0 328.5 -80t109.5 -223v-416q0 -57 37.5 -83.5t120.5 -26.5h2q51 0 51 -54v-116 q0 -52 -51 -52h-2q-83 0 -120.5 -26.5t-37.5 -83.5v-432q0 -143 -109.5 -223t-328.5 -80h-21q-27 0 -39 12t-12 39v119z" />
<glyph unicode="~" horiz-adv-x="1032" d="M123 471l8 98q7 91 57 136t115 45q55 0 111 -23l184 -84q60 -27 82 -27q20 0 27 14t14 50l2 10q4 26 16.5 35.5t38.5 9.5h88q27 0 36.5 -14.5t6.5 -44.5l-10 -84q-11 -97 -58.5 -145t-109.5 -48q-57 0 -125 29l-186 86q-44 21 -66 21q-16 0 -26 -10t-12.5 -20t-6.5 -34 l-2 -12q-4 -27 -16.5 -36t-38.5 -9h-88q-47 0 -41 57z" />
<glyph unicode="&#xa1;" horiz-adv-x="567" d="M141 221l27 375q2 29 12 40t37 11h127q27 0 37 -11t12 -40l29 -375v-540q0 -28 -12 -41t-39 -13h-181q-27 0 -38 12.5t-11 41.5v540zM145 803v166q0 28 11 39.5t39 11.5h178q27 0 38 -11.5t11 -39.5v-166q0 -28 -11 -39.5t-38 -11.5h-178q-28 0 -39 11.5t-11 39.5z" />
<glyph unicode="&#xa2;" horiz-adv-x="1116" d="M137 473v449q0 248 293 292v125q0 29 11 41.5t38 12.5h170q27 0 38 -12.5t11 -41.5v-127q281 -47 281 -290v-35q0 -27 -11 -38t-38 -11h-158q-28 0 -39.5 11t-11.5 38v14q0 58 -36 83.5t-122 25.5t-121.5 -25.5t-35.5 -83.5v-407q0 -58 35.5 -84.5t121.5 -26.5t122 26.5 t36 84.5v30q0 28 11.5 39.5t39.5 11.5h158q26 0 37.5 -11.5t11.5 -39.5v-51q0 -246 -281 -293v-127q0 -28 -11 -40.5t-38 -12.5h-170q-27 0 -38 12.5t-11 40.5v125q-293 41 -293 295z" />
<glyph unicode="&#xa3;" horiz-adv-x="1406" d="M137 51v121q0 27 11.5 38t39.5 11h115v354h-115q-28 0 -39.5 11t-11.5 39v123q0 26 11.5 37.5t39.5 11.5h115v282q0 68 23 124.5t73.5 104.5t142.5 74.5t218 26.5t218 -27t143 -74.5t74.5 -104t23.5 -124.5v-69q0 -54 -50 -54h-165q-50 0 -50 54v20q0 150 -192 150 q-95 0 -138.5 -36.5t-43.5 -113.5v-233h223q51 0 51 -49v-123q0 -27 -12 -38.5t-39 -11.5h-223v-354h311q117 0 117 166v19q0 27 12 39t39 12h160q28 0 39.5 -11.5t11.5 -39.5v-19q0 -110 -21.5 -187t-63.5 -120t-95 -61.5t-125 -18.5h-777q-28 0 -39.5 11.5t-11.5 39.5z " />
<glyph unicode="&#xa4;" horiz-adv-x="1290" d="M137 518v72q0 26 12 36.5t39 10.5h64v113h-64q-51 0 -51 49v71q0 27 12 38.5t39 11.5h64v155q0 54 14 101t49 90.5t88.5 74.5t137.5 49.5t192 18.5t192 -18.5t137.5 -49.5t88.5 -74.5t49 -90.5t14 -101v-98q0 -28 -10.5 -39.5t-36.5 -11.5h-170q-28 0 -39.5 11.5 t-11.5 39.5v49q0 154 -209 154q-207 0 -207 -154v-106h201q28 0 39.5 -11t11.5 -39v-71q0 -26 -11.5 -37.5t-39.5 -11.5h-201v-113h201q28 0 39.5 -10.5t11.5 -36.5v-72q0 -28 -11.5 -39.5t-39.5 -11.5h-201v-100q0 -154 207 -154q209 0 209 154v77q0 28 11.5 40t39.5 12 h170q26 0 36.5 -12t10.5 -40v-127q0 -54 -14 -101t-49 -90.5t-88.5 -74t-137.5 -49t-192 -18.5t-192 18.5t-137.5 49t-88.5 74t-49 90.5t-14 101v150h-64q-27 0 -39 12t-12 39z" />
<glyph unicode="&#xa5;" horiz-adv-x="1345" d="M144 1378.5q10 14.5 36 14.5h203q24 0 37.5 -13t23.5 -39l195 -467q26 -70 35 -108q16 65 37 108l217 467q11 26 23 39t36 13h176q27 0 37.5 -13.5t-0.5 -38.5l-201 -417h93q27 0 39 -10.5t12 -36.5v-72q0 -27 -12 -39t-39 -12h-172l-54 -111h226q27 0 39 -11t12 -38v-72 q0 -49 -51 -49h-279v-422q0 -27 -11 -39t-38 -12h-178q-27 0 -39 12t-12 39v422h-277q-28 0 -40.5 11.5t-12.5 37.5v72q0 27 12.5 38t40.5 11h209l-51 111h-158q-28 0 -40.5 12t-12.5 39v72q0 26 12.5 36.5t40.5 10.5h80l-193 417q-11 23 -1 37.5z" />
<glyph unicode="&#xa6;" horiz-adv-x="512" d="M121 264q0 28 12 40.5t39 12.5h170q26 0 36.5 -12.5t10.5 -40.5v-643q0 -28 -10.5 -40.5t-36.5 -12.5h-170q-27 0 -39 12.5t-12 40.5v643zM121 696v643q0 28 12 41t39 13h170q26 0 36.5 -13t10.5 -41v-643q0 -28 -10.5 -40.5t-36.5 -12.5h-170q-27 0 -39 12.5t-12 40.5z " />
<glyph unicode="&#xa7;" horiz-adv-x="1130" d="M143 -102q0 27 11.5 38t38.5 11h149q28 0 39.5 -11t11.5 -38v-33q0 -57 38 -81t126 -24t127 25t39 82v133q0 52 -98 82l-258 80q-81 25 -137 94t-56 164v158q0 28 10.5 38.5t38.5 10.5h150q27 0 38 -11t11 -38v-134q0 -33 22.5 -55.5t55.5 -32.5l286 -90 q86 -27 143.5 -88t57.5 -164v-123q0 -140 -104 -223.5t-318 -83.5q-422 0 -422 295v19zM143 979v125q0 139 104.5 222t319.5 83q420 0 420 -293v-18q0 -28 -11 -39.5t-38 -11.5h-150q-26 0 -37.5 11.5t-11.5 39.5v30q0 57 -38.5 81t-125.5 24q-88 0 -127.5 -25t-39.5 -82 v-131q0 -54 98 -84l258 -80q83 -27 138.5 -94.5t55.5 -161.5v-159q0 -26 -11.5 -37.5t-39.5 -11.5h-149q-26 0 -37.5 11.5t-11.5 37.5v133q0 64 -78 88l-287 90q-86 27 -143.5 88t-57.5 164z" />
<glyph unicode="&#xa8;" horiz-adv-x="780" d="M147 1204v191q0 28 11 39.5t39 11.5h100q26 0 36.5 -11.5t10.5 -39.5v-191q0 -28 -10.5 -39.5t-36.5 -11.5h-100q-28 0 -39 11.5t-11 39.5zM432 1204v191q0 28 11.5 39.5t39.5 11.5h101q26 0 36.5 -11.5t10.5 -39.5v-191q0 -28 -10.5 -39.5t-36.5 -11.5h-101 q-28 0 -39.5 11.5t-11.5 39.5z" />
<glyph unicode="&#xa9;" horiz-adv-x="1593" d="M143 461v473q0 54 5.5 98.5t23 94.5t46.5 89.5t79 76.5t117.5 61.5t164.5 39.5t218 15t218.5 -15t165 -39.5t117.5 -61.5t79 -76.5t46.5 -89.5t23 -94.5t5.5 -98.5v-473q0 -54 -5.5 -98.5t-23 -95t-46.5 -90t-79 -77t-117.5 -62t-165 -39.5t-218.5 -15t-218 15 t-164.5 39.5t-117.5 62t-79 77t-46.5 90t-23 95t-5.5 98.5zM338 424q0 -128 110 -201t349 -73q460 0 460 272v551q0 127 -110 199.5t-350 72.5q-239 0 -349 -73t-110 -201v-547zM453 557v277q0 143 79.5 213.5t268.5 70.5t267.5 -70.5t78.5 -213.5v-19q0 -27 -11.5 -38 t-39.5 -11h-138q-27 0 -38 11t-11 38v12q0 59 -25.5 85t-82.5 26q-58 0 -83.5 -26t-25.5 -85v-262q0 -58 25.5 -84t83.5 -26q57 0 82.5 26.5t25.5 83.5v27q0 28 11.5 39.5t37.5 11.5h138q28 0 39.5 -11.5t11.5 -39.5v-35q0 -143 -79 -214t-269 -71q-189 0 -267.5 71 t-78.5 214z" />
<glyph unicode="&#xaa;" horiz-adv-x="735" d="M96 932v51q0 66 54 112t147 46h143v82q0 45 -67 45q-68 0 -68 -43v-8q0 -20 -8.5 -27.5t-26.5 -7.5h-116q-22 0 -30.5 7.5t-8.5 27.5v14q0 85 67 131.5t197 46.5q260 0 260 -186v-404q0 -19 -8 -27t-29 -8h-115q-20 0 -25.5 6t-10.5 29l-5 19q-77 -64 -170 -64 q-91 0 -135.5 45t-44.5 113zM295 956q0 -41 47 -41q27 0 55 15.5t43 30.5v59h-102q-22 0 -32.5 -12t-10.5 -29v-23z" />
<glyph unicode="&#xab;" horiz-adv-x="1234" d="M131 420v166q0 22 12 36.5t35 30.5l381 275q20 14 36.5 3.5t16.5 -36.5v-170q0 -22 -13 -38t-40 -34l-217 -151l217 -150q17 -12 26.5 -19.5t18 -21.5t8.5 -30v-170q0 -26 -17 -36t-36 3l-381 272q-47 33 -47 70zM623 420v166q0 22 12 36.5t35 30.5l381 275 q20 14 36.5 3.5t16.5 -36.5v-170q0 -22 -13 -38t-40 -34l-217 -151l217 -150q17 -12 26.5 -19.5t18 -21.5t8.5 -30v-170q0 -26 -17 -36t-36 3l-381 272q-47 33 -47 70z" />
<glyph unicode="&#xac;" horiz-adv-x="819" d="M152 655q0 107 74.5 182.5t181.5 75.5t182.5 -75.5t75.5 -182.5q0 -106 -75.5 -181t-182.5 -75t-181.5 75t-74.5 181z" />
<glyph unicode="&#xad;" horiz-adv-x="892" d="M121 530v121q0 27 12 38t39 11h549q27 0 39 -11t12 -38v-121q0 -49 -51 -49h-549q-51 0 -51 49z" />
<glyph unicode="&#xae;" horiz-adv-x="1323" d="M143 692v379q0 34 4.5 63.5t18 65t36.5 64t63 56.5t93 47t131.5 30.5t174.5 11.5t174 -11.5t131 -30.5t93 -47t62.5 -56.5t36 -64t17.5 -65t4 -63.5v-379q0 -34 -4 -63.5t-17.5 -65t-36 -64t-62.5 -56.5t-93 -47t-131 -30.5t-174 -11.5t-174.5 11.5t-131.5 30.5t-93 47 t-63 56.5t-36.5 64t-18 65t-4.5 63.5zM319 676q0 -78 77 -123t268 -45q190 0 265 44t75 122v413q0 38 -15.5 66t-52 51.5t-105 36t-167.5 12.5t-169 -12.5t-107 -36.5t-53 -52t-16 -65v-411zM428 639v485q0 19 8 27t27 8h231q226 0 226 -170v-35q0 -99 -78 -141l69 -174 q6 -17 -3 -27t-31 -10h-109q-4 0 -7.5 0.5t-6 1.5t-5 3.5t-4 3.5t-3.5 5.5t-2.5 6t-3 8t-3.5 8.5l-57 143h-70v-143q0 -37 -33 -37h-110q-35 0 -35 37zM606 913h70q21 0 41 12t20 33v25q0 24 -18.5 35.5t-42.5 11.5h-70v-117z" />
<glyph unicode="&#xaf;" horiz-adv-x="831" d="M127 1221v104q0 27 12.5 38t40.5 11h471q28 0 39.5 -11t11.5 -38v-104q0 -27 -12 -38.5t-39 -11.5h-471q-53 0 -53 50z" />
<glyph unicode="&#xb0;" horiz-adv-x="890" d="M111 985v195q0 112 76 170.5t259 58.5q181 0 257.5 -59t76.5 -170v-195q0 -111 -76 -169t-258 -58q-183 0 -259 58t-76 169zM338 995q0 -63 106 -63q109 0 109 63v176q0 62 -109 62q-106 0 -106 -62v-176z" />
<glyph unicode="&#xb1;" horiz-adv-x="1146" d="M121 143v121q0 27 12 38t39 11h801q28 0 40.5 -11t12.5 -38v-121q0 -27 -12.5 -39t-40.5 -12h-801q-27 0 -39 12t-12 39zM121 721v123q0 26 12 36.5t39 10.5h291v192q0 28 10.5 40t36.5 12h121q28 0 39.5 -12t11.5 -40v-192h291q28 0 40.5 -10.5t12.5 -36.5v-123 q0 -27 -12.5 -38t-40.5 -11h-291v-193q0 -28 -11.5 -39.5t-39.5 -11.5h-121q-26 0 -36.5 11.5t-10.5 39.5v193h-291q-27 0 -39 11t-12 38z" />
<glyph unicode="&#xb2;" horiz-adv-x="794" d="M94 1124v74q0 89 72 150t225 61q154 0 228.5 -61.5t74.5 -149.5v-78q0 -151 -119 -205l-223 -102q-28 -12 -28 -31v-53h340q38 0 38 -35v-94q0 -37 -38 -37h-512q-20 0 -28.5 8.5t-8.5 28.5v219q0 47 17.5 70t55.5 39l263 116q38 17 38 66v57q0 39 -28 59.5t-70 20.5 t-68 -20t-26 -60v-43q0 -22 -7.5 -30.5t-27.5 -8.5h-131q-20 0 -28.5 8.5t-8.5 30.5z" />
<glyph unicode="&#xb3;" horiz-adv-x="792" d="M94 764v41q0 19 8 27t29 8h129q39 0 39 -35v-10q0 -40 26 -60t70 -20t71.5 20.5t27.5 59.5v36q0 41 -27.5 60.5t-73.5 19.5h-84q-39 0 -39 35v88q0 21 9 29t30 8h72q98 0 98 78v22q0 80 -88 80t-88 -80v-10q0 -35 -37 -35h-131q-21 0 -29 8.5t-8 26.5v41q0 41 14.5 76 t46 66t92 49t144.5 18q158 0 224.5 -58t66.5 -149v-86q0 -89 -86 -121q98 -43 98 -141v-96q0 -89 -70.5 -147t-230.5 -58q-83 0 -144 18t-94.5 49t-49 66t-15.5 76z" />
<glyph unicode="&#xb4;" horiz-adv-x="643" d="M145 1198l99 201q23 51 71 51h179q26 0 32.5 -14.5t-8.5 -36.5l-147 -217q-25 -35 -66 -35h-133q-49 0 -27 51z" />
<glyph unicode="&#xb5;" horiz-adv-x="1103" d="M111 -360v1329q0 28 11.5 39.5t37.5 11.5h168q27 0 39 -12t12 -39v-643q0 -58 24 -83.5t86 -25.5q114 0 226 90v662q0 28 11 39.5t38 11.5h170q26 0 37.5 -11.5t11.5 -39.5v-918q0 -28 -11.5 -39.5t-37.5 -11.5h-158q-27 0 -37.5 11t-13.5 40l-4 45q-126 -112 -307 -112 q-28 0 -49 6l14 -350q2 -28 -9.5 -40t-39.5 -12h-170q-26 0 -37.5 12t-11.5 40z" />
<glyph unicode="&#xb6;" horiz-adv-x="1419" d="M143 846v278q0 62 18.5 108.5t62 84t123 57t192.5 19.5h276q27 0 38 -12.5t11 -39.5v-1701q0 -28 -11 -40t-38 -12h-178q-27 0 -38 12t-11 40v938h-49q-113 0 -192.5 19.5t-123 56.5t-62 83.5t-18.5 108.5zM1001 -360v1699q0 28 11.5 41t38.5 13h178q27 0 38 -12.5 t11 -41.5v-1699q0 -28 -11 -40t-38 -12h-178q-27 0 -38.5 12t-11.5 40z" />
<glyph unicode="&#xb7;" horiz-adv-x="512" d="M119 483v166q0 28 11.5 39.5t39.5 11.5h174q27 0 38 -11.5t11 -39.5v-166q0 -28 -11 -39.5t-38 -11.5h-174q-28 0 -39.5 11.5t-11.5 39.5z" />
<glyph unicode="&#xb8;" horiz-adv-x="534" d="M35 -340q0 27 11.5 38t39.5 11h201q39 0 39 31q0 33 -39 33h-154q-83 0 -63 67l53 187q13 48 59 45l76 -6q23 -2 33.5 -19t3.5 -43l-27 -96h62q83 0 131.5 -41.5t48.5 -126.5q0 -86 -48.5 -129t-131.5 -43h-244q-28 0 -39.5 11.5t-11.5 39.5v41z" />
<glyph unicode="&#xb9;" horiz-adv-x="765" d="M94 598v94q0 21 8.5 28t30.5 7h150v485l-150 -18q-21 -3 -30 3.5t-9 27.5v94q0 18 9 26t30 11l324 51h16t13.5 -9t5.5 -26v-645h145q21 0 28 -7t7 -28v-94q0 -21 -7.5 -29t-27.5 -8h-504q-22 0 -30.5 8.5t-8.5 28.5z" />
<glyph unicode="&#xba;" horiz-adv-x="761" d="M94 965v252q0 89 74 140.5t213 51.5q137 0 211 -51.5t74 -140.5v-252q0 -89 -74 -140t-211 -51q-139 0 -213 51t-74 140zM299 983q0 -55 82 -55q80 0 80 55v217q0 53 -80 53q-82 0 -82 -53v-217z" />
<glyph unicode="&#xbb;" horiz-adv-x="1234" d="M131 125v170q0 22 13 38t40 34l217 151l-217 150q-17 12 -26.5 19.5t-18 21.5t-8.5 30v170q0 26 17 36t36 -3l381 -272q47 -33 47 -70v-166q0 -22 -12 -36.5t-35 -30.5l-381 -275q-20 -14 -36.5 -3.5t-16.5 36.5zM623 125v170q0 22 13 38t40 34l217 151l-217 150 q-17 12 -26.5 19.5t-18 21.5t-8.5 30v170q0 26 17 36t36 -3l381 -272q47 -33 47 -70v-166q0 -22 -12 -36.5t-35 -30.5l-381 -275q-20 -14 -36.5 -3.5t-16.5 36.5z" />
<glyph unicode="&#xbc;" horiz-adv-x="1832" d="M94 598v94q0 21 8.5 28t30.5 7h150v492l-150 -25q-21 -3 -30 3.5t-9 27.5v94q0 18 9 26t30 11l324 51h16t13.5 -9t5.5 -26v-645h145q21 0 28 -7t7 -28v-94q0 -21 -7.5 -29t-27.5 -8h-504q-22 0 -30.5 8.5t-8.5 28.5zM649 -63l367 1519q5 20 14.5 28.5t30.5 8.5h141 q39 0 29 -37l-369 -1519q-5 -21 -13 -29t-28 -8h-143q-38 0 -29 37zM1128 248v76q0 17 7 38l122 437q10 37 46 37h137q39 0 28 -37l-120 -424h182v424q0 37 37 37h135q21 0 29 -8.5t8 -28.5v-762q0 -20 -8 -28.5t-29 -8.5h-135q-37 0 -37 37v174h-361q-41 0 -41 37z" />
<glyph unicode="&#xbd;" horiz-adv-x="1841" d="M94 598v94q0 21 8.5 28t30.5 7h150v487l-150 -20q-21 -3 -30 3.5t-9 27.5v94q0 18 9 26t30 11l324 51h16t13.5 -9t5.5 -26v-645h145q21 0 28 -7t7 -28v-94q0 -21 -7.5 -29t-27.5 -8h-504q-22 0 -30.5 8.5t-8.5 28.5zM631 -63l368 1519q5 20 13.5 28.5t29.5 8.5h142 q38 0 28 -37l-368 -1519q-5 -20 -13.5 -28.5t-27.5 -8.5h-144q-37 0 -28 37zM1139 561v74q0 41 16 77t49.5 67t93.5 49t140 18q154 0 227.5 -61.5t73.5 -149.5v-78q0 -88 -33 -133.5t-86 -71.5l-221 -102q-31 -12 -31 -29v-55h342q19 0 28 -7.5t9 -27.5v-94q0 -37 -37 -37 h-514q-20 0 -28.5 8.5t-8.5 28.5v219q0 46 17.5 69.5t56.5 39.5l262 116q39 17 39 66v57q0 39 -27 59.5t-69 20.5q-43 0 -70 -20t-27 -60v-43q0 -22 -7 -30.5t-27 -8.5h-131q-37 0 -37 39z" />
<glyph unicode="&#xbe;" horiz-adv-x="1855" d="M94 762v41q0 19 8 27t29 8h129q39 0 39 -35v-10q0 -40 26 -60t70 -20t71.5 20.5t27.5 59.5v36q0 41 -27.5 60.5t-73.5 19.5h-84q-39 0 -39 35v88q0 21 9 29t30 8h72q98 0 98 78v22q0 80 -88 80t-88 -80v-10q0 -35 -37 -35h-131q-21 0 -29 8.5t-8 26.5v41q0 41 14.5 76 t46 66t92 49t144.5 18q158 0 224.5 -58t66.5 -149v-86q0 -89 -86 -121q98 -43 98 -141v-96q0 -89 -70.5 -147t-230.5 -58q-83 0 -144 18t-94.5 49t-49 66t-15.5 76zM672 -63l368 1519q5 20 13.5 28.5t29.5 8.5h142q38 0 28 -37l-368 -1519q-5 -21 -13 -29t-28 -8h-144 q-37 0 -28 37zM1151 248v76q0 20 6 38l123 437q10 37 45 37h137q40 0 29 -37l-121 -424h182v424q0 37 37 37h135q21 0 29 -8.5t8 -28.5v-762q0 -20 -8 -28.5t-29 -8.5h-135q-37 0 -37 37v174h-360q-41 0 -41 37z" />
<glyph unicode="&#xbf;" horiz-adv-x="1157" d="M104 41q0 233 191 317l117 54q47 22 66.5 45t19.5 69v72q0 28 10.5 38.5t36.5 10.5h180q27 0 38 -11t11 -38v-141q0 -41 -10.5 -72t-31.5 -52.5t-39.5 -34t-47.5 -26.5l-188 -96q-78 -43 -78 -125v-61q0 -154 203 -154q202 0 202 154v80q0 28 10.5 39.5t36.5 11.5h170 q28 0 40 -11.5t12 -39.5v-125q0 -68 -24.5 -125.5t-77 -105.5t-147 -75.5t-222.5 -27.5q-129 0 -224 27.5t-148.5 75.5t-79 105.5t-26.5 125.5v96zM498 803v166q0 28 10.5 39.5t36.5 11.5h180q26 0 37.5 -11.5t11.5 -39.5v-166q0 -28 -11.5 -39.5t-37.5 -11.5h-180 q-26 0 -36.5 11.5t-10.5 39.5z" />
<glyph unicode="&#xc0;" horiz-adv-x="1132" d="M31 51l383 1290q8 27 22 39.5t41 12.5h178q51 0 66 -52l381 -1290q15 -51 -37 -51h-184q-45 0 -60 51l-71 250h-381l-72 -250q-8 -27 -21.5 -39t-39.5 -12h-166q-54 0 -39 51zM262 1783q7 15 35 15h178q47 0 70 -51l98 -201q22 -51 -25 -51h-133q-41 0 -67 35l-148 215 q-15 23 -8 38zM428 520h260l-67 228q-17 54 -37 191t-23 181q-46 -313 -63 -370z" />
<glyph unicode="&#xc1;" horiz-adv-x="1132" d="M31 51l383 1290q8 27 22 39.5t41 12.5h178q51 0 66 -52l381 -1290q15 -51 -37 -51h-184q-45 0 -60 51l-71 250h-381l-72 -250q-8 -27 -21.5 -39t-39.5 -12h-166q-54 0 -39 51zM428 520h260l-67 228q-17 54 -37 191t-23 181q-46 -313 -63 -370zM473 1546l100 201 q23 51 70 51h178q27 0 34.5 -14.5t-7.5 -36.5l-150 -217q-25 -35 -65 -35h-133q-53 0 -27 51z" />
<glyph unicode="&#xc2;" horiz-adv-x="1132" d="M31 51l383 1290q8 27 22 39.5t41 12.5h178q51 0 66 -52l381 -1290q15 -51 -37 -51h-184q-45 0 -60 51l-71 250h-381l-72 -250q-8 -27 -21.5 -39t-39.5 -12h-166q-54 0 -39 51zM281.5 1509.5q-7.5 14.5 7.5 36.5l149 201q35 51 80 51h98q40 0 80 -51l150 -201 q15 -22 7 -36.5t-34 -14.5h-131q-44 0 -70 51l-51 92l-51 -92q-27 -51 -70 -51h-131q-26 0 -33.5 14.5zM428 520h260l-67 228q-17 54 -37 191t-23 181q-46 -313 -63 -370z" />
<glyph unicode="&#xc3;" horiz-adv-x="1132" d="M31 51l383 1290q8 27 22 39.5t41 12.5h178q51 0 66 -52l381 -1290q15 -51 -37 -51h-184q-45 0 -60 51l-71 250h-381l-72 -250q-8 -27 -21.5 -39t-39.5 -12h-166q-54 0 -39 51zM217 1563l8 84q7 75 58 117t123 42q60 0 118 -26l88 -43q64 -31 76 -31q19 0 26.5 10.5 t12.5 38.5l2 12q4 26 16.5 35.5t38.5 9.5h88q46 0 43 -59l-6 -80q-6 -78 -53.5 -119t-116.5 -41q-65 0 -131 27l-88 39q-8 4 -22 10.5t-22 10.5t-17.5 7t-16.5 3q-39 0 -39 -51v-11q0 -26 -13.5 -35.5t-41.5 -9.5h-88q-49 0 -43 60zM428 520h260l-67 228q-17 54 -37 191 t-23 181q-46 -313 -63 -370z" />
<glyph unicode="&#xc4;" horiz-adv-x="1132" d="M31 51l383 1290q8 27 22 39.5t41 12.5h178q51 0 66 -52l381 -1290q15 -51 -37 -51h-184q-45 0 -60 51l-71 250h-381l-72 -250q-8 -27 -21.5 -39t-39.5 -12h-166q-54 0 -39 51zM326 1550v191q0 28 11.5 40.5t37.5 12.5h100q27 0 38 -12.5t11 -40.5v-191q0 -28 -11 -39.5 t-38 -11.5h-100q-26 0 -37.5 11.5t-11.5 39.5zM428 520h260l-67 228q-17 54 -37 191t-23 181q-46 -313 -63 -370zM612 1550v191q0 28 11.5 40.5t38.5 12.5h100q26 0 36.5 -12.5t10.5 -40.5v-191q0 -28 -10.5 -39.5t-36.5 -11.5h-100q-28 0 -39 11.5t-11 39.5z" />
<glyph unicode="&#xc5;" horiz-adv-x="1132" d="M31 51l383 1290q8 27 22 39.5t41 12.5h178q51 0 66 -52l381 -1290q15 -51 -37 -51h-184q-45 0 -60 51l-71 250h-381l-72 -250q-8 -27 -21.5 -39t-39.5 -12h-166q-54 0 -39 51zM338 1622v59q0 68 58 114t171 46t171.5 -46t58.5 -114v-59q0 -68 -58.5 -114t-171.5 -46 t-171 46t-58 114zM428 520h260l-67 228q-17 54 -37 191t-23 181q-46 -313 -63 -370zM485 1640q0 -63 82 -63t82 63v25q0 61 -82 61t-82 -61v-25z" />
<glyph unicode="&#xc6;" horiz-adv-x="1710" d="M33.5 14q-11.5 14 1.5 37l768 1292q31 50 71 50h680q28 0 40 -11.5t12 -38.5v-124q0 -27 -12 -38.5t-40 -11.5h-473v-340h439q28 0 40.5 -11t12.5 -38v-116q0 -28 -12.5 -40t-40.5 -12h-439v-389h496q27 0 39 -10.5t12 -36.5v-127q0 -49 -51 -49h-707q-27 0 -39 12 t-12 39v250h-375l-145 -250q-9 -16 -15.5 -25t-18 -17.5t-25.5 -8.5h-168q-27 0 -38.5 14zM575 520h244v432q-42 -86 -69 -133z" />
<glyph unicode="&#xc7;" horiz-adv-x="1165" d="M121 317v758q0 54 14 101t49 90.5t88.5 74.5t137.5 49.5t192 18.5t192 -18.5t137.5 -49.5t88.5 -74.5t49 -90.5t14 -101v-98q0 -28 -10.5 -39.5t-36.5 -11.5h-170q-28 0 -39.5 11.5t-11.5 39.5v49q0 154 -209 154q-207 0 -207 -154v-659q0 -154 207 -154q209 0 209 154 v77q0 28 11.5 40t39.5 12h170q26 0 36.5 -12t10.5 -40v-127q0 -68 -23 -124t-73.5 -103.5t-143 -75.5t-220.5 -30l-21 -76h62q83 0 131.5 -41.5t48.5 -126.5q0 -86 -48.5 -129t-131.5 -43h-244q-28 0 -39.5 11.5t-11.5 39.5v41q0 27 11.5 38t39.5 11h201q38 0 38 31 q0 33 -38 33h-154q-84 0 -64 67l43 156q-90 14 -155 45.5t-101 75.5t-52.5 93.5t-16.5 106.5z" />
<glyph unicode="&#xc8;" horiz-adv-x="1048" d="M143 53v1286q0 28 11.5 41t38.5 13h700q27 0 39 -11.5t12 -38.5v-129q0 -27 -12 -39t-39 -12h-473v-332h438q28 0 40.5 -11t12.5 -38v-123q0 -26 -12.5 -37.5t-40.5 -11.5h-438v-381h493q28 0 40 -11t12 -38v-129q0 -28 -12 -39.5t-40 -11.5h-720q-27 0 -38.5 12.5 t-11.5 40.5zM264 1783q7 15 35 15h178q47 0 70 -51l98 -201q22 -51 -24 -51h-134q-41 0 -67 35l-148 215q-15 23 -8 38z" />
<glyph unicode="&#xc9;" horiz-adv-x="1048" d="M143 53v1286q0 28 11.5 41t38.5 13h700q27 0 39 -11.5t12 -38.5v-129q0 -27 -12 -39t-39 -12h-473v-332h438q28 0 40.5 -11t12.5 -38v-123q0 -26 -12.5 -37.5t-40.5 -11.5h-438v-381h493q28 0 40 -11t12 -38v-129q0 -28 -12 -39.5t-40 -11.5h-720q-27 0 -38.5 12.5 t-11.5 40.5zM420 1546l100 201q23 51 70 51h178q27 0 34.5 -14.5t-7.5 -36.5l-150 -217q-25 -35 -65 -35h-134q-52 0 -26 51z" />
<glyph unicode="&#xca;" horiz-adv-x="1048" d="M143 53v1286q0 28 11.5 41t38.5 13h700q27 0 39 -11.5t12 -38.5v-129q0 -27 -12 -39t-39 -12h-473v-332h438q28 0 40.5 -11t12.5 -38v-123q0 -26 -12.5 -37.5t-40.5 -11.5h-438v-381h493q28 0 40 -11t12 -38v-129q0 -28 -12 -39.5t-40 -11.5h-720q-27 0 -38.5 12.5 t-11.5 40.5zM238.5 1509.5q-7.5 14.5 7.5 36.5l149 201q35 51 80 51h98q40 0 80 -51l150 -201q15 -22 7 -36.5t-34 -14.5h-131q-44 0 -70 51l-51 92l-51 -92q-27 -51 -70 -51h-131q-26 0 -33.5 14.5z" />
<glyph unicode="&#xcb;" horiz-adv-x="1048" d="M143 53v1286q0 28 11.5 41t38.5 13h700q27 0 39 -11.5t12 -38.5v-129q0 -27 -12 -39t-39 -12h-473v-332h438q28 0 40.5 -11t12.5 -38v-123q0 -26 -12.5 -37.5t-40.5 -11.5h-438v-381h493q28 0 40 -11t12 -38v-129q0 -28 -12 -39.5t-40 -11.5h-720q-27 0 -38.5 12.5 t-11.5 40.5zM297 1550v191q0 28 11.5 40.5t37.5 12.5h100q27 0 38.5 -12.5t11.5 -40.5v-191q0 -28 -11 -39.5t-39 -11.5h-100q-26 0 -37.5 11.5t-11.5 39.5zM584 1550v191q0 28 11 40.5t38 12.5h100q26 0 36.5 -12.5t10.5 -40.5v-191q0 -28 -10.5 -39.5t-36.5 -11.5h-100 q-27 0 -38 11.5t-11 39.5z" />
<glyph unicode="&#xcc;" horiz-adv-x="561" d="M-10 1783q7 15 35 15h178q46 0 69 -51l99 -201q22 -51 -25 -51h-133q-42 0 -68 35l-147 215q-15 23 -8 38zM143 53v1286q0 28 11.5 41t38.5 13h178q27 0 38 -12.5t11 -41.5v-1286q0 -28 -11 -40.5t-38 -12.5h-178q-27 0 -38.5 12.5t-11.5 40.5z" />
<glyph unicode="&#xcd;" horiz-adv-x="561" d="M143 53v1286q0 28 11.5 41t38.5 13h178q27 0 38 -12.5t11 -41.5v-1286q0 -28 -11 -40.5t-38 -12.5h-178q-27 0 -38.5 12.5t-11.5 40.5zM176 1546l100 201q23 51 70 51h178q27 0 34.5 -14.5t-7.5 -36.5l-150 -217q-25 -35 -65 -35h-133q-53 0 -27 51z" />
<glyph unicode="&#xce;" horiz-adv-x="561" d="M-5 1509.5q-8 14.5 7 36.5l150 201q35 51 79 51h99q40 0 80 -51l149 -201q15 -22 7 -36.5t-34 -14.5h-131q-43 0 -69 51l-51 92l-52 -92q-27 -51 -69 -51h-131q-26 0 -34 14.5zM143 53v1286q0 28 11.5 41t38.5 13h178q27 0 38 -12.5t11 -41.5v-1286q0 -28 -11 -40.5 t-38 -12.5h-178q-27 0 -38.5 12.5t-11.5 40.5z" />
<glyph unicode="&#xcf;" horiz-adv-x="561" d="M39 1550v191q0 28 11.5 40.5t37.5 12.5h100q27 0 38.5 -12.5t11.5 -40.5v-191q0 -28 -11 -39.5t-39 -11.5h-100q-26 0 -37.5 11.5t-11.5 39.5zM143 53v1286q0 28 11.5 41t38.5 13h178q27 0 38 -12.5t11 -41.5v-1286q0 -28 -11 -40.5t-38 -12.5h-178q-27 0 -38.5 12.5 t-11.5 40.5zM326 1550v191q0 28 11 40.5t38 12.5h100q26 0 36.5 -12.5t10.5 -40.5v-191q0 -28 -10.5 -39.5t-36.5 -11.5h-100q-27 0 -38 11.5t-11 39.5z" />
<glyph unicode="&#xd0;" horiz-adv-x="1259" d="M4 649v105q0 26 12.5 36.5t40.5 10.5h86v538q0 28 11.5 41t38.5 13h446q134 0 234 -27.5t156 -75.5t83 -105.5t27 -125.5v-725q0 -68 -27 -125.5t-83 -105.5t-156 -75.5t-234 -27.5h-453q-24 0 -33.5 13t-9.5 40v545h-86q-28 0 -40.5 12t-12.5 39zM420 229h219 q106 0 164.5 39.5t58.5 114.5v627q0 75 -58.5 114t-164.5 39h-219v-362h184q28 0 39.5 -10.5t11.5 -36.5v-105q0 -28 -11.5 -39.5t-39.5 -11.5h-184v-369z" />
<glyph unicode="&#xd1;" horiz-adv-x="1280" d="M143 51v1290q0 27 11.5 39.5t38.5 12.5h161q31 0 43 -21l412 -706q16 -26 33.5 -62t27.5 -59l9 -23v819q0 27 11 39.5t38 12.5h162q27 0 38 -12.5t11 -39.5v-1290q0 -27 -11 -39t-38 -12h-162q-33 0 -47 25l-396 677q-69 114 -82 164v-815q0 -27 -11 -39t-38 -12h-161 q-27 0 -38.5 12t-11.5 39zM291 1563l8 84q7 75 57.5 117t122.5 42q61 0 119 -26l88 -43q64 -31 76 -31q19 0 26.5 10.5t12.5 38.5l2 12q4 26 16.5 35.5t38.5 9.5h88q46 0 43 -59l-6 -80q-6 -78 -53.5 -119t-116.5 -41q-65 0 -131 27l-88 39q-8 4 -22 10.5t-22 10.5t-17.5 7 t-16.5 3q-39 0 -39 -51v-11q0 -26 -13.5 -35.5t-41.5 -9.5h-88q-49 0 -43 60z" />
<glyph unicode="&#xd2;" horiz-adv-x="1239" d="M121 317v758q0 68 26.5 125.5t82 105.5t155 75.5t233.5 27.5t233.5 -27.5t155.5 -75.5t82.5 -105.5t26.5 -125.5v-758q0 -68 -26.5 -125.5t-82.5 -105t-155.5 -75t-233.5 -27.5t-233.5 27.5t-155 75t-82 105t-26.5 125.5zM328 1783q7 15 34 15h179q46 0 69 -51l99 -201 q22 -51 -25 -51h-133q-42 0 -68 35l-147 215q-15 23 -8 38zM399 367q0 -75 57.5 -114.5t161.5 -39.5q105 0 163.5 39.5t58.5 114.5v659q0 75 -58.5 114.5t-163.5 39.5q-104 0 -161.5 -39.5t-57.5 -114.5v-659z" />
<glyph unicode="&#xd3;" horiz-adv-x="1239" d="M121 317v758q0 68 26.5 125.5t82 105.5t155 75.5t233.5 27.5t233.5 -27.5t155.5 -75.5t82.5 -105.5t26.5 -125.5v-758q0 -68 -26.5 -125.5t-82.5 -105t-155.5 -75t-233.5 -27.5t-233.5 27.5t-155 75t-82 105t-26.5 125.5zM399 367q0 -75 57.5 -114.5t161.5 -39.5 q105 0 163.5 39.5t58.5 114.5v659q0 75 -58.5 114.5t-163.5 39.5q-104 0 -161.5 -39.5t-57.5 -114.5v-659zM496 1546l100 201q23 51 70 51h178q27 0 34 -14.5t-8 -36.5l-149 -217q-25 -35 -66 -35h-133q-52 0 -26 51z" />
<glyph unicode="&#xd4;" horiz-adv-x="1239" d="M121 317v758q0 68 26.5 125.5t82 105.5t155 75.5t233.5 27.5t233.5 -27.5t155.5 -75.5t82.5 -105.5t26.5 -125.5v-758q0 -68 -26.5 -125.5t-82.5 -105t-155.5 -75t-233.5 -27.5t-233.5 27.5t-155 75t-82 105t-26.5 125.5zM333 1509.5q-8 14.5 7 36.5l149 201q35 51 80 51 h99q40 0 80 -51l149 -201q15 -22 7 -36.5t-34 -14.5h-131q-43 0 -69 51l-52 92l-51 -92q-27 -51 -69 -51h-131q-26 0 -34 14.5zM399 367q0 -75 57.5 -114.5t161.5 -39.5q105 0 163.5 39.5t58.5 114.5v659q0 75 -58.5 114.5t-163.5 39.5q-104 0 -161.5 -39.5t-57.5 -114.5 v-659z" />
<glyph unicode="&#xd5;" horiz-adv-x="1239" d="M121 317v758q0 68 26.5 125.5t82 105.5t155 75.5t233.5 27.5t233.5 -27.5t155.5 -75.5t82.5 -105.5t26.5 -125.5v-758q0 -68 -26.5 -125.5t-82.5 -105t-155.5 -75t-233.5 -27.5t-233.5 27.5t-155 75t-82 105t-26.5 125.5zM270 1563l9 84q7 75 57.5 117t122.5 42 q61 0 119 -26l88 -43q6 -3 20.5 -10.5t22 -11t17 -6.5t15.5 -3q19 0 26.5 10.5t12.5 38.5l2 12q4 25 17 35t39 10h88q46 0 43 -59l-6 -80q-6 -78 -53.5 -119t-116.5 -41q-65 0 -131 27l-89 39l-27 13.5t-30 13.5t-20 4q-39 0 -39 -51v-11q0 -26 -13.5 -35.5t-42.5 -9.5h-88 q-49 0 -43 60zM399 367q0 -75 57.5 -114.5t161.5 -39.5q105 0 163.5 39.5t58.5 114.5v659q0 75 -58.5 114.5t-163.5 39.5q-104 0 -161.5 -39.5t-57.5 -114.5v-659z" />
<glyph unicode="&#xd6;" horiz-adv-x="1239" d="M121 317v758q0 68 26.5 125.5t82 105.5t155 75.5t233.5 27.5t233.5 -27.5t155.5 -75.5t82.5 -105.5t26.5 -125.5v-758q0 -68 -26.5 -125.5t-82.5 -105t-155.5 -75t-233.5 -27.5t-233.5 27.5t-155 75t-82 105t-26.5 125.5zM377 1550v191q0 28 11.5 40.5t37.5 12.5h100 q27 0 38 -12.5t11 -40.5v-191q0 -28 -11 -39.5t-38 -11.5h-100q-26 0 -37.5 11.5t-11.5 39.5zM399 367q0 -75 57.5 -114.5t161.5 -39.5q105 0 163.5 39.5t58.5 114.5v659q0 75 -58.5 114.5t-163.5 39.5q-104 0 -161.5 -39.5t-57.5 -114.5v-659zM664 1550v191q0 28 11 40.5 t38 12.5h100q26 0 36.5 -12.5t10.5 -40.5v-191q0 -28 -10.5 -39.5t-36.5 -11.5h-100q-27 0 -38 11.5t-11 39.5z" />
<glyph unicode="&#xd7;" horiz-adv-x="1107" d="M124.5 560.5q4.5 15.5 29.5 29.5l249 143l-145 252q-14 25 -10.5 41t26.5 29l105 61q45 26 70 -20l145 -252l252 145q25 14 40.5 10.5t28.5 -26.5l60 -105q14 -25 9.5 -41.5t-28.5 -29.5l-254 -146l146 -250q14 -25 10 -40.5t-29 -28.5l-104 -60q-17 -9 -28.5 -10.5 t-21 5.5t-18.5 24l-145 250l-250 -144q-25 -14 -40.5 -10t-28.5 29l-60 104q-13 25 -8.5 40.5z" />
<glyph unicode="&#xd8;" horiz-adv-x="1239" d="M121 315v758q0 68 26.5 125.5t82 105.5t155 75.5t233.5 27.5q158 0 273 -41l18 35q7 14 12 22.5t13.5 18.5t19.5 15t25 5h57q44 0 15 -61l-50 -94q115 -86 115 -234v-758q0 -68 -26.5 -125.5t-82.5 -105t-155.5 -75t-233.5 -27.5q-158 0 -276 41l-16 -33q-15 -32 -31 -47 t-43 -15h-53q-22 0 -26 18.5t9 43.5l47 94q-108 84 -108 231zM399 412l377 731q-59 35 -158 35q-104 0 -161.5 -39.5t-57.5 -114.5v-612zM459 248q55 -37 159 -37q105 0 163.5 39.5t58.5 114.5v624z" />
<glyph unicode="&#xd9;" horiz-adv-x="1259" d="M131 317v1022q0 28 12 41t39 13h178q50 0 50 -54v-972q0 -75 57.5 -114.5t161.5 -39.5q105 0 164 39.5t59 114.5v972q0 29 11 41.5t38 12.5h178q27 0 37 -12.5t10 -41.5v-1022q0 -68 -26.5 -125.5t-82 -105t-155 -75t-233.5 -27.5t-233.5 27.5t-155.5 75t-82.5 105 t-26.5 125.5zM354 1783q7 15 35 15h178q47 0 70 -51l98 -201q22 -51 -24 -51h-133q-42 0 -68 35l-148 215q-15 23 -8 38z" />
<glyph unicode="&#xda;" horiz-adv-x="1259" d="M131 317v1022q0 28 12 41t39 13h178q50 0 50 -54v-972q0 -75 57.5 -114.5t161.5 -39.5q105 0 164 39.5t59 114.5v972q0 29 11 41.5t38 12.5h178q27 0 37 -12.5t10 -41.5v-1022q0 -68 -26.5 -125.5t-82 -105t-155 -75t-233.5 -27.5t-233.5 27.5t-155.5 75t-82.5 105 t-26.5 125.5zM528 1546l101 201q23 51 69 51h179q27 0 34 -14.5t-8 -36.5l-149 -217q-25 -35 -66 -35h-133q-53 0 -27 51z" />
<glyph unicode="&#xdb;" horiz-adv-x="1259" d="M131 317v1022q0 28 12 41t39 13h178q50 0 50 -54v-972q0 -75 57.5 -114.5t161.5 -39.5q105 0 164 39.5t59 114.5v972q0 29 11 41.5t38 12.5h178q27 0 37 -12.5t10 -41.5v-1022q0 -68 -26.5 -125.5t-82 -105t-155 -75t-233.5 -27.5t-233.5 27.5t-155.5 75t-82.5 105 t-26.5 125.5zM343 1509.5q-8 14.5 7 36.5l150 201q35 51 80 51h98q40 0 80 -51l149 -201q15 -22 7.5 -36.5t-33.5 -14.5h-131q-44 0 -70 51l-51 92l-51 -92q-27 -51 -70 -51h-131q-26 0 -34 14.5z" />
<glyph unicode="&#xdc;" horiz-adv-x="1259" d="M131 317v1022q0 28 12 41t39 13h178q50 0 50 -54v-972q0 -75 57.5 -114.5t161.5 -39.5q105 0 164 39.5t59 114.5v972q0 29 11 41.5t38 12.5h178q27 0 37 -12.5t10 -41.5v-1022q0 -68 -26.5 -125.5t-82 -105t-155 -75t-233.5 -27.5t-233.5 27.5t-155.5 75t-82.5 105 t-26.5 125.5zM387 1550v191q0 28 11.5 40.5t37.5 12.5h101q27 0 38 -12.5t11 -40.5v-191q0 -28 -11 -39.5t-38 -11.5h-101q-26 0 -37.5 11.5t-11.5 39.5zM674 1550v191q0 28 11 40.5t38 12.5h100q26 0 36.5 -12.5t10.5 -40.5v-191q0 -28 -10.5 -39.5t-36.5 -11.5h-100 q-27 0 -38 11.5t-11 39.5z" />
<glyph unicode="&#xdd;" horiz-adv-x="1116" d="M30 1378.5q10 14.5 36 14.5h202q42 0 62 -52l194 -467l35 -106q2 12 14 48.5t23 57.5l217 467q11 26 23 39t36 13h177q27 0 37 -13.5t-1 -38.5l-387 -809v-481q0 -27 -11 -39t-38 -12h-178q-27 0 -39 12t-12 39v449l-389 841q-11 23 -1 37.5zM473 1546l100 201 q23 51 70 51h178q27 0 34.5 -14.5t-7.5 -36.5l-150 -217q-25 -35 -65 -35h-133q-53 0 -27 51z" />
<glyph unicode="&#xde;" horiz-adv-x="1187" d="M143 51v1290q0 27 11.5 39.5t38.5 12.5h178q27 0 38 -12.5t11 -39.5v-321h203q134 0 233 -27.5t154.5 -75.5t81.5 -105.5t26 -125.5v-174q0 -68 -26 -125.5t-81.5 -105.5t-154.5 -75.5t-233 -27.5h-203v-127q0 -27 -11 -39t-38 -12h-178q-27 0 -38.5 12t-11.5 39z M420 406h203q105 0 164 39t59 114v80q0 75 -59 114.5t-164 39.5h-203v-387z" />
<glyph unicode="&#xdf;" horiz-adv-x="1312" d="M39 854v102q0 26 12 37t37 13l105 10h6v131q0 140 117.5 221.5t349.5 81.5q231 0 341.5 -79.5t110.5 -223.5v-72q0 -65 -39.5 -113t-101.5 -75l-137 -60q-3 -1 -11.5 -5t-11.5 -5.5l-10 -5t-10 -6.5t-6.5 -8t-5 -10.5t-1.5 -12.5v-4q0 -39 66 -65l237 -109 q72 -32 127.5 -90.5t55.5 -134.5v-92q0 -295 -367 -295q-101 0 -169.5 19t-106.5 57t-54 88t-16 120v11q0 28 11.5 39.5t37.5 11.5h117q28 0 39.5 -11.5t11.5 -39.5v-21q0 -53 29.5 -78.5t95.5 -25.5q127 0 127 104v66q0 22 -15 40.5t-28.5 25.5t-34.5 16l-219 96 q-80 35 -124 89t-44 146v41q0 63 37 109t96 71l94 41q80 36 80 99v35q0 124 -200 124q-199 0 -199 -124v-1080q0 -28 -11 -40.5t-38 -12.5h-170q-27 0 -39 12.5t-12 40.5v750h-111q-26 0 -37.5 11.5t-11.5 39.5z" />
<glyph unicode="&#xe0;" horiz-adv-x="1058" d="M94 240v92q0 109 81 183.5t226 74.5h283v131q0 59 -34 87t-120 28t-121.5 -25t-35.5 -82v-14q0 -28 -11.5 -39.5t-37.5 -11.5h-152q-27 0 -38 11.5t-11 39.5v26q0 295 414 295q216 0 313.5 -76t97.5 -219v-688q0 -28 -11.5 -40.5t-37.5 -12.5h-154q-26 0 -36 11.5 t-13 41.5l-4 43q-135 -112 -303 -112q-143 0 -219 73.5t-76 182.5zM282.5 1435.5q6.5 14.5 32.5 14.5h179q48 0 71 -51l99 -201q22 -51 -27 -51h-133q-41 0 -66 35l-147 217q-15 22 -8.5 36.5zM356 276q0 -79 103 -79q107 0 225 88v116h-229q-56 0 -77.5 -24t-21.5 -68v-33z " />
<glyph unicode="&#xe1;" horiz-adv-x="1058" d="M94 240v92q0 109 81 183.5t226 74.5h283v131q0 59 -34 87t-120 28t-121.5 -25t-35.5 -82v-14q0 -28 -11.5 -39.5t-37.5 -11.5h-152q-27 0 -38 11.5t-11 39.5v26q0 295 414 295q216 0 313.5 -76t97.5 -219v-688q0 -28 -11.5 -40.5t-37.5 -12.5h-154q-26 0 -36 11.5 t-13 41.5l-4 43q-135 -112 -303 -112q-143 0 -219 73.5t-76 182.5zM356 276q0 -79 103 -79q107 0 225 88v116h-229q-56 0 -77.5 -24t-21.5 -68v-33zM399 1198l99 201q23 51 71 51h179q26 0 32.5 -14.5t-8.5 -36.5l-147 -217q-25 -35 -66 -35h-133q-49 0 -27 51z" />
<glyph unicode="&#xe2;" horiz-adv-x="1058" d="M94 240v92q0 109 81 183.5t226 74.5h283v131q0 59 -34 87t-120 28t-121.5 -25t-35.5 -82v-14q0 -28 -11.5 -39.5t-37.5 -11.5h-152q-27 0 -38 11.5t-11 39.5v26q0 295 414 295q216 0 313.5 -76t97.5 -219v-688q0 -28 -11.5 -40.5t-37.5 -12.5h-154q-26 0 -36 11.5 t-13 41.5l-4 43q-135 -112 -303 -112q-143 0 -219 73.5t-76 182.5zM249 1161.5q-8 14.5 7 36.5l150 201q35 51 79 51h99q40 0 80 -51l149 -201q15 -22 7 -36.5t-34 -14.5h-131q-43 0 -69 51l-51 92l-52 -92q-27 -51 -69 -51h-131q-26 0 -34 14.5zM356 276q0 -79 103 -79 q107 0 225 88v116h-229q-56 0 -77.5 -24t-21.5 -68v-33z" />
<glyph unicode="&#xe3;" horiz-adv-x="1058" d="M94 240v92q0 109 81 183.5t226 74.5h283v131q0 59 -34 87t-120 28t-121.5 -25t-35.5 -82v-14q0 -28 -11.5 -39.5t-37.5 -11.5h-152q-27 0 -38 11.5t-11 39.5v26q0 295 414 295q216 0 313.5 -76t97.5 -219v-688q0 -28 -11.5 -40.5t-37.5 -12.5h-154q-26 0 -36 11.5 t-13 41.5l-4 43q-135 -112 -303 -112q-143 0 -219 73.5t-76 182.5zM193 1196l8 86q7 75 57 116.5t121 41.5q65 0 121 -27l86 -41q8 -4 22 -10.5t22 -10.5t17.5 -7t16.5 -3q38 0 38 50v10q0 45 56 45h88q26 0 35.5 -15t7.5 -45l-6 -79q-6 -78 -53.5 -119t-114.5 -41 q-69 0 -131 27l-88 38q-10 4 -29 13.5t-30 13.5t-19 4q-19 0 -26.5 -10.5t-12.5 -38.5l-2 -12q-4 -26 -16 -35.5t-37 -9.5h-91q-47 0 -40 59zM356 276q0 -79 103 -79q107 0 225 88v116h-229q-56 0 -77.5 -24t-21.5 -68v-33z" />
<glyph unicode="&#xe4;" horiz-adv-x="1058" d="M94 240v92q0 109 81 183.5t226 74.5h283v131q0 59 -34 87t-120 28t-121.5 -25t-35.5 -82v-14q0 -28 -11.5 -39.5t-37.5 -11.5h-152q-27 0 -38 11.5t-11 39.5v26q0 295 414 295q216 0 313.5 -76t97.5 -219v-688q0 -28 -11.5 -40.5t-37.5 -12.5h-154q-26 0 -36 11.5 t-13 41.5l-4 43q-135 -112 -303 -112q-143 0 -219 73.5t-76 182.5zM293 1204v191q0 28 11 39.5t38 11.5h100q26 0 36.5 -11.5t10.5 -39.5v-191q0 -28 -10.5 -39.5t-36.5 -11.5h-100q-27 0 -38 11.5t-11 39.5zM356 276q0 -79 103 -79q107 0 225 88v116h-229q-56 0 -77.5 -24 t-21.5 -68v-33zM578 1204v191q0 28 11.5 39.5t39.5 11.5h100q26 0 36.5 -11.5t10.5 -39.5v-191q0 -28 -10.5 -39.5t-36.5 -11.5h-100q-28 0 -39.5 11.5t-11.5 39.5z" />
<glyph unicode="&#xe5;" horiz-adv-x="1058" d="M94 240v92q0 109 81 183.5t226 74.5h283v131q0 59 -34 87t-120 28t-121.5 -25t-35.5 -82v-14q0 -28 -11.5 -39.5t-37.5 -11.5h-152q-27 0 -38 11.5t-11 39.5v26q0 295 414 295q216 0 313.5 -76t97.5 -219v-688q0 -28 -11.5 -40.5t-37.5 -12.5h-154q-26 0 -36 11.5 t-13 41.5l-4 43q-135 -112 -303 -112q-143 0 -219 73.5t-76 182.5zM313 1270v69q0 68 58 112t170 44q111 0 168 -44t57 -112v-69q0 -68 -57 -112t-168 -44q-112 0 -170 44t-58 112zM356 276q0 -79 103 -79q107 0 225 88v116h-229q-56 0 -77.5 -24t-21.5 -68v-33zM457 1288 q0 -61 84 -61q82 0 82 61v31q0 61 -82 61q-84 0 -84 -61v-31z" />
<glyph unicode="&#xe6;" horiz-adv-x="1607" d="M92 240v88q0 108 82 182t227 74h283v151q0 107 -154 107q-86 0 -121.5 -25t-35.5 -82v-20q0 -27 -11.5 -38t-39.5 -11h-150q-28 0 -39.5 11t-11.5 38v28q0 293 414 293q194 0 276 -92q99 92 295 92q412 0 412 -301v-233q0 -47 -48 -47h-524v-162q0 -56 37.5 -83.5 t122.5 -27.5t122.5 28.5t37.5 84.5v14q0 26 11.5 37.5t39.5 11.5h141q28 0 39.5 -11.5t11.5 -37.5v-24q0 -145 -94.5 -223t-308.5 -78q-275 0 -365 127q-164 -127 -352 -127q-146 0 -221.5 73.5t-75.5 182.5zM354 274q0 -42 29 -61.5t76 -19.5q99 0 225 94v116h-233 q-52 0 -74.5 -25t-22.5 -65v-39zM946 633h320v90q0 115 -160 115t-160 -115v-90z" />
<glyph unicode="&#xe7;" horiz-adv-x="1007" d="M100 287v448q0 143 102 222t320 79q216 0 318 -79t102 -222v-35q0 -27 -11 -38t-38 -11h-158q-28 0 -39.5 11t-11.5 38v15q0 58 -35.5 83t-122.5 25q-86 0 -121.5 -25t-35.5 -83v-408q0 -58 35.5 -84t121.5 -26t122 26t36 84v31q0 28 11.5 39.5t39.5 11.5h158 q26 0 37.5 -11.5t11.5 -39.5v-51q0 -297 -405 -303l-21 -76h62q83 0 131.5 -41.5t48.5 -126.5q0 -86 -48.5 -129t-131.5 -43h-244q-28 0 -39.5 11.5t-11.5 39.5v41q0 27 11.5 38t39.5 11h201q38 0 38 31q0 33 -38 33h-154q-84 0 -64 67l45 158q-262 49 -262 289z" />
<glyph unicode="&#xe8;" horiz-adv-x="1024" d="M100 287v448q0 143 102 222t320 79q410 0 410 -301v-237q0 -25 -10.5 -36t-34.5 -11h-525v-152q0 -57 36.5 -85t123.5 -28t123.5 28t36.5 85v10q0 27 12 39t39 12h144q51 0 51 -51v-22q0 -146 -96 -224.5t-312 -78.5q-420 0 -420 303zM243.5 1435.5q6.5 14.5 32.5 14.5 h179q48 0 71 -51l99 -201q22 -51 -27 -51h-133q-41 0 -66 35l-147 217q-15 22 -8.5 36.5zM362 631h320v90q0 113 -160 113q-85 0 -122.5 -28.5t-37.5 -84.5v-90z" />
<glyph unicode="&#xe9;" horiz-adv-x="1024" d="M100 287v448q0 143 102 222t320 79q410 0 410 -301v-237q0 -25 -10.5 -36t-34.5 -11h-525v-152q0 -57 36.5 -85t123.5 -28t123.5 28t36.5 85v10q0 27 12 39t39 12h144q51 0 51 -51v-22q0 -146 -96 -224.5t-312 -78.5q-420 0 -420 303zM362 631h320v90q0 113 -160 113 q-85 0 -122.5 -28.5t-37.5 -84.5v-90zM397 1198l99 201q23 51 71 51h178q26 0 33 -14.5t-8 -36.5l-147 -217q-25 -35 -66 -35h-133q-49 0 -27 51z" />
<glyph unicode="&#xea;" horiz-adv-x="1024" d="M100 287v448q0 143 102 222t320 79q410 0 410 -301v-237q0 -25 -10.5 -36t-34.5 -11h-525v-152q0 -57 36.5 -85t123.5 -28t123.5 28t36.5 85v10q0 27 12 39t39 12h144q51 0 51 -51v-22q0 -146 -96 -224.5t-312 -78.5q-420 0 -420 303zM236.5 1161.5q-7.5 14.5 7.5 36.5 l149 201q35 51 80 51h98q40 0 80 -51l150 -201q15 -22 7 -36.5t-34 -14.5h-131q-44 0 -70 51l-51 92l-51 -92q-27 -51 -70 -51h-131q-26 0 -33.5 14.5zM362 631h320v90q0 113 -160 113q-85 0 -122.5 -28.5t-37.5 -84.5v-90z" />
<glyph unicode="&#xeb;" horiz-adv-x="1024" d="M100 287v448q0 143 102 222t320 79q410 0 410 -301v-237q0 -25 -10.5 -36t-34.5 -11h-525v-152q0 -57 36.5 -85t123.5 -28t123.5 28t36.5 85v10q0 27 12 39t39 12h144q51 0 51 -51v-22q0 -146 -96 -224.5t-312 -78.5q-420 0 -420 303zM276 1204v191q0 28 11 39.5t39 11.5 h100q26 0 36.5 -11.5t10.5 -39.5v-191q0 -28 -10.5 -39.5t-36.5 -11.5h-100q-28 0 -39 11.5t-11 39.5zM362 631h320v90q0 113 -160 113q-85 0 -122.5 -28.5t-37.5 -84.5v-90zM561 1204v191q0 28 11.5 39.5t39.5 11.5h101q26 0 36.5 -11.5t10.5 -39.5v-191q0 -28 -10.5 -39.5 t-36.5 -11.5h-101q-28 0 -39.5 11.5t-11.5 39.5z" />
<glyph unicode="&#xec;" horiz-adv-x="512" d="M-28.5 1435.5q6.5 14.5 32.5 14.5h178q49 0 72 -51l98 -201q22 -51 -26 -51h-133q-41 0 -66 35l-147 217q-15 22 -8.5 36.5zM121 51v918q0 27 12 39t39 12h170q26 0 36.5 -12t10.5 -39v-918q0 -27 -10.5 -39t-36.5 -12h-170q-27 0 -39 12t-12 39z" />
<glyph unicode="&#xed;" horiz-adv-x="512" d="M121 51v918q0 27 12 39t39 12h170q26 0 36.5 -12t10.5 -39v-918q0 -27 -10.5 -39t-36.5 -12h-170q-27 0 -39 12t-12 39zM154 1198l98 201q23 51 72 51h178q26 0 32.5 -14.5t-8.5 -36.5l-147 -217q-25 -35 -66 -35h-133q-48 0 -26 51z" />
<glyph unicode="&#xee;" horiz-adv-x="512" d="M-23.5 1161.5q-7.5 14.5 7.5 36.5l149 201q35 51 80 51h98q40 0 80 -51l150 -201q15 -22 7 -36.5t-34 -14.5h-131q-44 0 -70 51l-51 92l-51 -92q-27 -51 -70 -51h-131q-26 0 -33.5 14.5zM121 51v918q0 27 12 39t39 12h170q26 0 36.5 -12t10.5 -39v-918q0 -27 -10.5 -39 t-36.5 -12h-170q-27 0 -39 12t-12 39z" />
<glyph unicode="&#xef;" horiz-adv-x="512" d="M16 1204v191q0 28 11 39.5t39 11.5h100q26 0 36.5 -11.5t10.5 -39.5v-191q0 -28 -10.5 -39.5t-36.5 -11.5h-100q-28 0 -39 11.5t-11 39.5zM121 51v918q0 27 12 39t39 12h170q26 0 36.5 -12t10.5 -39v-918q0 -27 -10.5 -39t-36.5 -12h-170q-27 0 -39 12t-12 39zM301 1204 v191q0 28 11.5 39.5t39.5 11.5h101q26 0 36.5 -11.5t10.5 -39.5v-191q0 -28 -10.5 -39.5t-36.5 -11.5h-101q-28 0 -39.5 11.5t-11.5 39.5z" />
<glyph unicode="&#xf0;" horiz-adv-x="1163" d="M100 285v452q0 141 74.5 220t222.5 79q176 0 320 -110v168q0 11 -6 20l-72 -35q-45 -23 -70 19l-18 30q-24 43 20 66l91 47q-36 23 -115 23h-199q-53 0 -53 51v86q0 26 12.5 37.5t40.5 11.5h199q218 0 327 -88l91 49q46 26 69 -18l19 -31q25 -39 -21 -66l-80 -45 q17 -44 17 -102v-864q0 -142 -104 -221.5t-322 -79.5q-220 0 -331.5 80t-111.5 221zM369 307q0 -112 174 -112t174 112v404q-122 94 -236 94q-65 0 -88.5 -29.5t-23.5 -79.5v-389z" />
<glyph unicode="&#xf1;" horiz-adv-x="1118" d="M121 53v918q0 26 11.5 37.5t39.5 11.5h158q27 0 37 -11t12 -38l4 -49q138 114 328 114q138 0 217.5 -76t79.5 -198v-709q0 -28 -12 -40.5t-40 -12.5h-165q-54 0 -54 53v641q0 58 -23.5 83.5t-86.5 25.5q-118 0 -238 -92v-658q0 -28 -10.5 -40.5t-36.5 -12.5h-170 q-27 0 -39 12.5t-12 40.5zM207 1212l8 86q7 75 57 116.5t121 41.5q67 0 121 -26l86 -41q8 -4 22 -10.5t22 -10.5t17.5 -7t16.5 -3q39 0 39 49v10q0 45 55 45h88q26 0 35.5 -14.5t7.5 -44.5l-6 -80q-6 -78 -53.5 -119t-114.5 -41q-69 0 -131 27l-88 39q-10 4 -29 13.5 t-30 13.5t-19 4q-19 0 -26.5 -11t-12.5 -39l-2 -12q-4 -26 -16 -35.5t-37 -9.5h-90q-48 0 -41 59z" />
<glyph unicode="&#xf2;" horiz-adv-x="1085" d="M100 287v448q0 141 111.5 221t331.5 80t331 -80t111 -221v-448q0 -142 -111 -222.5t-331 -80.5t-331.5 80.5t-111.5 222.5zM268 1435.5q7 14.5 33 14.5h178q49 0 72 -51l98 -201q22 -51 -26 -51h-134q-40 0 -65 35l-148 217q-15 22 -8 36.5zM369 309q0 -112 174 -112 t174 112v404q0 110 -174 110t-174 -110v-404z" />
<glyph unicode="&#xf3;" horiz-adv-x="1085" d="M100 287v448q0 141 111.5 221t331.5 80t331 -80t111 -221v-448q0 -142 -111 -222.5t-331 -80.5t-331.5 80.5t-111.5 222.5zM369 309q0 -112 174 -112t174 112v404q0 110 -174 110t-174 -110v-404zM434 1198l98 201q23 51 72 51h178q26 0 33 -14.5t-8 -36.5l-148 -217 q-25 -35 -65 -35h-133q-49 0 -27 51z" />
<glyph unicode="&#xf4;" horiz-adv-x="1085" d="M100 287v448q0 141 111.5 221t331.5 80t331 -80t111 -221v-448q0 -142 -111 -222.5t-331 -80.5t-331.5 80.5t-111.5 222.5zM261 1161.5q-8 14.5 7 36.5l150 201q35 51 80 51h98q40 0 80 -51l149 -201q15 -22 7.5 -36.5t-33.5 -14.5h-131q-44 0 -70 51l-51 92l-51 -92 q-27 -51 -70 -51h-131q-26 0 -34 14.5zM369 309q0 -112 174 -112t174 112v404q0 110 -174 110t-174 -110v-404z" />
<glyph unicode="&#xf5;" horiz-adv-x="1085" d="M100 287v448q0 141 111.5 221t331.5 80t331 -80t111 -221v-448q0 -142 -111 -222.5t-331 -80.5t-331.5 80.5t-111.5 222.5zM199 1196l8 86q7 75 57 116.5t121 41.5q65 0 121 -27l86 -41q8 -4 22 -10.5t22 -10.5t17.5 -7t16.5 -3q39 0 39 50v10q0 45 55 45h88 q26 0 35.5 -15t7.5 -45l-6 -79q-6 -78 -53.5 -119t-114.5 -41q-69 0 -131 27l-88 38q-10 4 -29 13.5t-30 13.5t-19 4q-19 0 -26.5 -10.5t-12.5 -38.5l-2 -12q-4 -26 -16 -35.5t-37 -9.5h-90q-48 0 -41 59zM369 309q0 -112 174 -112t174 112v404q0 110 -174 110t-174 -110 v-404z" />
<glyph unicode="&#xf6;" horiz-adv-x="1085" d="M100 287v448q0 141 111.5 221t331.5 80t331 -80t111 -221v-448q0 -142 -111 -222.5t-331 -80.5t-331.5 80.5t-111.5 222.5zM305 1204v191q0 28 11 39.5t38 11.5h101q26 0 36.5 -11.5t10.5 -39.5v-191q0 -28 -10.5 -39.5t-36.5 -11.5h-101q-27 0 -38 11.5t-11 39.5z M369 309q0 -112 174 -112t174 112v404q0 110 -174 110t-174 -110v-404zM590 1204v191q0 28 11.5 39.5t39.5 11.5h100q26 0 36.5 -11.5t10.5 -39.5v-191q0 -28 -10.5 -39.5t-36.5 -11.5h-100q-28 0 -39.5 11.5t-11.5 39.5z" />
<glyph unicode="&#xf7;" horiz-adv-x="1189" d="M121 549v123q0 27 12 38t39 11h844q27 0 39 -11t12 -38v-123q0 -26 -11.5 -37.5t-39.5 -11.5h-844q-51 0 -51 49zM457 164v166q0 28 11.5 39.5t39.5 11.5h174q27 0 38 -11.5t11 -39.5v-166q0 -28 -11 -39.5t-38 -11.5h-174q-28 0 -39.5 11.5t-11.5 39.5zM457 893v166 q0 28 11.5 39.5t39.5 11.5h174q27 0 38 -11.5t11 -39.5v-166q0 -28 -11 -39.5t-38 -11.5h-174q-28 0 -39.5 11.5t-11.5 39.5z" />
<glyph unicode="&#xf8;" horiz-adv-x="1085" d="M100 287v448q0 141 111.5 221t331.5 80q114 0 200 -22l13 20q8 16 13 23.5t13.5 18.5t19 15.5t23.5 4.5h58q46 0 12 -62l-37 -69q127 -77 127 -230v-448q0 -142 -111 -222.5t-331 -80.5q-115 0 -205 22l-8 -14q-14 -26 -21 -36.5t-20.5 -18t-34.5 -7.5h-51 q-24 0 -25 21.5t12 40.5l35 63q-125 79 -125 232zM369 319l266 492q-37 12 -92 12q-174 0 -174 -110v-394zM446 207q34 -10 97 -10q174 0 174 112v396z" />
<glyph unicode="&#xf9;" d="M111 258v711q0 28 11.5 39.5t37.5 11.5h168q27 0 39 -12t12 -39v-643q0 -58 24 -83.5t86 -25.5q114 0 226 90v662q0 28 11 39.5t38 11.5h170q26 0 37.5 -11.5t11.5 -39.5v-918q0 -28 -11.5 -39.5t-37.5 -11.5h-158q-27 0 -37.5 11t-13.5 40l-4 45q-126 -112 -315 -112 q-137 0 -216 76t-79 198zM270.5 1435.5q6.5 14.5 32.5 14.5h178q49 0 72 -51l98 -201q22 -51 -26 -51h-133q-41 0 -66 35l-147 217q-15 22 -8.5 36.5z" />
<glyph unicode="&#xfa;" d="M111 258v711q0 28 11.5 39.5t37.5 11.5h168q27 0 39 -12t12 -39v-643q0 -58 24 -83.5t86 -25.5q114 0 226 90v662q0 28 11 39.5t38 11.5h170q26 0 37.5 -11.5t11.5 -39.5v-918q0 -28 -11.5 -39.5t-37.5 -11.5h-158q-27 0 -37.5 11t-13.5 40l-4 45q-126 -112 -315 -112 q-137 0 -216 76t-79 198zM438 1198l99 201q23 51 71 51h178q26 0 33 -14.5t-8 -36.5l-147 -217q-25 -35 -66 -35h-133q-49 0 -27 51z" />
<glyph unicode="&#xfb;" d="M111 258v711q0 28 11.5 39.5t37.5 11.5h168q27 0 39 -12t12 -39v-643q0 -58 24 -83.5t86 -25.5q114 0 226 90v662q0 28 11 39.5t38 11.5h170q26 0 37.5 -11.5t11.5 -39.5v-918q0 -28 -11.5 -39.5t-37.5 -11.5h-158q-27 0 -37.5 11t-13.5 40l-4 45q-126 -112 -315 -112 q-137 0 -216 76t-79 198zM240.5 1161.5q-7.5 14.5 7.5 36.5l149 201q35 51 80 51h98q40 0 80 -51l150 -201q15 -22 7 -36.5t-34 -14.5h-131q-43 0 -69 51l-52 92l-51 -92q-27 -51 -69 -51h-132q-26 0 -33.5 14.5z" />
<glyph unicode="&#xfc;" d="M111 258v711q0 28 11.5 39.5t37.5 11.5h168q27 0 39 -12t12 -39v-643q0 -58 24 -83.5t86 -25.5q114 0 226 90v662q0 28 11 39.5t38 11.5h170q26 0 37.5 -11.5t11.5 -39.5v-918q0 -28 -11.5 -39.5t-37.5 -11.5h-158q-27 0 -37.5 11t-13.5 40l-4 45q-126 -112 -315 -112 q-137 0 -216 76t-79 198zM303 1204v191q0 28 11 39.5t38 11.5h101q26 0 36.5 -11.5t10.5 -39.5v-191q0 -28 -10.5 -39.5t-36.5 -11.5h-101q-27 0 -38 11.5t-11 39.5zM588 1204v191q0 28 11.5 39.5t39.5 11.5h100q26 0 36.5 -11.5t10.5 -39.5v-191q0 -28 -10.5 -39.5 t-36.5 -11.5h-100q-28 0 -39.5 11.5t-11.5 39.5z" />
<glyph unicode="&#xfd;" horiz-adv-x="970" d="M23 969q-9 24 5 37.5t42 13.5h170q26 0 37 -12t20 -39l154 -469q8 -25 14.5 -56t10 -53t6.5 -42t3 -21q0 1 3 13.5t6.5 29.5t8.5 37.5t12 43t13 40.5l162 477q8 27 19 39t36 12h156q29 0 43.5 -13.5t5.5 -37.5l-452 -1329q-15 -52 -58 -52h-123q-29 0 -42.5 13.5 t-6.5 38.5l101 333zM391 1198l98 201q23 51 72 51h178q26 0 33 -14.5t-8 -36.5l-148 -217q-25 -35 -65 -35h-133q-49 0 -27 51z" />
<glyph unicode="&#xfe;" d="M121 -360v1740q0 52 51 52h168q27 0 38 -12.5t11 -39.5v-454q144 110 320 110q150 0 224.5 -79t74.5 -220v-454q0 -141 -74.5 -220t-224.5 -79q-172 0 -320 108v-452q0 -28 -10.5 -40t-36.5 -12h-170q-28 0 -39.5 12t-11.5 40zM389 309q122 -94 238 -94q64 0 87 29.5 t23 79.5v372q0 50 -23 79.5t-87 29.5q-116 0 -238 -94v-402z" />
<glyph unicode="&#xff;" horiz-adv-x="970" d="M23 969q-9 24 5 37.5t42 13.5h170q26 0 37 -12t20 -39l154 -469q8 -25 14.5 -56t10 -53t6.5 -42t3 -21q0 1 3 13.5t6.5 29.5t8.5 37.5t12 43t13 40.5l162 477q8 27 19 39t36 12h156q29 0 43.5 -13.5t5.5 -37.5l-452 -1329q-15 -52 -58 -52h-123q-29 0 -42.5 13.5 t-6.5 38.5l101 333zM250 1204v191q0 28 11 39.5t38 11.5h100q26 0 36.5 -11.5t10.5 -39.5v-191q0 -28 -10.5 -39.5t-36.5 -11.5h-100q-27 0 -38 11.5t-11 39.5zM535 1204v191q0 28 11.5 39.5t39.5 11.5h100q26 0 36.5 -11.5t10.5 -39.5v-191q0 -28 -10.5 -39.5t-36.5 -11.5 h-100q-28 0 -39.5 11.5t-11.5 39.5z" />
<glyph unicode="&#x100;" horiz-adv-x="1132" d="M31 51l383 1290q8 27 22 39.5t41 12.5h178q51 0 66 -52l381 -1290q15 -51 -37 -51h-184q-45 0 -60 51l-71 250h-381l-72 -250q-8 -27 -21.5 -39t-39.5 -12h-166q-54 0 -39 51zM279 1587v105q0 26 12 36.5t39 10.5h473q27 0 39 -10.5t12 -36.5v-105q0 -27 -12 -39t-39 -12 h-473q-27 0 -39 12t-12 39zM428 520h260l-67 228q-17 54 -37 191t-23 181q-46 -313 -63 -370z" />
<glyph unicode="&#x101;" horiz-adv-x="1058" d="M94 240v92q0 109 81 183.5t226 74.5h283v131q0 59 -34 87t-120 28t-121.5 -25t-35.5 -82v-14q0 -28 -11.5 -39.5t-37.5 -11.5h-152q-27 0 -38 11.5t-11 39.5v26q0 295 414 295q216 0 313.5 -76t97.5 -219v-688q0 -28 -11.5 -40.5t-37.5 -12.5h-154q-26 0 -36 11.5 t-13 41.5l-4 43q-135 -112 -303 -112q-143 0 -219 73.5t-76 182.5zM240 1221v104q0 27 12.5 38t40.5 11h471q28 0 39.5 -11t11.5 -38v-104q0 -27 -11.5 -38.5t-39.5 -11.5h-471q-53 0 -53 50zM356 276q0 -79 103 -79q107 0 225 88v116h-229q-56 0 -77.5 -24t-21.5 -68v-33z " />
<glyph unicode="&#x102;" horiz-adv-x="1132" d="M31 51l383 1290q8 27 22 39.5t41 12.5h178q51 0 66 -52l381 -1290q15 -51 -37 -51h-184q-45 0 -60 51l-71 250h-381l-72 -250q-8 -27 -21.5 -39t-39.5 -12h-166q-54 0 -39 51zM283 1733v28q0 23 10 32t35 9h102q25 0 35 -9t10 -32v-35q0 -43 20.5 -66.5t71.5 -23.5 t71.5 23.5t20.5 66.5v35q0 23 10.5 32t35.5 9h102q25 0 35 -9t10 -32v-28q0 -122 -75 -188t-216 -66q-139 0 -208.5 65.5t-69.5 188.5zM428 520h260l-67 228q-17 54 -37 191t-23 181q-46 -313 -63 -370z" />
<glyph unicode="&#x103;" horiz-adv-x="1058" d="M94 240v92q0 109 81 183.5t226 74.5h283v131q0 59 -34 87t-120 28t-121.5 -25t-35.5 -82v-14q0 -28 -11.5 -39.5t-37.5 -11.5h-152q-27 0 -38 11.5t-11 39.5v26q0 295 414 295q216 0 313.5 -76t97.5 -219v-688q0 -28 -11.5 -40.5t-37.5 -12.5h-154q-26 0 -36 11.5 t-13 41.5l-4 43q-135 -112 -303 -112q-143 0 -219 73.5t-76 182.5zM274 1374v29q0 23 10 33t35 10h101q25 0 35 -10t10 -33v-35q0 -90 94 -90q51 0 71.5 23.5t20.5 66.5v35q0 23 10 33t35 10h101q25 0 35 -10t10 -33v-29q0 -122 -75 -188t-216 -66q-138 0 -207.5 65.5 t-69.5 188.5zM356 276q0 -79 103 -79q107 0 225 88v116h-229q-56 0 -77.5 -24t-21.5 -68v-33z" />
<glyph unicode="&#x104;" horiz-adv-x="1134" d="M31 51l383 1290q15 52 63 52h180q49 0 64 -52l383 -1290q15 -51 -39 -51h-72q-94 0 -94 -115q0 -32 18 -48.5t60 -16.5h51q28 0 39.5 -11t11.5 -38v-70q0 -51 -67 -51h-113q-26 0 -51.5 4.5t-53.5 16.5t-49 31.5t-35 51.5t-14 74q0 51 25.5 118.5t91.5 129.5l-65 225 h-381l-70 -250q-8 -27 -21.5 -39t-39.5 -12h-168q-52 0 -37 51zM428 520h260l-67 228q-16 57 -36.5 195t-23.5 175q-46 -311 -63 -368z" />
<glyph unicode="&#x105;" horiz-adv-x="1058" d="M94 240v92q0 109 81 183.5t226 74.5h283v131q0 59 -34 87t-120 28t-121.5 -25t-35.5 -82v-14q0 -28 -11.5 -39.5t-37.5 -11.5h-152q-27 0 -38 11.5t-11 39.5v26q0 295 414 295q216 0 313.5 -76t97.5 -219v-688q0 -28 -11.5 -40.5t-37.5 -12.5h-12q-47 -1 -70.5 -33.5 t-23.5 -83.5q0 -63 77 -63h29q27 0 39 -11t12 -38v-70q0 -51 -67 -51h-95q-32 0 -64 8.5t-63.5 27.5t-51 56t-19.5 86q0 125 106 227l-4 41q-135 -112 -303 -112q-143 0 -219 73.5t-76 182.5zM356 276q0 -79 103 -79q107 0 225 88v116h-229q-56 0 -77.5 -24t-21.5 -68v-33z " />
<glyph unicode="&#x106;" horiz-adv-x="1165" d="M121 317v758q0 54 14 101t49 90.5t88.5 74.5t137.5 49.5t192 18.5t192 -18.5t137.5 -49.5t88.5 -74.5t49 -90.5t14 -101v-98q0 -28 -10.5 -39.5t-36.5 -11.5h-170q-28 0 -39.5 11.5t-11.5 39.5v49q0 154 -209 154q-207 0 -207 -154v-659q0 -154 207 -154q209 0 209 154 v77q0 28 11.5 40t39.5 12h170q26 0 36.5 -12t10.5 -40v-127q0 -54 -14 -101t-49 -90.5t-88.5 -74t-137.5 -49t-192 -18.5t-192 18.5t-137.5 49t-88.5 74t-49 90.5t-14 101zM487 1546l101 201q23 51 69 51h179q27 0 34 -14.5t-8 -36.5l-149 -217q-25 -35 -66 -35h-133 q-53 0 -27 51z" />
<glyph unicode="&#x107;" horiz-adv-x="1007" d="M100 287v448q0 143 102 222t320 79q216 0 318 -79t102 -222v-35q0 -27 -11 -38t-38 -11h-158q-28 0 -39.5 11t-11.5 38v15q0 58 -35.5 83t-122.5 25q-86 0 -121.5 -25t-35.5 -83v-408q0 -58 35.5 -84t121.5 -26t122 26t36 84v31q0 28 11.5 39.5t39.5 11.5h158 q26 0 37.5 -11.5t11.5 -39.5v-51q0 -144 -102.5 -223.5t-319.5 -79.5q-420 0 -420 303zM408 1198l98 201q23 51 72 51h178q26 0 32.5 -14.5t-8.5 -36.5l-147 -217q-25 -35 -66 -35h-133q-48 0 -26 51z" />
<glyph unicode="&#x108;" horiz-adv-x="1165" d="M121 317v758q0 54 14 101t49 90.5t88.5 74.5t137.5 49.5t192 18.5t192 -18.5t137.5 -49.5t88.5 -74.5t49 -90.5t14 -101v-98q0 -28 -10.5 -39.5t-36.5 -11.5h-170q-28 0 -39.5 11.5t-11.5 39.5v49q0 154 -209 154q-207 0 -207 -154v-659q0 -154 207 -154q209 0 209 154 v77q0 28 11.5 40t39.5 12h170q26 0 36.5 -12t10.5 -40v-127q0 -54 -14 -101t-49 -90.5t-88.5 -74t-137.5 -49t-192 -18.5t-192 18.5t-137.5 49t-88.5 74t-49 90.5t-14 101zM306 1509.5q-8 14.5 7 36.5l150 201q35 51 80 51h98q40 0 80 -51l149 -201q15 -22 7.5 -36.5 t-33.5 -14.5h-131q-44 0 -70 51l-51 92l-51 -92q-27 -51 -70 -51h-131q-26 0 -34 14.5z" />
<glyph unicode="&#x109;" horiz-adv-x="1007" d="M100 287v448q0 143 102 222t320 79q216 0 318 -79t102 -222v-35q0 -27 -11 -38t-38 -11h-158q-28 0 -39.5 11t-11.5 38v15q0 58 -35.5 83t-122.5 25q-86 0 -121.5 -25t-35.5 -83v-408q0 -58 35.5 -84t121.5 -26t122 26t36 84v31q0 28 11.5 39.5t39.5 11.5h158 q26 0 37.5 -11.5t11.5 -39.5v-51q0 -144 -102.5 -223.5t-319.5 -79.5q-420 0 -420 303zM218 1161.5q-8 14.5 7 36.5l150 201q35 51 80 51h98q40 0 80 -51l149 -201q15 -22 7.5 -36.5t-33.5 -14.5h-131q-44 0 -70 51l-51 92l-51 -92q-27 -51 -70 -51h-131q-26 0 -34 14.5z " />
<glyph unicode="&#x10a;" horiz-adv-x="1165" d="M121 317v758q0 54 14 101t49 90.5t88.5 74.5t137.5 49.5t192 18.5t192 -18.5t137.5 -49.5t88.5 -74.5t49 -90.5t14 -101v-98q0 -28 -10.5 -39.5t-36.5 -11.5h-170q-28 0 -39.5 11.5t-11.5 39.5v49q0 154 -209 154q-207 0 -207 -154v-659q0 -154 207 -154q209 0 209 154 v77q0 28 11.5 40t39.5 12h170q26 0 36.5 -12t10.5 -40v-127q0 -54 -14 -101t-49 -90.5t-88.5 -74t-137.5 -49t-192 -18.5t-192 18.5t-137.5 49t-88.5 74t-49 90.5t-14 101zM446 1550v168q0 27 11.5 39t38.5 12h174q27 0 38 -12t11 -39v-168q0 -28 -10.5 -38.5t-38.5 -10.5 h-174q-28 0 -39 10.5t-11 38.5z" />
<glyph unicode="&#x10b;" horiz-adv-x="1007" d="M100 287v448q0 143 102 222t320 79q216 0 318 -79t102 -222v-35q0 -27 -11 -38t-38 -11h-158q-28 0 -39.5 11t-11.5 38v15q0 58 -35.5 83t-122.5 25q-86 0 -121.5 -25t-35.5 -83v-408q0 -58 35.5 -84t121.5 -26t122 26t36 84v31q0 28 11.5 39.5t39.5 11.5h158 q26 0 37.5 -11.5t11.5 -39.5v-51q0 -144 -102.5 -223.5t-319.5 -79.5q-420 0 -420 303zM367 1221v165q0 28 11 40t38 12h176q26 0 36.5 -12t10.5 -40v-165q0 -28 -10.5 -40t-36.5 -12h-176q-27 0 -38 12t-11 40z" />
<glyph unicode="&#x10c;" horiz-adv-x="1165" d="M121 317v758q0 54 14 101t49 90.5t88.5 74.5t137.5 49.5t192 18.5t192 -18.5t137.5 -49.5t88.5 -74.5t49 -90.5t14 -101v-98q0 -28 -10.5 -39.5t-36.5 -11.5h-170q-28 0 -39.5 11.5t-11.5 39.5v49q0 154 -209 154q-207 0 -207 -154v-659q0 -154 207 -154q209 0 209 154 v77q0 28 11.5 40t39.5 12h170q26 0 36.5 -12t10.5 -40v-127q0 -54 -14 -101t-49 -90.5t-88.5 -74t-137.5 -49t-192 -18.5t-192 18.5t-137.5 49t-88.5 74t-49 90.5t-14 101zM296 1783.5q8 14.5 34 14.5h131q43 0 69 -49l52 -94l51 94q26 49 69 49h132q26 0 33.5 -14.5 t-7.5 -34.5l-149 -203q-40 -51 -80 -51h-99q-17 0 -32.5 8.5t-23.5 17t-23 27.5l-150 201q-15 20 -7 34.5z" />
<glyph unicode="&#x10d;" horiz-adv-x="1007" d="M100 287v448q0 143 102 222t320 79q216 0 318 -79t102 -222v-35q0 -27 -11 -38t-38 -11h-158q-28 0 -39.5 11t-11.5 38v15q0 58 -35.5 83t-122.5 25q-86 0 -121.5 -25t-35.5 -83v-408q0 -58 35.5 -84t121.5 -26t122 26t36 84v31q0 28 11.5 39.5t39.5 11.5h158 q26 0 37.5 -11.5t11.5 -39.5v-51q0 -144 -102.5 -223.5t-319.5 -79.5q-420 0 -420 303zM218 1435.5q8 14.5 34 14.5h131q44 0 70 -49l51 -94l51 94q26 49 70 49h131q26 0 33.5 -14.5t-7.5 -34.5l-149 -203q-40 -51 -80 -51h-98q-17 0 -32.5 8t-24.5 17.5t-23 27.5l-150 201 q-15 20 -7 34.5z" />
<glyph unicode="&#x10e;" horiz-adv-x="1259" d="M143 53v1286q0 28 11.5 41t38.5 13h446q134 0 234 -27.5t156 -75.5t83 -105.5t27 -125.5v-725q0 -68 -27 -125.5t-83 -105.5t-156 -75.5t-234 -27.5h-453q-24 0 -33.5 13t-9.5 40zM339 1783.5q8 14.5 34 14.5h131q43 0 69 -49l52 -94l51 94q26 49 69 49h132 q26 0 33.5 -14.5t-7.5 -34.5l-149 -203q-40 -51 -80 -51h-99q-17 0 -32.5 8.5t-23.5 17t-23 27.5l-150 201q-15 20 -7 34.5zM420 229h219q106 0 164.5 39.5t58.5 114.5v627q0 75 -58.5 114t-164.5 39h-219v-934z" />
<glyph unicode="&#x10f;" horiz-adv-x="1316" d="M100 283v454q0 141 74.5 220t222.5 79q176 0 320 -110v452q0 29 11 41.5t38 12.5h170q49 0 49 -54v-1325q0 -28 -11.5 -40.5t-37.5 -12.5h-158q-27 0 -37.5 12t-13.5 41l-4 45q-144 -114 -326 -114q-148 0 -222.5 79t-74.5 220zM369 326q0 -50 23.5 -79.5t88.5 -29.5 q114 0 236 94v398q-122 94 -236 94q-65 0 -88.5 -29.5t-23.5 -77.5v-370zM1065 1180q4 9 14.5 31t13 29t9.5 24.5t8.5 28t4.5 29t4 38t1 45.5v61q0 28 11.5 40t39.5 12h125q27 0 38.5 -12t11.5 -40v-77q0 -123 -93 -273q-21 -36 -67 -26l-94 22q-51 12 -27 68z" />
<glyph unicode="&#x110;" horiz-adv-x="1259" d="M4 649v105q0 26 12.5 36.5t40.5 10.5h86v538q0 28 11.5 41t38.5 13h446q134 0 234 -27.5t156 -75.5t83 -105.5t27 -125.5v-725q0 -68 -27 -125.5t-83 -105.5t-156 -75.5t-234 -27.5h-453q-24 0 -33.5 13t-9.5 40v545h-86q-28 0 -40.5 12t-12.5 39zM420 229h219 q106 0 164.5 39.5t58.5 114.5v627q0 75 -58.5 114t-164.5 39h-219v-362h184q28 0 39.5 -10.5t11.5 -36.5v-105q0 -28 -11.5 -39.5t-39.5 -11.5h-184v-369z" />
<glyph unicode="&#x111;" d="M100 283v454q0 141 74.5 220t222.5 79q176 0 320 -110v182h-191q-28 0 -39.5 11.5t-11.5 39.5v88q0 26 11.5 36.5t39.5 10.5h191v84q0 29 11 41.5t38 12.5h170q49 0 49 -54v-84h55q28 0 40 -10.5t12 -36.5v-88q0 -28 -12 -39.5t-40 -11.5h-55v-1055q0 -28 -11.5 -40.5 t-37.5 -12.5h-158q-27 0 -37.5 12t-13.5 41l-4 45q-144 -114 -326 -114q-148 0 -222.5 79t-74.5 220zM369 326q0 -50 23.5 -79.5t88.5 -29.5q114 0 236 94v398q-122 94 -236 94q-65 0 -88.5 -29.5t-23.5 -77.5v-370z" />
<glyph unicode="&#x112;" horiz-adv-x="1048" d="M143 53v1286q0 28 11.5 41t38.5 13h700q27 0 39 -11.5t12 -38.5v-129q0 -27 -12 -39t-39 -12h-473v-332h438q28 0 40.5 -11t12.5 -38v-123q0 -26 -12.5 -37.5t-40.5 -11.5h-438v-381h493q28 0 40 -11t12 -38v-129q0 -28 -12 -39.5t-40 -11.5h-720q-27 0 -38.5 12.5 t-11.5 40.5zM240 1587v105q0 26 12 36.5t39 10.5h473q27 0 39 -10.5t12 -36.5v-105q0 -27 -12 -39t-39 -12h-473q-27 0 -39 12t-12 39z" />
<glyph unicode="&#x113;" horiz-adv-x="1024" d="M100 287v448q0 143 102 222t320 79q410 0 410 -301v-237q0 -25 -10.5 -36t-34.5 -11h-525v-152q0 -57 36.5 -85t123.5 -28t123.5 28t36.5 85v10q0 27 12 39t39 12h144q51 0 51 -51v-22q0 -146 -96 -224.5t-312 -78.5q-420 0 -420 303zM223 1221v104q0 27 12.5 38t40.5 11 h472q28 0 39.5 -11t11.5 -38v-104q0 -27 -11.5 -38.5t-39.5 -11.5h-472q-53 0 -53 50zM362 631h320v90q0 113 -160 113q-85 0 -122.5 -28.5t-37.5 -84.5v-90z" />
<glyph unicode="&#x114;" horiz-adv-x="1048" d="M143 53v1286q0 28 11.5 41t38.5 13h700q27 0 39 -11.5t12 -38.5v-129q0 -27 -12 -39t-39 -12h-473v-332h438q28 0 40.5 -11t12.5 -38v-123q0 -26 -12.5 -37.5t-40.5 -11.5h-438v-381h493q28 0 40 -11t12 -38v-129q0 -28 -12 -39.5t-40 -11.5h-720q-27 0 -38.5 12.5 t-11.5 40.5zM240 1733v28q0 23 10 32t35 9h102q25 0 35 -9t10 -32v-35q0 -43 20.5 -66.5t71.5 -23.5t71.5 23.5t20.5 66.5v35q0 23 10.5 32t35.5 9h102q25 0 35 -9t10 -32v-28q0 -122 -75 -188t-216 -66q-139 0 -208.5 65.5t-69.5 188.5z" />
<glyph unicode="&#x115;" horiz-adv-x="1024" d="M100 287v448q0 143 102 222t320 79q410 0 410 -301v-237q0 -25 -10.5 -36t-34.5 -11h-525v-152q0 -57 36.5 -85t123.5 -28t123.5 28t36.5 85v10q0 27 12 39t39 12h144q51 0 51 -51v-22q0 -146 -96 -224.5t-312 -78.5q-420 0 -420 303zM227 1374v29q0 23 10 33t35 10h101 q25 0 35 -10t10 -33v-35q0 -90 94 -90q51 0 71.5 23.5t20.5 66.5v35q0 23 10 33t35 10h101q25 0 35 -10t10 -33v-29q0 -122 -75 -188t-216 -66q-138 0 -207.5 65.5t-69.5 188.5zM362 631h320v90q0 113 -160 113q-85 0 -122.5 -28.5t-37.5 -84.5v-90z" />
<glyph unicode="&#x116;" horiz-adv-x="1048" d="M143 53v1286q0 28 11.5 41t38.5 13h700q27 0 39 -11.5t12 -38.5v-129q0 -27 -12 -39t-39 -12h-473v-332h438q28 0 40.5 -11t12.5 -38v-123q0 -26 -12.5 -37.5t-40.5 -11.5h-438v-381h493q28 0 40 -11t12 -38v-129q0 -28 -12 -39.5t-40 -11.5h-720q-27 0 -38.5 12.5 t-11.5 40.5zM401 1550v168q0 27 11.5 39t38.5 12h174q27 0 38 -12t11 -39v-168q0 -28 -10.5 -38.5t-38.5 -10.5h-174q-28 0 -39 10.5t-11 38.5z" />
<glyph unicode="&#x117;" horiz-adv-x="1024" d="M100 287v448q0 143 102 222t320 79q410 0 410 -301v-237q0 -25 -10.5 -36t-34.5 -11h-525v-152q0 -57 36.5 -85t123.5 -28t123.5 28t36.5 85v10q0 27 12 39t39 12h144q51 0 51 -51v-22q0 -146 -96 -224.5t-312 -78.5q-420 0 -420 303zM362 631h320v90q0 113 -160 113 q-85 0 -122.5 -28.5t-37.5 -84.5v-90z" />
<glyph unicode="&#x118;" horiz-adv-x="1048" d="M143 53v1286q0 28 11.5 41t38.5 13h700q27 0 39 -11.5t12 -38.5v-129q0 -27 -12 -39t-39 -12h-473v-332h438q28 0 40.5 -11t12.5 -38v-123q0 -26 -12.5 -37.5t-40.5 -11.5h-438v-381h493q28 0 40 -11t12 -38v-129q0 -28 -12 -39.5t-40 -11.5h-59q-48 0 -72 -32t-24 -83 q0 -65 80 -65h51q27 0 39 -11t12 -38v-70q0 -51 -68 -51h-114q-26 0 -51.5 4.5t-53.5 16.5t-49 31.5t-35 51.5t-14 74q0 93 51 172h-413q-27 0 -38.5 12.5t-11.5 40.5z" />
<glyph unicode="&#x119;" horiz-adv-x="1021" d="M100 287v448q0 143 102 222t320 79q410 0 410 -301v-237q0 -25 -10.5 -36t-34.5 -11h-525v-152q0 -57 36.5 -85t123.5 -28t123.5 28t36.5 85v10q0 27 12 39t39 12h144q51 0 51 -51v-22q0 -128 -72 -203q-9 -9 -31 -29t-34.5 -34t-27.5 -35.5t-22.5 -47t-7.5 -55.5 q0 -63 78 -63h53q28 0 39.5 -11t11.5 -38v-70q0 -51 -67 -51h-119q-32 0 -63.5 8t-63 26t-51 54t-19.5 86q0 85 43 162q-8 0 -27 -1t-28 -1q-420 0 -420 303zM362 631h320v90q0 113 -160 113q-85 0 -122.5 -28.5t-37.5 -84.5v-90z" />
<glyph unicode="&#x11a;" horiz-adv-x="1048" d="M143 53v1286q0 28 11.5 41t38.5 13h700q27 0 39 -11.5t12 -38.5v-129q0 -27 -12 -39t-39 -12h-473v-332h438q28 0 40.5 -11t12.5 -38v-123q0 -26 -12.5 -37.5t-40.5 -11.5h-438v-381h493q28 0 40 -11t12 -38v-129q0 -28 -12 -39.5t-40 -11.5h-720q-27 0 -38.5 12.5 t-11.5 40.5zM238.5 1783.5q7.5 14.5 33.5 14.5h131q44 0 70 -49l51 -94l51 94q26 49 70 49h131q26 0 34 -14.5t-7 -34.5l-150 -203q-40 -51 -80 -51h-98q-17 0 -32.5 8t-24.5 17.5t-23 27.5l-149 201q-15 20 -7.5 34.5z" />
<glyph unicode="&#x11b;" horiz-adv-x="1024" d="M100 287v448q0 143 102 222t320 79q410 0 410 -301v-237q0 -25 -10.5 -36t-34.5 -11h-525v-152q0 -57 36.5 -85t123.5 -28t123.5 28t36.5 85v10q0 27 12 39t39 12h144q51 0 51 -51v-22q0 -146 -96 -224.5t-312 -78.5q-420 0 -420 303zM224 1435.5q8 14.5 34 14.5h131 q44 0 70 -49l51 -94l51 94q26 49 70 49h131q26 0 33.5 -14.5t-7.5 -34.5l-149 -203q-40 -51 -80 -51h-98q-17 0 -32.5 8t-24.5 17.5t-23 27.5l-150 201q-15 20 -7 34.5zM362 631h320v90q0 113 -160 113q-85 0 -122.5 -28.5t-37.5 -84.5v-90z" />
<glyph unicode="&#x11c;" horiz-adv-x="1189" d="M121 317v758q0 54 14 101t49 90.5t88.5 74.5t137.5 49.5t192 18.5t192 -18.5t137.5 -49.5t88.5 -74.5t49 -90.5t14 -101v-82q0 -27 -10.5 -39t-36.5 -12h-170q-27 0 -39 12t-12 39v33q0 154 -209 154q-207 0 -207 -154v-659q0 -154 207 -154q209 0 209 152v137h-201 q-28 0 -40.5 11t-12.5 38v131q0 27 12.5 38t40.5 11h418q27 0 39 -11t12 -38v-365q0 -54 -14 -101t-49 -90.5t-88.5 -74t-137.5 -49t-192 -18.5t-192 18.5t-137.5 49t-88.5 74t-49 90.5t-14 101zM308 1509.5q-8 14.5 7 36.5l150 201q35 51 80 51h98q40 0 80 -51l149 -201 q15 -22 7.5 -36.5t-33.5 -14.5h-131q-44 0 -70 51l-51 92l-51 -92q-27 -51 -70 -51h-131q-26 0 -34 14.5z" />
<glyph unicode="&#x11d;" d="M100 283v454q0 141 74.5 220t222.5 79q185 0 328 -118l4 51q3 29 12.5 40t36.5 11h158q26 0 37.5 -11.5t11.5 -39.5v-1080q0 -141 -109.5 -221t-328.5 -80h-289q-28 0 -39.5 11t-11.5 39v118q0 28 12 41t39 13h289q87 0 128.5 26.5t41.5 83.5v172q-148 -108 -320 -108 q-148 0 -222.5 79t-74.5 220zM267 1161.5q-8 14.5 7 36.5l150 201q35 51 80 51h98q40 0 80 -51l149 -201q15 -22 7.5 -36.5t-33.5 -14.5h-131q-44 0 -70 51l-51 92l-51 -92q-27 -51 -70 -51h-131q-26 0 -34 14.5zM369 326q0 -50 23.5 -79.5t88.5 -29.5q114 0 236 94v398 q-122 94 -236 94q-65 0 -88.5 -29.5t-23.5 -77.5v-370z" />
<glyph unicode="&#x11e;" horiz-adv-x="1189" d="M121 317v758q0 54 14 101t49 90.5t88.5 74.5t137.5 49.5t192 18.5t192 -18.5t137.5 -49.5t88.5 -74.5t49 -90.5t14 -101v-82q0 -27 -10.5 -39t-36.5 -12h-170q-27 0 -39 12t-12 39v33q0 154 -209 154q-207 0 -207 -154v-659q0 -154 207 -154q209 0 209 152v137h-201 q-28 0 -40.5 11t-12.5 38v131q0 27 12.5 38t40.5 11h418q27 0 39 -11t12 -38v-365q0 -54 -14 -101t-49 -90.5t-88.5 -74t-137.5 -49t-192 -18.5t-192 18.5t-137.5 49t-88.5 74t-49 90.5t-14 101zM309 1733v28q0 23 10 32t35 9h103q25 0 35 -9t10 -32v-35q0 -43 20.5 -66.5 t71.5 -23.5t71.5 23.5t20.5 66.5v35q0 23 10 32t35 9h103q25 0 35 -9t10 -32v-28q0 -122 -75 -188t-216 -66q-139 0 -209 65.5t-70 188.5z" />
<glyph unicode="&#x11f;" d="M100 283v454q0 141 74.5 220t222.5 79q185 0 328 -118l4 51q3 29 12.5 40t36.5 11h158q26 0 37.5 -11.5t11.5 -39.5v-1080q0 -141 -109.5 -221t-328.5 -80h-289q-28 0 -39.5 11t-11.5 39v118q0 28 12 41t39 13h289q87 0 128.5 26.5t41.5 83.5v172q-148 -108 -320 -108 q-148 0 -222.5 79t-74.5 220zM262 1374v29q0 23 10 33t35 10h101q25 0 35 -10t10 -33v-35q0 -90 94 -90q51 0 71.5 23.5t20.5 66.5v35q0 23 10 33t35 10h100q25 0 35 -10t10 -33v-29q0 -122 -75 -188t-215 -66q-138 0 -207.5 65.5t-69.5 188.5zM369 326q0 -50 23.5 -79.5 t88.5 -29.5q114 0 236 94v398q-122 94 -236 94q-65 0 -88.5 -29.5t-23.5 -77.5v-370z" />
<glyph unicode="&#x120;" horiz-adv-x="1189" d="M121 309v758q0 54 14 101t49 90.5t88.5 74.5t137.5 49.5t192 18.5t192 -18.5t137.5 -49.5t88.5 -74.5t49 -90.5t14 -101v-82q0 -27 -10.5 -39t-36.5 -12h-170q-27 0 -39 12t-12 39v33q0 153 -209 153q-207 0 -207 -153v-660q0 -153 207 -153q209 0 209 151v138h-201 q-28 0 -40.5 11t-12.5 38v131q0 27 12.5 38t40.5 11h418q27 0 39 -11t12 -38v-365q0 -54 -14 -101t-49 -90.5t-88.5 -74.5t-137.5 -49.5t-192 -18.5t-192 18.5t-137.5 49.5t-88.5 74.5t-49 90.5t-14 101zM459 1542v168q0 27 11 39t38 12h174q27 0 38 -12t11 -39v-168 q0 -28 -10.5 -38.5t-38.5 -10.5h-174q-28 0 -38.5 10.5t-10.5 38.5z" />
<glyph unicode="&#x121;" d="M100 283v454q0 141 74.5 220t222.5 79q185 0 328 -118l4 51q3 29 12.5 40t36.5 11h158q26 0 37.5 -11.5t11.5 -39.5v-1080q0 -141 -109.5 -221t-328.5 -80h-289q-28 0 -39.5 11t-11.5 39v118q0 28 12 41t39 13h289q87 0 128.5 26.5t41.5 83.5v172q-148 -108 -320 -108 q-148 0 -222.5 79t-74.5 220zM369 326q0 -50 23.5 -79.5t88.5 -29.5q114 0 236 94v398q-122 94 -236 94q-65 0 -88.5 -29.5t-23.5 -77.5v-370zM412 1221v165q0 28 11 40t38 12h176q26 0 36.5 -12t10.5 -40v-165q0 -28 -10.5 -40t-36.5 -12h-176q-27 0 -38 12t-11 40z" />
<glyph unicode="&#x122;" horiz-adv-x="1189" d="M121 317v758q0 54 14 101t49 90.5t88.5 74.5t137.5 49.5t192 18.5t192 -18.5t137.5 -49.5t88.5 -74.5t49 -90.5t14 -101v-82q0 -27 -10.5 -39t-36.5 -12h-170q-27 0 -39 12t-12 39v33q0 154 -209 154q-207 0 -207 -154v-659q0 -154 207 -154q209 0 209 152v137h-201 q-28 0 -40.5 11t-12.5 38v131q0 27 12.5 38t40.5 11h418q27 0 39 -11t12 -38v-365q0 -54 -14 -101t-49 -90.5t-88.5 -74t-137.5 -49t-192 -18.5t-192 18.5t-137.5 49t-88.5 74t-49 90.5t-14 101zM438 -440q4 9 16.5 35.5t15 33.5l10 28t9 35.5t3.5 38.5t2 54v61 q0 28 11.5 40t39.5 12h125q27 0 38 -12t11 -40v-77q0 -125 -92 -273q-21 -36 -68 -26l-94 22q-51 12 -27 68z" />
<glyph unicode="&#x123;" d="M100 283v454q0 141 74.5 220t222.5 79q185 0 328 -118l4 51q3 29 12.5 40t36.5 11h158q26 0 37.5 -11.5t11.5 -39.5v-1080q0 -141 -109.5 -221t-328.5 -80h-289q-28 0 -39.5 11t-11.5 39v118q0 28 12 41t39 13h289q87 0 128.5 26.5t41.5 83.5v172q-148 -108 -320 -108 q-148 0 -222.5 79t-74.5 220zM369 326q0 -50 23.5 -79.5t88.5 -29.5q114 0 236 94v398q-122 94 -236 94q-65 0 -88.5 -29.5t-23.5 -77.5v-370zM403 1214v78q0 123 93 273q21 36 67 26l94 -22q51 -12 27 -68q-4 -9 -14.5 -31t-13 -29t-9.5 -24.5t-8.5 -28t-4.5 -29t-4 -38 t-1 -45.5v-62q0 -28 -11.5 -39.5t-39.5 -11.5h-125q-28 0 -39 11.5t-11 39.5z" />
<glyph unicode="&#x124;" horiz-adv-x="1280" d="M143 53v1286q0 28 11.5 41t38.5 13h178q27 0 38 -12.5t11 -41.5v-510h442v510q0 29 11 41.5t38 12.5h179q27 0 38 -12.5t11 -41.5v-1286q0 -28 -11 -40.5t-38 -12.5h-179q-27 0 -38 12.5t-11 40.5v547h-442v-547q0 -28 -11 -40.5t-38 -12.5h-178q-27 0 -38.5 12.5 t-11.5 40.5zM353 1509.5q-8 14.5 7 36.5l150 201q35 51 80 51h98q40 0 80 -51l150 -201q15 -22 7 -36.5t-34 -14.5h-131q-44 0 -70 51l-51 92l-51 -92q-27 -51 -70 -51h-131q-26 0 -34 14.5z" />
<glyph unicode="&#x125;" horiz-adv-x="1118" d="M-30 1509.5q-8 14.5 7 36.5l150 201q35 51 80 51h98q40 0 80 -51l150 -201q15 -22 7 -36.5t-34 -14.5h-131q-44 0 -70 51l-51 92l-51 -92q-27 -51 -70 -51h-131q-26 0 -34 14.5zM121 53v1325q0 28 12 41t39 13h170q26 0 36.5 -13t10.5 -41v-448q139 106 322 106 q138 0 217.5 -76t79.5 -198v-709q0 -28 -12 -40.5t-40 -12.5h-165q-54 0 -54 53v641q0 58 -23.5 83.5t-86.5 25.5q-118 0 -238 -92v-658q0 -28 -10.5 -40.5t-36.5 -12.5h-170q-27 0 -39 12.5t-12 40.5z" />
<glyph unicode="&#x126;" horiz-adv-x="1280" d="M27 1022v88q0 27 12 38t39 11h65v180q0 28 11.5 41t38.5 13h178q27 0 38 -12.5t11 -41.5v-180h442v180q0 29 11 41.5t38 12.5h179q27 0 38 -12.5t11 -41.5v-180h63q28 0 39.5 -11t11.5 -38v-88q0 -27 -11.5 -38t-39.5 -11h-63v-920q0 -28 -11 -40.5t-38 -12.5h-179 q-27 0 -38 12.5t-11 40.5v547h-442v-547q0 -28 -11 -40.5t-38 -12.5h-178q-27 0 -38.5 12.5t-11.5 40.5v920h-65q-27 0 -39 11t-12 38zM420 829h442v144h-442v-144z" />
<glyph unicode="&#x127;" horiz-adv-x="1118" d="M10 1157v88q0 27 11.5 38t39.5 11h60v84q0 28 12 41t39 13h170q26 0 36.5 -13t10.5 -41v-84h186q28 0 40 -11t12 -38v-88q0 -27 -12 -38t-40 -11h-186v-178q139 106 322 106q138 0 217.5 -76t79.5 -198v-709q0 -28 -12 -40.5t-40 -12.5h-165q-54 0 -54 53v641 q0 58 -23.5 83.5t-86.5 25.5q-118 0 -238 -92v-658q0 -28 -10.5 -40.5t-36.5 -12.5h-170q-27 0 -39 12.5t-12 40.5v1055h-60q-28 0 -39.5 11t-11.5 38z" />
<glyph unicode="&#x128;" horiz-adv-x="561" d="M-68 1563l9 84q7 75 57.5 117t122.5 42q61 0 119 -26l88 -43q6 -3 20.5 -10.5t22 -11t17 -6.5t15.5 -3q19 0 26.5 10.5t12.5 38.5l2 12q4 25 17 35t39 10h88q46 0 43 -59l-6 -80q-6 -78 -53.5 -119t-116.5 -41q-65 0 -131 27l-88 39q-8 4 -22 10.5t-22 10.5t-17.5 7 t-16.5 3q-39 0 -39 -51v-11q0 -26 -13.5 -35.5t-42.5 -9.5h-88q-49 0 -43 60zM143 53v1286q0 28 11.5 41t38.5 13h178q27 0 38 -12.5t11 -41.5v-1286q0 -28 -11 -40.5t-38 -12.5h-178q-27 0 -38.5 12.5t-11.5 40.5z" />
<glyph unicode="&#x129;" horiz-adv-x="512" d="M-92 1196l8 86q7 75 57 116.5t121 41.5q65 0 121 -27l86 -41q8 -4 22 -10.5t22 -10.5t17.5 -7t16.5 -3q39 0 39 50v10q0 45 55 45h88q26 0 35.5 -15t7.5 -45l-6 -79q-6 -78 -53.5 -119t-114.5 -41q-69 0 -131 27l-88 38q-10 4 -29 13.5t-30 13.5t-19 4q-19 0 -26.5 -10.5 t-12.5 -38.5l-2 -12q-4 -26 -16 -35.5t-37 -9.5h-90q-48 0 -41 59zM121 51v918q0 27 12 39t39 12h170q26 0 36.5 -12t10.5 -39v-918q0 -27 -10.5 -39t-36.5 -12h-170q-27 0 -39 12t-12 39z" />
<glyph unicode="&#x12a;" horiz-adv-x="561" d="M-6 1587v105q0 26 12 36.5t39 10.5h473q27 0 39 -10.5t12 -36.5v-105q0 -27 -12 -39t-39 -12h-473q-27 0 -39 12t-12 39zM143 53v1286q0 28 11.5 41t38.5 13h178q27 0 38 -12.5t11 -41.5v-1286q0 -28 -11 -40.5t-38 -12.5h-178q-27 0 -38.5 12.5t-11.5 40.5z" />
<glyph unicode="&#x12b;" horiz-adv-x="512" d="M-33 1221v104q0 27 12.5 38t40.5 11h472q28 0 39.5 -11t11.5 -38v-104q0 -27 -11.5 -38.5t-39.5 -11.5h-472q-53 0 -53 50zM121 51v918q0 27 12 39t39 12h170q26 0 36.5 -12t10.5 -39v-918q0 -27 -10.5 -39t-36.5 -12h-170q-27 0 -39 12t-12 39z" />
<glyph unicode="&#x12c;" horiz-adv-x="561" d="M-4 1733v28q0 23 10 32t35 9h102q25 0 35 -9t10 -32v-35q0 -43 21 -66.5t72 -23.5t71.5 23.5t20.5 66.5v35q0 23 10 32t35 9h102q25 0 35 -9t10 -32v-28q0 -122 -75 -188t-216 -66q-139 0 -208.5 65.5t-69.5 188.5zM143 53v1286q0 28 11.5 41t38.5 13h178q27 0 38 -12.5 t11 -41.5v-1286q0 -28 -11 -40.5t-38 -12.5h-178q-27 0 -38.5 12.5t-11.5 40.5z" />
<glyph unicode="&#x12d;" horiz-adv-x="512" d="M-29 1374v29q0 23 10 33t35 10h101q25 0 35 -10t10 -33v-35q0 -90 94 -90q51 0 71.5 23.5t20.5 66.5v35q0 23 10 33t35 10h101q25 0 35 -10t10 -33v-29q0 -122 -75 -188t-216 -66q-138 0 -207.5 65.5t-69.5 188.5zM121 51v918q0 27 12 39t39 12h170q26 0 36.5 -12 t10.5 -39v-918q0 -27 -10.5 -39t-36.5 -12h-170q-27 0 -39 12t-12 39z" />
<glyph unicode="&#x12e;" horiz-adv-x="561" d="M25 -172q0 142 118 244v1267q0 28 11.5 41t38.5 13h178q27 0 38 -12.5t11 -41.5v-1286q0 -28 -11 -40.5t-38 -12.5h-56q-43 0 -65.5 -33t-22.5 -82q0 -32 18 -48.5t60 -16.5h51q28 0 40 -11t12 -38v-70q0 -51 -68 -51h-113q-33 0 -65 8t-64.5 26t-52.5 55.5t-20 88.5z " />
<glyph unicode="&#x12f;" horiz-adv-x="512" d="M2 -172q0 32 7 65.5t35.5 85.5t76.5 93v897q0 28 11.5 39.5t39.5 11.5h170q26 0 36.5 -11.5t10.5 -39.5v-916q0 -28 -10.5 -40.5t-36.5 -12.5h-43q-48 -1 -71 -32.5t-23 -82.5q0 -65 80 -65h51q27 0 39 -11t12 -38v-70q0 -26 -19.5 -38.5t-48.5 -12.5h-114 q-26 0 -51.5 4.5t-53.5 16.5t-49 31.5t-35 51.5t-14 74zM121 1202v176q0 28 12 41t39 13h170q26 0 36.5 -13t10.5 -41v-176q0 -27 -10.5 -38t-36.5 -11h-170q-28 0 -39.5 11.5t-11.5 37.5z" />
<glyph unicode="&#x130;" horiz-adv-x="561" d="M143 53v1286q0 28 11.5 41t38.5 13h178q27 0 38 -12.5t11 -41.5v-1286q0 -28 -11 -40.5t-38 -12.5h-178q-27 0 -38.5 12.5t-11.5 40.5zM145 1550v168q0 27 11.5 39t38.5 12h174q27 0 38 -12t11 -39v-168q0 -28 -10.5 -38.5t-38.5 -10.5h-174q-28 0 -39 10.5t-11 38.5z " />
<glyph unicode="&#x131;" horiz-adv-x="512" d="M121 51v918q0 27 12 39t39 12h170q26 0 36.5 -12t10.5 -39v-918q0 -27 -10.5 -39t-36.5 -12h-170q-27 0 -39 12t-12 39z" />
<glyph unicode="&#x132;" horiz-adv-x="1615" d="M143 53v1286q0 28 11.5 41t38.5 13h178q27 0 38 -12.5t11 -41.5v-1286q0 -28 -11 -40.5t-38 -12.5h-178q-27 0 -38.5 12.5t-11.5 40.5zM594 317v123q0 28 11.5 40t39.5 12h172q27 0 38 -12t11 -40v-73q0 -154 176 -154q88 0 126 37.5t38 116.5v972q0 54 49 54h179 q27 0 38 -12.5t11 -41.5v-1022q0 -69 -21 -125.5t-69 -105t-137 -75.5t-214 -27q-100 0 -178.5 18.5t-128.5 49t-82.5 74t-45.5 90.5t-13 101z" />
<glyph unicode="&#x133;" horiz-adv-x="1021" d="M121 53v916q0 28 11.5 39.5t39.5 11.5h170q26 0 36.5 -11.5t10.5 -39.5v-916q0 -28 -10.5 -40.5t-36.5 -12.5h-170q-27 0 -39 12.5t-12 40.5zM121 1202v176q0 28 12 41t39 13h170q26 0 36.5 -13t10.5 -41v-176q0 -27 -10.5 -38t-36.5 -11h-170q-28 0 -39.5 11.5 t-11.5 37.5zM391 -244q0 28 12 41t39 13h19q87 0 128.5 26.5t41.5 83.5v1049q0 28 11 39.5t38 11.5h170q26 0 37.5 -11.5t11.5 -39.5v-1080q0 -141 -109.5 -221t-328.5 -80h-19q-28 0 -39.5 11t-11.5 39v118zM631 1202v176q0 54 49 54h172q26 0 36.5 -13t10.5 -41v-176 q0 -27 -10.5 -38t-36.5 -11h-172q-26 0 -37.5 11.5t-11.5 37.5z" />
<glyph unicode="&#x134;" horiz-adv-x="1054" d="M33 317v123q0 28 11.5 40t39.5 12h172q27 0 38 -12t11 -40v-73q0 -154 176 -154q88 0 126 37.5t38 116.5v972q0 54 49 54h178q27 0 38.5 -13t11.5 -41v-1022q0 -69 -21 -125.5t-69 -105t-137 -75.5t-214 -27q-100 0 -178.5 18.5t-128.5 49t-82.5 74t-45.5 90.5t-13 101z M486.5 1509.5q-7.5 14.5 7.5 36.5l149 201q35 51 80 51h98q40 0 80 -51l150 -201q15 -22 7 -36.5t-34 -14.5h-131q-44 0 -70 51l-51 92l-51 -92q-27 -51 -70 -51h-131q-26 0 -33.5 14.5z" />
<glyph unicode="&#x135;" horiz-adv-x="512" d="M-119 -246q0 28 12 40.5t39 12.5h19q170 0 170 111v1051q0 27 11 39t38 12h170q27 0 38 -12t11 -39v-1080q0 -141 -109.5 -221t-328.5 -80h-19q-28 0 -39.5 11t-11.5 39v116zM-30 1161.5q-8 14.5 7 36.5l150 201q35 51 80 51h98q40 0 80 -51l150 -201q15 -22 7 -36.5 t-34 -14.5h-131q-44 0 -70 51l-51 92l-51 -92q-27 -51 -70 -51h-131q-26 0 -34 14.5z" />
<glyph unicode="&#x136;" horiz-adv-x="1196" d="M143 51v1290q0 27 11.5 39.5t38.5 12.5h178q27 0 38 -12.5t11 -39.5v-550h33l364 550q32 52 82 52h191q27 0 33 -16t-9 -36l-428 -632l481 -658q15 -19 8 -35t-34 -16h-228q-16 0 -30.5 8.5t-22.5 17.5t-20 25l-385 537h-35v-537q0 -27 -11 -39t-38 -12h-178 q-27 0 -38.5 12t-11.5 39zM430 -440q4 9 14.5 31t13 29t9.5 24.5t8.5 28t4.5 29t4 38t1 45.5v61q0 28 12 40t40 12h125q27 0 38 -12t11 -40v-77q0 -123 -93 -273q-21 -36 -67 -26l-94 22q-51 12 -27 68z" />
<glyph unicode="&#x137;" horiz-adv-x="1013" d="M121 51v1329q0 52 51 52h170q26 0 36.5 -12.5t10.5 -39.5v-708h45l254 297q15 17 24 25.5t25.5 17t32.5 8.5h184q26 0 33 -16t-8 -35l-332 -389l359 -529q13 -19 6.5 -35t-31.5 -16h-186q-40 0 -74 51l-287 418h-45v-418q0 -27 -10.5 -39t-36.5 -12h-170q-27 0 -39 12 t-12 39zM365 -440q4 9 14.5 31t13 29t9.5 24.5t8.5 28t4.5 29t4 38t1 45.5v61q0 28 11.5 40t39.5 12h125q27 0 38 -12t11 -40v-77q0 -125 -92 -273q-21 -36 -68 -26l-94 22q-50 11 -26 68z" />
<glyph unicode="&#x138;" horiz-adv-x="1013" d="M121 51v918q0 27 12 39t39 12h170q26 0 36.5 -12t10.5 -39v-299h45l254 299q14 17 23.5 26t25.5 17t33 8h184q26 0 33 -16t-8 -35l-332 -391l359 -527q13 -19 6.5 -35t-31.5 -16h-186q-40 0 -74 51l-287 416h-45v-416q0 -27 -10.5 -39t-36.5 -12h-170q-27 0 -39 12 t-12 39z" />
<glyph unicode="&#x139;" horiz-adv-x="976" d="M143 53v1286q0 28 11.5 41t38.5 13h178q27 0 38 -12.5t11 -41.5v-1110h457q27 0 39 -11t12 -38v-129q0 -27 -12 -39t-39 -12h-691q-43 0 -43 53zM176 1546l100 201q23 51 70 51h178q27 0 34.5 -14.5t-7.5 -36.5l-150 -217q-25 -35 -65 -35h-133q-53 0 -27 51z" />
<glyph unicode="&#x13a;" horiz-adv-x="512" d="M121 53v1325q0 28 12 41t39 13h170q26 0 36.5 -13t10.5 -41v-1325q0 -28 -10.5 -40.5t-36.5 -12.5h-170q-27 0 -39 12.5t-12 40.5zM156 1546l100 201q23 51 70 51h178q27 0 34 -14.5t-8 -36.5l-149 -217q-25 -35 -66 -35h-133q-52 0 -26 51z" />
<glyph unicode="&#x13b;" horiz-adv-x="976" d="M143 53v1286q0 28 11.5 41t38.5 13h178q27 0 38 -12.5t11 -41.5v-1110h457q27 0 39 -11t12 -38v-129q0 -27 -12 -39t-39 -12h-691q-43 0 -43 53zM336 -440q4 9 14.5 31t13 29t9.5 24.5t8.5 28t4.5 29t4 38t1 45.5v61q0 28 11.5 40t39.5 12h125q27 0 38 -12t11 -40v-77 q0 -125 -92 -273q-21 -36 -67 -26l-95 22q-50 11 -26 68z" />
<glyph unicode="&#x13c;" horiz-adv-x="512" d="M88 -442q4 9 14.5 31t13 29t9.5 24.5t8.5 28t4.5 29t4 38t1 45.5v61q0 28 12 40t40 12h124q27 0 38.5 -12t11.5 -40v-77q0 -123 -93 -273q-21 -36 -67 -26l-94 22q-51 12 -27 68zM121 53v1325q0 28 12 41t39 13h170q26 0 36.5 -13t10.5 -41v-1325q0 -28 -10.5 -40.5 t-36.5 -12.5h-170q-27 0 -39 12.5t-12 40.5z" />
<glyph unicode="&#x13d;" horiz-adv-x="976" d="M143 53v1286q0 28 11.5 41t38.5 13h178q27 0 38 -12.5t11 -41.5v-1110h457q27 0 39 -11t12 -38v-129q0 -27 -12 -39t-39 -12h-691q-43 0 -43 53zM600 1174q4 9 14.5 31t13 29t9.5 24.5t8.5 28t4.5 29t4 38t1 45.5v61q0 28 12 39.5t40 11.5h124q28 0 39 -11.5t11 -39.5 v-78q0 -122 -93 -272q-22 -37 -67 -27l-94 23q-51 12 -27 68z" />
<glyph unicode="&#x13e;" horiz-adv-x="722" d="M121 53v1325q0 28 12 41t39 13h170q26 0 36.5 -13t10.5 -41v-1325q0 -28 -10.5 -40.5t-36.5 -12.5h-170q-27 0 -39 12.5t-12 40.5zM471 1180q4 9 14.5 31t13 29t9.5 24.5t8.5 28t4.5 29t4 38t1 45.5v61q0 28 12 40t40 12h124q27 0 38.5 -12t11.5 -40v-77q0 -123 -93 -273 q-21 -36 -67 -26l-94 22q-51 12 -27 68z" />
<glyph unicode="&#x13f;" horiz-adv-x="976" d="M143 53v1286q0 28 11.5 41t38.5 13h178q27 0 38 -12.5t11 -41.5v-1110h457q27 0 39 -11t12 -38v-129q0 -27 -12 -39t-39 -12h-691q-43 0 -43 53zM621 639v166q0 28 11.5 39.5t39.5 11.5h174q27 0 38 -11.5t11 -39.5v-166q0 -28 -11 -39.5t-38 -11.5h-174 q-28 0 -39.5 11.5t-11.5 39.5z" />
<glyph unicode="&#x140;" horiz-adv-x="782" d="M121 53v1325q0 28 12 41t39 13h170q26 0 36.5 -13t10.5 -41v-1325q0 -28 -10.5 -40.5t-36.5 -12.5h-170q-27 0 -39 12.5t-12 40.5zM498 639v166q0 28 11.5 39.5t39.5 11.5h174q27 0 38 -11.5t11 -39.5v-166q0 -28 -11 -39.5t-38 -11.5h-174q-28 0 -39.5 11.5t-11.5 39.5z " />
<glyph unicode="&#x141;" horiz-adv-x="976" d="M-2 623q-17 46 29 63l116 47v606q0 28 11.5 41t38.5 13h178q27 0 38 -12.5t11 -41.5v-493l82 33q48 20 67 -29l25 -57q18 -44 -29 -64l-145 -59v-441h457q27 0 39 -11t12 -38v-129q0 -27 -12 -39t-39 -12h-691q-43 0 -43 53v506l-55 -22q-25 -10 -40 -4t-25 30z" />
<glyph unicode="&#x142;" horiz-adv-x="573" d="M-12 623q-17 46 28 63l134 53v639q0 28 12 41t39 13h170q26 0 36.5 -13t10.5 -41v-530l76 31q46 17 65 -29l27 -57q19 -43 -31 -64l-137 -55v-621q0 -28 -10.5 -40.5t-36.5 -12.5h-170q-27 0 -39 12.5t-12 40.5v512l-72 -28q-47 -18 -66 26z" />
<glyph unicode="&#x143;" horiz-adv-x="1280" d="M143 51v1290q0 27 11.5 39.5t38.5 12.5h161q31 0 43 -21l412 -706q11 -20 24 -45.5t22 -45t16 -36t8 -17.5v819q0 27 11 39.5t38 12.5h162q27 0 38 -12.5t11 -39.5v-1290q0 -27 -11 -39t-38 -12h-162q-33 0 -47 25l-396 677q-69 114 -82 164v-815q0 -27 -11 -39t-38 -12 h-161q-27 0 -38.5 12t-11.5 39zM543 1546l100 201q23 51 70 51h178q27 0 34.5 -14.5t-7.5 -36.5l-150 -217q-25 -35 -66 -35h-133q-52 0 -26 51z" />
<glyph unicode="&#x144;" horiz-adv-x="1118" d="M121 53v918q0 26 11.5 37.5t39.5 11.5h158q27 0 37 -11t12 -38l4 -49q138 114 328 114q138 0 217.5 -76t79.5 -198v-709q0 -28 -12 -40.5t-40 -12.5h-165q-54 0 -54 53v641q0 58 -23.5 83.5t-86.5 25.5q-118 0 -238 -92v-658q0 -28 -10.5 -40.5t-36.5 -12.5h-170 q-27 0 -39 12.5t-12 40.5zM457 1198l98 201q23 51 72 51h178q26 0 32.5 -14.5t-8.5 -36.5l-147 -217q-25 -35 -66 -35h-133q-48 0 -26 51z" />
<glyph unicode="&#x145;" horiz-adv-x="1280" d="M143 51v1290q0 27 11.5 39.5t38.5 12.5h161q31 0 43 -21l412 -706q11 -20 24 -45.5t22 -45t16 -36t8 -17.5v819q0 27 11 39.5t38 12.5h162q27 0 38 -12.5t11 -39.5v-1290q0 -27 -11 -39t-38 -12h-162q-33 0 -47 25l-396 677q-69 114 -82 164v-815q0 -27 -11 -39t-38 -12 h-161q-27 0 -38.5 12t-11.5 39zM487 -442q4 9 16.5 35.5t15 33.5l10 28t9 35.5t3.5 38.5t2 54v61q0 28 11.5 40t39.5 12h125q27 0 38 -12t11 -40v-77q0 -125 -92 -273q-21 -36 -68 -26l-94 22q-51 12 -27 68z" />
<glyph unicode="&#x146;" horiz-adv-x="1118" d="M121 53v918q0 26 11.5 37.5t39.5 11.5h158q27 0 37 -11t12 -38l4 -49q138 114 328 114q138 0 217.5 -76t79.5 -198v-709q0 -28 -12 -40.5t-40 -12.5h-165q-54 0 -54 53v641q0 58 -23.5 83.5t-86.5 25.5q-118 0 -238 -92v-658q0 -28 -10.5 -40.5t-36.5 -12.5h-170 q-27 0 -39 12.5t-12 40.5zM395 -440q4 9 16.5 35.5t15 33.5l10 28t9 35.5t3.5 38.5t2 54v61q0 28 11.5 40t39.5 12h125q27 0 38 -12t11 -40v-77q0 -125 -92 -273q-21 -36 -68 -26l-94 22q-51 12 -27 68z" />
<glyph unicode="&#x147;" horiz-adv-x="1280" d="M143 51v1290q0 27 11.5 39.5t38.5 12.5h161q31 0 43 -21l412 -706q16 -26 33.5 -62t27.5 -59l9 -23v819q0 27 11 39.5t38 12.5h162q27 0 38 -12.5t11 -39.5v-1290q0 -27 -11 -39t-38 -12h-162q-33 0 -47 25l-396 677q-69 114 -82 164v-815q0 -27 -11 -39t-38 -12h-161 q-27 0 -38.5 12t-11.5 39zM353 1783.5q8 14.5 34 14.5h131q44 0 70 -49l51 -94l51 94q26 49 70 49h131q26 0 34 -14.5t-7 -34.5l-150 -203q-40 -51 -80 -51h-98q-17 0 -32.5 8t-24.5 17.5t-23 27.5l-150 201q-15 20 -7 34.5z" />
<glyph unicode="&#x148;" horiz-adv-x="1118" d="M121 53v918q0 26 11.5 37.5t39.5 11.5h158q27 0 37 -11t12 -38l4 -49q138 114 328 114q138 0 217.5 -76t79.5 -198v-709q0 -28 -12 -40.5t-40 -12.5h-165q-54 0 -54 53v641q0 58 -23.5 83.5t-86.5 25.5q-118 0 -238 -92v-658q0 -28 -10.5 -40.5t-36.5 -12.5h-170 q-27 0 -39 12.5t-12 40.5zM271.5 1435.5q7.5 14.5 33.5 14.5h131q44 0 70 -49l51 -94l51 94q26 49 70 49h131q26 0 34 -14.5t-7 -34.5l-150 -203q-40 -51 -80 -51h-98q-17 0 -32.5 8t-24.5 17.5t-23 27.5l-149 201q-15 20 -7.5 34.5z" />
<glyph unicode="&#x149;" horiz-adv-x="1118" d="M51 1180q4 9 14.5 31t13 29t9.5 24.5t8.5 28t4.5 29t4 38t1 45.5v61q0 28 12 40t40 12h125q27 0 38 -12t11 -40v-77q0 -125 -92 -273q-21 -36 -68 -26l-94 22q-51 12 -27 68zM121 53v918q0 26 11.5 37.5t39.5 11.5h158q27 0 37 -11t12 -38l4 -49q138 114 328 114 q138 0 217.5 -76t79.5 -198v-709q0 -28 -12 -40.5t-40 -12.5h-165q-54 0 -54 53v641q0 58 -23.5 83.5t-86.5 25.5q-118 0 -238 -92v-658q0 -28 -10.5 -40.5t-36.5 -12.5h-170q-27 0 -39 12.5t-12 40.5z" />
<glyph unicode="&#x14a;" horiz-adv-x="1280" d="M143 51v1290q0 27 11.5 39.5t38.5 12.5h161q31 0 43 -21l412 -706q16 -26 33.5 -62t27.5 -59l9 -23v819q0 27 11 39.5t38 12.5h162q27 0 38 -12.5t11 -39.5v-1452q0 -142 -106.5 -221.5t-325.5 -79.5h-19q-28 0 -39.5 11t-11.5 39v116q0 28 12 40.5t39 12.5h19 q88 0 130 27t42 84v111l-394 673q-25 41 -45 81t-27.5 59.5t-9.5 25.5v-817q0 -27 -11 -39t-38 -12h-161q-27 0 -38.5 12t-11.5 39z" />
<glyph unicode="&#x14b;" horiz-adv-x="1118" d="M121 51v920q0 26 11.5 37.5t39.5 11.5h158q26 0 36.5 -11t12.5 -38l4 -49q138 114 328 114q138 0 217.5 -76t79.5 -198v-873q0 -141 -110.5 -221t-330.5 -80h-18q-28 0 -39.5 11t-11.5 39v116q0 28 12 40.5t39 12.5h18q88 0 129 27t41 84v778q0 57 -24 83t-86 26 q-118 0 -238 -92v-662q0 -27 -10.5 -39t-36.5 -12h-170q-27 0 -39 12t-12 39z" />
<glyph unicode="&#x14c;" horiz-adv-x="1239" d="M121 317v758q0 68 26.5 125.5t82 105.5t155 75.5t233.5 27.5t233.5 -27.5t155.5 -75.5t82.5 -105.5t26.5 -125.5v-758q0 -68 -26.5 -125.5t-82.5 -105t-155.5 -75t-233.5 -27.5t-233.5 27.5t-155 75t-82 105t-26.5 125.5zM332 1587v105q0 26 12 36.5t39 10.5h473 q27 0 39 -10.5t12 -36.5v-105q0 -27 -12 -39t-39 -12h-473q-27 0 -39 12t-12 39zM399 367q0 -75 57.5 -114.5t161.5 -39.5q105 0 163.5 39.5t58.5 114.5v659q0 75 -58.5 114.5t-163.5 39.5q-104 0 -161.5 -39.5t-57.5 -114.5v-659z" />
<glyph unicode="&#x14d;" horiz-adv-x="1085" d="M100 287v448q0 141 111.5 221t331.5 80t331 -80t111 -221v-448q0 -142 -111 -222.5t-331 -80.5t-331.5 80.5t-111.5 222.5zM254 1221v104q0 27 12.5 38t40.5 11h471q28 0 39.5 -11t11.5 -38v-104q0 -27 -11.5 -38.5t-39.5 -11.5h-471q-53 0 -53 50zM369 309 q0 -112 174 -112t174 112v404q0 110 -174 110t-174 -110v-404z" />
<glyph unicode="&#x14e;" horiz-adv-x="1239" d="M121 317v758q0 68 26.5 125.5t82 105.5t155 75.5t233.5 27.5t233.5 -27.5t155.5 -75.5t82.5 -105.5t26.5 -125.5v-758q0 -68 -26.5 -125.5t-82.5 -105t-155.5 -75t-233.5 -27.5t-233.5 27.5t-155 75t-82 105t-26.5 125.5zM334 1733v28q0 23 10 32t35 9h102q25 0 35 -9 t10 -32v-35q0 -43 20.5 -66.5t71.5 -23.5t72 23.5t21 66.5v35q0 23 10 32t35 9h102q25 0 35 -9t10 -32v-28q0 -122 -75 -188t-216 -66q-139 0 -208.5 65.5t-69.5 188.5zM399 367q0 -75 57.5 -114.5t161.5 -39.5q105 0 163.5 39.5t58.5 114.5v659q0 75 -58.5 114.5 t-163.5 39.5q-104 0 -161.5 -39.5t-57.5 -114.5v-659z" />
<glyph unicode="&#x14f;" horiz-adv-x="1085" d="M100 287v448q0 141 111.5 221t331.5 80t331 -80t111 -221v-448q0 -142 -111 -222.5t-331 -80.5t-331.5 80.5t-111.5 222.5zM256 1374v29q0 23 10 33t35 10h100q25 0 35 -10t10 -33v-35q0 -90 95 -90q51 0 71.5 23.5t20.5 66.5v35q0 23 10 33t35 10h100q25 0 35 -10 t10 -33v-29q0 -122 -75 -188t-216 -66q-138 0 -207 65.5t-69 188.5zM369 309q0 -112 174 -112t174 112v404q0 110 -174 110t-174 -110v-404z" />
<glyph unicode="&#x150;" horiz-adv-x="1239" d="M121 317v758q0 68 26.5 125.5t82 105.5t155 75.5t233.5 27.5t233.5 -27.5t155.5 -75.5t82.5 -105.5t26.5 -125.5v-758q0 -68 -26.5 -125.5t-82.5 -105t-155.5 -75t-233.5 -27.5t-233.5 27.5t-155 75t-82 105t-26.5 125.5zM341.5 1509q-9.5 14 0.5 37l86 201q22 51 70 51 h149q28 0 37.5 -14.5t-2.5 -36.5l-113 -201q-14 -27 -27.5 -39t-39.5 -12h-125q-26 0 -35.5 14zM399 367q0 -75 57.5 -114.5t161.5 -39.5q105 0 163.5 39.5t58.5 114.5v659q0 75 -58.5 114.5t-163.5 39.5q-104 0 -161.5 -39.5t-57.5 -114.5v-659zM634.5 1509q-7.5 14 6.5 37 l117 201q28 51 78 51h149q27 0 33.5 -14.5t-8.5 -36.5l-142 -203q-31 -49 -75 -49h-125q-26 0 -33.5 14z" />
<glyph unicode="&#x151;" horiz-adv-x="1085" d="M100 287v448q0 141 111.5 221t331.5 80t331 -80t111 -221v-448q0 -142 -111 -222.5t-331 -80.5t-331.5 80.5t-111.5 222.5zM289 1161q-9 14 0 37l86 201q22 51 69 51h150q27 0 36.5 -15.5t-1.5 -35.5l-113 -201q-14 -27 -27.5 -39t-39.5 -12h-125q-26 0 -35 14zM369 309 q0 -112 174 -112t174 112v404q0 110 -174 110t-174 -110v-404zM581 1161q-7 14 7 37l117 201q28 51 77 51h150q27 0 33.5 -15.5t-7.5 -35.5l-143 -203q-34 -49 -76 -49h-125q-26 0 -33 14z" />
<glyph unicode="&#x152;" horiz-adv-x="1744" d="M121 317v758q0 68 26.5 125.5t82 105.5t155 75.5t233.5 27.5q122 0 224 -45q10 29 49 29h698q28 0 40.5 -11.5t12.5 -38.5v-129q0 -26 -12.5 -37.5t-40.5 -11.5h-473v-334h440q27 0 39.5 -11t12.5 -38v-120q0 -27 -12.5 -38.5t-39.5 -11.5h-440v-385h496q28 0 39.5 -11 t11.5 -38v-129q0 -26 -11.5 -37.5t-39.5 -11.5h-723q-41 0 -47 29q-95 -45 -224 -45q-134 0 -233.5 27.5t-155 75t-82 105t-26.5 125.5zM397 365q0 -75 58 -114.5t163 -39.5q102 0 160.5 37t61.5 108v672q0 75 -58.5 114.5t-163.5 39.5t-163 -39.5t-58 -114.5v-663z" />
<glyph unicode="&#x153;" horiz-adv-x="1640" d="M100 285v450q0 141 111.5 221t331.5 80q197 0 291 -69q104 69 305 69q411 0 411 -301v-233q0 -25 -11 -36t-36 -11h-524v-160q0 -56 37.5 -84.5t122.5 -28.5t122 28.5t37 84.5v14q0 26 12 37.5t40 11.5h141q28 0 39.5 -11.5t11.5 -37.5v-24q0 -145 -94.5 -223t-308.5 -78 q-199 0 -305 67q-95 -67 -291 -67q-220 0 -331.5 80t-111.5 221zM369 307q0 -112 174 -112t174 112v406q0 112 -174 112t-174 -112v-406zM979 633h319v90q0 56 -37 85.5t-122 29.5q-160 0 -160 -115v-90z" />
<glyph unicode="&#x154;" horiz-adv-x="1228" d="M143 53v1286q0 28 11.5 41t38.5 13h430q134 0 233 -27.5t154.5 -75.5t81.5 -105.5t26 -125.5v-195q0 -98 -54 -175.5t-171 -119.5l221 -516q10 -24 -4 -38.5t-43 -14.5h-180q-14 0 -23.5 7.5t-14 16t-13.5 29.5l-201 477h-215v-477q0 -28 -11 -40.5t-38 -12.5h-178 q-27 0 -38.5 12.5t-11.5 40.5zM420 760h203q105 0 163 39t58 114v97q0 75 -58 114t-163 39h-203v-403zM434 1546l101 201q23 51 69 51h178q27 0 34.5 -14.5t-7.5 -36.5l-150 -217q-25 -35 -65 -35h-133q-53 0 -27 51z" />
<glyph unicode="&#x155;" horiz-adv-x="759" d="M121 53v918q0 26 11.5 37.5t39.5 11.5h158q27 0 37 -11t12 -38l6 -72q127 137 299 137q28 0 40.5 -11.5t12.5 -37.5v-131q0 -27 -12.5 -39t-40.5 -14q-175 -12 -295 -121v-629q0 -28 -10.5 -40.5t-36.5 -12.5h-170q-27 0 -39 12.5t-12 40.5zM236 1198l98 201q23 51 72 51 h178q26 0 32.5 -14.5t-8.5 -36.5l-147 -217q-25 -35 -66 -35h-133q-48 0 -26 51z" />
<glyph unicode="&#x156;" horiz-adv-x="1228" d="M143 53v1286q0 28 11.5 41t38.5 13h430q134 0 233 -27.5t154.5 -75.5t81.5 -105.5t26 -125.5v-195q0 -98 -54 -175.5t-171 -119.5l221 -516q10 -24 -4 -38.5t-43 -14.5h-180q-14 0 -23.5 7.5t-14 16t-13.5 29.5l-201 477h-215v-477q0 -28 -11 -40.5t-38 -12.5h-178 q-27 0 -38.5 12.5t-11.5 40.5zM420 760h203q105 0 163 39t58 114v97q0 75 -58 114t-163 39h-203v-403zM446 -440q4 9 16.5 35.5t15 33.5l10 28t9 35.5t3.5 38.5t2 54v61q0 28 11.5 40t39.5 12h125q27 0 38 -12t11 -40v-77q0 -125 -92 -273q-21 -36 -68 -26l-94 22 q-51 12 -27 68z" />
<glyph unicode="&#x157;" horiz-adv-x="759" d="M90 -440q4 9 14.5 31t13 29t9.5 24.5t8.5 28t4.5 29t4 38t1 45.5v61q0 28 12 40t40 12h125q27 0 38 -12t11 -40v-77q0 -125 -92 -273q-21 -36 -68 -26l-94 22q-51 12 -27 68zM121 53v918q0 26 11.5 37.5t39.5 11.5h158q27 0 37 -11t12 -38l6 -72q127 137 299 137 q28 0 40.5 -11.5t12.5 -37.5v-131q0 -27 -12.5 -39t-40.5 -14q-175 -12 -295 -121v-629q0 -28 -10.5 -40.5t-36.5 -12.5h-170q-27 0 -39 12.5t-12 40.5z" />
<glyph unicode="&#x158;" horiz-adv-x="1228" d="M143 53v1286q0 28 11.5 41t38.5 13h430q134 0 233 -27.5t154.5 -75.5t81.5 -105.5t26 -125.5v-195q0 -98 -54 -175.5t-171 -119.5l221 -516q10 -24 -4 -38.5t-43 -14.5h-180q-14 0 -23.5 7.5t-14 16t-13.5 29.5l-201 477h-215v-477q0 -28 -11 -40.5t-38 -12.5h-178 q-27 0 -38.5 12.5t-11.5 40.5zM308 1783.5q8 14.5 34 14.5h131q44 0 70 -49l51 -94l51 94q26 49 70 49h131q26 0 33.5 -14.5t-7.5 -34.5l-149 -203q-40 -51 -80 -51h-98q-17 0 -32.5 8t-24.5 17.5t-23 27.5l-150 201q-15 20 -7 34.5zM420 760h203q105 0 163 39t58 114v97 q0 75 -58 114t-163 39h-203v-403z" />
<glyph unicode="&#x159;" horiz-adv-x="759" d="M93 1435.5q8 14.5 34 14.5h131q44 0 70 -49l51 -94l51 94q26 49 70 49h131q26 0 33.5 -14.5t-7.5 -34.5l-149 -203q-40 -51 -80 -51h-98q-17 0 -32.5 8t-24.5 17.5t-23 27.5l-150 201q-15 20 -7 34.5zM121 53v918q0 26 11.5 37.5t39.5 11.5h158q27 0 37 -11t12 -38l6 -72 q127 137 299 137q28 0 40.5 -11.5t12.5 -37.5v-131q0 -27 -12.5 -39t-40.5 -14q-175 -12 -295 -121v-629q0 -28 -10.5 -40.5t-36.5 -12.5h-170q-27 0 -39 12.5t-12 40.5z" />
<glyph unicode="&#x15a;" horiz-adv-x="1171" d="M102 317v129q0 54 50 54h172q27 0 38 -12.5t11 -41.5v-92q0 -147 217 -147t217 147v66q0 30 -12.5 53t-41.5 41.5t-52 29t-68 27.5l-318 119q-77 29 -131.5 102t-54.5 162v121q0 69 23 125.5t74 105t145 76t223 27.5t224 -27.5t147.5 -75.5t77 -105.5t24.5 -125.5v-84 q0 -27 -12 -39t-39 -12h-172q-26 0 -36.5 12t-10.5 39v47q0 148 -199 148q-201 0 -201 -148v-30q0 -80 84 -111l357 -127q111 -39 176 -112.5t65 -182.5v-158q0 -54 -15 -101t-51 -90.5t-90.5 -74t-139 -49t-191.5 -18.5q-132 0 -230 27.5t-153 75t-81 105t-26 125.5z M479 1546l101 201q23 51 69 51h178q27 0 34.5 -14.5t-7.5 -36.5l-149 -217q-25 -35 -66 -35h-133q-53 0 -27 51z" />
<glyph unicode="&#x15b;" horiz-adv-x="966" d="M78 248v47q0 25 10.5 36t36.5 11h151q26 0 37 -11t11 -36v-35q0 -86 163 -86q166 0 166 86v35q0 25 -20.5 42t-71.5 36l-297 108q-63 24 -112.5 84.5t-49.5 132.5v66q0 52 20.5 98t64 86.5t123 64t186.5 23.5q106 0 185 -23.5t122 -64t63.5 -86.5t20.5 -98v-39 q0 -27 -10 -37t-37 -10h-152q-25 0 -35 10.5t-10 36.5v39q0 84 -149 84q-148 0 -148 -84v-23q0 -49 64 -71l295 -105q196 -69 196 -213v-104q0 -51 -23.5 -97t-71.5 -84t-130 -60.5t-189 -22.5t-188.5 22.5t-128 61t-69.5 84t-23 96.5zM387 1198l98 201q23 51 72 51h178 q26 0 33 -14.5t-8 -36.5l-148 -217q-25 -35 -65 -35h-133q-49 0 -27 51z" />
<glyph unicode="&#x15c;" horiz-adv-x="1171" d="M102 317v129q0 54 50 54h172q27 0 38 -12.5t11 -41.5v-92q0 -147 217 -147t217 147v66q0 30 -12.5 53t-41.5 41.5t-52 29t-68 27.5l-318 119q-77 29 -131.5 102t-54.5 162v121q0 69 23 125.5t74 105t145 76t223 27.5t224 -27.5t147.5 -75.5t77 -105.5t24.5 -125.5v-84 q0 -27 -12 -39t-39 -12h-172q-26 0 -36.5 12t-10.5 39v47q0 148 -199 148q-201 0 -201 -148v-30q0 -80 84 -111l357 -127q111 -39 176 -112.5t65 -182.5v-158q0 -54 -15 -101t-51 -90.5t-90.5 -74t-139 -49t-191.5 -18.5q-132 0 -230 27.5t-153 75t-81 105t-26 125.5z M298 1509.5q-8 14.5 7 36.5l150 201q35 51 80 51h98q40 0 80 -51l149 -201q15 -22 7.5 -36.5t-33.5 -14.5h-131q-44 0 -70 51l-51 92l-52 -92q-27 -51 -69 -51h-131q-26 0 -34 14.5z" />
<glyph unicode="&#x15d;" horiz-adv-x="966" d="M78 248v47q0 25 10.5 36t36.5 11h151q26 0 37 -11t11 -36v-35q0 -86 163 -86q166 0 166 86v35q0 25 -20.5 42t-71.5 36l-297 108q-63 24 -112.5 84.5t-49.5 132.5v66q0 52 20.5 98t64 86.5t123 64t186.5 23.5q106 0 185 -23.5t122 -64t63.5 -86.5t20.5 -98v-39 q0 -27 -10 -37t-37 -10h-152q-25 0 -35 10.5t-10 36.5v39q0 84 -149 84q-148 0 -148 -84v-23q0 -49 64 -71l295 -105q196 -69 196 -213v-104q0 -51 -23.5 -97t-71.5 -84t-130 -60.5t-189 -22.5t-188.5 22.5t-128 61t-69.5 84t-23 96.5zM197.5 1161.5q-7.5 14.5 7.5 36.5 l149 201q35 51 80 51h98q40 0 80 -51l150 -201q15 -22 7 -36.5t-34 -14.5h-131q-43 0 -69 51l-52 92l-51 -92q-27 -51 -70 -51h-131q-26 0 -33.5 14.5z" />
<glyph unicode="&#x15e;" horiz-adv-x="1171" d="M102 317v129q0 54 50 54h172q27 0 38 -12.5t11 -41.5v-92q0 -147 217 -147t217 147v66q0 30 -12.5 53t-41.5 41.5t-52 29t-68 27.5l-318 119q-77 29 -131.5 102t-54.5 162v121q0 69 23 125.5t74 105t145 76t223 27.5t224 -27.5t147.5 -75.5t77 -105.5t24.5 -125.5v-84 q0 -27 -12 -39t-39 -12h-172q-26 0 -36.5 12t-10.5 39v47q0 148 -199 148q-201 0 -201 -148v-30q0 -80 84 -111l357 -127q111 -39 176 -112.5t65 -182.5v-158q0 -63 -21.5 -116.5t-68 -100t-128 -76t-191.5 -36.5l-21 -80h62q83 0 131.5 -41.5t48.5 -126.5q0 -86 -48.5 -129 t-131.5 -43h-244q-28 0 -39.5 11.5t-11.5 39.5v41q0 27 11.5 38t39.5 11h201q39 0 39 31q0 33 -39 33h-154q-83 0 -63 67l41 150q-203 18 -296.5 108t-93.5 219z" />
<glyph unicode="&#x15f;" horiz-adv-x="966" d="M78 248v47q0 25 10.5 36t36.5 11h151q26 0 37 -11t11 -36v-35q0 -86 163 -86q166 0 166 86v35q0 25 -20.5 42t-71.5 36l-297 108q-63 24 -112.5 84.5t-49.5 132.5v66q0 52 20.5 98t64 86.5t123 64t186.5 23.5q106 0 185 -23.5t122 -64t63.5 -86.5t20.5 -98v-39 q0 -27 -10 -37t-37 -10h-152q-25 0 -35 10.5t-10 36.5v39q0 84 -149 84q-148 0 -148 -84v-23q0 -49 64 -71l295 -105q196 -69 196 -213v-104q0 -103 -93 -178.5t-278 -83.5l-20 -78h61q83 0 132 -42t49 -126q0 -86 -49 -129t-132 -43h-243q-28 0 -40 11.5t-12 39.5v41 q0 27 12 38t40 11h200q39 0 39 31q0 33 -39 33h-153q-84 0 -64 67l43 154q-140 23 -208 93t-68 161z" />
<glyph unicode="&#x160;" horiz-adv-x="1171" d="M102 317v129q0 54 50 54h172q27 0 38 -12.5t11 -41.5v-92q0 -147 217 -147t217 147v66q0 30 -12.5 53t-41.5 41.5t-52 29t-68 27.5l-318 119q-77 29 -131.5 102t-54.5 162v121q0 69 23 125.5t74 105t145 76t223 27.5t224 -27.5t147.5 -75.5t77 -105.5t24.5 -125.5v-84 q0 -27 -12 -39t-39 -12h-172q-26 0 -36.5 12t-10.5 39v47q0 148 -199 148q-201 0 -201 -148v-30q0 -80 84 -111l357 -127q111 -39 176 -112.5t65 -182.5v-158q0 -54 -15 -101t-51 -90.5t-90.5 -74t-139 -49t-191.5 -18.5q-132 0 -230 27.5t-153 75t-81 105t-26 125.5z M302 1783.5q8 14.5 34 14.5h131q44 0 70 -49l51 -94l51 94q26 49 70 49h131q26 0 33.5 -14.5t-7.5 -34.5l-149 -203q-40 -51 -80 -51h-98q-17 0 -32.5 8t-24.5 17.5t-23 27.5l-150 201q-15 20 -7 34.5z" />
<glyph unicode="&#x161;" horiz-adv-x="966" d="M78 248v47q0 25 10.5 36t36.5 11h151q26 0 37 -11t11 -36v-35q0 -86 163 -86q166 0 166 86v35q0 25 -20.5 42t-71.5 36l-297 108q-63 24 -112.5 84.5t-49.5 132.5v66q0 52 20.5 98t64 86.5t123 64t186.5 23.5q106 0 185 -23.5t122 -64t63.5 -86.5t20.5 -98v-39 q0 -27 -10 -37t-37 -10h-152q-25 0 -35 10.5t-10 36.5v39q0 84 -149 84q-148 0 -148 -84v-23q0 -49 64 -71l295 -105q196 -69 196 -213v-104q0 -51 -23.5 -97t-71.5 -84t-130 -60.5t-189 -22.5t-188.5 22.5t-128 61t-69.5 84t-23 96.5zM206 1435.5q8 14.5 34 14.5h131 q43 0 69 -49l52 -94l51 94q26 49 69 49h131q26 0 34 -14.5t-7 -34.5l-149 -203q-40 -51 -80 -51h-99q-17 0 -32.5 8t-24.5 17.5t-23 27.5l-149 201q-15 20 -7 34.5z" />
<glyph unicode="&#x162;" horiz-adv-x="1007" d="M23 1214v129q0 28 11.5 39t39.5 11h860q27 0 39 -11.5t12 -38.5v-129q0 -27 -12 -39t-39 -12h-291v-1110q0 -28 -11 -40.5t-38 -12.5h-178q-27 0 -39 12.5t-12 40.5v1110h-291q-28 0 -39.5 11.5t-11.5 39.5zM336 -440q4 9 14.5 31t13 29t9.5 24.5t8.5 28t4.5 29t4 38 t1 45.5v61q0 28 11.5 40t39.5 12h125q27 0 38 -12t11 -40v-77q0 -125 -92 -273q-21 -36 -67 -26l-95 22q-50 11 -26 68z" />
<glyph unicode="&#x163;" horiz-adv-x="743" d="M31 854v102q0 26 11 36.5t38 13.5l94 10h6v196q0 28 11.5 40t39.5 12h170q27 0 38.5 -12t11.5 -40v-196h186q27 0 39 -10.5t12 -36.5v-115q0 -27 -12 -39t-39 -12h-186v-471q0 -57 38.5 -84t124.5 -27h45q28 0 40 -11.5t12 -39.5v-119q0 -28 -12 -39.5t-40 -11.5h-86 q-148 0 -235.5 35t-122.5 99.5t-35 168.5v500h-100q-26 0 -37.5 11.5t-11.5 39.5zM166 -442q4 9 14.5 31t13 29t9.5 24.5t8.5 28t4.5 29t4 38t1 45.5v61q0 28 11.5 40t39.5 12h125q27 0 38 -12t11 -40v-77q0 -125 -92 -273q-21 -36 -67 -26l-94 22q-51 12 -27 68z" />
<glyph unicode="&#x164;" horiz-adv-x="1007" d="M23 1214v129q0 28 11.5 39t39.5 11h860q27 0 39 -11.5t12 -38.5v-129q0 -27 -12 -39t-39 -12h-291v-1110q0 -28 -11 -40.5t-38 -12.5h-178q-27 0 -39 12.5t-12 40.5v1110h-291q-28 0 -39.5 11.5t-11.5 39.5zM218 1783.5q8 14.5 34 14.5h131q44 0 70 -49l51 -94l51 94 q26 49 70 49h131q26 0 33.5 -14.5t-7.5 -34.5l-149 -203q-40 -51 -80 -51h-98q-17 0 -32.5 8t-24.5 17.5t-23 27.5l-150 201q-15 20 -7 34.5z" />
<glyph unicode="&#x165;" horiz-adv-x="825" d="M31 854v102q0 26 11 36.5t38 13.5l94 10h6v196q0 28 11.5 40t39.5 12h170q27 0 38.5 -12t11.5 -40v-196h186q27 0 39 -10.5t12 -36.5v-115q0 -27 -12 -39t-39 -12h-186v-471q0 -57 38.5 -84t124.5 -27h45q28 0 40 -11.5t12 -39.5v-119q0 -28 -12 -39.5t-40 -11.5h-86 q-148 0 -235.5 35t-122.5 99.5t-35 168.5v500h-100q-26 0 -37.5 11.5t-11.5 39.5zM532 1176q4 9 16.5 35.5t15 33.5l10 28t9 35.5t3.5 38.5t2 54v61q0 28 11.5 39.5t39.5 11.5h125q27 0 38 -11.5t11 -39.5v-78q0 -124 -92 -272q-22 -37 -68 -27l-94 23q-51 12 -27 68z" />
<glyph unicode="&#x166;" horiz-adv-x="1007" d="M23 1214v129q0 28 11.5 39t39.5 11h860q27 0 39 -11.5t12 -38.5v-129q0 -27 -12 -39t-39 -12h-291v-297h217q27 0 39 -10.5t12 -36.5v-88q0 -27 -12 -39t-39 -12h-217v-627q0 -28 -11 -40.5t-38 -12.5h-178q-27 0 -39 12.5t-12 40.5v627h-211q-28 0 -40 11.5t-12 39.5v88 q0 26 12 36.5t40 10.5h211v297h-291q-28 0 -39.5 11.5t-11.5 39.5z" />
<glyph unicode="&#x167;" horiz-adv-x="743" d="M31 530v88q0 26 12 37t39 11h98v137h-100q-26 0 -37.5 11.5t-11.5 39.5v102q0 26 11 36.5t38 13.5l94 10h6v196q0 28 11.5 40t39.5 12h170q27 0 38.5 -12t11.5 -40v-196h186q27 0 39 -10.5t12 -36.5v-115q0 -27 -12 -39t-39 -12h-186v-137h186q27 0 39 -11t12 -37v-88 q0 -27 -12 -39t-39 -12h-186v-147q0 -57 38.5 -84t124.5 -27h45q28 0 40 -11.5t12 -39.5v-119q0 -28 -12 -39.5t-40 -11.5h-86q-148 0 -235.5 35t-122.5 99.5t-35 168.5v176h-98q-27 0 -39 12t-12 39z" />
<glyph unicode="&#x168;" horiz-adv-x="1259" d="M131 317v1022q0 28 12 41t39 13h178q50 0 50 -54v-972q0 -75 57.5 -114.5t161.5 -39.5q105 0 164 39.5t59 114.5v972q0 29 11 41.5t38 12.5h178q27 0 37 -12.5t10 -41.5v-1022q0 -68 -26.5 -125.5t-82 -105t-155 -75t-233.5 -27.5t-233.5 27.5t-155.5 75t-82.5 105 t-26.5 125.5zM281 1563l8 84q7 75 57.5 117t122.5 42q61 0 119 -26l88 -43q64 -31 76 -31q19 0 26.5 10.5t12.5 38.5l2 12q4 26 16.5 35.5t38.5 9.5h88q46 0 43 -59l-6 -80q-6 -78 -53.5 -119t-116.5 -41q-65 0 -131 27l-88 39q-8 4 -22 10.5t-22 10.5t-17.5 7t-16.5 3 q-39 0 -39 -51v-11q0 -26 -13.5 -35.5t-41.5 -9.5h-88q-49 0 -43 60z" />
<glyph unicode="&#x169;" d="M111 258v711q0 28 11.5 39.5t37.5 11.5h168q27 0 39 -12t12 -39v-643q0 -58 24 -83.5t86 -25.5q114 0 226 90v662q0 28 11 39.5t38 11.5h170q26 0 37.5 -11.5t11.5 -39.5v-918q0 -28 -11.5 -39.5t-37.5 -11.5h-158q-27 0 -37.5 11t-13.5 40l-4 45q-126 -112 -315 -112 q-137 0 -216 76t-79 198zM205 1196l8 86q7 75 57 116.5t121 41.5q65 0 121 -27l86 -41q8 -4 22 -10.5t22 -10.5t17.5 -7t16.5 -3q39 0 39 50v10q0 45 55 45h88q26 0 35.5 -15t7.5 -45l-6 -79q-6 -78 -53.5 -119t-114.5 -41q-69 0 -131 27l-88 38q-10 4 -29 13.5t-30 13.5 t-19 4q-19 0 -26.5 -10.5t-12.5 -38.5l-2 -12q-4 -26 -16 -35.5t-37 -9.5h-90q-48 0 -41 59z" />
<glyph unicode="&#x16a;" horiz-adv-x="1259" d="M131 317v1022q0 28 12 41t39 13h178q50 0 50 -54v-972q0 -75 57.5 -114.5t161.5 -39.5q105 0 164 39.5t59 114.5v972q0 29 11 41.5t38 12.5h178q27 0 37 -12.5t10 -41.5v-1022q0 -68 -26.5 -125.5t-82 -105t-155 -75t-233.5 -27.5t-233.5 27.5t-155.5 75t-82.5 105 t-26.5 125.5zM342 1587v105q0 26 12 36.5t39 10.5h473q27 0 39.5 -10.5t12.5 -36.5v-105q0 -51 -52 -51h-473q-27 0 -39 12t-12 39z" />
<glyph unicode="&#x16b;" d="M111 258v711q0 28 11.5 39.5t37.5 11.5h168q27 0 39 -12t12 -39v-643q0 -58 24 -83.5t86 -25.5q114 0 226 90v662q0 28 11 39.5t38 11.5h170q26 0 37.5 -11.5t11.5 -39.5v-918q0 -28 -11.5 -39.5t-37.5 -11.5h-158q-27 0 -37.5 11t-13.5 40l-4 45q-126 -112 -315 -112 q-137 0 -216 76t-79 198zM264 1221v104q0 27 12.5 38t40.5 11h471q28 0 40 -11t12 -38v-104q0 -26 -12 -38t-40 -12h-471q-53 0 -53 50z" />
<glyph unicode="&#x16c;" horiz-adv-x="1259" d="M131 317v1022q0 28 12 41t39 13h178q50 0 50 -54v-972q0 -75 57.5 -114.5t161.5 -39.5q105 0 164 39.5t59 114.5v972q0 29 11 41.5t38 12.5h178q27 0 37 -12.5t10 -41.5v-1022q0 -68 -26.5 -125.5t-82 -105t-155 -75t-233.5 -27.5t-233.5 27.5t-155.5 75t-82.5 105 t-26.5 125.5zM344 1733v28q0 23 10 32t35 9h103q25 0 35 -9t10 -32v-35q0 -43 20.5 -66.5t71.5 -23.5t71.5 23.5t20.5 66.5v35q0 23 10 32t35 9h102q25 0 35 -9t10 -32v-28q0 -122 -75 -188t-215 -66q-139 0 -209 65.5t-70 188.5z" />
<glyph unicode="&#x16d;" d="M111 258v711q0 28 11.5 39.5t37.5 11.5h168q27 0 39 -12t12 -39v-643q0 -58 24 -83.5t86 -25.5q114 0 226 90v662q0 28 11 39.5t38 11.5h170q26 0 37.5 -11.5t11.5 -39.5v-918q0 -28 -11.5 -39.5t-37.5 -11.5h-158q-27 0 -37.5 11t-13.5 40l-4 45q-126 -112 -315 -112 q-137 0 -216 76t-79 198zM252 1374v29q0 23 10 33t35 10h100q25 0 35 -10t10 -33v-35q0 -90 95 -90q51 0 71.5 23.5t20.5 66.5v35q0 23 10 33t35 10h100q25 0 35 -10t10 -33v-29q0 -122 -75 -188t-216 -66q-138 0 -207 65.5t-69 188.5z" />
<glyph unicode="&#x16e;" horiz-adv-x="1259" d="M131 317v1022q0 28 12 41t39 13h178q50 0 50 -54v-972q0 -75 57.5 -114.5t161.5 -39.5q105 0 164 39.5t59 114.5v972q0 29 11 41.5t38 12.5h178q27 0 37 -12.5t10 -41.5v-1022q0 -68 -26.5 -125.5t-82 -105t-155 -75t-233.5 -27.5t-233.5 27.5t-155.5 75t-82.5 105 t-26.5 125.5zM399 1622v59q0 68 58.5 114t171.5 46t171 -46t58 -114v-59q0 -68 -58 -114t-171 -46t-171.5 46t-58.5 114zM547 1640q0 -63 82 -63t82 63v25q0 61 -82 61t-82 -61v-25z" />
<glyph unicode="&#x16f;" d="M111 258v711q0 28 11.5 39.5t37.5 11.5h168q27 0 39 -12t12 -39v-643q0 -58 24 -83.5t86 -25.5q114 0 226 90v662q0 28 11 39.5t38 11.5h170q26 0 37.5 -11.5t11.5 -39.5v-918q0 -28 -11.5 -39.5t-37.5 -11.5h-158q-27 0 -37.5 11t-13.5 40l-4 45q-126 -112 -315 -112 q-137 0 -216 76t-79 198zM324 1270v69q0 68 57.5 112t169.5 44q111 0 168 -44t57 -112v-69q0 -68 -57 -112t-168 -44q-112 0 -169.5 44t-57.5 112zM467 1288q0 -61 84 -61q82 0 82 61v31q0 61 -82 61q-84 0 -84 -61v-31z" />
<glyph unicode="&#x170;" horiz-adv-x="1259" d="M131 317v1022q0 28 12 41t39 13h178q50 0 50 -54v-972q0 -75 57.5 -114.5t161.5 -39.5q105 0 164 39.5t59 114.5v972q0 29 11 41.5t38 12.5h178q27 0 37 -12.5t10 -41.5v-1022q0 -68 -26.5 -125.5t-82 -105t-155 -75t-233.5 -27.5t-233.5 27.5t-155.5 75t-82.5 105 t-26.5 125.5zM376.5 1509q-9.5 14 0.5 37l86 201q22 51 69 51h150q28 0 37.5 -14.5t-2.5 -36.5l-113 -201q-14 -27 -27.5 -39t-39.5 -12h-125q-26 0 -35.5 14zM669 1509q-7 14 7 37l117 201q28 51 77 51h150q27 0 33.5 -14.5t-9.5 -36.5l-141 -203q-31 -49 -76 -49h-125 q-26 0 -33 14z" />
<glyph unicode="&#x171;" d="M111 258v711q0 28 11.5 39.5t37.5 11.5h168q27 0 39 -12t12 -39v-643q0 -58 24 -83.5t86 -25.5q114 0 226 90v662q0 28 11 39.5t38 11.5h170q26 0 37.5 -11.5t11.5 -39.5v-918q0 -28 -11.5 -39.5t-37.5 -11.5h-158q-27 0 -37.5 11t-13.5 40l-4 45q-126 -112 -315 -112 q-137 0 -216 76t-79 198zM293 1161q-9 14 0 37l86 201q22 51 70 51h149q27 0 36.5 -15.5t-1.5 -35.5l-113 -201q-14 -27 -27.5 -39t-39.5 -12h-125q-26 0 -35 14zM585 1161q-7 14 7 37l117 201q28 51 77 51h150q27 0 34 -15.5t-7 -35.5l-144 -203q-34 -49 -76 -49h-125 q-26 0 -33 14z" />
<glyph unicode="&#x172;" horiz-adv-x="1259" d="M131 317v1022q0 28 12 41t39 13h178q50 0 50 -54v-972q0 -75 57.5 -114.5t161.5 -39.5q105 0 164 39.5t59 114.5v972q0 29 11 41.5t38 12.5h178q27 0 37 -12.5t10 -41.5v-1022q0 -126 -79 -202q-7 -7 -34 -33.5t-35.5 -35.5t-27.5 -32.5t-26 -39.5t-14 -40.5t-7 -50.5 q0 -63 78 -63h51q28 0 40.5 -11t12.5 -38v-70q0 -51 -69 -51h-119q-32 0 -63.5 8t-63 26.5t-51 55t-19.5 86.5q0 87 48 164q-56 -6 -119 -6q-134 0 -233.5 27.5t-155.5 75t-82.5 105t-26.5 125.5z" />
<glyph unicode="&#x173;" horiz-adv-x="1103" d="M111 258v711q0 28 11.5 39.5t37.5 11.5h168q27 0 39 -12t12 -39v-643q0 -58 24 -83.5t86 -25.5q114 0 226 90v662q0 28 11 39.5t38 11.5h170q26 0 37.5 -11.5t11.5 -39.5v-918q0 -28 -11.5 -39.5t-37.5 -11.5h-14q-43 -3 -67 -37.5t-24 -79.5q0 -63 78 -63h29 q27 0 39 -11t12 -38v-70q0 -26 -19 -38.5t-48 -12.5h-95q-32 0 -64 8.5t-63.5 27.5t-51 56t-19.5 86q0 121 98 217l-4 51q-126 -112 -315 -112q-137 0 -216 76t-79 198z" />
<glyph unicode="&#x174;" horiz-adv-x="1716" d="M29 1341q-13 52 39 52h182q46 0 59 -52l172 -698q26 -113 33 -170q0 28 37 170l176 698q13 52 61 52h166q49 0 62 -52l172 -696q20 -89 33 -203q19 136 36 201l177 698q13 52 59 52h156q52 0 39 -52l-326 -1290q-12 -51 -64 -51h-174q-45 0 -57 51l-180 713 q-8 30 -17.5 92.5t-11.5 89.5q-17 -124 -29 -182l-180 -713q-12 -51 -63 -51h-174q-46 0 -58 51zM576.5 1509.5q-7.5 14.5 7.5 36.5l149 201q35 51 80 51h98q40 0 80 -51l150 -201q15 -22 7 -36.5t-34 -14.5h-131q-44 0 -70 51l-51 92l-51 -92q-27 -51 -70 -51h-131 q-26 0 -33.5 14.5z" />
<glyph unicode="&#x175;" horiz-adv-x="1466" d="M23 969q-7 25 6.5 38t42.5 13h161q26 0 38.5 -12.5t19.5 -38.5l141 -537q4 -19 8 -42t6 -38.5t3 -17.5q0 14 24 98l150 537q7 26 18.5 38.5t36.5 12.5h164q47 0 57 -51l125 -537l8.5 -42.5t6.5 -36.5t3 -17q0 6 23 96l139 537q7 26 19.5 38.5t38.5 12.5h135q28 0 41 -13 t6 -38l-262 -922q-8 -28 -17.5 -37.5t-34.5 -9.5h-202q-26 0 -36.5 10.5t-17.5 36.5l-114 485q-19 78 -19 109q0 -1 -4 -18.5t-10 -42.5t-12 -48l-142 -485q-7 -26 -16.5 -36.5t-34.5 -10.5h-198q-26 0 -37 10.5t-17 36.5zM449.5 1161.5q-7.5 14.5 7.5 36.5l149 201 q35 51 80 51h98q40 0 80 -51l150 -201q15 -22 7 -36.5t-34 -14.5h-131q-44 0 -70 51l-51 92l-51 -92q-27 -51 -70 -51h-131q-26 0 -33.5 14.5z" />
<glyph unicode="&#x176;" horiz-adv-x="1116" d="M30 1378.5q10 14.5 36 14.5h202q42 0 62 -52l194 -467q26 -70 35 -108q16 65 37 108l217 467q11 26 23 39t36 13h177q27 0 37 -13.5t-1 -38.5l-387 -809v-481q0 -27 -11 -39t-38 -12h-178q-27 0 -39 12t-12 39v449l-389 841q-11 23 -1 37.5zM271.5 1509.5 q-7.5 14.5 7.5 36.5l149 201q35 51 80 51h98q40 0 80 -51l150 -201q15 -22 7 -36.5t-34 -14.5h-131q-44 0 -70 51l-51 92l-51 -92q-27 -51 -70 -51h-131q-26 0 -33.5 14.5z" />
<glyph unicode="&#x177;" horiz-adv-x="970" d="M23 969q-9 24 5 37.5t42 13.5h170q26 0 37 -12t20 -39l154 -469q8 -25 14.5 -56t10 -53t6.5 -42t3 -21q0 1 3 13.5t6.5 29.5t8.5 37.5t12 43t13 40.5l162 477q8 27 19 39t36 12h156q29 0 43.5 -13.5t5.5 -37.5l-452 -1329q-15 -52 -58 -52h-123q-29 0 -42.5 13.5 t-6.5 38.5l101 333zM199.5 1161.5q-7.5 14.5 7.5 36.5l149 201q35 51 80 51h99q39 0 79 -51l150 -201q15 -22 7 -36.5t-34 -14.5h-131q-43 0 -69 51l-52 92l-51 -92q-27 -51 -69 -51h-132q-26 0 -33.5 14.5z" />
<glyph unicode="&#x178;" horiz-adv-x="1116" d="M30 1378.5q10 14.5 36 14.5h202q42 0 62 -52l194 -467l35 -106q2 12 14 48.5t23 57.5l217 467q11 26 23 39t36 13h177q27 0 37 -13.5t-1 -38.5l-387 -809v-481q0 -27 -11 -39t-38 -12h-178q-27 0 -39 12t-12 39v449l-389 841q-11 23 -1 37.5zM315 1550v191q0 53 50 53 h100q27 0 38 -12.5t11 -40.5v-191q0 -28 -11 -39.5t-38 -11.5h-100q-27 0 -38.5 11.5t-11.5 39.5zM602 1550v191q0 28 11 40.5t38 12.5h101q26 0 36.5 -12.5t10.5 -40.5v-191q0 -28 -10.5 -39.5t-36.5 -11.5h-101q-27 0 -38 11.5t-11 39.5z" />
<glyph unicode="&#x179;" horiz-adv-x="1017" d="M68 51v129q0 19 8 35l526 948h-448q-52 0 -52 51v129q0 27 12.5 38.5t39.5 11.5h729q28 0 40.5 -11.5t12.5 -38.5v-126q0 -21 -12 -41l-525 -947h521q27 0 39 -11t12 -38v-129q0 -27 -12 -39t-39 -12h-801q-28 0 -39.5 11.5t-11.5 39.5zM422 1546l100 201q23 51 70 51 h178q27 0 34.5 -14.5t-7.5 -36.5l-150 -217q-25 -35 -65 -35h-133q-53 0 -27 51z" />
<glyph unicode="&#x17a;" horiz-adv-x="913" d="M66 49v121q0 23 16 45l410 586h-340q-54 0 -54 49v121q0 27 12.5 38t41.5 11h620q28 0 39.5 -11t11.5 -38v-119q0 -23 -16 -45l-414 -588h416q28 0 39.5 -11t11.5 -38v-121q0 -26 -11.5 -37.5t-39.5 -11.5h-692q-51 0 -51 49zM346 1198l98 201q23 51 72 51h178 q26 0 33 -14.5t-8 -36.5l-148 -217q-25 -35 -65 -35h-133q-49 0 -27 51z" />
<glyph unicode="&#x17b;" horiz-adv-x="1017" d="M68 51v129q0 19 8 35l526 948h-448q-52 0 -52 51v129q0 27 12.5 38.5t39.5 11.5h729q28 0 40.5 -11.5t12.5 -38.5v-126q0 -21 -12 -41l-525 -947h521q27 0 39 -11t12 -38v-129q0 -27 -12 -39t-39 -12h-801q-28 0 -39.5 11.5t-11.5 39.5zM373 1550v168q0 27 11 39t38 12 h174q27 0 38 -12t11 -39v-168q0 -28 -10.5 -38.5t-38.5 -10.5h-174q-28 0 -38.5 10.5t-10.5 38.5z" />
<glyph unicode="&#x17c;" horiz-adv-x="913" d="M66 49v121q0 23 16 45l410 586h-340q-54 0 -54 49v121q0 27 12.5 38t41.5 11h620q28 0 39.5 -11t11.5 -38v-119q0 -23 -16 -45l-414 -588h416q28 0 39.5 -11t11.5 -38v-121q0 -26 -11.5 -37.5t-39.5 -11.5h-692q-51 0 -51 49zM324 1221v165q0 28 11 40t38 12h176 q26 0 36.5 -12t10.5 -40v-165q0 -28 -10.5 -40t-36.5 -12h-176q-27 0 -38 12t-11 40z" />
<glyph unicode="&#x17d;" horiz-adv-x="1017" d="M68 51v129q0 19 8 35l526 948h-448q-52 0 -52 51v129q0 27 12.5 38.5t39.5 11.5h729q28 0 40.5 -11.5t12.5 -38.5v-126q0 -21 -12 -41l-525 -947h521q27 0 39 -11t12 -38v-129q0 -27 -12 -39t-39 -12h-801q-28 0 -39.5 11.5t-11.5 39.5zM230.5 1791.5q7.5 14.5 33.5 14.5 h131q44 0 70 -49l51 -94l51 94q26 49 70 49h131q26 0 34 -14.5t-7 -34.5l-150 -203q-40 -51 -80 -51h-98q-17 0 -32.5 8t-24.5 17.5t-23 27.5l-149 201q-15 20 -7.5 34.5z" />
<glyph unicode="&#x17e;" horiz-adv-x="913" d="M66 49v121q0 23 16 45l410 586h-340q-54 0 -54 49v121q0 27 12.5 38t41.5 11h620q28 0 39.5 -11t11.5 -38v-119q0 -23 -16 -45l-414 -588h416q28 0 39.5 -11t11.5 -38v-121q0 -26 -11.5 -37.5t-39.5 -11.5h-692q-51 0 -51 49zM181 1435.5q8 14.5 34 14.5h131q44 0 70 -49 l51 -94l51 94q26 49 70 49h131q26 0 33.5 -14.5t-7.5 -34.5l-149 -203q-40 -51 -80 -51h-98q-17 0 -32.5 8t-24.5 17.5t-23 27.5l-150 201q-15 20 -7 34.5z" />
<glyph unicode="&#x17f;" horiz-adv-x="714" d="M39 856v100q0 26 11.5 36.5t39.5 13.5l103 10h8v123q0 141 109.5 221t328.5 80h18q28 0 40 -11.5t12 -39.5v-117q0 -51 -52 -51h-18q-87 0 -128.5 -27.5t-41.5 -85.5v-1057q0 -27 -11 -39t-38 -12h-170q-27 0 -38 12t-11 39v754h-111q-28 0 -39.5 11.5t-11.5 39.5z" />
<glyph unicode="&#x192;" horiz-adv-x="1179" d="M115 -264q0 27 12 39t39 12h41q86 0 130 27.5t50 85.5l84 776h-125q-26 0 -37.5 11.5t-11.5 37.5v113q0 28 11.5 39.5t37.5 11.5h148l26 258q14 142 132.5 222.5t338.5 80.5h21q27 0 39 -12t12 -39v-119q0 -27 -12 -39t-39 -12h-41q-88 0 -132.5 -27t-50.5 -84l-26 -229 h147q28 0 40 -11t12 -38v-115q0 -26 -12 -37.5t-40 -11.5h-168l-88 -807q-16 -141 -133.5 -221t-335.5 -80h-18q-27 0 -39 11t-12 38v119z" />
<glyph unicode="&#x1fa;" horiz-adv-x="1134" d="M31 51l383 1290q8 27 22 39.5t41 12.5h178q51 0 66 -52l381 -1290q15 -51 -37 -51h-184q-45 0 -60 51l-71 250h-381l-72 -250q-8 -27 -21.5 -39t-39.5 -12h-166q-54 0 -39 51zM336 1622v59q0 52 33.5 92t101.5 58l47 92q23 51 72 51h178q28 0 35 -14.5t-10 -36.5 l-86 -111q88 -46 88 -131v-59q0 -68 -58.5 -114t-171.5 -46t-171 46t-58 114zM428 520h260l-67 228q-17 54 -37 191t-23 181q-46 -313 -63 -370zM483 1640q0 -63 82 -63t82 63v25q0 61 -82 61t-82 -61v-25z" />
<glyph unicode="&#x1fb;" horiz-adv-x="1058" d="M94 240v92q0 109 81 183.5t226 74.5h283v131q0 59 -34 87t-120 28t-121.5 -25t-35.5 -82v-14q0 -28 -11.5 -39.5t-37.5 -11.5h-152q-27 0 -38 11.5t-11 39.5v26q0 295 414 295q216 0 313.5 -76t97.5 -219v-688q0 -28 -11.5 -40.5t-37.5 -12.5h-154q-26 0 -36 11.5 t-13 41.5l-4 43q-135 -112 -303 -112q-143 0 -219 73.5t-76 182.5zM311 1270v69q0 51 35 90t103 56l71 147q23 51 72 51h178q26 0 33 -14.5t-8 -36.5l-113 -166q82 -43 82 -127v-69q0 -68 -57 -112t-168 -44q-112 0 -170 44t-58 112zM356 276q0 -79 103 -79q107 0 225 88 v116h-229q-56 0 -77.5 -24t-21.5 -68v-33zM455 1288q0 -61 84 -61q82 0 82 61v31q0 55 -72 61h-23q-71 -6 -71 -61v-31z" />
<glyph unicode="&#x1fc;" horiz-adv-x="1710" d="M33.5 14q-11.5 14 1.5 37l768 1292q31 50 71 50h680q28 0 40 -11.5t12 -38.5v-124q0 -27 -12 -38.5t-40 -11.5h-473v-340h439q28 0 40.5 -11t12.5 -38v-116q0 -28 -12.5 -40t-40.5 -12h-439v-389h496q27 0 39 -10.5t12 -36.5v-127q0 -49 -51 -49h-707q-27 0 -39 12 t-12 39v250h-375l-145 -250q-9 -16 -15.5 -25t-18 -17.5t-25.5 -8.5h-168q-27 0 -38.5 14zM575 520h244v432q-42 -86 -69 -133zM897 1546l100 201q23 51 70 51h178q27 0 34.5 -14.5t-7.5 -36.5l-150 -217q-25 -35 -65 -35h-133q-53 0 -27 51z" />
<glyph unicode="&#x1fd;" horiz-adv-x="1607" d="M92 240v88q0 108 82 182t227 74h283v151q0 107 -154 107q-86 0 -121.5 -25t-35.5 -82v-20q0 -27 -11.5 -38t-39.5 -11h-150q-28 0 -39.5 11t-11.5 38v28q0 293 414 293q194 0 276 -92q99 92 295 92q412 0 412 -301v-233q0 -47 -48 -47h-524v-162q0 -56 37.5 -83.5 t122.5 -27.5t122.5 28.5t37.5 84.5v14q0 26 11.5 37.5t39.5 11.5h141q28 0 39.5 -11.5t11.5 -37.5v-24q0 -145 -94.5 -223t-308.5 -78q-275 0 -365 127q-164 -127 -352 -127q-146 0 -221.5 73.5t-75.5 182.5zM354 274q0 -42 29 -61.5t76 -19.5q99 0 225 94v116h-233 q-52 0 -74.5 -25t-22.5 -65v-39zM694 1198l99 201q23 51 71 51h178q26 0 33 -14.5t-8 -36.5l-147 -217q-25 -35 -66 -35h-133q-49 0 -27 51zM946 633h320v90q0 115 -160 115t-160 -115v-90z" />
<glyph unicode="&#x1fe;" horiz-adv-x="1239" d="M121 315v758q0 68 26.5 125.5t82 105.5t155 75.5t233.5 27.5q158 0 273 -41l18 35q7 14 12 22.5t13.5 18.5t19.5 15t25 5h57q44 0 15 -61l-50 -94q115 -86 115 -234v-758q0 -68 -26.5 -125.5t-82.5 -105t-155.5 -75t-233.5 -27.5q-158 0 -276 41l-16 -33q-15 -32 -31 -47 t-43 -15h-53q-22 0 -26 18.5t9 43.5l47 94q-108 84 -108 231zM399 412l377 731q-59 35 -158 35q-104 0 -161.5 -39.5t-57.5 -114.5v-612zM459 248q55 -37 159 -37q105 0 163.5 39.5t58.5 114.5v624zM506 1546l100 201q23 51 70 51h178q27 0 34.5 -14.5t-7.5 -36.5l-150 -217 q-25 -35 -65 -35h-134q-52 0 -26 51z" />
<glyph unicode="&#x1ff;" horiz-adv-x="1085" d="M100 287v448q0 141 111.5 221t331.5 80q114 0 200 -22l13 20q8 16 13 23.5t13.5 18.5t19 15.5t23.5 4.5h58q46 0 12 -62l-37 -69q127 -77 127 -230v-448q0 -142 -111 -222.5t-331 -80.5q-115 0 -205 22l-8 -14q-14 -26 -21 -36.5t-20.5 -18t-34.5 -7.5h-51 q-24 0 -25 21.5t12 40.5l35 63q-125 79 -125 232zM369 319l266 492q-37 12 -92 12q-174 0 -174 -110v-394zM430 1198l98 201q23 51 72 51h178q26 0 33 -14.5t-8 -36.5l-148 -217q-25 -35 -65 -35h-133q-49 0 -27 51zM446 207q34 -10 97 -10q174 0 174 112v396z" />
<glyph unicode="&#x218;" horiz-adv-x="1171" d="M102 317v129q0 54 50 54h172q27 0 38 -12.5t11 -41.5v-92q0 -147 217 -147t217 147v66q0 30 -12.5 53t-41.5 41.5t-52 29t-68 27.5l-318 119q-77 29 -131.5 102t-54.5 162v121q0 69 23 125.5t74 105t145 76t223 27.5t224 -27.5t147.5 -75.5t77 -105.5t24.5 -125.5v-84 q0 -27 -12 -39t-39 -12h-172q-26 0 -36.5 12t-10.5 39v47q0 148 -199 148q-201 0 -201 -148v-30q0 -80 84 -111l357 -127q111 -39 176 -112.5t65 -182.5v-158q0 -54 -15 -101t-51 -90.5t-90.5 -74t-139 -49t-191.5 -18.5q-132 0 -230 27.5t-153 75t-81 105t-26 125.5z M428 -440q4 9 14.5 31t13 29t9.5 24.5t8.5 28t4.5 29t4 38t1 45.5v61q0 28 12 40t40 12h124q27 0 38.5 -12t11.5 -40v-77q0 -123 -93 -273q-21 -36 -67 -26l-94 22q-51 12 -27 68z" />
<glyph unicode="&#x219;" horiz-adv-x="966" d="M78 248v47q0 25 10.5 36t36.5 11h151q26 0 37 -11t11 -36v-35q0 -86 163 -86q166 0 166 86v35q0 25 -20.5 42t-71.5 36l-297 108q-63 24 -112.5 84.5t-49.5 132.5v66q0 52 20.5 98t64 86.5t123 64t186.5 23.5q106 0 185 -23.5t122 -64t63.5 -86.5t20.5 -98v-39 q0 -27 -10 -37t-37 -10h-152q-25 0 -35 10.5t-10 36.5v39q0 84 -149 84q-148 0 -148 -84v-23q0 -49 64 -71l295 -105q196 -69 196 -213v-104q0 -51 -23.5 -97t-71.5 -84t-130 -60.5t-189 -22.5t-188.5 22.5t-128 61t-69.5 84t-23 96.5zM338 -442q4 9 14.5 31t13 29t9.5 24.5 t8.5 28t4.5 29t4 38t1 45.5v61q0 28 11.5 40t39.5 12h125q27 0 38 -12t11 -40v-77q0 -125 -92 -273q-21 -36 -67 -26l-94 22q-51 12 -27 68z" />
<glyph unicode="&#x237;" horiz-adv-x="512" d="M-119 -246q0 28 12 40.5t39 12.5h19q170 0 170 111v1051q0 27 11 39t38 12h170q27 0 38 -12t11 -39v-1080q0 -141 -109.5 -221t-328.5 -80h-19q-28 0 -39.5 11t-11.5 39v116z" />
<glyph unicode="&#x2c6;" horiz-adv-x="724" d="M77 1161.5q-8 14.5 7 36.5l149 201q35 51 80 51h99q40 0 80 -51l149 -201q15 -22 7 -36.5t-34 -14.5h-131q-43 0 -69 51l-52 92l-51 -92q-27 -51 -69 -51h-131q-26 0 -34 14.5z" />
<glyph unicode="&#x2c7;" horiz-adv-x="724" d="M77 1435.5q8 14.5 34 14.5h131q43 0 69 -49l51 -94l52 94q26 49 69 49h131q26 0 34 -14.5t-7 -34.5l-149 -203q-40 -51 -80 -51h-99q-17 0 -32.5 8t-24.5 17.5t-23 27.5l-149 201q-15 20 -7 34.5z" />
<glyph unicode="&#x2d8;" horiz-adv-x="854" d="M143 1374v29q0 23 10 33t35 10h101q25 0 35 -10t10 -33v-35q0 -90 94 -90q51 0 71.5 23.5t20.5 66.5v35q0 23 10 33t35 10h101q25 0 35 -10t10 -33v-29q0 -122 -75 -188t-216 -66q-138 0 -207.5 65.5t-69.5 188.5z" />
<glyph unicode="&#x2d9;" horiz-adv-x="509" d="M119 1221v165q0 28 11 40t38 12h176q26 0 36.5 -12t10.5 -40v-165q0 -28 -10.5 -40t-36.5 -12h-176q-27 0 -38 12t-11 40z" />
<glyph unicode="&#x2da;" horiz-adv-x="731" d="M139 1270v69q0 68 58 112t170 44q111 0 168 -44t57 -112v-69q0 -68 -57 -112t-168 -44q-112 0 -170 44t-58 112zM283 1288q0 -61 84 -61q82 0 82 61v31q0 61 -82 61q-84 0 -84 -61v-31z" />
<glyph unicode="&#x2db;" horiz-adv-x="475" d="M37 -170q0 113 106 233q39 44 82 37l78 -12q31 -5 39 -21.5t-14 -33.5q-92 -69 -92 -150q0 -38 25 -50.5t71 -12.5h39q28 0 39.5 -11t11.5 -38v-70q0 -28 -11.5 -39.5t-39.5 -11.5h-119q-94 0 -154.5 47.5t-60.5 132.5z" />
<glyph unicode="&#x2dc;" horiz-adv-x="835" d="M68 1196l8 86q7 75 57 116.5t121 41.5q65 0 121 -27l86 -41q8 -4 22 -10.5t22 -10.5t17.5 -7t16.5 -3q39 0 39 50v10q0 45 55 45h88q26 0 35.5 -15t7.5 -45l-6 -79q-6 -78 -53.5 -119t-114.5 -41q-69 0 -131 27l-88 38q-10 4 -29 13.5t-30 13.5t-19 4q-19 0 -26.5 -10.5 t-12.5 -38.5l-2 -12q-4 -26 -16 -35.5t-37 -9.5h-90q-48 0 -41 59z" />
<glyph unicode="&#x2dd;" horiz-adv-x="827" d="M78 1161q-9 14 0 37l86 201q22 51 69 51h150q27 0 36.5 -15.5t-1.5 -35.5l-113 -201q-14 -27 -27.5 -39t-39.5 -12h-125q-26 0 -35 14zM370 1161q-7 14 7 37l117 201q28 51 77 51h150q27 0 34 -15.5t-7 -35.5l-144 -203q-34 -49 -76 -49h-125q-26 0 -33 14z" />
<glyph unicode="&#x394;" horiz-adv-x="819" d="M174 473v371q0 51 49 51h373q49 0 49 -51v-371q0 -28 -11.5 -39.5t-37.5 -11.5h-373q-26 0 -37.5 11.5t-11.5 39.5z" />
<glyph unicode="&#x3a9;" horiz-adv-x="819" d="M131 655q0 116 81.5 198.5t195.5 82.5t196 -83t82 -198q0 -114 -82 -195t-196 -81t-195.5 81t-81.5 195zM172 655q0 -100 68 -167.5t168 -67.5q99 0 168 68t69 167t-69.5 169.5t-167.5 70.5q-99 0 -167.5 -70.5t-68.5 -169.5z" />
<glyph unicode="&#x3bc;" horiz-adv-x="1103" d="M111 -360v1329q0 28 11.5 39.5t37.5 11.5h168q27 0 39 -12t12 -39v-643q0 -58 24 -83.5t86 -25.5q114 0 226 90v662q0 28 11 39.5t38 11.5h170q26 0 37.5 -11.5t11.5 -39.5v-918q0 -28 -11.5 -39.5t-37.5 -11.5h-158q-27 0 -37.5 11t-13.5 40l-4 45q-126 -112 -307 -112 q-28 0 -49 6l14 -350q2 -28 -9.5 -40t-39.5 -12h-170q-26 0 -37.5 12t-11.5 40z" />
<glyph unicode="&#x3c0;" horiz-adv-x="819" d="M100 886q-3 16 3.5 28t23.5 12h561q25 0 29.5 -24.5t-10.5 -47.5l-263 -424q-14 -22 -35.5 -22t-33.5 22l-262 424q-10 16 -13 32z" />
<glyph unicode="&#x10d0;" horiz-adv-x="878" d="M66 252v274q0 21 12 34t35 13h120q48 0 48 -47v-217q0 -92 19 -120.5t95 -28.5h74q68 0 92.5 27t24.5 110l2 315q0 73 -26 142t-64 120t-82.5 107.5t-82.5 106.5t-63.5 116t-25.5 135v47q0 21 12.5 34.5t34.5 13.5h121q47 0 47 -48v-45q0 -61 35.5 -128.5t86 -131.5 t101 -133t86 -157t35.5 -179l-2 -305q-1 -64 -5 -106.5t-17 -81.5t-35 -61.5t-58.5 -40t-87.5 -24.5t-123 -7h-84q-88 0 -143 9.5t-99 37.5t-63.5 81t-19.5 138z" />
<glyph unicode="&#x10d1;" horiz-adv-x="921" d="M78 317v410q0 169 73.5 233t256.5 64q0 40 -11.5 67.5t-29.5 42t-40.5 26t-44.5 24t-40 29.5t-29.5 49.5t-11.5 78.5v45q0 21 12.5 34.5t34.5 13.5h127q47 0 47 -48v-34q0 -50 20 -79.5t48 -44.5t56 -34t48 -62.5t20 -113.5q59 -3 102.5 -22.5t68 -47t39 -68t18.5 -76.5 t4 -81v-406q0 -75 -4 -123.5t-18 -88t-35 -60.5t-59.5 -35.5t-86 -19t-121.5 -4.5h-116q-66 0 -108.5 3.5t-83 15.5t-63 34t-41 59t-25.5 90.5t-7 128.5zM301 313q5 -96 29 -122.5t108 -26.5h43q93 0 118.5 28t25.5 132v370q0 49 -3.5 73.5t-19 43.5t-43.5 25t-80 6h-35 q-93 0 -118 -25.5t-25 -107.5v-396z" />
<glyph unicode="&#x10d2;" horiz-adv-x="935" d="M80 319v404q0 79 16 134t42.5 87.5t72.5 50.5t92.5 23.5t116.5 5.5h92v172q0 46 -17.5 65t-78.5 19q-50 0 -67 -21.5t-17 -54.5v-20q0 -21 -12 -34t-35 -13h-127q-47 0 -47 47v18q0 48 14 88.5t46 77.5t94 58.5t149 21.5q170 0 239.5 -64.5t69.5 -230.5v-156 q80 -26 107.5 -93t27.5 -193v-375q0 -112 -14.5 -178.5t-54.5 -106t-99 -52.5t-160 -13h-122q-75 0 -129 9t-90 29.5t-58 45t-33 66.5t-14.5 82t-3.5 101zM301 317q0 -91 23.5 -120t95.5 -29h98q74 0 96.5 32t22.5 128v366q0 92 -29 120t-114 28h-50q-48 0 -76.5 -7.5 t-43 -27t-19 -43.5t-4.5 -66v-381z" />
<glyph unicode="&#x10d3;" horiz-adv-x="894" d="M80 317v813q0 100 15.5 162t54 97t92 47t141.5 12h135q77 0 132 -15t88 -40.5t51.5 -69t25 -90t6.5 -113.5v-418q0 -67 -7.5 -110.5t-28.5 -81t-61 -58t-104 -31.5t-159 -11h-23q-99 0 -143 28v-106q0 -72 12 -106t33.5 -43t69.5 -9l317 2q21 0 34 -12t13 -35v-82 q0 -47 -47 -47h-332q-96 0 -151.5 11.5t-95 46t-54 95.5t-14.5 164zM295 723q0 -47 3.5 -70.5t19 -41t42.5 -22.5t78 -5h23q31 0 54.5 3.5t39 8t26 16.5t16 20.5t8 29t3 33.5t0.5 42v381q0 97 -26 127.5t-88 30.5h-86q-35 0 -52.5 -3.5t-33.5 -18t-21.5 -45.5t-5.5 -85v-401 z" />
<glyph unicode="&#x10d4;" horiz-adv-x="927" d="M70 526q0 21 12 34t35 13h127q47 0 47 -47v-198q0 -98 22 -130t93 -32h114q64 0 85.5 32t21.5 117v815q0 81 -26 107.5t-116 26.5h-55q-64 0 -91 -31.5t-30 -104.5v-59q0 -47 -47 -47h-123q-23 0 -35 13t-12 34v47q0 104 19.5 170t63.5 101.5t101 48t146 12.5h74 q113 0 181.5 -15t107.5 -54.5t52 -94t13 -145.5v-840q0 -92 -18.5 -153.5t-58.5 -96.5t-94 -49t-134 -14h-139q-70 0 -115 4t-86 16.5t-63.5 34t-39.5 58.5t-23.5 88.5t-6.5 125.5z" />
<glyph unicode="&#x10d5;" horiz-adv-x="944" d="M74 526q0 21 12 34t35 13h125q47 0 47 -47l2 -198q0 -98 22 -130t93 -32h131q64 0 85 32t21 117v244q0 93 -24 121.5t-105 28.5h-33q-34 0 -34 32v121q0 27 34 27q90 0 116 20.5t26 79.5v141q0 81 -26 107.5t-116 26.5h-57q-64 0 -91 -31.5t-30 -104.5v-59q0 -47 -47 -47 h-123q-23 0 -35 13t-12 34v47q0 104 19.5 170t63.5 101.5t101 48t146 12.5h76q113 0 181.5 -15t107.5 -54.5t52 -94t13 -145.5v-148q0 -56 -34 -104.5t-95 -81.5v-10q67 -10 108 -76t41 -125v-295q0 -92 -18.5 -153.5t-58.5 -96.5t-94 -49t-134 -14h-155q-70 0 -115 4 t-86 16.5t-63.5 34t-39.5 58.5t-23.5 88.5t-6.5 125.5z" />
<glyph unicode="&#x10d6;" horiz-adv-x="927" d="M39 1167q0 152 69 216.5t205 64.5h84q71 0 122.5 -21.5t79 -59t40 -80t12.5 -91.5q0 -132 -63 -180q266 -32 266 -303v-402q0 -54 -1.5 -89.5t-7.5 -71.5t-15.5 -57.5t-27 -42t-40.5 -31t-58 -19t-77.5 -11.5t-100.5 -3h-92q-72 0 -119.5 5t-86 20.5t-60 38.5t-36 63.5 t-19 91t-4.5 125.5v368q0 53 23 120t61 95q-154 74 -154 254zM242 1116q0 -70 53 -108q40 13 137 16q14 26 16.5 41.5t2.5 54.5v80q0 55 -21.5 76.5t-79.5 21.5q-59 0 -83.5 -22t-24.5 -76v-84zM324 319q0 -34 3 -59t7 -42.5t14.5 -28.5t18 -17t27 -8.5t31.5 -3t40 -0.5h33 q48 0 70 2.5t40.5 15.5t23.5 37.5t5 71.5v426q0 83 -24 110t-107 27h-51q-83 0 -107 -30.5t-24 -121.5v-379z" />
<glyph unicode="&#x10d7;" horiz-adv-x="1300" d="M78 283v864q0 69 20 122.5t52.5 86.5t79.5 54.5t96 29.5t106 8q68 0 142.5 -33t103.5 -88h10q62 121 207 121h39q160 0 224.5 -71t64.5 -249v-1081q0 -47 -47 -47h-127q-23 0 -35.5 13t-12.5 34v1106q0 59 -23 85t-91 26q-57 0 -75.5 -38.5t-18.5 -113.5v-790 q0 -98 -13.5 -158t-51.5 -102t-104.5 -59t-174.5 -17h-37q-99 0 -165 19t-102.5 59t-51.5 92t-15 127zM301 287q0 -121 127 -121q141 0 141 113v880q0 55 -32 80t-109 25q-66 0 -96.5 -25t-30.5 -98v-854z" />
<glyph unicode="&#x10d8;" horiz-adv-x="907" d="M84 47v1081q0 174 64.5 247t240.5 73h135q81 0 138 -17.5t89 -44.5t50 -73t23 -89.5t5 -107.5v-1069q0 -47 -47 -47h-120q-23 0 -35.5 13t-12.5 34v1081q0 83 -25 114.5t-100 31.5h-65q-78 0 -101.5 -31.5t-23.5 -126.5v-1069q0 -47 -47 -47h-121q-23 0 -35 13t-12 34z " />
<glyph unicode="&#x10d9;" horiz-adv-x="909" d="M55 317v209q0 21 12 34t35 13h127q47 0 47 -47v-198q0 -99 25 -130.5t109 -31.5h53q45 0 68.5 4t44 18.5t27.5 44.5t7 82v402q0 45 -3.5 66.5t-19 36.5t-41.5 18.5t-77 3.5h-92q-47 0 -47 47v88q0 23 13 35t34 12h90q50 0 78 6.5t42.5 26t18.5 44.5t4 73v212 q0 21 12.5 34.5t34.5 13.5h129q48 0 48 -48v-223q0 -121 -119 -223v-10q54 -14 86.5 -65.5t32.5 -98.5v-442q0 -104 -14.5 -167.5t-53.5 -103t-99 -53.5t-159 -14h-129q-97 0 -156 13.5t-98.5 51.5t-54.5 101t-15 165z" />
<glyph unicode="&#x10da;" horiz-adv-x="925" d="M78 330v784q0 106 16.5 171t57 101.5t95.5 49t146 12.5h139q60 0 100.5 -4.5t79 -17.5t62 -36.5t41.5 -61.5t25.5 -93t7.5 -131v-606q0 -21 -12 -34t-35 -13h-125q-47 0 -47 47v622q0 85 -22.5 116.5t-96.5 31.5h-90q-76 0 -98.5 -33.5t-22.5 -126.5v-772 q0 -48 3.5 -73.5t16 -46.5t38 -28.5t69.5 -7.5h324q21 0 34 -12t13 -35v-86q0 -47 -47 -47h-340q-89 0 -148 12.5t-96 35t-56 65.5t-25.5 91.5t-6.5 125.5z" />
<glyph unicode="&#x10db;" horiz-adv-x="921" d="M76 313v416q0 91 16.5 147t59.5 89.5t107 46t169 12.5h61q70 0 134 -41v143q0 82 -27 110t-88 28h-96q-121 0 -121 -97q0 -47 -47 -47h-121q-23 0 -35 13t-12 34q-2 145 72 213t243 68h137q94 0 157 -23.5t97.5 -72.5t48 -111t13.5 -151v-795q0 -94 -16 -152.5t-55.5 -94 t-99 -49t-155.5 -13.5h-117q-62 0 -102 3.5t-80.5 15t-64 33.5t-43 58t-27.5 89.5t-8 127.5zM297 324q0 -39 3 -66t12 -44.5t17.5 -27t29 -14t36 -5.5t47.5 -1h37q89 0 116.5 30t27.5 140v369q0 81 -27 109t-113 28h-47q-50 0 -78.5 -7t-41.5 -27.5t-16 -41.5t-3 -66v-376z " />
<glyph unicode="&#x10dc;" horiz-adv-x="888" d="M82 297v852q0 164 67 224.5t236 60.5h332q47 0 47 -48v-75q0 -23 -13 -35t-34 -12h-332q-57 0 -72.5 -32t-15.5 -118v-127q56 37 152 37h69q59 0 103.5 -7t76.5 -18.5t53.5 -33t34.5 -44t20 -58t9 -68t2 -80.5v-408q0 -100 -12.5 -159t-49.5 -97t-95.5 -51.5 t-157.5 -13.5h-105q-98 0 -157.5 14.5t-95.5 52.5t-49 94.5t-13 149.5zM297 307q0 -92 24 -119.5t109 -27.5h35q45 0 68 4t40.5 19.5t23 43.5t5.5 78v412q0 78 -26 105.5t-99 27.5h-55q-31 0 -52.5 -3t-35.5 -12.5t-21.5 -18t-11 -28t-4 -33t-0.5 -42.5v-406z" />
<glyph unicode="&#x10dd;" horiz-adv-x="1245" d="M82 47v1096q0 77 18 133.5t46 89t71.5 51.5t85 25t96.5 6q84 0 132.5 -27t82.5 -80h11q28 46 84 76.5t114 30.5q36 0 57.5 -0.5t55 -3.5t53.5 -9t47 -17t43 -26.5t34 -40t27.5 -55.5t16 -73t6.5 -93v-1083q0 -47 -47 -47h-125q-23 0 -35 13t-12 34v21l2 1034 q0 47 -4.5 77t-11.5 47.5t-24 25.5t-33 10t-48 2q-56 0 -74 -34.5t-18 -111.5v-661q0 -47 -47 -47h-131q-23 0 -35 13t-12 34v657q0 87 -19 118.5t-73 31.5q-60 0 -88.5 -24.5t-28.5 -104.5v-1088q0 -47 -47 -47h-123q-23 0 -35 13t-12 34z" />
<glyph unicode="&#x10de;" horiz-adv-x="923" d="M59 526q0 21 12 34t35 13h125q48 0 48 -47l2 -198q0 -11 -0.5 -35t0 -31.5t1 -25t3 -22t6 -15.5t9.5 -13.5t14.5 -8.5t20 -7t26.5 -2.5t34 -1.5h131q64 0 85.5 32t21.5 117v148q0 93 -24 121t-105 28h-33q-17 0 -26 9.5t-9 23.5v121q0 27 35 27q90 0 115.5 20.5 t25.5 79.5v68q0 31 -18.5 55.5t-48 42t-65.5 35t-72 39.5t-65.5 50t-48 73.5t-18.5 103.5v26q0 21 12.5 34.5t35.5 13.5h120q50 0 50 -48v-26q0 -37 25.5 -70.5t63.5 -58t82 -53t82 -55.5t63.5 -66.5t25.5 -83.5v-78q0 -143 -109 -193v-10q55 -22 92 -83.5t37 -110.5v-199 q0 -92 -18.5 -153.5t-58.5 -96.5t-94 -49t-134 -14h-156q-70 0 -115 4t-86 16.5t-63.5 34t-39.5 59t-23 88.5t-7 125z" />
<glyph unicode="&#x10df;" horiz-adv-x="946" d="M57 805v76q0 47 47 47h60q64 0 85 32t21 117v94l-88 -22q-23 -3 -38 5.5t-15 31.5v78q0 49 47 61l442 111h181q63 0 63 -62v-1075q0 -92 -18.5 -153.5t-58.5 -96.5t-94 -49t-134 -14h-139q-70 0 -115 4t-86 16.5t-63.5 34t-39.5 58.5t-23.5 88.5t-6.5 125.5l-2 213 q0 21 12 34t35 13h127q47 0 47 -47v-198q0 -98 22 -130t93 -32h114q64 0 85.5 32t21.5 117v953l-174 -41v-162q0 -124 -28 -190.5t-85.5 -91.5t-163.5 -25h-59h-25q-21 0 -34 12t-13 35z" />
<glyph unicode="&#x10e0;" horiz-adv-x="1243" d="M86 47v1047q0 164 96 252t275 88h538q47 0 47 -48v-79q0 -23 -13 -35t-34 -12h-524q-170 0 -170 -181v-104q60 49 137 49q134 0 189 -98h10q22 44 77 71t113 27q37 0 58 -0.5t54.5 -3.5t53.5 -8.5t47 -16.5t43 -27t34 -40t27.5 -55t16 -73t6.5 -93v-660q0 -47 -47 -47 h-125q-23 0 -35 13t-12 34v21l2 610q0 47 -4.5 77t-11.5 47.5t-24 25.5t-33 10t-48 2q-56 0 -74 -34.5t-18 -111.5v-340q0 -47 -47 -47h-131q-23 0 -35 13t-12 34v336q0 87 -19 118.5t-73 31.5q-60 0 -88.5 -24.5t-28.5 -104.5v-664q0 -47 -47 -47h-123q-23 0 -35 13t-12 34 z" />
<glyph unicode="&#x10e1;" horiz-adv-x="907" d="M82 319v1067q0 48 47 48h127q22 0 34.5 -13.5t12.5 -34.5v-1060q0 -93 22.5 -126.5t98.5 -33.5h70q74 0 96 31t22 116v643q0 48 47 48h125q22 0 34.5 -13.5t12.5 -34.5v-626q0 -76 -7.5 -131t-25.5 -93t-41 -61.5t-61.5 -36.5t-79 -17.5t-100.5 -4.5h-119 q-91 0 -146 12.5t-95.5 48.5t-57 101.5t-16.5 170.5z" />
<glyph unicode="&#x10e2;" horiz-adv-x="1163" d="M92 326v753q0 164 96 252t275 88h39v19q0 39 47 39h90q27 0 37 -9t10 -30v-19h33q178 0 272 -87.5t94 -252.5v-753q0 -164 -95.5 -252t-274.5 -88h-252q-179 0 -275 88t-96 252zM307 340q0 -180 170 -180h223q170 0 170 180v725q0 96 -40.5 138t-118.5 42l-37 6 q10 -65 10 -155l6 -432q0 -52 -47 -52h-98q-22 0 -34.5 15t-12.5 37l6 430q0 105 8 157l-35 -6q-170 0 -170 -180v-725z" />
<glyph unicode="&#x10e3;" horiz-adv-x="983" d="M25 1296v90q0 23 13 35.5t34 12.5h90q65 0 119 -29.5t79 -77.5h9q29 52 84.5 86.5t132.5 34.5q55 0 96.5 -6t85 -25t71.5 -51.5t46 -89t18 -133.5v-844q0 -92 -18.5 -153.5t-58.5 -96.5t-94 -49t-134 -14h-156q-70 0 -115 4t-85.5 16.5t-63 34t-40 58.5t-23.5 88.5 t-6 125.5v213q0 21 12 34t35 13h125q47 0 47 -47v-198q0 -98 21.5 -130t92.5 -32h131q64 0 85.5 32t21.5 117v820q0 80 -26 104.5t-85 24.5q-54 0 -73 -31.5t-19 -118.5v-248q0 -21 -12 -34t-35 -13h-131q-47 0 -47 47v238q0 77 -18 111t-74 34h-88q-47 0 -47 47z" />
<glyph unicode="&#x10e4;" horiz-adv-x="1234" d="M27 907v248q0 76 18 131t47.5 87t76 50.5t93.5 24.5t111 6q82 0 144 -36t87 -87h10q28 57 88.5 90t139.5 33q161 0 241 -67t80 -216v-180q0 -58 -37.5 -109.5t-95.5 -78.5v-10q57 -17 95 -80.5t38 -118.5v-258q0 -178 -93 -264t-253 -86h-196q-82 0 -138.5 8.5t-104 30.5 t-75 61t-42.5 100t-15 148l-2 90q0 21 12 34t35 13h125q47 0 47 -47l2 -90q0 -95 37.5 -131.5t118.5 -36.5h172q71 0 109 38.5t38 131.5v223q0 86 -20.5 118t-79.5 32q-17 0 -26 9t-9 23v121q0 27 35 27q100 0 100 100v162q0 66 -28 92.5t-85 26.5q-62 0 -93.5 -26.5 t-31.5 -92.5v-250q0 -48 -7 -85.5t-29 -77t-59 -65.5t-100.5 -42.5t-150.5 -16.5q-162 0 -245.5 77.5t-83.5 215.5zM248 924q0 -80 28 -104.5t95 -24.5q69 0 96 22.5t27 95.5v236q0 69 -27.5 95t-95.5 26q-64 0 -93.5 -26t-29.5 -93v-227z" />
<glyph unicode="&#x10e5;" horiz-adv-x="933" d="M70 526q0 21 12 34t35 13h127q47 0 47 -47v-198q0 -98 22 -130t93 -32h114q64 0 85.5 32t21.5 117v537q0 82 -33.5 114.5t-130.5 32.5q-48 0 -75.5 -7t-41.5 -26.5t-18 -43.5t-4 -70v-45q0 -47 -48 -47h-112q-23 0 -35 13t-12 34v80q0 166 78 230.5t260 64.5 q98 0 174 -72v276q0 48 47 48h127q22 0 34.5 -13.5t12.5 -34.5v-1087q0 -92 -18.5 -153.5t-58.5 -96.5t-94 -49t-134 -14h-139q-70 0 -115 4t-86 16.5t-63.5 34t-39.5 58.5t-23.5 88.5t-6.5 125.5z" />
<glyph unicode="&#x10e6;" horiz-adv-x="1245" d="M84 340v803q0 77 18 133.5t46 89t71.5 51.5t85 25t96.5 6q84 0 133 -31t84 -90h11q28 52 83.5 86.5t112.5 34.5q36 0 57.5 -0.5t55 -3.5t53.5 -9t47 -17t43 -26.5t34 -40t27.5 -55.5t16 -73t6.5 -93v-673q0 -47 -47 -47h-125q-23 0 -35 13t-12 34v20l2 625q0 47 -4.5 77 t-11.5 47.5t-24 25.5t-33 10t-48 2q-56 0 -74 -34.5t-18 -111.5v-354q0 -47 -47 -47h-131q-23 0 -35 13t-12 34v350q0 87 -19 118.5t-73 31.5q-60 0 -88.5 -24.5t-28.5 -104.5v-781q0 -180 168 -180h524q21 0 34 -12t13 -35v-80q0 -47 -47 -47h-538q-179 0 -275 88t-96 252z " />
<glyph unicode="&#x10e7;" horiz-adv-x="935" d="M76 424q0 21 12 34t35 13h127q47 0 47 -47v-96q0 -98 22 -130t93 -32h114q64 0 85.5 32t21.5 117v332q-57 -33 -135 -33h-45q-77 0 -127 3.5t-96 15t-72 31.5t-45.5 54t-27 81.5t-7.5 115.5v471q0 21 12.5 34.5t34.5 13.5h129q47 0 47 -48v-438q0 -96 26.5 -123.5 t125.5 -27.5h28q97 0 124.5 25.5t27.5 109.5v454q0 21 12.5 34.5t34.5 13.5h129q47 0 47 -48v-22v-1065q0 -92 -18.5 -153.5t-58.5 -96.5t-94 -49t-134 -14h-139q-70 0 -115 4t-86 16.5t-63.5 34t-39.5 58.5t-23.5 88.5t-6.5 125.5z" />
<glyph unicode="&#x10e8;" horiz-adv-x="940" d="M51 1296v90q0 23 13 35.5t34 12.5h62q69 0 123.5 -27t74.5 -76h11q53 117 194 117q73 0 123.5 -13t92 -47t61.5 -98.5t20 -161.5v-802q0 -109 -14.5 -174t-54.5 -102.5t-97.5 -50.5t-154.5 -13h-138q-95 0 -154 13.5t-99 49t-55 96t-13 156.5v399q0 67 9 116t31 83 t50 54.5t75 31.5t96 15t122 4h12q115 0 162 -37v153q0 86 -18.5 115t-71.5 29q-46 0 -64 -23t-18 -80v-18q0 -21 -12 -34t-35 -13h-121q-47 0 -47 47v22q0 48 -17.5 66t-74.5 18h-60q-47 0 -47 47zM301 328q0 -103 23 -132.5t98 -29.5h94q77 0 99 31.5t22 128.5v352 q0 91 -28.5 117t-123.5 26h-30q-52 0 -80 -5t-44.5 -23.5t-22 -43.5t-7.5 -75v-346z" />
<glyph unicode="&#x10e9;" horiz-adv-x="913" d="M82 70v1073q0 171 73.5 238t254.5 67h24q79 0 138 -19t93 -48.5t55 -73t27.5 -84t6.5 -88.5v-80q0 -77 -36.5 -152t-82.5 -119q209 -40 209 -286v-426q0 -18 -2.5 -30.5t-10.5 -20.5t-13 -12.5t-19 -6.5t-19.5 -2.5t-23.5 0t-23 0.5t-23.5 -0.5t-24.5 0t-19.5 2.5 t-19 6.5t-13 12.5t-10 20.5t-2.5 30.5v415q0 125 -127 125h-68q-119 0 -119 -125v-417q0 -15 -3 -26t-6.5 -18.5t-12 -12.5t-13.5 -8t-18 -4t-18 -1h-20.5h-20.5h-20.5h-21t-18 1t-18 4t-14 8t-12 12.5t-6.5 18.5t-3 26zM307 762q23 20 69.5 32.5t96.5 12.5q35 46 50.5 93.5 t15.5 117.5v119q0 61 -27 89.5t-92 28.5q-66 0 -89.5 -26.5t-23.5 -100.5v-366z" />
<glyph unicode="&#x10ea;" horiz-adv-x="962" d="M82 317v1069q0 21 12.5 34.5t34.5 13.5h127q47 0 47 -48v-1058q0 -100 24.5 -131t108.5 -31h74q45 0 68.5 4t44 18.5t27.5 44.5t7 82v398q0 79 -28 102t-113 23h-12q-47 0 -47 47v92q0 23 13 35t34 12h10q80 0 101.5 29.5t21.5 120.5v212q0 21 12.5 34.5t34.5 13.5h129 q47 0 47 -48v-223q0 -86 -21 -138.5t-75 -88.5v-6q53 -17 85 -69t32 -95v-442q0 -104 -14.5 -167.5t-53.5 -103t-99 -53.5t-159 -14h-149q-97 0 -156 13.5t-98.5 51.5t-54.5 101t-15 165z" />
<glyph unicode="&#x10eb;" horiz-adv-x="915" d="M66 313v416q0 41 1.5 68t6.5 58.5t15.5 51.5t27.5 41.5t43 34t61.5 23.5t83.5 15.5t109 4.5h69q70 0 127 -31v391q0 48 47 48h129q23 0 35.5 -13.5t12.5 -34.5v-1073q0 -50 -1.5 -83.5t-6.5 -68.5t-14.5 -57t-26 -44t-39.5 -34t-56 -22t-75.5 -14t-98.5 -4h-135 q-101 0 -162 16t-95.5 57t-46 99t-11.5 155zM287 313q0 -90 24 -118.5t109 -28.5h49q42 0 66 4.5t40.5 12.5t23.5 30.5t9 47.5t2 75l2 369q0 89 -27.5 114t-119.5 25h-29q-95 0 -122 -24.5t-27 -117.5v-389z" />
<glyph unicode="&#x10ec;" horiz-adv-x="931" d="M84 326v802q0 97 21.5 162t63.5 98.5t92 46.5t120 13q85 0 128.5 -28.5t76.5 -88.5h8q25 52 76 77.5t114 25.5h62q21 0 34 -12.5t13 -35.5v-90q0 -47 -47 -47h-60q-57 0 -74.5 -18t-17.5 -66v-22q0 -47 -47 -47h-121q-23 0 -35 13t-12 34v18q0 58 -17.5 80.5t-64.5 22.5 q-53 0 -71.5 -29t-18.5 -115v-153q47 37 162 37h12q73 0 122 -4t96 -15t75 -31.5t50 -54.5t31 -83t9 -116v-399q2 -96 -13 -156.5t-55 -96t-99 -49t-154 -13.5h-137q-65 0 -110 5.5t-82.5 19.5t-61 38t-39.5 62.5t-22.5 90t-6.5 124.5zM307 326q0 -97 22 -128.5t99 -31.5h94 q75 0 98 29.5t23 132.5v346q-2 50 -7.5 75t-22 43.5t-44.5 23.5t-80 5h-30q-95 0 -123.5 -26t-28.5 -117v-352z" />
<glyph unicode="&#x10ed;" horiz-adv-x="989" d="M51 424q0 21 12 34t35 13h127q47 0 47 -47v-96q0 -98 22 -130t93 -32h115q64 0 85 32t21 117v310l-86 -11h-104q-88 0 -144 12.5t-96.5 45t-58 89.5t-17.5 146q0 147 74.5 214t243.5 67h100l88 -10v215q4 41 47 41h129q47 0 47 -48v-202h82q21 0 34.5 -12.5t13.5 -34.5 v-78q0 -47 -48 -47h-82v-221h82q21 0 34.5 -12.5t13.5 -35.5v-77q0 -48 -48 -48h-82v-319q0 -92 -18.5 -153.5t-58.5 -96.5t-94 -49t-134 -14h-139q-70 0 -115 4t-86 16.5t-63.5 34t-39.5 58.5t-23.5 88.5t-6.5 125.5zM315 909q0 -24 3.5 -42.5t7.5 -30.5t14.5 -20t18 -12.5 t25.5 -6t28 -2t34 -0.5h162v213h-162q-31 0 -46 -1t-35 -6t-28.5 -15t-15 -29t-6.5 -48z" />
<glyph unicode="&#x10ee;" horiz-adv-x="921" d="M82 313v1073q0 21 12.5 34.5t34.5 13.5h129q47 0 47 -48v-391q57 31 127 31h70q61 0 109 -4.5t83.5 -15.5t61.5 -23.5t43 -34t27.5 -41.5t15.5 -51.5t6.5 -58.5t1.5 -68v-416q0 -97 -11.5 -155t-46 -99t-95.5 -57t-162 -16h-136q-56 0 -98.5 4t-75.5 14t-56 22t-39 34 t-25.5 44t-14.5 57.5t-6.5 68.5t-1.5 83zM303 705l2 -369q0 -50 2 -75t9 -47.5t23.5 -30.5t40.5 -12.5t66 -4.5h50q85 0 109 28.5t24 118.5v389q0 93 -27.5 117.5t-122.5 24.5h-28q-92 0 -120 -25t-28 -114z" />
<glyph unicode="&#x10ef;" horiz-adv-x="907" d="M43 1053v88q0 23 13 35t34 12h234v198q0 48 47 48h127q22 0 34.5 -13.5t12.5 -34.5v-198h235q21 0 34 -12t13 -35v-88q0 -47 -47 -47h-235v-209h8q118 0 183 -28.5t88.5 -82t23.5 -147.5v-215q0 -104 -14.5 -167.5t-53.5 -103t-99 -53.5t-159 -14h-129q-97 0 -156 13.5 t-98 51.5t-54 101t-15 165v107q0 21 12 34t35 13h127q47 0 47 -47v-96q0 -100 24.5 -131t108.5 -31h53q45 0 68.5 4t44 18.5t28 44.5t7.5 82v174q0 83 -23 104t-119 21h-112q-47 0 -47 48v344h-234q-47 0 -47 47z" />
<glyph unicode="&#x10f0;" horiz-adv-x="899" d="M51 424q0 21 12 34t35 13h127q47 0 47 -47v-82q0 -101 22.5 -138.5t92.5 -37.5h88q75 0 110.5 33.5t35.5 105.5q0 143 -127 146h-62q-47 0 -47 47v86q0 23 13 35t34 12h19q102 0 136 20t34 78q0 73 -31.5 91t-134.5 18h-23q-47 0 -47 47v86q0 23 13 35t34 12h62 q68 2 95 23t27 75q0 45 -32 63.5t-97 18.5q-76 0 -130.5 7.5t-101.5 27t-71 58t-24 95.5q0 21 12.5 34.5t34.5 13.5h104q25 0 37 -11.5t23 -36.5q10 -22 48.5 -28t141.5 -6q69 0 121.5 -20t81.5 -52.5t43 -68t14 -70.5v-64q0 -42 -32.5 -80.5t-81.5 -66.5v-8 q62 -27 92 -67.5t30 -104.5v-54q0 -47 -34.5 -85.5t-83.5 -63.5v-12q66 -24 97.5 -79t31.5 -114v-102q0 -82 -52.5 -140.5t-135.5 -86t-185 -27.5h-80q-194 0 -264 71.5t-70 270.5z" />
<glyph unicode="&#x1e80;" horiz-adv-x="1716" d="M29 1341q-13 52 39 52h182q46 0 59 -52l172 -698q8 -34 16 -77t13 -69l4 -26q10 68 37 172l176 698q13 52 61 52h166q49 0 62 -52l172 -696q20 -89 33 -203q19 136 36 201l177 698q13 52 59 52h156q52 0 39 -52l-326 -1290q-12 -51 -64 -51h-174q-45 0 -57 51l-180 713 q-8 30 -17.5 92.5t-11.5 89.5q-17 -124 -29 -182l-180 -713q-12 -51 -63 -51h-174q-46 0 -58 51zM574 1783q7 15 34 15h178q47 0 70 -51l98 -201q22 -51 -24 -51h-133q-42 0 -68 35l-147 215q-15 23 -8 38z" />
<glyph unicode="&#x1e81;" horiz-adv-x="1466" d="M23 969q-7 25 6.5 38t42.5 13h161q26 0 38.5 -12.5t19.5 -38.5l141 -537q4 -19 8 -42t6 -38.5t3 -17.5q0 14 24 98l150 537q7 26 18.5 38.5t36.5 12.5h164q47 0 57 -51l125 -537l8.5 -42.5t6.5 -36.5t3 -17q0 6 23 96l139 537q7 26 19.5 38.5t38.5 12.5h135q28 0 41 -13 t6 -38l-262 -922q-8 -28 -17.5 -37.5t-34.5 -9.5h-202q-26 0 -36.5 10.5t-17.5 36.5l-114 485q-19 78 -19 109q0 -1 -4 -18.5t-10 -42.5t-12 -48l-142 -485q-7 -26 -16.5 -36.5t-34.5 -10.5h-198q-26 0 -37 10.5t-17 36.5zM467 1435.5q7 14.5 33 14.5h178q49 0 72 -51 l98 -201q22 -51 -27 -51h-133q-40 0 -65 35l-148 217q-15 22 -8 36.5z" />
<glyph unicode="&#x1e82;" horiz-adv-x="1716" d="M29 1341q-13 52 39 52h182q46 0 59 -52l172 -698q8 -34 16 -77t13 -69l4 -26q10 68 37 172l176 698q13 52 61 52h166q49 0 62 -52l172 -696q20 -89 33 -203q19 136 36 201l177 698q13 52 59 52h156q52 0 39 -52l-326 -1290q-12 -51 -64 -51h-174q-45 0 -57 51l-180 713 q-8 30 -17.5 92.5t-11.5 89.5q-17 -124 -29 -182l-180 -713q-12 -51 -63 -51h-174q-46 0 -58 51zM772 1546l100 201q23 51 70 51h178q27 0 34.5 -14.5t-7.5 -36.5l-150 -217q-25 -35 -65 -35h-133q-53 0 -27 51z" />
<glyph unicode="&#x1e83;" horiz-adv-x="1466" d="M23 969q-7 25 6.5 38t42.5 13h161q26 0 38.5 -12.5t19.5 -38.5l141 -537q4 -19 8 -42t6 -38.5t3 -17.5q0 14 24 98l150 537q7 26 18.5 38.5t36.5 12.5h164q47 0 57 -51l125 -537l8.5 -42.5t6.5 -36.5t3 -17q0 6 23 96l139 537q7 26 19.5 38.5t38.5 12.5h135q28 0 41 -13 t6 -38l-262 -922q-8 -28 -17.5 -37.5t-34.5 -9.5h-202q-26 0 -36.5 10.5t-17.5 36.5l-114 485q-19 78 -19 109q0 -1 -4 -18.5t-10 -42.5t-12 -48l-142 -485q-7 -26 -16.5 -36.5t-34.5 -10.5h-198q-26 0 -37 10.5t-17 36.5zM662 1198l98 201q23 51 71 51h179q26 0 32.5 -14.5 t-8.5 -36.5l-147 -217q-25 -35 -66 -35h-133q-48 0 -26 51z" />
<glyph unicode="&#x1e84;" horiz-adv-x="1716" d="M29 1341q-13 52 39 52h182q46 0 59 -52l172 -698q26 -113 33 -170q0 28 37 170l176 698q13 52 61 52h166q49 0 62 -52l172 -696q20 -89 33 -203q19 136 36 201l177 698q13 52 59 52h156q52 0 39 -52l-326 -1290q-12 -51 -64 -51h-174q-45 0 -57 51l-180 713 q-8 30 -17.5 92.5t-11.5 89.5q-17 -124 -29 -182l-180 -713q-12 -51 -63 -51h-174q-46 0 -58 51zM614 1550v191q0 53 50 53h100q27 0 38 -12.5t11 -40.5v-191q0 -28 -11 -39.5t-38 -11.5h-100q-26 0 -38 11.5t-12 39.5zM901 1550v191q0 28 11 40.5t38 12.5h101 q26 0 36.5 -12.5t10.5 -40.5v-191q0 -28 -10.5 -39.5t-36.5 -11.5h-101q-27 0 -38 11.5t-11 39.5z" />
<glyph unicode="&#x1e85;" horiz-adv-x="1466" d="M23 969q-7 25 6.5 38t42.5 13h161q26 0 38.5 -12.5t19.5 -38.5l141 -537q4 -19 8 -42t6 -38.5t3 -17.5q0 14 24 98l150 537q7 26 18.5 38.5t36.5 12.5h164q47 0 57 -51l125 -537l8.5 -42.5t6.5 -36.5t3 -17q0 6 23 96l139 537q7 26 19.5 38.5t38.5 12.5h135q28 0 41 -13 t6 -38l-262 -922q-8 -28 -17.5 -37.5t-34.5 -9.5h-202q-26 0 -36.5 10.5t-17.5 36.5l-114 485q-19 78 -19 109q0 -1 -4 -18.5t-10 -42.5t-12 -48l-142 -485q-7 -26 -16.5 -36.5t-34.5 -10.5h-198q-26 0 -37 10.5t-17 36.5zM506 1204v191q0 28 11 39.5t38 11.5h100 q26 0 36.5 -11.5t10.5 -39.5v-191q0 -28 -10.5 -39.5t-36.5 -11.5h-100q-27 0 -38 11.5t-11 39.5zM791 1204v191q0 28 11.5 39.5t39.5 11.5h100q26 0 36.5 -11.5t10.5 -39.5v-191q0 -28 -10.5 -39.5t-36.5 -11.5h-100q-28 0 -39.5 11.5t-11.5 39.5z" />
<glyph unicode="&#x1ef2;" horiz-adv-x="1116" d="M30 1378.5q10 14.5 36 14.5h202q42 0 62 -52l194 -467q26 -70 35 -108q16 65 37 108l217 467q11 26 23 39t36 13h177q27 0 37 -13.5t-1 -38.5l-387 -809v-481q0 -27 -11 -39t-38 -12h-178q-27 0 -39 12t-12 39v449l-389 841q-11 23 -1 37.5zM283 1783q7 15 34 15h179 q46 0 69 -51l99 -201q22 -51 -25 -51h-133q-42 0 -68 35l-147 215q-15 23 -8 38z" />
<glyph unicode="&#x1ef3;" horiz-adv-x="970" d="M23 969q-9 24 5 37.5t42 13.5h170q26 0 37 -12t20 -39l154 -469q8 -25 14.5 -56t10 -53t6.5 -42t3 -21q0 1 3 13.5t6.5 29.5t8.5 37.5t12 43t13 40.5l162 477q8 27 19 39t36 12h156q29 0 43.5 -13.5t5.5 -37.5l-452 -1329q-15 -52 -58 -52h-123q-29 0 -42.5 13.5 t-6.5 38.5l101 333zM213 1435.5q7 14.5 33 14.5h178q49 0 72 -51l98 -201q22 -51 -27 -51h-133q-40 0 -65 35l-148 217q-15 22 -8 36.5z" />
<glyph unicode="&#x2000;" horiz-adv-x="987" />
<glyph unicode="&#x2001;" horiz-adv-x="1974" />
<glyph unicode="&#x2002;" horiz-adv-x="987" />
<glyph unicode="&#x2003;" horiz-adv-x="1974" />
<glyph unicode="&#x2004;" horiz-adv-x="658" />
<glyph unicode="&#x2005;" horiz-adv-x="493" />
<glyph unicode="&#x2006;" horiz-adv-x="329" />
<glyph unicode="&#x2007;" horiz-adv-x="329" />
<glyph unicode="&#x2008;" horiz-adv-x="246" />
<glyph unicode="&#x2009;" horiz-adv-x="394" />
<glyph unicode="&#x200a;" horiz-adv-x="109" />
<glyph unicode="&#x2010;" horiz-adv-x="892" d="M121 530v121q0 27 12 38t39 11h549q27 0 39 -11t12 -38v-121q0 -49 -51 -49h-549q-51 0 -51 49z" />
<glyph unicode="&#x2011;" horiz-adv-x="892" d="M121 530v121q0 27 12 38t39 11h549q27 0 39 -11t12 -38v-121q0 -49 -51 -49h-549q-51 0 -51 49z" />
<glyph unicode="&#x2012;" horiz-adv-x="892" d="M121 530v121q0 27 12 38t39 11h549q27 0 39 -11t12 -38v-121q0 -49 -51 -49h-549q-51 0 -51 49z" />
<glyph unicode="&#x2013;" horiz-adv-x="1091" d="M121 530v121q0 27 12 38t39 11h748q27 0 39 -11t12 -38v-121q0 -49 -51 -49h-748q-51 0 -51 49z" />
<glyph unicode="&#x2014;" horiz-adv-x="1726" d="M121 530v121q0 27 12 38t39 11h1382q28 0 40 -11t12 -38v-121q0 -26 -12 -37.5t-40 -11.5h-1382q-51 0 -51 49z" />
<glyph unicode="&#x2018;" horiz-adv-x="544" d="M111 1085v152q0 233 295 303q27 6 40.5 -0.5t22.5 -32.5l41 -114q17 -49 -33 -64q-54 -18 -74 -42t-20 -64v-138q0 -28 -11 -39.5t-38 -11.5h-176q-26 0 -36.5 11.5t-10.5 39.5z" />
<glyph unicode="&#x2019;" horiz-adv-x="544" d="M35 1182q-16 48 33 63q54 18 74 42.5t20 64.5v137q0 28 11 39.5t38 11.5h176q26 0 36.5 -11.5t10.5 -39.5v-152q0 -233 -295 -303q-27 -6 -40.5 0.5t-22.5 32.5z" />
<glyph unicode="&#x201a;" horiz-adv-x="544" d="M35 -90q-16 48 33 63q54 18 74 42.5t20 64.5v137q0 28 11 39.5t38 11.5h176q26 0 36.5 -11.5t10.5 -39.5v-151q0 -234 -295 -304q-27 -6 -40.5 0.5t-22.5 32.5z" />
<glyph unicode="&#x201c;" horiz-adv-x="991" d="M111 1085v152q0 233 295 303q27 6 40.5 -0.5t22.5 -32.5l41 -114q17 -49 -33 -64q-54 -18 -74 -42t-20 -64v-138q0 -28 -11 -39.5t-38 -11.5h-176q-26 0 -36.5 11.5t-10.5 39.5zM557 1085v152q0 233 295 303q27 6 40.5 -0.5t22.5 -32.5l41 -114q17 -49 -32 -64 q-54 -18 -74.5 -42t-20.5 -64v-138q0 -28 -11 -39.5t-38 -11.5h-176q-26 0 -36.5 11.5t-10.5 39.5z" />
<glyph unicode="&#x201d;" horiz-adv-x="991" d="M35 1182q-16 48 33 63q54 18 74 42.5t20 64.5v137q0 28 11 39.5t38 11.5h176q26 0 36.5 -11.5t10.5 -39.5v-152q0 -233 -295 -303q-27 -6 -40.5 0.5t-22.5 32.5zM481 1182q-16 48 33 63q54 18 74 42.5t20 64.5v137q0 28 11 39.5t38 11.5h177q26 0 36.5 -11.5t10.5 -39.5 v-152q0 -233 -295 -303q-27 -6 -41 0.5t-23 32.5z" />
<glyph unicode="&#x201e;" horiz-adv-x="991" d="M35 -90q-16 48 33 63q54 18 74 42.5t20 64.5v137q0 28 11 39.5t38 11.5h176q26 0 36.5 -11.5t10.5 -39.5v-151q0 -234 -295 -304q-27 -6 -40.5 0.5t-22.5 32.5zM481 -90q-16 48 33 63q54 18 74 42.5t20 64.5v137q0 28 11 39.5t38 11.5h177q26 0 36.5 -11.5t10.5 -39.5 v-151q0 -234 -295 -304q-27 -6 -41 0.5t-23 32.5z" />
<glyph unicode="&#x2020;" horiz-adv-x="1388" d="M143 883v123q0 26 12 36.5t40 10.5h260q27 0 39 -10.5t12 -36.5v-123q0 -52 -51 -52h-260q-28 0 -40 12t-12 40zM561 53v1325q0 54 49 54h172q26 0 36.5 -13t10.5 -41v-1325q0 -28 -10.5 -40.5t-36.5 -12.5h-172q-26 0 -37.5 12.5t-11.5 40.5zM885 883v123 q0 26 12.5 36.5t40.5 10.5h258q27 0 39 -10.5t12 -36.5v-123q0 -52 -51 -52h-258q-28 0 -40.5 12t-12.5 40z" />
<glyph unicode="&#x2021;" horiz-adv-x="1388" d="M143 424v121q0 27 12 38t40 11h260q27 0 39 -11t12 -38v-121q0 -27 -12 -39t-39 -12h-260q-28 0 -40 11.5t-12 39.5zM143 883v123q0 26 12 36.5t40 10.5h260q27 0 39 -10.5t12 -36.5v-123q0 -52 -51 -52h-260q-28 0 -40 12t-12 40zM561 53v1325q0 54 49 54h172 q26 0 36.5 -13t10.5 -41v-1325q0 -28 -10.5 -40.5t-36.5 -12.5h-172q-26 0 -37.5 12.5t-11.5 40.5zM885 424v121q0 27 12.5 38t40.5 11h258q27 0 39 -11t12 -38v-121q0 -27 -12 -39t-39 -12h-258q-28 0 -40.5 12t-12.5 39zM885 883v123q0 26 12.5 36.5t40.5 10.5h258 q27 0 39 -10.5t12 -36.5v-123q0 -52 -51 -52h-258q-28 0 -40.5 12t-12.5 40z" />
<glyph unicode="&#x2022;" horiz-adv-x="559" d="M143 408v297q0 53 50 53h176q26 0 36.5 -12.5t10.5 -40.5v-297q0 -28 -10.5 -40t-36.5 -12h-176q-26 0 -38 12t-12 40z" />
<glyph unicode="&#x2026;" horiz-adv-x="1525" d="M119 51v166q0 28 11.5 39.5t39.5 11.5h174q27 0 38 -11.5t11 -39.5v-166q0 -28 -11 -39.5t-38 -11.5h-174q-28 0 -39.5 11.5t-11.5 39.5zM627 51v166q0 28 11.5 39.5t39.5 11.5h174q27 0 38 -11.5t11 -39.5v-166q0 -28 -11 -39.5t-38 -11.5h-174q-28 0 -39.5 11.5 t-11.5 39.5zM1133 51v166q0 28 11.5 39.5t39.5 11.5h174q27 0 38 -11.5t11 -39.5v-166q0 -28 -11 -39.5t-38 -11.5h-174q-28 0 -39.5 11.5t-11.5 39.5z" />
<glyph unicode="&#x202f;" horiz-adv-x="394" />
<glyph unicode="&#x2030;" horiz-adv-x="2527" d="M137 979v201q0 109 78 169t242 60q319 0 319 -229v-201q0 -229 -319 -229q-164 0 -242 60t-78 169zM356 987q0 -63 101 -63q100 0 100 63v184q0 62 -100 62q-101 0 -101 -62v-184zM441 18q-6 18 3 35l658 1286q26 54 74 54h141q24 0 30 -16t-6 -38l-655 -1286 q-14 -28 -30.5 -40.5t-43.5 -12.5h-143q-22 0 -28 18zM1004 209v201q0 229 319 229t319 -229v-201q0 -229 -319 -229t-319 229zM1223 219q0 -63 100 -63q49 0 73.5 14.5t24.5 48.5v184q0 62 -98 62q-100 0 -100 -62v-184zM1751 209v201q0 229 322 229q317 0 317 -229v-201 q0 -229 -317 -229q-322 0 -322 229zM1972 219q0 -63 99 -63q100 0 100 63v184q0 62 -100 62q-99 0 -99 -62v-184z" />
<glyph unicode="&#x2039;" horiz-adv-x="743" d="M131 420v166q0 22 12 36.5t35 30.5l381 275q20 14 36.5 3.5t16.5 -36.5v-170q0 -22 -13 -38t-40 -34l-217 -151l217 -150q17 -12 26.5 -19.5t18 -21.5t8.5 -30v-170q0 -26 -17 -36t-36 3l-381 272q-47 33 -47 70z" />
<glyph unicode="&#x203a;" horiz-adv-x="743" d="M131 111v170q0 16 8.5 30t18 21.5t26.5 19.5l217 150l-217 151q-27 18 -40 34t-13 38v170q0 26 16.5 36.5t36.5 -3.5l381 -275q15 -10 23 -17.5t16 -21t8 -28.5v-166q0 -37 -47 -70l-381 -272q-19 -13 -36 -3t-17 36z" />
<glyph unicode="&#x2044;" horiz-adv-x="925" d="M9 18q-6 18 3 35l658 1286q26 54 73 54h142q24 0 30 -16t-6 -38l-655 -1286q-14 -28 -30.5 -40.5t-43.5 -12.5h-143q-22 0 -28 18z" />
<glyph unicode="&#x205f;" horiz-adv-x="493" />
<glyph unicode="&#x20ac;" horiz-adv-x="1351" d="M137 518v72q0 26 12 36.5t39 10.5h64v113h-64q-51 0 -51 49v71q0 27 12 38.5t39 11.5h64v155q0 54 14 101t49 90.5t88.5 74.5t137.5 49.5t192 18.5t192 -18.5t137.5 -49.5t88.5 -74.5t49 -90.5t14 -101v-98q0 -28 -10.5 -39.5t-36.5 -11.5h-170q-28 0 -39.5 11.5 t-11.5 39.5v49q0 154 -209 154q-207 0 -207 -154v-106h201q28 0 39.5 -11t11.5 -39v-71q0 -26 -11.5 -37.5t-39.5 -11.5h-201v-113h201q28 0 39.5 -10.5t11.5 -36.5v-72q0 -28 -11.5 -39.5t-39.5 -11.5h-201v-100q0 -154 207 -154q209 0 209 154v77q0 28 11.5 40t39.5 12 h170q26 0 36.5 -12t10.5 -40v-127q0 -54 -14 -101t-49 -90.5t-88.5 -74t-137.5 -49t-192 -18.5t-192 18.5t-137.5 49t-88.5 74t-49 90.5t-14 101v150h-64q-27 0 -39 12t-12 39z" />
<glyph unicode="&#x2113;" horiz-adv-x="1167" d="M23 525q6 16 34 28q2 1 36.5 16.5t73.5 33.5t54 26v442q0 67 24 125t72 106t129.5 75.5t188.5 27.5q102 0 179 -27.5t122.5 -75.5t67.5 -106t22 -125q0 -66 -20.5 -127.5t-60.5 -114t-87.5 -98t-113 -88.5t-123.5 -75.5t-132 -69.5v-136q0 -143 156 -143h232 q28 0 40.5 -11t12.5 -38v-121q0 -26 -11.5 -37.5t-39.5 -11.5h-236q-219 0 -320.5 81t-101.5 216v68q-40 -19 -71 -31q-48 -18 -66 22l-55 129q-12 24 -6 40zM489 762q285 158 285 291q0 63 -37 98t-106 35q-142 0 -142 -150v-274z" />
<glyph unicode="&#x2122;" horiz-adv-x="1886" d="M143 1245v109q0 22 9 30.5t34 8.5h562q23 0 33 -8.5t10 -30.5v-109q0 -23 -9.5 -32t-33.5 -9h-166v-604q0 -24 -9 -33.5t-32 -9.5h-146q-23 0 -32 9.5t-9 33.5v604h-168q-25 0 -34 9t-9 32zM883 600v750q0 23 10 33t33 10h127q27 0 37 -19l192 -375l31 -69q14 38 28 65 l187 379q10 19 39 19h135q23 0 32 -9.5t9 -33.5v-750q0 -24 -9 -33.5t-32 -9.5h-135q-23 0 -32 9.5t-9 33.5v377q-16 -49 -21 -57l-88 -195q-20 -41 -55 -41h-96q-38 0 -58 41l-94 199q-10 22 -20 63v-387q0 -24 -9 -33.5t-32 -9.5h-127q-23 0 -33 10t-10 33z" />
<glyph unicode="&#x2126;" horiz-adv-x="819" d="M131 655q0 116 81.5 198.5t195.5 82.5q115 0 196.5 -82.5t81.5 -198.5q0 -114 -81.5 -195t-196.5 -81q-114 0 -195.5 81t-81.5 195zM170 655q0 -99 69 -167t169 -68q99 0 168 68t69 167t-69.5 169.5t-167.5 70.5q-99 0 -168.5 -70.5t-69.5 -169.5z" />
<glyph unicode="&#x212e;" horiz-adv-x="1705" d="M129 696q0 145 56.5 277t152 227.5t227.5 152t277 56.5q144 0 275 -56.5t226 -152t151 -227.5t56 -277q0 -20 -8 -26t-29 -6h-1097v-441q183 -168 426 -168q156 0 271 58.5t216 167.5q10 10 25 10q12 0 22 -11t10 -26t-16 -35q-93 -109 -233 -172t-295 -63 q-146 0 -277 52.5t-227 145t-152.5 226.5t-56.5 288zM416 727h854v438q-187 172 -428 172q-242 0 -426 -172v-438z" />
<glyph unicode="&#x2202;" horiz-adv-x="819" d="M176 383v559q0 18 11.5 26t28 5.5t32.5 -12.5l424 -263q20 -12 20 -34.5t-20 -34.5l-424 -262q-16 -9 -32.5 -12t-28 4t-11.5 24z" />
<glyph unicode="&#x2206;" horiz-adv-x="819" d="M172 473v371q0 51 53 51h371q49 0 49 -51v-371q0 -28 -11.5 -39.5t-37.5 -11.5h-371q-28 0 -40.5 12t-12.5 39z" />
<glyph unicode="&#x220f;" horiz-adv-x="819" d="M100.5 439q2.5 17 12.5 34l262 424q12 20 34.5 20t34.5 -20l263 -424q17 -25 13 -49.5t-30 -24.5h-559q-18 0 -25.5 11.5t-5 28.5z" />
<glyph unicode="&#x2211;" horiz-adv-x="819" d="M127 663.5q0 22.5 20 34.5l424 263q16 10 32.5 12.5t28 -5.5t11.5 -26v-559q0 -26 -24.5 -28.5t-47.5 12.5l-424 262q-20 12 -20 34.5z" />
<glyph unicode="&#x2212;" horiz-adv-x="1189" d="M121 610v121q0 27 12 38t39 11h844q28 0 39.5 -11t11.5 -38v-121q0 -28 -11.5 -39.5t-39.5 -11.5h-844q-27 0 -39 12t-12 39z" />
<glyph unicode="&#x221a;" horiz-adv-x="819" d="M154 473v371q0 38 16 53.5t53 15.5h373q37 0 53.5 -15.5t16.5 -53.5v-371q0 -38 -16.5 -55t-53.5 -17h-373q-37 0 -53 17t-16 55zM193 473q0 -15 8 -24t22 -9h373q29 0 29 33v371q0 28 -29 28h-373q-30 0 -30 -28v-371z" />
<glyph unicode="&#x221e;" horiz-adv-x="819" d="M70 657q0 24 26 50l264 264q24 24 50 24q25 0 49 -24l264 -264q25 -25 25 -50q0 -27 -25 -49l-264 -262q-29 -29 -49 -29q-21 0 -50 29l-264 262q-26 23 -26 49zM115 655q0 -8 10 -18l264 -264q11 -11 21 -11q9 0 20 11l264 264q11 11 11 18q0 12 -13 25l-262 262 q-8 8 -20 8q-13 0 -21 -8l-262 -262q-12 -12 -12 -25z" />
<glyph unicode="&#x222b;" horiz-adv-x="819" d="M47 655q0 151 105.5 258t255.5 107t256 -107t106 -258t-105.5 -255.5t-256.5 -104.5t-256 104.5t-105 255.5z" />
<glyph unicode="&#x2248;" horiz-adv-x="1032" d="M123 315l8 99q7 91 57 135.5t115 44.5q55 0 111 -23l184 -84q58 -26 82 -26q20 0 27 13.5t14 49.5l2 11q4 26 16.5 35.5t38.5 9.5h88q27 0 36.5 -15t6.5 -45l-10 -84q-11 -97 -58.5 -144.5t-109.5 -47.5q-59 0 -125 28l-186 86q-44 21 -66 21q-16 0 -26 -10t-12.5 -20 t-6.5 -34l-2 -12q-4 -27 -16.5 -36t-38.5 -9h-88q-47 0 -41 57zM123 702l8 99q7 91 57 135.5t115 44.5q55 0 111 -23l184 -84q58 -26 82 -26q20 0 27 13.5t14 49.5l2 11q4 26 16.5 35.5t38.5 9.5h88q27 0 36.5 -15t6.5 -45l-10 -84q-11 -97 -58.5 -144.5t-109.5 -47.5 q-59 0 -125 28l-186 86q-44 21 -66 21q-16 0 -26 -10t-12.5 -20t-6.5 -34l-2 -12q-4 -27 -16.5 -36t-38.5 -9h-88q-47 0 -41 57z" />
<glyph unicode="&#x2260;" horiz-adv-x="1189" d="M121 389v123q0 26 12 36.5t39 10.5h254l74 199h-328q-27 0 -39 11t-12 38v123q0 49 51 49h410l43 113q9 28 23.5 40.5t41.5 12.5h158q53 0 35 -53l-43 -113h176q28 0 39.5 -11.5t11.5 -37.5v-123q0 -27 -11.5 -38t-39.5 -11h-258l-74 -199h332q28 0 39.5 -10.5 t11.5 -36.5v-123q0 -28 -11.5 -39.5t-39.5 -11.5h-414l-41 -113q-17 -51 -67 -51h-158q-24 0 -33 13.5t0 37.5l41 113h-172q-27 0 -39 12t-12 39z" />
<glyph unicode="&#x2264;" horiz-adv-x="1071" d="M121 193v120q0 27 12.5 38t40.5 11h723q28 0 39.5 -11t11.5 -38v-120q0 -28 -11.5 -39t-39.5 -11h-723q-28 0 -40.5 11.5t-12.5 38.5zM121 774v191q0 24 11.5 35t35.5 20l729 272q25 9 38 -5.5t13 -43.5v-162q0 -26 -12 -37t-39 -20l-514 -156l514 -155q26 -9 38.5 -20.5 t12.5 -35.5v-163q0 -30 -13 -45t-38 -5l-729 275q-17 6 -25 10.5t-15 16t-7 28.5z" />
<glyph unicode="&#x2265;" horiz-adv-x="1071" d="M121 190v123q0 27 12 38t39 11h725q28 0 39.5 -11t11.5 -38v-123q0 -26 -11.5 -37.5t-39.5 -11.5h-725q-51 0 -51 49zM121 494v163q0 26 12.5 37.5t38.5 20.5l516 153l-516 156q-27 9 -39 20t-12 37v164q0 29 13.5 43.5t37.5 5.5l731 -272q24 -9 34.5 -20.5t10.5 -36.5 v-191q0 -13 -3 -22.5t-10.5 -15.5t-13.5 -9t-18 -8l-731 -275q-25 -9 -38 5.5t-13 44.5z" />
<glyph unicode="&#x25ca;" horiz-adv-x="819" d="M92 657q0 19 19 35l264 264q19 19 35 19q15 0 34 -19l265 -264q16 -13 16 -35q0 -18 -16 -34l-265 -265q-19 -16 -34 -16q-16 0 -35 16l-264 265q-19 19 -19 34z" />
<glyph unicode="&#x25fc;" horiz-adv-x="1024" d="M0 0v1024h1024v-1024h-1024z" />
<glyph horiz-adv-x="0" />
<glyph horiz-adv-x="593" d="M154 -70q4 8 14.5 31t13 29t9.5 24.5t8.5 28.5t5 29t4 38.5t0.5 45.5v61q0 28 11.5 39.5t39.5 11.5h125q27 0 38 -11.5t11 -39.5v-78q0 -124 -92 -272q-22 -37 -68 -27l-94 23q-50 11 -26 67z" />
<glyph horiz-adv-x="397" d="M27 1546l100 201q23 51 70 51h178q27 0 34 -14.5t-8 -36.5l-149 -217q-25 -35 -66 -35h-133q-52 0 -26 51z" />
<glyph horiz-adv-x="397" d="M-88 1587v105q0 26 12 36.5t39 10.5h473q27 0 39 -10.5t12 -36.5v-105q0 -27 -12 -39t-39 -12h-473q-27 0 -39 12t-12 39z" />
<glyph horiz-adv-x="397" d="M-86 1733v28q0 23 10 32t35 9h102q25 0 35 -9t10 -32v-35q0 -43 21 -66.5t72 -23.5t71.5 23.5t20.5 66.5v35q0 23 10 32t35 9h102q25 0 35 -9t10 -32v-28q0 -122 -75 -188t-215 -66q-139 0 -209 65.5t-70 188.5z" />
<glyph horiz-adv-x="397" d="M-87 1783.5q8 14.5 34 14.5h131q43 0 69 -49l52 -94l51 94q26 49 69 49h132q26 0 33.5 -14.5t-7.5 -34.5l-149 -203q-40 -51 -80 -51h-98q-17 0 -32.5 8t-24.5 17.5t-23 27.5l-150 201q-15 20 -7 34.5z" />
<glyph horiz-adv-x="397" d="M-31 1622v59q0 68 58.5 114t171.5 46t171 -46t58 -114v-59q0 -68 -58 -114t-171 -46t-171.5 46t-58.5 114zM117 1640q0 -63 82 -63t82 63v25q0 61 -82 61t-82 -61v-25z" />
<glyph horiz-adv-x="397" d="M-87 1509.5q-8 14.5 7 36.5l150 201q35 51 80 51h98q40 0 80 -51l149 -201q15 -22 7.5 -36.5t-33.5 -14.5h-132q-43 0 -69 51l-51 92l-52 -92q-27 -51 -69 -51h-131q-26 0 -34 14.5z" />
<glyph horiz-adv-x="397" d="M-150 1563l9 84q7 75 57.5 117t122.5 42q61 0 119 -26l88 -43q64 -31 76 -31q19 0 26 10.5t12 38.5l2 12q4 25 17 35t39 10h88q46 0 43 -59l-6 -80q-6 -78 -53.5 -119t-116.5 -41q-65 0 -131 27l-88 39q-8 4 -22 10.5t-22 10.5t-17.5 7t-16.5 3q-39 0 -39 -51v-11 q0 -26 -13.5 -35.5t-41.5 -9.5h-88q-50 0 -44 60z" />
<glyph horiz-adv-x="397" d="M-43 1550v191q0 28 11.5 40.5t37.5 12.5h100q27 0 38.5 -12.5t11.5 -40.5v-191q0 -28 -11 -39.5t-39 -11.5h-100q-26 0 -37.5 11.5t-11.5 39.5zM244 1550v191q0 28 11 40.5t38 12.5h100q26 0 36.5 -12.5t10.5 -40.5v-191q0 -28 -10.5 -39.5t-36.5 -11.5h-100 q-27 0 -38 11.5t-11 39.5z" />
<glyph horiz-adv-x="397" d="M63 1550v168q0 27 11.5 39t38.5 12h174q27 0 38 -12t11 -39v-168q0 -28 -10.5 -38.5t-38.5 -10.5h-174q-28 0 -39 10.5t-11 38.5z" />
<glyph horiz-adv-x="397" d="M6 1783q7 15 35 15h178q47 0 70 -51l98 -201q22 -51 -25 -51h-133q-41 0 -67 35l-148 215q-15 23 -8 38z" />
<glyph horiz-adv-x="397" d="M-137.5 1509q-9.5 14 0.5 37l86 201q22 51 69 51h150q28 0 37.5 -14.5t-2.5 -36.5l-113 -201q-14 -27 -27.5 -39t-39.5 -12h-125q-26 0 -35.5 14zM155 1509q-7 14 7 37l117 201q28 51 77 51h150q27 0 33.5 -14.5t-9.5 -36.5l-141 -203q-31 -49 -76 -49h-125q-26 0 -33 14 z" />
<glyph horiz-adv-x="3022" d="M127 518q0 56 38 97.5t103 41.5q40 0 62 -19.5t22 -43.5q0 -49 -51 -66q-33 -12 -90 -12q1 -21 16 -33t37 -12q36 0 66 18q16 -11 16 -32q0 -8 -5.5 -17t-29 -19.5t-61.5 -10.5q-57 0 -90 30t-33 78zM135 0v16h2740v-16h-2740zM135 1083v17h2740v-17h-2740zM209 541 q31 0 53.5 10.5t22.5 32.5q0 26 -27 26q-20 0 -33 -20.5t-16 -48.5zM383 641q48 16 66 16q22 0 22 -18v-82q9 33 33 66.5t59 33.5q60 0 60 -65v-35q9 34 32.5 67t59.5 33q57 0 57 -65v-100l6 -66q-48 -16 -63 -16q-23 0 -23 16v135q0 33 -16 33q-13 0 -33 -35.5t-20 -62.5 l4 -70q-48 -16 -64 -16q-22 0 -22 16v135q0 33 -17 33q-14 0 -33.5 -35.5t-19.5 -62.5l6 -70q-48 -16 -65 -16q-23 0 -23 16v141zM762 676v8q0 41 24 41h35l-6 61q51 17 66 17q22 0 22 -17v-59h96v-6q0 -43 -24 -43h-72v-176q0 -33 27 -33q19 0 39 15.5t20 37.5v51l-6 68 q48 16 66 16q22 0 22 -18v-135q0 -31 14 -31q15 0 35 35.5t19 62.5l-4 70q48 16 63 16q23 0 23 -18v-203l51 6v125l-6 74q48 16 65 16q23 0 23 -18v-82q34 98 96 98q35 0 58.5 -27.5t23.5 -76.5q0 -64 -43.5 -101.5t-134.5 -37.5v-82l6 -66q-48 -16 -66 -16q-22 0 -22 16 v154l-51 -6v-6q0 -31 -6.5 -58t-21.5 -51.5t-43.5 -38.5t-68.5 -14q-43 0 -63.5 21t-20.5 48q0 75 144 109v86q-34 -98 -94 -98q-58 0 -58 63v6q-37 -67 -108 -67q-28 0 -44 16.5t-16 44.5v207zM1055 332q0 -14 8 -21.5t20 -7.5q51 0 56 94q-84 -19 -84 -65zM1354 449 q92 12 92 104q0 41 -27 41q-26 0 -45.5 -38t-19.5 -60v-47zM1559 518q0 56 38 97.5t103 41.5q40 0 62 -19.5t22 -43.5q0 -49 -51 -66q-33 -12 -91 -12q1 -21 16.5 -33t37.5 -12q35 0 65 18q17 -11 17 -32q0 -8 -6 -17t-29.5 -19.5t-61.5 -10.5q-57 0 -89.5 30t-32.5 78z M1640 541q31 0 53.5 10.5t22.5 32.5q0 26 -26 26q-20 0 -33.5 -20.5t-16.5 -48.5zM1815 463q0 22 14.5 35.5t36.5 13.5t37.5 -14t15.5 -35q0 -20 -15.5 -33.5t-37.5 -13.5t-36.5 13.5t-14.5 33.5zM1948 641q48 16 65 16q23 0 23 -18v-82q34 100 92 100q59 0 59 -65v-100 l4 -66q-48 -16 -63 -16q-23 0 -23 16v137q0 31 -16 31q-14 0 -33.5 -35.5t-19.5 -62.5l6 -70q-48 -16 -66 -16q-22 0 -22 16v141zM2220 518q0 56 38 97.5t103 41.5q40 0 62 -19.5t22 -43.5q0 -49 -51 -66q-33 -12 -90 -12q1 -21 16 -33t37 -12q36 0 66 18q16 -11 16 -32 q0 -8 -5.5 -17t-29 -19.5t-61.5 -10.5q-57 0 -90 30t-33 78zM2302 541q31 0 53.5 10.5t22.5 32.5q0 26 -27 26q-20 0 -33 -20.5t-16 -48.5zM2419 676v8q0 41 24 41h35l-6 61q51 17 65 17q23 0 23 -17v-59h96v-6q0 -43 -24 -43h-72v-184q0 -31 33 -31q22 0 78.5 11t95.5 11 q36 0 81.5 -12t45.5 -37q0 -29 -19 -43t-36 -14q-4 0 -54.5 24.5t-91.5 24.5q-14 0 -65.5 -8t-90.5 -8q-40 0 -48 24.5t-9 132.5q-1 68 -2 111z" />
</font>
</defs>
</svg>
