<?xml version="1.0" standalone="no"?>
<!DOCTYPE svg PUBLIC "-//W3C//DTD SVG 1.1//EN" "http://www.w3.org/Graphics/SVG/1.1/DTD/svg11.dtd" >
<svg xmlns="http://www.w3.org/2000/svg" xmlns:xlink="http://www.w3.org/1999/xlink" version="1.1">
<metadata></metadata>
<defs>
<font id="bpg_venuriregular" horiz-adv-x="1143" >
<font-face units-per-em="2048" ascent="1638" descent="-410" />
<missing-glyph horiz-adv-x="703" />
<glyph unicode="&#xd;" horiz-adv-x="703" />
<glyph unicode=" "  horiz-adv-x="703" />
<glyph unicode="&#x09;" horiz-adv-x="703" />
<glyph unicode="&#xa0;" horiz-adv-x="703" />
<glyph unicode="!" horiz-adv-x="553" d="M173 104q0 55 28.5 89.5t82.5 34.5q46 0 76.5 -32.5t30.5 -84.5q0 -39 -30.5 -75t-78.5 -36h-2q-46 0 -76.5 32.5t-30.5 71.5zM209 1571h145l-52 -1176h-43z" />
<glyph unicode="&#x22;" horiz-adv-x="777" d="M154 1048v542h121v-542h-121zM468 1048v542h120v-542h-120z" />
<glyph unicode="#" horiz-adv-x="1631" d="M154 525l26 89h334l77 336h-368l16 87h370l114 529h129l-108 -529h277l118 529h125l-114 -529h327l-22 -87h-327l-76 -336h358l-19 -89h-356l-113 -525h-128l115 525h-284l-116 -525h-127l113 525h-341zM648 614h280l70 336h-282z" />
<glyph unicode="$" horiz-adv-x="1363" d="M191 104l59 82q65 -38 159 -67.5t205 -29.5q82 0 151.5 21.5t117 56.5t75 84t27.5 106q0 107 -88 181t-238 117q-111 45 -193 83.5t-135 84t-79.5 98t-26.5 118.5q0 139 105.5 230t285.5 115v239h107v-239q121 -6 200 -32.5t136 -56.5l-57 -83q-43 20 -120 51.5 t-207 31.5q-91 0 -153 -23.5t-101 -56.5t-58.5 -75t-19.5 -81q0 -102 81 -165.5t270 -127.5q195 -68 304 -160t109 -242q0 -54 -23 -116t-75 -111.5t-128 -87.5t-183 -49v-234h-107v234q-111 0 -219 27t-181 77z" />
<glyph unicode="%" horiz-adv-x="1981" d="M68 1089q0 123 33 213.5t86.5 146.5t125 86.5t144.5 30.5h3q160 0 261.5 -109t101.5 -340q0 -121 -29.5 -212t-84 -150t-123 -89t-148.5 -30q-73 0 -139.5 28t-116.5 82t-81 139t-33 204zM178 1073q0 -168 74.5 -263.5t190.5 -95.5q130 0 197 103t67 290 q0 171 -61.5 276.5t-200.5 105.5h-2q-126 0 -195.5 -113.5t-69.5 -302.5zM410 0l1043 1566h104l-1041 -1566h-106zM1152 468q0 124 34.5 213t89 148.5t124 88t142.5 28.5h2q163 0 262 -109.5t99 -341.5q0 -123 -28.5 -210t-80.5 -148.5t-122.5 -90t-152.5 -28.5 q-70 0 -136 26t-116 81t-82.5 140t-34.5 203zM1264 453q0 -169 74 -263.5t189 -94.5q135 0 202 102.5t67 288.5q0 176 -64 278t-202 102h-3q-125 0 -194 -109t-69 -304z" />
<glyph unicode="&#x26;" horiz-adv-x="1415" d="M75 421q0 93 27.5 160t75 121.5t106.5 96.5t130 71v8q-78 91 -113 170.5t-35 153.5q0 66 25 131.5t75 116.5t121.5 83.5t162.5 32.5q70 0 133 -22.5t105 -62.5t67 -95.5t25 -125.5q0 -116 -90 -216t-317 -194v-9q73 -82 148 -154.5t141 -139.5t120.5 -122.5t95.5 -92.5 q28 37 53.5 81t48 99.5t42 130.5t38.5 175h109q-39 -202 -93.5 -333t-132.5 -207q78 -76 143 -136t130 -114h-149l-189 174q-68 -57 -134 -95.5t-131 -63.5t-131 -34t-134 -9q-100 0 -184 32.5t-149 87.5t-102.5 133.5t-37.5 167.5zM186 441q0 -80 32 -145.5t85.5 -111 t122.5 -70.5t149 -25h4q135 0 246.5 48.5t185.5 126.5q-22 22 -76.5 74.5t-130 125t-161.5 160.5t-175 181q-41 -16 -88.5 -48t-89.5 -76.5t-73 -104.5t-31 -135zM377 1214q0 -102 45.5 -174t93.5 -131q78 35 141 69.5t112 77t75 89t26 107.5q0 41 -12 81t-40.5 74t-75 53.5 t-106.5 19.5h-2q-66 0 -113.5 -22t-79 -59t-48 -86t-16.5 -99z" />
<glyph unicode="'" horiz-adv-x="462" d="M130 1590h170l-41 -538h-93z" />
<glyph unicode="(" horiz-adv-x="694" d="M166 529q0 189 36.5 346t97 288.5t136.5 239t152 193.5h104q-98 -100 -174.5 -213.5t-132 -245.5t-83 -283t-27.5 -329q0 -175 29.5 -321.5t86 -274t133.5 -237.5t168 -217h-104q-77 82 -152.5 185.5t-136 234.5t-97 288.5t-36.5 345.5z" />
<glyph unicode=")" horiz-adv-x="694" d="M46 -523q88 105 163 215t130.5 238.5t86.5 280t31 330.5q0 173 -30 320.5t-85.5 276.5t-130 241t-165.5 217h102q73 -86 148 -192t131.5 -233.5t93 -285.5t36.5 -347q0 -195 -36.5 -350.5t-93 -284t-131.5 -233t-148 -193.5h-102z" />
<glyph unicode="*" horiz-adv-x="1406" d="M200 1123q0 16 10.5 35.5t43.5 19.5l375 -37l7 16l-265 207q-16 14 -28.5 31t-12.5 32q0 23 18 36.5t38 13.5q22 0 36 -12t25 -29l221 -249l14 2l-38 341q0 45 19 59t40 14q20 0 38 -11.5t18 -43.5l-36 -359l16 -2l218 249q13 14 27 27.5t37 13.5q22 0 39.5 -15.5 t17.5 -38.5q0 -22 -15 -33.5t-28 -25.5l-265 -207l5 -16l375 37q34 0 45.5 -19.5t11.5 -35.5q0 -32 -19 -44t-47 -12q-18 0 -24 4l-342 31l-5 -13l265 -209q15 -11 29 -23.5t14 -33.5q0 -23 -15 -39t-37 -16q-18 0 -37 11.5t-32 25.5l-218 254l-16 -7l36 -356 q0 -37 -18 -44.5t-38 -7.5t-39.5 11t-19.5 57l38 340l-14 7l-221 -254q-13 -14 -31.5 -25.5t-33.5 -11.5q-20 0 -36 14t-16 34q0 18 12 34t29 30l265 209l-7 13l-358 -35q-46 0 -58.5 16.5t-12.5 39.5zM634 1121q0 -30 19.5 -47t44.5 -17q28 0 50 17t22 47q0 28 -22.5 47 t-49.5 19q-25 0 -44.5 -19t-19.5 -47z" />
<glyph unicode="+" horiz-adv-x="1536" d="M184 457v72h482v451h87v-451h479v-72h-479v-457h-87v457h-482z" />
<glyph unicode="," horiz-adv-x="481" d="M104 -327q85 93 120 158t35 121q0 16 -1.5 28.5t-3.5 26.5q-2 -3 -20 -3h-6q-44 0 -73.5 23t-29.5 60q0 52 36.5 75.5t68.5 23.5q56 0 91.5 -32.5t35.5 -119.5q0 -104 -58 -208t-154 -190z" />
<glyph unicode="-" horiz-adv-x="931" d="M128 557v91h677v-91h-677z" />
<glyph unicode="." horiz-adv-x="465" d="M111 115q0 42 34.5 76t86.5 34q50 0 81.5 -32t31.5 -78q0 -50 -32.5 -82.5t-80.5 -32.5q-50 0 -85.5 35t-35.5 80z" />
<glyph unicode="/" horiz-adv-x="594" d="M2 -352l460 1918h117l-468 -1918h-109z" />
<glyph unicode="0" horiz-adv-x="1043" d="M130 646v263q0 113 4.5 226t42 207t119 154.5t229.5 60.5t225 -60.5t114.5 -154.5t44.5 -206.5t7 -226.5v-263q0 -109 -7 -225.5t-44.5 -211t-114.5 -153t-225 -58.5t-229.5 58.5t-119 153t-42 210.5t-4.5 226zM230 503q0 -148 28 -234.5t73.5 -128.5t97 -52t96.5 -10 q43 0 94 10t93.5 52t72 128t29.5 235v549q0 150 -29.5 235.5t-72 125.5t-93.5 52t-94 12q-45 0 -96.5 -12t-97 -52t-73.5 -125.5t-28 -235.5v-549z" />
<glyph unicode="1" horiz-adv-x="699" d="M102 1180v106q73 50 149 114t137 132h94v-1516h-91v1425q-76 -63 -150.5 -136t-138.5 -125z" />
<glyph unicode="2" horiz-adv-x="1043" d="M130 30v100q125 189 246.5 353.5t219.5 306.5t155.5 251t57.5 191t-25 134.5t-66 78.5t-94 33.5t-106 7.5q-145 0 -216.5 -76t-76.5 -206h-91q9 96 44.5 163t91 112.5t120.5 65t128 19.5q66 0 135.5 -13t127.5 -45.5t94 -93.5t36 -152q0 -73 -19.5 -136t-68 -145.5 t-133.5 -207.5t-217 -311l-250 -358h693v-72h-786z" />
<glyph unicode="3" horiz-adv-x="1063" d="M130 360h100q4 -128 75.5 -206.5t217.5 -78.5q93 0 150.5 25t93.5 67t50.5 100t14.5 124q0 97 -14.5 167.5t-53.5 118.5t-100 72t-159 24h-48v71q5 0 14 -2.5t20 -2.5q327 0 327 345q0 141 -66 220.5t-223 79.5q-75 0 -127 -24t-84 -60t-47 -86t-15 -114h-104 q0 154 90 255.5t270 101.5q202 0 306 -81t104 -276q0 -63 -10 -126t-37 -113t-77 -90.5t-125 -54.5v-22q82 -14 132 -47t80.5 -84t40 -115t9.5 -121q0 -206 -95.5 -317.5t-288.5 -111.5q-205 0 -312 87.5t-109 274.5z" />
<glyph unicode="4" horiz-adv-x="1063" d="M102 425v104l501 1037h191v-1068h193v-73h-193v-403h-98v403h-594zM184 498h512v1018h-17z" />
<glyph unicode="5" horiz-adv-x="1061" d="M130 354h104q2 -134 68.5 -206.5t226.5 -72.5q100 0 162 38.5t90 100t37 134.5t9 145q0 78 -6.5 152.5t-36 132t-92.5 94.5t-169 37q-41 0 -85.5 -12t-83 -30.5t-68.5 -50t-45 -70.5h-91v807h716v-73h-625v-648q70 96 147.5 124.5t173.5 28.5q136 0 210 -47t110 -117.5 t43 -151.5t7 -144q0 -98 -11.5 -194.5t-54.5 -171.5t-121.5 -118t-210.5 -43q-200 0 -301 87.5t-103 268.5z" />
<glyph unicode="6" horiz-adv-x="1045" d="M130 514v509q0 137 14.5 238t60 169t127.5 102t211 34q180 0 265.5 -82.5t93.5 -244.5h-102q-11 117 -70.5 183.5t-193.5 66.5q-118 0 -182.5 -49t-93 -126t-34 -174t-5.5 -190v-171q20 50 60 88t88.5 58.5t101 27t102.5 6.5q121 0 190 -45.5t104 -111t43 -129.5t8 -105 q0 -113 -9 -216.5t-46.5 -183t-112.5 -125t-207 -45.5q-141 0 -225 37.5t-126 105.5t-52 164.5t-10 208.5zM216 443q0 -37 9 -100t40.5 -122.5t93.5 -102.5t170 -43q98 0 158.5 39.5t88 102.5t34 139t6.5 149q0 193 -60 286.5t-218 93.5q-156 0 -239 -103t-83 -339z" />
<glyph unicode="7" horiz-adv-x="940" d="M78 1475v71h786v-119l-502 -1405h-110l523 1453h-697z" />
<glyph unicode="8" horiz-adv-x="1063" d="M130 427q0 64 9 125.5t35 112.5t74.5 90t128.5 61q-75 13 -120.5 53t-70.5 91t-31.5 114t-6.5 124q0 47 5.5 113.5t44 120.5t116 93t224.5 39q139 0 216.5 -39t115 -93t45 -120.5t7.5 -113.5q0 -64 -11 -127.5t-38 -113.5t-73 -88t-114 -51q82 -22 132 -62t76 -90 t33.5 -112.5t7.5 -126.5q0 -77 -13 -152t-55 -136t-120.5 -101t-208.5 -40q-136 0 -214.5 40t-122.5 101t-57.5 136t-13.5 152zM230 410q0 -78 13 -142t50 -111.5t94.5 -71.5t150.5 -24q87 0 144 24t91 71.5t48 111.5t14 142q0 61 -6 130t-38 122.5t-92.5 87t-160.5 33.5 q-111 0 -171.5 -33.5t-91 -87t-38 -122.5t-7.5 -130zM245 1175q0 -73 15 -133t48 -103t89.5 -67t140.5 -24q80 0 133.5 24t86.5 67t46.5 103t13.5 133q0 74 -12 136t-44.5 103t-87 64t-136.5 23q-91 0 -146.5 -23t-88 -64t-45.5 -103.5t-13 -135.5z" />
<glyph unicode="9" horiz-adv-x="1047" d="M130 1109q0 95 14.5 180.5t59 146t118 95.5t194.5 35q150 0 229.5 -40t118 -116t47.5 -182.5t9 -245.5v-197q0 -202 -7.5 -352.5t-45 -247t-115 -142t-220.5 -45.5q-196 0 -285.5 75t-101.5 248h103q4 -113 63.5 -179.5t197.5 -66.5q116 0 181 36.5t95.5 113.5t36 204.5 t5.5 307.5v88q-76 -102 -160.5 -144.5t-173.5 -42.5q-204 0 -283.5 117t-79.5 354zM230 1109q0 -73 7.5 -141t37 -125.5t84.5 -92t153 -34.5q111 0 173.5 43.5t91 103t35 122.5t6.5 102q0 80 -5.5 152.5t-32.5 127t-86.5 88.5t-170.5 34q-96 0 -154.5 -34t-89.5 -86.5 t-40 -120.5t-9 -139z" />
<glyph unicode=":" horiz-adv-x="668" d="M216 115q0 46 34 78t84 32t84.5 -32t34.5 -78q0 -47 -35.5 -80t-83.5 -33t-83 34t-35 79zM216 846q0 43 34 74.5t84 31.5t84.5 -30.5t34.5 -75.5q0 -50 -36.5 -83.5t-82.5 -33.5q-48 0 -83 34.5t-35 82.5z" />
<glyph unicode=";" horiz-adv-x="629" d="M180 -375q91 104 128 175.5t37 140.5q0 11 -1 26t-3 31q-2 -2 -20 -2h-11q-46 0 -78 25t-32 66q0 63 39 90t77 27q61 0 99 -39.5t38 -134.5q0 -113 -61.5 -231t-168.5 -213zM200 846q-2 43 27 74.5t89 31.5q50 0 84 -30.5t34 -75.5q0 -50 -35 -83.5t-83 -33.5 q-50 0 -83 34.5t-33 82.5z" />
<glyph unicode="&#x3c;" horiz-adv-x="1272" d="M166 480v102l1003 368v-68l-946 -350l946 -352v-69z" />
<glyph unicode="=" horiz-adv-x="1272" d="M173 364v63h996v-63h-996zM173 809v66h996v-66h-996z" />
<glyph unicode="&#x3e;" horiz-adv-x="1272" d="M166 115v69l960 359l-960 342v67l1018 -364v-85z" />
<glyph unicode="?" horiz-adv-x="1037" d="M130 1219q0 80 30.5 143t85 109.5t125 70.5t147.5 24q194 0 291.5 -120.5t97.5 -308.5q0 -61 -18.5 -112.5t-51 -97t-77 -94t-101.5 -104.5q-50 -54 -84 -93.5t-34 -89.5q0 -9 2 -12v-168h-100v168q0 75 47.5 139t123.5 134q93 84 142 162.5t49 167.5q0 70 -15 136 t-49 110t-88.5 70.5t-134.5 26.5q-54 0 -105 -19.5t-91 -53.5t-65 -84t-25 -104q0 -32 9 -71t28.5 -68.5t47.5 -52t69 -22.5q66 0 94.5 33t28.5 114q0 11 -2 31.5t-9 59.5h48q18 -43 25.5 -78t7.5 -61q0 -82 -47.5 -130t-145.5 -48q-61 0 -108.5 23.5t-81 66.5t-50 94.5 t-16.5 108.5zM393 87q0 38 27 64.5t71 26.5q43 0 65.5 -26.5t22.5 -64.5q0 -37 -22.5 -62t-65.5 -25q-44 0 -71 24t-27 63z" />
<glyph unicode="@" horiz-adv-x="1972" d="M98 718q0 171 61.5 323t174.5 267t279 185.5t380 70.5q171 0 308.5 -54.5t234 -147.5t150 -221t53.5 -269q0 -115 -37.5 -207t-96.5 -155t-134.5 -94.5t-149.5 -31.5q-63 0 -120.5 44.5t-57.5 150.5v30h-6q-70 -106 -159 -165.5t-230 -59.5q-50 0 -98.5 20.5t-87.5 59.5 t-62 92t-23 117q0 111 45.5 209t126 168.5t186.5 110t224 39.5q89 0 154 -13.5t119 -34.5l-80 -377q-13 -46 -16.5 -81t-3.5 -69q0 -78 29.5 -116t79.5 -38h7q49 0 99.5 27t89 77t64.5 121.5t26 160.5q0 139 -42.5 251.5t-128 197.5t-207 131.5t-276.5 46.5 q-156 0 -295.5 -53t-243.5 -151t-164.5 -236.5t-60.5 -312.5q0 -140 51.5 -258.5t139.5 -205.5t208.5 -133.5t257.5 -46.5q115 0 218 22.5t178 68.5l38 -83q-102 -49 -210 -72t-233 -23q-154 0 -292 52t-240 148.5t-164.5 229t-62.5 288.5zM582 670q0 -36 15 -73.5 t38.5 -65.5t62.5 -45.5t96 -17.5q70 0 131.5 37.5t110 92.5t82.5 118t46 119l55 252q-26 9 -70.5 18t-105.5 9q-93 0 -175.5 -33t-147.5 -91t-101.5 -140t-36.5 -180z" />
<glyph unicode="A" horiz-adv-x="1431" d="M59 0l535 1577h143l530 -1577h-108l-138 421h-724l-140 -421h-98zM321 505h672l-331 1022z" />
<glyph unicode="B" horiz-adv-x="1286" d="M184 0v1577h460q191 0 288.5 -82.5t97.5 -280.5q0 -70 -9.5 -129t-35.5 -106t-76 -80t-150 -72q109 -46 164 -78.5t85.5 -80.5t42.5 -109t12 -134q0 -204 -102 -314.5t-313 -110.5h-464zM286 73h273q205 0 301.5 76t96.5 265q0 57 -11 123t-45.5 118t-102 88t-173.5 36 h-339v-706zM286 855h319q93 0 155.5 26t99 73.5t52.5 111.5t16 138q0 111 -30 171.5t-76.5 89.5t-101 32.5t-104.5 3.5h-330v-646z" />
<glyph unicode="C" horiz-adv-x="1286" d="M154 785q0 111 2.5 213t16 192t45.5 167t88 132t142 86.5t207 31.5q143 0 222.5 -46.5t119.5 -110.5t51 -135.5t11 -127.5h-104q-3 67 -18 129t-48.5 110.5t-89 79t-144.5 30.5q-143 0 -224 -55.5t-117 -152t-45.5 -236.5t-9.5 -307q0 -163 9.5 -301.5t45.5 -234 t117 -148.5t224 -53q78 0 134.5 26t92.5 76t53 117t20 149h121q-3 -50 -18 -126t-59 -146.5t-124.5 -122t-219.5 -51.5q-184 0 -286.5 67t-149 180t-56 261.5t-9.5 306.5z" />
<glyph unicode="D" horiz-adv-x="1431" d="M191 0v1577h443q173 0 276 -46.5t158 -147.5t72 -249.5t17 -354.5q0 -195 -21.5 -340.5t-84 -243t-178.5 -146.5t-305 -49h-377zM304 73h212q180 0 286.5 29.5t163.5 116.5t71.5 245.5t14.5 415.5q0 180 -16.5 299t-73.5 190.5t-159.5 101.5t-270.5 30h-228v-1428z" />
<glyph unicode="E" d="M198 0v1577h739v-76h-633v-651h605v-77h-605v-700h651v-73h-757z" />
<glyph unicode="F" horiz-adv-x="1002" d="M184 0v1577h684v-76h-582v-651h539v-77h-539v-773h-102z" />
<glyph unicode="G" horiz-adv-x="1431" d="M161 659v257q0 113 11.5 235t61.5 224t151 167t281 65q228 0 349.5 -93t121.5 -307h-105q-4 166 -89.5 247.5t-276.5 81.5q-148 0 -228.5 -55.5t-119 -149.5t-46.5 -227.5t-8 -287.5v-98q0 -147 10 -270t49 -211.5t118.5 -138.5t224.5 -50q102 0 188.5 11t158.5 36v632 h-347v73h451v-770q-114 -30 -227 -45t-224 -15q-180 0 -281 65t-151 166t-61.5 223t-11.5 235z" />
<glyph unicode="H" horiz-adv-x="1431" d="M186 0v1577h111v-727h735v727h105v-1577h-105v773h-735v-773h-111z" />
<glyph unicode="I" horiz-adv-x="570" d="M211 0v1577h105v-1577h-105z" />
<glyph unicode="J" d="M70 414h108q0 -73 10 -138t38 -117t85.5 -81.5t152.5 -29.5q57 0 110 13.5t95.5 48.5t66 93.5t23.5 141.5v1232h100v-1252q0 -89 -26 -149.5t-66 -101t-89 -61t-92 -31t-78 -11.5t-46 -1q-130 0 -207 39t-118.5 100.5t-54 139.5t-12.5 165z" />
<glyph unicode="K" horiz-adv-x="1286" d="M204 0v1577h108v-695l33 -43l-33 -48v-791h-108zM345 839l623 738h121l-644 -731l666 -846h-129z" />
<glyph unicode="L" horiz-adv-x="1002" d="M182 0v1577h102v-1504h575v-73h-677z" />
<glyph unicode="M" horiz-adv-x="2004" d="M191 0v1577h211l533 -1520l534 1520h193v-1577h-96v1471l-48 4l-513 -1475h-141l-528 1475l-47 -4v-1471h-98z" />
<glyph unicode="N" horiz-adv-x="1572" d="M206 0v1577h165l783 -1504v1504h91v-1577h-154l-785 1544v-1544h-100z" />
<glyph unicode="O" horiz-adv-x="1431" d="M161 785q0 111 2.5 213t18.5 192t45 167t85.5 132t142.5 86.5t211 31.5q184 0 285 -68t149 -181t56 -261.5t8 -311.5q0 -157 -8 -306t-56 -262t-149 -180t-285 -67q-186 0 -287 67t-150 180t-58.5 262t-9.5 306zM264 785q0 -163 8 -301.5t46.5 -234t119 -148.5t228.5 -53 q143 0 225 53t118.5 148.5t43 233t6.5 302.5q0 168 -6.5 307.5t-43 236t-118.5 152t-225 55.5q-148 0 -228.5 -55.5t-119 -152t-46.5 -236t-8 -307.5z" />
<glyph unicode="P" d="M175 0v1577h450q50 0 112.5 -7.5t117 -43t92.5 -110.5t38 -209q0 -235 -89 -342.5t-300 -107.5h-316v-757h-105zM280 830h308q64 0 120 17t94.5 57t58 107t19.5 169q0 111 -24 175t-65 99t-95 41t-112 6h-304v-671z" />
<glyph unicode="Q" horiz-adv-x="1431" d="M161 785v131q0 113 11.5 235t61.5 224t150 167t278 65q117 0 201.5 -30.5t140 -83t87.5 -119t49 -144.5t20.5 -156t3.5 -158v-131q0 -155 -10.5 -266.5t-38.5 -194.5t-78 -141t-128 -108q76 0 180 -1t184 -1v-73h-307q-59 0 -111 -4.5t-118 -4.5q-214 0 -331 53.5 t-171.5 156.5t-64 251.5t-9.5 332.5zM264 816q0 -189 11 -331t51 -235t118.5 -141t217.5 -48q132 0 210 55t119 151.5t54.5 228t13.5 289.5q0 163 -5.5 299.5t-40.5 236.5t-117 157.5t-234 57.5q-146 0 -225.5 -55.5t-117 -149.5t-46.5 -227.5t-9 -287.5z" />
<glyph unicode="R" horiz-adv-x="1286" d="M184 0v1577h454q116 0 193.5 -17.5t122 -62t61.5 -114t17 -169.5q0 -73 -9.5 -133t-36.5 -106.5t-78 -78.5t-149 -73q100 -42 150 -60.5t75 -82.5t31 -182t6 -327q0 -34 2.5 -66t6.5 -55l5 -50h-100q-5 28 -9 80t-5 108.5t-2 111t-1 84.5v73q0 46 -9 102.5t-41.5 106.5 t-96.5 83.5t-170 33.5h-315v-783h-102zM286 864h276q91 0 161.5 15t116 52t68 105t22.5 178q0 91 -19.5 146.5t-58 89.5t-95.5 42.5t-130 8.5h-341v-637z" />
<glyph unicode="S" horiz-adv-x="1286" d="M150 412h109q0 -73 11.5 -138t45.5 -116t103 -80.5t193 -29.5q163 0 244 78t81 231q0 78 -23 133.5t-68.5 99.5t-109 80.5t-142.5 86.5l-78 46q-109 65 -175 121t-102.5 107t-48.5 100t-12 103q0 198 119 285.5t326 87.5q125 0 203.5 -31.5t125 -85.5t65 -125.5 t20.5 -150.5h-107q-4 74 -19 133.5t-50.5 101.5t-96.5 64.5t-152 22.5q-155 0 -242.5 -60t-87.5 -218q0 -78 14 -127t42 -84.5t68.5 -62.5t91.5 -54v2l120 -73q78 -52 155 -92t136 -90t96.5 -120.5t37.5 -176.5q0 -410 -442 -410q-232 0 -341.5 115t-109.5 327z" />
<glyph unicode="T" d="M54 1501v76h953v-76h-428v-1501h-106v1501h-419z" />
<glyph unicode="U" horiz-adv-x="1431" d="M180 473v1104h102v-998q0 -84 5.5 -176.5t42 -171.5t114 -131t222.5 -52q139 0 217 52t113.5 131t42.5 171.5t7 176.5v998h104v-1104q0 -152 -39.5 -248.5t-106.5 -152.5t-156 -79t-182 -23q-100 0 -187.5 23t-153.5 79t-105.5 152.5t-39.5 248.5z" />
<glyph unicode="V" horiz-adv-x="1286" d="M50 1577h107l434 -1520l457 1520h100l-489 -1577h-127z" />
<glyph unicode="W" horiz-adv-x="2143" d="M46 1577h108l375 -1516l380 1516h167l370 -1509l398 1509h97l-416 -1577h-165l-367 1546l-390 -1546h-150z" />
<glyph unicode="X" horiz-adv-x="1286" d="M57 0l457 814l-425 763h111l388 -707l399 707h102l-434 -763l479 -814h-125l-430 770l-416 -770h-106z" />
<glyph unicode="Y" horiz-adv-x="1286" d="M65 1577h119l412 -833l434 833h98l-482 -922v-655h-103v655z" />
<glyph unicode="Z" d="M75 0v130l816 1371h-766v76h848v-131l-807 -1373h816v-73h-907z" />
<glyph unicode="[" horiz-adv-x="694" d="M232 -525v2121h475v-69h-386v-1987h386v-65h-475z" />
<glyph unicode="\" horiz-adv-x="594" d="M2 1566h121l456 -1891h-111z" />
<glyph unicode="]" horiz-adv-x="694" d="M-13 -462h386v1989h-386v69h477v-2125h-477v67z" />
<glyph unicode="^" horiz-adv-x="1536" d="M180 514l527 1109h120l528 -1109h-121l-464 998h-4l-464 -998h-122z" />
<glyph unicode="_" horiz-adv-x="1286" d="M0 -180h1286v-98h-1286v98z" />
<glyph unicode="`" horiz-adv-x="772" d="M75 1596h189l234 -342h-96z" />
<glyph unicode="a" d="M104 282q0 115 55 183.5t138 102t182.5 42t193.5 10.5l127 5v114q0 132 -57 209.5t-220 77.5q-109 0 -185 -50t-88 -144h-102q6 70 40.5 117t86.5 75t119.5 43t141.5 15q43 0 105 -5.5t118.5 -31.5t96.5 -82t40 -154v-611q0 -28 2 -57.5t4.5 -62t8.5 -78.5h-102v182 q-56 -107 -164.5 -157.5t-217.5 -50.5q-161 0 -242 85.5t-81 222.5zM211 286q0 -50 15 -93t46.5 -79t78 -56.5t111.5 -20.5q73 0 133 36t107.5 84.5t72.5 98.5t25 85v218h-121q-82 0 -163.5 -8t-150 -35.5t-111.5 -79.5t-43 -150z" />
<glyph unicode="b" d="M161 0q9 43 10 82v1456h93v-692q30 84 69.5 132t85 71.5t94.5 28t99 4.5q117 0 187.5 -44.5t106 -113.5t43.5 -150.5t8 -157.5v-87q0 -88 -6.5 -184.5t-43.5 -180.5t-109.5 -137t-196.5 -53q-50 0 -103 11t-98.5 34.5t-82.5 59.5t-58 87q0 -32 -2.5 -83t-2.5 -83h-93z M278 546q0 -65 5.5 -154.5t31.5 -166.5t85.5 -132.5t158.5 -55.5q111 0 171.5 39t90 105.5t36.5 153t7 188.5t-7 193t-36.5 161.5t-90 109.5t-171.5 39q-91 0 -145 -50t-85.5 -124.5t-41 -156t-9.5 -149.5z" />
<glyph unicode="c" horiz-adv-x="1002" d="M107 523q0 100 7 197.5t41 178.5t112 132t228 51q148 0 235.5 -67t87.5 -226h-98q0 111 -52 174t-195 63q-89 0 -140 -38t-78 -100.5t-35.5 -137.5t-8.5 -138v-124q0 -80 7 -158t34.5 -142.5t77.5 -107.5t138 -43q80 0 128 19t75 54t37 78.5t15 93.5h100q-5 -98 -40 -155 t-85 -92t-102.5 -48t-86.5 -13q-149 0 -230 49.5t-118.5 128t-45.5 176t-8 195.5z" />
<glyph unicode="d" d="M115 529q0 80 7.5 174.5t41.5 178.5t104.5 142t204.5 58q43 0 91 -7.5t93.5 -27t83.5 -54t62 -88.5q0 73 1 153.5t1 161t1 162.5t1 156h100v-1340q0 -74 2 -121t9 -77h-93l-7 182q-20 -57 -57.5 -95.5t-85.5 -64.5t-101 -37t-103 -11q-128 0 -197.5 50.5t-104.5 132.5 t-44.5 180.5t-9.5 191.5zM211 523q0 -159 21.5 -255.5t61.5 -145.5t96 -61.5t122 -12.5q56 0 110.5 17t94.5 62.5t64 119.5t24 185q0 102 -3.5 207t-30.5 187.5t-89 137.5t-177 55q-109 0 -168 -37.5t-86.5 -106t-33.5 -159.5t-6 -193z" />
<glyph unicode="e" d="M132 369v267q0 234 102 340t304 106q148 0 229 -43t120 -118t46.5 -179t7.5 -219h-713v-109q0 -57 12 -125t45.5 -123t94.5 -92t158 -37q148 0 220 69t77 183h102q-7 -85 -38 -147t-83 -98.5t-122.5 -53t-155.5 -16.5q-77 0 -150.5 17.5t-129.5 62t-91 121.5t-35 194z M228 588h616q0 100 -13 182t-45.5 136.5t-92 87t-155.5 32.5q-97 0 -158 -32.5t-94.5 -87t-45.5 -136t-12 -182.5z" />
<glyph unicode="f" horiz-adv-x="715" d="M65 1002v59h199v208q0 39 8 85.5t36 89t87.5 71.5t163.5 29l57 -2v-71h-82q-66 0 -101.5 -23t-51 -51t-17.5 -63.5t-2 -62.5v-210h252v-59h-252v-1002h-98v1002h-199z" />
<glyph unicode="g" d="M115 512q0 93 3 146.5t6.5 87t11 63.5t18.5 71q5 20 24.5 50.5t56 65t96.5 60.5t149 26q45 0 95 -11.5t96.5 -34.5t85.5 -55.5t61 -80.5v161h93q-4 -28 -4 -48v-1072q0 -91 -18.5 -159t-65 -115t-127 -69.5t-208.5 -22.5q-100 0 -166 24t-104 62.5t-52 84t-14 85.5h96 q2 -95 73.5 -148.5t187.5 -53.5q111 0 174 26t90 78.5t30.5 134.5t3.5 202v130q-22 -63 -61 -99t-85.5 -57.5t-95.5 -24.5t-92 -3q-128 0 -197.5 43t-105.5 114.5t-45.5 158t-9.5 180.5zM211 557q0 -93 6 -179.5t33.5 -152.5t86 -108t172.5 -42q48 0 88.5 13.5t74 35t56 42 t31.5 43.5q16 32 25.5 63.5t14 82t5.5 127.5t1 197q0 94 -25 160t-67.5 106t-98 58t-111.5 18q-109 0 -166 -49.5t-85.5 -121t-34.5 -151t-6 -142.5z" />
<glyph unicode="h" d="M163 0v1538h96v-666q20 64 57.5 102.5t83 62.5t96 34.5t98.5 10.5q106 0 169.5 -34.5t95.5 -81t41 -104t9 -105.5v-757h-100v750q0 53 -12 102.5t-43 85t-79 58.5t-116 23q-56 0 -110 -20.5t-95.5 -67t-68 -117t-26.5 -176.5v-638h-96z" />
<glyph unicode="i" horiz-adv-x="570" d="M200 1416v122h130l2 -122h-132zM214 0v1091h105v-1091h-105z" />
<glyph unicode="j" horiz-adv-x="570" d="M30 -360q16 -2 23.5 -2h19.5q57 0 86.5 13t46.5 38t19.5 62.5t2.5 89.5v1255h104v-1321q0 -30 -8 -64t-30.5 -65.5t-67 -51t-117.5 -19.5h-46.5t-32.5 4v61zM214 1416v122h127v-122h-127z" />
<glyph unicode="k" horiz-adv-x="1002" d="M171 0v1538h93v-1013l7 7l-7 -532h-93zM271 532v118l45 -59zM316 591l423 470h107l-419 -467l453 -594h-125z" />
<glyph unicode="l" horiz-adv-x="570" d="M221 0v1538h95v-1538h-95z" />
<glyph unicode="m" horiz-adv-x="1718" d="M154 0v1061h80v-193q18 52 54.5 93t81 66t95.5 40t99 15q89 0 164 -51t113 -161q14 66 47.5 104.5t77 62.5t93.5 34.5t98 10.5q141 0 216.5 -78t79.5 -201v-803h-95v766q0 43 -12 91t-37 82t-67 57t-103 23q-78 0 -133.5 -32t-89.5 -81t-49 -108t-15 -119v-679h-95v766 q-2 43 -15 91t-36.5 82t-64 57t-103.5 23q-77 0 -132.5 -32t-89.5 -81t-50 -108t-16 -119v-679h-96z" />
<glyph unicode="n" d="M163 0v1061h96v-189q20 64 57.5 101.5t83 62.5t96 35.5t98.5 10.5q106 0 169.5 -34.5t95.5 -81t41 -104t9 -105.5v-757h-100v750q0 53 -12 102.5t-43 85t-79 59.5t-116 24q-56 0 -110 -25.5t-95.5 -74.5t-68 -122.5t-26.5 -173.5v-625h-96z" />
<glyph unicode="o" d="M132 410v238q0 207 97.5 320.5t308.5 113.5q209 0 306 -113.5t97 -320.5v-238q0 -202 -97 -319t-306 -117q-211 0 -308.5 116t-97.5 320zM228 529q0 -115 10 -204t43 -152.5t95 -95t162 -31.5t160.5 31.5t92.5 95t42.5 152.5t10.5 204q0 111 -10.5 203.5t-42.5 156 t-92.5 98t-160.5 34.5t-162 -34.5t-95 -98t-43 -155t-10 -204.5z" />
<glyph unicode="p" d="M171 -416v1477h88v-189q25 68 67.5 107.5t90 61.5t95 31.5t82.5 9.5q134 0 207.5 -47.5t109 -113.5t41 -140t5.5 -126v-245q0 -103 -19.5 -181.5t-67 -137.5t-124 -88t-187.5 -29q-36 0 -78.5 6.5t-81.5 28t-74.5 61t-53.5 101.5q0 -63 -2.5 -138.5t-2.5 -153t-1 -154.5 t-1 -141h-93zM275 434q0 -102 22 -176t60 -121.5t89.5 -68t112.5 -20.5q96 0 157 31.5t94.5 94t43.5 151.5t10 204q0 111 -10 203.5t-43.5 156t-94.5 97t-157 33.5q-43 0 -93 -19.5t-93 -65t-70.5 -120.5t-27.5 -189v-191z" />
<glyph unicode="q" d="M109 438v87q0 91 10.5 187.5t46.5 177t106.5 136.5t198.5 56q50 0 101 -9.5t97.5 -28t84 -52t60.5 -83.5q0 35 2 78t2 74h98q-9 -41 -9 -91v-1386h-100v587q-13 -63 -52 -103t-89 -60.5t-105.5 -27t-103.5 -6.5q-123 0 -190 47t-102 115t-45.5 149t-10.5 153zM206 546 q0 -65 5 -153.5t32.5 -165.5t88 -129t173.5 -52t173.5 38.5t89 105t33 154.5t4.5 179q0 97 -4.5 187t-33 158.5t-89 110.5t-173.5 42q-100 0 -159.5 -49.5t-90 -123t-40 -154t-9.5 -148.5z" />
<glyph unicode="r" horiz-adv-x="715" d="M180 0v1061h98v-183q22 50 60.5 87t85.5 61t98 39t101 17v-84q-161 0 -253 -77t-92 -229v-692h-98z" />
<glyph unicode="s" horiz-adv-x="1002" d="M125 282h98q2 -57 13.5 -102.5t39.5 -77.5t77 -52t124 -20q128 0 183.5 57.5t55.5 164.5q0 75 -41 124t-103.5 84t-135 66t-136.5 67t-105 93.5t-41 143.5q0 74 27.5 121t75 74t112.5 42t140 15q80 0 135.5 -22.5t90.5 -61.5t51.5 -86.5t18.5 -102.5h-93q-9 107 -59 162 t-187 55q-95 0 -155.5 -52t-60.5 -133q0 -75 41 -120.5t105 -78.5t136.5 -64.5t134.5 -71.5t104.5 -94.5t42.5 -140.5q0 -148 -89 -222.5t-257 -74.5q-184 0 -263.5 74.5t-79.5 233.5z" />
<glyph unicode="t" horiz-adv-x="715" d="M59 1002v59h197v237l98 34v-271h251v-59h-251v-731q0 -73 6 -116.5t29 -62.5t66 -26t118 -7q22 0 32 6v-65q-11 -4 -24 -4h-19q-91 0 -148 10t-92.5 31.5t-50.5 57t-15 87.5v820h-197z" />
<glyph unicode="u" d="M175 302v759h96v-740q0 -2 2 -45.5t20.5 -94.5t67.5 -92t144 -41q80 0 137.5 30.5t92.5 76t51.5 92t16.5 78.5v736h97v-1061h-77v163q-59 -106 -157 -147.5t-193 -41.5q-89 0 -145.5 27t-91 74.5t-48 105.5t-13.5 121z" />
<glyph unicode="v" horiz-adv-x="1002" d="M50 1061h102l319 -1002l334 1002h86l-355 -1061h-129z" />
<glyph unicode="w" horiz-adv-x="1718" d="M37 1061h106l298 -1002l288 1002h143l301 -1002l302 1002h96l-330 -1061h-143l-295 973l-287 -973h-145z" />
<glyph unicode="x" horiz-adv-x="1002" d="M65 0l349 566l-299 495h119l243 -447l269 447h100l-323 -495l355 -566h-119l-293 509l-303 -509h-98z" />
<glyph unicode="y" horiz-adv-x="1002" d="M50 1061h102l325 -974l323 974h91l-505 -1477h-89l139 390z" />
<glyph unicode="z" horiz-adv-x="856" d="M84 0v75l539 927h-512v59h592v-81l-523 -921h536v-59h-632z" />
<glyph unicode="{" horiz-adv-x="694" d="M52 498v103h16q67 0 112 17.5t65.5 47.5t29.5 67t9 76q0 118 -27 231.5t-27 228.5q0 193 111.5 278t281.5 85h32v-102h-46q-149 0 -207.5 -70.5t-58.5 -205.5q0 -102 26 -209.5t26 -219.5q0 -105 -45.5 -175.5t-117.5 -92.5v-9q73 -17 118 -97t45 -176q0 -111 -26 -217 t-26 -217q0 -279 266 -279h46v-103h-32q-82 0 -156 21.5t-126 67t-81.5 121t-29.5 183.5q0 114 27 221t27 213q0 35 -9 72t-30.5 69.5t-67 51.5t-118.5 19h-7z" />
<glyph unicode="|" horiz-adv-x="108" d="M0 -586v2269h109v-2269h-109z" />
<glyph unicode="}" horiz-adv-x="694" d="M37 -438h50q256 0 256 279q0 111 -25 216.5t-25 217.5q0 96 45.5 175t121.5 98v9q-74 22 -120.5 92.5t-46.5 175.5q0 111 25 219t25 210q0 135 -55.5 205.5t-200.5 70.5h-50v102h36q167 0 278 -85t111 -278q0 -116 -27.5 -229.5t-27.5 -230.5q0 -39 5.5 -76t29.5 -67 t65 -47.5t111 -17.5h16v-103h-11q-74 0 -114.5 -19t-64 -51.5t-30.5 -69.5t-7 -72q0 -104 27.5 -212t27.5 -222q0 -108 -30 -182.5t-82.5 -121t-124 -68t-152.5 -21.5h-36v103z" />
<glyph unicode="~" horiz-adv-x="1536" d="M107 384v26q0 73 23.5 129.5t63.5 93.5t91 58t108 21q39 0 72 -6t76 -19.5t99 -35.5t135 -50q106 -42 199 -77.5t183 -35.5q173 0 173 219h95q0 -4 1 -11t1 -17q0 -80 -24.5 -137.5t-64.5 -92.5t-90 -51t-98 -16q-37 0 -70.5 4.5t-80.5 16t-107 34.5t-139 54 q-103 43 -187 78.5t-173 35.5q-184 0 -184 -221h-102z" />
<glyph unicode="&#xa4;" horiz-adv-x="1363" d="M123 82l163 154q-47 42 -77.5 125.5t-30.5 172.5q0 102 33.5 182t85.5 134l-174 155l79 77l167 -166q58 43 140 74t170 31h3q97 0 179.5 -31t134.5 -74l182 166l80 -75l-191 -157q43 -50 72.5 -129t29.5 -162q0 -104 -30 -187t-66 -122l172 -168l-78 -78l-171 174 q-66 -55 -152.5 -80t-170.5 -25q-91 0 -173 25t-136 65l-166 -159zM297 541q0 -105 37 -177.5t93.5 -116t122.5 -64t120 -20.5q59 0 128.5 19.5t125.5 64t91 119.5t35 191q0 57 -21.5 123t-67 119t-117 88t-171.5 35h-3q-95 0 -163.5 -33.5t-116 -86t-70.5 -120.5t-23 -141z " />
<glyph unicode="&#xa6;" horiz-adv-x="564" d="M252 393h93v-931h-93v931zM252 707v889h93v-889h-93z" />
<glyph unicode="&#xa7;" horiz-adv-x="1106" d="M84 650q0 98 27.5 164t69.5 110t91 69.5t94 38.5q-88 52 -120 118.5t-32 157.5q0 82 30.5 138.5t77.5 90.5t103.5 46.5t110.5 12.5q63 0 121.5 -19.5t100.5 -61.5t67 -113.5t25 -173.5v-11h-86q0 84 -18.5 138.5t-47 86t-71.5 44t-93 12.5q-13 0 -50 -3.5t-75 -22.5 t-68.5 -60t-30.5 -119q0 -61 17.5 -98.5t61 -68t108.5 -62.5t162 -77q74 -35 136 -72t106.5 -86.5t68 -114t23.5 -148.5q0 -98 -29 -165t-69 -113.5t-89 -74t-88 -40.5q91 -45 119.5 -118t28.5 -142q0 -63 -19.5 -121t-60 -103.5t-102 -70.5t-146.5 -25q-106 0 -173.5 37.5 t-104.5 96.5t-49.5 128.5t-12.5 137.5h88q0 -39 8 -88.5t35.5 -97.5t76.5 -82.5t132 -34.5q44 0 86 12t72.5 38t52 68t21.5 99q0 63 -25 105t-67 68.5t-99.5 51.5t-123.5 59q-189 87 -280 190t-91 269zM184 655q0 -80 23 -135.5t74 -103t131.5 -90t203.5 -96.5 q96 28 151.5 74t81.5 93.5t33 92t7 69.5q0 80 -22.5 135.5t-79 100t-138 85t-196.5 90.5q-46 -9 -92.5 -26.5t-86.5 -55.5t-65 -93.5t-25 -139.5z" />
<glyph unicode="&#xa9;" horiz-adv-x="2059" d="M130 805q0 156 61 295t168 242.5t251.5 163.5t311.5 60q164 0 308.5 -60t254 -162.5t171.5 -240t62 -298.5q0 -155 -62 -291.5t-171.5 -239.5t-253.5 -162.5t-309 -59.5q-168 0 -312 59.5t-251 164t-168 241t-61 288.5zM221 805q0 -139 54.5 -265t148.5 -220.5 t221.5 -146.5t276.5 -52q144 0 272.5 52t225 146.5t152 220.5t55.5 265q0 147 -56.5 273t-153 220.5t-225.5 147t-270 52.5q-147 0 -274 -52.5t-222.5 -148t-150 -220.5t-54.5 -272zM557 807q0 195 90 303.5t275 108.5q64 0 122 -18.5t102.5 -49t71.5 -77t30 -106.5h-98 q-7 63 -57 119t-171 56q-95 0 -148.5 -42t-78.5 -96.5t-30.5 -109t-5.5 -88.5q0 -109 35 -172.5t82 -92t93.5 -36.5t65.5 -8q67 0 109.5 24t67.5 55.5t35 63.5t12 55h101q-7 -30 -23 -76.5t-50.5 -90t-95.5 -76t-159 -32.5q-177 0 -276 99.5t-99 286.5z" />
<glyph unicode="&#xab;" horiz-adv-x="1256" d="M180 455l363 447h93l-300 -447l300 -451h-95zM646 455l361 447h95l-299 -447l299 -451h-97z" />
<glyph unicode="&#xac;" horiz-adv-x="1536" d="M102 666v98h1330v-621h-113v523h-1217z" />
<glyph unicode="&#xad;" horiz-adv-x="926" d="M57 512v102h861v-102h-861z" />
<glyph unicode="&#xae;" horiz-adv-x="2059" d="M130 807q0 159 63 296.5t175 241.5t261.5 162.5t318.5 58.5t320 -58.5t261 -162.5t174.5 -241.5t64.5 -296.5q0 -154 -64.5 -292t-174.5 -241t-261 -161.5t-320 -58.5t-318.5 58.5t-261.5 161.5t-175 241t-63 292zM223 807q0 -139 56.5 -266t155.5 -220t231 -146.5 t282 -53.5q152 0 284 53.5t231 146.5t154.5 219t55.5 267q0 148 -55.5 272.5t-154.5 219t-231 147t-284 52.5q-148 0 -280 -52.5t-232 -147t-156.5 -220.5t-56.5 -271zM648 441v750h354q96 0 153 -24t84.5 -56.5t34 -70.5t6.5 -67q0 -41 -14 -72t-34 -52.5t-44 -33.5 t-47 -21v-3q73 -17 93 -66.5t26 -106.5q2 -45 3 -72.5t2.5 -45.5t8 -31.5t19.5 -27.5h-111q-9 11 -14.5 20.5t-9.5 28.5t-5 46.5t-1 75.5q-2 25 -6.5 51t-21.5 44t-52 33t-102 15h-217v-314h-105zM753 827h225q34 0 70 9.5t64.5 26.5t44.5 45.5t16 64.5q0 48 -18 76.5 t-48.5 43t-69.5 21.5t-78 7h-206v-294z" />
<glyph unicode="&#xaf;" horiz-adv-x="1540" d="M-28 1512v104h1672v-104h-1672z" />
<glyph unicode="&#xb0;" horiz-adv-x="1115" d="M211 1298q0 63 30 121t80 101.5t116 69.5t138 26q75 0 142.5 -26t117.5 -69.5t80.5 -101t30.5 -121.5q0 -68 -30.5 -128.5t-80.5 -103.5t-117.5 -68t-142.5 -25q-66 0 -132 25t-117 67t-83 103.5t-32 129.5zM278 1298q0 -57 23.5 -102.5t64.5 -79.5t96.5 -52t112.5 -18 q63 0 119 18t97 52t65 79.5t24 102.5q0 47 -24 94t-65 80t-97 53.5t-119 20.5q-57 0 -112.5 -20.5t-96.5 -53.5t-64.5 -80t-23.5 -94z" />
<glyph unicode="&#xb1;" horiz-adv-x="1536" d="M102 -80h1330v-98h-1330v98zM102 605v98h610v504h113v-504h607v-98h-607v-527h-113v527h-610z" />
<glyph unicode="&#xb4;" horiz-adv-x="926" d="M377 1323l164 293h225l-268 -293h-121z" />
<glyph unicode="&#xb6;" horiz-adv-x="1363" d="M89 1082q0 91 31.5 184.5t112.5 171.5t221 128t355 50q118 0 183 -5.5t104 -14.5v-1750h-111v1670h-194v-1670h-112v757h-24q-96 0 -195.5 28t-184 87t-135.5 148t-51 216z" />
<glyph unicode="&#xb7;" horiz-adv-x="515" d="M173 395v160h166v-160h-166z" />
<glyph unicode="&#xba;" horiz-adv-x="772" d="M78 1193q0 66 25 123t66.5 97t98.5 62.5t120 22.5h3q77 0 134 -23.5t93.5 -63.5t57 -91t20.5 -103q0 -74 -29 -129.5t-74 -95.5t-100 -58t-111 -18q-70 0 -126 21.5t-95.5 60.5t-61 90t-21.5 105zM175 1198q0 -89 59 -144.5t150 -55.5q89 0 151.5 58t62.5 156 q0 28 -9.5 63t-32 67.5t-66 54.5t-106.5 22h-2q-61 0 -99 -20.5t-61.5 -53.5t-35 -72t-11.5 -75z" />
<glyph unicode="&#xbb;" horiz-adv-x="1256" d="M206 2l299 451l-299 447h98l358 -453l-358 -445h-98zM675 2l295 451l-295 447h93l355 -447l-355 -451h-93z" />
<glyph unicode="&#xc0;" horiz-adv-x="1431" d="M46 0l479 1351h143l475 -1351h-111l-125 364h-641l-118 -364h-102zM302 438h576l-290 842zM386 1662h165l186 -261h-89z" />
<glyph unicode="&#xc1;" horiz-adv-x="1431" d="M52 0l480 1351h138l473 -1351h-111l-125 364h-629l-124 -364h-102zM310 438h568l-284 842zM605 1434l132 228h127l-155 -228h-104z" />
<glyph unicode="&#xc2;" horiz-adv-x="1431" d="M52 0l480 1351h138l473 -1351h-111l-125 364h-629l-124 -364h-102zM310 438h568l-284 842zM316 1416l220 241h126l216 -241h-93l-189 205l-182 -205h-98z" />
<glyph unicode="&#xc3;" horiz-adv-x="1431" d="M52 0l480 1355h138l473 -1355h-111l-125 366h-629l-124 -366h-102zM230 1436q41 116 94 157.5t133 41.5q35 0 74.5 -12.5t91.5 -32.5l36 -15q87 -34 139 -33q50 0 78.5 20t43.5 73h93q-15 -102 -73 -149t-135 -47q-28 0 -75.5 16t-97.5 34t-97 31.5t-69 13.5 q-106 0 -136 -98h-100zM310 438h568l-284 844z" />
<glyph unicode="&#xc4;" horiz-adv-x="1431" d="M48 0l481 1369h139l475 -1369h-111l-125 366h-636l-121 -366h-102zM304 443h574l-284 852zM371 1494v165h102v-165h-102zM712 1494v165h106v-165h-106z" />
<glyph unicode="&#xc5;" horiz-adv-x="1431" d="M48 0l481 1319h139l475 -1319h-111l-125 357h-636l-121 -357h-102zM304 427h574l-287 821zM498 1523q0 25 10 48t28.5 38.5t42.5 27t50 11.5q30 0 53 -11.5t41 -27t28 -39.5t10 -47q0 -61 -38.5 -96.5t-90.5 -35.5q-61 0 -97.5 36.5t-36.5 95.5zM525 1518q0 -29 25 -62 t84 -33q43 0 64.5 31.5t21.5 63.5q0 33 -23.5 61t-71.5 28t-74 -25t-26 -64z" />
<glyph unicode="&#xc6;" horiz-adv-x="2004" d="M48 0l696 1421h807v-78h-616l58 -575h534v-76h-527l59 -614h518v-78h-616l-35 382h-587l-187 -382h-104zM382 462h536l-91 889z" />
<glyph unicode="&#xc7;" horiz-adv-x="1286" d="M132 707q0 148 8 282t50 235t134 163t260 62q130 0 202.5 -42.5t110.5 -102t46.5 -127.5t8.5 -120h-104q-2 59 -16 117t-41 100t-78 68.5t-129 26.5q-128 0 -198 -49t-102 -133.5t-38.5 -207t-6.5 -272.5q0 -145 6.5 -266.5t38.5 -206t102.5 -131t197.5 -46.5 q134 0 197 92t67 242h120q-2 -52 -16.5 -122.5t-55.5 -137t-118.5 -113t-209.5 -46.5q-4 0 -6 2l-98 -113l104 5q59 0 105.5 -33t46.5 -104q0 -41 -19 -69.5t-50 -46.5t-72 -23.5t-88 -5.5q-85 0 -175 28l23 41q73 -28 127 -28q55 0 106 22.5t51 81.5q0 50 -38.5 73 t-86.5 23q-17 0 -37 -2.5t-40 -11.5l-19 14l119 149q-148 23 -226.5 91.5t-114 167.5t-42 220.5t-6.5 253.5z" />
<glyph unicode="&#xc8;" d="M180 0v1351h666v-71h-557v-551h529v-74h-529v-580h575v-75h-684zM316 1662h164l195 -261h-98z" />
<glyph unicode="&#xc9;" d="M173 0v1351h673v-71h-564v-551h536v-74h-536v-580h582v-75h-691zM460 1441l131 221h186l-211 -221h-106z" />
<glyph unicode="&#xca;" d="M173 0v1351h673v-71h-564v-551h536v-74h-536v-580h582v-75h-691zM186 1419l226 240h126l219 -240h-91l-193 204l-182 -204h-105z" />
<glyph unicode="&#xcb;" d="M171 0v1351h675v-71h-566v-551h538v-74h-538v-580h584v-75h-693zM245 1489v170h109v-170h-109zM591 1489v170h105v-170h-105z" />
<glyph unicode="&#xcc;" horiz-adv-x="570" d="M2 1662h171l189 -261h-91zM184 0v1351h107v-1351h-107z" />
<glyph unicode="&#xcd;" horiz-adv-x="570" d="M182 0v1351h107v-1351h-107zM189 1439l123 218h170l-198 -218h-95z" />
<glyph unicode="&#xce;" horiz-adv-x="570" d="M-59 1419l232 240h124l228 -240h-100l-195 204l-182 -204h-107zM180 0v1351h106v-1351h-106z" />
<glyph unicode="&#xcf;" horiz-adv-x="570" d="M22 1496v166h108v-166h-108zM189 0v1369h108v-1369h-108zM357 1496v166h103v-166h-103z" />
<glyph unicode="&#xd0;" horiz-adv-x="1431" d="M43 746v79h130v596h395q157 0 252.5 -42.5t144 -133.5t63.5 -225.5t15 -316.5q0 -178 -19 -308.5t-76 -220.5t-161.5 -132t-272.5 -42h-341v746h-130zM282 78h178q160 0 254.5 27t143.5 104t63 216t14 366q0 161 -15 267t-65 170.5t-141 89.5t-241 25h-191v-518h323v-79 h-323v-668z" />
<glyph unicode="&#xd1;" horiz-adv-x="1572" d="M182 16v1323h161l694 -1280l2 1280h72v-1323h-159l-688 1296l-2 -1296h-80zM319 1460q32 108 89.5 152.5t148.5 44.5q35 0 78.5 -15t91.5 -31.5t92.5 -31.5t74.5 -15q50 0 79 20.5t46 72.5h90q-18 -102 -71 -148.5t-136 -46.5q-34 0 -81.5 16t-97.5 32.5t-94.5 30.5 t-66.5 14q-109 0 -128 -95h-115z" />
<glyph unicode="&#xd2;" horiz-adv-x="1431" d="M143 675q0 134 7 265t49 226.5t135 153.5t262 58t259.5 -58t133.5 -153.5t51 -226.5t8 -265q0 -139 -8 -265t-51 -224.5t-134 -156t-259 -57.5q-169 0 -262 57.5t-135 156t-49 224.5t-7 265zM248 675q0 -141 5.5 -257t38.5 -195.5t103.5 -125t200.5 -45.5q126 0 197 45.5 t103 125t38.5 195.5t6.5 257t-6.5 257t-38.5 198t-104 126t-196 44q-130 0 -200.5 -44t-103.5 -126t-38.5 -198t-5.5 -257zM345 1662h153l166 -269h-80z" />
<glyph unicode="&#xd3;" horiz-adv-x="1431" d="M143 675q0 134 7 265t49 226.5t135 153.5t262 58t259.5 -58t133.5 -153.5t51 -226.5t8 -265q0 -139 -8 -265t-51 -224.5t-134 -156t-259 -57.5q-169 0 -262 57.5t-135 156t-49 224.5t-7 265zM248 675q0 -141 5.5 -257t38.5 -195.5t103.5 -125t200.5 -45.5q126 0 197 45.5 t103 125t38.5 195.5t6.5 257t-6.5 257t-38.5 198t-104 126t-196 44q-130 0 -200.5 -44t-103.5 -126t-38.5 -198t-5.5 -257zM603 1446l120 216h168l-193 -216h-95z" />
<glyph unicode="&#xd4;" horiz-adv-x="1431" d="M143 675q0 134 7 265t49 226.5t135 153.5t262 58t259.5 -58t133.5 -153.5t51 -226.5t8 -265q0 -139 -8 -265t-51 -224.5t-134 -156t-259 -57.5q-169 0 -262 57.5t-135 156t-49 224.5t-7 265zM248 675q0 -141 5.5 -257t38.5 -195.5t103.5 -125t200.5 -45.5q126 0 197 45.5 t103 125t38.5 195.5t6.5 257t-6.5 257t-38.5 198t-104 126t-196 44q-130 0 -200.5 -44t-103.5 -126t-38.5 -198t-5.5 -257zM314 1421l222 241h123l219 -241h-95l-187 204l-182 -204h-100z" />
<glyph unicode="&#xd5;" horiz-adv-x="1431" d="M143 675q0 134 7 265t49 226.5t135 153.5t262 58t259.5 -58t133.5 -153.5t51 -226.5t8 -265q0 -139 -8 -265t-51 -224.5t-134 -156t-259 -57.5q-169 0 -262 57.5t-135 156t-49 224.5t-7 265zM248 675q0 -141 5.5 -257t38.5 -195.5t103.5 -125t200.5 -45.5q126 0 197 45.5 t103 125t38.5 195.5t6.5 257t-6.5 257t-38.5 198t-104 126t-196 44q-130 0 -200.5 -44t-103.5 -126t-38.5 -198t-5.5 -257zM248 1462q41 115 95 156t137 41q34 0 70 -12t88 -33l39 -13q37 -14 65 -24.5t56 -10.5q61 0 91.5 17.5t49.5 75.5h93q-17 -102 -73.5 -148.5 t-135.5 -46.5q-28 0 -75.5 16t-97 33t-93 30.5t-66.5 13.5q-114 0 -139 -95h-104z" />
<glyph unicode="&#xd6;" horiz-adv-x="1431" d="M143 682q0 141 7 270.5t49 227.5t135 155.5t262 57.5t259.5 -57.5t133.5 -155.5t51 -227.5t8 -270.5q0 -139 -8 -267.5t-51 -228t-134 -157t-259 -57.5q-169 0 -262 57.5t-135 157t-49 228t-7 267.5zM248 682q0 -144 5.5 -260t38.5 -197.5t103.5 -126t200.5 -44.5 q126 0 197 44.5t103 126t38.5 197.5t6.5 260q0 145 -6.5 261t-38.5 198t-104 128.5t-196 46.5q-130 0 -200.5 -46.5t-103.5 -128.5t-38.5 -198t-5.5 -261zM373 1494v165h104v-165h-104zM712 1494v165h104v-165h-104z" />
<glyph unicode="&#xd7;" d="M59 171l362 334l-362 336l56 53l365 -339l361 339l61 -53l-364 -336l358 -334v-10q-7 -9 -16.5 -15.5t-13.5 -11.5l-25 -27l-361 338l-365 -338z" />
<glyph unicode="&#xd8;" horiz-adv-x="1431" d="M111 -34l112 186q-59 100 -71.5 214t-12.5 218v241q0 102 10 213.5t54.5 202.5t136.5 149.5t254 58.5q113 0 191.5 -32.5t144.5 -93.5l105 168l41 -27l-115 -195q57 -96 72 -209.5t15 -218.5v-243q0 -104 -10 -213.5t-55.5 -203.5t-136.5 -151.5t-252 -57.5 q-113 0 -193 35.5t-145 92.5l-97 -161zM245 677q0 -113 3.5 -212t35.5 -215l588 982q-38 63 -102.5 100t-175.5 37q-132 0 -203.5 -51t-104 -139t-37 -207.5t-4.5 -264.5v-30zM312 189q39 -64 103.5 -98t178.5 -34q128 0 199 46.5t103 128.5t38.5 196.5t6.5 248.5 q0 132 -4.5 247t-31.5 243z" />
<glyph unicode="&#xd9;" horiz-adv-x="1431" d="M154 405v946h105v-853q0 -70 6 -148.5t36.5 -144.5t98.5 -109.5t194 -43.5q125 0 193 43.5t100.5 109.5t37.5 144t5 149v853h107v-946q0 -125 -35.5 -211.5t-96.5 -135.5t-143.5 -67.5t-167.5 -18.5q-89 0 -170 18.5t-138.5 67.5t-94.5 135.5t-37 211.5zM371 1662h147 l174 -261h-80z" />
<glyph unicode="&#xda;" horiz-adv-x="1431" d="M154 405v946h105v-853q0 -70 6 -148.5t36.5 -144.5t98.5 -109.5t194 -43.5q125 0 193 43.5t100.5 109.5t37.5 144t5 149v853h107v-946q0 -125 -35.5 -211.5t-96.5 -135.5t-143.5 -67.5t-167.5 -18.5q-89 0 -170 18.5t-138.5 67.5t-94.5 135.5t-37 211.5zM557 1441 l118 221h166l-188 -221h-96z" />
<glyph unicode="&#xdb;" horiz-adv-x="1431" d="M154 405v946h105v-853q0 -70 6 -148.5t36.5 -144.5t98.5 -109.5t194 -43.5q125 0 193 43.5t100.5 109.5t37.5 144t5 149v853h107v-946q0 -125 -35.5 -211.5t-96.5 -135.5t-143.5 -67.5t-167.5 -18.5q-89 0 -170 18.5t-138.5 67.5t-94.5 135.5t-37 211.5zM312 1423 l222 241h125l219 -241h-95l-189 204l-182 -204h-100z" />
<glyph unicode="&#xdc;" horiz-adv-x="1431" d="M154 410v959h105v-860q0 -75 6 -154.5t36.5 -147.5t98.5 -110.5t194 -42.5q125 0 193 42.5t100.5 110.5t37.5 147.5t5 154.5v860h107v-959q0 -128 -35.5 -214.5t-96.5 -136.5t-143.5 -68.5t-167.5 -18.5q-89 0 -170 18.5t-138.5 68.5t-94.5 136.5t-37 214.5zM371 1496 v166h102v-166h-102zM712 1496v166h104v-166h-104z" />
<glyph unicode="&#xdd;" horiz-adv-x="1286" d="M65 1339h94l377 -695l392 695h70l-430 -775v-548h-80v548zM438 1439l113 223h161l-183 -223h-91z" />
<glyph unicode="&#xde;" d="M166 0v1577h120v-363h337q50 0 112.5 -8t118 -45.5t94.5 -114t39 -205.5q0 -236 -91 -345.5t-302 -109.5h-308v-386h-120zM286 471h298q61 0 115 17t91 52t57.5 101t20.5 166q0 111 -22.5 173.5t-62 94.5t-92.5 41.5t-109 9.5h-296v-655z" />
<glyph unicode="&#xdf;" horiz-adv-x="1286" d="M173 0v1237q0 56 15.5 115.5t58 114t123.5 91t205 36.5q61 0 123.5 -18.5t111.5 -54t77.5 -85.5t28.5 -115q0 -80 -39.5 -142t-86 -121.5t-87.5 -111.5t-41 -114q0 -69 62.5 -128.5t138.5 -121t140 -135.5t64 -167q0 -159 -93.5 -232.5t-255.5 -73.5q-143 0 -214.5 68.5 t-73.5 200.5h106q7 -86 52.5 -137.5t159.5 -51.5q111 0 161 56t50 152q0 59 -30.5 109t-76 93t-96.5 82.5t-96.5 79.5t-76 83.5t-30.5 93.5q0 77 39.5 140.5t88 125t89.5 123.5t41 138q0 45 -23.5 83t-59.5 61.5t-80.5 35t-90.5 11.5q-50 0 -100 -12.5t-90 -49t-63.5 -99 t-23.5 -162.5v-1198h-107z" />
<glyph unicode="&#xe0;" d="M104 297q0 121 55 193t139 105.5t184 44t191 13.5l127 6v118q0 141 -57 222t-220 81q-109 0 -185 -53.5t-88 -151.5h-102q6 73 40.5 122t86.5 79.5t119.5 46.5t141.5 16q43 0 105 -6.5t118.5 -33t96.5 -85.5t40 -159v-649q0 -30 2 -57.5t4.5 -64t8.5 -84.5h-102v191 q-56 -113 -164.5 -165t-217.5 -52q-161 0 -242 89t-81 234zM211 302q0 -52 15 -98.5t46.5 -84t78 -57t111.5 -19.5q73 0 133 25t107.5 68.5t72.5 103.5t25 122v234h-97q-83 0 -170.5 -8.5t-158 -36.5t-117 -86t-46.5 -163zM266 1621h181l230 -323h-98z" />
<glyph unicode="&#xe1;" d="M104 297q0 121 55 193t139 105.5t184 44t191 13.5l127 6v118q0 141 -57 222t-220 81q-109 0 -185 -53.5t-88 -151.5h-102q6 73 40.5 122t86.5 79.5t119.5 46.5t141.5 16q43 0 105 -6.5t118.5 -33t96.5 -85.5t40 -159v-649q0 -30 2 -57.5t4.5 -64t8.5 -84.5h-102v191 q-56 -113 -164.5 -165t-217.5 -52q-161 0 -242 89t-81 234zM211 302q0 -52 15 -98.5t46.5 -84t78 -57t111.5 -19.5q73 0 133 25t107.5 68.5t72.5 103.5t25 122v234h-97q-83 0 -170.5 -8.5t-158 -36.5t-117 -86t-46.5 -163zM507 1300l207 323h216l-305 -323h-118z" />
<glyph unicode="&#xe2;" d="M104 297q0 121 55 193t139 105.5t184 44t191 13.5l127 6v118q0 141 -57 222t-220 81q-109 0 -185 -53.5t-88 -151.5h-102q6 73 40.5 122t86.5 79.5t119.5 46.5t141.5 16q43 0 105 -6.5t118.5 -33t96.5 -85.5t40 -159v-649q0 -30 2 -57.5t4.5 -64t8.5 -84.5h-102v191 q-171 -217 -382 -217q-161 0 -242 89t-81 234zM211 302q0 -52 15 -98.5t46.5 -84t78 -57t111.5 -19.5q73 0 133 25t107.5 68.5t72.5 103.5t25 122v234h-97q-83 0 -170.5 -8.5t-158 -36.5t-117 -86t-46.5 -163zM230 1286l238 271h137l241 -271h-89l-219 252l-217 -252h-91z " />
<glyph unicode="&#xe3;" d="M100 1412q34 115 93 163t152 48q26 0 73.5 -15.5t104 -35t113 -37t89.5 -17.5q59 0 94.5 22t52.5 85h87q-13 -109 -74.5 -161t-153.5 -52q-29 0 -79.5 19.5t-108 38.5t-108.5 37t-75 18q-59 0 -102.5 -27t-57.5 -86h-100zM104 297q0 121 55 193t139 105.5t184 44 t191 13.5l127 6v118q0 141 -57 222t-220 81q-109 0 -185 -53.5t-88 -151.5h-102q6 73 40.5 122t86.5 79.5t119.5 46.5t141.5 16q43 0 105 -6.5t118.5 -33t96.5 -85.5t40 -159v-649q0 -30 2 -57.5t4.5 -64t8.5 -84.5h-102v191q-56 -113 -164.5 -165t-217.5 -52 q-161 0 -242 89t-81 234zM211 302q0 -52 15 -98.5t46.5 -84t78 -57t111.5 -19.5q73 0 133 25t107.5 68.5t72.5 103.5t25 122v234h-97q-83 0 -170.5 -8.5t-158 -36.5t-117 -86t-46.5 -163z" />
<glyph unicode="&#xe4;" d="M104 297q0 121 55 193t139 105.5t184 44t191 13.5l127 6v118q0 141 -57 222t-220 81q-109 0 -185 -53.5t-88 -151.5h-102q6 73 40.5 122t86.5 79.5t119.5 46.5t141.5 16q43 0 105 -6.5t118.5 -33t96.5 -85.5t40 -159v-649q0 -30 2 -57.5t4.5 -64t8.5 -84.5h-102v191 q-171 -217 -382 -217q-161 0 -242 89t-81 234zM211 302q0 -52 15 -98.5t46.5 -84t78 -57t111.5 -19.5q73 0 133 25t107.5 68.5t72.5 103.5t25 122v234h-97q-83 0 -170.5 -8.5t-158 -36.5t-117 -86t-46.5 -163zM289 1316v182h104v-182h-104zM679 1316v182h106v-182h-106z" />
<glyph unicode="&#xe5;" d="M104 297q0 121 55 193t139 105.5t184 44t191 13.5l127 6v118q0 141 -57 222t-220 81q-109 0 -185 -53.5t-88 -151.5h-102q6 73 40.5 122t86.5 79.5t119.5 46.5t141.5 16q43 0 105 -6.5t118.5 -33t96.5 -85.5t40 -159v-649q0 -30 2 -57.5t4.5 -64t8.5 -84.5h-102v191 q-56 -113 -164.5 -165t-217.5 -52q-161 0 -242 89t-81 234zM211 302q0 -52 15 -98.5t46.5 -84t78 -57t111.5 -19.5q73 0 133 25t107.5 68.5t72.5 103.5t25 122v234h-97q-83 0 -170.5 -8.5t-158 -36.5t-117 -86t-46.5 -163zM391 1441q0 41 15 75.5t43 61.5t66 42t81 15 q37 0 76.5 -15t65.5 -42t43 -62.5t17 -76.5q0 -44 -17 -81t-43 -64t-64 -44.5t-76 -17.5q-93 0 -150 61t-57 148zM468 1441q0 -22 6 -42.5t22 -41.5t42 -32t65 -11q65 0 92.5 40.5t27.5 84.5q0 43 -29.5 82t-95.5 39q-67 0 -98.5 -37t-31.5 -82z" />
<glyph unicode="&#xe6;" horiz-adv-x="1859" d="M95 282q0 130 57 201.5t145.5 105.5t201.5 41.5t224 7.5h80q0 76 -4.5 154t-32 143t-87 105t-165.5 40q-109 0 -185.5 -53.5t-89.5 -151.5h-102q11 73 45 122t85.5 79.5t118.5 46.5t139 16q48 0 100 -14t97.5 -39t83.5 -63t60 -95q59 98 148.5 154.5t178.5 56.5 q148 0 230 -48t120.5 -125t49 -178.5t10.5 -212.5h-714v-137q0 -65 11 -135.5t45.5 -126t94.5 -94.5t153 -39q150 0 224 70.5t79 190.5h102q-20 -182 -127 -256t-278 -74q-109 0 -206.5 64t-138.5 192q-65 -130 -150.5 -193t-209.5 -63q-80 0 -151 18.5t-124.5 55 t-85.5 95.5t-32 139zM204 291q0 -134 80 -191t214 -57q107 0 167 50t92 123t40 159.5t8 158.5v19.5t-5 25.5q-97 -8 -202 -9.5t-193.5 -21t-144.5 -77t-56 -180.5zM889 638h616q0 100 -10.5 182t-45.5 140.5t-95.5 89t-160.5 30.5q-143 0 -223.5 -118t-80.5 -324z" />
<glyph unicode="&#xe7;" horiz-adv-x="1002" d="M107 551q0 168 20.5 280.5t63.5 180.5t118 97.5t186 29.5q148 0 235.5 -70.5t87.5 -238.5h-98q0 116 -52 183t-195 67q-68 0 -118.5 -22.5t-82 -81t-45 -161.5t-13.5 -264q0 -85 4.5 -173.5t28.5 -163.5t75 -123t146 -48q80 0 128 18.5t75 54.5t37 82.5t15 98.5h100 q-5 -97 -39 -159.5t-84 -98t-103.5 -50.5t-93.5 -15l-121 -149q6 0 22.5 1t36.5 1h71q61 0 114 -34t53 -105q0 -52 -21.5 -82.5t-56.5 -51t-82.5 -27.5t-97.5 -7t-94.5 9t-92.5 26l18 29q80 -28 145 -27q30 0 62 8t59.5 20.5t44 37.5t16.5 63q0 59 -44 86.5t-99 27.5 q-28 0 -52 -5.5t-48 -15.5l-11 12l143 183q-136 16 -209 72t-105.5 136t-39.5 176.5t-7 192.5z" />
<glyph unicode="&#xe8;" d="M132 388v282q0 248 102 358.5t304 110.5q148 0 229 -46.5t120 -125t46.5 -186.5t7.5 -230h-713v-113q0 -65 12 -135.5t45.5 -126t94.5 -94.5t158 -39q148 0 220 70.5t77 190.5h102q-7 -91 -38 -155.5t-83 -103t-122.5 -55t-155.5 -16.5q-77 0 -150.5 17.5t-129.5 64 t-91 127.5t-35 205zM228 618h616q0 105 -13 191.5t-45.5 145t-92 92t-155.5 33.5q-97 0 -158 -33.5t-94.5 -92t-45.5 -145t-12 -191.5zM266 1621h181l230 -323h-98z" />
<glyph unicode="&#xe9;" d="M132 388v282q0 248 102 358.5t304 110.5q148 0 229 -46.5t120 -125t46.5 -186.5t7.5 -230h-713v-113q0 -65 12 -135.5t45.5 -126t94.5 -94.5t158 -39q148 0 220 70.5t77 190.5h102q-7 -91 -38 -155.5t-83 -103t-122.5 -55t-155.5 -16.5q-77 0 -150.5 17.5t-129.5 64 t-91 127.5t-35 205zM228 618h616q0 105 -13 191.5t-45.5 145t-92 92t-155.5 33.5q-97 0 -158 -33.5t-94.5 -92t-45.5 -145t-12 -191.5zM512 1300l202 321h216l-301 -321h-117z" />
<glyph unicode="&#xea;" d="M132 388v282q0 248 102 358.5t304 110.5q148 0 229 -46.5t120 -125t46.5 -186.5t7.5 -230h-713v-113q0 -65 12 -135.5t45.5 -126t94.5 -94.5t158 -39q148 0 220 70.5t77 190.5h102q-7 -91 -38 -155.5t-83 -103t-122.5 -55t-155.5 -16.5q-77 0 -150.5 17.5t-129.5 64 t-91 127.5t-35 205zM228 618h616q0 105 -13 191.5t-45.5 145t-92 92t-155.5 33.5q-97 0 -158 -33.5t-94.5 -92t-45.5 -145t-12 -191.5zM228 1325l238 271h139l241 -271h-91l-217 250l-219 -250h-91z" />
<glyph unicode="&#xeb;" d="M132 388v282q0 248 102 358.5t304 110.5q148 0 229 -46.5t120 -125t46.5 -186.5t7.5 -230h-713v-113q0 -65 12 -135.5t45.5 -126t94.5 -94.5t158 -39q148 0 220 70.5t77 190.5h102q-7 -91 -38 -155.5t-83 -103t-122.5 -55t-155.5 -16.5q-77 0 -150.5 17.5t-129.5 64 t-91 127.5t-35 205zM228 618h616q0 105 -13 191.5t-45.5 145t-92 92t-155.5 33.5q-97 0 -158 -33.5t-94.5 -92t-45.5 -145t-12 -191.5zM289 1316v182h104v-182h-104zM679 1316v182h106v-182h-106z" />
<glyph unicode="&#xec;" horiz-adv-x="570" d="M16 1557h207l150 -264h-59zM223 0v1117h93v-1117h-93z" />
<glyph unicode="&#xed;" horiz-adv-x="570" d="M163 1293l239 264l155 -4l-341 -260h-53zM216 0v1117h98v-1117h-98z" />
<glyph unicode="&#xee;" horiz-adv-x="570" d="M-46 1286l244 271h138l239 -271h-91l-218 252l-212 -252h-100zM221 0v1117h95v-1117h-95z" />
<glyph unicode="&#xef;" horiz-adv-x="570" d="M20 1316v182h108v-182h-108zM221 0v1117h95v-1117h-95zM412 1316v182h106v-182h-106z" />
<glyph unicode="&#xf0;" d="M132 412v238q0 211 95.5 324t301.5 113q105 0 153.5 -25t124.5 -101q-9 102 -33 168t-61.5 124.5t-78 100t-72.5 60.5l-223 -116l-35 32l232 119q-50 25 -76 38.5t-49 22t-42 15.5l-57 21l-8 2q20 18 30.5 23.5t31.5 24.5q39 -15 72 -25.5t60 -23.5t53 -27.5t54 -35.5 l213 110l39 -34l-202 -103q57 -52 106.5 -115.5t85 -157t55.5 -225.5t20 -327v-220q0 -207 -93.5 -322.5t-299.5 -115.5t-301.5 115t-95.5 323zM225 532q0 -116 10 -207t42.5 -156t93.5 -96.5t158 -31.5q98 0 157.5 31.5t90 96.5t40.5 156t10 207q0 111 -10 204.5t-40.5 158 t-90 101t-157.5 36.5q-97 0 -158 -36.5t-93.5 -101t-42.5 -157.5t-10 -205z" />
<glyph unicode="&#xf1;" d="M163 0v1117h96v-197q45 102 140.5 160.5t194.5 58.5q106 0 169.5 -34t95.5 -85.5t41 -110.5t9 -113v-796h-100v789q0 57 -12 109t-43 92t-79 65t-116 25q-56 0 -110 -20.5t-95.5 -64t-68 -115t-26.5 -173.5v-707h-96zM230 1389q32 115 92 163.5t155 48.5q20 0 69.5 -15 t105 -35.5t111 -36.5t92.5 -16q61 0 95.5 20t51.5 85h87q-13 -107 -76 -160.5t-149 -53.5q-33 0 -85 19t-107.5 38.5t-106.5 38t-79 18.5q-59 0 -102 -27t-57 -87h-97z" />
<glyph unicode="&#xf2;" d="M132 432v250q0 220 97.5 338.5t308.5 118.5q209 0 306 -118.5t97 -338.5v-250q0 -217 -97 -337.5t-306 -120.5q-211 0 -308.5 121t-97.5 337zM228 557q0 -121 10 -216.5t43 -162.5t95 -101t162 -34t160.5 34t92.5 101t42.5 162.5t10.5 216.5q0 118 -10.5 214.5t-42.5 165 t-92.5 106t-160.5 37.5t-162 -37.5t-95 -106t-43 -165t-10 -214.5zM266 1621h181l230 -323h-98z" />
<glyph unicode="&#xf3;" d="M132 432v250q0 220 97.5 338.5t308.5 118.5q209 0 306 -118.5t97 -338.5v-250q0 -217 -97 -337.5t-306 -120.5q-211 0 -308.5 121t-97.5 337zM228 557q0 -121 10 -216.5t43 -162.5t95 -101t162 -34t160.5 34t92.5 101t42.5 162.5t10.5 216.5q0 118 -10.5 214.5t-42.5 165 t-92.5 106t-160.5 37.5t-162 -37.5t-95 -106t-43 -165t-10 -214.5zM559 1382l155 273l184 4l-260 -273z" />
<glyph unicode="&#xf4;" d="M132 432v250q0 220 97.5 338.5t308.5 118.5q209 0 306 -118.5t97 -338.5v-250q0 -217 -97 -337.5t-306 -120.5q-211 0 -308.5 121t-97.5 337zM228 557q0 -121 10 -216.5t43 -162.5t95 -101t162 -34t160.5 34t92.5 101t42.5 162.5t10.5 216.5q0 118 -10.5 214.5t-42.5 165 t-92.5 106t-160.5 37.5t-162 -37.5t-95 -106t-43 -165t-10 -214.5zM228 1286l238 271h139l241 -271h-91l-217 252l-219 -252h-91z" />
<glyph unicode="&#xf5;" d="M132 432v250q0 220 97.5 338.5t308.5 118.5q209 0 306 -118.5t97 -338.5v-250q0 -217 -97 -337.5t-306 -120.5q-211 0 -308.5 121t-97.5 337zM161 1395q32 116 92.5 164t156.5 48q20 0 68.5 -15t104 -35.5t111.5 -36t93 -15.5q61 0 95 20.5t53 84.5h86q-13 -107 -76 -161 t-149 -54q-32 0 -84.5 19.5t-108 39t-107 38t-78.5 18.5q-58 0 -101.5 -27.5t-57.5 -87.5h-98zM228 557q0 -121 10 -216.5t43 -162.5t95 -101t162 -34t160.5 34t92.5 101t42.5 162.5t10.5 216.5q0 118 -10.5 214.5t-42.5 165t-92.5 106t-160.5 37.5t-162 -37.5t-95 -106 t-43 -165t-10 -214.5z" />
<glyph unicode="&#xf6;" d="M132 432v250q0 220 97.5 338.5t308.5 118.5q209 0 306 -118.5t97 -338.5v-250q0 -217 -97 -337.5t-306 -120.5q-211 0 -308.5 121t-97.5 337zM228 557q0 -121 10 -216.5t43 -162.5t95 -101t162 -34t160.5 34t92.5 101t42.5 162.5t10.5 216.5q0 118 -10.5 214.5t-42.5 165 t-92.5 106t-160.5 37.5t-162 -37.5t-95 -106t-43 -165t-10 -214.5zM289 1316v182h104v-182h-104zM679 1316v182h106v-182h-106z" />
<glyph unicode="&#xf7;" d="M65 536v73h944v-73h-944zM468 2v130h133v-130h-133zM468 1009v132h133v-132h-133z" />
<glyph unicode="&#xf8;" d="M93 -73l116 171q-30 41 -44.5 95.5t-22.5 102t-9 85t-1 51.5v275q0 57 6.5 128.5t45.5 139.5t120.5 116t233.5 48q98 0 174.5 -27.5t128.5 -76.5q23 38 55 81t52 86q4 -2 12 -7.5t18 -10.5l-110 -175q26 -48 42 -83t21.5 -69t7.5 -68t2 -82v-275q0 -111 -20.5 -193 t-69 -143.5t-126 -91.5t-187.5 -30q-97 0 -171 26t-128 73l-111 -164zM228 557q0 -93 5.5 -179.5t32.5 -195.5l517 775q-35 63 -95.5 93t-149.5 30q-100 0 -162 -30.5t-95 -94.5t-43 -162.5t-10 -235.5zM293 157q39 -59 93.5 -86.5t142.5 -27.5q80 0 132.5 18.5t83 45.5 t44.5 54.5t20 47.5l5 5q9 28 13.5 75t9 99.5t6 99t1.5 69.5q0 85 -6 172t-33 197z" />
<glyph unicode="&#xf9;" d="M175 316v801h96v-778q0 -12 3.5 -60.5t22.5 -101t67 -93.5t141 -41q80 0 137.5 29.5t92.5 71.5t51.5 92t16.5 83v798h97v-1117h-77v173q-85 -111 -170 -155t-180 -44q-89 0 -145.5 28t-91 77t-48 111t-13.5 126zM312 1598h181l184 -300h-98z" />
<glyph unicode="&#xfa;" d="M175 316v801h96v-778q0 -12 3.5 -60.5t22.5 -101t67 -93.5t141 -41q80 0 137.5 29.5t92.5 71.5t51.5 92t16.5 83v798h97v-1117h-77v173q-85 -111 -170 -155t-180 -44q-89 0 -145.5 28t-91 77t-48 111t-13.5 126zM559 1343l155 278h186l-223 -278h-118z" />
<glyph unicode="&#xfb;" d="M175 316v801h96v-778q0 -12 3.5 -60.5t22.5 -101t67 -93.5t141 -41q80 0 137.5 29.5t92.5 71.5t51.5 92t16.5 83v798h97v-1117h-77v173q-94 -98 -174.5 -148.5t-175.5 -50.5q-89 0 -145.5 28t-91 77t-48 111t-13.5 126zM228 1286l238 271h139l241 -271h-91l-217 252 l-219 -252h-91z" />
<glyph unicode="&#xfc;" d="M175 316v801h96v-778q0 -12 3.5 -60.5t22.5 -101t67 -93.5t141 -41q80 0 137.5 29.5t92.5 71.5t51.5 92t16.5 83v798h97v-1117h-77v173q-94 -98 -174.5 -148.5t-175.5 -50.5q-89 0 -145.5 28t-91 77t-48 111t-13.5 126zM289 1316v182h104v-182h-104zM679 1316v182h106 v-182h-106z" />
<glyph unicode="&#xfd;" horiz-adv-x="1002" d="M50 1117h102l325 -1024l323 1024h91l-505 -1555h-89l139 410zM491 1382l159 273h216l-254 -273h-121z" />
<glyph unicode="&#xfe;" d="M171 -438v2034h93v-678q80 118 172.5 169.5t175.5 51.5q117 0 187.5 -48t106 -118.5t43.5 -159t8 -165.5v-91q0 -93 -6.5 -195.5t-43.5 -190t-109.5 -142.5t-196.5 -55q-189 0 -330 212q0 -63 -2.5 -145t-2.5 -163.5t-1 -164t-1 -151.5h-93zM264 457q0 -106 25 -186 t65.5 -131t94.5 -74t110 -23q111 0 171.5 40t90 108t36.5 161t7 199q0 108 -7 204.5t-36.5 169.5t-90 114t-171.5 41q-43 0 -95 -22.5t-95.5 -71.5t-74 -129t-30.5 -198v-202z" />
<glyph unicode="&#xff;" horiz-adv-x="1002" d="M50 1117h102l325 -1024l323 1024h91l-505 -1555h-89l139 410zM223 1316v182h104v-182h-104zM614 1316v182h104v-182h-104z" />
<glyph unicode="&#x10d0;" horiz-adv-x="950" d="M102 375h98q0 -316 286 -316q148 4 200.5 102t52.5 171q0 166 -225 273t-221 232h109q0 -63 223 -176.5t221 -306.5q0 -243 -176 -343q-84 -50 -199 -50q-187 0 -278 114t-91 300z" />
<glyph unicode="&#x10d1;" horiz-adv-x="947" d="M102 382q0 141 106 275t199 184q44 37 61 73q46 134 46 218q0 73 -34.5 112.5t-95.5 83.5q-75 54 -134 111l-20 -352h-91l34 461h116q63 -65 116 -105q93 -70 107 -83q63 -52 84 -106q18 -45 18 -135q0 -30 -23 -114.5t-23 -113.5q-9 -45 42.5 -84t142.5 -159.5 t93 -278.5q-2 -232 -114 -321t-259 -89q-189 0 -280 119.5t-91 303.5zM221 339q2 -141 64 -214t183 -75q126 0 193.5 75.5t69.5 284.5q-2 197 -245 373q-109 -70 -189.5 -167.5t-75.5 -276.5z" />
<glyph unicode="&#x10d2;" horiz-adv-x="1100" d="M102 -236q0 206 198 347q93 48 209 125q42 28 53 70q15 53 15 169q0 239 -193 237q-175 -5 -175 -232v-144h-107v111q0 226 134 319q66 48 171 48q148 0 222 -100q64 -89 67 -241l2 -173q0 -59 39 -105q18 -17 88 -77q173 -140 173 -363q0 -196 -117 -315t-313 -119 q-282 0 -407 211q-59 99 -59 232zM214 -250q0 -141 100 -237.5t241 -96.5q159 0 245.5 90t86.5 253q0 111 -93 237q-85 111 -193 173q-387 -161 -387 -419z" />
<glyph unicode="&#x10d3;" horiz-adv-x="1597" d="M102 -89q93 16 214 16q-214 214 -214 461q0 187 93 304q102 125 282 126q182 0 293 -180q124 176 321 176q187 0 295 -122q110 -117 110 -306q0 -252 -191 -368q-93 -57 -214 -57q-241 0 -343 191q-48 91 -48 205q5 44 5 79q0 182 -111 250q-61 26 -147 23 q-104 -2 -165 -89q-59 -84 -61 -195q-2 -163 95 -318q89 -135 237 -218q238 -109 388 -208q157 -102 337 -279l-83 -81q-170 175 -317 267q-73 48 -192 108q-139 68 -185 85q-109 41 -201 41q-94 0 -189 -13zM800 386q0 -186 141 -275q68 -43 155 -43q141 0 220 91 q75 86 75 227q0 143 -75 228q-79 89 -220 89q-178 0 -259 -157q-37 -73 -37 -160z" />
<glyph unicode="&#x10d4;" horiz-adv-x="1078" d="M102 -291q0 239 204 345l58 -56q-163 -118 -164 -284q0 -135 95.5 -216.5t197.5 -81.5q336 0 337 336l-3 743q-13 100 -81.5 155t-161.5 57q-219 0 -270 -161q-22 -102 22 -210l-70 -34q-67 78 -68 149q0 173 112.5 268t253.5 95q186 0 277 -108t91 -244v-678 q0 -226 -123 -347t-314 -121q-204 -2 -296 128.5t-97 264.5z" />
<glyph unicode="&#x10d5;" horiz-adv-x="1078" d="M102 -291q0 239 204 345l58 -56q-163 -118 -164 -284q0 -135 100 -217q91 -82 205 -81q336 0 336 336q0 35 -2 62q-15 206 -189 251q-56 18 -170 19v96q184 0 265.5 94.5t81.5 202.5q0 118 -80.5 173t-162.5 57q-230 0 -272 -161q-16 -78 11 -199l-61 -33q-76 59 -76 204 q0 105 113 200.5t265 99.5q171 -2 274 -101t106 -255q0 -228 -248 -317q259 -99 259 -361q0 -226 -123 -347t-325 -121q-234 0 -348 183q-57 89 -57 210z" />
<glyph unicode="&#x10d6;" horiz-adv-x="1040" d="M11 1217q0 229 155 321q78 48 186 49q128 -11 199 -123q54 -95 54 -232q2 -78 -15 -162.5t-61 -149.5l-17 -104l334 288l93 -91l-357 -199q163 2 266 -135q91 -122 91 -293q0 -188 -91 -299q-98 -126 -282 -126q-234 0 -327 214q-44 100 -44 211q0 44 10.5 98t34.5 107 t64.5 104t92.5 88l46 99q-20 -38 -113 -38q-196 0 -280 193q-39 86 -39 180zM118 1217q0 -107 48 -185q55 -93 157 -93q123 0 168 150q18 67 18 128q0 104 -36 186q-50 98 -146 98q-104 0 -161 -94q-45 -79 -48 -190zM314 382q0 -182 118 -278q59 -47 141 -47q121 0 191 104 q56 91 56 221q0 186 -108 284q-57 48 -139 48q-161 0 -230 -173q-30 -80 -29 -159z" />
<glyph unicode="&#x10d7;" horiz-adv-x="1518" d="M102 386q0 180 96 298q102 130 275 130q206 0 306 -172q128 173 303 172q214 0 296 -189q38 -87 38 -193q0 -267 -316 -471l-68 73l102 89q178 148 180 287q2 115 -52 202q-61 100 -171 100q-102 0 -169 -64t-81 -166q0 -16 2.5 -46.5t2.5 -49.5q0 -249 -173 -366 q-85 -59 -200 -59q-234 0 -328 217q-43 97 -43 208zM211 382q0 -123 69 -216q73 -99 191 -101q173 0 236 163q30 69 30 154q0 132 -64 225q-74 105 -202 105q-130 0 -198 -105q-61 -91 -62 -225z" />
<glyph unicode="&#x10d8;" horiz-adv-x="997" d="M102 400q0 186 124 300t272 114q226 0 312 -142.5t86 -271.5q0 -198 -86.5 -299t-173.5 -140l-52 76q197 141 199 365q0 195 -93.5 255.5t-188.5 60.5q-85 0 -185 -61t-100 -255q0 -232 191 -368l-45 -73q-96 59 -178 175t-82 264z" />
<glyph unicode="&#x10d9;" horiz-adv-x="1047" d="M102 -291q0 239 182 330l61 -57q-145 -106 -145 -268q0 -132 97 -217q91 -82 206 -81q306 0 306 336q0 89 -2 107q-13 123 -87 200q-100 117 -347 125v72q380 3 380 335v214h119v-211q0 -146 -52 -217q-47 -104 -154 -152q256 -92 256 -441q0 -224 -123.5 -346 t-293.5 -122q-234 0 -348 183q-55 89 -55 210z" />
<glyph unicode="&#x10da;" horiz-adv-x="1985" d="M102 384q0 264 171 373q87 57 204 57q178 0 276 -168q86 169 260 168q176 0 262 -166q94 167 278 166q202 0 291 -168q41 -78 41 -171q0 -197 -150 -397l-69 74q76 109 104 278q0 171 -91 245q-45 41 -117 41q-152 4 -204 -134q-23 -80 -24 -155v-284h-117v330 q0 234 -204 239q-104 0 -154 -87q-43 -70 -43 -152v-330h-118v341q0 230 -255 230q-102 -9 -163 -100q-57 -98 -59 -204q-2 -107 41 -217q80 -214 270 -341q102 -65 195 -100q180 -63 651 -240q115 -44 261 -100l-64 -108q-173 89 -441 189q-106 39 -236 84l-243 98 q-239 89 -391 71q-41 0 -130 -15l-11 115q109 17 211 22q-143 139 -202 327q-30 96 -30 189z" />
<glyph unicode="&#x10db;" horiz-adv-x="992" d="M102 384q0 241 167 369q82 58 188 58q187 -2 272 -154v573q5 134 -58.5 202.5t-154.5 68.5q-273 -3 -280 -271q0 -55 23 -113l-64 -33q-70 80 -70 155q0 166 98 257t265 91q358 0 358 -350v-853q0 -254 -171 -368q-84 -57 -202 -57q-180 0 -280 125q-91 114 -91 300z M216 380q0 -185 114 -278q54 -48 138 -48q124 0 194 105q63 91 63 221q0 188 -118 286q-54 46 -139 46q-123 0 -190 -109q-62 -96 -62 -223z" />
<glyph unicode="&#x10dc;" horiz-adv-x="992" d="M148 386v922q0 279 238 279q52 0 133.5 -20.5t178.5 -20.5q78 0 159 41l32 -80q-93 -61 -173 -61q-57 0 -132 27.5t-161 27.5q-102 0 -138.5 -47t-32.5 -154v-641q93 150 282 155q163 4 260 -130.5t97 -297.5q0 -188 -94 -306.5t-279 -118.5q-186 0 -278 139t-92 286z M256 382q0 -143 84.5 -232t184.5 -93q123 0 186.5 97.5t63.5 227.5q0 184 -80.5 257t-169.5 75q-123 -2 -196 -104.5t-73 -227.5z" />
<glyph unicode="&#x10dd;" horiz-adv-x="1534" d="M102 423q0 234 184 341q87 50 196 50q158 0 271 -189q106 189 273 189q166 0 272 -111q104 -111 105 -280q0 -50 -32 -134q-30 -80 -59 -126l120 -122l-61 -73l-121 119q-78 -85 -127 -126l-71 73q123 111 169 175q73 106 72 225q0 107 -65 189q-68 86 -174 86 q-147 3 -204 -106q-43 -80 -43 -241v-123h-118v123q0 223 -88 302q-55 48 -158 45q-139 0 -207 -143q-32 -65 -32 -132q0 -178 251 -404l-73 -69q-134 111 -196 200q-84 121 -84 262z" />
<glyph unicode="&#x10de;" horiz-adv-x="947" d="M102 319q0 208 171 327l48 -73q-123 -80 -123 -239q0 -143 93 -219q86 -65 186 -65q135 0 197.5 86.5t62.5 240.5q0 362 -385 376v82q132 0 227 31q121 63 124 207q0 161 -224.5 265.5t-239.5 248.5h113q30 -127 238 -218t215 -296q0 -177 -214 -284q255 -103 255 -398 q0 -273 -127.5 -352.5t-250.5 -79.5q-204 2 -311 162q-55 80 -55 198z" />
<glyph unicode="&#x10df;" horiz-adv-x="1222" d="M107 -289q-5 161 147 291l62 -63q-108 -104 -102 -241q0 -156 105.5 -219t259.5 -63q393 -4 394 404v850q-102 -117 -270 -117q-46 0 -144 20q100 -152 98 -230q-4 -148 -94 -189t-161 -41q-171 0 -252 141q-39 68 -39 143q-4 83 78 154l56 -46q-22 -37 -24 -62t-2 -43 q0 -78 48.5 -127.5t125.5 -51.5q73 0 118.5 35t45.5 106q0 134 -169 265l89 85q126 -78 230 -78q143 0 252 171h117v-971q0 -246 -136.5 -383t-368.5 -135q-235 -2 -349.5 122t-114.5 273z" />
<glyph unicode="&#x10e0;" horiz-adv-x="1504" d="M102 423q0 121 67 230q52 80 163 182q136 123 238.5 271t115.5 442h141q-39 -436 -389 -741q259 0 315 -182q84 189 273 189q166 0 271.5 -111t105.5 -280q0 -241 -280 -462l-71 73q123 111 169 175q73 106 72 225q0 107 -65 189q-68 86 -174 86q-147 3 -204 -93 q-43 -80 -43 -241v-136h-118v136q0 116 -7 163q-35 174 -229 178q-111 2 -178 -89q-59 -82 -59 -197q0 -191 239 -400l-73 -69q-207 173 -257 323q-22 70 -23 139z" />
<glyph unicode="&#x10e1;" horiz-adv-x="1026" d="M148 360v1188h116l-5 -1177q0 -187 70.5 -248.5t188.5 -61.5q191 0 246.5 92t55.5 181q0 91 -103 227.5t-101 284.5l84 4q-2 -91 111.5 -235t110.5 -281q0 -180 -108.5 -276.5t-288.5 -96.5q-377 0 -377 399z" />
<glyph unicode="&#x10e2;" horiz-adv-x="1447" d="M102 26q0 286 132 465q135 188 382 232q-41 45 -52 66q-26 43 -28 81q0 96 50 153t139 57q84 0 135 -57t51 -153q0 -61 -76 -147q243 -33 379 -230q131 -183 131 -467q0 -315 -173.5 -510t-446.5 -195q-176 0 -313 83q-148 89 -230 255q-80 161 -80 367zM214 9 q0 -169 66 -304q61 -139 184 -217q121 -73 263 -72q223 0 367.5 164.5t144.5 428.5q0 352 -216 525q-102 84 -250 93q136 -147 136 -247q0 -96 -52 -155t-130 -59q-82 0 -133 59t-53 155q-3 104 132 243q-296 -14 -404 -311q-55 -137 -55 -303zM609 900q0 -41 41 -97 q35 -46 75 -72q105 63 105 169q0 48 -34 76q-30 30 -73 29q-114 0 -114 -105zM614 373q0 -52 31.5 -87.5t77.5 -35.5q109 0 109 123t-107 195q-111 -100 -111 -195z" />
<glyph unicode="&#x10e3;" horiz-adv-x="1427" d="M102 629q5 83 32 169l72 -11q-8 -65 -8 -139q0 -80 2 -105q9 -105 78 -105q54 9 63 24q9 11 13 70q20 282 247 282q113 0 174 -144q75 144 207 144q141 0 219.5 -93.5t78.5 -236.5v-718q0 -271 -162.5 -361.5t-321.5 -90.5q-232 0 -364 113t-130 282q0 275 294 345 l29 -76q-223 -70 -223 -271q0 -139 109 -215t278 -76q171 0 278.5 89.5t107.5 246.5l-13 732q0 136 -61.5 184t-120.5 48q-93 0 -121.5 -68.5t-28.5 -163.5v-193h-112v291q0 67 -45.5 107t-71.5 40q-100 0 -130 -87q-9 -44 -20 -108q-16 -109 -35 -137q-34 -47 -127 -47 q-146 2 -174 138q-13 57 -13 141z" />
<glyph unicode="&#x10e4;" horiz-adv-x="1579" d="M102 427q0 235 178 337q84 50 193 50q206 0 306 -172q126 173 303 172q219 0 311 -159q46 -76 46 -182q0 -137 -84 -228q-43 -45 -171 -70q293 -108 293 -379q0 -323 -284 -428q-127 -47 -291 -47q-282 0 -425 156q-73 82 -72 204q0 135 102 210q48 46 120 61l21 -43 q-54 -22 -93 -83.5t-39 -122.5q0 -207 209 -258q86 -22 197 -22q451 0 451 373q0 180 -119 256q-88 59 -286 82v72q216 0 316 117q52 61 52 154q0 107 -68 173t-177 66t-180 -80q-65 -73 -70 -183q3 -7 3 -37q0 -158 -105 -266.5t-266 -110.5q-223 0 -323 193 q-48 89 -48 195zM211 430q0 -167 130 -255q61 -43 139 -43q163 0 229 150q30 68 30 145q0 130 -66 207q-74 84 -198 84q-123 0 -195 -84q-68 -80 -69 -204z" />
<glyph unicode="&#x10e5;" horiz-adv-x="1052" d="M102 -325q0 191 141 312q66 56 150 67l30 -76q-123 -30 -184 -149q-28 -57 -35 -118q0 -182 119 -247q59 -32 150 -48q204 0 265.5 88.5t61.5 195.5v914l-202 -26q-202 -34 -203 -150q0 -41 30 -104q2 -7 22.5 -19.5t20.5 -17.5q0 -34 -41 -33q-54 0 -93 63 q-32 57 -32 118q0 150 189 205l309 64v737l-206 -271l-101 37l251 331h161v-1804q0 -226 -96.5 -324.5t-310.5 -98.5q-238 0 -344 165q-52 80 -52 189z" />
<glyph unicode="&#x10e6;" horiz-adv-x="1465" d="M102 -89q96 16 228 -2q-223 232 -223 484q0 225 106 323t251 98q195 0 277 -194q118 194 294 194q199 0 288 -168q41 -78 41 -171q0 -202 -147 -397l-71 74q77 111 104 278q-5 171 -91 247q-48 41 -116 39q-188 -4 -227 -163q-16 -73 -16 -191v-208h-116v208 q0 354 -239 350q-104 -3 -167.5 -81t-63.5 -206q0 -191 88.5 -329.5t235.5 -223.5q310 -136 460 -239.5t280 -230.5l-85 -81q-163 171 -318 267q-128 85 -339 178q-125 54 -236 56q-96 0 -189 -13z" />
<glyph unicode="&#x10e7;" horiz-adv-x="1076" d="M102 -325q0 191 141 312q66 56 150 67l30 -70q-123 -36 -184 -155q-28 -57 -35 -118q0 -182 89 -230.5t224.5 -56.5t220.5 72.5t85 223.5v792q-114 -196 -190 -247t-203 -59q-114 3 -187.5 85t-73.5 202q2 147 88 232.5t168 101.5l32 -44q-80 -28 -140.5 -102t-60.5 -176 q0 -113 72 -159t143 -46q113 0 215.5 162.5t124.5 342.5h119v-1085q0 -243 -141 -321t-268 -78q-171 0 -295 86t-124 268z" />
<glyph unicode="&#x10e8;" horiz-adv-x="1152" d="M11 1316q0 126 89 200q82 70 219 71q113 0 202 -164q86 163 232 164q102 0 182 -103q70 -93 70 -245v-853q0 -254 -168 -368q-87 -57 -203 -57q-182 0 -282 126q-91 113 -90 299q0 241 168 369q82 59 188 59q185 -3 273 -155v573q0 245 -147 245q-89 0 -131 -66t-42 -159 v-202h-120v258q0 80 -47 128t-92 48q-78 0 -131 -53t-56 -121q0 -66 36 -119q22 -32 87 -89l-68 -72q-169 121 -169 286zM377 382q0 -184 111 -278q57 -47 139 -47q123 0 196 104q64 91 64 221q0 189 -117 286q-61 46 -143 46q-118 0 -191 -109q-59 -96 -59 -223z" />
<glyph unicode="&#x10e9;" horiz-adv-x="995" d="M148 0v1171q0 178 92 297t251 119q258 0 259 -242q0 -282 -498 -356v-334q139 156 312 159q175 0 252.5 -98t77.5 -252q0 -189 -117 -464h-109q107 271 107 434q0 266 -204 266q-180 -2 -248.5 -90.5t-68.5 -143.5v-466h-106zM259 1089q211 22 298 96.5t87 174.5 q0 109 -143 109q-241 0 -242 -282v-98z" />
<glyph unicode="&#x10ea;" horiz-adv-x="1308" d="M102 26q0 202 46.5 414.5t151.5 364.5h105q-193 -458 -194 -753q0 -397 210 -547q106 -76 273 -76q238 0 345 171q52 87 52 211q0 296 -318 296q-33 0 -42 -3v110h80q155 2 211 39.5t54 151.5q-3 123 -207.5 206t-198.5 219l83 18q2 -70 216.5 -161t212.5 -290 q0 -177 -209 -245q234 -118 234 -334q0 -319 -268 -447q-121 -55 -260 -55q-366 0 -510 350q-66 163 -67 360z" />
<glyph unicode="&#x10eb;" horiz-adv-x="992" d="M102 384q0 241 164 369q83 58 191 58q191 -2 272 -152v889h117v-1164q0 -254 -171 -368q-84 -57 -202 -57q-180 0 -280 125q-91 114 -91 300zM216 380q0 -185 111 -278q57 -48 139 -48q123 0 193 103q66 93 66 223q0 188 -118 286q-56 46 -141 46q-161 0 -223 -174 q-28 -80 -27 -158z" />
<glyph unicode="&#x10ec;" horiz-adv-x="1181" d="M80 1267q0 197 131 281q61 44 151 44q154 0 232 -141q91 141 229 141q166 0 244 -128q35 -59 35 -143q0 -171 -158 -286l-64 72q68 63 83 86q35 50 35 121q-11 102 -87 150q-39 26 -84 25q-70 0 -119 -58t-49 -136v-241h-123v187q0 93 -38 162q-45 80 -127 79 q-78 0 -132.5 -59t-54.5 -143q0 -28 14 -91l91 -414h659q-7 -414 -118 -850q-84 -332 -210 -604h-127l-391 1781q-22 113 -22 165zM314 664l245 -1162h55q91 258 154 576q64 319 71 588z" />
<glyph unicode="&#x10ed;" horiz-adv-x="1100" d="M57 -325q0 191 143 312q65 56 150 67l30 -76q-126 -30 -182 -149q-33 -57 -37 -118q0 -191 141 -262q68 -34 162 -33q178 0 256 86q76 84 76 262l-78 657q-139 -135 -243 -135q-139 -2 -206 98q-33 50 -33 117q0 102 64 161q63 54 168 56q53 2 134.5 -37t106.5 -85 l-2 367q-2 183 -69 249q-28 22 -110.5 105.5t-163.5 155.5l-37 -445h-91l30 520h164q54 -58 134 -129t120 -107q134 -125 134 -293v-396l180 136v-130l-180 -128l180 -132l-11 -110l-164 118l71 -440q13 -91 13 -182q0 -434 -436 -434q-250 0 -360 161q-54 82 -54 193z M334 498q0 -106 137 -107q91 0 202 104q-91 111 -202 112q-137 0 -137 -109z" />
<glyph unicode="&#x10ee;" horiz-adv-x="992" d="M148 386v1162h114v-782l286 407h114l-341 -438q104 78 213 79q161 2 264 -135q93 -122 93 -293q0 -256 -166 -368q-85 -57 -207 -57q-234 0 -327 217q-43 97 -43 208zM266 382q-2 -128 66 -221q70 -104 193 -104q121 0 191 104q59 91 59 221q0 186 -111 284 q-57 48 -139 48q-161 0 -228 -173q-32 -80 -31 -159z" />
<glyph unicode="&#x10ef;" horiz-adv-x="987" d="M102 -594q369 32 336 271q-22 132 -229 253l193 372l-268 323h125l201 -243l158 286q57 143 15 203.5t-90 65.5q-89 0 -129 -46q-37 -43 -39 -102h-91q-18 109 42 169.5t206 60.5q175 -2 208 -132t-33 -271l-164 -289l344 -420h-126l-273 336l-147 -311q186 -61 216 -242 q28 -177 -136 -299q-76 -59 -306 -70z" />
<glyph unicode="&#x10f0;" horiz-adv-x="1106" d="M109 314q-7 176 166 250l50 -63q-109 -64 -104 -195q0 -113 111 -178t277 -65q128 0 206.5 61.5t78.5 181.5q0 107 -83.5 173.5t-285.5 153.5t-263 170l59 67q234 -191 420 -200q57 5 92 38t35 88q0 89 -209 177q-93 46 -185 98t-177 136l53 57q88 -75 182.5 -126 t208.5 -69q124 11 123 109q0 97 -257 198t-260 190l74 41q86 -106 310 -184t226 -239q0 -130 -137 -182q152 -82 153 -223q0 -113 -150 -183q182 -82 182 -284q0 -175 -118.5 -263t-298.5 -88q-193 -2 -334 92.5t-145 260.5z" />
<glyph unicode="&#x10f1;" horiz-adv-x="1100" d="M102 314q5 887 109 1254l119 -45q-118 -427 -119 -1187q0 -186 210 -247q88 -26 182 -26q127 0 200 58q84 65 84 185q0 107 -126 192q-69 39 -245 129l-69 46q-25 20 -24 43q7 45 59 45q18 0 47 -20q7 -4 43.5 -31.5t141.5 -36.5q56 0 100 34q47 34 47 89q0 89 -208 177 l-132 73q-61 50 -61 86q0 28 31 27q34 0 97 -48l94 -31q175 0 175 98q0 54 -84 100q-20 8 -73 38l-143 68q-56 32 -56 91q0 26 46.5 26t181.5 -78q116 -54 153 -87q68 -61 68 -152q0 -130 -136 -182q152 -82 152 -223q0 -113 -150 -183q182 -82 182 -284q0 -175 -126 -269 q-111 -82 -290 -82q-135 0 -246 43q-132 50 -193 148q-41 70 -41 162z" />
<glyph unicode="&#x10f2;" horiz-adv-x="997" d="M102 400q0 186 124 300t272 114q226 0 312 -142.5t86 -271.5q0 -198 -86.5 -299t-590.5 -448l-53 74q617 360 617 607q0 264 -93.5 324t-188.5 60q-85 0 -185 -61t-100 -323q0 -254 595 -603l-45 -72q-501 362 -582.5 477.5t-81.5 263.5z" />
<glyph unicode="&#x10f3;" horiz-adv-x="1056" d="M102 -291q0 239 204 345l58 -56q-163 -118 -164 -284q0 -135 100 -217q91 -82 205 -81q336 0 336 336q0 35 -2 62q-15 206 -189 251q-56 18 -170 19v96q184 0 259 102t75 195v212h-502v-155h-108v255h724l-8 -327q0 -228 -224 -317q259 -99 259 -361q0 -226 -123 -347 t-325 -121q-234 0 -348 183q-57 89 -57 210z" />
<glyph unicode="&#x10f4;" horiz-adv-x="1058" d="M102 1000q0 89 35.5 182t111.5 173.5t196.5 142.5t291.5 89v-116q-93 -2 -186.5 -40t-170 -100t-124 -145.5t-47.5 -174.5q0 -93 34.5 -158.5t88.5 -105.5t122.5 -55t135.5 -6.5t126 40t98 85.5h114l-6 -349q0 -228 -224 -317q259 -99 259 -361q0 -226 -122.5 -347 t-325.5 -121q-234 0 -348 183q-57 89 -57 210q0 239 206 345l56 -56q-163 -118 -164 -284q0 -135 100 -217q91 -82 205 -81q337 0 337 336q0 35 -3 62q-15 206 -188 251q-57 18 -171 19v96q184 0 258 70.5t74 226.5v182q-148 -58 -277.5 -58t-226 47.5t-152.5 137t-56 214.5 z" />
<glyph unicode="&#x10f5;" horiz-adv-x="1093" d="M102 341q0 161 124 243t231 82h534v-100h-523q-123 0 -187.5 -79.5t-64.5 -150.5q0 -138 84 -208.5t168 -70.5q124 0 195.5 63.5t71.5 224.5v859q0 130 -72 210t-195 80q-84 0 -168 -70.5t-84 -209.5q0 -70 64.5 -149.5t187.5 -79.5h523v-100h-534q-106 0 -230.5 93 t-124.5 254q0 118 95.5 238t275.5 120q163 0 268 -108.5t105 -271.5v-869q0 -163 -105 -271.5t-268 -108.5q-180 0 -275.5 119.5t-95.5 260.5z" />
<glyph unicode="&#x10f6;" horiz-adv-x="1518" d="M102 432q0 130 78.5 256t255.5 126q176 0 303 -172q100 173 307 172q173 0 271.5 -124t98.5 -304q0 -156 -98.5 -289.5t-271.5 -135.5q-94 0 -167.5 42.5t-103.5 76.5v-296q0 -226 -123 -347t-313 -121l-3 100q339 0 339 336l-7 730q-13 102 -76 166t-165 64 q-108 0 -166.5 -93.5t-56.5 -208.5q2 -185 282 -376l-68 -73q-316 204 -316 471zM783 382q0 -85 46 -201t219 -116q118 0 189 97t71 220q0 134 -65 232t-195 98t-197.5 -99t-67.5 -231z" />
<glyph unicode="&#x2000;" horiz-adv-x="841" />
<glyph unicode="&#x2001;" horiz-adv-x="1683" />
<glyph unicode="&#x2002;" horiz-adv-x="841" />
<glyph unicode="&#x2003;" horiz-adv-x="1683" />
<glyph unicode="&#x2004;" horiz-adv-x="561" />
<glyph unicode="&#x2005;" horiz-adv-x="420" />
<glyph unicode="&#x2006;" horiz-adv-x="280" />
<glyph unicode="&#x2007;" horiz-adv-x="280" />
<glyph unicode="&#x2008;" horiz-adv-x="210" />
<glyph unicode="&#x2009;" horiz-adv-x="336" />
<glyph unicode="&#x200a;" horiz-adv-x="93" />
<glyph unicode="&#x2010;" horiz-adv-x="931" d="M128 557v91h677v-91h-677z" />
<glyph unicode="&#x2011;" horiz-adv-x="931" d="M128 557v91h677v-91h-677z" />
<glyph unicode="&#x2012;" horiz-adv-x="931" d="M128 557v91h677v-91h-677z" />
<glyph unicode="&#x2013;" horiz-adv-x="1133" d="M-26 438v98h1185v-98h-1185z" />
<glyph unicode="&#x2014;" horiz-adv-x="1595" d="M-26 438v98h1649v-98h-1649z" />
<glyph unicode="&#x2018;" horiz-adv-x="629" d="M180 1169q0 113 61 232.5t169 214.5l43 -41q-96 -102 -133.5 -177t-37.5 -138q0 -13 2 -27t5 -31q2 2 21 2h11q45 0 78 -23.5t33 -69.5q0 -61 -37.5 -86t-80.5 -25q-61 0 -97.5 39t-36.5 130z" />
<glyph unicode="&#x2019;" horiz-adv-x="629" d="M180 1037q91 104 128 175.5t37 135.5q0 15 -1 30t-3 32q-2 -3 -20 -3h-11q-46 0 -78 24t-32 67q0 59 39 88.5t77 29.5q61 0 99 -40t38 -135q0 -116 -61.5 -230.5t-168.5 -210.5z" />
<glyph unicode="&#x201a;" horiz-adv-x="629" d="M180 -371q91 100 128 173t37 139q0 13 -1 28t-3 31q-2 -2 -20 -2h-11q-46 0 -78 25t-32 66q0 61 39 88t77 27q61 0 99 -39.5t38 -132.5q0 -113 -61.5 -230.5t-168.5 -213.5z" />
<glyph unicode="&#x201c;" horiz-adv-x="779" d="M78 1169q0 113 61 232.5t167 214.5l39 -41q-95 -102 -133.5 -179t-40.5 -142l-5 -56l55 6q41 0 69.5 -23.5t28.5 -69.5q0 -61 -33.5 -86t-74.5 -25q-61 0 -97 39t-36 130zM464 1169q0 113 60 231t170 216l37 -41q-91 -102 -131.5 -178t-40.5 -139v-58l46 4q43 0 77 -23.5 t34 -69.5q0 -61 -39 -86t-79 -25q-59 0 -96.5 39t-37.5 130z" />
<glyph unicode="&#x201d;" horiz-adv-x="1006" d="M180 1037q91 104 128 175.5t37 135.5q0 15 -1 30t-3 32l-20 -3h-11q-46 0 -78 24t-32 67q0 59 39 88.5t77 29.5q61 0 99 -40t38 -135q0 -116 -61.5 -230.5t-168.5 -210.5zM557 1037q91 104 128.5 175.5t37.5 135.5q0 15 -1.5 30t-3.5 32l-20 -3h-9q-45 0 -79.5 24 t-34.5 67q0 59 37.5 88.5t83.5 29.5q59 0 95 -40t36 -135q0 -116 -61 -233t-168 -208z" />
<glyph unicode="&#x201e;" horiz-adv-x="1006" d="M180 -371q91 100 128 173t37 139q0 13 -1 28t-3 31l-31 -2q-46 0 -78 25t-32 66q0 61 39 88t77 27q61 0 99 -39.5t38 -132.5q0 -113 -61.5 -230.5t-168.5 -213.5zM557 -371q91 100 128.5 173t37.5 139q0 13 -1.5 28t-3.5 31l-29 -2q-45 0 -79.5 25t-34.5 66q0 61 37.5 88 t83.5 27q59 0 95 -39.5t36 -132.5q0 -113 -61 -232t-168 -212z" />
<glyph unicode="&#x2020;" horiz-adv-x="1363" d="M98 814v97l531 167v516h117v-527l523 -162v-100l-538 163v-1036h-111v1048z" />
<glyph unicode="&#x2021;" horiz-adv-x="1228" d="M82 26v172h434v784h-434v172h434v408h196v-408h434v-172h-434v-784h434v-172h-434v-399h-196v399h-434z" />
<glyph unicode="&#x2022;" horiz-adv-x="1286" d="M438 677q0 39 16.5 75.5t45.5 64t66 41.5t78 14q43 0 79 -14t64.5 -41.5t45.5 -64t17 -75.5q0 -41 -17 -77t-45.5 -61t-65 -41t-78.5 -16q-41 0 -78 16t-66 41t-45.5 61t-16.5 77z" />
<glyph unicode="&#x2026;" horiz-adv-x="1290" d="M78 115q0 42 33.5 76t86.5 34q47 0 80.5 -32t33.5 -78q0 -50 -35.5 -82.5t-78.5 -32.5q-50 0 -85 35t-35 80zM541 115q0 42 34 76t84 34q48 0 82 -32t34 -78q0 -50 -35 -82.5t-81 -32.5q-47 0 -82.5 35t-35.5 80zM1005 115q0 42 34 76t84 34t83 -32t33 -78 q0 -50 -35 -82.5t-81 -32.5q-47 0 -82.5 35t-35.5 80z" />
<glyph unicode="&#x202f;" horiz-adv-x="336" />
<glyph unicode="&#x2039;" horiz-adv-x="926" d="M173 551l439 553h119l-374 -553l372 -549h-117z" />
<glyph unicode="&#x203a;" horiz-adv-x="926" d="M191 2l380 557l-380 545h123l425 -540l-425 -562h-123z" />
<glyph unicode="&#x205f;" horiz-adv-x="420" />
<glyph unicode="&#x2116;" horiz-adv-x="2269" d="M130 239h91q18 -57 61 -107t84 -50q66 0 110.5 50t44.5 120v1171h-237v93h345l640 -1182l70 -148v1148q0 50 21.5 95.5t56 81t78 56t87.5 20.5q97 0 169 -63.5t99 -163.5h-108q-20 52 -61.5 93t-98.5 41q-61 0 -102 -50.5t-41 -109.5v-1334h-107l-643 1200l-71 169v-1117 q0 -46 -18 -91.5t-48.5 -79t-75 -57.5t-99.5 -24q-45 0 -85 21.5t-74 51t-56.5 73t-31.5 93.5zM1603 727q0 50 18 97.5t50 83.5t80.5 58.5t112.5 22.5q67 0 119 -22.5t87 -59.5t52 -83.5t17 -98.5q0 -109 -69.5 -187t-205.5 -78q-59 0 -108 21.5t-83 57.5t-52 86t-18 102z M1623 73v90h494v-90h-494zM1694 718q0 -73 51 -122.5t119 -49.5q95 0 139.5 50t44.5 131q0 61 -50 114t-134 53q-78 0 -124 -54.5t-46 -121.5z" />
<glyph unicode="&#x2122;" horiz-adv-x="1638" d="M89 1516v80h611v-80h-257v-586h-98v586h-256zM723 930l73 666h141l232 -570h6l228 570h143l68 -666h-118l-30 595h-4l-239 -584h-112l-233 584h-6l-40 -595h-109z" />
<glyph unicode="&#x25fc;" horiz-adv-x="1056" d="M0 0v1057h1057v-1057h-1057z" />
</font>
</defs>
</svg>
