<?xml version="1.0" standalone="no"?>
<!DOCTYPE svg PUBLIC "-//W3C//DTD SVG 1.1//EN" "http://www.w3.org/Graphics/SVG/1.1/DTD/svg11.dtd" >
<svg xmlns="http://www.w3.org/2000/svg" xmlns:xlink="http://www.w3.org/1999/xlink" version="1.1">
<metadata></metadata>
<defs>
<font id="gugeshashvili_rachveliregular" horiz-adv-x="0" >
<font-face units-per-em="2048" ascent="1638" descent="-410" />
<missing-glyph horiz-adv-x="462" />
<glyph unicode="&#xd;" horiz-adv-x="462" />
<glyph unicode=" "  horiz-adv-x="462" />
<glyph unicode="&#x09;" horiz-adv-x="462" />
<glyph unicode="&#xa0;" horiz-adv-x="462" />
<glyph unicode="!" horiz-adv-x="523" d="M138 110q0 51 36.5 88t88.5 37q51 0 87 -36.5t36 -88.5t-36 -88.5t-87 -36.5q-52 0 -88.5 36.5t-36.5 88.5zM153 1357h214l-26 -977h-160z" />
<glyph unicode="&#x22;" horiz-adv-x="747" d="M106 1441h200l-30 -466h-138zM441 1441h201l-30 -466h-139z" />
<glyph unicode="#" horiz-adv-x="1200" d="M78 404v127h224l41 285h-217v125h233l59 416h144l-57 -416h267l59 416h144l-58 -416h205v-125h-224l-39 -285h215v-127h-231l-59 -404h-142l55 404h-267l-57 -404h-144l56 404h-207zM448 531h267l39 285h-267z" />
<glyph unicode="$" horiz-adv-x="868" d="M0 1357zM76 69v141q150 -43 267 -43q272 0 272 192q0 70 -27 114t-72.5 73t-138.5 74q-195 94 -247 182t-52 190q0 127 72 210t206 110v182h165v-169q112 0 230 -28v-136q-129 28 -225 28q-250 0 -250 -172q0 -87 50.5 -132.5t182.5 -110.5q102 -50 162.5 -92t101 -110.5 t40.5 -167.5q0 -306 -292 -358v-184h-165v170q-149 0 -280 37z" />
<glyph unicode="%" horiz-adv-x="1591" d="M75 973q0 205 72.5 299t215.5 94q140 0 212 -92t72 -301q0 -229 -72.5 -320.5t-213.5 -91.5q-142 0 -214 92.5t-72 319.5zM237 973q0 -190 30 -247t94 -57q65 0 94 57.5t29 246.5q0 184 -30.5 234.5t-92.5 50.5t-93 -50.5t-31 -234.5zM328 0l773 1357h163l-774 -1357 h-162zM945 402q0 206 72.5 299.5t216.5 93.5q140 0 211.5 -91.5t71.5 -301.5q0 -228 -72 -319.5t-213 -91.5q-142 0 -214.5 92.5t-72.5 318.5zM1107 402q0 -190 30 -246.5t95 -56.5t94 57t29 246q0 185 -31 235.5t-92 50.5q-63 0 -94 -51t-31 -235z" />
<glyph unicode="&#x26;" horiz-adv-x="1194" d="M95 347q0 123 60 215.5t201 177.5q-153 196 -153 330q0 142 92 221.5t251 79.5q147 0 233.5 -69.5t86.5 -186.5q0 -105 -56.5 -188t-217.5 -194l301 -390q59 91 99 267l141 -30q-47 -222 -153 -351l178 -229h-232l-78 101q-137 -116 -334 -116q-201 0 -310 95.5 t-109 266.5zM295 358q0 -115 71 -177t165 -62q140 0 235 88l-328 426q-143 -106 -143 -275zM389 1092q0 -59 25.5 -109.5t94.5 -139.5q87 59 131 122t44 150q0 57 -40 93.5t-103 36.5q-76 0 -114 -38.5t-38 -114.5z" />
<glyph unicode="'" horiz-adv-x="412" d="M106 1441h200l-30 -466h-138z" />
<glyph unicode="(" horiz-adv-x="602" d="M103 574q0 479 70.5 629.5t158.5 201t218 50.5v-135q-156 0 -203 -154t-47 -592q0 -439 47.5 -593t202.5 -154v-136q-256 0 -351.5 199t-95.5 684z" />
<glyph unicode=")" horiz-adv-x="602" d="M52 -173q155 0 202.5 154t47.5 593q0 438 -47.5 592t-202.5 154v135q258 0 353 -201t95 -680q0 -485 -72 -634t-160 -199t-216 -50v136z" />
<glyph unicode="*" horiz-adv-x="901" d="M46 814l290 152l-290 149l73 126l276 -177l-18 326h149l-19 -326l276 177l72 -126l-288 -149l288 -152l-72 -124l-276 176l19 -325h-149l18 325l-276 -176z" />
<glyph unicode="+" horiz-adv-x="1001" d="M95 581v164h323v323h163v-323h323v-164h-323v-322h-163v322h-323z" />
<glyph unicode="," horiz-adv-x="405" d="M78 106q0 53 36 88t89 35q58 0 90.5 -44.5t32.5 -115.5q0 -90 -47 -173.5t-132 -143.5l-67 65q104 75 119 172q-55 2 -88 34.5t-33 82.5z" />
<glyph unicode="-" horiz-adv-x="606" d="M80 479v184h446v-184h-446z" />
<glyph unicode="." horiz-adv-x="405" d="M78 110q0 52 36.5 88.5t88.5 36.5t88.5 -37t36.5 -88q0 -52 -36.5 -88.5t-88.5 -36.5q-51 0 -88 36.5t-37 88.5z" />
<glyph unicode="/" horiz-adv-x="689" d="M15 -304l488 1745h171l-487 -1745h-172z" />
<glyph unicode="0" horiz-adv-x="1001" d="M99 695q0 371 102 523.5t304 152.5q197 0 297 -150t100 -526q0 -412 -101 -561t-300 -149t-300.5 148.5t-101.5 561.5zM297 695q0 -360 50 -469.5t154 -109.5q103 0 153 109.5t50 469.5q0 178 -11 289.5t-55.5 184t-136.5 72.5q-93 0 -138 -73t-55.5 -183.5t-10.5 -289.5 z" />
<glyph unicode="1" horiz-adv-x="1001" d="M140 0v130h283v1056l-283 -69v130l374 121h103v-1238h270v-130h-747z" />
<glyph unicode="2" horiz-adv-x="1001" d="M103 0v80q0 148 50.5 261.5t121.5 189.5t181 171q145 122 180 184t35 120q0 115 -60 172.5t-181 57.5q-122 0 -288 -62v142q165 55 322 55q197 0 301.5 -90t104.5 -264q0 -93 -37.5 -164.5t-96.5 -134.5t-153 -140q-95 -80 -153.5 -138.5t-100 -134.5t-44.5 -167h585 v-138h-767z" />
<glyph unicode="3" horiz-adv-x="1001" d="M110 28v138q185 -45 287 -45q255 0 255 263q0 140 -77 204t-358 64v131q150 0 235 14t133 65t48 155q0 219 -227 219q-98 0 -260 -45v138q155 42 292 42q397 0 397 -335q0 -111 -63.5 -197t-177.5 -119q125 -22 192.5 -106.5t67.5 -211.5q0 -417 -459 -417 q-142 0 -285 43z" />
<glyph unicode="4" horiz-adv-x="1001" d="M34 308v128l576 932h178v-925h140v-135h-140v-308h-194v308h-560zM207 443h387v649z" />
<glyph unicode="5" horiz-adv-x="1001" d="M125 26v140q172 -45 259 -45q145 0 213 75t68 242q0 284 -300 284q-97 0 -199 -10v645h671v-137h-485v-365q27 2 91 2q206 0 314.5 -106t108.5 -308q0 -458 -464 -458q-127 0 -277 41z" />
<glyph unicode="6" horiz-adv-x="1001" d="M110 630q0 335 136.5 538t390.5 203q102 0 192 -16v-137q-70 18 -173 18q-305 0 -345 -444q94 95 248 95q171 0 259.5 -109t88.5 -310q0 -227 -104 -355t-300 -128q-193 0 -293 144.5t-100 500.5zM308 492q0 -142 21.5 -220.5t65.5 -117t108 -38.5q103 0 155 76t52 270 q0 294 -194 294q-101 0 -154.5 -70.5t-53.5 -193.5z" />
<glyph unicode="7" horiz-adv-x="1001" d="M96 1217v140h806v-105q-373 -608 -388 -1252h-201q7 592 388 1217h-605z" />
<glyph unicode="8" horiz-adv-x="1001" d="M86 369q0 130 56 219t166 120q-198 74 -198 313q0 166 105 258t286 92q180 0 285 -92t105 -258q0 -238 -199 -313q222 -70 222 -339q0 -182 -110.5 -283t-305.5 -101q-193 0 -302.5 101t-109.5 283zM281 386q0 -131 55 -200.5t162 -69.5q219 0 219 270q0 116 -57.5 184.5 t-161.5 68.5q-106 0 -161.5 -65.5t-55.5 -187.5zM302 1005q0 -110 51 -173.5t145 -63.5q97 0 149 62.5t52 174.5q0 236 -201 236q-96 0 -146 -62t-50 -174z" />
<glyph unicode="9" horiz-adv-x="1001" d="M96 895q0 224 101.5 350t292.5 126q197 0 300 -143.5t103 -512.5q0 -356 -129.5 -543t-383.5 -187q-98 0 -213 22v135q76 -21 183 -21q162 0 244 104t94 337q-96 -92 -240 -92q-172 0 -262 110.5t-90 314.5zM293 893q0 -155 48 -224t143 -69q102 0 156.5 69.5t54.5 196.5 q0 121 -23 205.5t-68 127t-112 42.5q-96 0 -147.5 -73t-51.5 -275z" />
<glyph unicode=":" horiz-adv-x="467" d="M110 110q0 52 36.5 88.5t88.5 36.5q51 0 87 -36.5t36 -88.5t-36 -88.5t-87 -36.5q-52 0 -88.5 36.5t-36.5 88.5zM110 805q0 51 36.5 87t88.5 36t87.5 -36t35.5 -87q0 -52 -36 -89.5t-87 -37.5t-88 37.5t-37 89.5z" />
<glyph unicode=";" horiz-adv-x="467" d="M108 106q0 53 35.5 88t87.5 35q59 0 92 -44.5t33 -115.5q0 -93 -47.5 -176.5t-132.5 -140.5l-68 65q106 74 121 172q-53 0 -87 32.5t-34 84.5zM110 805q0 51 36.5 87t88.5 36t87.5 -36t35.5 -87q0 -52 -36 -89.5t-87 -37.5t-88 37.5t-37 89.5z" />
<glyph unicode="&#x3c;" horiz-adv-x="1001" d="M96 581v164l809 352v-165l-663 -269l663 -268v-166z" />
<glyph unicode="=" horiz-adv-x="1001" d="M96 379v165h809v-165h-809zM96 783v163h809v-163h-809z" />
<glyph unicode="&#x3e;" horiz-adv-x="922" d="M79 176v152l569 323l-569 326v152l765 -440v-76z" />
<glyph unicode="?" horiz-adv-x="799" d="M43 1189v136q158 46 275 46q196 0 300 -82.5t104 -244.5q0 -67 -32.5 -139t-152.5 -196q-92 -95 -122.5 -140t-30.5 -103v-86h-177v97q0 72 30.5 141.5t142.5 179.5q92 91 115 140t23 95q0 201 -230 201q-100 0 -245 -45zM171 110q0 52 37 88.5t89 36.5q51 0 87 -36.5 t36 -88.5t-36 -88.5t-87 -36.5q-52 0 -89 36.5t-37 88.5z" />
<glyph unicode="@" horiz-adv-x="1657" d="M106 608q0 235 96.5 407.5t274 264t393.5 91.5q330 0 509 -189.5t179 -532.5q0 -230 -101 -351.5t-259 -121.5q-80 0 -139.5 51t-72.5 140q-85 -191 -241 -191q-115 0 -185.5 87t-70.5 244q0 248 125.5 383t326.5 135h229q-61 -398 -61 -535q0 -118 24.5 -155.5 t81.5 -37.5q88 0 137 90t49 252q0 285 -137 441t-389 156q-266 0 -432.5 -164t-166.5 -455q0 -321 156.5 -485t458.5 -164q178 0 359 66v-135q-71 -28 -177.5 -48t-190.5 -20q-355 0 -565.5 202t-210.5 575zM643 523q0 -118 31 -172t107 -54q134 0 177 320l38 283h-71 q-125 0 -203.5 -98.5t-78.5 -278.5z" />
<glyph unicode="A" horiz-adv-x="1034" d="M9 0l403 1357h216l395 -1357h-205l-89 313h-451l-90 -313h-179zM313 445h380l-188 709z" />
<glyph unicode="B" horiz-adv-x="1026" d="M144 0v1357h397q376 0 376 -329q0 -233 -213 -313q254 -57 254 -333q0 -382 -446 -382h-368zM339 132h164q133 0 192 59.5t59 196.5q0 251 -254 251h-161v-507zM339 770h141q122 0 179.5 58t57.5 182q0 215 -208 215h-170v-455z" />
<glyph unicode="C" horiz-adv-x="849" d="M95 693q0 333 126 505.5t373 172.5q115 0 208 -27v-138q-96 30 -190 30q-155 0 -232.5 -134t-77.5 -401q0 -291 79.5 -435.5t239.5 -144.5q88 0 181 28v-134q-107 -30 -211 -30q-248 0 -372 169.5t-124 538.5z" />
<glyph unicode="D" horiz-adv-x="1092" d="M144 0v1357h354q251 0 375 -155.5t124 -498.5q0 -377 -132.5 -540t-398.5 -163h-322zM339 132h134q157 0 239 120t82 436q0 281 -81 409t-243 128h-131v-1093z" />
<glyph unicode="E" horiz-adv-x="857" d="M144 0v1357h663v-137h-468v-418h381v-137h-381v-529h474v-136h-669z" />
<glyph unicode="F" horiz-adv-x="835" d="M144 0v1357h661v-137h-466v-459h364v-137h-364v-624h-195z" />
<glyph unicode="G" horiz-adv-x="1045" d="M95 699q0 324 137 498t403 174q135 0 252 -35v-134q-106 34 -244 34q-167 0 -254 -145.5t-87 -387.5q0 -317 69 -451.5t198 -134.5q79 0 127.5 53.5t48.5 137.5v296h-199v130h395v-734h-102l-37 121q-35 -64 -106 -100t-148 -36q-225 0 -339 170t-114 544z" />
<glyph unicode="H" horiz-adv-x="1116" d="M144 0v1357h195v-553h438v553h196v-1357h-196v671h-438v-671h-195z" />
<glyph unicode="I" horiz-adv-x="558" d="M69 0v136h112v1084h-112v137h421v-137h-113v-1084h113v-136h-421z" />
<glyph unicode="J" horiz-adv-x="549" d="M-89 -140q94 -17 134 -17q71 0 103.5 36t32.5 114v1227h-112v137h421v-137h-113v-1235q0 -133 -73 -207.5t-217 -74.5q-65 0 -176 19v138z" />
<glyph unicode="K" horiz-adv-x="974" d="M144 0v1357h195v-630l410 630h207l-421 -623l429 -734h-231l-394 701v-701h-195z" />
<glyph unicode="L" horiz-adv-x="827" d="M144 0v1357h195v-1221h459v-136h-654z" />
<glyph unicode="M" horiz-adv-x="1324" d="M144 0v1357h153l366 -686l370 686h148v-1357h-192v978l-277 -516h-97l-279 516v-978h-192z" />
<glyph unicode="N" horiz-adv-x="1179" d="M144 0v1357h160l544 -982v982h188v-1357h-145l-559 1010v-1010h-188z" />
<glyph unicode="O" horiz-adv-x="1122" d="M95 697q0 337 116.5 505.5t349.5 168.5t349 -168.5t116 -505.5q0 -372 -116.5 -542t-348.5 -170t-349 172t-117 540zM302 697q0 -576 259 -576q125 0 192 129t67 447q0 288 -66.5 413.5t-192.5 125.5q-125 0 -192 -120t-67 -419z" />
<glyph unicode="P" horiz-adv-x="983" d="M144 0v1357h359q213 0 310.5 -99.5t97.5 -320.5q0 -215 -117 -331t-334 -116h-121v-490h-195zM339 622h111q132 0 195 70.5t63 239.5q0 168 -58 231.5t-180 63.5h-131v-605z" />
<glyph unicode="Q" horiz-adv-x="1122" d="M95 697q0 337 116.5 505.5t349.5 168.5t349 -164t116 -510q0 -326 -95 -502.5t-284 -203.5q19 -87 56.5 -127.5t148.5 -40.5v-127h-30q-163 0 -248.5 65t-132.5 237q-171 45 -258.5 210.5t-87.5 488.5zM302 697q0 -288 64.5 -432t194.5 -144q125 0 192 129t67 447 q0 288 -66.5 413.5t-192.5 125.5q-125 0 -192 -122.5t-67 -416.5z" />
<glyph unicode="R" horiz-adv-x="1015" d="M144 0v1357h382q205 0 302 -90.5t97 -279.5q0 -137 -65 -233t-189 -135l323 -619h-226l-286 587h-143v-587h-195zM339 720h153q116 0 173.5 67t57.5 200q0 119 -53.5 178.5t-160.5 59.5h-170v-505z" />
<glyph unicode="S" horiz-adv-x="868" d="M76 23v141q150 -43 267 -43q126 0 199 56.5t73 161.5q0 68 -28.5 114.5t-74 79.5t-132.5 83q-102 59 -162 105t-100 117.5t-40 173.5q0 173 115 266t314 93q130 0 244 -27v-136q-128 28 -231 28q-109 0 -176.5 -52.5t-67.5 -145.5q0 -60 36 -114.5t195 -147.5 q104 -60 163.5 -105.5t101 -116.5t41.5 -170q0 -399 -464 -399q-137 0 -273 38z" />
<glyph unicode="T" horiz-adv-x="937" d="M30 1215v142h877v-142h-340v-1215h-196v1215h-341z" />
<glyph unicode="U" horiz-adv-x="1109" d="M140 414v943h196v-964q0 -146 52 -211t167 -65q116 0 167.5 64t51.5 212v964h195v-948q0 -209 -105 -316.5t-307 -107.5q-213 0 -315 105.5t-102 323.5z" />
<glyph unicode="V" horiz-adv-x="978" d="M7 1357h205l284 -1129l298 1129h177l-380 -1357h-216z" />
<glyph unicode="W" horiz-adv-x="1616" d="M23 1357h208l205 -1090l286 1090h210l257 -1090l232 1090h172l-320 -1357h-201l-263 1107l-291 -1107h-210z" />
<glyph unicode="X" horiz-adv-x="969" d="M11 0l369 688l-352 669h221l243 -489l246 489h188l-341 -637l377 -720h-222l-267 537l-274 -537h-188z" />
<glyph unicode="Y" horiz-adv-x="896" d="M7 1357h217l229 -669l251 669h185l-356 -873v-484h-195v482z" />
<glyph unicode="Z" horiz-adv-x="848" d="M37 0v96l534 1124h-500v137h727v-98l-533 -1123h525v-136h-753z" />
<glyph unicode="[" horiz-adv-x="588" d="M144 -304v1745h393v-125h-201v-1495h201v-125h-393z" />
<glyph unicode="\" horiz-adv-x="689" d="M15 1441h172l487 -1745h-171z" />
<glyph unicode="]" horiz-adv-x="588" d="M52 -179h202v1495h-202v125h393v-1745h-393v125z" />
<glyph unicode="^" horiz-adv-x="1001" d="M108 663l302 694h181l302 -694h-176l-216 523l-218 -523h-175z" />
<glyph unicode="_" horiz-adv-x="693" d="M-4 -140h703v-121h-703v121z" />
<glyph unicode="`" horiz-adv-x="620" d="M99 1455h188l200 -297h-161z" />
<glyph unicode="a" horiz-adv-x="954" d="M69 295q0 151 83 225t198.5 93t281.5 19v124q0 185 -198 185q-114 0 -277 -48v135q164 46 313 46q174 0 264.5 -84.5t90.5 -247.5v-742h-105l-39 153q-99 -168 -306 -168q-145 0 -225.5 81.5t-80.5 228.5zM263 297q0 -90 39.5 -134t118.5 -44q100 0 155.5 64t55.5 173 v160h-109q-130 0 -195 -55t-65 -164z" />
<glyph unicode="b" horiz-adv-x="1026" d="M132 9v1432h194v-481q104 114 257 114q178 0 267 -131t89 -393t-120 -410.5t-330 -148.5q-207 0 -357 18zM326 132q84 -11 151 -11q134 0 197.5 98t63.5 336q0 193 -50 289.5t-149 96.5q-97 0 -143.5 -58.5t-58 -141.5t-11.5 -208v-401z" />
<glyph unicode="c" horiz-adv-x="778" d="M87 542q0 255 119 393.5t345 138.5q89 0 180 -23v-132q-69 22 -172 22q-133 0 -202 -106t-69 -296q0 -205 69 -313.5t202 -108.5q114 0 179 21v-125q-97 -28 -215 -28q-215 0 -325.5 141.5t-110.5 415.5z" />
<glyph unicode="d" horiz-adv-x="1032" d="M87 535q0 238 101.5 388.5t288.5 150.5q153 0 229 -92v459h194v-1441h-106l-41 130q-84 -145 -287 -145q-188 0 -283.5 133.5t-95.5 416.5zM288 541q0 -212 53 -318t159 -106q102 0 157.5 76.5t55.5 288.5l-1 60q0 237 -53.5 320t-151.5 83q-109 0 -164 -101t-55 -303z " />
<glyph unicode="e" horiz-adv-x="948" d="M87 531q0 245 106.5 394t304.5 149q160 0 240.5 -85t103 -208.5t22.5 -293.5h-571q0 -185 65.5 -277.5t196.5 -92.5q111 0 270 45v-132q-143 -45 -295 -45q-222 0 -332.5 134t-110.5 412zM293 606h381q0 192 -45.5 271t-130.5 79q-96 0 -146.5 -81.5t-58.5 -268.5z" />
<glyph unicode="f" horiz-adv-x="570" d="M32 932v126h128q0 241 74 319t223 78q92 0 178 -22v-132q-85 28 -143 28q-91 0 -114.5 -58t-23.5 -213h194v-126h-194v-932h-194v932h-128z" />
<glyph unicode="g" horiz-adv-x="1022" d="M87 561q0 239 100.5 376t289.5 137q182 0 265 -144l41 128h108v-1008q0 -171 -106 -265t-291 -94q-151 0 -343 48v136q200 -48 320 -48q105 0 153.5 38.5t60.5 101t12 177.5v27q-77 -111 -247 -111q-182 0 -272.5 125t-90.5 376zM288 576q0 -192 51.5 -288t154.5 -96 q101 0 154 72.5t53 311.5q0 184 -49.5 276.5t-148.5 92.5q-104 0 -159.5 -79.5t-55.5 -289.5z" />
<glyph unicode="h" horiz-adv-x="1038" d="M132 0v1441h194v-485q101 118 261 118q161 0 241.5 -86t80.5 -257v-731h-194v720q0 110 -41.5 165.5t-125.5 55.5q-106 0 -164 -80t-58 -209v-652h-194z" />
<glyph unicode="i" horiz-adv-x="497" d="M39 932v126h315v-1058h-194v932h-121zM147 1320q0 46 32 78t79 32q44 0 76.5 -33t32.5 -77q0 -46 -32 -78.5t-77 -32.5q-47 0 -79 32.5t-32 78.5z" />
<glyph unicode="j" horiz-adv-x="497" d="M-116 -157q87 -16 148 -16q64 0 96 38.5t32 113.5v953h-121v126h315v-1083q0 -142 -72.5 -213t-215.5 -71q-82 0 -182 19v133zM147 1320q0 46 32 78t79 32q44 0 76.5 -33t32.5 -77q0 -46 -32 -78.5t-77 -32.5q-47 0 -79 32.5t-32 78.5z" />
<glyph unicode="k" horiz-adv-x="919" d="M132 0v1441h194v-861l358 478h212l-363 -460l386 -598h-229l-364 576v-576h-194z" />
<glyph unicode="l" horiz-adv-x="458" d="M132 0v1441h194v-1441h-194z" />
<glyph unicode="m" horiz-adv-x="1584" d="M132 0v1058h108l39 -156q98 172 297 172q106 0 175.5 -40t102.5 -120q90 160 288 160q157 0 235 -84.5t78 -253.5v-736h-194v729q0 105 -39.5 158.5t-118.5 53.5q-102 0 -157 -80t-55 -209v-652h-194v729q0 105 -40.5 158.5t-121.5 53.5q-100 0 -154.5 -81t-54.5 -208 v-652h-194z" />
<glyph unicode="n" horiz-adv-x="1038" d="M132 0v1058h108l39 -156q101 172 308 172q161 0 241.5 -84.5t80.5 -253.5v-736h-194v703q0 119 -41.5 178.5t-125.5 59.5q-106 0 -164 -80t-58 -209v-652h-194z" />
<glyph unicode="o" horiz-adv-x="1028" d="M87 546q0 244 110.5 386t316.5 142q208 0 317.5 -140t109.5 -392q0 -258 -102.5 -407.5t-324.5 -149.5q-214 0 -320.5 140.5t-106.5 420.5zM288 551q0 -214 57.5 -327.5t168.5 -113.5q112 0 169 101.5t57 339.5q0 169 -58.5 283t-167.5 114q-111 0 -168.5 -102.5 t-57.5 -294.5z" />
<glyph unicode="p" horiz-adv-x="1024" d="M132 -304v1362h108l39 -151q58 85 128 126t178 41q176 0 264 -132.5t88 -397.5q0 -262 -120.5 -408.5t-346.5 -146.5q-60 0 -144 20v-313h-194zM326 147q70 -26 147 -26q131 0 197 91t66 341q0 194 -49 291t-146 97q-106 0 -160.5 -81.5t-54.5 -274.5v-438z" />
<glyph unicode="q" horiz-adv-x="1032" d="M87 530q0 246 102 395t293 149q183 0 271 -146l41 130h106v-1362h-194v386q-82 -97 -242 -97q-188 0 -282.5 136.5t-94.5 408.5zM288 537q0 -210 54.5 -315t162.5 -105q101 0 154 79t53 349q0 234 -53.5 317t-151.5 83q-109 0 -164 -102t-55 -306z" />
<glyph unicode="r" horiz-adv-x="665" d="M132 0v1058h108l45 -176q88 186 307 186q30 0 43 -2v-177q-23 2 -68 2q-125 0 -183 -59.5t-58 -186.5v-645h-194z" />
<glyph unicode="s" horiz-adv-x="771" d="M64 21v139q164 -44 258 -44q98 0 147 40.5t49 121.5q0 47 -31 88.5t-155 101.5q-79 38 -128 72t-83.5 92t-34.5 143q0 138 97.5 218.5t250.5 80.5q134 0 242 -34v-133q-114 39 -221 39q-89 0 -133 -38t-44 -114q0 -41 28 -76t141 -88q82 -38 135.5 -74t90.5 -97.5 t37 -154.5q0 -157 -97 -238t-277 -81q-119 0 -272 36z" />
<glyph unicode="t" horiz-adv-x="647" d="M25 932v73l283 288h50v-235h257v-126h-257v-673q0 -86 28 -114t85 -28q60 0 161 27v-126q-122 -33 -230 -33q-124 0 -181 58t-57 185v704h-139z" />
<glyph unicode="u" horiz-adv-x="1038" d="M128 322v736h194v-702q0 -119 42 -179t126 -60q106 0 164 80.5t58 208.5v652h193v-1058h-107l-39 157q-101 -172 -308 -172q-162 0 -242.5 84.5t-80.5 252.5z" />
<glyph unicode="v" horiz-adv-x="871" d="M15 1058h197l231 -877l241 877h175l-318 -1058h-221z" />
<glyph unicode="w" horiz-adv-x="1472" d="M16 1058h196l206 -891l224 891h213l211 -892l218 892h171l-285 -1058h-227l-207 854l-222 -854h-224z" />
<glyph unicode="x" horiz-adv-x="889" d="M5 0l342 541l-313 517h212l209 -365l217 365h183l-311 -493l340 -565h-213l-237 410l-246 -410h-183z" />
<glyph unicode="y" horiz-adv-x="871" d="M13 1058h199l231 -877l241 877h175l-331 -1122q-38 -126 -107.5 -185.5t-180.5 -59.5q-76 0 -169 19v133q84 -16 153 -16q63 0 102.5 42.5t75.5 169.5h-100z" />
<glyph unicode="z" horiz-adv-x="835" d="M41 0v119l510 804h-473v135h703v-117l-513 -805h524v-136h-751z" />
<glyph unicode="{" horiz-adv-x="622" d="M57 505v127q139 16 139 156v401q0 120 62.5 186t164.5 66h148v-125h-70q-113 0 -113 -133v-400q0 -171 -129 -214q129 -44 129 -215v-400q0 -133 113 -133h70v-125h-148q-104 0 -165.5 67t-61.5 185v401q0 140 -139 156z" />
<glyph unicode="|" horiz-adv-x="689" d="M263 -304v1745h164v-1745h-164z" />
<glyph unicode="}" horiz-adv-x="622" d="M52 -179h69q114 0 114 133v400q0 171 128 215q-128 43 -128 214v400q0 133 -114 133h-69v125h147q104 0 166 -67t62 -185v-401q0 -140 138 -156v-127q-138 -16 -138 -156v-401q0 -118 -62 -185t-166 -67h-147v125z" />
<glyph unicode="~" horiz-adv-x="1001" d="M56 642q104 208 257 208q53 0 97 -24t113 -83q65 -54 104 -75t77 -21q120 0 200 180l41 -153q-101 -197 -244 -197q-36 0 -81 19t-123 85q-75 62 -114 81t-74 19q-118 0 -214 -192z" />
<glyph unicode="&#xa1;" horiz-adv-x="611" />
<glyph unicode="&#xa2;" horiz-adv-x="780" d="M87 542q0 200 82.5 317.5t248.5 154.5v183h162v-171q72 -1 151 -21v-133q-69 23 -172 23q-136 0 -203.5 -89.5t-67.5 -266.5q0 -188 67.5 -281.5t203.5 -93.5q114 0 179 21v-125q-74 -21 -158 -26v-172h-162v179q-163 32 -247 161t-84 340z" />
<glyph unicode="&#xa3;" horiz-adv-x="928" d="M56 0v123q159 31 159 293v216h-144v134h144v157q0 237 108 342.5t312 105.5q80 0 189 -23v-139q-112 27 -173 27q-133 0 -192 -76.5t-59 -261.5v-132h347v-134h-347v-184q0 -217 -137 -308h624v-140h-831z" />
<glyph unicode="&#xa4;" horiz-adv-x="922" d="M111 376l107 106q-29 42 -43 94q-11 38 -11 76q0 41 12 80q14 50 42 90l-107 107l73 74l107 -108q40 28 90 42q40 13 81 13q38 0 76 -11q52 -15 93 -44l107 108l73 -74l-107 -106q29 -42 44 -93q11 -38 11 -78q0 -38 -11 -77q-15 -51 -44 -93l107 -106l-73 -74l-107 108 q-41 -30 -92 -44q-39 -11 -78 -11q-38 0 -77 11q-52 14 -93 44l-107 -108zM258 652q0 -26 9 -51q14 -54 51 -91q38 -37 91 -52q26 -8 52 -8q27 0 53 8q53 15 90 52t52 90q8 26 8 52q0 27 -8 53q-15 53 -52 90t-91 52q-26 7 -53 7q-26 0 -52 -8q-53 -15 -90 -51 q-35 -36 -50 -89q-10 -27 -10 -54z" />
<glyph unicode="&#xa5;" horiz-adv-x="1148" d="M7 1070q0 17 9.5 25t29.5 8q25 0 112.5 -7.5t149.5 -7.5h51h29q30 0 37 -5.5t7 -24.5q0 -7 -13.5 -12.5t-34.5 -5.5q-5 0 -16.5 2t-17.5 2q-21 0 -33.5 -9t-12.5 -23q0 -16 15 -47t42 -70l144 -202q12 -17 30 -48q37 -64 65 -64q8 0 15 5t13 14l252 360q7 11 11.5 24 t4.5 22q0 17 -9 25t-33 13q-14 2 -38 3q-42 3 -42 23q0 14 7 20.5t23 6.5h13q51 -7 98 -7h127q27 0 59 1t34 1q10 0 16.5 -4t7.5 -11q0 -25 -34 -31q-17 -2 -25 -4q-57 -14 -134 -107q-6 -8 -10 -13l-154 -188h294q13 0 21.5 -5.5t8.5 -15.5q0 -13 -5.5 -18t-21.5 -5h-333 q-42 -52 -88 -102.5t-47 -54.5h465q16 0 23 -5t7 -16q0 -12 -6.5 -18.5t-20.5 -6.5h-482q0 -10 -1 -28t-1 -27l2 -195q0 -104 5 -137t19 -40q27 -15 97.5 -17t70.5 -28q0 -11 -9 -18.5t-23 -7.5q-2 0 -32.5 3.5t-58.5 3.5q-83 0 -190 -3.5t-129 -3.5q-28 0 -36.5 3.5 t-8.5 14.5t7.5 17t33.5 11q8 2 23 5q67 15 84 29q15 12 21.5 43t6.5 93l-2 220q0 17 -1.5 31.5t-4.5 29.5l-440 1q-13 0 -19 6t-6 18q0 11 5.5 16.5t19.5 5.5h425l-110 157h-313q-16 0 -21.5 5t-5.5 17t5 17t20 5h279q-39 52 -98 141q-119 180 -206 180q-7 0 -12.5 5 t-5.5 10z" />
<glyph unicode="&#xa6;" horiz-adv-x="922" d="M389 338h145v-718h-145v718zM389 718v718h145v-718h-145z" />
<glyph unicode="&#xa7;" horiz-adv-x="989" d="M112 -23q189 -44 298 -44q126 0 189 38t63 115q0 67 -51 104.5t-184 96.5q-97 42 -153 75t-96 90t-40 140q0 167 201 249q-181 86 -181 235q0 138 110.5 216.5t292.5 78.5q156 0 280 -33v-132q-133 39 -258 39q-114 0 -171.5 -35.5t-57.5 -106.5q0 -59 48 -94t178 -86 q184 -75 241 -150.5t57 -170.5q0 -80 -44.5 -147t-123.5 -106q147 -81 147 -230q0 -158 -108 -237t-324 -79q-137 0 -313 35v139zM317 612q0 -71 56.5 -110t197.5 -90q57 23 92.5 67.5t35.5 96.5q0 67 -50 112.5t-174 94.5q-74 -25 -116 -71t-42 -100z" />
<glyph unicode="&#xa8;" horiz-adv-x="931" d="M190 1149q0 12 13 24l65 66q11 10 22 10q10 0 25 -12l63 -67q9 -12 9 -22q0 -12 -11 -25l-63 -68q-15 -16 -23 -16q-12 0 -22 11l-70 78q-8 11 -8 21zM522 1149q0 12 13 24l65 66q12 10 22 10t25 -11l63 -68q9 -12 9 -22q0 -12 -11 -24l-63 -69q-15 -16 -23 -16 q-12 0 -22 11l-69 79q-9 10 -9 20z" />
<glyph unicode="&#xa9;" horiz-adv-x="1606" d="M75 643q0 317 208 522.5t521 205.5q312 0 520 -207.5t208 -520.5q0 -314 -208 -521.5t-520 -207.5q-314 0 -521.5 206t-207.5 523zM212 643q0 -259 168.5 -429.5t423.5 -170.5q253 0 421.5 169.5t168.5 430.5q0 258 -167.5 429t-422.5 171q-259 0 -425.5 -172 t-166.5 -428zM460 652q0 208 96 326.5t305 118.5q64 0 160 -23v-119q-87 29 -149 29q-127 0 -187.5 -78.5t-60.5 -249.5q0 -193 60.5 -275.5t191.5 -82.5q58 0 145 24v-115q-73 -20 -167 -20q-197 0 -295.5 116.5t-98.5 348.5z" />
<glyph unicode="&#xaa;" horiz-adv-x="589" />
<glyph unicode="&#xab;" horiz-adv-x="942" d="M75 494v97l253 355h172l-263 -404l263 -404h-172zM453 494v97l253 355h172l-263 -404l263 -404h-172z" />
<glyph unicode="&#xac;" horiz-adv-x="1001" d="M96 742v163h809v-516h-163v353h-646z" />
<glyph unicode="&#xad;" horiz-adv-x="606" d="M80 479v184h446v-184h-446z" />
<glyph unicode="&#xae;" horiz-adv-x="1606" d="M75 643q0 317 208 522.5t521 205.5q312 0 520 -207.5t208 -520.5q0 -314 -208 -521.5t-520 -207.5q-314 0 -521.5 206t-207.5 523zM212 643q0 -259 168.5 -429.5t423.5 -170.5q253 0 421.5 169.5t168.5 430.5q0 258 -167.5 429t-422.5 171q-259 0 -425.5 -172 t-166.5 -428zM531 199v888h283q147 0 216 -60.5t69 -185.5q0 -191 -176 -250l229 -392h-170l-205 373h-96v-373h-150zM681 676h105q85 0 123.5 38t38.5 127q0 73 -33.5 107t-116.5 34h-117v-306z" />
<glyph unicode="&#xaf;" horiz-adv-x="609" />
<glyph unicode="&#xb0;" horiz-adv-x="758" d="M76 1076q0 129 83 212t214 83t216 -83t85 -214q0 -134 -86.5 -217t-214.5 -83t-212.5 84.5t-84.5 217.5zM194 1074q0 -81 52 -134t129 -53q76 0 128 53t52 134q0 80 -51 132.5t-129 52.5q-79 0 -130 -53t-51 -132z" />
<glyph unicode="&#xb1;" horiz-adv-x="1001" d="M95 723v162h325v332h163v-332h322v-162h-322v-332h-163v332h-325zM96 140v164h809v-164h-809z" />
<glyph unicode="&#xb2;" horiz-adv-x="922" />
<glyph unicode="&#xb3;" horiz-adv-x="922" />
<glyph unicode="&#xb4;" horiz-adv-x="620" d="M134 1158l200 297h187l-226 -297h-161z" />
<glyph unicode="&#xb5;" horiz-adv-x="1073" />
<glyph unicode="&#xb6;" horiz-adv-x="1092" d="M66 1012q0 174 97 259.5t303 85.5h578v-135h-140v-1526h-132v1526h-187v-1526h-132v980q-194 0 -290.5 84t-96.5 252z" />
<glyph unicode="&#xb7;" horiz-adv-x="462" d="M117 645q0 14 15 28l75 77q13 13 26 13q12 0 28 -15l73 -78q11 -15 11 -27q0 -13 -13 -28l-73 -80q-18 -18 -26 -18q-15 0 -26 13l-81 92q-9 11 -9 23z" />
<glyph unicode="&#xb8;" horiz-adv-x="931" d="M328 -264q77 -47 138 -47q60 0 86 19.5t26 60.5t-45 58q-36 15 -93 15q-14 0 -30 -2l43 160h58l-34 -95q29 4 56 5q79 0 122.5 -37t43.5 -103q0 -69 -53.5 -109.5t-145.5 -40.5q-100 0 -172 29v87z" />
<glyph unicode="&#xb9;" horiz-adv-x="922" />
<glyph unicode="&#xba;" horiz-adv-x="653" />
<glyph unicode="&#xbb;" horiz-adv-x="942" d="M66 138l262 404l-262 404h171l253 -355v-97l-253 -356h-171zM443 138l263 404l-263 404h172l253 -355v-97l-253 -356h-172z" />
<glyph unicode="&#xbc;" horiz-adv-x="1554" />
<glyph unicode="&#xbd;" horiz-adv-x="1787" />
<glyph unicode="&#xbe;" horiz-adv-x="1554" />
<glyph unicode="&#xbf;" horiz-adv-x="680" />
<glyph unicode="&#xc0;" horiz-adv-x="1401" />
<glyph unicode="&#xc1;" horiz-adv-x="1401" />
<glyph unicode="&#xc2;" horiz-adv-x="1401" />
<glyph unicode="&#xc3;" horiz-adv-x="1401" />
<glyph unicode="&#xc4;" horiz-adv-x="1401" />
<glyph unicode="&#xc5;" horiz-adv-x="1401" />
<glyph unicode="&#xc6;" horiz-adv-x="1927" />
<glyph unicode="&#xc7;" horiz-adv-x="1273" />
<glyph unicode="&#xc8;" horiz-adv-x="1047" />
<glyph unicode="&#xc9;" horiz-adv-x="1047" />
<glyph unicode="&#xca;" horiz-adv-x="1047" />
<glyph unicode="&#xcb;" horiz-adv-x="1047" />
<glyph unicode="&#xcc;" horiz-adv-x="597" />
<glyph unicode="&#xcd;" horiz-adv-x="597" />
<glyph unicode="&#xce;" horiz-adv-x="597" />
<glyph unicode="&#xcf;" horiz-adv-x="597" />
<glyph unicode="&#xd0;" horiz-adv-x="1381" />
<glyph unicode="&#xd1;" horiz-adv-x="1414" />
<glyph unicode="&#xd2;" horiz-adv-x="1468" />
<glyph unicode="&#xd3;" horiz-adv-x="1468" />
<glyph unicode="&#xd4;" horiz-adv-x="1468" />
<glyph unicode="&#xd5;" horiz-adv-x="1468" />
<glyph unicode="&#xd6;" horiz-adv-x="1468" />
<glyph unicode="&#xd7;" horiz-adv-x="922" d="M147 428l224 224l-224 226l90 89l224 -224l226 224l89 -90l-225 -225l225 -224l-90 -90l-225 224l-224 -224z" />
<glyph unicode="&#xd8;" horiz-adv-x="1468" />
<glyph unicode="&#xd9;" horiz-adv-x="1365" />
<glyph unicode="&#xda;" horiz-adv-x="1365" />
<glyph unicode="&#xdb;" horiz-adv-x="1365" />
<glyph unicode="&#xdc;" horiz-adv-x="1365" />
<glyph unicode="&#xdd;" horiz-adv-x="1122" />
<glyph unicode="&#xde;" horiz-adv-x="1019" />
<glyph unicode="&#xdf;" horiz-adv-x="1138" />
<glyph unicode="&#xe0;" horiz-adv-x="839" />
<glyph unicode="&#xe1;" horiz-adv-x="839" />
<glyph unicode="&#xe2;" horiz-adv-x="839" />
<glyph unicode="&#xe3;" horiz-adv-x="839" />
<glyph unicode="&#xe4;" horiz-adv-x="839" />
<glyph unicode="&#xe5;" horiz-adv-x="839" />
<glyph unicode="&#xe6;" horiz-adv-x="1323" />
<glyph unicode="&#xe7;" horiz-adv-x="823" />
<glyph unicode="&#xe8;" horiz-adv-x="827" />
<glyph unicode="&#xe9;" horiz-adv-x="827" />
<glyph unicode="&#xea;" horiz-adv-x="827" />
<glyph unicode="&#xeb;" horiz-adv-x="827" />
<glyph unicode="&#xec;" horiz-adv-x="467" />
<glyph unicode="&#xed;" horiz-adv-x="467" />
<glyph unicode="&#xee;" horiz-adv-x="467" />
<glyph unicode="&#xef;" horiz-adv-x="467" />
<glyph unicode="&#xf0;" horiz-adv-x="1036" />
<glyph unicode="&#xf1;" horiz-adv-x="1008" />
<glyph unicode="&#xf2;" horiz-adv-x="919" />
<glyph unicode="&#xf3;" horiz-adv-x="919" />
<glyph unicode="&#xf4;" horiz-adv-x="919" />
<glyph unicode="&#xf5;" horiz-adv-x="919" />
<glyph unicode="&#xf6;" horiz-adv-x="919" />
<glyph unicode="&#xf7;" horiz-adv-x="922" d="M79 589v127h764l1 -1v-126h-765zM348 343q0 14 14 28l75 77q13 12 26 12q12 0 28 -14l73 -78q11 -15 11 -27q0 -13 -13 -28l-72 -80q-19 -18 -27 -18q-14 0 -26 13l-80 91q-9 12 -9 24zM348 974q0 13 14 28l75 76q13 13 26 13q12 0 28 -14l73 -79q11 -14 11 -26 q0 -14 -13 -28l-72 -80q-19 -19 -27 -19q-14 0 -26 13l-80 92q-9 12 -9 24z" />
<glyph unicode="&#xf8;" horiz-adv-x="919" />
<glyph unicode="&#xf9;" horiz-adv-x="963" />
<glyph unicode="&#xfa;" horiz-adv-x="963" />
<glyph unicode="&#xfb;" horiz-adv-x="963" />
<glyph unicode="&#xfc;" horiz-adv-x="963" />
<glyph unicode="&#xfd;" horiz-adv-x="789" />
<glyph unicode="&#xfe;" horiz-adv-x="919" />
<glyph unicode="&#xff;" horiz-adv-x="789" />
<glyph unicode="&#x131;" horiz-adv-x="467" d="M17 666v40q202 63 238 166h43v-669q0 -157 91 -157h42v-46h-402v46h42q91 0 91 157v393q0 70 -101 70h-44z" />
<glyph unicode="&#x2c6;" horiz-adv-x="931" d="M201 982l211 323h108l211 -323h-53l-212 196l-212 -196h-53z" />
<glyph unicode="&#x2c7;" horiz-adv-x="931" d="M201 1305h53l212 -195l212 195h53l-211 -324h-108z" />
<glyph unicode="&#x2c9;" horiz-adv-x="931" d="M231 1087v114h470v-114h-470z" />
<glyph unicode="&#x2d8;" horiz-adv-x="931" d="M199 1228h47q15 -67 68 -98t152 -31t151 30.5t67 98.5h47q-18 -121 -85.5 -183.5t-179.5 -62.5q-111 0 -179.5 62.5t-87.5 183.5z" />
<glyph unicode="&#x2d9;" horiz-adv-x="931" d="M371 1149q0 6 3 12t10 12l63 66q5 5 11.5 7.5t12.5 2.5t12 -2.5t11 -7.5l65 -70q4 -3 6 -8.5t2 -12.5q-1 -9 -3 -14.5t-7 -10.5l-65 -69q-11 -10 -14.5 -12.5t-6.5 -2.5q-9 0 -15 2.5t-9 7.5l-68 79q-4 4 -6 9t-2 12z" />
<glyph unicode="&#x2da;" horiz-adv-x="931" d="M305 1144q0 68 46.5 114.5t113.5 46.5q69 0 116 -47t47 -114q0 -68 -47 -115t-116 -47q-67 0 -113.5 47t-46.5 115zM374 1144q0 -38 26.5 -64.5t64.5 -26.5t64.5 26.5t26.5 64.5q0 36 -27 63t-64 27t-64 -27t-27 -63z" />
<glyph unicode="&#x2db;" horiz-adv-x="931" d="M336 -266q0 69 55 142.5t147 123.5h44q-64 -56 -100 -108.5t-36 -102.5q0 -43 24.5 -68.5t66.5 -25.5q36 0 63 14t45 44l26 -14q-33 -57 -82.5 -88t-108.5 -31q-64 0 -104 32t-40 82z" />
<glyph unicode="&#x2dc;" horiz-adv-x="931" d="M213 1030q17 97 61.5 144.5t117.5 47.5q42 -1 103 -22q58 -21 102 -21h4q32 0 52 18.5t33 60.5h49q-18 -94 -62 -140.5t-115 -46.5h-4q-45 0 -103 21q-60 22 -103 22q-36 0 -55.5 -18.5t-30.5 -65.5h-49z" />
<glyph unicode="&#x2dd;" horiz-adv-x="931" d="M197 982l132 248q21 40 40.5 57.5t42.5 17.5q26 0 44 -18t18 -43q0 -15 -9.5 -32t-27.5 -37l-187 -193h-53zM457 982l131 248q22 40 41.5 57.5t42.5 17.5q25 0 43 -18t18 -43q0 -15 -9.5 -32t-27.5 -37l-186 -193h-53z" />
<glyph unicode="&#x10a0;" />
<glyph unicode="&#x10a1;" />
<glyph unicode="&#x10a2;" />
<glyph unicode="&#x10a3;" />
<glyph unicode="&#x10a4;" />
<glyph unicode="&#x10a5;" />
<glyph unicode="&#x10a6;" />
<glyph unicode="&#x10a7;" />
<glyph unicode="&#x10a8;" />
<glyph unicode="&#x10a9;" />
<glyph unicode="&#x10aa;" />
<glyph unicode="&#x10ab;" />
<glyph unicode="&#x10ac;" />
<glyph unicode="&#x10ad;" />
<glyph unicode="&#x10ae;" />
<glyph unicode="&#x10af;" />
<glyph unicode="&#x10b0;" />
<glyph unicode="&#x10b1;" />
<glyph unicode="&#x10b2;" />
<glyph unicode="&#x10b3;" />
<glyph unicode="&#x10b4;" />
<glyph unicode="&#x10b5;" />
<glyph unicode="&#x10b6;" />
<glyph unicode="&#x10b7;" />
<glyph unicode="&#x10b8;" />
<glyph unicode="&#x10b9;" />
<glyph unicode="&#x10ba;" />
<glyph unicode="&#x10bb;" />
<glyph unicode="&#x10bc;" />
<glyph unicode="&#x10bd;" />
<glyph unicode="&#x10be;" />
<glyph unicode="&#x10bf;" />
<glyph unicode="&#x10c0;" />
<glyph unicode="&#x10c1;" />
<glyph unicode="&#x10c2;" />
<glyph unicode="&#x10c3;" />
<glyph unicode="&#x10c4;" />
<glyph unicode="&#x10c5;" />
<glyph unicode="&#x10c6;" />
<glyph unicode="&#x10c7;" />
<glyph unicode="&#x10c8;" />
<glyph unicode="&#x10c9;" />
<glyph unicode="&#x10ca;" />
<glyph unicode="&#x10cb;" />
<glyph unicode="&#x10cc;" />
<glyph unicode="&#x10cd;" />
<glyph unicode="&#x10ce;" />
<glyph unicode="&#x10cf;" />
<glyph unicode="&#x10d0;" horiz-adv-x="728" d="M91 273q0 -273 273 -273t273 273v364q0 273 -273 273q-91 0 -91 91v273h-182v-273q0 -273 273 -273q91 0 91 -91v-364q0 -91 -91 -91t-91 91v273h-182v-273z" />
<glyph unicode="&#x10d1;" horiz-adv-x="728" d="M91 273q0 -273 273 -273t273 273v182q0 272 -182 272v272h-91q-91 0 -91 91v184h-182v-182q0 -275 182 -275v-90q-182 0 -182 -272v-182zM273 273v182q0 91 91 91t91 -91v-182q0 -91 -91 -91t-91 91z" />
<glyph unicode="&#x10d2;" horiz-adv-x="728" d="M91 273v182q0 273 273 273q91 0 91 91v182q0 91 -91 91t-91 -91v-182h-182v182q0 273 273 273t273 -273v-182q0 -137 -82 -182q82 -45 82 -182v-182q0 -273 -273 -273t-273 273zM273 273q0 -91 91 -91t91 91v182q0 91 -91 91t-91 -91v-182z" />
<glyph unicode="&#x10d3;" horiz-adv-x="728" d="M91 273v728q0 273 273 273t273 -273v-366q0 -273 -273 -273h-91v-89q0 -91 91 -91h182v-182h-182q-273 0 -273 273zM273 544h91q91 0 91 91v366q0 91 -91 91t-91 -91v-457z" />
<glyph unicode="&#x10d4;" horiz-adv-x="728" d="M91 273v273h182v-273q0 -91 91 -91t91 91v728q0 91 -91 91t-91 -91v-273h-182v273q0 273 273 273t273 -273v-728q0 -273 -273 -273t-273 273z" />
<glyph unicode="&#x10d5;" horiz-adv-x="728" d="M91 273q0 -273 273 -273t273 273v182q0 137 -91 182q91 45 91 182v182q0 273 -273 273t-273 -273v-237h182v237q0 91 91 91t91 -91v-182q0 -91 -91 -91h-64v-182h64q91 0 91 -91v-182q0 -91 -91 -91t-91 91v237h-182v-237z" />
<glyph unicode="&#x10d6;" horiz-adv-x="910" d="M91 819q0 -273 182 -273v-273q0 -273 273 -273t273 273v182q0 273 -182 273v273q0 273 -273 273t-273 -273v-182zM273 819v182q0 91 91 91t91 -91v-273h-91q-91 0 -91 91zM455 273v273h91q91 0 91 -91v-182q0 -91 -91 -91t-91 91z" />
<glyph unicode="&#x10d7;" horiz-adv-x="1092" d="M91 273q0 -273 273 -273t273 273v728q0 91 91 91t91 -91v-1001h182v1001q0 273 -273 273q-136 0 -182 -91q-46 91 -182 91q-273 0 -273 -273v-728zM273 273v728q0 91 91 91t91 -91v-728q0 -91 -91 -91t-91 91z" />
<glyph unicode="&#x10d8;" horiz-adv-x="728" d="M91 0v1001q0 273 273 273t273 -273v-1001h-182v1001q0 91 -91 91t-91 -91v-1001h-182z" />
<glyph unicode="&#x10d9;" horiz-adv-x="728" d="M91 273q0 -273 273 -273t273 273v364q0 137 -91 182q91 45 91 182v273h-182v-273q0 -91 -91 -91h-182v-182h182q91 0 91 -91v-364q0 -91 -91 -91t-91 91v273h-182v-273z" />
<glyph unicode="&#x10da;" horiz-adv-x="728" d="M91 273v728q0 273 273 273t273 -273v-637h-182v637q0 91 -91 91t-91 -91v-728q0 -91 91 -91h182v-182h-182q-273 0 -273 273z" />
<glyph unicode="&#x10db;" horiz-adv-x="728" d="M91 273v182q0 273 273 273h91v273q0 91 -91 91t-91 -91v-182h-182v182q0 273 273 273t273 -273v-728q0 -273 -273 -273t-273 273zM273 273q0 -91 91 -91t91 91v273h-91q-91 0 -91 -91v-182z" />
<glyph unicode="&#x10dc;" horiz-adv-x="728" d="M91 273v728q0 273 273 273h182v-182h-182q-91 0 -91 -91v-273h91q273 0 273 -273v-182q0 -273 -273 -273t-273 273zM273 273q0 -91 91 -91t91 91v182q0 91 -91 91h-91v-273z" />
<glyph unicode="&#x10dd;" horiz-adv-x="1092" d="M91 0v1001q0 273 273 273q127 0 182 -82q55 82 182 82q273 0 273 -273v-1001h-182v1001q0 91 -91 91t-91 -91v-819h-182v819q0 91 -91 91t-91 -91v-1001h-182z" />
<glyph unicode="&#x10de;" horiz-adv-x="728" d="M91 273q0 -273 273 -273t273 273v182q0 127 -91 182q91 45 91 182q0 273 -300 273q-64 0 -64 73v109h-182v-182q0 -182 182 -182h91q91 0 91 -91t-91 -91h-73v-182h73q91 0 91 -91v-182q0 -91 -91 -91t-91 91v218h-182v-218z" />
<glyph unicode="&#x10df;" horiz-adv-x="1001" d="M0 910v182h182v-182q0 -91 91 -91t91 91v91q0 273 273 273h273v-1001q0 -273 -273 -273t-273 273v273h182v-273q0 -91 91 -91t91 91v819h-91q-91 0 -91 -91v-91q0 -273 -273 -273t-273 273z" />
<glyph unicode="&#x10e0;" horiz-adv-x="728" d="M91 0h182v546h91q91 0 91 -91v-455h182v455q0 273 -273 273h-91v273q0 91 91 91h182v182h-182q-273 0 -273 -273v-1001z" />
<glyph unicode="&#x10e1;" horiz-adv-x="728" d="M91 273v1001h182v-1001q0 -91 91 -91t91 91v273h182v-273q0 -273 -273 -273t-273 273z" />
<glyph unicode="&#x10e2;" horiz-adv-x="728" d="M91 273q0 -273 273 -273t273 273v637h-182v-637q0 -91 -91 -91t-91 91v637h-182v-637zM273 956v318h182v-318h-182z" />
<glyph unicode="&#x10e3;" horiz-adv-x="819" d="M0 1092h91q91 0 91 -91v-273h182v273q0 91 91 91t91 -91v-728q0 -91 -91 -91t-91 91v273h-182v-273q0 -273 273 -273t273 273v728q0 273 -273 273q-139 0 -182 -49q-45 49 -182 49h-91v-182z" />
<glyph unicode="&#x10e4;" horiz-adv-x="1001" d="M0 819q0 -273 273 -273t273 273v182q0 91 91 91t91 -91v-182q0 -91 -91 -91h-56l1 -182h100q46 0 46 -91v-182q0 -91 -91 -91t-91 91v218h-182v-218q0 -273 273 -273t273 273v182q0 144 -91 182q91 46 91 182v182q0 273 -273 273q-127 0 -182 -91q-55 91 -182 91 q-273 0 -273 -273v-182zM182 819v182q0 91 91 91t91 -91v-182q0 -91 -91 -91t-91 91z" />
<glyph unicode="&#x10e5;" horiz-adv-x="728" d="M91 273q0 -273 273 -273t273 273v1001h-182v-364h-273v-182h273v-455q0 -91 -91 -91t-91 91v273h-182v-273z" />
<glyph unicode="&#x10e6;" horiz-adv-x="1092" d="M91 273v728q0 273 273 273q127 0 182 -82q55 82 182 82q273 0 273 -273v-637h-182v637q0 91 -91 91t-91 -91v-637h-182v637q0 91 -91 91t-91 -91v-728q0 -91 91 -91h182v-182h-182q-273 0 -273 273z" />
<glyph unicode="&#x10e7;" horiz-adv-x="728" d="M91 273q0 -273 273 -273t273 273v1001h-182v-455h-91q-91 0 -91 91v364h-182v-364q0 -273 273 -273h91v-364q0 -91 -91 -91t-91 91v273h-182v-273z" />
<glyph unicode="&#x10e8;" horiz-adv-x="819" d="M0 1092h91q91 0 91 -91v-218h182v218q0 91 91 91t91 -91v-273h-91q-273 0 -273 -273v-182q0 -273 273 -273t273 273v728q0 273 -273 273q-137 0 -182 -46q-45 46 -182 46h-91v-182zM364 273v182q0 91 91 91h91v-273q0 -91 -91 -91t-91 91z" />
<glyph unicode="&#x10e9;" horiz-adv-x="728" d="M91 0h182v546h91q91 0 91 -91v-455h182v455q0 273 -273 273h-91v273q0 91 91 91t91 -91v-227h182v227q0 273 -273 273t-273 -273v-1001z" />
<glyph unicode="&#x10ea;" horiz-adv-x="728" d="M91 273q0 -273 273 -273t273 273v364q0 137 -91 182q91 45 91 182v273h-182v-273q0 -91 -68 -91h-59v-182h59q68 0 68 -91v-364q0 -91 -91 -91t-91 91v1001h-182v-1001z" />
<glyph unicode="&#x10eb;" horiz-adv-x="728" d="M91 273v182q0 273 273 273h91v546h182v-1001q0 -273 -273 -273t-273 273zM273 273q0 -91 91 -91t91 91v273h-91q-91 0 -91 -91v-182z" />
<glyph unicode="&#x10ec;" horiz-adv-x="819" d="M91 273q0 -273 273 -273t273 273v182q0 273 -273 273h-91v273q0 91 91 91t91 -91v-218h182v218q0 91 91 91h91v182h-91q-136 0 -182 -46q-46 46 -182 46q-273 0 -273 -273v-728zM273 273v273h91q91 0 91 -91v-182q0 -91 -91 -91t-91 91z" />
<glyph unicode="&#x10ed;" horiz-adv-x="910" d="M91 273q0 -273 273 -273t273 273v364h182v182h-182v182h182v182h-182v91h-182v-91h-91q-273 0 -273 -273t273 -273h91v-364q0 -91 -91 -91t-91 91v273h-182v-273zM273 910q0 91 91 91h91v-182h-91q-91 0 -91 91z" />
<glyph unicode="&#x10ee;" horiz-adv-x="728" d="M91 273v1001h182v-546h91q273 0 273 -273v-182q0 -273 -273 -273t-273 273zM273 273q0 -91 91 -91t91 91v182q0 91 -91 91h-91v-273z" />
<glyph unicode="&#x10ef;" horiz-adv-x="819" d="M0 910h182v-273h273q91 0 91 -91v-273q0 -91 -91 -91t-91 91v273h-182v-273q0 -273 273 -273t273 273v273q0 273 -273 273h-91v91h364v182h-364v182h-182v-182h-182v-182z" />
<glyph unicode="&#x10f0;" horiz-adv-x="728" d="M0 1274h364q273 0 273 -273q0 -146 -45 -182q45 -55 45 -182q0 -146 -45 -182q45 -45 45 -182q0 -273 -273 -273h-273v182h273q91 0 91 91t-91 91h-273v182h273q91 0 91 91t-91 91h-273v182h273q91 0 91 91t-91 91h-273z" />
<glyph unicode="&#x10f1;" horiz-adv-x="910" d="M91 273v1001h182v-1001q0 -91 91 -91h182q91 0 91 91t-91 91h-182v182h182q91 0 91 91t-91 91h-182v182h182q91 0 91 91t-91 91h-182l91 182h91q273 0 273 -273q0 -146 -45 -182q45 -55 45 -182q0 -146 -45 -182q45 -45 45 -182q0 -273 -273 -273h-182q-273 0 -273 273z " />
<glyph unicode="&#x10f2;" horiz-adv-x="728" d="M0 182l91 -182l273 182l273 -182l91 182l-221 100q130 82 130 264v455q0 273 -273 273t-273 -273v-455q0 -182 133 -265zM273 546v455q0 91 91 91t91 -91v-455q0 -91 -91 -185q-91 94 -91 185z" />
<glyph unicode="&#x10f3;" horiz-adv-x="728" d="M91 273q0 -273 273 -273t273 273v273q0 273 -273 273l273 455h-546v-182h273l-273 -455h273q91 0 91 -91v-273q0 -91 -91 -91t-91 91v218h-182v-218z" />
<glyph unicode="&#x10f4;" />
<glyph unicode="&#x10f5;" horiz-adv-x="819" d="M91 273q0 273 273 273h91v182h-91q-273 0 -273 273t273 273t273 -273v-91h182v-182h-182v-182h182v-182h-182v-91q0 -273 -273 -273t-273 273zM273 273q0 -91 91 -91t91 91v91h-91q-91 0 -91 -91zM273 1001q0 -91 91 -91h91v91q0 91 -91 91t-91 -91z" />
<glyph unicode="&#x10f6;" horiz-adv-x="910" d="M0 910q0 -273 273 -273h91v-364q0 -91 -91 -91h-91v-182h91q273 0 273 273v364h91q273 0 273 273t-273 273h-91v91h-182v-91h-91q-273 0 -273 -273zM182 910q0 91 91 91h91v-182h-91q-91 0 -91 91zM546 819v182h91q91 0 91 -91t-91 -91h-91z" />
<glyph unicode="&#x10f7;" />
<glyph unicode="&#x10f8;" />
<glyph unicode="&#x10f9;" />
<glyph unicode="&#x10fa;" />
<glyph unicode="&#x10fb;" />
<glyph unicode="&#x10fc;" />
<glyph unicode="&#x10fd;" />
<glyph unicode="&#x10fe;" />
<glyph unicode="&#x10ff;" />
<glyph unicode="&#x2000;" horiz-adv-x="781" />
<glyph unicode="&#x2001;" horiz-adv-x="1562" />
<glyph unicode="&#x2002;" horiz-adv-x="781" />
<glyph unicode="&#x2003;" horiz-adv-x="1562" />
<glyph unicode="&#x2004;" horiz-adv-x="520" />
<glyph unicode="&#x2005;" horiz-adv-x="390" />
<glyph unicode="&#x2006;" horiz-adv-x="260" />
<glyph unicode="&#x2007;" horiz-adv-x="260" />
<glyph unicode="&#x2008;" horiz-adv-x="195" />
<glyph unicode="&#x2009;" horiz-adv-x="312" />
<glyph unicode="&#x200a;" horiz-adv-x="86" />
<glyph unicode="&#x2010;" horiz-adv-x="606" d="M80 479v184h446v-184h-446z" />
<glyph unicode="&#x2011;" horiz-adv-x="606" d="M80 479v184h446v-184h-446z" />
<glyph unicode="&#x2012;" horiz-adv-x="606" d="M80 479v184h446v-184h-446z" />
<glyph unicode="&#x2013;" horiz-adv-x="1008" d="M51 381v109h906v-109h-906z" />
<glyph unicode="&#x2014;" horiz-adv-x="1863" d="M0 381v109h1864v-109h-1864z" />
<glyph unicode="&#x2018;" horiz-adv-x="506" d="M169 1122q0 99 64.5 206t126.5 107v-39q-66 -39 -79 -173q0 -108 118 -146v-39l-109 -113q-40 0 -80.5 59.5t-40.5 137.5z" />
<glyph unicode="&#x2019;" horiz-adv-x="506" d="M108 1283v38l109 114q40 0 80.5 -59.5t40.5 -137.5q0 -100 -65 -206.5t-126 -106.5v39q66 39 79 173q0 108 -118 146z" />
<glyph unicode="&#x201a;" horiz-adv-x="506" d="M108 104v38l109 114q40 0 80.5 -60t40.5 -138q0 -99 -65 -206t-126 -107v39q66 39 79 173q0 109 -118 147z" />
<glyph unicode="&#x201c;" horiz-adv-x="828" d="M169 1122q0 99 64.5 206t126.5 107v-39q-66 -39 -79 -173q0 -108 118 -146v-39l-109 -113q-40 0 -80.5 59.5t-40.5 137.5zM490 1122q0 99 65 206t127 107v-39q-67 -39 -80 -173q0 -108 118 -146v-39l-108 -113q-41 0 -81.5 59.5t-40.5 137.5z" />
<glyph unicode="&#x201d;" horiz-adv-x="828" d="M108 1283v38l109 114q40 0 80.5 -59.5t40.5 -137.5q0 -100 -65 -206.5t-126 -106.5v39q66 39 79 173q0 108 -118 146zM430 1283v38l108 114q40 0 80.5 -59.5t40.5 -137.5q0 -100 -64.5 -206.5t-126.5 -106.5v39q66 39 79 173q0 108 -117 146z" />
<glyph unicode="&#x201e;" horiz-adv-x="828" d="M108 104v38l109 114q40 0 80.5 -60t40.5 -138q0 -99 -65 -206t-126 -107v39q66 39 79 173q0 109 -118 147zM430 104v38l108 114q40 0 80.5 -60t40.5 -138q0 -99 -64.5 -206t-126.5 -107v39q66 39 79 173q0 109 -117 147z" />
<glyph unicode="&#x2020;" horiz-adv-x="922" d="M65 911q0 52 25 86t65 34q29 0 124 -51q78 -42 163 -50q-7 88 -49 162q-52 92 -52 117q0 45 33 72t87 27q52 0 86 -25t34 -65q0 -30 -50 -125q-41 -77 -50 -163q88 7 161 49q92 52 118 52q44 0 71.5 -32.5t27.5 -87.5q0 -52 -25 -86t-66 -34q-29 0 -124 50 q-77 42 -163 52q8 -160 100 -252q-96 -419 -101 -887h-35q-5 468 -104 887q93 92 101 252q-87 -9 -162 -50q-92 -52 -117 -52q-45 0 -71.5 32.5t-26.5 87.5z" />
<glyph unicode="&#x2021;" horiz-adv-x="922" d="M64 151q0 55 26.5 87.5t71.5 32.5q25 0 117 -52q75 -41 162 -50q-8 206 -101 362q93 156 101 362q-87 -9 -162 -50q-92 -52 -117 -52q-45 0 -71.5 32.5t-26.5 87.5q0 52 25 86t65 34q29 0 124 -51q78 -42 163 -50q-7 88 -49 162q-52 92 -52 117q0 45 33 72t87 27 q52 0 86.5 -25t34.5 -65q0 -30 -50 -125q-42 -77 -51 -163q88 7 162 49q91 52 117 52q45 0 72 -32.5t27 -87.5q0 -52 -25 -86t-66 -34q-29 0 -124 50q-77 42 -163 52q8 -206 101 -362q-93 -156 -101 -362q86 10 163 52q95 50 124 50q41 0 66 -34t25 -86q0 -55 -27 -87.5 t-72 -32.5q-26 0 -117 52q-74 42 -162 49q9 -86 51 -163q50 -95 50 -125q0 -40 -34.5 -65t-86.5 -25q-54 0 -87 27t-33 72q0 25 52 117q42 74 49 162q-85 -8 -163 -50q-95 -51 -124 -51q-40 0 -65 34t-25 86z" />
<glyph unicode="&#x2022;" horiz-adv-x="931" d="M197 653q0 112 79 190.5t191 78.5q111 0 189.5 -79t78.5 -190t-79.5 -190.5t-190.5 -79.5q-112 0 -190 79t-78 191z" />
<glyph unicode="&#x2026;" horiz-adv-x="1863" d="M117 124q0 13 15 28l75 76q13 13 26 13q12 0 28 -14l73 -79q11 -14 11 -26q0 -14 -13 -28l-73 -80q-18 -19 -26 -19q-15 0 -26 13l-81 92q-9 12 -9 24zM739 124q0 13 14 28l75 76q14 13 26 13t29 -14l73 -79q10 -14 10 -26q0 -14 -12 -28l-73 -80q-18 -19 -27 -19 q-14 0 -26 13l-80 92q-9 12 -9 24zM1360 124q0 13 15 28l75 76q13 13 26 13q12 0 28 -14l73 -79q11 -14 11 -26q0 -14 -13 -28l-73 -80q-18 -19 -26 -19q-15 0 -26 13l-80 92q-10 12 -10 24z" />
<glyph unicode="&#x202f;" horiz-adv-x="312" />
<glyph unicode="&#x2039;" horiz-adv-x="574" d="M158 436l312 276h12v-34l-186 -242l186 -242v-34h-12z" />
<glyph unicode="&#x203a;" horiz-adv-x="574" d="M92 160v34l186 242l-186 242v34h13l311 -276l-311 -276h-13z" />
<glyph unicode="&#x2044;" horiz-adv-x="311" d="M-311 -26l855 1329h77l-854 -1329h-78z" />
<glyph unicode="&#x205f;" horiz-adv-x="390" />
<glyph unicode="&#x20a3;" horiz-adv-x="853" d="M18 306v134h144v917h662v-137h-466v-422h364v-136h-364v-222h250v-134h-250v-306h-196v306h-144z" />
<glyph unicode="&#x20a4;" horiz-adv-x="928" d="M56 0v123q159 29 159 293v71h-146v134h146v132h-146v134h146v36q0 224 105 336t315 112q79 0 189 -23v-139q-116 27 -173 27q-134 0 -192.5 -78t-58.5 -260v-11h345v-134h-345v-132h345v-134h-345v-39q0 -220 -137 -308h624v-140h-831z" />
<glyph unicode="&#x20a7;" horiz-adv-x="2148" d="M144 0v1357h359q195 0 291.5 -83t112.5 -257l271 276h50v-235h314v-82q96 98 270 98q134 0 242 -34v-133q-115 39 -222 39q-88 0 -132.5 -38t-44.5 -114q0 -77 112 -136q126 -66 184.5 -99.5t97.5 -100t39 -154.5q0 -159 -94 -239t-281 -80q-101 0 -235 28 q-112 -28 -205 -28q-119 0 -178.5 60.5t-59.5 182.5v704h-124q-1 -214 -118 -328t-333 -114h-121v-490h-195zM339 622h111q133 0 195.5 71.5t62.5 238.5q0 166 -57.5 230.5t-180.5 64.5h-131v-605zM1228 259q0 -87 28.5 -114.5t85.5 -27.5q45 0 99 11v32q167 -44 259 -44 q97 0 146.5 40.5t49.5 121.5q0 46 -30 85t-90 71l-201 111q-112 86 -112 230q0 89 43 157h-278v-673z" />
<glyph unicode="&#x20ac;" horiz-adv-x="1001" d="M34 496l28 123h155l-2 74l2 66h-137l28 123h118q32 245 153.5 367t332.5 122q114 0 207 -27v-138q-95 30 -190 30q-125 0 -200 -89t-100 -265h480l-25 -123h-464l-2 -58q0 -56 2 -82h441l-26 -123h-406q51 -375 309 -375q88 0 181 28v-134q-106 -30 -211 -30 q-216 0 -337 127.5t-147 383.5h-190z" />
<glyph unicode="&#x2116;" horiz-adv-x="2009" d="M144 0v1357h160l544 -982v982h188v-1357h-145l-559 1010v-1010h-188zM1179 0zM1225 105v139h674v-139h-674zM1225 857q0 183 88.5 289t253.5 106q167 0 254 -105.5t87 -292.5q0 -210 -85.5 -314t-255.5 -104q-171 0 -256.5 105t-85.5 316zM1410 861q0 -151 39.5 -226.5 t117.5 -75.5q77 0 116 75.5t39 226.5q0 119 -40 194.5t-115 75.5q-78 0 -117.5 -67.5t-39.5 -202.5z" />
<glyph unicode="&#x2122;" horiz-adv-x="1362" />
<glyph unicode="&#x2202;" horiz-adv-x="922" d="M70 434q0 119 53 228.5t146.5 168.5t191.5 59q100 0 193 -59q27 -17 49 -37q-76 213 -212 342.5t-297 141.5v50q278 0 468.5 -259.5t190.5 -634.5q0 -120 -51.5 -228.5t-145 -168.5t-195.5 -60t-195 60t-144.5 168.5t-51.5 228.5zM211 489q0 -38 5 -72 q12 -111 55.5 -209.5t107.5 -150.5q59 -48 117 -48q5 0 12 1q63 5 115.5 64.5t73.5 163.5q15 66 15 135q0 38 -5 77q-13 111 -57 211t-109 151q-59 45 -116 45h-10q-62 -4 -114.5 -63t-74.5 -162q-15 -77 -15 -143z" />
<glyph unicode="&#x2206;" horiz-adv-x="983" d="M5 0l493 1305l478 -1305h-971zM98 112h729l-359 975z" />
<glyph unicode="&#x220f;" horiz-adv-x="1534" d="M147 -317v1672h1240v-1672h-263v1476h-715v-1476h-262z" />
<glyph unicode="&#x2211;" horiz-adv-x="1328" d="M112 -98l533 631l-519 617v205h1126v-196h-875l528 -626l-560 -656h916v-194h-1149v219z" />
<glyph unicode="&#x2212;" horiz-adv-x="922" d="M79 589v127h764l1 -1v-126h-765z" />
<glyph unicode="&#x221a;" horiz-adv-x="922" d="M15 327l68 32l77 -169l663 1338h136v-55h-65l-729 -1473z" />
<glyph unicode="&#x221e;" horiz-adv-x="922" d="M60 652q0 70 23 136t67 103.5t91 37.5t90 -36.5t68 -101.5q6 -19 11 -38q8 31 19 62q31 80 86.5 125t116.5 45t116.5 -44t86 -123t30.5 -166q0 -86 -30.5 -165t-86 -123t-116.5 -44t-116.5 45t-86.5 124q-11 32 -19 63q-5 -19 -11 -37q-25 -66 -68 -102.5t-90 -36.5 t-91 37t-67 103t-23 136zM73 620q2 -44 25 -81.5t65 -52.5q26 -10 55 -10q15 0 30 3q43 9 82.5 39.5t68.5 168.5q-13 94 -67 121q-42 20 -76 20q-11 0 -21 -2q-45 -9 -84.5 -40.5t-59.5 -76.5q-18 -42 -18 -82v-7zM424 625q11 -87 86 -139q62 -44 112 -44q10 0 19 2 q56 11 106.5 47.5t76.5 91.5q24 49 24 99v10q-2 54 -32.5 98t-82.5 63q-34 11 -70 11q-20 0 -40 -3q-61 -8 -115.5 -56.5t-83.5 -179.5z" />
<glyph unicode="&#x222b;" horiz-adv-x="605" d="M-66 -85h33q1 -39 31.5 -58.5t57.5 -19.5h1q75 0 105 148q29 147 36 287l64 668l7 56q25 217 123 391.5t213 174.5q55 0 55 -27v-145h-33q-1 40 -32 59.5t-57 19.5q-65 0 -106 -141.5t-44 -331.5l-67 -698q-18 -210 -118.5 -382t-213.5 -172q-55 0 -55 27v144z" />
<glyph unicode="&#x2248;" horiz-adv-x="922" d="M86 349v141q58 67 111.5 90.5t103.5 23.5q58 0 165 -45t157 -45q48 0 99.5 25.5t117.5 102.5v-142q-57 -66 -111 -89t-106 -23q-54 0 -161 44t-161 44q-46 0 -97.5 -25.5t-117.5 -101.5zM86 665v142q58 67 111.5 90.5t103.5 23.5q58 0 165 -45t157 -45q48 0 99.5 25.5 t117.5 101.5v-142q-57 -65 -111 -88.5t-106 -23.5q-54 0 -161 44.5t-161 44.5q-46 0 -97.5 -25.5t-117.5 -102.5z" />
<glyph unicode="&#x2264;" horiz-adv-x="922" d="M79 1v127h764l1 -1v-126h-765zM79 613v76l765 440v-152l-569 -326l569 -323v-152z" />
<glyph unicode="&#x2265;" horiz-adv-x="922" d="M79 2v127h764l1 -1v-126h-765zM79 176v152l569 323l-569 326v152l765 -440v-76z" />
<glyph unicode="&#x25fc;" horiz-adv-x="1060" d="M0 0v1060h1060v-1060h-1060z" />
<glyph unicode="&#x2d00;" />
<glyph unicode="&#x2d01;" />
<glyph unicode="&#x2d02;" />
<glyph unicode="&#x2d03;" />
<glyph unicode="&#x2d04;" />
<glyph unicode="&#x2d05;" />
<glyph unicode="&#x2d06;" />
<glyph unicode="&#x2d07;" />
<glyph unicode="&#x2d08;" />
<glyph unicode="&#x2d09;" />
<glyph unicode="&#x2d0a;" />
<glyph unicode="&#x2d0b;" />
<glyph unicode="&#x2d0c;" />
<glyph unicode="&#x2d0d;" />
<glyph unicode="&#x2d0e;" />
<glyph unicode="&#x2d0f;" />
<glyph unicode="&#x2d10;" />
<glyph unicode="&#x2d11;" />
<glyph unicode="&#x2d12;" />
<glyph unicode="&#x2d13;" />
<glyph unicode="&#x2d14;" />
<glyph unicode="&#x2d15;" />
<glyph unicode="&#x2d16;" />
<glyph unicode="&#x2d17;" />
<glyph unicode="&#x2d18;" />
<glyph unicode="&#x2d19;" />
<glyph unicode="&#x2d1a;" />
<glyph unicode="&#x2d1b;" />
<glyph unicode="&#x2d1c;" />
<glyph unicode="&#x2d1d;" />
<glyph unicode="&#x2d1e;" />
<glyph unicode="&#x2d1f;" />
<glyph unicode="&#x2d20;" />
<glyph unicode="&#x2d21;" />
<glyph unicode="&#x2d22;" />
<glyph unicode="&#x2d23;" />
<glyph unicode="&#x2d24;" />
<glyph unicode="&#x2d25;" />
<glyph unicode="&#x2d26;" />
<glyph unicode="&#x2d27;" />
<glyph unicode="&#x2d28;" />
<glyph unicode="&#x2d29;" />
<glyph unicode="&#x2d2a;" />
<glyph unicode="&#x2d2b;" />
<glyph unicode="&#x2d2c;" />
<glyph unicode="&#x2d2d;" />
<glyph unicode="&#x2d2e;" />
<glyph unicode="&#x2d2f;" />
<glyph unicode="&#xf001;" horiz-adv-x="976" />
<glyph unicode="&#xf002;" horiz-adv-x="983" />
</font>
</defs>
</svg>
