<?xml version="1.0" standalone="no"?>
<!DOCTYPE svg PUBLIC "-//W3C//DTD SVG 1.1//EN" "http://www.w3.org/Graphics/SVG/1.1/DTD/svg11.dtd" >
<svg xmlns="http://www.w3.org/2000/svg" xmlns:xlink="http://www.w3.org/1999/xlink" version="1.1">
<metadata></metadata>
<defs>
<font id="bpg_phone_sansitalic" horiz-adv-x="1075" >
<font-face units-per-em="2048" ascent="1556" descent="-492" />
<missing-glyph horiz-adv-x="684" />
<glyph unicode="&#xd;" horiz-adv-x="717" />
<glyph unicode=" "  horiz-adv-x="684" />
<glyph unicode="&#x09;" horiz-adv-x="684" />
<glyph unicode="&#xa0;" horiz-adv-x="684" />
<glyph unicode="!" horiz-adv-x="862" d="M324 0l56 266h215l-56 -266h-215zM453 506l58 375l146 688h215l-146 -688l-103 -375h-170z" />
<glyph unicode="&#x22;" horiz-adv-x="989" d="M416 985l124 584h178l-124 -584h-178zM813 985l124 584h178l-124 -584h-178z" />
<glyph unicode="#" horiz-adv-x="1802" d="M258 434l34 162h369l165 350h-338l34 162h379l198 434h170l-200 -434h305l202 434h168l-200 -434h327l-34 -162h-368l-161 -350h334l-34 -162h-375l-201 -434h-168l201 434h-307l-203 -434h-168l203 434h-332zM833 596h307l161 350h-305z" />
<glyph unicode="$" horiz-adv-x="1368" d="M198 96l41 191q94 -70 196 -103.5t219 -33.5l102 479q-226 37 -312.5 127t-52.5 248q36 172 172 270t354 112l53 248h104l-52 -243q95 -5 184 -21t169 -45l-39 -184q-76 45 -163.5 69.5t-183.5 26.5l-94 -446q230 -37 322 -132.5t57 -259.5q-37 -176 -179 -278.5 t-368 -118.5l-67 -317h-104l65 315q-111 2 -215.5 25.5t-207.5 70.5zM590 1022q-19 -90 28 -140.5t176 -72.5l92 430q-126 -14 -201.5 -69.5t-94.5 -147.5zM759 152q137 18 217 76.5t99 152.5q20 90 -33 145.5t-187 79.5z" />
<glyph unicode="%" horiz-adv-x="2044" d="M367 1169q42 197 163.5 311.5t287.5 114.5t241 -114.5t33 -311.5q-42 -198 -165 -313t-291 -115q-166 0 -238.5 116t-30.5 312zM439 -31l1327 1626h168l-1327 -1626h-168zM535 1169q-30 -139 4 -215.5t126 -76.5t160.5 76.5t98.5 215.5q29 136 -8 214.5t-127 78.5 t-157.5 -77.5t-96.5 -215.5zM1283 395q43 199 165.5 313.5t288.5 114.5t239.5 -115.5t31.5 -312.5q-41 -196 -163.5 -311t-288.5 -115q-168 0 -241 115t-32 311zM1451 395q-29 -137 7 -215t126 -78t158.5 78t97.5 215q30 137 -5.5 216t-125.5 79t-159 -77.5t-99 -217.5z" />
<glyph unicode="&#x26;" horiz-adv-x="1677" d="M237 483q29 135 124.5 253t259.5 222q-37 66 -50 131.5t1 129.5q36 170 175 273t331 103q88 0 171 -18t164 -57l-41 -191q-81 49 -158 75t-149 26q-111 0 -192.5 -57.5t-101.5 -151.5q-11 -54 9 -108t96 -152l416 -545q81 92 138.5 198.5t88.5 227.5h195 q-39 -140 -123.5 -275t-208.5 -268l230 -299h-266l-118 154q-129 -93 -258 -139t-266 -46q-254 0 -384.5 144.5t-82.5 369.5zM443 498q-33 -156 57 -257.5t258 -101.5q98 0 193.5 34t184.5 99l-435 572q-114 -86 -176 -170t-82 -176z" />
<glyph unicode="'" horiz-adv-x="592" d="M416 985l124 584h178l-124 -584h-178z" />
<glyph unicode="(" horiz-adv-x="840" d="M305.5 201.5q-28.5 238.5 21.5 474.5q50 233 178.5 470.5t340.5 485.5h168q-193 -241 -311.5 -477.5t-170.5 -478.5q-52 -244 -34 -481.5t109 -479.5h-168q-105 248 -133.5 486.5z" />
<glyph unicode=")" horiz-adv-x="840" d="M111 -285q190 242 309.5 479.5t171.5 481.5q52 242 33 478.5t-107 477.5h168q106 -248 133 -485.5t-23 -470.5q-50 -236 -178 -474.5t-339 -486.5h-168z" />
<glyph unicode="*" d="M254 901l421 205l-334 203l84 104l307 -213l84 395h121l-84 -395l397 213l40 -104l-420 -203l333 -205l-84 -102l-306 213l-85 -398h-121l85 398l-398 -213z" />
<glyph unicode="+" horiz-adv-x="1802" d="M351 586l38 178h586l124 584h176l-124 -584h586l-38 -178h-586l-124 -586h-176l124 586h-586z" />
<glyph unicode="," horiz-adv-x="684" d="M112 -250l158 336l38 180h221l-38 -180l-244 -336h-135z" />
<glyph unicode="-" horiz-adv-x="776" d="M211 504l36 172h568l-36 -172h-568z" />
<glyph unicode="." horiz-adv-x="684" d="M229 0l56 266h222l-56 -266h-222z" />
<glyph unicode="/" horiz-adv-x="725" d="M-42 -201l922 1770h178l-923 -1770h-177z" />
<glyph unicode="0" horiz-adv-x="1368" d="M307 782q84 398 268 605.5t448 207.5q262 0 357 -207.5t11 -605.5q-85 -397 -268.5 -605t-445.5 -208q-264 0 -359.5 208t-10.5 605zM500 299q49 -162 213 -162t281 162t186 483q69 324 20 484.5t-213 160.5t-281 -160.5t-186 -484.5q-69 -321 -20 -483z" />
<glyph unicode="1" horiz-adv-x="1368" d="M266 0l37 178h346l255 1196l-393 -76l42 195l390 76h213l-296 -1391h346l-37 -178h-903z" />
<glyph unicode="2" horiz-adv-x="1368" d="M158 0l37 178q148 125 400.5 336t320.5 270q125 115 183 195t74 156q26 125 -45 203.5t-213 78.5q-98 0 -216 -34.5t-260 -104.5l46 215q139 49 255.5 75.5t208.5 26.5q244 0 363.5 -121.5t76.5 -324.5q-21 -96 -76.5 -183t-174.5 -204q-33 -31 -204 -176.5t-483 -407.5 h739l-37 -178h-995z" />
<glyph unicode="3" horiz-adv-x="1368" d="M173 47l44 205q77 -51 177 -78t212 -27q201 0 322 79t154 231q29 137 -51.5 216t-255.5 79h-182l37 174h193q155 0 251.5 62.5t121.5 178.5q25 121 -47 185.5t-232 64.5q-86 0 -189 -18.5t-233 -59.5l41 191q128 33 237 49t203 16q242 0 358.5 -109.5t76.5 -295.5 q-27 -131 -120.5 -220t-239.5 -124q145 -33 209 -136.5t33 -252.5q-50 -234 -236.5 -361t-479.5 -127q-101 0 -201.5 19.5t-202.5 58.5z" />
<glyph unicode="4" horiz-adv-x="1368" d="M182 371l43 202l866 996h266l-217 -1022h223l-38 -176h-223l-78 -371h-211l78 371h-709zM392 547h537l177 835z" />
<glyph unicode="5" horiz-adv-x="1368" d="M173 37l46 213q83 -51 179 -77t206 -26q183 0 310 96.5t162 260.5q34 164 -52 259t-269 95q-84 0 -173 -19.5t-186 -58.5l168 789h834l-38 -180h-639l-82 -383q49 16 97.5 23t93.5 7q264 0 386.5 -143t70.5 -389q-54 -254 -242 -394.5t-472 -140.5q-101 0 -200 16.5 t-200 51.5z" />
<glyph unicode="6" horiz-adv-x="1368" d="M316 782q79 371 303 592t521 221q80 0 157 -15t159 -46l-42 -195q-71 39 -147.5 58.5t-156.5 19.5q-211 0 -351.5 -141t-218.5 -428q83 90 186.5 139t216.5 49q235 0 342 -143t55 -389q-52 -244 -226.5 -389.5t-409.5 -145.5q-273 0 -373 208t-15 605zM506 504 q-37 -170 26.5 -268.5t207.5 -98.5q143 0 246.5 98.5t140.5 268.5q36 170 -26.5 267t-205.5 97q-144 0 -248.5 -97t-140.5 -267z" />
<glyph unicode="7" horiz-adv-x="1368" d="M393 0l832 1389h-754l38 180h1008l-20 -92l-883 -1477h-221z" />
<glyph unicode="8" horiz-adv-x="1368" d="M238 440q32 152 140 255.5t270 140.5q-128 32 -185 125.5t-29 228.5q40 188 198 296.5t391 108.5q234 0 343.5 -108.5t69.5 -296.5q-28 -135 -124 -228.5t-238 -125.5q146 -37 209 -140.5t31 -255.5q-48 -227 -213.5 -349t-423.5 -122q-260 0 -373.5 122t-65.5 349z M451 440q-30 -141 40 -222t222 -81t256 81t134 222q31 144 -39.5 223.5t-222.5 79.5t-255.5 -79.5t-134.5 -223.5zM641 1169q-26 -120 36.5 -189t199.5 -69q135 0 227.5 69t118.5 189q26 121 -37.5 189.5t-198.5 68.5q-137 0 -228.5 -68.5t-117.5 -189.5z" />
<glyph unicode="9" horiz-adv-x="1368" d="M243 33l40 192q71 -37 149 -57.5t158 -20.5q209 0 349.5 141.5t218.5 430.5q-81 -90 -184.5 -139.5t-216.5 -49.5q-235 0 -342 142.5t-55 390.5q52 242 226.5 387t409.5 145q273 0 372 -207.5t15 -605.5q-79 -370 -302.5 -591.5t-520.5 -221.5q-80 0 -158 15.5t-159 48.5 zM573 1063q-36 -170 27 -268.5t204 -98.5q144 0 249 98.5t141 268.5q37 170 -26.5 267t-207.5 97q-141 0 -245.5 -97t-141.5 -267z" />
<glyph unicode=":" horiz-adv-x="725" d="M252 0l56 266h221l-56 -266h-221zM431 846l57 266h221l-57 -266h-221z" />
<glyph unicode=";" horiz-adv-x="725" d="M112 -250l158 336l38 180h221l-38 -180l-244 -336h-135zM431 846l57 266h221l-57 -266h-221z" />
<glyph unicode="&#x3c;" horiz-adv-x="1802" d="M351 588l37 174l1452 487l-40 -190l-1168 -385l1004 -383l-41 -193z" />
<glyph unicode="=" horiz-adv-x="1802" d="M305 371l38 178h1348l-38 -178h-1348zM397 801l37 176h1348l-37 -176h-1348z" />
<glyph unicode="&#x3e;" horiz-adv-x="1802" d="M247 98l41 193l1164 383l-1000 385l40 190l1244 -487l-37 -174z" />
<glyph unicode="?" horiz-adv-x="1141" d="M412 0l56 266h213l-56 -266h-213zM426 1280l41 197q113 59 221 88.5t214 29.5q195 0 290 -101t59 -269q-17 -78 -70.5 -151t-166.5 -163l-111 -90q-59 -49 -85.5 -76.5t-40.5 -54.5q-11 -22 -22 -54t-22 -85l-28 -129h-198l35 162q22 104 65 172.5t156 158.5l117 95 q71 55 108 104t48 100q20 95 -37.5 152t-170.5 57q-82 0 -184 -36.5t-218 -106.5z" />
<glyph unicode="@" horiz-adv-x="2150" d="M254 200q-34 173 7 369q41 193 150 366t270 304q163 133 355 203.5t391 70.5q221 0 392 -91t267 -259q56 -102 72.5 -223t-11.5 -250q-59 -276 -261 -436t-496 -166l35 162q-80 -80 -169.5 -119t-198.5 -39q-180 0 -264.5 131t-40.5 340q45 211 185.5 342t320.5 131 q109 0 182.5 -39t117.5 -118l29 137h150l-164 -772q158 22 270 139t151 303q24 113 12.5 211t-61.5 182q-81 138 -222.5 211.5t-325.5 73.5q-129 0 -255 -35t-243 -102q-186 -107 -315 -281t-173 -377q-35 -166 -5.5 -312t118.5 -257q87 -109 220.5 -166t297.5 -57 q135 0 276 46t267 130l70 -117q-153 -102 -319.5 -156.5t-325.5 -54.5q-195 0 -352.5 69.5t-262.5 201.5q-107 131 -141 304zM920 563q-32 -149 23.5 -234t186.5 -85q129 0 222.5 86t124.5 233q32 148 -26.5 235t-185.5 87t-220 -86t-125 -236z" />
<glyph unicode="A" horiz-adv-x="1470" d="M16 0l931 1569h242l263 -1569h-219l-58 401h-707l-228 -401h-224zM569 580h578l-123 780z" />
<glyph unicode="B" horiz-adv-x="1475" d="M211 0l333 1569h543q241 1 351 -101q80 -74 80 -195q0 -44 -11 -93q-30 -144 -115.5 -229t-219.5 -105q150 -36 214 -142q41 -69 42 -161q0 -49 -12 -105q-45 -209 -212.5 -323.5t-429.5 -114.5h-563zM460 174h340q170 0 268 70.5t130 218.5q10 45 10 84q0 84 -47 132 q-68 71 -238 71h-340zM619 922h313q156 0 244 57t113 178q8 35 8 64q0 71 -45 113q-63 58 -219 59h-313z" />
<glyph unicode="C" horiz-adv-x="1501" d="M287 782q80 377 331 595t608 218q139 0 256 -36.5t209 -110.5l-48 -225q-84 100 -195.5 149t-246.5 49q-268 0 -446.5 -163.5t-244.5 -475.5q-25 -118 -25 -214q-1 -159 67 -261q108 -164 377 -164q135 0 267.5 50.5t259.5 148.5l-47 -221q-126 -76 -259 -114t-270 -38 q-357 1 -515 219q-105 145 -105 359q0 109 27 235z" />
<glyph unicode="D" horiz-adv-x="1657" d="M211 0l333 1569h436q454 1 628 -189q116 -127 116 -351q0 -111 -28 -245q-86 -403 -341 -593.5t-708 -190.5h-436zM460 174h256q324 0 506 147.5t249 462.5q24 114 24 206q0 162 -76 256q-119 146 -443 147h-256z" />
<glyph unicode="E" horiz-adv-x="1360" d="M211 0l333 1569h991l-38 -180h-778l-99 -463h745l-38 -178h-745l-121 -570h797l-37 -178h-1010z" />
<glyph unicode="F" horiz-adv-x="1237" d="M211 0l333 1569h901l-38 -180h-688l-98 -461h620l-38 -178h-620l-159 -750h-213z" />
<glyph unicode="G" horiz-adv-x="1665" d="M287 782q82 385 334.5 599t620.5 214q154 0 283 -37.5t232 -109.5l-48 -227q-98 100 -219 150t-266 50q-289 0 -468 -160.5t-246 -478.5q-26 -121 -26 -219q0 -159 68 -259q111 -161 400 -161q110 0 203 19.5t172 60.5l90 422h-346l37 174h557l-144 -674 q-143 -86 -300 -131t-325 -45q-368 0 -530 215q-107 143 -107 359q0 110 28 239z" />
<glyph unicode="H" horiz-adv-x="1618" d="M211 0l333 1569h213l-137 -643h770l137 643h213l-333 -1569h-213l158 748h-770l-158 -748h-213z" />
<glyph unicode="I" horiz-adv-x="635" d="M211 0l333 1569h213l-333 -1569h-213z" />
<glyph unicode="J" horiz-adv-x="635" d="M-202 -430l38 178h66q140 0 214.5 79t117.5 282l310 1460h213l-310 -1460q-60 -283 -195 -411t-374 -128h-80z" />
<glyph unicode="K" horiz-adv-x="1409" d="M211 0l333 1569h213l-141 -664l843 664h275l-933 -731l653 -838h-278l-592 756l-160 -756h-213z" />
<glyph unicode="L" horiz-adv-x="1198" d="M211 0l333 1569h213l-296 -1391h762l-37 -178h-975z" />
<glyph unicode="M" horiz-adv-x="1855" d="M211 0l333 1569h315l175 -1067l628 1067h316l-333 -1569h-207l292 1376l-633 -1075h-213l-174 1075l-292 -1376h-207z" />
<glyph unicode="N" horiz-adv-x="1610" d="M211 0l333 1569h287l415 -1313l279 1313h207l-333 -1569h-287l-416 1311l-278 -1311h-207z" />
<glyph unicode="O" horiz-adv-x="1694" d="M287 782q79 371 323.5 592t576.5 221q331 0 481 -221q99 -145 98 -354q0 -110 -27 -238q-79 -370 -323.5 -591.5t-574.5 -221.5q-333 -1 -483 221q-99 145 -98 355q0 110 27 237zM510 782q-24 -116 -24 -212q0 -152 60 -257q99 -172 331 -172q229 0 401.5 172t235.5 469 q24 116 24 212q0 152 -60 257q-99 172 -328 172q-232 0 -404.5 -172t-235.5 -469z" />
<glyph unicode="P" horiz-adv-x="1296" d="M211 0l333 1569h479q262 0 372 -120q76 -83 77 -218q0 -60 -16 -131q-49 -234 -209.5 -351.5t-422.5 -117.5h-266l-134 -631h-213zM595 805h266q148 0 244.5 76.5t126.5 218.5q10 44 10 82q0 81 -44 134q-64 77 -212 77h-266z" />
<glyph unicode="Q" horiz-adv-x="1694" d="M287 782q79 371 323.5 592t576.5 221q330 0 481 -221q98 -145 98 -354q0 -110 -27 -238q-58 -272 -210 -466.5t-378 -286.5l213 -305h-256l-178 249q-36 -2 -54.5 -3t-34.5 -1q-332 0 -483 221q-98 146 -98 355q0 110 27 237zM510 782q-24 -116 -24 -212q0 -152 60 -257 q99 -172 331 -172q229 0 401.5 172t235.5 469q24 116 24 212q0 152 -60 257q-99 172 -328 172q-232 0 -404.5 -172t-235.5 -469z" />
<glyph unicode="R" horiz-adv-x="1493" d="M211 0l333 1569h479q269 0 377 -113q75 -78 75 -211q0 -59 -15 -129q-32 -147 -121.5 -245.5t-228.5 -135.5q65 -22 112.5 -98t84.5 -209l125 -428h-228l-115 401q-45 158 -106.5 210.5t-188.5 52.5h-229l-141 -664h-213zM602 838h266q154 0 246.5 70.5t121.5 207.5 q9 43 9 80q-1 79 -43 127q-62 70 -216 70h-266z" />
<glyph unicode="S" horiz-adv-x="1366" d="M161 70l47 219q113 -74 229 -111t237 -37q180 0 295 72t143 205q8 35 8 65q0 69 -40 115q-56 66 -212 96l-123 27q-227 47 -313 147q-59 69 -59 176q0 49 12 105q44 209 216 327.5t430 118.5q111 0 220 -19.5t222 -59.5l-44 -207q-109 57 -210.5 85.5t-199.5 28.5 q-174 0 -283 -67.5t-135 -190.5q-7 -31 -6 -57q0 -62 35 -100q51 -54 219 -84l123 -27q229 -45 317 -159q60 -77 60 -191q0 -53 -13 -115q-48 -227 -225.5 -345t-472.5 -118q-113 0 -232 25.5t-245 75.5z" />
<glyph unicode="T" horiz-adv-x="1315" d="M289 1389l38 180h1327l-38 -180h-557l-295 -1389h-213l295 1389h-557z" />
<glyph unicode="U" horiz-adv-x="1575" d="M311 590l208 979h213l-203 -955q-24 -111 -24 -194q0 -106 39 -168q69 -110 271 -111q205 0 320 110.5t169 362.5l203 955h212l-208 -979q-65 -307 -250 -464t-482 -157t-415 157q-76 101 -76 265q0 90 23 199z" />
<glyph unicode="V" horiz-adv-x="1470" d="M349 1569h222l216 -1321l779 1321h219l-929 -1569h-242z" />
<glyph unicode="W" horiz-adv-x="2126" d="M405 1569h215l45 -1325l612 1325h238l47 -1325l612 1325h215l-726 -1569h-268l-41 1362l-623 -1362h-266z" />
<glyph unicode="X" horiz-adv-x="1473" d="M63 0l740 838l-335 731h227l268 -584l515 584h227l-664 -754l366 -815h-229l-300 668l-585 -668h-230z" />
<glyph unicode="Y" horiz-adv-x="1315" d="M329 1569h227l297 -645l570 645h229l-730 -821l-158 -748h-213l158 748z" />
<glyph unicode="Z" horiz-adv-x="1473" d="M96 0l34 162l1252 1227h-966l38 180h1231l-34 -162l-1254 -1229h1016l-37 -178h-1280z" />
<glyph unicode="[" horiz-adv-x="840" d="M123 -285l408 1919h447l-32 -149h-252l-344 -1618h252l-32 -152h-447z" />
<glyph unicode="\" horiz-adv-x="725" d="M333 1569h178l171 -1770h-178z" />
<glyph unicode="]" horiz-adv-x="840" d="M148 -285l32 152h252l344 1618h-252l32 149h444l-408 -1919h-444z" />
<glyph unicode="^" horiz-adv-x="1802" d="M435 983l697 586h205l446 -586h-211l-374 416l-552 -416h-211z" />
<glyph unicode="_" d="M-127 -508l32 152h1115l-32 -152h-1115z" />
<glyph unicode="`" d="M543 1720h207l214 -393h-162z" />
<glyph unicode="a" horiz-adv-x="1319" d="M201 342q42 199 196.5 299t416.5 100h273l4 21q8 38 8 71q1 83 -51 135q-72 72 -231 72q-100 0 -202 -24.5t-200 -71.5l38 178q116 41 219 61.5t197 20.5q256 0 354 -132q62 -83 62 -221q0 -80 -21 -179l-142 -672h-192l37 178q-90 -106 -199 -157.5t-253 -51.5 q-180 -1 -265 101q-60 71 -60 177q0 44 11 95zM397 354q-6 -29 -7 -55q0 -65 40 -107q56 -60 170 -61q162 0 284 113.5t162 304.5l9 43h-193q-233 0 -335.5 -54.5t-129.5 -183.5z" />
<glyph unicode="b" horiz-adv-x="1366" d="M195 0l347 1634h194l-136 -637q85 105 188.5 156t232.5 51q215 0 312 -170q60 -106 60 -252q0 -89 -22 -194q-59 -279 -228 -449t-384 -170q-129 0 -211 51.5t-122 155.5l-37 -176h-194zM513 588q-19 -90 -19 -163q0 -101 36 -172q62 -122 216 -122q151 0 265.5 122 t159.5 335q19 90 19 163q0 101 -36 171q-63 120 -214 120q-154 0 -267.5 -120.5t-159.5 -333.5z" />
<glyph unicode="c" horiz-adv-x="1182" d="M243 588q61 286 253.5 451t469.5 165q88 0 169.5 -18.5t153.5 -55.5l-39 -180q-72 45 -149 67.5t-161 22.5q-189 0 -318.5 -118.5t-175.5 -333.5q-16 -78 -17 -144q1 -115 51 -191q78 -120 267 -120q84 0 170.5 22.5t178.5 67.5l-38 -178q-88 -39 -179 -57.5t-190 -18.5 q-264 0 -385 167q-81 112 -81 276q0 82 20 176z" />
<glyph unicode="d" horiz-adv-x="1366" d="M243 588q59 276 228 446t384 170q129 0 211.5 -51t121.5 -156l136 637h192l-347 -1634h-192l37 176q-84 -104 -188 -155.5t-233 -51.5q-215 0 -312 170q-60 106 -60 254q0 89 22 195zM441 588q-19 -89 -19 -162q0 -102 36 -173q62 -122 216 -122t268 122t159 335 q20 90 20 164q-1 100 -37 170q-62 120 -216 120q-153 0 -267 -120.5t-160 -333.5z" />
<glyph unicode="e" horiz-adv-x="1323" d="M241 575q61 289 252.5 459t455.5 170q238 0 344 -152q69 -100 69 -247q0 -77 -19 -168l-20 -94h-889q-7 -50 -7 -93q1 -132 65 -212q86 -104 275 -105q113 0 223 27.5t224 83.5l-39 -185q-113 -43 -226.5 -66.5t-226.5 -23.5q-284 0 -412 164q-88 112 -88 278 q0 77 19 164zM475 692h688q10 52 10 97q0 94 -45 157q-67 94 -211 94q-161 0 -277 -91t-165 -257z" />
<glyph unicode="f" horiz-adv-x="758" d="M233 0l218 1026h-184l31 150h184l18 81q42 197 153.5 287t307.5 90h185l-34 -161h-187q-102 0 -152 -42t-73 -151l-23 -104h320l-31 -150h-320l-218 -1026h-195z" />
<glyph unicode="g" horiz-adv-x="1366" d="M178 -385l40 188q74 -47 153 -69.5t165 -22.5q188 0 305 100.5t159 299.5l20 96q-81 -105 -186 -156t-234 -51q-217 0 -314 165q-61 104 -61 250q0 86 21 187q58 272 225 437t384 165q129 0 213 -51t120 -156l38 179h192l-219 -1031q-63 -299 -227 -445t-438 -146 q-103 0 -191 14t-165 47zM444 602q-18 -86 -18 -156q0 -100 37 -168q63 -116 218 -116q156 0 267.5 115.5t155.5 324.5q19 87 19 159q0 98 -37 165q-62 116 -218 116q-155 0 -267 -115.5t-157 -324.5z" />
<glyph unicode="h" horiz-adv-x="1364" d="M195 0l347 1634h194l-136 -641q92 107 197 159t228 52q203 0 280 -126q46 -76 46 -193q0 -78 -20 -174l-151 -711h-193l149 702q15 71 15 127q1 76 -27 124q-48 83 -177 83q-158 0 -269 -99t-148 -271l-141 -666h-194z" />
<glyph unicode="i" horiz-adv-x="598" d="M203 0l249 1176h192l-249 -1176h-192zM498 1389l52 245h192l-52 -245h-192z" />
<glyph unicode="j" horiz-adv-x="598" d="M-133 -446l34 161h51q110 0 161 51.5t85 213.5l254 1196h192l-254 -1196q-48 -226 -154 -326t-295 -100h-74zM498 1389l52 245h192l-52 -245h-192z" />
<glyph unicode="k" horiz-adv-x="1245" d="M195 0l347 1634h194l-205 -964l685 506h245l-738 -549l516 -627h-252l-477 573l-121 -573h-194z" />
<glyph unicode="l" horiz-adv-x="598" d="M203 0l347 1634h192l-347 -1634h-192z" />
<glyph unicode="m" horiz-adv-x="2095" d="M195 0l249 1176h194l-38 -183q91 109 192.5 160t230.5 51q127 0 203.5 -65.5t92.5 -188.5q102 129 215.5 191.5t250.5 62.5q181 0 255 -129q44 -77 44 -191q0 -78 -20 -173l-151 -711h-195l149 702q16 77 16 137q0 71 -23 115q-43 82 -165 82q-150 0 -258 -99t-145 -271 l-141 -666h-195l149 702q17 80 17 140q0 69 -22 113q-42 81 -167 81q-150 0 -258.5 -100t-144.5 -270l-141 -666h-194z" />
<glyph unicode="n" horiz-adv-x="1364" d="M195 0l249 1176h194l-38 -183q92 107 197 159t228 52q203 0 280 -126q46 -76 46 -193q0 -78 -20 -174l-151 -711h-193l149 702q15 71 15 127q1 76 -27 124q-48 83 -177 83q-158 0 -269 -99t-148 -271l-141 -666h-194z" />
<glyph unicode="o" horiz-adv-x="1317" d="M243 588q62 289 240 452.5t429 163.5q252 0 362 -164q70 -105 71 -260q0 -88 -23 -192q-61 -289 -240.5 -454t-431.5 -165t-360 165q-69 106 -69 262q0 88 22 192zM446 588q-18 -86 -18 -157q0 -104 38 -176q64 -122 219 -122q156 0 272 122t160 333q19 86 19 158 q0 102 -38 172q-64 122 -220 122q-153 0 -270 -120.5t-162 -331.5z" />
<glyph unicode="p" horiz-adv-x="1366" d="M100 -446l344 1622h194l-38 -179q85 105 188.5 156t232.5 51q215 0 312 -170q60 -106 60 -252q0 -90 -22 -194q-59 -279 -228 -449t-384 -170q-129 0 -211 51.5t-122 155.5l-132 -622h-194zM513 588q-19 -90 -19 -163q0 -101 36 -172q62 -122 216 -122q151 0 265.5 122 t159.5 335q19 90 19 163q0 101 -36 171q-63 120 -214 120q-154 0 -267.5 -120.5t-159.5 -333.5z" />
<glyph unicode="q" horiz-adv-x="1366" d="M243 588q59 276 228 446t384 170q129 0 211.5 -51t121.5 -156l38 179h192l-344 -1622h-192l132 622q-84 -104 -188 -155.5t-233 -51.5q-215 0 -312 170q-60 106 -60 254q0 89 22 195zM441 588q-19 -89 -19 -162q0 -102 36 -173q63 -122 216 -122q154 0 268 122t159 335 q20 90 20 164q0 100 -37 170q-62 120 -216 120q-153 0 -267 -120.5t-160 -333.5z" />
<glyph unicode="r" horiz-adv-x="885" d="M195 0l249 1176h194l-38 -183q84 107 192 159t247 52q21 0 45 -3t52 -7l-40 -199q-29 19 -66 28t-82 9q-164 0 -274.5 -106.5t-153.5 -307.5l-131 -618h-194z" />
<glyph unicode="s" horiz-adv-x="1120" d="M126 43l42 201q94 -58 192.5 -85.5t198.5 -27.5q138 0 221.5 47t101.5 131q5 22 5 41q0 49 -32 79q-44 42 -217 83l-62 14q-170 39 -234 117q-44 54 -44 135q0 37 9 80q35 166 171.5 256t351.5 90q109 0 200 -15t164 -48l-39 -183q-73 43 -156.5 63.5t-177.5 20.5 q-143 0 -225.5 -44t-100.5 -132q-4 -17 -4 -32q-1 -45 33 -73q44 -38 191 -73l65 -14q195 -45 265 -125q49 -55 49 -142q0 -38 -10 -83q-34 -162 -184.5 -258.5t-378.5 -96.5q-94 0 -192.5 18.5t-202.5 55.5z" />
<glyph unicode="t" horiz-adv-x="844" d="M275 1026l31 150h142l71 333h194l-71 -333h400l-31 -150h-400l-136 -639q-16 -72 -16 -118q-1 -45 15 -66q30 -41 154 -41h199l-34 -162h-199q-224 0 -292 84q-41 50 -40 147q0 67 19 156l136 639h-142z" />
<glyph unicode="u" horiz-adv-x="1364" d="M280 465l151 711h195l-149 -705q-16 -73 -16 -130q0 -74 27 -121q47 -83 178 -83q156 0 268 100.5t149 272.5l141 666h192l-249 -1176h-192l38 180q-95 -106 -198 -158.5t-226 -52.5q-203 0 -282 126q-48 76 -48 195q0 78 21 175z" />
<glyph unicode="v" horiz-adv-x="1274" d="M312 1176h205l159 -988l577 988h204l-689 -1176h-262z" />
<glyph unicode="w" horiz-adv-x="1759" d="M339 1176h193l46 -918l437 918h227l47 -918l435 918h192l-554 -1176h-229l-47 965l-459 -965h-230z" />
<glyph unicode="x" horiz-adv-x="1274" d="M61 0l587 614l-299 562h230l221 -418l401 418h228l-545 -572l318 -604h-227l-244 463l-440 -463h-230z" />
<glyph unicode="y" horiz-adv-x="1274" d="M75 -446l33 159h113q79 0 132 38t138 179l53 88l-232 1158h205l174 -920l562 920h204l-789 -1285q-126 -210 -217 -273.5t-222 -63.5h-154z" />
<glyph unicode="z" horiz-adv-x="1128" d="M92 0l37 176l907 846h-700l32 154h917l-37 -177l-907 -845h727l-32 -154h-944z" />
<glyph unicode="{" horiz-adv-x="1368" d="M388 567l32 152h66q149 0 218.5 60.5t102.5 215.5l54 252q49 232 153.5 309.5t366.5 77.5h66l-32 -149h-72q-147 0 -202 -47t-86 -195l-56 -260q-35 -166 -99 -239.5t-184 -100.5q108 -29 140.5 -103.5t-2.5 -238.5l-55 -260q-31 -147 4 -194.5t182 -47.5h72l-32 -149 h-66q-262 0 -333.5 77.5t-22.5 309.5l54 252q33 157 -11.5 217.5t-191.5 60.5h-66z" />
<glyph unicode="|" horiz-adv-x="725" d="M164 -508l457 2150h179l-457 -2150h-179z" />
<glyph unicode="}" horiz-adv-x="1368" d="M193 -350l32 149h74q147 0 202 46t87 196l55 260q35 164 98 238.5t186 103.5q-111 27 -142.5 100.5t3.5 239.5l56 260q32 150 -4 196t-183 46h-74l32 149h68q260 0 331.5 -77.5t22.5 -309.5l-54 -252q-33 -155 10.5 -215.5t192.5 -60.5h66l-32 -152h-66 q-149 0 -218.5 -60.5t-102.5 -217.5l-54 -252q-49 -232 -153.5 -309.5t-364.5 -77.5h-68z" />
<glyph unicode="~" horiz-adv-x="1802" d="M330 489l41 189q128 82 230 119t205 37q114 0 254 -64q9 -4 15 -6q8 -4 23 -8q148 -66 246 -66q90 0 187.5 40t225.5 128l-40 -186q-129 -84 -230.5 -120t-203.5 -36q-115 0 -255 64q-9 4 -15 6q-8 2 -23 8q-149 63 -247 63q-92 0 -190.5 -39.5t-222.5 -128.5z" />
<glyph unicode="&#xa1;" horiz-adv-x="862" d="M324 0l146 688l101 375h170l-56 -375l-146 -688h-215zM600 1300l57 269h215l-57 -269h-215z" />
<glyph unicode="&#xa4;" horiz-adv-x="1368" d="M141 207l264 217q-26 63 -31.5 125.5t7.5 124.5q14 65 47.5 126.5t83.5 121.5l-171 215l147 120l171 -217q68 41 132.5 60.5t132.5 19.5q64 0 120 -18.5t113 -59.5l264 220l95 -121l-263 -215q26 -64 31 -126.5t-8 -125.5q-15 -68 -47 -128.5t-88 -119.5l173 -217 l-144 -119l-171 217q-73 -41 -137.5 -61.5t-128.5 -20.5q-61 0 -119 19.5t-116 58.5l-263 -217zM544 676q-26 -121 40 -203t185 -82t218 82t125 203q25 117 -40 197.5t-184 80.5t-219 -80.5t-125 -197.5z" />
<glyph unicode="&#xa6;" horiz-adv-x="725" d="M193 -369l169 797h179l-169 -797h-179zM422 709l169 794h179l-169 -794h-179z" />
<glyph unicode="&#xa7;" d="M149 -143l37 172q83 -41 155.5 -61.5t133.5 -20.5q109 0 178 44t86 124q22 106 -184 235l-21 15q-199 127 -249.5 206.5t-27.5 188.5q20 94 85.5 170t172.5 127q-54 45 -72 104.5t-3 130.5q29 138 152.5 220.5t297.5 82.5q76 0 152.5 -14t153.5 -45l-37 -172 q-79 41 -149 61.5t-130 20.5q-102 0 -167.5 -42t-81.5 -118q-20 -94 171 -215l36 -24q197 -125 248.5 -206t28.5 -188q-20 -94 -83.5 -166.5t-174.5 -130.5q54 -55 71.5 -111.5t3.5 -123.5q-32 -150 -158 -238t-306 -88q-78 0 -155.5 15.5t-163.5 46.5zM434 793 q-17 -80 42 -151t291 -212q75 47 118 95t54 98q16 77 -44.5 149t-289.5 211q-75 -49 -118 -96t-53 -94z" />
<glyph unicode="&#xa8;" d="M526 1417l45 213h213l-45 -213h-213zM938 1417l45 213h213l-45 -213h-213z" />
<glyph unicode="&#xa9;" horiz-adv-x="2150" d="M456.5 481q-28.5 137 5.5 297q34 162 121 299t223 252q139 115 289.5 172.5t310.5 57.5t285.5 -57.5t214.5 -172.5q93 -115 119.5 -252t-7.5 -299q-34 -160 -119 -297t-227 -252q-137 -114 -287 -171.5t-310 -57.5t-286 57.5t-217 171.5q-87 115 -115.5 252zM563 523 q26 -120 103 -218t185.5 -148.5t245.5 -50.5q139 0 268.5 50.5t248.5 148.5q120 98 194 216t104 257q30 140 5 258.5t-101 216.5q-77 99 -185.5 148t-247.5 49q-137 0 -266.5 -49t-248.5 -148q-119 -98 -196 -218t-106 -257q-29 -135 -3 -255zM775 778q46 219 205 346 t387 127q76 0 144.5 -14t130.5 -43l-28 -135q-61 35 -126 51t-135 16q-156 0 -263.5 -92t-142.5 -256q-36 -168 35 -259t232 -91q68 0 136 16.5t144 53.5l-29 -136q-76 -28 -150.5 -43.5t-148.5 -15.5q-228 0 -333 128t-58 347z" />
<glyph unicode="&#xab;" horiz-adv-x="1317" d="M290 588l19 86l584 438l-43 -201l-374 -280l254 -283l-42 -201zM747 588l19 86l584 438l-43 -201l-374 -280l254 -283l-42 -201z" />
<glyph unicode="&#xac;" horiz-adv-x="1802" d="M381 727l38 178h1348l-129 -604h-176l91 426h-1172z" />
<glyph unicode="&#xad;" horiz-adv-x="776" d="M211 504l36 172h568l-36 -172h-568z" />
<glyph unicode="&#xae;" horiz-adv-x="2150" d="M456.5 481q-28.5 137 5.5 297q34 162 121 299t223 252q139 115 289.5 172.5t310.5 57.5t285.5 -57.5t214.5 -172.5q93 -115 119.5 -252t-7.5 -299q-34 -160 -119 -297t-227 -252q-137 -114 -287 -171.5t-310 -57.5t-286 57.5t-217 171.5q-87 115 -115.5 252zM563 523 q26 -120 103 -218t185.5 -148.5t245.5 -50.5q139 0 268.5 50.5t248.5 148.5q120 98 194 216t104 257q30 140 5 258.5t-101 216.5q-77 99 -185.5 148t-247.5 49q-137 0 -266.5 -49t-248.5 -148q-119 -98 -196 -218t-106 -257q-29 -135 -3 -255zM831 354l187 879h299 q184 0 261.5 -62.5t50.5 -189.5q-19 -90 -86.5 -149.5t-172.5 -75.5q25 -8 51.5 -49t57.5 -117l93 -236h-178l-91 219q-40 103 -72.5 129.5t-89.5 26.5h-69l-79 -375h-162zM1095 836h129q114 0 167 31.5t70 111.5t-22.5 112.5t-153.5 32.5h-129z" />
<glyph unicode="&#xaf;" d="M530 1448l33 154h629l-33 -154h-629z" />
<glyph unicode="&#xb0;" d="M472 1260q30 141 147 238t259 97q65 0 122 -25.5t91 -74.5q38 -45 49.5 -105.5t-3.5 -129.5q-29 -140 -146.5 -235t-258.5 -95q-142 0 -216 94t-44 236zM605 1260q-17 -82 29 -139.5t130 -57.5t153.5 57.5t86.5 139.5q18 83 -27.5 141.5t-127.5 58.5q-84 0 -155 -58.5 t-89 -141.5z" />
<glyph unicode="&#xb1;" horiz-adv-x="1802" d="M227 0l37 178h1348l-37 -178h-1348zM389 764l38 178h586l86 406h176l-86 -406h586l-38 -178h-586l-87 -408h-176l87 408h-586z" />
<glyph unicode="&#xb4;" d="M670 1325l379 395h209l-426 -395h-162z" />
<glyph unicode="&#xb6;" horiz-adv-x="1368" d="M404 1124q43 199 205 322t390 123h469l-377 -1776h-148l349 1645h-201l-349 -1645h-147l188 889q-221 16 -320 133t-59 309z" />
<glyph unicode="&#xb7;" horiz-adv-x="684" d="M359 612l57 269h222l-57 -269h-222z" />
<glyph unicode="&#xb9;" horiz-adv-x="862" d="M312 700l25 117h215l136 641l-245 -43l26 121l251 43h143l-162 -762h215l-25 -117h-579z" />
<glyph unicode="&#xba;" horiz-adv-x="1014" d="M249 492l28 131h723l-28 -131h-723zM347 1163q42 201 176.5 316.5t323.5 115.5q186 0 269.5 -115.5t41.5 -316.5q-43 -200 -176 -315t-319 -115q-189 0 -273.5 116t-42.5 314zM511 1163q-30 -139 18.5 -223t159.5 -84q108 0 193 84t115 223q30 144 -18 228t-158 84 q-111 0 -195.5 -84t-114.5 -228z" />
<glyph unicode="&#xbb;" horiz-adv-x="1317" d="M234 147l42 201l376 283l-256 280l43 201l398 -438l-19 -86zM688 147l42 201l379 283l-259 280l43 201l401 -438l-19 -86z" />
<glyph unicode="&#xbf;" horiz-adv-x="1141" d="M222 340q17 80 70.5 151.5t164.5 161.5l114 90q60 52 86.5 79.5t40.5 54.5q10 20 20 52t22 89l27 129h201l-35 -164q-22 -106 -65 -175t-160 -159l-114 -94q-70 -53 -108.5 -103.5t-49.5 -101.5q-20 -94 37.5 -151.5t169.5 -57.5q82 0 185.5 37t219.5 109l-43 -199 q-110 -59 -218 -89t-214 -30q-195 0 -291 101.5t-60 269.5zM794 1300l57 269h213l-57 -269h-213z" />
<glyph unicode="&#xc0;" horiz-adv-x="1470" d="M16 0l931 1569h242l263 -1569h-219l-58 401h-707l-228 -401h-224zM569 580h578l-123 780zM903 1995h197l145 -279h-160z" />
<glyph unicode="&#xc1;" horiz-adv-x="1470" d="M16 0l931 1569h242l263 -1569h-219l-58 401h-707l-228 -401h-224zM569 580h578l-123 780zM952 1716l265 279h194l-299 -279h-160z" />
<glyph unicode="&#xc2;" horiz-adv-x="1470" d="M16 0l931 1569h242l263 -1569h-219l-58 401h-707l-228 -401h-224zM569 580h578l-123 780zM780 1716l281 281h197l161 -281h-146l-134 189l-214 -189h-145z" />
<glyph unicode="&#xc3;" horiz-adv-x="1470" d="M16 0l931 1569h242l263 -1569h-219l-58 401h-707l-228 -401h-224zM569 580h578l-123 780zM758 1749q23 106 91.5 168.5t158.5 62.5q37 0 67 -9t75 -36l53 -30q21 -15 37.5 -21t32.5 -6q33 0 60 26.5t36 69.5l1 6h131q-24 -104 -91.5 -167.5t-155.5 -63.5q-35 0 -65 9 t-77 36l-51 37q-24 14 -39.5 19t-27.5 5q-39 0 -65 -25.5t-36 -72.5l-2 -8h-133z" />
<glyph unicode="&#xc4;" horiz-adv-x="1470" d="M16 0l931 1569h242l263 -1569h-219l-58 401h-707l-228 -401h-224zM569 580h578l-123 780zM795 1749l46 213h213l-46 -213h-213zM1205 1749l46 213h213l-46 -213h-213z" />
<glyph unicode="&#xc5;" horiz-adv-x="1470" d="M16 0l870 1466q-54 43 -74 103.5t-4 136.5q26 123 128 207t223 84q119 0 186 -85t41 -206q-15 -72 -61.5 -134.5t-118.5 -105.5l246 -1466h-219l-58 401h-707l-228 -401h-224zM572 580h573l-121 780zM937 1706q-14 -66 24 -112t103 -46q66 0 122.5 46t70.5 112 q15 68 -22 115t-103 47q-67 0 -123.5 -46t-71.5 -116z" />
<glyph unicode="&#xc6;" horiz-adv-x="2095" d="M8 0l991 1569h1271l-38 -180h-778l-99 -463h748l-38 -178h-748l-121 -570h799l-37 -178h-1012l85 401h-555l-253 -401h-215zM588 580h481l175 823h-135z" />
<glyph unicode="&#xc7;" horiz-adv-x="1501" d="M287 782q80 377 331 595t608 218q139 0 256 -36.5t209 -110.5l-48 -225q-84 100 -195.5 149t-246.5 49q-268 0 -446.5 -163.5t-244.5 -475.5q-66 -311 42.5 -475t376.5 -164q135 0 267.5 50.5t259.5 148.5l-47 -221q-126 -76 -259 -114t-270 -38q-357 0 -515 218.5 t-78 594.5zM540 -389l29 137q30 -18 67 -26.5t86 -8.5q62 0 99 25.5t48 75.5q6 30 -6.5 76.5t-45.5 109.5h125q42 -66 60 -120t7 -105q-20 -94 -94 -142.5t-197 -48.5q-49 0 -92.5 7.5t-85.5 19.5z" />
<glyph unicode="&#xc8;" horiz-adv-x="1360" d="M211 0l333 1569h991l-38 -180h-778l-99 -463h745l-38 -178h-745l-121 -570h797l-37 -178h-1010zM870 1995h197l147 -279h-162z" />
<glyph unicode="&#xc9;" horiz-adv-x="1360" d="M211 0l333 1569h991l-38 -180h-778l-99 -463h745l-38 -178h-745l-121 -570h797l-37 -178h-1010zM919 1716l267 279h192l-297 -279h-162z" />
<glyph unicode="&#xca;" horiz-adv-x="1360" d="M211 0l333 1569h991l-38 -180h-778l-99 -463h745l-38 -178h-745l-121 -570h797l-37 -178h-1010zM747 1716l281 281h199l161 -281h-145l-137 189l-214 -189h-145z" />
<glyph unicode="&#xcb;" horiz-adv-x="1360" d="M211 0l333 1569h991l-38 -180h-778l-99 -463h745l-38 -178h-745l-121 -570h797l-37 -178h-1010zM762 1749l46 213h213l-46 -213h-213zM1174 1749l46 213h213l-46 -213h-213z" />
<glyph unicode="&#xcc;" horiz-adv-x="635" d="M211 0l333 1569h213l-333 -1569h-213zM485 1995h197l147 -279h-162z" />
<glyph unicode="&#xcd;" horiz-adv-x="635" d="M211 0l333 1569h213l-333 -1569h-213zM534 1716l267 279h192l-297 -279h-162z" />
<glyph unicode="&#xce;" horiz-adv-x="635" d="M211 0l333 1569h213l-333 -1569h-213zM362 1716l281 281h199l161 -281h-147l-135 189l-214 -189h-145z" />
<glyph unicode="&#xcf;" horiz-adv-x="635" d="M211 0l333 1569h213l-333 -1569h-213zM377 1749l46 213h213l-46 -213h-213zM789 1749l46 213h213l-46 -213h-213z" />
<glyph unicode="&#xd0;" horiz-adv-x="1665" d="M166 735l32 152h211l145 682h436q455 0 627.5 -189.5t86.5 -595.5q-86 -403 -339 -593.5t-708 -190.5h-436l156 735h-211zM470 174h256q324 0 507 147.5t250 462.5q67 316 -53 462.5t-444 146.5h-256l-108 -506h352l-32 -152h-352z" />
<glyph unicode="&#xd1;" horiz-adv-x="1610" d="M211 0l333 1569h287l415 -1313l279 1313h207l-333 -1569h-287l-416 1311l-278 -1311h-207zM830 1749q23 106 89 168.5t156 62.5q39 0 69.5 -9t75.5 -36l52 -30q22 -15 38.5 -21t32.5 -6q35 0 61 26.5t35 69.5l1 6h131q-24 -104 -92 -167.5t-156 -63.5q-34 0 -64 9t-77 36 l-54 37q-21 14 -36.5 19t-27.5 5q-39 0 -65 -25.5t-36 -72.5l-2 -8h-131z" />
<glyph unicode="&#xd2;" horiz-adv-x="1694" d="M287 782q79 371 323.5 592t576.5 221q330 0 480.5 -221t71.5 -592q-79 -370 -323.5 -591.5t-574.5 -221.5q-332 0 -482.5 221.5t-71.5 591.5zM510 782q-63 -297 36 -469t331 -172q229 0 401.5 172t235.5 469t-36 469t-328 172q-232 0 -404.5 -172t-235.5 -469zM1016 1995 h194l147 -279h-159z" />
<glyph unicode="&#xd3;" horiz-adv-x="1694" d="M287 782q79 371 323.5 592t576.5 221q330 0 480.5 -221t71.5 -592q-79 -370 -323.5 -591.5t-574.5 -221.5q-332 0 -482.5 221.5t-71.5 591.5zM510 782q-63 -297 36 -469t331 -172q229 0 401.5 172t235.5 469t-36 469t-328 172q-232 0 -404.5 -172t-235.5 -469zM1062 1716 l267 279h195l-300 -279h-162z" />
<glyph unicode="&#xd4;" horiz-adv-x="1694" d="M287 782q79 371 323.5 592t576.5 221q330 0 480.5 -221t71.5 -592q-79 -370 -323.5 -591.5t-574.5 -221.5q-332 0 -482.5 221.5t-71.5 591.5zM510 782q-63 -297 36 -469t331 -172q229 0 401.5 172t235.5 469t-36 469t-328 172q-232 0 -404.5 -172t-235.5 -469zM890 1716 l284 281h196l161 -281h-145l-134 189l-214 -189h-148z" />
<glyph unicode="&#xd5;" horiz-adv-x="1694" d="M287 782q79 371 323.5 592t576.5 221q330 0 480.5 -221t71.5 -592q-79 -370 -323.5 -591.5t-574.5 -221.5q-332 0 -482.5 221.5t-71.5 591.5zM510 782q-63 -297 36 -469t331 -172q229 0 401.5 172t235.5 469t-36 469t-328 172q-232 0 -404.5 -172t-235.5 -469zM873 1749 q23 106 89 168.5t156 62.5q39 0 69.5 -9t75.5 -36l52 -30q22 -15 38.5 -21t32.5 -6q35 0 61 26.5t35 69.5l1 6h131q-24 -104 -92 -167.5t-156 -63.5q-34 0 -64 9t-77 36l-54 37q-21 14 -36.5 19t-27.5 5q-39 0 -65 -25.5t-36 -72.5l-2 -8h-131z" />
<glyph unicode="&#xd6;" horiz-adv-x="1694" d="M287 782q79 371 323.5 592t576.5 221q330 0 480.5 -221t71.5 -592q-79 -370 -323.5 -591.5t-574.5 -221.5q-332 0 -482.5 221.5t-71.5 591.5zM510 782q-63 -297 36 -469t331 -172q229 0 401.5 172t235.5 469t-36 469t-328 172q-232 0 -404.5 -172t-235.5 -469zM906 1749 l46 213h215l-46 -213h-215zM1317 1749l46 213h213l-46 -213h-213z" />
<glyph unicode="&#xd7;" horiz-adv-x="1802" d="M336 193l581 481l-377 481l152 127l379 -481l583 481l98 -127l-581 -481l377 -481l-152 -127l-379 483l-583 -483z" />
<glyph unicode="&#xd8;" horiz-adv-x="1694" d="M109 18l226 211q-59 109 -71.5 247t23.5 306q79 371 323.5 592t576.5 221q135 0 243.5 -39.5t181.5 -119.5l212 200l86 -94l-220 -207q59 -108 71.5 -247.5t-22.5 -305.5q-79 -370 -323.5 -591.5t-574.5 -221.5q-135 0 -243 39t-187 119l-212 -201zM484.5 566.5 q-0.5 -99.5 24.5 -171.5l944 891q-50 68 -127.5 102.5t-175.5 34.5q-232 0 -404.5 -172t-235.5 -469q-25 -116 -25.5 -215.5zM571 279q54 -66 130 -102t176 -36q229 0 401.5 172t235.5 469q25 117 25 214.5t-25 170.5z" />
<glyph unicode="&#xd9;" horiz-adv-x="1575" d="M311 590l208 979h213l-203 -955q-54 -252 15 -362.5t271 -110.5q205 0 320 110.5t169 362.5l203 955h212l-208 -979q-65 -307 -250 -464t-482 -157t-415 157t-53 464zM954 1995h197l147 -279h-162z" />
<glyph unicode="&#xda;" horiz-adv-x="1575" d="M311 590l208 979h213l-203 -955q-54 -252 15 -362.5t271 -110.5q205 0 320 110.5t169 362.5l203 955h212l-208 -979q-65 -307 -250 -464t-482 -157t-415 157t-53 464zM1003 1716l267 279h192l-297 -279h-162z" />
<glyph unicode="&#xdb;" horiz-adv-x="1575" d="M311 590l208 979h213l-203 -955q-54 -252 15 -362.5t271 -110.5q205 0 320 110.5t169 362.5l203 955h212l-208 -979q-65 -307 -250 -464t-482 -157t-415 157t-53 464zM831 1716l281 281h199l161 -281h-145l-137 189l-214 -189h-145z" />
<glyph unicode="&#xdc;" horiz-adv-x="1575" d="M311 590l208 979h213l-203 -955q-54 -252 15 -362.5t271 -110.5q205 0 320 110.5t169 362.5l203 955h212l-208 -979q-65 -307 -250 -464t-482 -157t-415 157t-53 464zM846 1749l46 213h213l-46 -213h-213zM1258 1749l46 213h213l-46 -213h-213z" />
<glyph unicode="&#xdd;" horiz-adv-x="1315" d="M329 1569h227l297 -645l570 645h229l-730 -821l-158 -748h-213l158 748zM874 1716l267 279h192l-297 -279h-162z" />
<glyph unicode="&#xde;" horiz-adv-x="1300" d="M211 0l333 1569h213l-59 -279h266q262 0 372.5 -117.5t60.5 -349.5q-49 -231 -209.5 -350t-422.5 -119h-266l-75 -354h-213zM536 528h266q148 0 244.5 77t126.5 218q31 142 -32.5 217.5t-213.5 75.5h-266z" />
<glyph unicode="&#xdf;" horiz-adv-x="1354" d="M195 0l253 1194q45 211 195 325.5t380 114.5q219 0 306.5 -121.5t41.5 -357.5q-159 -8 -259.5 -68.5t-122.5 -160.5q-10 -49 11.5 -92t79.5 -86l51 -39q150 -113 184 -188t12 -179q-38 -180 -176 -276.5t-359 -96.5q-68 0 -136.5 13.5t-139.5 37.5l37 173 q77 -31 146 -46.5t139 -15.5q121 0 195.5 50t94.5 147q14 65 -8.5 109t-112.5 110l-84 57q-90 62 -120 132.5t-10 166.5q29 133 135 223.5t273 120.5q15 109 -41 167.5t-175 58.5q-137 0 -224.5 -73t-117.5 -210l-252 -1190h-196z" />
<glyph unicode="&#xe0;" horiz-adv-x="1319" d="M201 342q42 199 196.5 299t416.5 100h273l4 21q29 133 -43.5 205.5t-230.5 72.5q-100 0 -202 -24.5t-200 -71.5l38 178q116 41 219 61.5t197 20.5q256 0 354 -132t41 -400l-142 -672h-192l37 178q-90 -106 -199 -157.5t-253 -51.5q-180 0 -265 101.5t-49 271.5zM397 354 q-22 -102 33.5 -162.5t169.5 -60.5q162 0 284 113.5t162 304.5l9 43h-193q-233 0 -335.5 -54.5t-129.5 -183.5zM629 1720h207l214 -393h-162z" />
<glyph unicode="&#xe1;" horiz-adv-x="1319" d="M201 342q42 199 196.5 299t416.5 100h273l4 21q29 133 -43.5 205.5t-230.5 72.5q-100 0 -202 -24.5t-200 -71.5l38 178q116 41 219 61.5t197 20.5q256 0 354 -132t41 -400l-142 -672h-192l37 178q-90 -106 -199 -157.5t-253 -51.5q-180 0 -265 101.5t-49 271.5zM397 354 q-22 -102 33.5 -162.5t169.5 -60.5q162 0 284 113.5t162 304.5l9 43h-193q-233 0 -335.5 -54.5t-129.5 -183.5zM756 1325l379 395h209l-426 -395h-162z" />
<glyph unicode="&#xe2;" horiz-adv-x="1319" d="M201 342q42 199 196.5 299t416.5 100h273l4 21q29 133 -43.5 205.5t-230.5 72.5q-100 0 -202 -24.5t-200 -71.5l38 178q116 41 219 61.5t197 20.5q256 0 354 -132t41 -400l-142 -672h-192l37 178q-90 -106 -199 -157.5t-253 -51.5q-180 0 -265 101.5t-49 271.5zM397 354 q-22 -102 33.5 -162.5t169.5 -60.5q162 0 284 113.5t162 304.5l9 43h-193q-233 0 -335.5 -54.5t-129.5 -183.5zM570 1325l342 395h153l174 -395h-145l-133 256l-246 -256h-145z" />
<glyph unicode="&#xe3;" horiz-adv-x="1319" d="M201 342q42 199 196.5 299t416.5 100h273l4 21q29 133 -43.5 205.5t-230.5 72.5q-100 0 -202 -24.5t-200 -71.5l38 178q116 41 219 61.5t197 20.5q256 0 354 -132t41 -400l-142 -672h-192l37 178q-90 -106 -199 -157.5t-253 -51.5q-180 0 -265 101.5t-49 271.5zM397 354 q-22 -102 33.5 -162.5t169.5 -60.5q162 0 284 113.5t162 304.5l9 43h-193q-233 0 -335.5 -54.5t-129.5 -183.5zM568 1374q33 142 102.5 219.5t165.5 77.5q41 0 71.5 -15.5t62.5 -49.5l47 -58q18 -20 33 -30.5t30 -10.5q39 0 66.5 38t48.5 126h131q-32 -141 -103 -219 t-165 -78q-41 0 -72 15.5t-63 48.5l-47 57q-17 23 -32.5 32t-30.5 9q-38 0 -64.5 -38t-48.5 -124h-132z" />
<glyph unicode="&#xe4;" horiz-adv-x="1319" d="M201 342q42 199 196.5 299t416.5 100h273l4 21q29 133 -43.5 205.5t-230.5 72.5q-100 0 -202 -24.5t-200 -71.5l38 178q116 41 219 61.5t197 20.5q256 0 354 -132t41 -400l-142 -672h-192l37 178q-90 -106 -199 -157.5t-253 -51.5q-180 0 -265 101.5t-49 271.5zM397 354 q-22 -102 33.5 -162.5t169.5 -60.5q162 0 284 113.5t162 304.5l9 43h-193q-233 0 -335.5 -54.5t-129.5 -183.5zM612 1417l45 213h213l-45 -213h-213zM1024 1417l45 213h213l-45 -213h-213z" />
<glyph unicode="&#xe5;" horiz-adv-x="1319" d="M201 342q42 199 196.5 299t416.5 100h273l4 21q29 133 -43.5 205.5t-230.5 72.5q-100 0 -202 -24.5t-200 -71.5l38 178q116 41 219 61.5t197 20.5q256 0 354 -132t41 -400l-142 -672h-192l37 178q-90 -106 -199 -157.5t-253 -51.5q-180 0 -265 101.5t-49 271.5zM397 354 q-22 -102 33.5 -162.5t169.5 -60.5q162 0 284 113.5t162 304.5l9 43h-193q-233 0 -335.5 -54.5t-129.5 -183.5zM675 1599q26 121 128 205t223 84q118 0 184 -84t40 -205q-25 -120 -127 -204t-220 -84q-121 0 -187 84t-41 204zM804 1599q-14 -67 21.5 -112t105.5 -45 q65 0 121 46t69 111q14 66 -22 113t-101 47q-70 0 -124.5 -46t-69.5 -114z" />
<glyph unicode="&#xe6;" horiz-adv-x="2111" d="M201 342q42 199 196.5 299t416.5 100h273l4 21q29 133 -43.5 205.5t-230.5 72.5q-100 0 -202 -24.5t-200 -71.5l38 178q116 41 219 61.5t197 20.5q150 0 251 -50t139 -142q98 94 220 143t261 49q235 0 342.5 -152.5t51.5 -414.5l-20 -94h-889q-31 -201 54 -306.5 t278 -105.5q108 0 218.5 27.5t229.5 85.5l-39 -185q-116 -43 -229.5 -66.5t-225.5 -23.5q-175 0 -291.5 63.5t-172.5 188.5q-101 -125 -228.5 -188.5t-276.5 -63.5q-199 0 -288.5 98.5t-52.5 274.5zM397 354q-22 -102 33.5 -162.5t169.5 -60.5q162 0 284 113.5t162 304.5 l9 43h-193q-233 0 -335.5 -54.5t-129.5 -183.5zM1263 692h688q32 160 -34 254t-209 94q-162 0 -279 -91t-166 -257z" />
<glyph unicode="&#xe7;" horiz-adv-x="1182" d="M243 588q61 286 253.5 451t469.5 165q88 0 169.5 -18.5t153.5 -55.5l-39 -180q-72 45 -149 67.5t-161 22.5q-189 0 -318.5 -118.5t-175.5 -333.5q-45 -215 33.5 -335t267.5 -120q84 0 170.5 22.5t178.5 67.5l-38 -178q-88 -39 -179 -57.5t-190 -18.5q-264 0 -385 167 t-61 452zM374 -389l29 137q31 -18 67.5 -26.5t85.5 -8.5q62 0 99 25.5t48 75.5q6 30 -6.5 76.5t-45.5 109.5h125q43 -66 60.5 -120t6.5 -105q-20 -94 -94 -142.5t-199 -48.5q-47 0 -90.5 7.5t-85.5 19.5z" />
<glyph unicode="&#xe8;" horiz-adv-x="1323" d="M241 575q61 289 252.5 459t455.5 170q238 0 344 -152.5t50 -414.5l-20 -94h-889q-28 -201 57.5 -305.5t275.5 -104.5q113 0 223 27.5t224 83.5l-39 -185q-113 -43 -226.5 -66.5t-226.5 -23.5q-283 0 -411.5 164t-69.5 442zM475 692h688q32 160 -35 254t-211 94 q-161 0 -277 -91t-165 -257zM688 1720h207l214 -393h-162z" />
<glyph unicode="&#xe9;" horiz-adv-x="1323" d="M241 575q61 289 252.5 459t455.5 170q238 0 344 -152.5t50 -414.5l-20 -94h-889q-28 -201 57.5 -305.5t275.5 -104.5q113 0 223 27.5t224 83.5l-39 -185q-113 -43 -226.5 -66.5t-226.5 -23.5q-283 0 -411.5 164t-69.5 442zM475 692h688q32 160 -35 254t-211 94 q-161 0 -277 -91t-165 -257zM815 1325l379 395h209l-426 -395h-162z" />
<glyph unicode="&#xea;" horiz-adv-x="1323" d="M241 575q61 289 252.5 459t455.5 170q238 0 344 -152.5t50 -414.5l-20 -94h-889q-28 -201 57.5 -305.5t275.5 -104.5q113 0 223 27.5t224 83.5l-39 -185q-113 -43 -226.5 -66.5t-226.5 -23.5q-283 0 -411.5 164t-69.5 442zM475 692h688q32 160 -35 254t-211 94 q-161 0 -277 -91t-165 -257zM629 1325l342 395h156l172 -395h-146l-133 256l-243 -256h-148z" />
<glyph unicode="&#xeb;" horiz-adv-x="1323" d="M241 575q61 289 252.5 459t455.5 170q238 0 344 -152.5t50 -414.5l-20 -94h-889q-28 -201 57.5 -305.5t275.5 -104.5q113 0 223 27.5t224 83.5l-39 -185q-113 -43 -226.5 -66.5t-226.5 -23.5q-283 0 -411.5 164t-69.5 442zM475 692h688q32 160 -35 254t-211 94 q-161 0 -277 -91t-165 -257zM671 1417l45 213h213l-45 -213h-213zM1083 1417l45 213h213l-45 -213h-213z" />
<glyph unicode="&#xec;" horiz-adv-x="598" d="M203 0l249 1176h192l-249 -1176h-192zM305 1720h207l214 -393h-162z" />
<glyph unicode="&#xed;" horiz-adv-x="598" d="M203 0l249 1176h192l-249 -1176h-192zM432 1325l379 395h209l-426 -395h-162z" />
<glyph unicode="&#xee;" horiz-adv-x="598" d="M203 0l249 1176h192l-249 -1176h-192zM244 1325l342 395h156l174 -395h-148l-133 256l-243 -256h-148z" />
<glyph unicode="&#xef;" horiz-adv-x="598" d="M203 0l249 1176h192l-249 -1176h-192zM288 1417l45 213h213l-45 -213h-213zM700 1417l45 213h213l-45 -213h-213z" />
<glyph unicode="&#xf0;" horiz-adv-x="1317" d="M238 563q56 262 235.5 426t410.5 164q20 0 47.5 -2t68.5 -8l-126 188l-359 -112l-13 104l315 96l-142 215h237l101 -151l375 114l12 -102l-330 -102l130 -195q99 -149 127.5 -301t-10.5 -334q-56 -266 -240.5 -430t-426.5 -164q-241 0 -354.5 164t-57.5 430zM441 563 q-41 -196 26 -313t218 -117q154 0 270 117t157 313q28 129 21 227.5t-48 170.5q-50 18 -94.5 26t-87.5 8q-176 0 -297 -113.5t-165 -318.5z" />
<glyph unicode="&#xf1;" horiz-adv-x="1364" d="M195 0l249 1176h194l-38 -183q92 107 197 159t228 52q203 0 280 -126t26 -367l-151 -711h-193l149 702q35 168 -12.5 251t-176.5 83q-158 0 -269 -99t-148 -271l-141 -666h-194zM642 1374q32 142 103 219.5t165 77.5q41 0 71.5 -15.5t59.5 -49.5l50 -58 q17 -20 32.5 -30.5t30.5 -10.5q38 0 64.5 38t47.5 126h133q-32 -141 -102.5 -219t-164.5 -78q-41 0 -72 15.5t-63 48.5l-47 57q-18 23 -33.5 32t-29.5 9q-39 0 -66.5 -38t-47.5 -124h-131z" />
<glyph unicode="&#xf2;" horiz-adv-x="1317" d="M243 588q62 289 240 452.5t429 163.5q252 0 362 -163.5t48 -452.5q-61 -289 -240.5 -454t-431.5 -165q-251 0 -359.5 165t-47.5 454zM446 588q-44 -211 20 -333t219 -122q156 0 272 122t160 333q45 209 -19 330.5t-220 121.5q-153 0 -270 -120.5t-162 -331.5zM664 1720 h207l214 -393h-162z" />
<glyph unicode="&#xf3;" horiz-adv-x="1317" d="M243 588q62 289 240 452.5t429 163.5q252 0 362 -163.5t48 -452.5q-61 -289 -240.5 -454t-431.5 -165q-251 0 -359.5 165t-47.5 454zM446 588q-44 -211 20 -333t219 -122q156 0 272 122t160 333q45 209 -19 330.5t-220 121.5q-153 0 -270 -120.5t-162 -331.5zM791 1325 l379 395h209l-426 -395h-162z" />
<glyph unicode="&#xf4;" horiz-adv-x="1317" d="M243 588q62 289 240 452.5t429 163.5q252 0 362 -163.5t48 -452.5q-61 -289 -240.5 -454t-431.5 -165q-251 0 -359.5 165t-47.5 454zM446 588q-44 -211 20 -333t219 -122q156 0 272 122t160 333q45 209 -19 330.5t-220 121.5q-153 0 -270 -120.5t-162 -331.5zM605 1325 l342 395h153l174 -395h-145l-136 256l-243 -256h-145z" />
<glyph unicode="&#xf5;" horiz-adv-x="1317" d="M243 588q62 289 240 452.5t429 163.5q252 0 362 -163.5t48 -452.5q-61 -289 -240.5 -454t-431.5 -165q-251 0 -359.5 165t-47.5 454zM446 588q-44 -211 20 -333t219 -122q156 0 272 122t160 333q45 209 -19 330.5t-220 121.5q-153 0 -270 -120.5t-162 -331.5zM603 1374 q32 142 103 219.5t165 77.5q39 0 70.5 -15.5t63.5 -49.5l47 -58q17 -20 32.5 -30.5t30.5 -10.5q39 0 65 38t49 126h132q-32 -141 -103 -219t-165 -78q-41 0 -72 15.5t-63 48.5l-47 57q-18 23 -33 32t-30 9q-39 0 -66.5 -38t-47.5 -124h-131z" />
<glyph unicode="&#xf6;" horiz-adv-x="1317" d="M243 588q62 289 240 452.5t429 163.5q252 0 362 -163.5t48 -452.5q-61 -289 -240.5 -454t-431.5 -165q-251 0 -359.5 165t-47.5 454zM446 588q-44 -211 20 -333t219 -122q156 0 272 122t160 333q45 209 -19 330.5t-220 121.5q-153 0 -270 -120.5t-162 -331.5zM647 1417 l45 213h213l-45 -213h-213zM1059 1417l45 213h213l-45 -213h-213z" />
<glyph unicode="&#xf7;" horiz-adv-x="1802" d="M351 586l38 178h1348l-38 -178h-1348zM805 158l55 258h258l-55 -258h-258zM970 934l55 258h258l-55 -258h-258z" />
<glyph unicode="&#xf8;" horiz-adv-x="1317" d="M72 -16l195 190q-39 82 -44.5 185.5t20.5 228.5q62 289 240 452.5t429 163.5q99 0 177.5 -26.5t135.5 -81.5l184 178l82 -84l-194 -189q39 -79 45.5 -183.5t-20.5 -229.5q-61 -289 -240.5 -454t-431.5 -165q-100 0 -179 28t-133 81l-183 -176zM424.5 439.5 q-2.5 -58.5 7.5 -105.5l647 620q-37 43 -86 64.5t-115 21.5q-157 0 -272.5 -122.5t-162.5 -346.5q-16 -73 -18.5 -131.5zM484 219q33 -45 83.5 -65.5t117.5 -20.5q156 0 272 122t160 333q18 82 21 143.5t-10 110.5z" />
<glyph unicode="&#xf9;" horiz-adv-x="1364" d="M280 465l151 711h195l-149 -705q-36 -168 11 -251t178 -83q156 0 268 100.5t149 272.5l141 666h192l-249 -1176h-192l38 180q-95 -106 -198 -158.5t-226 -52.5q-203 0 -282 126t-27 370zM672 1720h207l214 -393h-162z" />
<glyph unicode="&#xfa;" horiz-adv-x="1364" d="M280 465l151 711h195l-149 -705q-36 -168 11 -251t178 -83q156 0 268 100.5t149 272.5l141 666h192l-249 -1176h-192l38 180q-95 -106 -198 -158.5t-226 -52.5q-203 0 -282 126t-27 370zM799 1325l379 395h209l-426 -395h-162z" />
<glyph unicode="&#xfb;" horiz-adv-x="1364" d="M280 465l151 711h195l-149 -705q-36 -168 11 -251t178 -83q156 0 268 100.5t149 272.5l141 666h192l-249 -1176h-192l38 180q-95 -106 -198 -158.5t-226 -52.5q-203 0 -282 126t-27 370zM613 1325l342 395h153l174 -395h-145l-133 256l-246 -256h-145z" />
<glyph unicode="&#xfc;" horiz-adv-x="1364" d="M280 465l151 711h195l-149 -705q-36 -168 11 -251t178 -83q156 0 268 100.5t149 272.5l141 666h192l-249 -1176h-192l38 180q-95 -106 -198 -158.5t-226 -52.5q-203 0 -282 126t-27 370zM655 1417l45 213h213l-45 -213h-213zM1067 1417l45 213h213l-45 -213h-213z" />
<glyph unicode="&#xfd;" horiz-adv-x="1274" d="M75 -446l33 159h113q79 0 132 38t138 179l53 88l-232 1158h205l174 -920l562 920h204l-789 -1285q-126 -210 -217 -273.5t-222 -63.5h-154zM768 1325l379 395h209l-426 -395h-162z" />
<glyph unicode="&#xfe;" horiz-adv-x="1366" d="M100 -446l442 2080h194l-136 -637q85 105 188.5 156t232.5 51q215 0 312 -170t38 -446q-59 -279 -228 -449t-384 -170q-129 0 -211 51.5t-122 155.5l-132 -622h-194zM513 588q-45 -213 17 -335t216 -122q151 0 265.5 122t159.5 335q46 213 -17 333.5t-214 120.5 q-154 0 -267.5 -120.5t-159.5 -333.5z" />
<glyph unicode="&#xff;" horiz-adv-x="1274" d="M75 -446l33 159h113q79 0 132 38t138 179l53 88l-232 1158h205l174 -920l562 920h204l-789 -1285q-126 -210 -217 -273.5t-222 -63.5h-154zM624 1417l45 213h213l-45 -213h-213zM1036 1417l45 213h213l-45 -213h-213z" />
<glyph unicode="&#x401;" horiz-adv-x="1360" d="M211 0l333 1569h991l-38 -180h-778l-99 -463h745l-38 -178h-745l-121 -570h797l-37 -178h-1010zM762 1749l46 213h213l-46 -213h-213zM1172 1749l46 213h213l-46 -213h-213z" />
<glyph unicode="&#x410;" horiz-adv-x="1470" d="M16 0l931 1569h242l263 -1569h-219l-58 401h-707l-228 -401h-224zM569 580h578l-123 780z" />
<glyph unicode="&#x411;" horiz-adv-x="1475" d="M211 0l333 1569h1001l-37 -176h-788l-100 -469h350q262 0 381 -115t69 -348q-49 -232 -211 -346.5t-435 -114.5h-563zM460 174h340q170 0 268 70.5t129 216.5q31 145 -36.5 217t-237.5 72h-340z" />
<glyph unicode="&#x412;" horiz-adv-x="1475" d="M211 0l333 1569h543q241 0 350.5 -101.5t69.5 -287.5q-30 -144 -115.5 -229t-219.5 -105q151 -35 214.5 -141.5t29.5 -266.5q-45 -209 -212.5 -323.5t-429.5 -114.5h-563zM460 174h340q170 0 268 70.5t130 218.5q31 145 -37 216t-238 71h-340zM619 922h313q156 0 244 57 t113 178q26 119 -37 177.5t-219 58.5h-313z" />
<glyph unicode="&#x413;" horiz-adv-x="1311" d="M211 0l333 1569h975l-38 -180h-762l-295 -1389h-213z" />
<glyph unicode="&#x414;" horiz-adv-x="1679" d="M34 -338l109 516h74q157 68 221 193q172 323 295 901l63 297h932l-296 -1391h180l-109 -516h-180l72 338h-1110l-72 -338h-179zM526 178h695l258 1211h-510l-47 -222q-112 -524 -305 -872q-38 -72 -91 -117z" />
<glyph unicode="&#x415;" horiz-adv-x="1360" d="M211 0l333 1569h991l-38 -180h-778l-99 -463h745l-38 -178h-745l-121 -570h797l-37 -178h-1010z" />
<glyph unicode="&#x416;" horiz-adv-x="2316" d="M43 0l809 948l-439 621h256l552 -776l165 776h211l-165 -776l881 776h258l-705 -621l407 -948h-221l-345 807l-334 -293l-109 -514h-211l109 514l-211 293l-687 -807h-221z" />
<glyph unicode="&#x417;" horiz-adv-x="1378" d="M155 68l47 219q140 -94 224 -117t215 -23q197 0 322.5 76t159.5 234q29 137 -52 216t-285 79h-213l37 174h221q188 0 284.5 62.5t121.5 178.5q25 121 -47 185.5t-279 64.5q-141 0 -191.5 -12t-283.5 -94l44 207q127 43 255 60t218 17q258 0 398.5 -109.5t100.5 -295.5 q-27 -131 -120.5 -220t-239.5 -124q147 -33 210 -136.5t32 -252.5q-52 -244 -264.5 -366t-462.5 -122q-129 0 -270 35t-182 64z" />
<glyph unicode="&#x418;" horiz-adv-x="1610" d="M211 0l333 1569h207l-279 -1313l973 1313h287l-333 -1569h-207l278 1311l-972 -1311h-287z" />
<glyph unicode="&#x419;" horiz-adv-x="1610" d="M211 0l333 1569h207l-279 -1313l973 1313h287l-333 -1569h-207l278 1311l-972 -1311h-287zM891 1997h123q2 -58 48 -88.5t132 -30.5t143 29.5t86 89.5h123q-37 -125 -134.5 -189.5t-246.5 -64.5q-152 0 -221.5 63.5t-52.5 190.5z" />
<glyph unicode="&#x41a;" horiz-adv-x="1528" d="M211 0l333 1569h213l-165 -776l923 776h270l-736 -621l436 -948h-232l-371 807l-349 -293l-109 -514h-213z" />
<glyph unicode="&#x41b;" horiz-adv-x="1618" d="M88 0l37 178q238 49 340 221q148 273 282 901l57 269h934l-333 -1569h-211l295 1389h-510l-41 -193q-127 -594 -295 -872q-158 -265 -555 -324z" />
<glyph unicode="&#x41c;" horiz-adv-x="1855" d="M211 0l333 1569h315l175 -1067l628 1067h316l-333 -1569h-207l292 1376l-633 -1075h-213l-174 1075l-292 -1376h-207z" />
<glyph unicode="&#x41d;" horiz-adv-x="1618" d="M211 0l333 1569h213l-137 -643h770l137 643h213l-333 -1569h-213l158 748h-770l-158 -748h-213z" />
<glyph unicode="&#x41e;" horiz-adv-x="1694" d="M287 782q79 371 323.5 592t576.5 221q330 0 480.5 -221t71.5 -592q-79 -370 -323.5 -591.5t-574.5 -221.5q-332 0 -482.5 221.5t-71.5 591.5zM510 782q-63 -297 36 -469t331 -172q229 0 401.5 172t235.5 469t-36 469t-328 172q-232 0 -404.5 -172t-235.5 -469z" />
<glyph unicode="&#x41f;" horiz-adv-x="1618" d="M211 0l333 1569h1196l-333 -1569h-213l295 1389h-770l-295 -1389h-213z" />
<glyph unicode="&#x420;" horiz-adv-x="1296" d="M211 0l333 1569h479q262 0 372 -120t61 -349q-49 -234 -209.5 -351.5t-422.5 -117.5h-266l-134 -631h-213zM595 805h266q148 0 244.5 76.5t126.5 218.5q30 139 -34 216t-212 77h-266z" />
<glyph unicode="&#x421;" horiz-adv-x="1501" d="M287 782q80 377 331 595t608 218q139 0 256 -36.5t209 -110.5l-48 -225q-84 100 -195.5 149t-246.5 49q-268 0 -446.5 -163.5t-244.5 -475.5q-66 -311 42.5 -475t376.5 -164q135 0 267.5 50.5t259.5 148.5l-47 -221q-126 -76 -259 -114t-270 -38q-357 0 -515 218.5 t-78 594.5z" />
<glyph unicode="&#x422;" horiz-adv-x="1315" d="M289 1389l38 180h1327l-38 -180h-557l-295 -1389h-213l295 1389h-557z" />
<glyph unicode="&#x423;" horiz-adv-x="1311" d="M205 0l37 178h65q125 0 180 29q33 18 61 61l73 113l-251 1188h227l193 -922l590 922h227l-879 -1379q-33 -53 -75 -92q-104 -98 -366 -98h-82z" />
<glyph unicode="&#x424;" horiz-adv-x="1851" d="M297 803q59 278 273 437t551 181l31 148h213l-31 -148q329 -22 474.5 -180t85.5 -438q-59 -279 -271.5 -435.5t-551.5 -181.5l-39 -186h-213l39 186q-327 25 -473.5 181.5t-87.5 435.5zM520 803q-44 -207 54.5 -313.5t320.5 -127.5l188 883q-231 -20 -375 -127.5 t-188 -314.5zM1108 362q235 21 376 127.5t185 313.5t-51.5 314.5t-321.5 127.5z" />
<glyph unicode="&#x425;" horiz-adv-x="1473" d="M63 0l740 838l-335 731h227l268 -584l515 584h227l-664 -754l366 -815h-229l-300 668l-585 -668h-230z" />
<glyph unicode="&#x426;" horiz-adv-x="1669" d="M211 0l333 1569h213l-296 -1391h770l296 1391h213l-296 -1391h176l-109 -516h-176l72 338h-1196z" />
<glyph unicode="&#x427;" horiz-adv-x="1475" d="M425 1137l92 432h211l-88 -416q-36 -166 11 -249t178 -83h396l159 748h213l-333 -1569h-213l136 643h-439q-194 0 -285 122t-38 372z" />
<glyph unicode="&#x428;" horiz-adv-x="2300" d="M211 0l333 1569h213l-296 -1391h620l296 1391h211l-296 -1391h621l296 1391h213l-333 -1569h-1878z" />
<glyph unicode="&#x429;" horiz-adv-x="2351" d="M211 0l333 1569h213l-296 -1391h620l296 1391h211l-296 -1391h621l296 1391h213l-296 -1391h178l-109 -516h-178l72 338h-1878z" />
<glyph unicode="&#x42a;" horiz-adv-x="1790" d="M358 1389l38 180h674l-137 -645h353q262 0 380.5 -115t68.5 -348q-49 -232 -216 -346.5t-429 -114.5h-564l295 1389h-463zM773 174h340q170 0 270 72q96 69 127 215q31 145 -35 217q-67 72 -239 72h-340z" />
<glyph unicode="&#x42b;" horiz-adv-x="1896" d="M211 0l333 1569h213l-137 -645h350q262 0 381 -115t69 -348q-49 -232 -216.5 -346.5t-429.5 -114.5h-563zM460 174h340q170 0 268 72q98 69 129 215q31 145 -37 217q-67 72 -237 72h-340zM1475 0l333 1569h213l-333 -1569h-213z" />
<glyph unicode="&#x42c;" horiz-adv-x="1475" d="M211 0l333 1569h213l-137 -645h350q262 0 381 -115t69 -348q-49 -232 -216.5 -346.5t-429.5 -114.5h-563zM460 174h340q170 0 268 72q98 69 129 215q31 145 -37 217q-67 72 -237 72h-340z" />
<glyph unicode="&#x42d;" horiz-adv-x="1501" d="M142 121l47 221q179 -199 447 -199q279 0 435.5 149.5t232.5 399.5h-838l37 178h838q32 252 -61 401.5t-372 149.5q-268 0 -532 -198l48 225q251 147 533 147q353 0 511 -218t78 -595q-80 -376 -331 -594.5t-604 -218.5q-278 0 -469 152z" />
<glyph unicode="&#x42e;" horiz-adv-x="2322" d="M221 0l333 1569h213l-148 -697h320q77 295 310 510q237 213 567 213q329 0 479 -221q152 -221 73 -592q-79 -370 -325 -592q-244 -221 -573 -221q-330 0 -475 215q-143 215 -94 510h-320l-147 -694h-213zM1139 782q-63 -297 37 -469q98 -172 330 -172q229 0 401 172 t235 469t-36 469q-98 172 -327 172q-232 0 -404 -172q-173 -172 -236 -469z" />
<glyph unicode="&#x42f;" horiz-adv-x="1493" d="M143 0l573 686q-98 27 -214 116t-68 314q45 215 206.5 334t433.5 119h541l-333 -1569h-211l141 664h-285l-552 -664h-232zM669 1116q-29 -137 34 -207.5t216 -70.5h330l118 555h-330q-153 0 -246 -70t-122 -207z" />
<glyph unicode="&#x430;" horiz-adv-x="1319" d="M201 342q42 199 196.5 299t416.5 100h273l4 21q29 133 -43.5 205.5t-230.5 72.5q-100 0 -202 -24.5t-200 -71.5l38 178q116 41 219 61.5t197 20.5q256 0 354 -132t41 -400l-142 -672h-192l37 178q-90 -106 -199 -157.5t-253 -51.5q-180 0 -265 101.5t-49 271.5zM397 354 q-22 -102 33.5 -162.5t169.5 -60.5q162 0 284 113.5t162 304.5l9 43h-193q-233 0 -335.5 -54.5t-129.5 -183.5z" />
<glyph unicode="&#x431;" horiz-adv-x="1325" d="M253 588l45 239q23 125 32 168q36 168 121 291q138 197 320.5 281t462.5 86q127 0 188 18l20 -153q-56 -23 -103 -23l-266 -18q-134 -9 -224 -56q-236 -123 -290 -282l-19 -60q161 125 385 125q252 0 360.5 -163.5t46.5 -452.5q-61 -289 -239 -454t-430 -165 q-254 0 -360.5 160t-49.5 459zM458 588q-44 -211 19 -333t221 -122q153 0 269.5 122t160.5 333q45 209 -19.5 330.5t-217.5 121.5q-158 0 -273 -120.5t-160 -331.5z" />
<glyph unicode="&#x432;" horiz-adv-x="1268" d="M195 0l249 1176h460q207 0 302.5 -76t66.5 -215q-24 -109 -94.5 -172.5t-184.5 -77.5q128 -27 185 -106.5t32 -198.5q-34 -158 -174 -244t-363 -86h-479zM419 154h277q133 0 212 50t99 144t-37.5 144.5t-190.5 50.5h-277zM534 696h256q109 0 188 43t95 121 q17 78 -43.5 120t-169.5 42h-256z" />
<glyph unicode="&#x433;" horiz-adv-x="1130" d="M195 0l249 1176h829l-32 -154h-635l-217 -1022h-194z" />
<glyph unicode="&#x434;" horiz-adv-x="1487" d="M49 -297l96 451h71q106 43 167 133q150 221 245 665l47 224h795l-217 -1022h153l-96 -451h-153l64 297h-955l-64 -297h-153zM497 154h561l185 868h-408l-32 -148q-92 -432 -263 -663z" />
<glyph unicode="&#x435;" horiz-adv-x="1323" d="M241 575q61 289 252.5 459t455.5 170q238 0 344 -152.5t50 -414.5l-20 -94h-889q-28 -201 57.5 -305.5t275.5 -104.5q113 0 223 27.5t224 83.5l-39 -185q-113 -43 -226.5 -66.5t-226.5 -23.5q-283 0 -411.5 164t-69.5 442zM475 692h688q32 160 -35 254t-211 94 q-161 0 -277 -91t-165 -257z" />
<glyph unicode="&#x436;" horiz-adv-x="1937" d="M74 0l634 723l-326 453h225l397 -551l117 551h193l-117 -551l631 551h223l-518 -453l331 -723h-207l-269 594l-242 -211l-81 -383h-193l81 383l-151 211l-521 -594h-207z" />
<glyph unicode="&#x437;" horiz-adv-x="1143" d="M145 29l38 180q66 -39 151.5 -59.5t181.5 -20.5q160 0 260.5 59.5t120.5 153.5q20 92 -45.5 148.5t-211.5 56.5h-153l34 160h161q121 0 203 47t97 120q14 66 -49.5 114t-188.5 48q-73 0 -161 -13t-195 -42l37 174q108 25 199.5 37t171.5 12q207 0 308.5 -82t69.5 -229 q-21 -98 -98.5 -166t-200.5 -92q124 -27 181 -102.5t32 -190.5q-38 -180 -194 -276.5t-405 -96.5q-84 0 -170 15.5t-174 44.5z" />
<glyph unicode="&#x438;" horiz-adv-x="1399" d="M195 0l249 1176h192l-200 -943l765 943h250l-249 -1176h-192l200 944l-768 -944h-247z" />
<glyph unicode="&#x439;" horiz-adv-x="1399" d="M195 0l249 1176h192l-200 -943l765 943h250l-249 -1176h-192l200 944l-768 -944h-247zM718 1634h125q-7 -80 35.5 -118.5t132.5 -38.5q93 0 151.5 38.5t87.5 118.5h125q-42 -149 -141.5 -226t-253.5 -77q-151 0 -217.5 77t-44.5 226z" />
<glyph unicode="&#x43a;" horiz-adv-x="1298" d="M195 0l249 1176h192l-117 -551l662 551h237l-544 -455l353 -721h-215l-292 594l-252 -211l-81 -383h-192z" />
<glyph unicode="&#x43b;" horiz-adv-x="1374" d="M80 0l34 162q196 28 284 160q110 186 211 661l41 193h795l-249 -1176h-192l217 1022h-410l-25 -117q-97 -454 -232 -657q-145 -217 -474 -248z" />
<glyph unicode="&#x43c;" horiz-adv-x="1622" d="M195 0l249 1176h282l167 -789l503 789h280l-249 -1176h-194l210 991l-489 -766h-192l-163 766l-210 -991h-194z" />
<glyph unicode="&#x43d;" horiz-adv-x="1407" d="M195 0l249 1176h194l-102 -480h627l102 480h194l-249 -1176h-194l115 543h-627l-115 -543h-194z" />
<glyph unicode="&#x43e;" horiz-adv-x="1317" d="M243 588q62 289 240 452.5t429 163.5q252 0 362 -163.5t48 -452.5q-61 -289 -240.5 -454t-431.5 -165q-251 0 -359.5 165t-47.5 454zM446 588q-44 -211 20 -333t219 -122q156 0 272 122t160 333q45 209 -19 330.5t-220 121.5q-153 0 -270 -120.5t-162 -331.5z" />
<glyph unicode="&#x43f;" horiz-adv-x="1407" d="M195 0l249 1176h1015l-249 -1176h-194l217 1022h-627l-217 -1022h-194z" />
<glyph unicode="&#x440;" horiz-adv-x="1366" d="M100 -446l344 1622h194l-38 -179q85 105 188.5 156t232.5 51q215 0 312 -170t38 -446q-59 -279 -228 -449t-384 -170q-129 0 -211 51.5t-122 155.5l-132 -622h-194zM513 588q-45 -213 17 -335t216 -122q151 0 265.5 122t159.5 335q46 213 -17 333.5t-214 120.5 q-154 0 -267.5 -120.5t-159.5 -333.5z" />
<glyph unicode="&#x441;" horiz-adv-x="1182" d="M243 588q61 286 253.5 451t469.5 165q88 0 169.5 -18.5t153.5 -55.5l-39 -180q-72 45 -149 67.5t-161 22.5q-189 0 -318.5 -118.5t-175.5 -333.5q-45 -215 33.5 -335t267.5 -120q84 0 170.5 22.5t178.5 67.5l-38 -178q-88 -39 -179 -57.5t-190 -18.5q-264 0 -385 167 t-61 452z" />
<glyph unicode="&#x442;" horiz-adv-x="1253" d="M280 1022l32 154h1127l-32 -154h-469l-217 -1022h-191l217 1022h-467z" />
<glyph unicode="&#x443;" horiz-adv-x="1274" d="M75 -446l33 159h113q79 0 132 38t138 179l53 88l-232 1158h205l174 -920l562 920h204l-789 -1285q-126 -210 -217 -273.5t-222 -63.5h-154z" />
<glyph unicode="&#x444;" horiz-adv-x="1839" d="M243 584q60 286 217 453t334 167q86 0 146 -40t99 -138l115 543h195l-115 -543q79 98 157 138t164 40q177 0 263 -167t26 -453q-62 -289 -218 -452t-333 -163q-86 0 -147 41t-99 140l-126 -596h-195l126 596q-80 -99 -157 -140t-163 -41q-177 0 -264 163t-25 452z M441 588q-52 -248 1.5 -352.5t184.5 -104.5q102 0 259 176l119 559q-82 176 -184 176q-131 0 -229 -104t-151 -350zM1081 307q83 -176 185 -176q129 0 227.5 104.5t150.5 352.5q53 246 -1 350t-183 104q-102 0 -260 -176z" />
<glyph unicode="&#x445;" horiz-adv-x="1274" d="M61 0l587 614l-299 562h230l221 -418l401 418h228l-545 -572l318 -604h-227l-244 463l-440 -463h-230z" />
<glyph unicode="&#x446;" horiz-adv-x="1464" d="M195 0l249 1176h194l-217 -1022h627l217 1022h194l-217 -1022h156l-96 -451h-156l64 297h-1015z" />
<glyph unicode="&#x447;" horiz-adv-x="1270" d="M344 879l63 297h192l-59 -281q-26 -123 17 -184q41 -62 149 -62h314l112 527h192l-249 -1176h-192l105 496h-361q-162 0 -247 98q-77 90 -36 285z" />
<glyph unicode="&#x448;" horiz-adv-x="1968" d="M195 0l249 1176h194l-217 -1022h498l217 1022h192l-217 -1022h500l217 1022h193l-249 -1176h-1577z" />
<glyph unicode="&#x449;" horiz-adv-x="2025" d="M195 0l249 1176h194l-217 -1022h498l217 1022h192l-217 -1022h500l217 1022h193l-217 -1022h155l-96 -451h-155l64 297h-1577z" />
<glyph unicode="&#x44a;" horiz-adv-x="1520" d="M283 1022l32 154h573l-102 -480h287q225 0 328 -86t65 -262q-37 -176 -176 -262t-364 -86h-480l217 1022h-380zM671 154h279q131 0 210 50t99 144t-37.5 144.5t-188.5 50.5h-279z" />
<glyph unicode="&#x44b;" horiz-adv-x="1698" d="M195 0l249 1176h194l-102 -480h285q223 0 327 -86t66 -262q-37 -176 -177 -262t-363 -86h-479zM421 154h277q131 0 210 50t99 144t-37.5 144.5t-188.5 50.5h-277zM1315 0l249 1176h192l-249 -1176h-192z" />
<glyph unicode="&#x44c;" horiz-adv-x="1268" d="M195 0l249 1176h194l-102 -480h285q223 0 327 -86t66 -262q-37 -176 -177 -262t-363 -86h-479zM421 154h277q131 0 210 50t99 144t-37.5 144.5t-188.5 50.5h-277z" />
<glyph unicode="&#x44d;" horiz-adv-x="1180" d="M128 45l38 178q147 -90 311 -90q155 0 283.5 90t198.5 320h-596l32 153h590q11 111 -48 227.5t-267 116.5q-160 0 -350 -90l39 180q179 74 355 74q274 0 396.5 -167t62.5 -449q-60 -285 -249.5 -452t-459.5 -167q-199 0 -336 76z" />
<glyph unicode="&#x44e;" horiz-adv-x="1810" d="M203 0l249 1176h192l-99 -469h223q63 198 225.5 347.5t414.5 149.5t362 -163.5t48 -452.5q-61 -289 -240.5 -454t-431.5 -165q-254 0 -357 159t-59 419h-219l-116 -547h-192zM941 588q-44 -211 19 -333t221 -122q154 0 271 122t161 333q45 209 -20 330.5t-219 121.5 q-156 0 -272 -120.5t-161 -331.5z" />
<glyph unicode="&#x44f;" horiz-adv-x="1294" d="M123 0l467 516q-117 27 -182.5 98.5t-32.5 223.5q36 170 167 254t358 84h459l-249 -1176h-192l105 498h-242l-451 -498h-207zM575 838q-19 -88 37 -137.5t181 -49.5h263l79 371h-263q-125 0 -202 -48t-95 -136z" />
<glyph unicode="&#x451;" horiz-adv-x="1323" d="M241 575q61 289 252.5 459t455.5 170q238 0 344 -152.5t50 -414.5l-20 -94h-889q-28 -201 57.5 -305.5t275.5 -104.5q113 0 223 27.5t224 83.5l-39 -185q-113 -43 -226.5 -66.5t-226.5 -23.5q-283 0 -411.5 164t-69.5 442zM475 692h688q32 160 -35 254t-211 94 q-161 0 -277 -91t-165 -257zM684 1417l45 213h213l-45 -213h-213zM1096 1417l45 213h213l-45 -213h-213z" />
<glyph unicode="&#x10a0;" horiz-adv-x="1464" d="M250 382l19 93q30 140 218 349l119 -67q-118 -153 -146 -282l-21 -102q-40 -185 14.5 -300.5t272.5 -115.5q190 0 303 111.5t154 304.5l44 207q70 331 -157 602t-167 552l29 135h180l-29 -135q-51 -240 181.5 -511.5t153.5 -642.5l-44 -207q-59 -275 -248.5 -427.5 t-433.5 -152.5q-239 0 -371 152.5t-71 436.5z" />
<glyph unicode="&#x10a1;" horiz-adv-x="1464" d="M242 346l64 301q53 251 254 413t371 162q67 102 98 250q18 84 -122 163t-103 256h191q-27 -128 112 -207.5t114 -200.5q-30 -140 -113 -261q105 0 241 -162t83 -413l-65 -304q-44 -209 -244 -382t-437 -173q-248 0 -369 171.5t-75 386.5zM439 376q-38 -182 36.5 -303 t245.5 -121q174 0 298 116.5t161 291.5l59 279q41 191 -42.5 309t-238.5 118q-174 -2 -298 -119t-166 -316z" />
<glyph unicode="&#x10a2;" horiz-adv-x="1647" d="M252 392l34 162q76 305 313 472t522 167q168 145 198 285q24 115 -21 181t-185 66t-217 -51.5t-95 -136.5l-37 -177h-171l37 177q30 139 177.5 246.5t340.5 107.5q216 0 299.5 -112.5t48.5 -277.5q-36 -166 -208 -325q91 -13 230 -171.5t84 -416.5l-41 -196 q-49 -229 -267.5 -416.5t-523.5 -187.5q-262 0 -414.5 187.5t-103.5 416.5zM447 414q-38 -180 57 -321t307 -141q245 0 380.5 133.5t176.5 328.5l37 172q36 171 -53 306t-250 135h-93q-181 0 -331.5 -119.5t-201.5 -361.5z" />
<glyph unicode="&#x10a3;" horiz-adv-x="2179" d="M398 104q128 33 339 54q-445 422 -326 982l41 195q47 219 212 387.5t432 168.5q203 0 351 -201q179 201 443 201q271 0 357 -185t25 -470l-25 -121q-69 -322 -236 -486.5t-425 -167.5q-242 0 -345.5 175t-36.5 490l22 104q27 127 133 347q-40 89 -109.5 118.5 t-188.5 29.5q-157 0 -268 -104t-150 -286l-39 -186q-59 -290 41 -574.5t516.5 -425.5t372.5 -364h-231q30 192 -432 285q-204 -3 -439 -143zM1395 746.5q52 -118.5 227 -118.5q178 0 278 119.5t154 372.5l24 116q58 270 6.5 379.5t-229.5 109.5q-175 0 -273 -99.5 t-159 -384.5l-24 -112q-56 -264 -4 -382.5z" />
<glyph unicode="&#x10a4;" horiz-adv-x="1509" d="M233 290q47 236 168 422h192q-119 -188 -169 -425q-34 -158 38.5 -246.5t262.5 -88.5q148 0 276 77.5t162 238.5l249 1167q25 121 -42 205.5t-219 84.5q-143 0 -257.5 -77t-143.5 -215q-22 -104 -23 -262h-161q-18 161 3 262q45 209 214 333.5t387 124.5q228 0 353 -121 t80 -335l-250 -1174q-48 -224 -232 -348.5t-431 -124.5q-246 0 -373.5 146.5t-83.5 355.5z" />
<glyph unicode="&#x10a5;" horiz-adv-x="1467" d="M227 263l23 108q24 126 143 304h175q-102 -189 -129 -315l-17 -81q-34 -161 53.5 -244t249.5 -83q177 0 292 83t148 238l47 224q65 303 -145 336h-180l35 166h180q188 0 266 369l13 61q31 145 -39 220.5t-227 75.5q-158 0 -263.5 -91t-121.5 -170l-9 -42 q-17 -79 -14 -172l-181 -3q-15 85 1 164l15 67q36 169 223 291t385 122q256 0 358 -143.5t68 -305.5l-19 -91q-59 -274 -328 -433q244 -94 174 -421l-47 -224q-43 -200 -227 -342.5t-439 -142.5q-241 0 -373 138t-90 337z" />
<glyph unicode="&#x10a6;" horiz-adv-x="1588" d="M317 368l46 218q67 314 348 456q-200 22 -278 127.5t-39 289.5l13 64q33 153 173.5 260.5t366.5 107.5q236 0 334 -98t61 -270l-15 -70q-33 -158 -256 -304q283 0 402.5 -163.5t71.5 -392.5l-48 -225q-57 -267 -246.5 -423.5t-469.5 -156.5q-261 0 -391.5 155t-72.5 425z M513 400q-42 -195 36.5 -321.5t266.5 -126.5q192 0 323.5 126.5t175.5 335.5l27 126q43 201 -35.5 323.5t-270.5 122.5q-171 0 -306.5 -100.5t-182.5 -321.5zM560 1411q-24 -116 46.5 -175.5t196.5 -59.5q130 0 221 70.5t111 164.5l23 106q19 90 -53 149t-190 59 q-130 0 -220 -51.5t-113 -161.5z" />
<glyph unicode="&#x10a7;" horiz-adv-x="2262" d="M293 586l120 563q85 399 273 570.5t432 171.5q261 0 371 -193q223 193 458 193q265 0 368 -177t12 -605l-43 -203q-161 -758 -651 -1118h-220q529 414 675 1101l66 309q53 247 5.5 387t-286.5 140q-183 0 -347 -132q56 -110 28 -239l-171 -806q-71 -334 -257 -547 t-455 -213q-249 0 -358 189t-20 609zM465.5 94q55.5 -142 240.5 -142q193 0 308.5 154.5t174.5 433.5l173 814q37 174 -37.5 272.5t-241.5 98.5q-179 0 -301 -156t-190 -473l-103 -488q-79 -372 -23.5 -514z" />
<glyph unicode="&#x10a8;" horiz-adv-x="1464" d="M357 -186q-104 583 7 1107l52 242q79 371 277 549.5t444 178.5q266 0 374.5 -179.5t27.5 -559.5l-47 -223q-114 -535 -460 -1115h-213q370 586 480 1107l49 231q64 298 -2.5 435.5t-243.5 137.5q-196 0 -315.5 -138.5t-182.5 -434.5l-49 -231q-111 -524 12 -1107h-210z " />
<glyph unicode="&#x10a9;" horiz-adv-x="1464" d="M223 256l25 120q40 184 147 309h172q-101 -185 -133 -334l-13 -64q-30 -139 52 -237t248 -98q163 0 286.5 89.5t168.5 298.5l29 138q37 175 -21 306t-196 131h-267l35 165h258q118 0 205 69.5t113 193.5l22 102q50 236 -197 280l35 166q428 -112 356 -449l-13 -59 q-61 -287 -364 -384q158 -54 213.5 -184t11.5 -337l-29 -138q-55 -256 -249.5 -404t-431.5 -148q-240 0 -371 143.5t-92 324.5z" />
<glyph unicode="&#x10aa;" horiz-adv-x="2867" d="M418 1176l22 103q53 249 215.5 424t407.5 175q299 0 351 -296q155 309 419 309q266 0 306 -295q181 282 465 282q203 0 316 -146.5t72 -342.5l-31 -145q-82 -385 -508 -696h-191q426 304 512 710l24 115q27 124 -38 231.5t-189 107.5q-141 0 -243.5 -76t-151.5 -309 l-67 -314h-177l66 311q46 215 -6 308t-194 93q-118 0 -219.5 -90t-146.5 -300l-68 -322h-174l69 327q47 220 -13.5 296t-218.5 76q-129 0 -240 -111.5t-158 -330.5l-22 -107q-75 -366 199.5 -639.5t696 -363.5t538.5 -343h-272q-198 223 -591 220q-272 -21 -496 -137 l-86 164q174 45 410 84q-711 445 -588 1028z" />
<glyph unicode="&#x10ab;" horiz-adv-x="1507" d="M248 376l62 291q52 242 252 416.5t443 174.5q259 0 330 -237l97 460q21 99 -66 171.5t-245 72.5q-159 0 -256.5 -57.5t-113.5 -133.5l-34 -158h-194l34 158q28 135 209 246t393 111q205 0 347 -113.5t103 -296.5l-242 -1138q-57 -268 -258 -411.5t-419 -143.5 q-244 0 -372.5 154t-69.5 434zM439 376q-44 -210 39 -317t247 -107q148 0 279.5 101.5t178.5 322.5l63 296q48 223 -37 323.5t-241 100.5q-153 0 -289.5 -118.5t-177.5 -310.5z" />
<glyph unicode="&#x10ac;" horiz-adv-x="1507" d="M286 354l243 1143q39 187 154.5 278.5t255.5 91.5q80 0 213 -33.5t210 -33.5q143 0 337 91l-30 -143q-185 -101 -356 -101q-79 0 -177.5 28t-189.5 26q-101 2 -161.5 -48.5t-84.5 -163.5l-97 -458q210 227 438 227q242 0 369.5 -157.5t74.5 -408.5l-73 -341 q-58 -273 -242.5 -418t-438.5 -145q-231 0 -366.5 149t-78.5 417zM478 354q-41 -193 41.5 -297.5t243.5 -104.5q185 0 301.5 108.5t159.5 310.5l67 314q42 199 -35.5 305t-246.5 106q-197 0 -306.5 -100.5t-155.5 -314.5z" />
<glyph unicode="&#x10ad;" horiz-adv-x="2289" d="M378 986l28 129q72 341 239 558.5t462 217.5q313 0 377 -311q182 311 502 311q287 0 364.5 -219t13.5 -520l-35 -166q-148 -699 -693 -1172h-246q599 495 746 1185l27 130q61 287 29 441.5t-241 154.5q-171 0 -277.5 -96.5t-152.5 -311.5l-162 -763h-195l162 763 q46 215 -17.5 311.5t-238.5 96.5q-186 0 -298 -154.5t-175 -455.5l-27 -124q-139 -671 253 -1174h-234q-358 476 -211 1169z" />
<glyph unicode="&#x10ae;" horiz-adv-x="1467" d="M234 293l32 152q19 101 127 230h172q-93 -162 -114 -259l-17 -78q-30 -142 45.5 -264t245.5 -122q196 0 309 119.5t162 347.5l27 129q32 150 -24.5 258.5t-182.5 108.5h-209l35 165h209q97 0 168.5 62t99.5 190l10 47q25 118 -243.5 201.5t-220.5 310.5h192 q-31 -150 241 -222.5t228 -277.5l-13 -62q-43 -200 -316 -335q277 -164 218 -440l-32 -154q-60 -280 -249 -446t-444 -166q-212 0 -356.5 148t-99.5 357z" />
<glyph unicode="&#x10af;" horiz-adv-x="1507" d="M228 279l13 61q14 65 64 160h185q-48 -114 -57 -154l-15 -73q-33 -153 67 -237t248 -84q166 0 285.5 104.5t150.5 252.5l300 1411l-627 -132q123 -54 185.5 -144t28.5 -251q-49 -231 -244.5 -323.5t-477.5 -92.5l35 166q231 0 355.5 49.5t149.5 178.5q40 178 -62 270.5 t-317 92.5l23 110l1179 250l-340 -1599q-48 -228 -239.5 -367.5t-419.5 -139.5q-254 0 -389 119.5t-81 371.5z" />
<glyph unicode="&#x10b0;" horiz-adv-x="2289" d="M307 650l13 62q105 496 512 837.5t1183 341.5l-35 -166q-408 0 -750.5 -125t-549.5 -413q189 71 293 71q313 0 369 -321q228 321 510 321q212 0 343.5 -141.5t75.5 -404.5l-14 -67q-102 -479 -573 -828h-221q511 395 602 825l15 70q37 177 -41 287t-219 110 q-140 0 -265 -104.5t-170 -314.5l-65 -308h-192l65 308q45 210 -38.5 314.5t-213.5 104.5q-160 -2 -276 -109.5t-154 -287.5l-17 -78q-89 -422 257 -820h-242q-306 349 -202 836z" />
<glyph unicode="&#x10b1;" horiz-adv-x="1507" d="M301 427l311 1464h192l-311 -1464q-48 -225 21 -350t249 -125q178 0 303.5 133.5t170.5 344.5l17 80q42 199 -86 373.5t-100 306.5q28 129 117 228l180 -53q-96 -81 -119 -175q-25 -132 112.5 -289t93.5 -364l-27 -126q-58 -271 -252.5 -447t-444.5 -176 q-242 0 -369.5 154t-57.5 485z" />
<glyph unicode="&#x10b2;" horiz-adv-x="1850" d="M280 524l86 405q79 374 346.5 578.5t509.5 204.5l-41 179h276l-116 -179q277 0 447.5 -203t90.5 -580l-86 -405q-69 -325 -337.5 -530.5t-575.5 -205.5q-313 0 -491.5 204t-108.5 532zM471 524q-51 -240 64 -406t380 -166q270 0 452.5 169t232.5 403l86 405 q70 329 -21 488.5t-352 159.5l-151 -916h-206l238 916q-225 0 -396 -159.5t-241 -488.5z" />
<glyph unicode="&#x10b3;" horiz-adv-x="1610" d="M348 340l27 130q32 150 120 248h178q-84 -154 -116 -307l-16 -73q-37 -177 50.5 -281.5t265.5 -104.5q185 0 286 107t148 327l256 1207q12 54 -39.5 98t-161.5 44q-196 0 -226 -142l-108 -507h-148l108 507q30 142 -134 142q-73 0 -134.5 -72t-123.5 -72q-84 2 -163 110 l38 179q105 -106 170 -106q50 0 110 54.5t116 54.5q183 0 232 -137q171 137 308 137q155 0 263 -85.5t83 -204.5l-259 -1217q-59 -280 -228.5 -434t-427.5 -154q-266 0 -397.5 148t-76.5 404z" />
<glyph unicode="&#x10b4;" horiz-adv-x="2241" d="M418 1176l23 108q55 255 218.5 431t445.5 176q242 0 374 -212q217 212 464 212q252 0 358.5 -146t68.5 -343l-27 -123q-42 -183 -147.5 -294.5t-328.5 -171.5q197 -39 241.5 -156t11.5 -275l-19 -87q-51 -239 -271 -373t-541 -134q-376 -3 -529.5 114t-94.5 396h186 q-49 -228 109 -287t364 -59q250 -3 399.5 84t185.5 259l16 73q37 175 -16 269t-166 94h-156l35 164h156q105 0 215 83t153 286l27 127q36 169 -29.5 251.5t-235.5 82.5q-196 0 -393 -154q32 -133 1 -279l-25 -118q-53 -248 -236.5 -415.5t-425.5 -167.5q-231 0 -347 169 t-64 416zM609 1176q-47 -225 20 -320.5t236 -95.5t276.5 95.5t154.5 320.5l22 99q49 235 -5.5 342.5t-242.5 107.5t-287 -98.5t-151 -342.5z" />
<glyph unicode="&#x10b5;" horiz-adv-x="1507" d="M227 273l5 25q25 118 105 228h191q-81 -112 -107 -236l-7 -32q-30 -143 40 -224.5t267 -81.5q171 0 288 77.5t147 215.5l134 631q25 121 -77.5 281t-254.5 160q-136 0 -206 -63.5t-88 -149.5q-14 -68 -16 -186h-166q-12 103 5 186q36 169 171 271.5t335 102.5 q141 0 227.5 -80.5t148.5 -215.5l119 559h-274l31 150h451l-347 -1633q-47 -224 -233.5 -347t-429.5 -123q-227 0 -368 127t-91 358z" />
<glyph unicode="&#x10b6;" horiz-adv-x="2125" d="M418 1176l25 114q46 220 213 410.5t406 190.5q293 0 325 -341q174 341 476 341q233 0 335.5 -134.5t50.5 -380.5l-29 -135q-75 -352 -374 -661h-181q285 309 365 684l23 107q38 179 -15 266.5t-208 87.5q-153 0 -245.5 -74t-161.5 -399l-66 -309h-192l66 309 q68 322 1.5 397.5t-199.5 75.5q-146 0 -251 -116.5t-148 -318.5l-25 -114q-84 -399 99 -675t480.5 -375t283.5 -341h-229q-39 207 -277.5 235t-458.5 -114l-50 169q131 56 341 80q-511 402 -380 1021z" />
<glyph unicode="&#x10b7;" horiz-adv-x="1509" d="M223 258q22 102 96 234h188q-64 -113 -98 -273q-23 -110 64.5 -188.5t251.5 -78.5q183 0 294 80t162 319l124 583q-159 -203 -412 -203q-198 0 -330.5 151t-80.5 393l31 149q44 207 286 440h214q-288 -282 -329 -475l-24 -114q-33 -155 47.5 -269t219.5 -114 q186 0 301.5 111.5t145.5 254.5l129 606h191l-327 -1537q-56 -263 -219 -401t-458 -138q-231 0 -373 114t-94 356z" />
<glyph unicode="&#x10b8;" horiz-adv-x="1614" d="M304 397l40 189q54 252 260 428t459 176q293 0 362 -231l96 448q48 226 11.5 280t-162.5 54q-94 0 -155.5 -60.5t-83.5 -165.5l-16 -73h-153l16 73q22 107 -10 166.5t-145 59.5q-88 0 -146.5 -38.5t-76.5 -122.5l-47 -223h-153l47 223q28 132 137.5 221.5t216.5 89.5 q90 0 172 -44.5t107 -165.5q96 132 184.5 171t158.5 39q189 0 262.5 -103.5t16.5 -371.5l-221 -1040q-54 -258 -269.5 -423t-446.5 -165q-217 0 -368.5 165t-92.5 444zM497 405q-41 -191 50.5 -322t252.5 -131q186 0 321 131t169 293l45 210q48 227 -31 332.5t-271 105.5 q-174 0 -318.5 -137.5t-185.5 -329.5z" />
<glyph unicode="&#x10b9;" horiz-adv-x="1507" d="M172 -183l364 1715q35 166 189.5 262.5t323.5 96.5q209 0 326 -91t83 -250q-25 -117 -122 -218l-144 28q65 67 91 188q37 177 -272 177q-253 0 -302 -215l-124 -584q208 223 433 223q271 0 385.5 -150t52.5 -442l-19 -90q-73 -344 -412 -650h-239q384 298 460 658l18 82 q38 181 -23 303.5t-258 125.5q-165 -3 -297 -113t-168 -263l-168 -793h-178z" />
<glyph unicode="&#x10ba;" horiz-adv-x="1658" d="M280 524l112 526q110 519 364 814h183q-256 -343 -356 -814l-112 -526q-49 -229 59.5 -400.5t302.5 -171.5q192 0 349.5 130t199.5 332l10 45q34 161 -3.5 260.5t-180.5 99.5h-203l34 164h203q106 0 198.5 68.5t122.5 212.5q34 158 -147.5 271.5t-135.5 328.5h161 q-30 -139 166 -262.5t151 -331.5q-39 -184 -152 -261t-255 -109q184 -48 228.5 -156t7.5 -280l-11 -50q-55 -259 -277 -442.5t-501 -183.5q-306 0 -443.5 220t-74.5 516z" />
<glyph unicode="&#x10bb;" horiz-adv-x="1507" d="M250 382l63 299q52 245 217 411t469 166q200 0 330 -197l176 830h191l-325 -1531q-54 -253 -245.5 -412.5t-439.5 -159.5q-257 0 -375 163.5t-61 430.5zM436 360q-43 -202 28 -305t257 -103q160 0 288.5 105.5t172.5 310.5l63 299q35 163 -32.5 296t-248.5 133 q-178 0 -297.5 -107.5t-165.5 -321.5z" />
<glyph unicode="&#x10bc;" horiz-adv-x="1614" d="M290 376l221 1040q57 268 175 371.5t306 103.5q70 0 142.5 -39t112.5 -171q77 121 177 165.5t191 44.5q107 0 178.5 -89.5t43.5 -221.5l-47 -223h-153l47 223q18 84 -24.5 122.5t-129.5 38.5q-113 0 -171 -59.5t-80 -166.5l-16 -73h-152l16 73q22 105 -14.5 165.5 t-129.5 60.5q-127 0 -185.5 -54t-106.5 -280l-96 -448q167 231 460 231q253 0 385 -176t78 -428l-40 -189q-59 -279 -282 -444t-439 -165q-231 0 -376 165t-91 423zM482 376q-34 -162 45 -293t265 -131q160 0 307 131t188 322l32 152q41 192 -44.5 329.5t-259.5 137.5 q-193 0 -316.5 -105.5t-171.5 -332.5z" />
<glyph unicode="&#x10bd;" horiz-adv-x="1467" d="M242 346q32 148 123 258h174q-73 -126 -103 -266q-29 -139 42.5 -262.5t246.5 -123.5q170 0 290 91t158 272l10 45q31 147 -85 296.5t-39 511.5l122 573h-242l31 150h400q-99 -467 -152 -715q-74 -352 61.5 -487t92.5 -340l-8 -34q-49 -231 -231 -379t-443 -148 q-252 0 -373.5 169t-74.5 389zM550 1137q33 153 138.5 220t215.5 67h629l-28 -134h-637q-135 0 -165 -153q-36 -154 139 -154h61l-30 -145h-93q-110 0 -188.5 62t-41.5 237z" />
<glyph unicode="&#x10be;" horiz-adv-x="1507" d="M277 315l335 1576h192l-177 -836q225 203 414 203q290 0 391.5 -167.5t51.5 -400.5l-80 -375q-45 -214 -225 -370.5t-451 -156.5q-211 0 -355 149t-96 378zM479 360q-41 -194 43 -301t241 -107q163 0 290 105.5t169 302.5l62 290q42 199 -29 322.5t-249 123.5 q-169 0 -292.5 -107.5t-171.5 -330.5z" />
<glyph unicode="&#x10bf;" horiz-adv-x="1467" d="M240 323l25 118q31 161 131 308h177q-94 -203 -117 -308l-23 -109q-38 -177 49 -278.5t245 -101.5q165 0 286 89.5t163 287.5l23 104q47 223 -151.5 421.5t-150.5 563.5l-412 57l36 167l410 -62l107 311h166l-116 -322l475 -57l-35 -166l-466 65q-44 -342 169.5 -528.5 t158.5 -449.5l-22 -101q-49 -231 -236 -387.5t-442 -156.5q-229 0 -362 160.5t-88 374.5z" />
<glyph unicode="&#x10c0;" horiz-adv-x="1464" d="M261 433h191q-47 -219 3 -350t266 -131q174 0 288.5 72t144.5 215q37 175 -1.5 258t-145.5 83h-234l33 154h234q81 0 138 42.5t83 166.5q18 84 -20 130.5t-159 46.5h-237l35 166h237q82 0 142.5 59.5t80.5 151.5q28 134 -57.5 181t-556.5 47l33 153q499 0 657 -84.5 t115 -287.5q-38 -179 -254 -302q214 -84 176 -259q-44 -211 -284 -295q243 -96 184 -377q-53 -248 -233 -366.5t-434 -118.5q-279 0 -387 158t-38 487z" />
<glyph unicode="&#x10c1;" horiz-adv-x="1507" d="M286 357l326 1534h178l-327 -1542q-36 -183 43 -290t260 -107q175 0 289 78.5t149 245.5q31 143 -3 218t-155 75h-149l33 151h149q110 0 177 56.5t87 152.5q15 70 -33 130.5t-185 60.5h-110l35 166h110q135 0 212 70.5t97 166.5q21 97 -53.5 149.5t-272.5 52.5l35 166 q254 0 389 -88.5t95 -274.5q-51 -242 -343 -324q264 -47 215 -278q-49 -234 -327 -287q247 -93 189 -363q-50 -234 -226.5 -361t-441.5 -127q-245 0 -372.5 146.5t-69.5 422.5z" />
<glyph unicode="&#x10c2;" horiz-adv-x="1464" d="M109 -282l35 166q282 0 481 115q-407 235 -322 635l121 570q87 406 274 546.5t439 140.5q253 0 376.5 -140.5t36.5 -546.5l-121 -570q-85 -400 -576 -635q122 -115 417 -115l-35 -166q-267 0 -515 209q-369 -209 -611 -209zM494 631q-69 -325 257 -558q418 236 487 561 l121 570q60 279 -9 400t-248 121q-173 0 -300.5 -122t-197.5 -454z" />
<glyph unicode="&#x10c3;" horiz-adv-x="1464" d="M223 256l25 120q35 161 259 320l78 -116q-122 -91 -151 -229l-13 -64q-26 -121 41 -228t259 -107q152 0 280 84t175 304l29 138q43 203 -27.5 327t-186.5 124h-267l35 167h258q125 0 255 154.5t193 450.5h-701l-53 -248h-194l88 411h1086l-50 -233q-85 -403 -467 -618 q312 -113 222 -535l-29 -138q-52 -242 -238 -397t-443 -155q-225 0 -364.5 138t-98.5 330z" />
<glyph unicode="&#x10c4;" horiz-adv-x="1464" d="M235 315q33 155 226 316l96 -116q-112 -112 -132 -206q-33 -154 50 -255.5t250 -101.5q201 0 304 91t129 213l21 101q29 135 -19 204.5t-195 69.5h-95l35 166h95q272 -4 386 532q-272 -180 -516 -180q-242 0 -328 101t-53 256q33 158 238.5 271.5t532.5 113.5l-35 -166 q-265 0 -392.5 -49t-154.5 -179q-19 -90 28 -153t189 -60q253 -3 743 332q-175 -823 -506 -898q292 -108 238 -364l-17 -81q-50 -231 -229 -358t-434 -127q-268 0 -383.5 158t-71.5 369z" />
<glyph unicode="&#x10c5;" horiz-adv-x="1628" d="M223 256q36 169 206 316.5t460 147.5h368l47 223h-368q-290 0 -399.5 137t-70.5 320q43 204 223 347.5t448 143.5q229 0 367 -129t86 -371l-61 -287h164l-34 -161h-164l-47 -223h164l-36 -169h-164l-63 -295q-55 -257 -248 -362.5t-411 -105.5q-268 0 -389.5 131.5 t-77.5 336.5zM412 247q-27 -127 59.5 -211t253.5 -84q179 0 289 73t144 231l63 295h-368q-215 0 -313 -82.5t-128 -221.5zM657 1400q-30 -142 55.5 -223t257.5 -73h368l61 287q35 163 -46 248.5t-251 85.5q-190 0 -302 -90t-143 -235z" />
<glyph unicode="&#x10c6;" horiz-adv-x="2069" d="M342 817l118 554q51 242 194.5 381t396.5 139q263 0 337 -231q159 231 432 231q217 0 326 -110t47 -402l-120 -562q-53 -248 -224.5 -383.5t-364.5 -135.5q-171 0 -270 132l-42 -196q-95 -446 -649 -446l33 153q377 0 438 287l241 1134q41 209 -8.5 286t-210.5 77 q-140 0 -230 -71.5t-133 -274.5l-120 -562q-49 -229 31 -298t210 -69l-32 -152q-206 0 -332 122.5t-68 396.5zM1296 817q-47 -224 32.5 -285.5t189.5 -64.5q175 3 252 94.5t112 255.5l116 545q47 223 -18.5 293t-194.5 70q-169 0 -248.5 -75.5t-122.5 -278.5z" />
<glyph unicode="&#x10d0;" horiz-adv-x="1306" d="M282 563q26 118 89 199q48 -11 90.5 -21.5t90.5 -21.5q-38 -52 -61 -156q-84 -397 205 -397q287 0 369 397q51 233 -114 351q-263 86 -246 413h195q-7 -100 15 -159t76 -85q362 -152 284 -520q-117 -548 -618 -548q-491 0 -375 548z" />
<glyph unicode="&#x10d1;" horiz-adv-x="1306" d="M293 616q60 262 200.5 417t360.5 193l46 218q34 151 -108 201v-1q-62 23 -84.5 80.5t-5.5 146.5h198q-10 -55 17 -93t91 -64q118 -48 73 -264l-47 -222q355 -131 252 -612q-128 -601 -618 -601q-246 0 -338.5 154t-36.5 447zM502 616q-96 -452 197 -452q285 0 381 452 q96 458 -185 460q-149 -1 -247 -116t-146 -344z" />
<glyph unicode="&#x10d2;" horiz-adv-x="1468" d="M176.5 -153.5q-20.5 101.5 1.5 230.5q78 256 253 402t444 170q211 115 256 302q36 173 -226 192q-234 -20 -270 -188q-2 -11 -3 -21t-2 -23q-50 -8 -93 -14t-92 -13q0 17 3 40.5t9 50.5q32 149 154.5 228.5t326.5 90.5q223 -11 323.5 -100t66.5 -253q-35 -162 -256 -282 l-8 -37q348 -142 270 -545q-34 -131 -97 -232.5t-152.5 -173.5t-204.5 -113.5t-251 -52.5q-125 11 -219.5 53.5t-153.5 114.5t-79.5 173.5zM385 77q-32 -192 39.5 -295.5t236.5 -117.5q183 14 298 117t166 295v1q69 373 -280 409q-346 -36 -460 -409z" />
<glyph unicode="&#x10d3;" horiz-adv-x="1975" d="M299 658q124 585 565 585q273 0 310 -250h38q124 260 418 260q469 0 349 -569q-62 -291 -212.5 -437t-381.5 -150q-233 17 -325.5 168t-31.5 432q84 394 -179 394q-250 -1 -343 -433q-130 -625 356 -769q300 -77 446 -169t140 -205h-208q-24 159 -466 244 q-103 -4 -206 -54t-204 -141l-64 113q48 40 110 71.5t138 53.5l12 53q-375 264 -261 803zM1207 697q-91 -429 213 -429q273 0 364 429q85 403 -187 403q-305 0 -390 -403z" />
<glyph unicode="&#x10d4;" horiz-adv-x="1328" d="M160 -21q11 53 28.5 100t45.5 92l186 -51q-39 -80 -53 -141q-69 -324 220 -324q288 0 356 324l155 728q85 396 -175 396q-285 0 -342 -278q-20 -84 2 -155q-49 -17 -89.5 -32t-88.5 -32q-40 79 -10 213q92 434 558 434q468 0 353 -546l-152 -714q-104 -486 -598 -486 q-498 -1 -396 472z" />
<glyph unicode="&#x10d5;" horiz-adv-x="1304" d="M154 -51q12 63 29.5 110.5t43.5 85.5q48 -14 91 -28t91 -28q-19 -41 -31.5 -76.5t-18.5 -63.5q-63 -294 246 -294q269 0 321 244l31 146q31 143 -13.5 214t-169.5 71h-114l32 150h114q233 -3 299 306q67 319 -194 319q-259 -1 -315 -256q-7 -36 -10 -67t-3 -59 q-48 -13 -92 -26.5t-92 -26.5q-21 98 -4 179q86 404 548 404q463 0 364 -471q-56 -257 -354 -366l-9 -41q278 -53 219 -332l-31 -142q-83 -394 -558 -394q-513 -1 -420 442z" />
<glyph unicode="&#x10d6;" horiz-adv-x="1306" d="M293 612q42 198 116.5 316t180.5 162l9 41q-241 69 -183 342q83 395 499 395q398 0 317 -378q-39 -181 -167 -285l-8 -37q335 -54 229 -556q-128 -597 -624 -597q-497 0 -369 597zM502 612q-93 -446 192 -446q286 0 382 446q91 431 -201 430q-283 1 -373 -430zM593 1452 q-60 -274 191 -275q92 1 157 69.5t104 204.5v1q57 267 -167 269q-228 0 -285 -269z" />
<glyph unicode="&#x10d7;" horiz-adv-x="2007" d="M296 642q129 609 620 609q290 0 323 -226h36q124 226 399 226q457 0 336 -571q-40 -184 -152.5 -353t-301.5 -326h-221q388 297 469 673q91 429 -161 429q-256 0 -356 -471q-132 -617 -635 -617q-490 0 -356 627zM505 650q-104 -486 178 -486q297 0 398 468 q99 471 -196 471q-284 0 -380 -453z" />
<glyph unicode="&#x10d8;" horiz-adv-x="1304" d="M311 691q120 562 616 562q493 0 373 -562q-39 -186 -115 -358.5t-191 -337.5h-180q109 189 178 362t102 334q87 409 -200 409q-291 0 -378 -409q-35 -165 -40.5 -337t17.5 -359h-172q-89 331 -10 696z" />
<glyph unicode="&#x10d9;" horiz-adv-x="1306" d="M159 -15q18 84 69 161l163 -83l-31 -76q-71 -329 219 -329q296 0 365 327l9 41q64 306 -231 306h-153l35 162h153q272 0 324 248q46 217 -253 333l35 165q256 -62 360.5 -186t64.5 -312q-47 -230 -373 -312l-9 -41q321 -53 255 -363l-9 -41q-102 -478 -605 -478 q-489 0 -388 478z" />
<glyph unicode="&#x10da;" horiz-adv-x="2636" d="M304 692q117 551 581 551q252 0 306 -211h34q148 221 370 221q236 -1 284 -226h37q144 216 384 216q467 0 352 -544q-34 -155 -114.5 -274.5t-212.5 -209.5q-32 21 -61.5 42.5t-60.5 42.5q193 160 244 399q84 391 -180 390q-273 6 -339 -326q-19 -73 -38 -145t-38 -145 h-157l48 290q72 337 -181 337q-248 0 -320 -337l-75 -290h-153q13 75 24.5 145t25.5 145q67 326 -212 326q-255 6 -341 -403q-134 -635 633 -722h-1q388 -72 570.5 -183.5t156.5 -265.5h-187q34 212 -683 302q-11 1 -22 1h-21q-146 0 -254.5 -37.5t-185.5 -118.5l-87 144 q45 34 102.5 61.5t126.5 49.5l5 25q-479 195 -360 750z" />
<glyph unicode="&#x10db;" horiz-adv-x="1325" d="M289 596q122 575 620 575q180 0 230 -150h38l101 477q47 223 -252 223q-117 0 -187 -47.5t-95 -135.5h-205q39 166 168.5 249.5t350.5 83.5q492 -3 414 -373l-204 -961q-111 -522 -588 -522q-514 0 -391 581zM497 598q-93 -434 218 -434q266 0 345 373q101 479 -184 479 q-291 0 -379 -418z" />
<glyph unicode="&#x10dc;" horiz-adv-x="1328" d="M305 568l204 961q65 311 401 311h508l-33 -154h-508q-143 -3 -174 -149l-102 -479h53q111 155 278 155q503 0 375 -597q-131 -601 -629 -601q-490 0 -373 553zM501 568q-85 -403 207 -402q295 -1 391 450q93 442 -202 442q-291 0 -396 -490z" />
<glyph unicode="&#x10dd;" horiz-adv-x="1971" d="M306 688q120 565 580 565q272 0 308 -232h35q154 232 411 232q456 0 336 -565q-88 -409 -458 -681h-191q189 196 299.5 365.5t141.5 315.5q88 415 -162 415q-290 0 -366 -361l-57 -217h-155q10 57 17 108.5t17 108.5q76 361 -210 361q-246 0 -334 -415q-65 -278 137 -681 h-193q-243 273 -156 681z" />
<glyph unicode="&#x10de;" horiz-adv-x="1306" d="M270 504q28 135 97 229q44 -16 84.5 -30.5t84.5 -29.5q-44 -73 -64 -167q-36 -172 17 -257t199 -85q292 0 385 436q81 383 -243 383h-111l31 142h136q250 0 306 252q22 103 -31 166t-177 85q-107 22 -158.5 82.5t-38.5 151.5h201q-2 -44 55 -82t173 -68q233 -63 175 -337 q-51 -236 -321 -312l-8 -38q291 -89 221 -425q-125 -585 -626 -585q-492 0 -387 489z" />
<glyph unicode="&#x10df;" horiz-adv-x="1328" d="M147 -71h212q-54 -274 212 -274q310 0 380 334l234 1099l-500 -65l-11 -52q230 -106 171 -387q-75 -354 -634 -358l38 179q193 2 300 46t126 133q68 320 -296 436l24 112q258 38 512 77t512 77l-276 -1299q-101 -480 -604 -480q-485 0 -400 422z" />
<glyph unicode="&#x10e0;" horiz-adv-x="1994" d="M312 719q74 334 383 667q152 165 431 296t680 228l10 -172q-407 -72 -679 -199.5t-406 -310.5l-10 -43l179 68q254 -1 292 -270h40q162 270 416 270q470 0 356 -534q-90 -426 -456 -714h-205q199 214 311 390.5t143 323.5q81 384 -189 384q-278 0 -359 -380l-46 -150 h-151q6 40 9 75t8 75q83 380 -193 380q-273 0 -355 -384q-30 -144 6 -322t141 -392h-204q-242 288 -152 714z" />
<glyph unicode="&#x10e1;" horiz-adv-x="1328" d="M316 626l255 1201h203l-255 -1201q-104 -462 204 -462q280 0 379 462q28 133 17 224t-64 141q-96 93 -81 162q36 169 233 286l66 -139q-63 -28 -93.5 -54.5t-36.5 -52.5q-15 -72 107 -193q114 -118 60 -374q-131 -611 -618 -611q-507 0 -376 611z" />
<glyph unicode="&#x10e2;" horiz-adv-x="1664" d="M241 378q163 772 798 822l68 407h156l-107 -411q608 -45 441 -826q-185 -863 -857 -863q-685 0 -499 871zM445 378q-154 -723 322 -723t630 723q131 619 -264 710q-30 -161 -60 -327t-59 -327h-156l156 652q-438 -89 -569 -708z" />
<glyph unicode="&#x10e3;" horiz-adv-x="1376" d="M212 -21q41 194 132 336q45 -20 85.5 -36t84.5 -36q-32 -54 -56.5 -120t-41.5 -144q-69 -324 214 -324q308 0 377 324l170 799q67 325 -120 325q-168 0 -227 -275l-63 -235h-140q11 61 19 117t19 118q59 275 -144 275h-124l32 150h116q209 0 230 -184h39q124 184 290 184 q366 0 266 -475l-170 -799q-104 -472 -601 -472q-488 0 -387 472z" />
<glyph unicode="&#x10e4;" horiz-adv-x="1973" d="M304 678q122 575 608 575q278 0 316 -249h37q140 239 402 239q429 0 330 -465q-68 -314 -330 -407l-8 -40q203 -53 157 -270l-35 -168q-83 -386 -698 -386q-566 0 -509 305h202q-24 -157 338 -157q408 0 459 238l35 164q43 209 -84 209h-113l35 164h113q154 0 228 348 q69 313 -153 313q-255 0 -325 -332l-22 -105q-116 -537 -607 -537q-495 0 -376 561zM516 678q-88 -410 186 -410q310 0 392 386q95 446 -215 446q-274 0 -363 -422z" />
<glyph unicode="&#x10e5;" horiz-adv-x="1328" d="M158 -21q13 60 31 106t45 84l184 -54q-35 -58 -53 -136q-69 -324 215 -324q303 0 371 324l145 684q95 437 -209 437q-261 5 -315 -253q-17 -73 8 -153q-48 -18 -90 -33.5t-89 -34.5q-38 81 -8 221q85 406 534 406q176 0 233 -128h37l149 702h198l-393 -1848 q-101 -472 -602 -472q-492 0 -391 472z" />
<glyph unicode="&#x10e6;" horiz-adv-x="1971" d="M300 663q128 590 590 590q251 0 306 -232h39q144 232 380 232q481 0 371 -517l-1 -4q-65 -306 -321 -508q-30 20 -59.5 40t-58.5 40q91 87 149.5 194.5t86.5 237.5q76 367 -193 367q-272 0 -344 -340l-74 -294h-155q14 76 25.5 147t25.5 147q72 340 -209 340 q-254 0 -349 -440q-65 -306 54 -505.5t409 -287.5q199 -67 293 -159t74 -208h-193q15 137 -289 227q-41 9 -83 9q-81 0 -175.5 -39t-192.5 -111l-60 134q96 93 213 120l9 43q-377 253 -268 777z" />
<glyph unicode="&#x10e7;" horiz-adv-x="1328" d="M156 -32h209q-63 -313 215 -313q306 0 375 324l59 278h-38q-88 -118 -293 -118q-491 0 -369 574q62 287 372 539l163 -63q-141 -116 -221.5 -234t-106.5 -242q-89 -416 196 -416q305 0 368 294l131 618h196l-263 -1239q-98 -463 -600 -463q-488 0 -393 461z" />
<glyph unicode="&#x10e8;" horiz-adv-x="1325" d="M291 605q120 564 611 564q176 0 233 -157h38l99 469q54 250 -130 250q-167 0 -218 -235l-6 -32h-169l7 34q49 233 -114 233q-20 -7 -48 -16.5t-51 -16.5l37 170h107q136 0 173 -187h40q111 187 298 187q352 0 270 -387l-189 -890q-122 -576 -572 -576q-539 0 -416 590z M498 605q-96 -441 240 -441q248 0 339 427q90 424 -208 424q-284 0 -371 -410z" />
<glyph unicode="&#x10e9;" horiz-adv-x="1325" d="M188 15l303 1429q90 424 503 424q415 0 337 -366q-22 -111 -143 -272l1 -14q212 -136 139 -482q-51 -238 -147 -421t-242 -318q-49 4 -95 9t-96 10q277 264 375 720q78 369 -198 369q-313 -3 -395 -390l-148 -698h-194zM612 1099h53q110 154 403 154q64 137 83 226 q51 242 -185 242q-223 0 -284 -295z" />
<glyph unicode="&#x10ea;" horiz-adv-x="1447" d="M194 155l66 308q56 263 136.5 463.5t185.5 343.5q42 -22 81 -41t81 -41q-77 -82 -143 -244.5t-118 -406.5l-82 -382q-105 -500 265 -500q363 0 441 377q67 310 -137 310h-174l31 144h165q184 0 244 290q34 151 -94 211q-63 26 -86.5 87t-5.5 155h198q-28 -148 74 -203 q143 -65 105 -244q-51 -238 -277 -344l-9 -39q225 -75 155 -404q-105 -488 -664 -488q-575 0 -438 648z" />
<glyph unicode="&#x10eb;" horiz-adv-x="1328" d="M294 618q135 635 626 635q206 0 237 -136h38l151 710h196l-255 -1199q-129 -613 -630 -613q-491 0 -363 603zM501 618q-97 -454 187 -454q294 0 393 464q99 475 -193 475q-284 0 -387 -485z" />
<glyph unicode="&#x10ec;" horiz-adv-x="1328" d="M300 554l207 975q73 339 381 339q237 0 268 -181h37q115 181 256 181h125l-37 -172l-103 35q-165 0 -218 -245l-6 -30h-168l6 27q53 248 -173 248q-131 0 -174 -202l-110 -519h50q103 159 294 159q489 0 372 -557q-128 -597 -619 -597q-502 0 -388 539zM505 554 q-82 -388 215 -388q281 0 377 446q85 403 -195 403q-298 0 -397 -461z" />
<glyph unicode="&#x10ed;" horiz-adv-x="1348" d="M194.5 -217.5q-14.5 88.5 5.5 202.5q13 52 48.5 108.5t95.5 116.5l130 -112q-24 -22 -41 -52.5t-25 -66.5q-69 -324 217 -324q293 0 361 330q20 93 -9.5 174t-93.5 140q-50 66 -69.5 135.5t-6.5 139.5l104 493h-237q-35 0 -64 -19.5t-51 -49t-36.5 -63.5t-20.5 -63 q-6 -30 -7 -66.5t8 -68t29.5 -53t55.5 -21.5h17l-23 -108h-37q-60 0 -103 27.5t-68.5 71t-32.5 97.5t4 108t42 112t76 107t101 80.5t116 31.5h257l136 637h168l-134 -637h224l-24 -123h-226l-104 -492q-15 -110 121 -240q145 -120 94 -350q-101 -478 -598 -478 q-120 0 -204 32t-132.5 93.5t-63 150z" />
<glyph unicode="&#x10ee;" horiz-adv-x="1325" d="M318 636l253 1191h203l-156 -732h50q128 158 283 158q488 0 358 -617q-134 -621 -621 -621q-502 0 -370 621zM531 636q-100 -472 187 -470q284 0 386 470q97 464 -192 464q-282 0 -381 -464z" />
<glyph unicode="&#x10ef;" horiz-adv-x="1306" d="M159 -15q20 94 62.5 174.5t110.5 151.5q35 -24 68 -49t68 -48q-36 -50 -61 -108t-39 -121q-69 -330 212 -330q296 0 368 340q26 125 0 229t-102 192q-76 86 -103 176.5t-7 187.5l37 172q-87 31 -176 63.5t-176 62.5l41 196l350 -138l75 352h154l-81 -382q100 -33 201 -68 t201 -68l-41 -192l-401 142l-30 -140q-32 -152 145 -339q175 -182 113 -476q-98 -458 -599 -458q-491 0 -390 478z" />
<glyph unicode="&#x10f0;" horiz-adv-x="1304" d="M270 506l24 112h212l-24 -112q-75 -342 206 -342q295 0 351 266q46 219 -94 219h-210l34 159h210q130 0 164 158q33 149 -98 149h-210l34 162h208q118 0 156 171q24 110 -236 152q-261 34 -217 268h204q-15 -120 236 -153q267 -30 215 -271q-34 -160 -219 -217l-8 -41 q171 -65 137 -222q-30 -144 -224 -215l-8 -36q167 -115 134 -273q-90 -425 -581 -425q-500 0 -396 491z" />
<glyph unicode="&#x10f1;" horiz-adv-x="1395" d="M176 63q17 82 41 171t52 177.5t58 173.5t60 159q19 45 36.5 98.5t28.5 104.5q21 99 25 213.5t-8 233.5h200q22 -216 -25 -440q-11 -51 -25 -102t-33 -105v1q-55 -135 -105.5 -305.5t-96.5 -379.5q-84 -408 282 -408q314 0 353 200q53 252 -81 254h-152l32 151h152 q135 0 171 170q43 208 -89 208h-154l31 146h154q133 0 175 198q36 168 -99 168h-152l32 153h152q135 0 174 183q11 53 -32 90.5t-131 57.5q-73 21 -104 80.5t-14 153.5h180q-8 -90 167 -153q167 -54 130 -229q-40 -193 -265 -235l-8 -38q205 -48 166 -231 q-45 -217 -268 -251l-9 -42q205 -46 160 -259q-37 -169 -263 -225l-9 -41q201 -69 150 -309q-75 -348 -580 -348q-578 0 -459 556z" />
<glyph unicode="&#x10f2;" horiz-adv-x="1287" d="M147 -297l48 223q85 2 152.5 31.5t112.5 86.5q-122 100 -163 245t-3 329q34 144 90.5 257.5t134 192t175.5 120t216 41.5q484 0 355 -611q-80 -373 -422 -574q55 -122 221 -118l-48 -223q-121 42 -209.5 119t-154.5 193q-116 -113 -243.5 -191t-261.5 -121zM496 618 q-81 -381 181 -484q308 104 384 484q103 463 -190 463q-140 0 -232.5 -114.5t-142.5 -348.5z" />
<glyph unicode="&#x10f3;" horiz-adv-x="1287" d="M159 -18q15 30 29 59.5t30 60.5l188 -21l-44 -93q-67 -326 215 -326q280 0 349 323l7 32q78 367 -260 363h-124l36 168h124q302 0 393 434l19 98l-504 -37l-51 -241h-185l84 393l929 32q-59 -267 -182.5 -456.5t-314.5 -301.5q308 -137 240 -452l-7 -32 q-99 -469 -592 -470q-479 0 -379 467z" />
<glyph unicode="&#x10f4;" horiz-adv-x="1287" d="M157 -25h202q-61 -313 216 -313q282 0 351 323l14 64q62 287 -227 287h-173l34 162h173q296 16 405 529q-130 -49 -293 -49q-489 -5 -402 408q95 445 574 448l-31 -148q-328 -5 -391 -300q-55 -259 279 -259q118 0 247 46.5t277 140.5l-62 -291q-95 -460 -440 -581 l-8 -41q304 -72 244 -352l-14 -64q-99 -470 -587 -470q-242 0 -338.5 114t-49.5 346z" />
<glyph unicode="&#x10f5;" horiz-adv-x="1419" d="M248 400q83 393 559 394h290l54 253h-290q-477 0 -391 399q83 388 566 388q487 0 404 -388l-53 -247h134l-32 -152h-134l-54 -253h134l-40 -190h-134l-43 -204q-83 -385 -571 -385q-482 0 -399 385zM450 407q-52 -247 230 -247q283 0 338 259l46 220h-290 q-275 0 -324 -232zM670 1444q-51 -245 223 -245h290l53 247q51 240 -232 240q-282 0 -334 -242z" />
<glyph unicode="&#x10f6;" horiz-adv-x="2037" d="M295 636q125 591 611 593q266 0 318 -236h37q142 236 407 236q485 0 359 -593q-131 -621 -617 -621q-151 0 -207 140h-41l-42 -198q-92 -435 -567 -440l31 147q137 2 219 74.5t113 216.5l145 681q94 445 -187 445q-284 0 -378 -445q-90 -422 204 -428l-33 -153 q-494 8 -372 581zM1226 452q-63 -292 215 -292t380 476q94 445 -189 445q-273 0 -360 -411z" />
<glyph unicode="&#x10f7;" horiz-adv-x="1494" d="M163 5q92 432 497 564v-1q420 124 453 281q49 232 -142 232q-224 0 -267 -198l-7 -58q-48 -6 -89.5 -11t-89.5 -11l1 68q77 358 484 358q391 0 307 -395q-52 -243 -475 -395l2 1q-401 -96 -471 -427q-74 -351 304 -351q397 0 474 357q29 140 -26 207l187 98 q42 -62 51.5 -140.5t-10.5 -178.5q-54 -245 -230.5 -366.5t-482.5 -121.5q-287 0 -404.5 121.5t-65.5 366.5z" />
<glyph unicode="&#x10f8;" horiz-adv-x="1287" d="M157 -27l261 1228h207l-139 -653q-51 -236 243 -236q273 0 351 368q31 147 -6 273t-140 229q27 10 50.5 18t46.5 16t46.5 16t49.5 17q108 -131 146.5 -272.5t6.5 -296.5q-113 -529 -585 -529q-177 0 -232 103h-40l-58 -275q-70 -317 226 -317q269 0 338 306h200 q-52 -227 -195 -339t-378 -112q-497 0 -399 456z" />
<glyph unicode="&#x10f9;" horiz-adv-x="1395" d="M293 -127q56 265 386 370q-439 112 -358 493q107 511 654 511q535 -2 427 -511q-68 -322 -487 -515h1q-382 -146 -422 -335q-48 -224 151 -224q236 0 274 174l17 82h190l-17 -82q-71 -321 -496 -321q-396 0 -320 358zM525 736q-66 -310 266 -357q343 51 408 357 q77 362 -256 362q-341 0 -418 -362z" />
<glyph unicode="&#x10fa;" horiz-adv-x="1393" d="M223 19q48 55 108 89.5t131 49.5l10 49q-237 133 -156 517q53 249 205.5 375t392.5 130q215 -26 306.5 -143t47.5 -325q-13 -62 -36 -128.5t-60 -145.5l-137 67q15 43 26.5 83.5t19.5 76.5q72 337 -197 367q-285 0 -363 -355q-37 -198 1.5 -319.5t143.5 -168.5 q97 -23 170 -75t127 -137l-137 -97q-4 11 -16.5 28.5t-32.5 44.5q-55 73 -174 73q-151 0 -262 -129z" />
<glyph unicode="&#x10fb;" horiz-adv-x="872" d="M114 51l40 185h199l-40 -185h-199zM286 860l39 184h203l-39 -184h-203zM695 479l39 183h194l-39 -183h-194z" />
<glyph unicode="&#x10fc;" horiz-adv-x="653" d="M336 1096l74 348q41 190 236 190h248l-18 -86l-273 2q-71 0 -89 -86l-36 -166l147 84q217 0 156 -286q-63 -299 -289 -301q-220 0 -156 301zM434 1090q-45 -211 76 -211q127 0 173 217q40 188 -92 188q-116 0 -157 -194z" />
<glyph unicode="&#x2000;" horiz-adv-x="998" />
<glyph unicode="&#x2001;" horiz-adv-x="1997" />
<glyph unicode="&#x2002;" horiz-adv-x="998" />
<glyph unicode="&#x2003;" horiz-adv-x="1997" />
<glyph unicode="&#x2004;" horiz-adv-x="665" />
<glyph unicode="&#x2005;" horiz-adv-x="499" />
<glyph unicode="&#x2006;" horiz-adv-x="332" />
<glyph unicode="&#x2007;" horiz-adv-x="332" />
<glyph unicode="&#x2008;" horiz-adv-x="249" />
<glyph unicode="&#x2009;" horiz-adv-x="399" />
<glyph unicode="&#x200a;" horiz-adv-x="110" />
<glyph unicode="&#x200f;" horiz-adv-x="0" />
<glyph unicode="&#x2010;" horiz-adv-x="776" d="M211 504l36 172h568l-36 -172h-568z" />
<glyph unicode="&#x2011;" horiz-adv-x="776" d="M211 504l36 172h568l-36 -172h-568z" />
<glyph unicode="&#x2012;" horiz-adv-x="1368" d="M212 512l33 154h1160l-33 -154h-1160z" />
<glyph unicode="&#x2013;" d="M212 512l33 154h867l-33 -154h-867z" />
<glyph unicode="&#x2014;" horiz-adv-x="2150" d="M212 512l33 154h1942l-33 -154h-1942z" />
<glyph unicode="&#x2015;" horiz-adv-x="2150" d="M108 512l33 154h2150l-33 -154h-2150z" />
<glyph unicode="&#x2016;" d="M164 -508l457 2150h179l-457 -2150h-179zM510 -508l457 2150h179l-457 -2150h-179z" />
<glyph unicode="&#x2017;" d="M-127 -508l32 152h1115l-32 -152h-1115zM-56 -170l32 152h1115l-32 -152h-1115z" />
<glyph unicode="&#x2018;" horiz-adv-x="684" d="M405 1051l39 182l243 336h135l-157 -336l-39 -182h-221z" />
<glyph unicode="&#x2019;" horiz-adv-x="684" d="M414 1073l157 334l34 162h224l-34 -162l-245 -334h-136z" />
<glyph unicode="&#x201a;" horiz-adv-x="684" d="M128 -250l158 336l38 180h221l-38 -180l-244 -336h-135z" />
<glyph unicode="&#x201b;" horiz-adv-x="684" d="M485 1407l34 162h222l-34 -162l17 -334h-138z" />
<glyph unicode="&#x201c;" horiz-adv-x="1114" d="M405 1051l39 182l243 336h135l-157 -336l-39 -182h-221zM835 1051l39 182l243 336h138l-157 -336l-39 -182h-224z" />
<glyph unicode="&#x201d;" horiz-adv-x="1114" d="M405 1051l157 335l39 183h221l-39 -183l-243 -335h-135zM835 1051l157 335l39 183h224l-39 -183l-243 -335h-138z" />
<glyph unicode="&#x201e;" horiz-adv-x="1114" d="M128 -250l158 336l38 180h221l-38 -180l-244 -336h-135zM558 -250l158 336l38 180h224l-38 -180l-244 -336h-138z" />
<glyph unicode="&#x201f;" horiz-adv-x="1114" d="M476 1386l39 183h221l-39 -183l15 -335h-135zM906 1386l39 183h224l-39 -183l15 -335h-138z" />
<glyph unicode="&#x2020;" d="M264 967l34 159h385l94 443h187l-94 -443h385l-34 -159h-385l-249 -1174h-187l249 1174h-385z" />
<glyph unicode="&#x2021;" d="M108 233l34 162h385l122 572h-385l34 159h385l94 443h187l-94 -443h385l-34 -159h-385l-122 -572h385l-34 -162h-385l-93 -440h-187l93 440h-385z" />
<glyph unicode="&#x2022;" horiz-adv-x="1268" d="M492 801q27 129 137 219t243 90q129 0 200 -90t44 -219q-28 -131 -137.5 -222.5t-240.5 -91.5t-202.5 91.5t-43.5 222.5z" />
<glyph unicode="&#x2023;" horiz-adv-x="1268" d="M407 403l168 791l624 -395z" />
<glyph unicode="&#x2024;" horiz-adv-x="719" d="M248 0l56 266h223l-56 -266h-223z" />
<glyph unicode="&#x2025;" horiz-adv-x="1436" d="M248 0l56 266h223l-56 -266h-223zM965 0l56 266h223l-56 -266h-223z" />
<glyph unicode="&#x2026;" horiz-adv-x="2150" d="M248 0l56 266h223l-56 -266h-223zM965 0l56 266h221l-56 -266h-221zM1679 0l56 266h224l-56 -266h-224z" />
<glyph unicode="&#x2027;" horiz-adv-x="684" d="M368 649l58 269h222l-58 -269h-222z" />
<glyph unicode="&#x202a;" horiz-adv-x="0" />
<glyph unicode="&#x202b;" horiz-adv-x="0" />
<glyph unicode="&#x202c;" horiz-adv-x="0" />
<glyph unicode="&#x202d;" horiz-adv-x="0" />
<glyph unicode="&#x202e;" horiz-adv-x="0" />
<glyph unicode="&#x202f;" horiz-adv-x="428" />
<glyph unicode="&#x2032;" horiz-adv-x="487" d="M292 1176l264 393h213l-387 -393h-90z" />
<glyph unicode="&#x2035;" horiz-adv-x="487" d="M376 1569h213l96 -393h-92z" />
<glyph unicode="&#x2039;" horiz-adv-x="860" d="M290 588l19 86l584 438l-43 -201l-374 -280l254 -283l-42 -201z" />
<glyph unicode="&#x203a;" horiz-adv-x="860" d="M234 147l42 201l376 283l-256 280l43 201l398 -438l-19 -86z" />
<glyph unicode="&#x203e;" d="M293 1472l32 152h1115l-32 -152h-1115z" />
<glyph unicode="&#x2043;" d="M374 674l49 231h629l-49 -231h-629z" />
<glyph unicode="&#x2044;" horiz-adv-x="358" d="M-399 -31l1324 1626h168l-1324 -1626h-168z" />
<glyph unicode="&#x204b;" horiz-adv-x="1368" d="M204 -207l377 1776h471q225 0 335.5 -123t67.5 -322q-40 -192 -188 -309t-380 -133l-188 -889h-147l349 1645h-201l-349 -1645h-147z" />
<glyph unicode="&#x204c;" d="M393 784q28 131 137.5 220.5t242.5 89.5l-132 -623h-2q-131 0 -202.5 91t-43.5 222zM766 471l132 623h182l-132 -621z" />
<glyph unicode="&#x204d;" d="M327 473l132 621h185l-132 -623zM635 471l132 623q133 0 204 -89.5t43 -220.5t-137 -222t-240 -91h-2z" />
<glyph unicode="&#x204e;" d="M112 225l421 205l-334 203l84 104l307 -213l84 395h121l-84 -395l397 213l40 -104l-420 -203l333 -205l-84 -102l-306 213l-85 -398h-121l85 398l-398 -213z" />
<glyph unicode="&#x2055;" horiz-adv-x="1802" d="M476 698l36 168h370l-206 264l144 119l206 -264l79 373h168l-79 -373l318 262l94 -117l-318 -264h371l-36 -168h-371l207 -260l-145 -121l-206 265l-79 -371h-168l79 369l-318 -263l-93 121l317 260h-370z" />
<glyph unicode="&#x205f;" horiz-adv-x="499" />
<glyph unicode="&#x20a4;" horiz-adv-x="1303" d="M129 0l36 170h236l68 322h-191l30 143h191l31 143h-199l30 143h199l20 95q56 261 189 382.5t365 121.5q61 0 133 -15.5t145 -44.5l-39 -182q-67 41 -130.5 61.5t-124.5 20.5q-148 0 -222.5 -77.5t-119.5 -289.5l-16 -72h391l-30 -143h-391l-31 -143h399l-30 -143h-399 l-68 -322h557l-36 -170h-993z" />
<glyph unicode="&#x20ac;" horiz-adv-x="1368" d="M116 547l84 129h148q5 22 9.5 48t11.5 58q8 37 14 61.5t11 49.5h-205l85 129h164q100 268 295.5 420.5t443.5 152.5q102 0 191.5 -36.5t163.5 -110.5l-48 -225q-71 110 -150 157t-185 47q-166 0 -293.5 -104t-204.5 -301h606l-85 -129h-565q-7 -27 -12 -50.5t-13 -60.5 q-7 -32 -12.5 -57t-8.5 -49h469l-87 -129h-393q-7 -197 76 -303.5t249 -106.5q106 0 205 47t217 158l-47 -221q-108 -76 -213.5 -114t-205.5 -38q-250 0 -379.5 152.5t-114.5 425.5h-221z" />
<glyph unicode="&#x2116;" horiz-adv-x="2130" d="M54 0l36 170q147 0 169 107l259 1216h272l396 -1249l207 972q27 128 121.5 202.5t280.5 74.5l-36 -170q-147 0 -170 -107l-258 -1216h-272l-397 1249l-207 -972q-27 -128 -121 -202.5t-280 -74.5zM1491 0l26 123h494l-26 -123h-494zM1623 622q29 138 121.5 233.5 t195.5 95.5t154.5 -95.5t22.5 -233.5q-30 -138 -122 -233.5t-195 -95.5t-155 95.5t-22 233.5zM1763 622q-17 -78 0.5 -129.5t67.5 -51.5t89.5 51.5t56.5 129.5q16 78 -1.5 129.5t-67.5 51.5t-89.5 -51.5t-55.5 -129.5z" />
<glyph unicode="&#x2122;" horiz-adv-x="2048" d="M592 1399l20 94h518l-20 -94h-203l-103 -484h-114l103 484h-201zM1120 915l123 578h172l119 -256l219 256h170l-123 -578h-113l103 484l-260 -303h-55l-138 303l-103 -484h-114z" />
<glyph unicode="&#x2190;" horiz-adv-x="1716" d="M226 597l20 90l476 393l95 -120l-283 -233h1219l-36 -170h-1219l183 -233l-145 -120z" />
<glyph unicode="&#x21b2;" horiz-adv-x="1716" d="M423 364l19 90l477 393l94 -120l-282 -233h493l212 999h170l-249 -1169h-663l184 -233l-146 -120z" />
<glyph unicode="&#x21b5;" horiz-adv-x="1716" d="M226 597l20 90l476 393l95 -120l-283 -233h793l118 556h170l-154 -726h-963l183 -233l-145 -120z" />
<glyph unicode="&#x21e7;" horiz-adv-x="1716" d="M570 1036l616 508l400 -508h-273l-220 -1036h-470l220 1036h-273zM744 100h270l220 1036h131l-209 266l-323 -266h131z" />
<glyph unicode="&#x25fc;" horiz-adv-x="1175" d="M0 0v1175h1175v-1175h-1175z" />
<glyph horiz-adv-x="0" />
</font>
</defs>
</svg>
