<?xml version="1.0" standalone="no"?>
<!DOCTYPE svg PUBLIC "-//W3C//DTD SVG 1.1//EN" "http://www.w3.org/Graphics/SVG/1.1/DTD/svg11.dtd" >
<svg xmlns="http://www.w3.org/2000/svg">
<metadata></metadata>
<defs>
<font id="bpg_irubaqidzeregular" horiz-adv-x="1024" >
<font-face units-per-em="2048" ascent="1638" descent="-410" />
<missing-glyph horiz-adv-x="800" />
<glyph unicode=" "  horiz-adv-x="800" />
<glyph unicode="&#x09;" horiz-adv-x="800" />
<glyph unicode="&#xa0;" horiz-adv-x="800" />
<glyph unicode="!" horiz-adv-x="616" d="M189 99q0 49 32.5 79.5t85.5 30.5q51 0 79.5 -28t28.5 -76q0 -22 -9.5 -41t-26 -33.5t-38.5 -22.5t-48 -8q-46 0 -75 28t-29 71zM224 1380q0 21 12.5 33.5t29.5 18.5t34.5 8t26.5 2q67 0 67 -76q0 -59 -33 -305q-16 -122 -24 -228t-8 -199q-4 -16 -4 -36q0 -26 6 -49 t13.5 -43l13.5 -36t6 -28q0 -13 -10 -19.5t-36 -6.5q-23 0 -39.5 13.5t-27 43t-15 76.5t-4.5 113q0 18 1 50.5t2.5 72.5t3 84t3 85t2.5 75t1 55q0 48 -3.5 91.5t-7 82t-7 69.5t-3.5 53z" />
<glyph unicode="&#x22;" horiz-adv-x="678" d="M110 1390q0 82 67 82q32 0 51 -21t19 -59q0 -5 -1.5 -15t-3.5 -22l-61 -417q-17 64 -27 118t-17 103.5t-12 96.5t-13 98q-1 5 -1.5 13.5t-0.5 22.5zM433 1390q0 39 18 60.5t50 21.5t50.5 -21t18.5 -59q0 -8 -1 -17.5t-4 -19.5l-65 -415q-14 57 -23 110t-16 104 t-12.5 100.5t-13.5 100.5v3q-1 8 -1.5 16t-0.5 16z" />
<glyph unicode="#" horiz-adv-x="1139" d="M62 509q0 16 18.5 27t46.5 11h154l98 316h-149q-21 0 -34.5 9.5t-13.5 24.5q0 17 18 27.5t47 10.5h154l137 450q8 26 22.5 42.5t34.5 16.5q28 0 28 -29q0 -6 -3 -19v2l-143 -463h316q33 106 70.5 222t69.5 222l-1 -1q10 27 26.5 44.5t34.5 17.5q9 0 15.5 -4.5t6.5 -12.5 q0 -10 -0.5 -14.5t-2.5 -9.5l-143 -464h160q20 0 31.5 -8t11.5 -22q0 -18 -19.5 -30t-51.5 -12h-156l-96 -316h162q20 0 32 -8.5t12 -22.5q0 -18 -20 -29.5t-52 -11.5h-158q-12 -38 -26 -90t-30.5 -108t-34 -111t-36 -98.5t-37 -70.5t-35.5 -27q-9 0 -15.5 4.5t-6.5 10.5 q0 11 0.5 16t1.5 8l144 466h-316q-32 -106 -68 -222t-68 -222h1q-10 -27 -27 -44t-36 -17q-23 0 -23 15q0 11 0.5 16t1.5 8l144 466h-149q-22 0 -35 9t-13 25zM353 543h320l102 324h-324z" />
<glyph unicode="$" horiz-adv-x="1165" d="M236 89q0 17 4.5 32.5t20.5 39.5q38 -17 84.5 -25.5t109.5 -8.5q150 0 232 63t82 178q0 39 -8 68t-31.5 60t-67 69t-114.5 95q-275 206 -275 353q0 48 25.5 101.5t67.5 104.5t96 94.5t112 72.5q-2 50 -4 111.5t-2 115.5q0 47 12.5 67.5t38.5 20.5q24 0 51 -19 q-9 -32 -15.5 -96.5t-12.5 -172.5q56 14 94.5 19.5t65.5 5.5q139 0 139 -64q0 -32 -33 -83q-83 28 -169 28q-76 0 -138 -18t-105.5 -51t-67.5 -79.5t-24 -104.5q0 -36 18 -75.5t51 -81.5t79.5 -85.5t104.5 -86.5h-1q48 -38 91.5 -81t77 -87.5t53.5 -87t20 -78.5 q0 -103 -70 -193t-207 -160q8 -49 11 -82t3 -56q0 -52 -2.5 -87.5t-8.5 -57t-15.5 -31t-22.5 -9.5q-17 0 -32 5.5t-32 19.5q17 42 23 104.5t8 156.5l-43 -2q-35 -5 -61 -8t-41 -3q-85 0 -128.5 22.5t-43.5 66.5z" />
<glyph unicode="%" horiz-adv-x="2034" d="M84 1009q0 99 26 178t73 134.5t114 85t148 29.5q165 0 252.5 -95.5t87.5 -276.5q0 -97 -27 -178t-75.5 -139t-116.5 -90.5t-150 -32.5q-75 0 -136.5 28t-105 78.5t-67 121.5t-23.5 157zM176 1033q0 -163 65.5 -252t184.5 -89q128 0 198 96t70 270q0 153 -66 236t-186 83 q-131 0 -198.5 -88t-67.5 -256zM611 20q0 7 18 44t48 93.5t69 127.5t80.5 145.5t82.5 147.5t75 133.5t58.5 104t32.5 58.5q64 119 111 226.5t82.5 188.5t61 128.5t47.5 47.5q73 0 73 -52q0 -7 -18 -44t-48.5 -93.5t-69.5 -128t-80.5 -146.5t-83 -149t-76 -135.5t-59 -106 t-33.5 -60.5l-227 -546q-17 -22 -34 -28t-22 -6q-46 0 -67 12t-21 38zM1269 383q0 98 26 177.5t73.5 135.5t114.5 86t148 30q165 0 253 -96t88 -277q0 -95 -27 -175.5t-75.5 -139t-117 -91.5t-151.5 -33q-76 0 -137 28t-104.5 79t-67 121.5t-23.5 154.5zM1360 409 q0 -162 65.5 -251.5t183.5 -89.5q64 0 114.5 24.5t85.5 71.5t53.5 115t18.5 155q0 152 -66 234t-186 82q-131 0 -200 -87.5t-69 -253.5z" />
<glyph unicode="&#x26;" horiz-adv-x="1436" d="M82 377q0 149 89 268.5t265 206.5q-29 67 -43 122t-14 106q0 85 28.5 153t80.5 114.5t126 71.5t165 25q50 0 93.5 -8t75.5 -23t50.5 -35.5t18.5 -44.5q0 -42 -53 -74q-88 92 -214 92q-57 0 -103.5 -19t-79 -54t-50 -86t-17.5 -114q0 -76 30.5 -159t93.5 -174.5 t159.5 -193.5t227.5 -216q27 27 42 64t24 76.5t15.5 77.5t15.5 68t25 48.5t44 18.5q62 0 62 -50q0 -48 -38.5 -137.5t-117.5 -226.5q70 -55 132.5 -84t109.5 -48.5t75 -36.5t28 -47q0 -33 -18 -53t-48 -20q-51 0 -134 47.5t-186 137.5l-43 -1q-38 -37 -96.5 -73t-122.5 -64 t-127.5 -45t-112.5 -17q-105 0 -189.5 28t-144 81t-92 128t-32.5 170zM199 403q0 -77 27.5 -139.5t77 -106.5t118 -67.5t150.5 -23.5q104 0 190 39t160 120l-3 45q-259 219 -446 507q-134 -67 -204 -163t-70 -211z" />
<glyph unicode="'" horiz-adv-x="369" d="M117 1390q0 82 67 82q32 0 51 -21t19 -59q1 -5 -1 -15t-4 -22l-57 -415q0 40 -11.5 98.5t-26 121.5t-26 123.5t-11.5 106.5z" />
<glyph unicode="(" horiz-adv-x="721" d="M217 576q0 117 17 228.5t50 220.5q15 51 36.5 104.5t47 104t53.5 94.5t57 77.5t57.5 52.5t53.5 19q47 0 88 -64q-165 -117 -256 -333q-97 -232 -97 -540q0 -210 43.5 -400.5t126.5 -350.5q9 -17 24.5 -43t29.5 -52t24.5 -46t10.5 -24q0 -13 -9 -13q-21 0 -45 27.5 t-48 65.5v-1q-66 98 -115.5 200.5t-79.5 192.5q-32 109 -50.5 231t-18.5 249z" />
<glyph unicode=")" horiz-adv-x="721" d="M87 -333q0 21 12 45.5t31.5 52t43 57.5t47 61t44.5 62t34 61q49 116 72.5 251t24.5 291q0 195 -38.5 375.5t-110.5 328.5q-10 20 -28 54t-36 67.5t-31.5 59.5t-13.5 30q0 14 9 14q14 0 34 -17.5t41 -46.5q143 -202 212.5 -423.5t69.5 -478.5q0 -224 -62 -434 q-16 -53 -38 -108t-47.5 -107t-54.5 -97.5t-58 -79.5t-57.5 -54t-54.5 -20q-24 11 -34.5 25t-10.5 31z" />
<glyph unicode="*" d="M133 1204q0 21 15.5 34.5t38.5 13.5q16 0 37 -8t45 -23t49.5 -36t50.5 -47v1q15 -17 23.5 -31t8.5 -22q0 -19 -30 -19q-8 0 -28.5 4.5t-47 13t-55 21t-52.5 27.5t-39.5 33t-15.5 38zM212 768q0 53 120 144q25 19 46.5 30t33.5 11l18 -20q0 -11 -8 -31t-21.5 -44t-31 -49 t-36 -45t-37.5 -33t-35 -13q-21 0 -35 14t-14 36zM451 1378q0 43 16.5 68.5t44.5 25.5l47 -31l13 -57q-5 -97 -21 -152t-39 -55q-11 0 -22 17t-19.5 45t-14 64t-5.5 75zM592 931q0 8 6 14t14 6q21 0 57.5 -27t89.5 -77q23 -23 36.5 -44.5t13.5 -40.5q0 -20 -13 -33t-34 -13 q-18 0 -37.5 13t-38.5 33.5t-36 45.5t-30 49t-20.5 44t-7.5 30zM625 1084q0 8 8.5 21.5t25.5 31.5v-1q51 54 98.5 83.5t81.5 29.5q24 0 39 -14t15 -35t-16.5 -40.5t-51.5 -39.5h1q-23 -12 -46.5 -23t-45.5 -18.5t-41.5 -12t-33.5 -4.5q-34 0 -34 22z" />
<glyph unicode="+" horiz-adv-x="1378" d="M89 605q0 23 17.5 35.5t49.5 12.5h486v495q0 32 12 50t34 18q20 0 34 -19t14 -46v-498h488q28 0 46.5 -14t18.5 -34q0 -21 -17.5 -34t-49.5 -13h-486v-495q0 -32 -12.5 -49.5t-35.5 -17.5q-19 0 -32.5 18t-13.5 44v500h-488q-28 0 -46.5 13.5t-18.5 33.5z" />
<glyph unicode="," horiz-adv-x="584" d="M147 105q0 42 29.5 68.5t76.5 26.5q74 0 117.5 -49t43.5 -131q0 -40 -22.5 -79.5t-55 -75.5t-69 -67t-63.5 -54l-15 21q23 26 46 61t34 64q7 17 13.5 37.5t6 39.5t-11.5 34t-41 20q-29 5 -46 12t-27 17.5t-13 24t-3 30.5z" />
<glyph unicode="-" horiz-adv-x="702" d="M78 354q7 24 23.5 48t39.5 42.5t50.5 30t57.5 11.5q13 0 46 -2.5t71 -6t75 -6t59 -2.5q9 0 26 3.5t35 8t34.5 9t25.5 6.5l1 -4q1 -5 1 -7v-3q0 -27 -14.5 -49.5t-38 -39t-52.5 -26t-59 -9.5q-16 0 -48 3t-68 6.5t-69.5 6.5t-52.5 3q-8 0 -23 -5l-31.5 -10.5t-32.5 -10.5 t-25 -5q-8 0 -15.5 1.5t-15.5 6.5z" />
<glyph unicode="." horiz-adv-x="584" d="M170 87q0 48 33.5 78.5t87.5 30.5q49 0 77.5 -27.5t28.5 -75.5q0 -22 -9.5 -41t-26 -33.5t-39 -23t-48.5 -8.5q-46 0 -75 27.5t-29 72.5z" />
<glyph unicode="/" horiz-adv-x="758" d="M-40 -190q0 9 4 21t18 42l657 1486v-1l3 6q36 80 93 80q11 0 17.5 -2t6.5 -5q0 -6 -5.5 -20t-19.5 -45l-655 -1485q-13 -32 -23 -49t-19.5 -25t-21.5 -9.5t-29 -1.5q-26 0 -26 8z" />
<glyph unicode="0" horiz-adv-x="1204" d="M80 666q0 178 37 321t107.5 243t172 154t229.5 54q121 0 213.5 -45.5t155.5 -131.5t95 -211t32 -284q0 -174 -39 -319.5t-110 -251t-171 -164.5t-221 -59q-115 0 -207.5 50.5t-158 142t-100.5 219.5t-35 282zM214 699q0 -150 25 -267.5t73.5 -197.5t119 -122t160.5 -42 q95 0 169.5 46t125.5 134t78 215t27 289q0 289 -97.5 439.5t-286.5 150.5q-95 0 -168 -42.5t-123.5 -124t-76.5 -202t-26 -276.5z" />
<glyph unicode="1" horiz-adv-x="815" d="M144 1276q0 31 15 78q48 10 102 25.5t101 29t81 23.5t40 10q19 0 26 -15t7 -59q0 -8 -1.5 -30.5t-4.5 -63.5q-24 -356 -24 -694q0 -274 12 -392q5 -49 11.5 -94t13.5 -83q-17 -8 -31 -10.5t-28 -2.5q-36 0 -59.5 0.5t-36.5 10t-18 31.5t-5 65q0 7 1 47.5t2.5 101.5 t4 137.5t4.5 157t4.5 159t4 143.5t2.5 111t1 61q0 39 -1 80t-3 80.5t-4 74t-4 59.5l-72 -28q-55 -21 -84 -34t-35 -11q-22 0 -22 32z" />
<glyph unicode="2" horiz-adv-x="1165" d="M79 71q0 93 206 242h-1q29 21 53.5 38.5t41.5 30.5q120 92 210.5 177t147.5 160q118 157 118 306q0 68 -25.5 124.5t-69.5 96.5t-105 62t-131 22q-109 0 -188.5 -48.5t-139.5 -151.5q-23 20 -34 42t-11 45q0 47 29.5 89t81 73.5t120.5 49.5t148 18q102 0 186.5 -29.5 t145.5 -83.5t94.5 -129t33.5 -165q0 -95 -43 -192.5t-130 -201.5q-88 -106 -248 -234.5t-392 -286.5q54 -5 104 -7.5t89.5 -3.5t65 -1h28.5q187 0 310.5 15t197.5 46q9 -26 11.5 -44.5t2.5 -38.5q0 -54 -29 -71v1q-37 -23 -144 -23q-27 0 -67.5 0.5t-87.5 2t-96.5 2.5 t-94 2.5t-80.5 2t-55 0.5q-40 0 -73.5 1t-65.5 1q-22 0 -42.5 -1t-41.5 -3q-10 20 -20 34t-10 31z" />
<glyph unicode="3" horiz-adv-x="1165" d="M148 61q0 8 0.5 22t4.5 28.5t11.5 25.5t21.5 13q92 -61 228 -61q91 0 167.5 24t132 66t87 99t31.5 123q0 68 -25.5 115.5t-79 80.5t-135.5 53.5t-195 33.5q-97 8 -97 35q0 14 9.5 21.5t28.5 13.5t48 13t68 20q108 36 177 67.5t109 65.5t55.5 73.5t15.5 92.5 q0 54 -21.5 98t-61 74.5t-95 47.5t-123.5 17q-79 0 -143.5 -24t-118.5 -75q-38 33 -38 70q0 31 23.5 58t65.5 47t99 31.5t125 11.5q96 0 174 -24.5t133.5 -67.5t86 -103t30.5 -130q0 -62 -23.5 -115t-68 -96t-109.5 -75t-148 -50v-55q189 -39 279.5 -116.5t90.5 -200.5 q0 -93 -47 -173t-130 -139t-195.5 -93t-242.5 -34q-205 0 -205 91z" />
<glyph unicode="4" horiz-adv-x="1165" d="M49 493q0 75 268 382q76 88 134 154.5t98 115.5v-1q126 147 199.5 221.5t111.5 74.5q14 0 20 -14t6 -56q0 -6 -0.5 -29.5t-4.5 -56.5q-13 -180 -19 -355.5t-6 -348.5v-78q160 0 245 29q11 -29 11 -54q0 -42 -30 -59.5t-102 -17.5q-17 0 -48.5 2t-73.5 2q0 -26 1 -60 t1.5 -70t1.5 -71t1.5 -64t1 -49t0.5 -25q0 -54 -12.5 -74.5t-41.5 -20.5q-23 0 -49.5 8t-63.5 25q22 58 34 150.5t13 223.5l-31 31q-43 0 -92 0.5t-99 1.5t-99 1.5t-92 0.5q-88 0 -147 -3t-97 -11q-39 48 -39 95zM182 556q0 -18 7 -30.5t23 -20t42.5 -11t66.5 -3.5 q25 0 43.5 0.5l37 1t40.5 1.5t52.5 1.5t74 1t104.5 0.5h26.5t21.5 1l29 30q3 128 4.5 254t1.5 249v251q-37 -47 -84.5 -106.5t-99 -123t-103.5 -126t-98 -116.5q-189 -221 -189 -254z" />
<glyph unicode="5" horiz-adv-x="1165" d="M114 77q0 17 9.5 41t29.5 55q91 -69 225 -69q103 0 190.5 31.5t151 86.5t99 129t35.5 160q0 70 -23.5 126t-67.5 94t-108 58.5t-145 20.5q-37 0 -85 -6t-92 -13.5t-76 -13.5t-35 -6q-27 0 -27 27q0 -2 6 27t16 77.5t23.5 112.5t27.5 132.5t28.5 137t26.5 125.5 q41 -3 73.5 -4.5t60 -2t53 -1t52.5 -0.5q136 0 234 10.5t161 29.5q16 -33 16 -62q0 -46 -35 -64h1q-23 -10 -77.5 -15.5t-145.5 -5.5q-34 0 -73.5 0.5t-81 1.5t-83.5 2.5t-81 3.5q-5 -29 -14.5 -77t-21 -106.5t-24.5 -122t-25 -122.5q86 17 145.5 24t97.5 7 q98 0 177.5 -25.5t135.5 -73.5t86.5 -116.5t30.5 -155.5t-26.5 -161.5t-73 -135.5t-109 -108t-135 -79.5t-151 -49t-155.5 -16.5q-105 0 -163 25t-58 67z" />
<glyph unicode="6" horiz-adv-x="1165" d="M104 497q0 258 107 478q54 111 126.5 198.5t166.5 155.5h-1q37 25 78.5 47.5t81 39t75.5 26t62 9.5q67 0 67 -57q0 -18 -5 -46q-248 -27 -402 -182t-208 -434l54 -28q66 73 153.5 108t196.5 35q93 0 167.5 -27t126 -78.5t79.5 -125.5t28 -168q0 -104 -36.5 -191.5 t-102.5 -150.5t-157 -98.5t-199 -35.5q-111 0 -196.5 35.5t-143.5 103t-88 165t-30 221.5zM237 454q0 -186 86.5 -285t247.5 -99q81 0 148 26t114 74t73 117.5t26 156.5q0 153 -83 234t-240 81q-112 0 -198 -39t-159 -123l-7 -17q-4 -29 -6 -59.5t-2 -66.5z" />
<glyph unicode="7" horiz-adv-x="1165" d="M146 1354q0 34 24 47t88 13h4q9 -1 38 -1.5t71.5 -2t95 -2.5t107.5 -2t110 -1.5t102 -0.5q85 0 145.5 6.5t109.5 21.5q11 -20 15 -37.5t4 -36.5q0 -67 -144 -305q-34 -57 -66.5 -113.5t-62 -109.5t-55 -100.5t-44.5 -86.5q-111 -221 -164.5 -376.5t-53.5 -255.5 q0 -2 1.5 -10t1.5 -10q-31 -9 -53.5 -14t-35.5 -5q-77 0 -77 70q0 46 26.5 125.5t80.5 191.5q28 58 76 148.5t114 208.5t147.5 261t176.5 306q-83 8 -163 11t-173 3q-148 0 -253 -11.5t-154 -22.5q-14 7 -21.5 17.5t-11.5 23t-5 25.5t-1 25z" />
<glyph unicode="8" horiz-adv-x="1165" d="M134 326q0 118 83.5 212t249.5 162q-156 70 -234 160.5t-78 205.5q0 85 34 155.5t95 120.5t146.5 77.5t187.5 27.5q93 0 169 -24t130 -68t83 -107.5t29 -141.5q0 -242 -288 -356l2 -59q146 -44 215 -118.5t69 -189.5q0 -90 -34 -166.5t-96 -132t-149 -87t-192 -31.5 q-94 0 -172 25.5t-133.5 72.5t-86 113.5t-30.5 148.5zM255 342q0 -63 23 -114.5t65 -88.5t100.5 -57t129.5 -20q74 0 136 23.5t106.5 64.5t69.5 97t25 121q0 55 -19 100t-62.5 82.5t-114.5 69t-176 60.5l-21 -2q-135 -60 -198.5 -140.5t-63.5 -195.5zM276 1064 q0 -119 79.5 -197.5t234.5 -120.5l18 1q152 51 229 135.5t77 199.5q0 62 -21.5 112t-61 85.5t-97 54.5t-129.5 19q-74 0 -134.5 -21t-104 -59.5t-67 -91.5t-23.5 -117z" />
<glyph unicode="9" horiz-adv-x="1165" d="M104 976q0 107 35 193.5t99 147.5t155 94t202 33q110 0 195.5 -36t144 -105.5t88.5 -170t30 -229.5q0 -259 -100 -474q-101 -212 -283 -343h1q-36 -27 -79.5 -49.5t-88.5 -39.5t-87.5 -26.5t-75.5 -9.5q-77 0 -77 61q0 4 6 14t37 23q211 0 380 172q41 42 77 98.5t66 122 t52.5 135.5t36.5 139l-54 -47q-30 -33 -69 -55.5t-85 -36t-97.5 -19t-105.5 -5.5q-94 0 -169 27.5t-127 80.5t-79.5 130t-27.5 175zM229 986q0 -161 84 -246t243 -85q200 0 357 172l8 15q3 15 4 34t1 57q0 208 -86.5 313t-257.5 105q-79 0 -144 -25t-111.5 -72t-72 -114.5 t-25.5 -153.5z" />
<glyph unicode=":" horiz-adv-x="631" d="M187 87q0 48 33 78.5t87 30.5q49 0 77.5 -27.5t28.5 -75.5q0 -22 -9.5 -41.5t-26 -33.5t-39 -22.5t-48.5 -8.5q-45 0 -74 27.5t-29 72.5zM197 633q0 50 33.5 79.5t87.5 29.5q49 0 77.5 -27.5t28.5 -75.5q0 -45 -34.5 -75t-88.5 -30q-46 0 -75 27.5t-29 71.5z" />
<glyph unicode=";" horiz-adv-x="631" d="M171 105q0 42 29.5 67.5t77.5 25.5q35 0 64.5 -13t51 -37t33.5 -56.5t12 -71.5q-4 -39 -15 -73.5t-27 -65t-35 -56.5t-39 -46q1 23 5.5 45.5t8.5 42t7.5 34.5t3.5 23q0 22 -3 37.5t-12.5 27t-27 19.5t-46.5 14q-26 4 -43 11.5t-27 18t-14 23.5t-4 30zM191 633 q0 50 33 79.5t87 29.5q49 0 77.5 -27.5t28.5 -75.5q0 -22 -9.5 -41t-26 -33.5t-38.5 -22.5t-48 -8q-46 0 -75 27.5t-29 71.5z" />
<glyph unicode="&#x3c;" horiz-adv-x="1706" d="M240 605q0 20 23 41t66 38l1059 433q11 5 20.5 7t14.5 2q22 0 35 -12t13 -32q0 -18 -13 -34t-33 -24h1l-1029 -419q119 -48 250 -101.5t264.5 -108t264.5 -108t250 -101.5q20 -11 32.5 -27t12.5 -32q0 -20 -12 -32t-30 -12q-13 0 -22 2t-18 6l-1062 437q-40 17 -63.5 37 t-23.5 40z" />
<glyph unicode="=" horiz-adv-x="1706" d="M251 177q0 22 17.5 35t49.5 13h1068q28 0 46.5 -14t18.5 -34q0 -23 -18.5 -35.5t-50.5 -12.5h-1066q-28 0 -46.5 14t-18.5 34zM251 577q0 22 17.5 35t47.5 13l1068 -2q28 0 47.5 -14t19.5 -34q0 -21 -19 -33.5t-52 -12.5h-1067q-27 0 -44.5 14t-17.5 34z" />
<glyph unicode="&#x3e;" horiz-adv-x="1706" d="M254 127q0 32 50 61l-3 -2q7 3 81.5 33.5t207.5 85t319.5 130.5t418.5 170q-118 48 -249 101.5t-264.5 108t-265 108t-249.5 101.5q-20 8 -33 24.5t-13 33.5q0 18 13.5 31t32.5 13q8 0 17 -1.5t21 -6.5h-1l1058 -434q47 -19 68.5 -38t21.5 -41q0 -20 -24 -40.5t-64 -36.5 q-267 -109 -531 -218.5t-530 -217.5h2q-15 -5 -24 -7t-16 -2q-19 0 -31.5 12.5t-12.5 31.5z" />
<glyph unicode="?" horiz-adv-x="811" d="M146 1337q0 48 44 75.5t119 27.5q73 0 139 -27t115.5 -72.5t78.5 -105.5t29 -125q0 -72 -41.5 -154t-122.5 -190q-42 -63 -72.5 -105.5t-46.5 -76.5q-29 -62 -29 -124q0 -10 4.5 -21.5t5.5 -21.5l-31 -21q-20 -14 -35 -5.5t-25.5 27.5t-15.5 44.5t-5 46.5t13.5 54 t36.5 73.5t55 86.5t68 93q2 2 4 4.5t4 5.5l-1 -1q39 54 63.5 93t37.5 71t17.5 60t4.5 59q0 97 -67 158h1q-65 62 -169 62q-80 0 -166 -49q-8 22 -10.5 35t-2.5 23zM225 99q0 49 32.5 79.5t85.5 30.5q51 0 79.5 -28t28.5 -76q0 -22 -9.5 -41t-26 -33.5t-38.5 -22.5t-48 -8 q-46 0 -75 28t-29 71z" />
<glyph unicode="@" horiz-adv-x="2048" d="M221 356q0 136 32.5 258.5t93.5 227.5t147.5 189.5t194.5 144t236 91.5t270 32q141 0 255.5 -39t195.5 -113t125 -180t44 -240q0 -133 -43.5 -247.5t-122.5 -200.5q-36 -38 -78 -68t-86.5 -50.5t-89.5 -31.5t-88 -11q-93 0 -93 81q0 8 0.5 14t0.5 10v94 q-177 -203 -318 -203q-118 0 -190 83v-1q-73 87 -73 230q0 95 38.5 179.5t119.5 172.5v-1q26 28 64 51t83 39.5t95 25.5t100 9q56 0 125.5 -14.5t159.5 -38.5q-24 -78 -41.5 -158t-33.5 -161q-17 -88 -25 -158.5t-8 -121.5q0 -31 9 -41.5t37 -10.5q11 0 27.5 3.5t35.5 10 t37.5 15t34.5 19.5h-1q231 145 231 473q0 117 -38 209.5t-109.5 157.5t-174.5 99.5t-233 34.5q-182 0 -336.5 -64t-267.5 -179t-176.5 -274.5t-63.5 -350.5q0 -148 48.5 -267.5t138 -204t216.5 -130t285 -45.5q212 0 392 93q89 45 181.5 119t188.5 180q29 32 48 32 q12 0 19 -6t7 -15q0 -17 -19.5 -50t-55.5 -73q-159 -177 -359.5 -268t-433.5 -91q-167 0 -306.5 52.5t-240 148t-156 230t-55.5 299.5zM729 428q0 -125 58.5 -188.5t172.5 -63.5q63 0 128 42.5t139 131.5q1 6 2.5 16.5t2.5 16.5l-1 -2q32 173 50.5 269.5t21.5 117.5l-20 34 q-46 19 -88 28.5t-84 9.5q-79 0 -148.5 -32t-121.5 -87.5t-82 -130.5t-30 -162z" />
<glyph unicode="A" horiz-adv-x="1364" d="M57 75q0 23 49.5 134.5t149.5 312.5q102 204 194 400.5t168 372.5q-18 26 -35.5 48.5t-35.5 42.5q28 31 49.5 44.5t42.5 13.5q26 0 52.5 -32.5t59.5 -101.5t76 -176.5t103 -258.5q134 -337 231.5 -545.5t158.5 -281.5q-15 -16 -27.5 -25.5t-24 -15t-23 -7.5t-25.5 -2 q-25 0 -52.5 30t-58 86.5t-64.5 137.5t-72 184v-2q-4 12 -8.5 23.5t-9.5 23.5h-605q-48 -103 -80 -179.5t-47 -127.5q-14 -21 -18 -51t-7 -57.5t-9.5 -47.5t-24.5 -20q-107 0 -107 77zM391 562h532q-27 72 -60.5 158t-68.5 173t-68.5 168t-60.5 142l-79 -184l-113 -263 q-10 -23 -21.5 -50.5t-23 -54.5t-21.5 -50.5t-16 -38.5z" />
<glyph unicode="B" horiz-adv-x="1204" d="M168 1438q42 0 76 1.5l68 3t72.5 3t89.5 1.5q123 0 223.5 -26t171.5 -74t110 -116.5t39 -152.5q0 -216 -269 -323l4 -60q133 -35 201 -106t68 -176q0 -89 -46.5 -165.5t-128 -133t-191.5 -88.5t-237 -32q-70 0 -113.5 5.5t-67.5 21.5t-32.5 44.5t-8.5 74.5q0 4 1.5 40 t3.5 92t5 126t5 144t3.5 145t1.5 128q0 142 -3.5 250.5t-10.5 183.5q-6 57 -15 104t-20 85zM330 761q90 -12 140 -12q100 0 177.5 20.5t130.5 59.5t80.5 95.5t27.5 129.5q0 146 -103.5 223.5t-295.5 77.5q-29 0 -59 -1.5t-62 -5.5l-28 -30q-1 -16 -1.5 -56t-1.5 -93.5 t-1.5 -114.5t-1.5 -117.5t-1.5 -103.5t-0.5 -72zM332 459.5q0 -28.5 1 -67t1 -81.5t0.5 -82.5t1 -71t0.5 -46.5q50 -8 90.5 -11.5t75.5 -3.5q88 0 159.5 22.5t121.5 62t77.5 95t27.5 121.5q0 141 -107.5 213t-319.5 72q-17 0 -51.5 -2t-77.5 -5v-176v-39.5z" />
<glyph unicode="C" horiz-adv-x="1346" d="M74 709q0 100 29.5 195.5t85 180t135.5 156t181.5 123t223 80t259.5 28.5q60 0 101.5 -4t67.5 -12t37.5 -22t11.5 -33q0 -36 -13.5 -54t-36.5 -24t-52.5 -2.5t-61.5 9.5l-64 12t-59 6q-311 0 -501 -171v1q-98 -85 -145.5 -197t-47.5 -251q0 -137 48 -252t134 -198 t204.5 -129.5t258.5 -46.5q79 0 153.5 18.5t146.5 54.5q38 -53 38 -88q0 -51 -83.5 -78.5t-233.5 -27.5q-190 0 -341.5 57t-257 156t-162 231t-56.5 282z" />
<glyph unicode="D" horiz-adv-x="1493" d="M189 122q0 -2 1.5 31.5t3.5 90.5t5 132t5 155.5t3.5 161.5t1.5 150q0 128 -4 229t-12 175q-3 20 -3 38q0 39 12 65q18 40 50.5 62.5t75 31t83.5 10.5q15 1 30 0q24 0 46 -2q35 -2 52 -1h10q197 0 356 -48.5t271 -137.5t172.5 -215t60.5 -280q0 -159 -62.5 -300.5 t-180 -247.5t-286 -168t-380.5 -62q-92 0 -152 4.5t-95.5 18.5t-49.5 39.5t-14 67.5zM332 597q0 -57 1 -117t2.5 -119t4 -116t5.5 -108q127 -33 228 -33q150 0 275 45.5t215.5 127t140.5 196t50 252.5q0 137 -49.5 251t-138.5 196.5t-212 128t-270 45.5q-60 0 -112 -3.5 t-99 -10.5l-27 -31q-8 -223 -11 -398t-3 -306z" />
<glyph unicode="E" horiz-adv-x="1051" d="M189 1430h94q121 0 248.5 4t255.5 12q54 3 64 3q67 0 91.5 -12t24.5 -43q0 -37 -14 -56t-38.5 -25t-57.5 -3t-71.5 9.5t-81 12.5t-84.5 6q-31 0 -101 -2t-167 -2l-9 -522q7 0 19 -1t25.5 -1.5t26.5 -1t21 -0.5h102q122 0 207.5 4.5t135.5 14.5q12 -33 12 -55 q0 -34 -24.5 -48t-82.5 -14q-12 0 -41.5 1t-77.5 1h-24q-6 0 -27 0.5t-44 0.5t-43 0.5t-25 0.5q-53 0 -96.5 -1t-67.5 -2q0 -59 -0.5 -131.5t-2 -151t-3.5 -161t-5 -161.5q91 0 157 -2t101 -2q105 0 180 11t138 35q25 -50 25 -83q0 -38 -22 -52v1q-30 -18 -122 -18 q-21 0 -62.5 1t-87.5 2t-88 2t-62 1q-62 0 -124.5 -3t-124.5 -3q-20 0 -28 9.5t-8 34.5q0 10 2.5 37t2.5 72q9 163 13 314.5t4 294.5q0 250 -8 414.5t-25 257.5z" />
<glyph unicode="F" horiz-adv-x="1075" d="M195 1437q27 -1 45.5 -1.5t34 -1t30 -0.5h33.5q35 0 83.5 1.5t102 4t107 5.5t99 5.5t78.5 4t45 2.5q64 0 89 -11.5t25 -40.5q0 -45 -28 -104q-51 21 -130.5 31t-188.5 10q-22 0 -53.5 -0.5t-67.5 -1.5t-75 -2.5t-76 -2.5l-1 -178v-47v-84t-1 -106.5t-4 -115.5 q18 -3 32 -4.5t26 -2.5t24.5 -1h27.5q109 0 187 1.5t126 6.5q22 1 47 6.5t46.5 6.5t35.5 -4.5t14 -27.5q0 -48 -30.5 -67t-111.5 -19h-65q-56 0 -107.5 1t-99.5 1q-7 0 -26.5 -0.5t-42.5 -0.5t-46.5 -0.5t-39.5 -0.5q0 -159 4 -274.5t12 -190.5q7 -63 17.5 -112t24.5 -85 q-40 -20 -72 -28.5t-59 -8.5q-19 0 -32 5t-21 17t-11.5 33t-3.5 53q0 8 1 51t2.5 109t4 149t4.5 170.5t4.5 173t4 157t2.5 122.5t1 70q0 102 -6.5 181.5t-20.5 145.5z" />
<glyph unicode="G" horiz-adv-x="1503" d="M80 650q0 155 58.5 290t173.5 251q133 133 314 205q184 74 386 74q76 0 111 -16.5t35 -52.5q0 -17 -5 -38.5t-16 -48.5q-38 12 -80.5 18t-93.5 6q-156 0 -289 -49t-230 -136.5t-151.5 -208.5t-54.5 -264q0 -141 45 -251.5t132 -186t214 -115.5t291 -40q81 0 161.5 15.5 t164.5 44.5q9 56 13.5 111.5t4.5 116.5q0 37 -7.5 74.5t-15.5 72.5t-13 65t1 52.5t26.5 35.5t62.5 13q25 0 41.5 -9t26.5 -30.5t14.5 -57t4.5 -88.5q0 -76 -6.5 -144.5t-17.5 -124t-26 -95.5t-32 -58v1q-101 -108 -411 -108q-188 0 -341 48.5t-262.5 137t-169 213.5 t-59.5 277z" />
<glyph unicode="H" horiz-adv-x="1626" d="M152 1407q40 20 71.5 28.5t59.5 8.5q37 0 51.5 -24t14.5 -85q-3 -95 -7 -188q-2 -40 -3 -83.5t-2.5 -87.5t-2.5 -86.5t-2 -79.5h965v114q0 182 -13 298.5t-39 183.5q80 38 135 38q36 0 50 -24.5t14 -86.5q0 -2 -1.5 -35.5t-3.5 -87.5t-4.5 -122.5t-4.5 -141t-3 -143.5 t-2 -129q0 -148 4 -257.5t12 -183.5q12 -124 43 -198q-38 -19 -71.5 -27t-65.5 -8q-38 0 -52.5 23t-14.5 85q0 -3 1 25t2.5 76.5t3.5 112t3.5 132.5t2.5 138.5t2 129.5h-965v-135q0 -237 16 -372q12 -110 40 -178q-40 -20 -71.5 -28.5t-59.5 -8.5q-23 0 -36 5t-20 18t-9 36 t-2 59q0 5 1 36.5t2.5 79.5t3.5 108.5t4 124t4 125.5t3.5 113t2.5 86t1 45q0 125 -4 220.5t-12 164.5q-7 57 -17.5 104t-24.5 82z" />
<glyph unicode="I" horiz-adv-x="602" d="M185 1406q80 38 137 38q37 0 52 -24.5t15 -86.5q0 -1 -1.5 -36.5t-4 -94.5t-5.5 -136t-5.5 -159t-4 -164t-1.5 -152q0 -122 4 -215t12 -160q7 -56 13 -102q3 -24 3 -47q0 -20 -3 -38q-8 -11 -20.5 -17t-27.5 -8.5t-31 -3t-31 -0.5q-39 0 -50 17v-1q-8 11 -11.5 37 t-3.5 65q0 6 1 37t2 79.5t3 108.5t3.5 123t3.5 124.5t3 112.5t2 86.5t1 46.5q0 128 -4 225t-12 165q-7 58 -16 102.5t-23 77.5z" />
<glyph unicode="J" horiz-adv-x="807" d="M30 61q0 20 8 40.5t25 43.5q68 -49 148 -49q74 0 126.5 38t81.5 107q27 66 40 192.5t14 312.5q0 248 -15.5 411.5t-47.5 250.5q38 17 67.5 24.5t55.5 7.5q21 0 34 -5.5t20.5 -24.5t10 -55t2.5 -97q0 -374 -6 -566q-4 -94 -9.5 -168t-11.5 -131q-16 -98 -49 -176.5 t-81.5 -133t-111.5 -84t-139 -29.5q-74 0 -118 25t-44 66zM38 166l44 2q-5 -6 -9.5 -12t-9.5 -11q-6 5 -12 10.5t-13 10.5z" />
<glyph unicode="K" horiz-adv-x="1276" d="M157 1406q35 16 69.5 26t60.5 10q38 0 52 -23t14 -84q0 -15 -3 -78v1q-5 -113 -9 -220t-3 -209v-226q0 -247 11 -379q5 -56 14 -101t20 -80q-73 -43 -123 -43q-36 0 -52 33t-16 105q0 6 1 37.5t2.5 79t3 106.5t3.5 120.5t3.5 122t3 110t2.5 85t1 46.5q0 131 -4 227 t-12 160v-1q-6 57 -15.5 99t-23.5 76zM338 792v37q14 -14 27.5 -28t28.5 -28q-2 -1 -4 -3zM394 773q128 126 232 236.5t173 191.5q126 149 172 246q108 -33 108 -77q0 -48 -311 -341q-35 -33 -69 -65.5t-65 -62.5t-58 -56t-47 -46q3 -4 23 -25.5t44 -47t45.5 -48t28.5 -29.5 q109 -113 205.5 -207.5t176.5 -166.5t141 -119.5t99 -65.5q-32 -109 -90 -109q-18 0 -36.5 6.5t-42 23.5t-52.5 45t-68 72q-22 24 -75.5 83t-131.5 147q-92 103 -194 208t-208 207z" />
<glyph unicode="L" horiz-adv-x="954" d="M166 1407q36 17 70 26t64 9q23 0 37 -5.5t21.5 -19t9.5 -37t2 -59.5q0 -12 -0.5 -49t-4.5 -94q-9 -225 -14 -435.5t-5 -410.5v-219q55 -5 106 -8t99 -3q78 0 138.5 3t103.5 11q36 6 67.5 13.5t57.5 19.5q22 -45 22 -93q0 -18 -6.5 -29t-23 -17.5t-43.5 -9t-69 -2.5 q-14 0 -52 1t-83.5 2t-89.5 2t-71 1t-58 -0.5t-62 -1.5t-59 -2t-49 -2t-32.5 -1.5t-8.5 -0.5q-18 0 -26 9.5t-8 34.5q0 9 2.5 35.5t2.5 70.5q10 166 14.5 323.5t4.5 307.5q0 282 -15 432q-7 63 -17.5 112.5t-24.5 85.5z" />
<glyph unicode="M" horiz-adv-x="1948" d="M76 37q78 205 118.5 481t40.5 611q0 79 -8 147t-23 132q24 20 45.5 28t44.5 8q30 0 68 -47.5t90 -139.5t119.5 -226.5t155.5 -308.5q65 -129 105.5 -208t66 -122t41.5 -57.5t33 -14.5q16 0 57 64t102.5 180t143 279t180.5 360q33 65 60 111t50.5 75t45 42t42.5 13 q22 0 42.5 -8.5t46.5 -28.5q-17 -66 -24.5 -134.5t-7.5 -149.5q0 -333 40 -606.5t121 -479.5q-39 -18 -73.5 -27.5t-66.5 -9.5q-61 0 -75 56v-1q-2 5 -4 33.5t-5 77.5t-6 115.5t-7 148.5q-5 89 -11.5 194t-14.5 212.5t-16 210.5t-15 188q-54 -103 -118 -226t-130.5 -253.5 t-133.5 -262.5t-127 -255q-27 -57 -43.5 -92t-28.5 -54.5t-21.5 -26t-22.5 -6.5q-30 0 -75 98l-3 6l-9.5 19l-7.5 15q-84 172 -163.5 329.5t-148 291t-124.5 238.5t-93 173q-4 -66 -9.5 -156t-11 -191.5t-11.5 -206.5t-10 -201q-5 -116 -9 -196t-8.5 -133t-11 -82t-15 -43 t-21 -17t-28.5 -3q-20 0 -49.5 8.5t-68.5 28.5zM1743 1407l2 10t3 10l11 -33z" />
<glyph unicode="N" horiz-adv-x="1642" d="M119 1368q32 34 57 49t49 15q26 0 52.5 -19t68.5 -68l-1 2q6 -8 10 -11l-2 1q5 -6 12.5 -15.5t18.5 -21.5q99 -119 213.5 -252.5t237 -273t249 -282.5t251.5 -281q1 78 2.5 159t3 155t2 137.5t0.5 105.5q0 281 -21 427q-11 67 -25.5 119.5t-35.5 96.5q34 16 61 23.5 t53 7.5q22 0 36 -6t22 -22.5t11.5 -47t3.5 -78.5q0 -8 -1 -44t-2.5 -90.5t-4 -121.5t-4.5 -137.5t-4.5 -139.5t-4 -126t-2.5 -97.5t-1 -54.5q0 -57 2 -117t4.5 -118t6.5 -111.5t9 -98.5l-70 -37q-48 47 -102 104t-116.5 126t-135 151.5t-156.5 180.5t-166 192t-155.5 176.5 t-134.5 149t-103 110.5q0 -98 1 -211.5t3 -232t4.5 -237.5t6.5 -228q0 -11 1 -33.5t1.5 -45.5t1 -41t0.5 -20q0 -42 -2.5 -68.5t-10 -41.5t-21.5 -20.5t-38 -5.5q-28 0 -60 9t-62 24q24 49 41 114.5t28 145.5q11 92 16.5 254.5t6.5 385.5q0 218 -29 313q-12 39 -30 69.5 t-46 52.5zM342 1353l2 -5q-2 4 -2 5z" />
<glyph unicode="O" horiz-adv-x="1716" d="M77 707q0 163 60.5 302.5t168.5 242.5t257 161.5t327 58.5q170 0 308.5 -50.5t236.5 -142.5t151 -221.5t53 -287.5q0 -115 -30.5 -219t-85 -193t-130.5 -161t-168 -122.5t-196.5 -77.5t-215.5 -27q-159 0 -293.5 54t-233 151.5t-154 233t-55.5 298.5zM233 721 q0 -141 44.5 -258.5t124.5 -202.5t191.5 -132.5t245.5 -47.5q141 0 259.5 49.5t204 139t133 214t47.5 273.5q0 138 -44 251t-125 193t-194.5 124t-251.5 44q-143 0 -260 -46.5t-200.5 -131t-129 -204t-45.5 -265.5z" />
<glyph unicode="P" horiz-adv-x="1118" d="M122 1430l27 47q5 -10 10 -21.5t10 -25.5h-2h-45zM169 1430q18 0 49.5 1.5t70 4t80.5 5t80 5t69.5 4t49.5 1.5q112 0 200.5 -27.5t150 -79t93.5 -125.5t32 -167q0 -110 -39.5 -201t-111.5 -156t-172 -101t-220 -36q-40 0 -79 3t-87 9q1 -201 15 -331t42 -204 q-75 -37 -129 -37q-23 0 -36.5 5t-20.5 18.5t-9.5 37t-2.5 59.5q0 6 1 36.5t2.5 76t3.5 102.5t4 116.5t4 118t3.5 106.5t2.5 82t1 45q0 246 -12 399.5t-35 229.5zM336 662q44 -7 84 -10t78 -3q94 0 168 26.5t125.5 75.5t78.5 118.5t27 155.5q0 163 -92.5 246.5t-274.5 83.5 q-33 0 -74.5 -4.5t-101.5 -18.5q-8 -145 -12.5 -291t-5.5 -273v-106zM392 35q6 4 13 7t14 7l-13 -42q-7 12 -14 28z" />
<glyph unicode="Q" horiz-adv-x="1716" d="M77 707q0 167 61 307.5t169.5 242t257.5 158.5t325 57q169 0 307 -50t236 -142t151.5 -221.5t53.5 -288.5q0 -272 -141.5 -459.5t-418.5 -284.5l1 -59q143 -45 249 -65t190 -20q63 0 119 6q11 -26 15 -49t4 -44q0 -35 -23 -54t-66 -19q-48 0 -107.5 12t-125.5 35 q-4 1 -22 7.5t-39 13.5l-40.5 13.5t-26.5 9.5q-424 146 -596 146q-61 0 -117.5 -14t-117.5 -46q-18 27 -18 44q0 52 103 52h22l10 56q-203 77 -309 246h1q-107 175 -107 410zM232 721q0 -140 44 -257.5t124.5 -203t192 -133t246.5 -47.5q141 0 259 50t203.5 139.5 t133.5 213.5t48 273q0 139 -44.5 252.5t-126 193t-196 123t-254.5 43.5q-142 0 -258.5 -47t-199 -132.5t-127.5 -204.5t-45 -263z" />
<glyph unicode="R" horiz-adv-x="1309" d="M164 1430q35 1 78 3t87 4.5t86 5t74.5 4.5t52.5 3l21 1q111 0 199 -26.5t149 -76.5t93.5 -121t32.5 -159q0 -159 -80 -270t-238 -174l1 -58q35 -12 78.5 -48.5t97.5 -96.5h-1q125 -144 219.5 -227t163.5 -112q-23 -54 -46.5 -77.5t-54.5 -23.5q-24 0 -50 14.5t-60 47.5 t-79 86t-108 130q-125 152 -231.5 230.5t-185.5 79.5q-19 0 -50.5 -2.5t-81.5 -8.5q4 -133 9 -225.5t13 -147.5q6 -44 15 -82.5t20 -67.5q-38 -19 -70.5 -27t-58.5 -8q-23 0 -36.5 4.5t-20.5 17.5t-9 36t-2 60q0 6 1.5 45t3.5 99t5 136t5 155.5t3.5 156.5t1.5 140 q0 140 -4 242t-11 169q-5 51 -13 93t-19 76zM332 632q7 0 18 -0.5t22.5 -0.5t22.5 -0.5t17 -0.5q112 0 202 28.5t152.5 81.5t96 129t33.5 171q0 75 -24.5 133.5t-71.5 99t-115.5 61.5t-156.5 21q-36 0 -74 -4t-81 -14l-25 -29q-8 -176 -12 -350.5t-4 -325.5z" />
<glyph unicode="S" horiz-adv-x="883" d="M105 172l40 11q-4 -7 -7.5 -12.5t-6.5 -11.5q-14 6 -26 13zM106 75q0 19 5.5 39.5t19.5 44.5q82 -38 178 -38q70 0 125.5 16.5t94 47.5t59 75t20.5 100q0 63 -52 137.5t-147 152.5q-2 2 -4 3t-6 6q-259 205 -259 358q0 61 23 117.5t62 105t90.5 89t108.5 69t117 44 t115 15.5q131 0 131 -77q0 -25 -34 -84q-75 27 -157 27q-74 0 -133 -17.5t-99.5 -50.5t-62 -80.5t-21.5 -106.5q0 -36 7 -67t25 -61.5t48.5 -62.5t77.5 -70q78 -59 136 -116.5t96.5 -110t57.5 -99t19 -82.5q0 -56 -19 -108t-52.5 -98t-79.5 -84.5t-101 -66t-116 -42.5 t-125 -15q-73 0 -110.5 23t-37.5 67z" />
<glyph unicode="T" horiz-adv-x="1223" d="M5 1370q0 30 25 42.5t89 12.5q3 0 29 -1t66.5 -2t91.5 -3t104 -3.5t104.5 -3.5t93.5 -3t70 -2t34 -1q89 0 160 3t126.5 9t97.5 16t75 25q22 -41 22 -73q0 -40 -34 -59t-106 -19q-11 0 -52 1.5t-97.5 3.5t-119 4t-116.5 4q-4 -91 -7 -182t-5 -177.5t-3 -166t-1 -147.5 q0 -132 4 -234t12 -177q7 -66 17.5 -115t25.5 -87q-38 -20 -73 -28.5t-66 -8.5q-36 0 -50.5 23t-14.5 87q0 6 1 41.5t2.5 90t3.5 123t4 140.5t4 142t3.5 127t2.5 96.5t1 50.5q0 9 -0.5 33t-0.5 58t-1 74t-1 82t-0.5 82t-0.5 73h-111q-140 0 -231 -10.5t-149 -35.5 q-16 32 -22.5 55t-6.5 40zM711 35q6 4 12 7t13 7l-13 -42q-3 7 -6 13.5t-6 14.5z" />
<glyph unicode="U" horiz-adv-x="1540" d="M128 1395l11 42q5 -7 8 -14t6 -15zM153 1408q35 17 69.5 26.5t67.5 9.5q21 0 33.5 -6t19.5 -21t9 -40t2 -62q0 -5 -1.5 -51.5t-4 -114t-5.5 -145.5t-5.5 -147t-4 -118.5t-1.5 -58.5q0 -166 24 -280.5t74.5 -186t129.5 -103.5t190 -32q128 0 221.5 42.5t154 132.5t90 230 t29.5 334q0 218 -23.5 364t-70.5 224q64 39 109 39q32 0 53.5 -16t34 -63.5t17.5 -134.5t5 -229q0 -279 -35 -475.5t-111.5 -320.5t-199.5 -180.5t-298 -56.5q-143 0 -243.5 34.5t-164 110t-92.5 194.5t-29 288q0 23 1 59t2 78t2.5 87t2.5 85.5t2 72.5t1 50q0 132 -13 224 t-42 157z" />
<glyph unicode="V" horiz-adv-x="1346" d="M-25 1415l10.5 -10.5t12.5 -13.5q-5 -5 -9 -10t-9 -11zM-2 1391q50 51 107 51q42 0 94 -89.5t104 -270.5q300 -880 363 -880q25 0 60 38.5t74.5 100t80 138.5t76 153.5t63.5 144.5t43 112v-1q71 213 71 398q0 77 -19 143q23 8 42 10.5t36 2.5q47 0 65.5 -24t18.5 -85 q0 -199 -103 -457q-52 -131 -135 -288t-198 -344q-55 -89 -90.5 -143t-58.5 -83.5t-35.5 -39.5t-21.5 -10q-27 0 -65.5 67t-92.5 204q-42 107 -96.5 250.5t-116.5 317.5q-82 225 -150 374.5t-116 209.5z" />
<glyph unicode="W" horiz-adv-x="2066" d="M-45 1391q25 24 51.5 37.5t49.5 13.5t41 -6.5t35 -27.5t36 -60.5t44 -105.5t59.5 -161.5t82.5 -229.5q233 -659 303 -659q50 0 149 134q89 121 223 357q-68 168 -123 290t-98 201q-76 137 -146 198q44 53 102 53q89 0 292 -567l-1 1q1 -5 4 -12l7.5 -17.5t12 -25.5 l18.5 -37q84 184 124.5 315.5t40.5 215.5q0 27 -4 56t-10 58q22 6 41 9.5t37 3.5q33 0 48 -18.5t15 -61.5q0 -83 -64.5 -251t-194.5 -417q119 -236 196.5 -356.5t112.5 -120.5q29 0 79 60v-1q21 24 42.5 55t44.5 69v-1q40 66 75.5 131t66.5 128t56.5 122t44.5 112 q38 108 58 212t20 199q0 74 -18 142q47 14 81 14q41 0 59 -24.5t18 -82.5q0 -170 -84 -401q-43 -117 -104 -238t-139 -248v1l-7 -12q-289 -467 -324 -467q-40 0 -308 561q-1 1 -1 2q-1 1 -1 2l-31 60q-100 -162 -179 -280t-137 -194.5t-95 -113.5t-52 -37q-18 0 -50.5 56.5 t-78 162t-103.5 255t-128 335.5q-44 115 -85 213.5t-78 177t-68.5 135t-57.5 86.5zM1221 1403l20 37q2 -7 3.5 -13.5t3.5 -14.5z" />
<glyph unicode="X" horiz-adv-x="1346" d="M110 44q0 23 23 67.5t65 102.5q48 63 155.5 192t275.5 319q-115 164 -201.5 279t-147.5 185v-1q-91 107 -147 137q41 124 109 124q14 0 25.5 -6t24 -20t28.5 -37.5t38 -58.5q-5 8 -8.5 10.5t-3.5 3.5q0 -1 7 -10.5t9 -13.5q81 -130 158.5 -247.5t152.5 -223.5l50 -2 q95 116 161.5 203.5t104.5 149.5h-1q85 137 85 214v9.5t-1 9.5q39 10 81 10q33 0 51 -11.5t18 -34.5q0 -46 -76 -153q-41 -57 -141.5 -179.5t-263.5 -313.5q121 -177 210 -299t147 -192q90 -108 146 -136q-16 -59 -44 -90t-63 -31q-19 0 -35 12t-38 42l2 -2q-2 4 -11 18.5 t-23 37.5h1q-40 65 -85 136t-91.5 142.5t-93.5 141.5t-91 134q-228 -275 -318 -415q-42 -66 -65 -123t-23 -96v-8.5t1 -9.5q-21 -5 -43 -7.5t-40 -2.5q-39 0 -56.5 10.5t-17.5 33.5z" />
<glyph unicode="Y" horiz-adv-x="1219" d="M11 1333q43 124 110 124q14 0 25 -5t24.5 -20.5t32 -44.5t45.5 -77q42 -75 88.5 -154.5t94 -158t94 -153.5t89.5 -141q121 174 201.5 298t123.5 199q45 80 66 138t22 95v8q26 6 47 8t42 2q26 0 40 -11.5t14 -32.5q0 -30 -81.5 -149.5t-230.5 -343.5q-57 -81 -106 -153 t-87 -129q0 -12 -0.5 -34t-0.5 -45t-0.5 -44t-0.5 -30q0 -165 12.5 -272t37.5 -173q-40 -19 -71 -26.5t-62 -7.5q-36 0 -50 21.5t-14 77.5l8 178q1 38 3 79.5t3.5 83t3 81.5t2.5 75l-4 17q-367 642 -521 720z" />
<glyph unicode="Z" horiz-adv-x="1184" d="M119 118q0 54 71.5 170.5t216.5 299.5h-1q9 12 30 38.5t47.5 60.5t55.5 71t54 69t43 56t24 31q102 138 152.5 224.5t51.5 119.5q0 20 -7 34t-27.5 22.5t-57.5 12t-97 3.5q-118 0 -206 -4t-148 -11q-48 -5 -88.5 -14t-74.5 -21q-8 23 -11 42t-3 36q0 38 31 55t109 17 q8 0 39 -1t76.5 -2t101 -3t111.5 -3t109 -2t93 -1q54 0 94 2t75 7q52 -53 52 -106q0 -111 -304 -490q-2 -2 -13 -16t-27 -34t-34 -43t-34 -42.5t-26.5 -33t-11.5 -14.5q-68 -88 -123 -163.5t-97 -137.5q-44 -66 -64.5 -108t-21.5 -61q0 -38 68.5 -56t216.5 -18 q95 0 171.5 2.5t137.5 8t108.5 14.5t85.5 23q6 -21 9.5 -40t3.5 -33q0 -26 -8 -41.5t-27 -24t-51.5 -11t-81.5 -2.5q-6 0 -45.5 1.5t-96 3t-122 4t-122 4t-97 3t-47.5 1.5q-63 0 -115 -3.5t-97 -11.5q-51 54 -51 116zM153 -1q5 1 9 2t8 1l5.5 -5.5t6.5 -4.5z" />
<glyph unicode="[" horiz-adv-x="721" d="M202 -359h17q5 0 9.5 0.5t9.5 0.5q-2 -12 -3 -21.5t-3 -17.5zM238 -358q5 44 9.5 114.5t7.5 166.5q4 122 6 275t2 340q0 185 -2 337t-6 275q-3 94 -7.5 166t-9.5 117q15 0 43 -0.5t55.5 -1t48.5 -1t24 -0.5q56 0 106 4.5t100 14.5q16 -18 25 -35t9 -28q0 -24 -33 -24 q3 0 -18.5 1.5t-55 4t-72.5 4.5t-72 3l-32 -33q6 -221 10 -421.5t4 -382.5q0 -16 -0.5 -58.5t-1.5 -102.5t-2.5 -131.5t-3 -144.5t-3 -142.5t-2.5 -125t-2 -91.5t-1 -43q36 1 80.5 3t83.5 4t64.5 3.5t23.5 1.5q33 0 33 -20q0 -12 -7.5 -27.5t-25.5 -37.5q-49 9 -104.5 13 t-126.5 4h-69.5t-77.5 -1z" />
<glyph unicode="\" horiz-adv-x="758" d="M-32 1435q0 3 6.5 5t17.5 2q19 0 31.5 -1.5t22.5 -9.5t19.5 -25t21.5 -48l658 -1485q14 -30 18 -42t4 -21q0 -8 -26 -8q-56 0 -92 81l1 -3q-164 371 -329.5 747t-328.5 747l1 -2l-6 15t-8.5 19.5t-7.5 18t-3 10.5z" />
<glyph unicode="]" horiz-adv-x="721" d="M70 -313q0 24 35 24h2q7 -1 35 -3t65 -4t77 -4t73 -3q-4 108 -7 217.5t-5 216.5t-3 210t-1 197q0 84 1 182.5t3 205.5t5 220.5t7 229.5q-31 -1 -68.5 -2.5t-71.5 -4t-60 -4t-35 -2.5t-12.5 -1h-4.5q-35 0 -35 20q0 12 8.5 27.5t27.5 38.5q97 -18 206 -18h21.5t44 0.5 t54 1t51.5 1.5q-6 -45 -11 -116.5t-8 -168.5q-4 -121 -6 -272.5t-2 -337.5q0 -187 2 -339t6 -273q3 -99 7.5 -169.5t9.5 -114.5q-38 1 -78 1h-91q-53 0 -105 -5t-102 -14q-35 39 -35 63zM481 -358q5 0 10.5 -0.5t11.5 -0.5h15l-31 -37q-2 8 -3 17.5t-3 20.5z" />
<glyph unicode="^" horiz-adv-x="2048" d="M444 948q0 12 21.5 40.5t69.5 76.5l298 300q0 1 9 10l16 16l3 3q73 78 159 78t172 -89q5 -5 9.5 -10.5t11.5 -9.5l3 -3l243 -246q11 -11 24 -24.5t29 -28.5l17 -16q81 -77 81 -99q0 -18 -17 -18t-43.5 15t-69.5 50l-377 303q-19 15 -32 24t-22.5 14t-16.5 6.5t-14 1.5 q-27 0 -63 -32l-2 -2q-6 -4 -9 -8l-374 -302q-87 -70 -113 -70q-13 0 -13 20z" />
<glyph unicode="_" d="M9 -444h1006v-60h-1006v60z" />
<glyph unicode="`" d="M270 1384q0 26 16.5 42t44.5 16q16 0 33.5 -12t41 -34.5t54.5 -56t73 -75.5l-2 1q7 -8 24.5 -24t35 -31.5t31 -28t13.5 -13.5q0 -3 -14 -3q-9 0 -38.5 8t-68.5 23t-82 35.5t-79 44.5t-59.5 51.5t-23.5 56.5z" />
<glyph unicode="a" horiz-adv-x="1020" d="M97 274q0 75 32.5 135.5t92.5 103t144 65t187 22.5q36 0 82.5 -3t107.5 -10q8 31 9 46t1 31q0 125 -69 189t-200 64q-97 0 -163 -30.5t-110 -93.5q-14 8 -22.5 21.5t-8.5 32.5q0 31 24.5 57.5t67.5 46t101 30.5t124 11q351 0 351 -338q0 -13 -1 -46.5t-2 -73t-2 -77.5 t-1 -60q0 -66 3.5 -120.5t11 -98.5t19 -80t26.5 -65q-56 -31 -88 -31q-29 0 -43 35t-18 115q-99 -84 -182 -124.5t-157 -40.5q-72 0 -130.5 20.5t-100 58t-64 90.5t-22.5 118zM207 289q0 -100 65.5 -157.5t182.5 -57.5q167 0 296 134q-2 53 -3 91.5t-1 68.5q0 6 0.5 17 t0.5 24.5t0.5 27.5t0.5 26q0 8 -0.5 15t-0.5 13l-27 29q-48 7 -87 10.5t-69 3.5q-358 0 -358 -245zM902 33q7 5 13.5 8.5t13.5 8.5l-8 -45q-5 7 -9.5 14t-9.5 14z" />
<glyph unicode="b" horiz-adv-x="1143" d="M121 1438q35 15 63.5 23.5t48.5 8.5q29 0 40.5 -22t11.5 -84l-1 -26q-1 -25 -2.5 -67.5t-3.5 -97.5t-3.5 -114.5l-3 -119t-1.5 -110.5q110 74 200.5 109.5t168.5 35.5q91 0 168 -33t133 -92.5t87.5 -140.5t31.5 -177q0 -116 -42 -215t-116 -172.5t-175.5 -115 t-221.5 -41.5q-83 0 -171.5 20.5t-188.5 63.5q7 72 11 155t7 175q6 196 6 465q0 319 -12 426v-1q-5 46 -14 82t-21 65zM123 80l21 -9q-1 -5 -1.5 -11t-0.5 -11zM265 456q0 -31 0.5 -61t1.5 -64t2 -74t2 -91l16 -26q68 -37 129.5 -54.5t122.5 -17.5q88 0 162.5 34t128.5 94 t84 141.5t30 176.5q0 84 -25.5 153.5t-72 119t-111.5 77t-145 27.5q-69 0 -147.5 -29t-172.5 -92v-22q-3 -98 -4 -171t-1 -121z" />
<glyph unicode="c" horiz-adv-x="868" d="M91 424q0 121 44 225t120.5 180.5t179 120.5t218.5 44q148 0 148 -75q0 -17 -7 -33t-24 -35q-38 20 -76 29t-84 9q-85 0 -158 -32.5t-127 -90.5t-84.5 -137.5t-30.5 -172.5q0 -86 27.5 -155.5t77 -118t119 -74.5t153.5 -26q126 0 224 64q8 -15 11 -27t3 -24 q0 -52 -67 -82t-184 -30q-108 0 -197 32t-152.5 90t-98.5 139.5t-35 179.5zM753 833q11 9 17 18l22 -13z" />
<glyph unicode="d" horiz-adv-x="1186" d="M85 450q0 115 40.5 213.5t113 170.5t172 112.5t218.5 40.5q112 0 301 -71v138q0 74 -2.5 133.5t-8 106.5t-13.5 84t-19 66q29 14 56 21t47 7q33 0 46 -19.5t13 -72.5q0 -7 -1 -41.5t-3.5 -87t-5 -118t-5 -134.5t-5 -136.5t-5 -124t-3.5 -96.5t-1 -55q0 -137 4 -235 t11 -158q6 -51 17 -92t25 -73q-33 -16 -60.5 -22.5t-50.5 -6.5q-24 0 -34.5 16.5t-10.5 58.5q0 12 0.5 20t0.5 15v96q-104 -113 -200 -166t-196 -53q-97 0 -178 34t-139.5 95.5t-91 146.5t-32.5 187zM202 454q0 -89 25.5 -160t72 -120.5t112 -76.5t146.5 -27q106 0 192 45.5 t162 142.5l6 20q0 35 1 81l2 92t1.5 85.5t0.5 62.5v28v69.5t-0.5 53.5t-1.5 45t-2 44q-169 71 -290 71q-97 0 -175.5 -32t-134.5 -91.5t-86.5 -144t-30.5 -188.5z" />
<glyph unicode="e" horiz-adv-x="1006" d="M88 473q0 114 35.5 209.5t99 164t151 107t191.5 38.5q80 0 147 -24t115 -66.5t74.5 -100.5t26.5 -127q0 -52 -19.5 -88.5t-63.5 -59t-115.5 -33t-174.5 -10.5q-80 0 -169.5 7t-188.5 21v-51q0 -88 27.5 -159t78.5 -121t122.5 -77t159.5 -27q148 0 256 69q21 -32 21 -56 q0 -20 -21 -38t-58 -31t-86.5 -20.5t-107.5 -7.5q-116 0 -208.5 33t-157.5 95t-100 151t-35 202zM210 604l26 -36q69 -12 152.5 -17.5t183.5 -5.5q74 0 122.5 8t76.5 25.5t39 44t11 64.5q0 54 -19 98t-55 75t-87 47.5t-115 16.5q-67 0 -123.5 -21.5t-99.5 -62.5 t-71.5 -100.5t-40.5 -135.5zM824 169l43 -5q-6 -5 -12.5 -9.5t-13.5 -9.5q-3 5 -7.5 11.5t-9.5 12.5z" />
<glyph unicode="f" horiz-adv-x="635" d="M72 881q0 7 2.5 16.5t4.5 16.5q4 0 15 -1t16 -1h112v54q0 242 88 370.5t255 128.5q58 0 93.5 -21t35.5 -54q0 -19 -14.5 -37t-37.5 -32q-54 51 -116 51q-50 0 -86.5 -22t-59.5 -69t-34 -119.5t-11 -173.5v-70q56 7 110.5 10t102.5 3q36 0 36 -34q0 -8 -1.5 -16.5 t-8.5 -25.5q-13 3 -27.5 4.5t-33 3t-43.5 2t-59 0.5q-25 0 -43 -1t-35 -3q0 -72 1 -156t3 -168t3.5 -162t3.5 -137.5t3 -94t1 -31.5q0 -33 -2 -54.5t-7.5 -34.5t-16.5 -18t-29 -5q-26 0 -54.5 8t-63.5 25q27 69 40.5 190t13.5 306q0 35 -1.5 103t-3.5 155v36l-31 32 q-11 0 -26 -0.5t-29 -0.5t-24.5 -0.5t-12.5 -0.5q-29 0 -29 28z" />
<glyph unicode="g" horiz-adv-x="1028" d="M58 -198q0 93 66 167t197 130q-78 70 -78 109q0 53 78 134l-10 50q-184 93 -184 274q0 74 28.5 135.5t79 106t120.5 69.5t153 25q48 0 101.5 -16t113.5 -48q99 26 157 48.5t88 45.5q6 -11 9 -23.5t3 -24.5q0 -19 -11 -34t-35 -27t-63 -21.5t-95 -17.5q52 -65 76 -117 t24 -99q0 -66 -28 -123t-77 -98t-115.5 -64.5t-143.5 -23.5q-19 0 -45 2t-58 6q-29 -29 -45 -57t-16 -53q0 -98 225 -146h-1q24 -6 43 -10.5t32 -6.5l-2 1q91 -21 151 -43.5t95 -51t49.5 -65.5t14.5 -86q0 -72 -35.5 -133.5t-99 -106t-151 -69.5t-192.5 -25 q-96 0 -173.5 19.5t-132 56.5t-84 90t-29.5 121zM164 -166q0 -54 24.5 -99.5t69.5 -77.5t107.5 -50t139.5 -18q145 0 238 58v-1q100 61 100 162q0 148 -450 253q-2 0 -4.5 0.5t-4.5 0.5q-3 0 -6 1h1q1 0 2 -0.5t3 -0.5l-15 -59l-12 61q-193 -76 -193 -230zM228 680 q0 -55 20.5 -101.5t57.5 -80t87.5 -52.5t109.5 -19t110 19t88 52.5t58 79t21 98.5q0 55 -20.5 101t-56.5 79t-86 51.5t-109 18.5q-62 0 -113.5 -18t-88.5 -50t-57.5 -77.5t-20.5 -100.5z" />
<glyph unicode="h" horiz-adv-x="1128" d="M139 1444q19 10 33.5 15.5t26.5 8.5t23.5 3.5t23.5 0.5q15 0 25.5 -5t17 -17t9.5 -33t3 -53q0 2 -1.5 -21.5t-3.5 -64t-4.5 -94t-5 -112t-4.5 -117t-3 -109.5q104 71 192 107t158 36q80 0 143 -25t106.5 -73.5t66.5 -118.5t23 -160q0 -16 -1 -51.5t-2.5 -75.5t-2.5 -78 t-1 -60q0 -67 2 -116.5t6.5 -86t12.5 -64t20 -51.5q-35 -16 -60 -22.5t-45 -6.5t-31 4t-16 14.5t-6.5 28t-1.5 44.5q0 12 1 39.5t2.5 63.5t3 77t3 81t2.5 75t1 59q0 114 -14.5 194t-46 131t-80.5 74t-117 23q-35 0 -70.5 -6.5t-73.5 -21t-80.5 -37t-91.5 -54.5 q-4 -85 -6 -182t-2 -192q0 -90 3 -155t8 -109q10 -71 30 -124q-57 -27 -110 -27q-32 0 -40 11v-1q-13 21 -13 93q0 -2 2 39t5.5 110t7 159.5t7 187t5.5 192t2 175.5q0 132 -3.5 219.5t-8.5 132.5q-4 35 -12 68t-17 58zM314 27q7 3 13 6t13 8l-12 -42q-8 12 -14 28z" />
<glyph unicode="i" horiz-adv-x="516" d="M152 1303q0 22 9.5 42t25 35t36 23.5t41.5 8.5q41 0 67 -24.5t26 -62.5q0 -46 -32.5 -76.5t-83.5 -30.5q-41 0 -65 22.5t-24 62.5zM155 947q29 13 59.5 21t59.5 8q30 0 41.5 -17t11.5 -62q0 -1 -1.5 -25.5t-3.5 -65t-4.5 -92.5t-4.5 -107t-3.5 -109.5t-1.5 -98.5 q0 -130 11.5 -219t36.5 -151q-32 -15 -62 -22t-57 -7q-19 0 -30.5 4.5t-17.5 16.5t-7.5 33t-1.5 54q0 11 1.5 42.5t3.5 75.5t4.5 96.5t4.5 104.5t3.5 100t1.5 83q0 134 -12 217q-5 32 -13 62.5t-19 57.5zM356 29q6 3 12 6.5t13 7.5l-13 -41q-3 6 -6 13z" />
<glyph unicode="j" horiz-adv-x="541" d="M-42 -378q0 7 11 19t25.5 24.5t29.5 25t24 21.5q49 51 83.5 119.5t55.5 152.5q40 161 40 474q0 94 -2.5 170t-8.5 136t-15 105.5t-21 77.5q66 29 116 29q18 0 29.5 -4.5t18 -20t9 -46t2.5 -82.5v-38q0 -206 -5.5 -361t-14.5 -254q-11 -90 -27 -165t-37 -124h1 q-24 -54 -62.5 -106t-80 -92.5t-80.5 -65.5t-63 -25q-13 0 -20.5 8t-7.5 22zM154 934l14 43q6 -14 12 -30q-6 -4 -12.5 -7t-13.5 -6zM175 1303q0 22 9.5 42t25 35t36 23.5t42.5 8.5q40 0 66 -24.5t26 -62.5q0 -48 -33 -77.5t-83 -29.5q-40 0 -64.5 22.5t-24.5 62.5z" />
<glyph unicode="k" horiz-adv-x="1028" d="M139 1442q63 30 107 30q34 0 44 -22.5t10 -83.5q0 -9 -2.5 -35t-2.5 -68q-5 -84 -9 -175.5t-7 -184.5t-5 -184t-2 -174q-2 0 -2 2v-117q0 -152 10.5 -248t33.5 -154q-62 -28 -111 -28q-28 0 -40 22.5t-12 80.5q0 1 1 21t2 50t2.5 66.5t3.5 70.5t3 61t2 40q7 143 10 279 t4 267q0 131 -3 219.5t-8 136.5q-4 38 -11.5 70t-17.5 58zM272 470v75q10 -10 20.5 -19.5t23.5 -20.5q-11 -8 -22 -17.5t-22 -17.5zM314 28l13 6.5t14 7.5l-12 -44q-5 7 -8 14.5t-7 15.5zM316 505q118 96 204.5 171.5t143.5 132.5q54 54 90 96t58 79q47 -19 65.5 -35 t18.5 -36q0 -9 -34 -41.5t-95.5 -84t-148.5 -121t-193 -152.5q26 -22 38 -32t19 -16t12 -11.5t17 -17.5h-1q354 -335 468 -387q-20 -74 -69 -74q-58 0 -277 223q-38 39 -80 80.5t-83.5 81.5t-80.5 77t-72 67zM978 50q2 6 3 13t3 14l31 -35h-4q-12 0 -33 8z" />
<glyph unicode="l" horiz-adv-x="530" d="M159 1442q30 15 59 22.5t54 7.5q21 0 32.5 -4.5t17.5 -16t7.5 -31t1.5 -50.5q0 -7 -1 -44.5t-2.5 -94.5t-3.5 -129t-5 -147t-4 -148t-3 -133t-3 -101t-1 -53q0 -237 12 -343q5 -45 13.5 -82t21.5 -66q-62 -29 -112 -29q-32 0 -44 22t-12 83q0 8 1 46l2.5 95t3.5 127.5 t4 143.5t4 144.5t3.5 129.5t2.5 98.5t1 51.5q0 114 -3 200t-10 143q-5 47 -14 86.5t-23 71.5zM355 29q6 3 12 6.5t14 7.5l-13 -42q-4 6 -7 13t-6 15z" />
<glyph unicode="m" horiz-adv-x="1743" d="M95 974l18 43q3 -8 6.5 -16.5t6.5 -17.5q-17 -3 -31 -9zM126 983q12 2 24 3t26 1q43 0 67.5 -36.5t29.5 -105.5q102 70 187.5 103.5t158.5 33.5q140 0 266 -128q44 32 90.5 57t92.5 42.5t90 26.5t85 9q173 0 264 -99.5t91 -288.5q0 -11 -1 -43.5t-2.5 -72t-2.5 -79.5 t-1 -66q0 -63 2.5 -110t7.5 -83.5t13 -64.5t19 -52q-36 -16 -61 -23t-45 -7q-16 0 -26.5 4t-17 14t-9 27.5t-2.5 43.5q0 17 1 49t3 72.5t4 85t4 86.5t3 77t1 57q0 102 -15.5 175t-48.5 120t-84.5 69t-122.5 22q-37 0 -72.5 -6t-73 -19t-77 -32.5t-83.5 -47.5q7 -43 11.5 -79 t6.5 -71t3.5 -81.5t1.5 -109.5v-109q0 -75 2.5 -130.5t7.5 -90.5q9 -53 26 -98q-19 -9 -33 -14.5t-26.5 -8.5t-24 -4t-24.5 -1q-30 0 -41 19.5t-11 71.5q0 8 1 33t2 60t2.5 76.5t2.5 83t2 78.5t1 64q0 116 -14 194.5t-41 123.5h1q-59 94 -197 94q-135 0 -297 -114 q-1 -26 -1.5 -64t-1.5 -81t-2 -86.5t-2 -79.5t-1.5 -61.5t-0.5 -32.5q0 -125 10 -209t33 -142q-32 -15 -59 -21.5t-53 -6.5q-18 0 -28.5 4t-15.5 16t-6.5 33.5t-1.5 56.5q0 4 2 33.5t4.5 75t5.5 102t5.5 116t4.5 116.5t2 103q0 112 -10.5 191t-30.5 136z" />
<glyph unicode="n" horiz-adv-x="1151" d="M139 983q27 6 49 6q42 0 67 -37.5t30 -107.5q97 70 191.5 107.5t175.5 37.5q67 0 122 -19.5t96.5 -55t68.5 -86.5t38 -114q8 -37 11 -91t3 -126q0 -8 -0.5 -29.5t-1 -48t-1 -53.5t-0.5 -45q0 -96 11 -169t34 -123q-67 -29 -108 -29q-32 0 -44 19t-12 72q0 42 6 182v-1 q4 72 5.5 133t1.5 111q0 102 -15.5 176t-49 121.5t-85 70t-123.5 22.5q-69 0 -148 -28t-161 -82l-15 -26q-1 -34 -1.5 -75.5t-1.5 -85t-2 -85t-2 -74t-1.5 -53t-0.5 -22.5q0 -123 10.5 -206t32.5 -141q-32 -15 -59 -21.5t-53 -6.5q-18 0 -28.5 4t-15.5 16t-6.5 33.5 t-1.5 56.5q0 1 1.5 27t4 68.5t5.5 97.5t5.5 113t4 114.5t1.5 103.5q0 151 -12 231q-5 35 -10 62.5t-16 55.5z" />
<glyph unicode="o" horiz-adv-x="1229" d="M84 475q0 117 40.5 214t114 166.5t175.5 108t224 38.5q110 0 203 -37t160.5 -102.5t105.5 -155t38 -193.5q0 -86 -22.5 -159.5t-62 -133.5t-92.5 -106t-113.5 -77.5t-126 -47.5t-129.5 -16q-114 0 -209 37t-163 103.5t-105.5 158.5t-37.5 202zM201 475q0 -89 30.5 -164.5 t85.5 -130.5t130.5 -86.5t164.5 -31.5q91 0 167.5 32.5t131.5 90t86 137.5t31 175q0 187 -116 304h2q-114 118 -298 118q-90 0 -166.5 -31.5t-131.5 -89.5t-86 -140t-31 -183z" />
<glyph unicode="p" horiz-adv-x="1190" d="M138 969q12 2 23.5 3.5t25.5 1.5q38 0 60.5 -37.5t25.5 -105.5q96 70 191 106.5t176 36.5q98 0 183 -35t147.5 -96.5t98 -145.5t35.5 -183q0 -105 -40.5 -198.5t-110.5 -163.5t-163.5 -111t-198.5 -41q-81 0 -145.5 18.5t-126.5 60.5l-49 -25q0 -11 -0.5 -22.5t-1 -25.5 t-0.5 -32.5v-43.5q0 -130 11 -217t34 -146q-33 -15 -59 -21.5t-50 -6.5q-29 0 -41 19t-12 70q0 8 1 46t3.5 96t5 130.5t5 148t5 149t5 134.5t3.5 103.5t1 55.5q0 114 -3.5 197.5t-9.5 134.5q-5 41 -12.5 78t-16.5 68zM276 201l13 -26q71 -46 144.5 -70.5t150.5 -24.5 q87 0 161.5 30.5t128.5 85t84.5 129t30.5 161.5q0 91 -27.5 165.5t-77.5 128t-121 82.5t-158 29q-73 0 -155 -30t-168 -89q-2 -98 -3.5 -244.5t-2.5 -326.5z" />
<glyph unicode="q" horiz-adv-x="1161" d="M86 450q0 118 42.5 217.5t117.5 170.5t178.5 111t225.5 40q14 0 38.5 -2t55 -5t64.5 -7t65.5 -7t58 -5t43.5 -2q2 -1 11 0t24 1h16q-15 -105 -21 -230q-4 -73 -5.5 -167t-1.5 -209q0 -178 4.5 -312t12.5 -228q7 -77 20 -141t27 -106q-32 -15 -58.5 -21.5t-49.5 -6.5 q-33 0 -46 20.5t-13 78.5q0 32 0.5 75t1 92.5t1 102.5t1 104.5t1 98.5t0.5 84q-105 -108 -196 -159t-182 -51q-95 0 -175 34.5t-138 96t-90.5 146.5t-32.5 186zM192 454q0 -88 25.5 -159t72 -121t112 -77t144.5 -27q101 0 185.5 45.5t162.5 143.5l8 20q0 141 2 239t2 146v33 v51q-2 44 -2 91v38q-84 18 -147 26.5t-111 8.5q-106 0 -190 -31.5t-142.5 -90.5t-90 -144t-31.5 -192zM1026 962q1 11 2 20t3 19l33 -36q-9 -1 -18.5 -1.5t-19.5 -1.5z" />
<glyph unicode="r" horiz-adv-x="739" d="M149 973q11 2 21 2.5t21 0.5q88 0 87 -86q0 -13 -1 -35.5t-4 -62.5l56 -20q144 204 264 204q21 0 41 -8t35.5 -21t24.5 -31t9 -37q0 -43 -51 -88q-38 72 -112 72q-60 0 -124 -56t-125 -162q-6 -52 -9 -102.5t-4 -96.5q0 -145 15 -246.5t46 -171.5q-30 -14 -61 -21t-58 -7 q-20 0 -31.5 4.5t-17.5 15.5t-7.5 29.5t-1.5 47.5q0 4 1.5 34t4 77t5.5 106t5.5 120.5t4 121.5t1.5 108q0 63 -2 108.5t-6 81t-10.5 63.5t-16.5 56z" />
<glyph unicode="s" horiz-adv-x="702" d="M119 108l42 13q-4 -8 -8 -14.5t-6 -12.5l-14 6t-14 8zM129 32q0 23 18 62q33 -15 64.5 -21.5t60.5 -6.5q45 0 81.5 11.5t62.5 32.5t40.5 51t14.5 67q0 29 -6.5 53t-24.5 49.5t-49.5 56t-81.5 71.5q-165 135 -165 235q0 44 16 84.5t44 75t65.5 62t80 47t88 30t89.5 10.5 q71 0 71 -44q0 -11 -5 -26t-18 -39q-23 8 -44.5 11.5t-44.5 3.5q-48 0 -89.5 -13.5t-71.5 -37.5t-47 -58t-17 -74q0 -88 156 -221h-1q42 -37 73.5 -67.5t51.5 -58t30 -55t10 -59.5q0 -58 -28.5 -110.5t-78 -92t-116 -62.5t-141.5 -23q-42 0 -65 15t-23 41z" />
<glyph unicode="t" horiz-adv-x="678" d="M66 856q0 7 2.5 18t6.5 23h2q9 -2 19.5 -2h17.5q18 -1 52 -1h2q33 0 75 16q0 10 0.5 23.5t0.5 26.5t0.5 23.5t0.5 15.5q0 73 -8 131.5t-25 105.5q35 16 57.5 22.5t42.5 6.5q26 0 38 -19t12 -63q0 -17 -3 -87.5t-15 -194.5q80 11 136.5 16.5t94.5 5.5q18 0 25.5 -5.5 t7.5 -16.5q0 -20 -19 -57q-25 5 -52.5 7t-63.5 2h-22t-28 -0.5t-37 -2t-50 -5.5q-10 -164 -15 -283t-4 -185q0 -87 8.5 -143.5t26 -89.5t44.5 -46t64 -13q12 0 27.5 3.5t29.5 8.5q2 -5 2 -10v-10q0 -38 -33.5 -61.5t-87.5 -23.5q-98 0 -144.5 66t-46.5 206q0 8 1.5 41.5 t3.5 82.5t5 107.5t6 116t5.5 108.5t4.5 85l-32 32q-14 0 -28.5 -0.5t-27 -1t-21.5 -1t-12 -0.5q-26 0 -36 5t-10 17z" />
<glyph unicode="u" horiz-adv-x="1118" d="M118 950q34 15 58 21.5t41 6.5q32 0 43 -18t11 -66q0 -12 -1 -42t-3 -70t-4 -86t-4 -91t-3 -85t-1 -68q0 -109 14 -182.5t43.5 -118.5t76 -64t111.5 -19q95 0 175.5 46t158.5 147q4 67 6.5 146t2.5 167q0 129 -11 221t-37 153q33 16 60 23t49 7q16 0 26 -5t15 -18.5 t7 -38t2 -62.5q0 -11 -1 -40.5t-2 -70.5t-3 -89.5t-3 -97.5t-2 -93.5t-1 -77.5q0 -80 3.5 -141t9.5 -103q5 -33 13 -60t19 -51q-36 -16 -60.5 -23t-42.5 -7q-26 0 -35 15v-1q-6 11 -9 38t-3 68l-55 20q-67 -81 -142 -119t-170 -38q-158 0 -241 95t-83 278q0 11 0.5 34.5 t2 54t2.5 65.5t2.5 69t2 64t0.5 50q0 86 -8.5 147.5t-29.5 109.5z" />
<glyph unicode="v" horiz-adv-x="1104" d="M14 894q5 -5 11.5 -9t11.5 -9q-3 -6 -6.5 -11.5t-7.5 -11.5zM37 876q33 54 59 78t48 24q18 0 36 -16.5t41 -64.5t53.5 -134t75.5 -225h-1q130 -411 182 -411q13 0 33 16.5t44 45.5t50.5 70t53.5 91q88 162 130.5 290.5t42.5 234.5q0 26 -3.5 50.5t-9.5 48.5q20 4 46 4 q55 0 78 -18t23 -59q0 -50 -17 -116.5t-50 -146t-81.5 -170.5t-111.5 -191q-53 -83 -93 -139t-72 -89.5t-58 -47.5t-50 -14t-47.5 28.5t-49 85t-54 139t-63.5 190.5v-1q-30 90 -59 161t-58 126t-58 94.5t-60 65.5z" />
<glyph unicode="w" horiz-adv-x="1683" d="M-6 936q9 -7 19 -22q-5 -5 -8 -10t-7 -10zM13 914q27 33 53.5 50.5t47.5 17.5q16 0 30 -21t29 -61.5t33 -100.5t44 -139v2q2 -8 4 -15t3 -12q36 -114 68 -205.5t60 -156t52 -99.5t45 -35q17 0 40.5 28t51 77t57 115t57 142.5t51 159.5t40.5 166q28 138 71 138 q26 0 49.5 -71.5t52.5 -211.5q26 -113 56.5 -212t61 -172.5t58 -116t48.5 -42.5q8 0 22 12t31.5 33.5t37.5 51t40 64.5q98 173 144.5 315t47.5 260q0 54 -15 102q14 3 27 4t24 1q89 0 89 -85q0 -109 -78 -296q-23 -55 -57 -121.5t-73 -134t-80 -131.5t-78.5 -113t-68 -79 t-49.5 -30q-23 0 -51 39t-63.5 129.5t-81 240t-102.5 371.5q-67 -211 -126.5 -361.5t-111.5 -244.5q-96 -174 -146 -174q-34 0 -107 152.5t-188 451.5q-46 120 -83.5 200t-66.5 118z" />
<glyph unicode="x" horiz-adv-x="1038" d="M84 32q0 78 313 381l75 74q-178 240 -266 332v-1q-63 67 -110 94q15 37 36 57t47 20q38 0 161 -178q25 -36 52 -74t53 -73.5t49.5 -66.5t41.5 -54q88 96 145 163.5t84 108.5q31 47 46.5 84.5t15.5 69.5v8q23 8 37.5 10t25.5 2q59 0 59 -48q0 -68 -345 -414l-38 -36 q63 -87 120 -160t104.5 -128t83.5 -91t58 -49q-12 -36 -32 -56t-46 -20q-43 0 -171 190q-23 33 -47 68.5t-47.5 68.5t-44 62t-35.5 50q-89 -94 -147 -160.5t-87 -107.5q-62 -87 -62 -147v-13q-21 -6 -37 -8.5t-29 -2.5q-34 0 -48.5 10.5t-14.5 34.5zM213 -2q7 2 12.5 4 t12.5 4l-20 -29l-1 1q-2 2 -2 4q-1 4 -1 8t-1 8z" />
<glyph unicode="y" horiz-adv-x="1069" d="M32 843q20 64 47 98.5t58 34.5q21 0 36 -11.5t29 -41.5h-1q-1 2 14.5 -36t43 -102.5t64 -149t76.5 -175.5t81.5 -182.5t78.5 -169.5q319 671 319 816q0 15 -3 29q35 12 58 17.5t37 5.5q23 0 36.5 -12.5t13.5 -32.5q0 -40 -145 -337q-75 -154 -137.5 -294.5t-115.5 -268.5 q-44 -105 -78.5 -192t-61.5 -149t-48.5 -96t-39.5 -34q-23 0 -51 21.5t-57 63.5q49 45 90.5 105t80.5 147v-1l41 85q-115 270 -195 443t-127 251q-40 67 -75 109t-69 59zM265 -374l6 41q5 -5 8 -11t7 -11q-5 -5 -10.5 -9.5t-10.5 -9.5zM847 945l21 37q2 -7 3.5 -14t3.5 -15 q-7 0 -15 -3.5t-13 -4.5z" />
<glyph unicode="z" horiz-adv-x="920" d="M75 44q0 23 201 283q52 67 106.5 139t107 144.5t101.5 141.5t90 130q-53 4 -75 6t-30.5 2t-12 -0.5t-19.5 -0.5q-39 0 -66.5 1t-40.5 1q-99 0 -178 -8t-128 -22q-11 38 -11 58q0 29 22 41t79 12q22 0 69.5 -1t102.5 -2.5t108.5 -2.5t86.5 -1q50 0 85.5 0.5t62 2t46.5 3.5 t38 6q18 -24 18 -46q0 -37 -206 -302q-53 -68 -107.5 -140t-106 -143t-98.5 -137.5t-85 -121.5q24 0 52 -1t53 -1.5t44 -1.5t24 -1h47q85 0 148 2.5t108 6.5q35 3 64.5 8.5t55.5 13.5q4 -14 5.5 -26t1.5 -20q0 -35 -35 -51t-113 -16q-75 2 -149 4q-32 1 -66.5 1.5l-69 1 t-68 1t-62.5 0.5q-51 0 -95 -2.5t-86 -7.5q-19 22 -19 46zM78 -4q6 0 16 2q3 -4 10 -11z" />
<glyph unicode="{" horiz-adv-x="721" d="M58 531q0 13 9 19.5t39 11.5q112 18 164.5 83.5t52.5 188.5v276q0 88 14.5 151t45 103.5t78.5 60t114 19.5q61 0 93 -9.5t32 -27.5q0 -6 -10 -8.5t-25 -4t-33.5 -2.5t-35.5 -4q-89 -17 -128 -72t-39 -165v-216q0 -99 -10 -164.5t-35 -107.5t-67 -65t-105 -36l5 -62 q113 -5 162.5 -67.5t49.5 -196.5q0 -38 -0.5 -89.5t-0.5 -100t-0.5 -84t-0.5 -40.5q0 -70 12.5 -116t37.5 -74t63 -41.5t89 -17.5q71 -3 71 -15q-1 -34 -90 -34q-83 0 -138 15.5t-88 53t-47 100.5t-14 159q0 11 0.5 33t1.5 48.5t1.5 55t0.5 53.5q0 88 -9.5 148t-30 99 t-52.5 61.5t-78 35.5l1 -1q-9 3 -19.5 6t-22.5 5h1q-59 13 -59 35z" />
<glyph unicode="|" d="M478 -504v2075h68v-2075h-68z" />
<glyph unicode="}" horiz-adv-x="721" d="M21 -342q0 6 23 11t68 5q48 2 82 18t55.5 48.5t32 82t10.5 118.5q0 -1 0 12.5t-0.5 37t-0.5 54.5t-0.5 64t-0.5 66v61q0 134 51.5 196.5t168.5 67.5l4 59q-64 13 -107 36.5t-69 62.5t-37 96.5t-11 139.5q0 15 0.5 45.5t0.5 64.5t0.5 64t0.5 45q0 77 -12 129t-38 84 t-67.5 47t-101.5 18q-52 3 -52 16q0 37 125 37q130 0 190 -79.5t60 -254.5v-276q0 -121 52 -186.5t166 -85.5l-4 2q21 -6 35 -11.5t14 -21.5q0 -23 -53 -33q-62 -16 -103 -37.5t-65 -60t-34 -99t-10 -153.5q0 -23 0.5 -51.5t1.5 -56.5t1.5 -51.5t0.5 -36.5q0 -96 -14 -159 t-47.5 -100.5t-89 -53t-138.5 -15.5q-87 0 -88 34z" />
<glyph unicode="~" horiz-adv-x="1706" d="M157 529q0 26 24 50q69 71 166.5 111.5t208.5 40.5q54 0 111 -11t120 -31l-1 1q13 -5 31 -12t42 -15h-2q193 -75 309 -75q122 0 236 66q101 59 110 59q21 0 33.5 -10.5t12.5 -28.5q0 -59 -112 -122v1q-126 -66 -282 -66q-45 0 -84 5.5t-73 14.5h1q-26 8 -62 19.5 t-84 28.5q-208 71 -308 71q-53 0 -112 -18t-119 -53q-52 -29 -84 -45t-40 -16q-20 0 -31 9t-11 26z" />
<glyph unicode="&#xa7;" d="M174 578q0 97 69.5 178t198.5 134l6 56q-144 96 -144 214q0 60 34.5 116t89.5 99.5t122.5 70t132.5 26.5q44 0 64 -11.5t20 -35.5q0 -25 -24 -70q-45 15 -86 15q-49 0 -91 -13.5t-73.5 -36.5t-49.5 -55t-18 -69q0 -29 7 -53.5t29 -53t63.5 -66.5t109.5 -94q4 -2 5 -3 q213 -174 213 -297q0 -100 -83 -185.5t-240 -145.5q114 -85 166.5 -152t52.5 -128q0 -60 -31 -113t-83.5 -93.5t-122.5 -64t-148 -23.5q-106 0 -106 67q0 13 5.5 28.5t14.5 33.5q37 -16 72 -23.5t73 -7.5q49 0 89 12.5t68 34t43 50.5t15 62q0 27 -17 58t-50.5 68.5t-83 83.5 t-114.5 103l1 -2l-9 9l2 -3q-192 162 -192 280zM265 605q0 -70 55 -132.5t177 -129.5l26 -2q232 94 232 260q0 33 -11 63.5t-38.5 62t-74.5 66.5t-118 77q-120 -44 -184 -112.5t-64 -152.5z" />
<glyph unicode="&#xab;" horiz-adv-x="758" d="M94 488q0 31 21 67.5t67 86.5q33 36 59.5 56t43.5 20q14 0 14 -11q0 -7 -40 -73q-48 -81 -48 -146q0 -28 13.5 -66t30 -72.5t30.5 -58.5t14 -23q0 -11 -14 -11q-17 0 -43.5 19.5t-59.5 55.5q-46 49 -67 86.5t-21 69.5zM447 488q0 32 20.5 69.5t65.5 84.5h-1q36 36 63 56 t43 20q14 0 14 -11q0 -7 -40 -73q-48 -81 -48 -146q0 -28 13.5 -66t30 -72.5t30.5 -58.5t14 -23q0 -11 -14 -11q-13 0 -32.5 12.5t-40.5 32t-42 45t-38 51t-27.5 49.5t-10.5 41z" />
<glyph unicode="&#xac;" horiz-adv-x="1706" d="M245 787q0 22 17.5 34t49.5 12h1056q38 0 58.5 -20.5t20.5 -58.5v-330q0 -32 -12 -49.5t-34 -17.5q-21 0 -35.5 18t-14.5 47v254q0 34 -17 51t-48 17h-976q-28 0 -46.5 12.5t-18.5 30.5z" />
<glyph unicode="&#xad;" horiz-adv-x="702" d="M78 354q7 24 23.5 48t39.5 42.5t50.5 30t57.5 11.5q13 0 46 -2.5t71 -6t75 -6t59 -2.5q9 0 26 3.5t35 8t34.5 9t25.5 6.5l1 -4q1 -5 1 -7v-3q0 -27 -14.5 -49.5t-38 -39t-52.5 -26t-59 -9.5q-16 0 -48 3t-68 6.5t-69.5 6.5t-52.5 3q-8 0 -23 -5l-31.5 -10.5t-32.5 -10.5 t-25 -5q-8 0 -15.5 1.5t-15.5 6.5z" />
<glyph unicode="&#xb0;" horiz-adv-x="674" d="M74 1174q0 57 20.5 105t56 83.5t83.5 55.5t104 20q55 0 103 -20.5t84 -56.5t56.5 -84t20.5 -103t-20.5 -103t-56.5 -84t-84.5 -56.5t-104.5 -20.5t-104 20.5t-83 56t-55 83.5t-20 104zM123 1176q0 -45 16.5 -84.5t45 -69t67.5 -46.5t84 -17q46 0 86 17t69 46t45.5 67.5 t16.5 82.5q0 93 -63 153v-1q-62 63 -152 63q-49 0 -88.5 -15t-67.5 -42.5t-43.5 -66.5t-15.5 -87z" />
<glyph unicode="&#xb4;" d="M378 1168q0 1 12.5 12t29 26t34 31.5t28.5 27.5q69 80 122 128.5t79 48.5q29 0 46 -16t17 -42q0 -22 -21 -47t-53.5 -49.5t-73 -46.5t-80 -39t-72.5 -27t-52 -10q-16 0 -16 3z" />
<glyph unicode="&#xb7;" horiz-adv-x="584" d="M179 719q0 49 31.5 80.5t80.5 31.5t80.5 -31.5t31.5 -80.5q0 -48 -31.5 -78.5t-80.5 -30.5t-80.5 30.5t-31.5 78.5z" />
<glyph unicode="&#xbb;" horiz-adv-x="758" d="M108 268q25 44 44 84q17 35 30.5 71.5t13.5 62.5q0 67 -48 148q-40 66 -40 73q0 11 10 11q19 0 45.5 -19.5t61.5 -56.5q46 -49 67 -86.5t21 -69.5q0 -14 -10 -36t-26 -47.5t-36.5 -51.5t-42 -47t-42.5 -34t-38 -13q-10 0 -10 11zM459 268q25 44 44 84q17 35 30.5 71.5 t13.5 62.5q0 67 -48 148q-40 66 -40 73q0 11 9 11q18 0 46.5 -20t63.5 -56v1q86 -96 86 -157q0 -16 -10 -39t-26 -48.5t-37 -51t-43 -45.5t-43 -32.5t-37 -12.5q-9 0 -9 11z" />
<glyph unicode="&#x2c6;" d="M233 1174q0 11 20 38t60 67l15 15t10 12l-3 -3q118 129 171 129q54 0 203 -146l5 -5q24 -24 39.5 -41t24 -29t12 -21t3.5 -16q0 -9 -8 -9q-16 0 -104 59l-9 7l1 -3q-3 5 -7 7l-8 4l1 -1q-66 39 -100.5 61t-52.5 22q-21 0 -59.5 -22t-101.5 -64q-1 0 -3.5 -2t-4.5 -4h1 q-7 -4 -15.5 -9.5t-17.5 -11.5l1 1q-29 -22 -46.5 -32t-23.5 -10q-3 0 -3 7z" />
<glyph unicode="&#x2dc;" d="M207 1173l2 2l-1 -2h-1zM209 1175q1 2 1 10q0 30 17 60t44.5 54.5t62.5 40t71 15.5q13 0 34.5 -4.5t47.5 -10.5t54 -14t53.5 -14t46 -10.5t32.5 -4.5q39 0 79.5 20t68.5 48q0 -34 -14 -64.5t-37.5 -53.5t-55.5 -36.5t-68 -13.5q-23 0 -55.5 7t-76.5 21v-1 q-48 16 -83 24.5t-56 8.5t-43.5 -6.5t-44 -18t-42 -26.5t-36.5 -31zM821 1365v1q0 5 3 5v-2q0 -1 -3 -4z" />
<glyph unicode="&#x10a4;" horiz-adv-x="800" d="M39 -395q0 68 27.5 119t63 84.5t67.5 50.5t41 17q17 0 30 -12t13 -27q0 -20 -21 -34q-20 -13 -44 -32t-44.5 -43.5t-34.5 -53.5t-14 -62q0 -69 20 -118.5t57 -81.5t87.5 -47t112.5 -15q39 0 77 13t69 50.5t50 105t19 176.5v702q0 50 -13 89.5t-34.5 67t-50.5 42t-60 14.5 q-55 0 -89 -17.5t-53 -44t-26 -57t-8 -55.5q0 -26 8 -40.5t19.5 -27.5t25 -28t24.5 -43q2 -8 2 -12q0 -11 -6 -20.5t-15.5 -17.5t-21 -12.5t-22.5 -4.5q-17 0 -35 24.5t-33 58t-24.5 68t-9.5 55.5q0 41 12.5 87.5t43.5 85.5t84.5 65t135.5 26q55 0 98 -22t73 -61.5t45.5 -95 t15.5 -121.5v-698q0 -75 -14.5 -153t-49.5 -142.5t-93 -105.5t-145 -41q-104 0 -173 28.5t-110 76.5t-58.5 110t-18.5 130z" />
<glyph unicode="&#x10bd;" horiz-adv-x="831" d="M80 -421q0 79 10.5 123.5t24 49t27.5 -34t20 -123.5q3 -36 13.5 -78.5t37.5 -79t74 -61.5t122 -25q69 0 116.5 27t77.5 76.5t43.5 119t13.5 153.5q0 63 -3 128t-16.5 127.5t-42.5 120.5t-81 107q-15 -31 -36 -65.5t-47 -64t-58 -49t-71 -19.5q-85 0 -129.5 28.5 t-46.5 100.5q-2 71 26.5 117.5t85.5 83.5q18 12 30.5 18.5t23.5 11.5t24 11t33 17q-9 37 -9.5 86t3 103t8.5 109t7.5 103.5t-0.5 87t-16 59.5q-16 26 -34 44t-36 32.5t-34 28.5t-28.5 32.5t-20 44.5t-7.5 65q0 41 13 82t37 74.5t57.5 54.5t74.5 22q55 1 79.5 -13.5t23.5 -32 t-24.5 -32t-64.5 -14.5q-37 0 -57 -10t-30 -28.5t-12 -44.5t-2 -58q0 -41 8.5 -64.5t22 -36.5t30.5 -20t34 -16t32 -23.5t25 -42.5q15 -43 18 -90t-1 -97t-12 -101.5t-14 -103t-7.5 -102t7.5 -98.5q17 -22 31.5 -38.5t39.5 -30.5q28 38 45 74t31 74.5t29 81.5t39 96 q9 20 22.5 24t24.5 -3t16.5 -23t-1.5 -37q-29 -85 -61.5 -169t-80.5 -163q69 -74 106.5 -141.5t54 -133t19 -132t2.5 -136.5q0 -93 -18.5 -179.5t-57.5 -154t-98.5 -108t-140.5 -40.5q-89 0 -153.5 32.5t-107.5 81t-63.5 104t-20.5 101.5zM205 142q1 -20 6.5 -30t16.5 -14.5 t27 -5t37 -1.5q27 -1 49.5 12t42.5 36t38.5 55.5t38.5 70.5q-23 14 -44 29.5t-41 35.5q-40 -9 -62 -18.5t-42 -28.5q-38 -35 -53.5 -68.5t-13.5 -72.5z" />
<glyph unicode="&#x10d0;" horiz-adv-x="755" d="M77 334q0 19 5 40.5t12.5 42.5t17.5 39.5t21 32.5q9 11 20.5 16t22.5 5q17 0 35 -9.5t18 -25.5t-10.5 -34t-22.5 -37t-22.5 -39t-10.5 -40q0 -48 13 -90.5t40.5 -74.5t70.5 -51t102 -19q53 0 95 17t71.5 47.5t45 73t15.5 94.5q0 59 -23.5 101t-59 74t-77 58t-77 53 t-59 58.5t-23.5 74.5q0 44 9 82t32 68t61.5 50.5t98.5 29.5q23 0 36 -11.5t13 -31.5q0 -14 -9 -26.5t-28 -16.5q-41 -8 -67.5 -20t-41.5 -28.5t-20.5 -36.5t-5.5 -44q0 -36 24.5 -60.5t61.5 -46.5t80.5 -46.5t80.5 -60t61.5 -87t24.5 -127.5q0 -72 -21 -132.5t-61.5 -104 t-101 -67.5t-139.5 -24q-94 0 -154 34.5t-94 85.5t-47 109t-13 105z" />
<glyph unicode="&#x10d1;" horiz-adv-x="784" d="M79 344q0 77 18.5 140t57.5 108.5t99.5 73t144.5 33.5q6 20 15.5 41.5t18.5 43.5t15.5 43.5t6.5 42.5q0 26 -11 45q-17 30 -40 49t-47.5 36t-48.5 35.5t-43 46.5t-30.5 70t-11.5 105q0 26 13 55.5t39.5 54.5t65 41.5t89.5 16.5q42 0 75 -17.5t56 -41.5t35.5 -49.5 t12.5 -40.5t-6 -22.5t-15 -7.5t-22 15.5t-33.5 34.5t-49 34.5t-69.5 15.5q-22 0 -42 -8t-35 -21.5t-23.5 -30.5t-8.5 -35q0 -60 14 -95.5t36 -58t49 -37t52 -32t45 -42.5t29 -68q5 -28 5 -48q0 -28 -5.5 -53.5t-13 -47.5t-14.5 -40.5t-11 -33.5q48 -13 89 -42t70 -72 t45.5 -99t16.5 -122q0 -77 -21 -142.5t-61.5 -114t-98.5 -76t-132 -27.5t-133 23t-100.5 67t-64 108t-22.5 146zM163 344q0 -39 12 -83.5t38.5 -82.5t67.5 -63t100 -25q66 0 111.5 20.5t74 55t41 81t12.5 97.5q0 48 -14.5 98.5t-40.5 92.5t-61.5 69t-77.5 27 q-50 0 -97.5 -20.5t-84.5 -58t-59 -90.5t-22 -118zM172 249q1 -1 1 -2t1 -1q-1 1 -1 2z" />
<glyph unicode="&#x10d2;" horiz-adv-x="817" d="M35 -287q0 97 26 178.5t78 140.5t128 92t177 33q19 0 36 16t31.5 41t26.5 55t20.5 59.5t13 54t4.5 37.5q0 96 -37.5 148t-109.5 52q-29 0 -57.5 -11t-51 -29t-36.5 -42t-14 -51q0 -32 11 -52t23 -30q11 -10 11 -22q0 -8 -4.5 -18t-12.5 -18t-18 -13.5t-20 -5.5 q-26 0 -42.5 19t-25.5 45t-12.5 52t-3.5 41q0 49 19 90.5t52 71.5t76.5 46.5t92.5 16.5q66 0 114 -21.5t78.5 -57.5t45 -83t14.5 -98q0 -33 -10.5 -75.5t-27.5 -86t-39 -83t-44 -66.5q69 -20 113.5 -63t70.5 -98.5t36.5 -119t10.5 -124.5q0 -50 -9.5 -105t-29 -107.5 t-49.5 -100t-69.5 -83.5t-90 -57t-111.5 -21q-101 0 -173.5 39t-119 103t-69 145.5t-22.5 165.5zM119 -254q0 -32 4 -73.5t15.5 -85.5t32.5 -86.5t54.5 -76t81.5 -54t114 -20.5q71 0 121.5 36.5t83 93t47.5 123.5t15 128q0 19 -2.5 51.5t-10.5 70t-23.5 76t-41.5 69.5 t-64 51t-91 20q-159 0 -247.5 -78.5t-88.5 -244.5z" />
<glyph unicode="&#x10d3;" horiz-adv-x="1125" d="M55 -248q0 20 15 31.5t35.5 17.5t42.5 7.5t37 1.5q18 0 33.5 -2.5t32.5 -8t39.5 -13t54.5 -17.5q-42 53 -88.5 115t-85.5 132t-64 147.5t-25 160.5q0 30 3 68.5t12 78.5t25.5 78t43.5 67.5t66.5 47.5t93.5 18q35 0 61.5 -4.5t47.5 -16t39 -30.5t37 -49q17 26 43 48 t55 37.5t59.5 24t56.5 8.5q88 0 151 -27t102.5 -75t58 -114t18.5 -144q0 -68 -21.5 -129.5t-63 -108t-103 -74.5t-141.5 -28q-76 0 -133 33.5t-94.5 83.5t-56 109t-18.5 110q0 30 3 54t7 45.5t9 41.5t10 42q-14 44 -51 67.5t-80 23.5t-72.5 -27t-48 -68.5t-27 -92 t-8.5 -98.5t13.5 -101t36 -108t53.5 -110t66 -105t72.5 -94t74.5 -78q24 -22 63 -58t83.5 -78t89.5 -86t81.5 -82.5t59.5 -68t23 -41.5q0 -7 -3 -16t-8.5 -16.5t-12 -12.5t-12.5 -5q-5 0 -10 5q-32 31 -75.5 74t-93 91t-102.5 97t-104 93q-40 35 -78 53.5t-71.5 27t-62 9.5 t-50.5 1q-37 0 -86 -6q-3 -1 -9 -1q-23 0 -36 13.5t-13 30.5zM513 358q0 -53 16 -101.5t45.5 -85.5t71 -59t92.5 -22q59 0 101 25t69 63t39.5 83.5t12.5 86.5q-2 127 -59.5 194.5t-175.5 67.5q-47 0 -86 -21t-67 -56t-43.5 -80.5t-15.5 -94.5z" />
<glyph unicode="&#x10d4;" horiz-adv-x="738" d="M37 -395q0 45 14 88t35 81t46.5 69.5t48.5 54.5t41 35.5t24 12.5q17 0 30 -12t13 -27q0 -10 -12.5 -24t-31 -32.5t-40.5 -42t-40.5 -53t-31 -65.5t-12.5 -78q0 -137 58 -199.5t159 -62.5q39 0 77 13t69 50.5t50 105t19 176.5v702q0 50 -13 89.5t-34.5 67t-50.5 42 t-60 14.5q-55 0 -89 -17.5t-53 -44t-26 -57t-8 -55.5q0 -26 3 -41.5t10.5 -26t20.5 -18.5t33 -20q9 -5 12 -19t1 -28q-2 -21 -22.5 -31.5t-43.5 -11.5q-20 0 -38 20t-32.5 49.5t-23 64t-8.5 62.5q0 41 12.5 87.5t43.5 85.5t84.5 65t135.5 26q55 0 98 -22t73 -61.5t45.5 -95 t15.5 -121.5v-698q0 -75 -14.5 -153t-49.5 -142.5t-93 -105.5t-145 -41q-89 0 -146.5 28.5t-91.5 76.5t-47.5 110t-14.5 130z" />
<glyph unicode="&#x10d5;" horiz-adv-x="704" d="M39 -409q0 51 20 95.5t51.5 77.5t68.5 52.5t72 19.5q23 0 39 -14.5t16 -31.5q0 -12 -13.5 -19.5t-33 -15.5t-43 -18.5t-43 -28.5t-33 -46t-13.5 -71q0 -48 13 -91.5t39 -76.5t64 -53t88 -20q75 0 119 30t67 78.5t29.5 110t6.5 125.5q0 19 -0.5 33.5t-0.5 27.5t-0.5 26.5 t-0.5 30.5v80q0 39 -3 71t-15 60.5t-35 55t-63 55.5q-24 -18 -40 -31.5t-29 -23.5t-25.5 -15t-28.5 -5q-18 0 -31.5 13t-13.5 30q0 12 18 25.5t45 31t59 41.5t59 58t45 80t18 108q0 37 -11.5 67t-33 51.5t-51.5 33.5t-66 12q-24 0 -51.5 -9t-51 -24t-39.5 -33.5t-16 -36.5 q0 -31 5 -50.5t22 -42.5q6 -9 6 -19q0 -16 -14.5 -29t-34.5 -13q-9 0 -14 2q-20 6 -31.5 23t-17.5 37.5t-8 41.5t-2 36q0 48 22.5 86.5t60 65.5t85 41t97.5 14q48 0 90.5 -22t74 -57.5t49.5 -81t18 -93.5q0 -72 -31.5 -139.5t-87.5 -119.5q28 -28 50.5 -49t40 -41.5t30 -43 t21 -53t12.5 -72t4 -99.5v-51q0 -110 -6 -204.5t-35.5 -164.5t-91.5 -109.5t-174 -39.5q-65 0 -118.5 26.5t-92 71.5t-60 105t-21.5 128z" />
<glyph unicode="&#x10d6;" horiz-adv-x="758" d="M-31 1092q0 82 27.5 144.5t70.5 104.5t96.5 63t105.5 21q61 0 111 -14.5t85.5 -43t55 -70t19.5 -96.5q0 -5 -0.5 -10t-0.5 -10q-4 -65 -28 -138t-56.5 -144.5t-69 -135.5t-64.5 -110q22 12 38 21t32.5 14.5t37 8.5t50.5 3q44 0 77.5 -16.5t57 -43t38.5 -60t23.5 -68 t12 -67t3.5 -56.5q0 -58 -19.5 -126t-59 -126.5t-99 -97.5t-140.5 -39q-69 0 -120 21.5t-84 58t-49.5 84.5t-16.5 101q0 21 3 44q7 59 27 122t50 127t68 129t80 129q-37 0 -78 5t-81 17t-77 32t-65 50.5t-44.5 72.5t-16.5 99zM53 1110q1 -66 29 -109.5t71.5 -69.5t96.5 -38 t103 -15q2 8 16.5 34.5t31.5 62.5t31.5 78t16.5 81q0 8 0.5 15.5t0.5 15.5q0 50 -10 82.5t-32 52t-55.5 27.5t-81.5 8q-43 0 -82.5 -16t-69.5 -45.5t-48 -70t-18 -89.5v-4zM194 272q0 -32 10.5 -64.5t33 -58.5t58.5 -42.5t87 -16.5q48 0 87 24t66.5 62.5t43 86.5t15.5 95 q0 67 -6 115t-23 78.5t-46.5 44.5t-76.5 14q-18 0 -39 -2t-41.5 -7t-39.5 -13.5t-33 -20.5q-13 -18 -26.5 -48t-26 -65.5t-23 -73t-16.5 -71.5q-2 -9 -3 -18t-1 -19z" />
<glyph unicode="&#x10d7;" horiz-adv-x="1172" d="M79 346q0 95 24.5 162.5t65.5 110t94 62t110 19.5q45 0 84.5 -13t71 -33.5t54.5 -46.5t35 -52q21 45 43 73.5t51.5 44.5t68 21.5t91.5 5.5q109 0 170 -84t61 -258q0 -32 -10 -68.5t-28.5 -73.5t-44 -72.5t-56 -64.5t-65 -50t-70.5 -29q-3 -1 -9 -1q-14 0 -21 10.5 t-7 24.5q0 15 7.5 30.5t21.5 25.5q29 19 61.5 49.5t60 66.5t45.5 76t18 79q0 45 -5 90t-24 80t-55.5 57t-100.5 22q-32 0 -62 -12t-53 -32.5t-37 -48.5t-14 -60q0 -13 1 -29.5t2 -34.5t2 -35t1 -32q0 -67 -24.5 -126.5t-65 -103.5t-92.5 -70t-106 -26q-68 0 -122.5 27 t-92.5 74t-58.5 110t-20.5 135zM163 339q0 -62 19.5 -108.5t50.5 -78t68 -47t72 -15.5q45 0 81.5 21.5t63 55.5t41 76t14.5 83q0 56 -12 107.5t-36 90.5t-61 62.5t-87 23.5q-59 0 -99.5 -24.5t-66 -63.5t-37 -87t-11.5 -96z" />
<glyph unicode="&#x10d8;" horiz-adv-x="766" d="M63 326q0 81 26.5 149.5t71.5 118.5t105 78t127 28q90 0 151 -34t98.5 -88t53.5 -119.5t16 -128.5q0 -49 -10 -96.5t-30 -89.5t-50.5 -76.5t-72.5 -57.5q-8 -5 -19 -5q-20 0 -35 19.5t-15 41.5q0 25 20 38q27 17 47 33.5t34 41.5t22.5 61.5t11.5 93.5q1 8 1 16v16 q0 52 -15.5 96.5t-44.5 77.5t-71.5 51.5t-96.5 18.5q-57 0 -99.5 -22t-70 -60t-41.5 -88t-14 -106q0 -35 6 -69t19.5 -62.5t35 -49.5t52.5 -30q17 -5 29.5 -24t12.5 -36q0 -12 -5 -23.5t-13.5 -20.5t-19 -14.5t-22.5 -5.5q-5 0 -7 1q-41 7 -75.5 44.5t-59.5 87t-39 102.5 t-14 92z" />
<glyph unicode="&#x10d9;" horiz-adv-x="718" d="M44 -377q0 34 14.5 69t37.5 65t51.5 52t56.5 31q12 4 23 4q20 0 30 -11t10 -26q0 -14 -8 -26.5t-25 -20.5q-48 -21 -78 -59.5t-30 -81.5q0 -46 16 -94t48 -87t79.5 -63.5t109.5 -24.5q66 0 104 35.5t56.5 96t23.5 141.5t5 172v41q0 90 -8.5 141.5t-24 79.5t-38 41 t-51.5 25q-23 -12 -43.5 -25.5t-42 -28.5t-45.5 -30.5t-52 -30.5q-8 -5 -18 -5q-15 0 -26.5 5t-17.5 21q-5 11 -5 24q0 16 7.5 24.5t15.5 14.5q27 18 47.5 29t39.5 20t38.5 18t44.5 23q28 16 59 41.5t56.5 56.5t42 65.5t16.5 68.5q0 94 -42 144.5t-114 50.5q-30 0 -63 -9 q-4 -2 -8 -2h-8q-20 0 -34 14t-14 42q0 23 19.5 34.5t70.5 11.5q49 0 99.5 -17t92 -50t67.5 -82t26 -113q0 -48 -12 -85t-33 -67.5t-50.5 -58t-64.5 -57.5q39 -17 69.5 -38.5t51 -57t31.5 -89t11 -133.5q0 -128 -9.5 -221.5t-27.5 -159.5t-44.5 -107.5t-61.5 -64.5 t-77.5 -31.5t-92.5 -8.5q-65 0 -120.5 28t-95.5 77t-62.5 115.5t-22.5 143.5z" />
<glyph unicode="&#x10da;" horiz-adv-x="1470" d="M75 334q0 35 6.5 74.5t20 78t33.5 74.5t48 63t64 43.5t80 16.5q31 0 62.5 -13t58 -33t45.5 -45.5t27 -49.5q1 24 13.5 50t33.5 47.5t50.5 35.5t64.5 14q33 0 66.5 -13.5t63.5 -34.5t54.5 -47t40.5 -50q11 31 29.5 59t42 49.5t50.5 34t56 12.5q74 0 132 -25t98.5 -71 t62 -111t21.5 -146v-5q-1 -94 -48 -177.5t-129 -141.5q-13 -10 -28 -10q-19 0 -35 12t-16 44q0 17 7.5 30.5t18.5 20.5q27 17 52 36.5t44 46t31 60.5t14 79v19q0 55 -11 101t-36 79t-64 51t-95 18q-38 0 -65.5 -13.5t-47.5 -34t-33.5 -45t-23.5 -46.5q11 -32 18 -56.5 t7 -58.5v-17q-1 -18 -4.5 -44t-12 -55t-23 -57t-36.5 -50q-8 -8 -20 -8q-18 0 -35.5 17.5t-17.5 41.5q0 19 12 34q10 13 18 20.5t14 18t9.5 29.5t3.5 56v7q0 131 -49 191t-136 60q-32 0 -54 -12t-36.5 -30t-23 -40t-13.5 -43q3 -18 7.5 -32.5t8.5 -29.5t6.5 -31.5t2.5 -38.5 v-10q-1 -29 -3 -52t-7 -44t-13.5 -42.5t-21.5 -47.5q-9 -16 -28 -16q-20 0 -38.5 14.5t-18.5 36.5q0 11 5 20q11 22 17.5 34t10.5 22.5t5.5 24.5t1.5 39v4q0 37 -7 84t-24 87.5t-45.5 68.5t-71.5 28q-52 0 -87 -23t-56.5 -61.5t-30.5 -89t-9 -105.5q0 -75 28 -151t76.5 -148 t114.5 -135.5t141 -112.5q58 -38 103 -70.5t83 -63t71.5 -61t68 -65t73 -74t87.5 -87.5q9 -11 9 -21q0 -19 -18.5 -35.5t-39.5 -16.5q-16 0 -27 11q-58 58 -106 111t-95 99.5t-99 87t-117 73.5q-62 0 -109.5 -1.5t-84.5 -9t-65 -22.5t-49 -41q-12 -15 -31 -15t-35.5 14.5 t-16.5 34.5q0 18 16 34q36 35 95 48.5t124 13.5q29 0 57.5 -2t55.5 -5q-92 51 -165 122.5t-124 155t-78 174t-27 177.5z" />
<glyph unicode="&#x10db;" horiz-adv-x="766" d="M38 1147v4q0 50 18.5 99t59 88t104.5 63t156 24q72 0 122.5 -27t84 -78.5t52 -126.5t27.5 -171t11 -212.5t2 -250.5q0 -129 -20.5 -232.5t-58 -176t-90 -111.5t-116.5 -39q-52 0 -95 21t-77.5 57t-60.5 84t-43 102t-25.5 112t-8.5 113q0 48 16.5 82.5t43 58t60 37.5 t67.5 21.5t66 9.5t55 2q28 0 52 -3.5t47 -10t46 -16.5t49 -23q0 48 2.5 110.5t2.5 131.5q0 80 -7 159.5t-29 143.5t-63 103.5t-108 39.5q-76 0 -126 -11.5t-79 -36.5t-41 -63t-12 -91q0 -16 4 -38.5t11.5 -43.5t18.5 -35.5t26 -15.5q19 -1 29.5 -2.5t19.5 -1.5q10 0 23 13 t36 23q9 4 18 4t16 -7t11.5 -16.5t7 -20.5t2.5 -19q0 -10 -5.5 -17t-11.5 -15q-12 -16 -32.5 -23.5t-58.5 -7.5q-55 0 -92.5 19t-61 51.5t-34 75.5t-11.5 91zM164 438q0 -19 6 -52t18.5 -72t31 -78.5t44.5 -72t59.5 -53t74.5 -20.5q42 0 76 33t58.5 90t37.5 133t13 162 q0 11 -0.5 20.5t-0.5 20.5q-17 10 -37.5 20.5t-44.5 19.5t-51.5 15t-58.5 6q-73 0 -117.5 -11.5t-68.5 -33.5t-32 -54t-8 -73z" />
<glyph unicode="&#x10dc;" horiz-adv-x="748" d="M80 602q0 200 32.5 353.5t89.5 258t135 158t170 53.5q33 0 57 -0.5t45 -3t43 -7.5t51 -15q15 -5 21.5 -17t6.5 -26q0 -20 -11.5 -38.5t-28.5 -18.5q-7 0 -10 2q-22 10 -71.5 22t-112.5 12q-59 0 -106.5 -29.5t-84 -79.5t-62.5 -116t-42.5 -138.5t-24.5 -148t-8 -143.5 q34 4 62.5 6.5t60.5 2.5q26 0 56 -2t69 -7q45 -6 92 -18.5t85.5 -36t63.5 -58.5t25 -86q0 -90 -22.5 -176.5t-70 -154t-120.5 -109t-174 -41.5q-52 0 -88 32.5t-60 85t-37.5 118.5t-20.5 132.5t-8.5 128t-1.5 105.5zM165 486q0 -64 5 -133.5t22.5 -127.5t50 -95.5 t86.5 -37.5q69 0 117.5 31.5t79 82t44.5 113.5t14 127q0 37 -10.5 60.5t-30.5 39t-51 25.5t-71 19q-29 7 -58 9.5t-57 2.5q-38 0 -73.5 -3.5t-65.5 -8.5q-1 -23 -1.5 -49t-0.5 -55z" />
<glyph unicode="&#x10dd;" horiz-adv-x="1227" d="M62 371q0 65 20 124.5t57.5 105t92.5 72.5t124 27q41 0 72.5 -10t57.5 -31t48.5 -53t46.5 -75q25 44 51 76t56.5 52.5t67 30.5t84.5 10q75 0 123.5 -26t77.5 -68.5t40.5 -97.5t11.5 -113v-21.5t-1 -21.5h15q30 0 44.5 2.5t27 5t29.5 5t52 2.5q22 0 33.5 -20t11.5 -41 q0 -17 -7.5 -29.5t-23.5 -12.5q-34 0 -53.5 1t-34 2t-29.5 2t-40 1h-29v-8q0 -29 -18.5 -67t-43.5 -75t-50.5 -68t-39.5 -44q-10 -8 -23 -8q-17 0 -32.5 10t-15.5 25q0 7 6 16q30 43 55.5 73t44.5 60.5t30 68t11 95.5v8q-1 79 -17 129t-42 77.5t-59.5 37.5t-68.5 10 q-57 0 -95.5 -21t-62 -56.5t-34 -82.5t-11.5 -98v-14q0 -22 2.5 -38.5t5 -32.5t5 -34t2.5 -43v-27q0 -17 -1.5 -32t-6.5 -26.5t-15.5 -18.5t-28.5 -7q-32 0 -50.5 22.5t-18.5 57.5q0 16 4 31q7 30 10 45.5t4 29t1.5 33t2.5 58.5v14q0 43 -12.5 86t-36 77.5t-57 55.5 t-76.5 21q-58 0 -98 -23t-65 -58t-36 -76t-11 -76q0 -57 13 -99.5t32 -75.5t38.5 -60t33.5 -52q12 -24 12 -48q0 -19 -7.5 -32.5t-22.5 -13.5q-8 0 -15 4q-45 21 -77 59.5t-52 88t-29.5 107t-9.5 116.5z" />
<glyph unicode="&#x10de;" horiz-adv-x="635" d="M28 -17q0 54 19 86t50.5 50.5t71.5 27t82 15t82 15t71.5 27.5t50.5 51.5t19 87.5q0 75 -20 123t-58 76.5t-93 41.5t-126 19q-21 2 -31.5 14.5t-10.5 26.5q0 16 11 28.5t33 12.5q32 0 70.5 -9t73.5 -16q18 11 43.5 32.5t49.5 49.5t41 59t17 61q0 53 -28 88t-70 61.5 t-90.5 49.5t-90.5 51.5t-70 67.5t-28 98q0 24 12.5 52t37 51.5t60 39t81.5 15.5q25 0 25 -9q0 -8 -20.5 -24t-44.5 -35.5t-44.5 -42t-20.5 -43.5q0 -40 16 -68.5t42 -49.5t59.5 -37.5t68.5 -33t68.5 -35t60 -44t42.5 -60.5t16 -84q0 -42 -18.5 -80.5t-46 -70.5t-59 -54.5 t-56.5 -32.5q25 -12 57 -30t59.5 -49.5t46.5 -81t19 -122.5q0 -70 -19.5 -114.5t-51 -71.5t-71.5 -41t-82.5 -21.5t-82.5 -13.5t-71.5 -18t-51 -33.5t-19.5 -60.5v-2q0 -22 17 -44.5t42 -43t55 -38t56 -29.5q31 21 49.5 35.5t36.5 25.5t41 19.5t62 17.5h1q10 2 18 2 q17 0 37.5 -5t39 -16t33.5 -28t20 -40l3 -9q1 -6 1.5 -12t0.5 -11q0 -22 -7 -42.5t-20 -38t-30 -29.5t-38 -16q-12 -3 -24 -4t-23 -1q-29 0 -55 7t-51.5 17.5t-52 22.5t-54.5 22q-25 -12 -41.5 -19.5t-31 -16t-30.5 -20.5t-38 -32q-14 -12 -31 -12q-18 0 -32 11t-14 25 q0 11 11 21q22 19 40.5 32t36.5 22.5t35.5 16t38.5 14.5q-24 11 -56 29t-60 43.5t-47.5 58.5t-19.5 75zM319 -220q12 -9 35 -17t49 -14.5t51.5 -10.5t41.5 -4q9 0 12 1q1 1 2 1q24 7 38 24.5t14 37.5q0 6 -1 10q-1 2 -2 4.5t-1 4.5q-8 18 -23.5 24t-31.5 6h-9t-8 -1 q-10 -2 -14 -3q-24 -5 -43 -11t-36 -13.5t-34.5 -17t-39.5 -21.5z" />
<glyph unicode="&#x10df;" horiz-adv-x="1150" d="M50 324v10q1 39 4.5 81.5t12.5 83t25.5 77t44 64t67.5 44t95 16.5q50 0 84 -19.5t54.5 -60.5t29 -105.5t8.5 -154.5v-19q0 -49 4.5 -96t17 -83.5t34 -59t55.5 -22.5q28 0 45.5 22t27.5 58.5t13.5 83t3.5 96.5v95q0 62 3.5 111t21 83.5t53 52.5t98.5 18q76 0 122.5 -40.5 t72 -107.5t33.5 -153.5t8 -177.5q0 -75 -2.5 -148t-3.5 -139q-1 -73 -4 -151.5t-15.5 -153.5t-37.5 -142.5t-68.5 -118t-109.5 -80t-160 -29.5h-3q-93 0 -164 24t-120.5 64t-77.5 91.5t-33 106.5q-1 7 -1 13.5v13.5q0 37 10 69.5t30 58t50.5 43t72.5 24.5q2 0 4.5 0.5 t4.5 0.5q18 0 29 -13t11 -28q0 -11 -6.5 -22t-20.5 -16q-38 -15 -59 -52.5t-21 -77.5v-5q1 -42 23.5 -79t61.5 -64.5t92 -44t117 -16.5q77 0 129.5 25.5t86.5 68.5t52 101t27 123t11.5 133t4.5 133q2 60 3 116t1 107q0 106 -6.5 190.5t-22 142.5t-42.5 89t-68 31 q-34 0 -53.5 -9t-29.5 -27t-12.5 -46t-2.5 -66v-69v-59q0 -60 -4 -119.5t-23 -107.5t-59 -77.5t-112 -29.5q-58 0 -92.5 31t-52.5 79t-23.5 107.5t-5.5 116.5v26q0 79 -8 128t-24 76t-39 36.5t-54 9.5q-42 0 -68.5 -29t-41.5 -72t-20.5 -93t-5.5 -92q0 -85 31.5 -147 t95.5 -114q15 -12 15 -28t-14 -28t-33 -12q-5 0 -10.5 0.5t-10.5 4.5q-35 27 -63.5 60t-49 73t-32 87.5t-11.5 103.5z" />
<glyph unicode="&#x10e0;" horiz-adv-x="1169" d="M70 368v11q2 51 12 97t31.5 85.5t56.5 71t87 54.5q86 94 164 182.5t154 172t152 160.5t159 148h-26q-45 0 -84 -4t-75.5 -8.5t-72 -8.5t-74.5 -4q-23 0 -34 11.5t-11 25.5t10 24.5t31 12.5q54 4 103 8.5t100.5 8.5t109.5 6.5t130 2.5q21 0 21 -16q0 -9 -7 -22.5 t-18.5 -28.5t-26.5 -31t-31 -29q-69 -59 -121.5 -110t-95.5 -98t-80 -92t-76 -92t-83.5 -97.5t-101.5 -108.5q61 0 96.5 -14.5t56 -36.5t32.5 -48t27 -48q16 29 29.5 55.5t36.5 47t61 32.5t103 12q62 0 113.5 -24.5t88.5 -68t57.5 -104.5t20.5 -134q0 -62 -12 -112t-32 -92 t-45.5 -77t-51.5 -67q-13 -16 -36 -16q-11 0 -22 3.5t-20 9.5t-14.5 14t-5.5 17q0 8 4 13q22 36 48.5 69t50 70.5t39 82.5t15.5 105q0 42 -17 82t-44.5 71t-62 49.5t-68.5 18.5q-42 0 -72.5 -8.5t-53 -25.5t-39.5 -43t-32 -60l-2 -185v-10q0 -24 1.5 -37.5t3.5 -24t4.5 -22 t4.5 -33.5v-6q0 -23 -13.5 -34t-31.5 -11q-20 0 -38.5 13t-18.5 36v6q3 21 4.5 33t3 20.5t2 16t0.5 18.5q0 8 -0.5 16.5t-0.5 21.5l-5 182q-6 34 -22 59.5t-40 42.5t-53.5 26t-60.5 9q-46 0 -84.5 -20.5t-66.5 -53.5t-43.5 -74.5t-15.5 -82.5q0 -35 10.5 -77t30 -82.5 t46.5 -75t61 -54.5q11 -7 15.5 -16.5t4.5 -18.5q0 -20 -15.5 -37.5t-37.5 -17.5q-10 0 -18 4q-43 17 -76.5 59.5t-56 95t-34.5 108.5t-12 101z" />
<glyph unicode="&#x10e1;" horiz-adv-x="719" d="M-36 1295q0 11 12 18q28 16 53 29t52 26t60.5 28t79.5 37q29 -17 41 -67.5t12 -123.5q0 -62 -7 -135.5t-17 -152t-22 -157.5t-22 -151.5t-17 -134t-7 -105.5v-15t1 -14q5 -68 16.5 -120.5t31.5 -89.5t50.5 -56t74.5 -19q42 0 76 17t58.5 47t38.5 70t15 85v17 q0 89 -25 164t-87 132l24 72q6 1 12 1h12q43 0 91.5 -10t97.5 -19q20 -4 30.5 -17t10.5 -27q0 -12 -8 -21t-25 -9q-11 0 -29.5 5.5t-39.5 11.5t-42.5 11.5t-39.5 5.5q18 -26 37.5 -62t35.5 -76t26.5 -80t10.5 -75v-9q-3 -67 -26 -126t-62 -103t-91.5 -69.5t-113.5 -25.5 q-78 0 -126 34t-74.5 88t-35 121t-8.5 134q0 60 7 134.5t18 155.5t23.5 164.5t23.5 161t18 145.5t7 118q0 29 -3 51.5t-10 36.5q-24 -9 -41 -19.5t-31.5 -22t-28.5 -23t-30 -22.5q-11 -8 -27 -8q-11 0 -22 4t-19.5 10.5t-14 14t-5.5 15.5z" />
<glyph unicode="&#x10e2;" horiz-adv-x="1114" d="M103 -90q0 9 1 18q3 56 7.5 121.5t17 132.5t34.5 132t59 121t91 99.5t130 66.5q9 3 17 3q13 0 20 -8.5t7 -19.5q0 -12 -8.5 -25.5t-27.5 -18.5q-59 -16 -101.5 -56t-72 -94.5t-47.5 -117t-27.5 -124t-13 -116t-3.5 -92.5v-7q0 -114 24.5 -218t73 -183.5t120.5 -126.5 t166 -47q65 0 117.5 21.5t94 58.5t72.5 84.5t52.5 100.5t33 106.5t14.5 101.5q1 15 1.5 30.5t0.5 30.5q0 60 -7 123.5t-21 121t-34.5 106.5t-47.5 81q-22 -77 -52.5 -127t-67 -79.5t-78 -41t-84.5 -11.5q-32 0 -59.5 12.5t-47 32.5t-30.5 46.5t-11 55.5q0 58 20 101.5 t51 74.5t69 48.5t75 23.5q-23 11 -39.5 31.5t-28 45.5t-17 52.5t-5.5 52.5q0 38 13 75t38.5 66t62 47t83.5 18q57 0 96.5 -18t64 -47t35.5 -67.5t11 -78.5q0 -33 -2.5 -62t-10 -57.5t-20.5 -58.5t-34 -66q54 -44 86.5 -105t49 -133.5t21.5 -154.5t5 -169q0 -37 -11 -93 t-34.5 -118.5t-61 -125.5t-89.5 -113.5t-120.5 -82t-154.5 -31.5q-84 0 -151 26t-118.5 71t-89 106.5t-61 131.5t-35 146t-11.5 151v19zM506 218q0 -32 14.5 -54.5t55.5 -22.5h2q46 1 83 27.5t65 65.5t46 84.5t26 83.5h-99q-38 0 -73 -15t-61.5 -40.5t-42.5 -58.5t-16 -70z M635 620q0 -72 35 -115.5t101 -47.5q7 -1 16.5 -2t17.5 -1q11 0 17 3q23 40 29.5 77.5t6.5 86.5q0 22 -7 45t-22 42t-38 30.5t-55 11.5q-20 0 -38 -8t-32 -24.5t-22.5 -40.5t-8.5 -57z" />
<glyph unicode="&#x10e3;" horiz-adv-x="1368" d="M104 389q0 43 7 77t19 62.5t27 53.5t31 51q9 16 28.5 24.5t38.5 8.5t32.5 -8.5t13.5 -26.5q0 -11 -6.5 -26.5t-22.5 -35.5q-9 -11 -23.5 -27t-28 -37t-23 -47.5t-9.5 -58.5q0 -42 2.5 -95.5t16 -101t41.5 -80t78 -32.5q42 0 64.5 26t33.5 69t14.5 98t8 112t14 112 t32.5 98t63 69t106 26q35 0 66.5 -12.5t57 -33.5t44 -49.5t28.5 -59.5q16 33 31.5 61.5t38.5 49t57.5 32.5t89.5 12q42 0 78.5 -15.5t63.5 -60.5t42 -127t15 -215v-18q-1 -146 -3 -277t-13.5 -242.5t-37 -201t-73.5 -152.5t-123 -97t-186 -34q-56 0 -116 23.5t-110.5 63 t-83 91.5t-33.5 109v4q0 54 20 95.5t56 69t85 42t108 14.5h18q18 -1 27 -13t9 -27t-9.5 -28t-28.5 -13q-36 0 -73 -6t-66.5 -21t-48.5 -40.5t-19 -65.5q0 -46 26 -84.5t66.5 -66t90 -42.5t96.5 -15q90 0 150 33.5t96.5 93.5t54.5 145t25 187t7 219.5t1 243.5v7q0 78 -8 139 t-23.5 104t-37.5 65.5t-50 22.5q-33 0 -61.5 -9.5t-51 -29t-36.5 -48.5t-17 -68q-6 -75 -9 -129.5t-8.5 -99t-16 -85t-31.5 -88.5q-5 -11 -14 -16t-19 -5q-18 0 -34 12.5t-16 31.5q0 8 4 16q21 45 32 87t16 85t5.5 86.5t0.5 91.5q0 28 -9 58t-28 54.5t-49 40t-72 15.5 q-45 0 -68.5 -26t-34.5 -69t-14 -98t-6.5 -112t-12.5 -112t-32 -98t-65 -69t-111 -26q-65 0 -105.5 33t-62.5 87t-29.5 124t-7.5 145z" />
<glyph unicode="&#x10e4;" horiz-adv-x="1111" d="M79 348q0 61 20.5 123.5t57.5 113.5t86.5 83t108.5 32q34 0 69 -11t66 -31.5t56.5 -50t41.5 -66.5q12 33 35 61.5t54.5 50.5t71.5 34.5t85 12.5q40 0 77 -19t65.5 -57t45.5 -95.5t17 -135.5v-12q-1 -42 -7.5 -90t-24 -94t-47.5 -86t-78 -67q32 -12 55.5 -24.5t40 -31 t27.5 -45t17 -65t8.5 -92.5t2.5 -127q0 -74 -22.5 -145.5t-66.5 -128t-108.5 -91.5t-149.5 -36h-6q-74 0 -134.5 18.5t-104 53t-67 84.5t-23.5 113v4q1 44 21.5 84t53 70.5t73 48.5t81.5 18q26 0 39 -15t13 -34q0 -20 -14.5 -37.5t-41.5 -17.5q-25 0 -48.5 -9t-42.5 -25 t-31.5 -37t-14.5 -46q-1 -5 -1 -8.5v-7.5q0 -43 21 -74t55.5 -51.5t80 -30t93.5 -9.5q52 0 98 20t80.5 60.5t54.5 102.5t20 145v30q0 53 -3 103t-15 89t-35.5 62.5t-63.5 23.5q-19 0 -33 -0.5t-26 -2.5t-23.5 -5t-26.5 -7q-8 -2 -13 -2q-21 0 -35 18.5t-14 37.5 q0 11 6.5 19.5t21.5 8.5q5 0 9.5 -0.5t9.5 -0.5q42 0 84 12t76 47t55 98.5t21 165.5q0 39 -4.5 80.5t-19 76t-42.5 56.5t-75 22q-30 0 -56 -12.5t-47.5 -34t-38.5 -49.5t-30 -59q2 -15 2 -30v-31q0 -69 -14.5 -139.5t-47 -127t-85.5 -92t-129 -35.5q-72 0 -122.5 30 t-82.5 79t-47 111.5t-15 127.5zM163 351q0 -58 12.5 -106t36.5 -82.5t58.5 -53.5t78.5 -19q38 0 72 19.5t59.5 55t40.5 85t15 109.5q0 47 -12.5 91.5t-36.5 79.5t-58 56.5t-77 21.5h-3q-39 -1 -72.5 -24t-59 -59.5t-40 -82t-14.5 -91.5z" />
<glyph unicode="&#x10e5;" horiz-adv-x="831" d="M102 -409q0 38 10 84.5t32.5 87.5t59.5 69.5t91 31.5q22 2 33.5 2.5t19.5 0.5q7 0 12 -1t12 -3t19 -5t34 -7q18 -4 25.5 -14t7.5 -23q0 -11 -5 -22.5t-13 -21t-18.5 -15.5t-21.5 -6q-8 0 -15 3q-20 9 -30.5 14.5t-17 9t-11.5 5t-14 1.5h-11t-14 -1q-23 -2 -41 -21.5 t-31 -49.5t-20 -65t-7 -68q0 -42 16 -83t44 -73t65 -51.5t78 -19.5q72 0 119.5 29.5t76.5 76.5t42.5 107t17.5 121v19q0 20 -1 54t-2 74t-3 81.5t-3 78t-2 63t-1 36.5q0 56 -0.5 100t-2 83t-2.5 75t-2.5 75t-2 84.5t-0.5 102.5h-220q-54 0 -90 -17.5t-57.5 -40.5 t-30.5 -47.5t-9 -37.5v-2q2 -28 13 -52t29 -41.5t42.5 -27.5t53.5 -10q3 0 6 0.5t6 0.5q5 0 9.5 0.5t9.5 0.5q48 0 73 -16t25 -35q0 -20 -27 -36.5t-84 -16.5h-2q-42 0 -84.5 15.5t-77 45.5t-56.5 74t-22 102q0 45 21.5 87t58 74t86 51t105.5 19h226q-1 35 -8 73.5t-7 80.5 q0 82 1 164t1 147q0 22 -1.5 45.5t-5.5 46t-10.5 42t-16.5 33.5q-66 -33 -128 -69.5t-135 -83.5q-11 -7 -26 -7q-19 0 -33.5 10t-14.5 24t19 25l360 202h125l3 -88q-12 -1 -25 -2.5t-23.5 -3.5t-17.5 -5.5t-7 -7.5v-1q11 -38 19.5 -77.5t8.5 -90.5q0 -179 1.5 -347.5 t6.5 -344.5q2 -79 5.5 -176t6.5 -196t5.5 -192t2.5 -163q0 -41 -5 -92.5t-18.5 -104.5t-37 -104t-60 -90.5t-88.5 -63.5t-122 -24q-57 0 -111.5 22.5t-96.5 65t-68 104.5t-26 140z" />
<glyph unicode="&#x10e6;" horiz-adv-x="1147" d="M75 345q0 20 1.5 53t9 70.5t22.5 75t42 68t67 49.5t98 19q37 0 73.5 -6.5t70 -23.5t61.5 -47t47 -77q8 33 25 64.5t41 55.5t54 39t65 15q95 0 157 -32.5t98 -85.5t50 -122.5t14 -142.5v-16q-1 -75 -28.5 -144t-85.5 -132q-13 -14 -30 -14q-18 0 -32 15t-14 34q0 16 12 30 q38 42 62.5 93.5t26.5 117.5v22q0 66 -11.5 119t-38.5 90.5t-71.5 57.5t-110.5 20q-23 0 -49 -14.5t-47.5 -38.5t-35.5 -55.5t-14 -65.5q11 -32 22 -80t11 -119q0 -12 -0.5 -21.5t-1.5 -18t-2.5 -18t-3.5 -22.5q-7 -42 -23 -60t-33 -18t-29.5 16t-12.5 43q0 10 1 15 q4 27 6 46t2 48q0 67 -10.5 129t-35 109.5t-65.5 76t-102 28.5q-44 0 -75.5 -22.5t-52 -57.5t-30.5 -78t-10 -85q0 -75 22 -141.5t57 -125t79 -108.5t88 -91.5t83.5 -74t66.5 -56.5q35 -32 66 -58.5t60 -53t57.5 -55t57.5 -64.5t61 -81.5t68 -105.5q7 -11 7 -22 q0 -16 -13 -25.5t-30 -9.5q-13 0 -24.5 5.5t-19.5 19.5q-33 57 -68 103.5t-69.5 85t-66.5 68t-58 52.5q-60 14 -104 21t-86 7q-38 0 -77 -6t-87 -19q-10 -2 -15 -2q-20 0 -31 11.5t-11 25.5q0 10 7 19.5t23 14.5q34 10 73.5 17.5t84.5 7.5q35 0 72.5 -5.5t79.5 -19.5 q-81 68 -159.5 139t-140 151t-99.5 172t-38 202z" />
<glyph unicode="&#x10e7;" horiz-adv-x="896" d="M64 323q0 8 0.5 15t0.5 15q3 78 22.5 152t71.5 131q13 15 32 15q16 0 28.5 -11.5t12.5 -28.5q0 -13 -5 -22q-26 -51 -50 -113t-26 -131v-13q0 -44 8.5 -90.5t28 -85t52.5 -63t82 -24.5q48 0 81 12.5t53.5 34.5t30 52t9.5 64q0 32 -7 66t-20 69q-17 47 -27.5 93t-10.5 88 q0 38 9.5 70.5t31 56.5t55.5 37.5t83 13.5q45 0 77.5 -16.5t56 -44t38 -63.5t22.5 -75.5t11 -80t3 -75.5q0 -17 -0.5 -33t-1.5 -30l-8 -604q-5 -115 -39 -199t-85 -138.5t-114.5 -81t-127.5 -26.5q-62 0 -120 20.5t-102.5 59t-71.5 94t-27 126.5q0 20 2 46t7 52.5t14.5 51 t23.5 41.5t28.5 24t28.5 7q18 0 30 -11t12 -30q0 -10 -5 -23q-9 -20 -17.5 -37.5t-16 -35t-12 -36t-4.5 -40.5v-9q2 -42 17.5 -79.5t44.5 -66.5t71.5 -46t99.5 -17q47 0 94.5 23.5t87 68t66 109.5t30.5 149l10 611q1 20 1.5 38.5t0.5 37.5q0 46 -5 89.5t-18.5 77.5t-37 55 t-60.5 21q-58 0 -80.5 -25.5t-22.5 -69.5q0 -35 11 -78t28 -91q11 -32 17 -65.5t6 -66.5q0 -46 -13 -88.5t-42.5 -74.5t-77 -51.5t-115.5 -19.5q-74 0 -124 24.5t-80.5 68t-43.5 102.5t-13 128z" />
<glyph unicode="&#x10e8;" horiz-adv-x="856" d="M9 1214q0 36 12 73.5t37 68t63 50t89 19.5q22 0 43 -2t42 -13t43 -34.5t46 -67.5q18 44 39.5 67.5t45 34.5t47.5 13t47 2q65 0 104.5 -43t60.5 -113t28 -160t7 -184q0 -85 -2.5 -165.5t-2.5 -149.5q0 -302 -65 -456t-196 -154q-51 0 -96.5 20.5t-83 56t-67.5 83t-51 101 t-32 110.5t-11 112v19q2 43 17.5 75t40 54t55.5 35.5t62.5 21t61 10t52.5 2.5q22 0 53.5 -7t64.5 -16.5t63 -20.5t50 -19q-1 20 -1.5 41t-0.5 44q0 49 1 102.5t1 107.5q0 76 -3.5 149t-15.5 129t-35 90.5t-61 34.5q-69 0 -102.5 -43.5t-33.5 -142.5q0 -17 -13 -25t-28 -8 q-16 0 -28.5 7.5t-12.5 23.5q0 40 -5 74.5t-19 60t-40 39.5t-69 14q-30 0 -48 -7.5t-28.5 -21.5t-14 -34t-3.5 -44v-12.5t1 -13.5v-6q0 -24 -14.5 -36t-40.5 -12q-46 0 -50 34q-3 15 -3 32zM252 489q0 -71 16 -142t47 -128t77.5 -93t107.5 -36q34 0 60.5 21t45 56.5t31 81.5 t20 96.5t10.5 101t3 94.5v17q-21 10 -50 19.5t-59.5 17t-60 11.5t-50.5 4q-24 0 -58 -4.5t-65 -17t-53 -36.5t-22 -63z" />
<glyph unicode="&#x10e9;" horiz-adv-x="661" d="M45 45v3q2 39 4 100t3.5 136.5t3.5 161.5t4.5 174.5t6 175.5t9 164.5t13 141.5t17.5 106q7 28 23 65.5t44 71.5t70.5 57t101.5 23q61 0 101.5 -21t65 -53t35 -69.5t10.5 -70.5v-1q0 -44 -20.5 -85t-54 -77.5t-77 -68.5t-90 -57.5t-92.5 -45t-84 -31.5q-8 -36 -7.5 -59.5 t3.5 -47t5 -53t-4 -75.5q9 13 34.5 29t60 29.5t74 22.5t75.5 9q61 0 103 -27.5t68.5 -71t38.5 -99t12 -110.5q0 -72 -17 -134q-13 -45 -25.5 -76t-29 -57t-39.5 -50.5t-56 -55.5q-9 -8 -18.5 -11.5t-18.5 -3.5q-18 0 -31.5 11t-13.5 27q0 14 11 26q28 30 48.5 48t37 38 t30 48.5t27.5 80.5q14 53 14 110q0 41 -8.5 80t-28 69.5t-50 49t-73.5 18.5q-39 0 -70 -2.5t-55.5 -11t-44.5 -25.5t-37 -46q-9 -54 -10.5 -122.5t-2.5 -138.5t-2.5 -133t-10.5 -105q-3 -15 -12.5 -21.5t-21.5 -6.5q-17 0 -33 12.5t-16 34.5zM141 922q23 9 56.5 22.5 t71 32.5t74 42.5t66 51.5t48 60.5t18.5 69.5v5q0 28 -6.5 51.5t-20.5 40.5t-37.5 27t-57.5 10q-35 0 -63 -10t-48 -26.5t-32.5 -36.5t-16.5 -41q-2 -9 -6.5 -32t-10.5 -53t-12 -63.5t-11 -63.5t-8.5 -53.5t-3.5 -33.5z" />
<glyph unicode="&#x10ea;" horiz-adv-x="1089" d="M86 21q0 65 10.5 137.5t30.5 143.5t49.5 136t68 114t85 78.5t101.5 29.5q45 0 81 -10t64 -26.5t48.5 -38t33.5 -44.5q7 -13 7 -27q0 -18 -12 -30t-29 -12q-9 0 -18 4t-17 14q-8 9 -23 23t-35 26.5t-44.5 21.5t-51.5 9q-40 0 -75 -25.5t-64.5 -68.5t-53 -100t-39.5 -119 t-24.5 -126t-8.5 -122q0 -42 5.5 -107.5t21.5 -139t45 -147t76 -132.5t114 -96t160 -37q60 0 107.5 19.5t84.5 52.5t63.5 77.5t43.5 93.5t25 100.5t8 99.5q0 78 -13.5 133.5t-35 95t-48.5 65t-55 43t-53.5 29t-43.5 23.5v46q10 4 33.5 8t52.5 11t59.5 19t55.5 32.5 t41.5 50.5t16.5 74q0 26 -10.5 46.5t-26.5 40.5t-34.5 41t-34.5 48t-26.5 61t-10.5 81q0 64 13 102t34 60.5t47 34t53 20.5q12 4 23 4q18 0 27 -10t9 -24q0 -13 -7.5 -25.5t-24.5 -20.5q-21 -10 -36.5 -26.5t-25.5 -35.5t-15.5 -39t-6.5 -36q-1 -5 -1 -13q0 -29 10 -53 t25.5 -45.5t33.5 -42.5t33.5 -44.5t25.5 -52.5t10 -65q0 -45 -12.5 -79.5t-32.5 -59.5t-45 -42.5t-49 -29t-45.5 -18.5t-33.5 -11q28 -13 65.5 -31.5t71.5 -57.5t58 -106t24 -176v-6q0 -53 -7 -114.5t-25 -122.5t-50.5 -118t-83 -101t-123 -70t-170.5 -26t-171 37.5 t-126 99.5t-87 141.5t-54 164t-28 167.5t-8 151z" />
<glyph unicode="&#x10eb;" horiz-adv-x="776" d="M70 378q0 61 21.5 120t59 104.5t89.5 73.5t114 28q78 0 143.5 -30t116.5 -107q-6 65 -6 147t-3.5 167.5t-13 167t-33.5 145t-66.5 102.5t-110.5 39q-16 0 -28 -1.5t-23 -4.5t-22 -7.5t-25 -10.5q-12 -5 -21 -5q-20 0 -28.5 10.5t-14.5 27.5q-3 9 -3 17q0 14 7.5 23 t15.5 13q43 19 78 23.5t78 4.5q78 0 131 -43.5t86.5 -115.5t51 -165t25 -191t8 -194t0.5 -174q0 -123 -14.5 -211.5t-38.5 -148.5t-55.5 -96t-64.5 -55t-66 -25t-61 -6q-87 0 -149 26.5t-101.5 76t-58 119.5t-18.5 156zM150 366q0 -136 66 -206t178 -70q45 0 78.5 17t57 44 t38.5 61.5t23.5 70t12 68t3.5 56.5q0 51 -20 89t-54.5 63.5t-79.5 38t-96 12.5q-44 0 -82 -18.5t-65.5 -51t-43.5 -77.5t-16 -97z" />
<glyph unicode="&#x10ec;" horiz-adv-x="907" d="M48 1169q0 43 16 88.5t44.5 82.5t68 61t85.5 24q35 0 61 -6.5t48 -23t41 -44t39 -70.5q19 43 39.5 70.5t43 44t48.5 23t58 6.5q64 0 108.5 -23.5t72 -62t39.5 -87t12 -99.5q0 -35 -4.5 -68t-16 -66t-32.5 -66.5t-54 -69.5q-12 -12 -25 -12q-8 0 -17 4t-17 10.5t-13 15 t-5 17.5q0 13 8 24q23 31 40.5 54t29.5 44.5t18 45.5t6 57q0 40 -7.5 75t-25 61t-44.5 41t-66 15q-38 0 -68.5 -15t-52.5 -39t-34 -55.5t-12 -64.5v-2q5 -38 12.5 -86.5t7.5 -104.5q0 -7 -0.5 -13.5t-0.5 -13.5q-2 -20 -16.5 -30t-32.5 -10q-20 0 -36.5 11t-16.5 33v3 q2 32 4.5 68.5t2.5 79.5q0 14 -0.5 29.5t-1.5 31.5q0 6 -2 34.5t-13.5 60.5t-38 57.5t-75.5 25.5q-42 0 -69 -20t-43 -49.5t-22.5 -62t-6.5 -56.5v-13q0 -65 6.5 -136t17.5 -143t26.5 -142t32.5 -131q38 2 86.5 6t99 10t101.5 12.5t94.5 12t76.5 10.5t50 7q10 2 27.5 6.5 t34.5 4.5q16 0 28.5 -7t15.5 -28q0 -3 0.5 -5.5t0.5 -4.5q0 -30 -24 -42t-51 -12h-6q-39 -132 -81 -266.5t-81.5 -271t-74.5 -276t-62 -281.5q-4 -20 -8 -44.5t-7.5 -50.5t-6 -51t-2.5 -46v-2h-3l-89 -3q0 18 4 38t8.5 41t8.5 43t5 43v2q0 18 -8 70t-21.5 125.5t-31 163.5 t-36.5 183.5t-38 185.5t-35.5 169.5t-28.5 135.5t-18 84q-12 55 -23.5 100t-22 87.5t-19.5 85.5t-15.5 94t-10.5 113.5t-4 144.5zM237 511q31 -104 51.5 -223.5t38 -241.5t35.5 -241t45 -222q21 115 52 234t68 241t76.5 247t78.5 253q-45 -5 -103.5 -12t-119.5 -13.5 t-119 -12.5t-103 -9z" />
<glyph unicode="&#x10ed;" horiz-adv-x="947" d="M44 231q0 4 0.5 7.5t0.5 7.5q3 65 24 108t52 69.5t69.5 40t76.5 19.5q28 5 52.5 5.5t48.5 0.5q33 0 68.5 -6.5t77.5 -10.5q-2 17 -3 37.5t-1 37.5q0 78 16 147t36.5 139.5t40.5 146.5t28 167q1 11 1.5 21.5t0.5 20.5q0 67 -36 106.5t-99 39.5q-26 0 -51 -7t-45.5 -23 t-33 -42.5t-12.5 -66.5q0 -26 2.5 -44.5t8.5 -35t17 -32t29 -34.5q12 -14 12 -28q0 -8 -5.5 -15.5t-13.5 -13t-17.5 -8.5t-18.5 -3q-20 0 -34 15q-22 23 -34.5 47.5t-18.5 47.5t-7.5 44t-1.5 38v15q0 57 19 101t50.5 74t72 45.5t82.5 15.5q60 0 101.5 -21t67 -55.5t37 -80 t11.5 -94.5v-27q-3 -78 -23.5 -154.5t-44.5 -153t-43 -155t-19 -160.5v-28q30 33 62 68.5t65.5 70.5t67.5 68t67 61q16 13 33 13t28.5 -11.5t11.5 -28.5q0 -18 -13 -32q-29 -32 -68 -63t-80 -61.5t-80.5 -62t-68.5 -62.5q31 -1 67.5 -1t72.5 -1t68 -2.5t56 -5.5 q18 -3 27 -14.5t9 -25.5t-10 -26.5t-28 -14.5q-7 -1 -13 -1h-13q-32 0 -68 5t-70.5 10.5t-66 10.5t-53.5 5q0 -83 10.5 -144t27.5 -108t38.5 -83t44 -69t44 -65.5t38 -72t27 -90t10.5 -118.5q0 -36 -6 -78.5t-20.5 -85.5t-37.5 -83t-57 -70.5t-79 -49t-104 -18.5 q-78 0 -139 24t-103 64t-63.5 92t-21.5 109q0 31 4 59.5t11.5 56.5t19 57t27.5 63q6 14 15.5 19.5t19.5 5.5q14 0 24.5 -10t10.5 -27q0 -13 -5 -23q-15 -32 -24 -57t-13.5 -46.5t-6 -41.5t-1.5 -41v-19q1 -41 19 -76.5t50 -61.5t77 -41.5t99 -15.5q45 0 78.5 15.5t58 41 t40.5 58t25.5 67t13.5 67.5t4 60v7q0 64 -9.5 108.5t-25.5 78t-36 59.5t-41 51.5t-41 55t-36 69.5t-25.5 95.5t-9.5 133.5q-34 -43 -58.5 -90t-52 -86t-63.5 -64.5t-92 -25.5q-62 0 -102.5 15t-64.5 40.5t-33.5 57.5t-9.5 67zM129 231q2 -46 27 -68t90 -22q51 0 85.5 26.5 t62.5 65.5t53 84t55 82q-32 8 -65.5 9.5t-58.5 1.5q-26 0 -52 -2.5t-57 -6.5q-74 -10 -107 -47t-33 -115v-8z" />
<glyph unicode="&#x10ee;" horiz-adv-x="744" d="M-22 1238q0 15 10 26q17 21 49 50t69 55t75.5 44t69.5 18q15 0 28 -5q0 -17 0.5 -36.5t0.5 -41.5q0 -63 -2.5 -140.5t-9.5 -162t-18 -173t-29 -172.5q8 1 15.5 1h15.5q27 0 56.5 -2.5t59 -7.5t57 -11.5t51.5 -15.5q12 14 20 23t16 16.5t17 16t23 21.5q8 8 17.5 11.5 t18.5 3.5q20 0 35 -13t15 -31q0 -13 -10 -26q-13 -17 -23 -22.5t-20 -9t-22 -10.5t-30 -27q18 -25 38 -54.5t37.5 -64.5t29 -77t11.5 -91v-3q0 -60 -20 -118.5t-57 -105t-89.5 -75t-117.5 -28.5q-81 0 -132 32t-79.5 82t-39 110.5t-10.5 117.5q0 117 14.5 234t31.5 235 t31.5 235t14.5 234v65q-39 -23 -75 -61t-74 -80q-5 -5 -12 -7t-13 -2q-17 0 -30.5 13t-13.5 30zM188 326q1 -53 10.5 -96.5t32 -74.5t60.5 -48t97 -17q46 0 79 22.5t54.5 57t31.5 77t10 82.5q0 44 -11.5 89t-34 84t-56 68t-77.5 40q-29 7 -62 7q-28 0 -56.5 -3t-58.5 -4 q-10 -58 -14.5 -124t-4.5 -127v-33z" />
<glyph unicode="&#x10ef;" d="M18 -555q0 64 26.5 131t68.5 133t94 129t103 120t95 105.5t71 86.5q-11 110 -26 195.5t-39.5 144.5t-62 89.5t-93.5 30.5q-22 0 -41 -8t-34.5 -20.5t-26.5 -29.5t-16 -35q-4 -13 -4 -29t7 -31.5t16 -30t19 -26t16 -20.5q10 -14 10 -29q0 -17 -14 -30t-46 -13q-12 0 -24 9 q-17 13 -30 33.5t-21.5 45.5t-13 51.5t-4.5 52.5v11t1 11q3 40 20 72.5t43.5 56t62 36.5t76.5 13q62 0 105.5 -21t73.5 -57.5t48.5 -84.5t31.5 -102t22 -111t20 -110q27 21 65.5 53.5t80.5 71.5t84 81t76.5 82t58 75.5t27.5 61.5q-8 6 -20 6q-17 0 -40.5 -9t-47 -20t-44 -20 t-30.5 -9q-7 0 -11 1q-21 5 -31.5 16t-10.5 24q0 14 11 25.5t33 16.5q20 4 49.5 7.5t58.5 9t52 14t29 23.5q7 16 17 19t27 3t30.5 -9t13.5 -29v-1q-1 -55 -23.5 -108t-60 -104t-85.5 -100.5t-99.5 -97t-103 -93t-95.5 -88.5q5 -69 13.5 -119t18.5 -96.5t21.5 -97.5 t23.5 -124q3 -20 8.5 -47t14 -56.5t20.5 -58.5t28 -52t37 -38t47 -15h3q37 0 59 20.5t33 49.5t14.5 62t3.5 57q0 42 -10.5 66t-24 43t-27 39.5t-18.5 54.5q-1 3 -1 8q0 20 14.5 31.5t31.5 11.5q14 0 24.5 -8.5t10.5 -26.5q0 -29 13.5 -50.5t30 -44t30.5 -50t14 -68.5v-2 q0 -44 -10 -91t-33.5 -86t-62 -64.5t-95.5 -25.5q-62 0 -103.5 33.5t-67.5 83t-40.5 106t-23.5 103.5q-10 54 -21.5 103t-21 95.5t-17 91.5t-10.5 90q-22 -24 -59 -65t-80.5 -91.5t-88 -108t-80 -114.5t-58.5 -109.5t-23 -93.5v-6.5t1 -6.5q2 -18 4 -35.5t6 -32t12 -24 t22 -10.5h6q19 0 32 8.5t23 20t19 24t20 20.5q16 12 32 12q18 0 30.5 -11.5t12.5 -27.5q0 -17 -15 -32q-16 -16 -30.5 -33.5t-33 -32t-44.5 -24.5t-65 -10h-1q-33 0 -54.5 16.5t-35 42.5t-19 59t-5.5 66z" />
<glyph unicode="&#x10f0;" horiz-adv-x="726" d="M-18 -355q0 11 4 19.5t18 16.5q20 11 35 16.5t29 9t30 7t38 10.5q-23 13 -44 34t-37.5 43.5t-26 44.5t-9.5 39q0 61 24 98t62 57t87 27.5t100 10.5t100 5.5t87 12.5t61.5 31.5t23.5 62.5v1q0 35 -13 62t-33 47.5t-44.5 34.5t-48.5 22q-12 4 -41.5 7.5t-62.5 6t-63 4 t-45 3.5q-45 4 -45 35q0 12 8.5 24t25.5 12q2 0 4 -0.5t4 -0.5q19 -3 52.5 -7t69 -8t67 -8t45.5 -7q13 -3 25 -3q18 0 33.5 9.5t27.5 25t18.5 36.5t6.5 45v3q0 23 -9.5 46.5t-23.5 44t-30.5 36.5t-31.5 25q-19 11 -51.5 18.5t-68 13t-69.5 10.5t-56 11q-39 10 -39 32 q0 11 11 21t33 10h3q19 -1 50 -6t62.5 -11t58 -11.5t36.5 -7.5q12 -3 24 -3q37 0 64 28t27 88q0 11 -8 30t-21 39t-30 37t-36 25q-16 6 -50 13t-69.5 12.5t-65 9.5t-37.5 5q-21 3 -31.5 13.5t-10.5 21.5q0 12 10.5 21t30.5 9h3q18 -1 49 -4t62.5 -6.5t58.5 -7.5t38 -6h3 q11 0 27 11.5t31 28.5t25.5 36t10.5 35q0 26 -20 45t-53.5 32.5t-78 23t-93 17t-98.5 14t-94 14.5q-21 4 -32 18t-11 28t9 23.5t27 9.5h7q102 -12 196 -28.5t166 -40.5t115.5 -57t43.5 -79q0 -60 -28.5 -106.5t-84.5 -64.5q12 -11 33 -26.5t41 -38.5t34.5 -55t14.5 -77 q0 -6 -5 -25t-16.5 -40t-30.5 -39.5t-46 -25.5q26 -17 46 -42t34 -51.5t21 -52.5t7 -44q0 -12 -4.5 -36.5t-15 -49.5t-28.5 -46t-45 -27q20 -15 38.5 -32t33 -39t23 -49.5t8.5 -63.5q0 -56 -23.5 -88.5t-62 -49.5t-88 -23t-101 -8.5t-101.5 -6.5t-88.5 -17.5t-62.5 -40 t-25 -74.5v-3q0 -12 8.5 -28.5t22 -33.5t31.5 -33t38 -26q26 8 58.5 18.5t67 19.5t68.5 15.5t64 6.5q20 0 38 -1.5t35 -3.5q21 -3 36.5 -15.5t26 -29.5t16 -38t5.5 -42q0 -60 -38 -97t-107 -37q-33 0 -71.5 11t-77.5 29.5t-77 43t-69 51.5q-28 -9 -48.5 -16.5t-37.5 -14.5 t-32 -15t-31 -17q-11 -7 -20 -7q-10 0 -15.5 7t-5.5 18zM238 -287q19 -15 49 -32t62.5 -31t63.5 -23t52 -10q5 0 10.5 -0.5t10.5 -0.5q22 0 39.5 20.5t17.5 49.5q0 35 -14.5 48t-45.5 19q-25 5 -72 5q-21 0 -45 -4.5t-48 -11.5t-45 -15t-35 -14z" />
<glyph unicode="&#x10f1;" horiz-adv-x="700" d="M3 -446q0 15 20 31q43 23 90 50t96 40q-16 25 -31 57.5t-15 65.5q0 48 27.5 73.5t68.5 40t88.5 23t88.5 21.5t68.5 36.5t27.5 67.5q0 23 -21.5 39.5t-55 27.5t-75 18t-82 12t-75 8t-54.5 7q-22 3 -32.5 15t-10.5 26q0 15 11 27t34 14q8 -1 32 -3.5t57 -7t69.5 -9t69 -9 t56.5 -8.5t31 -5q8 10 19.5 26t21.5 35.5t17 41.5t7 43q0 3 -0.5 6t-0.5 6q-2 20 -21.5 35t-49.5 26.5t-68 20t-79 15t-81.5 12t-74.5 10.5q-21 3 -31.5 15.5t-10.5 26.5t11 26t33 14q9 -1 34 -4t58.5 -7.5t72 -10.5t73.5 -11.5t63.5 -10t42.5 -7.5q12 15 16 42t4 59v31 q-1 33 -22.5 55t-54 36t-71.5 21.5t-75.5 10.5t-66 4t-43.5 3q-21 3 -31.5 15t-10.5 26q0 15 11 27t33 14q20 -2 61.5 -6t86 -9t82.5 -10.5t51 -11.5q3 2 7.5 9t9 21t8 35.5t3.5 53.5v12q0 18 -22.5 32t-56.5 25t-75 18t-79 12t-67.5 7.5t-40.5 3.5q-22 3 -32.5 15t-10.5 26 q0 15 11 27t34 14q11 -2 34 -4.5t51.5 -6.5t60.5 -8t60.5 -7.5t50.5 -6.5t31 -4q10 2 16 14.5t10 30t5.5 36.5t1.5 34q0 18 -23.5 34.5t-59.5 29.5t-80.5 23.5t-86.5 17.5t-77 10.5t-52 3.5q-17 7 -24.5 21t-7.5 28q0 18 10 32t29 16q23 -1 65.5 -5t92.5 -13.5t101.5 -24 t93.5 -37t69 -53t27 -70.5v-2q0 -27 -1 -50t-5 -41.5t-13 -33t-27 -26.5q8 -8 19 -17t21.5 -23.5t18 -36.5t7.5 -56q0 -57 -10 -93.5t-30 -47.5q10 -9 20.5 -25t19.5 -36t14.5 -44t5.5 -50q0 -23 -1 -47t-5 -46t-13.5 -40t-25.5 -28q10 -8 19.5 -22t17.5 -33.5t13 -42.5 t5 -47q0 -30 -21 -71t-59 -83q21 -16 33 -32t18 -32.5t7.5 -35t1.5 -38.5q0 -43 -16 -71.5t-42 -47.5t-59 -30t-67.5 -18t-67.5 -13t-59 -15t-42 -22.5t-16 -36.5q0 -13 3 -23.5t9.5 -21.5t16.5 -23.5t24 -29.5q35 4 74 6.5t77 2.5q34 0 65.5 -2.5t60.5 -8.5 q45 -10 72.5 -45.5t27.5 -92.5q0 -26 -12 -44.5t-31 -30.5t-42.5 -17.5t-46.5 -5.5q-4 0 -7 0.5t-7 0.5q-35 3 -71 17.5t-70 36t-65 48.5t-58 55q-57 -13 -106.5 -37.5t-87.5 -44.5q-14 -7 -28 -7q-15 0 -25 7.5t-10 18.5zM333 -365q18 -15 42.5 -32.5t50.5 -34t51 -28.5 t45 -15q4 -1 12 -1q22 0 39 11t19 31v10q0 29 -15.5 41.5t-34.5 17.5t-44.5 8t-53.5 3q-31 0 -60.5 -3t-50.5 -8z" />
<glyph unicode="&#x10f2;" horiz-adv-x="722" d="M74 340q0 84 22 151t61.5 113.5t94.5 71t122 24.5q90 0 147.5 -30.5t91.5 -80.5t47 -114t13 -131q0 -58 -18.5 -110.5t-50.5 -98t-74.5 -84t-91.5 -68.5q39 -19 73 -28.5t57 -9.5h3h1q8 0 15.5 -6.5t13 -15.5t9 -19.5t3.5 -18.5q0 -23 -18.5 -28.5t-41.5 -5.5q-5 0 -7 1 q-29 5 -80.5 31.5t-110.5 61.5q-57 -31 -106 -58.5t-76 -42.5q-8 -5 -19 -5q-20 0 -35 14.5t-15 36.5q0 11 4 23t16 15q22 5 62.5 20t90.5 38q-45 32 -82.5 72.5t-64.5 86t-41.5 95t-14.5 100.5zM174 348q0 -50 13.5 -98t37.5 -91t57.5 -79.5t74.5 -62.5q44 26 83 61.5 t68.5 78t47.5 91t20 100.5v13t0.5 18.5t0.5 18v12.5q0 45 -12.5 81.5t-38 63t-64.5 41t-93 14.5q-57 0 -94.5 -18.5t-60 -53t-31.5 -82.5t-9 -108z" />
<glyph unicode="&#x10f3;" horiz-adv-x="766" d="M82 -454q0 30 3 61.5t10.5 61t20 55.5t30.5 44q13 13 31 13q17 0 30.5 -12t13.5 -30q0 -10 -6 -22q-23 -42 -35.5 -86t-12.5 -92t19 -83.5t51 -59t74 -35t88 -11.5q59 0 97 29t60 77t31 110.5t9 130.5v8q0 55 -7.5 117t-31.5 114.5t-69 87t-120 34.5q-5 0 -9.5 -0.5 t-9.5 -0.5h-4q-20 0 -29 12.5t-9 28.5q0 15 9.5 28t28.5 13h6q21 -3 39 -3q55 0 92 22t60 58.5t34 84.5t15.5 100.5t4.5 106.5t1 102q-89 -41 -200.5 -58t-229.5 -17q0 -35 8 -76t19 -76q12 -41 28 -82h-1v2l-76 -23q-7 20 -17.5 56t-20 81.5t-16.5 97t-7 104.5 q19 -9 52.5 -13t77.5 -4q57 0 124 9.5t132.5 24.5t121.5 34t91 38v-98q0 -84 -4.5 -163.5t-22.5 -146t-54.5 -117.5t-100.5 -78q48 -26 82 -75t56.5 -108.5t33 -123t10.5 -117.5q0 -75 -17 -150t-54 -135.5t-94.5 -98t-139.5 -37.5q-57 0 -110 23.5t-94 62.5t-66 89t-26 104 v7z" />
<glyph unicode="&#x10f4;" horiz-adv-x="715" d="M38 -454q0 30 3 61.5t10.5 61t20 55.5t30.5 44q13 13 31 13q17 0 30.5 -12t13.5 -30q0 -10 -6 -22q-23 -42 -35.5 -86t-12.5 -92t19 -83.5t51 -59t74 -35t88 -11.5q59 0 97 29t60 77t31 110.5t9 130.5v8q0 55 -7.5 117t-31.5 114.5t-69 87t-120 34.5q-5 0 -9.5 -0.5 t-9.5 -0.5h-4q-20 0 -29 12.5t-9 27.5q0 16 9.5 29t29.5 13h5q5 -1 9 -1h9q33 0 62 12t51 33.5t35 52t13 67.5q0 30 -16 48.5t-39.5 33.5t-51.5 29.5t-51.5 36.5t-39.5 56t-16 88q0 37 14.5 71t38.5 60.5t55 42.5t64 16q42 0 78 -21t53 -72q2 -5 2 -8.5v-7.5q0 -19 -13 -31 t-28 -12q-11 0 -21 6.5t-15 21.5q-10 26 -20.5 37t-41.5 11q-17 0 -34 -4t-30.5 -18.5t-22.5 -42t-9 -74.5q0 -23 17.5 -40.5t43.5 -34t56.5 -34t56.5 -40t43.5 -52.5t17.5 -71q0 -15 -5.5 -41t-19 -55t-36.5 -55.5t-59 -41.5q48 -26 82 -75t56.5 -108.5t33 -123 t10.5 -117.5q0 -75 -17 -150t-54 -135.5t-94.5 -98t-139.5 -37.5q-57 0 -110 23.5t-94 62.5t-66 89t-26 104v7z" />
<glyph unicode="&#x10f5;" horiz-adv-x="806" d="M37 940q0 86 21.5 172.5t65 156t109 113t152.5 43.5q76 0 125 -43t77.5 -128t39.5 -211.5t11 -292.5l192 32v-82l-191 -32q14 -141 26.5 -278.5t13.5 -284.5l176 -25v-82l-177 20q0 -34 2 -89.5t2 -122.5q0 -58 -3 -121.5t-11.5 -124t-24 -115t-40.5 -96t-61 -65.5 t-85 -24q-50 0 -97.5 30.5t-90 80t-77.5 112.5t-60.5 127t-40 123.5t-14.5 103.5q0 89 20.5 146.5t58 90.5t90.5 45.5t119 12.5q52 0 110 -5.5t122 -13.5q-4 141 -15 273.5t-30 273.5h-53q-62 0 -121 2t-110 10.5t-93.5 26t-73 48.5t-47.5 78t-17 115zM123 925q0 -60 26 -95 t69 -53t98 -23t112 -5q32 0 63.5 0.5t60.5 0.5q0 286 -39 435.5t-124 149.5q-57 0 -106 -32t-84.5 -87.5t-55.5 -130t-20 -160.5zM163 -178q0 -33 11.5 -81t33 -100.5t51 -104.5t66 -93.5t78.5 -67t87 -25.5q34 0 54.5 38t32 99.5t15 137.5t3.5 153q0 73 -1.5 139t-1.5 112 q-84 5 -149 13t-116 8q-42 0 -73 -9.5t-51.5 -34.5t-30 -69.5t-9.5 -114.5z" />
<glyph unicode="&#x10fb;" horiz-adv-x="1229" d="M449 157q0 18 12 32t32 14q17 0 31.5 -14t14.5 -32q0 -20 -14.5 -34.5t-31.5 -14.5q-20 0 -32 14.5t-12 34.5zM449 583q0 21 12 35t32 14q17 0 31.5 -14t14.5 -35q0 -20 -14.5 -33.5t-31.5 -13.5q-20 0 -32 13.5t-12 33.5zM774 365q0 20 12 34t30 14q19 0 31 -14t12 -34 q0 -18 -12 -32t-31 -14q-18 0 -30 14t-12 32z" />
<glyph unicode="&#x2000;" horiz-adv-x="850" />
<glyph unicode="&#x2001;" horiz-adv-x="1701" />
<glyph unicode="&#x2002;" horiz-adv-x="850" />
<glyph unicode="&#x2003;" horiz-adv-x="1701" />
<glyph unicode="&#x2004;" horiz-adv-x="567" />
<glyph unicode="&#x2005;" horiz-adv-x="425" />
<glyph unicode="&#x2006;" horiz-adv-x="283" />
<glyph unicode="&#x2007;" horiz-adv-x="283" />
<glyph unicode="&#x2008;" horiz-adv-x="212" />
<glyph unicode="&#x2009;" horiz-adv-x="340" />
<glyph unicode="&#x200a;" horiz-adv-x="94" />
<glyph unicode="&#x2010;" horiz-adv-x="702" d="M78 354q7 24 23.5 48t39.5 42.5t50.5 30t57.5 11.5q13 0 46 -2.5t71 -6t75 -6t59 -2.5q9 0 26 3.5t35 8t34.5 9t25.5 6.5l1 -4q1 -5 1 -7v-3q0 -27 -14.5 -49.5t-38 -39t-52.5 -26t-59 -9.5q-16 0 -48 3t-68 6.5t-69.5 6.5t-52.5 3q-8 0 -23 -5l-31.5 -10.5t-32.5 -10.5 t-25 -5q-8 0 -15.5 1.5t-15.5 6.5z" />
<glyph unicode="&#x2011;" horiz-adv-x="702" d="M78 354q7 24 23.5 48t39.5 42.5t50.5 30t57.5 11.5q13 0 46 -2.5t71 -6t75 -6t59 -2.5q9 0 26 3.5t35 8t34.5 9t25.5 6.5l1 -4q1 -5 1 -7v-3q0 -27 -14.5 -49.5t-38 -39t-52.5 -26t-59 -9.5q-16 0 -48 3t-68 6.5t-69.5 6.5t-52.5 3q-8 0 -23 -5l-31.5 -10.5t-32.5 -10.5 t-25 -5q-8 0 -15.5 1.5t-15.5 6.5z" />
<glyph unicode="&#x2012;" horiz-adv-x="702" d="M78 354q7 24 23.5 48t39.5 42.5t50.5 30t57.5 11.5q13 0 46 -2.5t71 -6t75 -6t59 -2.5q9 0 26 3.5t35 8t34.5 9t25.5 6.5l1 -4q1 -5 1 -7v-3q0 -27 -14.5 -49.5t-38 -39t-52.5 -26t-59 -9.5q-16 0 -48 3t-68 6.5t-69.5 6.5t-52.5 3q-8 0 -23 -5l-31.5 -10.5t-32.5 -10.5 t-25 -5q-8 0 -15.5 1.5t-15.5 6.5z" />
<glyph unicode="&#x2013;" d="M-6 477v50h1036v-50h-1036z" />
<glyph unicode="&#x2014;" horiz-adv-x="2048" d="M-28 477v50h2104v-50h-2104z" />
<glyph unicode="&#x2018;" horiz-adv-x="584" d="M162 1204q0 54 18 101t52 83q32 34 75 53q-16 -32 -27.5 -56.5t-11.5 -55.5q0 -66 69 -103h-1q19 -14 31.5 -22.5t20.5 -16t11.5 -15.5t3.5 -21q0 -40 -28.5 -64.5t-75.5 -24.5q-30 0 -55.5 10.5t-43.5 29t-28 44.5t-10 58zM307 1441q36 50 85 72l16 7l-15 -22l28 -26 q-32 -4 -60.5 -11.5t-53.5 -19.5z" />
<glyph unicode="&#x2019;" horiz-adv-x="584" d="M115 1382q0 39 28 64.5t73 25.5q34 0 63 -12.5t50 -35.5t33 -55.5t12 -72.5q0 -106 -97 -179q17 35 17 77q0 32 -17 58.5t-44 36.5h1q-28 9 -50 16t-37.5 16.5t-23.5 23.5t-8 37zM174 1060q30 12 55.5 26.5t47.5 30.5q-17 -36 -62 -85l-12 -10l6 20z" />
<glyph unicode="&#x201a;" horiz-adv-x="584" d="M154 110q0 40 28 65t73 25q71 0 114.5 -48t43.5 -128q0 -53 -25.5 -99t-74.5 -83q18 37 18 78q0 47 -20 70.5t-77 37.5q-21 5 -36 10.5t-24.5 14t-14.5 22t-5 35.5zM213 -212q57 24 100 54q-10 -20 -25 -40t-35 -41l-11 -10l6 19z" />
<glyph unicode="&#x201c;" horiz-adv-x="991" d="M152 1204q0 55 12 101.5t48 84.5q8 8 25.5 22t37 28.5t38 26.5t28.5 17q-9 -12 -22.5 -31t-27 -40t-23 -41t-9.5 -33q0 -32 10 -54t25 -37t32 -25.5t32 -20.5t25 -22t10 -29q0 -40 -28 -64.5t-75 -24.5q-30 0 -55.5 10.5t-44 29t-28.5 44.5t-10 58zM539 1205 q0 55 12 101.5t48 84.5q8 8 25.5 22t37 28.5t38 26.5t28.5 17q-9 -12 -22.5 -31t-27 -40t-23 -41t-9.5 -33q0 -32 10 -54t25 -37t32 -25.5t32 -20.5t25 -22t10 -29q0 -40 -28 -64.5t-75 -24.5q-30 0 -55.5 10.5t-44 29t-28.5 44.5t-10 58z" />
<glyph unicode="&#x201d;" horiz-adv-x="991" d="M106 1382q0 39 28 64.5t73 25.5q34 0 63.5 -12.5t50.5 -36t33 -56t12 -71.5q0 -54 -26 -100t-75 -82q10 20 14 39.5t4 42.5q0 45 -22 68t-77 36q-78 18 -78 82zM165 1060q57 22 100 54q-17 -37 -59 -82l-12 -10l6 20zM531 1382q0 39 28.5 64.5t73.5 25.5q35 0 64 -13 t50 -36.5t32.5 -55.5t11.5 -71q0 -53 -25.5 -98t-74.5 -82q18 39 18 80q0 44 -22.5 68.5t-76.5 35.5h1q-80 18 -80 82zM591 1022q15 20 28.5 34.5t26 25t23.5 18.5l22 16q-18 -42 -60 -84l-11 -10l5 20z" />
<glyph unicode="&#x201e;" horiz-adv-x="991" d="M145 110q0 40 28 65t73 25q35 0 64.5 -12.5t50.5 -36t32.5 -56t11.5 -71.5q0 -26 -14.5 -65.5t-36.5 -80t-49 -76.5t-51 -54q4 9 15.5 33.5t23 52t20.5 52t9 34.5q0 24 -4 41t-15 29.5t-30 21t-48 16.5q-20 5 -35 10t-25 13.5t-15 22.5t-5 36zM570 110q0 40 28 65t74 25 q36 0 65 -13t49.5 -36.5t32 -55.5t11.5 -71q0 -27 -17.5 -66t-43.5 -79.5t-56 -75.5t-54 -53q5 10 19.5 34.5t30 52.5t27.5 53.5t12 37.5q0 28 -13 46.5t-33 31t-43 21.5t-43 20t-33 25.5t-13 37.5z" />
<glyph unicode="&#x2020;" d="M98 905q0 32 29.5 46t98.5 14q-2 0 22 -1t60.5 -2t78.5 -2t77 -2q-1 176 -13 286.5t-35 170.5q33 16 59 22.5t51 6.5q22 0 34 -5t18 -16.5t7.5 -31t1.5 -48.5q0 -5 -1 -30t-2.5 -61.5t-3 -80t-3 -85.5t-2.5 -77.5t-1 -57.5h54q80 0 154 10.5t140 31.5q8 -20 12 -36t4 -33 q0 -36 -28 -51.5t-99 -15.5q-2 0 -25.5 1t-58.5 2.5t-76 3t-78 2.5q-2 -78 -3.5 -158t-3 -157.5t-2 -149.5t-0.5 -133q0 -109 3 -190.5t10 -140.5q5 -47 14 -86t20 -69q-32 -14 -60 -22t-54 -8q-16 0 -26.5 5t-16.5 17t-8.5 32.5t-2.5 51.5q0 -2 1.5 46t3.5 128.5t4.5 185.5 t5 218t4.5 226t2 209l-68 2q-72 0 -142.5 -10t-139.5 -30q-16 35 -16 72z" />
<glyph unicode="&#x2021;" d="M107 315q0 31 29 45t94 14q19 0 49 -1.5t63 -3t64.5 -3.5t54.5 -2q1 50 2.5 104t2.5 109t1.5 108.5t0.5 101.5v162h-70q-72 0 -137 -9.5t-128 -29.5q-16 37 -16 70q0 31 28.5 44.5t93.5 13.5q5 0 30 -1t58.5 -2.5t71.5 -3t70 -2.5q-3 143 -14.5 236.5t-31.5 148.5 q33 16 57 22t47 6q20 0 31.5 -5t17 -16.5t6.5 -30.5t1 -47q0 -17 -0.5 -40t-1.5 -59t-4 -89t-7 -132h72q69 0 134 9.5t129 29.5q8 -14 11 -31.5t3 -37.5q0 -31 -27.5 -44t-93.5 -13q-14 0 -46 1t-67.5 2t-68 2t-47.5 1q-1 -20 -1.5 -66t-1.5 -105.5t-2 -125.5t-2 -124 t-1.5 -102.5t-0.5 -60.5h70q69 0 135 11t129 29q8 -17 12.5 -35t4.5 -35q0 -30 -29 -43.5t-95 -13.5q-17 0 -43 1t-56.5 2t-63 2.5t-62.5 3.5v-83q0 -91 3 -161t10 -121q5 -38 13 -73.5t18 -61.5q-33 -16 -56 -22t-44 -6t-32.5 5t-17.5 16.5t-7.5 31.5t-1.5 50q0 2 0.5 24.5 t1.5 57.5t2.5 80t2.5 91.5t2 92.5t2 83h-70q-142 0 -266 -39q-15 33 -15 70z" />
<glyph unicode="&#x2022;" horiz-adv-x="1208" d="M325 764q0 58 21.5 108.5t59 88t88.5 59t110 21.5q57 0 107.5 -22t88 -59.5t59.5 -88t22 -107.5t-22 -108t-60.5 -89t-89 -60t-107.5 -22q-59 0 -109.5 21.5t-87.5 59t-58.5 88.5t-21.5 110z" />
<glyph unicode="&#x2026;" horiz-adv-x="2048" d="M188 87q0 48 33 78.5t87 30.5q49 0 77.5 -27.5t28.5 -75.5q0 -22 -9.5 -41t-26 -33.5t-39 -23t-47.5 -8.5q-46 0 -75 27.5t-29 72.5zM899 87q0 48 33.5 78.5t87.5 30.5q49 0 77.5 -27.5t28.5 -75.5q0 -22 -9.5 -41t-26 -33.5t-39 -23t-47.5 -8.5q-46 0 -75.5 27.5 t-29.5 72.5zM1614 87q0 48 33 78.5t87 30.5q49 0 77.5 -27.5t28.5 -75.5q0 -22 -9.5 -41t-26 -33.5t-39 -23t-48.5 -8.5q-45 0 -74 27.5t-29 72.5z" />
<glyph unicode="&#x202f;" horiz-adv-x="340" />
<glyph unicode="&#x2039;" horiz-adv-x="422" d="M102 488q0 31 21 68t66 86q33 36 60 56t44 20q13 0 13 -11q0 -9 -39 -73q-48 -79 -48 -146q0 -70 48 -149q20 -33 28.5 -51t10.5 -20q0 -11 -13 -11q-17 0 -44 19.5t-60 55.5q-45 49 -66 86.5t-21 69.5z" />
<glyph unicode="&#x203a;" horiz-adv-x="422" d="M116 268q0 7 39 73q25 41 36.5 77t11.5 68q0 69 -48 148q-39 64 -39 73q0 11 9 11q17 0 38.5 -13.5t43 -34.5t42 -47t36.5 -52t25.5 -48.5t9.5 -36.5t-9.5 -36.5t-25.5 -48t-37 -51t-42.5 -46.5t-42.5 -34t-38 -13q-9 0 -9 11z" />
<glyph unicode="&#x205f;" horiz-adv-x="425" />
<glyph unicode="&#x2212;" horiz-adv-x="631" d="M57 434q10 4 20 7.5t21 5.5q0 -13 0.5 -22t1.5 -18zM98 447v15q0 54 26.5 79t86.5 25q13 0 46 -2.5t71 -6t75 -6t59 -2.5q39 0 71 7l1 -4q1 -5 1 -7v-3q0 -54 -27 -79t-87 -25q-16 0 -48 3t-68 6.5t-69.5 6.5t-52.5 3q-48 0 -85 -10z" />
<glyph unicode="&#x25fc;" horiz-adv-x="990" d="M0 0v990h990v-990h-990z" />
</font>
</defs>
</svg>
