<?xml version="1.0" standalone="no"?>
<!DOCTYPE svg PUBLIC "-//W3C//DTD SVG 1.1//EN" "http://www.w3.org/Graphics/SVG/1.1/DTD/svg11.dtd" >
<svg xmlns="http://www.w3.org/2000/svg" xmlns:xlink="http://www.w3.org/1999/xlink" version="1.1">
<metadata></metadata>
<defs>
<font id="bpg_dedaena_nonblockregular" horiz-adv-x="607" >
<font-face units-per-em="2048" ascent="1638" descent="-410" />
<missing-glyph horiz-adv-x="500" />
<glyph unicode="&#xd;" horiz-adv-x="569" />
<glyph unicode=" " />
<glyph unicode="!" d="M234 56q0 74 72 74q38 0 54.5 -18t16.5 -56t-16.5 -58t-54.5 -20h-2q-73 0 -70 78zM238 1526l35 198h59l35 -194l-37 -1168h-55z" />
<glyph unicode="&#x22;" d="M122 1754h118l-24 -452h-66zM374 1754h118l-26 -452h-64z" />
<glyph unicode="#" horiz-adv-x="952" d="M76 422v80h180l44 338h-182v80h192l52 412h84l-52 -412h230l54 412h82l-52 -412h170v-80h-180l-42 -338h182v-80h-192l-54 -422h-84l54 422h-230l-54 -422h-86l54 422h-170zM342 502h230l40 338h-230z" />
<glyph unicode="$" d="M-27 132l42 74q49 -36 117.5 -62t144.5 -26q62 0 113 19t87 52t55.5 78t19.5 97q0 100 -63 167t-176 117q-76 33 -136 67.5t-101 75t-62 89.5t-21 112q0 62 20.5 114t58 92t90.5 66t115 36v214h84v-212q87 -5 146 -25.5t100 -50.5l-42 -76q-14 10 -36 23t-52 23.5t-67 18 t-81 7.5q-66 0 -112 -19.5t-75.5 -50.5t-43 -69.5t-13.5 -74.5q0 -48 15 -85t46.5 -68t80 -59t116.5 -56q72 -33 128.5 -70t95.5 -81t59.5 -97t20.5 -120q0 -58 -19.5 -112t-57.5 -99t-93.5 -76.5t-129.5 -44.5v-212h-84v210q-39 0 -80 7t-79 19t-72 29t-59 39z" />
<glyph unicode="%" horiz-adv-x="1509" d="M66 938q0 107 24.5 185.5t65.5 129.5t93.5 76t106.5 25h2q58 0 108 -24.5t87 -73.5t58 -124t21 -176q0 -106 -22.5 -185t-61 -130.5t-91 -77t-111.5 -25.5q-54 0 -103.5 24t-88.5 73t-62.5 124.5t-25.5 178.5zM154 946q-2 -71 10.5 -132.5t38 -107t62.5 -72t83 -26.5 q53 0 90 27t60.5 73t34.5 108t11 134q0 68 -10.5 128.5t-33 106t-60 72.5t-90.5 27h-2q-46 0 -82 -26.5t-61 -72t-38 -107t-13 -132.5zM316 -26l794 1384h80l-794 -1384h-80zM876 388q0 107 25 185.5t66 129t93.5 75t107.5 24.5h2q58 0 108 -23.5t86.5 -72t58 -123.5 t21.5 -177q0 -106 -23 -184.5t-62 -131t-91 -77.5t-110 -25q-54 0 -104 23t-88.5 72.5t-63 124.5t-26.5 180zM964 396q-2 -71 11.5 -133t39 -107.5t62.5 -71.5t83 -26q52 0 89 26t61 72.5t35 109t11 134.5q0 68 -10.5 128.5t-34 106t-60.5 72.5t-89 27h-2q-47 0 -83.5 -27 t-61 -72.5t-38 -107.5t-13.5 -131z" />
<glyph unicode="&#x26;" horiz-adv-x="1146" d="M64 362q0 73 20.5 132.5t57.5 109.5t86.5 90.5t107.5 75.5v6q-58 79 -88 153t-30 149q0 62 20 120t59.5 103.5t97.5 73t133 27.5q56 0 104 -19.5t83.5 -55t56 -86.5t20.5 -113q0 -57 -16.5 -106t-54.5 -94.5t-99 -89t-150 -86.5v-6q53 -63 107 -126.5t106.5 -124 t100 -114t86.5 -97.5q25 40 46.5 85t38.5 98.5t32 117.5t27 143h92q-29 -168 -70.5 -292t-109.5 -208q54 -54 105.5 -109.5t112.5 -118.5h-122q-32 32 -67 69t-85 87q-53 -50 -104.5 -84t-103 -55t-104 -30t-108.5 -9q-84 0 -155 29.5t-123 81.5t-81 122t-29 151zM162 374 q0 -70 23.5 -128t65 -100t99.5 -65t126 -23h2q106 0 192.5 44t147.5 114q-29 35 -76 87t-104.5 116.5t-123.5 137.5t-134 151q-32 -20 -70 -49t-71 -70t-55 -94t-22 -121zM310 1086q0 -45 9.5 -83t25.5 -71.5t36 -64.5t41 -61q62 33 113.5 66.5t88 70.5t56.5 79.5t20 95.5 q0 36 -10 73t-33 66.5t-58 48t-85 18.5h-2q-51 0 -88 -20t-63 -53t-38.5 -76t-12.5 -89z" />
<glyph unicode="'" d="M244 1744h117l-24 -452h-66z" />
<glyph unicode="(" d="M121 814q0 182 25.5 330.5t66.5 270t92.5 219t105.5 176.5h92q-64 -94 -117 -198t-91 -225.5t-58.5 -263t-20.5 -311.5q0 -167 21.5 -308.5t59.5 -263.5t90.5 -227.5t115.5 -202.5h-92q-54 79 -105.5 177t-92.5 221t-66.5 273t-25.5 333z" />
<glyph unicode=")" d="M110 -188q62 96 114 200t90.5 225t60.5 261.5t22 309.5q0 167 -21.5 308.5t-59.5 263t-90.5 227t-115.5 201.5h92q52 -79 103.5 -177t92.5 -220.5t67 -272t26 -332.5q0 -184 -25.5 -331.5t-66.5 -268t-92.5 -217t-104.5 -177.5h-92z" />
<glyph unicode="*" d="M-33 1146v96l288 -22v4l-176 246l90 52l134 -266h4l128 268l90 -52l-180 -250v-4l300 24v-96l-298 26v-4l180 -244l-94 -54l-128 270h-4l-142 -272l-80 56l178 246v4z" />
<glyph unicode="+" horiz-adv-x="1214" d="M129 456v82h434v452h88v-452h434v-82h-434v-456h-88v456h-434z" />
<glyph unicode="," d="M181 66q0 19 6.5 35.5t19 30t29 21t35.5 7.5q24 0 45.5 -12t37.5 -34.5t26 -53.5t10 -68q0 -40 -12.5 -79t-37.5 -73t-64.5 -63t-94.5 -49v34q36 13 64 35t48 49.5t30 58.5t10 63q0 17 -6 26q-6 6 -10 6q-11 0 -34 -14q-11 -8 -26 -8q-35 0 -55.5 22.5t-20.5 65.5z" />
<glyph unicode="-" d="M58 468v88h486v-88h-486z" />
<glyph unicode="." d="M222 66q0 38 26 64t62 26q18 0 34.5 -7t29 -20t19.5 -29t7 -34t-7 -34t-19.5 -28t-29 -19t-34.5 -7t-34.5 7t-28 19t-18.5 28t-7 34z" />
<glyph unicode="/" d="M-10 -4l529 1748h100l-535 -1748h-94z" />
<glyph unicode="0" horiz-adv-x="999" d="M169 660q0 182 37 313t97.5 215.5t139 125t162.5 40.5q88 0 163 -40t129.5 -122.5t85 -208.5t30.5 -299q0 -179 -31 -311.5t-88 -220.5t-137 -131t-178 -43h-2q-78 0 -150.5 39t-129 121.5t-91.5 211.5t-37 310zM271 674q-2 -139 20 -252t63.5 -193.5t100.5 -124.5 t132 -44h2q83 0 143.5 45t100 126t59 194t19.5 249q0 132 -19 241.5t-58 189t-99.5 123.5t-143.5 44q-72 0 -131 -44t-101 -123t-65 -189.5t-23 -241.5z" />
<glyph unicode="1" d="M61 1182l252 150h90v-1332h-96v1230h-4l-218 -126z" />
<glyph unicode="2" horiz-adv-x="1214" d="M236 0v60l123 126q140 135 240.5 242t165.5 198t95.5 173t30.5 167q0 58 -13.5 112t-46.5 96.5t-88.5 68t-140.5 25.5q-48 0 -89 -11t-76.5 -28t-65 -37t-51.5 -38l-39 66q67 61 151.5 97.5t188.5 36.5q69 0 123.5 -16.5t95.5 -44t70 -64t47 -77t26.5 -83t8.5 -81.5 q0 -97 -35 -189t-102 -187.5t-164.5 -200t-223.5 -227.5l-94 -98v-4h655v-82h-792z" />
<glyph unicode="3" horiz-adv-x="1214" d="M234 68l39 78q17 -14 46.5 -29t67 -27t81.5 -20t92 -8q101 0 167 31t104 77.5t52.5 100t11.5 97.5q0 84 -33.5 143.5t-89 97.5t-125.5 55.5t-143 17.5h-84v82h88q56 0 115 16t107.5 49t80 83.5t31.5 119.5q0 47 -14 90t-45 75.5t-80 52.5t-119 20q-39 0 -75.5 -8 t-69.5 -21.5t-61.5 -30t-51.5 -32.5l-39 72q25 19 58.5 37.5t73.5 33.5t84.5 24t92.5 9q95 0 161.5 -27t108 -70.5t60 -99t18.5 -113.5q0 -103 -62.5 -185t-184.5 -129v-6q62 -12 116.5 -41.5t95.5 -74.5t65 -104.5t24 -131.5q0 -75 -27.5 -145.5t-83 -125.5t-140 -89 t-200.5 -34q-52 0 -98.5 8t-87 20.5t-73 29t-54.5 32.5z" />
<glyph unicode="4" horiz-adv-x="1214" d="M121 392v64l650 876h80v-858h202v-82h-202v-392h-94v392h-636zM239 474h518v538q0 50 0.5 94t5.5 90l-6 2q-31 -57 -55.5 -95t-49.5 -73l-413 -552v-4z" />
<glyph unicode="5" horiz-adv-x="1214" d="M218 64l38 78q18 -14 46.5 -28.5t64.5 -26t77.5 -18.5t86.5 -7q72 0 135 25.5t109.5 71t73 109t26.5 138.5q-2 71 -25 132.5t-69.5 107t-118.5 72t-172 26.5q-61 0 -108 -4t-82 -10l86 602h577v-86h-502l-65 -428q23 5 50.5 7.5t72.5 2.5q67 0 127 -14.5t120 -43.5 q39 -18 76.5 -50t66.5 -76t46.5 -99.5t17.5 -120.5q0 -100 -35 -182.5t-96.5 -141.5t-143 -90.5t-173.5 -31.5q-51 0 -97.5 7t-86 19t-71 28t-52.5 32z" />
<glyph unicode="6" horiz-adv-x="1214" d="M187 536q0 100 17 190t45.5 165.5t68.5 138.5t86 110q73 76 168 126.5t205 71.5q36 11 71 13.5t62 2.5v-90q-29 0 -65.5 -1.5t-77.5 -12.5q-108 -23 -192 -78t-144.5 -131t-95.5 -168.5t-46 -190.5h4q22 36 56 70t78.5 60t97.5 41t112 15q91 0 165 -32t125.5 -89 t79.5 -135.5t28 -171.5q0 -88 -26.5 -171t-79 -147.5t-130.5 -104t-180 -39.5q-90 0 -169 36t-137 106t-92 174.5t-34 241.5zM285 514q0 -100 22.5 -184t65.5 -144t106.5 -93t145.5 -33h2q68 0 124 26.5t96.5 75t63 117.5t22.5 153q0 88 -24.5 154t-67 110t-101 66 t-127.5 22q-47 0 -91.5 -13t-84.5 -38.5t-73.5 -61t-55.5 -79.5q-11 -17 -17 -36t-6 -42z" />
<glyph unicode="7" horiz-adv-x="1214" d="M248 1250v82h779v-70l-600 -1262h-97l594 1246v4h-676z" />
<glyph unicode="8" horiz-adv-x="1214" d="M181 332q0 130 74.5 222.5t203.5 147.5v8q-62 27 -104 61t-69 72.5t-39 81t-12 87.5q0 75 28.5 137.5t79.5 108t119.5 71t148.5 25.5h2q83 0 149 -26t111.5 -70t69.5 -101.5t24 -122.5q0 -42 -11 -85.5t-38 -85.5t-72.5 -80t-113.5 -69v-8q143 -56 213 -145.5t70 -206.5 q0 -84 -34.5 -152.5t-92 -119t-133 -77.5t-158.5 -27q-89 0 -165.5 26.5t-132 74t-87 112.5t-31.5 141zM283 352q-4 -60 16.5 -112.5t61.5 -93t100 -63.5t134 -23h2q73 0 131.5 20.5t100 57.5t64 88.5t22.5 113.5q0 69 -23 121.5t-67 92t-107.5 69t-144.5 51.5 q-143 -42 -216.5 -126.5t-73.5 -195.5zM331 1026q-2 -60 17.5 -105.5t58.5 -80t94 -58.5t122 -40q53 18 98 44.5t77.5 61.5t50.5 79.5t18 98.5q0 46 -14.5 90t-46 79t-81 57t-120.5 22h-2q-66 0 -117 -20t-85.5 -54t-52 -79t-17.5 -95z" />
<glyph unicode="9" horiz-adv-x="1214" d="M196 884q0 92 30.5 177t86.5 150t134.5 104t174.5 39q86 0 159.5 -36t127.5 -106.5t84.5 -174t30.5 -239.5q0 -112 -18 -207t-49.5 -174t-72.5 -141t-88 -108q-31 -33 -69 -61.5t-78.5 -51.5t-82 -38t-80.5 -21q-108 -21 -181 -18v90q29 -5 66 -1.5t85 11.5 q82 12 155.5 50.5t134.5 105.5q66 72 113.5 173.5t66.5 248.5l-6 -2q-64 -82 -149.5 -127t-194.5 -45q-93 0 -164 33.5t-119 90t-72.5 128.5t-24.5 150zM294 890q0 -75 22.5 -134.5t62.5 -102t94.5 -65t120.5 -22.5q52 0 99.5 13t88.5 35.5t73.5 54t53.5 69.5q7 12 13 26 t6 32q0 105 -20 193t-59.5 150.5t-100 97.5t-142.5 35h-2q-69 0 -125.5 -29t-97.5 -79.5t-64 -121t-23 -152.5z" />
<glyph unicode=":" d="M228 84q0 22 6.5 42.5t17.5 35.5t25.5 23.5t30.5 8.5q18 0 32.5 -9t25.5 -24t17.5 -35.5t6.5 -41.5q0 -23 -6.5 -43.5t-17.5 -35.5t-25.5 -24t-32.5 -9q-16 0 -30.5 9t-25.5 24t-17.5 35.5t-6.5 43.5zM230 722q0 22 6.5 42.5t17.5 36t25.5 24.5t30.5 9q17 0 31.5 -9 t25.5 -24.5t18 -35.5t7 -43q0 -22 -7 -41.5t-18 -35t-25.5 -24.5t-31.5 -9q-16 0 -30.5 9t-25.5 24.5t-17.5 35t-6.5 41.5z" />
<glyph unicode=";" d="M205 66q0 38 27 66t65 28q22 0 43.5 -12t38 -34.5t26.5 -53.5t10 -68q0 -40 -12 -79t-37.5 -73t-65 -63t-95.5 -49v34q36 13 65.5 35t49 49.5t29.5 58.5t10 63q0 8 -1.5 14.5t-6.5 11.5q-3 6 -8 6q-8 0 -35 -14q-11 -8 -27 -8q-35 0 -55.5 22.5t-20.5 65.5zM228 738 q0 36 23 62t53 26q32 0 54.5 -26t22.5 -62q0 -37 -22.5 -62.5t-54.5 -25.5q-30 0 -53 25t-23 63z" />
<glyph unicode="&#x3c;" horiz-adv-x="1214" d="M146 508v72l930 508v-94l-836 -450v-4l836 -446v-94z" />
<glyph unicode="=" horiz-adv-x="1214" d="M82 227v82h1056v-82h-1056zM82 615v82h1056v-82h-1056z" />
<glyph unicode="&#x3e;" horiz-adv-x="1214" d="M146 0v94l834 446v4l-834 450v94l930 -508v-72z" />
<glyph unicode="?" d="M19 1644q26 22 59.5 40.5t70 31t73 19.5t69.5 7q82 0 142 -29.5t99 -78t58 -111t19 -127.5q0 -55 -12 -106.5t-36 -104t-57.5 -106t-76.5 -111.5q-38 -55 -64 -126.5t-40.5 -146t-20 -144t-0.5 -119.5l4 -74h-92l-9 64q-4 33 -3.5 78.5t6.5 98.5t16.5 108.5t26.5 109.5 t38 103t50 88q41 59 71.5 107t51 93t30 89t9.5 93q0 56 -14 101.5t-43 78t-72 50.5t-101 18q-27 0 -56.5 -5.5t-57 -15.5t-53 -25.5t-44.5 -33.5zM167 70q0 41 23.5 66.5t60.5 25.5q36 0 59 -25.5t23 -66.5q0 -37 -23 -64.5t-61 -27.5h-2q-34 0 -57 26.5t-23 65.5z" />
<glyph unicode="@" horiz-adv-x="1468" d="M78 424q0 106 23 206t68 187.5t109 160.5t146 125.5t180 81.5t212 29q132 0 239 -45t182 -124.5t116 -187.5t41 -235q0 -117 -29.5 -207.5t-79 -153t-112 -94t-127.5 -31.5q-26 0 -53 10.5t-47.5 33t-31 59t-4.5 89.5h-6q-61 -99 -135 -145.5t-173 -46.5q-40 0 -79 17 t-69.5 49.5t-49 78.5t-18.5 105q0 97 37.5 186t103 157t155 108.5t192.5 40.5q67 0 115 -10.5t91 -27.5l-74 -366q-26 -135 -7.5 -197t75.5 -65q42 -2 84 26t75.5 79.5t54 125t20.5 161.5q0 119 -33.5 217.5t-97 168.5t-157 109t-214.5 39q-130 0 -244 -50t-200 -142 t-136 -223t-50 -293q0 -127 40 -231.5t111 -179t167.5 -115t209.5 -40.5q95 0 174.5 21t143.5 57l28 -68q-79 -46 -168 -68t-188 -22q-125 0 -236 45.5t-194 128t-131.5 201t-48.5 265.5zM472 382q0 -36 9.5 -68t29 -54.5t49 -36t68.5 -13.5q53 0 103 31.5t90.5 78.5 t68.5 103.5t36 104.5l50 254q-17 8 -47.5 14t-76.5 6q-78 0 -147.5 -33.5t-121 -91.5t-81.5 -134t-30 -161z" />
<glyph unicode="A" horiz-adv-x="1198" d="M62 0l500 1380h94l498 -1380h-102l-174 484h-546l-170 -484h-100zM362 566h486l-168 460q-24 72 -40 128.5t-32 115.5h-4q-14 -61 -31 -117t-41 -123z" />
<glyph unicode="B" horiz-adv-x="1034" d="M166 0v1360q61 14 130 22t148 8q130 0 217 -28t143 -86q86 -83 86 -226q0 -54 -17.5 -101t-49.5 -86.5t-75 -70t-94 -48.5v-6q42 -10 93 -35t95 -67.5t74 -104t30 -145.5q0 -87 -27 -151.5t-75 -114.5q-70 -70 -179 -100t-259 -30q-79 0 -138 4t-102 6zM264 82 q31 -6 72.5 -8t97.5 -2q79 0 153.5 15t131 51t91 95.5t34.5 148.5q0 82 -32.5 141t-88 97t-129.5 56t-156 18h-174v-612zM264 774h200q76 0 137 21t103 56.5t64 85.5t22 107q0 72 -26 122.5t-73 82t-112 45.5t-141 14q-68 0 -109.5 -4t-64.5 -10v-520z" />
<glyph unicode="C" horiz-adv-x="1167" d="M76 682q0 155 48 286.5t138.5 227.5t220 150t293.5 54q65 0 117.5 -6t92.5 -15t67.5 -19t42.5 -18l-32 -82q-54 26 -126 42t-160 16q-140 0 -251 -43.5t-188.5 -126t-119 -200.5t-41.5 -268q0 -142 39 -255.5t114 -193.5t183.5 -123.5t247.5 -43.5q88 0 169.5 16.5 t142.5 45.5l28 -76q-55 -26 -149.5 -48t-222.5 -22q-83 0 -164 18t-154 55.5t-134.5 94.5t-106.5 135t-70 177.5t-25 221.5z" />
<glyph unicode="D" horiz-adv-x="1325" d="M166 0v1360q80 14 168 22t186 8q191 0 331 -48t227 -140q84 -87 128 -204t44 -276q0 -154 -43 -285.5t-137 -236.5q-92 -100 -243 -155t-353 -55q-81 0 -156.5 2t-151.5 8zM264 82q42 -6 99.5 -8t124.5 -2q166 0 290 45t206 129t123 203.5t41 268.5v20q0 120 -34 221 q-36 109 -114 186t-199 120t-287 43q-80 0 -142 -7t-108 -15v-1204z" />
<glyph unicode="E" horiz-adv-x="954" d="M166 0v1380h682v-82h-584v-530h552v-82h-552v-604h616v-82h-714z" />
<glyph unicode="F" horiz-adv-x="946" d="M166 0v1380h682v-82h-584v-548h536v-82h-536v-668h-98z" />
<glyph unicode="G" horiz-adv-x="1277" d="M76 686q0 144 47 272.5t138 225.5t225.5 153.5t309.5 56.5q56 0 105.5 -5.5t91 -14.5t73.5 -19.5t52 -20.5l-32 -80q-56 25 -126 41.5t-170 16.5q-142 0 -255 -44t-192.5 -125.5t-122 -196t-42.5 -256.5q0 -145 41 -260t117.5 -195.5t186 -123.5t247.5 -43 q110 0 181 12.5t107 35.5v488h-318v80h418v-624q-26 -12 -66.5 -25.5t-92 -24t-113.5 -17.5t-132 -7q-69 0 -134.5 8.5t-126.5 30t-118 55.5t-109 86q-42 40 -77.5 95.5t-60.5 122t-38.5 143t-13.5 159.5z" />
<glyph unicode="H" horiz-adv-x="1290" d="M166 0v1380h98v-608h762v608h98v-1380h-98v690h-762v-690h-98z" />
<glyph unicode="I" horiz-adv-x="432" d="M166 0v1380h98v-1380h-98z" />
<glyph unicode="J" horiz-adv-x="706" d="M14 10l20 78q26 -11 62 -18.5t84 -7.5q65 0 116.5 17t87 61t54 118.5t18.5 189.5v932h100v-954q0 -133 -31 -219.5t-82.5 -137t-119 -71t-141.5 -20.5q-23 0 -47.5 2.5t-46.5 7t-41.5 10.5t-32.5 12z" />
<glyph unicode="K" horiz-adv-x="1019" d="M166 0v1380h98v-698h6q31 42 60.5 76.5t59.5 67.5l488 554h120l-524 -586l572 -794h-116l-524 728l-142 -156v-572h-98z" />
<glyph unicode="L" horiz-adv-x="917" d="M166 0v1380h98v-1298h614v-82h-712z" />
<glyph unicode="M" horiz-adv-x="1593" d="M130 0l100 1380h112l296 -796q50 -131 86.5 -239t65.5 -207h6q15 48 31 96.5t34 103t40 115t49 131.5l310 796h116l92 -1380h-96l-40 654q-6 77 -12 161t-10 165t-6 155t-2 131h-4l-38.5 -115.5t-42.5 -122t-49 -132.5t-56 -146l-290 -750h-68l-272 734 q-60 161 -104 288.5t-74 243.5h-4q-3 -62 -6 -136t-7 -155t-8.5 -167.5t-10.5 -173.5l-42 -634h-96z" />
<glyph unicode="N" horiz-adv-x="1306" d="M168 0v1380h92l536 -814q44 -66 80 -123t67 -110t59 -102.5t54 -98.5l4 2q-4 70 -7 135.5t-5 132t-3 138t-1 152.5v688h94v-1380h-90l-526 802q-79 119 -146 228t-122 220l-4 -2q4 -64 6 -126t3.5 -127t2 -138t0.5 -159v-698h-94z" />
<glyph unicode="O" horiz-adv-x="1374" d="M76 676q0 169 48 303.5t131.5 228.5t197 144t243.5 50t240 -49t190.5 -140t126 -220t45.5 -289q0 -182 -51.5 -318t-137.5 -226.5t-197 -136t-230 -45.5h-2q-126 0 -236.5 48.5t-192 138.5t-128.5 219.5t-47 291.5zM178 680q0 -117 33.5 -228.5t97.5 -198.5t158.5 -140 t216.5 -53h2q122 0 217.5 51.5t160.5 138.5t98.5 203t33.5 245q0 73 -13.5 147.5t-41 143.5t-69 129.5t-97.5 105.5t-127.5 70.5t-157.5 25.5q-133 0 -229 -54.5t-159 -144.5t-93.5 -205.5t-30.5 -235.5z" />
<glyph unicode="P" horiz-adv-x="1028" d="M166 0v1364q61 11 134.5 18.5t161.5 7.5q125 0 216.5 -30t149.5 -86q51 -49 78.5 -116.5t27.5 -153.5q0 -92 -23.5 -157.5t-72.5 -118.5q-67 -76 -172 -115t-234 -39q-50 0 -90 2.5t-78 13.5v-590h-98zM264 676q35 -12 80 -16t96 -4q93 0 166.5 21.5t124.5 64t78 106 t27 146.5q0 81 -28 140t-78 98t-119.5 57.5t-152.5 18.5q-68 0 -116.5 -5t-77.5 -11v-616z" />
<glyph unicode="Q" horiz-adv-x="1374" d="M76 674q0 173 48 308.5t132 229t197.5 142t244.5 48.5q130 0 240 -49t190 -140t125 -220t45 -289q0 -143 -32 -257t-89.5 -200.5t-137.5 -145.5t-177 -89v-8q58 -12 118 -26t118.5 -27t113 -24t100.5 -17l-30 -90q-68 14 -137 31.5t-136 36t-129.5 37t-115.5 35.5 q-23 6 -41.5 12t-36.5 6q-126 2 -237 49.5t-194 136.5t-131 217.5t-48 292.5zM178 676q0 -78 15 -154t44 -144t72 -127t99 -101.5t124.5 -66t149.5 -23.5h2q122 0 218 51.5t161 138.5t99 203t34 245q0 73 -13.5 147.5t-41 143.5t-69 129.5t-97 105.5t-126 70.5t-155.5 25.5 q-88 0 -161 -25t-130 -70t-99.5 -106.5t-70.5 -132.5t-41.5 -150.5t-13.5 -159.5z" />
<glyph unicode="R" horiz-adv-x="1034" d="M166 0v1362q65 12 145 20t153 8q136 0 225 -28.5t149 -85.5q46 -44 71 -108.5t25 -137.5q0 -69 -19.5 -126.5t-55 -103t-85.5 -78.5t-110 -52v-4q85 -26 136.5 -101.5t75.5 -192.5q18 -81 33 -141t26.5 -104t21.5 -75t21 -52h-100q-17 30 -39 117t-49 219q-16 74 -41 129 t-62 91.5t-88.5 55t-118.5 20.5h-216v-632h-98zM264 712h220q80 0 144.5 21.5t110.5 61t71.5 95t25.5 124.5q0 80 -27.5 136t-77 91.5t-118.5 52t-151 16.5q-73 0 -122.5 -6t-75.5 -12v-580z" />
<glyph unicode="S" horiz-adv-x="950" d="M86 72l36 80q61 -42 138.5 -66t163.5 -24q77 0 139 20.5t105 58t66.5 90t23.5 117.5q0 59 -15 105.5t-49 85.5t-87.5 71t-128.5 60q-84 30 -150 67t-111.5 83t-70 102.5t-24.5 127.5q0 76 30 140.5t83 111t127 72.5t162 26q98 0 168 -19t106 -43l-36 -84q-14 10 -37.5 21 t-54.5 20.5t-69 16t-83 6.5q-84 0 -141 -23.5t-92 -60.5t-50 -81.5t-15 -84.5q0 -57 16.5 -101t52 -80.5t89 -67.5t128.5 -59q85 -34 150 -72.5t109 -86t66.5 -107t22.5 -136.5q0 -75 -27 -143.5t-81.5 -121t-137 -83t-192.5 -30.5q-45 0 -92.5 7t-91.5 19t-82 29t-64 37z " />
<glyph unicode="T" horiz-adv-x="952" d="M-22 1298v82h998v-82h-450v-1298h-98v1298h-450z" />
<glyph unicode="U" horiz-adv-x="1282" d="M166 540v840h98v-834q0 -133 29 -224.5t78.5 -150.5t116 -85t142.5 -26q85 0 156.5 28t123 88t80 152t28.5 218v834h98v-824q0 -159 -40 -269.5t-107 -179t-156.5 -99t-186.5 -30.5q-90 0 -173.5 28t-147 94.5t-101.5 174t-38 265.5z" />
<glyph unicode="V" horiz-adv-x="1042" d="M0 1380h102l244 -738q50 -154 91.5 -283.5t70.5 -246.5h6q31 117 76 249t100 281l268 738h104l-512 -1380h-92z" />
<glyph unicode="W" horiz-adv-x="1679" d="M30 1380h102l200 -778q35 -135 64.5 -255t49.5 -217h4q19 97 52 216.5t76 255.5l224 778h96l204 -772q35 -129 64.5 -250.5t47.5 -227.5h4q23 111 55.5 226t70.5 248l226 776h102l-414 -1380h-94l-208 794q-20 76 -37 141t-30.5 121.5t-23 107t-15.5 98.5h-4 q-8 -49 -20 -99.5t-27.5 -106.5t-34.5 -120t-42 -140l-234 -796h-92z" />
<glyph unicode="X" horiz-adv-x="1118" d="M62 0l438 698l-420 682h110l224 -368q44 -70 77 -126t65 -112h4q16 30 31.5 57.5t33.5 56t37 58.5t42 66l232 368h114l-440 -672l444 -708h-112l-208 340q-33 48 -59 87.5t-47.5 74.5t-40 65.5t-37.5 58.5h-4q-17 -29 -33.5 -59.5t-37 -65t-45 -74.5t-58.5 -89l-198 -338 h-112z" />
<glyph unicode="Y" horiz-adv-x="1030" d="M30 1380h110l226 -412q45 -81 83.5 -151.5t74.5 -144.5h4q31 70 71 141.5t89 156.5l236 410h108l-464 -784v-596h-100v598z" />
<glyph unicode="Z" horiz-adv-x="1103" d="M70 0v64l832 1228v6h-764v82h888v-66l-834 -1226v-6h844v-82h-966z" />
<glyph unicode="[" d="M131 -230v1976h350v-74h-260v-1826h260v-76h-350z" />
<glyph unicode="\" d="M-20 1744h96l539 -1740h-98z" />
<glyph unicode="]" d="M120 -154h258v1826h-258v76h348v-1978h-348v76z" />
<glyph unicode="^" horiz-adv-x="1214" d="M148 402l420 930h88l420 -930h-96l-366 834h-4l-368 -834h-94z" />
<glyph unicode="_" horiz-adv-x="1214" d="M100 -154h1024v-102h-1024v102z" />
<glyph unicode="`" d="M139 1410h142l183 -284h-75z" />
<glyph unicode="a" horiz-adv-x="929" d="M80 248q0 174 150 267t450 93v26q0 25 -2.5 56t-11 63t-25 63t-44 54.5t-69 38.5t-100.5 15q-67 0 -130 -18t-118 -56l-30 72q70 45 145 64.5t143 19.5q71 0 124 -17t90.5 -45t62 -66.5t38.5 -81.5t19.5 -88.5t5.5 -89.5v-384q0 -61 1.5 -118.5t12.5 -115.5h-90l-14 142 h-4q-18 -28 -48 -57.5t-70 -53t-89.5 -38.5t-108.5 -15q-75 0 -129 23.5t-89.5 62t-52.5 86.5t-17 98zM182 264q0 -54 16.5 -92t43 -63t62 -37t74.5 -12q62 0 111 17t85 45t60 63t36 71q6 14 8 31t2 29v210q-54 0 -112 -2.5t-113 -11.5t-104.5 -26.5t-87 -46t-59.5 -71.5 t-22 -104z" />
<glyph unicode="b" horiz-adv-x="1130" d="M156 0q6 55 7 114.5t1 115.5v1226h98v-658h4q50 98 139.5 153t220.5 55q94 0 171 -37t133 -104t86 -159.5t30 -203.5q0 -132 -38 -230t-100 -163t-140.5 -98t-159.5 -33q-122 0 -206.5 49t-145.5 149h-4l-8 -176h-88zM262 378q0 -17 1 -34.5t7 -35.5q17 -57 48 -102.5 t72.5 -78t93 -50t110.5 -17.5q85 0 150.5 32.5t111 91t69 139.5t23.5 177q0 83 -22.5 160t-66.5 135.5t-108.5 93.5t-148.5 35q-54 0 -105 -18t-94.5 -51.5t-77 -82.5t-51.5 -110q-12 -38 -12 -86v-198z" />
<glyph unicode="c" horiz-adv-x="913" d="M84 482q0 117 38 213.5t105 165.5t160 107t203 38q46 0 86 -6t74 -15.5t59 -20t39 -20.5l-34 -80q-35 23 -92.5 40.5t-139.5 17.5q-99 0 -174 -35t-125 -94.5t-75.5 -138t-25.5 -164.5q0 -97 28.5 -175.5t80 -134.5t123.5 -86t158 -30q45 0 80.5 5.5t65 14t54 18.5 t46.5 18l26 -76q-15 -8 -42.5 -19.5t-64.5 -21t-83 -16.5t-98 -7q-107 0 -194.5 37t-149 103t-95 158t-33.5 204z" />
<glyph unicode="d" horiz-adv-x="1114" d="M84 474q0 122 35 220.5t95 167.5t140.5 106.5t171.5 37.5q64 0 116 -15t92.5 -39t69 -55.5t44.5 -64.5h4v624h98v-1228q0 -56 1 -114.5t7 -113.5h-88l-8 186h-4q-18 -40 -50 -78t-76 -67t-100 -46t-124 -17q-92 0 -170 36t-134 101t-88 156t-32 203zM182 484 q0 -83 21 -160t63.5 -135.5t107 -93.5t152.5 -35q53 0 103.5 17.5t93 50.5t73.5 80.5t46 107.5q6 18 8 38t2 44v196q0 20 -2 43.5t-8 46.5q-12 50 -40 93.5t-68.5 75.5t-91.5 51.5t-110 19.5q-81 0 -145.5 -33t-110 -91.5t-70 -139.5t-24.5 -176z" />
<glyph unicode="e" horiz-adv-x="993" d="M84 474q0 122 33.5 220.5t92.5 167.5t140 106.5t176 37.5q81 0 140.5 -23.5t102.5 -61t70 -85.5t43 -97t22 -95.5t6 -81.5q0 -20 -1 -33t-3 -27h-726q0 -118 30 -201.5t81 -136t119.5 -76.5t145.5 -24q54 0 95 4.5t73.5 12t57 17t46.5 20.5l24 -74q-14 -8 -40 -19.5 t-64.5 -21t-89.5 -16.5t-116 -7q-106 0 -191 36t-144 101t-91 156t-32 201zM186 580h620q1 10 1 21q1 23 -3 51q-4 38 -17.5 77t-35 74t-55 61.5t-78.5 43t-104 16.5q-82 0 -141 -32.5t-98.5 -82.5t-61 -111.5t-27.5 -117.5z" />
<glyph unicode="f" horiz-adv-x="536" d="M30 904v80h142v52q0 116 24 205t84 149q49 46 104 66t116 20q50 0 87 -10t61 -24l-32 -74q-20 11 -50 18.5t-74 7.5q-69 0 -112.5 -29t-68 -78t-33 -113.5t-8.5 -135.5v-54h262v-80h-262v-904h-98v904h-142z" />
<glyph unicode="g" horiz-adv-x="1114" d="M84 484q0 127 38.5 224.5t101 163.5t142 100t160.5 34q72 0 127.5 -18t96 -45.5t67.5 -61t41 -63.5h4l6 166h90q-6 -56 -7 -116t-1 -138v-586q0 -94 -9.5 -166.5t-26.5 -126.5t-42.5 -93.5t-55.5 -69.5q-72 -62 -160.5 -89t-173.5 -27q-44 0 -87.5 5.5t-84 16.5t-77 27 t-65.5 37l34 78q55 -35 125.5 -58.5t168.5 -23.5q77 0 142.5 21t112.5 69t74 123.5t27 184.5v138h-4q-18 -38 -49 -72.5t-74 -61t-98 -41.5t-121 -15q-93 0 -170.5 38t-133.5 103t-87 153.5t-31 189.5zM182 494q0 -84 22 -159t65 -131t108 -89t153 -33q51 0 97.5 15.5 t86 44.5t70.5 70t52 92q8 24 12 51t4 53v196q0 29 -2 52.5t-10 43.5q-15 44 -42 84.5t-66 71.5t-88.5 49.5t-109.5 18.5q-78 0 -142 -31t-111 -87t-73 -135.5t-26 -176.5z" />
<glyph unicode="h" horiz-adv-x="1097" d="M166 0v1456h98v-650h4q23 44 56.5 80t77.5 62q42 26 92 42t106 16q23 0 57.5 -5.5t72.5 -21t76 -44t68.5 -74t49 -112t18.5 -157.5v-592h-98v582q0 66 -14 127t-46.5 108t-84 75t-125.5 28q-54 0 -100.5 -18t-85 -47.5t-67.5 -70t-45 -86.5q-8 -23 -10 -45t-2 -53v-600 h-98z" />
<glyph unicode="i" horiz-adv-x="428" d="M136 1264q0 35 22 60.5t58 25.5q35 0 55.5 -25.5t20.5 -60.5q0 -32 -21 -58t-59 -26h-2q-35 0 -54.5 25.5t-19.5 58.5zM166 0v984h98v-984h-98z" />
<glyph unicode="j" horiz-adv-x="438" d="M-100 -348q67 5 118 24.5t86 57.5q19 23 33.5 51.5t23.5 73t13 110t4 165.5v850h98v-916q0 -66 -4.5 -122t-16.5 -104t-32.5 -88.5t-50.5 -75.5q-27 -30 -62 -49.5t-70 -31.5t-68.5 -17.5t-57.5 -7.5zM148 1264q0 33 22 59.5t60 26.5q32 0 54 -25.5t22 -60.5 q0 -31 -21 -57.5t-59 -26.5h-2q-17 0 -31.5 7t-24 19t-15 27.5t-5.5 30.5z" />
<glyph unicode="k" horiz-adv-x="866" d="M164 0v1456h98v-946h4q18 23 44.5 53.5t49.5 54.5l348 366h120l-398 -408l452 -576h-118l-402 516l-100 -106v-410h-98z" />
<glyph unicode="l" horiz-adv-x="434" d="M166 0v1456h98v-1456h-98z" />
<glyph unicode="m" horiz-adv-x="1677" d="M158 984h92l6 -172h4q24 42 54.5 78t69 61.5t86.5 40t110 14.5q51 0 95 -16t80.5 -44t63.5 -67.5t43 -86.5h4q20 44 45.5 77.5t54.5 56.5q48 37 102 58.5t132 21.5q24 0 57 -5.5t69 -22t71 -45.5t62.5 -76.5t45 -115.5t17.5 -161v-580h-98v572q0 83 -16.5 148t-48 110.5 t-80 69.5t-111.5 24q-47 0 -87.5 -16.5t-74 -43t-58 -61.5t-38.5 -73q-6 -23 -12 -46.5t-6 -53.5v-630h-98v616q0 66 -15.5 122.5t-46.5 97.5t-76.5 64.5t-105.5 23.5q-49 0 -92 -18.5t-78 -49t-61 -70.5t-41 -84q-6 -20 -10 -45t-4 -51v-606h-98v748v63t-1 58.5t-2.5 56 t-4.5 58.5z" />
<glyph unicode="n" horiz-adv-x="1097" d="M158 984h92l6 -178h4q20 42 52.5 79t76 63.5t96 42t113.5 15.5q23 0 58 -5t73 -21t76 -44t69 -74t49.5 -113t18.5 -159v-590h-98v582q0 68 -14 129.5t-46 108.5t-84 75.5t-128 28.5q-52 0 -99 -18t-86 -48.5t-67.5 -72t-43.5 -89.5q-6 -17 -9 -40t-3 -46v-610h-98v748v63 t-1 58.5t-2.5 56t-4.5 58.5z" />
<glyph unicode="o" horiz-adv-x="1089" d="M84 484q0 126 38.5 223.5t102.5 164t148 100.5t175 34q102 0 187 -37t145 -104t93 -160t33 -205q0 -137 -42.5 -235.5t-110 -162.5t-151.5 -94t-166 -30h-2q-95 0 -177.5 36t-143 101.5t-95 159t-34.5 209.5zM182 490q0 -92 28 -171t76 -137t112.5 -90t139.5 -32h2 q77 0 144.5 32.5t117 91t78 138.5t28.5 174q0 45 -9 94t-27 97t-47 91t-69 75t-92 51.5t-118 19.5q-94 0 -162.5 -38.5t-113.5 -100t-66.5 -139t-21.5 -156.5z" />
<glyph unicode="p" horiz-adv-x="1130" d="M156 984h94l6 -188h4q55 99 145 154.5t219 55.5q94 0 172 -37.5t134 -104t86 -157.5t30 -199q0 -132 -36 -231t-97 -165.5t-142 -100t-171 -33.5q-107 0 -194.5 45t-139.5 137h-4v-566h-98v1076q0 93 -1 167t-7 147zM262 388q0 -20 1 -40t7 -38q15 -58 46 -104t74 -79 t95 -50t109 -17q85 0 150.5 32t111 91t69 141t23.5 180q0 83 -22.5 159t-66.5 134t-108.5 92.5t-148.5 34.5q-54 0 -105.5 -18t-95 -51t-76.5 -81t-49 -110q-6 -20 -10 -42t-4 -42v-192z" />
<glyph unicode="q" horiz-adv-x="1110" d="M84 474q0 143 41.5 244t107 164.5t145.5 93.5t158 30q63 0 115 -16.5t93 -43t69.5 -60.5t44.5 -70h4l6 168h90q-6 -56 -7 -116t-1 -138v-1136h-98v576h-4q-18 -36 -49.5 -71t-74 -62t-97 -43t-119.5 -16q-91 0 -168.5 36.5t-134 102t-89 156.5t-32.5 201zM182 486 q0 -82 20 -159t62 -136t106.5 -95t155.5 -36q102 0 183.5 58t124.5 170q8 20 13 47t5 51v210q0 23 -2 45.5t-8 42.5q-12 48 -39.5 91.5t-67 76t-90.5 52.5t-111 20q-81 0 -145.5 -32.5t-110.5 -90.5t-71 -138.5t-25 -176.5z" />
<glyph unicode="r" horiz-adv-x="604" d="M156 984h90l4 -200h6q16 47 43 88t63 70t79.5 46.5t92.5 17.5q11 0 21 -1t21 -3v-92q-12 2 -23 2h-25q-52 0 -94.5 -21t-75.5 -58t-55.5 -87.5t-32.5 -109.5q-6 -23 -7 -45.5t-1 -48.5v-542h-98v688q0 74 -1 148.5t-7 147.5z" />
<glyph unicode="s" horiz-adv-x="763" d="M90 48l34 82q42 -25 98.5 -46.5t123.5 -21.5q59 0 102 14.5t71 39.5t42.5 58.5t14.5 73.5q0 39 -13 71.5t-38 59.5t-64.5 49t-92.5 44q-122 45 -186 110.5t-64 157.5q0 54 21 101.5t60 84t95 58.5t128 22q68 0 124 -18t92 -44l-36 -80q-13 8 -31.5 18.5t-42.5 20 t-54.5 15.5t-67.5 6q-47 0 -82.5 -13.5t-59.5 -37.5t-36 -55t-12 -64q0 -39 13 -67.5t38.5 -51.5t63 -42t87.5 -41q60 -24 107 -51.5t79.5 -62t50 -78.5t17.5 -100q0 -63 -23.5 -114.5t-67 -88.5t-104.5 -57t-137 -20q-73 0 -136.5 18t-113.5 50z" />
<glyph unicode="t" horiz-adv-x="632" d="M36 904v80h166v180l100 36v-216h280v-80h-280v-640q0 -47 7.5 -84t24.5 -63.5t44 -40.5t66 -14q38 0 66 4t48 10l12 -74q-25 -8 -58.5 -15t-79.5 -7q-55 0 -97 16t-71 52q-35 38 -48.5 98t-13.5 136v622h-166z" />
<glyph unicode="u" horiz-adv-x="1087" d="M158 412v572h98v-554q0 -80 13 -147t44 -116t80.5 -76t122.5 -27q53 0 99 17t83.5 45t64.5 64t43 72q8 23 14 51t6 57v614h98v-744q0 -67 1.5 -124.5t6.5 -115.5h-92l-6 176h-4q-18 -34 -49 -69.5t-73 -64t-95.5 -46.5t-118.5 -18q-31 0 -68 6.5t-74.5 23.5t-72.5 47.5 t-62 78.5t-43 116.5t-16 161.5z" />
<glyph unicode="v" horiz-adv-x="925" d="M30 984h106l228 -612q29 -74 52.5 -136t43.5 -126h4q20 62 46 126t56 136l232 612h104l-400 -984h-86z" />
<glyph unicode="w" horiz-adv-x="1478" d="M48 984h100l166 -560q24 -86 45 -160.5t39 -147.5h4q18 68 43.5 145.5t54.5 162.5l196 560h92l188 -554q31 -91 54.5 -167.5t43.5 -146.5h4q17 70 38.5 144.5t51.5 165.5l174 558h100l-328 -984h-84l-186 548q-31 91 -57 170.5t-45 163.5h-4q-20 -86 -48 -168.5 t-60 -169.5l-194 -544h-86z" />
<glyph unicode="x" horiz-adv-x="878" d="M22 0l360 502l-338 482h110l168 -240q32 -44 57.5 -84t54.5 -84h4q29 45 57 84.5t57 83.5l168 240h110l-342 -480l354 -504h-112l-174 248q-35 50 -64 93.5t-60 90.5h-4q-14 -24 -28.5 -47t-29.5 -44.5t-31 -44.5t-33 -48l-172 -248h-112z" />
<glyph unicode="y" horiz-adv-x="901" d="M22 984h104l260 -644q20 -55 38 -110.5t32 -99.5h4q14 45 33.5 100t42.5 116l240 638h104l-294 -734q-46 -115 -86 -207t-79 -164.5t-79 -129t-88 -99.5q-28 -24 -55.5 -42.5t-51 -31t-40.5 -19.5t-25 -9l-30 82q36 14 81 39.5t91 68.5q36 37 81 98t83 150q12 27 12 42 q0 13 -12 44z" />
<glyph unicode="z" horiz-adv-x="825" d="M32 0v60l532 698q29 35 56 70.5t56 71.5v4h-600v80h718l-2 -66l-530 -698q-26 -35 -50.5 -68t-53.5 -68v-4h638v-80h-764z" />
<glyph unicode="{" horiz-adv-x="542" d="M54 760l2 82q55 -2 88.5 14t52.5 43t25 61.5t6 67.5q0 52 -5.5 103t-14.5 101q-8 52 -14 103t-6 103q0 81 22 138.5t61 94.5t91.5 54t115.5 17h24v-88h-38q-102 -2 -144 -59t-42 -165q0 -50 5 -98t13 -92q7 -50 13.5 -95.5t6.5 -94.5q0 -104 -35.5 -165t-96.5 -81v-6 q61 -18 96.5 -82t35.5 -164q0 -48 -6 -95t-14 -93q-8 -49 -13 -96.5t-5 -97.5q0 -113 44.5 -169.5t141.5 -58.5h38v-86h-24q-60 0 -112.5 17t-92 55t-62.5 99t-23 151q0 55 6 103t14 95q8 52 14 100t6 98q0 31 -6 64t-25 60.5t-53.5 44.5t-89.5 17z" />
<glyph unicode="|" horiz-adv-x="288" d="M100 -948v2694h88v-2694h-88z" />
<glyph unicode="}" horiz-adv-x="542" d="M40 -58h38q97 2 141.5 58.5t44.5 169.5q0 50 -5 98t-13 96q-6 46 -12 93.5t-6 94.5q0 99 34.5 163.5t95.5 82.5v6q-61 19 -95.5 80.5t-34.5 165.5q0 49 6 94.5t12 95.5q8 45 13 92.5t5 97.5q0 108 -41.5 165t-144.5 59h-38v88h26q61 0 113.5 -17t91.5 -54t61 -94.5 t22 -138.5q0 -52 -6 -103t-12 -103q-8 -51 -14 -101.5t-6 -102.5q0 -33 6 -67.5t24 -61.5t52.5 -43t91.5 -14l-2 -82q-56 0 -90 -17t-52 -44.5t-24 -60.5t-6 -64q0 -50 6 -98t14 -100q6 -48 12 -95.5t6 -102.5q0 -90 -22 -151t-61 -99t-92 -55t-113 -17h-26v86z" />
<glyph unicode="~" horiz-adv-x="1220" d="M106 342q-4 61 12.5 110t46 83t71.5 52.5t90 18.5q28 0 56 -4t61.5 -14t76 -27.5t98.5 -44.5q42 -18 80.5 -35t74 -29t69.5 -19t68 -7q68 0 99 48t29 130h76q4 -72 -13 -122.5t-47.5 -82t-70.5 -45.5t-81 -14q-25 0 -53 4t-63.5 14t-80.5 27t-105 41q-39 18 -74.5 35 t-69.5 29.5t-67.5 20t-66.5 7.5q-67 0 -102.5 -45.5t-35.5 -130.5h-78z" />
<glyph unicode="&#xa0;" />
<glyph unicode="&#xa4;" horiz-adv-x="999" d="M72 288l132 134q-16 21 -30 49t-24.5 60.5t-17 67t-6.5 69.5q0 79 24 145t60 115l-138 132l64 66l128 -140q44 38 105.5 63t128.5 25h2q73 0 133 -25t99 -63l140 140l62 -64l-148 -134q32 -46 53 -110t21 -134q0 -81 -21 -148.5t-51 -105.5l140 -142l-62 -62l-134 142 q-47 -46 -111.5 -68t-126.5 -22q-31 0 -64.5 6t-64.5 17t-58 26t-45 33l-130 -134zM220 672q0 -84 25.5 -143t66 -97t88 -56t92.5 -18q49 -2 98 15.5t88.5 56t64.5 101.5t25 151q0 56 -16 111.5t-50 100t-85.5 72.5t-122.5 28h-2q-65 0 -115.5 -26.5t-85.5 -71t-53 -102.5 t-18 -122z" />
<glyph unicode="&#xa6;" horiz-adv-x="434" d="M172 196h88v-916h-88v916zM172 628v906h88v-906h-88z" />
<glyph unicode="&#xa7;" horiz-adv-x="1009" d="M140 728q0 25 6.5 53.5t22.5 58.5t42 60.5t65 59.5q-15 12 -28 29.5t-22.5 38.5t-15.5 45.5t-6 48.5q0 62 26.5 113t72 86.5t106.5 55t129 19.5q87 0 152 -21t106 -47l-40 -74q-35 26 -94.5 48t-135.5 22q-46 0 -87 -13.5t-73.5 -37t-52 -58t-19.5 -77.5q0 -49 22 -83 t60 -60t88.5 -46t109.5 -39q63 -20 117.5 -46t94.5 -62t63 -83.5t23 -110.5q0 -79 -31.5 -137.5t-88.5 -108.5q11 -11 23.5 -28.5t23 -40.5t18 -49.5t7.5 -57.5q0 -72 -28 -126.5t-76 -92t-112 -56.5t-134 -19q-95 0 -168.5 23t-117.5 59l44 74q15 -13 38.5 -27.5t54.5 -26 t70 -19t85 -7.5q53 0 99 13.5t80.5 39.5t54.5 63.5t20 87.5q0 42 -12.5 75.5t-43 63t-83.5 56.5t-133 55q-77 28 -136.5 57.5t-101 65t-63 79.5t-21.5 104zM228 730q0 -28 10.5 -56t37.5 -55.5t73 -54t117 -50.5q85 -30 138.5 -56t91.5 -50q42 35 64 83.5t22 104.5 q0 34 -10 65t-34.5 58.5t-64 51t-97.5 45.5q-61 21 -124.5 45t-119.5 59q-60 -45 -82 -92t-22 -96v-2z" />
<glyph unicode="&#xa9;" horiz-adv-x="1386" d="M80 696q0 86 21 166.5t60.5 151t96 128t124.5 99t147.5 64.5t166.5 23h2q129 0 240 -50.5t193 -136.5t128.5 -200.5t46.5 -244.5q0 -133 -47 -248t-129 -201t-193.5 -135.5t-240.5 -49.5q-132 0 -244.5 49.5t-195 135.5t-129.5 201.5t-47 247.5zM162 688 q0 -119 40.5 -222t112 -178.5t169 -118.5t212.5 -43q112 -2 209 41t167.5 120t111 182.5t40.5 226.5q0 120 -40 224t-110.5 180t-167.5 119t-210 43h-2q-113 0 -210.5 -43.5t-169 -120t-112 -181.5t-40.5 -229zM358 684q0 87 32 157.5t85 120t123.5 76t147.5 26.5 q39 0 75.5 -5t66.5 -12.5t51 -17t31 -17.5l-20 -64q-11 6 -29.5 14.5t-44 16.5t-57.5 13.5t-71 5.5q-79 0 -137 -24.5t-95 -66.5t-55.5 -98t-18.5 -119q0 -64 19 -120t57.5 -98.5t96.5 -67t137 -24.5q64 0 119 16t91 40l22 -60q-55 -36 -122 -49t-130 -13q-89 0 -158.5 28.5 t-117.5 79t-73 117.5t-25 145z" />
<glyph unicode="&#xab;" horiz-adv-x="802" d="M10 416l292 368h102l-292 -368l294 -368h-102zM308 416l292 368h100l-290 -368l292 -368h-102z" />
<glyph unicode="&#xac;" horiz-adv-x="1220" d="M82 706v82h1056v-522h-88v440h-968z" />
<glyph unicode="&#xad;" d="M58 468v88h486v-88h-486z" />
<glyph unicode="&#xae;" horiz-adv-x="808" d="M72 1072q0 68 25.5 127t71.5 103t106.5 69t130.5 25h2q69 0 129 -25t104 -69t69.5 -103.5t25.5 -126.5q0 -70 -25.5 -131t-70 -105t-104.5 -69t-130 -25t-130.5 25t-106.5 69t-71.5 105t-25.5 131zM144 1072q0 -57 19.5 -106.5t54.5 -86t83.5 -58t106.5 -21.5 q55 0 101.5 21t80.5 57.5t54 85.5t20 106q0 56 -20 104.5t-54 85.5t-82 58.5t-102 21.5h-2q-56 0 -103.5 -21.5t-82.5 -58t-54.5 -85.5t-19.5 -103zM282 890v342q26 5 55 8.5t65 3.5q42 0 65.5 -8t40.5 -20q14 -11 24 -29.5t10 -44.5q0 -30 -19 -50.5t-45 -29.5v-4 q23 -8 34.5 -28t19.5 -56t14 -55.5t14 -28.5h-66q-8 8 -14.5 30.5t-15.5 57.5q-6 29 -23.5 42.5t-52.5 13.5h-42v-144h-64zM346 1084h44q17 0 33 3t28 9t19.5 16t7.5 24q0 25 -19 41.5t-63 16.5q-19 0 -30.5 -1t-19.5 -3v-106z" />
<glyph unicode="&#xaf;" horiz-adv-x="1130" d="M-30 1566v130h1192v-130h-1192z" />
<glyph unicode="&#xb0;" horiz-adv-x="819" d="M126 1214q0 114 82 196q82 81 198 80q114 0 194 -80q82 -79 82 -196q0 -114 -82 -196q-79 -82 -194 -82q-114 0 -198 80q-82 83 -82 198zM238 1214q0 -34 13 -65t36 -54t53.5 -37t65.5 -14q34 0 65 14t53.5 37t36 54t13.5 65t-13.5 65t-36 54t-53.5 36t-65 13t-65 -13 t-54 -36t-36 -54t-13 -65z" />
<glyph unicode="&#xb1;" horiz-adv-x="1124" d="M78 0v168h968v-168h-968zM78 664v166h400v398h170v-398h398v-166h-398v-404h-170v404h-400z" />
<glyph unicode="&#xb4;" horiz-adv-x="681" d="M222 1194l132 280h238l-222 -280h-148z" />
<glyph unicode="&#xb6;" horiz-adv-x="1099" d="M0 1044q0 96 30.5 174t90 133t148 85t205.5 30h634v-174h-146v-1700h-170v1700h-222v-1700h-164v1046q-94 4 -169.5 35.5t-128 85.5t-80.5 126t-28 159z" />
<glyph unicode="&#xb7;" horiz-adv-x="569" d="M184 618v206h206v-206h-206z" />
<glyph unicode="&#xba;" horiz-adv-x="747" d="M46 1110q0 90 23.5 161t66.5 119.5t103 74t133 25.5t134 -25.5t104 -74t66.5 -118.5t23.5 -158q0 -87 -24 -156.5t-67.5 -118t-103.5 -74t-131 -25.5q-73 0 -133.5 25t-103.5 72.5t-67 116.5t-24 156zM192 1114q0 -63 14 -108.5t37.5 -74.5t56.5 -44t72 -15 q40 0 73.5 14.5t57 44.5t36.5 76.5t13 112.5q0 61 -13 105.5t-36.5 74.5t-57 44t-73.5 14q-39 0 -72.5 -14t-57 -43.5t-37 -75.5t-13.5 -111z" />
<glyph unicode="&#xbb;" horiz-adv-x="802" d="M100 48l294 368l-292 368h100l294 -368l-294 -368h-102zM398 48l292 368l-290 368h102l290 -368l-292 -368h-102z" />
<glyph unicode="&#x2da;" horiz-adv-x="681" d="M162 1338q0 36 14 69t39 57.5t58 39t69 14.5t69 -15t58 -40t39 -58.5t14 -70.5q0 -38 -14 -71.5t-39 -58.5t-58 -39.5t-69 -14.5t-69 14.5t-58 39t-39 59.5t-14 75zM238 1338q0 -24 8.5 -44.5t22.5 -35t34 -23.5t41 -9t41 9t34 24t22.5 34.5t8.5 42.5q0 22 -8.5 41.5 t-22.5 34.5t-34 23.5t-41 8.5t-41 -8.5t-34 -23.5t-22.5 -34t-8.5 -40z" />
<glyph unicode="&#x2dc;" horiz-adv-x="681" d="M6 1218q0 107 58 166q57 64 146 64q63 0 168 -56q62 -28 96 -28q31 0 47.5 17.5t24.5 68.5h130q-1 -58 -15.5 -101t-41 -70.5t-62 -42t-77.5 -14.5q-61 0 -166 56q-66 36 -98 36t-54 -24q-22 -25 -22 -72h-134z" />
<glyph unicode="&#x10a0;" d="M-3 -939v2687h613v-2687h-613zM3 40v-971h601v971h-601zM3 49h601v749h-601v-749zM3 806h601v934h-601v-934z" />
<glyph unicode="&#x10a1;" horiz-adv-x="1214" d="M-3 -939v2687h1220v-2687h-1220zM3 40v-971h601v971h-601zM3 49h601v749h-601v-749zM3 806h601v934h-601v-934zM610 40v-971h601v971h-601zM610 49h601v749h-601v-749zM610 806h601v934h-601v-934z" />
<glyph unicode="&#x10a2;" horiz-adv-x="1821" d="M-3 -939v2687h1827v-2687h-1827zM3 40v-971h601v971h-601zM3 49h601v749h-601v-749zM3 806h601v934h-601v-934zM610 40v-971h601v971h-601zM610 49h601v749h-601v-749zM610 806h601v934h-601v-934zM1217 40v-971h601v971h-601zM1217 49h601v749h-601v-749zM1217 806h601 v934h-601v-934z" />
<glyph unicode="&#x10a3;" horiz-adv-x="2428" d="M-3 -939v2687h2434v-2687h-2434zM3 40v-971h601v971h-601zM3 49h601v749h-601v-749zM3 806h601v934h-601v-934zM610 40v-971h601v971h-601zM610 49h601v749h-601v-749zM610 806h601v934h-601v-934zM1217 40v-971h601v971h-601zM1217 49h601v749h-601v-749zM1217 806h601 v934h-601v-934zM1824 40v-971h601v971h-601zM1824 49h601v749h-601v-749zM1824 806h601v934h-601v-934z" />
<glyph unicode="&#x10a4;" horiz-adv-x="3035" d="M-3 -939v2687h3042v-2687h-3042zM3 40v-971h601v971h-601zM3 49h601v749h-601v-749zM3 806h601v934h-601v-934zM610 40v-971h601v971h-601zM610 49h601v749h-601v-749zM610 806h601v934h-601v-934zM1217 40v-971h601v971h-601zM1217 49h601v749h-601v-749zM1217 806h601 v934h-601v-934zM1824 40v-971h601v971h-601zM1824 49h601v749h-601v-749zM1824 806h601v934h-601v-934zM2431 40v-971h602v971h-602zM2431 49h602v749h-602v-749zM2431 806h602v934h-602v-934z" />
<glyph unicode="&#x10a5;" horiz-adv-x="6071" d="M-3 -939v2687h6077v-2687h-6077zM3 40v-971h601v971h-601zM3 49h601v749h-601v-749zM3 806h601v934h-601v-934zM610 40v-971h601v971h-601zM610 49h601v749h-601v-749zM610 806h601v934h-601v-934zM1217 40v-971h601v971h-601zM1217 49h601v749h-601v-749zM1217 806h601 v934h-601v-934zM1824 40v-971h601v971h-601zM1824 49h601v749h-601v-749zM1824 806h601v934h-601v-934zM2431 40v-971h602v971h-602zM2431 49h602v749h-602v-749zM2431 806h602v934h-602v-934zM3039 40v-971h601v971h-601zM3039 49h601v749h-601v-749zM3039 806h601v934 h-601v-934zM3646 40v-971h601v971h-601zM3646 49h601v749h-601v-749zM3646 806h601v934h-601v-934zM4253 40v-971h601v971h-601zM4253 49h601v749h-601v-749zM4253 806h601v934h-601v-934zM4860 40v-971h601v971h-601zM4860 49h601v749h-601v-749zM4860 806h601v934h-601 v-934zM5467 40v-971h601v971h-601zM5467 49h601v749h-601v-749zM5467 806h601v934h-601v-934z" />
<glyph unicode="&#x10d0;" d="M-51 340q0 15 5 43t14.5 58.5t23.5 59t33 46.5l64 -60q-14 -9 -22 -29t-11.5 -42t-4 -43.5t-0.5 -32.5q0 -72 19.5 -123t54 -83.5t80.5 -47.5t99 -15t98.5 16t80 54.5t54.5 102t20 156.5q0 76 -25 130t-63 95.5t-81.5 74.5t-81 66.5t-62 72t-24.5 92.5h83q0 -40 26 -75 t65.5 -70t85.5 -72.5t85.5 -83t66 -102t26.5 -128.5q0 -101 -28 -176t-76 -124.5t-113 -74.5t-137 -25q-73 0 -138 20.5t-113 62.5t-76 106t-28 151z" />
<glyph unicode="&#x10d1;" d="M-51 420q0 86 27.5 162t75 133t111 90.5t135.5 34.5v464q0 138 -182 180q-34 13 -60 42.5t-43.5 70.5t-26 90t-8.5 102h75q6 -50 20 -95.5t37 -81t54.5 -59t73.5 -29.5q147 -68 147 -196v-499q59 -16 108.5 -54t86 -92.5t57.5 -121.5t21 -141q0 -87 -28 -163.5 t-76 -133.5t-113 -90t-137 -33q-73 0 -138 33t-113 90t-76 133.5t-28 163.5zM51 420q0 -72 19.5 -135.5t54 -111.5t80.5 -75t99 -27t98.5 27t80 75t54.5 111.5t20 135.5t-20 135.5t-54.5 111t-80.5 75t-98 27.5q-53 0 -99 -27.5t-80.5 -75t-54 -111t-19.5 -135.5z" />
<glyph unicode="&#x10d2;" d="M-86 -410q0 108 21 204.5t63.5 170t107 120t151.5 55.5q-1 25 16.5 53t45.5 57t61 61t61.5 65.5t47 69t18.5 72.5q0 54 -15.5 100t-42.5 79.5t-62.5 52.5t-75.5 19t-77 -19t-64 -52.5t-43.5 -79.5t-16.5 -100q0 -29 5 -56.5t14 -52.5l-83 -30q-16 33 -25 71.5t-9 79.5 q0 67 24.5 124t65.5 98.5t94.5 65.5t113.5 24t112 -24t90.5 -65.5t61.5 -98.5t23 -124q0 -49 -18.5 -90.5t-46.5 -77.5t-60.5 -67t-61 -58t-48 -51.5t-20.5 -46.5q91 -12 157.5 -65.5t109.5 -130.5t63.5 -169.5t20.5 -183.5q0 -114 -25.5 -214t-75.5 -175t-122 -118.5 t-165 -43.5t-165.5 43.5t-122.5 118.5t-76.5 175t-26.5 214zM15 -410q0 -99 18 -186.5t53.5 -153t90 -103t128.5 -37.5q73 0 128.5 37.5t93 103t56 153t18.5 186.5t-18.5 186.5t-56 153t-93.5 103.5t-128 38q-74 0 -128.5 -38t-90 -103.5t-53.5 -153t-18 -186.5z" />
<glyph unicode="&#x10d3;" horiz-adv-x="1214" d="M-51 419q0 87 28 163.5t75.5 133.5t112.5 90.5t138 33.5q49 0 93 -15t83 -41.5t71.5 -64.5t55.5 -84q23 46 55 84t71 64.5t84 41.5t94 15q73 0 137.5 -33t113 -90t76.5 -133.5t28 -163.5t-28 -163.5t-76.5 -133.5t-113 -90t-137.5 -33t-138 33t-112.5 89.5t-75 133 t-27.5 163.5q0 72 -20.5 135.5t-55 111t-80.5 75.5t-98 28q-53 0 -99 -28t-80 -75.5t-53.5 -111t-19.5 -135.5q0 -153 36.5 -267t97 -202.5t138 -157t158 -130t157.5 -122t137.5 -132.5t97.5 -161t37 -208h-102q0 82 -20 148t-55 121.5t-81.5 102.5t-100.5 90.5t-113 86 t-116 88.5q-44 8 -81.5 3.5t-68 -16.5t-54 -29t-39.5 -34l-54 79q34 28 84 50.5t125 21.5q-59 55 -110.5 119t-90.5 144.5t-61.5 180t-22.5 224.5zM658 420q0 -72 19.5 -135.5t53.5 -111.5t80 -75t99 -27t98.5 27t80 75t55 111.5t20.5 135.5t-20.5 135.5t-55 111t-80.5 75 t-98 27.5q-53 0 -99 -27.5t-80 -75t-53.5 -111t-19.5 -135.5z" />
<glyph unicode="&#x10d4;" d="M-51 -471q0 76 24 142t62 121l65 -55q-23 -44 -36 -97t-13 -111v-70q0 -72 19.5 -136t54 -111.5t80.5 -74.5t99 -27t98.5 27t80 74.5t54.5 111.5t20 136v990q0 72 -17.5 131t-48.5 101t-74 65t-95 23q-53 0 -95.5 -18t-73 -54.5t-47 -91t-16.5 -125.5q0 -32 8.5 -58.5 t22.5 -49.5t30 -44.5t30 -44.5l-69 -80q-24 28 -46 58.5t-39.5 65t-27.5 72.5t-10 82q0 87 24.5 153.5t68.5 112t105.5 69.5t134.5 24t134.5 -28.5t106.5 -80t70 -123.5t25 -159v-990q0 -87 -28 -163.5t-76 -133.5t-113 -90t-137 -33q-73 0 -138 33t-113 90t-76 133.5 t-28 163.5v70z" />
<glyph unicode="&#x10d5;" d="M-51 -471q0 76 24 142t62 121l65 -55q-23 -44 -36 -97t-13 -111v-70q0 -72 19.5 -136t54 -111.5t80.5 -74.5t99 -27t98.5 27t80 74.5t54.5 111.5t20 136v191q0 72 -20.5 135.5t-55.5 111t-81 75.5t-98 28h-55v71h55q53 0 98.5 32.5t80.5 85.5t55.5 121t20.5 140 t-17 130.5t-48 100.5t-74 65t-95 23q-53 0 -96 -14.5t-73.5 -47t-47 -83.5t-16.5 -123q0 -32 5.5 -57t15.5 -46.5t23.5 -41.5t27.5 -42l-59 -70q-24 28 -45 55.5t-36 58t-24 65t-9 78.5q0 87 24.5 150.5t68.5 105.5t106 62.5t135 20.5t134.5 -28.5t106 -79.5t69.5 -123 t25 -159q0 -64 -16 -127.5t-44 -118.5t-66.5 -99t-85.5 -69q47 -23 85.5 -62t66.5 -89.5t44 -110.5t16 -124v-191q0 -87 -28 -163.5t-76 -133.5t-113 -90t-137 -33q-73 0 -138 33t-113 90t-76 133.5t-28 163.5v70z" />
<glyph unicode="&#x10d6;" horiz-adv-x="1214" d="M9 1410q0 87 23.5 157t66 119t102 76t132.5 27t132.5 -27t102 -76t66 -119t23.5 -157v-1v-698q49 59 113.5 93.5t140.5 34.5q73 0 137.5 -33t112.5 -90t76 -133.5t28 -163.5t-28 -163.5t-76 -133.5t-112.5 -90t-137.5 -33t-138 33t-113 90t-75.5 133.5t-27.5 163.5v2 l-1 -2v718q-24 -29 -48 -52.5t-50.5 -39.5t-57 -24.5t-67.5 -8.5q-73 0 -132.5 29.5t-102 82.5t-66 126t-23.5 160zM110 1410q0 -72 15.5 -132.5t44 -104t69.5 -67t94 -23.5t93.5 23.5t69.5 67t44.5 104t15.5 132.5t-15.5 129t-44.5 97t-69.5 61t-93.5 21t-94 -21t-69.5 -61 t-44 -97t-15.5 -129zM658 419q0 -72 19.5 -135.5t54 -111.5t80.5 -75t99 -27t98.5 27t80 75t54.5 111.5t20 135.5t-20 135.5t-54.5 111t-80.5 75t-98 27.5q-53 0 -99 -27.5t-80.5 -75t-54 -111t-19.5 -135.5z" />
<glyph unicode="&#x10d7;" horiz-adv-x="1214" d="M-51 420q0 87 28 163.5t76 133.5t113 90t138 33q49 0 93 -15t83 -41.5t71.5 -64.5t55.5 -84q23 46 55.5 84t71.5 64.5t83.5 41.5t93.5 15q73 0 137.5 -33t112.5 -90t76 -133.5t28 -163.5t-28 -163.5t-76 -133.5t-112.5 -90t-137.5 -33v71q53 0 98.5 27t80 75t54.5 111.5 t20 135.5t-20 135.5t-54.5 111t-80.5 75t-98 27.5q-53 0 -99 -27.5t-80.5 -75t-54 -111t-19.5 -135.5q0 -87 -28 -163.5t-76 -133.5t-113 -90t-137 -33q-73 0 -138 33t-113 90t-76 133.5t-28 163.5zM51 420q0 -72 19.5 -135.5t54 -111.5t80.5 -75t99 -27t98.5 27t80 75 t54.5 111.5t20 135.5t-20 135.5t-54.5 111t-80.5 75t-98 27.5q-53 0 -99 -27.5t-80.5 -75t-54 -111t-19.5 -135.5z" />
<glyph unicode="&#x10d8;" d="M-51 420q0 87 28 163.5t76 133.5t113 90t138 33t137.5 -28t112.5 -81.5t76 -131.5t28 -179q0 -77 -16.5 -147t-45 -128.5t-69 -104t-89.5 -72.5l-2 106q55 55 88 145t33 200q0 84 -20 149t-54.5 109.5t-80.5 68t-98 23.5q-53 0 -99 -27.5t-80.5 -75t-54 -111 t-19.5 -135.5q0 -112 33.5 -204t90.5 -145l4 -107q-51 26 -92.5 71t-72 104.5t-48 131t-17.5 149.5z" />
<glyph unicode="&#x10d9;" d="M-51 -468q0 45 6.5 80.5t18 66.5t27 58t34.5 55l65 -55q-23 -44 -36 -97t-13 -111v-70q0 -72 19.5 -136t54 -111.5t80.5 -74.5t99 -27t98.5 27t80 74.5t54.5 111.5t20 136v191q0 72 -20.5 135.5t-55.5 111t-81 75.5t-98 28h-63v71h63q53 0 98.5 27t80.5 74.5t55.5 111 t20.5 135.5t-20.5 135.5t-55 111t-80.5 75.5t-98 28v71q73 0 137.5 -33t113 -89.5t76.5 -133.5t28 -165q0 -76 -16 -136t-44 -107t-67.5 -81.5t-86.5 -59.5q47 -24 86.5 -61t67.5 -85.5t44 -108.5t16 -130v-191q0 -87 -28 -163.5t-76 -133.5t-113 -90t-137 -33 q-73 0 -138 33t-113 90t-76 133.5t-28 163.5v73z" />
<glyph unicode="&#x10da;" horiz-adv-x="1821" d="M-51 420q0 87 28 163.5t76 133.5t113 90t138 33q49 0 93 -15t83 -41.5t71.5 -64.5t55.5 -84q23 46 55.5 84t71.5 64.5t83.5 41.5t93.5 15t93 -15t83 -41.5t71.5 -64.5t55.5 -84q23 46 55.5 84t71.5 64.5t83.5 41.5t93.5 15q73 0 137.5 -33t112.5 -90t76 -133.5t28 -163.5 t-28 -163.5t-76 -133.5t-112.5 -90t-137.5 -33v71q53 0 98.5 27t80 75t54.5 111.5t20 135.5t-20 135.5t-54.5 111t-80.5 75t-98 27.5q-53 0 -99 -28t-80.5 -75.5t-54 -111t-19.5 -135.5v-116l-101 1v116q0 72 -20 135.5t-54.5 111t-80.5 75t-98 27.5q-53 0 -99 -28 t-80.5 -75.5t-54 -111t-19.5 -135.5v-115h-101v116q0 72 -20 135.5t-54.5 111t-80.5 75t-98 27.5q-53 0 -99 -27.5t-80.5 -75t-54 -111t-19.5 -135.5q0 -118 33.5 -213.5t92 -173t136.5 -139.5t165.5 -116.5t179.5 -103t179.5 -99t165.5 -104t136 -117t92 -141t34 -174.5 h-101q0 79 -27 143.5t-73 118.5t-109 100.5t-135.5 89t-152 83t-158.5 84.5q-52 10 -103.5 9.5t-95.5 -8t-77 -21.5t-49 -32l-53 79q17 14 45.5 23t64 13t75.5 4t81 -2q-91 56 -172 122t-142.5 149.5t-97.5 188t-36 237.5z" />
<glyph unicode="&#x10db;" d="M-51 420q0 87 28 163.5t76 133.5t113 90t138 33q75 0 139.5 -34t113.5 -93v737q0 72 -17 123t-48 83.5t-74 47.5t-95 15q-105 0 -158.5 -63t-53.5 -186q0 -32 4 -57t12 -46t19.5 -41t25.5 -43l-58 -70q-24 28 -43 55.5t-33 58t-21 65.5t-7 78q0 76 21.5 135.5t62 100 t98.5 62.5t131 22t134.5 -21t106 -62.5t69.5 -105.5t25 -151v-1030q0 -87 -28 -163.5t-76 -133.5t-113 -90t-137 -33q-73 0 -138 33t-113 90t-76 133.5t-28 163.5zM51 420q0 -72 19.5 -135.5t54 -111.5t80.5 -75t99 -27t98.5 27t80 75t54.5 111.5t20 135.5t-20 135.5 t-54.5 111t-80.5 75t-98 27.5q-53 0 -99 -27.5t-80.5 -75t-54 -111t-19.5 -135.5z" />
<glyph unicode="&#x10dc;" d="M-51 419v1077q0 84 16.5 140.5t49.5 91t81.5 49t113.5 14.5q39 0 72 -7t62.5 -16t60 -16.5t67 -7.5t81.5 10.5t105 36.5v-71q-58 -31 -103 -43t-81.5 -12t-67.5 8.5t-60.5 19t-62 19t-71.5 8.5q-91 0 -130.5 -54t-30.5 -167v-786q49 59 113.5 93t139.5 34q73 0 137.5 -33 t112.5 -90t76 -133.5t28 -163.5t-28 -163.5t-76 -133.5t-113 -90t-137 -33q-73 0 -138 33t-113 89.5t-76 133t-28 163.5zM51 420q0 -72 19.5 -135.5t54 -111.5t80.5 -75t99 -27t98.5 27t80 75t54.5 111.5t20 135.5t-20 135.5t-54.5 111t-80.5 75t-98 27.5q-53 0 -99 -27.5 t-80.5 -75t-54 -111t-19.5 -135.5z" />
<glyph unicode="&#x10dd;" horiz-adv-x="1214" d="M-51 420q0 87 28 163.5t76 133.5t113 90t138 33q49 0 93 -15t83 -41.5t71 -64t55 -83.5q23 46 55.5 84t71.5 65.5t84 42t94 14.5q73 0 137.5 -33t112.5 -90t76 -133.5t28 -163.5t-28 -163.5t-76 -133.5t-112.5 -90t-137.5 -33v71q53 0 98.5 27t80 75t54.5 111.5t20 135.5 t-20 135.5t-54.5 111t-80.5 75t-98 27.5q-53 0 -99 -27.5t-80.5 -75t-54 -111t-19.5 -135.5v-2h-101q0 72 -20 135.5t-54.5 111t-80.5 75t-98 27.5q-53 0 -99 -27.5t-80.5 -75t-54 -111t-19.5 -135.5t19.5 -135.5t54 -111.5t80.5 -75t99 -27v-71q-73 0 -138 33t-113 90 t-76 133.5t-28 163.5z" />
<glyph unicode="&#x10de;" d="M-51 369q0 15 5.5 47t17.5 68.5t31 71t48 54.5l58 -52q-22 -25 -33.5 -53.5t-17 -55t-6.5 -48t-1 -32.5q0 -72 19.5 -127.5t54 -93.5t80.5 -57.5t99 -19.5t98.5 27t80 75t54.5 111.5t20 135.5t-20.5 135.5t-55 111t-80.5 75t-98 27.5h-61v71h61q53 0 98.5 18.5t80 52.5 t54.5 81.5t20 105.5q-1 81 -23 139t-57.5 100.5t-81 74t-92.5 59.5t-92.5 56t-80.5 64t-56.5 84t-21.5 116h101q0 -57 21.5 -97t57.5 -71.5t81.5 -58.5t92.5 -56.5t92.5 -65t81 -84.5t57.5 -115t22 -157q0 -51 -16 -91.5t-44 -75t-67 -62.5t-86 -53q47 -24 86.5 -63t67 -89 t43.5 -108.5t16 -123.5q0 -87 -28 -163.5t-76 -133.5t-113 -90t-137 -33q-73 0 -138 25.5t-113 73t-76 115.5t-28 155z" />
<glyph unicode="&#x10df;" d="M-51 331q0 12 2.5 27.5t9 32t16 32t23.5 26.5l77 -52q-5 -13 -15.5 -31t-10.5 -35q0 -109 37.5 -161t121.5 -52q41 0 67 22t40 56t18.5 75t4.5 80q0 62 -28 118.5t-69.5 100t-90 69.5t-89.5 26v53l42 -4l449 108v18h104l-1 -1381q0 -87 -28 -163.5t-75.5 -133.5 t-112.5 -90t-137 -33q-73 0 -138 33t-113 90t-76 133.5t-28 163.5v70q0 76 24 142t62 121l65 -55q-23 -44 -36 -97t-13 -111v-70q0 -72 19.5 -136t54 -111.5t80.5 -74.5t99 -27t98 27t79 74.5t53 111.5t19 136h1v1305l-345 -93q30 -21 70 -54.5t76 -75.5t60.5 -90.5 t24.5 -99.5t-11.5 -105t-38.5 -99t-71 -73.5t-109 -28.5q-58 0 -105.5 20t-82 57t-54 90t-19.5 119z" />
<glyph unicode="&#x10e0;" horiz-adv-x="1214" d="M-51 420q0 70 18.5 133t50.5 116q5 60 38 119t85.5 117t121 116t145 114.5t156.5 112.5t155 112t142.5 110.5t118 108.5t80.5 106.5t31 105.5h73q0 -65 -42 -134.5t-111 -140.5t-158 -142t-182.5 -138.5t-184 -131t-163.5 -118.5t-120.5 -101t-54.5 -80q13 5 33.5 11.5 t42.5 11.5t43 8.5t37 3.5q49 0 93 -15t83 -41.5t71.5 -64.5t55.5 -84q23 46 55.5 84t71.5 64.5t83.5 41.5t93.5 15q73 0 137.5 -33t112.5 -90t76 -133.5t28 -163.5t-28 -163.5t-76 -133.5t-112.5 -90t-137.5 -33v71q53 0 98.5 27t80 75t54.5 111.5t20 135.5t-20 135.5 t-54.5 111t-80.5 75t-98 27.5q-53 0 -99 -28t-80.5 -75.5t-54 -111t-19.5 -135.5v-116h-101v117q0 72 -20 135.5t-54.5 111t-80.5 75t-98 27.5q-53 0 -99 -27.5t-80.5 -75t-54 -111t-19.5 -135.5t19.5 -135.5t54 -111.5t80.5 -75t99 -27v-71q-73 0 -138 33t-113 90 t-76 133.5t-28 163.5z" />
<glyph unicode="&#x10e1;" d="M-51 419v1372h102v-1371q0 -72 19.5 -135.5t54 -111.5t80.5 -75t99 -27t98.5 27t80 75t54.5 111.5t20 135.5q0 64 -13 123.5t-47 101.5q-45 53 -68 102.5t-22 93.5t28.5 81t87.5 64l34 -55q-39 -26 -55.5 -51t-15 -51t20.5 -54t49 -61q51 -55 76.5 -131.5t25.5 -162.5 q0 -87 -28 -163.5t-76 -133.5t-113 -90t-137 -33q-73 0 -138 33t-113 89.5t-76 133t-28 163.5z" />
<glyph unicode="&#x10e2;" horiz-adv-x="1214" d="M-51 -44q0 88 14.5 183.5t39.5 186.5t59.5 172t75.5 141l64 -29q-30 -55 -58 -134.5t-48.5 -169.5t-32.5 -181.5t-12 -168.5q0 -139 22.5 -255t61.5 -210t92.5 -165.5t115.5 -119.5t129 -72t135 -24q65 0 130.5 23.5t128 71t116.5 118.5t94.5 165t64 211.5t23.5 256.5 q0 123 -26.5 227.5t-70.5 191.5t-101 157t-119 124.5t-124 93.5t-116 66q-25 -17 -50 -42t-44 -55.5t-31 -66.5t-12 -76q0 -49 11 -83t29.5 -55t43.5 -30.5t53 -9.5q18 0 37 5t35.5 14.5t29 23t20.5 32.5l59 -17q-12 -31 -31 -58.5t-42.5 -48t-50 -32t-53.5 -11.5 q-39 0 -79 17t-72 50.5t-51.5 83.5t-19.5 117q0 57 18 98.5t44 73t55 54.5t51 40q-22 17 -52 44t-56.5 63t-45 80.5t-18.5 96.5q0 67 19.5 117.5t51.5 84.5t72 51t79 17t76.5 -17t67.5 -51t48.5 -84.5t18.5 -117.5q0 -51 -16.5 -92t-40 -74.5t-49.5 -59.5t-45 -44 q59 -31 125.5 -71.5t133.5 -94.5t128 -123t108 -158t75 -201t28 -250q0 -222 -52.5 -393t-142.5 -287.5t-209.5 -176.5t-253.5 -60q-136 0 -255 60t-208.5 176.5t-142 288t-52.5 392.5zM465 1126q0 -53 12 -90t31 -64.5t45 -47.5t54 -38q28 20 52.5 41t42.5 47.5t28.5 63 t10.5 88.5q0 53 -11 87.5t-29.5 55t-44 28.5t-53.5 8t-53 -8t-43.5 -28.5t-30 -55t-11.5 -87.5z" />
<glyph unicode="&#x10e3;" horiz-adv-x="1214" d="M82 840h102q0 -26 4 -67.5t13.5 -81t24.5 -67.5t36 -27q45 -1 75 17t52.5 45t40 58.5t37.5 58.5t45.5 45.5t64.5 18.5q57 0 91 -17t55 -44t33.5 -60.5t25.5 -66.5q15 35 32.5 69t42 60t60.5 42.5t88 16.5q54 0 101 -25.5t82 -68.5t56 -101t21 -125v-1061 q0 -87 -35.5 -163.5t-93 -133.5t-130 -90t-145.5 -33t-142.5 33t-123.5 90t-86.5 133.5t-32.5 163.5v71q0 76 24 141.5t63 120.5l64 -55q-23 -44 -36 -97t-13 -111v-70q0 -72 24.5 -136t64.5 -111.5t90.5 -74.5t103.5 -27t106.5 27t97 74.5t71.5 111.5t28 136v1061 q0 55 -11 101t-31 79t-50 51t-68 18q-48 0 -80 -26.5t-51.5 -68t-28.5 -93t-11 -101.5v-152h-99l-2 152q-2 55 -9 106.5t-23 92t-45.5 65.5t-77.5 25q-28 0 -49.5 -18t-40.5 -45.5t-38 -59t-44.5 -58t-59.5 -45t-83 -17.5q-60 -1 -95.5 31t-54.5 79.5t-24.5 102.5t-5.5 101z " />
<glyph unicode="&#x10e4;" horiz-adv-x="1214" d="M-51 420q0 87 28 163.5t76 133.5t113 90t138 33q49 0 93 -15t83 -41.5t71 -64t55 -83.5q23 46 55.5 83.5t71.5 64t83.5 41.5t93.5 15q73 0 137.5 -33t112.5 -90t76 -133.5t28 -163.5q0 -65 -16 -123.5t-43.5 -108.5t-66.5 -89t-86 -64q47 -24 86 -63t67 -89t44 -108.5 t16 -123.5v-192q0 -87 -33 -163.5t-86.5 -133.5t-123.5 -90t-143 -33t-142 33t-123 90t-86.5 133.5t-32.5 163.5q0 76 23.5 141.5t62.5 120.5l65 -55q-23 -44 -36 -97t-13 -110q0 -72 24.5 -136t64.5 -111.5t90.5 -74.5t102.5 -27q53 0 103.5 27t91 74.5t65.5 111.5t25 136 v192q0 72 -20.5 135.5t-55 111t-80.5 75t-98 27.5h-78v71h78q53 0 98.5 27t80 75t54.5 111.5t20 135.5t-20 135.5t-54.5 111t-80.5 75t-98 27.5q-51 0 -95.5 -26t-79 -70.5t-55 -104.5t-23.5 -128q1 -5 1 -10v-10q0 -87 -28 -163.5t-76 -133.5t-113 -90t-137 -33 q-73 0 -138 33t-113 90t-76 133.5t-28 163.5zM51 420q0 -72 19.5 -135.5t54 -111.5t80.5 -75t99 -27t98.5 27t80 75t54.5 111.5t20 135.5h-1v20q-3 68 -24 128t-55 104.5t-78.5 70.5t-94.5 26q-53 0 -99 -27.5t-80.5 -75t-54 -111t-19.5 -135.5z" />
<glyph unicode="&#x10e5;" d="M-51 -471q0 76 24 142t62 121l65 -55q-23 -44 -36 -97t-13 -111v-70q0 -72 19.5 -136t54 -111.5t80.5 -74.5t99 -27t98 27t79.5 74.5t54.5 111.5t20 136v1090q0 37 -20 76.5t-54.5 71.5t-80.5 52t-98 20q-30 0 -64 -16.5t-62.5 -50.5t-47.5 -86.5t-19 -124.5 q0 -32 7.5 -58.5t19.5 -50t26.5 -45t28.5 -45.5l-57 -69q-24 28 -47 57.5t-40.5 61t-28 68.5t-10.5 81q0 87 28 152t71 109t94.5 66t100.5 22q75 0 139.5 -34t113.5 -93v1078h102v-2332q0 -87 -28 -163.5t-76 -133.5t-113 -90t-137 -33q-73 0 -138 33t-113 90t-76 133.5 t-28 163.5v70z" />
<glyph unicode="&#x10e6;" horiz-adv-x="1214" d="M-51 420q0 87 28 163.5t76 133.5t113 90t138 33q49 0 93 -15t83 -41.5t71.5 -64.5t55.5 -84q23 46 55.5 84t71.5 64.5t83.5 41.5t93.5 15q73 0 137.5 -33t112.5 -90t76 -133.5t28 -163.5t-28 -163.5t-76 -133.5t-112.5 -90t-137.5 -33v71q53 0 98.5 27t80 75t54.5 111.5 t20 135.5t-20 135.5t-54.5 111t-80.5 75t-98 27.5q-53 0 -99 -28t-80.5 -75.5t-54 -111t-19.5 -135.5v-116h-101v116q0 72 -20 135.5t-54.5 111t-80.5 75.5t-98 28q-53 0 -99 -27.5t-80.5 -75t-54 -111t-19.5 -135.5q0 -121 24 -219.5t65 -178.5t96 -144.5t117 -120 t127 -105.5t127 -99.5t117 -102t96 -113.5t65.5 -134t24.5 -164h-91q0 80 -20 144t-54 118.5t-80 101t-98.5 89t-109.5 83t-114 84.5q-46 9 -86.5 7t-75 -11t-61 -23.5t-41.5 -31.5l-54 79q34 28 98.5 37.5t142.5 6.5q-64 56 -121.5 122t-101 149.5t-69 188t-25.5 237.5z " />
<glyph unicode="&#x10e7;" d="M-51 421q0 78 17.5 149.5t48 131t72.5 104.5t92 71l-4 -107q-57 -54 -90.5 -145.5t-33.5 -203.5q0 -72 19.5 -135.5t54 -111.5t80.5 -75t99 -27t98.5 22.5t80 66.5t54.5 109t20 149v422h101v-1382q0 -87 -28 -163.5t-75.5 -133.5t-112.5 -90t-137 -33q-73 0 -138 33 t-113 90t-76 133.5t-28 163.5v70q0 76 24 142t62 121l65 -55q-23 -44 -36 -97t-13 -111v-70q0 -72 19.5 -136t54 -111.5t80.5 -74.5t99 -27t98 27t79.5 74.5t54.5 111.5t20 136v653q-49 -55 -114 -83t-139 -28q-73 0 -138 33t-113 90t-76 133.5t-28 163.5z" />
<glyph unicode="&#x10e8;" horiz-adv-x="1214" d="M223 1461q0 87 19.5 149.5t55 102.5t86 58.5t112.5 18.5q49 0 83.5 -11.5t62.5 -34.5t50.5 -58t46.5 -80q23 46 44 80.5t47 57.5t59.5 34.5t81.5 11.5q73 0 128.5 -28.5t92 -79.5t55 -123t18.5 -159l-1 -980q0 -87 -28 -163.5t-76 -133.5t-112.5 -90t-137.5 -33t-138 33 t-113 90t-75.5 133.5t-27.5 163.5t27.5 163.5t75.5 133.5t113 90t138 33q75 0 139.5 -34t113.5 -93l1 687q0 72 -11 131t-33.5 101t-59 64.5t-89.5 22.5t-87.5 -20t-56 -57t-30.5 -87.5t-9 -111.5v-149h-101l1 149q0 61 -10.5 111.5t-33.5 87.5t-59.5 57t-88.5 20 q-41 0 -73 -13t-54 -43.5t-33.5 -80t-11.5 -121.5q0 -70 24 -123.5t52 -88.5l-66 -57q-21 22 -41.5 51t-36 62.5t-24.5 72.5t-9 83zM657 420q0 -72 19.5 -135.5t54 -111.5t80.5 -75t99 -27t98.5 27t80 75t54.5 111.5t20 135.5t-20 135.5t-54.5 111t-80.5 75t-98 27.5 q-53 0 -99 -27.5t-80.5 -75t-54 -111t-19.5 -135.5z" />
<glyph unicode="&#x10e9;" d="M-51 0v419v967q0 199 73.5 302t212.5 103q64 0 116 -22t88.5 -65t55.5 -106.5t19 -147.5q0 -69 -31 -136t-90.5 -130.5t-145.5 -122t-196 -110.5v-238q49 60 113.5 93.5t139.5 33.5q73 0 137.5 -33t112.5 -90t76 -133.5t28 -163.5q0 -55 -11.5 -113t-30.5 -114 t-45.5 -106.5t-55.5 -86.5h-87q32 45 56.5 96t40 105t24 109.5t8.5 109.5q0 72 -20 135.5t-54.5 111t-80.5 75t-98 27.5q-53 0 -99 -28t-80.5 -75.5t-54 -111t-19.5 -135.5v-419h-102zM51 1022q89 42 159 93t118.5 108.5t74 121.5t25.5 135q0 113 -50 176.5t-138 63.5 q-45 0 -81 -19t-61 -57.5t-37.5 -96t-9.5 -133.5v-392z" />
<glyph unicode="&#x10ea;" horiz-adv-x="1214" d="M-51 -2q0 149 24.5 272t63 225.5t86.5 187.5t96 157l84 -46q-39 -60 -84.5 -137.5t-83.5 -176t-62.5 -218.5t-23.5 -264q1 -119 17.5 -231.5t49.5 -211t83.5 -180.5t118 -141t152 -91.5t188.5 -32.5q65 0 127.5 24t118.5 65.5t104 97t83.5 118t55.5 128t21 128.5 q1 67 -13.5 116.5t-38.5 85.5t-56 59t-67.5 37.5t-72 21.5t-69.5 9h-54v71h53q50 3 105.5 19.5t102.5 49.5t77.5 83t30.5 120q0 48 -27.5 84t-68 68.5t-88.5 64.5t-88.5 71.5t-68 90t-27.5 120.5l102 -2q0 -56 26.5 -98.5t67.5 -79t88 -69.5t88 -70.5t68 -82t27 -102.5 q0 -64 -27 -110.5t-68.5 -81.5t-91.5 -61.5t-96 -51.5q27 -19 59 -35t63.5 -35t60.5 -42.5t51.5 -58t35.5 -82t13 -114.5q0 -60 -18.5 -129.5t-53.5 -139.5t-87 -134.5t-119.5 -114.5t-150 -79.5t-178.5 -29.5q-126 0 -227.5 35t-180.5 97.5t-135.5 151t-93.5 195t-54.5 228 t-17.5 252.5z" />
<glyph unicode="&#x10eb;" d="M-51 420q0 87 28 163.5t76 133.5t113 90t138 33q75 0 139.5 -34t113.5 -93v1078h101v-1372q0 -87 -28.5 -163.5t-76.5 -133t-112.5 -89.5t-136.5 -33q-73 0 -138 33t-113 90t-76 133.5t-28 163.5zM51 420q0 -72 19.5 -135.5t54 -111.5t80.5 -75t99 -27t98.5 27t80 75 t54.5 111.5t20 135.5t-20 135.5t-54.5 111t-80.5 75t-98 27.5q-53 0 -99 -27.5t-80.5 -75t-54 -111t-19.5 -135.5z" />
<glyph unicode="&#x10ec;" horiz-adv-x="1214" d="M-51 1400q0 87 18.5 159t55.5 123t92 79.5t128 28.5q49 0 82 -11.5t59 -34.5t47 -58t45 -80q23 46 45.5 80.5t50.5 57.5t63 34.5t83 11.5q62 0 112.5 -18.5t86 -58.5t55.5 -102.5t20 -149.5q0 -45 -9.5 -83.5t-25 -72t-35.5 -62.5t-42 -51l-65 57q27 35 51 88.5t24 123.5 q0 72 -11.5 121.5t-33 80t-54 43.5t-73.5 13q-53 0 -89 -20t-59 -57t-33.5 -87.5t-10.5 -111.5l1 -149h-101v149q0 61 -9 111.5t-30.5 87.5t-56.5 57t-87 20q-53 0 -89.5 -22.5t-59 -64.5t-33 -101t-10.5 -131l1 -687q49 59 113.5 93t139.5 34q73 0 137.5 -33t112.5 -90 t76 -133.5t28 -163.5t-28 -163.5t-76 -133.5t-113 -90t-137 -33q-73 0 -138 33t-113 90t-76 133.5t-28 163.5zM52 420q0 -72 19.5 -135.5t54 -111.5t80.5 -75t99 -27t98.5 27t80 75t54.5 111.5t20 135.5t-20 135.5t-54.5 111t-80.5 75t-98 27.5q-53 0 -99 -27.5t-80.5 -75 t-54 -111t-19.5 -135.5z" />
<glyph unicode="&#x10ed;" d="M-51 -471q0 76 25.5 142t63.5 121l65 -55q-23 -44 -37.5 -98.5t-14.5 -112.5v-67q0 -72 20 -136t55 -111.5t81.5 -74.5t99.5 -27t98 27t79 74.5t53.5 111.5t19.5 136v191q0 66 -19 123t-47 109t-60.5 102t-60.5 103.5t-46.5 112t-18.5 127.5v79q-12 -10 -31 -21.5 t-39.5 -21t-41.5 -15.5t-37 -6q-40 0 -77.5 16.5t-65.5 45t-45 66.5t-17 82t17 82.5t45 67t65 45t78 16.5q16 0 37 -6t41.5 -15.5t39 -21.5t31.5 -22v629q0 82 -22 142t-71 98q-96 78 -96 223h88q0 -117 97 -196q50 -38 76.5 -103.5t27.5 -163.5l4 -685l176 139l34 -60 l-214 -169l209 -205l-47 -51l-162 168v-137q0 -61 18.5 -112.5t47 -100.5t61 -97.5t60.5 -103.5t47 -119t19 -144v-191q0 -87 -27.5 -163.5t-75 -133.5t-112 -90t-136.5 -33q-73 0 -138.5 33t-114 90t-77 133.5t-28.5 163.5v70zM27 557q0 -27 11 -52t29 -43.5t41.5 -29 t47.5 -10.5q23 0 50 8t52.5 25t49.5 42t41 59q-17 27 -40.5 51.5t-49 43t-52.5 29.5t-51 11t-47.5 -10.5t-41.5 -29t-29 -43t-11 -51.5z" />
<glyph unicode="&#x10ee;" d="M-51 419v1372h102v-1078q49 59 113.5 93t139.5 34q73 0 137.5 -33t112.5 -90t76 -133.5t28 -163.5t-28 -163.5t-76 -133.5t-113 -90t-137 -33q-73 0 -138 33t-113 89.5t-76 133t-28 163.5zM51 420q0 -72 19.5 -135.5t54 -111.5t80.5 -75t99 -27t98.5 27t80 75t54.5 111.5 t20 135.5t-20 135.5t-54.5 111t-80.5 75t-98 27.5q-53 0 -99 -27.5t-80.5 -75t-54 -111t-19.5 -135.5z" />
<glyph unicode="&#x10ef;" d="M-51 -471q0 76 24 142t62 121l65 -55q-23 -44 -36 -97t-13 -111v-70q0 -72 19.5 -136t54 -111.5t80.5 -74.5t99 -27t98 27t79.5 74.5t54.5 111.5t20 136q0 40 -6.5 79.5t-17.5 75.5t-28.5 66.5t-39.5 53.5q-38 39 -75.5 88t-67.5 106.5t-48.5 121t-18.5 132.5v280 l-305 142v88l305 -142v702h100v-732l290 -152v-88l-290 152v-250q0 -57 16.5 -115.5t41.5 -110.5t54 -94t55 -65q31 -28 56.5 -66t43 -81.5t27.5 -92t10 -98.5q0 -87 -28 -163.5t-76 -133.5t-113 -90t-137 -33q-73 0 -138 33t-113 90t-76 133.5t-28 163.5v70z" />
<glyph unicode="&#x10f0;" d="M-51 390q0 15 1 40.5t7 54t18.5 55.5t35.5 45l78 -48q-14 -15 -22 -35.5t-11.5 -42t-4 -40t-0.5 -29.5q0 -72 19.5 -131.5t54 -101t80.5 -64t99 -22.5t98.5 21t80 61t54.5 97.5t20 128.5q0 72 -20 129.5t-54.5 97.5t-80.5 61t-98 21v71q121 0 187 46t66 144 q0 49 -18.5 84.5t-52 58t-80 33t-103.5 10.5v68q58 0 104 15.5t79.5 45.5t52 74t18.5 102q0 45 -20.5 76t-53.5 52.5t-75.5 36t-86.5 27t-86 25.5t-75 30.5t-53 42.5t-20 61h65q0 -20 21.5 -35.5t57 -28.5t81 -25.5t93 -29t93 -36t81 -47.5t57.5 -65t22 -85t-6.5 -90 t-27 -76t-58.5 -59.5t-100 -38.5q62 -13 100 -36.5t58.5 -54t27 -65t6.5 -71.5q0 -41 -16 -78t-42.5 -67.5t-61.5 -53.5t-74 -37q42 -26 78.5 -58.5t61.5 -73t39.5 -90.5t14.5 -111q0 -87 -28 -157t-76 -119t-113 -76t-137 -27q-73 0 -138 28.5t-113 79.5t-76 123t-28 159z " />
<glyph unicode="&#x2000;" horiz-adv-x="905" />
<glyph unicode="&#x2001;" horiz-adv-x="1810" />
<glyph unicode="&#x2002;" horiz-adv-x="905" />
<glyph unicode="&#x2003;" horiz-adv-x="1810" />
<glyph unicode="&#x2004;" horiz-adv-x="603" />
<glyph unicode="&#x2005;" horiz-adv-x="452" />
<glyph unicode="&#x2006;" horiz-adv-x="301" />
<glyph unicode="&#x2007;" horiz-adv-x="301" />
<glyph unicode="&#x2008;" horiz-adv-x="226" />
<glyph unicode="&#x2009;" horiz-adv-x="362" />
<glyph unicode="&#x200a;" horiz-adv-x="100" />
<glyph unicode="&#x2010;" horiz-adv-x="681" d="M62 468v88h486v-88h-486z" />
<glyph unicode="&#x2011;" horiz-adv-x="681" d="M62 468v88h486v-88h-486z" />
<glyph unicode="&#x2012;" horiz-adv-x="1138" d="M-12 456v108h1162v-108h-1162z" />
<glyph unicode="&#x2013;" horiz-adv-x="1138" d="M-4 458v104h1138v-104h-1138z" />
<glyph unicode="&#x2014;" horiz-adv-x="2047" d="M0 458v104h2048v-104h-2048z" />
<glyph unicode="&#x2015;" horiz-adv-x="1155" d="M54 456v108h1048v-108h-1048z" />
<glyph unicode="&#x2018;" horiz-adv-x="454" d="M126 1252v164q0 135 34 194q44 80 132 120l46 -70q-56 -23 -82 -68.5t-28 -131.5h94v-208h-196z" />
<glyph unicode="&#x2019;" horiz-adv-x="454" d="M108 1332q55 23 81.5 70.5t28.5 129.5h-94v208h194v-164q0 -136 -32 -194q-44 -81 -134 -120z" />
<glyph unicode="&#x201a;" horiz-adv-x="454" d="M108 -200q55 23 81.5 69t28.5 131h-94v208h194v-164q0 -135 -32 -194q-44 -81 -134 -120z" />
<glyph unicode="&#x201b;" horiz-adv-x="454" d="M132 1584v162h192v-210h-94q3 -152 110 -198l-46 -70q-58 30 -90.5 64t-48.5 73t-19.5 83.5t-3.5 95.5z" />
<glyph unicode="&#x201c;" d="M52 1262v164q0 137 30 194q45 81 134 120l44 -68q-55 -23 -82 -69.5t-28 -132.5h94v-208h-192zM361 1262v164q0 68 7.5 116.5t25.5 77.5q39 80 131 120l45 -68q-27 -12 -47.5 -29t-33.5 -41t-20.5 -56t-9.5 -76h94v-208h-192z" />
<glyph unicode="&#x201d;" horiz-adv-x="681" d="M72 1332q55 23 80.5 70.5t27.5 129.5h-94v208h194v-164q0 -136 -30 -194q-44 -81 -136 -120zM380 1332q55 23 81 70.5t31 129.5h-94v208h192v-164q0 -136 -30 -194q-22 -39 -55 -69.5t-79 -50.5z" />
<glyph unicode="&#x201e;" d="M37 -200q55 23 81 69t28 131h-94v208h194v-164q0 -135 -30 -194q-44 -81 -136 -120zM346 -200q55 23 80.5 69t30.5 131h-94v208h193v-164q0 -135 -31 -194q-22 -39 -55 -69.5t-78 -50.5z" />
<glyph unicode="&#x201f;" horiz-adv-x="681" d="M90 1584v162h192v-210h-94q4 -152 112 -198l-46 -70q-59 30 -91.5 64t-49 73t-20 83.5t-3.5 95.5zM402 1584v162h192v-210h-94q3 -152 110 -198l-44 -70q-59 30 -92 64t-49 73t-19.5 83.5t-3.5 95.5z" />
<glyph unicode="&#x2022;" horiz-adv-x="716" d="M108 718q0 103 74 180q77 73 180 72q105 0 178 -72q76 -73 76 -180t-76 -180q-74 -74 -178 -74q-53 0 -97 19t-83 55q-74 76 -74 180z" />
<glyph unicode="&#x2026;" horiz-adv-x="2047" d="M240 0v204h204v-204h-204zM922 0v204h204v-204h-204zM1604 0v204h206v-204h-206z" />
<glyph unicode="&#x2027;" horiz-adv-x="569" d="M182 618v206h206v-206h-206z" />
<glyph unicode="&#x202f;" horiz-adv-x="362" />
<glyph unicode="&#x2039;" horiz-adv-x="681" d="M92 526l316 458h148l-266 -458l266 -454h-148z" />
<glyph unicode="&#x203a;" horiz-adv-x="681" d="M92 72l264 458l-264 454h150l302 -448l-302 -464h-150z" />
<glyph unicode="&#x205f;" horiz-adv-x="452" />
<glyph unicode="&#x20ac;" horiz-adv-x="1138" d="M-28 534l28 136h104q-2 20 -2 43v47v40h-130l28 136h116q62 326 322 466q82 46 170.5 67t185.5 21q189 0 314 -80l-40 -186q-123 102 -278 102q-169 0 -282 -82q-69 -48 -122 -136q-57 -91 -66 -172h682l-28 -136h-670q-2 -11 -2 -20v-18v-61t2 -31h642l-26 -136h-596 q21 -116 71.5 -195.5t130.5 -128.5q58 -35 119.5 -51.5t128.5 -16.5q189 0 294 98v-208q-64 -29 -133 -42.5t-145 -13.5q-451 0 -610 374q-32 76 -56 184h-152z" />
<glyph unicode="&#x2122;" horiz-adv-x="2047" d="M226 1346v120h664v-120h-266v-694h-134v694h-264zM980 652v814h202l206 -650l200 650h196v-814h-126v684l-208 -684h-124l-218 694v-694h-128z" />
<glyph unicode="&#x25fc;" horiz-adv-x="981" d="M0 0v982h982v-982h-982z" />
<glyph unicode="&#xe000;" d="M-3 -939v2687h613v-2687h-613zM3 40v-971h601v971h-601zM3 49h601v749h-601v-749zM3 806h601v934h-601v-934z" />
<glyph unicode="&#xe001;" horiz-adv-x="1214" d="M-3 -939v2687h1220v-2687h-1220zM3 40v-971h601v971h-601zM3 49h601v749h-601v-749zM3 806h601v934h-601v-934zM610 40v-971h601v971h-601zM610 49h601v749h-601v-749zM610 806h601v934h-601v-934z" />
<glyph unicode="&#xe002;" horiz-adv-x="1821" d="M-3 -939v2687h1827v-2687h-1827zM3 40v-971h601v971h-601zM3 49h601v749h-601v-749zM3 806h601v934h-601v-934zM610 40v-971h601v971h-601zM610 49h601v749h-601v-749zM610 806h601v934h-601v-934zM1217 40v-971h601v971h-601zM1217 49h601v749h-601v-749zM1217 806h601 v934h-601v-934z" />
<glyph unicode="&#xe003;" horiz-adv-x="899" d="M147 -939v2687h323v-2687h-323zM157 34v-957h292v957h-292zM157 49h292v744h-292v-744zM157 817h292v917h-292v-917z" />
<glyph unicode="&#xe004;" horiz-adv-x="899" d="M147 -939v2687h931v-2687h-931zM157 34v-957h597v957h-597zM157 49h597v744h-597v-744zM157 806h597v928h-597v-928zM765 34v-957h303v957h-303zM765 49h303v744h-303v-744zM765 806h303v928h-303v-928z" />
<glyph unicode="&#xe005;" horiz-adv-x="899" d="M-166 -939v2687h1243v-2687h-1243zM-136 24v-937h273v937h-273zM-136 49h273v744h-273v-744zM-136 817h273v907h-273v-907zM167 24v-937h577v937h-577zM167 49h577v744h-577v-744zM167 817h577v907h-577v-907zM774 24v-937h272v937h-272zM774 49h272v744h-272v-744z M774 817h272v907h-272v-907z" />
<glyph unicode="&#xe006;" horiz-adv-x="899" d="M147 -939v2687h1527v-2687h-1527zM157 34v-957h595v957h-595zM157 49h595v744h-595v-744zM157 806h595v929l-595 -1v-928zM764 34v-957h595v957h-595zM764 49h595v744h-595v-744zM764 806h595v929h-595v-929zM1371 34v-957h292v957h-292zM1371 49h292v744h-292v-744z M1371 806h292v928h-292v-928z" />
<glyph unicode="&#xe007;" horiz-adv-x="899" d="M147 -939v2687h2144v-2687h-2144zM157 34v-957h597v957h-597zM157 49h597v744h-597v-744zM157 806h597v928h-597v-928zM764 34v-957h597v957h-597zM764 49h597v744h-597v-744zM764 806h597v928h-597v-928zM1371 34v-957h597v957h-597zM1371 49h597v744h-597v-744z M1371 806h597v928h-597v-928zM1978 34v-957h303v957h-303zM1978 49h303v744h-303v-744zM1978 806h303v928h-303v-928z" />
<glyph unicode="&#xe008;" horiz-adv-x="899" d="M-166 -939v2687h940v-2687h-940zM-136 24v-937h273v937h-273zM-136 49h273v744h-273v-744zM-136 817h273v907h-273v-907zM167 24v-937h577v937h-577zM167 49h577v744h-577v-744zM167 817h577v907h-577v-907z" />
<glyph unicode="&#xe009;" horiz-adv-x="899" d="M137 -939v2687h637v-2687h-637zM157 24v-947h597v947h-597zM157 38h597v755h-597v-755zM157 806h597v928h-597v-928zM751 -939v2687h1242v-2687h-1242zM771 34v-957h595v957h-595zM771 49h595v744h-595v-744zM771 806h595v929l-595 -1v-928zM1378 34v-957h595v957h-595z M1378 49h595v744h-595v-744zM1378 806h595v929h-595v-929zM1972 -939v2687h1852v-2687h-1852zM1992 34v-957h597v957h-597zM1992 49h597v744h-597v-744zM1992 806h597v928h-597v-928zM2262 -939v2687h637v-2687h-637zM2282 34h597v-957h-597v957zM2282 49v744h597v-744h-597 zM2282 806v928h597v-928h-597zM2599 34v-957h597v957h-597zM2599 49h597v744h-597v-744zM2599 806h597v928h-597v-928zM3207 34v-957h597v957h-597zM3207 49h597v744h-597v-744zM3207 806h597v928h-597v-928z" />
</font>
</defs>
</svg>
