<?xml version="1.0" standalone="no"?>
<!DOCTYPE svg PUBLIC "-//W3C//DTD SVG 1.1//EN" "http://www.w3.org/Graphics/SVG/1.1/DTD/svg11.dtd" >
<svg xmlns="http://www.w3.org/2000/svg" xmlns:xlink="http://www.w3.org/1999/xlink" version="1.1">
<metadata></metadata>
<defs>
<font id="bpg_paragraph_chveulebriviregular" horiz-adv-x="1105" >
<font-face units-per-em="2048" ascent="1417" descent="-631" />
<missing-glyph horiz-adv-x="477" />
<glyph unicode="&#xd;" horiz-adv-x="477" />
<glyph unicode=" "  horiz-adv-x="477" />
<glyph unicode="&#x09;" horiz-adv-x="477" />
<glyph unicode="&#xa0;" horiz-adv-x="477" />
<glyph unicode="!" horiz-adv-x="530" d="M172 66q0 37 26.5 64.5t67.5 27.5q39 0 65.5 -27t26.5 -65q0 -41 -27.5 -68t-64.5 -27q-39 0 -66.5 28t-27.5 67zM195 1370q0 10 1 26.5t8 31t21.5 24.5t40.5 10q27 0 42.5 -12t21.5 -28.5t7 -31t1 -20.5l-29 -1012h-88z" />
<glyph unicode="&#x22;" horiz-adv-x="634" d="M102 1434h164l-51 -394h-61zM369 1434h163l-51 -394h-61z" />
<glyph unicode="#" horiz-adv-x="2129" d="M188 0v1434h123l863 -1299v1299h98v-1434h-123l-862 1298v-1298h-99zM1427 983q0 113 33 184.5t81 112.5t100.5 56.5t93.5 15.5q39 0 92 -15.5t101 -56.5t81 -112.5t33 -184.5t-33 -184.5t-81 -112.5t-101 -56.5t-92 -15.5q-41 0 -93.5 15.5t-100.5 56.5t-81 112.5 t-33 184.5zM1454 324v86h561v-86h-561zM1520 983q0 -39 9 -90t32.5 -97t65.5 -78t108 -32t107.5 32t65 78t33 97t9.5 90t-9.5 90t-33 97.5t-65.5 78t-107 31.5q-66 0 -108 -31.5t-65.5 -78t-32.5 -97.5t-9 -90z" />
<glyph unicode="$" horiz-adv-x="1159" d="M109 449h102q0 -109 31.5 -182.5t82 -121t113 -70t121.5 -24.5v660q-96 31 -171 61.5t-125 75.5t-75.5 106.5t-25.5 153.5q0 98 35.5 168t92 114t127 65.5t142.5 23.5v112h72v-112q92 -2 160.5 -32t116.5 -79t74 -111.5t30 -130.5h-99q-2 41 -17 85t-48 82t-86 65.5 t-131 34.5v-609q106 -29 185 -63.5t131 -83.5t78 -115.5t26 -159.5q0 -127 -44 -205.5t-108.5 -121.5t-137.5 -56.5t-130 -13.5v-155h-72v155q-125 2 -211 47t-139 115t-76.5 155t-23.5 167zM260 1102q0 -51 12.5 -94t46 -80t92 -68t148.5 -55v588q-45 -4 -97 -16.5 t-97.5 -44.5t-75 -87t-29.5 -143zM631 51q47 2 102 14.5t103.5 45t80 91t31.5 154.5q0 49 -11 99.5t-46 96.5t-97.5 83t-162.5 57v-641z" />
<glyph unicode="%" horiz-adv-x="1781" d="M109 1040q0 123 34.5 202t85 125t107.5 64.5t100 18.5t100.5 -18.5t107.5 -64.5t85 -125t35 -202t-35 -202.5t-85 -125.5t-107.5 -63.5t-100.5 -17.5t-100 17.5t-107.5 63.5t-85 125.5t-34.5 202.5zM203 1040q0 -61 13 -121.5t41 -108.5t72 -78t107 -30t107.5 30t72 78 t41 108.5t13.5 121.5t-13.5 122t-41 109t-71.5 77.5t-108 29.5q-63 0 -107 -29.5t-72 -77.5t-41 -109t-13 -122zM338 0l1022 1434h84l-1022 -1434h-84zM1018 393q0 123 34.5 202t85 125t108 64.5t100.5 18.5t100 -18.5t107.5 -64.5t85 -125t34.5 -202t-34.5 -202.5t-85 -126 t-107.5 -63.5t-100 -17t-100.5 17t-108 63.5t-85 126t-34.5 202.5zM1112 393q0 -61 13.5 -121.5t41 -108.5t71.5 -78t108 -30q63 0 107 30t71.5 78t41 108.5t13.5 121.5t-13.5 121.5t-41 109t-71.5 78t-107 29.5t-107.5 -29.5t-72 -78t-41 -109t-13.5 -121.5z" />
<glyph unicode="&#x26;" horiz-adv-x="1294" d="M82 373q0 90 26.5 159.5t75.5 123t117 94.5t150 75q-37 47 -66 85t-49.5 76t-31.5 78t-11 89q0 51 17.5 102.5t54 90t92 63.5t129.5 25q57 0 108 -18.5t89 -52.5t59.5 -84t21.5 -114q0 -41 -10 -87t-41 -93t-86 -93t-143 -85l391 -465q16 41 35.5 105.5t23.5 156.5h92 q-10 -109 -31.5 -184.5t-60.5 -147.5l234 -272h-123l-164 193q-82 -123 -194.5 -179.5t-262.5 -56.5q-115 0 -197.5 34t-137 91t-81 132t-26.5 159zM184 365q0 -70 24.5 -128.5t70 -101.5t108 -67.5t137.5 -24.5q152 0 248 61.5t154 151.5l-422 508q-70 -33 -128.5 -70 t-101.5 -84t-66.5 -107.5t-23.5 -137.5zM391 1153q0 -63 33 -126t111 -157q33 12 73.5 37t75.5 61t58.5 85t23.5 110q0 35 -12.5 68t-35 59.5t-56 42t-78.5 15.5q-86 0 -139.5 -53.5t-53.5 -141.5z" />
<glyph unicode="'" horiz-adv-x="368" d="M102 1434h164l-51 -394h-61z" />
<glyph unicode="(" horiz-adv-x="731" d="M172 416q0 205 63.5 429t225.5 453q6 8 26.5 36t46 55.5t53 50t50.5 22.5q12 0 24.5 -8t12.5 -31q0 -16 -9.5 -31.5t-28 -38t-44 -55t-55.5 -79.5q-47 -72 -90.5 -166.5t-77 -199.5t-54 -218t-20.5 -219t20.5 -219t54 -218.5t76.5 -200.5t91 -165q31 -47 56 -80 t43.5 -55.5t28 -39t9.5 -30.5q0 -23 -12.5 -31t-24.5 -8q-23 0 -50.5 22.5t-53 50.5t-46 54.5t-26.5 36.5q-162 229 -225.5 453.5t-63.5 429.5z" />
<glyph unicode=")" horiz-adv-x="731" d="M57 -592q0 14 9.5 30.5t28 39t44 55.5t56.5 80q47 70 90 165t76.5 200.5t54 218.5t20.5 219t-20.5 219t-54 218t-76.5 199.5t-90 166.5q-31 47 -56.5 79.5t-44 55t-28 38t-9.5 31.5q0 23 12.5 31t24.5 8q20 0 49 -22.5t54.5 -50t46 -55t26.5 -36.5q162 -229 225.5 -453 t63.5 -429t-63.5 -429.5t-225.5 -453.5q-6 -10 -26.5 -36.5t-46 -54.5t-54 -50.5t-49.5 -22.5q-12 0 -24.5 8.5t-12.5 30.5z" />
<glyph unicode="*" horiz-adv-x="1118" d="M158 1061q0 16 12 32.5t59 12.5l273 -29l4 13l-211 174q-23 18 -31 39.5t10 42.5q12 10 23.5 11t19.5 1q10 0 19.5 -10.5t19.5 -22.5l174 -211l13 4l-29 273q-4 47 12.5 59t32.5 12t32.5 -12t12.5 -59l-29 -273l13 -4l174 211q10 12 19.5 22.5t19.5 10.5q8 0 19 -1 t24 -11q10 -12 11 -23.5t1 -19.5q0 -10 -10 -19.5t-23 -19.5l-211 -174l4 -13l273 29q47 4 59.5 -12.5t12.5 -32.5t-12.5 -32.5t-59.5 -12.5l-273 28l-4 -12l211 -174q12 -10 22.5 -19.5t10.5 -19.5q0 -8 -1 -19.5t-11 -23.5q-20 -18 -42 -10t-40 31l-174 211l-13 -4 l29 -273q4 -47 -12.5 -59.5t-32.5 -12.5t-32.5 12.5t-12.5 59.5l29 273l-13 4l-174 -211q-18 -23 -39.5 -31t-42.5 10q-18 20 -10 42t31 40l211 174l-4 12l-273 -28q-47 -4 -59 12t-12 33z" />
<glyph unicode="+" horiz-adv-x="1228" d="M102 696v62h482v481h61v-481h481v-62h-481v-481h-61v481h-482z" />
<glyph unicode="," horiz-adv-x="501" d="M143 -340q90 100 116 173t13 138q-6 -2 -13 -2h-13q-35 0 -61.5 20.5t-26.5 57.5q0 49 29.5 72.5t64.5 23.5q47 0 76.5 -32.5t29.5 -110.5q0 -96 -48 -195.5t-134 -177.5z" />
<glyph unicode="-" horiz-adv-x="819" d="M123 471v61h573v-61h-573z" />
<glyph unicode="." horiz-adv-x="530" d="M172 66q0 37 26.5 64.5t67.5 27.5q39 0 65.5 -27t26.5 -65q0 -41 -27.5 -68t-64.5 -27q-39 0 -66.5 28t-27.5 67z" />
<glyph unicode="/" horiz-adv-x="806" d="M0 -379l731 1813h76l-731 -1813h-76z" />
<glyph unicode="0" d="M82 662q0 186 42 318t109.5 214t151.5 120t168 38t168 -38t151.5 -120t109.5 -214t42 -318q0 -188 -42 -319.5t-109.5 -213.5t-151.5 -120t-168 -38t-168 38t-151.5 120t-109.5 213t-42 320zM197 662q0 -162 31.5 -275t82.5 -184.5t115 -104t127 -32.5t126.5 32.5 t115 104t83 184.5t31.5 275t-31.5 274.5t-83 184t-115 104t-126.5 32.5t-127 -32.5t-115 -104t-82.5 -184.5t-31.5 -274z" />
<glyph unicode="1" d="M270 0v49l84 19q49 10 76 28.5t41 42t17.5 50t3.5 55.5v768q0 61 -35 76.5t-82 15.5h-105v49l62 6q39 4 69.5 16.5t52 29t35 32.5t19.5 29q8 16 14 31.5t12.5 27.5t15.5 19.5t25 7.5q39 0 39 -31v-1077q0 -29 3.5 -55.5t17.5 -50t40.5 -42t76.5 -28.5l84 -19v-49h-566z " />
<glyph unicode="2" d="M113 0v39l618 614q23 20 48.5 51t47 70t36 86t14.5 103q0 41 -13.5 92t-47.5 96t-95.5 75.5t-155.5 30.5q-45 0 -96 -10t-97 -39.5t-84 -82t-57 -136.5q-4 -23 -12 -51.5t-37 -28.5q-10 0 -25.5 9.5t-15.5 44.5q0 66 22.5 129t65.5 116q68 82 156 113t186 31 q88 0 165 -26t134.5 -75t89 -121.5t31.5 -166.5q0 -25 -5 -65t-23.5 -89t-53.5 -105.5t-94 -115.5l-477 -477h383q37 0 66.5 14t52 33.5t37 40t22.5 32.5l29 50h65l-108 -281h-772z" />
<glyph unicode="3" d="M119 268q0 41 20.5 62.5t48.5 21.5q43 0 60.5 -26.5t23.5 -42.5q12 -39 22.5 -71t45.5 -67q37 -37 95.5 -58t121.5 -21q57 0 113.5 20t100.5 61t70.5 101.5t26.5 140.5q0 49 -14 102.5t-48 98.5t-92.5 74.5t-146.5 29.5h-45v82h45q102 0 167 69.5t65 180.5 q0 104 -64.5 167.5t-185.5 63.5q-63 0 -110.5 -14t-81 -36.5t-57.5 -50.5t-40 -52q-23 -35 -32 -61.5t-19 -51.5q-4 -10 -9 -17t-20 -7q-23 0 -26.5 16t-3.5 31q0 29 9 58.5t23 57.5q49 102 145.5 162t233.5 60q88 0 154.5 -26t110.5 -70t65.5 -102t21.5 -124 q0 -82 -41 -157.5t-127 -122.5q111 -31 174.5 -121t63.5 -226q0 -100 -34 -180t-93 -136t-141 -86t-178 -30q-33 0 -76 5.5t-89 20.5t-93.5 46t-90.5 80q-70 78 -69 145z" />
<glyph unicode="4" d="M74 383v66l596 903h139v-867h223v-102h-223v-199q0 -16 2 -34.5t14.5 -35t38 -30.5t72.5 -23l68 -12v-49h-504v49l67 12q45 8 71 22.5t38 31t15 35t3 34.5v199h-620zM221 485h473v723z" />
<glyph unicode="5" d="M82 242q0 31 18.5 58.5t53.5 27.5q23 0 42 -6.5t31 -22.5q16 -20 20.5 -46t26.5 -65q35 -63 102.5 -92.5t147.5 -29.5q78 0 142.5 26.5t110.5 74.5t70.5 112.5t24.5 140.5q0 72 -20.5 138.5t-65.5 117.5t-117.5 81.5t-174.5 30.5q-59 0 -129 -11t-144 -40v586h541 q53 0 75.5 20.5t39.5 36.5l41 47l47 -45l-113 -170h-528v-352q39 10 79.5 16.5t94.5 6.5q125 0 218 -35t152.5 -96.5t89 -144.5t29.5 -179q0 -123 -42 -210t-109.5 -141t-152.5 -80t-171 -26q-131 0 -206 31t-118 64q-59 47 -82.5 96t-23.5 80z" />
<glyph unicode="6" d="M121 438q0 109 31.5 231t97 239.5t166 222t239.5 178.5q59 31 84 37t31 6q27 0 32 -13.5t5 -19.5q0 -23 -21.5 -37t-46.5 -29q-49 -29 -107.5 -67.5t-116.5 -97t-113.5 -138.5t-98.5 -190l4 -2q8 8 28.5 24.5t53.5 31.5t77 26.5t103 11.5q78 0 153 -28.5t133 -84 t94 -138.5t36 -189q0 -96 -30.5 -176t-87 -139.5t-136.5 -92.5t-178 -33q-111 0 -191.5 39t-134 103.5t-80 148.5t-26.5 176zM236 412q0 -74 23.5 -137.5t64.5 -109.5t99 -72.5t130 -26.5q70 0 129 26.5t100 72.5t64.5 109.5t23.5 137.5t-23.5 137t-64.5 109.5t-100 73 t-129 26.5q-72 0 -130 -26.5t-99 -73t-64.5 -110t-23.5 -136.5z" />
<glyph unicode="7" d="M115 1081q0 8 4 16.5t10 22.5l123 273h49q8 -23 23.5 -37.5t32 -21.5t33 -9t28.5 -2h573v-12l-477 -1078q-14 -33 -19.5 -53t-5.5 -37q0 -23 17.5 -43t64.5 -37l52 -16v-47h-375q33 35 56.5 79t33.5 64l483 1069h-352q-33 0 -91.5 -12t-129.5 -70q-27 -23 -54.5 -46 t-52.5 -23q-16 0 -21 7t-5 13z" />
<glyph unicode="8" d="M123 367q0 57 15.5 113.5t48 104.5t79.5 86t113 58q-70 27 -108 69t-56 84t-22.5 77.5t-4.5 48.5q0 74 26 137t73 109t114.5 72t151.5 26t151.5 -26t114.5 -72t73 -109.5t26 -136.5q0 -12 -4.5 -48t-23 -78t-56 -84t-107.5 -69q63 -20 111.5 -58t81 -86t48 -104.5 t15.5 -113.5q0 -76 -24.5 -148t-77 -127t-134 -88t-194.5 -33t-195 33t-134 88t-76.5 127t-24.5 148zM238 365q0 -135 86 -217t229 -82t229 81.5t86 217.5q0 66 -22.5 123t-63.5 99t-99 66.5t-130 24.5t-130 -24.5t-99 -66.5t-63.5 -99.5t-22.5 -122.5zM303 1016 q0 -61 21.5 -107.5t56.5 -76t80 -45t92 -15.5t92 15.5t80 46t56.5 75.5t21.5 107q0 45 -15.5 89t-46 78t-78 54t-110.5 20q-66 0 -113 -20t-77.5 -54t-45 -78t-14.5 -89z" />
<glyph unicode="9" d="M121 911q0 94 30.5 175t87 140.5t136.5 92.5t178 33q111 0 191.5 -39t134 -103.5t80 -148.5t26.5 -176q0 -109 -31.5 -231t-97 -239.5t-167 -222t-238.5 -178.5q-59 -31 -84 -37t-31 -6q-27 0 -32 13.5t-5 19.5q0 23 21.5 37t46.5 29q49 27 107 66.5t116.5 98t114 138.5 t98.5 190l-4 2q-10 -8 -29.5 -24.5t-52.5 -31.5t-78 -26.5t-102 -11.5q-78 0 -153 28.5t-133 84t-94 137.5t-36 190zM236 911q0 -74 23.5 -137t64.5 -109.5t99 -73t130 -26.5q70 0 129 26.5t100 73t64.5 110t23.5 136.5q0 74 -23.5 137.5t-64.5 109.5t-100 72.5t-129 26.5 q-72 0 -130 -26.5t-99 -72.5t-64.5 -109.5t-23.5 -137.5z" />
<glyph unicode=":" horiz-adv-x="530" d="M172 66q0 37 26.5 64.5t67.5 27.5q39 0 65.5 -27t26.5 -65q0 -41 -27.5 -68t-64.5 -27q-39 0 -66.5 28t-27.5 67zM172 653q0 37 26.5 64.5t67.5 27.5q39 0 65.5 -26.5t26.5 -65.5q0 -41 -27.5 -67.5t-64.5 -26.5q-39 0 -66.5 27.5t-27.5 66.5z" />
<glyph unicode=";" horiz-adv-x="501" d="M143 -340q90 100 116 173t13 138q-6 -2 -13 -2h-13q-35 0 -61.5 20.5t-26.5 57.5q0 49 29.5 72.5t64.5 23.5q47 0 76.5 -32.5t29.5 -110.5q0 -96 -48 -195.5t-134 -177.5zM158 653q0 37 26.5 64.5t67.5 27.5q39 0 65.5 -26.5t26.5 -65.5q0 -41 -27.5 -67.5t-64.5 -26.5 q-39 0 -66.5 27.5t-27.5 66.5z" />
<glyph unicode="&#x3c;" horiz-adv-x="1343" d="M123 670v61l1014 602l32 -61l-964 -572l966 -571l-34 -61z" />
<glyph unicode="=" horiz-adv-x="1228" d="M102 471v61h1024v-61h-1024zM102 881v61h1024v-61h-1024z" />
<glyph unicode="&#x3e;" horiz-adv-x="1343" d="M172 1272l35 61l1014 -602v-61l-1014 -602l-33 61l965 571z" />
<glyph unicode="?" horiz-adv-x="905" d="M143 1139q0 61 18.5 119.5t57.5 103.5t95.5 72.5t134.5 27.5q82 0 141 -29.5t97 -77.5t56.5 -109.5t18.5 -125.5q0 -80 -21.5 -147.5t-54.5 -127t-69.5 -111.5t-67.5 -103q-33 -53 -57.5 -115.5t-34.5 -157.5h-88q8 111 37.5 188t50.5 116q55 100 92 156t59.5 97t31.5 81 t9 110q0 88 -23.5 142.5t-56 84t-67.5 39.5t-58 10q-39 0 -74.5 -16t-63 -47t-44 -76t-16.5 -102q0 -45 11 -76t26.5 -49.5t34 -25.5t32.5 -7q4 0 16.5 2t24.5 12.5t21.5 30t9.5 53.5q0 16 -2 30.5t-2 31.5q0 35 13 43t24 8q25 0 41 -39t16 -96q0 -66 -43 -112t-111 -46 q-33 0 -70.5 9.5t-69.5 36t-53.5 72.5t-21.5 120zM319 66q0 37 27 64.5t68 27.5q39 0 65.5 -27t26.5 -65q0 -41 -27.5 -68t-64.5 -27q-39 0 -67 28t-28 67z" />
<glyph unicode="@" horiz-adv-x="1761" d="M123 719q0 168 59.5 308t161.5 239.5t241.5 155t297.5 55.5q193 0 335 -59.5t235 -159t139 -228.5t46 -270q0 -123 -31.5 -210t-82.5 -142.5t-112.5 -81t-119.5 -25.5q-55 0 -105 33t-57 106q-18 -39 -47.5 -67.5t-65.5 -47t-77 -27.5t-80 -9q-86 0 -154.5 29.5 t-117.5 84t-76 128t-27 161.5q0 106 34 182t88.5 125.5t122 73t136.5 23.5q39 0 79 -8.5t76 -27t64.5 -47t40.5 -71.5h4v125h91v-557q0 -45 9 -72.5t24.5 -42t35 -18.5t37.5 -4q61 0 104.5 36.5t71 93t40.5 125t13 132.5q0 158 -53 280.5t-144 205.5t-214 126t-262 43 q-160 0 -285 -58.5t-213 -154.5t-134 -222t-46 -261q0 -182 61.5 -314.5t157.5 -218.5t217 -127t242 -41q74 0 162 21.5t180 75.5l39 -56q-94 -55 -183.5 -78.5t-197.5 -23.5q-158 0 -296 49t-241.5 146.5t-163 240t-59.5 326.5zM600 690q0 -41 8 -97t36 -108.5t79 -88.5 t137 -36q39 0 86 11.5t88 47.5t68.5 100.5t27.5 170.5q0 63 -13 123.5t-45 108t-83 75t-127 27.5q-66 0 -115 -24.5t-81.5 -69.5t-49 -105.5t-16.5 -134.5z" />
<glyph unicode="A" horiz-adv-x="1228" d="M6 0l547 1434h123l547 -1434h-109l-176 465h-647l-176 -465h-109zM322 551h585l-293 801z" />
<glyph unicode="B" horiz-adv-x="1380" d="M188 0v1434h564q129 0 209.5 -33t127 -84t63.5 -114.5t17 -125.5q0 -76 -22.5 -132t-57 -94t-77.5 -60.5t-84 -32.5v-4q63 -6 119.5 -35t97.5 -75t64.5 -108.5t23.5 -138.5q0 -74 -21.5 -144.5t-78 -126.5t-152.5 -91t-244 -35h-549zM287 86h452q37 0 102.5 5t130 35 t111.5 92.5t47 178.5q0 88 -29.5 147.5t-81.5 94.5t-126 49t-162 14h-444v-616zM287 788h442q106 0 173 28t104.5 71t51 95t13.5 101q0 98 -42 151.5t-96 78t-106.5 30t-74.5 5.5h-465v-560z" />
<glyph unicode="C" horiz-adv-x="1468" d="M135 692q0 176 40 320.5t121 248t203 160t285 56.5q164 0 271.5 -45.5t171 -114t91.5 -148t32 -149.5h-103q-4 70 -32.5 137.5t-86 118.5t-142.5 83t-202 32q-133 0 -234 -48.5t-171 -139.5t-105.5 -219t-35.5 -288q0 -145 36.5 -265t106.5 -206t170 -134t229 -48 q125 0 214 39t146.5 99.5t87 133t36.5 140.5h102q-8 -74 -40 -160t-99.5 -162t-177 -126t-271.5 -50q-150 0 -256 45t-178 115.5t-113 156.5t-62.5 167t-27.5 148.5t-6 102.5z" />
<glyph unicode="D" horiz-adv-x="1435" d="M188 0v1434h469q31 0 93.5 -3.5t137.5 -24t152.5 -62t141 -121.5t104.5 -202t41 -300q0 -229 -62.5 -370.5t-168 -219.5t-244.5 -104.5t-295 -26.5h-369zM287 86h303q66 0 139.5 6t144 26.5t134 61.5t111.5 110.5t77 174t29 252.5q0 139 -29 240.5t-76 172t-106.5 113.5 t-122 65.5t-121.5 31t-106 8.5h-377v-1262z" />
<glyph unicode="E" horiz-adv-x="1212" d="M188 0v1434h951v-86h-852v-560h784v-86h-784v-616h876v-86h-975z" />
<glyph unicode="F" horiz-adv-x="1120" d="M188 0v1434h891v-86h-792v-568h706v-86h-706v-694h-99z" />
<glyph unicode="G" horiz-adv-x="1505" d="M109 721q0 172 39.5 313.5t123.5 241.5t212 154.5t307 54.5q156 0 259 -45t165.5 -112.5t92 -145.5t35.5 -146h-102q-8 70 -37.5 135.5t-85 115.5t-136.5 81t-191 31q-182 0 -295 -64.5t-176.5 -163t-86 -217t-22.5 -227.5q0 -53 7 -124t28.5 -146.5t58.5 -149.5 t97.5 -132t147.5 -94t206 -36q106 0 187 29.5t138.5 78t94 110t59 127t31 129t8.5 114.5h-492v86h588v-719h-98v281h-4q-27 -61 -71 -120t-108.5 -104t-150.5 -71.5t-193 -26.5q-147 0 -266 54.5t-200.5 153.5t-125.5 239.5t-44 314.5z" />
<glyph unicode="H" horiz-adv-x="1409" d="M188 0v1434h99v-631h835v631h99v-1434h-99v717h-835v-717h-99z" />
<glyph unicode="I" horiz-adv-x="475" d="M188 0v1434h99v-1434h-99z" />
<glyph unicode="J" horiz-adv-x="1009" d="M61 379v65h99v-59q0 -31 8 -88t39 -113.5t91 -97.5t165 -41q55 0 106.5 13.5t91 59.5t64.5 131t25 230v955h98v-955q0 -70 -8.5 -160t-47 -169.5t-116.5 -135t-217 -55.5q-121 0 -199 41t-122 103.5t-60.5 136t-16.5 139.5z" />
<glyph unicode="K" horiz-adv-x="1280" d="M188 0v1434h99v-799l819 799h131l-600 -584l643 -850h-127l-588 784l-278 -272v-512h-99z" />
<glyph unicode="L" horiz-adv-x="1056" d="M188 0v1434h99v-1348h770v-86h-869z" />
<glyph unicode="M" horiz-adv-x="1728" d="M188 0v1434h150l526 -1305l527 1305h149v-1434h-98v1243l4 55h-4l-529 -1298h-98l-528 1298h-4l4 -55v-1243h-99z" />
<glyph unicode="N" horiz-adv-x="1458" d="M188 0v1434h123l860 -1297v1297h99v-1434h-121l-862 1296v-1296h-99z" />
<glyph unicode="O" horiz-adv-x="1593" d="M135 717q0 178 44 318.5t129 238.5t208 150.5t281 52.5t280.5 -52.5t207.5 -150.5t129 -239.5t44 -317.5t-44 -317.5t-129 -240t-208 -150.5t-280 -52q-158 0 -281 52t-208 150.5t-129 239t-44 318.5zM238 717q0 -188 47 -317.5t125.5 -208t179 -113.5t207.5 -35 q106 0 206.5 35t179.5 113.5t126 207.5t47 318q0 188 -47 317t-126 208t-179.5 114t-206.5 35t-207 -35t-179.5 -114t-125.5 -208t-47 -317z" />
<glyph unicode="P" horiz-adv-x="1257" d="M188 0v1434h525q57 0 136 -9.5t151.5 -48.5t124 -116.5t51.5 -215.5q0 -102 -29 -172.5t-75 -116.5t-101.5 -71t-109.5 -37t-100 -14t-73 -2h-401v-631h-99zM287 717h401q106 0 180 24.5t120 67.5t65.5 102.5t19.5 130.5q0 104 -40 165t-98 92.5t-125 40t-122 8.5h-401 v-631z" />
<glyph unicode="Q" horiz-adv-x="1593" d="M135 717q0 178 44 318.5t129 238.5t208 150.5t281 52.5t280.5 -52.5t207.5 -150.5t129 -239.5t44 -317.5q0 -127 -21.5 -225.5t-53 -171t-71.5 -124t-77 -85.5l192 -170l-57 -64l-203 178q-61 -41 -150 -69.5t-220 -28.5q-158 0 -281 52t-208 150.5t-129 240t-44 317.5z M238 717q0 -188 47 -317.5t125.5 -208t179 -113.5t207.5 -35q119 0 192.5 28.5t104.5 49.5l-164 143l57 64l176 -156q111 111 152 247t41 298q0 188 -47 317t-126 208t-179.5 114t-206.5 35t-207 -35t-179.5 -114t-125.5 -208t-47 -317z" />
<glyph unicode="R" horiz-adv-x="1378" d="M188 0v1434h572q61 0 142 -8.5t154.5 -44t125 -109.5t51.5 -203q0 -137 -66.5 -234.5t-187.5 -127.5v-5q70 -18 109.5 -53t59 -79t26 -93t8.5 -92q6 -92 8 -151.5t7 -100.5t15.5 -70.5t30.5 -62.5h-113q-16 31 -24 59.5t-12 69.5t-6.5 100.5t-8.5 153.5q-4 49 -11 98 t-35.5 89t-85 66t-154.5 26h-506v-662h-99zM287 748h514q41 0 98 11t108.5 45t87 96.5t35.5 164.5q0 104 -40.5 160.5t-99 84t-122 33t-108.5 5.5h-473v-600z" />
<glyph unicode="S" horiz-adv-x="1298" d="M109 449h102q0 -68 21.5 -137.5t74.5 -127t141.5 -94.5t221.5 -37q143 0 226 39t126 92.5t54 108.5t11 90q0 78 -32.5 130t-82.5 86t-111.5 52.5t-117.5 30.5q-47 10 -91 18.5t-91 18.5q-68 14 -142.5 33.5t-137 58.5t-104.5 102.5t-42 163.5q0 63 22.5 135t80 131.5 t158 98.5t255.5 39q139 0 232.5 -40t151 -99.5t83 -132t31.5 -136.5h-102q-4 37 -19.5 91.5t-58.5 105.5t-121 88t-203 37q-195 0 -301 -86t-106 -222q0 -78 29.5 -127t84 -79.5t130 -49t167.5 -34.5q43 -8 100.5 -18.5t118 -28t117.5 -45t103.5 -71.5t74 -105.5 t27.5 -147.5q0 -59 -18.5 -132t-74 -135.5t-157.5 -104.5t-272 -42q-168 0 -276.5 46t-171 117t-87 156t-24.5 163z" />
<glyph unicode="T" horiz-adv-x="1097" d="M12 1348v86h1073v-86h-487v-1348h-98v1348h-488z" />
<glyph unicode="U" horiz-adv-x="1384" d="M162 561v873h98v-871q0 -96 14.5 -186t59.5 -162t131 -115t227 -43t226.5 43t131.5 114t60 162t14 187v871h99v-873q0 -94 -15.5 -198.5t-69 -191.5t-160 -143.5t-286.5 -56.5q-186 0 -291.5 56.5t-159 142.5t-66.5 190.5t-13 200.5z" />
<glyph unicode="V" horiz-adv-x="1171" d="M8 1434h111l467 -1336l467 1336h110l-512 -1434h-131z" />
<glyph unicode="W" horiz-adv-x="1732" d="M12 1434h111l326 -1305l358 1305h123l354 -1305l326 1305h110l-370 -1434h-127l-355 1317l-358 -1317h-127z" />
<glyph unicode="X" horiz-adv-x="1110" d="M8 0l479 733l-467 701h119l416 -625l416 625h119l-467 -701l479 -733h-127l-420 655l-420 -655h-127z" />
<glyph unicode="Y" horiz-adv-x="1187" d="M8 1434h121l465 -711l465 711h121l-537 -801v-633h-98v633z" />
<glyph unicode="Z" horiz-adv-x="1159" d="M53 0v98l912 1250h-861v86h965v-91l-907 -1257h944v-86h-1053z" />
<glyph unicode="[" horiz-adv-x="659" d="M186 -631v2093h416v-88h-303v-1917h303v-88h-416z" />
<glyph unicode="\" horiz-adv-x="806" d="M0 1434h76l731 -1813h-76z" />
<glyph unicode="]" horiz-adv-x="659" d="M57 -543h303v1917h-303v88h416v-2093h-416v88z" />
<glyph unicode="^" horiz-adv-x="765" d="M115 987l227 447h82l227 -447h-73l-195 385l-195 -385h-73z" />
<glyph unicode="_" horiz-adv-x="1024" d="M0 -317h1024v-62h-1024v62z" />
<glyph unicode="`" horiz-adv-x="544" d="M86 1434h123l143 -271h-71z" />
<glyph unicode="a" horiz-adv-x="1099" d="M94 274q0 106 48 167t117 91.5t142.5 41t124.5 14.5l117 12q55 6 90 11t53.5 20.5t25.5 47.5t7 89q0 88 -35.5 137t-83 72.5t-93.5 28t-66 4.5q-96 0 -156.5 -24.5t-93.5 -62.5t-45.5 -83t-12.5 -88h-90q0 49 16.5 107.5t59.5 107.5t121 81.5t201 32.5q125 0 198.5 -32.5 t111.5 -81.5t48 -105.5t10 -105.5l-10 -570q0 -8 1 -28.5t8 -41t23.5 -37t47.5 -16.5q20 0 39 7v-70q-10 -4 -27.5 -7t-40.5 -3q-47 0 -74.5 17.5t-43 45t-20.5 62.5q-4 25 -4 48q0 9 1 19q-18 -37 -48 -73.5t-75 -66.5t-106.5 -48.5t-141.5 -18.5q-59 0 -120.5 13.5 t-110.5 47.5t-81 91t-32 147zM188 274q0 -104 68 -165.5t184 -61.5q61 0 127 19.5t119 66.5t87 123t36 190l2 129q-23 -18 -47.5 -26t-58 -13.5t-79.5 -9.5t-110 -12q-82 -10 -143.5 -24.5t-102.5 -41t-61.5 -68.5t-20.5 -106z" />
<glyph unicode="b" horiz-adv-x="1167" d="M162 0v1434h90v-568q41 88 131 151.5t229 63.5q123 0 208 -46t138.5 -121.5t77 -175t23.5 -203.5q0 -111 -23.5 -214.5t-77 -183.5t-139.5 -129t-211 -49q-76 0 -133 17.5t-100 47t-72 66.5t-47 76h-4v-166h-90zM248 514q0 -133 31.5 -224t84 -149.5t118 -84t130.5 -25.5 q53 0 114.5 18.5t115 72.5t88.5 153.5t35 261.5q0 104 -22.5 191t-67 149.5t-110 97.5t-149.5 35q-86 0 -154.5 -35t-116.5 -99.5t-72.5 -156.5t-24.5 -205z" />
<glyph unicode="c" horiz-adv-x="1079" d="M109 537q0 111 25.5 210t82.5 173.5t146.5 117.5t218.5 43q113 0 187.5 -32.5t120.5 -83t67.5 -109.5t27.5 -113h-88q-6 51 -28.5 99.5t-61.5 85.5t-95.5 59.5t-129.5 22.5q-182 0 -280.5 -126t-98.5 -341q0 -154 35.5 -252t91 -156.5t122 -81t130.5 -22.5 q100 0 162.5 39t97.5 92t49 108.5t18 85.5h88q-16 -141 -65 -220t-111.5 -119t-128 -49t-110.5 -9q-123 0 -212 44t-147.5 121t-86 182.5t-27.5 230.5z" />
<glyph unicode="d" horiz-adv-x="1163" d="M109 535q0 145 35.5 248.5t96 170t140.5 97t170 30.5q117 0 214 -55t146 -160v568h90v-1434h-90v166h-4q-6 -16 -25.5 -50t-59.5 -69t-105.5 -61.5t-161.5 -26.5q-106 0 -181 35t-125 89t-78 120.5t-42 130t-17 118t-3 83.5zM203 537q0 -121 20.5 -206t52 -141.5 t71.5 -88t79 -47t72.5 -19.5t52.5 -4q66 0 131.5 25.5t117.5 84t83.5 149.5t31.5 224q0 113 -24.5 205t-72.5 156.5t-116.5 99.5t-154.5 35q-96 0 -163 -43t-106.5 -111t-57 -152.5t-17.5 -166.5z" />
<glyph unicode="e" horiz-adv-x="1142" d="M109 535q0 25 3 73.5t17 110t44 125t83 117t134 87t198 33.5q59 0 137 -15t147.5 -73.5t116.5 -172.5q45 -109 45 -294v-16h-831q0 -68 15 -151t58 -156.5t119 -122.5t197 -49q76 0 134 21.5t101 58t69 86t36 104.5h90q-10 -49 -34.5 -109.5t-75 -111.5t-129 -86 t-195.5 -35q-23 0 -66 3t-96 19.5t-109.5 50.5t-102.5 98.5t-75.5 162.5t-29.5 242zM203 582h735q0 57 -13.5 131.5t-52 140.5t-108.5 111t-182 45q-117 0 -190 -46t-114.5 -112t-57 -139.5t-17.5 -130.5z" />
<glyph unicode="f" horiz-adv-x="526" d="M12 969v71h193v156q0 76 17.5 123t46 73.5t67.5 36t82 9.5h27.5t68.5 -4v-72q-43 2 -62.5 3t-33.5 1q-47 0 -71.5 -19.5t-36 -46t-13.5 -54t-2 -44.5v-162h219v-71h-219v-969h-90v969h-193z" />
<glyph unicode="g" horiz-adv-x="1157" d="M109 532q0 264 114.5 406.5t315.5 142.5q78 0 138 -18.5t104 -47t73 -66.5t47 -77h4v168h90v-962q0 -53 -8 -133t-49 -156t-130 -130t-251 -54q-43 0 -102.5 6t-117.5 31.5t-107.5 77t-69.5 141.5h102q20 -74 91 -129.5t212 -55.5q29 0 86.5 9.5t113.5 47.5t98 115.5 t42 217.5v122q-41 -100 -133 -152t-209 -52q-111 0 -187.5 34.5t-126.5 88t-79 119t-42 126t-16 109.5t-3 71zM203 535q0 -141 33.5 -234.5t88 -148t120 -76t128.5 -21.5q59 0 120 19.5t109 72t77.5 142.5t29.5 231q0 242 -91 366t-271 124q-82 0 -139.5 -28t-96.5 -72 t-60.5 -98t-31.5 -107.5t-13 -98.5t-3 -71z" />
<glyph unicode="h" d="M162 0v1434h90v-551q39 70 93 109.5t106.5 60t95.5 24.5t63 4q117 0 183.5 -38.5t100.5 -96t42 -120t8 -109.5v-717h-90v662q0 49 -4 109t-26.5 113.5t-74 89.5t-143.5 36q-63 0 -126.5 -21.5t-114 -70t-82 -126t-31.5 -190.5v-602h-90z" />
<glyph unicode="i" horiz-adv-x="413" d="M156 1284v150h102v-150h-102zM162 0v1040h90v-1040h-90z" />
<glyph unicode="j" horiz-adv-x="413" d="M-14 -303q10 -2 28 -2q33 0 60.5 5t47 24.5t30 57.5t10.5 101v1157h90v-1169q0 -125 -42 -189.5t-161 -64.5q-18 0 -34.5 1t-28.5 3v76zM156 1284v150h102v-150h-102z" />
<glyph unicode="k" horiz-adv-x="980" d="M162 0v1434h90v-942l582 548h112l-416 -395l451 -645h-104l-412 586l-213 -205v-381h-90z" />
<glyph unicode="l" horiz-adv-x="413" d="M162 0v1434h90v-1434h-90z" />
<glyph unicode="m" horiz-adv-x="1687" d="M162 0v1040h90v-151q14 31 40.5 65.5t65.5 62t92.5 46t122.5 18.5q106 0 188.5 -54t104.5 -155q16 33 44 70t69 67.5t98.5 51t134.5 20.5q117 0 180.5 -47t93.5 -110.5t35 -128t5 -99.5v-696h-90v686q0 25 -3 78t-25 108.5t-68 96.5t-130 41q-53 0 -109.5 -17.5 t-103.5 -59.5t-77.5 -111.5t-30.5 -172.5v-649h-90v686q0 20 -4 73.5t-25.5 109t-68 98.5t-132.5 43q-66 0 -123 -28t-100 -78t-68.5 -118.5t-25.5 -150.5v-635h-90z" />
<glyph unicode="n" d="M162 0v1040h90v-157q39 70 93 109.5t106.5 60t95.5 24.5t63 4q117 0 183.5 -38.5t100.5 -96t42 -120t8 -109.5v-717h-90v662q0 49 -4 109t-26.5 113.5t-74 89.5t-143.5 36q-63 0 -126.5 -21.5t-114 -70t-82 -126t-31.5 -190.5v-602h-90z" />
<glyph unicode="o" horiz-adv-x="1175" d="M109 520q0 117 26.5 218.5t85 178t148.5 120.5t219 44t219 -44t148.5 -120.5t85 -178t26.5 -218.5t-26.5 -218t-85 -178t-148.5 -121t-219 -44t-219 44t-148.5 121t-85 178t-26.5 218zM203 520q0 -111 23.5 -201t71.5 -154.5t119.5 -99t170.5 -34.5q98 0 169.5 34.5 t120 99t72 155t23.5 200.5q0 111 -23.5 201t-72 154.5t-120 99.5t-169.5 35t-170 -35t-120 -99.5t-71.5 -154.5t-23.5 -201z" />
<glyph unicode="p" horiz-adv-x="1167" d="M162 -379v1419h90v-166h4q25 53 62.5 92.5t85 65t100.5 37.5t108 12q123 0 208 -45t138.5 -119.5t77 -174t23.5 -207.5q0 -109 -23.5 -212.5t-77 -184.5t-139.5 -130t-211 -49q-119 0 -211 51t-145 164v-553h-90zM248 514q0 -133 31.5 -224t84 -149.5t118 -84 t130.5 -25.5q53 0 114.5 18.5t115 72.5t88.5 153.5t35 261.5q0 104 -22.5 191t-67 149.5t-110 97.5t-149.5 35q-86 0 -154.5 -35t-116.5 -99.5t-72.5 -156.5t-24.5 -205z" />
<glyph unicode="q" horiz-adv-x="1167" d="M162 535q0 109 25.5 208t78.5 173.5t138 119.5t204 45q55 0 108.5 -12t100.5 -37.5t85 -64.5t63 -93h4v166h90v-1419h-90v553q-41 -88 -131 -151.5t-230 -63.5q-111 0 -185.5 37t-124.5 95.5t-77.5 127t-40 133t-15.5 114.5t-3 69zM256 537q0 -162 35 -261.5t88 -153.5 t114.5 -72.5t114.5 -18.5q66 0 131.5 25.5t117.5 84t84 149.5t32 224q0 113 -24.5 205t-73 156.5t-117 99.5t-154.5 35q-84 0 -149.5 -35t-109.5 -97.5t-66.5 -149.5t-22.5 -191z" />
<glyph unicode="r" horiz-adv-x="651" d="M162 0v1040h90v-215h4q18 49 51 91t78 75t100.5 51.5t118.5 18.5h47v-92h-45q-49 -2 -111.5 -16.5t-115.5 -62.5t-90 -141.5t-37 -250.5v-498h-90z" />
<glyph unicode="s" horiz-adv-x="962" d="M82 297h92q0 -53 19.5 -101.5t59.5 -85t98.5 -58t137.5 -21.5q88 0 145.5 22.5t91.5 57t47 76.5t13 79q0 51 -20.5 86t-54 58.5t-78.5 39t-96 27.5q-29 8 -56.5 14.5t-56.5 12.5q-68 16 -125 36.5t-99 54.5t-64.5 84t-22.5 124q0 27 9 73t45 92t107.5 79.5t194.5 33.5 q119 0 191.5 -31.5t113.5 -78.5t56.5 -100.5t19.5 -96.5h-92q-2 33 -14.5 75t-44 77t-86 59.5t-140.5 24.5q-74 0 -124 -17.5t-81.5 -47.5t-46 -67.5t-14.5 -78.5q0 -61 22.5 -98t63.5 -61t100.5 -38t130.5 -33q76 -18 141.5 -38.5t113.5 -52.5t75 -80t27 -122 q0 -68 -22.5 -126t-72 -100t-126 -66.5t-183.5 -24.5q-102 0 -177 28.5t-123 76t-71.5 107.5t-23.5 126z" />
<glyph unicode="t" horiz-adv-x="561" d="M12 969v71h207v312h90v-312h226v-71h-226v-779q0 -29 1 -55t10.5 -46.5t28 -33t52.5 -12.5q35 0 71 9t63 20v-72q-29 -10 -69 -19.5t-77 -9.5q-59 0 -94 17.5t-51.5 47.5t-20.5 66.5t-4 77.5v789h-207z" />
<glyph unicode="u" d="M162 324v716h90v-661q0 -49 4 -109.5t26.5 -114t74 -89t143.5 -35.5q63 0 125.5 21.5t114 69.5t83 126t31.5 190v602h90v-1040h-90v154h-4q-49 -90 -142.5 -142.5t-211.5 -52.5q-117 0 -183.5 39t-100.5 96.5t-42 119.5t-8 110z" />
<glyph unicode="v" horiz-adv-x="884" d="M0 1040h102l340 -944l340 944h103l-389 -1040h-107z" />
<glyph unicode="w" horiz-adv-x="1376" d="M12 1040h94l267 -931l262 931h106l263 -931l266 931h94l-301 -1040h-115l-260 934l-260 -934h-115z" />
<glyph unicode="x" horiz-adv-x="888" d="M0 0l387 543l-352 497h110l299 -432l299 432h109l-350 -497l387 -543h-117l-328 483l-327 -483h-117z" />
<glyph unicode="y" horiz-adv-x="915" d="M27 1040h108l361 -934l327 934h92l-438 -1208q-12 -35 -26.5 -74t-39 -71.5t-65.5 -53t-104 -20.5q-14 0 -35 2t-45 6v76q27 -4 45 -5t26 -1q39 0 65 9t44 30.5t33.5 58.5t34.5 92l39 117z" />
<glyph unicode="z" horiz-adv-x="899" d="M53 0v63l674 906h-629v71h721v-82l-651 -886h678v-72h-793z" />
<glyph unicode="{" horiz-adv-x="749" d="M154 483v86q86 8 134 86t48 215q0 29 -1 55.5t-3 55.5t-3 54.5t-1 54.5q0 10 1 39.5t10 67.5t27.5 79t54.5 75.5t91 58.5t135 24v-72q-35 -4 -72.5 -16.5t-71.5 -39t-55.5 -69.5t-21.5 -107q0 -25 1 -43t3 -40.5t3 -55.5t1 -86q0 -59 -6 -116.5t-26.5 -107.5t-59.5 -89 t-104 -64v-4q66 -25 104.5 -63.5t59 -88.5t26.5 -107.5t6 -117.5q0 -53 -1 -85.5t-3 -55t-3 -41t-1 -43.5q0 -63 21.5 -106t55.5 -70t71.5 -40t72.5 -15v-72q-80 0 -135 23.5t-91 58.5t-54.5 76t-27.5 79t-10 67.5t-1 39.5q0 29 1 54.5t3 54.5t3 55.5t1 54.5q0 137 -48 215 t-134 86z" />
<glyph unicode="|" horiz-adv-x="921" d="M426 -459v2157h70v-2157h-70z" />
<glyph unicode="}" horiz-adv-x="749" d="M102 -309q33 2 72 15t73 40t55.5 70t21.5 106q0 25 -1 43.5t-3.5 41t-3.5 55t-1 85.5q0 59 6.5 117t27 108t59 89t104.5 63v4q-66 25 -104.5 64t-59 89t-27 107.5t-6.5 116.5q0 53 1 86t3.5 55.5t3.5 41t1 42.5q0 63 -21.5 106.5t-55.5 70t-73 39t-72 16.5v72 q80 -2 135.5 -25t91.5 -57.5t54 -75.5t27.5 -79t10.5 -67.5t1 -39.5q0 -29 -1 -54.5t-3 -54.5t-3 -55.5t-1 -55.5q0 -137 48 -214.5t134 -86.5v-86q-86 -8 -134 -86t-48 -215q0 -29 1 -55.5t3 -54.5q2 -29 3 -54.5t1 -54.5q0 -10 -1 -39.5t-10.5 -67.5t-27.5 -79t-54 -76 t-91.5 -58.5t-135.5 -23.5v72z" />
<glyph unicode="~" horiz-adv-x="1187" d="M102 643q12 35 34 74t53.5 71.5t72.5 54t92 21.5t94.5 -15t75.5 -32l211 -112q47 -27 111 -27q37 0 65.5 15.5t51 39t38 51t25.5 52.5l59 -25q-31 -72 -65.5 -116t-67 -67.5t-63.5 -30.5t-55 -7q-53 0 -91 12t-79 35l-211 113q-23 12 -53.5 19t-59.5 7q-61 0 -108.5 -46 t-69.5 -112z" />
<glyph unicode="&#xa2;" horiz-adv-x="1079" d="M109 537q0 143 35.5 245.5t96 168t139.5 96t165 32.5v138h71v-136q90 -2 157 -32.5t112 -77.5t69.5 -107.5t30.5 -120.5h-88q-6 47 -26.5 94.5t-56.5 84t-85 60.5t-113 28v-979q88 6 143.5 45t87.5 90t45 103.5t17 86.5h88q-2 -23 -9 -60.5t-23.5 -81.5t-43 -89 t-68.5 -83t-99.5 -60.5t-137.5 -22.5v-147h-71v147q-117 0 -200 50t-135 132t-76.5 185.5t-24.5 210.5zM203 543q0 -57 10 -139t45 -161t102.5 -138.5t184.5 -71.5v975q-84 -4 -147.5 -41t-106.5 -98.5t-65.5 -144.5t-22.5 -181z" />
<glyph unicode="&#xa3;" horiz-adv-x="1159" d="M109 647v72h157q-51 100 -71.5 176t-20.5 154q0 98 33 177t92 135t142 86t182 30q137 0 222 -47.5t130 -116t59.5 -144t14.5 -133.5h-103v39q0 47 -16.5 102.5t-55 102.5t-103 79t-159.5 32q-84 0 -147.5 -29t-105.5 -77t-62.5 -111.5t-20.5 -131.5q0 -82 26 -156.5 t69 -166.5h374v-72h-346q20 -47 33.5 -99t13.5 -106q0 -84 -34.5 -172t-106.5 -149l4 -8q31 12 67 18t83 6q59 0 101 -11t89 -30q47 -16 91 -31.5t96 -15.5q49 0 91 19.5t83 54.5l41 -57q-45 -51 -104.5 -80t-119.5 -29q-31 0 -54 4t-49 11.5t-55.5 17.5t-72.5 24 q-63 20 -104 31.5t-76 11.5q-51 0 -117 -18.5t-119 -58.5l-55 71q100 66 163.5 154t63.5 209q0 57 -14 119.5t-43 113.5h-186z" />
<glyph unicode="&#xa4;" horiz-adv-x="1146" d="M117 262l116 117q-59 70 -84.5 147.5t-25.5 149.5t25.5 149.5t84.5 147.5l-116 117l43 43l116 -117q70 59 148 84.5t149 25.5q72 0 150 -25.5t147 -84.5l117 117l43 -43l-117 -117q59 -70 85 -147.5t26 -149.5t-25.5 -149.5t-85.5 -147.5l117 -117l-43 -43l-117 117 q-70 -59 -147.5 -85t-149.5 -26t-149.5 25.5t-147.5 85.5l-116 -117zM184 676q0 -82 31 -152.5t83 -123t123 -83t152 -30.5q82 0 153 30.5t123 83t83 123t31 152.5t-31 152.5t-83 123t-123 83t-153 30.5t-152.5 -30.5t-122.5 -83t-83 -123t-31 -152.5z" />
<glyph unicode="&#xa7;" horiz-adv-x="1126" d="M109 653q0 84 27.5 142.5t68.5 97.5t91 61.5t95 32.5q-90 51 -120.5 107.5t-30.5 136.5q0 76 29.5 126t76.5 78.5t103.5 41t109.5 12.5q68 0 126 -17.5t101 -56.5t67 -104.5t24 -159.5h-91q0 76 -16 124t-46 76.5t-73 40t-94 11.5q-10 0 -46 -3t-75 -20.5t-68.5 -54.5 t-29.5 -104q0 -53 18.5 -87t59.5 -60.5t107.5 -53.5t162.5 -68q74 -33 135.5 -66.5t105.5 -76.5t67.5 -99.5t23.5 -131.5q0 -84 -27.5 -143.5t-68.5 -101.5t-89.5 -65.5t-89.5 -36.5q92 -45 121 -106.5t29 -124.5q0 -59 -20.5 -109.5t-61.5 -89.5t-102.5 -60.5t-145.5 -21.5 q-109 0 -175 33t-103 84t-49.5 113.5t-12.5 120.5h90q0 -33 7.5 -78t34 -87t75.5 -71t133 -29q45 0 86 10.5t74 33t52.5 58.5t19.5 87q0 57 -23.5 93t-66.5 62.5t-100.5 47t-125.5 49.5q-92 39 -161.5 79t-115.5 88t-69.5 107.5t-23.5 132.5zM211 659q0 -72 21.5 -123 t72.5 -92t134 -79.5t204 -85.5q98 27 153.5 67.5t81 82.5t31.5 81t6 61q0 68 -23.5 118t-75.5 90t-136 77t-203 78q-43 -6 -90 -23.5t-86 -49.5t-64.5 -82t-25.5 -120z" />
<glyph unicode="&#xa9;" horiz-adv-x="1638" d="M102 717q0 147 55.5 277t153 228.5t227.5 155t281 56.5q147 0 277.5 -56.5t228.5 -154t154.5 -227.5t56.5 -279q0 -150 -56.5 -280t-154.5 -227t-228 -153.5t-278 -56.5q-152 0 -281.5 56.5t-227 154.5t-153 228.5t-55.5 277.5zM184 717q0 -135 49.5 -255t134.5 -209 t200.5 -140.5t250.5 -51.5q129 0 245 51.5t203 140.5t137 209t50 255q0 137 -51 257t-138 208t-202 139t-244 51q-133 0 -248.5 -51t-201.5 -140t-135.5 -208t-49.5 -256zM487 719q0 176 82 280.5t250 104.5q57 0 110.5 -16.5t93.5 -46t64.5 -73.5t24.5 -100h-90 q-4 31 -15.5 60.5t-34 52.5t-60.5 37t-93 14q-88 0 -136 -39t-70.5 -91t-26.5 -104.5t-4 -78.5q0 -106 31.5 -165.5t72.5 -88.5t83 -35t60 -6q61 0 99.5 21.5t61 51t31.5 60.5t11 51h90q-4 -29 -18 -71.5t-47 -83.5t-88.5 -71t-141.5 -30q-158 0 -249 95.5t-91 271.5z" />
<glyph unicode="&#xab;" horiz-adv-x="868" d="M86 358l309 359l64 -58l-260 -301l260 -301l-64 -57zM401 358l310 359l63 -58l-260 -301l260 -301l-63 -57z" />
<glyph unicode="&#xac;" horiz-adv-x="1228" d="M102 676v61h1024v-348h-61v287h-963z" />
<glyph unicode="&#xad;" horiz-adv-x="819" d="M123 471v61h573v-61h-573z" />
<glyph unicode="&#xae;" horiz-adv-x="1638" d="M102 717q0 147 56.5 278t154 228.5t228.5 154t278 56.5q150 0 281 -56.5t227 -154t152.5 -228.5t56.5 -278t-56.5 -278.5t-152.5 -228.5t-227 -153.5t-281 -56.5q-147 0 -278 56.5t-228.5 153.5t-154 228.5t-56.5 278.5zM184 717q0 -135 50.5 -255t136.5 -209 t201.5 -140.5t246.5 -51.5q133 0 249 51.5t202 140.5t135 209t49 255q0 137 -50 257t-136 208t-202 139t-247 51q-129 0 -244.5 -51t-201.5 -140t-137.5 -208t-51.5 -256zM557 365v716h309q84 0 133.5 -23.5t74 -56t30.5 -67.5t6 -60q0 -41 -12.5 -69.5t-30.5 -49 t-38.5 -33.5t-39.5 -20v-4q35 -8 54.5 -24.5t29.5 -38t13.5 -48t5.5 -52.5q2 -41 3 -68t3 -44t7 -30.5t15 -27.5h-96q-10 10 -14 20t-6.5 27.5t-3.5 44t-3 71.5q0 25 -4 48.5t-19.5 43t-46 31t-87.5 11.5h-193v-297h-90zM647 733h197q33 0 63.5 8.5t55 24.5t39 44t14.5 64 q0 41 -16.5 68t-43 42t-60.5 20.5t-67 5.5h-182v-277z" />
<glyph unicode="&#xb0;" horiz-adv-x="540" d="M76 1239q0 39 15 75t42 62.5t61.5 42t75.5 15.5q39 0 75 -15.5t62.5 -42t42 -62.5t15.5 -75q0 -41 -15.5 -76t-42 -61.5t-62.5 -42t-75 -15.5q-41 0 -75.5 15.5t-61.5 42t-42 61.5t-15 76zM137 1239q0 -55 39 -94t94 -39t94 39t39 94t-38.5 94t-94.5 39q-55 0 -94 -39 t-39 -94z" />
<glyph unicode="&#xb1;" horiz-adv-x="1228" d="M102 164v61h1024v-61h-1024zM102 829v62h482v440h61v-440h481v-62h-481v-399h-61v399h-482z" />
<glyph unicode="&#xb5;" horiz-adv-x="1134" d="M162 -379v1419h90v-567q0 -23 1 -62.5t8 -88t24.5 -97.5t51.5 -89t86 -65.5t130 -25.5q72 0 123 22.5t85 59.5t52 84t27.5 94t11.5 91t2 77v567h90v-847q0 -23 2 -46.5t10.5 -42t25.5 -30t50 -6.5l21 2v-70q-16 -4 -34 -6t-34 -2q-45 0 -70.5 18.5t-39 43t-17.5 51 t-4 42.5q-57 -98 -133 -143t-168 -45q-86 0 -167 43t-134 125v-506h-90z" />
<glyph unicode="&#xb6;" horiz-adv-x="819" d="M82 1137q0 63 21.5 118.5t61.5 94.5t94 61.5t120 22.5h72v-1813h-72v1219q-66 0 -121 22.5t-94 62.5t-60.5 94t-21.5 118zM610 -379v1813h72v-1813h-72z" />
<glyph unicode="&#xbb;" horiz-adv-x="868" d="M94 57l260 301l-260 301l64 58l309 -359l-309 -358zM410 57l260 301l-260 301l63 58l309 -359l-309 -358z" />
<glyph unicode="&#xf7;" horiz-adv-x="1228" d="M102 637v61h1024v-61h-1024zM522 311q0 39 26.5 65.5t65.5 26.5t66 -26.5t27 -65.5t-27 -65.5t-66 -26.5t-65.5 26.5t-26.5 65.5zM522 1024q0 39 26.5 65.5t65.5 26.5t66 -26.5t27 -65.5t-27 -65.5t-66 -26.5t-65.5 26.5t-26.5 65.5z" />
<glyph unicode="&#x192;" horiz-adv-x="792" d="M-82 -379l14 72q16 -4 32 -6t30 -2q39 0 65.5 14t43 38.5t26.5 56.5t18 67l234 1108h-191l15 71h190l31 142q6 31 20.5 73.5t45 82.5t84 68t137.5 28q45 0 80 -15l-13 -71q-29 10 -51 12t-33 2q-80 0 -122 -48t-58 -126l-31 -148h224l-15 -71h-223l-223 -1059 q-14 -70 -33.5 -125t-50.5 -93t-74 -58.5t-104 -20.5q-4 0 -21.5 1t-46.5 7z" />
<glyph unicode="&#x10a0;" horiz-adv-x="1103" d="M86 432q0 63 7 99t17.5 54.5t20.5 22.5t19 4q27 0 31.5 -23.5t4.5 -33.5q0 -25 -1 -48.5t-1 -45.5q0 -68 23.5 -138.5t70 -128t116 -93t161.5 -35.5q90 0 154.5 33.5t105.5 89t60.5 124t19.5 138.5q0 86 -22.5 154.5t-58.5 122.5t-77 96t-78 75q-84 74 -137 128 t-82.5 101.5t-40 96.5t-10.5 114v95h111v-78q0 -72 20.5 -124t54 -95t75.5 -78t83 -72q135 -119 210 -248t75 -295q0 -102 -33 -190t-94.5 -152.5t-147.5 -101.5t-192 -37q-113 0 -199 40t-145.5 105.5t-90 149.5t-30.5 174z" />
<glyph unicode="&#x10a1;" horiz-adv-x="1161" d="M100 399q0 88 33 152.5t79 110t94 75t81 47.5q45 27 78 52.5t54.5 64.5t32.5 96.5t11 149.5q0 25 -4 41t-16.5 27.5t-36 21.5t-62.5 25q-59 23 -110 59v-219q0 -6 -1 -18.5t-6 -24.5t-16.5 -20.5t-31.5 -8.5q-14 0 -35 8.5t-21 42.5v353h119q25 -25 49.5 -40.5t50 -25.5 t52 -18.5t55.5 -18.5q47 -16 72.5 -35.5t37 -42t13.5 -48t2 -50.5q0 -31 -1 -59.5t-1 -59.5q0 -47 1 -79.5t19.5 -63.5t59.5 -65.5t120 -82.5q41 -25 80 -56.5t70 -73.5t49.5 -97t18.5 -127q0 -104 -41 -185t-110 -134.5t-158 -81t-187 -27.5q-127 0 -220 35t-153.5 94.5 t-90.5 138t-30 168.5zM223 393q0 -63 21.5 -122.5t66.5 -104.5t116 -72.5t169 -27.5q174 0 272.5 92t98.5 241q0 63 -18.5 108.5t-48.5 78t-68.5 58.5t-79.5 51.5t-81 54t-73 69.5q-47 -53 -99.5 -85t-105.5 -66q-68 -43 -119 -105.5t-51 -169.5z" />
<glyph unicode="&#x10a2;" horiz-adv-x="1175" d="M115 399q0 88 32.5 152.5t78.5 110t94.5 75t80.5 47.5q51 31 86 58.5t55.5 68.5t29 104.5t8.5 166.5q0 14 -3.5 44.5t-18.5 62.5t-48 55.5t-92 23.5q-61 0 -96 -26.5t-51.5 -65.5t-19.5 -81t-3 -75q0 -29 2 -48t2 -36q0 -16 -6 -35.5t-41 -19.5q-41 0 -52.5 40t-11.5 89 q0 53 9.5 116.5t40 118t87 90t150.5 35.5q96 0 149.5 -31.5t78 -79.5t28.5 -103.5t4 -100.5q0 -29 -1 -58.5t-1 -60.5q0 -47 1 -79.5t19.5 -63.5t59.5 -65.5t121 -82.5q41 -25 80 -56.5t69.5 -73.5t49 -97t18.5 -127q0 -104 -41 -185t-109.5 -134.5t-158 -81t-187.5 -27.5 q-127 0 -220 35t-153.5 94.5t-90 138t-29.5 168.5zM238 393q0 -63 21.5 -122.5t66.5 -104.5t115.5 -72.5t168.5 -27.5q174 0 272.5 92t98.5 241q0 63 -18.5 108.5t-48 78t-68.5 58.5t-80 51.5t-81 54t-73 69.5q-47 -53 -99 -85t-105 -66q-68 -43 -119 -105.5t-51 -169.5z " />
<glyph unicode="&#x10a3;" horiz-adv-x="1517" d="M86 1016q0 94 21.5 177t64.5 144.5t105.5 97t144.5 35.5q109 0 190.5 -47t122.5 -145q25 63 63 101t81 58.5t88 26.5t82 6q111 0 184.5 -31.5t117.5 -87t63.5 -130t19.5 -160.5q0 -133 -36 -216t-91.5 -129t-121 -63.5t-126.5 -17.5q-51 0 -109.5 11t-113 44t-94.5 93.5 t-54 160.5q-6 49 -13 121t-32 139.5t-75 115.5t-142 48q-35 0 -73 -19.5t-69.5 -61.5t-53 -107.5t-21.5 -159.5q0 -117 42 -202t99 -146q61 -66 147.5 -107t185.5 -73.5t206.5 -66.5t210 -86t196 -133t164.5 -206h-153q-74 100 -178.5 175t-222.5 124t-240.5 72.5 t-231.5 23.5q-49 0 -99 -7t-99 -19l-60 100q47 10 95 17.5t100 11.5v10q-41 27 -90.5 70t-92.5 105t-72.5 145t-29.5 188zM801 1051q0 -41 6 -95.5t32.5 -102.5t78 -82t143.5 -34q82 0 131 33t75.5 80t35 102.5t8.5 102.5t-7.5 102t-34 102.5t-78.5 78t-140 30.5 q-86 0 -136.5 -34t-76 -82t-31.5 -103t-6 -98z" />
<glyph unicode="&#x10a4;" d="M72 348q0 63 20.5 115.5t50 89.5t63.5 57.5t60 20.5q29 0 35 -15.5t6 -25.5q0 -18 -17.5 -34.5t-35.5 -37.5q-23 -25 -41 -66.5t-18 -103.5q0 -55 23.5 -105t67.5 -90t108.5 -63.5t146.5 -23.5q55 0 112.5 15t104.5 62t76.5 134.5t29.5 232.5v506q0 94 -25.5 160.5 t-69.5 109.5t-101.5 62.5t-120.5 19.5q-123 0 -192.5 -67.5t-69.5 -188.5q0 -47 5 -73.5t13 -53.5q10 -31 12 -44t2 -23q0 -31 -15 -38.5t-26 -7.5q-29 0 -48 30t-31.5 70t-18.5 82t-6 66q0 76 25.5 139.5t72.5 110.5t117 73.5t160 26.5q106 0 180 -28.5t121 -72.5t73.5 -97 t39 -103.5t14.5 -91.5t2 -59v-508q0 -80 -14.5 -175t-62.5 -178t-139 -138.5t-247 -55.5q-100 0 -181 30t-139.5 82t-90 121.5t-31.5 151.5z" />
<glyph unicode="&#x10a5;" horiz-adv-x="1155" d="M86 358q0 61 15.5 114.5t40 93.5t53 62.5t53.5 22.5t32 -13t7 -22q0 -18 -12.5 -37.5t-28.5 -50.5q-20 -39 -28.5 -85t-8.5 -85q0 -55 21.5 -108t66.5 -94t111.5 -65.5t158.5 -24.5q158 0 254.5 94t96.5 264q0 72 -26 129t-72 97t-110.5 61.5t-140.5 21.5h-57v101h31 q55 0 106 16t92 49t65.5 83t24.5 118q0 74 -23.5 125t-61 82.5t-85 46t-96.5 14.5q-39 0 -86 -10t-89 -38t-70.5 -75t-28.5 -123q0 -33 3 -53t3 -37q0 -20 -7 -43.5t-40 -23.5q-12 0 -24.5 5t-24 20.5t-17.5 42t-6 71.5q0 86 29 153.5t80 114.5t122.5 72.5t155.5 25.5 q100 0 173 -31.5t118 -83.5t66.5 -119t21.5 -136q0 -68 -19.5 -119t-51 -88t-71.5 -61.5t-79 -36.5v-7q57 -10 113.5 -36.5t101.5 -70.5t73.5 -107.5t28.5 -149.5q0 -78 -24.5 -160t-80.5 -148.5t-146.5 -109.5t-219.5 -43q-111 0 -199.5 28.5t-152 80t-97.5 124t-34 162.5z " />
<glyph unicode="&#x10a6;" horiz-adv-x="1327" d="M57 1145q0 100 31 163.5t78 99.5t102.5 49t104.5 13q80 0 134 -20t89 -52t53.5 -72t27.5 -78t10 -69.5t1 -48.5v-372l258 346h137l-311 -381l10 -8q43 29 84 41t74 12q45 0 101.5 -12.5t107.5 -53t86 -120.5t35 -215q0 -57 -10.5 -128t-47 -132.5t-107.5 -102.5t-190 -41 t-186 43t-101 104.5t-43.5 129t-9.5 116.5v537q-43 -37 -89 -55.5t-111 -18.5q-143 0 -230.5 80t-87.5 246zM180 1145q0 -68 16.5 -111t44 -68.5t63.5 -34.5t75 -9q68 0 106.5 23.5t59 57t25.5 72.5t5 70q0 20 -4 58t-23.5 75t-59 63.5t-109.5 26.5q-29 0 -63.5 -7 t-64.5 -30.5t-50.5 -67.5t-20.5 -118zM688 367q0 -104 22.5 -164t56.5 -90.5t74 -38.5t77 -8t76.5 8t73.5 38.5t56.5 90t22.5 164.5q0 88 -18.5 146t-49 92t-72.5 47.5t-89 13.5t-89.5 -13.5t-73 -47.5t-49 -92t-18.5 -146z" />
<glyph unicode="&#x10a7;" horiz-adv-x="1861" d="M129 717q0 203 23.5 346t77 234.5t137.5 132t204 40.5q14 0 51 -2t83.5 -15t94.5 -40t85 -76q78 66 170 99.5t190 33.5q100 0 191.5 -35.5t161 -111.5t109.5 -191.5t40 -275.5q0 -104 -18.5 -217t-47 -225.5t-64.5 -218t-73 -195.5h-114q86 225 140 430t54 426 q0 145 -36 243.5t-91 158t-122.5 85t-129.5 25.5q-74 0 -156.5 -31t-148.5 -92q8 -23 21.5 -57.5t23.5 -96t18.5 -152.5t8.5 -222q0 -80 -3 -166t-15.5 -170t-40 -160t-76 -133t-123 -91t-183.5 -34q-121 0 -204.5 41t-137 132t-77 234.5t-23.5 346.5zM252 717 q0 -150 11 -270.5t45 -204.5t97.5 -130t165.5 -46q96 0 158 38.5t97.5 118.5t49 203t13.5 291q0 137 -9.5 256t-42 207t-96 138t-170.5 50q-115 0 -179 -58.5t-95 -150.5t-38 -208.5t-7 -233.5z" />
<glyph unicode="&#x10a8;" horiz-adv-x="1261" d="M115 842q0 135 31.5 250.5t95 199.5t161 131t228.5 47q117 0 212 -39.5t162.5 -117.5t104.5 -197t37 -274q0 -96 -17.5 -205t-47 -219.5t-66.5 -218t-74 -199.5h-115q35 88 70 192.5t63.5 210t46 208t17.5 188.5q0 158 -31.5 266.5t-86 176t-125 97t-150.5 29.5 t-150.5 -29.5t-125 -97t-86 -176.5t-31.5 -266q0 -78 16 -176.5t44 -205t63.5 -214t74.5 -203.5h-114q-43 100 -81 212t-66 222.5t-44 215t-16 192.5z" />
<glyph unicode="&#x10a9;" horiz-adv-x="1097" d="M57 358q0 61 15.5 114.5t40 93.5t53.5 62.5t53 22.5q25 0 32 -13t7 -22q0 -18 -12.5 -37.5t-28.5 -50.5q-20 -39 -28.5 -85t-8.5 -85q0 -55 21.5 -108t66.5 -94t111.5 -65.5t159.5 -24.5q158 0 254 94t96 264q0 68 -22.5 127t-65.5 104t-106.5 73t-145.5 34 q-18 0 -37.5 1t-36 7t-28 18.5t-11.5 34.5q0 37 20.5 50.5t51.5 19.5q35 6 69.5 15.5t63.5 28.5t46.5 57t17.5 104v336h110v-299q0 -35 -3 -81t-20.5 -90t-53.5 -78t-101 -44v-11q63 -4 130 -27.5t121 -71.5t89 -124t35 -184q0 -98 -32 -183t-91.5 -146.5t-147.5 -96.5 t-200 -35q-111 0 -200 28.5t-152.5 80t-97.5 124t-34 162.5z" />
<glyph unicode="&#x10aa;" horiz-adv-x="2056" d="M86 1085q0 102 33 175t85 119t115.5 67.5t122.5 21.5q109 0 191 -53t125 -180h8q12 43 38.5 85t65.5 74.5t90.5 53t116.5 20.5q39 0 80 -10t79 -36.5t68.5 -71.5t49.5 -115h8q39 119 129 176t190 57q59 0 116.5 -23.5t102 -67.5t72 -107.5t27.5 -143.5 q0 -51 -16.5 -110.5t-43 -109.5t-57.5 -82.5t-57 -32.5q-10 0 -22.5 7t-12.5 31q0 29 21.5 61t35.5 73q14 35 21.5 75.5t7.5 75.5q0 43 -9 88t-32 81t-59.5 59.5t-94.5 23.5q-41 0 -89 -12.5t-90 -53t-70.5 -118.5t-28.5 -209v-148h-113v148q0 55 -3 122.5t-22.5 128 t-64.5 101.5t-127 41q-88 0 -137 -41t-73.5 -101.5t-31 -128t-6.5 -122.5v-148h-112v148q0 66 -14.5 135.5t-46 126.5t-84 94t-128.5 37q-106 0 -168.5 -76t-62.5 -196q0 -104 43 -197.5t107.5 -168.5t139 -131t140.5 -87q92 -43 205.5 -69.5t240.5 -61.5 q106 -31 193.5 -63.5t162.5 -76.5t139.5 -101.5t129.5 -137.5h-162q-66 78 -152.5 135.5t-183 96t-195.5 62t-191.5 37t-170 17.5t-131.5 4q-66 0 -128 -5t-128 -15l-24 106q35 4 71.5 6t71.5 2q33 0 73 -3t66 -5l4 11q-84 49 -163.5 114.5t-142 146.5t-100.5 176t-38 199z " />
<glyph unicode="&#x10ab;" horiz-adv-x="974" d="M86 410q0 141 37 229t92 135t121.5 63.5t126.5 16.5q76 0 150.5 -28.5t119.5 -90.5v320q0 35 -1 88t-24.5 103t-78 86t-160.5 36q-88 0 -135 -26.5t-68.5 -67.5t-27 -89t-7.5 -93q-2 -23 -11 -46.5t-44 -23.5q-43 0 -50 31.5t-7 62.5q0 49 9 110.5t45 116t105.5 91 t190.5 36.5q141 0 218 -44t113 -108.5t41 -136t5 -126.5v-656q0 -41 -7.5 -113.5t-43 -144t-110.5 -125t-212 -53.5q-129 0 -206 44t-116.5 111.5t-52 145.5t-12.5 146zM209 410q0 -170 57.5 -257t204.5 -87q84 0 135 27.5t80 75.5t38 110.5t9 130.5q0 47 -6 106 t-31.5 111.5t-78 88.5t-146.5 36q-147 0 -204.5 -89.5t-57.5 -252.5z" />
<glyph unicode="&#x10ac;" horiz-adv-x="1036" d="M129 399v676q0 57 4 126t28.5 127t80 98t157.5 40q47 0 94.5 -7t88.5 -15q78 -14 114.5 -19.5t61.5 -5.5q23 0 51.5 5.5t54.5 13.5q25 8 44.5 20t35.5 12t32.5 -11t16.5 -38q0 -10 -7 -27.5t-30.5 -34t-69.5 -29.5t-126 -13q-51 0 -103 6q-47 6 -81.5 13t-62.5 13.5 t-51.5 10.5t-47.5 4q-68 0 -103 -28.5t-50 -71.5t-17 -93.5t-2 -95.5v-340q45 61 119.5 90t150.5 29q125 0 199.5 -45t114.5 -112.5t51.5 -145.5t11.5 -141q0 -66 -12.5 -144t-52.5 -145.5t-116.5 -112.5t-205.5 -45q-137 0 -212 52.5t-111 124t-43 145t-7 114.5zM242 410 q0 -68 9 -130.5t37.5 -110.5t80 -75.5t135.5 -27.5t135 27.5t80 74.5t38 109.5t9 132.5q0 49 -6 108.5t-32 111.5t-78 87t-146 35t-146.5 -36t-78 -88.5t-31.5 -111.5t-6 -106z" />
<glyph unicode="&#x10ad;" horiz-adv-x="1921" d="M115 856q0 184 47 303t117.5 187.5t153.5 96t153 27.5q43 0 92 -11t96 -40.5t89 -82t69 -132.5h8q27 80 69 132.5t89 82t96 40.5t92 11q74 0 156 -27.5t152.5 -96t116.5 -187.5t46 -303q0 -98 -19.5 -228t-72.5 -317l227 -274l-86 -74l-182 225q-16 -51 -32.5 -98 t-37.5 -90h-114q68 166 105.5 299t58 239.5t25.5 184.5t5 133q0 145 -32.5 243.5t-84 158t-113 85t-118.5 25.5q-39 0 -90 -15.5t-96 -56.5t-77 -112.5t-32 -182.5v-581h-112v581q0 100 -27 170t-70 114t-95 63.5t-101 19.5q-39 0 -98.5 -17.5t-115 -71.5t-95 -155.5 t-39.5 -267.5q0 -68 7 -148.5t27.5 -183t59.5 -232.5t100 -292h-115q-84 211 -143 429t-59 427z" />
<glyph unicode="&#x10ae;" horiz-adv-x="1003" d="M57 322q0 29 3 66.5t11.5 72.5t25 58.5t40.5 23.5q29 0 40 -15.5t11 -27.5q0 -29 -3 -38t-6 -17.5t-6 -23.5t-3 -56q0 -80 25.5 -136.5t69.5 -92.5t104.5 -53t128.5 -17q66 0 121 21.5t94 60t60.5 93t21.5 117.5q0 70 -19.5 125.5t-64.5 100.5q-49 49 -105.5 73.5 t-104.5 44t-80 42t-32 67.5q0 43 36 67.5t87 51.5q16 8 37.5 20.5t41 27.5t33 34.5t13.5 42.5q0 29 -17.5 48t-45 36.5t-59.5 34t-62 36.5q-88 61 -117 111.5t-29 83.5t14.5 49t30.5 16q35 0 39 -13t8 -35.5t24.5 -54.5t90.5 -69q41 -23 82 -42t75 -44.5t54 -60.5t20 -86 q0 -18 -5 -42t-18 -48.5t-35.5 -48t-55.5 -41.5q-16 -8 -39 -15.5t-42.5 -16.5t-33.5 -20.5t-14 -25.5q0 -12 14 -19.5t36.5 -14.5t49.5 -13t49 -15q98 -35 152.5 -91t79 -114.5t30 -107.5t5.5 -72q0 -84 -29 -156.5t-83 -125.5t-132 -84t-174 -31q-82 0 -162 21.5 t-142.5 65.5t-100.5 111.5t-38 160.5z" />
<glyph unicode="&#x10af;" horiz-adv-x="1138" d="M72 305q0 63 20.5 115.5t51 89.5t64.5 57.5t58 20.5q29 0 35 -15.5t6 -25.5q0 -20 -17.5 -35.5t-35.5 -36.5q-59 -66 -59 -170q0 -47 22.5 -90t67.5 -76t110.5 -53t149.5 -20q57 0 117.5 15t109.5 62t80 134.5t31 232.5v778q-31 -31 -81 -60.5t-128 -29.5q-59 0 -111 14 l-6 -4q29 -41 38 -82t9 -69q0 -49 -17.5 -94t-50 -79t-78.5 -54.5t-104 -20.5q-70 0 -117 21.5t-74.5 53t-39.5 67.5t-12 63q0 63 21.5 101t49.5 38q12 0 27.5 -9t15.5 -38q0 -16 -4 -39t-4 -37q0 -35 13.5 -57.5t33 -35.5t42 -19.5t40.5 -6.5q20 0 46 6.5t47.5 23.5t37 48 t15.5 78q0 59 -35 124.5t-99 102.5l56 78q53 -35 119.5 -53.5t119.5 -18.5q51 0 119 31t113 103h110v-924q0 -47 -4 -105.5t-18.5 -119t-44 -118.5t-79.5 -103.5t-126 -73t-182 -27.5q-100 0 -186.5 24.5t-149 69.5t-98 107.5t-35.5 140.5z" />
<glyph unicode="&#x10b0;" horiz-adv-x="1417" d="M86 504q0 125 44 220t112.5 171t150.5 134t160 108q111 72 183.5 139t123.5 158h123q-55 -127 -141 -207t-178 -137q-53 -33 -104.5 -63t-101.5 -63.5t-97.5 -74.5t-92.5 -98l6 -7q41 27 83 37t83 10q70 0 118 -24.5t80 -60t49.5 -75.5t25.5 -69h8q27 96 104.5 162.5 t196.5 66.5q82 0 140.5 -31.5t96 -82.5t55 -115.5t17.5 -130.5q0 -72 -31.5 -161t-76.5 -165.5t-93.5 -129t-80.5 -52.5q-18 0 -28.5 11.5t-10.5 25.5q0 16 21.5 50t68.5 112q47 76 77.5 154.5t30.5 183.5q0 68 -19.5 111.5t-49 69.5t-64.5 37t-65 11q-59 0 -105.5 -29.5 t-77 -75.5t-47 -104.5t-16.5 -116.5v-186h-113v186q0 68 -13 126.5t-41 103.5t-69 70.5t-96 25.5q-111 0 -167 -70.5t-56 -177.5q0 -86 29.5 -164.5t76.5 -156.5q25 -41 45.5 -67.5t35 -43t21.5 -28t7 -21.5q0 -14 -10.5 -25.5t-32.5 -11.5q-39 0 -89 54.5t-96 135t-78 176 t-32 175.5z" />
<glyph unicode="&#x10b1;" horiz-adv-x="1003" d="M143 381v1053h113v-1053q0 -25 5 -77t33 -105.5t87 -93t168 -39.5q74 0 126 18t85 47t48 67t15 78q0 68 -28.5 113t-69.5 94q-35 43 -60.5 91.5t-25.5 113.5q0 53 22.5 78t47.5 25q27 0 34 -12.5t7 -20.5q0 -10 -3.5 -23.5t-3.5 -34.5q0 -35 11.5 -62.5t30 -52t41 -47 t42.5 -46.5q37 -43 57.5 -95.5t20.5 -117.5q0 -59 -25.5 -116t-75.5 -102t-127 -71.5t-179 -26.5q-96 0 -163 24.5t-111 64.5t-68.5 88t-37 94.5t-14.5 86t-2 60.5z" />
<glyph unicode="&#x10b2;" horiz-adv-x="1368" d="M86 522q0 129 42 229.5t111.5 171t161 111.5t189.5 51q-14 14 -34.5 38t-39 52.5t-32 60.5t-13.5 62q0 55 24.5 89t58.5 52.5t69.5 24.5t60.5 6t60.5 -6t69.5 -24.5t58.5 -52t24.5 -89.5q0 -31 -13.5 -62.5t-31.5 -60t-39 -52.5t-35 -38q98 -10 189.5 -51t161 -111.5 t111.5 -171t42 -229.5q0 -102 -36 -202.5t-109.5 -179.5t-186 -128t-266.5 -49q-129 0 -238.5 40t-189.5 112.5t-125 176t-45 230.5zM209 530q0 -98 31.5 -183t93 -147.5t149.5 -98t201 -35.5t201 35.5t149.5 98t93 147.5t31.5 183q0 104 -32.5 184.5t-87 136.5t-123 90 t-140.5 44l-4 -8q20 -20 43 -44t41 -50.5t29.5 -56t11.5 -62.5q0 -25 -10 -53.5t-35 -54t-66 -42t-102 -16.5q-29 0 -65.5 7t-69.5 25.5t-55.5 51.5t-22.5 82q0 68 41 119t84 94l-4 8q-72 -10 -140.5 -44t-123 -90t-87 -136t-32.5 -185zM565 770q0 -29 26.5 -59.5 t92.5 -30.5t92.5 30.5t26.5 59.5t-25.5 81t-93.5 124q-68 -72 -93.5 -121t-25.5 -84zM565 1292q0 -23 12.5 -50.5t30 -56t38 -54t38.5 -41.5q18 18 38.5 43.5t39 52t30 54.5t11.5 52q0 35 -29 66t-90 31t-90 -31t-29 -66z" />
<glyph unicode="&#x10b3;" horiz-adv-x="1468" d="M57 1100q0 109 27 163t57 54q10 0 26.5 -8.5t16.5 -34.5q0 -35 -11 -82t-11 -82q0 -66 33.5 -99.5t87.5 -33.5q45 0 71.5 22.5t40 59.5t20.5 82t13 90q6 39 18.5 81t38 77.5t69.5 58t116 22.5t125 -37.5t69 -99.5h10q12 43 39 70t57.5 42t61.5 20t53 5q41 0 86.5 -12 t82 -44t61 -89t24.5 -147v-727q0 -104 -31.5 -193.5t-94 -155t-154.5 -102.5t-211 -37q-111 0 -200 30t-150.5 84t-95 130t-33.5 168q0 49 10 93t27.5 75.5t38 50t38.5 18.5q8 0 26.5 -6t18.5 -41q0 -23 -7 -43t-13 -43q-16 -55 -16 -104q0 -57 20 -112.5t63 -99.5 t111 -70.5t162 -26.5q12 0 46 3t76 14t87 35.5t83 67.5t62.5 107.5t24.5 157.5v727q0 12 -2 42.5t-15.5 63.5t-43 58.5t-83.5 25.5q-18 0 -44.5 -5t-53.5 -23.5t-45 -56.5t-18 -105v-289h-113v289q0 102 -43 146t-100 44q-47 0 -74 -22.5t-42 -56.5t-21.5 -76t-10.5 -80 q-4 -29 -13 -73t-34 -85t-69 -71t-117 -30q-25 0 -64 5.5t-74.5 28t-62.5 67.5t-27 125z" />
<glyph unicode="&#x10b4;" horiz-adv-x="1634" d="M57 1061q0 137 39 219t96.5 124t125 54t122.5 12q39 0 83 -6t87 -26.5t82 -58.5t64 -101q31 57 69.5 95t84.5 59.5t95.5 29.5t98.5 8q121 0 196.5 -35.5t118.5 -89t58.5 -112.5t15.5 -105q0 -76 -24.5 -133t-62.5 -97t-82 -65.5t-81 -37.5v-7q39 -8 91 -28.5t100.5 -62.5 t81 -108.5t32.5 -164.5q0 -80 -25.5 -162t-83 -148.5t-150.5 -108.5t-228 -42q-117 0 -207 26.5t-150.5 73t-92 107.5t-31.5 131q0 47 14 90t35.5 75t48.5 51.5t49 19.5q23 0 31 -12.5t8 -22.5q0 -16 -14.5 -33.5t-24.5 -34.5q-16 -27 -26.5 -66.5t-10.5 -66.5 q0 -45 23.5 -87t69.5 -75t116 -53t162 -20q80 0 146.5 24.5t115.5 70.5t75.5 112.5t26.5 150.5q0 72 -25.5 128t-70.5 96t-106.5 61.5t-135.5 21.5h-57v103h31q76 0 136 22.5t100 62t61.5 94t21.5 115.5q0 117 -74.5 178.5t-205.5 61.5q-94 0 -149.5 -32.5t-85 -81 t-40 -103.5t-12.5 -102q-4 -61 -17.5 -134t-52 -135.5t-112.5 -103.5t-199 -41q-61 0 -126.5 17.5t-121 63.5t-91.5 129t-36 216zM180 1055q0 -47 8.5 -102.5t35 -102.5t75.5 -80t131 -33q92 0 143.5 34t78 82t32.5 102.5t6 95.5q0 23 -4 75t-26.5 106t-73.5 95t-146 41 q-88 0 -140 -30.5t-78.5 -78t-34 -102.5t-7.5 -102z" />
<glyph unicode="&#x10b5;" horiz-adv-x="1062" d="M72 305q0 63 20.5 115.5t51 89.5t64.5 57.5t58 20.5q29 0 35 -15.5t6 -25.5q0 -20 -17.5 -35.5t-35.5 -36.5q-59 -66 -59 -170q0 -35 16 -77t53 -77.5t97.5 -60t150.5 -24.5q66 0 120 15t93 54t60.5 101.5t21.5 158.5v58q0 86 -22.5 161.5t-64.5 132t-101.5 89 t-133.5 32.5q-53 0 -104 -26q-23 -12 -45.5 -25.5t-50.5 -13.5q-29 0 -35 16.5t-6 26.5q0 27 18.5 51.5t51 42.5t75.5 29.5t90 11.5q82 0 169 -44t159 -165v545l-248 -197l-59 80l305 234h115v-1039q0 -131 -35 -215t-93.5 -132t-132 -66.5t-151.5 -18.5q-92 0 -172 23.5 t-138.5 68.5t-92 108.5t-33.5 141.5z" />
<glyph unicode="&#x10b6;" horiz-adv-x="1517" d="M86 1018q0 209 98.5 330.5t272.5 121.5q37 0 84 -9t93 -35.5t86 -76t62 -130.5q33 117 123 184t209 67q76 0 134.5 -27.5t99.5 -75.5t62.5 -113.5t21.5 -143.5q0 -49 -12.5 -102.5t-34 -98.5t-48 -73.5t-55.5 -28.5t-29 31q0 16 7.5 34.5t21.5 65.5q10 41 18.5 81t8.5 87 q0 121 -50.5 191.5t-146.5 70.5q-72 0 -124 -31.5t-86 -84t-51 -119t-17 -136.5v-141h-113v141q0 94 -22.5 164t-61.5 116t-88 68.5t-100 22.5q-41 0 -83 -17.5t-77 -58.5t-57.5 -108.5t-22.5 -165.5q0 -195 141 -346q61 -66 147.5 -107t185.5 -73.5t206.5 -66.5t210 -86 t196 -133t164.5 -206h-153q-74 100 -178.5 175t-222.5 124t-240.5 72.5t-231.5 23.5q-49 0 -99 -7t-99 -19l-60 100q47 10 95 17.5t100 11.5v10q-90 59 -145.5 128t-86 137.5t-42 132t-11.5 112.5z" />
<glyph unicode="&#x10b7;" horiz-adv-x="1089" d="M72 276q0 43 12 86.5t31.5 77t43 55t48.5 21.5q41 0 41 -35q0 -16 -8.5 -30.5t-16.5 -26.5q-29 -49 -28 -127q0 -59 19 -98t50 -66t68 -40t72.5 -19t64.5 -7t43 -1q53 0 109.5 11t103.5 46t78 99.5t31 172.5v754h-9q-27 -55 -68.5 -98t-91 -74t-104.5 -46.5t-108 -15.5 q-57 0 -110.5 17.5t-95.5 50.5t-67.5 82t-25.5 113q0 45 9 86t24.5 72.5t35 50t39.5 18.5q10 0 22.5 -8t12.5 -35q0 -20 -7 -38.5t-14 -39.5q-6 -20 -8 -39.5t-2 -40.5q0 -88 57.5 -137t145.5 -49q37 0 89 15.5t105.5 60.5t101.5 127t77 213h104v-1039q0 -78 -16.5 -154.5 t-63.5 -138t-133 -100.5t-225 -39q-96 0 -176 21.5t-138.5 62.5t-90 98.5t-31.5 130.5z" />
<glyph unicode="&#x10b8;" horiz-adv-x="1404" d="M57 1204q0 61 22.5 110.5t63.5 83.5t96.5 52t120.5 18q37 0 75 -8t75 -30.5t69.5 -62.5t57.5 -101h8q33 88 112 145t195 57q51 0 108.5 -15t105.5 -58t79 -120t31 -200v-676q0 -53 -10.5 -127.5t-47 -143.5t-111.5 -117t-204 -48t-205.5 45t-116.5 111.5t-52.5 144.5 t-12.5 146q0 63 11.5 141t51 145.5t113.5 112.5t201 45q72 0 149.5 -29.5t120.5 -89.5v340q0 141 -52 216t-159 75q-43 0 -90 -13.5t-85 -49t-63.5 -98t-25.5 -158.5h-113q-2 68 -13 126t-37.5 101t-67.5 67.5t-101 24.5q-18 0 -49 -4t-61.5 -20.5t-53 -49t-22.5 -90.5 q0 -23 5 -45t15 -43q10 -18 18.5 -32.5t8.5 -30.5q0 -23 -14.5 -32t-26.5 -9q-39 0 -79 49t-40 145zM639 410q0 -70 9 -132.5t38 -109.5t80 -74.5t135 -27.5t135 27.5t80 75.5t38 110.5t9 130.5q0 47 -6 106t-31.5 111.5t-78 88.5t-146.5 36t-146.5 -35t-78 -87 t-31.5 -111.5t-6 -108.5z" />
<glyph unicode="&#x10b9;" horiz-adv-x="997" d="M143 0v1161q0 80 25 137.5t63.5 96.5t89 57t101.5 18q43 0 83 -14t70.5 -42t49 -68.5t18.5 -96.5q0 -74 -28.5 -131t-81 -104t-123 -87t-154.5 -77v-199q88 90 170 116t145 26q158 0 249 -99.5t91 -273.5q0 -100 -22.5 -216t-61.5 -204h-110q29 104 50 198.5t21 202.5 q0 88 -20 144.5t-53 89.5t-73 44t-77 11q-90 0 -173 -45t-136 -104v-541h-113zM256 942q45 16 94 45t89 68t65.5 88t25.5 106q0 66 -37.5 92.5t-84.5 26.5q-18 0 -44 -7t-50.5 -28.5t-41 -61.5t-16.5 -104v-225z" />
<glyph unicode="&#x10ba;" horiz-adv-x="1468" d="M115 641q0 109 22.5 210t62.5 198.5t97 192.5t129 192h125q-59 -76 -114.5 -169.5t-100.5 -194.5t-71.5 -208.5t-26.5 -214.5q0 -156 51 -266.5t134 -180t187.5 -102t210.5 -32.5q117 0 200 33.5t136 86t78 118t25 128.5q0 106 -49.5 170t-117 97.5t-139 44t-116.5 10.5 v102l45 2q39 2 93 8t104 27.5t85 66t35 119.5q0 45 -18.5 73t-44 45t-55 26.5t-50.5 15.5q-98 33 -154.5 81t-56.5 93q0 33 14.5 45t30.5 12q20 0 32.5 -11t30 -28.5t44 -38t76.5 -40.5q39 -16 86 -34t86 -46.5t65.5 -73.5t26.5 -117q0 -47 -16.5 -92t-46 -82t-72.5 -63.5 t-97 -38.5v-8q133 -25 217 -119t84 -234q0 -92 -34.5 -179t-105.5 -154.5t-176 -107.5t-245 -40q-178 0 -311 56.5t-220 150.5t-131 216t-44 255z" />
<glyph unicode="&#x10bb;" horiz-adv-x="960" d="M57 410q0 141 37 229t92.5 135t122 63.5t125.5 16.5q76 0 150.5 -28.5t120.5 -90.5v699h112v-1035q0 -41 -7 -113.5t-43 -144t-110.5 -125t-212.5 -53.5q-129 0 -205.5 44t-116.5 111.5t-52.5 145.5t-12.5 146zM180 410q0 -170 57.5 -257t204.5 -87q84 0 135.5 27.5 t80 75.5t38 110.5t9.5 130.5q0 47 -6.5 106t-32 111.5t-77.5 88.5t-147 36q-147 0 -204.5 -89.5t-57.5 -252.5z" />
<glyph unicode="&#x10bc;" horiz-adv-x="1155" d="M86 1206q0 47 15.5 94.5t47 85t79.5 61t114 23.5q92 0 155.5 -47t86.5 -127h8q8 25 25.5 55.5t46 58.5t69.5 47.5t98 19.5q104 0 171 -67t67 -163q0 -35 -9 -74.5t-25.5 -73.5t-38 -56.5t-44.5 -22.5q-8 0 -24.5 6t-16.5 39q0 23 10.5 43t20.5 43q8 16 11 35.5t3 38.5 q0 68 -41 108.5t-96 40.5q-29 0 -60.5 -12t-58 -42t-44 -78t-17.5 -120v-63h-113v63q0 92 -24.5 141.5t-55 73t-61.5 27.5t-43 4q-53 0 -98 -44t-45 -136q0 -43 8 -72t12 -39l86 -231h658l-375 -846h-84l-383 1032q-14 39 -24.5 85t-10.5 89zM342 743l211 -565l250 565h-461 z" />
<glyph unicode="&#x10bd;" horiz-adv-x="1269" d="M86 371q0 20 3 44.5t11.5 46t21.5 35t34 13.5q20 0 29.5 -8t13.5 -18.5t4 -24v-21.5q0 -27 -2 -50t-2 -46q0 -123 95 -199.5t255 -76.5q76 0 142.5 19t115.5 58t76.5 95.5t27.5 128.5q0 76 -37.5 159.5t-89.5 153.5q-78 -37 -136 -57.5t-100 -31.5t-68.5 -14.5 t-43.5 -3.5q-84 0 -137 45.5t-53 129.5q0 66 24.5 101.5t56 53t63.5 21.5t46 4q100 0 179 -32t169 -77q51 106 59.5 161.5t8.5 70.5q0 59 -26.5 94t-63.5 54.5t-76 26.5t-63 11q-66 8 -130.5 22.5t-130.5 61.5v-195q0 -31 -19 -46t-38 -15q-16 0 -35.5 13.5t-19.5 47.5v308 h112q27 -23 55.5 -37.5t63.5 -24.5t78 -17t98 -16q37 -6 90.5 -18t101.5 -41t82 -79t34 -132q0 -57 -17.5 -110.5t-56.5 -116.5l8 -4l301 135l39 -76l-334 -152l336 -174l-43 -73l-262 147l-6 -10q53 -68 78.5 -132.5t25.5 -142.5q0 -94 -38 -167.5t-102.5 -125t-151.5 -78 t-185 -26.5q-129 0 -219 37t-145.5 95.5t-81 131t-25.5 144.5zM358 752q0 -10 3.5 -24.5t13.5 -27t29.5 -21.5t50.5 -9q66 0 154.5 25.5t160.5 56.5q-33 14 -72 28.5t-79.5 26.5t-82.5 19.5t-79 7.5q-53 0 -76 -27t-23 -55z" />
<glyph unicode="&#x10be;" horiz-adv-x="960" d="M143 399v1035h113v-619l193 275h143l-252 -310l8 -8q35 27 82 50.5t113 23.5q33 0 93 -8.5t119.5 -49t103.5 -129t44 -249.5q0 -66 -12 -144t-52 -145.5t-117 -112.5t-206 -45q-137 0 -212 52.5t-110.5 124t-43 145t-7.5 114.5zM256 410q0 -68 9 -130.5t38 -110.5 t80 -75.5t135 -27.5t135.5 27.5t80 74.5t37.5 109.5t9 132.5q0 68 -9 129t-37.5 109t-80 77t-135.5 29t-135 -29t-80 -77t-38 -110.5t-9 -127.5z" />
<glyph unicode="&#x10bf;" horiz-adv-x="1794" d="M57 1221q0 57 31 104t78 80t102.5 50.5t106.5 17.5q45 0 81 -16.5t63.5 -41t48 -54.5t36.5 -54l295 -478l393 340q23 18 39.5 39t16.5 56t-28 70.5t-65 35.5q-20 0 -47.5 -15.5t-77.5 -51.5q-41 -31 -63.5 -48.5t-40.5 -17.5q-16 0 -30.5 10t-14.5 33q0 27 28.5 60.5 t70.5 62.5t88 49.5t83 20.5q49 0 88 -20.5t66 -51.5t41 -68t14 -69q0 -59 -31.5 -99.5t-54.5 -60.5l-420 -365l336 -546q33 -53 69 -90t101 -37q39 0 70 15t52.5 39.5t32.5 54.5t11 56q0 29 -13.5 60t-29.5 55q-16 23 -32.5 48.5t-16.5 54.5q0 12 8 31.5t41 19.5 q31 0 59.5 -31t49 -75t33 -91t12.5 -80q0 -49 -21.5 -95t-58.5 -83t-86 -59.5t-105 -22.5q-96 0 -156.5 44t-111.5 126l-332 539l-346 -301q49 -12 93 -38t78 -63t54.5 -86t20.5 -110q0 -63 -21.5 -116.5t-59.5 -91.5t-92 -59.5t-118 -21.5q-84 0 -141.5 29.5t-93 71.5 t-52 85t-16.5 72q0 35 15.5 42t25.5 7q14 0 25.5 -13t22.5 -32.5t27.5 -45.5t41.5 -50q27 -29 62.5 -46.5t82.5 -17.5q61 0 114.5 48.5t53.5 148.5q0 55 -25.5 95t-68.5 66.5t-101.5 42t-125.5 23.5v23l489 426l-307 500q-33 53 -68 81.5t-82 28.5q-18 0 -49 -8t-61.5 -25.5 t-52 -46t-21.5 -69.5q0 -37 14.5 -69t26.5 -54q33 -59 33 -82t-14.5 -37t-34.5 -14q-27 0 -51.5 29.5t-44 71.5t-31 85t-11.5 70z" />
<glyph unicode="&#x10c0;" horiz-adv-x="968" d="M86 301q0 76 17.5 108.5t52.5 32.5q29 0 35 -26.5t8 -67.5q0 -18 4 -64t31.5 -95.5t88 -86t171.5 -36.5q74 0 125 21.5t82.5 54t45 72.5t13.5 75q0 51 -18.5 90t-47 68.5t-61.5 50t-64 34.5q-41 18 -102 42t-120.5 50.5t-101.5 57.5t-42 68q0 8 7 23t36 15t52.5 -15 t70.5 -38q82 -39 136 -61.5t101 -22.5q45 0 79 30t34 77q0 35 -16.5 60.5t-41 43t-51 28.5t-45.5 19q-63 25 -125.5 49.5t-111.5 49t-80 50t-31 50.5q0 12 10.5 22.5t26.5 10.5q25 0 59.5 -16.5t89.5 -39.5q14 -6 40 -17t55.5 -20.5t58.5 -16.5t51 -7q14 0 31.5 6t33 18.5 t26 33t10.5 48.5q0 41 -22.5 67t-58.5 43t-78 28.5t-81 23.5q-47 14 -88 29.5t-74 33t-51 36t-18 39.5q0 14 10 27t31 13q23 0 49 -13t63 -32q53 -27 93 -36t94 -23q53 -14 98 -32.5t76.5 -46t50 -65.5t18.5 -89q0 -59 -38 -111.5t-107 -58.5v-11q72 -29 113.5 -71.5 t41.5 -108.5t-41.5 -122t-113.5 -72q98 -41 152.5 -120t54.5 -165q0 -41 -15.5 -98.5t-57.5 -108.5t-118 -87t-198 -36q-109 0 -186 31t-126 80t-72.5 108.5t-23.5 118.5z" />
<glyph unicode="&#x10d0;" horiz-adv-x="894" d="M115 274q0 33 10 80t41 99l72 -19q-16 -41 -22.5 -81t-6.5 -74q0 -106 69.5 -170t178.5 -64q68 0 112.5 24.5t70.5 60.5t36 78t10 77q0 59 -21.5 102t-53 74t-67.5 50t-63 32q-25 10 -48 21t-41.5 27.5t-30 43.5t-11.5 70v32.5t2 32.5h72q0 -63 24.5 -88t65.5 -47 q33 -18 79 -44t88 -65t70.5 -96t28.5 -139q0 -63 -20.5 -121.5t-61.5 -105t-101 -74t-142 -27.5q-92 0 -158 28.5t-105.5 73t-58 99.5t-18.5 110z" />
<glyph unicode="&#x10d1;" horiz-adv-x="1032" d="M115 365q0 80 24.5 137t60.5 99t76.5 71.5t75.5 54.5q59 43 91 80t45.5 71.5t15.5 70.5t2 75q0 57 -21.5 99t-54.5 70t-75 42t-81 16q-2 -35 -6 -75.5t-10 -79.5t-13 -73t-14 -54l-65 12q12 51 19.5 106.5t10.5 102.5t3 82v47q0 39 -4.5 71.5t-8.5 65.5h88 q2 -29 11.5 -48t29 -34.5t49 -32t70.5 -41.5q57 -33 89 -62.5t49.5 -58t21.5 -56t6 -54.5q2 -20 1 -39.5t-1 -40.5q-2 -61 4 -100t20.5 -65.5t34 -46t46.5 -42.5q37 -33 74.5 -71.5t68.5 -86t50.5 -103.5t19.5 -124q0 -72 -24 -140.5t-73 -123.5t-126 -89t-183 -34 q-94 0 -168 32t-125 87t-77.5 128t-26.5 155zM209 360q0 -55 17.5 -111t56.5 -101.5t98 -74t143 -28.5q82 0 139.5 26.5t93.5 70.5t51 99.5t15 110.5q0 66 -23.5 121t-63.5 105.5t-91 98.5t-106 99q-72 -57 -132.5 -102t-104.5 -90t-68.5 -97.5t-24.5 -126.5z" />
<glyph unicode="&#x10d2;" horiz-adv-x="944" d="M86 477q0 57 21.5 107.5t58.5 88.5t87 59.5t107 21.5q20 0 60.5 -9.5t78.5 -40t66.5 -88t28.5 -151.5q0 -41 -2 -66.5t-4 -44t-4 -34t-2 -33.5q0 -20 2 -38t12 -37t29.5 -43t56.5 -56q37 -35 74 -72t65.5 -81t47 -97t18.5 -121q0 -80 -28 -148.5t-78 -118.5t-122.5 -78 t-162.5 -28q-86 0 -161 26.5t-129 76t-86 120t-32 158.5q0 82 24.5 139.5t61.5 99.5t81 72.5t85 61.5q35 27 64.5 53.5t51 59t33 74.5t11.5 100q0 94 -18.5 147t-44 79t-53.5 31t-46 5q-41 0 -73 -16.5t-52 -42t-30.5 -59.5t-10.5 -71q0 -39 14.5 -83t30.5 -74l-55 -37 q-49 55 -62.5 107.5t-13.5 80.5zM182 -254q0 -66 22.5 -120t64.5 -93t99.5 -60.5t125.5 -21.5q63 0 118.5 18.5t95.5 55.5t62.5 90t22.5 123q0 68 -19.5 117t-55.5 94t-88 95t-118 120q-72 -55 -131 -100.5t-104.5 -91.5t-70 -99t-24.5 -127z" />
<glyph unicode="&#x10d3;" horiz-adv-x="1417" d="M115 350q0 104 30.5 180t77.5 125.5t104.5 73t110.5 23.5q63 0 144.5 -33t140.5 -117q16 27 39.5 54.5t55.5 49t72 35t91 13.5q80 0 140.5 -35t100.5 -91.5t60.5 -127t20.5 -142.5t-20.5 -142.5t-60.5 -126.5t-100.5 -91t-140.5 -35t-140.5 35t-100.5 92t-60.5 127 t-20.5 141q0 76 23 156q-35 68 -104.5 112t-143.5 44q-41 0 -82 -19.5t-72.5 -59.5t-51 -100.5t-19.5 -142.5q0 -84 24.5 -177t74.5 -183t127 -170t181 -135q66 -35 130.5 -62t129 -59.5t131 -77.5t136.5 -115h-154q-53 61 -123.5 104.5t-151.5 70t-169 38.5t-174 12 q-49 0 -95 -6v90q51 6 74 8.5t31 2.5h29.5t29.5 -2q-63 55 -121.5 125.5t-103.5 154.5t-72.5 180.5t-27.5 202.5zM754 358q0 -66 17 -123t48 -99t72 -66.5t90 -24.5q37 0 78 19.5t73.5 57.5t54 97.5t21.5 138.5q0 68 -17 126.5t-47 99.5t-72 64.5t-91 23.5q-59 0 -101 -30 t-71 -75t-42 -101t-13 -108z" />
<glyph unicode="&#x10d4;" horiz-adv-x="917" d="M57 -313q0 121 46.5 191.5t97.5 105.5l49 -54q-66 -57 -82 -118.5t-16 -106.5q0 -47 16 -93t49 -82t83 -57.5t118 -21.5q96 0 150.5 36t80 84t31.5 98t6 79v596q0 117 -19.5 182.5t-51 97t-71.5 40t-79 8.5q-74 0 -120 -21.5t-71.5 -54.5t-35 -73t-9.5 -74 q0 -43 17.5 -98.5t40.5 -102.5l-82 -35q-29 55 -49.5 110.5t-20.5 108.5q0 59 18.5 116.5t57.5 103.5t100.5 74t147.5 28q119 0 182.5 -42t93 -104.5t34.5 -134.5t5 -129v-594q0 -49 -9 -114.5t-46 -125t-107.5 -100.5t-193.5 -41q-74 0 -139.5 20.5t-114.5 61.5t-78 99.5 t-29 136.5z" />
<glyph unicode="&#x10d5;" horiz-adv-x="833" d="M57 -283q0 8 3 37t14.5 66t36 77t67.5 74l49 -47q-41 -41 -58 -102.5t-17 -118.5q0 -47 15 -92t48 -80t85 -57.5t128 -22.5q94 0 145.5 39t76 91t28.5 104.5t4 76.5q0 113 -32 179.5t-78 100.5t-96 42t-89 6v68q39 -4 85 4t86 37.5t67.5 84t27.5 144.5q0 82 -21.5 130 t-53 73.5t-66.5 33t-61 7.5q-78 0 -124 -31t-70 -74t-30 -87t-6 -70q0 -25 1 -50.5t5 -50.5l-86 -4q-8 47 -8 103q0 164 82 255t227 91q72 0 123 -19.5t85 -48.5t53.5 -64.5t29.5 -68.5t12.5 -58.5t2.5 -35.5q0 -25 -2.5 -71t-18.5 -96t-52 -95t-102 -66v-8q74 -23 115 -71 t60.5 -102t23.5 -102.5t4 -72.5q0 -20 -2 -58.5t-13 -83.5t-35 -92t-63.5 -85t-101 -62.5t-149.5 -24.5q-96 0 -163 29t-110 78t-62.5 111.5t-19.5 129.5z" />
<glyph unicode="&#x10d6;" horiz-adv-x="1234" d="M57 1196q0 66 18.5 122t51.5 98t80 65.5t106 23.5q131 0 192.5 -84t61.5 -225v-405l307 356v-123l-307 -346v-76q10 23 29.5 49.5t48.5 49t68 38t88 15.5q68 0 126 -29t101 -81t67.5 -125t24.5 -161q0 -90 -24.5 -162.5t-67.5 -124t-101.5 -80t-125.5 -28.5 q-68 0 -127.5 28.5t-102.5 80t-67.5 124t-24.5 162.5v611q-25 -35 -62.5 -58.5t-103.5 -23.5q-61 0 -109 23.5t-81 64.5t-49.5 98t-16.5 123zM152 1196q0 -43 9 -84t29.5 -72.5t51 -51t71.5 -19.5q43 0 73 18.5t49.5 50t28.5 72.5t9 86q0 66 -15.5 110t-39 69.5t-52 36.5 t-53.5 11q-70 0 -115.5 -60.5t-45.5 -166.5zM573 358q0 -66 17.5 -123t48.5 -99t72 -66.5t90 -24.5q47 0 88 24.5t71.5 66.5t48 99.5t17.5 122.5q0 53 -13.5 108.5t-41 101.5t-70.5 75t-100 29q-59 0 -101.5 -29t-71 -75t-42 -101t-13.5 -109z" />
<glyph unicode="&#x10d7;" horiz-adv-x="1468" d="M115 358q0 88 26.5 162t73.5 125t109.5 80t134.5 29q109 0 176 -49.5t104 -108.5q39 55 82 87t83 47t74 19.5t56 4.5q72 0 130.5 -26t100.5 -70t65.5 -106.5t23.5 -135.5q0 -152 -79 -261.5t-226 -191.5l-29 49q66 39 112 88.5t74.5 103.5t41 110.5t12.5 109.5 q0 45 -14.5 89t-43 79t-72 57.5t-100.5 22.5q-98 0 -159.5 -50.5t-88.5 -115.5q20 -70 21 -148q0 -90 -26.5 -162.5t-74 -124t-110 -80t-133.5 -28.5q-72 0 -135.5 28.5t-109.5 80t-72.5 124t-26.5 162.5zM209 358q0 -66 18.5 -123t52 -99t80 -66.5t99.5 -24.5t99 24.5 t80 66.5t52.5 99.5t18.5 122.5q0 53 -14.5 108.5t-45.5 101.5t-78 75t-112 29q-66 0 -113 -29t-77.5 -75t-45 -101t-14.5 -109z" />
<glyph unicode="&#x10d8;" horiz-adv-x="970" d="M115 367q0 82 28.5 153.5t78.5 122.5t118 81t145 30q76 0 143.5 -30t119 -82t80 -122.5t28.5 -152.5q0 -66 -18.5 -124.5t-48 -108.5t-69.5 -94t-83 -77l-37 35q63 63 112.5 156.5t49.5 203.5q0 63 -19.5 121t-55.5 101t-87 67.5t-115 24.5q-63 0 -114.5 -24.5t-87 -66.5 t-55 -99.5t-19.5 -123.5q0 -25 4 -61.5t21.5 -83.5t49 -101.5t87.5 -113.5l-35 -35q-111 92 -166 188.5t-55 215.5z" />
<glyph unicode="&#x10d9;" horiz-adv-x="849" d="M57 -305q0 104 37 170.5t84 105.5l49 -47q-41 -41 -58 -102.5t-17 -118.5q0 -59 20.5 -105.5t55 -79t81.5 -50t101 -17.5q98 0 151 40t77 99.5t28 130t4 132.5q0 41 -4 96t-22.5 105t-58.5 85t-112 35q-43 0 -72.5 -12t-52.5 -35l-29 74q90 37 147.5 71.5t89.5 78.5 t44 102.5t12 142.5q0 41 -6 88t-14 86h108q12 -74 13 -160q0 -88 -12.5 -149.5t-31 -103.5t-42 -68.5t-47.5 -42.5v-13q59 -12 96 -44.5t56.5 -84t25.5 -115t6 -136.5q0 -84 -8 -169t-44 -156t-111 -115t-206 -44q-82 0 -145.5 24.5t-106.5 68.5t-64.5 103.5t-21.5 129.5z " />
<glyph unicode="&#x10da;" horiz-adv-x="1761" d="M115 367q0 92 23.5 164.5t64.5 121.5t95 75t116 26q66 0 136.5 -36t117.5 -114q41 84 113.5 117t138.5 33q74 0 135 -41t96 -109q39 63 100.5 106.5t137.5 43.5q37 0 82 -13.5t83.5 -47.5t65.5 -91t27 -145q0 -70 -34 -153t-104 -159l-63 45q55 66 80.5 142t25.5 143 q0 94 -51 145.5t-115 51.5q-66 0 -104.5 -33t-58 -81t-25.5 -104.5t-8 -103.5q-2 -33 -2 -63.5v-63.5h-82q2 63 0 129q-2 43 -7 98.5t-25.5 104.5t-62.5 83t-116 34q-68 0 -103.5 -31t-53 -79t-20.5 -104.5t-3 -105.5q0 -33 -1 -64.5t1 -64.5h-74l-4 66t-6 65 q-4 37 -12.5 91.5t-32 104.5t-66.5 86t-112 36q-33 0 -68 -16.5t-64.5 -50.5t-48 -88t-18.5 -130q0 -98 41 -213t111.5 -220.5t168 -187t207.5 -114.5q74 -23 130.5 -33t127 -33.5t175 -72t276.5 -144.5h-205q-78 55 -178 96t-205.5 67t-212 39t-196.5 13q-29 0 -55.5 -1 t-55.5 -3l-19 98q18 2 44 2.5t55 0.5q14 0 27.5 -1.5t27.5 -3.5l2 9q-74 68 -139.5 150.5t-114.5 172.5t-77.5 181.5t-28.5 177.5z" />
<glyph unicode="&#x10db;" horiz-adv-x="901" d="M115 358q0 88 25.5 161t69.5 125t102.5 81t123.5 29q70 0 134.5 -39t99.5 -113v543q0 43 -5.5 91t-26 90t-64.5 69.5t-119 27.5q-47 0 -88 -16t-72 -46t-49.5 -72t-18.5 -95q0 -16 2 -50t13 -79l-68 -35q-14 31 -24.5 71t-10.5 91q0 72 24.5 129t67.5 98t100.5 63.5 t123.5 22.5q111 0 171 -42t89.5 -98t36 -114.5t6.5 -89.5v-803q0 -72 -20.5 -142.5t-60.5 -126.5t-100.5 -91t-140.5 -35t-140 35t-100 92t-60.5 127t-20.5 141zM209 358q0 -66 17.5 -123t48 -99t71.5 -66.5t90 -24.5q37 0 78 19.5t74 57.5t54.5 97.5t21.5 138.5 q0 68 -17.5 126.5t-47.5 99.5t-72 64.5t-91 23.5q-59 0 -101 -30t-70.5 -75t-42 -101t-13.5 -108z" />
<glyph unicode="&#x10dc;" horiz-adv-x="956" d="M201 358v727v41t7 63t23.5 70.5t48 67.5t81 50.5t122.5 19.5q55 0 111 -6q51 -6 106 -7q78 0 110 25t44 47h86q-12 -53 -40 -83t-62.5 -46t-70.5 -20t-62 -4q-63 0 -125 6q-29 2 -54.5 4t-54.5 2q-35 0 -66.5 -6t-58.5 -32t-42 -77t-15 -141v-457q10 23 29.5 49.5t48 49 t67.5 38t88 15.5q66 0 124.5 -29t102.5 -81t69.5 -125t25.5 -161q0 -72 -20.5 -142.5t-60.5 -126.5t-100.5 -91t-140.5 -35t-140 35t-100 92t-60.5 127t-20.5 141zM295 358q0 -66 17.5 -123t48 -99t71.5 -66.5t90 -24.5q37 0 78 19.5t74 57.5t54.5 97.5t21.5 138.5 q0 68 -17.5 126.5t-47.5 99.5t-72 64.5t-91 23.5q-59 0 -101 -30t-70.5 -75t-42 -101t-13.5 -108z" />
<glyph unicode="&#x10dd;" horiz-adv-x="1411" d="M115 418q0 80 27.5 142.5t71.5 105.5t102.5 65.5t119.5 22.5q72 0 146.5 -33t122.5 -113q49 80 123.5 113t146.5 33q63 0 120.5 -22.5t102.5 -65.5t71.5 -105.5t26.5 -142.5q0 -70 -14 -114t-29 -71l129 -77l-51 -80l-121 76q-12 -20 -47 -64.5t-119 -124.5l-34 35 q102 119 147 217t45 209q0 68 -23.5 116t-57.5 76.5t-72.5 42t-71.5 13.5q-76 0 -121 -34t-68.5 -89t-30.5 -128t-7 -151h-88q0 78 -7.5 151t-31 128t-68.5 89t-121 34q-33 0 -71.5 -13.5t-72.5 -42t-57.5 -76.5t-23.5 -116q0 -111 45 -209t147 -217l-34 -35 q-53 51 -99.5 102.5t-80 106.5t-53 115.5t-19.5 130.5z" />
<glyph unicode="&#x10de;" horiz-adv-x="946" d="M115 276q0 72 23.5 117t49.5 72l52 -39q-14 -33 -22.5 -68.5t-8.5 -70.5q0 -33 11 -75t40 -79t76 -62.5t119 -25.5q68 0 120 25.5t88.5 69.5t55 103.5t18.5 127.5q0 20 -7 71.5t-35.5 104.5t-88 94t-164.5 41h-38.5t-38.5 -2v90q57 0 107 15.5t88 43t59.5 66.5t21.5 86 q0 70 -38 106.5t-81 65.5q-37 23 -80 46.5t-80.5 53t-62.5 68.5t-25 92v21.5t2 21.5h62q2 -49 37 -96t139 -100q35 -18 74 -40t71.5 -54.5t54 -77t21.5 -105.5q0 -74 -41 -137.5t-151 -100.5v-10q135 -16 211.5 -117.5t76.5 -246.5q0 -104 -31.5 -181t-83.5 -127.5t-122 -75 t-143 -24.5q-88 0 -151.5 27.5t-104.5 73t-60.5 101.5t-19.5 111z" />
<glyph unicode="&#x10df;" horiz-adv-x="1005" d="M57 303q0 47 13.5 82t17.5 43l76 -22q-20 -39 -21 -91q0 -68 42 -99.5t94 -31.5q43 0 67.5 16.5t37.5 38t16 43t3 31.5q0 41 -24.5 75t-75.5 42v66q25 -4 48.5 -6.5t47.5 -2.5q68 0 130.5 21.5t111.5 59.5t84 89.5t49 112.5h88v-934q0 -66 -12 -146.5t-52 -151t-117 -120 t-206 -49.5q-104 0 -179 31t-123 78t-69.5 106.5t-21.5 118.5q0 57 27.5 119.5t93.5 109.5l53 -43q-20 -18 -50 -61t-30 -119q0 -55 21.5 -102t59.5 -82t91 -54.5t119 -19.5q106 0 167.5 38t92.5 95.5t39 126t8 127.5v744h-14q-49 -70 -133 -110t-174 -52q16 -23 26 -50.5 t10 -68.5q0 -78 -54 -134t-146 -56q-98 0 -165 51t-67 141z" />
<glyph unicode="&#x10e0;" horiz-adv-x="1411" d="M115 418q0 61 15 110.5t42 90t61.5 79.5t71.5 80q150 166 235 330t113 348h115q-14 -76 -40 -155.5t-72 -165.5t-113.5 -179.5t-163.5 -197.5l4 -10q102 20 190.5 -22t131.5 -118q49 80 123.5 113t146.5 33q61 0 119.5 -22.5t102.5 -65.5t71.5 -105.5t27.5 -142.5 q0 -70 -19.5 -130.5t-53 -115.5t-79.5 -106.5t-100 -102.5l-34 35q102 119 147 217t45 209q0 68 -23.5 116t-57.5 76.5t-72.5 42t-71.5 13.5q-76 0 -121 -34t-68.5 -89t-30.5 -128t-7 -151h-88q0 78 -7.5 151t-31 128t-68.5 89t-121 34q-33 0 -71.5 -13.5t-72.5 -42 t-57.5 -76.5t-23.5 -116q0 -111 45 -209t147 -217l-34 -35q-53 51 -99.5 102.5t-80 106.5t-53 115.5t-19.5 130.5z" />
<glyph unicode="&#x10e1;" horiz-adv-x="968" d="M143 336v1120h88v-1079q0 -18 2.5 -49t10.5 -68t24.5 -75t47 -69.5t75.5 -51t111 -19.5q61 0 109 20.5t81 54.5t50.5 78t17.5 89q0 29 -8.5 57.5t-18.5 56.5q-23 61 -46 119t-23 109q0 33 15 72.5t50 70.5l55 -35q-10 -20 -18 -47.5t-8 -52.5q0 -20 5 -38.5t13 -37.5 q10 -27 23.5 -52.5t26 -54t20.5 -61.5t8 -74q0 -68 -21.5 -131t-65.5 -113t-109.5 -81t-153.5 -31q-172 0 -266.5 99.5t-94.5 273.5z" />
<glyph unicode="&#x10e2;" horiz-adv-x="1503" d="M115 53q0 154 46 280t121.5 217t175 145.5t206.5 64.5q-41 41 -70 92t-29 100q0 53 42 98.5t145 45.5q82 0 134 -39t52 -105q0 -49 -28.5 -100t-69.5 -92l43 -6q86 -16 175 -67.5t162.5 -138.5t121 -210t47.5 -285q0 -66 -12.5 -142.5t-41 -152t-76 -146.5t-118 -124 t-166.5 -86t-223 -33q-164 0 -284 56.5t-199 151.5t-116.5 219t-37.5 257zM209 55q0 -106 29.5 -213.5t94 -194.5t168 -141.5t251.5 -54.5q129 0 229 44t170 124t106.5 190.5t36.5 245.5t-35.5 246t-97 192.5t-143.5 133t-174 69.5l-2 -6q33 -29 62.5 -76t29.5 -112 q0 -74 -51.5 -116t-130.5 -42q-94 0 -139.5 49t-45.5 109q0 45 23.5 96t71.5 92l-5 6q-90 -18 -170.5 -70.5t-142 -133t-98.5 -191.5t-37 -246zM651 932q0 -39 24 -73t77 -89q37 39 68.5 78t31.5 84q0 12 -3 27.5t-14.5 30t-31 23.5t-51.5 9q-33 0 -67 -17.5t-34 -72.5z M653 506q0 -47 31 -67.5t68 -20.5q29 0 62.5 17.5t33.5 70.5t-28.5 99t-67.5 81q-61 -55 -80 -102t-19 -78z" />
<glyph unicode="&#x10e3;" horiz-adv-x="1384" d="M86 563v152h88l2 -150q0 -31 4 -65.5t15.5 -63t34 -48t63.5 -19.5q37 0 58.5 16t32.5 41t16.5 54.5t9.5 54.5q6 39 17 77.5t34.5 70.5t60.5 51.5t96 19.5q47 0 91.5 -18.5t72.5 -63.5q41 47 94.5 64.5t88.5 17.5q100 0 156.5 -37t83 -89.5t31.5 -107.5t5 -92v-594 q0 -78 -11 -161t-61.5 -150.5t-150.5 -110.5t-279 -43q-143 0 -239.5 31t-154.5 78t-83.5 106.5t-25.5 118.5t22.5 133t89.5 137l47 -43q-39 -51 -52 -104t-13 -105q0 -49 21.5 -98t70.5 -87t127 -61.5t190 -23.5q117 0 196 20.5t128 65.5t69.5 116t20.5 171v594q0 33 -4 77 t-21.5 83.5t-53.5 66.5t-101 27q-53 0 -84 -20.5t-46.5 -51.5t-18.5 -67.5t-3 -69.5v-176h-88v176q0 119 -27.5 164t-87.5 45q-45 0 -67.5 -19.5t-32.5 -50.5t-15 -70.5t-16 -80.5q-8 -29 -21 -57.5t-35.5 -51.5t-54.5 -38t-75 -15q-76 0 -119 27.5t-64.5 68.5t-26.5 89 t-5 89z" />
<glyph unicode="&#x10e4;" horiz-adv-x="1468" d="M115 358q0 88 26.5 162t73.5 125t109.5 80t134.5 29q109 0 176 -49.5t104 -108.5q39 55 82 87t83 47t74 19.5t56 4.5q80 0 138.5 -28t97.5 -73t58.5 -103t19.5 -120q0 -76 -22.5 -132t-54.5 -97t-68 -66.5t-60 -40.5q39 -12 81 -34.5t75.5 -62.5t55 -98.5t21.5 -138.5 q0 -61 -18.5 -129.5t-67.5 -127t-136 -96.5t-224 -38q-125 0 -212 28t-142.5 69.5t-80 92t-24.5 97.5q0 43 17.5 90t54.5 88l63 -43q-10 -14 -25.5 -42t-15.5 -68q0 -59 32 -102.5t83 -72t117.5 -42t136.5 -13.5q72 0 135.5 17.5t110.5 54.5t74.5 95t27.5 140 q0 86 -28.5 143.5t-71.5 91.5t-95.5 46t-101.5 10v53q53 8 102.5 35t87 69t60 98t22.5 126q0 104 -64.5 173t-162.5 69t-159.5 -50.5t-88.5 -115.5q8 -29 14.5 -66t6.5 -82q0 -90 -26.5 -162.5t-74 -124t-110 -80t-133.5 -28.5q-72 0 -135.5 28.5t-109.5 80t-72.5 124 t-26.5 162.5zM209 358q0 -66 18.5 -123t52 -99t80 -66.5t99.5 -24.5t99 24.5t80 66.5t52.5 99.5t18.5 122.5q0 53 -14.5 108.5t-45.5 101.5t-78 75t-112 29q-66 0 -113 -29t-77.5 -75t-45 -101t-14.5 -109z" />
<glyph unicode="&#x10e5;" horiz-adv-x="917" d="M57 -313q0 121 46.5 191.5t97.5 105.5l49 -54q-66 -57 -82 -118.5t-16 -106.5q0 -47 16 -93t49 -82t83 -57.5t118 -21.5q96 0 150.5 36t80 84t31.5 98t6 79v715h-201q-16 0 -36.5 -2t-41 -12.5t-34 -30t-13.5 -51.5q0 -55 48 -103l-50 -41q-43 37 -67.5 73t-24.5 89 q0 18 7.5 45t30 52.5t65.5 44t114 18.5h203v755l-278 -327l-58 43l355 440h69v-1706q0 -49 -9 -114.5t-46 -125t-107.5 -100.5t-193.5 -41q-74 0 -139.5 20.5t-114.5 61.5t-78 99.5t-29 136.5z" />
<glyph unicode="&#x10e6;" horiz-adv-x="1406" d="M115 352q0 88 24.5 163t67.5 127t102.5 82t128.5 30q39 0 81 -9.5t80 -30t66.5 -53t45.5 -81.5q31 53 67.5 86.5t74.5 53t76 27t70 7.5q53 0 105.5 -17.5t94.5 -54.5t67.5 -92t25.5 -129q0 -41 -5 -93.5t-26.5 -108.5t-62.5 -116.5t-111 -119.5l-36 40q80 86 113.5 186.5 t33.5 186.5q0 57 -17.5 101.5t-45 74t-64.5 45t-76 15.5q-82 0 -129 -42t-72.5 -113t-32.5 -164t-9 -195h-88q0 109 -4.5 203t-26 162.5t-68.5 108.5t-131 40q-37 0 -77 -17.5t-72.5 -55.5t-54 -99.5t-21.5 -149.5q0 -96 22.5 -176t53 -141.5t61.5 -104.5t47 -61 q35 -43 67 -74t73.5 -59.5t103 -59t158.5 -73.5q76 -35 165 -85.5t183 -146.5h-154q-61 72 -140 117t-163 69.5t-166 33t-149 8.5q-23 0 -47.5 -2.5t-47.5 -6.5v90q29 6 52.5 8.5t52.5 2.5h59q-78 66 -138 144.5t-102 164.5t-63.5 176t-21.5 178z" />
<glyph unicode="&#x10e7;" horiz-adv-x="917" d="M57 -313q0 121 46.5 191.5t97.5 105.5l49 -54q-66 -57 -82 -118.5t-16 -106.5q0 -47 16 -93t49 -82t83 -57.5t118 -21.5q96 0 150.5 36t80 84t31.5 98t6 79v623q-41 -61 -103.5 -96t-138.5 -35q-61 0 -118.5 19.5t-101.5 54t-70.5 82.5t-26.5 108q0 68 18.5 139.5 t53.5 126.5l71 -33q-31 -55 -40 -104t-9 -78q0 -61 18.5 -106.5t50.5 -73t72.5 -40.5t83.5 -13q37 0 79 12t78 49t59.5 103.5t23.5 172.5v95h88v-1004q0 -49 -9 -114.5t-46 -125t-107.5 -100.5t-193.5 -41q-74 0 -139.5 20.5t-114.5 61.5t-78 99.5t-29 136.5z" />
<glyph unicode="&#x10e8;" horiz-adv-x="1161" d="M29 1239q0 57 20.5 106.5t54 85t78.5 55t97 19.5q90 0 148 -41t87 -106q35 66 97.5 106.5t152.5 40.5q96 0 147.5 -42t75 -97t27.5 -109.5t4 -78.5v-820q0 -90 -24.5 -162.5t-67.5 -124t-102.5 -80t-127.5 -28.5q-80 0 -140 35t-100 91t-60.5 127t-20.5 142 q0 88 25.5 161t69.5 125t102.5 81t123.5 29q49 0 88 -15.5t68 -38t48.5 -49t29.5 -49.5v576q0 106 -38 175.5t-134 69.5q-70 0 -112 -33.5t-63.5 -87t-27.5 -119t-4 -126.5h-76q0 63 -3 128.5t-21.5 118t-55.5 86t-100 33.5q-23 0 -52.5 -8t-56 -30.5t-45 -60.5t-18.5 -99 q0 -66 24.5 -128.5t71.5 -90.5l-43 -45q-49 33 -77.5 72.5t-44 77.5t-20.5 72t-5 56zM469 358q0 -80 21.5 -139t54.5 -97t73.5 -57.5t77.5 -19.5q49 0 90 24.5t72 66.5t48.5 99.5t17.5 122.5q0 51 -13.5 107.5t-42 101.5t-71.5 75t-101 30q-49 0 -91 -23.5t-71.5 -64.5 t-47 -99.5t-17.5 -126.5z" />
<glyph unicode="&#x10e9;" horiz-adv-x="890" d="M143 0v1229q0 123 62.5 199.5t171.5 76.5q102 0 163.5 -57t61.5 -152q0 -39 -10 -90t-48 -108.5t-112 -116.5t-201 -115v-225q31 35 67 57.5t68.5 34.5t60.5 16.5t44 4.5q25 0 76 -7.5t102 -40t89 -98t38 -184.5q0 -35 -3 -79t-16.5 -96t-38 -114.5t-67.5 -134.5h-94 q43 70 68.5 131.5t38 113.5t15.5 96t3 81q0 27 -7 68.5t-29.5 81.5t-65.5 70t-117 30q-49 0 -86 -15.5t-65.5 -39t-48 -50t-32.5 -49.5v-518h-88zM231 940q82 37 136.5 81t85 91t43 94t12.5 90q0 39 -13.5 63.5t-33 39t-42 19.5t-38.5 5q-59 0 -104.5 -45t-45.5 -143v-295z " />
<glyph unicode="&#x10ea;" horiz-adv-x="1282" d="M86 29q0 162 41 288.5t97.5 219t113.5 149.5t90 84l43 -43q-74 -66 -129 -148.5t-91 -174t-53.5 -186.5t-17.5 -187q0 -135 40 -242.5t108.5 -182.5t163 -115t204.5 -40q88 0 162 23.5t128 69.5t85 114t31 158q0 84 -25.5 141t-64.5 93t-84 53.5t-84 23.5v63 q45 0 88 13.5t76.5 39t54 62.5t20.5 84q0 39 -13 65.5t-36.5 47t-53.5 37t-62 36.5q-41 27 -66 51.5t-37 47t-15 42t-3 38.5h73q10 -35 32 -56.5t56 -44.5q37 -23 76 -42t71 -44.5t52.5 -62.5t20.5 -94q0 -27 -6.5 -60t-25 -67.5t-54 -67.5t-95.5 -57q33 -12 69 -37 t64.5 -64t47 -95t18.5 -136q0 -96 -33 -180t-97.5 -145.5t-157.5 -96.5t-212 -35q-133 0 -244.5 46t-193.5 132t-127 208t-45 274z" />
<glyph unicode="&#x10eb;" horiz-adv-x="901" d="M115 358q0 88 25.5 161t69.5 125t102.5 81t123.5 29q70 0 134.5 -39t99.5 -113v854h88v-1098q0 -72 -20.5 -142.5t-60.5 -126.5t-100.5 -91t-140.5 -35t-140 35t-100 92t-60.5 127t-20.5 141zM209 358q0 -66 17.5 -123t48 -99t71.5 -66.5t90 -24.5q37 0 78 19.5t74 57.5 t54.5 97.5t21.5 138.5q0 68 -17.5 126.5t-47.5 99.5t-72 64.5t-91 23.5q-59 0 -101 -30t-70.5 -75t-42 -101t-13.5 -108z" />
<glyph unicode="&#x10ec;" horiz-adv-x="1095" d="M57 1163q0 152 71 247t212 95q98 0 162.5 -43t83.5 -125h8q16 74 74.5 121t148.5 47q63 0 110.5 -23.5t78 -61.5t46 -86t15.5 -99q0 -109 -57.5 -191.5t-155.5 -152.5l-43 41q78 76 120 142.5t42 160.5q0 86 -43 137t-115 51q-37 0 -69.5 -18.5t-58 -59t-41 -105 t-15.5 -155.5v-110h-90v110q0 29 -3 85.5t-21.5 112.5t-60.5 98t-120 42q-25 0 -57.5 -9t-60.5 -37.5t-47 -81t-19 -136.5q0 -94 25.5 -205.5t62.5 -253.5h665q-66 -377 -171 -701.5t-242 -629.5h-91q2 23 2 43.5v42.5q0 61 -7 138t-23.5 177.5t-44 226.5t-70.5 290 q-45 176 -82 308t-63.5 234.5t-41 182.5t-14.5 151zM260 618q61 -240 101 -400.5t66 -278t37 -207.5t13 -185h15q43 106 87 238.5t86 274t77.5 284.5t60.5 274h-543z" />
<glyph unicode="&#x10ed;" horiz-adv-x="1038" d="M57 -293q0 29 4.5 63.5t18.5 74.5t40.5 82t72.5 85l47 -43q-29 -35 -58.5 -95t-29.5 -138q0 -66 24.5 -119t67.5 -90t99 -56.5t122 -19.5t124 21.5t101 62.5t67.5 103.5t24.5 144.5q0 68 -12 124t-32.5 120.5t-48 149.5t-56.5 210q-41 -35 -85 -52.5t-81 -17.5t-73 10.5 t-65.5 33t-48 57.5t-18.5 82q0 86 57.5 131t131.5 45q47 0 95 -13.5t91 -41.5q2 33 5 58.5t8 50t10.5 49t13.5 52.5q12 47 19 92.5t3 92.5q-6 74 -32.5 114.5t-72.5 67.5t-111.5 48.5t-149.5 56.5q10 -90 12 -172t-2 -160h-68q0 141 -19.5 254.5t-76.5 230.5h131 q20 -43 63.5 -68.5t95.5 -45t107.5 -40t101.5 -54.5t78.5 -88t37.5 -140q2 -43 -4.5 -86t-16.5 -95.5t-23.5 -118t-23.5 -153.5l201 181v-123l-133 -115l133 -121v-117l-195 174l-6 -4q16 -92 43 -177t51.5 -165t42 -157.5t17.5 -157.5q0 -197 -112 -306.5t-302 -109.5 q-82 0 -156 21.5t-129 63.5t-88 105.5t-33 147.5zM348 504q0 -41 30 -73t83 -32q47 0 90 23.5t72 54.5v49q-29 29 -78 48.5t-90 19.5q-6 0 -23.5 -2t-36 -11.5t-33 -27.5t-14.5 -49z" />
<glyph unicode="&#x10ee;" horiz-adv-x="901" d="M143 358v1098h88v-665l308 356l2 -123l-310 -346v-76q10 23 30 49.5t48.5 49t67.5 38t88 15.5q66 0 124 -29t102 -81t69.5 -125t25.5 -161q0 -72 -20.5 -142.5t-60 -126.5t-100 -91t-140.5 -35t-140.5 35t-100.5 92t-60.5 127t-20.5 141zM238 358q0 -66 17 -123t48 -99 t72 -66.5t90 -24.5q37 0 78 19.5t73.5 57.5t54 97.5t21.5 138.5q0 68 -17.5 126.5t-47 99.5t-71.5 64.5t-91 23.5q-59 0 -101 -30t-71 -75t-42 -101t-13 -108z" />
<glyph unicode="&#x10ef;" horiz-adv-x="747" d="M57 770h101l202 -313l203 313q16 25 28.5 52.5t12.5 62.5q0 23 -8 37t-20.5 21t-26.5 10t-25 3q-47 0 -71.5 -37.5t-20.5 -76.5h-51q-2 25 2 56.5t20.5 61t49 50t90.5 20.5q45 0 73.5 -13t45 -32.5t22.5 -42t6 -41.5q0 -55 -27.5 -103t-52.5 -87l-207 -320l252 -391h-100 l-203 313l-174 -266q121 -90 164 -176t43 -162q0 -53 -18.5 -109.5t-57.5 -104.5t-99 -83t-144 -43v51q111 25 168 101t57 170q0 51 -21.5 97t-54.5 85t-73 70.5t-79 56.5l246 379z" />
<glyph unicode="&#x10f0;" horiz-adv-x="903" d="M115 307h88q2 -47 18.5 -93t48 -84t78.5 -61.5t109 -23.5q111 0 174 66.5t63 173.5q0 133 -91 200.5t-243 85.5v84l30 -6t41.5 -7l43 -6t33.5 -3q20 0 47 5t50.5 19.5t40 40t16.5 66.5q0 49 -29 84t-73 59.5t-97 40t-103 27.5v84q33 -10 82.5 -21.5t79.5 -11.5 q53 0 84 34t31 81q0 43 -19.5 77.5t-82.5 75.5l-175 109v102l205 -129q18 -12 47 -32.5t54.5 -50t45 -68.5t19.5 -86q0 -55 -27.5 -101.5t-80.5 -74.5q43 -20 68.5 -47t39.5 -53.5t19.5 -52.5t5.5 -46q0 -57 -34 -111.5t-97 -77.5q86 -45 124.5 -114.5t38.5 -165.5 q0 -74 -24.5 -134.5t-69.5 -104.5t-106.5 -68.5t-134.5 -24.5q-70 0 -131.5 23.5t-107.5 67.5t-72.5 108.5t-26.5 144.5z" />
<glyph unicode="&#x10f1;" horiz-adv-x="1347" d="M29 700v84l102 43q2 49 9 115t21.5 136.5t39 139t59.5 123t83 88t112 33.5q35 0 67.5 -12t59 -36.5t42 -63.5t15.5 -93q0 -102 -47 -181t-112.5 -137t-136.5 -97t-120 -60q-2 -70 4 -151.5t24.5 -163.5t54.5 -158t94.5 -135t141.5 -94t197 -35q92 0 166 20.5t126 55.5 t80 84t28 108q0 68 -26 113t-71 73.5t-106.5 45t-130.5 26.5v84q10 -2 29.5 -6t41 -7l43 -6t33.5 -3q20 0 47 5t50.5 19.5t40 40t16.5 66.5q0 49 -28.5 84t-72.5 59.5t-97.5 40t-102.5 27.5v84q33 -10 82 -21.5t80 -11.5q53 0 83.5 34t30.5 81q0 43 -19.5 77.5t-82.5 75.5 l-174 109v102l205 -129q18 -12 46.5 -32.5t54.5 -50t45.5 -68.5t19.5 -86q0 -55 -28 -101.5t-81 -74.5q43 -20 68.5 -47t40 -53.5t19.5 -52.5t5 -46q0 -57 -33.5 -111.5t-97.5 -77.5q49 -25 81 -55.5t50.5 -66t25.5 -72.5t7 -72q0 -74 -36 -137t-101.5 -109.5t-156.5 -73 t-200 -26.5q-129 0 -224 37t-162.5 99.5t-111.5 143.5t-69 168t-35 174t-8 160zM227 862q119 51 183.5 113.5t94.5 120t35 102.5t5 66q0 14 -2 33.5t-12.5 38t-30 31.5t-51.5 13q-43 0 -82 -43t-69 -114.5t-49.5 -165t-21.5 -195.5z" />
<glyph unicode="&#x10f2;" horiz-adv-x="831" d="M86 -37v82q35 2 93.5 13.5t156.5 45.5q-29 12 -70 37t-77.5 65t-62.5 96t-26 132q0 70 21.5 128.5t62.5 101.5t99.5 66.5t132.5 23.5t132 -23.5t99 -66.5t62.5 -101.5t21.5 -128.5q0 -76 -25.5 -132t-62.5 -96t-78 -64.5t-69 -37.5q104 -37 165.5 -47t83.5 -12v-82 q-47 6 -88 13.5t-78.5 18.5t-77.5 25.5t-85 32.5q-90 -37 -164 -57.5t-166 -32.5zM195 438q0 -59 19 -106t51 -82t72 -61t79 -44q39 18 79 44t71.5 61t51 82t19.5 106q0 47 -12.5 89t-40 75t-69.5 51.5t-99 18.5q-59 0 -100.5 -18.5t-69 -51.5t-39.5 -75t-12 -89z" />
<glyph unicode="&#x10f3;" horiz-adv-x="794" d="M29 -305q0 104 36.5 170.5t84.5 105.5l49 -47q-41 -41 -58.5 -102.5t-17.5 -118.5t20.5 -104.5t55 -80t82 -50t102.5 -17.5q90 0 142.5 32t78 87t32.5 128t7 155q0 39 -5 94t-24.5 106t-58.5 86t-109 35q-43 0 -72.5 -12t-51.5 -35l-52 47l277 461h-434v82h575l-289 -481 q39 12 80 12q92 0 143.5 -43t77 -104.5t31.5 -130t6 -117.5q0 -96 -10 -183.5t-48 -154t-110.5 -106.5t-197.5 -40q-84 0 -147.5 24.5t-106.5 68.5t-65.5 103.5t-22.5 129.5z" />
<glyph unicode="&#x10f4;" horiz-adv-x="831" d="M29 -319q0 72 23.5 116.5t49.5 73.5l52 -41q-31 -61 -31 -137q0 -43 15.5 -87t46 -78t76.5 -55.5t108 -21.5q74 0 128 27.5t87.5 73t50 102.5t16.5 119q0 61 -18.5 120.5t-62.5 104.5t-118.5 69.5t-187.5 18.5v88q76 0 140.5 19.5t110.5 55.5t71.5 85t25.5 108 t-27.5 101.5t-67.5 74t-86 56t-85 49.5q-55 33 -103 75t-83 93t-55.5 113.5t-20.5 138.5q0 70 17.5 134t54.5 115.5t91 82t128 30.5q57 0 106 -16t85 -46t56.5 -73t20.5 -96q0 -61 -36 -126t-101 -101l-43 45q35 20 52 48.5t25.5 54.5t8.5 46.5v26.5q0 47 -17.5 77.5t-43 48 t-55.5 23.5t-52 6q-37 0 -73 -16t-65.5 -50t-47 -83t-17.5 -115q0 -76 22.5 -132t59.5 -98t85 -75t97 -63q47 -29 94.5 -61t85 -70.5t61.5 -88t24 -112.5q0 -20 -5.5 -60.5t-30 -85.5t-74.5 -89t-140 -72v-13q135 -16 211.5 -115.5t76.5 -248.5q0 -86 -25.5 -161t-73.5 -129 t-118.5 -85t-162.5 -31q-86 0 -149.5 28t-105.5 72t-61.5 100t-19.5 112z" />
<glyph unicode="&#x10f5;" horiz-adv-x="1060" d="M115 289q0 156 95 249t261 93h201v172h-201q-168 0 -262 93t-94 249q0 158 95 241.5t245 83.5q137 0 221 -81.5t84 -225.5v-278h244v-82h-244v-172h244v-82h-244v-279q0 -143 -84 -225t-221 -82q-150 0 -245 84t-95 242zM209 287q0 -119 68.5 -180.5t177.5 -61.5 q80 0 123 29.5t64.5 68.5t25.5 77t4 56v273h-172q-23 0 -71 -4t-97 -28.5t-86 -78t-37 -151.5zM209 1147q0 -96 37 -149.5t86 -78t97 -29.5t71 -5h172v272q0 18 -4 56t-25.5 77t-64.5 69t-123 30q-74 0 -122 -24t-76 -59.5t-38 -77.5t-10 -81z" />
<glyph unicode="&#x10f6;" horiz-adv-x="1415" d="M115 358q0 88 25.5 161t69.5 125t102.5 81t123.5 29q72 0 132.5 -39t95.5 -113v576q0 72 -14.5 120t-37 75.5t-53.5 38.5t-61 11q-74 0 -126.5 -58t-43.5 -161h-80q-4 72 16.5 128.5t57 94t85 58t99.5 20.5q33 0 76 -10t80.5 -44t63.5 -98.5t26 -174.5v-576q35 74 95 113 t132 39q66 0 124 -29t102 -81t69.5 -125t25.5 -161t-25.5 -160.5t-68.5 -125t-101 -81t-126 -28.5q-72 0 -132.5 39t-94.5 113v-418q0 -72 14 -120t36.5 -75.5t53.5 -39t62 -11.5q74 0 126 58.5t43 160.5h80q4 -72 -16.5 -128t-57 -95t-84.5 -58.5t-100 -19.5 q-33 0 -75.5 10.5t-80.5 44t-63.5 98t-25.5 175.5v418q-35 -74 -95.5 -113t-132.5 -39q-68 0 -126 28.5t-101 81t-68.5 125t-25.5 160.5zM209 358q0 -66 17.5 -123t48 -99t71.5 -66.5t90 -24.5q37 0 78 19.5t74 57.5t54.5 97.5t21.5 138.5q0 68 -17.5 126.5t-47.5 99.5 t-72 64.5t-91 23.5q-59 0 -101 -30t-70.5 -75t-42 -101t-13.5 -108zM752 358q0 -80 21.5 -139t54 -97t73.5 -57.5t78 -19.5q49 0 90 24.5t71.5 66.5t48 99.5t17.5 122.5q0 51 -13 107.5t-42 101.5t-72 75t-100 30q-49 0 -91 -23.5t-72 -64.5t-47 -99.5t-17 -126.5z" />
<glyph unicode="&#x2000;" horiz-adv-x="849" />
<glyph unicode="&#x2001;" horiz-adv-x="1698" />
<glyph unicode="&#x2002;" horiz-adv-x="849" />
<glyph unicode="&#x2003;" horiz-adv-x="1698" />
<glyph unicode="&#x2004;" horiz-adv-x="566" />
<glyph unicode="&#x2005;" horiz-adv-x="424" />
<glyph unicode="&#x2006;" horiz-adv-x="283" />
<glyph unicode="&#x2007;" horiz-adv-x="283" />
<glyph unicode="&#x2008;" horiz-adv-x="212" />
<glyph unicode="&#x2009;" horiz-adv-x="339" />
<glyph unicode="&#x200a;" horiz-adv-x="94" />
<glyph unicode="&#x2010;" horiz-adv-x="819" d="M123 471v61h573v-61h-573z" />
<glyph unicode="&#x2011;" horiz-adv-x="819" d="M123 471v61h573v-61h-573z" />
<glyph unicode="&#x2012;" horiz-adv-x="819" d="M123 471v61h573v-61h-573z" />
<glyph unicode="&#x2013;" horiz-adv-x="1228" d="M102 512v61h1024v-61h-1024z" />
<glyph unicode="&#x2014;" horiz-adv-x="1691" d="M86 342v88h1520v-88h-1520z" />
<glyph unicode="&#x2018;" horiz-adv-x="563" d="M225 1040v232q0 27 3 57.5t14.5 58t34 49t61.5 31.5v-73q-16 -6 -35.5 -30t-19.5 -93v-80h55v-152h-113z" />
<glyph unicode="&#x2019;" horiz-adv-x="563" d="M225 1006v73q8 2 18.5 9.5t18.5 20.5t13.5 35.5t5.5 57.5v80h-56v152h113v-232q0 -29 -3 -58.5t-14.5 -57t-34 -49t-61.5 -31.5z" />
<glyph unicode="&#x201c;" horiz-adv-x="655" d="M143 1040v232q0 27 3.5 57.5t14.5 58t33.5 49t61.5 31.5v-73q-16 -6 -35.5 -30t-19.5 -93v-80h55v-152h-113zM399 1040v232q0 27 3.5 57.5t14.5 58t33.5 49t61.5 31.5v-73q-16 -6 -35.5 -30t-19.5 -93v-80h55v-152h-113z" />
<glyph unicode="&#x201d;" horiz-adv-x="655" d="M143 1006v73q8 2 18.5 9.5t18.5 20.5t13.5 35.5t5.5 57.5v80h-56v152h113v-232q0 -29 -3 -58.5t-14.5 -57t-34 -49t-61.5 -31.5zM399 1006v73q8 2 18.5 9.5t18.5 20.5t13.5 35.5t5.5 57.5v80h-56v152h113v-232q0 -29 -3 -58.5t-14.5 -57t-34 -49t-61.5 -31.5z" />
<glyph unicode="&#x201e;" horiz-adv-x="655" d="M143 0v152h113v-232q0 -29 -3 -58.5t-14.5 -57t-34 -49t-61.5 -31.5v73q8 2 18.5 9.5t18.5 20.5t13.5 35.5t5.5 57.5v80h-56zM399 0v152h113v-232q0 -29 -3 -58.5t-14.5 -57t-34 -49t-61.5 -31.5v73q8 2 18.5 9.5t18.5 20.5t13.5 35.5t5.5 57.5v80h-56z" />
<glyph unicode="&#x2020;" horiz-adv-x="983" d="M68 969v71h378v394h91v-394h378v-71h-378v-1348h-91v1348h-378z" />
<glyph unicode="&#x2022;" horiz-adv-x="1024" d="M348 717q0 68 48 116t116 48t116 -48.5t48 -115.5q0 -68 -48 -116t-116 -48t-116 48t-48 116z" />
<glyph unicode="&#x2026;" horiz-adv-x="1689" d="M225 0v152h113v-152h-113zM788 0v152h113v-152h-113zM1352 0v152h112v-152h-112z" />
<glyph unicode="&#x202f;" horiz-adv-x="339" />
<glyph unicode="&#x2044;" horiz-adv-x="204" d="M-410 0l951 1434h73l-950 -1434h-74z" />
<glyph unicode="&#x205f;" horiz-adv-x="424" />
<glyph unicode="&#x20ac;" d="M59 500l31 84h98q-2 16 -2 39.5v40.5v44t2 37h-129l31 84h107q12 111 47 206t95 166t147 111t208 40q115 0 198 -31t126 -68v-108q-49 47 -127 79.5t-189 32.5q-94 0 -164.5 -34.5t-119.5 -93t-77 -136.5t-36 -164h615l-31 -84h-596q0 -16 -1 -39.5t-1 -41.5 q0 -23 1 -43.5t1 -36.5h538l-30 -84h-496q25 -207 126 -319.5t274 -112.5q109 0 183.5 31.5t129.5 78.5v-110q-41 -35 -124 -65t-202 -30q-209 0 -335 128t-160 399h-138z" />
<glyph unicode="&#x2116;" horiz-adv-x="2129" d="M188 0v1434h123l863 -1299v1299h98v-1434h-123l-862 1298v-1298h-99zM1427 983q0 113 33 184.5t81 112.5t100.5 56.5t93.5 15.5q39 0 92 -15.5t101 -56.5t81 -112.5t33 -184.5t-33 -184.5t-81 -112.5t-101 -56.5t-92 -15.5q-41 0 -93.5 15.5t-100.5 56.5t-81 112.5 t-33 184.5zM1454 324v86h561v-86h-561zM1520 983q0 -39 9 -90t32.5 -97t65.5 -78t108 -32t107.5 32t65 78t33 97t9.5 90t-9.5 90t-33 97.5t-65.5 78t-107 31.5q-66 0 -108 -31.5t-65.5 -78t-32.5 -97.5t-9 -90z" />
<glyph unicode="&#x2122;" horiz-adv-x="1525" d="M41 1362v72h553v-72h-232v-645h-90v645h-231zM754 717v717h114l199 -523l18 -71h5l18 71l195 523h114v-717h-90v477l6 92h-4l-213 -569h-61l-213 569h-4l6 -92v-477h-90z" />
<glyph unicode="&#x2160;" horiz-adv-x="618" d="M92 0v49q51 2 79 20.5t42 45t17 56.5t3 58v865q0 27 -3 57.5t-17 57t-42 44t-79 21.5v49h434v-49q-53 -4 -81.5 -23.5t-42 -46t-15.5 -56.5t-2 -54v-865q0 -25 2 -54.5t15.5 -56t42 -47t81.5 -22.5v-49h-434z" />
<glyph unicode="&#x2164;" horiz-adv-x="1345" d="M35 1274v49h424v-49q-37 -2 -65.5 -11.5t-28.5 -50.5q0 -6 1 -20t5 -23l315 -950h12l320 856q4 10 14 39t10 47q0 55 -32.5 83t-79.5 30v49h381v-49q-18 0 -43 -6t-49.5 -21.5t-48 -44t-42.5 -76.5l-421 -1153h-103l-393 1143q-23 61 -59.5 107.5t-116.5 50.5z" />
<glyph unicode="&#x2169;" horiz-adv-x="1331" d="M43 0v49q76 23 126 70t99 119l316 462l-275 447q-12 18 -29.5 39.5t-42 40t-57.5 32t-74 15.5v49h437v-49q-33 -2 -66 -7t-33 -34q0 -23 12.5 -42.5t24.5 -39.5l201 -328l217 307q23 33 35 53.5t12 37.5q0 20 -20.5 38.5t-83.5 14.5v49h393v-49q-47 -8 -81 -18.5 t-61.5 -28t-52 -42t-51.5 -61.5l-262 -372l354 -566q35 -53 86.5 -93t120.5 -44v-49h-463v49q109 6 109 62q0 27 -16.5 51t-32.5 49l-250 410l-262 -383q-18 -29 -34.5 -55.5t-16.5 -55.5q0 -41 29.5 -57.5t80.5 -20.5v-49h-389z" />
<glyph unicode="&#x216c;" horiz-adv-x="1095" d="M92 0v49q86 6 113.5 47t27.5 133v901q0 45 -13 73t-31.5 43.5t-40 21.5t-39.5 6v49h413v-49q-78 0 -107.5 -43t-29.5 -119v-879q0 -49 5 -79.5t17.5 -47t33 -21.5t53.5 -5h165q51 0 102.5 7t97.5 26.5t87 56.5t72 98h49l-45 -268h-930z" />
<glyph unicode="&#x216d;" horiz-adv-x="1288" d="M100 657q0 133 49.5 258t141.5 221.5t223 155t293 58.5q111 0 185.5 -21.5t121.5 -44.5l8 -244h-49q-16 49 -50 91.5t-80 73t-101.5 48t-114.5 17.5q-98 0 -171 -33t-123 -85t-80.5 -117.5t-48 -133t-24 -131t-6.5 -108.5q0 -145 38 -259t102.5 -192t151.5 -118t184 -40 q82 0 146.5 25.5t112.5 66.5t78.5 94.5t47.5 108.5h51l-12 -264q-45 -31 -96.5 -52.5t-104.5 -33.5t-104.5 -18.5t-94.5 -6.5q-166 0 -292 64.5t-211 164t-128 220.5t-43 235z" />
<glyph unicode="&#x216e;" horiz-adv-x="1398" d="M92 0v49q51 4 80 22.5t43 44t16 55.5t2 58v865q0 35 -5 65.5t-19 55t-43 40t-74 19.5v49h518q123 0 246 -31.5t221.5 -104.5t159.5 -193t61 -296q0 -74 -11 -147.5t-34 -142.5q-29 -82 -77 -156t-124.5 -130t-186 -89t-259.5 -33h-514zM385 209q0 -43 6 -67.5t22.5 -39 t45 -18.5t73.5 -4q145 0 256 31.5t186 100.5t112.5 176.5t37.5 258.5q0 197 -51 313.5t-128 178t-168 82t-171 22.5q-55 2 -108 0q-41 -2 -64.5 -14t-34 -31.5t-12.5 -43.5t-2 -46v-899z" />
<glyph unicode="&#x216f;" horiz-adv-x="1789" d="M35 0v49q82 10 115.5 52t52.5 135l166 862q6 29 10 60.5t-3 57t-34 43t-82 15.5v49h318l288 -901h11l333 901h308v-49q-57 -4 -85 -19.5t-37.5 -37t-5 -47t8.5 -50.5l164 -878q6 -37 16 -71t28.5 -59.5t50.5 -43t81 -19.5v-49h-457v49q90 0 115.5 26.5t25.5 67.5 q0 29 -5 53.5t-9 47.5l-166 862h-8l-361 -961h-73l-320 961h-8l-172 -868q-4 -23 -8 -52.5t5 -58.5t39 -50.5t91 -27.5v-49h-393z" />
<glyph unicode="&#x25fc;" horiz-adv-x="1044" d="M0 0v1044h1044v-1044h-1044z" />
</font>
</defs>
</svg>
