<?xml version="1.0" standalone="no"?>
<!DOCTYPE svg PUBLIC "-//W3C//DTD SVG 1.1//EN" "http://www.w3.org/Graphics/SVG/1.1/DTD/svg11.dtd" >
<svg xmlns="http://www.w3.org/2000/svg" xmlns:xlink="http://www.w3.org/1999/xlink" version="1.1">
<metadata></metadata>
<defs>
<font id="bpg_nino_eliteregular" horiz-adv-x="972" >
<font-face units-per-em="2048" ascent="1475" descent="-573" />
<missing-glyph horiz-adv-x="438" />
<glyph unicode="&#xd;" horiz-adv-x="687" />
<glyph unicode=" "  horiz-adv-x="438" />
<glyph unicode="&#x09;" horiz-adv-x="438" />
<glyph unicode="&#xa0;" horiz-adv-x="438" />
<glyph unicode="!" horiz-adv-x="470" d="M160 93q0 50 24 80.5t69 30.5q40 0 67 -29t27 -74q0 -40 -27.5 -70.5t-67.5 -30.5h-2q-37 0 -63.5 27.5t-26.5 65.5zM177 1503h124l-44 -1149h-36z" />
<glyph unicode="&#x22;" horiz-adv-x="660" d="M131 1098v485h101v-485h-101zM398 1098v485h101v-485h-101z" />
<glyph unicode="#" horiz-adv-x="1389" d="M131 522l21 88h284l65 331h-312l15 88h312l99 526h111l-95 -526h236l101 526h109l-99 -526h280l-19 -88h-279l-64 -331h303l-16 -88h-303l-95 -522h-110l99 522h-242l-99 -522h-109l99 522h-292zM553 610h236l59 331h-238z" />
<glyph unicode="$" horiz-adv-x="1159" d="M173 99l48 82q55 -45 135 -71t170 -26q139 0 225.5 73.5t86.5 187.5q0 190 -272 295q-198 82 -282 164t-84 210q0 131 88.5 221t239.5 112v235h91v-235q160 -7 282 -86l-49 -81q-1 1 -18 10.5t-23 13t-25.5 13t-32 14t-34.5 11.5t-41.5 10.5t-45.5 6t-53 2.5 q-72 0 -128 -21t-87.5 -56t-47 -74t-15.5 -81q0 -94 66 -157t228 -129q172 -70 259 -161.5t87 -230.5q0 -56 -21 -112t-61 -107t-108 -87.5t-153 -46.5v-230h-91v230q-95 0 -185 26.5t-149 74.5z" />
<glyph unicode="%" horiz-adv-x="1684" d="M65 1027q0 216 97.5 333t231.5 117h2q144 0 225.5 -106t81.5 -317q0 -221 -90.5 -337.5t-233.5 -116.5q-132 0 -220 107.5t-94 319.5zM160 1010q0 -155 61.5 -245t161.5 -90q111 0 169 95.5t58 275.5q0 166 -55.5 261t-169.5 95h-2q-104 0 -163.5 -106t-59.5 -286zM354 0 l885 1477h89l-884 -1477h-90zM983 442q0 111 28 199t75.5 141.5t105.5 81.5t121 28h2q144 0 225.5 -106t81.5 -317q0 -221 -90.5 -337.5t-233.5 -116.5q-132 0 -220.5 108.5t-94.5 318.5zM1079 425q0 -155 61 -245t161 -90q112 0 169.5 95t57.5 274q0 170 -55 264t-170 94 h-2q-106 0 -164 -103t-58 -289z" />
<glyph unicode="&#x26;" horiz-adv-x="1291" d="M65 414q0 288 316 438v7q-135 168 -135 319q0 67 23.5 129.5t67 113t112.5 81t153 30.5q132 0 217.5 -84t85.5 -215q0 -120 -86.5 -216.5t-288.5 -185.5v-10q302 -337 467 -495q59 79 99.5 185.5t69.5 290.5h101q-67 -389 -209 -533q149 -146 255 -240h-139l-177 167 q-121 -108 -238 -152t-252 -44q-185 0 -313.5 118.5t-128.5 295.5zM171 433q0 -155 104 -250t257 -95h3q120 0 224 46.5t177 124.5q-241 241 -503 530q-33 -16 -65 -36t-69 -53.5t-64 -71t-45.5 -89t-18.5 -106.5zM347 1187q0 -47 10.5 -89.5t32 -81.5t39.5 -64.5t47 -61.5 q79 36 133.5 68.5t101.5 73t70 88.5t23 105q0 89 -55 156t-162 67h-2q-111 0 -174.5 -77t-63.5 -184z" />
<glyph unicode="'" horiz-adv-x="393" d="M109 1578h144l-32 -480h-78z" />
<glyph unicode="(" horiz-adv-x="589" d="M149 535q0 177 29 337t82.5 289.5t110.5 228t130 192.5h86q-171 -207 -261 -462.5t-90 -587.5q0 -165 26 -311.5t76.5 -273t109 -229t139.5 -215.5h-86q-352 422 -352 1032z" />
<glyph unicode=")" horiz-adv-x="589" d="M32 -501q170 222 261.5 468.5t91.5 573.5q0 322 -90.5 569.5t-262.5 469.5h88q58 -78 103 -149.5t93.5 -172.5t80.5 -204t53 -237t21 -278q0 -146 -21 -280.5t-52.5 -235t-81 -202.5t-93.5 -171t-103 -151h-88z" />
<glyph unicode="*" horiz-adv-x="1194" d="M170 1151q0 48 47 48l320 -31l4 13l-225 187q-36 26 -36 55q0 19 15 31.5t33 12.5q7 0 13 -1.5t9.5 -3t9 -6.5t7 -6t7.5 -8.5t7 -8.5l187 -225l13 4l-34 305q0 63 51 63q23 0 35.5 -9.5t12.5 -38.5l-31 -320l14 -4l187 225q2 2 10 11t12 12t12 7t17 4q21 0 35.5 -13.5 t14.5 -33.5q0 -12 -4.5 -20.5t-18 -19.5t-14.5 -12l-224 -187l3 -13l319 31q28 0 38.5 -15t10.5 -33q0 -52 -57 -52q-15 0 -19 2l-292 33l-3 -14l224 -186q2 -1 10 -8t10.5 -10t7.5 -9.5t7 -12.5t2 -14q0 -18 -13 -32.5t-31 -14.5q-30 0 -57 34l-187 227l-14 -4l31 -324 q0 -46 -48 -46q-23 0 -37 13t-14 50l34 307l-13 4l-187 -227q-30 -34 -57 -34q-18 0 -31 13t-13 31q0 28 36 57l225 186l-4 14l-306 -35q-36 0 -48.5 14t-12.5 38zM539 1149q0 -25 16.5 -41t39.5 -16q25 0 43 16t18 41q0 24 -18.5 41.5t-42.5 17.5q-22 0 -39 -17.5 t-17 -41.5z" />
<glyph unicode="+" horiz-adv-x="1303" d="M88 541v88h516v537h97v-537h517v-88h-517v-541h-97v541h-516z" />
<glyph unicode="," horiz-adv-x="409" d="M88 -333q77 93 110 157.5t33 122.5q0 27 -6 53q-2 -2 -17 -2h-12q-39 0 -66 23t-27 61q0 48 31 73.5t70 25.5q114 0 114 -151q0 -104 -51.5 -208t-144.5 -190z" />
<glyph unicode="-" horiz-adv-x="792" d="M107 497v84h579v-84h-579z" />
<glyph unicode="." horiz-adv-x="395" d="M97 103q0 39 28 69t71 30q41 0 70 -29t29 -70q0 -45 -29 -74t-70 -29q-40 0 -69.5 31t-29.5 72z" />
<glyph unicode="/" horiz-adv-x="568" d="M2 0l455 1458h113l-463 -1458h-105z" />
<glyph unicode="0" d="M107 572v2v333v2q0 80 1 122t8 115.5t20 115t40 95t65.5 81.5t98 48.5t136.5 20.5q67 0 120.5 -13t91 -43t65 -59.5t44 -82t26 -90t13.5 -103.5t5 -102.5t1 -106.5v-333q0 -61 -0.5 -93t-3.5 -91t-9.5 -93t-19 -84t-30.5 -79t-45.5 -63.5t-63.5 -52.5t-85 -30.5 t-109 -12.5q-77 0 -136.5 20.5t-98 48.5t-65.5 82t-40 95.5t-20 115t-8 115t-1 120.5zM202 440q0 -88 12 -155.5t34.5 -108.5t48 -68t59.5 -39.5t60.5 -16.5t59.5 -4q27 0 49 2.5t51 12t51.5 25t46 45.5t39 70t25 101t9.5 136v600q0 76 -9.5 137t-25 101t-39 70t-46 46 t-51.5 25t-51 11.5t-49 2.5q-28 0 -50.5 -2.5t-52.5 -11.5t-52.5 -25t-45.5 -45.5t-38.5 -70t-25 -101.5t-9.5 -137v-600z" />
<glyph unicode="1" d="M210 1159v97q172 119 263 228h87v-1484h-84v1404q-24 -23 -84.5 -82.5t-102.5 -97.5t-79 -65z" />
<glyph unicode="2" d="M97 0v93q77 121 184.5 278t177.5 260.5t138.5 214t102.5 193.5t34 144q0 79 -23.5 131.5t-66.5 77t-86 33t-101 8.5q-129 0 -197 -73t-73 -203h-86q5 74 29 134t59.5 99.5t81 66.5t92 38.5t94.5 11.5q55 0 103.5 -7t99 -27t86 -51.5t58.5 -85.5t23 -124q0 -35 -3 -65 t-16 -69.5t-23 -66.5t-41 -82.5t-51 -90t-73.5 -116.5t-88 -133.5t-112.5 -167.5l-234 -349h644v-72h-732z" />
<glyph unicode="3" d="M86 328h93q6 -131 72 -205.5t199 -74.5q82 0 139 23.5t88 68.5t44 98.5t13 123.5q0 100 -13.5 166.5t-47.5 114.5t-92.5 69.5t-147.5 21.5h-48v70q5 0 16.5 -1t19.5 -1q299 0 299 339q0 144 -63 218t-203 74q-135 0 -192.5 -72.5t-57.5 -203.5h-99q0 157 86 253.5 t247 96.5q192 0 285 -81t93 -269q0 -319 -231 -378v-21q73 -10 123 -44t75.5 -86.5t35.5 -108.5t10 -126q0 -201 -91.5 -309.5t-266.5 -108.5q-382 0 -385 353z" />
<glyph unicode="4" d="M72 381v99l463 1004h170v-1029h181v-74h-181v-381h-86v381h-547zM131 455h488v972l-19 8z" />
<glyph unicode="5" d="M126 320h95q2 -136 65.5 -204t205.5 -68q53 0 94.5 13t70 33.5t49 53t32 65.5t18 77t8.5 80.5t2 84.5q0 51 -1.5 87t-8 81t-18 76.5t-32 63.5t-49.5 51.5t-72.5 32t-98.5 12.5q-84 0 -158.5 -42.5t-98.5 -117.5h-86v785h657v-72h-571v-625q84 81 147.5 114t145.5 33 q54 0 99 -10t78 -26.5t59 -42.5t43 -51.5t29 -61.5t18.5 -64.5t10 -68t4 -65.5t0.5 -62q0 -85 -7 -150.5t-30 -135.5t-62 -116t-107.5 -75.5t-162.5 -29.5q-365 0 -368 345z" />
<glyph unicode="6" d="M109 476v500q0 113 9.5 192.5t34.5 147t68 107.5t110.5 62t162.5 22q163 0 244 -78.5t89 -239.5h-93q-12 120 -69.5 182t-178.5 62q-47 0 -85.5 -10.5t-67 -27t-50.5 -45.5t-36.5 -56t-25 -68.5t-15.5 -73.5t-8 -81.5t-3.5 -82t-0.5 -83.5v-189h19q19 67 70.5 114t113 67 t127.5 20q71 0 127 -21t89 -57.5t55 -76t31.5 -87t12.5 -78.5t3 -62q0 -74 -2 -126t-10 -115t-22 -105.5t-40 -86t-62.5 -69.5t-90 -42t-121.5 -16q-74 0 -132 13t-98 34.5t-68.5 58t-45.5 75t-26 94t-12 106t-3 120.5zM192 414q0 -32 3.5 -63.5t12.5 -76.5t29.5 -82.5 t50 -71t79 -53t111.5 -19.5q54 0 96 14t70 35t48 56.5t30.5 68t16 80t7 82.5t1.5 85q0 196 -58 286.5t-201 90.5q-147 0 -221.5 -103.5t-74.5 -328.5z" />
<glyph unicode="7" d="M82 1412v72h728v-120l-465 -1364h-105l492 1412h-650z" />
<glyph unicode="8" d="M99 393q0 58 4.5 103t19 92t39 80.5t66.5 60.5t100 41v19q-53 12 -92.5 38.5t-62 59.5t-36.5 79t-18.5 88.5t-4.5 94.5q0 37 1.5 62t8.5 65.5t20.5 69t40.5 61.5t64.5 53t95.5 33.5t131 13.5q72 0 129 -13.5t94 -34t64 -53t40.5 -61t21 -68.5t9 -66t1.5 -62 q0 -313 -221 -358l-4 -19q76 -17 125.5 -52.5t73.5 -89.5t32.5 -108t8.5 -129q0 -64 -7.5 -117t-31.5 -111t-63 -98t-109 -66t-163 -26q-94 0 -164.5 26t-110 66t-63.5 98t-31.5 111t-7.5 117zM192 375q0 -77 14 -136t45.5 -106.5t88 -73t136.5 -25.5q280 0 280 341 q0 51 -3 89t-12 84t-28 78.5t-49 61t-77.5 43t-110.5 14.5q-55 0 -98.5 -12t-73 -30.5t-50.5 -48.5t-33 -59.5t-18.5 -70t-8.5 -73.5t-2 -76zM206 1128q0 -322 270 -322q265 0 265 322q0 157 -58.5 238.5t-206.5 81.5q-79 0 -132.5 -22.5t-83 -66.5t-42 -99.5t-12.5 -131.5z " />
<glyph unicode="9" d="M105 1061q0 80 9.5 144t34 122t64.5 96.5t103.5 61t148.5 22.5q77 0 135.5 -14t98.5 -35.5t67 -64t42 -81.5t23 -107.5t9.5 -122.5t1.5 -144v-191q0 -108 -1 -169t-4 -143.5t-10 -127.5t-19.5 -102t-31.5 -86t-45.5 -62t-63 -47.5t-83.5 -24.5t-106 -10q-179 0 -263 73.5 t-95 244.5h97q10 -245 240 -245q55 0 96.5 7t73 28.5t53 43.5t36 68.5t22.5 86t12 115t5 136t1 166.5v86q-133 -183 -308 -183q-186 0 -264.5 111t-78.5 348zM200 1061q0 -63 4 -110.5t20 -102t42.5 -90t76 -59t116.5 -23.5q58 0 104 15.5t75.5 38t51 57.5t32.5 65.5t17 71 t7 64t1 54.5q0 79 -2 120.5t-16.5 102t-42 91t-82 54t-133.5 23.5q-58 0 -102.5 -14t-73.5 -41.5t-48.5 -60.5t-29.5 -78t-13.5 -86t-3.5 -92z" />
<glyph unicode=":" horiz-adv-x="566" d="M185 103q0 42 27.5 70.5t71.5 28.5q41 0 70 -29t29 -70q0 -43 -29 -72t-70 -29q-40 0 -69.5 30t-29.5 71zM185 732q0 41 28 70t71 29q41 0 70 -29t29 -70q0 -43 -30 -72t-69 -29q-40 0 -69.5 30t-29.5 71z" />
<glyph unicode=";" horiz-adv-x="536" d="M152 -335q78 90 110.5 155.5t32.5 126.5q0 25 -3 51q-2 -2 -18 -2h-11q-39 0 -66 22.5t-27 59.5q0 50 30 76.5t69 26.5q114 0 114 -152q0 -105 -51 -210t-143 -189zM170 728q-3 40 24 69.5t75 29.5q41 0 70 -29t29 -70q0 -43 -29 -72t-70 -29q-40 0 -69.5 30t-29.5 71z " />
<glyph unicode="&#x3c;" horiz-adv-x="1082" d="M143 463v92l852 327v-59l-806 -314l806 -317v-59z" />
<glyph unicode="=" horiz-adv-x="1082" d="M147 394v58h848v-58h-848zM147 795v59h848v-59h-848z" />
<glyph unicode="&#x3e;" horiz-adv-x="1082" d="M143 131v61l815 322l-815 307v59l865 -325v-77z" />
<glyph unicode="?" horiz-adv-x="885" d="M109 1197q0 100 51 177.5t133.5 117.5t179.5 40q178 0 271 -112t93 -303q0 -71 -31.5 -138t-66.5 -109t-118 -130q-8 -9 -13 -14q-74 -78 -91 -107q-22 -35 -22 -68q0 -12 2 -14v-160h-93v160q0 64 39 123.5t121 141.5q90 83 134.5 158t44.5 157q0 153 -64 243t-206 90 q-104 0 -185.5 -72.5t-81.5 -180.5q0 -73 38.5 -138.5t106.5 -65.5q60 0 87 30t27 107q0 40 -10 91h44q31 -68 31 -131q0 -84 -44.5 -129.5t-134.5 -45.5q-108 0 -175 85t-67 197zM356 105q0 38 26.5 63.5t67.5 25.5q37 0 58.5 -25t21.5 -64q0 -36 -21.5 -60t-58.5 -24 q-41 0 -67.5 23.5t-26.5 60.5z" />
<glyph unicode="@" horiz-adv-x="1677" d="M84 703q0 131 35.5 253t105.5 226t168 181t230 121t284 44q154 0 284.5 -52.5t218 -144t136.5 -215t49 -264.5q0 -110 -33.5 -202.5t-89 -151t-123.5 -91t-139 -32.5q-66 0 -114 49t-48 142v29h-9q-69 -111 -151.5 -165.5t-205.5 -54.5q-97 0 -173 81t-76 201 q0 143 73 262t195.5 186t266.5 67q130 0 253 -48l-76 -366q-17 -67 -17 -146q0 -147 101 -153h8q98 0 176.5 106t78.5 273q0 175 -70.5 312.5t-208.5 217.5t-323 80q-145 0 -273 -52t-223.5 -145.5t-151 -232t-55.5 -302.5q0 -138 47.5 -256.5t129 -200t192 -127.5 t235.5 -46q230 0 366 89l36 -82q-175 -93 -408 -93q-140 0 -268 52t-224 143.5t-152.5 223.5t-56.5 284zM530 656q0 -82 49.5 -140.5t142.5 -58.5q62 0 122 36t104 91t75 116t42 116l50 245q-84 29 -160 29q-113 0 -210 -55t-156 -155.5t-59 -223.5z" />
<glyph unicode="A" horiz-adv-x="1216" d="M50 0l476 1502h128l468 -1502h-97l-122 406h-642l-124 -406h-87zM288 478h590l-293 974z" />
<glyph unicode="B" horiz-adv-x="1095" d="M162 0v1502h408q173 0 257 -81t84 -266q0 -73 -8 -123t-30.5 -97.5t-67.5 -79.5t-115 -51l2 -40q74 -18 124 -50t76.5 -79t37.5 -101t11 -126q0 -408 -367 -408h-412zM252 71h242q187 0 271.5 73t84.5 252q0 50 -6 93.5t-25 92t-50.5 82.5t-86 56.5t-127.5 22.5h-303 v-672zM252 814h285q80 0 136 25t87.5 71t45 103.5t13.5 131.5q0 59 -9.5 104.5t-23.5 75.5t-38.5 51t-45 31.5t-53 16t-52.5 6.5t-52 1h-293v-617z" />
<glyph unicode="C" horiz-adv-x="1095" d="M135 749q0 86 0.5 135.5t5 126.5t12.5 123t23.5 107.5t37.5 98t56 77.5t77.5 62.5t102.5 36t131 14.5q69 0 124.5 -15.5t92 -39t63.5 -59.5t41.5 -70t23 -77t10.5 -74t2 -67h-90q-12 332 -267 332q-73 0 -128 -19t-92 -46t-62.5 -83t-38.5 -102.5t-20 -135.5t-8 -150 t-1 -175q0 -87 0.5 -136t4 -122t9.5 -113.5t18 -95.5t30 -85t44 -64.5t60.5 -51t80.5 -28t103 -11.5q131 0 196.5 96t70.5 260h103q-2 -34 -5.5 -65.5t-14.5 -76t-27 -82t-44.5 -76.5t-65.5 -66t-92 -44t-121 -17q-72 0 -131 14.5t-102.5 36t-77.5 62.5t-56 77.5t-37.5 98 t-23.5 107t-12.5 122.5t-5 126t-0.5 134z" />
<glyph unicode="D" horiz-adv-x="1216" d="M173 0v1502h387q69 0 125 -9.5t100.5 -26.5t79 -47t59.5 -64t42.5 -84.5t28.5 -102t17.5 -123t8.5 -141t2 -161.5q0 -113 -5.5 -198t-19.5 -166t-38.5 -137.5t-63 -105t-93 -77t-128 -44t-168.5 -15.5h-334zM267 71h188q84 0 144.5 5.5t112 23.5t84.5 41.5t59.5 69.5 t40.5 97.5t23.5 135.5t12 173t2.5 220q0 123 -6.5 205t-25 153t-50 112.5t-84.5 71.5t-124.5 41t-174.5 11h-202v-1360z" />
<glyph unicode="E" d="M175 0v1502h656v-71h-564v-625h537v-70h-537v-665h581v-71h-673z" />
<glyph unicode="F" horiz-adv-x="851" d="M162 0v1502h608v-71h-518v-625h480v-70h-480v-736h-90z" />
<glyph unicode="G" horiz-adv-x="1216" d="M143 629v244q0 73 2.5 128t12.5 127.5t28 125t51.5 107.5t79 90t114.5 57t156 22q210 0 314.5 -90t104.5 -289h-91q-6 157 -83 233t-245 76q-73 0 -129 -19t-93.5 -46t-63 -82t-38.5 -100t-20 -130.5t-8 -142t-1 -163.5v-93q0 -72 1 -119.5t4.5 -109t10.5 -102t19.5 -88 t30.5 -77.5t44.5 -60.5t61 -47.5t80 -27.5t101.5 -10.5q176 0 311 49v601h-311v70h404v-733q-209 -58 -404 -58q-68 0 -125 13.5t-99.5 35.5t-76 57.5t-56.5 72t-39.5 86t-25.5 93.5t-14 100.5t-6.5 100t-1.5 99.5z" />
<glyph unicode="H" horiz-adv-x="1216" d="M166 0v1502h95v-696h654v696h91v-1502h-91v736h-654v-736h-95z" />
<glyph unicode="I" horiz-adv-x="484" d="M189 0v1502h91v-1502h-91z" />
<glyph unicode="J" d="M63 393h93q0 -60 5 -105.5t20.5 -94t43 -80t75 -51.5t112.5 -20q53 0 97.5 14.5t82.5 46.5t59.5 90.5t21.5 138.5v1170h89v-1191q0 -69 -18 -125t-43.5 -90.5t-63.5 -60t-69 -37.5t-69.5 -18.5t-54.5 -7.5t-34 -1q-89 0 -153.5 24.5t-101.5 62t-58 96t-27.5 113 t-6.5 126.5z" />
<glyph unicode="K" horiz-adv-x="1095" d="M181 0v1502h93v-1502h-93zM274 755v87l35 -47zM309 795l550 707h107l-570 -700l589 -802h-114z" />
<glyph unicode="L" horiz-adv-x="851" d="M160 0v1502h90v-1431h512v-71h-602z" />
<glyph unicode="M" horiz-adv-x="1704" d="M173 0v1502h181l475 -1452l472 1452h170v-1502h-84v1399l-42 5l-455 -1404h-126l-463 1404l-48 -5v-1399h-80z" />
<glyph unicode="N" horiz-adv-x="1339" d="M185 0v1502h143l650 -1353l43 -78v1431h84v-1502h-137l-655 1368l-44 99v-1467h-84z" />
<glyph unicode="O" horiz-adv-x="1216" d="M143 749q0 87 0.5 135.5t4.5 126.5t12 123t23.5 107.5t37.5 98.5t55.5 77t77 62.5t102.5 36t131 14.5t130.5 -14.5t102 -36t77 -62.5t55.5 -77t37 -98.5t23 -107.5t12 -123t4.5 -126.5t0.5 -135.5q0 -86 -0.5 -134t-4.5 -126t-12 -122.5t-23 -107t-37 -98.5t-55.5 -77 t-77 -62.5t-102 -36t-130.5 -14.5t-131 14.5t-102.5 36t-77 62.5t-55.5 77t-37.5 98.5t-23.5 107t-12 122.5t-4.5 126t-0.5 134zM234 749q0 -88 0.5 -136t4 -121.5t9.5 -114t18 -95.5t30 -84.5t44.5 -64.5t61 -51.5t81.5 -28t104 -11.5q74 0 130 19.5t93 45t62 83.5 t38 101.5t19.5 135.5t7.5 148t1 174q0 119 -1 175.5t-7.5 149t-19.5 136t-38 102t-62 84t-93 45t-130 19.5q-65 0 -115.5 -11.5t-87 -41t-62.5 -59t-42.5 -86.5t-26 -100t-13.5 -124t-5 -135t-1 -154z" />
<glyph unicode="P" d="M152 0v1502h403q31 0 55 -2t59 -9.5t61 -21.5t54.5 -40.5t46.5 -62.5t30 -91t12 -124q0 -228 -79.5 -330.5t-265.5 -102.5h-282v-718h-94zM246 789h276q125 0 191 74.5t66 258.5q0 69 -9.5 121.5t-28.5 85t-41 54t-54 31.5t-60 13.5t-66 3.5h-274v-642z" />
<glyph unicode="Q" horiz-adv-x="1216" d="M143 749v124q0 57 1 99t6 99.5t14 100.5t25 93t38.5 86.5t56 72t76 57.5t99.5 35.5t126 13.5t126 -13.5t99.5 -35.5t76.5 -57.5t56.5 -72t39 -86.5t25 -93t13.5 -100t6.5 -100t1.5 -99v-124q0 -307 -44 -446.5t-181 -228.5q43 0 160 -1.5t164 -1.5v-71h-271q-34 0 -98 -5 t-105 -5q-84 0 -151.5 12t-118.5 28t-89 52.5t-63.5 66t-43 89.5t-26.5 101t-13.5 123.5t-5 133.5t-0.5 153zM234 777q0 -89 1.5 -151.5t5.5 -132t11.5 -116t20.5 -96t31.5 -80.5t44.5 -60.5t60 -45t78 -25t98 -9.5q66 0 117.5 17.5t88.5 47.5t63.5 79t42.5 103t25.5 128.5 t12.5 146.5t3 166q0 273 -13 374q-25 203 -127 279q-78 58 -213 58q-57 0 -103 -11.5t-80.5 -28.5t-61 -50.5t-44 -64t-29.5 -83t-18.5 -92.5t-10 -109t-4 -116t-0.5 -128z" />
<glyph unicode="R" horiz-adv-x="1095" d="M162 0v1502h404q105 0 172 -18t106.5 -61t55.5 -106t15 -162q0 -61 -4.5 -103.5t-18.5 -85.5t-39 -72t-67 -52.5t-102 -37.5v-40q35 -8 56.5 -13.5t45.5 -16.5t37 -19.5t27.5 -30t21 -40t14 -56.5t9.5 -72t4.5 -95t3 -117t0.5 -146q0 -71 8 -114l6 -44h-88q-9 48 -14 168 t-5 196v70q0 29 -2 54t-8.5 58.5t-18 60t-32.5 53.5t-49.5 45.5t-71.5 30t-96 11.5h-280v-747h-90zM252 819h245q88 0 145 14t99.5 50.5t61 102.5t18.5 169q0 85 -16 140t-51.5 84.5t-81.5 40.5t-116 11h-304v-612z" />
<glyph unicode="S" horiz-adv-x="1095" d="M131 391h100q0 -61 4.5 -104.5t23 -93t50.5 -80t91 -51t141 -20.5q145 0 217.5 75t72.5 220q0 71 -16 122t-62 97t-81.5 71t-121.5 78l-24 15l-71 44q-93 59 -153.5 112t-92 103.5t-42.5 94.5t-11 100q0 356 397 356q85 0 149 -20t103.5 -53t64.5 -83t35 -102t13 -117 h-95q-4 76 -17.5 128t-44 94.5t-85 62.5t-135.5 20q-147 0 -220 -59t-73 -204q0 -41 5 -74.5t11.5 -57.5t22.5 -47.5t27 -37.5t37 -33.5t41 -29t50 -31.5v2l105 -71q33 -22 91.5 -57.5t90.5 -56t74.5 -57.5t64.5 -73t38 -91t16 -122q0 -389 -390 -389q-201 0 -301 108.5 t-100 311.5z" />
<glyph unicode="T" d="M46 1431v71h846v-71h-378v-1431h-93v1431h-375z" />
<glyph unicode="U" horiz-adv-x="1216" d="M158 452v1050h90v-949q0 -62 1 -96t7 -96.5t18.5 -99t37 -83.5t60 -73t90.5 -44.5t125 -18.5q55 0 100.5 11.5t78 28t58.5 46.5t42.5 56.5t28 69t17 72t8.5 78.5t3.5 75t0.5 74v949h94v-1050q0 -481 -431 -481q-429 0 -429 481z" />
<glyph unicode="V" horiz-adv-x="1095" d="M42 1502h95l387 -1452l402 1452h88l-431 -1502h-114z" />
<glyph unicode="W" horiz-adv-x="1825" d="M38 1502h97l332 -1443l21 86l316 1357h149l328 -1437l352 1437h88l-372 -1502h-145l-322 1471h-11l-336 -1471h-135z" />
<glyph unicode="X" horiz-adv-x="1095" d="M48 0l406 776l-372 726h95l345 -673l353 673h91l-385 -726l423 -776h-110l-380 734l-369 -734h-97z" />
<glyph unicode="Y" horiz-adv-x="1095" d="M55 1502h107l366 -799l383 799h87l-426 -877v-625h-92v625z" />
<glyph unicode="Z" d="M69 0v122l720 1309h-680v71h754v-126l-716 -1305h724v-71h-802z" />
<glyph unicode="[" horiz-adv-x="589" d="M196 -513v2013h406v-63h-328v-1891h328v-59h-406z" />
<glyph unicode="\" horiz-adv-x="568" d="M2 1458h112l456 -1458h-105z" />
<glyph unicode="]" horiz-adv-x="589" d="M-11 -454h329v1891h-329v63h405v-2013h-405v59z" />
<glyph unicode="^" horiz-adv-x="1303" d="M152 455l450 995h101l450 -995h-103l-394 898h-4l-395 -898h-105z" />
<glyph unicode="_" horiz-adv-x="1095" d="M0 -137h1096v-111h-1096v111z" />
<glyph unicode="`" horiz-adv-x="657" d="M63 1543h162l200 -306h-84z" />
<glyph unicode="a" d="M93 282q0 65 17.5 117t42.5 86t69.5 59.5t81.5 39t96.5 22.5t96.5 11.5t98 5.5l112 4v114q0 141 -54 212.5t-190 71.5q-98 0 -164.5 -50t-77.5 -142h-91q12 126 107.5 187.5t235.5 61.5q30 0 52 -1t57.5 -7t62 -16t56 -30t48.5 -47.5t31.5 -70t12.5 -96.5v-557 q0 -156 13 -257h-88v187q-32 -71 -89 -120.5t-120.5 -70.5t-131.5 -21q-136 0 -210 83.5t-74 223.5zM189 290q0 -109 56.5 -180.5t164.5 -71.5q79 0 150.5 58t109 127.5t37.5 117.5v217h-105q-48 0 -83.5 -1.5t-81.5 -7.5t-78.5 -17t-66.5 -31t-55 -47.5t-34.5 -69.5 t-13.5 -94z" />
<glyph unicode="b" d="M143 0q6 40 6 86v1452h85v-692q20 67 49 113t56 70t66.5 36.5t65.5 14.5t70 2q60 0 108 -16t79.5 -41.5t55 -64.5t36 -77t19.5 -88.5t9 -89.5t2 -88v-87q0 -60 -1.5 -105t-9 -106.5t-20 -106t-36 -92t-56.5 -77t-82.5 -49t-112.5 -19.5q-99 0 -185.5 47.5t-115.5 143.5 q0 -20 -3 -81.5t-3 -84.5h-82zM244 547q0 -50 1 -87.5t6.5 -93.5t15 -97.5t28.5 -87.5t44.5 -75t65 -48.5t89.5 -19.5q43 0 78.5 8.5t62 21.5t46.5 37t34 46.5t23 59.5t14.5 67t8 77.5t3 81.5t0.5 89q0 50 -0.5 81t-2.5 75.5t-6 72.5t-10.5 64.5t-17 59.5t-25 49t-34.5 41.5 t-45 29.5t-57.5 20t-71.5 6q-61 0 -107.5 -33.5t-72.5 -83.5t-42.5 -118t-22 -125.5t-5.5 -117.5z" />
<glyph unicode="c" horiz-adv-x="851" d="M97 526q0 197 14 279q33 193 173 250q65 27 156 27q286 0 286 -293h-86q0 114 -51 175t-168 61q-44 0 -79.5 -14t-59.5 -36t-41.5 -56t-27 -68.5t-15.5 -79t-7.5 -80.5t-1.5 -81v-122q0 -61 2.5 -106t9.5 -101.5t22.5 -96t39.5 -75t62.5 -53.5t89.5 -18q54 0 93.5 13 t63 34t39 54.5t21.5 65.5t10 77h86q-2 -72 -23.5 -128.5t-52 -89t-69 -54t-71 -28.5t-62.5 -7q-74 0 -131 18.5t-93.5 43.5t-62.5 74t-38.5 86.5t-19 106t-7.5 107.5t-1 115z" />
<glyph unicode="d" d="M103 530q0 46 0.5 74t3.5 78t8.5 83t16.5 79t26.5 76.5t40 63.5t55 52.5t73.5 32.5t94 13q40 0 78.5 -7.5t81 -25t77 -54t53.5 -88.5q0 95 2.5 314.5t2.5 316.5h86v-1342q0 -140 8 -196h-78l-6 187q-24 -76 -76 -125.5t-109.5 -68t-121.5 -18.5q-62 0 -111.5 18.5 t-82 47.5t-56 75.5t-36 90.5t-20 105.5t-9 108t-1.5 109.5zM189 526q0 -91 7 -163t18.5 -122t30.5 -86.5t39.5 -57.5t49.5 -33t55.5 -16t62.5 -4q115 0 188 93t73 296v17q0 90 -1.5 137t-8 126.5t-23.5 123t-45 91.5t-75.5 69.5t-111.5 21.5q-54 0 -95 -14.5t-68.5 -34 t-46 -60.5t-28.5 -73.5t-14.5 -94t-5.5 -101.5t-1 -115z" />
<glyph unicode="e" d="M116 368v272q0 229 89.5 335.5t270.5 106.5q57 0 103.5 -9.5t81.5 -24.5t62 -42.5t45 -53.5t30.5 -68.5t19 -76.5t10 -88t4.5 -92.5t1 -100.5h-631v-107q0 -56 6 -105t24.5 -101.5t48 -89.5t79.5 -61t116 -24q127 0 193 68t72 186h90q-23 -317 -355 -317q-360 0 -360 393 zM202 587h545q0 110 -11 184.5t-40 135t-83.5 89.5t-136.5 29q-68 0 -116.5 -20t-79 -55t-48 -92t-24 -120.5t-6.5 -150.5z" />
<glyph unicode="f" horiz-adv-x="609" d="M57 1002v61h177v208q0 38 3 67t18 71t41 69.5t77 48t122 20.5l50 -4v-70h-74q-43 0 -73.5 -15t-45 -33.5t-22.5 -51t-9 -51t-1 -49.5v-210h223v-61h-223v-1002h-86v1002h-177z" />
<glyph unicode="g" d="M103 511q0 181 4.5 229.5t27.5 141.5q6 22 22 50t48 64.5t90 61t130 24.5q90 0 177 -47t124 -137v167h80q-4 -40 -4 -89v-1037q0 -93 -16 -157t-56.5 -113t-113.5 -72.5t-182 -23.5q-69 0 -123 17t-87 43.5t-54 62.5t-29 69.5t-8 68.5h86q1 -96 65.5 -150t165.5 -54 q50 0 88 5t66 21t47 29.5t31.5 48t19.5 57.5t10 76.5t3.5 87t0.5 106.5v10v129q-59 -187 -295 -187q-62 0 -111.5 16t-82.5 41t-56.5 65.5t-36.5 79.5t-20 94.5t-9 99t-2 102.5zM189 556q0 -81 1.5 -122t8 -108.5t23 -103t44.5 -74.5t74.5 -55.5t109.5 -16.5q79 0 139.5 43 t83.5 91q26 67 34 150t8 322q0 91 -23 159t-62.5 106t-86 56t-99.5 18q-41 0 -75 -11t-59 -27.5t-44.5 -44.5t-32 -53.5t-21.5 -64t-13 -66.5t-6.5 -70t-3 -66t-0.5 -62z" />
<glyph unicode="h" d="M145 0v1538h86v-661q15 59 48 101.5t76 64t85 30.5t86 9q53 0 95 -11.5t70.5 -29.5t50 -45t33 -54t18.5 -61.5t9 -62t2 -60.5v-758h-86v751q0 117 -54 192.5t-170 75.5q-109 0 -186 -94.5t-77 -282.5v-642h-86z" />
<glyph unicode="i" horiz-adv-x="484" d="M177 1418v120h14l104 -120h-118zM191 0v1094h93v-1094h-93z" />
<glyph unicode="j" horiz-adv-x="484" d="M27 -356q15 -4 38 -4q29 0 50 4t36 10t24.5 20.5t15 26.5t8 38.5t3 46t0.5 58.5v1252h93v-1321q0 -34 -8 -65t-27.5 -64t-60.5 -53t-100 -20q-57 0 -72 2v69zM191 1418v120h114v-120h-114z" />
<glyph unicode="k" horiz-adv-x="851" d="M149 0v1538h85v-1010l4 4q-4 -350 -4 -532h-85zM238 532v122l42 -65zM280 589l376 474h93l-372 -472l402 -591h-110z" />
<glyph unicode="l" horiz-adv-x="484" d="M194 0v1538h86v-1538h-86z" />
<glyph unicode="m" horiz-adv-x="1460" d="M135 0v1065h73v-192q30 96 115 152.5t176 56.5q82 0 148 -53t98 -154q12 59 41 101.5t69.5 64.5t81 31.5t86.5 9.5q124 0 192 -76t73 -204v-802h-86v770q0 48 -10 90t-31.5 79t-60.5 58.5t-92 21.5q-66 0 -117 -30.5t-79 -81t-42 -107.5t-14 -118v-682h-85v770 q-17 249 -195 249q-53 0 -96.5 -20.5t-72.5 -54t-49 -77.5t-28.5 -90.5t-8.5 -94.5v-682h-86z" />
<glyph unicode="n" d="M145 0v1063h86v-186q15 57 47.5 99t75 64t85 32t87.5 10q53 0 95 -11.5t70.5 -29.5t50 -45t33 -54t18.5 -61.5t9 -62t2 -60.5v-758h-86v751q0 117 -54 193.5t-170 76.5q-107 0 -185 -102t-78 -290v-629h-86z" />
<glyph unicode="o" d="M116 412v240q0 209 89 319.5t271 110.5q180 0 268.5 -111t88.5 -319v-240q0 -210 -89 -323.5t-268 -113.5q-182 0 -271 113t-89 324zM202 530q0 -82 4 -141.5t14 -118t29 -98t49 -70.5t74.5 -45.5t103.5 -14.5q69 0 118.5 23t79 61t46 103t22 133.5t5.5 167.5 q0 100 -5.5 169t-22 134.5t-46 103.5t-78.5 61t-119 23q-59 0 -103.5 -14.5t-74.5 -45.5t-49 -70.5t-29.5 -98.5t-14 -119t-3.5 -143z" />
<glyph unicode="p" d="M149 -419v1482h82v-186q21 60 58.5 103.5t81.5 64t81.5 29t73.5 8.5q52 0 96 -10.5t75 -26.5t56 -42.5t40.5 -51t27 -60t17 -61t8.5 -63.5t3.5 -58t0.5 -52v-245q0 -216 -82.5 -326.5t-273.5 -110.5q-35 0 -68 7.5t-71.5 27t-69.5 62t-47 103.5q0 -87 -2 -294t-2 -300 h-85zM240 434q0 -193 72 -291.5t182 -98.5q70 0 119 22.5t78 60.5t45.5 103t22 133t5.5 167q0 100 -5.5 168.5t-22 133.5t-45.5 103t-78 61t-119 23q-40 0 -81.5 -20.5t-81.5 -63t-65.5 -122t-25.5 -182.5v-197z" />
<glyph unicode="q" d="M99 438v90q0 60 2 105.5t9 106.5t20 106t37 91.5t57 76.5t82.5 49t112.5 19q99 0 182.5 -39.5t118.5 -131.5q0 21 3 75.5t3 76.5h82q-6 -43 -6 -87v-1395h-86v594q-39 -200 -310 -200q-60 0 -107.5 16t-79.5 41t-55 64.5t-35 77t-19 88.5t-9 89t-2 87zM185 547 q0 -65 1.5 -103.5t8 -108t23.5 -112.5t44.5 -89.5t75 -69t110.5 -22.5q56 0 99 15t71 35.5t47 62t29 73.5t15 93t5.5 97t0.5 108t-0.5 108.5t-5.5 99t-15 95t-29 75.5t-47 64.5t-71 37t-99 15.5q-263 0 -263 -474z" />
<glyph unicode="r" horiz-adv-x="609" d="M158 0v1063h86v-183q40 91 128.5 144t180.5 58v-85q-146 0 -227.5 -79t-81.5 -228v-690h-86z" />
<glyph unicode="s" horiz-adv-x="851" d="M109 282h87q3 -61 14 -103t35 -78t68.5 -53.5t109.5 -17.5q212 0 212 220q0 55 -21.5 99.5t-56.5 72.5t-80 55.5t-92 48t-92 49.5t-80 61t-56.5 82.5t-21.5 112.5q0 251 315 251q250 0 265 -272h-84q-6 111 -54 163t-163 52q-84 0 -138.5 -50.5t-54.5 -132.5 q0 -58 27.5 -103.5t71.5 -75.5t97 -57t106.5 -56.5t97.5 -65t71.5 -91t27.5 -126.5q0 -143 -78.5 -217.5t-226.5 -74.5q-162 0 -234 74t-72 233z" />
<glyph unicode="t" horiz-adv-x="609" d="M50 1002v61h179v237l84 34v-271h224v-61h-224v-735q0 -51 2 -82t11 -56.5t20 -37t36.5 -19.5t52.5 -9.5t76 -1.5q16 0 26 4v-65q-15 -4 -40 -4q-156 0 -212 40t-56 151v815h-179z" />
<glyph unicode="u" d="M152 303v760h86v-739v-2q2 -7 0 -24.5t3 -43t10.5 -54t22 -56.5t37.5 -50t56.5 -36t80.5 -14q55 0 101 21t75 53t49.5 71t29 74t8.5 63v737h84v-1063h-65v164q-34 -70 -87.5 -114t-107 -59.5t-114.5 -15.5q-269 0 -269 328z" />
<glyph unicode="v" horiz-adv-x="851" d="M42 1063h91l286 -1008l294 1008h76l-316 -1063h-113z" />
<glyph unicode="w" horiz-adv-x="1460" d="M32 1063h94l257 -1004l21 -2l244 1006h126l255 -1008l23 2l257 1006h82l-292 -1063h-125l-254 978h-21l-244 -978h-127z" />
<glyph unicode="x" horiz-adv-x="851" d="M55 0l311 568l-263 495h105l215 -449l236 449h90l-286 -495l314 -568h-104l-259 509l-269 -509h-90z" />
<glyph unicode="y" horiz-adv-x="851" d="M42 1063h91l290 -973l284 973h82l-448 -1482h-80l124 392z" />
<glyph unicode="z" horiz-adv-x="728" d="M76 0v78l477 924h-452v61h524v-82l-467 -922h477v-59h-559z" />
<glyph unicode="{" horiz-adv-x="589" d="M48 617v80h13q56 0 94.5 14.5t56.5 41t25 53.5t7 61q0 63 -24 186t-24 186q0 147 91 219t243 72h28v-84h-42q-120 0 -170.5 -54.5t-50.5 -166.5q0 -55 22 -170.5t22 -176.5q0 -78 -38.5 -136.5t-100.5 -80.5v-4q60 -19 99.5 -81.5t39.5 -139.5q0 -58 -22 -173t-22 -175 q0 -223 221 -223h42v-84h-28q-153 0 -243.5 76t-90.5 240q0 61 24 178t24 173q0 169 -189 169h-7z" />
<glyph unicode="|" horiz-adv-x="92" d="M0 -614v2300h93v-2300h-93z" />
<glyph unicode="}" horiz-adv-x="589" d="M32 -135h42q221 0 221 223q0 60 -21.5 175t-21.5 173q0 78 38.5 140.5t102.5 80.5v4q-63 22 -102 80t-39 137q0 61 21.5 176.5t21.5 170.5q0 112 -50.5 166.5t-170.5 54.5h-42v84h29q152 0 242.5 -72t90.5 -219q0 -66 -22.5 -188.5t-22.5 -183.5q0 -27 3.5 -48.5 t14.5 -45.5t30 -39.5t53 -26t80 -10.5h13v-80h-8q-58 0 -97.5 -15.5t-57.5 -43t-24.5 -53t-6.5 -57.5q0 -56 22.5 -173t22.5 -178q0 -164 -90.5 -240t-242.5 -76h-29v84z" />
<glyph unicode="~" horiz-adv-x="1303" d="M91 345v21q0 125 71 198.5t173 73.5q54 0 106 -16.5t179 -68.5q8 -3 13 -5l12.5 -5t13.5 -6q8 -3 43 -18t44.5 -19t39.5 -16t42.5 -16t37.5 -11.5t41 -10.5t36.5 -5.5t39.5 -2.5q147 0 147 197h84q0 -4 1 -12.5t1 -12.5q0 -70 -21 -124t-56.5 -84.5t-76 -45.5t-84.5 -15 q-59 0 -133 21t-205 78q-16 7 -54 24.5t-54.5 25t-48 19.5t-51.5 17.5t-46.5 10t-50.5 4.5q-158 0 -158 -196h-86z" />
<glyph unicode="&#xa4;" horiz-adv-x="1159" d="M103 74l141 139q-40 35 -66.5 110t-26.5 155q0 174 101 282l-149 141l68 67l142 -149q120 96 266 96h2q80 0 149.5 -26.5t115.5 -69.5l156 149l67 -65l-162 -143q39 -45 63.5 -116.5t24.5 -144.5q0 -89 -24.5 -164t-59.5 -112l150 -149l-68 -70l-147 156 q-98 -97 -274 -97q-76 0 -145.5 23t-117.5 61l-143 -143zM252 484q0 -72 21 -131.5t54.5 -96.5t76.5 -62.5t84.5 -36t81.5 -10.5q46 0 89 10t86.5 35.5t76 63.5t52.5 100.5t20 140.5q0 56 -19 111.5t-56 105.5t-101.5 81.5t-145.5 31.5h-2q-99 0 -173.5 -51t-109.5 -127.5 t-35 -164.5z" />
<glyph unicode="&#xa6;" horiz-adv-x="480" d="M215 360h80v-905h-80v905zM215 673v905h80v-905h-80z" />
<glyph unicode="&#xa7;" horiz-adv-x="940" d="M76 629q0 261 237 349q-71 50 -98.5 107.5t-27.5 143.5q0 76 24.5 131.5t65.5 84.5t85.5 42t94.5 13q122 0 193.5 -81t71.5 -262v-12h-70q0 148 -50.5 205.5t-146.5 57.5q-16 0 -31.5 -1.5t-46.5 -12t-53 -28.5t-39.5 -56.5t-17.5 -91.5q0 -22 3 -40.5t6.5 -34t14 -30 t17.5 -25t26 -24t30.5 -21.5t39 -23t45 -23.5t54.5 -27.5t61 -31q69 -35 115.5 -68t86.5 -78.5t59 -105t19 -135.5q0 -68 -16 -125.5t-39.5 -95.5t-56 -68.5t-60.5 -46.5t-58 -28q122 -70 122 -240q0 -126 -70.5 -211t-206.5 -85q-58 0 -105 15.5t-77.5 44t-52 63.5t-33 78 t-16 83t-4.5 84h77q0 -26 2.5 -51.5t9.5 -59.5t22 -61.5t37 -52.5t58 -39t82 -14q82 0 139.5 50t57.5 150q0 38 -10 68.5t-24 50.5t-43.5 40.5t-52 32.5t-66 34t-71.5 37q-164 80 -238.5 177t-74.5 248zM162 633q0 -59 12.5 -104.5t36.5 -82t70.5 -71.5t101.5 -65.5 t143 -71.5q62 20 107 53t68 65t36 71.5t16 64t3 51.5q0 49 -8 87t-29 71t-46 58t-72.5 53t-93 51t-122.5 57q-40 -7 -76.5 -24.5t-71 -49.5t-55 -87t-20.5 -126z" />
<glyph unicode="&#xa9;" horiz-adv-x="1752" d="M109 814q0 155 60 296t162.5 244.5t245 164.5t300.5 61q155 0 296.5 -60.5t244.5 -162.5t164 -244.5t61 -298.5t-61 -298.5t-163.5 -245.5t-244.5 -163.5t-297 -60.5q-158 0 -300.5 61t-245 164.5t-162.5 245.5t-60 297zM196 814q0 -192 89.5 -353t246.5 -255t345 -94 q136 0 261.5 55.5t216.5 149t145.5 224t54.5 273.5t-55 273.5t-147 224t-217 148.5t-259 55q-186 0 -343 -93.5t-247.5 -255t-90.5 -352.5zM522 816q0 194 90 302.5t265 108.5q128 0 218 -68t94 -183h-95q-7 76 -58 125.5t-159 49.5q-51 0 -92 -15t-67 -37.5t-45 -56 t-28.5 -62.5t-14.5 -65t-6 -56t-1 -43q0 -63 12 -113.5t30.5 -83t45 -56.5t50 -35.5t51.5 -18.5t44 -8.5t32 -1.5q49 0 88 15.5t61 37t37.5 51.5t21.5 51t9 43h95q-5 -23 -9.5 -40t-16.5 -48t-26 -53.5t-39 -49t-54.5 -43.5t-73 -28.5t-95.5 -11.5q-173 0 -268.5 101.5 t-95.5 291.5z" />
<glyph unicode="&#xab;" horiz-adv-x="1068" d="M152 406l311 400h78l-253 -400l253 -402h-82zM551 406l306 400h81l-254 -400l254 -402h-84z" />
<glyph unicode="&#xac;" horiz-adv-x="1303" d="M88 596v88h1130v-556h-96v468h-1034z" />
<glyph unicode="&#xad;" horiz-adv-x="787" d="M48 455v92h731v-92h-731z" />
<glyph unicode="&#xae;" horiz-adv-x="1752" d="M109 817q0 155 61 297t164 244.5t245 163.5t298 61q157 0 299.5 -61t244.5 -164t162 -244.5t60 -296.5q0 -157 -60 -299.5t-162.5 -245.5t-244.5 -163.5t-299 -60.5q-156 0 -298 60.5t-245 163.5t-164 245.5t-61 299.5zM196 817q0 -189 91.5 -351t248.5 -257t341 -95 q187 0 342.5 93t245.5 255t90 355q0 192 -90 353t-245.5 254t-342.5 93q-136 0 -262 -55.5t-217.5 -149t-146.5 -223.5t-55 -272zM596 440v764h330q69 0 120 -17t77 -40t41.5 -56t19 -57t3.5 -51q0 -130 -129 -183v-5q32 -8 53 -25t32.5 -42.5t16 -48t8.5 -56.5 q3 -31 5 -70.5t3 -53t6.5 -30t16.5 -29.5h-103q-19 22 -24 51.5t-5 122.5q-5 64 -16 85q-30 59 -153 59h-206v-318h-96zM692 833h211q76 0 129.5 38t53.5 112q0 147 -198 147h-196v-297z" />
<glyph unicode="&#xaf;" horiz-adv-x="1310" d="M-25 1492v91h1424v-91h-1424z" />
<glyph unicode="&#xb0;" horiz-adv-x="949" d="M179 1286q0 113 93.5 197.5t219.5 84.5t219 -84.5t93 -197.5q0 -123 -92 -207t-220 -84q-123 0 -218 83.5t-95 207.5zM234 1286q0 -100 76 -164t182 -64q107 0 182 64t75 164q0 89 -76.5 155t-180.5 66q-103 0 -180.5 -66.5t-77.5 -154.5z" />
<glyph unicode="&#xb1;" horiz-adv-x="1303" d="M88 -72h1130v-88h-1130v88zM88 541v88h516v453h97v-453h517v-88h-517v-470h-97v470h-516z" />
<glyph unicode="&#xb4;" horiz-adv-x="787" d="M320 1315l139 261h193l-227 -261h-105z" />
<glyph unicode="&#xb6;" horiz-adv-x="1159" d="M76 1105q0 70 15.5 133t58.5 127.5t109.5 111.5t177 76.5t253.5 29.5q176 0 242 -15v-1572h-95v1500h-164v-1500h-94v679h-21q-86 0 -169 27t-154 78t-115 135.5t-44 189.5z" />
<glyph unicode="&#xb7;" horiz-adv-x="740" d="M295 370v175h178v-175h-178z" />
<glyph unicode="&#xba;" horiz-adv-x="657" d="M65 1069q0 117 78 195.5t189 78.5h1q122 0 190 -75t68 -178q0 -62 -23.5 -114.5t-62 -86t-85.5 -52t-96 -18.5q-116 0 -187.5 74t-71.5 176zM149 1071q0 -77 50 -128t127 -51q78 0 130.5 54t52.5 138q0 28 -8 57t-26.5 60t-57 50.5t-91.5 19.5h-2q-47 0 -82.5 -18.5 t-54.5 -49t-28.5 -64t-9.5 -68.5z" />
<glyph unicode="&#xbb;" horiz-adv-x="1068" d="M175 2l254 402l-254 400h84l305 -404l-305 -398h-84zM574 2l253 402l-253 400h80l301 -400l-301 -402h-80z" />
<glyph unicode="&#xc0;" horiz-adv-x="1216" d="M40 0q67 221 193.5 621t181.5 578l52 154h122l423 -1353h-97l-113 362h-564l-107 -362h-91zM267 438h510l-253 843q-43 -145 -128.5 -421.5t-128.5 -421.5zM303 1690h162l189 -288h-90z" />
<glyph unicode="&#xc1;" horiz-adv-x="1216" d="M40 0q67 221 193.5 621t181.5 578l52 154h122l423 -1353h-97l-113 362h-564l-107 -362h-91zM267 438h510l-253 843q-43 -145 -128.5 -421.5t-128.5 -421.5zM535 1444l132 246h128l-153 -246h-107z" />
<glyph unicode="&#xc2;" horiz-adv-x="1216" d="M40 0q67 221 193.5 621t181.5 578l52 154h122l423 -1353h-97l-113 362h-564l-107 -362h-91zM267 438h510l-253 843q-43 -145 -128.5 -421.5t-128.5 -421.5zM274 1450l197 240h112l194 -240h-85l-166 206l-162 -206h-90z" />
<glyph unicode="&#xc3;" horiz-adv-x="1216" d="M40 0q67 221 193.5 621t181.5 578l52 154h122l423 -1353h-97l-113 362h-564l-107 -362h-91zM200 1492q33 109 81 151.5t123 42.5q43 0 147 -43l30 -12q74 -34 122 -34q46 0 71.5 19t39.5 70h84q-14 -95 -64 -143.5t-123 -48.5q-34 0 -153.5 47.5t-145.5 47.5 q-97 0 -120 -97h-92zM267 438h510l-253 843q-43 -145 -128.5 -421.5t-128.5 -421.5z" />
<glyph unicode="&#xc4;" horiz-adv-x="1216" d="M40 0q67 221 193.5 621t181.5 578l52 154h122l423 -1353h-97l-113 362h-564l-107 -362h-91zM267 438h510l-253 843q-43 -145 -128.5 -421.5t-128.5 -421.5zM328 1505v166h93v-166h-93zM631 1505v166h95v-166h-95z" />
<glyph unicode="&#xc5;" horiz-adv-x="1216" d="M40 0q67 221 193.5 621t181.5 578l52 154h122l423 -1353h-97l-113 362h-564l-107 -362h-91zM267 438h510l-253 843q-43 -145 -128.5 -421.5t-128.5 -421.5zM442 1633q0 77 60 134t146 57q82 0 143 -57.5t61 -135.5q0 -84 -60 -142t-140 -58q-92 0 -151 58t-59 144z M528 1633q0 -45 32.5 -80.5t96.5 -35.5q53 0 81 34t28 80q0 41 -30.5 74t-83.5 33q-58 0 -91 -31t-33 -74z" />
<glyph unicode="&#xc6;" horiz-adv-x="1704" d="M40 0q74 159 204 445t177 388l236 520h717v-76h-545q7 -90 24 -270.5t25 -274.5h475v-75h-467l52 -581h461v-76h-582v362h-514l-93 -202q-11 -22 -37 -77.5t-40 -82.5h-93zM337 438h473l-74 843q-4 0 -10.5 0.5t-10.5 0.5z" />
<glyph unicode="&#xc7;" horiz-adv-x="1095" d="M116 675q0 88 1 137t5.5 126.5t16 122t29.5 102.5t48.5 91t71.5 65t100 45.5t132 13.5q326 0 326 -372h-95q-2 63 -13.5 112t-36 92.5t-70.5 67t-111 23.5q-56 0 -100 -10t-76 -36t-54.5 -51.5t-36.5 -75.5t-22.5 -88t-12 -109.5t-4.5 -119.5t-1 -136q0 -100 1 -153.5 t7 -131.5t17.5 -119t33.5 -90.5t54.5 -73.5t81 -40.5t112.5 -16.5q112 0 169 87t62 233h108q-24 -397 -352 -397q-8 0 -10 2l-85 -106l91 3q56 0 96.5 -33t40.5 -92q0 -143 -204 -143q-61 0 -156 28l23 36q56 -22 111 -22q57 0 98 22.5t41 74.5q0 45 -32.5 68t-78.5 23 q-38 0 -70 -19l-18 21l105 141q-63 10 -113 30t-85.5 56t-61 69t-41 90.5t-24.5 98t-12.5 114t-4.5 115.5t-1 125z" />
<glyph unicode="&#xc8;" d="M151 0v1353h598v-76h-501v-545h478v-75h-478v-581h516v-76h-613zM240 1690h166l189 -288h-94z" />
<glyph unicode="&#xc9;" d="M151 0v1353h598v-76h-501v-545h478v-75h-478v-581h516v-76h-613zM408 1444l133 246h195l-220 -246h-108z" />
<glyph unicode="&#xca;" d="M151 0v1353h598v-76h-501v-545h478v-75h-478v-581h516v-76h-613zM170 1450l194 240h112l195 -240h-84l-166 204l-164 -204h-87z" />
<glyph unicode="&#xcb;" d="M151 0v1353h598v-76h-501v-545h478v-75h-478v-581h516v-76h-613zM219 1523v167h97v-167h-97zM524 1523v167h93v-167h-93z" />
<glyph unicode="&#xcc;" horiz-adv-x="484" d="M-11 1690h163l187 -288h-89zM162 0v1353h95v-1353h-95z" />
<glyph unicode="&#xcd;" horiz-adv-x="484" d="M162 0v1353h95v-1353h-95zM223 1444l131 246h189l-215 -246h-105z" />
<glyph unicode="&#xce;" horiz-adv-x="484" d="M-42 1450q12 14 45.5 56t49.5 60l103 124h109l200 -240h-88l-169 206l-162 -206h-88zM162 0v1353h95v-1353h-95z" />
<glyph unicode="&#xcf;" horiz-adv-x="484" d="M11 1505v166h96v-166h-96zM162 0v1353h95v-1353h-95zM313 1505v166h95v-166h-95z" />
<glyph unicode="&#xd0;" horiz-adv-x="1216" d="M34 705v80h117v568h352q62 0 113 -8.5t91 -24t71 -42t54 -57t39 -76t26 -92t15.5 -111t7.5 -127t2 -146.5q0 -103 -4.5 -179t-17 -149t-34.5 -124t-57 -94.5t-84.5 -69t-116.5 -39.5t-154 -14h-303v705h-117zM248 76h160q75 0 128 5t98.5 20.5t74.5 36.5t52 62t35.5 86 t20.5 120t10 153.5t2 195.5q0 109 -5.5 181.5t-22 135.5t-44 98.5t-74 61.5t-109.5 35.5t-153 9.5h-173v-492h289v-80h-289v-629z" />
<glyph unicode="&#xd1;" horiz-adv-x="1339" d="M166 13v1327h145l562 -1210l45 -73v656q0 112 1 322t1 305h65v-1327h-139l-562 1226l-46 72q0 -99 -1 -326t-1 -339v-633h-70zM290 1494q25 105 74.5 150.5t129.5 45.5q40 0 152 -45.5t145 -45.5q46 0 71 19.5t39 71.5h82q-14 -96 -63 -145t-122 -49q-37 0 -155.5 47.5 t-143.5 47.5q-94 0 -116 -97h-93z" />
<glyph unicode="&#xd2;" horiz-adv-x="1216" d="M122 675q0 77 0.5 122t4.5 114t11 110.5t21.5 97t34.5 88.5t50.5 69.5t70 56t93 32.5t118.5 13q73 0 131 -13.5t99 -45.5t70.5 -65t48 -91t29.5 -102.5t15.5 -122t5.5 -126.5t1 -137q0 -78 -0.5 -121.5t-4.5 -113.5t-11 -110.5t-20.5 -96.5t-33.5 -88.5t-50.5 -69.5 t-69.5 -56.5t-92 -32.5t-118 -13t-118.5 13t-93 32.5t-70 56t-50.5 69.5t-34.5 88.5t-21.5 97t-11 110.5t-4.5 113.5t-0.5 121.5zM217 675q0 -88 1 -135.5t4.5 -118.5t12 -109t22.5 -88t37 -76t55 -51.5t76.5 -36t100.5 -10.5q50 0 90.5 10t71 24.5t53.5 45.5t38.5 56.5 t26 75.5t16 84.5t8 100.5t3 107.5t0.5 120.5q0 80 -0.5 122t-3 108t-8 100.5t-16 84.5t-26 75.5t-38.5 56t-53.5 45t-71 24.5t-90.5 10q-56 0 -100.5 -10t-76.5 -36t-55 -51.5t-37 -75.5t-22.5 -88t-12 -109.5t-4.5 -119.5t-1 -136zM303 1690h162l189 -288h-90z" />
<glyph unicode="&#xd3;" horiz-adv-x="1216" d="M122 675q0 77 0.5 122t4.5 114t11 110.5t21.5 97t34.5 88.5t50.5 69.5t70 56t93 32.5t118.5 13q73 0 131 -13.5t99 -45.5t70.5 -65t48 -91t29.5 -102.5t15.5 -122t5.5 -126.5t1 -137q0 -78 -0.5 -121.5t-4.5 -113.5t-11 -110.5t-20.5 -96.5t-33.5 -88.5t-50.5 -69.5 t-69.5 -56.5t-92 -32.5t-118 -13t-118.5 13t-93 32.5t-70 56t-50.5 69.5t-34.5 88.5t-21.5 97t-11 110.5t-4.5 113.5t-0.5 121.5zM217 675q0 -88 1 -135.5t4.5 -118.5t12 -109t22.5 -88t37 -76t55 -51.5t76.5 -36t100.5 -10.5q50 0 90.5 10t71 24.5t53.5 45.5t38.5 56.5 t26 75.5t16 84.5t8 100.5t3 107.5t0.5 120.5q0 80 -0.5 122t-3 108t-8 100.5t-16 84.5t-26 75.5t-38.5 56t-53.5 45t-71 24.5t-90.5 10q-56 0 -100.5 -10t-76.5 -36t-55 -51.5t-37 -75.5t-22.5 -88t-12 -109.5t-4.5 -119.5t-1 -136zM535 1444l132 246h187l-212 -246h-107z " />
<glyph unicode="&#xd4;" horiz-adv-x="1216" d="M122 675q0 77 0.5 122t4.5 114t11 110.5t21.5 97t34.5 88.5t50.5 69.5t70 56t93 32.5t118.5 13q73 0 131 -13.5t99 -45.5t70.5 -65t48 -91t29.5 -102.5t15.5 -122t5.5 -126.5t1 -137q0 -78 -0.5 -121.5t-4.5 -113.5t-11 -110.5t-20.5 -96.5t-33.5 -88.5t-50.5 -69.5 t-69.5 -56.5t-92 -32.5t-118 -13t-118.5 13t-93 32.5t-70 56t-50.5 69.5t-34.5 88.5t-21.5 97t-11 110.5t-4.5 113.5t-0.5 121.5zM217 675q0 -88 1 -135.5t4.5 -118.5t12 -109t22.5 -88t37 -76t55 -51.5t76.5 -36t100.5 -10.5q50 0 90.5 10t71 24.5t53.5 45.5t38.5 56.5 t26 75.5t16 84.5t8 100.5t3 107.5t0.5 120.5q0 80 -0.5 122t-3 108t-8 100.5t-16 84.5t-26 75.5t-38.5 56t-53.5 45t-71 24.5t-90.5 10q-56 0 -100.5 -10t-76.5 -36t-55 -51.5t-37 -75.5t-22.5 -88t-12 -109.5t-4.5 -119.5t-1 -136zM274 1450l197 240h112l194 -240h-85 l-166 206l-162 -206h-90z" />
<glyph unicode="&#xd5;" horiz-adv-x="1216" d="M122 675q0 77 0.5 122t4.5 114t11 110.5t21.5 97t34.5 88.5t50.5 69.5t70 56t93 32.5t118.5 13q73 0 131 -13.5t99 -45.5t70.5 -65t48 -91t29.5 -102.5t15.5 -122t5.5 -126.5t1 -137q0 -78 -0.5 -121.5t-4.5 -113.5t-11 -110.5t-20.5 -96.5t-33.5 -88.5t-50.5 -69.5 t-69.5 -56.5t-92 -32.5t-118 -13t-118.5 13t-93 32.5t-70 56t-50.5 69.5t-34.5 88.5t-21.5 97t-11 110.5t-4.5 113.5t-0.5 121.5zM217 675q0 -88 1 -135.5t4.5 -118.5t12 -109t22.5 -88t37 -76t55 -51.5t76.5 -36t100.5 -10.5q50 0 90.5 10t71 24.5t53.5 45.5t38.5 56.5 t26 75.5t16 84.5t8 100.5t3 107.5t0.5 120.5q0 80 -0.5 122t-3 108t-8 100.5t-16 84.5t-26 75.5t-38.5 56t-53.5 45t-71 24.5t-90.5 10q-56 0 -100.5 -10t-76.5 -36t-55 -51.5t-37 -75.5t-22.5 -88t-12 -109.5t-4.5 -119.5t-1 -136zM278 1494q33 110 80.5 153t123.5 43 q9 0 17.5 -1t19.5 -3.5t18 -4.5t21.5 -7.5t20.5 -7.5t25 -10t25 -10l30 -13q71 -34 107 -34q58 0 85.5 17t40.5 74h84q-15 -96 -65 -145t-122 -49q-35 0 -153.5 47.5t-143.5 47.5q-100 0 -122 -97h-92z" />
<glyph unicode="&#xd6;" horiz-adv-x="1216" d="M122 675q0 77 0.5 122t4.5 114t11 110.5t21.5 97t34.5 88.5t50.5 69.5t70 56t93 32.5t118.5 13q73 0 131 -13.5t99 -45.5t70.5 -65t48 -91t29.5 -102.5t15.5 -122t5.5 -126.5t1 -137q0 -78 -0.5 -121.5t-4.5 -113.5t-11 -110.5t-20.5 -96.5t-33.5 -88.5t-50.5 -69.5 t-69.5 -56.5t-92 -32.5t-118 -13t-118.5 13t-93 32.5t-70 56t-50.5 69.5t-34.5 88.5t-21.5 97t-11 110.5t-4.5 113.5t-0.5 121.5zM217 675q0 -88 1 -135.5t4.5 -118.5t12 -109t22.5 -88t37 -76t55 -51.5t76.5 -36t100.5 -10.5q50 0 90.5 10t71 24.5t53.5 45.5t38.5 56.5 t26 75.5t16 84.5t8 100.5t3 107.5t0.5 120.5q0 80 -0.5 122t-3 108t-8 100.5t-16 84.5t-26 75.5t-38.5 56t-53.5 45t-71 24.5t-90.5 10q-56 0 -100.5 -10t-76.5 -36t-55 -51.5t-37 -75.5t-22.5 -88t-12 -109.5t-4.5 -119.5t-1 -136zM328 1505v166h93v-166h-93zM631 1505v166 h91v-166h-91z" />
<glyph unicode="&#xd7;" d="M50 158l322 320l-322 320l53 52l322 -322l320 322l53 -52l-322 -320l317 -318v-9q-5 -7 -27 -23l-21 -25l-320 322l-322 -322z" />
<glyph unicode="&#xd8;" horiz-adv-x="1216" d="M101 -32l95 175q-74 137 -74 413v229q0 68 2 116t11 114.5t24.5 113.5t46 97t72 81t105 51t143.5 20q177 0 297 -120l94 162l36 -29l-99 -181q72 -142 72 -412v-230q0 -46 -1 -80.5t-4 -81t-9.5 -82.5t-16.5 -78t-26 -73.5t-37.5 -64.5t-51.5 -56t-66.5 -42t-84 -28 t-103.5 -9q-176 0 -297 124l-88 -152zM217 646q0 -97 1 -142t8.5 -121.5t23.5 -146.5l524 934q-70 131 -248 131q-51 0 -92 -10.5t-71.5 -25t-54 -46.5t-38.5 -57t-25.5 -75t-16 -82.5t-8 -98t-3 -103.5t-0.5 -115v-13v-29zM276 185q36 -67 95.5 -101t154.5 -34 q64 0 112.5 16.5t81 40.5t54.5 72t33.5 87.5t17.5 113.5t7 124t1 142q0 114 -1 166.5t-8.5 138.5t-23.5 160z" />
<glyph unicode="&#xd9;" horiz-adv-x="1216" d="M135 408v945h96v-854q0 -42 0.5 -65t3 -66.5t7.5 -69t15 -63t24.5 -60.5t37 -49.5t51 -41t68.5 -24.5t88 -10t88 10t68.5 24.5t51 41t37 49.5t24.5 60.5t15 63t7.5 69t3 66.5t0.5 65v854h97v-945q0 -435 -392 -435q-391 0 -391 435zM303 1690h162l189 -288h-90z" />
<glyph unicode="&#xda;" horiz-adv-x="1216" d="M135 408v945h96v-854q0 -42 0.5 -65t3 -66.5t7.5 -69t15 -63t24.5 -60.5t37 -49.5t51 -41t68.5 -24.5t88 -10t88 10t68.5 24.5t51 41t37 49.5t24.5 60.5t15 63t7.5 69t3 66.5t0.5 65v854h97v-945q0 -435 -392 -435q-391 0 -391 435zM535 1444l132 246h187l-212 -246h-107 z" />
<glyph unicode="&#xdb;" horiz-adv-x="1216" d="M135 408v945h96v-854q0 -42 0.5 -65t3 -66.5t7.5 -69t15 -63t24.5 -60.5t37 -49.5t51 -41t68.5 -24.5t88 -10t88 10t68.5 24.5t51 41t37 49.5t24.5 60.5t15 63t7.5 69t3 66.5t0.5 65v854h97v-945q0 -435 -392 -435q-391 0 -391 435zM274 1450l197 240h112l194 -240h-85 l-166 206l-162 -206h-90z" />
<glyph unicode="&#xdc;" horiz-adv-x="1216" d="M135 408v945h96v-854q0 -42 0.5 -65t3 -66.5t7.5 -69t15 -63t24.5 -60.5t37 -49.5t51 -41t68.5 -24.5t88 -10t88 10t68.5 24.5t51 41t37 49.5t24.5 60.5t15 63t7.5 69t3 66.5t0.5 65v854h97v-945q0 -435 -392 -435q-391 0 -391 435zM328 1505v166h93v-166h-93zM631 1505 v166h91v-166h-91z" />
<glyph unicode="&#xdd;" horiz-adv-x="1095" d="M61 1340h82l330 -721l346 721h63l-375 -774v-553h-71v553zM391 1444l131 246h189l-214 -246h-106z" />
<glyph unicode="&#xde;" d="M147 0v1502h105v-347h301q30 0 54.5 -2t59.5 -10t62 -22t55.5 -41t47.5 -63.5t31 -92.5t12 -126q0 -227 -81 -329.5t-268 -102.5h-274v-366h-105zM252 450h268q121 0 185.5 71t64.5 251q0 79 -14.5 135t-36.5 87.5t-57.5 49t-68 22.5t-77.5 5h-264v-621z" />
<glyph unicode="&#xdf;" horiz-adv-x="1095" d="M151 0v1214q0 44 8 86.5t32.5 91t63 84t106 59.5t155.5 24q78 0 147 -30t114.5 -91.5t45.5 -141.5q0 -57 -24 -113.5t-58 -102t-68 -88.5t-58 -88.5t-24 -87.5q0 -36 20.5 -72.5t53 -69.5t71.5 -67.5t78.5 -71.5t72 -76t53 -87.5t20.5 -99.5q0 -148 -83 -222.5 t-231 -74.5q-130 0 -196.5 67.5t-68.5 193.5h99q13 -186 191 -186q95 0 143.5 54t48.5 149q0 47 -20.5 92.5t-53 81.5t-71.5 71.5t-78.5 69t-72 67t-53 72t-20.5 78.5q0 57 24 113.5t58.5 103t69 92.5t58.5 100t24 107q0 58 -36 102t-87 64.5t-106 20.5q-251 0 -251 -318 v-1170h-97z" />
<glyph unicode="&#xe0;" d="M93 282q0 65 17.5 117t43 86t70.5 59.5t82 39t96.5 22.5t95.5 11.5t97 5.5l112 4v114q0 141 -54 212.5t-190 71.5q-98 0 -164.5 -50t-77.5 -142h-91q12 126 107.5 187.5t235.5 61.5q30 0 52 -1t57.5 -7t62 -16t56 -30t48.5 -47.5t31.5 -70t12.5 -96.5v-557 q0 -156 13 -257h-88v187q-32 -71 -89 -120.5t-120.5 -70.5t-131.5 -21q-136 0 -210 83.5t-74 223.5zM189 290q0 -109 56.5 -180.5t164.5 -71.5q122 0 209.5 92t87.5 211v225h-82q-49 0 -86.5 -1.5t-85 -8t-83 -18t-71.5 -32t-58.5 -49t-37 -71.5t-14.5 -96zM236 1543h162 l200 -306h-84z" />
<glyph unicode="&#xe1;" d="M93 282q0 65 17.5 117t43 86t70.5 59.5t82 39t96.5 22.5t95.5 11.5t97 5.5l112 4v114q0 141 -54 212.5t-190 71.5q-98 0 -164.5 -50t-77.5 -142h-91q12 126 107.5 187.5t235.5 61.5q30 0 52 -1t57.5 -7t62 -16t56 -30t48.5 -47.5t31.5 -70t12.5 -96.5v-557 q0 -156 13 -257h-88v187q-32 -71 -89 -120.5t-120.5 -70.5t-131.5 -21q-136 0 -210 83.5t-74 223.5zM189 290q0 -109 56.5 -180.5t164.5 -71.5q122 0 209.5 92t87.5 211v225h-82q-49 0 -86.5 -1.5t-85 -8t-83 -18t-71.5 -32t-58.5 -49t-37 -71.5t-14.5 -96zM494 1315 l139 261h190l-225 -261h-104z" />
<glyph unicode="&#xe2;" d="M93 282q0 65 17.5 117t43 86t70.5 59.5t82 39t96.5 22.5t95.5 11.5t97 5.5l112 4v114q0 141 -54 212.5t-190 71.5q-98 0 -164.5 -50t-77.5 -142h-91q12 126 107.5 187.5t235.5 61.5q30 0 52 -1t57.5 -7t62 -16t56 -30t48.5 -47.5t31.5 -70t12.5 -96.5v-557 q0 -156 13 -257h-88v187q-149 -212 -341 -212q-136 0 -210 83.5t-74 223.5zM189 290q0 -109 56.5 -180.5t164.5 -71.5q122 0 209.5 92t87.5 211v225h-82q-49 0 -86.5 -1.5t-85 -8t-83 -18t-71.5 -32t-58.5 -49t-37 -71.5t-14.5 -96zM204 1225l211 259h122l212 -259h-78 l-195 237l-188 -237h-84z" />
<glyph unicode="&#xe3;" d="M93 282q0 65 17.5 117t43 86t70.5 59.5t82 39t96.5 22.5t95.5 11.5t97 5.5l112 4v114q0 141 -54 212.5t-190 71.5q-98 0 -164.5 -50t-77.5 -142h-91q12 126 107.5 187.5t235.5 61.5q30 0 52 -1t57.5 -7t62 -16t56 -30t48.5 -47.5t31.5 -70t12.5 -96.5v-557 q0 -156 13 -257h-88v187q-32 -71 -89 -120.5t-120.5 -70.5t-131.5 -21q-136 0 -210 83.5t-74 223.5zM189 290q0 -109 56.5 -180.5t164.5 -71.5q122 0 209.5 92t87.5 211v225h-82q-49 0 -86.5 -1.5t-85 -8t-83 -18t-71.5 -32t-58.5 -49t-37 -71.5t-14.5 -96zM204 1372 q26 109 79 155.5t140 46.5q22 0 154.5 -49.5t180.5 -49.5q56 0 85.5 21t44.5 80h78q-14 -97 -68.5 -149.5t-133.5 -52.5q-37 0 -169 52.5t-162 52.5q-117 0 -141 -107h-88z" />
<glyph unicode="&#xe4;" d="M93 282q0 65 17.5 117t43 86t70.5 59.5t82 39t96.5 22.5t95.5 11.5t97 5.5l112 4v114q0 141 -54 212.5t-190 71.5q-98 0 -164.5 -50t-77.5 -142h-91q12 126 107.5 187.5t235.5 61.5q30 0 52 -1t57.5 -7t62 -16t56 -30t48.5 -47.5t31.5 -70t12.5 -96.5v-557 q0 -156 13 -257h-88v187q-149 -212 -341 -212q-136 0 -210 83.5t-74 223.5zM189 290q0 -109 56.5 -180.5t164.5 -71.5q122 0 209.5 92t87.5 211v225h-82q-49 0 -86.5 -1.5t-85 -8t-83 -18t-71.5 -32t-58.5 -49t-37 -71.5t-14.5 -96zM253 1252v175h96v-175h-96zM602 1252v175 h94v-175h-94z" />
<glyph unicode="&#xe5;" d="M93 282q0 65 17.5 117t43 86t70.5 59.5t82 39t96.5 22.5t95.5 11.5t97 5.5l112 4v114q0 141 -54 212.5t-190 71.5q-98 0 -164.5 -50t-77.5 -142h-91q12 126 107.5 187.5t235.5 61.5q30 0 52 -1t57.5 -7t62 -16t56 -30t48.5 -47.5t31.5 -70t12.5 -96.5v-557 q0 -156 13 -257h-88v187q-32 -71 -89 -120.5t-120.5 -70.5t-131.5 -21q-136 0 -210 83.5t-74 223.5zM189 290q0 -109 56.5 -180.5t164.5 -71.5q122 0 209.5 92t87.5 211v225h-82q-49 0 -86.5 -1.5t-85 -8t-83 -18t-71.5 -32t-58.5 -49t-37 -71.5t-14.5 -96zM385 1370 q0 83 65.5 145.5t157.5 62.5q88 0 154.5 -63.5t66.5 -146.5q0 -91 -65 -154t-154 -63q-97 0 -161 63.5t-64 155.5zM467 1370q0 -53 37 -95t113 -42q63 0 96.5 41t33.5 94q0 50 -36 89t-101 39q-68 0 -105.5 -37t-37.5 -89z" />
<glyph unicode="&#xe6;" horiz-adv-x="1581" d="M86 265q0 54 11 98.5t28 77.5t46.5 59.5t58 43.5t71 29.5t78 19t86 10t87.5 4.5t90 1h69q0 41 -0.5 65.5t-3 64t-7 64.5t-13.5 58.5t-21.5 54.5t-32.5 44t-44.5 36t-59 21.5t-75.5 8.5q-98 0 -164 -50t-77 -142h-93q18 127 111.5 188t233.5 61q95 0 179.5 -50.5 t121.5 -149.5q53 92 132.5 146t159.5 54q101 0 171.5 -31.5t107 -75t56 -122.5t23.5 -140t4 -162h-633v-132q0 -55 6.5 -104.5t24.5 -102t47 -89.5t78.5 -61t114.5 -24q127 0 194.5 68t73.5 186h92q-18 -169 -109.5 -243t-250.5 -74q-102 0 -187 64.5t-120 179.5 q-57 -124 -135 -184t-182 -60q-150 0 -249 75.5t-99 214.5zM181 274q0 -236 261 -236q51 0 93 17t69.5 43.5t48 67t32 80t18 89.5t8.5 89t2 85q0 27 -6 44q-31 -2 -77.5 -3.5t-81 -3t-78.5 -4.5t-76.5 -10.5t-67.5 -19.5t-59.5 -32t-45 -48t-30.5 -68t-10 -90zM787 608h547 q0 81 -6.5 141t-24 114.5t-48 88.5t-80 53.5t-117.5 19.5q-126 0 -198.5 -112.5t-72.5 -304.5z" />
<glyph unicode="&#xe7;" horiz-adv-x="851" d="M97 526q0 216 31.5 334t104.5 170t207 52q286 0 286 -293h-86q0 114 -51 175t-168 61q-89 0 -136.5 -39.5t-70.5 -147t-23 -312.5q0 -204 20 -294q44 -194 204 -194q54 0 93.5 13t63 34t39 54.5t21.5 65.5t10 77h86q-2 -71 -23.5 -126t-51.5 -87t-70 -53.5t-72.5 -29.5 t-66.5 -11l-107 -141q7 0 54 3t61 3q61 0 104.5 -36.5t43.5 -100.5q0 -158 -228 -158q-70 0 -164 30l15 29q73 -27 130 -27q39 0 73.5 11t61 40t26.5 71q0 55 -37.5 82.5t-93.5 27.5q-33 0 -82 -17l-11 8l125 175q-66 9 -117.5 32t-85 50t-56.5 74.5t-34.5 83.5t-17 100.5 t-6.5 101.5t-1 109z" />
<glyph unicode="&#xe8;" d="M116 368v272q0 229 89.5 335.5t270.5 106.5q57 0 103.5 -9.5t81.5 -24.5t62 -42.5t45 -53.5t30.5 -68.5t19 -76.5t10 -88t4.5 -92.5t1 -100.5h-631v-107q0 -56 6 -105t24.5 -101.5t48 -89.5t79.5 -61t116 -24q127 0 193 68t72 186h90q-23 -317 -355 -317q-360 0 -360 393 zM202 587h545q0 110 -11 184.5t-40 135t-83.5 89.5t-136.5 29q-68 0 -116.5 -20t-79 -55t-48 -92t-24 -120.5t-6.5 -150.5zM236 1543h162l200 -306h-84z" />
<glyph unicode="&#xe9;" d="M116 368v272q0 229 89.5 335.5t270.5 106.5q57 0 103.5 -9.5t81.5 -24.5t62 -42.5t45 -53.5t30.5 -68.5t19 -76.5t10 -88t4.5 -92.5t1 -100.5h-631v-107q0 -56 6 -105t24.5 -101.5t48 -89.5t79.5 -61t116 -24q127 0 193 68t72 186h90q-23 -317 -355 -317q-360 0 -360 393 zM202 587h545q0 110 -11 184.5t-40 135t-83.5 89.5t-136.5 29q-68 0 -116.5 -20t-79 -55t-48 -92t-24 -120.5t-6.5 -150.5zM494 1315l139 261h190l-225 -261h-104z" />
<glyph unicode="&#xea;" d="M116 368v272q0 229 89.5 335.5t270.5 106.5q57 0 103.5 -9.5t81.5 -24.5t62 -42.5t45 -53.5t30.5 -68.5t19 -76.5t10 -88t4.5 -92.5t1 -100.5h-631v-107q0 -56 6 -105t24.5 -101.5t48 -89.5t79.5 -61t116 -24q127 0 193 68t72 186h90q-23 -317 -355 -317q-360 0 -360 393 zM202 587h545q0 110 -11 184.5t-40 135t-83.5 89.5t-136.5 29q-68 0 -116.5 -20t-79 -55t-48 -92t-24 -120.5t-6.5 -150.5zM202 1225l212 259h123l212 -259h-80l-193 237l-192 -237h-82z" />
<glyph unicode="&#xeb;" d="M116 368v272q0 229 89.5 335.5t270.5 106.5q57 0 103.5 -9.5t81.5 -24.5t62 -42.5t45 -53.5t30.5 -68.5t19 -76.5t10 -88t4.5 -92.5t1 -100.5h-631v-107q0 -56 6 -105t24.5 -101.5t48 -89.5t79.5 -61t116 -24q127 0 193 68t72 186h90q-23 -317 -355 -317q-360 0 -360 393 zM202 587h545q0 110 -11 184.5t-40 135t-83.5 89.5t-136.5 29q-68 0 -116.5 -20t-79 -55t-48 -92t-24 -120.5t-6.5 -150.5zM253 1252v175h96v-175h-96zM602 1252v175h94v-175h-94z" />
<glyph unicode="&#xec;" horiz-adv-x="484" d="M13 1484h183l136 -255h-54zM196 0v1063h86v-1063h-86z" />
<glyph unicode="&#xed;" horiz-adv-x="484" d="M145 1229l209 255h105l-267 -255h-47zM192 0v1063h86v-1063h-86z" />
<glyph unicode="&#xee;" horiz-adv-x="484" d="M-38 1225q145 172 213 259h126q27 -33 100 -121.5t112 -137.5h-84l-193 237l-190 -237h-84zM194 0v1063h86v-1063h-86z" />
<glyph unicode="&#xef;" horiz-adv-x="484" d="M17 1252v175h95l82 -175h-177zM194 0v1063h86v-1063h-86zM364 1252v175h93v-175h-93z" />
<glyph unicode="&#xf0;" d="M116 412v240q0 209 89 319.5t271 110.5q91 0 136.5 -22.5t71.5 -70.5l36 8q0 117 -72 241.5t-139 169.5l-202 -112l-35 32l210 116q-32 16 -66.5 34.5t-47 24.5t-34 15t-52.5 20l-10 2q14 16 31.5 29t24.5 20q74 -25 119.5 -48.5t97.5 -61.5l196 108l33 -34l-187 -103 q61 -58 101.5 -116.5t76 -150.5t52 -228t16.5 -322v-221q0 -210 -89 -323.5t-268 -113.5q-182 0 -271 113t-89 324zM202 530q0 -83 3.5 -143t14 -119.5t29.5 -98.5t49 -70.5t74.5 -46t103.5 -14.5q70 0 119 23t78.5 61.5t46 103.5t22 134.5t5.5 169.5q0 99 -5.5 168.5 t-22 135.5t-46 105t-79 62.5t-118.5 23.5q-71 0 -121 -23.5t-79.5 -62.5t-46 -105t-22 -135t-5.5 -169z" />
<glyph unicode="&#xf1;" d="M145 0v1063h86v-186q37 94 122 149.5t173 55.5q53 0 95 -11.5t70.5 -29.5t50 -45t33 -54t18.5 -61.5t9 -62t2 -60.5v-758h-86v751q0 55 -12 102.5t-37.5 87t-70 62t-104.5 22.5q-52 0 -97 -18t-83.5 -57t-60.5 -110t-22 -167v-673h-86zM204 1372q26 109 79 155.5 t140 46.5q22 0 154.5 -49.5t180.5 -49.5q56 0 85.5 21t44.5 80h78q-14 -97 -68.5 -149.5t-133.5 -52.5q-37 0 -169 52.5t-162 52.5q-117 0 -141 -107h-88z" />
<glyph unicode="&#xf2;" d="M116 412v240q0 209 89 319.5t271 110.5q180 0 268.5 -111t88.5 -319v-240q0 -210 -89 -323.5t-268 -113.5q-182 0 -271 113t-89 324zM202 530q0 -83 3.5 -143t14 -119.5t29.5 -98.5t49 -70.5t74.5 -46t103.5 -14.5q70 0 119 23t78.5 61.5t46 103.5t22 134.5t5.5 169.5 q0 99 -5.5 168.5t-22 135.5t-46 105t-79 62.5t-118.5 23.5q-71 0 -121 -23.5t-79.5 -62.5t-46 -105t-22 -135t-5.5 -169zM236 1543h162l200 -306h-84z" />
<glyph unicode="&#xf3;" d="M116 412v240q0 209 89 319.5t271 110.5q180 0 268.5 -111t88.5 -319v-240q0 -210 -89 -323.5t-268 -113.5q-182 0 -271 113t-89 324zM202 530q0 -83 3.5 -143t14 -119.5t29.5 -98.5t49 -70.5t74.5 -46t103.5 -14.5q70 0 119 23t78.5 61.5t46 103.5t22 134.5t5.5 169.5 q0 99 -5.5 168.5t-22 135.5t-46 105t-79 62.5t-118.5 23.5q-71 0 -121 -23.5t-79.5 -62.5t-46 -105t-22 -135t-5.5 -169zM494 1315l139 261h190l-225 -261h-104z" />
<glyph unicode="&#xf4;" d="M116 412v240q0 209 89 319.5t271 110.5q180 0 268.5 -111t88.5 -319v-240q0 -210 -89 -323.5t-268 -113.5q-182 0 -271 113t-89 324zM202 530q0 -83 3.5 -143t14 -119.5t29.5 -98.5t49 -70.5t74.5 -46t103.5 -14.5q70 0 119 23t78.5 61.5t46 103.5t22 134.5t5.5 169.5 q0 99 -5.5 168.5t-22 135.5t-46 105t-79 62.5t-118.5 23.5q-71 0 -121 -23.5t-79.5 -62.5t-46 -105t-22 -135t-5.5 -169zM202 1225l212 259h123l212 -259h-80l-193 237l-192 -237h-82z" />
<glyph unicode="&#xf5;" d="M116 412v240q0 209 89 319.5t271 110.5q180 0 268.5 -111t88.5 -319v-240q0 -210 -89 -323.5t-268 -113.5q-182 0 -271 113t-89 324zM202 530q0 -83 3.5 -143t14 -119.5t29.5 -98.5t49 -70.5t74.5 -46t103.5 -14.5q70 0 119 23t78.5 61.5t46 103.5t22 134.5t5.5 169.5 q0 99 -5.5 168.5t-22 135.5t-46 105t-79 62.5t-118.5 23.5q-71 0 -121 -23.5t-79.5 -62.5t-46 -105t-22 -135t-5.5 -169zM204 1372q26 109 79 155.5t140 46.5q22 0 154.5 -49.5t180.5 -49.5q56 0 85.5 21t44.5 80h78q-14 -97 -68.5 -149.5t-133.5 -52.5q-37 0 -169 52.5 t-162 52.5q-117 0 -141 -107h-88z" />
<glyph unicode="&#xf6;" d="M116 412v240q0 209 89 319.5t271 110.5q180 0 268.5 -111t88.5 -319v-240q0 -210 -89 -323.5t-268 -113.5q-182 0 -271 113t-89 324zM202 530q0 -83 3.5 -143t14 -119.5t29.5 -98.5t49 -70.5t74.5 -46t103.5 -14.5q70 0 119 23t78.5 61.5t46 103.5t22 134.5t5.5 169.5 q0 99 -5.5 168.5t-22 135.5t-46 105t-79 62.5t-118.5 23.5q-71 0 -121 -23.5t-79.5 -62.5t-46 -105t-22 -135t-5.5 -169zM253 1252v175h96v-175h-96zM602 1252v175h94v-175h-94z" />
<glyph unicode="&#xf7;" d="M55 499v67h839v-67h-839zM415 2v120h117v-120h-117zM415 941v122h117v-122h-117z" />
<glyph unicode="&#xf8;" d="M84 -71l103 164q-71 107 -71 319v263q0 31 0.5 49.5t3.5 55t9 60.5t18.5 59t30 58t45 48.5t62.5 41t84 25.5t107 10q169 0 269 -97q8 14 28.5 46.5t38 60.5t30.5 51q3 -3 11 -8t12 -9l-95 -164q30 -55 44 -104.5t16.5 -82.5t2.5 -100v-263q0 -216 -83 -326.5t-274 -110.5 q-160 0 -263 96l-101 -159zM202 530q0 -214 34 -353l456 734q-56 114 -216 114q-72 0 -121 -19.5t-79 -54.5t-46.5 -99t-22 -137t-5.5 -185zM259 147q38 -56 86 -82.5t122 -26.5q55 0 98.5 13t68 29.5t44 42.5t26 41t14.5 36l2 4q13 46 20 153.5t7 172.5q0 209 -34 350z" />
<glyph unicode="&#xf9;" d="M152 303v760h86v-739v-26.5t3.5 -42.5t10.5 -57t22.5 -56t37 -53.5t57 -35.5t79.5 -15q55 0 101 19.5t75 49.5t49.5 67t29 70t8.5 61v758h84v-1063h-65v164q-69 -102 -145 -145.5t-164 -43.5q-269 0 -269 328zM236 1543h162l200 -306h-84z" />
<glyph unicode="&#xfa;" d="M152 303v760h86v-739v-26.5t3.5 -42.5t10.5 -57t22.5 -56t37 -53.5t57 -35.5t79.5 -15q55 0 101 19.5t75 49.5t49.5 67t29 70t8.5 61v758h84v-1063h-65v164q-69 -102 -145 -145.5t-164 -43.5q-269 0 -269 328zM494 1315l139 261h162l-197 -261h-104z" />
<glyph unicode="&#xfb;" d="M152 303v760h86v-739v-26.5t3.5 -42.5t10.5 -57t22.5 -56t37 -53.5t57 -35.5t79.5 -15q55 0 101 19.5t75 49.5t49.5 67t29 70t8.5 61v758h84v-1063h-65v164q-85 -96 -157 -142.5t-152 -46.5q-269 0 -269 328zM202 1225l212 259h123l212 -259h-80l-193 237l-192 -237h-82z " />
<glyph unicode="&#xfc;" d="M152 303v760h86v-739v-26.5t3.5 -42.5t10.5 -57t22.5 -56t37 -53.5t57 -35.5t79.5 -15q55 0 101 19.5t75 49.5t49.5 67t29 70t8.5 61v758h84v-1063h-65v164q-85 -96 -157 -142.5t-152 -46.5q-269 0 -269 328zM253 1252v175h96v-175h-96zM602 1252v175h94v-175h-94z" />
<glyph unicode="&#xfd;" horiz-adv-x="851" d="M42 1063h91l290 -973l284 973h82l-448 -1482h-80l124 392zM436 1315l139 261h191l-225 -261h-105z" />
<glyph unicode="&#xfe;" d="M149 -419v1957h85v-663q66 106 146.5 156.5t160.5 50.5q60 0 108 -16t79.5 -41.5t55 -64.5t36 -77t19.5 -88.5t9 -89.5t2 -88v-87q0 -60 -1.5 -105t-9 -106.5t-20 -106t-36 -92t-56.5 -77t-82.5 -49t-112.5 -19.5q-168 0 -294 206q0 -87 -2 -297t-2 -303h-85zM234 434 q0 -191 76.5 -293.5t183.5 -102.5q43 0 78.5 8.5t62 21.5t46.5 37t34 46.5t23 59.5t14.5 67t8 77.5t3 81.5t0.5 89q0 50 -0.5 81t-2.5 75.5t-6 72.5t-10.5 64.5t-17 59.5t-25 49t-34.5 41.5t-45 29.5t-57.5 20t-71.5 6q-32 0 -65.5 -12.5t-69 -42.5t-63 -73.5t-45 -112.5 t-17.5 -153v-197z" />
<glyph unicode="&#xff;" horiz-adv-x="851" d="M42 1063h91l290 -973l284 973h82l-448 -1482h-80l124 392zM196 1252v175h96l93 -175h-189zM543 1252v175h95v-175h-95z" />
<glyph unicode="&#x2da;" horiz-adv-x="822" d="M213 1370q0 83 64.5 145.5t156.5 62.5q88 0 155 -63.5t67 -146.5q0 -91 -65.5 -154t-154.5 -63q-97 0 -160 63t-63 156zM293 1370q0 -52 37.5 -94.5t113.5 -42.5q63 0 96.5 41t33.5 94q0 49 -36.5 88.5t-101.5 39.5q-68 0 -105.5 -37t-37.5 -89z" />
<glyph unicode="&#x2dc;" horiz-adv-x="787" d="M30 1372q28 109 81 155.5t139 46.5q22 0 154.5 -49.5t180.5 -49.5q57 0 86.5 21t43.5 80h78q-14 -98 -68 -150t-134 -52q-37 0 -169 52.5t-163 52.5q-117 0 -141 -107h-88z" />
<glyph unicode="&#x401;" horiz-adv-x="886" d="M133 -6v1496h601v-91h-503v-583h484v-88h-484v-642h514v-92h-612zM276 1561v129h84v-129h-84zM520 1561v129h82v-129h-82z" />
<glyph unicode="&#x410;" horiz-adv-x="1036" d="M40 0l414 1496h118l392 -1496h-112l-107 410h-501l-116 -410h-88zM265 494h465l-206 861h-40z" />
<glyph unicode="&#x411;" horiz-adv-x="915" d="M131 0v1496h601v-88h-503v-579q121 36 230 36q162 0 247 -117.5t85 -326.5q0 -421 -336 -421h-324zM229 88h204q139 0 197 77t58 260q0 352 -231 352q-106 0 -228 -32v-657z" />
<glyph unicode="&#x412;" horiz-adv-x="961" d="M133 0v1496h338q150 0 237 -93t87 -263q0 -130 -49.5 -218.5t-171.5 -130.5q261 -95 261 -383q0 -198 -87 -303t-251 -105h-364zM231 82h249q248 0 248 324q0 343 -301 343q-92 0 -196 -17v-650zM231 837q117 -23 196 -23q265 0 265 299q0 303 -235 303h-226v-579z" />
<glyph unicode="&#x413;" horiz-adv-x="728" d="M131 0v1496h542v-90h-444v-1406h-98z" />
<glyph unicode="&#x414;" horiz-adv-x="1052" d="M15 90q97 0 151.5 138t54.5 372v896h614v-1406h129v-462h-86q10 95 10 372h-797q0 -178 12 -372h-88v462zM213 90h521v1316h-423v-823q0 -323 -98 -450v-43z" />
<glyph unicode="&#x415;" horiz-adv-x="886" d="M131 0v1496h603v-90h-505v-579h484v-86h-484v-651h514v-90h-612z" />
<glyph unicode="&#x416;" horiz-adv-x="1479" d="M101 1422v83q42 12 84 12q118 0 118 -252v-154q0 -116 51 -191v2q59 -87 149 -87q59 0 168 19v642h87v-642q112 -19 166 -19q96 0 149 87v-2q53 74 53 191v154q0 252 116 252q36 0 86 -12v-83l-38 5q-78 0 -78 -196v-95q0 -91 -32 -158t-113 -168q81 -55 121.5 -91.5 t69 -94.5t35.5 -127t7 -192q0 -217 21 -305h-92q-30 142 -30 305q0 249 -64.5 358t-216.5 109q-70 0 -160 -23v-749h-87v749q-90 23 -162 23q-151 0 -215.5 -109t-64.5 -358q0 -180 -29 -305h-93q23 106 23 305q0 89 2.5 144.5t13 106t23.5 79.5t42.5 61t62 55.5t88.5 58.5 q-81 103 -113 169.5t-32 156.5v95q0 196 -80 196q-4 0 -9.5 -1t-13 -2t-13.5 -2z" />
<glyph unicode="&#x417;" horiz-adv-x="965" d="M76 332h101q6 -139 67.5 -205t188.5 -66q303 0 303 343q0 171 -82 253h2q-76 88 -201 88q-52 0 -116 -4v67q48 -6 116 -6q119 0 188.5 89t69.5 235q0 309 -258 309q-235 0 -247 -257h-107q5 151 105.5 248t262.5 97t248.5 -110.5t86.5 -295.5q0 -245 -236 -351 q270 -88 270 -351q0 -213 -98 -327.5t-292 -114.5q-164 0 -264 97t-108 262z" />
<glyph unicode="&#x418;" horiz-adv-x="1072" d="M130 0v1496h89v-1366l44 122l530 1244h110v-1496h-89v1368l-48 -124l-526 -1244h-110z" />
<glyph unicode="&#x419;" horiz-adv-x="1072" d="M130 0v1496h89v-1370l44 122l539 1248h101v-1496h-89v1368l-48 -124l-532 -1244h-104zM297 1690h84q6 -71 45 -119t90 -48q55 0 93.5 44.5t44.5 122.5h82q-6 -97 -63.5 -161t-156.5 -64q-100 0 -155.5 62.5t-63.5 162.5z" />
<glyph unicode="&#x41a;" horiz-adv-x="968" d="M133 0v1496h98v-642q116 -19 202 -19t143 79t57 197v154q0 252 114 252q24 0 88 -12v-83q-15 5 -29 5q-46 0 -68 -44t-22 -152v-95q0 -98 -26.5 -165.5t-100.5 -160.5q72 -44 111 -80.5t63.5 -95.5t31.5 -131t7 -198q0 -218 19 -305h-89q-27 140 -27 305q0 250 -63 358.5 t-215 108.5q-99 0 -196 -23v-749h-98z" />
<glyph unicode="&#x41b;" horiz-adv-x="988" d="M17 -2v101q47 -13 95 -13q111 0 111 354v1056h600v-1496h-97v1406h-415v-1012q0 -409 -183 -409q-77 0 -111 13z" />
<glyph unicode="&#x41c;" horiz-adv-x="1353" d="M130 0v1496h152l362 -1405h17l358 1405h155v-1496h-80v1446l-52 -105l-339 -1341h-101l-339 1334l-48 107v-1441h-85z" />
<glyph unicode="&#x41d;" horiz-adv-x="1047" d="M131 0v1496h94v-679h560v679h93v-1496h-93v734h-560v-734h-94z" />
<glyph unicode="&#x41e;" horiz-adv-x="1127" d="M97 690v116q0 351 111 531t333 180q448 0 448 -711v-116q0 -709 -448 -709q-225 0 -334.5 177t-109.5 532zM196 711q0 -321 89.5 -484.5t255.5 -163.5q349 0 349 648v76q0 646 -349 646q-166 0 -255.5 -164t-89.5 -482v-76z" />
<glyph unicode="&#x41f;" horiz-adv-x="1031" d="M133 0v1496h728v-1496h-95v1404h-537v-1404h-96z" />
<glyph unicode="&#x420;" horiz-adv-x="902" d="M130 0v1496h266q178 0 284.5 -109.5t106.5 -290.5q0 -217 -90 -330.5t-261 -113.5q-126 0 -213 36v-688h-93zM223 783q133 -47 219 -47q242 0 242 354q0 318 -299 318h-162v-625z" />
<glyph unicode="&#x421;" horiz-adv-x="967" d="M97 686v124q0 713 389 713q164 0 263 -93.5t105 -251.5h-98q-6 117 -77 187t-178 70q-136 0 -220.5 -181t-84.5 -467v-72q0 -303 81 -478.5t224 -175.5q107 0 177 73t78 198h98q-6 -166 -106.5 -262.5t-261.5 -96.5q-187 0 -288 190t-101 523z" />
<glyph unicode="&#x422;" horiz-adv-x="879" d="M34 1404v92h782v-92h-349v-1404h-88v1404h-345z" />
<glyph unicode="&#x423;" horiz-adv-x="872" d="M48 1503h99l276 -1231h17l273 1231h97l-345 -1457v2q-35 -144 -91.5 -205.5t-154.5 -61.5q-37 0 -97 30v86q45 -32 84 -32q129 0 177 219z" />
<glyph unicode="&#x424;" horiz-adv-x="1308" d="M74 760q0 258 110.5 411t295.5 153h107v199h88v-199h108q181 0 292.5 -152.5t111.5 -411.5q0 -262 -112 -415.5t-292 -153.5h-108v-218h-88v218h-107q-184 0 -295 153.5t-111 415.5zM171 760q0 -495 315 -495h105v991h-105q-315 0 -315 -496zM671 265h103q316 0 316 495 q0 496 -316 496h-103v-991z" />
<glyph unicode="&#x425;" horiz-adv-x="1018" d="M59 0l389 787l-341 709h112l278 -625l282 625h111l-337 -709l373 -787h-107l-322 696q-132 -292 -322 -696h-116z" />
<glyph unicode="&#x426;" horiz-adv-x="1089" d="M131 0v1496h94v-1406h539v1406h97v-1406h132v-462h-86q11 113 11 372h-787z" />
<glyph unicode="&#x427;" horiz-adv-x="908" d="M82 1096v400h97v-414q0 -316 227 -316q133 0 242 34v696h95v-1496h-95v736q-170 -46 -288 -46q-137 0 -207.5 106.5t-70.5 299.5z" />
<glyph unicode="&#x428;" horiz-adv-x="1478" d="M130 0v1496h93v-1405h446v1405h87v-1405h444v1405h92v-1496h-1162z" />
<glyph unicode="&#x429;" horiz-adv-x="1531" d="M130 0v1496h91v-1406h442v1406h93v-1406h441v1406h91v-1406h141v-462h-86q12 94 12 372h-1225z" />
<glyph unicode="&#x42a;" horiz-adv-x="1056" d="M57 1404v92h309v-659q109 28 219 28q347 0 347 -444q0 -421 -336 -421h-327v1404h-212zM366 88h202q143 0 203 77t60 260q0 352 -233 352q-140 0 -232 -28v-661z" />
<glyph unicode="&#x42b;" horiz-adv-x="1221" d="M131 0v1496h92v-659q99 28 217 28q347 0 347 -444q0 -421 -335 -421h-321zM223 88h204q139 0 198 76.5t59 260.5q0 352 -230 352q-139 0 -231 -28v-661zM951 0v1496h97v-1496h-97z" />
<glyph unicode="&#x42c;" horiz-adv-x="913" d="M131 0v1496h94v-661q103 30 217 30q347 0 347 -444q0 -421 -335 -421h-323zM225 88h204q139 0 198 76.5t59 260.5q0 352 -231 352q-143 0 -230 -28v-661z" />
<glyph unicode="&#x42d;" horiz-adv-x="968" d="M76 332h101q8 -125 78.5 -198t177.5 -73q303 0 303 680h-397v78h397q0 616 -303 616q-98 0 -170.5 -68.5t-85.5 -171.5h-101q7 151 107.5 239.5t264.5 88.5q190 0 290 -178t100 -518v-101q0 -753 -390 -753q-164 0 -264 97t-108 262z" />
<glyph unicode="&#x42e;" horiz-adv-x="1430" d="M128 0v1496h93v-677h183q0 316 122.5 507t325.5 191q126 0 225.5 -84.5t154 -231.5t54.5 -330v-179q0 -346 -111.5 -528.5t-322.5 -182.5q-220 0 -334 192t-114 568h-183v-741h-93zM507 728q0 -330 87.5 -497.5t257.5 -167.5q333 0 333 665v99q0 280 -90.5 443 t-242.5 163q-159 0 -252 -160t-93 -446v-99z" />
<glyph unicode="&#x42f;" horiz-adv-x="959" d="M118 0q10 62 10 250q0 98 4.5 158.5t15.5 112.5t34.5 85.5t57 61.5t88.5 58q-123 63 -161.5 142.5t-38.5 238.5q0 180 92.5 284.5t261.5 104.5h309v-1496h-94v671q-108 25 -217 25q-126 0 -188 -98h1q-64 -103 -64 -364q0 -131 -14 -234h-97zM229 1101q0 -343 251 -343 q137 0 217 19v635h-219q-133 0 -191 -72t-58 -239z" />
<glyph unicode="&#x430;" horiz-adv-x="853" d="M114 272q0 167 82.5 261t239.5 94h151v177q0 217 -168 217q-73 0 -120 -50t-53 -134h-84q6 125 66.5 182.5t181.5 57.5q153 0 210.5 -70t57.5 -235v-644q0 -52 8 -128h-72q-11 60 -14 143h-13q-23 -81 -92.5 -125.5t-159.5 -44.5q-104 0 -162.5 81.5t-58.5 217.5z M206 293q0 -99 46.5 -165.5t117.5 -66.5q217 0 217 349v154h-137q-117 0 -180.5 -72.5t-63.5 -198.5z" />
<glyph unicode="&#x431;" horiz-adv-x="917" d="M118 633v133q0 680 315 680h68q135 0 215 61v-76q-18 -18 -64 -48h2q-73 -19 -187 -19q-261 0 -261 -510l11 -16q26 87 100.5 147.5t158.5 60.5q307 0 307 -480v-82q0 -226 -90 -367.5t-241 -141.5q-334 0 -334 658zM206 526q0 -471 246 -471q110 0 174 118.5t64 310.5 v82q0 404 -227 404q-257 0 -257 -444z" />
<glyph unicode="&#x432;" horiz-adv-x="881" d="M152 0v1069h311q253 0 253 -265q0 -89 -37.5 -141.5t-131.5 -98.5q196 -83 196 -292q0 -147 -57 -209.5t-194 -62.5h-340zM244 61h238q87 0 128.5 49t41.5 164q0 256 -197 256h-211v-469zM244 589h208q79 0 127 61t48 156q0 204 -172 204h-211v-421z" />
<glyph unicode="&#x433;" horiz-adv-x="632" d="M156 0v1056h400v-86h-312v-970h-88z" />
<glyph unicode="&#x434;" horiz-adv-x="902" d="M46 78q145 0 145 305v673h514v-978h101v-358h-74q11 65 11 280h-636q0 -215 11 -280h-72v358zM171 78h443v901h-340v-607q0 -174 -103 -294z" />
<glyph unicode="&#x435;" horiz-adv-x="863" d="M116 507q0 564 318 564q144 0 219 -112.5t75 -325.5q0 -96 -53 -96h-469v-112q0 -368 230 -368q82 0 136.5 62.5t65.5 162.5h80q-8 -137 -82.5 -217t-193.5 -80q-326 0 -326 522zM206 600h432v67q0 156 -55 245.5t-147 89.5q-102 0 -166 -105t-64 -297z" />
<glyph unicode="&#x436;" horiz-adv-x="1289" d="M122 0q23 90 23 223q0 237 181 337q-47 47 -69.5 110t-22.5 115v69q0 139 -87 139h-14q-2 6 -2 25v24q0 19 -1 23q25 6 55 6q66 0 93 -51t27 -193q0 -138 30.5 -189t114.5 -51q58 0 137 15v454h86v-454q79 -15 137 -15q82 0 113.5 51.5t31.5 188.5q0 143 26 193.5 t84 50.5q51 0 71 -8v-70h-12q-49 0 -73 -31.5t-24 -107.5v-69q0 -55 -22.5 -116.5t-72.5 -108.5q52 -27 97 -63t63 -72q18 -55 26.5 -217t19.5 -208h-92q-19 119 -19 225q0 301 -206 301q-68 0 -148 -19v-507h-86v507q-86 19 -147 19q-208 0 -208 -301q0 -133 -19 -225h-91z " />
<glyph unicode="&#x437;" horiz-adv-x="817" d="M114 303h86q9 -253 181 -253q102 0 154 55v-2q50 59 50 187q0 236 -231 236q-16 0 -26 -4v61q25 -2 82 -2q75 0 118.5 58t43.5 163q0 210 -179 210q-174 0 -183 -221h-73q8 131 74.5 208.5t182.5 77.5q122 0 190 -65t68 -193q0 -77 -38 -148.5t-98 -112.5v-13 q73 -32 117.5 -107t44.5 -171q0 -144 -76.5 -219t-220.5 -75q-255 0 -267 330z" />
<glyph unicode="&#x438;" horiz-adv-x="947" d="M156 0v1056h84v-970l429 970h101v-1056h-86v981l-425 -981h-103z" />
<glyph unicode="&#x439;" horiz-adv-x="947" d="M156 0v1056h90v-949l38 101q190 428 385 848h101v-1056h-92v941l-38 -97q-235 -530 -381 -844h-103zM259 1435h61q9 -162 145 -162q132 0 147 162h57q-8 -99 -61 -155.5t-143 -56.5q-93 0 -147 56.5t-59 155.5z" />
<glyph unicode="&#x43a;" horiz-adv-x="881" d="M162 0v1056h90v-456q79 -17 142 -17q157 0 157 244q0 97 13.5 152t36 73.5t60.5 18.5q45 0 65 -8v-70h-11q-92 0 -92 -139v-69q0 -102 -76 -225q62 -32 98 -77t49 -102.5t16 -112.5t7 -132.5t15 -135.5h-92q-17 97 -17 225q0 154 -48 224.5t-160 70.5q-76 0 -163 -17 v-503h-90z" />
<glyph unicode="&#x43b;" horiz-adv-x="902" d="M46 -4v73q19 -4 45 -4q111 0 111 284v707h526v-1056h-90v979h-350v-588q0 -406 -172 -406q-18 0 -70 11z" />
<glyph unicode="&#x43c;" horiz-adv-x="1182" d="M88 0v1056h169l280 -995h19l282 995h170v-1056h-78v1027l-40 -6l-294 -1021h-97l-293 1021l-36 4v-1025h-82z" />
<glyph unicode="&#x43d;" horiz-adv-x="931" d="M156 0v1056h90v-454h417v454h92v-1056h-92v522h-417v-522h-90z" />
<glyph unicode="&#x43e;" horiz-adv-x="918" d="M114 495v65q0 511 336 511q335 0 335 -511v-65q0 -510 -335 -510q-336 0 -336 510zM204 495q0 -204 65.5 -319t180.5 -115q119 0 182.5 111.5t63.5 322.5v65q0 206 -64 319.5t-182 113.5q-117 0 -181.5 -115.5t-64.5 -317.5v-65z" />
<glyph unicode="&#x43f;" horiz-adv-x="915" d="M152 0v1056h589v-1056h-89v968h-408v-968h-92z" />
<glyph unicode="&#x440;" horiz-adv-x="938" d="M149 1065h82q5 -63 5 -131l10 -36q40 84 114.5 135t148.5 51q299 0 299 -552q0 -545 -294 -545q-79 0 -157 48t-104 123l-9 -25v-527h-92v1267q0 129 -3 192zM236 520q0 -133 32 -242.5t91 -173.5t133 -64q101 0 162.5 128.5t61.5 351.5q0 509 -236 509 q-113 0 -178.5 -134t-65.5 -375z" />
<glyph unicode="&#x441;" horiz-adv-x="812" d="M116 532q0 539 299 539q116 0 186.5 -81.5t76.5 -210.5h-82q-8 103 -58 160.5t-123 57.5q-95 0 -151 -122t-56 -343q0 -475 207 -475q72 0 122 71.5t59 174.5h82q-6 -147 -75.5 -232.5t-187.5 -85.5q-143 0 -221 144t-78 403z" />
<glyph unicode="&#x442;" horiz-adv-x="724" d="M61 968v88h591v-88h-252v-968h-91v968h-248z" />
<glyph unicode="&#x443;" horiz-adv-x="837" d="M76 1065h86l238 -932h21q170 645 240 932h86q-62 -224 -394 -1459h-81l96 364q-48 184 -146 547.5t-146 547.5z" />
<glyph unicode="&#x444;" horiz-adv-x="1357" d="M107 526q0 253 66 389.5t191 136.5q90 0 156 -43t103 -121v587h84v-587q45 85 106 124.5t151 39.5q254 0 254 -526q0 -522 -254 -522q-84 0 -152.5 42.5t-104.5 134.5v-575h-84v575q-28 -91 -101 -134t-158 -43q-257 0 -257 522zM200 526q0 -211 57 -338t153 -127 q54 0 95.5 37t64.5 90t37.5 121t19 120t4.5 97q0 55 -3.5 106.5t-17 121t-36 120t-65 86t-99.5 35.5q-210 0 -210 -469zM699 526q0 -47 4.5 -100t19.5 -120.5t38 -120t63.5 -88.5t93.5 -36t93 37.5t60.5 90t33.5 122.5t16 119t3 96q0 469 -206 469q-42 0 -76 -19.5 t-56.5 -50t-39 -74.5t-25.5 -85t-14 -90t-6.5 -82t-1.5 -68z" />
<glyph unicode="&#x445;" horiz-adv-x="822" d="M86 0l274 553l-248 503h88l200 -437l210 437h86l-248 -503l268 -553h-91l-225 478l-219 -478h-95z" />
<glyph unicode="&#x446;" horiz-adv-x="931" d="M152 0v1056h88v-978h406v978h93v-978h99v-360h-74q8 59 8 282h-620z" />
<glyph unicode="&#x447;" horiz-adv-x="817" d="M114 747v309h82v-286q0 -131 43 -187.5t142 -56.5q89 0 170 38v492h91v-1056h-91v526q-81 -59 -197 -59q-143 0 -198 76l2 -2q-44 70 -44 206z" />
<glyph unicode="&#x448;" horiz-adv-x="1250" d="M151 0v1056h85v-978h334v978h84v-978h331v978h86v-1056h-920z" />
<glyph unicode="&#x449;" horiz-adv-x="1266" d="M151 0v1056h85v-978h332v978h86v-978h329v978h88v-978h99v-360h-72q11 65 11 282h-958z" />
<glyph unicode="&#x44a;" horiz-adv-x="918" d="M71 976v80h247v-471q100 32 204 32q126 0 196.5 -84.5t70.5 -235.5q0 -297 -278 -297h-280v976h-160zM318 78h196q183 0 183 225q0 238 -177 238q-86 0 -202 -38v-425z" />
<glyph unicode="&#x44b;" horiz-adv-x="1107" d="M151 0v1056h93v-467q79 28 198 28q255 0 255 -312q0 -142 -65 -223.5t-182 -81.5h-299zM244 72h204q160 0 160 229q0 132 -38.5 186t-135.5 54q-77 0 -190 -32v-437zM838 0v1056h94v-1056h-94z" />
<glyph unicode="&#x44c;" horiz-adv-x="847" d="M152 0v1056h94v-469q90 30 198 30q131 0 201.5 -84t70.5 -236q0 -297 -280 -297h-284zM246 78h192q185 0 185 225q0 240 -181 240q-80 0 -196 -42v-423z" />
<glyph unicode="&#x44d;" horiz-adv-x="812" d="M114 303h86q5 -125 52.5 -185.5t141.5 -60.5q101 0 146 108t45 355h-248v67h248q0 410 -191 410q-85 0 -137 -54.5t-57 -147.5h-86q5 128 79 202t201 74q284 0 284 -486v-63q0 -284 -66.5 -410.5t-217.5 -126.5q-274 0 -280 318z" />
<glyph unicode="&#x44e;" horiz-adv-x="1198" d="M149 0v1056h89v-469h168q0 241 85.5 362.5t240.5 121.5q167 0 244.5 -129t77.5 -414q0 -543 -322 -543q-326 0 -326 537h-168v-522h-89zM494 528q0 -471 238 -471q234 0 234 471q0 250 -54.5 359.5t-179.5 109.5q-238 0 -238 -469z" />
<glyph unicode="&#x44f;" horiz-adv-x="869" d="M143 0q4 11 4 46v133q0 232 145 307q-145 97 -145 284q0 132 67.5 209t179.5 77h302v-1056h-92v457q-58 10 -162 10q-208 0 -208 -307q0 -108 -11 -160h-80zM234 770q0 -250 206 -250q93 0 164 25v450h-196q-174 0 -174 -225z" />
<glyph unicode="&#x451;" horiz-adv-x="863" d="M120 501q0 568 314 568q139 0 217.5 -116.5t78.5 -327.5q0 -95 -33 -95h-487v-109q0 -176 60 -273.5t166 -97.5q80 0 135.5 64t66.5 168h80q-8 -138 -83 -223.5t-193 -85.5q-322 0 -322 528zM210 591h428v68q0 158 -55 248t-147 90q-101 0 -162 -101h2q-66 -104 -66 -305 zM240 1227v147h86v-147h-86zM522 1227v147h88v-147h-88z" />
<glyph unicode="&#x10a0;" horiz-adv-x="1079" d="M131 467q0 183 119 331l83 -38q-102 -127 -102 -293q0 -260 101 -349q100 -88 215 -88t209 82t94 357q0 280 -214 510q-213 229 -213 559h97q0 -306 214 -526q215 -221 215 -543q0 -280 -118 -398q-119 -119 -284 -119q-177 0 -297 120q-119 125 -119 395z" />
<glyph unicode="&#x10a1;" horiz-adv-x="1121" d="M131 484q0 265 94 381q96 119 314 147q101 206 -53 318q-151 110 -160 231h128q3 -126 133 -216q133 -92 44 -335q165 -38 261 -147q99 -106 99 -379q0 -266 -122 -400q-120 -132 -311 -132q-197 0 -312 133.5t-115 398.5zM231 482q0 -252 97 -352q101 -98 228 -98 q162 0 248 98q86 101 86 352q0 249 -88 349q-89 102 -246 118q-152 -12 -238 -116q-87 -102 -87 -351z" />
<glyph unicode="&#x10a2;" horiz-adv-x="1250" d="M131 495q0 227 141 374q143 149 347 149h25q194 163 194 283q0 95 -72 149q-71 53 -166 53q-116 0 -184.5 -49.5t-68.5 -138.5q0 -47 23 -111l-80 -2q-27 57 -27 107q0 120 91.5 194.5t245.5 74.5q156 0 238 -82q84 -84 84 -195q0 -129 -183 -293q164 -53 273 -173 q108 -117 108 -340q0 -240 -144 -390q-147 -153 -361 -153q-215 0 -350 149q-134 147 -134 394zM232 495q0 -236 113 -352q113 -113 272 -113q189 0 296.5 125t107.5 344q0 205 -116 324q-116 122 -286 122q-176 0 -281.5 -118t-105.5 -332z" />
<glyph unicode="&#x10a3;" horiz-adv-x="1709" d="M131 1098q0 225 100 350t295 126q190 -3 309 -181q134 185 333 185q177 0 294 -126q118 -124 118 -404q0 -260 -120 -396q-118 -138 -292 -138q-178 0 -297 134q-120 135 -120 404q0 169 49 278q-108 163 -276 166q-139 -2 -216 -101.5t-77 -296.5q0 -289 148 -488 q153 -201 337 -286q437 -148 545 -354h-162q-26 120 -148 179q-122 61 -231 61q-192 -19 -396 -160v121l354 90v6q-217 83 -381 307q-166 226 -166 524zM854 1052q0 -276 93 -366q96 -90 227 -90q100 0 202 90q101 89 101 360q0 242 -76.5 349.5t-220.5 107.5 q-139 0 -233 -91q-93 -90 -93 -360z" />
<glyph unicode="&#x10a4;" horiz-adv-x="1134" d="M109 353q0 160 101 318h95q-95 -146 -95 -318q0 -180 108 -252q109 -71 223 -71q119 0 227 73q107 75 107 253v862q0 178 -94 232q-93 55 -194 55q-134 0 -210 -66t-76 -187q0 -84 46 -204h-84q-59 81 -59 204q0 139 101 234q100 94 276 94q168 0 278 -90 q111 -88 111 -272v-862q0 -194 -133 -299q-130 -105 -296 -105q-174 0 -305 113q-127 109 -127 288z" />
<glyph unicode="&#x10a5;" horiz-adv-x="1098" d="M109 360q0 104 66 227h90q-55 -160 -55 -227q0 -167 99 -248q100 -82 232 -82q148 0 239 85.5t91 223.5v149q0 193 -88 265q-83 70 -179 70h-145v71h149q81 0 171 93q92 95 92 236q0 134 -95 206q-93 74 -229 74q-113 0 -196 -70q-86 -72 -86 -172q0 -64 36 -160h-91 q-44 73 -44 159q0 128 108 223q109 95 271 95q200 0 311.5 -97.5t111.5 -259.5q0 -215 -240 -354v-17q240 -80 240 -372v-139q0 -162 -107 -274q-108 -113 -320 -113q-185 0 -310 113q-122 113 -122 295z" />
<glyph unicode="&#x10a6;" horiz-adv-x="1159" d="M88 1271q0 121 89 213q88 94 261 94q172 0 263 -97q92 -98 92 -225q0 -91 -40.5 -151t-112.5 -103q141 -17 263 -133q126 -114 126 -385q0 -295 -133 -413q-137 -119 -307 -119q-165 0 -301 120q-137 123 -137 412q0 169 51 280t181 183q-104 15 -200 88q-95 75 -95 236z M187 1267q0 -126 82 -198q81 -71 171 -71q120 0 186 65.5t66 184.5q0 136 -77 196q-74 59 -175 59q-102 0 -177 -59q-76 -57 -76 -177zM252 484q0 -276 116 -364q119 -90 221 -90q99 0 221 90q122 88 122 364q0 247 -107 351q-106 103 -236 103q-137 0 -238 -109 q-99 -106 -99 -345z" />
<glyph unicode="&#x10a7;" horiz-adv-x="1747" d="M131 713q0 569 121 716q120 149 312 149q250 0 345 -208q56 108 135 158t185 50q174 0 280 -139q107 -140 107 -576q0 -659 -315 -918h-118q332 269 332 918q0 434 -93 536q-94 103 -189 103q-108 0 -173.5 -44.5t-125.5 -146.5q55 -154 55 -604q0 -437 -118 -596 t-307 -159q-195 0 -314 162q-119 166 -119 599zM231 713q0 -418 89 -551q91 -132 238 -132q143 0 237 122q95 124 95 561q0 614 -99 701q-101 89 -233 89q-151 0 -240 -118q-87 -115 -87 -672z" />
<glyph unicode="&#x10a8;" horiz-adv-x="1120" d="M131 814q0 486 126 625t307 139q167 0 297 -141q128 -138 128 -623q0 -553 -217 -846h-124q242 220 242 870q0 437 -101 549q-101 115 -225 115q-131 0 -232 -115q-101 -112 -101 -545q0 -674 245 -882h-135q-210 302 -210 854z" />
<glyph unicode="&#x10a9;" horiz-adv-x="1100" d="M109 368q0 146 72 221l69 -17q-42 -91 -42 -204q0 -181 114 -257q118 -79 215 -79q106 0 218 71q116 71 116 244v139q0 169 -122 263q-121 95 -223 95h-181v74h183q113 0 209 65q98 66 98 176q0 226 -277 329l23 71q343 -106 343 -391q0 -98 -53 -160q-51 -60 -202 -120 v-23q134 -28 217 -135q84 -108 84 -242v-141q0 -177 -130 -286q-130 -107 -303 -107q-171 0 -301 109q-127 109 -127 305z" />
<glyph unicode="&#x10aa;" horiz-adv-x="2229" d="M131 1130q0 168 90 299q92 130 299 130q119 0 193 -58t118 -205h4q32 158 101.5 220t189.5 62q116 0 181 -59q67 -58 101 -223h12q27 145 103.5 204t199.5 59q377 0 377 -400q0 -381 -284 -608h-90q273 256 273 608q0 322 -276 322q-126 0 -197 -99q-70 -95 -70 -231 v-265h-82v267q0 173 -64 261t-184 88q-117 0 -183 -100q-65 -96 -65 -232v-284h-80v284q0 114 -72 212q-71 99 -210 99q-93 0 -190 -82q-95 -83 -95 -271q0 -379 272 -600q271 -218 627 -259q319 -60 473 -286h-166q-22 145 -347 225q-144 12 -240 -2q-105 -16 -330 -149 l-23 105l349 91v19q-277 71 -497 288q-218 215 -218 570z" />
<glyph unicode="&#x10ab;" horiz-adv-x="1152" d="M131 476q0 244 117 389q118 147 324 147q200 0 314 -189h10v395q1 137 -78.5 211t-219.5 74q-136 0 -212.5 -51.5t-76.5 -142.5q0 -63 11 -107l-88 -17q-19 53 -19 128q0 118 104.5 191.5t282.5 73.5q192 0 290.5 -98.5t98.5 -286.5v-751q0 -242 -113.5 -366t-317.5 -124 q-182 0 -305 139q-122 138 -122 385zM231 478q0 -225 95 -337q98 -111 229 -111q128 0 234 94q105 93 105 314q0 280 -92 387q-89 109 -232 109q-141 0 -242 -101q-97 -100 -97 -355z" />
<glyph unicode="&#x10ac;" horiz-adv-x="1155" d="M164 482v802q0 256 389 256h133q156 0 156 40h122q0 -109 -278 -109h-166q-263 0 -263 -187v-461h12q107 189 326 189q215 0 322.5 -137.5t107.5 -392.5q0 -253 -116 -391.5t-314 -138.5q-206 0 -318.5 131t-112.5 399zM263 482q0 -232 85 -342t252 -110q322 0 322 452 q0 251 -93 353q-94 103 -221 103q-165 0 -255 -111.5t-90 -344.5z" />
<glyph unicode="&#x10ad;" horiz-adv-x="1697" d="M131 846q0 483 126 606q129 126 273 126q236 0 305 -246h19q80 246 312 246q160 0 280 -126q120 -123 120 -608q0 -633 -386 -882h-141q432 255 432 888q0 445 -95 549q-94 103 -206 103q-130 0 -204 -89t-74 -272v-545h-86v545q0 182 -73.5 271.5t-200.5 89.5 q-114 0 -208 -103q-93 -99 -93 -553q0 -627 392 -884h-129q-363 252 -363 884z" />
<glyph unicode="&#x10ae;" horiz-adv-x="1097" d="M109 375q0 122 61 244l74 -36q-36 -96 -36 -208q0 -176 103 -261q108 -84 230 -84t223 86q103 88 103 290q0 188 -120 291q-116 103 -223 103h-91v67h91q108 0 187 72q82 75 82 166q0 167 -258 221q-255 57 -255 248h99q0 -132 252 -198q251 -63 251 -282 q0 -163 -236 -248v-27q159 -43 239.5 -152.5t80.5 -262.5q0 -206 -116 -328q-118 -124 -309 -124q-186 0 -310 115q-122 113 -122 308z" />
<glyph unicode="&#x10af;" horiz-adv-x="1152" d="M131 337q0 186 100 286l53 -51q-53 -81 -53 -233q0 -159 104 -234q107 -75 229 -75q112 0 221 86q109 89 109 273v1113h-23q-234 -70 -518 -98v-17q301 -60 301 -263q0 -122 -78.5 -192.5t-224.5 -70.5h-145v92l145 -12q114 5 164.5 46t50.5 149q0 92 -109 156 q-105 65 -247 65v91q413 32 697 128h82v-1185q0 -225 -132 -332q-130 -107 -293 -107q-159 0 -295 103q-138 105 -138 282z" />
<glyph unicode="&#x10b0;" horiz-adv-x="1695" d="M133 589q-3 184 56 328q57 139 240 339q185 202 619 299v-97q-493 -83 -735 -444l91 49q70 38 137 38q129 0 196 -55t109 -185h27q35 126 108.5 183t190.5 57q392 0 392 -512q0 -388 -356 -618h-128q387 261 387 618q0 246 -89 341q-88 97 -206 97q-111 0 -193 -91 q-81 -90 -81 -202v-340h-81v340q0 110 -80 202q-76 91 -202 91q-116 0 -209 -93q-94 -91 -94 -345q0 -354 382 -627h-128q-353 241 -353 627z" />
<glyph unicode="&#x10b1;" horiz-adv-x="1155" d="M164 457v1104h97v-1104q-3 -233 95 -331q100 -97 239 -97q134 0 230 74q97 76 97 293q0 188 -146 328q-145 142 -145 265q0 93 57 238l103 -38q-78 -113 -78 -187q0 -109 156 -247q156 -135 156 -359q0 -208 -113 -326t-317 -118q-202 0 -316.5 133.5t-114.5 371.5z" />
<glyph unicode="&#x10b2;" horiz-adv-x="1355" d="M109 722q0 348 165 526q166 183 389 183l-34 177h112l-36 -177q206 0 374 -183q167 -179 167 -526q0 -349 -147 -560q-147 -210 -421 -210q-244 0 -407 208q-162 207 -162 562zM210 722q0 -345 148 -518q152 -174 330 -174q191 0 326 174q137 175 137 518q0 305 -128 475 q-126 170 -318 190l36 -728h-112l34 728q-197 -20 -326 -188q-127 -165 -127 -477z" />
<glyph unicode="&#x10b3;" horiz-adv-x="1194" d="M65 1456v116l116 -42q25 0 84 24t95 24q122 0 179 -208q63 208 219 208q131 0 203 -77.5t72 -223.5v-907q0 -195 -117 -306.5t-318 -111.5q-180 0 -305 113q-120 111 -120 310q0 192 105 347h84q-88 -176 -88 -341q0 -180 96 -267q96 -84 228 -84q136 0 239 75 q102 75 102 278v926q0 127 -45 164q-43 36 -134 36q-105 0 -143 -78q-36 -73 -36 -158v-275h-78v275q0 87 -36 160q-34 76 -107 76q-42 0 -86 -26q-43 -27 -101 -27h-108z" />
<glyph unicode="&#x10b4;" horiz-adv-x="1618" d="M131 1096q0 212 103 346q104 136 294 136q192 0 295 -185q106 179 318 179q163 0 255 -102.5t92 -299.5q0 -303 -230 -442v-12q205 -106 205 -268v-88q0 -183 -133 -295q-134 -113 -377 -113q-234 0 -374 98q-141 99 -141 274v55h105l-2 -55q-4 -146 104 -220t306 -74 t305.5 81.5t107.5 248.5v82q-9 104 -72 172q-65 74 -137 74h-116v68h120q67 0 150 121q82 122 82 293q0 180 -76 252q-74 74 -179 74q-181 0 -282 -164q44 -153 44 -234q0 -239 -102.5 -374t-279.5 -135q-164 0 -274 131q-111 135 -111 376zM231 1094q0 -244 82 -332 q83 -89 203 -89q121 0 204 83q84 87 84 338q0 196 -76 302t-200 106q-122 0 -210 -94q-87 -90 -87 -314z" />
<glyph unicode="&#x10b5;" horiz-adv-x="1134" d="M109 326q0 118 83 227l65 -50q-47 -75 -47 -177q0 -133 99 -214q101 -83 232 -83q122 0 229 83t107 250v539q3 78 -88 189q-89 112 -244 109q-117 1 -180.5 -59t-63.5 -164q0 -82 31 -153l-84 -7q-40 59 -40 160q-2 134 90 216.5t247 82.5q188 0 320 -195h13v408h-266v75 h358v-1201q0 -191 -122 -301q-121 -109 -307 -109q-175 0 -303 103q-129 107 -129 271z" />
<glyph unicode="&#x10b6;" horiz-adv-x="1625" d="M131 1090q0 240 98 364t272 124q116 0 190 -57t119 -174h13q42 117 113 174t184 57q189 0 282.5 -115t93.5 -325q0 -333 -238 -568h-99q242 208 242 560q0 205 -86 288q-84 84 -195 84q-118 0 -192 -78t-74 -199v-251h-78v251q0 122 -74.5 199.5t-200.5 77.5 q-118 0 -194 -94q-76 -91 -76 -318q26 -524 447 -745q380 -137 477 -360h-157q-66 223 -293 261q-263 -19 -392 -174l-52 86q164 117 362 120v19q-480 249 -492 793z" />
<glyph unicode="&#x10b7;" horiz-adv-x="1132" d="M109 339q0 87 51 193l88 -33q-38 -90 -38 -160q0 -141 99 -225q102 -84 232 -84q132 0 236 79q101 80 101 232v482h-13q-159 -131 -312 -131q-187 0 -294 105t-107 282q0 116 58 224t224 246h98q-208 -194 -244 -280q-36 -85 -36 -192q0 -166 93 -240q95 -75 208 -75 q123 0 224 80t101 212v482h90v-1195q0 -177 -118 -284q-115 -105 -309 -105q-166 0 -299 99t-133 288z" />
<glyph unicode="&#x10b8;" horiz-adv-x="1157" d="M109 1258v63q0 122 59.5 189.5t157.5 67.5q140 0 209 -164h10q72 164 202 164q127 0 187 -82q61 -84 61 -191v-821q0 -292 -124 -413q-125 -119 -305 -119q-201 0 -315 140.5t-114 391.5q0 265 110.5 396.5t318.5 131.5q193 0 322 -189h15v486q0 97 -46.5 149.5 t-113.5 52.5q-66 0 -116 -65q-52 -64 -52 -141v-135h-72v135q0 79 -40 141q-41 66 -135 63q-136 0 -136 -196v-55h-83zM236 484q0 -258 86 -356q89 -98 236 -98q137 0 242 90q103 88 103 364q0 230 -89.5 341t-255.5 111q-154 0 -238 -110.5t-84 -341.5z" />
<glyph unicode="&#x10b9;" horiz-adv-x="1154" d="M164 -42v1220q0 189 82.5 294.5t248.5 105.5q151 0 227 -82q78 -81 78 -185q0 -92 -42 -162h-74q19 64 19 162q0 91 -57.5 140t-157.5 49q-116 0 -173.5 -78t-57.5 -252v-341h15q132 183 323 183q206 0 316 -122q112 -121 112 -294q0 -332 -310 -630h-126 q335 284 335 623q0 168 -95 257q-96 90 -232 90q-126 0 -233 -101q-105 -99 -105 -235v-642h-93z" />
<glyph unicode="&#x10ba;" horiz-adv-x="1275" d="M131 816q0 425 202 747h105q-207 -316 -207 -749q0 -490 125 -637q127 -147 300 -147q160 0 276 113q114 114 114 297q0 168 -135 263q-134 97 -235 97h-110v75h110q101 0 214 64q118 67 118 202q0 96 -149 191q-146 95 -146 231h89q0 -105 145 -193q147 -89 147 -230 q0 -198 -284 -302v-7q335 -117 335 -393q0 -209 -139 -348q-141 -138 -362 -138q-223 0 -368 179t-145 685z" />
<glyph unicode="&#x10bb;" horiz-adv-x="1154" d="M131 482q0 281 117 404q117 126 310 126q204 0 315 -189h23v732h95v-1073q0 -254 -111.5 -392t-321.5 -138q-188 0 -308 126q-119 131 -119 404zM231 482q0 -261 89 -356q93 -96 238 -96q162 0 250 94t88 358q0 227 -89.5 340.5t-250.5 113.5q-165 0 -245 -106t-80 -348z " />
<glyph unicode="&#x10bc;" horiz-adv-x="1157" d="M164 484v776q0 318 251 318q125 0 200 -164h10q66 164 208 164q99 0 158 -67.5t59 -189.5v-107h-84v99q0 196 -135 196q-94 1 -134.5 -60t-40.5 -189v-44h-73v44q0 118 -49 184.5t-115 66.5q-65 0 -114 -49q-48 -48 -48 -201v-423h17q126 174 321 174q209 0 318.5 -131 t109.5 -397q0 -251 -113.5 -391.5t-314.5 -140.5q-182 0 -307 119q-124 121 -124 413zM257 484q0 -276 103 -364q108 -90 240 -90q149 0 235 98q87 96 87 356q0 231 -84 341.5t-238 110.5q-159 0 -251 -101t-92 -351z" />
<glyph unicode="&#x10bd;" horiz-adv-x="1120" d="M131 307q0 126 39 179l87 -2q-26 -61 -26 -177q0 -151 101 -217q102 -65 226 -65q141 0 235 82q97 82 97 244q0 141 -145 367q-128 201 -143 416h-198q-92 0 -140.5 -53t-48.5 -132q0 -72 51 -122.5t140 -50.5h93v-73h-93q-116 0 -194 71q-81 73 -81 177t77 179 q75 74 196 74h196v284h-200v65h286v-349h236v-70h-236q12 -228 151 -419q152 -206 152 -364q0 -170 -120 -284q-121 -115 -311 -115q-195 0 -310 105q-117 106 -117 250z" />
<glyph unicode="&#x10be;" horiz-adv-x="1155" d="M164 488v1067h93v-734h17q136 191 322 191q210 0 319.5 -136t109.5 -390q0 -264 -124 -400q-122 -134 -306 -134q-172 0 -302 124q-129 123 -129 412zM257 486q0 -261 103 -358q107 -98 242 -98q150 0 235 112t85 344q0 260 -82 354q-81 96 -238 96q-160 0 -252.5 -122 t-92.5 -328z" />
<glyph unicode="&#x10bf;" horiz-adv-x="947" d="M88 -38v101q553 31 556 291q12 218 -455 212l-54 44l292 400l-337 170l59 57l322 -160l101 135q82 106 42 185q-40 78 -122 93q-76 0 -143 -46l-59 48q78 67 204 67q141 -15 194 -128q55 -116 -27 -238l-114 -145l314 -162l-44 -65l-308 155l-246 -341q467 -9 476 -279 q0 -340 -651 -394z" />
<glyph unicode="&#x10c0;" horiz-adv-x="1098" d="M109 341q0 94 61 187l70 -48q-32 -38 -32 -141q3 -125 101 -217q101 -95 228 -95q132 0 231 84q99 81 99 249q0 303 -488 385v82q167 -24 282 -82q52 -26 109 15q59 40 59 126q0 153 -452 219v80q149 -15 248 -55q50 -15 105 23q55 41 55 112q0 92 -230 143 q-229 51 -229 158h108q0 -75 223 -120q225 -43 225 -185q0 -108 -143 -165q185 -100 185 -223q0 -118 -162 -183q206 -132 206 -326q0 -191 -114 -301.5t-317 -110.5q-219 3 -325 134q-103 134 -103 255z" />
<glyph unicode="&#x10c1;" horiz-adv-x="1162" d="M152 398v566q0 362 140 583h102q-150 -172 -150 -589v-562q0 -170 97 -268t282 -98q135 0 211.5 57t76.5 144q0 152 -269 152h-89v69h89q254 0 254 139q0 141 -269 141h-74v68h74q259 0 259 141q0 139 -272 139h-61v65h61q259 0 259 153q0 80 -101 137q-90 58 -90 112h95 q0 -54 98 -114q95 -57 95 -130q0 -137 -166 -188q179 -48 179 -174q0 -125 -179 -179q191 -48 191 -167q0 -126 -178 -180q193 -51 193 -186q0 -153 -126 -216q-125 -61 -261 -61q-234 0 -352.5 116t-118.5 330z" />
<glyph unicode="&#x10c2;" horiz-adv-x="1075" d="M131 -23q104 0 347 111q-347 260 -347 821q0 377 126 522q127 147 301 147q173 0 303 -147q128 -144 128 -522q0 -563 -345 -821q237 -111 345 -111v-110q-27 0 -425 183q-404 -180 -431 -180h-2v107zM225 911q0 -563 333 -783q338 209 338 781q0 305 -98 448t-240 143 q-135 0 -236 -143q-97 -142 -97 -446z" />
<glyph unicode="&#x10c3;" horiz-adv-x="1121" d="M133 370q-3 124 56 263h95q-52 -167 -52 -263q0 -152 94 -246t232 -94q145 0 240 98q94 97 94 221v175q0 165 -115 248q-113 85 -219 85h-148v81h145q90 0 213 120q124 121 124 430h-623v-307h-96v378h818q0 -519 -343 -658v-11q343 -103 343 -366v-175q0 -164 -128 -280 q-129 -117 -305 -117q-166 0 -297 113q-128 110 -128 305z" />
<glyph unicode="&#x10c4;" horiz-adv-x="1121" d="M131 1578h101q0 -106 66.5 -176t172.5 -70q241 0 421 246h99v-155q0 -499 -301 -594v-12q301 -83 301 -369v-57q0 -240 -134 -340q-130 -99 -297 -99q-169 0 -299 124q-128 122 -128 286q0 157 56 246h91q-48 -120 -48 -246q0 -146 100 -240q101 -92 228 -92 q137 0 235 77q99 75 99 284v57q0 182 -105 257q-106 78 -204 78h-147v80h147q99 0 204 99q106 100 103 511q-191 -213 -421 -213q-156 0 -248 89t-92 229z" />
<glyph unicode="&#x10c5;" horiz-adv-x="1116" d="M131 307q0 157 117 263q115 105 387 105h261v223h-252q-272 0 -392.5 85.5t-120.5 257.5q0 147 111 242q112 95 313 95q191 0 312 -92q122 -88 122 -261v-251h128v-76h-128v-223h128v-77h-128v-278q0 -182 -135 -276q-136 -92 -299 -92q-212 0 -317 105 q-107 107 -107 250zM231 307q0 -133 88.5 -205t235.5 -72q145 0 243 86t98 200v282h-263q-225 0 -313 -85q-89 -86 -89 -206zM231 1241q0 -146 97 -206.5t320 -60.5h248v251q0 115 -98 195q-97 82 -243 82q-148 0 -236 -66.5t-88 -194.5z" />
<glyph unicode="&#x10d0;" horiz-adv-x="926" d="M131 333q0 117 69 199l65 -40q-48 -48 -48 -159q0 -142 75 -205q76 -63 177 -63q104 0 173 72.5t69 203.5q0 168 -197 303q-173 122 -173 252q0 21 4 26h88q-4 -4 -4 -21q0 -112 169 -242q197 -132 197 -318q0 -143 -98 -244q-97 -97 -228 -97q-144 0 -240 93 q-98 95 -98 240z" />
<glyph unicode="&#x10d1;" horiz-adv-x="963" d="M131 436q0 167 86 281t240 142q38 109 44 199q3 147 -154 247q-156 103 -156 254v4h87q0 -1 -1 -6t-1 -6q0 -115 149 -219q149 -101 149 -267q-9 -99 -46 -208q138 -37 221.5 -151.5t83.5 -278.5q0 -174 -101 -301q-100 -126 -250 -126q-149 0 -250 124t-101 312z M219 436q0 -192 78 -282q80 -89 185 -89q114 0 188.5 95.5t74.5 266.5q0 159 -70.5 254.5t-190.5 118.5q-124 -10 -194.5 -101t-70.5 -263z" />
<glyph unicode="&#x10d2;" horiz-adv-x="1038" d="M109 -145q0 191 129 320q130 130 278 145q174 123 174 290q0 82 -55.5 141t-161.5 59q-103 0 -153 -59q-51 -60 -51 -124q0 -80 40 -114l-73 -25q-42 52 -42 135q0 113 79 181.5t200 68.5q138 0 215.5 -73t77.5 -190q0 -147 -177 -299q341 -112 341 -458 q0 -195 -122 -329q-121 -138 -297 -138q-165 0 -284 134q-118 133 -118 335zM196 -128q0 -219 101 -320q104 -101 214 -101q152 0 239 103t88 299q9 187 -91 290q-98 104 -206 124q-146 -9 -246 -115q-99 -105 -99 -280z" />
<glyph unicode="&#x10d3;" horiz-adv-x="1422" d="M131 457q0 194 96 296q98 101 230 101q153 0 248 -149q98 149 248 149q145 0 242 -128q97 -125 97 -282q0 -201 -99 -322q-97 -122 -240 -122q-140 0 -235 124q-93 121 -93 303q0 99 50 230q-77 132 -216 132q-107 0 -173 -85t-67 -247q0 -219 101 -378.5t311 -282.5 q368 -174 440 -379h-93q-91 157 -199 227q-109 68 -194 59q-78 -8 -276 -59v89l247 19v8q-214 137 -319.5 308.5t-105.5 388.5zM705 427q0 -175 70.5 -268.5t177.5 -93.5q89 0 169 86q82 88 82 287q0 152 -72 252q-71 99 -177 99q-94 0 -172 -84t-78 -278z" />
<glyph unicode="&#x10d4;" horiz-adv-x="963" d="M120 -257q0 162 133 268l48 -43q-93 -87 -93 -225q0 -154 72 -223q75 -69 174 -69q136 0 203 73q69 72 69 165v879q0 100 -61.5 160.5t-167.5 60.5q-99 0 -161 -63t-62 -156q0 -113 61 -174l-51 -57q-90 81 -90 217q0 132 81.5 215t212.5 83q138 0 225 -78.5t87 -207.5 v-879q0 -143 -99 -221q-100 -82 -247 -82q-121 0 -229 96q-105 93 -105 261z" />
<glyph unicode="&#x10d5;" horiz-adv-x="952" d="M120 -257q0 141 99 234l48 -36q-71 -74 -71 -198q0 -134 84 -212q86 -80 189 -80q146 0 207 78q63 76 63 179v176q0 136 -80 213q-78 78 -143 78h-102v71h102q59 0 141 82t82 215q0 121 -69 183.5t-188 62.5q-103 0 -173.5 -63.5t-70.5 -151.5q0 -82 38 -149l-57 -27 q-55 73 -55 162q0 132 86.5 213t229.5 81q158 0 249.5 -81.5t91.5 -219.5q0 -198 -238 -334v-15q238 -92 238 -330v-166q0 -116 -85 -219q-82 -103 -267 -103q-149 0 -250 101q-99 99 -99 256z" />
<glyph unicode="&#x10d6;" horiz-adv-x="958" d="M44 1260q0 146 77 232t199 86q97 0 187 -78q89 -77 89 -233q0 -71 -24 -128.5t-75 -136.5l-141 -181v-15l122 51q125 0 235 -116q114 -117 114 -314q0 -195 -107 -313q-106 -114 -242 -114q-134 0 -242 111q-106 110 -106 331q0 109 34.5 189t102.5 148l133 172 q-40 -15 -68 -15q-127 0 -208 93q-80 95 -80 231zM116 1260q0 -121 65 -195q66 -72 151 -72q61 0 125 70q67 73 67 204t-69 191q-66 63 -135 63q-93 0 -148.5 -68.5t-55.5 -192.5zM221 442q0 -218 78 -299q78 -78 179 -78q115 0 188 93t73 269q0 161 -72 261 q-72 103 -189 103q-125 0 -191 -90.5t-66 -258.5z" />
<glyph unicode="&#x10d7;" horiz-adv-x="1456" d="M131 427q0 183 103 305q106 122 246 122q164 0 282 -181q52 93 111.5 137t134.5 44q135 0 227 -115q91 -110 91 -274q0 -291 -265 -471h-114q286 151 286 473q0 150 -71 234q-69 88 -152 88q-143 0 -215 -177q38 -108 38 -185q0 -169 -103 -297q-104 -130 -250 -130 q-151 0 -251 131q-98 136 -98 296zM219 427q0 -152 80 -259q79 -103 181 -103q98 0 179 99q86 101 86 263q0 158 -86 259q-82 103 -179 103q-103 0 -183 -101q-78 -102 -78 -261z" />
<glyph unicode="&#x10d8;" horiz-adv-x="963" d="M131 471q0 181 107 282q109 101 244 101t242 -101q109 -101 109 -282q0 -221 -176 -461h-97q185 195 185 461q0 158 -71 238t-192 80t-192 -80t-71 -238q0 -271 185 -469h-97q-176 240 -176 469z" />
<glyph unicode="&#x10d9;" horiz-adv-x="918" d="M109 -265q0 160 85 248l56 -31q-63 -94 -63 -217q0 -130 82 -206q84 -78 179 -78q106 0 179.5 68.5t73.5 179.5v187q0 140 -86 223t-192 83h-91v80h93q114 0 177 75q65 74 65 169q0 187 -274 269l11 72q352 -129 352 -333q0 -175 -259 -286v-17q161 -38 225 -141 q67 -105 67 -189v-192q0 -125 -97 -219q-94 -94 -244 -94q-142 0 -242 103q-97 100 -97 246z" />
<glyph unicode="&#x10da;" horiz-adv-x="1789" d="M131 457q0 172 86 284q87 113 206 113q95 0 158.5 -52t91.5 -141h17q16 98 72 152t145 54q179 0 215 -206h18q28 88 88.5 140.5t145.5 52.5q286 0 286 -357q0 -225 -202 -396h-65q185 195 185 396q0 294 -204 294q-116 0 -165 -76t-49 -231v-137h-66v141 q0 167 -39.5 240.5t-145.5 73.5t-148.5 -74.5t-44.5 -239.5v-141h-68v141q0 153 -50 227t-177 74q-70 0 -135 -74q-67 -76 -67 -260q0 -269 208 -455q207 -159 467 -248q275 -92 438 -331h-124q-136 209 -326 263q-201 56 -486 -84l-17 110l311 38l2 18q-293 123 -427 316 q-134 195 -134 375z" />
<glyph unicode="&#x10db;" horiz-adv-x="974" d="M131 427q3 167 98 297t228 130q173 0 265 -126h12v549q0 234 -252 234q-89 0 -151.5 -52.5t-63.5 -139.5q3 -70 26 -124l-68 -38q-34 81 -34 146q1 130 81.5 202.5t209.5 72.5q176 0 252 -90q76 -88 76 -213v-881q0 -154 -90 -276q-89 -118 -238 -118q-163 0 -257 128 t-94 299zM219 429q0 -176 72.5 -270t190.5 -94q99 0 174 91q74 93 74 223q0 265 -82 337q-81 73 -191 73q-94 0 -167 -109q-71 -105 -71 -251z" />
<glyph unicode="&#x10dc;" horiz-adv-x="990" d="M164 427v888q0 221 270 221h197q114 0 114 76h88q0 -145 -202 -145h-223q-172 0 -172 -122v-642h16q100 151 261 151q145 0 245 -126q101 -124 101 -301t-99 -301q-100 -126 -259 -126q-137 0 -238 118q-99 118 -99 309zM236 429q0 -152 80 -259q81 -105 185 -105 q126 0 199.5 95.5t73.5 266.5q0 169 -78 265q-76 97 -182 97q-105 0 -192 -78q-86 -77 -86 -282z" />
<glyph unicode="&#x10dd;" horiz-adv-x="1428" d="M131 455q0 204 86 301.5t237 97.5q166 0 247 -214h17q40 106 105.5 160t146.5 54q138 0 232 -94q96 -96 96 -305q0 -255 -300 -444h-125q339 191 339 448q0 330 -238 330q-104 0 -165.5 -80t-61.5 -227v-150h-71v150q0 147 -60.5 227t-160.5 80q-120 0 -178 -75.5 t-58 -258.5q0 -270 332 -444h-126q-294 186 -294 444z" />
<glyph unicode="&#x10de;" horiz-adv-x="959" d="M131 379q0 115 50 177l71 -28q-33 -47 -33 -168q-3 -93 71 -196q71 -99 190 -99q112 0 187 93q76 94 76 238q0 188 -86 277q-82 91 -192 91h-61v74h82q88 0 154 77q65 75 65 194q0 134 -191 200q-188 66 -188 254h84q0 -149 186 -225q189 -76 189 -227q0 -99 -40 -170 q-36 -66 -189 -127v-25q273 -80 273 -395q0 -161 -99 -276q-98 -118 -250 -118q-144 0 -248 118q-101 121 -101 261z" />
<glyph unicode="&#x10df;" horiz-adv-x="995" d="M131 135v78h115q192 0 192 138q0 193 -291 219h-16v72q371 28 595 212h107v-1115q0 -157 -101 -255t-240 -98q-149 0 -256 92q-105 87 -105 236q0 129 82 195l48 -37q-55 -64 -55 -152q0 -119 80 -194t206 -75q119 0 192 84q74 81 74 202v1042h-42q-150 -133 -428 -177 v-15q219 -45 219 -238q0 -81 -63 -147q-64 -67 -198 -67h-115z" />
<glyph unicode="&#x10e0;" horiz-adv-x="1422" d="M131 438q0 189 115 351q116 164 196 255q105 120 183 232t145 262h93q-61 -112 -129.5 -215t-149.5 -202t-139 -164.5t-153 -167.5h30q84 65 132 65q157 0 245 -219h21q79 219 246 219q155 0 240.5 -106.5t85.5 -295.5q0 -236 -294 -439h-123q333 185 333 437 q0 160 -62 249.5t-170 91.5q-100 -3 -166 -82q-65 -78 -65 -193v-169h-70v169q0 117 -60 195t-160 78q-87 0 -163 -78q-73 -78 -73 -269q0 -248 326 -431h-124q-290 196 -290 427z" />
<glyph unicode="&#x10e1;" horiz-adv-x="968" d="M164 408v1155h72v-1134q0 -180 70.5 -272t200.5 -92q122 0 185 86t63 202q0 189 -111 280q-109 95 -109 171q0 105 77 194l64 -59q-81 -59 -81 -129q0 -73 121 -166q122 -94 122 -291q0 -130 -89 -242q-89 -111 -242 -111q-165 0 -254 107t-89 301z" />
<glyph unicode="&#x10e2;" horiz-adv-x="1184" d="M109 120q0 310 144 507q145 202 315 202h55q156 0 305 -206q149 -203 149 -497q0 -327 -139 -532q-139 -208 -343 -208q-213 0 -349 208q-137 206 -137 526zM191 120q0 -298 122 -482q124 -187 285 -187q167 0 282 187q117 186 117 488q0 293 -113 470q-111 174 -261 183 h-55q-149 -9 -263 -186t-114 -473zM543 1151h109l-38 -280h-33zM547 181l25 558h32l34 -558h-91z" />
<glyph unicode="&#x10e3;" horiz-adv-x="1075" d="M44 835l70 36q12 -149 77 -149q43 0 83 65q44 67 86 67h29q32 0 68 -38t50 -111h9q21 76 64.5 112.5t97.5 36.5q109 0 171 -71t62 -192v-843q0 -173 -85 -267.5t-239 -94.5q-172 0 -274 105q-103 106 -103 256q0 149 116 243l44 -51q-86 -80 -86 -189q0 -121 82 -209 q84 -90 219 -90q109 0 180.5 75t71.5 217v876q0 74 -36 122t-111 48h-38q-56 0 -84.5 -52.5t-26.5 -149.5l12 -250h-80l11 250q0 94 -30 148t-77 54h-38q-18 0 -61 -65t-101 -65q-89 0 -133 176z" />
<glyph unicode="&#x10e4;" horiz-adv-x="1326" d="M131 454q0 177 94 287q96 113 215 113q144 0 242 -158q101 158 235 158q108 0 194 -92q86 -89 86 -268q0 -219 -214 -342v-11q187 -80 187 -320v-61q0 -185 -101 -280q-100 -94 -234 -94q-172 0 -267 92q-95 89 -95 215q0 132 51 189l50 -27q-31 -59 -31 -145 q0 -94 69 -177q72 -82 221 -82q110 0 179.5 76t69.5 229v59q0 137 -42 218t-116 81h-89v63h89q62 0 122 80q63 83 63 252q0 152 -48.5 216t-157.5 64q-106 0 -188 -145q36 -124 36 -189q0 -150 -86 -274q-85 -120 -223 -120q-133 0 -221 116q-90 119 -90 277zM219 455 q0 -155 61.5 -241t161.5 -86t166.5 89t66.5 235q0 132 -58 234q-57 103 -177 103q-105 0 -163 -83.5t-58 -250.5z" />
<glyph unicode="&#x10e5;" horiz-adv-x="943" d="M120 -257q0 158 99 257l59 -40q-70 -73 -82 -217q0 -122 73 -206q72 -86 188 -86q100 0 178 73q76 72 76 219v812q0 119 -59.5 176.5t-163.5 57.5q-108 0 -160 -61.5t-52 -161.5q0 -90 71 -158l-44 -67q-107 95 -107 212q0 138 79.5 219.5t210.5 81.5q135 0 213 -105h12 v814h68v-1820q0 -168 -88.5 -262.5t-233.5 -94.5q-135 0 -236 101t-101 256z" />
<glyph unicode="&#x10e6;" horiz-adv-x="1344" d="M131 471q0 181 78.5 282t217.5 101q86 0 151 -55t97 -170h11q33 118 89 171.5t143 53.5q136 0 214 -99q82 -97 82 -246q0 -215 -181 -402h-73q176 179 176 396q0 131 -52 208.5t-166 77.5q-99 0 -152 -93t-53 -227v-78h-65v78q0 135 -57 227q-53 93 -158 93 q-110 0 -162 -73.5t-52 -244.5q0 -391 379 -646q296 -148 408 -418h-114q-109 308 -324 340q-136 -20 -265 -96l-8 118l206 29v15q-370 289 -370 658z" />
<glyph unicode="&#x10e7;" horiz-adv-x="984" d="M120 -274q0 110 86 205l51 -28q-65 -78 -65 -177q0 -118 77 -195q77 -80 200 -80q135 0 207.5 67t72.5 179v503h-10q-120 -126 -266 -126q-138 0 -222.5 98t-84.5 266q0 209 219 410h110q-255 -189 -255 -412q0 -142 62 -220.5t171 -78.5t190 65q84 67 84 191v442h74 v-1138q0 -137 -91.5 -224t-262.5 -87q-137 0 -244 92q-103 88 -103 248z" />
<glyph unicode="&#x10e8;" horiz-adv-x="1011" d="M32 1138v203q0 102 53.5 169.5t143.5 67.5q148 0 196 -158h9q60 158 199 158q95 0 155 -81.5t60 -221.5v-848q0 -181 -103 -303q-101 -124 -244 -124q-149 0 -249 128t-100 306q0 188 107 303q106 117 242 117q155 0 261 -157h12v580q-4 132 -40.5 189t-108.5 57 t-119 -61t-47 -170v-234h-55v234q0 106 -39.5 168.5t-120.5 62.5q-145 0 -145 -189v-196h-67zM246 427q0 -174 69.5 -268t183.5 -94q105 0 187 91q84 96 84 271q0 187 -84 274q-82 88 -187 88q-115 0 -184 -92.5t-69 -269.5z" />
<glyph unicode="&#x10e9;" horiz-adv-x="977" d="M164 21v1239q0 148 67.5 233t197.5 85q106 0 190 -73t84 -181q0 -137 -118 -284l-50 33q94 128 94 251q0 62 -50 124q-48 63 -139 63q-110 0 -157 -59t-47 -181v-575h17q98 158 242 158q151 0 252 -107t101 -274q0 -234 -246 -462h-105q263 215 263 465q0 140 -71 226.5 t-194 86.5q-85 0 -173 -82q-86 -83 -86 -223v-463h-72z" />
<glyph unicode="&#x10ea;" horiz-adv-x="1100" d="M120 143q0 366 145 674h86q-147 -274 -147 -676q0 -334 95.5 -512t281.5 -178q138 0 233 109q95 107 95 286q0 150 -82 238q-78 87 -170 87h-127v61h127q91 0 157 65.5t66 175.5q0 82 -133 144q-144 71 -156 210h80q0 -111 150 -173q130 -67 130 -191q0 -172 -212 -255 v-12q242 -66 242 -352q0 -198 -110 -326q-108 -132 -299 -132q-213 0 -332.5 195t-119.5 562z" />
<glyph unicode="&#x10eb;" horiz-adv-x="995" d="M131 427q0 191 107 309q109 118 240 118q154 0 267 -162h11v871h77v-1136q0 -174 -99 -301q-100 -126 -256 -126q-148 0 -249 130q-98 130 -98 297zM219 427q0 -161 76 -261q77 -101 185 -101q121 0 198 101q78 102 78 261q0 155 -80 259q-76 103 -198 103 q-114 0 -186 -111q-73 -110 -73 -251z" />
<glyph unicode="&#x10ec;" horiz-adv-x="1000" d="M88 1223q0 184 56 269.5t178 85.5q134 0 192 -176q49 176 193 176q109 0 158.5 -66t49.5 -209v-169h-73v167q0 152 -40 183q-41 35 -106 35q-78 0 -115.5 -61t-37.5 -187v-175h-57v177q0 125 -35 186t-119 60q-76 0 -120 -48q-40 -47 -46 -230q-3 -164 59 -553h19 q106 166 282 166q157 0 247 -95.5t90 -251.5q0 -221 -234 -568q-204 -406 -204 -534h-97q0 300 -36 484l-56 307l-42 238q-94 508 -106 789zM236 619q35 -242 67 -400q37 -176 55 -320q24 -169 27 -377h11q72 258 229 531q149 250 149 446q0 150 -67.5 220t-178.5 70 q-145 0 -292 -170z" />
<glyph unicode="&#x10ed;" horiz-adv-x="940" d="M120 -257q0 153 111 242l49 -46q-84 -67 -84 -196q0 -135 76 -213.5t199 -78.5q124 0 198 82t74 210q0 151 -141 362q-138 209 -118 490l15 146h-131q-177 -10 -177 -173q0 -64 43 -108.5t115 -44.5v-74q-76 0 -151 65q-76 66 -76 164q0 93 72 162q70 70 174 70h139 l30 261q15 107 -127 191q-141 83 -141 312h80q0 -219 139 -301t116 -242l-29 -221h229v-61h-236l-17 -146q-35 -228 118 -458q152 -227 152 -394q0 -158 -99 -257q-97 -100 -251 -100q-161 0 -256 101t-95 256z" />
<glyph unicode="&#x10ee;" horiz-adv-x="995" d="M164 429v1134h68v-860h12q111 151 270 151q149 0 250 -124t101 -303q0 -176 -103 -301q-100 -126 -246 -126q-159 0 -255.5 114t-96.5 315zM232 429q0 -174 79 -269t209 -95q107 0 181 99q76 100 76 263q0 143 -72 251q-72 111 -192 111t-200.5 -96.5t-80.5 -263.5z" />
<glyph unicode="&#x10ef;" horiz-adv-x="799" d="M88 -537q316 75 316 287q3 152 -198 200l-65 46l238 385l-270 179l36 55l267 -179l28 44q131 195 128 275q-9 102 -120 102q-78 0 -109 -53l-57 42q59 71 154 74q198 -3 195 -177q0 -97 -117 -274l-43 -73l263 -175l-37 -50l-259 170l-204 -335q239 -54 239 -250v-2 q0 -291 -385 -366v75z" />
<glyph unicode="&#x10f0;" horiz-adv-x="959" d="M131 360q0 64 46 141l61 -32q-19 -56 -19 -113q0 -129 78.5 -210t194.5 -81q101 0 175 70q76 72 76 197q-9 251 -392 367v73q136 -32 228 -90q56 -15 94 28t38 109q0 166 -362 242v73q117 -25 211 -71q43 -6 78 40t35 128q0 95 -176 156q-181 57 -181 191h78 q0 -86 181 -158q181 -51 181 -187q0 -124 -133 -183v-13q170 -99 170 -200q0 -154 -151 -185v-12q187 -152 187 -308q0 -125 -92 -229q-91 -103 -259 -103q-138 0 -244 103q-103 106 -103 257z" />
<glyph unicode="&#x10f1;" horiz-adv-x="958" d="M131 429v545q0 342 113 589h82q-113 -200 -113 -597v-539q0 -167 75 -264.5t225 -97.5q109 0 172.5 58.5t63.5 143.5q0 147 -221 147h-74v66h74q211 0 211 134q0 135 -223 135h-62v67h62q214 0 214 137q0 131 -223 131h-53v65h53q211 0 211 143q0 81 -85 135 q-73 52 -73 136h80q0 -83 76 -140q79 -56 79 -123q0 -132 -178 -183q189 -48 189 -164q0 -123 -189 -174q199 -46 199 -164q0 -119 -187 -167q198 -54 198 -183q0 -146 -101 -206q-99 -59 -213 -59q-190 0 -286 112t-96 317z" />
<glyph unicode="&#x10f2;" horiz-adv-x="963" d="M131 -6q191 0 281 61q-281 164 -281 418q0 180 103 280q104 101 248 101q142 0 246 -101q105 -99 105 -280q0 -254 -278 -418q87 -61 278 -61v-97q-129 0 -349 141q-220 -139 -351 -139h-2v95zM219 476q0 -133 71 -232.5t192 -155.5q53 19 103 55q50 39 103 114 q57 77 57 216q0 128 -74 221q-72 95 -189 95q-114 0 -189 -95q-74 -93 -74 -218z" />
<glyph unicode="&#x10f3;" horiz-adv-x="963" d="M131 -257q0 162 134 268l30 -70q-76 -63 -76 -198q0 -117 73 -204q72 -88 188 -88q121 0 193 92q72 89 72 200v158q0 163 -89 232t-214 69h-86v72h84q110 0 208 109q97 107 97 389h-501v-278h-80v341h669q0 -466 -280 -595v-9q164 -35 221 -111q59 -74 59 -219v-158 q0 -150 -105 -252q-102 -105 -248 -105q-139 0 -246 101q-103 100 -103 256z" />
<glyph unicode="&#x10f4;" horiz-adv-x="961" d="M131 -257q0 174 134 268l36 -74q-82 -57 -82 -194q0 -134 78 -212q77 -80 183 -80q114 0 189.5 79t75.5 213v183q0 194 -82 266q-78 71 -164 71h-120v70h120q80 0 164 90q82 88 82 379q-160 -84 -246 -84q-166 0 -267 115t-101 276q0 175 119 303t293 128v-63 q-106 -3 -215 -99q-109 -95 -109 -254q0 -124 67 -232q68 -105 211 -105q167 0 334 194v-173q0 -205 -48 -334q-48 -128 -192 -171v-11q152 -48 196 -140q44 -90 44 -226v-183q0 -166 -109 -261q-110 -96 -242 -96q-140 0 -246 103q-103 103 -103 254z" />
<glyph unicode="&#x10f5;" horiz-adv-x="1025" d="M131 345q0 151 96 250q94 97 318 97h206v225h-198q-222 0 -322 84t-100 251q0 145 92.5 235.5t256.5 90.5q158 0 255.5 -90t97.5 -251v-246h106v-74h-106v-225h106v-77h-106v-259q0 -177 -109 -266q-110 -90 -244 -90q-175 0 -263 103q-86 104 -86 242zM219 345 q0 -130 71 -205t190 -75q118 0 195 89q76 88 76 199v262h-208q-181 0 -253 -76q-71 -75 -71 -194zM219 1252q0 -143 76.5 -202t259.5 -59h196v246q0 108 -76 190q-78 84 -195 84q-119 0 -190 -67.5t-71 -191.5z" />
<glyph unicode="&#x10f6;" horiz-adv-x="1385" d="M131 433q0 179 82 301q83 123 241 123q161 0 238 -175h11q86 175 246 175q130 0 217 -127q90 -131 90 -303q0 -170 -90 -301q-88 -126 -215 -126q-112 0 -219 109v-298q0 -246 -71 -333q-72 -92 -181 -92v65q87 0 130 76q44 76 44 281v695q0 129 -54 207.5t-150 78.5 t-163.5 -100t-67.5 -262q0 -152 71 -257t146 -105v-65q-128 0 -217 130q-88 128 -88 303zM732 337q0 -103 63 -188q64 -84 158 -84q96 0 155.5 99t59.5 263q0 160 -60 261t-157 101t-158 -80t-61 -206v-166z" />
<glyph unicode="&#x10f7;" horiz-adv-x="1048" d="M131 -204q0 219 290 417q292 200 292 395q0 59 -50 139q-48 76 -156 76q-92 0 -146 -55.5t-54 -132.5q0 -80 38 -115l-61 -36q-55 38 -55 143q0 100 68 181q73 84 219 84q140 0 206 -86q67 -87 67 -198q0 -214 -290 -412q-289 -197 -289 -400q0 -130 85 -236 q89 -109 237 -109q137 0 221 105q85 106 85 208q0 161 -112 234l63 52q126 -101 129 -288q-3 -162 -110 -267q-107 -109 -276 -109q-186 0 -294 117q-107 118 -107 293z" />
<glyph unicode="&#x10f8;" horiz-adv-x="984" d="M120 -259v1107h74v-434q0 -123 84 -201q82 -76 191 -76q110 0 171 78t61 221q0 237 -253 425h108q220 -202 220 -423q0 -168 -84.5 -266t-222.5 -98q-145 0 -240 126h-35v-459q0 -145 77.5 -217.5t201.5 -72.5t200 78.5t76 196.5q0 98 -63 177l50 28q85 -94 85 -205 q0 -161 -105 -248q-104 -92 -240 -92q-161 0 -258.5 92t-97.5 263z" />
<glyph unicode="&#x10f9;" horiz-adv-x="1038" d="M109 406q0 195 120 330q123 137 299 137q156 0 278 -134q124 -133 124 -335q0 -190 -132 -322q-128 -128 -276 -143q-173 -122 -173 -290q0 -74 51 -137q53 -65 166 -65q102 0 152 59q52 61 52 126q0 78 -40 115l72 22q42 -52 42 -133q0 -113 -78.5 -181.5t-199.5 -68.5 q-138 0 -216 73t-78 190q0 146 178 298q-341 112 -341 459zM200 406q-9 -187 90 -292q102 -105 207 -124q144 12 244 115q101 107 101 280q0 230 -103 324q-100 97 -211 97q-153 0 -240 -100t-88 -300z" />
<glyph unicode="&#x10fa;" horiz-adv-x="963" d="M131 501q0 160 91 256.5t249 96.5q166 0 264 -90t98 -248q0 -130 -97 -224l-54 53q63 66 63 169q0 124 -70 199.5t-204 75.5q-115 0 -183.5 -78.5t-68.5 -211.5q0 -223 204 -335q201 -105 339 -273l-80 -55q-94 191 -200 206q-108 0 -198 -133l-55 24q35 108 196 164 q-294 129 -294 404z" />
<glyph unicode="&#x10fb;" horiz-adv-x="874" d="M97 103q0 39 28 69t71 30q41 0 70 -29t29 -70q0 -45 -29 -74t-70 -29q-40 0 -69.5 31t-29.5 72zM97 756q0 39 28 68.5t71 29.5q41 0 70 -29t29 -69q0 -45 -29 -73.5t-70 -28.5q-40 0 -69.5 30.5t-29.5 71.5zM579 429q0 40 28 69.5t71 29.5q41 0 70 -29t29 -70 q0 -45 -29 -74t-70 -29q-39 0 -69 31.5t-30 71.5z" />
<glyph unicode="&#x10fc;" horiz-adv-x="666" d="M109 1037v352q0 191 194 191h252v-56l-277 4q-54 0 -79.5 -36t-25.5 -84v-177q30 37 78 59.5t86 22.5q106 0 162.5 -76t56.5 -198q0 -307 -223 -307q-224 0 -224 305zM173 1029q0 -104 47 -173t113 -69t113.5 71.5t47.5 180.5q0 93 -49.5 156t-118.5 63q-61 0 -107 -66.5 t-46 -162.5z" />
<glyph unicode="&#x2000;" horiz-adv-x="912" />
<glyph unicode="&#x2001;" horiz-adv-x="1824" />
<glyph unicode="&#x2002;" horiz-adv-x="912" />
<glyph unicode="&#x2003;" horiz-adv-x="1824" />
<glyph unicode="&#x2004;" horiz-adv-x="608" />
<glyph unicode="&#x2005;" horiz-adv-x="456" />
<glyph unicode="&#x2006;" horiz-adv-x="304" />
<glyph unicode="&#x2007;" horiz-adv-x="304" />
<glyph unicode="&#x2008;" horiz-adv-x="228" />
<glyph unicode="&#x2009;" horiz-adv-x="364" />
<glyph unicode="&#x200a;" horiz-adv-x="101" />
<glyph unicode="&#x2010;" horiz-adv-x="792" d="M107 497v84h579v-84h-579z" />
<glyph unicode="&#x2011;" horiz-adv-x="792" d="M107 497v84h579v-84h-579z" />
<glyph unicode="&#x2012;" horiz-adv-x="1319" d="M0 408v112h1385v-112h-1385z" />
<glyph unicode="&#x2013;" horiz-adv-x="963" d="M-23 393v87h1008v-87h-1008z" />
<glyph unicode="&#x2014;" horiz-adv-x="1357" d="M-23 393v87h1403v-87h-1403z" />
<glyph unicode="&#x2018;" horiz-adv-x="536" d="M152 1187q0 101 52.5 209t144.5 191l34 -36q-145 -165 -145 -282q0 -9 3.5 -26t4.5 -25q2 3 17 3h11q39 0 65.5 -23t26.5 -60q0 -52 -29.5 -77.5t-69.5 -25.5q-115 0 -115 152z" />
<glyph unicode="&#x2019;" horiz-adv-x="536" d="M152 1069q78 92 110.5 156.5t32.5 123.5q0 27 -3 53q-1 -1 -18 -1h-11q-39 0 -66 22.5t-27 60.5q0 48 30.5 75.5t68.5 27.5q54 0 84 -38t30 -116q0 -105 -51 -208.5t-143 -189.5z" />
<glyph unicode="&#x201a;" horiz-adv-x="536" d="M152 -333q78 92 110.5 156.5t32.5 123.5q0 27 -3 53q-2 -2 -18 -2h-11q-39 0 -66 23t-27 61q0 48 30 73.5t69 25.5q114 0 114 -151q0 -104 -51 -208t-143 -190z" />
<glyph unicode="&#x201c;" horiz-adv-x="662" d="M65 1180q0 101 52 208t144 190l34 -35q-147 -164 -150 -287l-2 -54l44 10q38 0 61.5 -22.5t23.5 -61.5q0 -53 -27 -78t-66 -25q-114 0 -114 155zM394 1180q0 100 52 206.5t143 191.5l36 -35q-149 -176 -149 -285v-54l38 8q40 0 68 -23t28 -61q0 -52 -30.5 -77.5 t-70.5 -25.5q-115 0 -115 155z" />
<glyph unicode="&#x201d;" horiz-adv-x="856" d="M152 1061q78 90 110.5 154.5t32.5 125.5q0 27 -3 52q-2 -2 -18 -2h-11q-39 0 -66 23t-27 61q0 49 30 76t69 27q114 0 114 -155q0 -104 -51 -208t-143 -190zM473 1061q78 89 110 153.5t32 126.5q0 27 -3 52q-2 -2 -17 -2h-10q-39 0 -66 23t-27 61q0 50 29 76.5t70 26.5 q112 0 112 -155q0 -104 -51 -209t-143 -189z" />
<glyph unicode="&#x201e;" horiz-adv-x="856" d="M152 -333q78 92 110.5 156.5t32.5 123.5q0 27 -3 53l-29 -2q-39 0 -66 23t-27 61q0 48 30 73.5t69 25.5q114 0 114 -151q0 -104 -51 -208t-143 -190zM473 -333q78 91 110 155.5t32 124.5q0 27 -3 53l-27 -2q-39 0 -66 23t-27 61q0 49 29 74t70 25q112 0 112 -151 q0 -104 -51.5 -209.5t-142.5 -188.5z" />
<glyph unicode="&#x2020;" horiz-adv-x="1159" d="M120 644v88l417 106v479h96v-486l407 -109v-87l-415 108v-1012h-97v1020z" />
<glyph unicode="&#x2022;" horiz-adv-x="1095" d="M372 608q0 70 52.5 122.5t122.5 52.5q71 0 123 -52.5t52 -122.5q0 -74 -51.5 -124.5t-123.5 -50.5q-71 0 -123 51t-52 124z" />
<glyph unicode="&#x2026;" horiz-adv-x="1180" d="M74 103q0 39 29 69t72 30q41 0 70 -29t29 -70q0 -45 -29 -74t-70 -29t-71 31t-30 72zM492 103q0 40 28 69.5t71 29.5q41 0 70 -29t29 -70q0 -45 -29 -74t-70 -29q-40 0 -69.5 31t-29.5 72zM907 103q0 39 29 69t72 30q41 0 70 -29t29 -70q0 -45 -29 -74t-70 -29t-71 31 t-30 72z" />
<glyph unicode="&#x202f;" horiz-adv-x="364" />
<glyph unicode="&#x2039;" horiz-adv-x="787" d="M147 494l373 497h105l-322 -497l320 -492h-103z" />
<glyph unicode="&#x203a;" horiz-adv-x="787" d="M164 2l322 497l-322 492h103l362 -488l-362 -501h-103z" />
<glyph unicode="&#x205f;" horiz-adv-x="456" />
<glyph unicode="&#x20ac;" horiz-adv-x="1159" d="M29 595v80h135v28q0 77 7 124h-142v80h156q19 118 71 220.5t131 181t190.5 123.5t241.5 45q172 0 303 -76l-32 -84q-118 72 -280 72q-210 0 -343 -133t-175 -349h737v-80h-751q-6 -57 -6 -114v-38h757v-80h-751q31 -240 172.5 -372t349.5 -132q161 0 313 90l28 -76 q-156 -105 -352 -105q-130 0 -240 46t-187 127t-126 188.5t-65 233.5h-142z" />
<glyph unicode="&#x2116;" horiz-adv-x="1930" d="M97 253h80q20 -57 58.5 -103.5t71.5 -46.5q58 0 97.5 48t39.5 118v1128h-210v89h309l572 -1139l63 -141v1103q0 97 67 169.5t152 72.5q82 0 147 -61.5t87 -157.5h-97q-20 55 -57 92.5t-80 37.5q-56 0 -93 -46.5t-37 -106.5v-1282h-97l-574 1153l-64 161v-1072 q0 -95 -60 -168.5t-154 -73.5q-77 0 -140 66.5t-81 159.5zM1412 726q0 101 63 176.5t171 75.5q111 0 177.5 -76.5t66.5 -179.5q0 -109 -65.5 -182t-178.5 -73q-105 0 -169.5 75t-64.5 184zM1429 93v92h442v-92h-442zM1492 716q0 -67 46 -115t108 -48q81 0 121.5 46.5 t40.5 126.5q0 61 -46.5 110.5t-115.5 49.5t-111.5 -50.5t-42.5 -119.5z" />
<glyph unicode="&#x2122;" horiz-adv-x="1392" d="M76 1429v71h520v-71h-219v-526h-82v526h-219zM625 903l51 597h122l153 -387q35 -95 44 -124h3l42 120l155 391h120l57 -597h-126v532h-4q-6 -17 -26 -67l-14 -40q-3 -5 -5 -11l-4.5 -13.5t-3.5 -11.5l-149 -381h-93l-200 524h-4l-36 -126v-406h-82z" />
<glyph unicode="&#x25fc;" horiz-adv-x="1066" d="M0 0v1067h1067v-1067h-1067z" />
</font>
</defs>
</svg>
