<?xml version="1.0" standalone="no"?>
<!DOCTYPE svg PUBLIC "-//W3C//DTD SVG 1.1//EN" "http://www.w3.org/Graphics/SVG/1.1/DTD/svg11.dtd" >
<svg xmlns="http://www.w3.org/2000/svg" xmlns:xlink="http://www.w3.org/1999/xlink" version="1.1">
<metadata></metadata>
<defs>
<font id="bpg_nino_elite_expregular" horiz-adv-x="927" >
<font-face units-per-em="2048" ascent="1475" descent="-573" />
<missing-glyph horiz-adv-x="520" />
<glyph unicode="&#xd;" horiz-adv-x="655" />
<glyph unicode=" "  horiz-adv-x="520" />
<glyph unicode="&#x09;" horiz-adv-x="520" />
<glyph unicode="&#xa0;" horiz-adv-x="520" />
<glyph unicode="!" horiz-adv-x="446" d="M153 89q0 49 23 77t66 28q39 0 64 -27.5t25 -70.5q0 -38 -26 -67t-65 -29h-2q-33 0 -59 27.5t-26 61.5zM191 1433h105l-31 -1095h-43z" />
<glyph unicode="&#x22;" horiz-adv-x="628" d="M125 1510h126l-29 -464h-68zM380 1510h125l-29 -464h-67z" />
<glyph unicode="#" horiz-adv-x="1323" d="M125 498l20 83h271l62 316h-298l14 84h298l95 501h105l-91 -501h226l96 501h103l-94 -501h267l-18 -84h-265l-62 -316h289l-15 -83h-289l-91 -498h-105l94 498h-230l-95 -498h-103l94 498h-278zM527 581h225l56 316h-227z" />
<glyph unicode="$" horiz-adv-x="1105" d="M165 94l46 79q118 -93 290 -93q134 0 216 69.5t82 179.5q0 95 -66.5 162.5t-193.5 118.5q-185 74 -266.5 154.5t-81.5 201.5q0 125 84.5 211.5t227.5 106.5v224h87v-224q142 -6 269 -81l-47 -79q-2 1 -17.5 10t-22 12.5t-24.5 12.5t-30.5 13.5t-33.5 11.5t-39.5 10.5 t-43 6t-49.5 2.5q-133 0 -199 -67.5t-66 -154.5q0 -91 63.5 -151.5t216.5 -121.5q165 -67 247.5 -154t82.5 -220q0 -53 -19.5 -106t-57.5 -101.5t-103 -83.5t-147 -45v-220h-87v220q-91 0 -176 24.5t-142 71.5z" />
<glyph unicode="%" horiz-adv-x="1606" d="M62 979q0 105 27 189.5t72.5 135.5t100.5 77.5t114 26.5h2q136 0 214 -101.5t78 -301.5q0 -210 -86 -321.5t-223 -111.5q-126 0 -209.5 102.5t-89.5 304.5zM153 963q0 -149 58.5 -234.5t153.5 -85.5q107 0 161.5 92t54.5 262q0 159 -52.5 249.5t-161.5 90.5h-2 q-99 0 -155.5 -101t-56.5 -273zM338 0l843 1408h85l-843 -1408h-85zM937 421q0 105 27.5 189.5t72.5 135.5t100.5 77.5t114.5 26.5h1q135 0 214 -102t79 -301q0 -210 -86.5 -321t-222.5 -111q-125 0 -210.5 103.5t-89.5 302.5zM1028 405q0 -149 59 -234.5t154 -85.5 q107 0 161.5 91t54.5 262q0 163 -52.5 252t-162.5 89h-1q-100 0 -156.5 -99.5t-56.5 -274.5z" />
<glyph unicode="&#x26;" horiz-adv-x="1230" d="M62 394q0 273 301 418v7q-129 161 -129 304q0 86 38 161.5t117.5 125.5t184.5 50q126 0 207.5 -80t81.5 -205q0 -115 -82 -207t-276 -176v-9q247 -274 445 -472q57 80 96.5 180.5t65.5 273.5h96q-34 -191 -82 -314t-118 -195q85 -85 244 -229h-133l-169 160 q-118 -104 -228.5 -145.5t-238.5 -41.5q-177 0 -299 112.5t-122 281.5zM163 412q0 -148 99 -238t245 -90h3q114 0 213 44.5t169 118.5q-262 262 -480 505q-40 -18 -79.5 -46t-79.5 -70t-65 -100.5t-25 -123.5zM331 1132q0 -44 10 -84.5t32 -79t37 -60.5t44 -60 q76 35 127.5 65t96.5 69t67 85t22 101q0 85 -53 149t-155 64h-1q-106 0 -166.5 -73t-60.5 -176z" />
<glyph unicode="'" horiz-adv-x="375" d="M125 1510h126l-29 -464h-68z" />
<glyph unicode="(" horiz-adv-x="562" d="M142 510q0 168 28 320t79.5 275.5t105 216.5t123.5 186h81q-162 -197 -248 -440.5t-86 -560.5q0 -157 24.5 -297t72.5 -260.5t103.5 -218t133.5 -205.5h-81q-336 407 -336 984z" />
<glyph unicode=")" horiz-adv-x="562" d="M31 -478q163 216 249.5 449t86.5 545q0 308 -86 543.5t-250 446.5h83q55 -73 98.5 -141.5t90 -164.5t77 -194.5t50 -226t19.5 -265.5q0 -139 -20 -266.5t-50 -225t-76.5 -193.5t-89.5 -163.5t-99 -143.5h-83z" />
<glyph unicode="*" horiz-adv-x="1139" d="M162 1097q0 52 58 46l292 -29l4 12l-214 178q-35 23 -35 53q0 19 13.5 30.5t31.5 11.5q10 0 18 -4t11 -6t12 -12t10 -11l178 -214l13 3l-33 291q0 60 49 60q54 0 46 -58l-29 -293l12 -3l178 214q3 3 8.5 9t9 9t8.5 7t11 6t13 2q20 0 33.5 -13t13.5 -33q0 -7 -2 -13 t-6.5 -11.5t-7.5 -8.5t-10 -9t-9 -7l-214 -178l4 -12l290 29q34 3 47 -11.5t13 -34.5q0 -27 -21 -39t-52 -8l-277 31l-4 -13l214 -178q3 -3 12 -10.5t12 -11t7 -11.5t4 -18q0 -17 -12.5 -31t-29.5 -14q-30 0 -55 33l-178 216l-12 -4l29 -296q5 -30 -10 -43t-36 -13 q-49 0 -49 60l33 292l-13 4l-178 -216q-26 -33 -54 -33q-17 0 -29.5 13t-12.5 29q0 26 35 54l214 178l-4 13q-264 -33 -294 -33q-56 0 -56 49zM514 1095q0 -23 15.5 -38.5t37.5 -15.5q23 0 40.5 15.5t17.5 38.5q0 22 -18 39.5t-40 17.5q-21 0 -37 -17.5t-16 -39.5z" />
<glyph unicode="+" horiz-adv-x="1243" d="M84 516v83h492v513h92v-513h493v-83h-493v-516h-92v516h-492z" />
<glyph unicode="," horiz-adv-x="390" d="M84 -318q73 90 104.5 151t31.5 116q0 32 -6 51q-2 -2 -16 -2h-11q-36 0 -62.5 22t-26.5 58q0 45 29.5 70t66.5 25q109 0 109 -144q0 -99 -49 -198.5t-138 -181.5z" />
<glyph unicode="-" horiz-adv-x="755" d="M102 474v80h552v-80h-552z" />
<glyph unicode="." horiz-adv-x="377" d="M93 98q0 38 26.5 66.5t67.5 28.5q40 0 67.5 -27.5t27.5 -67.5q0 -43 -28 -70.5t-67 -27.5q-38 0 -66 29t-28 69z" />
<glyph unicode="/" horiz-adv-x="541" d="M2 0l434 1390h107l-441 -1390h-100z" />
<glyph unicode="0" horiz-adv-x="1127" d="M84 674q0 148 28 268.5t74.5 200.5t109 134t129.5 78t138 24q72 0 139 -24t130 -78t109.5 -134t74.5 -200.5t28 -268.5t-28 -268t-74.5 -199.5t-109.5 -134t-130 -78t-139 -23.5q-71 0 -138 23.5t-129.5 78t-109 134t-74.5 199.5t-28 268zM200 674q0 -127 21.5 -231 t56.5 -172.5t82.5 -115.5t98 -67.5t104.5 -20.5t105 20.5t98.5 67.5t83 115.5t57 172.5t21.5 231t-21.5 231.5t-57 173t-83 115.5t-98.5 67.5t-105 20.5t-104.5 -20.5t-98 -67.5t-82.5 -115.5t-56.5 -173t-21.5 -231.5z" />
<glyph unicode="1" horiz-adv-x="1127" d="M276 0v51l85 18q38 8 65 23t41 30.5t22 39t10 42t2 45.5v783q0 57 -31 75.5t-89 18.5h-105v49l62 8q72 7 116.5 40.5t63.5 68.5q6 12 17 40t21.5 37.5t30.5 9.5q18 0 29 -8.5t11 -22.5v-1099q0 -27 2 -45.5t10 -42t22 -39t41 -30.5t65 -23l85 -18v-51h-576z" />
<glyph unicode="2" horiz-adv-x="1127" d="M114 0v40l633 627q147 142 147 314q0 37 -7.5 74.5t-29.5 79.5t-56 73.5t-92.5 52.5t-132.5 21q-40 0 -77.5 -6t-79.5 -24.5t-76 -48t-63 -79.5t-44 -116q-1 -4 -3.5 -16t-4 -18t-5.5 -16.5t-8.5 -15.5t-12 -9.5t-17.5 -4.5q-16 0 -28.5 11.5t-12.5 41.5q0 141 90 251 q121 147 349 147q189 0 309 -104.5t120 -293.5q0 -201 -180 -382l-487 -486h391q36 0 67 13t55 37.5t34 37.5t25 35l29 51h68l-111 -287h-789z" />
<glyph unicode="3" horiz-adv-x="1127" d="M122 274q0 41 20 63.5t51 22.5q8 0 16 -1.5t14 -3.5t12 -6.5l10 -7.5t9 -9t7 -9t5.5 -10l4.5 -9l4 -8l3 -7q2 -8 8 -29.5t9.5 -30t10.5 -25t17 -29t24 -26.5q36 -38 97 -60t125 -22q81 0 151.5 36t118 113t47.5 180q0 55 -15 106t-48 99t-96 77.5t-148 29.5h-47v84h47 q102 0 168.5 71.5t66.5 182.5q0 108 -67 172t-188 64q-195 0 -294 -156q-10 -16 -18.5 -33t-13 -27.5t-11.5 -29t-9 -24.5q-4 -13 -10 -19.5t-20 -6.5q-30 0 -30 48q0 51 32 119q51 106 151 166t236 60q173 0 266.5 -93.5t93.5 -235.5q0 -87 -43.5 -162.5t-127.5 -122.5 q113 -32 177.5 -125t64.5 -228q0 -202 -127.5 -321.5t-328.5 -119.5q-223 0 -354 154q-71 78 -71 149z" />
<glyph unicode="4" horiz-adv-x="1127" d="M74 391v67l609 921h142v-883h229v-105h-229v-204q0 -21 3 -35.5t14.5 -33.5t40 -33t72.5 -23l68 -11v-51h-513v51l69 11q44 9 72.5 23t39.5 33t14 33t3 36v204h-634zM225 496h483v736z" />
<glyph unicode="5" horiz-adv-x="1127" d="M84 247q0 34 19.5 60.5t52.5 26.5q51 0 77 -29q11 -14 22 -50t25 -62q33 -61 101.5 -93.5t152.5 -32.5q159 0 257.5 102.5t98.5 259.5q0 76 -21.5 141t-66 119t-121.5 85t-178 31q-139 0 -278 -53v598h552q33 0 58.5 11t34.5 20t24 27l41 49l50 -47l-117 -173h-537v-360 q82 24 176 24q125 0 222 -35.5t156.5 -99t90 -147t30.5 -183.5q0 -97 -28 -176.5t-75 -132t-110.5 -88.5t-131.5 -52t-140 -16q-201 0 -328 96q-56 42 -82.5 92t-26.5 88z" />
<glyph unicode="6" horiz-adv-x="1127" d="M124 447q0 114 33 236t97 242t171 228.5t243 181.5q84 44 117 44q38 0 38 -33q0 -12 -5 -21.5t-17.5 -18.5t-20 -13t-26.5 -14q-62 -34 -112.5 -70.5t-114 -96t-119.5 -145t-99 -191.5l3 -4q100 96 269 96q80 0 155.5 -29.5t135.5 -84.5t96.5 -141.5t36.5 -192.5 q0 -196 -121.5 -322.5t-320.5 -126.5q-108 0 -193.5 39t-138 106t-80 151.5t-27.5 179.5zM240 420q0 -153 90.5 -253t232.5 -100q144 0 234.5 100t90.5 253t-90.5 252.5t-234.5 99.5q-142 0 -232.5 -99.5t-90.5 -252.5z" />
<glyph unicode="7" horiz-adv-x="1127" d="M116 1103q0 5 2 10.5t6.5 14.5t6.5 15l125 277h51q27 -70 120 -70h585v-13l-487 -1099q-25 -55 -25 -93q0 -54 83 -80l53 -18v-47h-384q40 42 93 145l492 1092h-359q-120 0 -226 -84q-5 -5 -25.5 -22.5t-30 -24.5t-25 -15t-27.5 -8q-15 0 -21.5 6.5t-6.5 13.5z" />
<glyph unicode="8" horiz-adv-x="1127" d="M125 374q0 124 68 226.5t194 142.5q-53 20 -92.5 54t-58 66t-29.5 70.5t-12.5 57.5t-1.5 37q0 154 101 252.5t269 98.5q169 0 270.5 -98.5t101.5 -252.5q0 -18 -1.5 -37t-12.5 -57.5t-29.5 -70.5t-58 -66t-92.5 -54q126 -40 194 -142.5t68 -226.5q0 -80 -26 -150.5 t-77.5 -128t-138 -91t-198.5 -33.5q-111 0 -197 33.5t-137.5 91t-77.5 128t-26 150.5zM242 372q0 -138 88 -221.5t233 -83.5q146 0 234.5 83.5t88.5 221.5q0 136 -89 228t-234 92q-144 0 -232.5 -92.5t-88.5 -227.5zM309 1035q0 -118 74.5 -182.5t179.5 -64.5t180.5 65.5 t75.5 181.5q0 102 -66 174.5t-190 72.5q-123 0 -188.5 -72.5t-65.5 -174.5z" />
<glyph unicode="9" horiz-adv-x="1127" d="M124 930q0 196 120.5 322.5t318.5 126.5q109 0 195 -39t139 -106t80.5 -151.5t27.5 -179.5q0 -115 -33 -237t-97.5 -241.5t-171.5 -228t-243 -181.5q-84 -44 -117 -44q-38 0 -38 33q0 12 5 21.5t17.5 18.5t20 13t26.5 14q60 33 112 70t115 96t119 145t99 192l-5 2 q-105 -96 -267 -96q-80 0 -155 30t-135.5 85t-96.5 142t-36 193zM240 930q0 -153 90.5 -253.5t232.5 -100.5q144 0 234.5 100t90.5 254q0 153 -90.5 252.5t-234.5 99.5q-142 0 -232.5 -99.5t-90.5 -252.5z" />
<glyph unicode=":" horiz-adv-x="539" d="M176 98q0 40 27 67.5t68 27.5q40 0 67 -27.5t27 -67.5q0 -41 -27.5 -68.5t-66.5 -27.5t-67 28t-28 68zM176 698q0 39 27 66.5t68 27.5q40 0 67 -27t27 -67q0 -41 -28 -69t-66 -28t-66.5 28.5t-28.5 68.5z" />
<glyph unicode=";" horiz-adv-x="511" d="M145 -320q74 86 105.5 148t31.5 121q0 17 -4 49q-2 -2 -16 -2h-11q-38 0 -63.5 21t-25.5 57q0 49 28 74t66 25q109 0 109 -146q0 -99 -49 -198.5t-136 -180.5zM162 694q-4 37 24 65.5t70 28.5q40 0 67.5 -27t27.5 -67q0 -41 -28 -68.5t-67 -27.5q-38 0 -66 28t-28 68z " />
<glyph unicode="&#x3c;" horiz-adv-x="1032" d="M136 441v88l812 312v-56l-768 -300l768 -302v-56z" />
<glyph unicode="=" horiz-adv-x="1032" d="M140 434v55h808v-55h-808zM140 817v57h808v-57h-808z" />
<glyph unicode="&#x3e;" horiz-adv-x="1032" d="M136 125v58l778 307l-778 293v56l825 -310v-73z" />
<glyph unicode="?" horiz-adv-x="844" d="M104 1141q0 143 102 231t244 88q170 0 258.5 -107t88.5 -289q0 -43 -11.5 -83.5t-26 -70t-49 -72.5t-57 -67.5t-74.5 -78.5q-57 -58 -82 -93.5t-25 -73.5q0 -11 2 -13v-152h-89v152q0 61 38 118.5t115 134.5q87 78 128.5 148.5t41.5 150.5q0 318 -258 318 q-99 0 -176.5 -69t-77.5 -172q0 -43 14 -86t47 -76t77 -33q57 0 83 29t26 102q0 38 -9 87h42q29 -70 29 -125q0 -80 -43 -123.5t-128 -43.5q-103 0 -166.5 80.5t-63.5 188.5zM340 100q0 37 25 61t64 24q36 0 56 -23.5t20 -61.5q0 -34 -20 -57t-56 -23q-39 0 -64 23t-25 57z " />
<glyph unicode="@" horiz-adv-x="1599" d="M80 670q0 157 54 298.5t152 250.5t248 173.5t331 64.5q196 0 346.5 -86.5t229.5 -232.5t79 -326q0 -105 -32 -192.5t-84 -143.5t-117.5 -87t-133.5 -31q-62 0 -108 45.5t-46 135.5v28h-9q-64 -104 -144 -156.5t-196 -52.5q-94 0 -166 76.5t-72 192.5q0 136 70 249 t187 177t254 64q119 0 241 -45l-72 -349q-17 -87 -17 -140q0 -137 97 -145h7q93 0 168 101.5t75 259.5q0 168 -67 299t-198.5 207t-308.5 76q-139 0 -261.5 -50t-213 -139t-143 -221t-52.5 -288q0 -131 45 -244t122.5 -190.5t183.5 -122t225 -44.5q219 0 349 85l34 -78 q-170 -89 -389 -89q-134 0 -256.5 49.5t-213 136.5t-144.5 213t-54 271zM505 625q0 -79 47 -134t136 -55q78 0 151 58.5t116.5 134.5t59.5 148l48 235q-81 27 -153 27q-164 0 -284.5 -119.5t-120.5 -294.5z" />
<glyph unicode="A" horiz-adv-x="1251" d="M5 0l558 1462h125l560 -1462h-111l-180 474h-661l-180 -474h-111zM329 561h596l-298 818z" />
<glyph unicode="B" horiz-adv-x="1406" d="M193 0v1462h574q101 0 178 -22t123 -57t75 -84.5t39.5 -97.5t10.5 -102q0 -74 -22.5 -134t-60 -98t-78.5 -61t-86 -34v-4q135 -14 223 -112.5t88 -250.5q0 -63 -13.5 -118.5t-48.5 -109.5t-90.5 -92t-145.5 -61.5t-207 -23.5h-559zM292 87h462q399 0 399 318 q0 88 -29 150t-85 96.5t-126.5 49.5t-165.5 15h-455v-629zM292 805h451q84 0 148 18.5t101 48t60.5 70.5t31.5 79.5t8 82.5q0 54 -15.5 98t-38 71.5t-56 48t-62 30.5t-63.5 15.5t-53 6.5t-37 1h-475v-570z" />
<glyph unicode="C" horiz-adv-x="1497" d="M138 707q0 243 71.5 420t221.5 278t368 101q128 0 229.5 -30.5t163.5 -78t104.5 -111.5t59.5 -123.5t20 -121.5h-104q-3 74 -33.5 140t-86.5 120t-147 86t-206 32q-265 0 -411 -190t-146 -519q0 -196 65 -346t191.5 -235t297.5 -85q98 0 180 26.5t136 68.5t93.5 98 t59 112t25.5 114h103q-5 -45 -16.5 -90.5t-34 -96.5t-54 -96t-79.5 -86.5t-106 -71.5t-137.5 -48t-171.5 -18q-99 0 -183.5 21.5t-146 57t-112.5 86t-84 103t-58 114t-38 113.5t-21.5 106t-10.5 87.5t-2 62.5z" />
<glyph unicode="D" horiz-adv-x="1463" d="M193 0v1462h477q467 0 618 -355q65 -154 65 -371q0 -131 -22 -237.5t-59.5 -182t-95 -132.5t-121.5 -91.5t-147 -55.5t-162.5 -29t-176.5 -8h-376zM292 87h309q52 0 94 2t97 10t98.5 21t92.5 37.5t86 57t72.5 81.5t58.5 110t36.5 143.5t13.5 180.5q0 119 -22 216.5 t-57.5 163t-86.5 115t-101.5 77.5t-109 45t-104 22.5t-91.5 5.5h-386v-1288z" />
<glyph unicode="E" horiz-adv-x="1235" d="M193 0v1462h968v-87h-869v-570h800v-89h-800v-629h894v-87h-993z" />
<glyph unicode="F" horiz-adv-x="1141" d="M193 0v1462h908v-87h-809v-579h722v-88h-722v-708h-99z" />
<glyph unicode="G" horiz-adv-x="1533" d="M111 736q0 179 41.5 320.5t125 245t217.5 158.5t312 55q101 0 186 -21t143.5 -57.5t102.5 -81.5t71 -98.5t41 -102t19 -97.5h-104q-9 74 -40 138.5t-85.5 117t-140 83t-193.5 30.5q-103 0 -188.5 -23t-145.5 -61t-106.5 -93t-75 -114.5t-46.5 -129.5t-24.5 -133 t-6.5 -131q0 -52 5 -106t21 -124.5t40.5 -133.5t68 -125t99.5 -106.5t139 -72.5t183 -28q91 0 167.5 22.5t130 59.5t95 88.5t67 105.5t41.5 114t22 110.5t6 99.5h-502v89h600v-734h-100v287h-4q-28 -67 -73 -124t-109.5 -104t-154 -74t-195.5 -27q-301 0 -475.5 211 t-174.5 567z" />
<glyph unicode="H" horiz-adv-x="1435" d="M193 0v1462h99v-643h852v643h100v-1462h-100v730h-852v-730h-99z" />
<glyph unicode="I" horiz-adv-x="484" d="M193 0v1462h99v-1462h-99z" />
<glyph unicode="J" horiz-adv-x="1029" d="M62 387v67h101v-62q1 -36 5 -70t23 -88t49.5 -92.5t90.5 -67.5t141 -29q50 0 88 8t78.5 35.5t66.5 74.5t43 129.5t17 196.5v973h100v-973q0 -51 -2 -90.5t-10.5 -97.5t-24 -102t-45 -91.5t-70.5 -78.5t-103.5 -51t-140.5 -20q-95 0 -169 28t-118 71t-72 102t-38 114 t-10 114z" />
<glyph unicode="K" horiz-adv-x="1305" d="M193 0v1462h99v-815l836 815h134l-612 -596l656 -866h-131l-599 799l-284 -278v-521h-99z" />
<glyph unicode="L" horiz-adv-x="1075" d="M193 0v1462h99v-1375h785v-87h-884z" />
<glyph unicode="M" horiz-adv-x="1763" d="M193 0v1462h152l536 -1331l538 1331h152v-1462h-100v1268l4 56h-4l-539 -1324h-100l-540 1324h-3l3 -56v-1268h-99z" />
<glyph unicode="N" horiz-adv-x="1487" d="M193 0v1462h125l877 -1322v1322h100v-1462h-123l-880 1322v-1322h-99z" />
<glyph unicode="O" horiz-adv-x="1624" d="M138 730q0 364 177.5 570t496.5 206q320 0 498 -206.5t178 -569.5q0 -362 -178 -568t-498 -206q-319 0 -496.5 206t-177.5 568zM242 730q0 -148 31.5 -266.5t85 -196t127.5 -128.5t154.5 -73t171.5 -22t171.5 22t154.5 73t127.5 128.5t85 196t31.5 266.5q0 149 -31.5 268 t-85 196.5t-127.5 129t-154.5 73.5t-171.5 22t-171.5 -22t-154.5 -73.5t-127.5 -129t-85 -196.5t-31.5 -268z" />
<glyph unicode="P" horiz-adv-x="1282" d="M193 0v1462h534q472 0 472 -398q0 -67 -14 -124t-36 -97.5t-56 -73t-66 -53t-74.5 -35.5t-74 -22t-72 -11t-60 -4.5t-45.5 -0.5h-409v-643h-99zM292 730h409q394 0 394 333q0 312 -394 312h-409v-645z" />
<glyph unicode="Q" horiz-adv-x="1624" d="M138 730q0 364 177.5 570t496.5 206q320 0 498 -206.5t178 -569.5q0 -406 -229 -617l198 -173l-60 -65l-207 181q-156 -100 -378 -100q-319 0 -496.5 206t-177.5 568zM242 730q0 -148 31.5 -266.5t85 -196t127.5 -128.5t154.5 -73t171.5 -22q179 0 303 80l-167 145l58 65 l180 -158q106 105 151 242t45 312q0 149 -31.5 268t-85 196.5t-127.5 129t-154.5 73.5t-171.5 22t-171.5 -22t-154.5 -73.5t-127.5 -129t-85 -196.5t-31.5 -268z" />
<glyph unicode="R" horiz-adv-x="1405" d="M193 0v1462h583q33 0 60 -1t66 -5t71 -11.5t70 -21t67.5 -32.5t58 -47.5t47 -64t30 -84t11.5 -105.5q0 -140 -68.5 -239t-189.5 -130v-5q46 -11 80.5 -31t56 -48.5t35 -54t21 -64.5t10 -62.5t4.5 -63.5q3 -45 6 -107.5t4.5 -87t5 -60.5t9 -54t14.5 -39.5t23 -43.5h-115 q-11 21 -18 42t-11.5 39t-7.5 53t-4.5 60t-4.5 87t-6 110q-2 37 -4.5 58.5t-10.5 55.5t-19.5 54.5t-33 44.5t-51 37.5t-74 23t-100.5 9.5h-516v-674h-99zM292 763h525q27 0 54.5 3t61.5 12t64 23.5t59 40t50 58t34 80.5t13 106t-15 104.5t-38 76t-58.5 51.5t-66 32.5 t-73 16.5t-67.5 7t-59 1h-484v-612z" />
<glyph unicode="S" horiz-adv-x="1323" d="M111 458h103v-8q0 -54 12 -104q14 -54 48.5 -108.5t86.5 -94t135 -64.5t187 -25q111 0 194 27t126 64t69 87.5t32 86.5t6 72q0 61 -23 110t-56 79.5t-84.5 55t-92.5 36.5t-97 24q-64 14 -185 38q-50 10 -82 17t-82.5 23t-83.5 32.5t-71.5 45t-61 62t-38 81t-15.5 104.5 q0 47 10 91.5t32 92t62.5 87.5t96.5 72t139.5 50t186.5 18q109 0 196.5 -27t142 -68.5t92.5 -98.5t54.5 -110.5t21.5 -110.5h-104q-3 37 -12.5 72.5t-37.5 84t-69.5 84t-117 61t-173.5 25.5q-194 0 -305 -86t-111 -226q0 -40 7 -72.5t24 -58t35 -45t51 -36t60 -27.5 t73.5 -22.5t80 -18.5t90.5 -18q10 -2 31 -5q188 -32 285 -76q234 -104 234 -342q0 -56 -10.5 -107t-44.5 -111t-90 -103t-155.5 -72t-231.5 -29q-131 0 -234 31t-165 80t-102 115.5t-55 130.5q-14 60 -14 125v9z" />
<glyph unicode="T" horiz-adv-x="1118" d="M13 1375v87h1093v-87h-496v-1375h-100v1375h-497z" />
<glyph unicode="U" horiz-adv-x="1410" d="M165 572v890h100v-888q0 -60 4 -110t16 -104.5t32 -97t54 -82t79 -65.5t110.5 -41.5t146.5 -15.5q111 0 192.5 29.5t128 75.5t74 117t36 138.5t8.5 155.5v888h102v-890q0 -63 -4 -114.5t-17.5 -116t-36.5 -114.5t-64 -99.5t-96.5 -82.5t-138 -53.5t-184.5 -20.5 q-105 0 -189 20.5t-140 52t-97 82t-62.5 99t-34.5 114.5t-16 116.5t-3 116.5z" />
<glyph unicode="V" horiz-adv-x="1194" d="M9 1462h113l476 -1362l476 1362h112l-521 -1462h-135z" />
<glyph unicode="W" horiz-adv-x="1766" d="M13 1462h112l333 -1331l365 1331h125l362 -1331l332 1331h113l-378 -1462h-129l-362 1342l-366 -1342h-129z" />
<glyph unicode="X" horiz-adv-x="1130" d="M9 0l489 748l-478 714h122l425 -637l423 637h122l-476 -714l488 -748h-130l-427 668l-429 -668h-129z" />
<glyph unicode="Y" horiz-adv-x="1210" d="M9 1462h122l474 -725l476 725h122l-547 -817v-645h-100v645z" />
<glyph unicode="Z" horiz-adv-x="1182" d="M54 0v100l931 1275h-878v87h983v-92l-925 -1283h963v-87h-1074z" />
<glyph unicode="[" horiz-adv-x="562" d="M187 -489v1919h387v-60h-312v-1802h312v-57h-387z" />
<glyph unicode="\" horiz-adv-x="541" d="M2 1390h107l434 -1390h-100z" />
<glyph unicode="]" horiz-adv-x="562" d="M-11 -432h314v1802h-314v60h387v-1919h-387v57z" />
<glyph unicode="^" horiz-adv-x="1243" d="M145 434l429 948h96l429 -948h-98l-376 856h-4l-376 -856h-100z" />
<glyph unicode="_" horiz-adv-x="1043" d="M0 -131h1044v-105h-1044v105z" />
<glyph unicode="`" horiz-adv-x="625" d="M60 1471h154l191 -292h-80z" />
<glyph unicode="a" horiz-adv-x="1121" d="M96 280q0 80 33.5 139.5t70.5 89.5t111 51.5t106 26t104 10.5q4 1 6 1t5 0.5t6 0.5q16 2 56 6.5t62 6.5q104 11 130 23q38 17 46 73q4 28 4 75q0 58 -16.5 102.5t-46 70t-58.5 42t-66.5 23t-56.5 8t-40 1.5q-76 0 -133.5 -17t-90.5 -42.5t-54 -62t-28 -70t-8 -71.5h-93 q1 46 11 87.5t37.5 89t70 81t117 56t171.5 22.5t169 -22.5t111 -55.5t62 -81t29 -88q5 -34 5 -73v-13l-11 -579q0 -126 82 -126q21 0 40 6v-71q-44 -11 -69 -11q-45 0 -76 17.5t-45.5 47.5t-20.5 62q-4 23 -4 50q0 10 1 19q-44 -88 -136 -149t-242 -61q-52 0 -98.5 8 t-94 29.5t-81.5 55t-55.5 88t-21.5 124.5zM193 280q0 -105 69.5 -169t186.5 -64q53 0 103.5 12.5t100.5 42.5t87 75.5t60.5 117t24.5 161.5l2 131q-18 -14 -36 -22.5t-47.5 -14t-51 -8t-75 -8t-90.5 -9.5q-72 -9 -121 -19t-92.5 -28t-68 -43.5t-38.5 -64t-14 -90.5z" />
<glyph unicode="b" horiz-adv-x="1189" d="M165 0v1462h91v-579q45 97 139.5 158.5t229.5 61.5q97 0 175 -30.5t130 -83t86.5 -124.5t49.5 -151.5t15 -168.5q0 -93 -15 -176t-50 -159t-87 -131.5t-131 -88t-177 -32.5q-262 0 -359 211h-6v-169h-91zM252 525q0 -129 32.5 -228t87 -155t118.5 -83.5t135 -27.5 q49 0 93.5 11t95 45t87 88.5t60.5 150t24 221.5q0 220 -93 351.5t-263 131.5q-176 0 -276.5 -136t-100.5 -369z" />
<glyph unicode="c" horiz-adv-x="1100" d="M111 547q0 118 27 215.5t83 175.5t151 121.5t222 43.5q87 0 157.5 -22.5t114.5 -57.5t75 -82t45 -92t19 -92h-89q-16 117 -98.5 195t-223.5 78q-183 0 -285 -127.5t-102 -348.5q0 -120 24 -213.5t62 -150.5t90.5 -94t103.5 -51t107 -14t103.5 14.5t80 36.5t58.5 53.5 t41.5 61t27 64t16 57t7.5 45.5h89q-47 -405 -423 -405q-122 0 -215.5 44t-151.5 124t-87 186t-29 235z" />
<glyph unicode="d" horiz-adv-x="1186" d="M111 545q0 144 36 254t99 175t142 97t173 32q123 0 221.5 -57t147.5 -163v579h91v-1462h-91v169h-5q-7 -19 -18 -39t-39.5 -53t-65 -57.5t-99 -43t-136.5 -18.5q-71 0 -131 16.5t-103.5 43.5t-78.5 66.5t-57.5 79.5t-39.5 88.5t-25.5 88t-13.5 84t-6 69.5t-1 51zM207 547 q0 -102 16 -184t40 -134.5t59 -91.5t66.5 -58.5t68.5 -31t59 -14t45 -2.5q71 0 135 27.5t118.5 83.5t87 155t32.5 228q0 233 -100 369t-276 136q-76 0 -137 -29t-100.5 -76t-65.5 -111t-37 -130t-11 -137z" />
<glyph unicode="e" horiz-adv-x="1164" d="M111 545q0 23 1 45t6 64.5t13.5 79.5t26.5 84t41.5 85t61.5 76.5t84.5 64.5t111.5 42.5t142 16.5q41 0 77 -4t84.5 -18t88 -38t79.5 -68.5t68 -104.5q28 -59 44 -149q16 -85 15 -188v-13h-848q1 -62 10 -122t36 -128.5t68.5 -119.5t114.5 -85t167 -34q146 0 235.5 78 t111.5 198h93q-8 -45 -25 -88.5t-51.5 -92.5t-81.5 -85t-121 -59.5t-165 -23.5q-23 0 -40.5 0.5t-56 6t-69 15.5t-73 30.5t-75 49t-67 73.5t-56.5 101.5t-36.5 136.5t-14.5 174zM207 594h750q0 54 -8 106.5t-32 114.5t-62 107.5t-105.5 76.5t-155.5 31q-90 0 -160.5 -31 t-111.5 -77.5t-67.5 -108t-36.5 -114t-11 -105.5z" />
<glyph unicode="f" horiz-adv-x="536" d="M13 988v73h196v160q0 73 17 123.5t48.5 76t68 35.5t84.5 10q31 0 98 -4v-72q-90 3 -98 3q-125 0 -125 -167v-165h223v-73h-223v-988h-93v988h-196z" />
<glyph unicode="g" horiz-adv-x="1180" d="M111 543q0 266 116.5 413t321.5 147q148 0 239 -60.5t131 -152.5h4v171h92v-981q0 -43 -1.5 -73t-10.5 -84.5t-25 -94t-49 -86t-79 -76t-118 -49.5t-163 -20q-344 0 -406 261h104q22 -83 98.5 -136t210.5 -53q22 0 44.5 2t59 11.5t67 24.5t64.5 45.5t57.5 71t39 103.5 t15.5 140v126q-40 -100 -133.5 -154.5t-215.5 -54.5q-92 0 -167 27t-122 67.5t-82 98.5t-52 108t-27 109t-11.5 89.5t-1.5 59.5zM207 545q0 -112 23 -199t60 -140.5t88 -88.5t101.5 -48t105.5 -13q53 0 99 12t92 44.5t78.5 84t53 137t20.5 196.5q0 244 -94.5 372t-275.5 128 q-69 0 -125 -22t-91.5 -54.5t-62.5 -80.5t-40 -91t-21 -94t-9.5 -81t-1.5 -62z" />
<glyph unicode="h" horiz-adv-x="1127" d="M165 0v1462h91v-561q38 66 93.5 111t113 62.5t93 23t67.5 5.5q340 0 340 -373v-730h-91v674q0 40 -0.5 62.5t-5.5 65t-14 69t-27.5 60t-45 53t-67.5 33t-94 13.5q-68 0 -129.5 -22.5t-115 -69.5t-85.5 -130.5t-32 -193.5v-614h-91z" />
<glyph unicode="i" horiz-adv-x="420" d="M158 1310v152h105v-152h-105zM165 0v1061h91v-1061h-91z" />
<glyph unicode="j" horiz-adv-x="420" d="M-15 -309q11 -2 30 -2q38 0 61.5 6t46 24.5t32.5 58t10 102.5v1181h91v-1192q0 -135 -45 -197.5t-160 -62.5q-34 0 -66 4v78zM158 1310v152h105v-152h-105z" />
<glyph unicode="k" horiz-adv-x="1000" d="M165 0v1462h91v-961l594 560h115l-424 -403l460 -658h-107l-420 598l-218 -209v-389h-91z" />
<glyph unicode="l" horiz-adv-x="420" d="M165 0v1462h91v-1462h-91z" />
<glyph unicode="m" horiz-adv-x="1720" d="M165 0v1061h91v-155q18 36 43.5 67.5t64.5 62.5t96 49t125 18q111 0 193 -56.5t105 -156.5q19 39 46 72.5t68.5 67.5t103.5 53.5t136 19.5q320 0 320 -393v-710h-93v699q0 23 -0.5 40t-5 54t-12.5 65t-25 62.5t-40.5 56.5t-61 37.5t-84.5 15.5q-46 0 -90 -11t-88 -38 t-77 -67.5t-53.5 -105t-20.5 -145.5v-663h-92v699q0 20 -0.5 36.5t-5 53t-12.5 65t-25.5 63.5t-41.5 58t-62 39t-86 16q-135 0 -230 -109.5t-95 -273.5v-647h-91z" />
<glyph unicode="n" horiz-adv-x="1127" d="M165 0v1061h91v-160q38 66 93.5 111t113 62.5t93 23t67.5 5.5q340 0 340 -373v-730h-91v674q0 40 -0.5 62.5t-5.5 65t-14 69t-27.5 60t-45 53t-67.5 33t-94 13.5q-68 0 -129.5 -22.5t-115 -69.5t-85.5 -130.5t-32 -193.5v-614h-91z" />
<glyph unicode="o" horiz-adv-x="1198" d="M111 530q0 97 17 181t54.5 157t93.5 124.5t138.5 81t184.5 29.5q127 0 223 -44.5t153 -124t85 -181t28 -223.5t-28 -223.5t-85 -180.5t-153 -123.5t-223 -44.5t-223 44.5t-152.5 124t-84.5 180.5t-28 223zM207 530q0 -233 99 -366t293 -133t293.5 133t99.5 366 t-99.5 366.5t-293.5 133.5t-293 -133.5t-99 -366.5z" />
<glyph unicode="p" horiz-adv-x="1189" d="M165 -387v1448h91v-169h6q48 105 146 158t217 53q97 0 174.5 -30t129.5 -81.5t87 -123.5t50 -152t15 -171t-15 -174t-50 -159.5t-87 -132t-131 -88.5t-177 -33q-259 0 -365 220v-565h-91zM252 525q0 -129 32.5 -228t87 -155t118.5 -83.5t135 -27.5q49 0 93.5 11t95 45 t87 88.5t60.5 150t24 221.5q0 220 -93 351.5t-263 131.5q-176 0 -276.5 -136t-100.5 -369z" />
<glyph unicode="q" horiz-adv-x="1189" d="M165 545q0 90 16 171t51.5 152.5t87.5 123t129 81.5t172 30q118 0 217 -53t147 -158h3v169h93v-1448h-93v565q-45 -97 -139 -158.5t-228 -61.5q-92 0 -166.5 29.5t-120.5 73t-80.5 105.5t-50.5 115t-25.5 115.5t-11 91.5t-1.5 57zM262 547q0 -126 24 -221.5t60 -150 t86.5 -88.5t95 -45t93.5 -11q70 0 133.5 27.5t118 83.5t87 155t32.5 228q0 233 -100 369t-276 136q-168 0 -261 -131.5t-93 -351.5z" />
<glyph unicode="r" horiz-adv-x="664" d="M165 0v1061h91v-220h6q38 104 133.5 173t220.5 69h49v-95h-47q-33 -1 -62.5 -5t-67.5 -17t-69 -33t-62.5 -57t-52.5 -85.5t-34.5 -121.5t-13.5 -162v-507h-91z" />
<glyph unicode="s" horiz-adv-x="979" d="M84 303h94q0 -114 84 -193t238 -79q85 0 147 22.5t94.5 60t47 76.5t14.5 81t-14.5 74.5t-34.5 53t-58 38.5t-68 27.5t-81 22.5q-16 5 -35.5 9.5t-43 9.5t-36.5 8q-78 18 -129.5 38.5t-97.5 54t-68.5 86.5t-22.5 126q0 28 5 57.5t27 72.5t58.5 75t107.5 55.5t166 23.5 q92 0 163 -22t111 -54.5t66.5 -77.5t36 -82t11.5 -77h-94q-1 31 -8.5 60.5t-28 63t-51 58.5t-82.5 41.5t-119 16.5q-140 0 -206 -61t-66 -155q0 -46 14 -79.5t35.5 -55t61.5 -38.5t78 -27.5t99 -24.5q23 -5 35 -8q54 -13 87 -22t76 -24t68.5 -29.5t53.5 -36.5t43 -48t25 -61 t10 -78q0 -147 -101 -235.5t-309 -88.5q-101 0 -180 28.5t-126.5 77.5t-72 109.5t-24.5 129.5z" />
<glyph unicode="t" horiz-adv-x="571" d="M13 988v73h210v318h93v-318h229v-73h-229v-794q0 -32 0.5 -47.5t5.5 -39t14 -34.5t27.5 -20t45.5 -9q68 0 136 29v-73q-77 -29 -149 -29q-47 0 -80 12.5t-51 30t-27.5 48.5t-12 56.5t-2.5 64.5v805h-210z" />
<glyph unicode="u" horiz-adv-x="1127" d="M165 331v730h91v-674q0 -40 0.5 -62.5t5.5 -65t14 -69t27.5 -60t45 -53t67.5 -33t94 -13.5q68 0 129.5 22.5t115 69.5t85.5 130.5t32 193.5v614h91v-1061h-91v156h-6q-51 -91 -146 -144.5t-215 -53.5q-340 0 -340 373z" />
<glyph unicode="v" horiz-adv-x="901" d="M0 1061h104l346 -963l347 963h106l-398 -1061h-109z" />
<glyph unicode="w" horiz-adv-x="1403" d="M13 1061h96l271 -950l267 950h109l267 -950l272 950h96l-307 -1061h-118l-265 952l-265 -952h-116z" />
<glyph unicode="x" horiz-adv-x="904" d="M0 0l394 554l-358 507h113l305 -440l303 440h111l-356 -507l394 -554h-118l-334 492l-334 -492h-120z" />
<glyph unicode="y" horiz-adv-x="933" d="M27 1061h111l367 -952l334 952h95l-447 -1232q-3 -7 -11 -29t-11.5 -31.5t-12.5 -29.5t-15 -30t-18 -27t-23 -25.5t-27 -20t-33.5 -17t-40 -9.5t-48.5 -4q-36 0 -82 7v78q35 -7 73 -7q33 0 56 6.5t39.5 17.5t31 37.5t25 53.5t28.5 79l40 120z" />
<glyph unicode="z" horiz-adv-x="917" d="M54 0v65l687 923h-641v73h736v-84l-665 -904h692v-73h-809z" />
<glyph unicode="{" horiz-adv-x="562" d="M45 589v76h13q54 0 90.5 13.5t54 38.5t24 51t6.5 59q0 61 -23 177t-23 177q0 140 86.5 209t231.5 69h27v-80h-40q-114 0 -162 -52t-48 -159q0 -53 20.5 -163t20.5 -168q0 -75 -36 -130t-96 -77v-3q58 -16 95 -77t37 -134q0 -55 -20.5 -165t-20.5 -167q0 -213 210 -213h40 v-80h-27q-145 0 -231.5 73t-86.5 229q0 58 23 169t23 165q0 162 -180 162h-8z" />
<glyph unicode="|" horiz-adv-x="87" d="M0 -650v2261h89v-2261h-89z" />
<glyph unicode="}" horiz-adv-x="562" d="M31 -129h40q211 0 211 213q0 57 -21 167t-21 165q0 74 37 134.5t97 76.5v3q-60 22 -97 77t-37 130q0 58 21 168t21 163q0 107 -47.5 159t-163.5 52h-40v80h27q145 0 231.5 -69t86.5 -209q0 -63 -22 -179.5t-22 -174.5q0 -34 6 -59t22.5 -50.5t53 -39t91.5 -13.5h13v-76 h-8q-178 0 -178 -162q0 -54 22 -165t22 -169q0 -156 -86.5 -229t-231.5 -73h-27v80z" />
<glyph unicode="~" horiz-adv-x="1243" d="M87 329v20q0 118 68.5 189t164.5 71q38 0 82 -11.5t82.5 -26.5t144.5 -59q84 -36 115 -49t89.5 -29t103.5 -16q140 0 140 187h80q0 -3 1 -12t1 -12q0 -128 -68 -192t-159 -64q-56 0 -124 19.5t-198 75.5q-14 6 -51.5 23.5t-52.5 24t-45.5 18.5t-49 16.5t-43.5 9t-48 4.5 q-151 0 -151 -187h-82z" />
<glyph unicode="&#xa4;" horiz-adv-x="1105" d="M98 71l135 132q-38 31 -63.5 105t-25.5 148q0 166 96 269l-142 134l65 64l135 -142q112 91 254 91h2q76 0 143 -25t110 -66l148 142l64 -62l-154 -136q37 -42 60 -110.5t23 -138.5q0 -85 -22.5 -156.5t-57.5 -106.5l144 -142l-66 -67l-139 149q-99 -93 -262 -93 q-72 0 -139 21.5t-112 58.5l-136 -136zM240 461q0 -69 20.5 -125.5t52 -92t73 -59.5t80.5 -34t77 -10q56 0 107 16.5t98.5 52.5t75.5 104t28 161q0 53 -18 106t-53.5 100.5t-97 77.5t-138.5 30h-2q-141 0 -222 -98.5t-81 -228.5z" />
<glyph unicode="&#xa6;" horiz-adv-x="459" d="M205 311h77v-863h-77v863zM205 636v863h77v-863h-77z" />
<glyph unicode="&#xa7;" horiz-adv-x="895" d="M73 599q0 79 21 140t58 98.5t70.5 58t75.5 36.5q-68 46 -94 101t-26 139q0 72 23.5 125t63 80.5t82 40t89.5 12.5q116 0 184 -77.5t68 -249.5v-11h-67q0 142 -47.5 196t-139.5 54q-15 0 -30 -1.5t-44.5 -11.5t-50.5 -27t-38 -54t-17 -87q0 -21 3 -38.5t6 -31.5 t13.5 -28.5t17 -24t25 -23t29 -21t37.5 -22t42.5 -22.5t52.5 -26.5t58 -29.5q66 -34 110.5 -65.5t82 -75t56 -100t18.5 -128.5q0 -255 -220 -347q116 -68 116 -229q0 -78 -27 -140t-88 -101.5t-148 -39.5q-66 0 -117 22t-80 56.5t-47.5 83t-24.5 93t-6 95.5h73 q0 -29 3.5 -58.5t16 -68.5t33 -68t59.5 -49.5t90 -20.5q79 0 133 47.5t54 143.5q0 37 -10 66.5t-23 48.5t-41 38.5t-49 30.5t-63 31.5t-68 34.5q-154 75 -226 168t-72 237zM154 603q0 -57 12 -100t34 -77t67.5 -67.5t96.5 -62t137 -69.5q59 19 102 50.5t65 62t35 68.5 t15.5 61.5t2.5 48.5q0 56 -13.5 98t-36 74t-70.5 64.5t-97.5 58t-136.5 64.5q-38 -6 -73.5 -23.5t-68 -48.5t-52 -83t-19.5 -119z" />
<glyph unicode="&#xa9;" horiz-adv-x="1670" d="M104 776q0 196 97 364t265.5 267t369.5 99q148 0 283 -57.5t233 -155t156 -233t58 -284.5t-58 -284.5t-156 -233.5t-233 -156t-283 -58q-201 0 -369.5 99t-265.5 267t-97 366zM187 776q0 -183 85.5 -337t235 -243t328.5 -89q130 0 249 52.5t206 142t139 213.5t52 261 q0 136 -52.5 260.5t-140 213.5t-206.5 141.5t-247 52.5q-177 0 -326.5 -89.5t-236 -243t-86.5 -335.5zM498 777q0 185 85.5 289t252.5 104q122 0 207.5 -65t89.5 -175h-90q-3 60 -51 114q-47 53 -156 53q-49 0 -88 -14.5t-63.5 -36t-42.5 -53.5t-27 -59.5t-14 -62.5 t-6 -53.5t-1 -40.5q0 -82 22 -142.5t50.5 -89.5t68.5 -46t63 -20t48 -3q47 0 84 15t58 35.5t36 49.5t20.5 48.5t9.5 40.5h90q-53 -262 -299 -262q-163 0 -255 97.5t-92 276.5z" />
<glyph unicode="&#xab;" horiz-adv-x="1018" d="M145 387l296 381h75l-242 -381l242 -383h-78zM525 387q98 127 292 381h77l-242 -381l242 -383h-80z" />
<glyph unicode="&#xac;" horiz-adv-x="1243" d="M84 569v83h1077v-530h-91v447h-986z" />
<glyph unicode="&#xad;" horiz-adv-x="751" d="M45 434v87h698v-87h-698z" />
<glyph unicode="&#xae;" horiz-adv-x="1670" d="M104 779q0 148 58.5 283t156.5 233t233.5 156.5t283.5 58.5q200 0 368 -98.5t265 -266.5t97 -366q0 -200 -97 -368.5t-265 -267t-368 -98.5q-148 0 -283 58t-233.5 156.5t-157 234.5t-58.5 285zM187 779q0 -182 87 -336.5t236.5 -244t325.5 -89.5q134 0 254 52.5 t205.5 142t136 213.5t50.5 262q0 136 -50.5 259.5t-136 213t-205.5 142t-254 52.5q-129 0 -249 -53t-207.5 -142t-140 -212.5t-52.5 -259.5zM569 420v728h314q249 0 249 -211q0 -73 -37 -114.5t-87 -59.5v-6q32 -7 53.5 -23t32 -41t14.5 -46t6 -53q1 -15 2 -41.5t1.5 -35.5 t1.5 -26t2.5 -23.5t4.5 -17t7 -17t10 -13.5h-99q-17 21 -22 50t-5 115q-5 63 -19 86q-31 52 -142 52h-197v-303h-90zM659 794h202q73 0 123.5 37t50.5 106q0 140 -189 140h-187v-283z" />
<glyph unicode="&#xaf;" horiz-adv-x="1248" d="M-24 1422v88h1357v-88h-1357z" />
<glyph unicode="&#xb0;" horiz-adv-x="904" d="M171 1226q0 108 89.5 188.5t208.5 80.5q121 0 209.5 -80t88.5 -189q0 -118 -87.5 -198t-210.5 -80q-117 0 -207.5 80t-90.5 198zM223 1226q0 -96 72.5 -157t173.5 -61q102 0 173.5 61t71.5 157q0 86 -72.5 148.5t-172.5 62.5q-99 0 -172.5 -63t-73.5 -148z" />
<glyph unicode="&#xb1;" horiz-adv-x="1243" d="M84 -69h1077v-84h-1077v84zM84 516v83h492v433h92v-433h493v-83h-493v-449h-92v449h-492z" />
<glyph unicode="&#xb4;" horiz-adv-x="751" d="M305 1253l133 249h183l-216 -249h-100z" />
<glyph unicode="&#xb6;" horiz-adv-x="1105" d="M73 1054q0 66 15 126.5t56 122t104.5 106.5t168.5 73t241 28q157 0 230 -15v-1499h-91v1430h-156v-1430h-89v647h-20q-65 0 -129 15.5t-124 49t-105.5 80.5t-73 116t-27.5 150z" />
<glyph unicode="&#xb7;" horiz-adv-x="705" d="M282 352v168h168v-168h-168z" />
<glyph unicode="&#xba;" horiz-adv-x="625" d="M62 1019q0 112 74 187t180 75h2q117 0 181 -72t64 -170q0 -118 -77.5 -188t-176.5 -70q-109 0 -178 70.5t-69 167.5zM142 1021q0 -72 48.5 -121.5t120.5 -49.5q76 0 125 51.5t49 132.5q0 27 -7.5 54.5t-25.5 57t-54.5 48t-86.5 18.5h-2q-85 0 -126 -58t-41 -133z" />
<glyph unicode="&#xbb;" horiz-adv-x="1018" d="M167 2l242 383l-242 382h80l291 -386l-291 -379h-80zM547 2l241 383l-241 382h76l287 -382l-287 -383h-76z" />
<glyph unicode="&#xc0;" horiz-adv-x="1159" d="M38 0q63 207 184 588.5t174 554.5l49 147h116l404 -1290h-93l-107 345h-538l-102 -345h-87zM254 418h487l-241 803q-41 -137 -123 -401.5t-123 -401.5zM289 1611h154l180 -274h-85z" />
<glyph unicode="&#xc1;" horiz-adv-x="1159" d="M38 0q63 207 184 588.5t174 554.5l49 147h116l404 -1290h-93l-107 345h-538l-102 -345h-87zM254 418h487l-241 803q-41 -137 -123 -401.5t-123 -401.5zM510 1377l126 234h121l-145 -234h-102z" />
<glyph unicode="&#xc2;" horiz-adv-x="1159" d="M38 0q63 207 184 588.5t174 554.5l49 147h116l404 -1290h-93l-107 345h-538l-102 -345h-87zM254 418h487l-241 803q-41 -137 -123 -401.5t-123 -401.5zM262 1382l187 229h107l185 -229h-82l-158 197l-154 -197h-85z" />
<glyph unicode="&#xc3;" horiz-adv-x="1159" d="M38 0q63 207 184 588.5t174 554.5l49 147h116l404 -1290h-93l-107 345h-538l-102 -345h-87zM191 1422q32 104 78 145t116 41q40 0 140 -42l29 -11q70 -33 116 -33q44 0 69 19t37 67h80q-15 -90 -62.5 -137t-115.5 -47q-33 0 -147 45.5t-139 45.5q-90 0 -114 -93h-87z M254 418h487l-241 803q-41 -137 -123 -401.5t-123 -401.5z" />
<glyph unicode="&#xc4;" horiz-adv-x="1159" d="M38 0q63 207 184 588.5t174 554.5l49 147h116l404 -1290h-93l-107 345h-538l-102 -345h-87zM254 418h487l-241 803q-41 -137 -123 -401.5t-123 -401.5zM312 1435v158h89v-158h-89zM601 1435v158h91v-158h-91z" />
<glyph unicode="&#xc5;" horiz-adv-x="1159" d="M38 0q63 207 184 588.5t174 554.5l49 147h116l404 -1290h-93l-107 345h-538l-102 -345h-87zM254 418h487l-241 803q-41 -137 -123 -401.5t-123 -401.5zM421 1557q0 73 57.5 127t139.5 54q78 0 136 -54.5t58 -128.5q0 -80 -58 -135.5t-133 -55.5q-88 0 -144 55t-56 138z M503 1557q0 -43 31.5 -77t92.5 -34q51 0 77 32.5t26 76.5q0 38 -29.5 70t-79.5 32q-57 0 -87.5 -28.5t-30.5 -71.5z" />
<glyph unicode="&#xc6;" horiz-adv-x="1624" d="M38 0q43 95 115.5 254.5t133 291.5t114.5 248l226 496h683v-73h-520q7 -98 24 -275t23 -244h453v-71h-445l49 -554h439v-73h-526l-28 345h-490l-89 -192q-52 -105 -73 -153h-89zM322 418h450q-1 15 -71 803q-3 0 -10 0.5t-10 0.5z" />
<glyph unicode="&#xc7;" horiz-adv-x="1043" d="M111 643q0 98 1 149.5t8.5 135t21.5 128.5t42 102t68.5 85.5t102 49t141.5 20.5q311 0 311 -354h-91q-2 60 -13 107t-34.5 88.5t-67 64t-105.5 22.5q-54 0 -96 -9.5t-72.5 -34.5t-52 -49t-35 -72.5t-21.5 -84t-11.5 -104.5t-4 -113.5t-0.5 -130.5q0 -75 0.5 -114.5 t3 -102.5t7.5 -96t15 -80.5t25 -72t37 -54t51 -43t67.5 -23.5t86.5 -10q109 0 162.5 82t57.5 223h103q-2 -45 -9 -87t-29 -97.5t-56 -95.5t-97 -68.5t-145 -28.5q-8 0 -9 1l-82 -101l88 3q53 0 91.5 -31.5t38.5 -88.5q0 -136 -194 -136q-61 0 -149 27l22 35q53 -22 105 -22 q33 0 61 7.5t50 29.5t22 56q0 45 -30.5 66t-75.5 21q-38 0 -67 -18l-16 20l100 134q-68 11 -121 39t-87 59t-57.5 88t-35.5 99t-18 120t-7 124t-1 136z" />
<glyph unicode="&#xc8;" d="M144 0v1290h570v-73h-478v-519h456v-71h-456v-554h492v-73h-584zM229 1611h158l180 -274h-89z" />
<glyph unicode="&#xc9;" d="M144 0v1290h570v-73h-478v-519h456v-71h-456v-554h492v-73h-584zM389 1377l127 234h185l-209 -234h-103z" />
<glyph unicode="&#xca;" d="M144 0v1290h570v-73h-478v-519h456v-71h-456v-554h492v-73h-584zM162 1382l185 229h107l185 -229h-80l-158 195l-156 -195h-83z" />
<glyph unicode="&#xcb;" d="M144 0v1290h570v-73h-478v-519h456v-71h-456v-554h492v-73h-584zM209 1451v160h93v-160h-93zM500 1451v160h89v-160h-89z" />
<glyph unicode="&#xcc;" horiz-adv-x="463" d="M-11 1611h156l178 -274h-85zM154 0v1290h91v-1290h-91z" />
<glyph unicode="&#xcd;" horiz-adv-x="463" d="M154 0v1290h91v-1290h-91zM213 1377l125 234h180l-206 -234h-99z" />
<glyph unicode="&#xce;" horiz-adv-x="463" d="M-40 1382q11 13 43 54t48 57l98 118h103l191 -229h-83l-162 197l-154 -197h-84zM154 0v1290h91v-1290h-91z" />
<glyph unicode="&#xcf;" horiz-adv-x="463" d="M11 1435v158h91v-158h-91zM154 0v1290h91v-1290h-91zM298 1435v158h91v-158h-91z" />
<glyph unicode="&#xd0;" horiz-adv-x="1159" d="M33 672v76h111v542h336q76 0 134 -13.5t100.5 -38t72 -67t47.5 -91t28 -121t13.5 -145.5t3.5 -176q0 -98 -4.5 -170.5t-16.5 -142.5t-33 -118t-54.5 -89.5t-80.5 -66t-111 -38t-147 -13.5h-288v672h-111zM236 73h153q71 0 121.5 4.5t94 19.5t71 35t50 59t34 82t19 114 t9.5 146t2 186q0 104 -5.5 173t-21 128.5t-41.5 94t-71 59.5t-104.5 34t-145.5 9h-165v-469h276v-76h-276v-599z" />
<glyph unicode="&#xd1;" horiz-adv-x="1276" d="M158 13v1264h138l536 -1153l44 -70v625q0 105 0.5 306t0.5 292h62v-1264h-132l-536 1168l-44 69q0 -95 -1 -311.5t-1 -322.5v-603h-67zM276 1424q26 102 71.5 144.5t122.5 42.5q23 0 81.5 -16t86.5 -38q67 -33 116 -33q45 0 69.5 18t35.5 69h78q-30 -185 -176 -185 q-35 0 -147.5 45.5t-137.5 45.5q-88 0 -111 -93h-89z" />
<glyph unicode="&#xd2;" horiz-adv-x="1159" d="M116 643q0 74 0.5 116.5t4 109t10.5 105.5t20.5 92t32.5 84.5t48 66.5t67 53t89 30.5t113 12.5t113 -12.5t88.5 -30.5t66.5 -53.5t48 -66t32 -84.5t19.5 -92t10 -106t4 -108.5t0.5 -116.5t-0.5 -116t-4 -108t-10 -105.5t-19.5 -91.5t-32 -84.5t-48 -66t-66.5 -53.5 t-88.5 -30.5t-113 -12.5q-80 0 -141 20.5t-101.5 49.5t-68.5 85t-42.5 102t-21.5 127.5t-8.5 135t-1.5 148.5zM207 643q0 -94 1 -146t6.5 -125.5t17 -113t32.5 -86.5t52 -70t77.5 -39t107.5 -16q53 0 95.5 10t72.5 34.5t51.5 49.5t35 72.5t21.5 84t11.5 104t4.5 113t1 128.5 q0 84 -1 130t-4.5 114t-11.5 104.5t-21.5 84t-35 72t-51.5 49.5t-72.5 34.5t-95.5 9.5q-71 0 -122 -17t-83 -60t-50.5 -84.5t-26.5 -123.5t-10 -141.5t-2 -171.5zM289 1611h154l180 -274h-85z" />
<glyph unicode="&#xd3;" horiz-adv-x="1159" d="M116 643q0 74 0.5 116.5t4 109t10.5 105.5t20.5 92t32.5 84.5t48 66.5t67 53t89 30.5t113 12.5t113 -12.5t88.5 -30.5t66.5 -53.5t48 -66t32 -84.5t19.5 -92t10 -106t4 -108.5t0.5 -116.5t-0.5 -116t-4 -108t-10 -105.5t-19.5 -91.5t-32 -84.5t-48 -66t-66.5 -53.5 t-88.5 -30.5t-113 -12.5q-80 0 -141 20.5t-101.5 49.5t-68.5 85t-42.5 102t-21.5 127.5t-8.5 135t-1.5 148.5zM207 643q0 -94 1 -146t6.5 -125.5t17 -113t32.5 -86.5t52 -70t77.5 -39t107.5 -16q53 0 95.5 10t72.5 34.5t51.5 49.5t35 72.5t21.5 84t11.5 104t4.5 113t1 128.5 q0 84 -1 130t-4.5 114t-11.5 104.5t-21.5 84t-35 72t-51.5 49.5t-72.5 34.5t-95.5 9.5q-71 0 -122 -17t-83 -60t-50.5 -84.5t-26.5 -123.5t-10 -141.5t-2 -171.5zM510 1377l126 234h178l-202 -234h-102z" />
<glyph unicode="&#xd4;" horiz-adv-x="1159" d="M116 643q0 74 0.5 116.5t4 109t10.5 105.5t20.5 92t32.5 84.5t48 66.5t67 53t89 30.5t113 12.5t113 -12.5t88.5 -30.5t66.5 -53.5t48 -66t32 -84.5t19.5 -92t10 -106t4 -108.5t0.5 -116.5t-0.5 -116t-4 -108t-10 -105.5t-19.5 -91.5t-32 -84.5t-48 -66t-66.5 -53.5 t-88.5 -30.5t-113 -12.5q-80 0 -141 20.5t-101.5 49.5t-68.5 85t-42.5 102t-21.5 127.5t-8.5 135t-1.5 148.5zM207 643q0 -94 1 -146t6.5 -125.5t17 -113t32.5 -86.5t52 -70t77.5 -39t107.5 -16q53 0 95.5 10t72.5 34.5t51.5 49.5t35 72.5t21.5 84t11.5 104t4.5 113t1 128.5 q0 84 -1 130t-4.5 114t-11.5 104.5t-21.5 84t-35 72t-51.5 49.5t-72.5 34.5t-95.5 9.5q-71 0 -122 -17t-83 -60t-50.5 -84.5t-26.5 -123.5t-10 -141.5t-2 -171.5zM262 1382l187 229h107l185 -229h-82l-158 197l-154 -197h-85z" />
<glyph unicode="&#xd5;" horiz-adv-x="1159" d="M116 643q0 74 0.5 116.5t4 109t10.5 105.5t20.5 92t32.5 84.5t48 66.5t67 53t89 30.5t113 12.5t113 -12.5t88.5 -30.5t66.5 -53.5t48 -66t32 -84.5t19.5 -92t10 -106t4 -108.5t0.5 -116.5t-0.5 -116t-4 -108t-10 -105.5t-19.5 -91.5t-32 -84.5t-48 -66t-66.5 -53.5 t-88.5 -30.5t-113 -12.5q-80 0 -141 20.5t-101.5 49.5t-68.5 85t-42.5 102t-21.5 127.5t-8.5 135t-1.5 148.5zM207 643q0 -94 1 -146t6.5 -125.5t17 -113t32.5 -86.5t52 -70t77.5 -39t107.5 -16q53 0 95.5 10t72.5 34.5t51.5 49.5t35 72.5t21.5 84t11.5 104t4.5 113t1 128.5 q0 84 -1 130t-4.5 114t-11.5 104.5t-21.5 84t-35 72t-51.5 49.5t-72.5 34.5t-95.5 9.5q-71 0 -122 -17t-83 -60t-50.5 -84.5t-26.5 -123.5t-10 -141.5t-2 -171.5zM265 1424q32 105 77 146t118 41q6 0 12.5 -0.5t14 -2t13 -3t15 -4.5t14 -4.5t16.5 -6t16.5 -6.5t19 -7.5 t18.5 -7.5l30 -12q79 -36 118 -33q45 0 68.5 18t34.5 69h80q-15 -91 -62 -138t-116 -47q-34 0 -146.5 45.5t-136.5 45.5q-93 0 -117 -93h-87z" />
<glyph unicode="&#xd6;" horiz-adv-x="1159" d="M116 643q0 74 0.5 116.5t4 109t10.5 105.5t20.5 92t32.5 84.5t48 66.5t67 53t89 30.5t113 12.5t113 -12.5t88.5 -30.5t66.5 -53.5t48 -66t32 -84.5t19.5 -92t10 -106t4 -108.5t0.5 -116.5t-0.5 -116t-4 -108t-10 -105.5t-19.5 -91.5t-32 -84.5t-48 -66t-66.5 -53.5 t-88.5 -30.5t-113 -12.5q-80 0 -141 20.5t-101.5 49.5t-68.5 85t-42.5 102t-21.5 127.5t-8.5 135t-1.5 148.5zM207 643q0 -94 1 -146t6.5 -125.5t17 -113t32.5 -86.5t52 -70t77.5 -39t107.5 -16q53 0 95.5 10t72.5 34.5t51.5 49.5t35 72.5t21.5 84t11.5 104t4.5 113t1 128.5 q0 84 -1 130t-4.5 114t-11.5 104.5t-21.5 84t-35 72t-51.5 49.5t-72.5 34.5t-95.5 9.5q-71 0 -122 -17t-83 -60t-50.5 -84.5t-26.5 -123.5t-10 -141.5t-2 -171.5zM312 1435v158h89v-158h-89zM601 1435v158h87v-158h-87z" />
<glyph unicode="&#xd7;" d="M47 151l307 305l-307 305l51 49l307 -307l305 307l51 -49l-307 -305l302 -303v-9q-6 -8 -26 -22l-20 -24l-305 307l-307 -307z" />
<glyph unicode="&#xd8;" horiz-adv-x="1159" d="M96 -31l91 167q-71 131 -71 394v218q0 49 1 85.5t5.5 86t12 86t21.5 80t33.5 74.5t48.5 61.5t66 49.5t87 30.5t110 11.5q93 0 160 -28.5t124 -85.5l89 154l34 -27l-94 -173q69 -136 69 -392v-220q0 -49 -1 -85.5t-5 -86t-11.5 -86.5t-21.5 -80t-33.5 -74t-48.5 -62 t-65.5 -50t-86.5 -30.5t-109 -11.5q-168 0 -283 118l-84 -146zM207 516q0 -11 0.5 -45.5t2 -49.5t3.5 -45.5t5.5 -51t8.5 -47t11 -52.5l499 890q-68 126 -236 126q-48 0 -87.5 -10t-68.5 -24t-51 -44t-36.5 -53.5t-24.5 -71t-15 -78t-7.5 -92.5t-3 -97.5t-0.5 -107.5v-20 v-27v-49v-51zM263 176q34 -64 90.5 -96.5t147.5 -32.5q60 0 106.5 16t77.5 39t52 68.5t32 84.5t17 108.5t7 118t1 134.5v57.5v59.5t-0.5 52t-2 57t-3.5 51.5t-5.5 56.5t-8.5 51.5t-11 57.5z" />
<glyph unicode="&#xd9;" horiz-adv-x="1159" d="M129 389v901h91v-814q0 -164 20 -239q52 -190 261 -190q46 0 84 9.5t65.5 23.5t49 39.5t35 47t23.5 57.5t14.5 60.5t7 65.5t3 62.5t0.5 61.5v2v814h93v-901q0 -414 -375 -414q-62 0 -114.5 11.5t-101 41t-82.5 75t-54 118.5t-20 168zM289 1611h154l180 -274h-85z" />
<glyph unicode="&#xda;" horiz-adv-x="1159" d="M129 389v901h91v-814q0 -164 20 -239q52 -190 261 -190q46 0 84 9.5t65.5 23.5t49 39.5t35 47t23.5 57.5t14.5 60.5t7 65.5t3 62.5t0.5 61.5v2v814h93v-901q0 -414 -375 -414q-62 0 -114.5 11.5t-101 41t-82.5 75t-54 118.5t-20 168zM510 1377l126 234h178l-202 -234 h-102z" />
<glyph unicode="&#xdb;" horiz-adv-x="1159" d="M129 389v901h91v-814q0 -164 20 -239q52 -190 261 -190q46 0 84 9.5t65.5 23.5t49 39.5t35 47t23.5 57.5t14.5 60.5t7 65.5t3 62.5t0.5 61.5v2v814h93v-901q0 -414 -375 -414q-62 0 -114.5 11.5t-101 41t-82.5 75t-54 118.5t-20 168zM262 1382l187 229h107l185 -229h-82 l-158 197l-154 -197h-85z" />
<glyph unicode="&#xdc;" horiz-adv-x="1159" d="M129 389v901h91v-814q0 -164 20 -239q52 -190 261 -190q46 0 84 9.5t65.5 23.5t49 39.5t35 47t23.5 57.5t14.5 60.5t7 65.5t3 62.5t0.5 61.5v2v814h93v-901q0 -414 -375 -414q-62 0 -114.5 11.5t-101 41t-82.5 75t-54 118.5t-20 168zM312 1435v158h89v-158h-89zM601 1435 v158h87v-158h-87z" />
<glyph unicode="&#xdd;" horiz-adv-x="1043" d="M58 1277h78l314 -687l111 227q23 48 101 212.5t119 247.5h60l-358 -738v-526h-67v526zM372 1377l126 234h180l-204 -234h-102z" />
<glyph unicode="&#xde;" d="M140 0v1431h100v-330h287q42 0 75 -4t79 -24t77 -54t53.5 -100.5t22.5 -157.5q0 -216 -77.5 -314t-255.5 -98h-261v-349h-100zM240 429h256q114 0 176 68t62 239q0 63 -9 111t-26.5 78.5t-38 50.5t-50.5 29.5t-56 12.5t-62 3h-252v-592z" />
<glyph unicode="&#xdf;" horiz-adv-x="1043" d="M144 0v1157q0 42 7.5 82.5t31 87t60.5 80.5t101 56.5t148 22.5q118 0 205.5 -68.5t87.5 -182.5q0 -55 -23 -108.5t-55.5 -97t-65 -84t-55.5 -84.5t-23 -84q0 -34 19.5 -69t50.5 -66.5t69 -64.5t75.5 -68t68.5 -72t50.5 -83t19.5 -94q0 -140 -79.5 -212t-220.5 -72 q-123 0 -187 64.5t-66 184.5h95q12 -178 181 -178q91 0 137.5 53t46.5 142q0 62 -36.5 119.5t-88.5 102.5t-103.5 88.5t-88 94t-36.5 101.5q0 55 23 108.5t56 98t66 88.5t56 95.5t23 102.5q0 81 -67.5 129.5t-150.5 48.5q-240 0 -240 -304v-1115h-92z" />
<glyph unicode="&#xe0;" d="M89 269q0 84 31.5 144t67.5 91.5t112.5 52t115.5 25t128 10.5q5 1 8 1t7.5 0.5t7.5 0.5l107 4v109q0 124 -47 198q-46 72 -186 72q-94 0 -156.5 -48t-73.5 -135h-87q11 121 102 179.5t224 58.5q28 0 49.5 -1t55.5 -6.5t59 -15.5t53 -29t46.5 -45t30.5 -67t12 -92v-531 q0 -156 12 -245h-83v178q-45 -102 -134 -152t-191 -50q-129 0 -200 79.5t-71 213.5zM180 276q0 -106 53.5 -173t157.5 -67q116 0 199.5 87.5t83.5 201.5v214q-166 0 -220 -6q-215 -24 -261 -165q-13 -41 -13 -92zM225 1471h155l190 -292h-80z" />
<glyph unicode="&#xe1;" d="M89 269q0 84 31.5 144t67.5 91.5t112.5 52t115.5 25t128 10.5q5 1 8 1t7.5 0.5t7.5 0.5l107 4v109q0 124 -47 198q-46 72 -186 72q-94 0 -156.5 -48t-73.5 -135h-87q11 121 102 179.5t224 58.5q28 0 49.5 -1t55.5 -6.5t59 -15.5t53 -29t46.5 -45t30.5 -67t12 -92v-531 q0 -156 12 -245h-83v178q-45 -102 -134 -152t-191 -50q-129 0 -200 79.5t-71 213.5zM180 276q0 -106 53.5 -173t157.5 -67q116 0 199.5 87.5t83.5 201.5v214q-166 0 -220 -6q-215 -24 -261 -165q-13 -41 -13 -92zM470 1253l133 249h182l-215 -249h-100z" />
<glyph unicode="&#xe2;" d="M89 269q0 84 31.5 144t67.5 91.5t112.5 52t115.5 25t128 10.5q5 1 8 1t7.5 0.5t7.5 0.5l107 4v109q0 124 -47 198q-46 72 -186 72q-94 0 -156.5 -48t-73.5 -135h-87q11 121 102 179.5t224 58.5q28 0 49.5 -1t55.5 -6.5t59 -15.5t53 -29t46.5 -45t30.5 -67t12 -92v-531 q0 -156 12 -245h-83v178q-142 -202 -325 -202q-129 0 -200 79.5t-71 213.5zM180 276q0 -106 53.5 -173t157.5 -67q116 0 199.5 87.5t83.5 201.5v214q-166 0 -220 -6q-215 -24 -261 -165q-13 -41 -13 -92zM194 1168l202 247h116l202 -247h-75l-185 225l-180 -225h-80z" />
<glyph unicode="&#xe3;" d="M89 269q0 84 31.5 144t67.5 91.5t112.5 52t115.5 25t128 10.5q5 1 8 1t7.5 0.5t7.5 0.5l107 4v109q0 124 -47 198q-46 72 -186 72q-94 0 -156.5 -48t-73.5 -135h-87q11 121 102 179.5t224 58.5q28 0 49.5 -1t55.5 -6.5t59 -15.5t53 -29t46.5 -45t30.5 -67t12 -92v-531 q0 -156 12 -245h-83v178q-45 -102 -134 -152t-191 -50q-129 0 -200 79.5t-71 213.5zM180 276q0 -106 53.5 -173t157.5 -67q116 0 199.5 87.5t83.5 201.5v214q-166 0 -220 -6q-215 -24 -261 -165q-13 -41 -13 -92zM194 1308q26 105 76 148.5t133 43.5q20 0 147 -47t173 -47 q52 0 80.5 20t42.5 76h75q-15 -95 -65.5 -143.5t-127.5 -48.5q-33 0 -160.5 50t-155.5 50q-112 0 -134 -102h-84z" />
<glyph unicode="&#xe4;" d="M89 269q0 84 31.5 144t67.5 91.5t112.5 52t115.5 25t128 10.5q5 1 8 1t7.5 0.5t7.5 0.5l107 4v109q0 124 -47 198q-46 72 -186 72q-94 0 -156.5 -48t-73.5 -135h-87q11 121 102 179.5t224 58.5q28 0 49.5 -1t55.5 -6.5t59 -15.5t53 -29t46.5 -45t30.5 -67t12 -92v-531 q0 -156 12 -245h-83v178q-142 -202 -325 -202q-129 0 -200 79.5t-71 213.5zM180 276q0 -106 53.5 -173t157.5 -67q116 0 199.5 87.5t83.5 201.5v214q-166 0 -220 -6q-215 -24 -261 -165q-13 -41 -13 -92zM242 1193v168h90v-168h-90zM574 1193v168h89v-168h-89z" />
<glyph unicode="&#xe5;" d="M89 269q0 84 31.5 144t67.5 91.5t112.5 52t115.5 25t128 10.5q5 1 8 1t7.5 0.5t7.5 0.5l107 4v109q0 124 -47 198q-46 72 -186 72q-94 0 -156.5 -48t-73.5 -135h-87q11 121 102 179.5t224 58.5q28 0 49.5 -1t55.5 -6.5t59 -15.5t53 -29t46.5 -45t30.5 -67t12 -92v-531 q0 -156 12 -245h-83v178q-45 -102 -134 -152t-191 -50q-129 0 -200 79.5t-71 213.5zM180 276q0 -106 53.5 -173t157.5 -67q116 0 199.5 87.5t83.5 201.5v214q-166 0 -220 -6q-215 -24 -261 -165q-13 -41 -13 -92zM367 1306q0 80 62 139t150 59q83 0 147 -60.5t64 -139.5 q0 -88 -62.5 -147.5t-146.5 -59.5q-93 0 -153.5 60.5t-60.5 148.5zM445 1306q0 -50 36.5 -90.5t107.5 -40.5q60 0 91.5 39t31.5 90q0 47 -35 84.5t-96 37.5q-66 0 -101 -35.5t-35 -84.5z" />
<glyph unicode="&#xe6;" horiz-adv-x="1506" d="M82 252q0 53 12 97.5t28 76.5t49 57t59 41t74.5 27t78.5 16.5t88.5 8t87 3t90.5 0.5h10h9.5h9.5q0 50 -1 80.5t-5.5 77.5t-14 76t-27.5 64t-43.5 54t-65 32.5t-89.5 13.5q-92 0 -156 -48.5t-73 -134.5h-89q17 122 106 180t223 58q91 0 171 -47.5t116 -143.5 q50 88 126 139.5t152 51.5q54 0 99 -9.5t78.5 -24.5t59.5 -40.5t43.5 -51t30 -64t19 -70.5t10 -79t4.5 -82t1 -86h-603v-125q0 -53 6 -100.5t23.5 -97.5t45 -85t74.5 -58t109 -23q122 0 186.5 64.5t69.5 177.5h87q-16 -161 -103 -231.5t-240 -70.5q-96 0 -177.5 63 t-114.5 170q-103 -233 -302 -233q-144 0 -238 72t-94 204zM173 262q0 -115 65 -170.5t183 -55.5q61 0 107.5 25t74.5 64t45.5 93t24 105.5t6.5 108.5q0 63 -5 95q-32 -3 -82 -5t-87 -3t-83 -6.5t-79 -14.5t-67 -27.5t-55 -45t-34.5 -68t-13.5 -95.5zM750 579h522 q0 99 -10 166t-38 122.5t-81.5 82.5t-134.5 27q-119 0 -188.5 -108t-69.5 -290z" />
<glyph unicode="&#xe7;" horiz-adv-x="810" d="M93 496v5q0 273 27 344q61 187 300 187q272 0 272 -280h-82q0 225 -209 225q-66 0 -116 -35t-76 -101q-11 -37 -19 -134t-8 -206v-69t2 -69.5t5.5 -72t11 -65t18 -62t27 -50.5t37.5 -42t49.5 -25t63.5 -10q63 0 105.5 17.5t65 52.5t32 72t13.5 91h82q-1 -67 -21.5 -119.5 t-49.5 -83.5t-67 -52t-70 -28.5t-63 -9.5l-101 -134q10 0 53 2.5t56 2.5q58 0 99.5 -34.5t41.5 -95.5q0 -151 -218 -151q-64 0 -156 29l15 27q69 -25 123 -25q59 0 106.5 29t47.5 87q0 52 -36 78.5t-89 26.5q-28 0 -78 -16l-11 7l120 167q-63 8 -112 29.5t-80.5 47t-53.5 71 t-33 79.5t-16.5 95t-6.5 96t-1 102z" />
<glyph unicode="&#xe8;" d="M111 351v259q0 217 85.5 319.5t257.5 102.5q54 0 98.5 -9t78 -23.5t59 -41t42.5 -51t29 -65.5t18.5 -73t10 -83.5t4 -88.5t0.5 -96h-601v-101q0 -54 6 -100.5t23 -97t45 -85.5t76 -58t111 -23q121 0 184.5 64.5t68.5 177.5h85q-27 -302 -338 -302q-56 0 -103 10t-92.5 36 t-77 67t-51 108t-19.5 154zM193 559h519q0 104 -10.5 175.5t-38 129t-79.5 85.5t-130 28q-65 0 -111.5 -19.5t-75.5 -53t-45.5 -88t-22.5 -114.5t-6 -143zM225 1471h155l190 -292h-80z" />
<glyph unicode="&#xe9;" d="M111 351v259q0 217 85.5 319.5t257.5 102.5q54 0 98.5 -9t78 -23.5t59 -41t42.5 -51t29 -65.5t18.5 -73t10 -83.5t4 -88.5t0.5 -96h-601v-101q0 -54 6 -100.5t23 -97t45 -85.5t76 -58t111 -23q121 0 184.5 64.5t68.5 177.5h85q-27 -302 -338 -302q-56 0 -103 10t-92.5 36 t-77 67t-51 108t-19.5 154zM193 559h519q0 104 -10.5 175.5t-38 129t-79.5 85.5t-130 28q-65 0 -111.5 -19.5t-75.5 -53t-45.5 -88t-22.5 -114.5t-6 -143zM470 1253l133 249h182l-215 -249h-100z" />
<glyph unicode="&#xea;" d="M111 351v259q0 217 85.5 319.5t257.5 102.5q54 0 98.5 -9t78 -23.5t59 -41t42.5 -51t29 -65.5t18.5 -73t10 -83.5t4 -88.5t0.5 -96h-601v-101q0 -54 6 -100.5t23 -97t45 -85.5t76 -58t111 -23q121 0 184.5 64.5t68.5 177.5h85q-27 -302 -338 -302q-56 0 -103 10t-92.5 36 t-77 67t-51 108t-19.5 154zM193 559h519q0 104 -10.5 175.5t-38 129t-79.5 85.5t-130 28q-65 0 -111.5 -19.5t-75.5 -53t-45.5 -88t-22.5 -114.5t-6 -143zM193 1168l201 247h118l202 -247h-76l-184 225l-183 -225h-78z" />
<glyph unicode="&#xeb;" d="M111 351v259q0 217 85.5 319.5t257.5 102.5q54 0 98.5 -9t78 -23.5t59 -41t42.5 -51t29 -65.5t18.5 -73t10 -83.5t4 -88.5t0.5 -96h-601v-101q0 -54 6 -100.5t23 -97t45 -85.5t76 -58t111 -23q121 0 184.5 64.5t68.5 177.5h85q-27 -302 -338 -302q-56 0 -103 10t-92.5 36 t-77 67t-51 108t-19.5 154zM193 559h519q0 104 -10.5 175.5t-38 129t-79.5 85.5t-130 28q-65 0 -111.5 -19.5t-75.5 -53t-45.5 -88t-22.5 -114.5t-6 -143zM242 1193v168h90v-168h-90zM574 1193v168h89v-168h-89z" />
<glyph unicode="&#xec;" horiz-adv-x="463" d="M13 1415h174l129 -243h-51zM187 0v1014h82v-1014h-82z" />
<glyph unicode="&#xed;" horiz-adv-x="463" d="M138 1172l200 243h100l-255 -243h-45zM183 0v1014h82v-1014h-82z" />
<glyph unicode="&#xee;" horiz-adv-x="463" d="M-36 1168q35 44 100 121t103 126h120q32 -41 100.5 -123t101.5 -124h-80l-184 225l-181 -225h-80zM185 0v1014h82v-1014h-82z" />
<glyph unicode="&#xef;" horiz-adv-x="463" d="M16 1193v168h91v-168h-91zM185 0v1014h82v-1014h-82zM347 1193v168h89v-168h-89z" />
<glyph unicode="&#xf0;" d="M111 392v229q0 200 85 305.5t258 105.5q86 0 129.5 -21.5t68.5 -67.5l35 7q0 112 -69 231t-133 161l-193 -107l-32 31l200 111q-33 16 -63.5 32t-44 23.5t-34.5 16t-49 17.5l-9 2q11 12 18.5 19t16.5 14t17 14q71 -23 114.5 -45t93.5 -60l187 103l30 -33l-178 -98 q58 -54 96.5 -110t72.5 -144t50 -218t16 -307v-211q0 -200 -85 -308t-255 -108q-172 0 -257.5 107.5t-85.5 308.5zM193 505q0 -80 3.5 -136.5t13 -113.5t27.5 -94t46.5 -67t71 -44t99.5 -14q66 0 112.5 22t74.5 58.5t44 98.5t21.5 128.5t5.5 161.5q0 94 -5.5 161 t-21.5 129.5t-44 99.5t-74.5 59.5t-112.5 22.5q-68 0 -116 -22.5t-76 -59.5t-43.5 -100.5t-20.5 -128.5t-5 -161z" />
<glyph unicode="&#xf1;" d="M138 0v1014h82v-178q35 89 116.5 142.5t164.5 53.5q58 0 103.5 -13.5t73.5 -39t46.5 -54t27.5 -66.5t12 -68.5t3 -67.5v-723h-82v716q0 42 -7 79.5t-23 71t-40 58t-61 38.5t-84 14q-50 0 -93 -17.5t-79 -54.5t-57 -104.5t-21 -159.5v-641h-82zM194 1308q26 105 76 148.5 t133 43.5q20 0 147 -47t173 -47q52 0 80.5 20t42.5 76h75q-15 -95 -65.5 -143.5t-127.5 -48.5q-33 0 -160.5 50t-155.5 50q-112 0 -134 -102h-84z" />
<glyph unicode="&#xf2;" d="M111 392v229q0 200 85 305.5t258 105.5q171 0 255.5 -105.5t84.5 -305.5v-229q0 -200 -85 -308t-255 -108q-172 0 -257.5 107.5t-85.5 308.5zM193 505q0 -80 3.5 -136.5t13 -113.5t27.5 -94t46.5 -67t71 -44t99.5 -14q66 0 112.5 22t74.5 58.5t44 98.5t21.5 128.5 t5.5 161.5q0 94 -5.5 161t-21.5 129.5t-44 99.5t-74.5 59.5t-112.5 22.5q-68 0 -116 -22.5t-76 -59.5t-43.5 -100.5t-20.5 -128.5t-5 -161zM225 1471h155l190 -292h-80z" />
<glyph unicode="&#xf3;" d="M111 392v229q0 200 85 305.5t258 105.5q171 0 255.5 -105.5t84.5 -305.5v-229q0 -200 -85 -308t-255 -108q-172 0 -257.5 107.5t-85.5 308.5zM193 505q0 -80 3.5 -136.5t13 -113.5t27.5 -94t46.5 -67t71 -44t99.5 -14q66 0 112.5 22t74.5 58.5t44 98.5t21.5 128.5 t5.5 161.5q0 94 -5.5 161t-21.5 129.5t-44 99.5t-74.5 59.5t-112.5 22.5q-68 0 -116 -22.5t-76 -59.5t-43.5 -100.5t-20.5 -128.5t-5 -161zM470 1253l133 249h182l-215 -249h-100z" />
<glyph unicode="&#xf4;" d="M111 392v229q0 200 85 305.5t258 105.5q171 0 255.5 -105.5t84.5 -305.5v-229q0 -200 -85 -308t-255 -108q-172 0 -257.5 107.5t-85.5 308.5zM193 505q0 -80 3.5 -136.5t13 -113.5t27.5 -94t46.5 -67t71 -44t99.5 -14q66 0 112.5 22t74.5 58.5t44 98.5t21.5 128.5 t5.5 161.5q0 94 -5.5 161t-21.5 129.5t-44 99.5t-74.5 59.5t-112.5 22.5q-68 0 -116 -22.5t-76 -59.5t-43.5 -100.5t-20.5 -128.5t-5 -161zM193 1168l201 247h118l202 -247h-76l-184 225l-183 -225h-78z" />
<glyph unicode="&#xf5;" d="M111 392v229q0 200 85 305.5t258 105.5q171 0 255.5 -105.5t84.5 -305.5v-229q0 -200 -85 -308t-255 -108q-172 0 -257.5 107.5t-85.5 308.5zM193 505q0 -80 3.5 -136.5t13 -113.5t27.5 -94t46.5 -67t71 -44t99.5 -14q66 0 112.5 22t74.5 58.5t44 98.5t21.5 128.5 t5.5 161.5q0 94 -5.5 161t-21.5 129.5t-44 99.5t-74.5 59.5t-112.5 22.5q-68 0 -116 -22.5t-76 -59.5t-43.5 -100.5t-20.5 -128.5t-5 -161zM194 1308q26 105 76 148.5t133 43.5q20 0 147 -47t173 -47q52 0 80.5 20t42.5 76h75q-15 -95 -65.5 -143.5t-127.5 -48.5 q-33 0 -160.5 50t-155.5 50q-112 0 -134 -102h-84z" />
<glyph unicode="&#xf6;" d="M111 392v229q0 200 85 305.5t258 105.5q171 0 255.5 -105.5t84.5 -305.5v-229q0 -200 -85 -308t-255 -108q-172 0 -257.5 107.5t-85.5 308.5zM193 505q0 -80 3.5 -136.5t13 -113.5t27.5 -94t46.5 -67t71 -44t99.5 -14q66 0 112.5 22t74.5 58.5t44 98.5t21.5 128.5 t5.5 161.5q0 94 -5.5 161t-21.5 129.5t-44 99.5t-74.5 59.5t-112.5 22.5q-68 0 -116 -22.5t-76 -59.5t-43.5 -100.5t-20.5 -128.5t-5 -161zM242 1193v168h90v-168h-90zM574 1193v168h89v-168h-89z" />
<glyph unicode="&#xf7;" d="M53 476v63h799v-63h-799zM396 2v114h111v-114h-111zM396 897v117h111v-117h-111z" />
<glyph unicode="&#xf8;" d="M80 -67l98 156q-67 99 -67 303v251q0 30 0.5 47.5t3.5 53t8.5 58.5t17.5 56t28.5 55t43 46.5t60 39t79.5 24t102 9.5q156 0 256 -93q13 25 47.5 78.5t45.5 72.5q1 -1 22 -16l-91 -157q40 -78 50 -131t10 -143v-251q0 -205 -79 -310.5t-261 -105.5q-154 0 -251 91 l-96 -151zM193 505q0 -198 32 -336l434 699q-28 58 -78 83.5t-127 25.5q-69 0 -116 -18.5t-75.5 -51.5t-44 -95t-20.5 -130.5t-5 -176.5zM247 140q74 -111 207 -104q49 0 89 13t62.5 29t41.5 42t25 39t13 32l2 3q25 84 25 311q0 187 -33 334z" />
<glyph unicode="&#xf9;" d="M145 289v725h82v-705v-26t3.5 -41t10 -54.5t21 -53t35 -50.5t54.5 -33.5t76 -14.5q64 0 115 28t79 69.5t42.5 82.5t14.5 75v723h79v-1014h-61v156q-123 -180 -295 -180q-256 0 -256 313zM225 1471h155l190 -292h-80z" />
<glyph unicode="&#xfa;" d="M145 289v725h82v-705v-26t3.5 -41t10 -54.5t21 -53t35 -50.5t54.5 -33.5t76 -14.5q64 0 115 28t79 69.5t42.5 82.5t14.5 75v723h79v-1014h-61v156q-123 -180 -295 -180q-256 0 -256 313zM470 1253l133 249h154l-187 -249h-100z" />
<glyph unicode="&#xfb;" d="M145 289v725h82v-705v-26t3.5 -41t10 -54.5t21 -53t35 -50.5t54.5 -33.5t76 -14.5q64 0 115 28t79 69.5t42.5 82.5t14.5 75v723h79v-1014h-61v156q-82 -92 -151 -136t-144 -44q-256 0 -256 313zM193 1168l201 247h118l202 -247h-76l-184 225l-183 -225h-78z" />
<glyph unicode="&#xfc;" d="M145 289v725h82v-705v-26t3.5 -41t10 -54.5t21 -53t35 -50.5t54.5 -33.5t76 -14.5q64 0 115 28t79 69.5t42.5 82.5t14.5 75v723h79v-1014h-61v156q-82 -92 -151 -136t-144 -44q-256 0 -256 313zM242 1193v168h90v-168h-90zM574 1193v168h89v-168h-89z" />
<glyph unicode="&#xfd;" horiz-adv-x="810" d="M40 1014h87l276 -929l271 929h78l-427 -1414h-76l118 375zM416 1253l133 249h181l-214 -249h-100z" />
<glyph unicode="&#xfe;" d="M142 -400v1866h81v-632q64 100 141 149t152 49q56 0 101.5 -15.5t76 -39.5t52.5 -61.5t34 -74t19 -84.5t9 -85t2 -83v-46v-38q0 -58 -1.5 -100t-8 -101t-18.5 -101t-34.5 -87.5t-54 -74t-79 -47t-107.5 -18.5q-160 0 -280 197q0 -83 -2 -284t-2 -289h-81zM223 414 q0 -182 72 -280t175 -98q41 0 75 8t59 20t44.5 35t32.5 44.5t22 57t14 64t7.5 73.5t3 78t0.5 85q0 53 -0.5 86t-3 79t-7.5 75t-14 65.5t-22 59t-32.5 46t-44.5 36t-59 21t-75 8.5q-30 0 -62 -12t-65.5 -40.5t-59.5 -70t-43 -107.5t-17 -146v-187z" />
<glyph unicode="&#xff;" horiz-adv-x="810" d="M40 1014h87l276 -929l271 929h78l-427 -1414h-76l118 375zM187 1193v168h91v-168h-91zM518 1193v168h91v-168h-91z" />
<glyph unicode="&#x2da;" horiz-adv-x="783" d="M203 1306q0 80 62 139t149 59q83 0 147 -60.5t64 -139.5q0 -88 -62.5 -147.5t-146.5 -59.5q-94 0 -153.5 60t-59.5 149zM280 1306q0 -50 36 -90.5t107 -40.5q60 0 92 39t32 90q0 47 -34.5 84.5t-96.5 37.5q-66 0 -101 -35.5t-35 -84.5z" />
<glyph unicode="&#x2dc;" horiz-adv-x="751" d="M29 1308q26 105 76 148.5t133 43.5q20 0 147 -47t173 -47q53 0 81 20t42 76h75q-15 -95 -65.5 -143.5t-127.5 -48.5q-33 0 -160.5 50t-155.5 50q-112 0 -134 -102h-84z" />
<glyph unicode="&#x401;" horiz-adv-x="1262" d="M205 0v1504h887v-120h-752v-548h695v-113h-695v-599h783v-124h-918zM418 1711v165h143v-165h-143zM779 1711v165h144v-165h-144z" />
<glyph unicode="&#x410;" horiz-adv-x="1255" d="M0 0l547 1504h163l547 -1504h-145l-149 414h-671l-147 -414h-145zM332 527h591l-293 824h-3z" />
<glyph unicode="&#x411;" horiz-adv-x="1264" d="M207 0v1504h881v-122h-745v-528q139 29 335 29q519 0 519 -451q0 -220 -151 -332q-130 -100 -354 -100h-485zM343 122h309q206 0 302 76.5t96 239.5q0 325 -354 325q-224 0 -353 -29v-612z" />
<glyph unicode="&#x412;" horiz-adv-x="1378" d="M205 0v1504h382q568 0 568 -380q0 -263 -281 -334q166 -28 258 -127t92 -247q0 -416 -603 -416h-416zM336 122h329q196 0 307 81q105 75 105 211q0 311 -436 311h-305v-603zM336 837h269q211 0 309 64q100 66 100 218q0 263 -405 263h-273v-545z" />
<glyph unicode="&#x413;" horiz-adv-x="1084" d="M205 0v1504h807v-120h-674v-1384h-133z" />
<glyph unicode="&#x414;" horiz-adv-x="1421" d="M0 122h24q118 0 203 129q75 116 75 247v1006h895v-1382h207v-429h-138l18 307h-1164l18 -307h-138v429zM267 122h796v1259h-631v-871q0 -117 -31 -199q-37 -99 -134 -186v-3z" />
<glyph unicode="&#x415;" horiz-adv-x="1262" d="M205 0v1504h887v-120h-752v-548h695v-113h-695v-599h783v-124h-918z" />
<glyph unicode="&#x416;" horiz-adv-x="1935" d="M100 0q93 117 93 329q0 228 47 330q50 101 181 153v9q-86 53 -116 122q-29 61 -29 189v138q0 66 -28.5 90t-105.5 24v120q161 0 218 -60q47 -53 47 -187v-153q0 -245 260 -245h236v645h131v-645h236q259 0 259 245v153q0 133 48 187q57 60 218 60v-120q-77 0 -106 -24 t-29 -90v-138q0 -128 -29 -189q-32 -71 -116 -122v-9q133 -52 180 -153q49 -99 49 -330q0 -213 92 -329h-145q-78 131 -78 312q0 241 -71 335q-66 94 -243 94h-265v-741h-131v741h-265q-177 0 -246 -94q-69 -95 -69 -335q0 -184 -78 -312h-145z" />
<glyph unicode="&#x417;" horiz-adv-x="1367" d="M94 361h144q0 -111 111 -190q112 -77 274 -77q467 0 467 322q0 141 -131 225q-143 86 -390 86h-73v103h76q250 0 376 87q107 77 107 207q0 131 -100 207q-106 79 -296 79q-160 0 -272 -77q-111 -73 -111 -180h-147q0 172 147.5 273.5t406.5 101.5q252 0 387 -122 q120 -110 120 -291q0 -101 -62 -190q-71 -103 -207 -140v-8q166 -36 245 -138q69 -92 69 -210q0 -454 -588 -454q-260 0 -409 109q-144 100 -144 277z" />
<glyph unicode="&#x418;" horiz-adv-x="1531" d="M205 0v1504h133v-1359h5l796 1359h189v-1504h-133v1364h-5l-798 -1364h-187z" />
<glyph unicode="&#x419;" horiz-adv-x="1531" d="M205 0v1504h133v-1359h5l796 1359h189v-1504h-133v1364h-5l-798 -1364h-187zM434 1938h124q0 -171 209 -171q208 0 208 171h124q0 -258 -332 -258q-333 0 -333 258z" />
<glyph unicode="&#x41a;" horiz-adv-x="1278" d="M205 0v1504h131v-645h276q260 0 260 245v153q0 134 47 187q57 60 218 60v-120q-77 0 -105.5 -24t-28.5 -90v-138q0 -128 -29 -189q-32 -72 -118 -122v-9q135 -53 181 -153q49 -99 49 -330q0 -212 93 -329h-145q-79 133 -79 312q0 243 -70 335q-69 94 -244 94h-305v-741 h-131z" />
<glyph unicode="&#x41b;" horiz-adv-x="1422" d="M18 0v140q63 -27 135 -27q170 0 170 341v1050h898v-1504h-135v1381h-630v-974q0 -209 -78 -318q-74 -104 -202 -104q-106 0 -158 15z" />
<glyph unicode="&#x41c;" horiz-adv-x="1951" d="M205 0v1504h196l587 -1308l556 1308h205v-1504h-129v1370l-585 -1370h-98l-603 1341v-1341h-129z" />
<glyph unicode="&#x41d;" horiz-adv-x="1492" d="M205 0v1504h133v-668h815v668h133v-1504h-133v719h-815v-719h-133z" />
<glyph unicode="&#x41e;" horiz-adv-x="1609" d="M140 752q0 360 182 569q180 207 483 207q299 0 481 -209q185 -212 185 -567q0 -359 -183 -569q-181 -208 -483 -208t-483 208q-182 209 -182 569zM283 752q0 -303 142 -481q141 -177 380 -177q237 0 378 177q143 176 143 481q0 304 -143 480q-142 178 -378 178 q-238 0 -380 -178t-142 -480z" />
<glyph unicode="&#x41f;" horiz-adv-x="1476" d="M205 0v1504h1067v-1504h-133v1382h-801v-1382h-133z" />
<glyph unicode="&#x420;" horiz-adv-x="1264" d="M207 0v1504h360q324 0 448 -80q182 -116 182 -334q0 -451 -532 -451q-160 0 -322 39v-678h-136zM343 805q171 -44 338 -44q178 0 273.5 84.5t95.5 238.5q0 159 -96 228.5t-309 69.5h-302v-577z" />
<glyph unicode="&#x421;" horiz-adv-x="1390" d="M145 750q0 368 171 572q173 206 478 206q211 0 341.5 -100t150.5 -275h-143q-15 121 -111 191.5t-247 70.5q-225 0 -356 -178q-135 -182 -135 -496q0 -298 135 -474q135 -173 361 -173q147 0 244 71t119 193h148q-34 -185 -172 -284t-361 -99q-290 0 -457 201 q-166 203 -166 574z" />
<glyph unicode="&#x422;" horiz-adv-x="1155" d="M29 1382v122h1099v-122h-478v-1382h-140v1382h-481z" />
<glyph unicode="&#x423;" horiz-adv-x="1291" d="M71 1504h147l450 -1212h6l430 1212h148l-558 -1528q-100 -272 -356 -272q-88 0 -140 16v122q4 -4 36 -11q48 -13 86 -13q210 0 278 255l5 23z" />
<glyph unicode="&#x424;" horiz-adv-x="1857" d="M94 765q0 312 215 461q161 111 392 111h164v192h129v-192h163q235 0 392 -111q217 -151 217 -461q0 -312 -217 -463q-157 -111 -392 -111h-163v-216h-129v216h-164q-231 0 -392 111q-215 149 -215 463zM236 765q0 -261 167 -378q122 -89 311 -89h151v934h-151 q-187 0 -311 -88q-167 -117 -167 -379zM994 298h150q190 0 309 89q171 117 171 378q0 262 -171 379q-121 88 -309 88h-150v-934z" />
<glyph unicode="&#x425;" horiz-adv-x="1246" d="M15 0l530 777l-498 727h158l420 -612l418 612h156l-498 -727l531 -777h-155l-452 663l-456 -663h-154z" />
<glyph unicode="&#x426;" horiz-adv-x="1476" d="M203 0v1504h133v-1382h801v1382h133v-1382h189v-429h-138l18 307h-1136z" />
<glyph unicode="&#x427;" horiz-adv-x="1262" d="M71 1057v447h147v-454q0 -154 95.5 -238.5t273.5 -84.5q170 0 338 43v734h134v-1504h-134v643q-158 -38 -322 -38q-532 0 -532 452z" />
<glyph unicode="&#x428;" horiz-adv-x="2119" d="M203 0v1504h133v-1380h658v1380h132v-1380h658v1380h134v-1504h-1715z" />
<glyph unicode="&#x429;" horiz-adv-x="2119" d="M203 0v1504h133v-1382h658v1382h132v-1382h658v1382h134v-1382h187v-429h-138l20 307h-1784z" />
<glyph unicode="&#x42a;" horiz-adv-x="1417" d="M71 1370v134h421v-643q157 36 322 36q534 0 534 -450q0 -447 -556 -447h-432v1384zM492 122h340q196 0 282.5 78.5t86.5 253.5q0 154 -96.5 238.5t-272.5 84.5q-175 0 -340 -43v-612z" />
<glyph unicode="&#x42b;" horiz-adv-x="1686" d="M205 0v1504h133v-643q158 36 321 36q534 0 534 -450q0 -447 -555 -447h-433zM338 122h340q196 0 283 81q85 77 85 251q0 154 -96.5 238.5t-271.5 84.5q-172 0 -340 -43v-612zM1350 0v1504h132v-1504h-132z" />
<glyph unicode="&#x42c;" horiz-adv-x="1262" d="M205 0v1504h133v-643q158 36 321 36q534 0 534 -450q0 -447 -555 -447h-433zM338 122h340q196 0 283 81q85 77 85 251q0 154 -96.5 238.5t-271.5 84.5q-172 0 -340 -43v-612z" />
<glyph unicode="&#x42d;" horiz-adv-x="1390" d="M89 358h149q22 -122 119 -193t244 -71q227 0 360 169q136 170 136 460h-570v123h570q0 247 -142 409q-141 160 -350 160q-151 0 -246 -70.5t-110 -191.5h-145q22 175 152.5 275t341.5 100q317 0 485 -206q161 -200 161 -572t-165 -574q-164 -201 -456 -201 q-222 0 -359.5 99t-174.5 284z" />
<glyph unicode="&#x42e;" horiz-adv-x="1992" d="M205 0v1504h133v-658h209q24 318 194 500t449 182q301 0 474 -209q174 -207 174 -567q0 -359 -174 -569q-172 -208 -474 -208q-294 0 -471 201q-174 204 -174 549h-207v-725h-133zM688 752q0 -304 135 -483q134 -175 367 -175q235 0 369 175q136 176 136 483 q0 305 -136 481q-133 177 -369 177q-234 0 -367 -180q-135 -182 -135 -478z" />
<glyph unicode="&#x42f;" horiz-adv-x="1381" d="M203 0q31 76 31 265q0 89 22 193q23 96 49 132q85 121 209 157v7q-280 60 -280 360q0 390 533 390h461v-1504h-131v679h-349q-206 0 -285 -94q-85 -102 -85 -334q0 -157 -29 -251h-146zM378 1097q0 -142 132 -225q113 -76 273 -76h314v588h-336q-383 0 -383 -287z" />
<glyph unicode="&#x430;" horiz-adv-x="1082" d="M100 292q0 160 132.5 253t368.5 93h182v123q0 213 -253 213q-240 0 -254 -189h-132q33 287 385 287q186 0 283 -80q68 -58 91 -142q14 -59 14 -194v-458q0 -84 17 -198h-122q-19 77 -22 154h-7q-142 -178 -340 -178q-160 0 -251.5 84.5t-91.5 231.5zM225 292 q0 -94 64 -151t174 -57q141 0 233 89q87 90 87 216v150h-153q-405 0 -405 -247z" />
<glyph unicode="&#x431;" horiz-adv-x="1205" d="M124 625v127q0 378 103 518q104 140 363 140h118q133 0 182 7q86 7 173 51v-102q-99 -56 -316 -56h-153q-215 0 -300 -142q-61 -106 -61 -327h3q37 91 151 153q101 54 216 54q231 0 356 -127t125 -365v-73q0 -245 -134 -376q-129 -129 -347 -129q-479 0 -479 647z M247 483q0 -184 102 -300q97 -110 254 -110q162 0 258 103q96 106 96 307v73q0 392 -354 392q-153 0 -252 -102q-104 -107 -104 -290v-73z" />
<glyph unicode="&#x432;" horiz-adv-x="1146" d="M178 0v1048h509q140 0 220.5 -65t80.5 -176q0 -107 -38 -160q-35 -52 -143 -88v-5q221 -54 221 -292q0 -262 -347 -262h-503zM303 98h365q124 0 178.5 42t54.5 140q0 120 -69 172.5t-223 52.5h-306v-407zM303 596h287q276 0 276 180q0 176 -237 176h-326v-356z" />
<glyph unicode="&#x433;" horiz-adv-x="803" d="M178 0v1048h570v-118h-441v-930h-129z" />
<glyph unicode="&#x434;" horiz-adv-x="1155" d="M5 109h53q155 0 155 276v663h746v-939h160v-391h-131l13 282h-876l13 -282h-133v391zM249 109h583v830h-500v-574q0 -196 -83 -252v-4z" />
<glyph unicode="&#x435;" horiz-adv-x="1173" d="M120 516q0 254 132 405q134 153 353 153q208 0 336 -142q127 -140 127 -385v-37h-805q0 -205 92.5 -316.5t260.5 -111.5q119 0 203 68.5t104 181.5h131q-23 -167 -144 -262t-311 -95q-219 0 -350 145q-129 149 -129 396zM267 610h661q-11 170 -99 266t-231 96 q-288 0 -331 -362z" />
<glyph unicode="&#x436;" horiz-adv-x="1485" d="M62 0q65 89 65 260q0 253 184 303v6q-41 23 -64 83q-25 59 -25 116v88q0 94 -95 94h-38v98h65q101 0 144 -43q51 -45 51 -171v-64q0 -174 192 -174q83 0 138 13v439h128v-439q55 -13 138 -13q192 0 192 174v64q0 125 49 171q43 43 145 43h64v-98h-38q-93 0 -93 -94v-88 q0 -57 -25 -116q-22 -59 -66 -83v-6q184 -50 184 -303q0 -171 65 -260h-129q-63 98 -63 251q0 137 -57 190q-63 60 -241 60h-125v-501h-128v501h-125q-179 0 -245 -60q-55 -53 -55 -190q0 -157 -61 -251h-131z" />
<glyph unicode="&#x437;" horiz-adv-x="1066" d="M109 312h118q0 -234 291 -234q305 0 305 214q0 110 -89 166q-80 49 -220 49h-82v94h82q121 0 194 49q82 53 82 149q0 175 -265 175q-271 0 -271 -207h-112q0 140 96 221q103 86 291 86q381 0 381 -264q0 -110 -47 -165q-43 -52 -155 -82v-5q136 -30 193 -109 q47 -64 47 -178q0 -142 -112 -219t-318 -77q-188 0 -298.5 90.5t-110.5 246.5z" />
<glyph unicode="&#x438;" horiz-adv-x="1257" d="M178 0v1048h127v-928h4l588 928h186v-1048h-128v930h-5l-589 -930h-183z" />
<glyph unicode="&#x439;" horiz-adv-x="1257" d="M178 0v1048h127v-928h4l588 928h186v-1048h-128v930h-5l-589 -930h-183zM305 1504h100q0 -72 65 -121.5t159 -49.5q96 0 160.5 49.5t64.5 121.5h101q0 -120 -107 -194q-97 -68 -219 -68q-126 0 -220 68q-104 74 -104 194z" />
<glyph unicode="&#x43a;" horiz-adv-x="1020" d="M178 0v1048h127v-439q55 -13 175 -13q192 0 192 174v64q0 126 51 171q43 43 143 43h66v-98h-38q-95 0 -95 -94v-88q0 -61 -23 -116q-22 -59 -66 -83v-6q184 -50 184 -303q0 -171 65 -260h-129q-63 96 -63 251q0 137 -55 190q-66 60 -243 60h-164v-501h-127z" />
<glyph unicode="&#x43b;" horiz-adv-x="1186" d="M25 0v109q37 -15 82 -15q107 0 140 82q16 42 16 173v699h745v-1048h-127v939h-500v-574q0 -211 -69 -303q-57 -77 -187 -77q-55 0 -100 15z" />
<glyph unicode="&#x43c;" horiz-adv-x="1631" d="M178 0v1048h196l443 -917l442 917h198v-1048h-129v834l11 85h-11l-449 -919h-125l-449 919h-11l11 -85v-834h-127z" />
<glyph unicode="&#x43d;" horiz-adv-x="1171" d="M178 0v1048h127v-436h563v436h129v-1048h-129v518h-563v-518h-127z" />
<glyph unicode="&#x43e;" horiz-adv-x="1202" d="M122 525q0 250 138 398q131 151 341 151q211 0 345 -151q137 -151 137 -398q0 -246 -137 -400q-134 -150 -345 -150t-345 150q-134 154 -134 400zM256 525q0 -202 93 -319t252 -117q158 0 251.5 117t93.5 319q0 205 -94 320q-90 114 -251 114q-157 0 -250 -114 q-95 -116 -95 -320z" />
<glyph unicode="&#x43f;" horiz-adv-x="1171" d="M178 0v1048h819v-1048h-129v935h-563v-935h-127z" />
<glyph unicode="&#x440;" horiz-adv-x="1212" d="M151 1050h127l27 -156h4q53 84 149 134q89 46 198 46q197 0 318 -148q121 -145 121 -396q0 -260 -115 -407t-313 -147q-223 0 -358 195v-567h-131v1166q0 169 -27 280zM309 507q0 -176 103 -298q100 -122 231 -122q152 0 235 115.5t83 327.5q0 207 -85.5 323.5 t-237.5 116.5q-145 0 -242 -129q-87 -120 -87 -285v-49z" />
<glyph unicode="&#x441;" horiz-adv-x="1089" d="M120 512q0 271 120 416.5t343 145.5q177 0 282 -95q99 -89 116 -256h-142q-10 115 -81.5 183t-181.5 68q-320 0 -320 -456q0 -431 320 -431q229 0 270 233h135q-11 -165 -115 -255t-283 -90q-218 0 -340.5 143t-122.5 394z" />
<glyph unicode="&#x442;" horiz-adv-x="979" d="M56 930v118h869v-118h-369v-930h-129v930h-371z" />
<glyph unicode="&#x443;" horiz-adv-x="1029" d="M25 1048h157l345 -865h3l346 865h136l-578 -1444h-132l158 400z" />
<glyph unicode="&#x444;" horiz-adv-x="1901" d="M120 530q0 248 125 386q116 132 322 132q182 0 314 -154h5v488h131v-488h4q132 154 316 154q205 0 321 -132q126 -139 126 -386q0 -256 -126 -396q-117 -134 -321 -134q-109 0 -176 40q-57 35 -140 131h-4v-567h-131v567h-5q-83 -99 -140 -131q-67 -40 -174 -40 q-205 0 -322 134q-125 138 -125 396zM252 530q0 -209 91 -321q80 -107 224 -107q129 0 223 112q96 117 96 293v49q0 165 -87 274q-86 116 -232 116t-224 -105q-91 -108 -91 -311zM1017 507q0 -175 97 -293q94 -112 223 -112q141 0 225 107q87 111 87 321q0 204 -87 311 q-83 105 -225 105q-147 0 -236 -116q-84 -110 -84 -274v-49z" />
<glyph unicode="&#x445;" horiz-adv-x="1016" d="M33 0l408 547l-374 501h136l304 -409l307 409h136l-374 -501l409 -547h-135l-343 458l-340 -458h-134z" />
<glyph unicode="&#x446;" horiz-adv-x="1168" d="M178 0v1048h127v-935h549v935h127v-939h162v-391h-131l11 282h-845z" />
<glyph unicode="&#x447;" horiz-adv-x="1043" d="M89 728v320h122v-281q0 -124 52 -180q60 -60 202 -60q137 0 272 47v474h128v-1048h-128v474q-156 -42 -301 -42q-177 0 -269 95q-78 78 -78 201z" />
<glyph unicode="&#x448;" horiz-adv-x="1771" d="M178 0v1048h127v-935h518v935h127v-935h518v935h129v-1048h-1419z" />
<glyph unicode="&#x449;" horiz-adv-x="1768" d="M178 0v1048h127v-935h518v935h127v-935h518v935h129v-935h145v-395h-131l13 282h-1446z" />
<glyph unicode="&#x44a;" horiz-adv-x="1146" d="M25 925v123h342v-458q133 33 303 33q378 0 378 -314q0 -125 -87 -209q-100 -100 -280 -100h-441v939zM367 98h312q115 0 182 58q60 57 60 147q0 116 -62 169t-201 53q-141 0 -291 -33v-394z" />
<glyph unicode="&#x44b;" horiz-adv-x="1463" d="M178 0v1048h127v-458q134 33 304 33q377 0 377 -314q0 -126 -89 -209q-100 -100 -279 -100h-440zM305 98h311q117 0 181 58q62 56 62 147q0 117 -61.5 169.5t-201.5 52.5q-141 0 -291 -33v-394zM1157 0v1048h129v-1048h-129z" />
<glyph unicode="&#x44c;" horiz-adv-x="1105" d="M178 0v1048h127v-458q134 33 284 33q416 0 416 -321q0 -123 -88 -208q-95 -94 -279 -94h-460zM305 98h333q239 0 239 207q0 101 -70 158q-75 62 -217 62q-135 0 -285 -33v-394z" />
<glyph unicode="&#x44d;" horiz-adv-x="1089" d="M109 320h136q41 -233 269 -233q320 0 320 420h-413v94h413q0 174 -81.5 273.5t-223.5 99.5q-114 0 -188 -62t-89 -171h-136q15 154 122.5 243.5t277.5 89.5q239 0 350 -144q106 -139 106 -418q0 -251 -123.5 -394t-341.5 -143q-176 0 -281 90.5t-117 254.5z" />
<glyph unicode="&#x44e;" horiz-adv-x="1531" d="M178 0v1048h129v-447h183q19 217 144 345q123 128 316 128q209 0 334 -149q127 -149 127 -400t-127 -400q-126 -150 -334 -150t-336 145q-125 143 -125 387h-182v-507h-129zM625 520q0 -207 84 -319t241 -112q154 0 240.5 114.5t86.5 321.5q0 206 -85.5 320t-241.5 114 q-157 0 -241 -111.5t-84 -318.5v-9z" />
<glyph unicode="&#x44f;" horiz-adv-x="1121" d="M109 0q27 68 27 180v49q0 93 46 160q38 60 109 80v3q-175 81 -175 276q0 124 89 207q101 93 280 93h460v-1048h-128v427l-149 5q-140 0 -192 -5q-85 -8 -144 -62q-69 -61 -69 -154q0 -161 -18 -211h-136zM245 743q0 -120 77.5 -169t264.5 -49q172 0 230 13v412h-307 q-265 0 -265 -207z" />
<glyph unicode="&#x451;" horiz-adv-x="1152" d="M122 516q0 254 132 405q134 153 355 153q207 0 334 -142q127 -140 127 -385v-37h-805q0 -205 92.5 -316.5t260.5 -111.5q119 0 203 68.5t104 181.5h130q-23 -167 -143.5 -262t-310.5 -95q-219 0 -350 145q-129 149 -129 396zM269 610h661q-11 170 -99 266t-232 96 q-287 0 -330 -362zM363 1272v147h147v-147h-147zM698 1272v147h147v-147h-147z" />
<glyph unicode="&#x10a0;" horiz-adv-x="1166" d="M131 445q0 179 121 316h93q-111 -157 -111 -316q0 -224 115 -321t240 -97q128 0 236 91q105 89 105 329q0 266 -238 487q-237 221 -234 532h101q0 -290 238 -501t238 -518q0 -249 -132 -371q-128 -121 -314 -121q-195 0 -327 125q-131 128 -131 365z" />
<glyph unicode="&#x10a1;" horiz-adv-x="1205" d="M131 461q0 454 450 504q111 197 -58 303q-168 106 -176 220h140q3 -121 140 -206q141 -88 40 -319q199 -34 303 -160.5t104 -341.5q0 -211 -131 -359q-128 -147 -340 -147q-208 0 -341 143q-131 145 -131 363zM234 460q0 -205 109 -318q112 -115 258 -115 q181 0 276 113.5t95 319.5q0 197 -96 313.5t-275 132.5q-173 -11 -270 -130t-97 -316z" />
<glyph unicode="&#x10a2;" horiz-adv-x="1310" d="M109 469q0 200 156 350q159 151 385 151h28q212 155 212 271q0 89 -78 141q-77 51 -183 51q-128 0 -204 -47.5t-76 -132.5q0 -47 23 -105l-89 -2q-27 52 -27 102q0 115 101 185.5t272 70.5q168 0 259 -78q93 -80 93 -185q0 -124 -200 -280q188 -54 302 -174 q118 -124 118 -318q0 -204 -160 -360q-158 -154 -396 -154t-387 152t-149 362zM214 469q0 -203 124 -324q127 -118 309 -118q217 0 334 131q118 132 118 314q0 177 -129 304q-126 125 -320 125q-202 0 -318 -122q-118 -121 -118 -310z" />
<glyph unicode="&#x10a3;" horiz-adv-x="1861" d="M131 1046q0 191 109 324t347 136q189 -3 327 -178q140 176 363 176q195 0 323 -131q129 -129 129 -374q0 -230 -132 -369q-131 -140 -320 -140q-195 0 -325 139q-131 140 -131 374q0 164 56 269q-126 158 -292 161q-171 -1 -261 -106t-90 -281q0 -295 155 -481 q157 -187 372 -260q496 -139 618 -334h-166q-31 114 -181 167q-147 55 -267 58q-196 -13 -420 -149v116l374 82v6q-250 71 -419 279q-169 209 -169 516zM921 1003q0 -242 105 -338q106 -96 256 -96q115 0 226 96q112 97 112 332q0 215 -87 325.5t-247 110.5q-154 0 -260 -87 q-105 -86 -105 -343z" />
<glyph unicode="&#x10a4;" horiz-adv-x="1219" d="M109 336q0 153 114 303h102q-111 -139 -111 -303q0 -172 120 -240q122 -67 253 -67q132 0 252 69q118 71 118 242v821q0 168 -103 220q-100 52 -215 52q-153 0 -237 -62.5t-84 -177.5q0 -84 49 -194h-87q-62 78 -62 194q0 132 109 222q110 89 303 89q197 0 311 -86.5 t114 -256.5v-821q0 -186 -143 -286q-139 -99 -325 -99q-191 0 -336 107q-142 107 -142 274z" />
<glyph unicode="&#x10a5;" horiz-adv-x="1186" d="M109 343q0 98 74 216h99q-68 -151 -68 -216q0 -157 109 -236q107 -78 264 -78q168 0 266.5 81t98.5 213v142q0 186 -96 249q-95 65 -198 65h-160v82h161q89 0 191 85t102 220q0 127 -102 196q-101 71 -254 71q-125 0 -220 -67q-94 -66 -100 -163q0 -58 46 -153h-99 q-47 68 -47 151q0 121 118 212q121 91 296 91q224 0 344.5 -92.5t120.5 -247.5q0 -204 -261 -337v-17q261 -76 261 -354v-133q0 -155 -116 -261q-118 -107 -352 -107q-205 0 -342 107q-136 109 -136 281z" />
<glyph unicode="&#x10a6;" horiz-adv-x="1243" d="M98 1212q0 116 93 203q92 89 272 89q177 0 273 -93t96 -214q0 -45 -12.5 -82.5t-37 -67.5t-52 -52.5t-67.5 -46.5q172 -7 312 -138q139 -127 139 -349q0 -239 -144 -372q-145 -134 -343 -134q-186 0 -335 136q-148 135 -148 370q0 115 54 242q55 129 223 202 q-124 13 -225 81q-98 71 -98 226zM191 1208q0 -122 83 -189t191 -67q132 0 203 62t71 176q0 133 -83 189q-85 58 -191 58t-191 -58q-83 -56 -83 -171zM245 461q0 -221 127 -327q126 -105 255 -105q130 0 259 105q133 106 133 327q0 197 -118 315t-274 118q-161 0 -271 -122 q-111 -123 -111 -311z" />
<glyph unicode="&#x10a7;" horiz-adv-x="1898" d="M131 679q0 504 132 663q135 162 346 162q284 0 372 -203q71 108 157.5 155.5t203.5 47.5q193 0 309 -143q118 -145 118 -538q0 -628 -347 -876h-130q376 256 376 876q0 389 -104 499q-103 109 -216 109q-127 0 -195 -45q-71 -47 -138 -136q59 -172 59 -576 q0 -377 -128 -549q-127 -170 -337 -170q-213 0 -347 174q-131 178 -131 550zM234 679q0 -359 100 -505q101 -145 269 -145q164 0 267 136q104 140 104 514q3 560 -106 658q-104 94 -265 94q-175 0 -271 -132q-98 -134 -98 -620z" />
<glyph unicode="&#x10a8;" horiz-adv-x="1205" d="M131 776q0 423 138 574q138 154 340 154q187 0 325 -154q140 -157 140 -574q0 -526 -237 -812h-136q271 200 271 835q0 375 -111 503q-111 129 -252 129q-152 0 -264 -129q-111 -128 -111 -499q0 -641 278 -841h-149q-232 288 -232 814z" />
<glyph unicode="&#x10a9;" horiz-adv-x="1186" d="M109 351q0 139 82 210l76 -16q-53 -91 -53 -194q0 -173 126 -247q129 -75 243 -75q123 0 245 67q124 68 124 235v132q0 178 -135 258q-131 78 -247 78h-199v84h203q120 0 229 69q107 68 107 174q0 196 -307 293l26 67q379 -101 379 -353q0 -89 -58 -150 q-57 -60 -222 -137v-21q146 -27 237 -129q90 -100 90 -231v-134q0 -170 -139 -273t-333 -103q-190 0 -332 105q-142 107 -142 291z" />
<glyph unicode="&#x10aa;" horiz-adv-x="2432" d="M131 1077q0 163 100 285q101 124 328 124q128 0 211 -54t135 -177h3q37 134 115 191.5t207 57.5q128 0 200.5 -56.5t111.5 -192.5h9q62 231 335 231q415 0 415 -382q0 -364 -312 -579h-98q307 243 307 579q0 307 -312 307q-136 0 -215 -89q-80 -88 -80 -205v-252h-89v254 q0 158 -83 234q-82 78 -189 78q-108 0 -191 -89q-82 -88 -82 -205v-272h-91v272q0 100 -78 185q-79 89 -230 89q-106 0 -215 -78q-109 -79 -109 -258q0 -362 305 -566q303 -203 696 -253q351 -57 520 -272h-182q-27 137 -385 214q-156 11 -262 -2q-112 -14 -367 -142 l-25 100l385 88v18q-304 67 -548 274q-240 204 -240 543z" />
<glyph unicode="&#x10ab;" horiz-adv-x="1237" d="M131 454q0 210 129 362q127 149 358 149q192 0 352 -180h9v376q1 129 -89.5 200.5t-242.5 71.5q-149 0 -235.5 -49t-86.5 -136q0 -57 13 -102l-98 -16q-18 48 -18 122q0 112 115 182t313 70q210 0 317 -93.5t107 -273.5v-716q0 -193 -128 -330q-127 -136 -343 -136 q-202 0 -338 143q-134 145 -134 356zM234 456q0 -195 109 -311q110 -116 256 -116q140 0 260 111t120 278q0 268 -105 370q-104 104 -260 104q-157 0 -269 -107q-111 -107 -111 -329z" />
<glyph unicode="&#x10ac;" horiz-adv-x="1237" d="M165 441v781q0 218 425 218h149q171 0 171 66h136q0 -140 -307 -140h-183q-296 0 -296 -144v-437h11q141 180 368 180q243 0 353 -155q114 -156 114 -350q0 -206 -127 -355q-127 -150 -340 -150q-223 0 -348 132q-126 133 -126 354zM260 441q0 -187 102.5 -299.5 t282.5 -112.5q171 0 265.5 118t94.5 313q0 198 -100 314q-101 118 -253 118q-177 0 -285 -102q-107 -101 -107 -349z" />
<glyph unicode="&#x10ad;" horiz-adv-x="1846" d="M131 807q0 417 140 557q142 140 301 140q255 0 336 -234h20q87 234 345 234q175 0 309 -140q133 -139 133 -559q0 -603 -429 -841h-153q485 243 485 846q0 387 -108 502q-106 119 -231 119q-144 0 -226.5 -85t-82.5 -258v-519h-94v519q0 173 -81.5 258t-220.5 85 q-128 0 -238 -118q-107 -118 -107 -506q0 -599 450 -843h-141q-407 240 -407 843z" />
<glyph unicode="&#x10ae;" horiz-adv-x="1186" d="M109 358q0 115 69 232l84 -34q-48 -99 -48 -198q0 -147 115 -238t258 -91q141 0 252 93q113 95 113 265q0 179 -135 278q-134 98 -248 98h-100v64h100q118 0 210 70q93 73 93 171q0 144 -253 196q-252 54 -252 236h107q0 -125 245 -188q246 -60 246 -255 q0 -166 -260 -250v-26q171 -41 260.5 -146.5t89.5 -249.5q0 -174 -129 -303q-127 -127 -339 -127q-207 0 -342 119q-136 120 -136 284z" />
<glyph unicode="&#x10af;" horiz-adv-x="1237" d="M131 322q0 176 107 272l64 -49q-68 -80 -68 -222q0 -149 107 -223q109 -73 268 -73q125 0 245 84q121 83 121 260v1060h-23q-255 -65 -576 -92v-17q331 -57 331 -250q0 -117 -86.5 -184t-248.5 -67h-158v96l158 -11q120 3 184 35q65 35 65 142q0 89 -125 149 q-119 61 -276 61v88q458 31 766 121h88v-1130q0 -215 -142 -316t-323 -101q-195 0 -337 98q-141 98 -141 269z" />
<glyph unicode="&#x10b0;" horiz-adv-x="1843" d="M131 561q0 146 63 296q66 149 267 340q202 191 682 285v-92q-543 -80 -811 -424l99 48q79 36 152 36q143 0 218 -55q72 -51 118 -174h31q42 121 121 175t210 54q210 0 321 -130.5t111 -358.5q0 -368 -392 -588h-140q432 247 432 588q0 215 -98 316q-99 102 -234 102 q-125 0 -215 -87q-91 -88 -91 -193v-323h-87v323q0 106 -87 193t-225 87q-126 0 -235 -100q-107 -98 -107 -318q0 -337 431 -597h-144q-390 230 -390 597z" />
<glyph unicode="&#x10b1;" horiz-adv-x="1237" d="M165 436v1052h98v-1052q-3 -220 106 -316q109 -93 270 -93q151 0 258 71q108 75 108 280q0 177 -168 312q-165 135 -165 231q0 107 58 243l120 -31q-87 -107 -87 -199q0 -82 171 -215q172 -131 172 -341q0 -198 -123 -310.5t-344 -112.5q-225 0 -349.5 126.5 t-124.5 354.5z" />
<glyph unicode="&#x10b2;" horiz-adv-x="1474" d="M109 688q0 289 183 482q183 194 429 194l-38 169h124l-40 -169q231 0 414 -194q183 -193 183 -482q0 -293 -161 -514q-159 -219 -464 -219q-271 0 -450 219q-180 220 -180 514zM213 688q0 -287 163 -474q166 -185 374 -185q220 0 369 185q149 186 149 474q0 247 -140 431 q-138 184 -361 203l40 -693h-124l38 693q-231 -20 -369 -201q-139 -182 -139 -433z" />
<glyph unicode="&#x10b3;" horiz-adv-x="1273" d="M44 1388v111l129 -40q28 0 92.5 22.5t105.5 22.5q132 0 198 -198q70 198 239 198q144 0 223 -74t79 -213v-865q0 -186 -129 -291.5t-349 -105.5q-200 0 -334 107q-133 106 -133 296q0 179 115 330h92q-105 -167 -105 -325q0 -174 105 -254q107 -80 260 -80q159 0 269 71 q111 74 111 265v883q0 120 -53 156q-51 35 -149 35q-113 0 -154 -75q-42 -76 -42 -151v-261h-85v261q0 80 -40 153t-118 73q-48 0 -95 -26q-45 -25 -111 -25h-121z" />
<glyph unicode="&#x10b4;" horiz-adv-x="1757" d="M131 1044q0 180 114 320t324 140q214 0 327 -176q116 176 348 176q180 0 280 -111q104 -110 104 -278q0 -288 -253 -421v-11q225 -100 225 -256v-84q0 -171 -145 -281q-145 -107 -414 -107q-262 0 -416 92q-155 92 -155 262v52h115l-2 -52q-4 -140 115 -210t341 -70 q216 0 338 78t122 236v78q-10 95 -86 164q-74 71 -154 71h-126v65h133q74 0 165 115q93 117 93 279q0 151 -84 235q-83 83 -201 83q-197 0 -311 -163q47 -146 47 -224q0 -206 -112 -347q-110 -138 -305 -138q-181 0 -304 137q-123 139 -123 346zM234 1043q0 -201 88 -301.5 t236 -100.5q134 0 225 91t91 311q0 170 -87 279q-84 109 -218 109q-140 0 -238 -98q-97 -99 -97 -290z" />
<glyph unicode="&#x10b5;" horiz-adv-x="1219" d="M109 311q0 115 94 216l62 -47q-51 -71 -51 -169q0 -123 113 -204q115 -80 260 -80q136 0 254 80t118 238v514q3 75 -96 180q-98 107 -273 104q-128 1 -198 -56.5t-70 -156.5q0 -78 36 -145l-93 -8q-43 56 -43 153q-2 128 98.5 206.5t269.5 78.5q210 0 356 -185h13v380 h-292v80h388v-1145q0 -181 -130 -287q-130 -103 -338 -103q-190 0 -335 98q-143 100 -143 258z" />
<glyph unicode="&#x10b6;" horiz-adv-x="1768" d="M131 1039q0 212 111 338q111 127 297 127q128 0 209.5 -54.5t130.5 -165.5h17q50 113 126 166.5t202 53.5q212 0 313 -123q101 -124 101 -297q0 -318 -263 -541h-109q265 200 265 534q0 175 -92 264q-93 90 -215 90q-131 0 -213.5 -74t-82.5 -189v-303h-87v303 q0 117 -82 190t-220 73q-139 0 -222 -100.5t-83 -291.5q0 -489 502 -710q416 -130 523 -344h-147q-97 213 -347 249q-294 -20 -387 -123l-58 82q131 69 352 72v18q-541 237 -541 756z" />
<glyph unicode="&#x10b7;" horiz-adv-x="1219" d="M109 323q0 83 60 184l87 -31q-42 -87 -42 -153q0 -132 108 -214q110 -80 265 -80q149 0 261 75q111 76 111 221v482h-13q-159 -148 -345 -148q-206 0 -322.5 100t-116.5 269q0 114 60 214q66 106 248 235h109q-236 -185 -276 -267q-40 -83 -40 -184q0 -157 102 -229 q103 -70 236 -70q137 0 247 76q111 76 111 167v494h96v-1139q0 -169 -129 -271q-126 -99 -339 -99q-184 0 -331 94q-147 96 -147 274z" />
<glyph unicode="&#x10b8;" horiz-adv-x="1227" d="M87 1199v60q0 116 66 180.5t172 64.5q160 0 233 -156h11q81 156 223 156q137 0 203 -78q68 -80 68 -182v-844q0 -189 -126 -316q-124 -129 -336 -129q-224 0 -350 154q-129 158 -129 341q0 207 121 349q125 146 347 146q216 0 360 -180h16v483q0 92 -53 142t-125 50 q-74 0 -129 -61q-56 -59 -56 -135v-140h-82v140q0 76 -43 135q-41 63 -149 60q-149 0 -149 -187v-53h-93zM223 450q0 -195 100 -308t273 -113q157 0 265 102q105 99 105 269q0 267 -101 368q-101 104 -280 104q-170 0 -267 -124q-95 -122 -95 -298z" />
<glyph unicode="&#x10b9;" horiz-adv-x="1237" d="M165 -40v1163q0 180 91.5 280.5t272.5 100.5q168 0 250 -78q86 -78 86 -176q0 -88 -46 -155h-82q20 65 20 155q0 87 -63.5 134t-173.5 47q-128 0 -193 -75t-65 -241v-325h14q151 175 363 175q223 0 346 -117q121 -112 121 -279q0 -317 -339 -602h-138q376 270 376 594 q0 158 -100.5 244.5t-265.5 86.5q-142 0 -259 -96q-118 -97 -118 -224v-612h-97z" />
<glyph unicode="&#x10ba;" horiz-adv-x="1380" d="M131 777q0 403 223 705h116q-236 -293 -236 -706q0 -424 140 -585q141 -162 336 -162q184 0 311 129q125 126 125 325q0 201 -116 271q-115 71 -267 71h-147v71h147q154 0 247.5 54.5t93.5 159.5q0 70 -167 160q-165 89 -165 212h100q0 -93 165 -176q166 -84 166 -200 q0 -166 -275 -243v-9q322 -68 322 -374q0 -220 -153 -373q-149 -152 -399 -152q-246 0 -406 190q-161 194 -161 632z" />
<glyph unicode="&#x10bb;" horiz-adv-x="1237" d="M131 460q0 224 129 365q131 140 343 140q221 0 349 -180h23v697h99v-1022q0 -200 -120 -353q-116 -152 -351 -152q-207 0 -341 141q-131 142 -131 364zM234 460q0 -204 99.5 -317.5t269.5 -113.5q184 0 278 110.5t94 320.5q0 218 -96 325t-278 107q-181 0 -274 -115.5 t-93 -316.5z" />
<glyph unicode="&#x10bc;" horiz-adv-x="1227" d="M165 431v811q0 104 68 184q66 78 208 78q138 0 222 -156h7q76 156 233 156q106 0 172 -64.5t66 -180.5v-102h-93v95q0 187 -151 187q-101 1 -146.5 -58t-45.5 -180v-53h-80v53q0 112 -54 175.5t-126 63.5q-78 0 -129 -49.5t-51 -146.5v-481h17q133 182 348 182 q230 0 355 -146q121 -142 121 -349q0 -185 -123 -341q-121 -154 -344 -154q-201 0 -339 129q-135 132 -135 347zM265 431q0 -196 115 -300q119 -102 265 -102q168 0 264 112.5t96 308.5q0 174 -97 298t-263 124q-177 0 -278 -96q-102 -97 -102 -345z" />
<glyph unicode="&#x10bd;" horiz-adv-x="1209" d="M131 292q0 120 42 171l92 -2q-29 -55 -29 -169q0 -143 113 -207q110 -61 256 -61q159 0 263 78q106 79 106 232q0 136 -166 351q-136 192 -149 396h-227q-102 0 -155.5 -50.5t-53.5 -125.5q0 -66 57.5 -112t153.5 -46h149v-77h-149q-125 0 -214 67t-89 169q0 100 85 171 t216 71h226v271h-227v61h316v-332h258v-67h-258q8 -218 163 -400q167 -197 167 -347q0 -162 -132 -270q-130 -109 -340 -109q-216 0 -345 99q-129 102 -129 238z" />
<glyph unicode="&#x10be;" horiz-adv-x="1237" d="M165 465v1028h97v-710h16q157 182 363 182q227 0 345 -151q120 -150 120 -351q0 -210 -134 -361q-134 -147 -333 -147q-193 0 -332 138q-142 140 -142 372zM262 463q0 -208 116 -321q119 -113 269 -113q162 0 259 124q99 125 99 310q0 209 -90.5 319t-267.5 110 q-183 0 -284 -108.5t-101 -320.5z" />
<glyph unicode="&#x10bf;" horiz-adv-x="1166" d="M131 423q0 157 80 275h92q-69 -140 -69 -275q0 -202 115 -299t240 -97q128 0 236 91q105 89 105 256q0 216 -222 367q-219 152 -212 405l-325 37v79l327 -36q14 120 63 240h104q-66 -117 -89 -240l403 -51v-78l-400 49q3 -218 229 -378q227 -161 227 -394 q0 -176 -132 -298q-128 -121 -314 -121q-195 0 -327 125q-131 128 -131 343z" />
<glyph unicode="&#x10c0;" horiz-adv-x="1209" d="M131 325q0 91 60 178l78 -20q-33 -60 -33 -160q3 -118 111 -207q112 -91 258 -91q148 0 258 80q111 79 111 238q0 287 -542 367v78q185 -23 307 -78q53 -23 122 15t69 120q0 146 -499 209v76q151 -13 270 -53q53 -14 116 22q64 38 64 107q0 86 -254 136q-255 50 -255 151 h118q0 -70 246 -114q245 -41 245 -176q0 -105 -158 -159q205 -96 205 -212q0 -111 -174 -174q223 -126 223 -311q0 -182 -125.5 -287t-346.5 -105q-248 3 -360 127q-114 127 -114 243z" />
<glyph unicode="&#x10c1;" horiz-adv-x="1210" d="M131 380v539q0 347 152 556h117q-167 -167 -167 -561v-536q0 -162 107 -255.5t310 -93.5q149 0 234.5 54t85.5 137q0 145 -298 145h-98v66h98q280 0 280 132q0 135 -298 135h-80v65h80q285 0 285 134q0 133 -298 133h-67v62h67q284 0 284 145q0 76 -108 131 q-101 54 -101 107h107q0 -53 105 -109q107 -54 107 -124q0 -130 -185 -179q198 -46 198 -166q0 -118 -198 -170q211 -47 211 -160q0 -118 -195 -171q215 -49 215 -178q0 -145 -140 -205q-142 -58 -291 -58q-259 0 -389 110.5t-130 314.5z" />
<glyph unicode="&#x10c2;" horiz-adv-x="1205" d="M131 866q0 360 138 498q140 140 334 140q191 0 331 -140t140 -498q0 -491 -376 -782q216 -106 336 -106v-105q-32 0 -425 174q-377 -171 -404 -171h-5v102q115 0 314 106q-383 290 -383 782zM234 868q0 -494 369 -746q369 244 369 744q0 291 -106 427q-105 138 -263 138 q-154 0 -262 -138q-107 -137 -107 -425z" />
<glyph unicode="&#x10c3;" horiz-adv-x="1210" d="M134 352q-3 125 59 251h103q-60 -156 -60 -251q0 -144 107 -234q105 -89 262 -89q171 0 269 93q100 93 100 210v168q0 156 -128 236q-126 81 -241 81h-164v77h160q99 0 235 114q138 113 138 411h-698v-293h-96v360h901q0 -494 -376 -627v-11q376 -97 376 -348v-168 q0 -156 -140 -267q-138 -110 -336 -110q-189 0 -331 107q-140 107 -140 290z" />
<glyph unicode="&#x10c4;" horiz-adv-x="1205" d="M131 345q0 153 60 234h98q-55 -116 -55 -234q0 -138 115 -229q114 -87 256 -87q157 0 263 73t106 270v55q0 171 -117 245q-116 75 -227 75h-160v76h160q112 0 227 94q118 97 115 487q-215 -203 -465 -203q-172 0 -274 85t-102 218h103q0 -99 77 -167q79 -67 196 -67 q264 0 465 234h102v-147q0 -476 -326 -567v-11q326 -80 326 -352v-55q0 -227 -144 -323q-138 -94 -325 -94q-191 0 -333 118q-141 117 -141 272z" />
<glyph unicode="&#x10c5;" horiz-adv-x="1349" d="M131 292q0 149 129 251q127 100 427 100h288v213h-277q-309 0 -438 83q-129 85 -129 244q0 141 121 230q124 91 347 91q211 0 342 -87q133 -84 133 -249v-240h147v-72h-147v-213h147v-73h-147v-265q0 -172 -148 -263q-144 -87 -327 -87q-237 0 -352 99q-116 100 -116 238 zM234 292q0 -126 100.5 -194.5t264.5 -68.5q162 0 269 71t107 180v290h-290q-249 0 -349 -81q-102 -82 -102 -197zM234 1183q0 -138 110 -196.5t357 -58.5h274v240q0 128 -107 196q-106 67 -269 67q-158 0 -261 -61q-104 -60 -104 -187z" />
<glyph unicode="&#x10c6;" horiz-adv-x="1798" d="M131 767v323q0 85 25.5 158.5t75 131.5t130 91t183.5 33q60 0 107 -8t96.5 -30.5t90 -68.5t71.5 -116v-2q23 70 59 116t83.5 69t95 31.5t111.5 8.5q206 0 308 -113t102 -296v-328q0 -158 -117.5 -276.5t-292.5 -118.5q-80 0 -166.5 33.5t-144.5 104.5v-208 q0 -142 -113 -218.5t-332 -83.5v65q184 4 270 61.5t86 169.5v828q0 168 -71 238.5t-243 70.5q-146 0 -228.5 -88.5t-82.5 -249.5v-328q0 -146 72.5 -228.5t227.5 -100.5v-66q-187 15 -295 122.5t-108 272.5zM948 725q0 -135 79 -206.5t230 -71.5q312 0 312 320v316 q0 71 -18.5 132.5t-55 111t-97.5 78t-139 28.5q-174 0 -242.5 -69t-68.5 -232v-407z" />
<glyph unicode="&#x10cf;" horiz-adv-x="984" d="M65 1115l49 53l373 -154l85 119q79 100 24 179q-54 77 -149 87q-82 0 -149 -44l-73 47q78 62 218 62q158 -14 218 -120t-14 -220l-89 -136l363 -149l-33 -49l-358 140l-219 -327q479 -6 486 -263q0 -324 -717 -376v81q629 43 632 293q5 104 -110.5 154t-352.5 47l-46 42 l257 378z" />
<glyph unicode="&#x10d0;" horiz-adv-x="961" d="M122 351q0 107 63 203l77 -36q-53 -74 -53 -167q0 -155 89 -217q87 -61 191 -61q103 0 183 67q84 68 84 212q0 155 -202 316q-200 164 -200 317h87q0 -133 200 -286t200 -347q0 -155 -105 -254q-104 -98 -247 -98q-154 0 -262 91q-105 92 -105 260z" />
<glyph unicode="&#x10d1;" horiz-adv-x="1000" d="M122 450q0 203 84 308t279 138q116 243 -73 372q-199 111 -205 222h89q3 -73 191 -193q183 -123 80 -403q312 -60 312 -444q0 -204 -107 -328q-106 -122 -272 -122t-273 120q-105 118 -105 330zM209 449q0 -195 85 -286q87 -90 204 -90q292 0 292 376q0 185 -76 282.5 t-216 107.5q-138 -10 -213.5 -107.5t-75.5 -282.5z" />
<glyph unicode="&#x10d2;" horiz-adv-x="1091" d="M98 -51q0 197 125 322t318 125h22q178 134 178 243q0 103 -59.5 152.5t-152.5 49.5q-101 0 -161.5 -44t-60.5 -125q0 -43 33 -109l-60 -34q-47 61 -47 138q0 110 80.5 179.5t215.5 69.5t210 -75t75 -202q0 -120 -169 -250q164 -53 256 -149q93 -98 93 -291 q0 -177 -135 -309q-133 -130 -321 -130q-189 0 -315 127q-125 126 -125 312zM185 -51q0 -176 106 -272q105 -95 239 -95q177 0 277 106q101 107 101 267q0 174 -109 274q-108 102 -258 102q-152 0 -254 -97t-102 -285z" />
<glyph unicode="&#x10d3;" horiz-adv-x="1499" d="M122 476q0 168 83 294q84 128 280 131q138 -3 245 -151q107 147 284 147q158 0 261 -114q104 -115 104 -313q0 -221 -106 -346q-107 -124 -259 -124q-156 0 -262 120q-105 121 -105 334q0 116 47 251q-89 122 -211 125q-138 -3 -207 -105q-67 -100 -67 -249 q0 -242 98 -398.5t302 -248.5q376 -123 472 -314h-135q-30 98 -119 157t-215 52q-142 0 -276 -62v100l238 9v6q-224 87 -338 264.5t-114 434.5zM739 454q0 -233 82 -307q85 -74 198 -74q93 0 178 72q89 73 89 324q0 178 -69.5 269.5t-193.5 91.5q-117 0 -202 -80 q-82 -80 -82 -296z" />
<glyph unicode="&#x10d4;" horiz-adv-x="1020" d="M109 -140q0 127 104 251l50 -44q-67 -79 -67 -207q0 -149 96 -212q98 -66 198 -66q105 0 200 69q93 67 93 235v695q0 145 -80 198q-77 51 -173 51q-117 0 -185.5 -60.5t-68.5 -159.5q0 -93 42 -163l-51 -38q-76 73 -76 201q0 119 89 202q91 85 245 85q153 0 248 -83 t95 -233v-695q0 -183 -116 -278q-118 -98 -262 -98q-156 0 -268 105q-113 105 -113 245z" />
<glyph unicode="&#x10d5;" horiz-adv-x="984" d="M109 -149q0 110 74 211l53 -49q-40 -80 -40 -162q0 -108 89 -187q91 -82 205 -82q133 0 211 72.5t78 198.5v58q0 177 -76 231q-75 56 -158 56h-125v65h127q72 0 152 88t80 218q0 125 -83 192q-83 69 -193 69q-100 0 -178 -62q-78 -59 -78 -183q0 -59 29 -107l-63 -62 q-51 82 -51 167q0 152 98 233q100 81 241 81q168 0 266.5 -90.5t98.5 -239.5q0 -197 -212 -327v-17q212 -54 212 -323v-47q0 -154 -97.5 -248.5t-278.5 -94.5q-168 0 -274 109q-107 107 -107 232z" />
<glyph unicode="&#x10d6;" horiz-adv-x="990" d="M33 1221q0 116 78 198q80 85 232 85q149 0 231 -91t82 -205q0 -86 -53.5 -162.5t-171.5 -151.5l58 3q136 0 259 -114q124 -115 124 -333q0 -238 -115 -345q-109 -105 -267 -105q-141 0 -259 107q-117 107 -117 343q0 119 49 235q53 118 240 232h-65q-114 0 -211 77 q-94 78 -94 227zM120 1217q0 -117 73 -183q75 -64 152 -64q85 0 153 60q71 60 71 171q0 126 -68 180t-156 54q-91 0 -158 -54q-67 -52 -67 -164zM203 450q0 -218 99 -299q96 -78 188 -78t191 78q102 81 102 299q0 199 -93 289q-94 91 -200 91q-109 0 -199 -96 q-88 -97 -88 -284z" />
<glyph unicode="&#x10d7;" horiz-adv-x="1526" d="M122 454q0 215 105 327q106 116 274 116q104 0 184 -44.5t123 -129.5q49 85 119.5 129.5t144.5 44.5q152 0 243 -118t91 -310q0 -296 -238 -474h-118q265 187 265 474q0 187 -80 272q-81 86 -158 86q-152 0 -236 -159q36 -128 36 -219q0 -197 -103 -324 q-103 -125 -273 -125q-172 0 -275.5 120.5t-103.5 333.5zM209 454q0 -195 76.5 -288t214.5 -93q130 0 210 96t80 285q0 213 -87 294q-88 82 -203 82q-291 0 -291 -376z" />
<glyph unicode="&#x10d8;" horiz-adv-x="999" d="M122 485q0 197 99.5 304.5t279.5 107.5q175 0 275.5 -108.5t100.5 -303.5q0 -220 -190 -476h-111q214 254 214 498q0 152 -76.5 236t-212.5 84q-137 0 -214.5 -84t-77.5 -233q0 -247 218 -501h-120q-185 252 -185 476z" />
<glyph unicode="&#x10d9;" horiz-adv-x="975" d="M98 -129q0 116 80 207l44 -60q-39 -70 -39 -147q0 -154 97 -222q95 -67 200 -67q98 0 194 60t96 189v142q0 134 -96 200q-95 67 -187 67h-136v69h138q101 0 179 65q80 68 80 169q0 170 -247 287l19 64q310 -117 310 -342q0 -90 -47 -154q-45 -60 -193 -116v-20 q120 -27 194.5 -105t74.5 -182v-144q0 -134 -109 -227q-104 -94 -270 -94q-168 0 -275 96t-107 265z" />
<glyph unicode="&#x10da;" horiz-adv-x="1974" d="M131 538q0 121 82 239q81 120 261 120q102 0 169 -51t107 -161h4q26 121 90 176t168 55q101 0 159.5 -54.5t85.5 -176.5h9q61 212 271 212q318 0 318 -354q0 -231 -211 -398h-78q200 194 200 398q0 284 -229 284q-106 0 -175 -82t-69 -211v-162h-63v166q0 171 -67 238 q-67 69 -151 69q-88 0 -156 -80t-68 -211v-182h-69v182q0 114 -61 191q-64 82 -186 82q-84 0 -169 -77q-83 -76 -83 -216q0 -315 225 -485q226 -171 505 -220q295 -57 480 -290h-131q-62 154 -389 234q-104 13 -202 7q-103 -6 -299 -67l-17 84l306 34v16 q-270 77 -418.5 251.5t-148.5 439.5z" />
<glyph unicode="&#x10db;" horiz-adv-x="1029" d="M122 443q0 186 101 320t287 134q177 0 286 -160v415q2 127 -69.5 203t-194.5 76q-117 0 -185.5 -54.5t-68.5 -141.5q0 -35 24 -102l-68 -36q-41 74 -41 142q0 106 89 185q91 80 252 80q167 0 255 -99.5t88 -276.5v-716q0 -189 -103 -299q-102 -113 -274 -113 q-163 0 -271 129q-107 131 -107 314zM209 445q0 -169 83 -271q84 -101 204 -101q115 0 205 87q93 87 93 249q0 210 -77.5 313t-209.5 103t-215 -96.5t-83 -283.5z" />
<glyph unicode="&#x10dc;" horiz-adv-x="1032" d="M153 449v783q0 239 343 239h118q136 0 136 35h109q0 -100 -245 -100h-149q-231 0 -231 -174v-502q104 167 296 167q190 0 287 -129t97 -319q0 -196 -107 -324q-106 -125 -277 -125q-176 0 -276.5 119t-100.5 330zM238 449q0 -179 77.5 -277.5t222.5 -98.5q133 0 209 97.5 t76 278.5q0 189 -84 285q-81 96 -196 96q-146 0 -225.5 -94.5t-79.5 -286.5z" />
<glyph unicode="&#x10dd;" horiz-adv-x="1506" d="M122 492q0 196 92 300.5t260 104.5q205 0 269 -225h18q64 225 273 225q143 0 248 -105q108 -105 108 -302q0 -292 -300 -479h-125q339 193 339 487q0 160 -83 243q-83 86 -182 86q-111 0 -179 -79t-68 -210v-151h-76v151q0 131 -67 210t-173 79q-104 0 -185 -84 q-82 -85 -82 -251q0 -287 303 -481h-118q-272 187 -272 481z" />
<glyph unicode="&#x10de;" horiz-adv-x="999" d="M122 371q0 119 51 185l65 -35q-29 -48 -29 -150q0 -140 91 -220q91 -78 201 -78q109 0 200 80q89 80 89 268q0 172 -105 267t-198 95h-82v65h82q92 0 187 69q93 67 93 173q0 146 -237 214q-236 70 -236 196h73q0 -74 245 -154q247 -79 247 -265q0 -88 -54 -151 q-52 -62 -209 -103v-24q140 -38 210.5 -140t70.5 -243q0 -193 -103 -306q-100 -114 -273 -114q-164 0 -272 105q-107 107 -107 266z" />
<glyph unicode="&#x10df;" horiz-adv-x="1029" d="M122 -154q0 128 87 199l47 -45q-47 -58 -47 -153q0 -127 93 -194q94 -71 199 -71q100 0 197 82q96 80 96 227v959h-22q-203 -127 -501 -151v-16q267 -57 267 -223q0 -97 -71 -160.5t-198 -63.5h-127v75h127q98 2 144.5 39.5t46.5 119.5q0 68 -97 126q-98 58 -218 58v85 q408 30 618 180h114v-1026q0 -187 -116 -284q-112 -99 -260 -99q-139 0 -259 94q-120 96 -120 242z" />
<glyph unicode="&#x10e0;" horiz-adv-x="1503" d="M122 487q0 167 114 320l354 381q104 111 186 291h110q-139 -247 -265 -364q-107 -102 -296 -256l22 -13q93 51 154 51q96 0 153 -52t96 -171h22q33 117 97.5 170t169.5 53q174 0 258 -120q87 -117 87 -290q0 -295 -270 -478h-111q296 209 296 478q0 164 -78 252 q-80 91 -182 91q-101 0 -171 -87q-69 -86 -69 -185v-169h-80v169q0 102 -67 185q-68 87 -176 87q-104 0 -185 -87q-82 -88 -82 -256q0 -268 292 -476h-112q-267 180 -267 476z" />
<glyph unicode="&#x10e1;" horiz-adv-x="1032" d="M153 469v1021h83v-1021q-3 -215 86 -307q88 -91 208 -91t206 69q87 70 87 238q0 131 -96 227q-97 97 -97 189q0 104 64 185l56 -45q-49 -89 -49 -129q0 -80 106 -173q107 -90 107 -254q0 -156 -102 -269q-100 -109 -282 -109q-178 0 -277.5 123.5t-99.5 345.5z" />
<glyph unicode="&#x10e2;" horiz-adv-x="1241" d="M98 223q0 319 156 485q157 169 356 169l-31 266h99l-31 -266q183 0 339 -169q158 -167 158 -485q0 -302 -129 -508q-128 -205 -392 -205q-243 0 -383 203q-142 205 -142 510zM185 223q0 -300 131 -470q133 -171 314 -171q191 0 311 171q120 170 120 470q0 282 -122 438 q-122 157 -292 176l31 -610h-99l31 610q-176 -19 -301 -174q-124 -157 -124 -440z" />
<glyph unicode="&#x10e3;" horiz-adv-x="1104" d="M33 874l69 40q24 -157 92 -157q51 6 84 73q36 67 111 67h11q38 0 76 -37t58 -117q28 88 66.5 121t109.5 33q116 0 179 -72t63 -207v-722q0 -182 -102.5 -284t-279.5 -102q-165 0 -270 105q-106 103 -106 263q0 134 108 262l56 -31q-76 -110 -76 -223q0 -142 81.5 -223 t206.5 -81q118 0 209 71q93 67 93 254v740q0 118 -42 152q-39 35 -91 35h-67q-47 0 -72.5 -60.5t-25.5 -159.5v-233h-67v233q0 94 -36 157t-82 63h-26q-40 0 -81 -69q-42 -70 -104 -77q-98 0 -145 186z" />
<glyph unicode="&#x10e4;" horiz-adv-x="1417" d="M122 480q0 170 91 294q90 123 259 123q170 0 267 -169q84 169 260 169q138 0 219 -88.5t81 -245.5q0 -195 -189 -316v-25q167 -71 167 -246v-138q0 -143 -104 -236q-99 -92 -245 -92q-178 0 -281 90q-102 91 -102 191q0 41 24 98h72q-5 -48 -5 -98q-3 -78 72 -143 q76 -66 217 -66q98 0 181 62q84 60 84 194v135q-6 129 -50 178t-134 49h-74v63h76q86 0 145.5 83.5t59.5 216.5q0 132 -63.5 199.5t-168.5 67.5q-137 0 -205 -172q21 -112 21 -175q0 -178 -90 -301q-91 -124 -247 -124q-143 0 -240 122q-98 124 -98 300zM209 478 q0 -169 69 -256.5t182 -87.5q108 0 181 79t73 265q0 157 -68.5 253t-173.5 96q-116 0 -189.5 -88.5t-73.5 -260.5z" />
<glyph unicode="&#x10e5;" horiz-adv-x="1020" d="M109 -140q0 156 102 247l56 -45q-71 -71 -71 -202q0 -122 87 -201q89 -79 207 -79q110 0 202 79q93 80 93 230v641q3 116 -77 207q-79 93 -194 90q-121 4 -179.5 -52t-58.5 -154q0 -103 69 -172l-62 -42q-89 95 -89 214q-2 128 80.5 202t239.5 74q146 0 263 -141h11v732 h80v-1599q0 -177 -107 -278t-271 -101q-153 0 -267 96t-114 254z" />
<glyph unicode="&#x10e6;" horiz-adv-x="1403" d="M122 520q0 182 86 279.5t228 97.5q185 0 263 -212h11q72 212 251 212q163 0 242 -103q79 -100 79 -247q0 -222 -194 -413h-58q167 188 167 407q0 144 -74 215t-162 71q-92 0 -158 -73q-64 -72 -64 -182v-211h-71v211q0 111 -64.5 183t-167.5 72q-90 0 -160 -70 q-67 -67 -67 -237q0 -282 123 -422q128 -142 271 -209q324 -111 441 -359h-119q-90 248 -289 248q-135 7 -329 -74l-5 96l274 22v16q-454 204 -454 682z" />
<glyph unicode="&#x10e7;" horiz-adv-x="1018" d="M109 -173q0 125 78 240l78 -29q-69 -109 -69 -211q0 -109 87 -176q92 -69 207 -69q123 0 209 73q89 73 89 216v416h-11q-140 -122 -277 -122q-163 0 -260 97q-95 96 -95 239q0 127 56 232t150 168h87q-130 -112 -166 -198q-38 -88 -38 -203q0 -134 82 -202 q86 -69 184 -69q108 0 199 74q89 73 89 197v388h78v-1017q0 -167 -105 -263q-104 -98 -271 -98q-148 0 -265 81q-116 79 -116 236z" />
<glyph unicode="&#x10e8;" horiz-adv-x="1032" d="M98 1168v100q0 111 53 173.5t140 62.5q123 0 183 -151h9q63 151 176 151q220 0 220 -292v-762q0 -229 -109 -339q-106 -111 -269 -111q-176 0 -278 129q-99 129 -99 321q0 209 98.5 328t278.5 119q153 0 284 -140h12v456q0 138 -43 184q-41 47 -96 47q-59 0 -102.5 -62 t-43.5 -170v-126h-65v126q0 117 -37 174.5t-118 53.5q-119 0 -119 -181v-91h-75zM211 450q0 -192 74.5 -284.5t210.5 -92.5q122 0 211 83q90 84 90 294q0 216 -79 295q-80 82 -222 82q-133 0 -209 -99t-76 -278z" />
<glyph unicode="&#x10e9;" horiz-adv-x="1029" d="M153 20v1113q0 169 82.5 270t218.5 101q143 0 220 -74q78 -72 78 -173q0 -119 -84 -193l-56 42q56 62 56 151q0 86 -60 130t-161 44q-85 0 -149 -69t-64 -234v-381h13q117 150 283 150q179 0 280 -112q100 -110 100 -273q0 -263 -274 -503h-98q285 225 285 498 q0 152 -81.5 236t-211.5 84q-109 0 -203 -91q-93 -90 -93 -229v-487h-81z" />
<glyph unicode="&#x10ea;" horiz-adv-x="1170" d="M109 191q0 368 158 690h93q-164 -314 -164 -694q0 -294 106.5 -449.5t309.5 -155.5q150 0 249 102q100 100 100 298q0 118 -89 185q-92 69 -176 69h-140v69h140q84 0 158 71q76 70 76 156q0 89 -143 162q-142 74 -142 200h78q0 -98 145 -166q146 -68 146 -198 q0 -142 -197 -259v-8q233 -68 233 -285q0 -192 -122 -330t-327 -138q-248 0 -370 185q-122 182 -122 496z" />
<glyph unicode="&#x10eb;" horiz-adv-x="1032" d="M122 449q0 214 102 331t276 117q146 0 276 -127h20v716h83v-1037q0 -194 -98 -322q-96 -127 -281 -127q-166 0 -273 118q-105 115 -105 331zM209 449q0 -193 76.5 -284.5t214.5 -91.5q146 0 221 90t75 286q0 378 -298 378q-289 0 -289 -378z" />
<glyph unicode="&#x10ec;" horiz-adv-x="1007" d="M96 1132q-3 209 58 290q61 82 180 82q120 0 186 -136q52 136 174 136q100 0 147 -66.5t47 -178.5v-104h-71v100q0 113 -40 146q-35 34 -98 34q-59 0 -96.5 -44t-37.5 -118v-154h-60v158q0 72 -37 115t-110 43q-82 0 -124 -42t-36 -260q0 -67 35 -406h20q110 170 294 170 q180 -3 263 -92q86 -92 86 -218q0 -226 -220 -603t-220 -458h-104q0 249 -60 489q-60 254 -118 610q-61 379 -58 507zM247 594q6 -175 58 -383q54 -215 89 -571h13q73 182 223 458q153 281 153 487q0 116 -64 179t-192 63q-108 0 -195 -66q-85 -67 -85 -167z" />
<glyph unicode="&#x10ed;" horiz-adv-x="974" d="M109 -124q0 142 109 264l56 -36q-78 -96 -78 -228q0 -159 91 -227q92 -69 202 -69q119 0 205 75q85 74 85 221q0 133 -132 271q-131 140 -131 338v303h-165q-80 0 -124 -48.5t-44 -110.5q0 -47 44 -100q42 -51 125 -51h15v-66h-15q-97 0 -172 64q-71 66 -71 154 q0 86 69 155t173 69h165v180q0 87 -113 156q-111 68 -111 292h80q0 -182 108 -260q109 -73 109 -187v-181h248v-66h-248v-319q0 -150 138 -298q139 -146 139 -295q0 -156 -105 -261t-272 -105q-169 0 -276 107q-104 107 -104 259z" />
<glyph unicode="&#x10ee;" horiz-adv-x="1032" d="M153 456v1030h81v-745h15q123 156 283 156q189 0 285 -127q97 -127 97 -316q0 -208 -109 -330q-107 -124 -275 -124q-151 0 -265 114q-112 115 -112 342zM234 454q0 -201 91 -292q89 -89 214 -89q129 0 206.5 100.5t77.5 280.5q0 194 -70.5 283.5t-213.5 89.5 q-147 0 -226 -94t-79 -279z" />
<glyph unicode="&#x10ef;" horiz-adv-x="874" d="M87 -403q358 30 358 196q0 154 -251 231l-27 61l269 324l-320 303h107l264 -254l100 114q82 95 96 189q0 110 -129 113q-76 -6 -111 -28l-40 46q68 48 155 51q194 -3 194 -186q-3 -117 -127 -252l-93 -98l298 -294l-102 1l-241 247l-227 -288q256 -91 269 -278 q0 -247 -442 -271v73z" />
<glyph unicode="&#x10f0;" horiz-adv-x="1000" d="M122 340q0 90 51 172l63 -43q-27 -36 -27 -131q3 -115 89 -191q91 -74 202 -74q117 0 203 65q87 68 87 211q0 231 -430 321v77q151 -24 250 -77q42 -19 95 17q51 35 51 116q0 142 -398 202v76q131 -17 216 -53q51 -13 96.5 24t45.5 101q0 127 -204 168q-201 41 -201 172 h76q0 -79 209 -125t209 -216q0 -103 -127 -155q161 -93 161 -207q0 -108 -132 -160q172 -127 172 -278q0 -168 -99.5 -260t-279.5 -92q-198 3 -287 113q-91 112 -91 227z" />
<glyph unicode="&#x10f1;" horiz-adv-x="975" d="M109 454v440q0 372 124 594h92q-131 -181 -131 -602v-432q0 -195 82 -288t253 -93q82 0 167 38t85 151q0 161 -218 161h-100v64h100q204 0 204 123q0 131 -213 131h-91v62h91q202 0 202 129q0 118 -215 118h-78v65h78q206 0 206 138q0 59 -82 117t-82 118h82 q0 -59 83 -118q84 -60 84 -113q0 -115 -162 -173q176 -52 176 -152q0 -111 -179 -165q187 -46 187 -153q0 -108 -176 -160q190 -54 190 -192q0 -135 -111 -198q-113 -64 -228 -64q-213 0 -316.5 110.5t-103.5 343.5z" />
<glyph unicode="&#x10f2;" horiz-adv-x="974" d="M109 -54q211 0 311 114q-311 174 -311 416q0 216 113 318q110 103 268 103q154 0 264 -100q112 -101 112 -323q0 -240 -305 -414q96 -114 305 -114v-90q-146 0 -377 186q-231 -187 -380 -184v88zM196 496q0 -138 75.5 -241.5t218.5 -158.5q289 108 289 396q0 172 -87 253 q-88 82 -202 82q-107 0 -201 -82q-93 -81 -93 -249z" />
<glyph unicode="&#x10f3;" horiz-adv-x="975" d="M109 -140q0 103 73 213l70 -44q-56 -56 -56 -169q0 -142 87 -209q92 -69 207 -69q119 0 204 71q85 68 85 236v69q0 151 -77 231t-253 80h-91v65h89q169 0 250.5 120t81.5 378h-561v-300h-73v360h723q0 -487 -281 -585q154 -46 218 -124q63 -73 63 -225v-69 q0 -183 -111 -280q-109 -99 -267 -99q-156 0 -268 98q-113 98 -113 252z" />
<glyph unicode="&#x10f4;" horiz-adv-x="975" d="M109 -129q0 156 105 280l57 -40q-75 -116 -75 -240q0 -152 91 -220q92 -69 203 -69q108 0 200 69q89 67 89 220v147q0 347 -247 347h-152v66h154q118 0 182.5 105.5t64.5 313.5q-195 -94 -269 -94q-181 0 -292 96q-111 98 -111 240q0 187 131 298q132 110 319 110v-67 q-168 -1 -265.5 -90t-97.5 -237q0 -155 102 -216q105 -58 212 -58q179 0 358 198v-184q0 -158 -54 -274t-167 -167q122 -53 171.5 -144.5t49.5 -242.5v-147q0 -162 -116 -262q-115 -99 -262 -99q-168 0 -274 109q-107 107 -107 252z" />
<glyph unicode="&#x10f5;" horiz-adv-x="999" d="M109 345q0 153 105 258t349 105h218v173h-211q-250 0 -355.5 72t-105.5 240q0 136 102 223.5t279 87.5q165 0 273 -102q105 -99 102 -303v-142h120v-76h-120v-173h120v-72h-120l3 -180q0 -245 -116 -351q-115 -105 -262 -105q-195 0 -288 104q-93 106 -93 241zM196 345 q0 -145 91 -209q90 -63 203 -63q114 0 202 85q89 86 89 334v144h-220q-190 0 -277.5 -69t-87.5 -222zM196 1193q0 -144 89 -190t287 -46h209v133q0 189 -89 265q-86 76 -202 76q-111 0 -203 -58q-91 -58 -91 -180z" />
<glyph unicode="&#x10f6;" horiz-adv-x="1438" d="M109 450q0 222 90 334.5t264 112.5q197 0 264 -209q76 209 274 209q160 0 245 -114t85 -334q0 -217 -85.5 -333t-240.5 -116q-140 0 -240 122v-195q0 -251 -78 -330q-76 -84 -197 -84v67q47 0 117 39q71 36 71 303v610q0 143 -60.5 220.5t-157.5 77.5q-101 0 -182 -87 q-82 -88 -82 -294q0 -203 91 -291q91 -85 156 -85v-73q-138 0 -236 134t-98 316zM765 352q0 -279 241 -279q102 0 169 83q69 86 69 293q0 206 -71 294q-67 87 -168 87q-111 0 -175.5 -77t-64.5 -221v-180z" />
<glyph unicode="&#x10f7;" horiz-adv-x="1032" d="M98 -125q0 256 313 412q312 157 312 351q0 97 -59.5 150t-165.5 53q-98 0 -161 -44.5t-63 -126.5q0 -87 49 -140l-58 -47q-72 66 -72 180q0 103 81 180q82 78 236 78q142 0 215 -84q74 -82 74 -199q0 -243 -307 -384q-307 -139 -307 -381q0 -132 93.5 -211.5t246.5 -79.5 q154 0 238.5 82.5t84.5 213.5q0 153 -65 218l51 40q97 -76 100 -260q-3 -137 -109 -250q-106 -116 -300 -116t-311 114q-116 113 -116 251z" />
<glyph unicode="&#x10f8;" horiz-adv-x="974" d="M109 -129v1017h78v-388q0 -124 89 -197q91 -74 200 -74q99 0 182 69q83 67 83 202q0 115 -38 203q-37 88 -165 198h87q94 -63 149.5 -168t55.5 -232q0 -144 -94 -239q-94 -97 -260 -97q-138 0 -276 122h-13v-416q0 -143 87 -216q89 -73 211 -73q116 0 205 69 q89 67 89 176q0 102 -69 211l78 29q78 -115 78 -240q0 -156 -118 -236q-117 -81 -263 -81q-165 0 -272 98q-104 98 -104 263z" />
<glyph unicode="&#x10f9;" horiz-adv-x="1113" d="M109 474q0 180 134 311t324 131q185 0 312 -129q126 -127 126 -313q0 -195 -126 -321t-318 -126h-22q-178 -131 -178 -241q0 -103 60 -153.5t153 -50.5q101 0 161.5 44t60.5 125q0 43 -33 109l60 36q49 -62 49 -138q0 -110 -81.5 -179t-216.5 -69t-209 74.5t-74 201.5 q0 116 167 250q-163 49 -256 147q-93 97 -93 291zM194 470q0 -176 109 -276t258 -100q153 0 255 97q101 96 101 283q0 181 -105 273q-104 94 -240 94q-179 0 -278 -105q-100 -106 -100 -266z" />
<glyph unicode="&#x10fa;" horiz-adv-x="974" d="M109 530q0 168 105 267q106 100 276 100q176 0 275 -92q101 -93 101 -238q0 -141 -87 -244l-65 37q65 83 65 203q0 122 -85 193t-204 71q-114 0 -205 -77q-89 -76 -89 -223q0 -200 211 -340q211 -137 330 -289l-92 -27q-94 162 -182 165q-131 0 -212 -134l-58 54 q58 89 227 142q-311 153 -311 432z" />
<glyph unicode="&#x10fb;" horiz-adv-x="833" d="M87 5q0 35 27 63t66 28t65 -26t26 -65q0 -41 -26 -66.5t-65 -25.5q-38 0 -65.5 27.5t-27.5 64.5zM87 603q0 35 27 63t66 28t65 -26t26 -65q0 -41 -26 -67t-65 -26q-38 0 -65.5 28t-27.5 65zM529 305q0 35 27 62t67 27q37 0 63 -25.5t26 -63.5q0 -41 -27 -67.5t-62 -26.5 q-39 0 -66.5 27.5t-27.5 66.5z" />
<glyph unicode="&#x2000;" horiz-adv-x="969" />
<glyph unicode="&#x2001;" horiz-adv-x="1938" />
<glyph unicode="&#x2002;" horiz-adv-x="969" />
<glyph unicode="&#x2003;" horiz-adv-x="1938" />
<glyph unicode="&#x2004;" horiz-adv-x="646" />
<glyph unicode="&#x2005;" horiz-adv-x="484" />
<glyph unicode="&#x2006;" horiz-adv-x="323" />
<glyph unicode="&#x2007;" horiz-adv-x="323" />
<glyph unicode="&#x2008;" horiz-adv-x="242" />
<glyph unicode="&#x2009;" horiz-adv-x="387" />
<glyph unicode="&#x200a;" horiz-adv-x="107" />
<glyph unicode="&#x2010;" horiz-adv-x="755" d="M102 474v80h552v-80h-552z" />
<glyph unicode="&#x2011;" horiz-adv-x="755" d="M102 474v80h552v-80h-552z" />
<glyph unicode="&#x2012;" horiz-adv-x="1257" d="M0 389v107h1321v-107h-1321z" />
<glyph unicode="&#x2013;" horiz-adv-x="918" d="M-22 374v84h961v-84h-961z" />
<glyph unicode="&#x2014;" horiz-adv-x="1294" d="M-22 374v84h1337v-84h-1337z" />
<glyph unicode="&#x2018;" horiz-adv-x="511" d="M145 1132q0 97 50 199t137 182l33 -34q-138 -157 -138 -269q0 -9 3.5 -27t3.5 -22q3 3 17 3h11q36 0 61.5 -21.5t25.5 -58.5q0 -50 -28 -74t-67 -24q-109 0 -109 146z" />
<glyph unicode="&#x2019;" horiz-adv-x="511" d="M145 1019q74 86 105.5 148.5t31.5 118.5q0 19 -4 51q-2 -2 -16 -2h-11q-38 0 -63.5 21.5t-25.5 58.5q0 46 29 72t65 26q109 0 109 -147q0 -99 -48.5 -198.5t-136.5 -181.5z" />
<glyph unicode="&#x201a;" horiz-adv-x="511" d="M145 -318q74 88 105.5 149.5t31.5 117.5q0 19 -4 51q-2 -2 -16 -2h-11q-38 0 -63.5 21.5t-25.5 58.5q0 45 28.5 70t65.5 25q109 0 109 -144q0 -99 -48.5 -198.5t-136.5 -181.5z" />
<glyph unicode="&#x201c;" horiz-adv-x="630" d="M62 1123q0 96 49.5 197.5t137.5 181.5l33 -34q-141 -156 -144 -273l-2 -51l42 9q36 0 59 -21t23 -58q0 -51 -26 -75t-63 -24q-109 0 -109 148zM376 1123q0 96 49 197t136 182l35 -34q-142 -165 -142 -271v-51l36 7q39 0 65 -21t26 -58q0 -50 -29 -74.5t-67 -24.5 q-109 0 -109 148z" />
<glyph unicode="&#x201d;" horiz-adv-x="817" d="M145 1103q74 86 105.5 148.5t31.5 118.5q0 18 -4 50q-1 -1 -16 -1h-11q-38 0 -63.5 21.5t-25.5 58.5q0 46 29 72t65 26q109 0 109 -147q0 -99 -48.5 -198.5t-136.5 -181.5zM450 1103q74 85 105.5 147.5t31.5 119.5q0 18 -4 50q-1 -1 -16 -1h-9q-38 0 -63.5 21.5 t-25.5 58.5q0 46 28.5 72t65.5 26q107 0 107 -147q0 -100 -49 -201t-136 -179z" />
<glyph unicode="&#x201e;" horiz-adv-x="817" d="M145 -318q74 88 105.5 149.5t31.5 117.5q0 19 -4 51q-2 -2 -16 -2h-11q-38 0 -63.5 21.5t-25.5 58.5q0 45 28.5 70t65.5 25q109 0 109 -144q0 -99 -48.5 -198.5t-136.5 -181.5zM450 -318q75 87 106 148.5t31 118.5q0 19 -4 51q-2 -2 -16 -2h-9q-38 0 -63.5 21.5 t-25.5 58.5q0 46 28.5 70.5t65.5 24.5q107 0 107 -144q0 -100 -49 -201t-136 -179z" />
<glyph unicode="&#x2020;" horiz-adv-x="1105" d="M114 614v84l398 101v456h91v-463l389 -104v-83l-396 103v-964h-93v972z" />
<glyph unicode="&#x2022;" horiz-adv-x="1043" d="M354 579q0 65 51 116.5t116 51.5q67 0 117 -51t50 -117q0 -71 -49 -119t-118 -48q-67 0 -117 48.5t-50 118.5z" />
<glyph unicode="&#x2026;" horiz-adv-x="1125" d="M71 98q0 38 27.5 66.5t68.5 28.5q40 0 67.5 -27.5t27.5 -67.5q0 -43 -28 -70.5t-67 -27.5q-40 0 -68 29t-28 69zM469 98q0 38 26.5 66.5t67.5 28.5q40 0 67.5 -27.5t27.5 -67.5q0 -43 -28 -70.5t-67 -27.5q-38 0 -66 29t-28 69zM865 98q0 38 27.5 66.5t68.5 28.5 q40 0 67 -27.5t27 -67.5q0 -43 -27.5 -70.5t-66.5 -27.5q-40 0 -68 29t-28 69z" />
<glyph unicode="&#x202f;" horiz-adv-x="387" />
<glyph unicode="&#x2039;" horiz-adv-x="751" d="M140 470l356 475h100l-307 -475l305 -468h-98z" />
<glyph unicode="&#x203a;" horiz-adv-x="751" d="M156 2l307 474l-307 469h98l345 -465l-345 -478h-98z" />
<glyph unicode="&#x205f;" horiz-adv-x="484" />
<glyph unicode="&#x20ac;" horiz-adv-x="1105" d="M27 567v76h129v27q0 65 7 118h-136v77h149q19 113 68 211t124.5 172.5t182 117t230.5 42.5q156 0 289 -73l-31 -80q-118 69 -267 69q-199 0 -328 -127.5t-166 -331.5h703v-77h-716q-5 -45 -5 -109v-36h721v-76h-716q28 -228 164.5 -354t333.5 -126q159 0 298 86l27 -73 q-143 -100 -336 -100q-125 0 -230.5 43.5t-178.5 120t-119.5 179.5t-60.5 224h-136z" />
<glyph unicode="&#x2116;" horiz-adv-x="1841" d="M93 242h76q21 -54 56.5 -99t66.5 -45q55 0 93 46t38 112v1075h-200v86h295l545 -1086l60 -135v1052q0 93 63 162t145 69q78 0 140 -58.5t84 -150.5h-93q-17 51 -53 87t-78 36q-53 -1 -88 -44.5t-35 -100.5v-1223h-93l-546 1099l-62 155v-1023q0 -90 -58 -160.5 t-146 -70.5q-74 0 -134.5 64t-75.5 153zM1346 692q0 97 60 168.5t163 71.5q107 0 170 -73t63 -171q0 -104 -62 -173.5t-171 -69.5q-101 0 -162 71.5t-61 175.5zM1362 89v87h422v-87h-422zM1422 683q0 -65 43.5 -110.5t103.5 -45.5q77 -1 116 44.5t39 120.5q0 59 -44 106 t-111 47q-65 0 -106 -48t-41 -114z" />
<glyph unicode="&#x2122;" horiz-adv-x="1326" d="M73 1362v68h496v-68h-209v-501h-78v501h-209zM596 861l49 569h116l145 -369q30 -79 42 -118h4l40 114l147 373h114l55 -569h-84l-36 507h-4q-3 -9 -12 -32t-13 -32l-13 -38q-6 -10 -13 -34l-141 -364h-89l-146 374q-4 10 -20 57.5t-25 68.5h-4l-3 -120l-31 -387h-78z" />
<glyph unicode="&#x25fc;" horiz-adv-x="1061" d="M0 0v1063h1063v-1063h-1063z" />
</font>
</defs>
</svg>
