<?xml version="1.0" standalone="no"?>
<!DOCTYPE svg PUBLIC "-//W3C//DTD SVG 1.1//EN" "http://www.w3.org/Graphics/SVG/1.1/DTD/svg11.dtd" >
<svg xmlns="http://www.w3.org/2000/svg" xmlns:xlink="http://www.w3.org/1999/xlink" version="1.1">
<metadata></metadata>
<defs>
<font id="bpg_nateliregular" horiz-adv-x="999" >
<font-face units-per-em="2048" ascent="1638" descent="-410" />
<missing-glyph horiz-adv-x="495" />
<glyph unicode="&#xd;" horiz-adv-x="706" />
<glyph unicode=" "  horiz-adv-x="495" />
<glyph unicode="&#x09;" horiz-adv-x="495" />
<glyph unicode="&#xa0;" horiz-adv-x="495" />
<glyph unicode="!" horiz-adv-x="485" d="M152 92q0 47 24.5 77t71.5 30q41 0 67.5 -28t26.5 -73q0 -35 -26.5 -66.5t-69.5 -31.5h-2q-39 0 -65.5 28.5t-26.5 63.5zM182 1374h127l-45 -1028h-37z" />
<glyph unicode="&#x22;" horiz-adv-x="679" d="M135 918v473h105v-473h-105zM410 918v473h104v-473h-104z" />
<glyph unicode="#" horiz-adv-x="1427" d="M135 459l23 78h291l67 294h-321l14 76h323l101 463h112l-96 -463h244l102 463h111l-100 -463h286l-20 -76h-285l-65 -294h311l-16 -78h-312l-98 -459h-113l101 459h-248l-103 -459h-110l100 459h-299zM567 537h244l61 294h-245z" />
<glyph unicode="$" horiz-adv-x="1193" d="M168 92l51 72q57 -35 139 -60.5t179 -25.5q72 0 132 18.5t102 49t65.5 73.5t23.5 92q0 94 -75.5 159t-206.5 103q-98 39 -170 73t-119 74t-69.5 86t-22.5 103q0 121 92 201t250 100v209h94v-209q104 -6 174 -28.5t119 -48.5l-49 -74q-37 18 -104.5 46t-182.5 28 q-78 0 -133.5 -20.5t-89 -49.5t-50 -65.5t-16.5 -71.5q0 -88 70.5 -144.5t234.5 -111.5q172 -59 267.5 -140t95.5 -213q0 -47 -20.5 -100t-65.5 -97t-111.5 -77t-161.5 -43v-205h-94v205q-96 0 -190.5 23.5t-157.5 68.5z" />
<glyph unicode="%" horiz-adv-x="1734" d="M59 952q0 106 29 186.5t76 129.5t109.5 75.5t125.5 26.5h2q141 0 229.5 -95t88.5 -298q0 -106 -25.5 -185t-73 -131.5t-107.5 -78t-130 -25.5q-63 0 -121.5 23.5t-102.5 71.5t-71 123t-29 177zM156 938q0 -147 65.5 -230t165.5 -83q115 0 173 90t58 254q0 150 -53 242 t-176 92h-2q-109 0 -170 -99.5t-61 -265.5zM358 0l912 1370h92l-911 -1370h-93zM1008 410q0 106 29.5 185t77.5 131t108.5 76.5t124.5 24.5h2q143 0 230 -95t87 -298q0 -109 -25.5 -185.5t-70.5 -129.5t-107.5 -78t-132.5 -25q-63 0 -120.5 22.5t-101.5 71t-71.5 123 t-29.5 177.5zM1106 395q0 -147 64.5 -229t164.5 -82q119 0 177.5 89t58.5 253q0 154 -55.5 243t-178.5 89h-2q-109 0 -169 -95.5t-60 -267.5z" />
<glyph unicode="&#x26;" horiz-adv-x="1239" d="M66 369q0 80 23.5 139t65.5 106.5t94 84t113 63.5v6q-68 80 -98.5 149.5t-30.5 135.5q0 57 21.5 113.5t66 101.5t106.5 73.5t142 28.5q61 0 115.5 -19.5t91.5 -54t58.5 -84t21.5 -110.5q0 -102 -78 -189.5t-276 -169.5v-8q63 -72 128.5 -135t123 -121.5t105.5 -107.5 t83 -80q25 31 47.5 69.5t43 88t36.5 115t33 153.5h94q-33 -178 -81 -293t-116 -182q68 -66 125.5 -118t114.5 -99h-131l-166 151q-59 -49 -116.5 -83t-115 -55.5t-114.5 -29.5t-117 -8q-88 0 -161.5 28.5t-130 77t-89 117t-32.5 146.5zM164 385q0 -70 27.5 -127t73.5 -97 t107.5 -61.5t131.5 -21.5h4q117 0 214 43t163 110q-20 18 -67.5 64.5t-113 110t-141.5 140.5t-153 159q-35 -14 -77 -42t-79 -67t-63.5 -92t-26.5 -119zM330 1061q0 -88 40 -150.5t81 -115.5q68 31 124 61.5t99 67.5t65.5 77.5t22.5 94.5q0 35 -11.5 69.5t-36 65.5t-65.5 47 t-92 16h-2q-57 0 -99 -18.5t-70 -51t-42 -75.5t-14 -88z" />
<glyph unicode="'" horiz-adv-x="405" d="M113 1391h149l-35 -469h-82z" />
<glyph unicode="(" horiz-adv-x="608" d="M145 463q0 166 32 303t84 252t118.5 209t134.5 170h90q-86 -88 -152.5 -187.5t-114.5 -215t-72.5 -248t-24.5 -287.5q0 -152 26.5 -281t75.5 -239.5t115.5 -208t146.5 -189.5h-90q-68 72 -134.5 162t-118.5 205t-84 253t-32 302z" />
<glyph unicode=")" horiz-adv-x="608" d="M39 -457q78 90 143.5 187.5t114.5 209t75.5 243.5t26.5 290q0 152 -25.5 281t-74.5 241.5t-114.5 211t-145.5 190.5h90q63 -76 129 -169t116 -204t81.5 -249t31.5 -304q0 -170 -31.5 -306t-81.5 -249t-115.5 -204t-129.5 -169h-90z" />
<glyph unicode="*" horiz-adv-x="1230" d="M174 983q0 12 9.5 29.5t39.5 17.5l328 -33l6 15l-233 182q-14 10 -24.5 25.5t-10.5 29.5q0 18 15 30.5t34 12.5q20 0 31.5 -11t21.5 -24l193 -219l12 2l-33 297q0 41 16.5 52.5t34.5 11.5t34 -9.5t16 -37.5l-31 -314l14 -2l191 219q12 10 23 22.5t32 12.5q20 0 34.5 -14 t14.5 -33q0 -20 -12 -30.5t-25 -20.5l-231 -182l4 -15l328 33q31 0 41 -17.5t10 -29.5q0 -29 -17.5 -40t-42.5 -11q-14 0 -20 4l-299 29l-4 -13l231 -182q14 -10 25.5 -21.5t11.5 -29.5t-12 -32.5t-33 -14.5q-16 0 -31.5 10t-27.5 23l-191 221l-14 -4l31 -314 q0 -31 -15.5 -38t-34.5 -7q-18 0 -34.5 9.5t-16.5 50.5l33 299l-12 4l-193 -221q-12 -12 -27.5 -22.5t-29.5 -10.5q-18 0 -31.5 12t-13.5 31q0 14 10 28.5t25 26.5l233 182l-6 13l-313 -33q-41 0 -52.5 15.5t-11.5 35.5zM555 981q0 -27 16.5 -42t38.5 -15q25 0 44.5 15 t19.5 42q0 23 -19.5 40t-44.5 17q-23 0 -39 -17t-16 -40z" />
<glyph unicode="+" horiz-adv-x="1343" d="M162 399v64h420v393h75v-393h420v-64h-420v-399h-75v399h-420z" />
<glyph unicode="," horiz-adv-x="421" d="M92 -287q74 82 104.5 138.5t30.5 107.5q0 12 -1 23.5t-3 23.5q-2 -2 -18 -2h-6q-37 0 -63.5 19.5t-26.5 52.5q0 45 31.5 66.5t60.5 21.5q49 0 79.5 -30t30.5 -103q0 -92 -50 -182.5t-134 -165.5z" />
<glyph unicode="-" horiz-adv-x="815" d="M111 487v80h594v-80h-594z" />
<glyph unicode="." horiz-adv-x="407" d="M98 102q0 35 30 65t75 30q43 0 71.5 -28t28.5 -67q0 -45 -29.5 -73.5t-70.5 -28.5q-43 0 -74 30.5t-31 71.5z" />
<glyph unicode="/" horiz-adv-x="520" d="M2 -307l401 1677h105l-410 -1677h-96z" />
<glyph unicode="0" horiz-adv-x="913" d="M113 565v230q0 100 4 198.5t36.5 181t104.5 135t201 52.5t196.5 -52.5t100 -135t39 -181t6.5 -198.5v-230q0 -96 -6.5 -197.5t-39 -183.5t-100 -134t-196.5 -52t-201 52t-104.5 134t-36.5 183.5t-4 197.5zM201 440q0 -131 24.5 -205.5t64.5 -111.5t85 -46t84 -9t83 9 t80.5 46t63.5 111.5t27 205.5v482q0 131 -27 204.5t-63.5 108.5t-80.5 46t-83 11t-84 -11t-85 -46t-64.5 -108.5t-24.5 -204.5v-482z" />
<glyph unicode="1" horiz-adv-x="612" d="M90 1032v94q63 43 130 98.5t120 114.5h82v-1325h-80v1248q-66 -57 -131.5 -121t-120.5 -109z" />
<glyph unicode="2" horiz-adv-x="913" d="M113 27v86q111 166 217 310t191 268t136.5 219.5t51.5 166.5q0 72 -22.5 118t-58.5 68.5t-82 29.5t-93 7q-127 0 -189.5 -66.5t-66.5 -178.5h-80q8 82 38.5 141t80 98t105.5 56.5t112 17.5q59 0 119.5 -11t110.5 -40t82 -82t32 -133q0 -63 -16.5 -118.5t-59.5 -127.5 t-118 -181.5t-189 -273.5l-219 -311h606v-63h-688z" />
<glyph unicode="3" horiz-adv-x="929" d="M113 313h88q4 -111 66.5 -179t189.5 -68q82 0 133 21.5t81.5 58t43 88t12.5 108.5q0 86 -12.5 147.5t-46 103.5t-88 62.5t-138.5 20.5h-43v61q4 0 12.5 -2t18.5 -2q287 0 287 303q0 123 -58.5 192.5t-195.5 69.5q-66 0 -111 -20.5t-73.5 -52t-41 -75.5t-12.5 -99h-92 q0 135 79 223t234 88q178 0 269.5 -70.5t91.5 -240.5q0 -57 -9.5 -111.5t-33 -98.5t-67.5 -80t-109 -46v-21q72 -12 116 -40.5t70.5 -73.5t34.5 -100.5t8 -104.5q0 -182 -84 -279.5t-252 -97.5q-178 0 -272 77t-96 238z" />
<glyph unicode="4" horiz-adv-x="929" d="M90 373v90l436 907h168v-934h168v-63h-168v-353h-86v353h-518zM162 436h446v891h-14z" />
<glyph unicode="5" horiz-adv-x="927" d="M113 309h92q2 -117 59.5 -180t198.5 -63q88 0 141 33.5t79 87t33 118t7 127.5q0 68 -5 133.5t-32 114.5t-81 82t-148 33q-35 0 -74 -10.5t-73 -27t-59.5 -44t-39.5 -62.5h-80v707h627v-64h-547v-567q61 84 129 108.5t152 24.5q119 0 183 -40t96 -102.5t38 -133t6 -125.5 q0 -84 -10 -169t-48 -150.5t-106.5 -103.5t-183.5 -38q-174 0 -263 77t-91 234z" />
<glyph unicode="6" horiz-adv-x="915" d="M113 449v446q0 119 13 208t53 148.5t111.5 89t184.5 29.5q158 0 232.5 -72.5t80.5 -214.5h-88q-10 104 -62 162t-169 58q-102 0 -159.5 -43t-82 -111t-29.5 -152t-5 -166v-149q18 43 53 76t78 51t88 24.5t90 6.5q104 0 164.5 -40t91 -97.5t38 -114t7.5 -90.5 q0 -100 -8.5 -190.5t-41 -160t-98 -109.5t-180.5 -40q-123 0 -196.5 32.5t-110.5 92t-46 144.5t-9 182zM188 387q0 -31 8.5 -87t36 -107.5t82 -89t148.5 -37.5q86 0 138 34.5t76.5 89t31 120.5t6.5 132q0 168 -53.5 250t-190.5 82t-210 -90t-73 -297z" />
<glyph unicode="7" horiz-adv-x="823" d="M68 1290v62h688v-103l-441 -1229h-94l457 1270h-610z" />
<glyph unicode="8" horiz-adv-x="929" d="M113 375q0 55 8 108.5t30.5 98.5t65.5 78.5t113 54.5q-66 10 -106 45t-61.5 80t-27.5 99t-6 110q0 41 5 98t39 105t101.5 82t196.5 34q121 0 188.5 -34t100.5 -82t40 -105t7 -98q0 -57 -10.5 -112.5t-34 -99.5t-63.5 -77t-99 -43q72 -20 116 -55t66.5 -79t28.5 -98.5 t6 -109.5q0 -68 -11 -134.5t-48 -119.5t-105.5 -88t-181.5 -35q-119 0 -187.5 35t-107.5 88t-51 119.5t-12 134.5zM201 358q0 -68 12 -124t44 -97t82 -62.5t132 -21.5q76 0 126 21.5t80 62.5t41 97.5t11 123.5q0 53 -5 113.5t-32.5 108t-80 76t-140.5 28.5 q-96 0 -149.5 -28.5t-80 -76t-33.5 -107.5t-7 -114zM215 1028q0 -63 12.5 -116.5t42 -90.5t78.5 -58.5t123 -21.5q70 0 117 21.5t75.5 58.5t41 90.5t12.5 116.5t-11.5 117.5t-39 90.5t-75.5 56.5t-120 20.5q-80 0 -128 -20.5t-76.5 -56.5t-40 -90t-11.5 -118z" />
<glyph unicode="9" horiz-adv-x="917" d="M113 971q0 84 13 157.5t52 127t103.5 84t169.5 30.5q131 0 200.5 -35t103 -101.5t42 -159.5t8.5 -216v-172q0 -176 -7 -308t-40 -216t-100.5 -124t-192.5 -40q-170 0 -249 65.5t-89 217.5h90q4 -100 55.5 -157.5t171.5 -57.5q102 0 158.5 31.5t84.5 99t32 179t4 269.5v76 q-66 -88 -139.5 -125t-151.5 -37q-180 0 -249.5 102.5t-69.5 309.5zM201 971q0 -63 7 -124t32.5 -111t73.5 -79.5t132 -29.5q98 0 152.5 37.5t80.5 90t32 108t6 87.5q0 70 -5 133.5t-30 111.5t-76 78t-149 30q-82 0 -134.5 -30t-79 -76t-34.5 -105.5t-8 -120.5z" />
<glyph unicode=":" horiz-adv-x="583" d="M188 102q0 39 30 67t75 28q43 0 72.5 -28t29.5 -67q0 -43 -30.5 -71.5t-71.5 -28.5q-43 0 -74 29.5t-31 70.5zM188 739q0 39 30 67t75 28q43 0 72.5 -27t29.5 -68q0 -43 -31.5 -71.5t-70.5 -28.5q-43 0 -74 29.5t-31 70.5z" />
<glyph unicode=";" horiz-adv-x="550" d="M158 -328q80 90 112.5 153.5t32.5 123.5q0 10 -1 22.5t-3 26.5q-2 -2 -18 -2h-11q-39 0 -67.5 21.5t-28.5 58.5q0 55 34 78.5t68 23.5q53 0 86 -34.5t33 -116.5q0 -100 -53 -203t-147 -186zM174 739q-2 39 24.5 67t77.5 28q43 0 73 -27t30 -68q0 -43 -31 -71.5t-72 -28.5 q-43 0 -72.5 29.5t-29.5 70.5z" />
<glyph unicode="&#x3c;" horiz-adv-x="1114" d="M145 420v90l877 321v-59l-827 -307l827 -307v-60z" />
<glyph unicode="=" horiz-adv-x="1114" d="M152 317v58h870v-58h-870zM152 709v57h870v-57h-870z" />
<glyph unicode="&#x3e;" horiz-adv-x="1114" d="M145 102v60l840 313l-840 299v60l891 -320v-74z" />
<glyph unicode="?" horiz-adv-x="909" d="M113 1065q0 70 27.5 126t74.5 97t108.5 61.5t129.5 20.5q170 0 255 -105.5t85 -271.5q0 -53 -15.5 -97t-44 -84t-67.5 -83t-88 -90q-45 -49 -75 -84t-30 -78q0 -8 2 -10v-148h-88v148q0 66 42 122t108 118q82 74 125 142.5t43 143.5q0 63 -13.5 120.5t-43.5 96.5 t-78 61.5t-117 22.5q-47 0 -92.5 -16t-80 -47t-56 -74t-21.5 -92q0 -27 8 -60.5t24.5 -59t42 -46t60.5 -20.5q57 0 81.5 28.5t24.5 100.5q0 10 -1 28.5t-7 50.5h41q16 -37 23.5 -67.5t7.5 -52.5q0 -72 -42 -115t-128 -43q-53 0 -95 21.5t-71 58.5t-44 82t-15 94zM344 76 q0 33 23.5 56.5t62.5 23.5q37 0 57.5 -23.5t20.5 -56.5t-20.5 -54.5t-57.5 -21.5q-39 0 -62.5 20.5t-23.5 55.5z" />
<glyph unicode="@" horiz-adv-x="1726" d="M86 629q0 150 53.5 282.5t152.5 233t244.5 162t331.5 61.5q150 0 271 -48t204.5 -129t131 -192.5t47.5 -234.5q0 -102 -33 -182t-85 -135.5t-117.5 -83t-131.5 -27.5q-55 0 -105.5 39t-50.5 133v24h-6q-61 -92 -138 -144t-202 -52q-43 0 -86 18.5t-76.5 52t-53 79.5 t-19.5 102q0 98 40 183t110.5 147.5t162.5 97.5t195 35q78 0 135 -12.5t104 -30.5l-69 -330q-12 -39 -15.5 -69.5t-3.5 -61.5q0 -68 25.5 -101.5t71.5 -33.5h6q43 0 87 23.5t77.5 67.5t56 106.5t22.5 140.5q0 121 -37.5 219t-112.5 173t-180.5 115.5t-240.5 40.5 q-137 0 -259 -47t-213 -132t-144.5 -206.5t-53.5 -271.5q0 -125 45 -228.5t123 -179t183.5 -116.5t224.5 -41q100 0 190 19.5t156 60.5l33 -72q-88 -45 -183.5 -64.5t-203.5 -19.5q-135 0 -255 46t-210 130t-144.5 200t-54.5 253zM510 586q0 -31 12.5 -64t34 -57.5t55 -39.5 t82.5 -15q61 0 114.5 32.5t96.5 80.5t73 103.5t40 102.5l47 221q-20 8 -59 16.5t-93 8.5q-82 0 -154.5 -28.5t-129 -80t-88 -123t-31.5 -157.5z" />
<glyph unicode="A" horiz-adv-x="1253" d="M51 0l467 1380h127l463 -1380h-94l-121 369h-633l-123 -369h-86zM281 442h587l-288 893z" />
<glyph unicode="B" horiz-adv-x="1126" d="M162 0v1380h401q166 0 252 -72.5t86 -246.5q0 -61 -8 -112.5t-30.5 -92.5t-66.5 -69.5t-132 -63.5q96 -39 143 -67.5t74.5 -70.5t38 -95.5t10.5 -116.5q0 -180 -89 -276.5t-274 -96.5h-405zM250 63h239q178 0 263.5 67t85.5 232q0 49 -10.5 106.5t-40 103.5t-88 78 t-152.5 32h-297v-619zM250 748h278q82 0 136.5 22.5t87 64.5t46 98t13.5 122q0 96 -25.5 149t-66.5 78t-89 28t-91 3h-289v-565z" />
<glyph unicode="C" horiz-adv-x="1126" d="M135 686q0 98 2 187.5t14.5 168t40 146t75.5 115t124 75t182 27.5q125 0 195 -40t104.5 -96.5t44 -119t9.5 -111.5h-90q-2 59 -15.5 112.5t-43 96.5t-79 69.5t-125.5 26.5q-127 0 -196.5 -48t-102 -133t-39.5 -206.5t-8 -269.5q0 -143 7.5 -263t40 -204t102 -131 t196.5 -47q68 0 117 23.5t81 66.5t47.5 102.5t17.5 131.5h104q-2 -45 -14.5 -112t-51 -128.5t-109.5 -106.5t-192 -45q-162 0 -251 59.5t-129.5 158t-49 228.5t-8.5 267z" />
<glyph unicode="D" horiz-adv-x="1253" d="M168 0v1380h387q152 0 242 -41t138 -129t62.5 -219t14.5 -309q0 -170 -18.5 -298t-74 -213t-156.5 -128t-265 -43h-330zM266 63h185q158 0 251 26t143 102.5t63.5 215t13.5 363.5q0 156 -15.5 260.5t-65.5 168t-139.5 89t-236.5 25.5h-199v-1250z" />
<glyph unicode="E" d="M172 0v1380h647v-67h-553v-570h529v-67h-529v-613h570v-63h-664z" />
<glyph unicode="F" horiz-adv-x="876" d="M162 0v1380h598v-67h-510v-570h471v-67h-471v-676h-88z" />
<glyph unicode="G" horiz-adv-x="1253" d="M141 578v223q0 100 10.5 206.5t53.5 195.5t132 145.5t245 56.5q201 0 306 -81t105 -267h-90q-4 143 -78.5 214.5t-242.5 71.5q-129 0 -200 -48t-104.5 -131t-40 -198.5t-6.5 -250.5v-86q0 -129 8.5 -236.5t42 -185.5t103.5 -122t197 -44q90 0 165.5 10t139.5 33v553h-305 v63h395v-673q-100 -27 -198.5 -40.5t-196.5 -13.5q-156 0 -245 57.5t-132 145.5t-53.5 194.5t-10.5 207.5z" />
<glyph unicode="H" horiz-adv-x="1253" d="M164 0v1380h96v-637h643v637h90v-1380h-90v676h-643v-676h-96z" />
<glyph unicode="I" horiz-adv-x="499" d="M184 0v1380h92v-1380h-92z" />
<glyph unicode="J" d="M61 362h95q0 -63 8 -120.5t33.5 -102.5t75 -71.5t133.5 -26.5q49 0 96 12.5t84 43t57.5 81.5t20.5 125v1077h88v-1095q0 -78 -22.5 -130.5t-57.5 -88t-78 -54t-81 -28t-68.5 -10.5t-41.5 -1q-113 0 -180 34t-103 88.5t-47.5 123t-11.5 143.5z" />
<glyph unicode="K" horiz-adv-x="1126" d="M178 0v1380h94v-608l31 -39l-31 -41v-692h-94zM303 733l545 647h104l-563 -641l584 -739h-115z" />
<glyph unicode="L" horiz-adv-x="876" d="M160 0v1380h88v-1317h504v-63h-592z" />
<glyph unicode="M" horiz-adv-x="1753" d="M168 0v1380h184l465 -1331l467 1331h170v-1380h-84v1286l-41 4l-450 -1290h-123l-461 1290l-43 -4v-1286h-84z" />
<glyph unicode="N" horiz-adv-x="1376" d="M180 0v1380h144l686 -1317v1317h80v-1380h-136l-686 1350v-1350h-88z" />
<glyph unicode="O" horiz-adv-x="1253" d="M141 686q0 98 2 187.5t15.5 168t40 146t75 115t124 75t184.5 27.5q162 0 251 -59.5t130 -157.5t48 -228.5t7 -273.5q0 -137 -7 -267t-48 -228.5t-130.5 -158t-250.5 -59.5q-162 0 -251 59.5t-131 158t-50.5 228.5t-8.5 267zM231 686q0 -143 6.5 -263t40 -204t104.5 -131 t200 -47q127 0 198.5 47t103 131t37 204t5.5 263q0 147 -5.5 269t-37 207t-103 133t-198.5 48q-129 0 -200 -48t-104.5 -133t-40 -207t-6.5 -269z" />
<glyph unicode="P" d="M154 0v1380h393q43 0 98 -7t102.5 -37.5t80 -96t32.5 -182.5q0 -205 -76.5 -300t-263.5 -95h-276v-662h-90zM244 725h270q57 0 105.5 15.5t82 50t51 93t17.5 148.5q0 96 -21.5 152.5t-57.5 87.5t-83 36t-96 5h-268v-588z" />
<glyph unicode="Q" horiz-adv-x="1253" d="M141 686v115q0 100 10.5 206.5t53.5 195.5t131 145.5t244 56.5q102 0 175.5 -26.5t122 -71.5t77 -104.5t43 -127t17.5 -136.5t3 -138v-115q0 -135 -9.5 -232.5t-34 -170t-68.5 -123.5t-111 -94q66 0 157.5 -1.5t161.5 -1.5v-63h-268q-53 0 -98.5 -4t-102.5 -4 q-188 0 -290.5 47t-149.5 137t-55.5 219t-8.5 291zM231 715q0 -166 9.5 -290t44 -206t103.5 -124t192 -42q115 0 183 48.5t104 132t47.5 199.5t11.5 253q0 143 -4 262t-36 207t-102.5 138t-203.5 50q-129 0 -199 -48t-102.5 -131t-40 -198.5t-7.5 -250.5z" />
<glyph unicode="R" horiz-adv-x="1126" d="M162 0v1380h397q100 0 168 -16t106.5 -55t54 -99.5t15.5 -148.5q0 -63 -8 -115.5t-31.5 -93.5t-68.5 -68.5t-131 -64.5l132 -52.5t65.5 -72.5t26.5 -158.5t5 -285.5q0 -31 2 -59t6 -48l4 -43h-88q-4 25 -7 70t-4 95t-2 97t-1 74v63q0 41 -8.5 90.5t-37 93.5t-84 72.5 t-149.5 28.5h-274v-684h-88zM250 756h242q80 0 141 13t101 46t59.5 92.5t19.5 153.5q0 80 -16.5 129t-50 78.5t-84 37t-113.5 7.5h-299v-557z" />
<glyph unicode="S" horiz-adv-x="1126" d="M131 360h96q0 -63 9.5 -120.5t40 -101.5t91 -70.5t167.5 -26.5q143 0 213.5 68.5t70.5 201.5q0 68 -19.5 117t-59.5 88t-96 70.5t-126 75.5l-67 40q-94 57 -152.5 105.5t-90.5 93.5t-42 88t-10 90q0 174 104.5 250t284.5 76q109 0 177.5 -27.5t109 -74t57 -110 t18.5 -132.5h-94q-4 66 -16.5 118t-44 89t-85 56t-132.5 19q-135 0 -212 -52t-77 -191q0 -68 12 -111t36.5 -73.5t60.5 -54t81 -48.5v2l105 -63q68 -45 135 -80t119.5 -79t85 -105.5t32.5 -155.5q0 -358 -389 -359q-203 0 -298 100.5t-95 286.5z" />
<glyph unicode="T" d="M47 1313v67h834v-67h-373v-1313h-94v1313h-367z" />
<glyph unicode="U" horiz-adv-x="1253" d="M158 414v966h88v-872q0 -74 5 -156t36.5 -150.5t99.5 -114.5t195 -46q123 0 191.5 46t99 114.5t36.5 150.5t6 156v872h91v-966q0 -133 -35 -218t-93.5 -133.5t-136 -69t-159.5 -20.5q-86 0 -163 20.5t-134.5 69t-92 133.5t-34.5 218z" />
<glyph unicode="V" horiz-adv-x="1126" d="M43 1380h94l379 -1331l402 1331h86l-426 -1380h-113z" />
<glyph unicode="W" horiz-adv-x="1875" d="M39 1380h96l328 -1327l332 1327h145l324 -1321l348 1321h86l-365 -1380h-143l-322 1352l-342 -1352h-131z" />
<glyph unicode="X" horiz-adv-x="1126" d="M49 0l400 713l-371 667h96l340 -618l348 618h90l-379 -667l418 -713h-108l-375 674l-365 -674h-94z" />
<glyph unicode="Y" horiz-adv-x="1126" d="M57 1380h105l358 -731l381 731h86l-422 -807v-573h-90v573z" />
<glyph unicode="Z" d="M66 0v113l714 1200h-671v67h743v-116l-707 -1201h713v-63h-792z" />
<glyph unicode="[" horiz-adv-x="608" d="M203 -459v1856h415v-62h-337v-1736h337v-58h-415z" />
<glyph unicode="\" horiz-adv-x="520" d="M2 1370h104l402 -1655h-98z" />
<glyph unicode="]" horiz-adv-x="608" d="M-12 -403h338v1738h-338v62h418v-1860h-418v60z" />
<glyph unicode="^" horiz-adv-x="1343" d="M158 449l460 970h105l463 -970h-107l-405 874h-4l-406 -874h-106z" />
<glyph unicode="_" horiz-adv-x="1126" d="M0 -158h1126v-84h-1126v84z" />
<glyph unicode="`" horiz-adv-x="675" d="M66 1397h165l205 -299h-84z" />
<glyph unicode="a" d="M92 246q0 102 47 161.5t120 88t161 37t168 10.5l112 4v100q0 115 -50 182.5t-193 67.5q-94 0 -161 -44t-77 -126h-90q6 61 36 102t76 67t104 38t124 12q39 0 92 -5t103.5 -27.5t85 -71.5t34.5 -133v-537q0 -23 1 -48.5t3.5 -55t8.5 -68.5h-88v160q-51 -94 -145.5 -138.5 t-188.5 -44.5q-141 0 -212 75t-71 194zM184 250q0 -43 13.5 -81t41 -69.5t68.5 -49t96 -17.5q63 0 116.5 31.5t94.5 73.5t63.5 86t22.5 75v190h-106q-72 0 -143.5 -7t-131 -30.5t-97.5 -69.5t-38 -132z" />
<glyph unicode="b" d="M141 0q8 37 9 72v1274h81v-607q25 74 60 116t75 62.5t83 24.5t86 4q104 0 165.5 -39t92 -99t38 -132t7.5 -137v-76q0 -78 -6.5 -162t-38 -157.5t-95 -120t-174.5 -46.5q-43 0 -89 9.5t-86 30t-72.5 53t-49.5 75.5q0 -29 -2 -72.5t-2 -72.5h-82zM242 477q0 -57 5 -135 t28.5 -145.5t74.5 -115.5t139 -48q96 0 149.5 34.5t79 92t32 133.5t6.5 164q0 90 -6.5 170t-32 141t-78.5 95t-150 34q-80 0 -128 -44t-74.5 -108.5t-35.5 -136.5t-9 -131z" />
<glyph unicode="c" horiz-adv-x="876" d="M94 457q0 88 5 174t36 155.5t99.5 114.5t199.5 45q129 0 206 -58.5t77 -197.5h-86q0 96 -46 151.5t-171 55.5q-78 0 -123 -33t-68.5 -88t-31 -120.5t-7.5 -120.5v-107q0 -70 6.5 -138.5t30 -126t67.5 -94t122 -36.5q70 0 111.5 16.5t65 47t33 68.5t13.5 81h86 q-2 -84 -34 -134.5t-75 -81t-89 -42t-77 -11.5q-131 0 -201.5 43t-103.5 112t-39 155t-6 170z" />
<glyph unicode="d" d="M102 463q0 70 5.5 152.5t35 156.5t92 124t179.5 50q37 0 79 -7t81.5 -23.5t73.5 -46t54 -78.5q0 63 1.5 133.5t1.5 141.5t1 142.5t1 137.5h86v-1174q0 -63 2 -104t8 -68h-82l-4 160q-18 -51 -51 -85t-75 -56.5t-89 -32t-90 -9.5q-111 0 -172.5 44.5t-92 116t-38 157.5 t-7.5 168zM184 457q0 -139 19.5 -223t54.5 -127.5t83 -54.5t105 -11q51 0 98.5 15.5t82.5 55.5t56.5 104.5t21.5 160.5q0 90 -3.5 181t-28 164t-77.5 121t-154 48q-96 0 -148 -33t-75.5 -92t-29 -139t-5.5 -170z" />
<glyph unicode="e" d="M115 322v235q0 205 90 297t266 92q129 0 199.5 -38t104.5 -103.5t41 -155.5t7 -192h-624v-95q0 -51 11 -110t40 -106.5t82 -80t139 -32.5q129 0 191.5 60.5t66.5 158.5h90q-6 -74 -32.5 -128t-72.5 -86t-107.5 -46.5t-135.5 -14.5q-68 0 -132.5 15.5t-113.5 54.5 t-79.5 106.5t-30.5 168.5zM199 514h538q0 88 -10 159.5t-40 120t-81 76t-135 27.5q-86 0 -139 -27.5t-82 -76t-40 -120t-11 -159.5z" />
<glyph unicode="f" horiz-adv-x="626" d="M57 877v51h174v182q0 33 6.5 74t32 78.5t76.5 62.5t143 25l50 -2v-62h-72q-57 0 -88 -19.5t-45.5 -45t-16.5 -56t-2 -53.5v-184h222v-51h-222v-877h-84v877h-174z" />
<glyph unicode="g" d="M102 446q0 82 1 129.5t4.5 77t10.5 55t17 62.5q4 16 20.5 44t49.5 57.5t85 52t130 22.5q39 0 83 -10t85 -29.5t74.5 -48.5t54.5 -72v142h80q-4 -23 -4 -41v-938q0 -80 -15.5 -139.5t-56.5 -100.5t-111.5 -61.5t-181.5 -20.5q-88 0 -145.5 21.5t-91 55.5t-46 74t-12.5 75 h84q2 -84 64.5 -130.5t162.5 -46.5q98 0 152.5 22.5t79 69t28 118t3.5 175.5v113q-20 -55 -54.5 -86t-75 -49.5t-83.5 -21.5t-80 -3q-111 0 -172.5 38t-93 100.5t-39 138.5t-7.5 155zM184 487q0 -82 5.5 -157.5t29 -133t75.5 -94t150 -36.5q43 0 79 12t64.5 30.5t48 37 t28.5 36.5q14 29 22 56.5t12 71.5t5.5 111.5t1.5 172.5q0 82 -23 139.5t-59.5 92t-85 51t-97.5 16.5q-96 0 -146 -43t-74.5 -105.5t-30 -132t-5.5 -125.5z" />
<glyph unicode="h" d="M143 0v1346h84v-582q16 55 49 89t73 54.5t84 29.5t85 9q94 0 149.5 -29.5t84 -70.5t36 -91t7.5 -93v-662h-86v655q0 47 -11.5 90t-38 75t-68.5 51.5t-102 19.5q-49 0 -96 -18.5t-84 -58.5t-59.5 -102.5t-22.5 -152.5v-559h-84z" />
<glyph unicode="i" horiz-adv-x="499" d="M174 1239v107h115l2 -107h-117zM186 0v954h93v-954h-93z" />
<glyph unicode="j" horiz-adv-x="499" d="M27 -313q12 -2 19 -2h17q49 0 76 10t41.5 32.5t16.5 55.5t2 78v1097h92v-1155q0 -27 -7.5 -56.5t-26.5 -57t-58 -45t-103 -17.5h-42t-27 4v56zM186 1239v107h113v-107h-113z" />
<glyph unicode="k" horiz-adv-x="876" d="M150 0v1346h81v-887l7 6l-7 -465h-81zM238 465v104l38 -53zM276 516l371 412h92l-364 -410l395 -518h-111z" />
<glyph unicode="l" horiz-adv-x="499" d="M193 0v1346h83v-1346h-83z" />
<glyph unicode="m" horiz-adv-x="1503" d="M135 0v928h70v-168q16 45 48 81t70.5 58.5t83 34.5t87.5 12q78 0 143 -45t98 -139q12 57 42 91t68 54.5t82 29.5t85 9q123 0 188.5 -68.5t69.5 -175.5v-702h-82v670q0 39 -10.5 80t-32 71.5t-58 50t-92.5 19.5q-68 0 -116 -27.5t-77.5 -70.5t-43 -94.5t-13.5 -104.5v-594 h-83v670q-2 39 -12.5 80t-32 71.5t-57.5 50t-89 19.5q-68 0 -116 -27.5t-78.5 -70.5t-44 -94.5t-13.5 -104.5v-594h-84z" />
<glyph unicode="n" d="M143 0v928h84v-164q16 55 49 88t73 54.5t84 30.5t85 9q94 0 149.5 -29.5t84 -70.5t36 -91t7.5 -93v-662h-86v655q0 47 -11.5 90t-38 75t-68.5 52.5t-102 20.5q-49 0 -96 -21.5t-84 -64.5t-59.5 -107.5t-22.5 -152.5v-547h-84z" />
<glyph unicode="o" d="M115 358v209q0 180 86 279.5t270 99.5q182 0 267 -99t85 -280v-209q0 -178 -85 -279.5t-267 -101.5q-184 0 -270 101.5t-86 279.5zM199 463q0 -100 9 -178t37.5 -133.5t83 -84t142.5 -28.5t140.5 28.5t80 84t36.5 133t9 178.5q0 98 -9 178t-36.5 136.5t-80 86 t-140.5 29.5t-142.5 -29.5t-83 -86t-37.5 -136.5t-9 -178z" />
<glyph unicode="p" d="M150 -365v1293h77v-164q20 59 57.5 93t79.5 53.5t83.5 27.5t70.5 8q119 0 183.5 -42t95 -99t36 -122t5.5 -110v-215q0 -90 -17.5 -158.5t-59.5 -119.5t-108.5 -77t-163.5 -26q-33 0 -69.5 5.5t-71.5 25t-65.5 54t-44.5 88.5q0 -55 -2.5 -121t-2.5 -133.5t-1 -135 t-1 -125.5h-81zM240 379q0 -88 19.5 -152.5t53 -106.5t78.5 -60.5t98 -18.5q84 0 137.5 28.5t82 83t38 132t9.5 178.5q0 98 -9.5 178t-38 136.5t-82 85t-137.5 28.5q-39 0 -81.5 -17.5t-80.5 -56.5t-62.5 -104.5t-24.5 -165.5v-168z" />
<glyph unicode="q" d="M96 383v76q0 80 8.5 165t40 155.5t94 118.5t173.5 48q43 0 88 -8t86 -24.5t73.5 -45t53.5 -73.5q0 31 2 68.5t2 64.5h84q-8 -35 -8 -78v-1215h-86v515q-12 -55 -46 -90t-78 -53.5t-92.5 -24t-91.5 -5.5q-106 0 -165.5 41t-90 100.5t-39 130t-8.5 134.5zM180 477 q0 -57 4 -134t29 -144.5t77 -113.5t152 -46q98 0 151.5 33.5t78 93t29 135.5t4.5 156q0 86 -4.5 164.5t-29 138t-77.5 96.5t-152 37q-88 0 -140 -43t-78.5 -107.5t-35 -135t-8.5 -130.5z" />
<glyph unicode="r" horiz-adv-x="626" d="M158 0v928h84v-160q20 43 54 76t75 54.5t86 33.5t88 14v-74q-141 0 -222 -67.5t-81 -200.5v-604h-84z" />
<glyph unicode="s" horiz-adv-x="876" d="M109 246h86q2 -49 12 -89t34.5 -68t67.5 -45t109 -17q111 0 160 50t49 144q0 66 -36 109t-91.5 73.5t-119 57t-118.5 58.5t-91 81t-36 125q0 63 23.5 105t65.5 67t98.5 37t121.5 12q70 0 119 -19.5t80 -53t45 -75.5t17 -89h-82q-8 92 -52.5 140t-162.5 48 q-84 0 -136.5 -45t-52.5 -117q0 -66 36 -105.5t91 -68.5t118.5 -56.5t119 -62t92.5 -82.5t37 -122q0 -131 -78 -196t-225 -65q-162 0 -231.5 64.5t-69.5 204.5z" />
<glyph unicode="t" horiz-adv-x="626" d="M51 877v51h174v207l84 30v-237h219v-51h-219v-639q0 -66 5 -103t25.5 -54.5t58.5 -23.5t104 -6q18 0 26 6v-57q-10 -4 -20 -4h-16q-80 0 -130.5 9t-81 27.5t-43 49.5t-12.5 78v717h-174z" />
<glyph unicode="u" d="M154 264v664h84v-647q0 -2 1 -40t17 -83t59 -81t127 -36q70 0 120 27.5t81 66.5t45 80t14 70v643h84v-928h-67v143q-51 -94 -136 -130t-169 -36q-78 0 -127 24t-80 64.5t-42 92t-11 106.5z" />
<glyph unicode="v" horiz-adv-x="876" d="M43 928h90l279 -877l293 877h75l-311 -928h-113z" />
<glyph unicode="w" horiz-adv-x="1503" d="M33 928h92l260 -877l254 877h125l262 -877l264 877h84l-289 -928h-124l-259 852l-251 -852h-127z" />
<glyph unicode="x" horiz-adv-x="876" d="M57 0l305 496l-260 432h103l213 -391l233 391h88l-282 -432l311 -496h-104l-256 444l-265 -444h-86z" />
<glyph unicode="y" horiz-adv-x="876" d="M43 928h90l285 -852l282 852h80l-442 -1293h-78l121 342z" />
<glyph unicode="z" horiz-adv-x="749" d="M74 0v66l471 811h-447v51h516v-72l-456 -805h469v-51h-553z" />
<glyph unicode="{" horiz-adv-x="608" d="M45 436v88h14q59 0 98.5 16.5t57.5 42t25.5 58.5t7.5 68q0 102 -23.5 201.5t-23.5 199.5q0 168 97 242.5t247 74.5h28v-90h-41q-131 0 -181 -61.5t-50 -177.5q0 -90 22.5 -184.5t22.5 -192.5q0 -90 -40 -151.5t-103 -82.5v-8q63 -16 103 -85.5t40 -153.5 q0 -96 -22.5 -188.5t-22.5 -190.5q0 -244 231 -244h41v-90h-28q-72 0 -136.5 18.5t-110.5 58.5t-71.5 105.5t-25.5 161.5q0 98 23.5 192.5t23.5 186.5q0 31 -7.5 63.5t-26.5 60t-59 45t-104 17.5h-6z" />
<glyph unicode="|" horiz-adv-x="96" d="M0 -473v1890h96v-1890h-96z" />
<glyph unicode="}" horiz-adv-x="608" d="M33 -383h43q225 0 225 244q0 98 -22.5 190t-22.5 189q0 84 40 153.5t105 85.5v8q-63 20 -104 82t-41 152q0 98 22.5 192.5t22.5 184.5q0 117 -49 178t-176 61h-43v90h30q145 0 242.5 -74.5t97.5 -242.5q0 -102 -23.5 -201.5t-23.5 -199.5q0 -35 5.5 -68t26 -58.5t56 -42 t97.5 -16.5h14v-88h-10q-63 0 -99 -17.5t-56.5 -45t-27 -60t-6.5 -63.5q0 -90 23.5 -185.5t23.5 -193.5q0 -96 -25.5 -160.5t-71.5 -105.5t-108.5 -59.5t-134.5 -18.5h-30v90z" />
<glyph unicode="~" horiz-adv-x="1343" d="M94 336v22q0 63 20.5 112.5t55.5 82.5t80 51.5t94 18.5q33 0 62.5 -5.5t67.5 -17.5t86 -30.5t118 -45.5q94 -35 174 -65.5t160 -30.5q152 0 151 190h84q0 -4 1 -10t1 -14q0 -70 -22.5 -120t-57 -81t-77.5 -45t-86 -14q-31 0 -61 4t-70.5 14t-94 29.5t-123.5 48.5 q-88 37 -161.5 67.5t-151.5 30.5q-162 0 -162 -192h-88z" />
<glyph unicode="&#xa4;" horiz-adv-x="1193" d="M106 72l144 135q-41 35 -67.5 108.5t-26.5 151.5q0 90 29.5 159.5t74.5 116.5l-154 136l70 67l146 -145q53 39 123.5 65.5t148.5 26.5h2q86 0 157.5 -26.5t116.5 -65.5l160 145l70 -65l-168 -138q39 -43 64.5 -112.5t25.5 -141.5q0 -92 -25.5 -164.5t-58.5 -105.5 l152 -147l-70 -68l-150 152q-57 -49 -132.5 -71t-149.5 -22q-78 0 -149.5 21.5t-121.5 58.5l-145 -139zM260 473q0 -92 32 -155.5t82 -101.5t107.5 -55.5t104.5 -17.5q53 0 113.5 16.5t108.5 55.5t80 104.5t32 167.5q0 49 -19.5 106.5t-59.5 104.5t-102.5 78t-150.5 31h-2 q-82 0 -142.5 -29.5t-101.5 -76t-61.5 -105.5t-20.5 -123z" />
<glyph unicode="&#xa6;" horiz-adv-x="495" d="M221 356h82v-815h-82v815zM221 618v779h82v-779h-82z" />
<glyph unicode="&#xa7;" horiz-adv-x="968" d="M74 569q0 84 23.5 142.5t60.5 97.5t80 60.5t81 33.5q-78 45 -105.5 102.5t-27.5 137.5q0 72 27 122t68 79.5t91 41t97 11.5q55 0 106.5 -17.5t88 -54.5t58 -99.5t21.5 -152.5v-10h-75q0 74 -15.5 122t-41 75.5t-62.5 39t-82 11.5q-12 0 -44 -3t-65.5 -20.5t-60.5 -53.5 t-27 -104q0 -53 16.5 -85.5t53.5 -59.5t94.5 -54.5t143.5 -68.5q63 -29 117.5 -61.5t93 -75.5t59 -99.5t20.5 -129.5q0 -86 -25.5 -144.5t-60 -99.5t-77.5 -64.5t-76 -35.5q80 -41 104.5 -104.5t24.5 -123.5q0 -55 -17.5 -106t-53.5 -90t-89 -61.5t-127 -22.5 q-94 0 -152.5 32.5t-91 85t-44 112.5t-11.5 120h78q0 -33 7 -77t30.5 -86t66.5 -71.5t117 -29.5q39 0 75 10t63.5 32.5t46 59.5t18.5 86q0 55 -21.5 92t-58.5 60.5t-88 45t-109 52.5q-164 74 -243.5 165t-79.5 236zM162 573q0 -70 19.5 -118.5t64.5 -90.5t116 -79t177 -84 q84 25 132 65.5t71.5 81.5t29.5 80t6 61q0 70 -20.5 118t-68.5 87t-119.5 75t-174.5 81q-39 -8 -80 -24.5t-75.5 -49.5t-56 -81t-21.5 -122z" />
<glyph unicode="&#xa9;" horiz-adv-x="1802" d="M113 705q0 137 54 257.5t147.5 211t219 143.5t273.5 53q143 0 269 -53t222.5 -142.5t150.5 -209t54 -260.5q0 -135 -54 -255t-150.5 -210t-222.5 -142.5t-269 -52.5q-147 0 -273 52.5t-219.5 143.5t-147.5 211t-54 253zM193 705q0 -123 48 -233t130 -192.5t193.5 -129 t242.5 -46.5q125 0 237.5 46.5t197.5 129t133 192.5t48 233q0 129 -49 239.5t-134 192.5t-197.5 128t-235.5 46q-129 0 -240.5 -46t-194.5 -129t-131 -192.5t-48 -238.5zM487 707q0 170 79 264t241 94q55 0 106.5 -15.5t90 -42t62.5 -67.5t26 -92h-86q-6 55 -49.5 103 t-149.5 48q-84 0 -130 -36.5t-68.5 -84t-26.5 -95.5t-4 -76q0 -96 30.5 -151.5t70.5 -81t81 -32t57 -6.5q59 0 96 20.5t58.5 48t31 55.5t11.5 48h88q-6 -27 -20.5 -66.5t-44 -77.5t-83 -66.5t-139.5 -28.5q-156 0 -242 87t-86 251z" />
<glyph unicode="&#xab;" horiz-adv-x="1099" d="M158 397l317 391h82l-262 -391l262 -393h-84zM565 397l316 391h84l-263 -391l263 -393h-86z" />
<glyph unicode="&#xac;" horiz-adv-x="1343" d="M90 582v86h1163v-543h-100v457h-1063z" />
<glyph unicode="&#xad;" horiz-adv-x="811" d="M49 446v91h754v-91h-754z" />
<glyph unicode="&#xae;" horiz-adv-x="1802" d="M113 707q0 139 56 258.5t153.5 210t228.5 142.5t278 52t279.5 -52t229 -142.5t152.5 -210t56 -258.5q0 -135 -56 -256t-152.5 -211t-228.5 -141.5t-280 -51.5q-147 0 -278 51.5t-228.5 141.5t-153.5 211t-56 256zM195 707q0 -123 50 -234t136 -192.5t201.5 -129 t246.5 -47.5q133 0 249 47.5t202 129t135 191.5t49 235q0 129 -49 238.5t-135 191.5t-201.5 128t-249.5 46q-129 0 -244.5 -46t-202.5 -128t-137 -192.5t-50 -237.5zM567 385v657h310q84 0 133 -21.5t73.5 -50t30.5 -61t6 -57.5q0 -37 -12 -63.5t-30.5 -46t-39 -30 t-41.5 -18.5v-2q63 -16 82 -59t23 -92q2 -39 3 -63.5t2 -40t7 -28t16 -24.5h-96q-8 10 -13 18.5t-8 24.5t-4 41t-1 66q-2 23 -6.5 45t-18.5 38.5t-45 28.5t-88 12h-193v-274h-90zM657 723h197q31 0 62.5 8t56 23.5t39 40t14.5 57.5q0 41 -16.5 65.5t-43 38t-60.5 19.5t-66 6 h-183v-258z" />
<glyph unicode="&#xaf;" horiz-adv-x="1347" d="M-25 1323v90h1463v-90h-1463z" />
<glyph unicode="&#xb0;" horiz-adv-x="976" d="M184 1135q0 57 27 107t70 88t101 60.5t122 22.5q66 0 124 -22.5t102 -60.5t70.5 -88t26.5 -107q0 -59 -26.5 -111.5t-70.5 -90.5t-102.5 -59.5t-123.5 -21.5q-59 0 -116.5 21.5t-102.5 58.5t-73 90.5t-28 112.5zM242 1135q0 -49 21.5 -89t57 -70t84 -45.5t99.5 -15.5 q55 0 103 15.5t84 45.5t57.5 69.5t21.5 89.5q0 43 -21.5 84t-57.5 69.5t-84 46t-103 17.5q-51 0 -99.5 -17.5t-84 -46t-57 -69.5t-21.5 -84z" />
<glyph unicode="&#xb1;" horiz-adv-x="1343" d="M90 -70h1163v-86h-1163v86zM90 528v86h533v443h98v-443h532v-86h-532v-460h-98v460h-533z" />
<glyph unicode="&#xb4;" horiz-adv-x="811" d="M330 1157l143 256h197l-234 -256h-106z" />
<glyph unicode="&#xb6;" horiz-adv-x="1193" d="M78 946q0 80 27.5 162t98 150.5t192.5 111.5t313 43q102 0 158.5 -5t90.5 -11v-1532h-98v1462h-168v-1462h-98v661h-21q-84 0 -172 26t-160.5 77t-117.5 129t-45 188z" />
<glyph unicode="&#xb7;" horiz-adv-x="450" d="M152 346v139h145v-139h-145z" />
<glyph unicode="&#xba;" horiz-adv-x="675" d="M68 1044q0 57 21.5 106.5t58 84.5t87 55.5t105.5 20.5h2q68 0 118 -21.5t81.5 -56.5t49 -79t17.5 -91q0 -63 -24.5 -111.5t-64.5 -83t-88 -51t-97 -16.5q-61 0 -110.5 19.5t-84.5 53t-53 77.5t-18 93zM154 1049q0 -78 51 -127.5t131 -49.5q78 0 132 51.5t54 135.5 q0 25 -7 55.5t-27.5 59t-58.5 48t-93 19.5h-2q-53 0 -86 -18.5t-54.5 -47t-30.5 -62.5t-9 -64z" />
<glyph unicode="&#xbb;" horiz-adv-x="1099" d="M180 2l262 393l-262 391h86l314 -395l-314 -389h-86zM590 2l260 393l-260 391h82l311 -391l-311 -393h-82z" />
<glyph unicode="&#xc0;" horiz-adv-x="1253" d="M39 0l420 1182h125l415 -1182h-96l-110 317h-560l-104 -317h-90zM264 383h504l-254 737zM295 1479h162l188 -254h-88z" />
<glyph unicode="&#xc1;" horiz-adv-x="1253" d="M45 0l420 1182h121l413 -1182h-96l-110 317h-551l-107 -317h-90zM270 383h498l-250 737zM528 1262l131 217h127l-151 -217h-107z" />
<glyph unicode="&#xc2;" horiz-adv-x="1253" d="M45 0l420 1182h121l413 -1182h-96l-110 317h-551l-107 -317h-90zM270 383h498l-250 737zM276 1268l193 211h111l188 -211h-82l-166 180l-158 -180h-86z" />
<glyph unicode="&#xc3;" horiz-adv-x="1253" d="M45 0l420 1186h121l413 -1186h-96l-110 319h-551l-107 -319h-90zM201 1307q37 100 83 136t115 36q31 0 66 -10.5t80 -28.5l33 -13q74 -29 120 -28q43 0 68 17.5t39 62.5h82q-14 -88 -64.5 -129t-117.5 -41q-25 0 -67 13t-85 29.5t-84 29t-61 12.5q-94 0 -119 -86h-88z M270 383h498l-250 739z" />
<glyph unicode="&#xc4;" horiz-adv-x="1253" d="M41 0l422 1196h121l415 -1196h-96l-110 319h-555l-107 -319h-90zM266 387h502l-250 746zM324 1333v146h90v-146h-90zM623 1333v146h94v-146h-94z" />
<glyph unicode="&#xc5;" horiz-adv-x="1253" d="M41 0l422 1153h121l415 -1153h-96l-110 311h-555l-107 -311h-90zM266 375h502l-252 717zM436 1393q0 33 16.5 62.5t43 51t63.5 35.5t80 14q41 0 77 -14t63.5 -35.5t44 -52.5t16.5 -63q0 -76 -59.5 -124t-139.5 -48q-92 0 -148.5 49t-56.5 125zM520 1393q0 -33 30 -67 t99 -34q55 0 82 32t27 67q0 33 -29 62.5t-88 29.5q-57 0 -89 -26.5t-32 -63.5z" />
<glyph unicode="&#xc6;" horiz-adv-x="1753" d="M41 0l608 1243h707v-67h-539l51 -504h467v-68h-461l52 -536h454v-68h-538l-33 334h-512l-164 -334h-92zM334 403h469l-80 779z" />
<glyph unicode="&#xc7;" horiz-adv-x="1126" d="M115 618q0 129 7 247t44 206t118 141.5t228 53.5q113 0 176.5 -36t96 -88t41 -111.5t8.5 -106.5h-93q-2 53 -13 103t-35.5 87t-68.5 59.5t-112 22.5q-113 0 -174.5 -42t-89 -115.5t-33.5 -181t-6 -239.5q0 -127 6 -233t33.5 -180t89 -115t174.5 -41q117 0 171 81t58 212 h107q-2 -45 -15.5 -107.5t-49 -120t-103.5 -98.5t-182 -41q-4 0 -6 2l-86 -98l92 4q51 0 92 -28.5t41 -92.5q0 -35 -17.5 -59.5t-44 -40.5t-62.5 -21.5t-77 -5.5q-74 0 -154 25l21 35q63 -23 111 -23q47 0 92 19.5t45 70.5q0 45 -34 64.5t-75 19.5q-16 0 -33.5 -2t-33.5 -10 l-17 12l103 131q-129 20 -198 80t-99.5 147t-36.5 193.5t-6 220.5z" />
<glyph unicode="&#xc8;" d="M158 0v1182h581v-62h-487v-481h465v-66h-465v-507h504v-66h-598zM246 1479h157l187 -254h-92z" />
<glyph unicode="&#xc9;" d="M152 0v1182h587v-62h-493v-481h471v-66h-471v-507h510v-66h-604zM401 1262l134 217h190l-215 -217h-109z" />
<glyph unicode="&#xca;" d="M152 0v1182h587v-62h-493v-481h471v-66h-471v-507h510v-66h-604zM164 1268l196 211h111l191 -211h-80l-168 180l-160 -180h-90z" />
<glyph unicode="&#xcb;" d="M150 0v1182h589v-62h-495v-481h473v-66h-473v-507h512v-66h-606zM215 1331v148h94v-148h-94zM516 1331v148h92v-148h-92z" />
<glyph unicode="&#xcc;" horiz-adv-x="499" d="M-12 1479h166l182 -254h-88zM162 0v1182h92v-1182h-92z" />
<glyph unicode="&#xcd;" horiz-adv-x="499" d="M160 0v1182h92v-1182h-92zM219 1262l133 217h185l-215 -217h-103z" />
<glyph unicode="&#xce;" horiz-adv-x="499" d="M-51 1268l203 211h108l199 -211h-86l-172 180l-160 -180h-92zM158 0v1182h92v-1182h-92z" />
<glyph unicode="&#xcf;" horiz-adv-x="499" d="M20 1333v146h93v-146h-93zM166 0v1196h94v-1196h-94zM311 1333v146h90v-146h-90z" />
<glyph unicode="&#xd0;" horiz-adv-x="1253" d="M37 651v70h115v522h346q137 0 220 -37t126 -116.5t56 -197.5t13 -278q0 -156 -17 -269.5t-66.5 -192t-141.5 -115.5t-239 -37h-297v651h-115zM246 68h155q141 0 224.5 23.5t125.5 91t54 189.5t12 320q0 141 -13 233.5t-56 148.5t-123 79t-211 23h-168v-455h282v-70h-282 v-583z" />
<glyph unicode="&#xd1;" horiz-adv-x="1376" d="M160 14v1157h141l606 -1120l2 1120h64v-1157h-139l-603 1133l-2 -1133h-69zM279 1307q29 94 79 133t129 39q29 0 68 -12.5t81 -28t81 -27.5t65 -12q43 0 69 17.5t40 62.5h80q-16 -88 -63.5 -129t-119.5 -41q-29 0 -70.5 13t-85.5 28.5t-82 28t-58 12.5q-96 0 -113 -84 h-100z" />
<glyph unicode="&#xd2;" horiz-adv-x="1253" d="M125 590q0 119 6 232.5t43 197.5t119 134t227 50q147 0 227 -50t118 -134t45.5 -197.5t7.5 -232.5q0 -121 -7.5 -231.5t-45.5 -196.5t-117.5 -136.5t-227.5 -50.5q-145 0 -227 50.5t-119 136.5t-43 196.5t-6 231.5zM217 590q0 -123 5 -224.5t34 -171t90.5 -109.5 t173.5 -40q111 0 173.5 40t90 109.5t33.5 171t6 224.5q0 125 -6 226.5t-33.5 172t-90 109.5t-173.5 39q-113 0 -174 -39t-90 -109.5t-34 -172t-5 -226.5zM299 1479h164l182 -254h-88z" />
<glyph unicode="&#xd3;" horiz-adv-x="1253" d="M125 590q0 119 6 232.5t43 197.5t119 134t227 50q147 0 227 -50t118 -134t45.5 -197.5t7.5 -232.5q0 -121 -7.5 -231.5t-45.5 -196.5t-117.5 -136.5t-227.5 -50.5q-145 0 -227 50.5t-119 136.5t-43 196.5t-6 231.5zM217 590q0 -123 5 -224.5t34 -171t90.5 -109.5 t173.5 -40q111 0 173.5 40t90 109.5t33.5 171t6 224.5q0 125 -6 226.5t-33.5 172t-90 109.5t-173.5 39q-113 0 -174 -39t-90 -109.5t-34 -172t-5 -226.5zM526 1262l131 217h185l-209 -217h-107z" />
<glyph unicode="&#xd4;" horiz-adv-x="1253" d="M125 590q0 119 6 232.5t43 197.5t119 134t227 50q147 0 227 -50t118 -134t45.5 -197.5t7.5 -232.5q0 -121 -7.5 -231.5t-45.5 -196.5t-117.5 -136.5t-227.5 -50.5q-145 0 -227 50.5t-119 136.5t-43 196.5t-6 231.5zM217 590q0 -123 5 -224.5t34 -171t90.5 -109.5 t173.5 -40q111 0 173.5 40t90 109.5t33.5 171t6 224.5q0 125 -6 226.5t-33.5 172t-90 109.5t-173.5 39q-113 0 -174 -39t-90 -109.5t-34 -172t-5 -226.5zM274 1268l195 211h109l190 -211h-84l-164 180l-158 -180h-88z" />
<glyph unicode="&#xd5;" horiz-adv-x="1253" d="M125 590q0 119 6 232.5t43 197.5t119 134t227 50q147 0 227 -50t118 -134t45.5 -197.5t7.5 -232.5q0 -121 -7.5 -231.5t-45.5 -196.5t-117.5 -136.5t-227.5 -50.5q-145 0 -227 50.5t-119 136.5t-43 196.5t-6 231.5zM217 590q0 -123 5 -224.5t34 -171t90.5 -109.5 t173.5 -40q111 0 173.5 40t90 109.5t33.5 171t6 224.5q0 125 -6 226.5t-33.5 172t-90 109.5t-173.5 39q-113 0 -174 -39t-90 -109.5t-34 -172t-5 -226.5zM276 1307q35 100 83.5 136t119.5 36q31 0 62.5 -10.5t76.5 -28.5l33 -13q33 -12 57.5 -20t49.5 -8q53 0 79.5 14 t43.5 66h82q-16 -88 -64.5 -129t-118.5 -41q-25 0 -66.5 13t-85.5 28.5t-81 28t-58 12.5q-100 0 -120 -84h-93z" />
<glyph unicode="&#xd6;" horiz-adv-x="1253" d="M125 596q0 123 6 236.5t43 199.5t119 136.5t227 50.5q147 0 227 -50.5t118 -136.5t45.5 -199.5t7.5 -236.5q0 -121 -7.5 -233.5t-45.5 -199.5t-117.5 -137.5t-227.5 -50.5q-145 0 -227 50.5t-119 137.5t-43 199.5t-6 233.5zM217 596q0 -125 5 -226.5t34 -173t90.5 -110.5 t173.5 -39q111 0 173.5 39t90 110.5t33.5 173t6 226.5q0 127 -6 228.5t-33.5 173t-90 112.5t-173.5 41q-113 0 -174 -41t-90 -112.5t-34 -173t-5 -228.5zM326 1333v146h92v-146h-92zM623 1333v146h92v-146h-92z" />
<glyph unicode="&#xd7;" d="M51 150l318 292l-318 293l51 47l318 -297l315 297l53 -47l-317 -293l313 -292v-9q-6 -8 -14 -14t-12 -10l-23 -23l-315 295l-318 -295z" />
<glyph unicode="&#xd8;" horiz-adv-x="1253" d="M98 -31l97 164q-51 88 -62.5 187.5t-11.5 191.5v209q0 90 9 187.5t48 177t119 130t221 50.5q100 0 169 -28t126 -81l92 148l35 -25l-98 -170q49 -84 62.5 -183.5t13.5 -191.5v-213q0 -90 -9.5 -186t-49.5 -178t-120 -132.5t-221 -50.5q-98 0 -167.5 31t-125.5 82 l-86 -141zM215 592q0 -98 3 -185.5t30 -187.5l516 858q-35 55 -91.5 87t-154.5 32q-115 0 -177 -44t-90 -121t-32 -181.5t-4 -231.5v-26zM272 166q35 -57 91.5 -87t154.5 -30q113 0 175.5 41t90 112.5t33.5 172t6 217.5t-4 217t-28 211z" />
<glyph unicode="&#xd9;" horiz-adv-x="1253" d="M135 354v828h92v-746q0 -61 5.5 -129.5t32 -127t86 -96.5t167.5 -38q111 0 170.5 38t88 96.5t32.5 127t4 129.5v746h94v-828q0 -111 -30.5 -185.5t-85 -117.5t-126 -59.5t-147.5 -16.5t-146.5 16.5t-121.5 59.5t-83 118t-32 185zM297 1479h162l186 -254h-88z" />
<glyph unicode="&#xda;" horiz-adv-x="1253" d="M135 354v828h92v-746q0 -61 5.5 -129.5t32 -127t86 -96.5t167.5 -38q111 0 170.5 38t88 96.5t32.5 127t4 129.5v746h94v-828q0 -111 -30.5 -185.5t-85 -117.5t-126 -59.5t-147.5 -16.5t-146.5 16.5t-121.5 59.5t-83 118t-32 185zM526 1262l131 217h185l-209 -217h-107z " />
<glyph unicode="&#xdb;" horiz-adv-x="1253" d="M135 354v828h92v-746q0 -61 5.5 -129.5t32 -127t86 -96.5t167.5 -38q111 0 170.5 38t88 96.5t32.5 127t4 129.5v746h94v-828q0 -111 -30.5 -185.5t-85 -117.5t-126 -59.5t-147.5 -16.5t-146.5 16.5t-121.5 59.5t-83 118t-32 185zM272 1268l195 211h111l190 -211h-84 l-166 180l-158 -180h-88z" />
<glyph unicode="&#xdc;" horiz-adv-x="1253" d="M135 358v838h92v-752q0 -66 5.5 -135t32 -128.5t86 -96.5t167.5 -37q111 0 170.5 37t88 96.5t32.5 129t4 134.5v752h94v-838q0 -113 -30.5 -187.5t-85 -118.5t-126 -60.5t-147.5 -16.5t-146.5 16.5t-121.5 60.5t-83 119t-32 187zM324 1333v146h90v-146h-90zM623 1333v146 h92v-146h-92z" />
<glyph unicode="&#xdd;" horiz-adv-x="1126" d="M57 1171h82l330 -608l342 608h61l-374 -677v-480h-70v480zM383 1262l131 217h188l-210 -217h-109z" />
<glyph unicode="&#xde;" d="M145 0v1380h105v-319h295q43 0 98 -6t103.5 -39t82 -99.5t33.5 -181.5q0 -207 -78.5 -302t-265.5 -95h-268v-338h-105zM250 412h262q53 0 99 15t79 46t51.5 88t18.5 146q0 96 -20.5 151t-55.5 83t-80 36t-94 8h-260v-573z" />
<glyph unicode="&#xdf;" horiz-adv-x="1126" d="M152 0v1114q0 49 13 102.5t51 102.5t109.5 82t184.5 33q55 0 110.5 -16.5t98.5 -48.5t68.5 -77t25.5 -102q0 -72 -36 -129t-78 -109.5t-77.5 -100.5t-35.5 -101q0 -63 56 -116.5t124 -109t124 -122t56 -150.5q0 -143 -82 -209t-227 -66q-127 0 -191.5 62.5t-66.5 179.5 h96q6 -78 47 -124t140 -46q100 0 145 50.5t45 138.5q0 51 -27.5 95t-67.5 84t-86 75.5t-87 71.5t-68 75t-27 82q0 70 36 128t79 112.5t79 110.5t36 124q0 41 -20.5 75t-53.5 55.5t-73 31.5t-78 10q-45 0 -89.5 -11t-80 -44t-57 -89.5t-21.5 -146.5v-1077h-94z" />
<glyph unicode="&#xe0;" d="M92 260q0 106 47 169t121 92.5t162 38.5t166 11l112 7v102q0 123 -50 193.5t-193 70.5q-94 0 -161 -46t-77 -132h-90q6 63 36 106t76 70t104 40t124 13q39 0 92 -5t103.5 -28.5t85 -74.5t34.5 -139v-568q0 -25 1 -50.5t3.5 -57t8.5 -72.5h-88v168q-51 -100 -145.5 -145.5 t-188.5 -45.5q-141 0 -212 78t-71 205zM184 264q0 -45 13.5 -86t41 -73.5t68.5 -50t96 -17.5q63 0 116.5 22.5t94.5 60.5t63.5 90t22.5 105v205h-86q-72 0 -148.5 -6t-138 -31.5t-102.5 -76t-41 -142.5zM233 1417h158l201 -282h-84z" />
<glyph unicode="&#xe1;" d="M92 260q0 106 47 169t121 92.5t162 38.5t166 11l112 7v102q0 123 -50 193.5t-193 70.5q-94 0 -161 -46t-77 -132h-90q6 63 36 106t76 70t104 40t124 13q39 0 92 -5t103.5 -28.5t85 -74.5t34.5 -139v-568q0 -25 1 -50.5t3.5 -57t8.5 -72.5h-88v168q-51 -100 -145.5 -145.5 t-188.5 -45.5q-141 0 -212 78t-71 205zM184 264q0 -45 13.5 -86t41 -73.5t68.5 -50t96 -17.5q63 0 116.5 22.5t94.5 60.5t63.5 90t22.5 105v205h-86q-72 0 -148.5 -6t-138 -31.5t-102.5 -76t-41 -142.5zM489 1178l136 241h188l-221 -241h-103z" />
<glyph unicode="&#xe2;" d="M92 260q0 106 47 169t121 92.5t162 38.5t166 11l112 7v102q0 123 -50 193.5t-193 70.5q-94 0 -161 -46t-77 -132h-90q6 63 36 106t76 70t104 40t124 13q39 0 92 -5t103.5 -28.5t85 -74.5t34.5 -139v-568q0 -25 1 -50.5t3.5 -57t8.5 -72.5h-88v168q-150 -190 -334 -191 q-141 0 -212 78t-71 205zM184 264q0 -45 13.5 -86t41 -73.5t68.5 -50t96 -17.5q63 0 116.5 22.5t94.5 60.5t63.5 90t22.5 105v205h-86q-72 0 -148.5 -6t-138 -31.5t-102.5 -76t-41 -142.5zM201 1126l209 236h118l211 -236h-77l-191 220l-190 -220h-80z" />
<glyph unicode="&#xe3;" d="M88 1235q29 100 81 142t134 42q20 0 62.5 -13t92.5 -30.5t98 -32t79 -14.5q51 0 82 18.5t47 73.5h76q-12 -94 -66.5 -140t-132.5 -46q-27 0 -72 16.5t-94 34t-94 32.5t-68 15q-51 0 -89 -23.5t-50 -74.5h-86zM92 260q0 106 47 169t121 92.5t162 38.5t166 11l112 7v102 q0 123 -50 193.5t-193 70.5q-94 0 -161 -46t-77 -132h-90q6 63 36 106t76 70t104 40t124 13q39 0 92 -5t103.5 -28.5t85 -74.5t34.5 -139v-568q0 -25 1 -50.5t3.5 -57t8.5 -72.5h-88v168q-51 -100 -145.5 -145.5t-188.5 -45.5q-141 0 -212 78t-71 205zM184 264 q0 -45 13.5 -86t41 -73.5t68.5 -50t96 -17.5q63 0 116.5 22.5t94.5 60.5t63.5 90t22.5 105v205h-86q-72 0 -148.5 -6t-138 -31.5t-102.5 -76t-41 -142.5z" />
<glyph unicode="&#xe4;" d="M92 260q0 106 47 169t121 92.5t162 38.5t166 11l112 7v102q0 123 -50 193.5t-193 70.5q-94 0 -161 -46t-77 -132h-90q6 63 36 106t76 70t104 40t124 13q39 0 92 -5t103.5 -28.5t85 -74.5t34.5 -139v-568q0 -25 1 -50.5t3.5 -57t8.5 -72.5h-88v168q-150 -190 -334 -191 q-141 0 -212 78t-71 205zM184 264q0 -45 13.5 -86t41 -73.5t68.5 -50t96 -17.5q63 0 116.5 22.5t94.5 60.5t63.5 90t22.5 105v205h-86q-72 0 -148.5 -6t-138 -31.5t-102.5 -76t-41 -142.5zM252 1151v160h92v-160h-92zM594 1151v160h92v-160h-92z" />
<glyph unicode="&#xe5;" d="M92 260q0 106 47 169t121 92.5t162 38.5t166 11l112 7v102q0 123 -50 193.5t-193 70.5q-94 0 -161 -46t-77 -132h-90q6 63 36 106t76 70t104 40t124 13q39 0 92 -5t103.5 -28.5t85 -74.5t34.5 -139v-568q0 -25 1 -50.5t3.5 -57t8.5 -72.5h-88v168q-51 -100 -145.5 -145.5 t-188.5 -45.5q-141 0 -212 78t-71 205zM184 264q0 -45 13.5 -86t41 -73.5t68.5 -50t96 -17.5q63 0 116.5 22.5t94.5 60.5t63.5 90t22.5 105v205h-86q-72 0 -148.5 -6t-138 -31.5t-102.5 -76t-41 -142.5zM381 1262q0 39 16.5 72.5t47 59t70.5 41t85 15.5q41 0 82 -15.5 t70.5 -41t47 -60.5t17.5 -73q0 -43 -17.5 -80t-47 -63.5t-68.5 -43t-82 -16.5q-98 0 -159.5 59.5t-61.5 145.5zM463 1262q0 -23 7 -44.5t24.5 -41t45 -30.5t68.5 -11q70 0 99.5 39.5t29.5 85.5q0 41 -31.5 78.5t-103.5 37.5q-74 0 -106.5 -35.5t-32.5 -78.5z" />
<glyph unicode="&#xe6;" horiz-adv-x="1626" d="M84 246q0 115 49 177t127 92t176.5 37t196.5 7h69q0 66 -4 134.5t-27.5 124.5t-75.5 91t-146 35t-161 -46t-79 -132h-90q10 63 39.5 106t75 70t103.5 40t122 13q43 0 88 -11t85 -33.5t72.5 -56.5t53.5 -83q51 86 130 135t156 49q129 0 201 -41t105.5 -108.5t42 -156.5 t8.5 -185h-623v-121q0 -57 9.5 -118.5t39 -111t83 -83t134.5 -33.5q131 0 196 62.5t69 166.5h90q-18 -160 -111.5 -224.5t-243.5 -64.5q-96 0 -181 56.5t-122 167.5q-57 -113 -131.5 -168.5t-181.5 -55.5q-70 0 -132.5 16.5t-109.5 48.5t-74.5 83t-27.5 121zM178 254 q0 -117 69.5 -167t188.5 -50q92 0 145.5 44t81 107.5t35 139t7.5 139.5v17.5t-5 23.5q-86 -8 -177 -9t-169 -18.5t-127 -67.5t-49 -159zM778 559h539q0 88 -9.5 158.5t-40 122t-84 78t-139.5 26.5q-125 0 -195.5 -103.5t-70.5 -281.5z" />
<glyph unicode="&#xe7;" horiz-adv-x="876" d="M94 481q0 147 17.5 245.5t55.5 158t103.5 85t163.5 25.5q129 0 206 -61.5t77 -208.5h-86q0 102 -46 160.5t-171 58.5q-59 0 -103.5 -19.5t-72 -70.5t-40 -141t-12.5 -232q0 -74 4.5 -151.5t26 -143t65.5 -107.5t128 -42q70 0 111.5 16.5t65 48t33 72.5t13.5 86h86 q-2 -86 -33 -140t-74 -85t-90 -44.5t-82 -13.5l-106 -131q6 0 20.5 1t30.5 1h61q55 0 101.5 -29.5t46.5 -90.5q0 -45 -18.5 -73t-49 -45.5t-72.5 -23.5t-85 -6q-45 0 -84 8.5t-80 22.5l16 24q70 -23 127 -22q27 0 54.5 6t51 17.5t39 34t15.5 55.5q0 51 -39 75.5t-88 24.5 q-23 0 -45.5 -5t-40.5 -14l-10 11l125 159q-119 14 -182.5 63.5t-93.5 119t-35 153.5t-5 168z" />
<glyph unicode="&#xe8;" d="M115 340v246q0 217 90 313t266 96q129 0 199.5 -40t104.5 -108.5t41 -163.5t7 -202h-624v-98q0 -57 11 -118.5t40 -111t82 -83t139 -33.5q129 0 191.5 62.5t66.5 166.5h90q-6 -80 -32.5 -136t-72.5 -90t-107.5 -48.5t-135.5 -14.5q-68 0 -132.5 15.5t-113.5 56.5 t-79.5 111.5t-30.5 179.5zM199 541h538q0 92 -10 167.5t-40 127t-81 80t-135 28.5q-86 0 -139 -28.5t-82 -80t-40 -127t-11 -167.5zM233 1417h158l201 -282h-84z" />
<glyph unicode="&#xe9;" d="M115 340v246q0 217 90 313t266 96q129 0 199.5 -40t104.5 -108.5t41 -163.5t7 -202h-624v-98q0 -57 11 -118.5t40 -111t82 -83t139 -33.5q129 0 191.5 62.5t66.5 166.5h90q-6 -80 -32.5 -136t-72.5 -90t-107.5 -48.5t-135.5 -14.5q-68 0 -132.5 15.5t-113.5 56.5 t-79.5 111.5t-30.5 179.5zM199 541h538q0 92 -10 167.5t-40 127t-81 80t-135 28.5q-86 0 -139 -28.5t-82 -80t-40 -127t-11 -167.5zM489 1176l136 241h188l-221 -241h-103z" />
<glyph unicode="&#xea;" d="M115 340v246q0 217 90 313t266 96q129 0 199.5 -40t104.5 -108.5t41 -163.5t7 -202h-624v-98q0 -57 11 -118.5t40 -111t82 -83t139 -33.5q129 0 191.5 62.5t66.5 166.5h90q-6 -80 -32.5 -136t-72.5 -90t-107.5 -48.5t-135.5 -14.5q-68 0 -132.5 15.5t-113.5 56.5 t-79.5 111.5t-30.5 179.5zM199 541h538q0 92 -10 167.5t-40 127t-81 80t-135 28.5q-86 0 -139 -28.5t-82 -80t-40 -127t-11 -167.5zM199 1159l209 238h120l211 -238h-80l-188 219l-192 -219h-80z" />
<glyph unicode="&#xeb;" d="M115 340v246q0 217 90 313t266 96q129 0 199.5 -40t104.5 -108.5t41 -163.5t7 -202h-624v-98q0 -57 11 -118.5t40 -111t82 -83t139 -33.5q129 0 191.5 62.5t66.5 166.5h90q-6 -80 -32.5 -136t-72.5 -90t-107.5 -48.5t-135.5 -14.5q-68 0 -132.5 15.5t-113.5 56.5 t-79.5 111.5t-30.5 179.5zM199 541h538q0 92 -10 167.5t-40 127t-81 80t-135 28.5q-86 0 -139 -28.5t-82 -80t-40 -127t-11 -167.5zM252 1151v160h92v-160h-92zM594 1151v160h92v-160h-92z" />
<glyph unicode="&#xec;" horiz-adv-x="499" d="M14 1362h181l131 -232h-52zM195 0v977h81v-977h-81z" />
<glyph unicode="&#xed;" horiz-adv-x="499" d="M143 1130l209 232h103l-267 -232h-45zM188 0v977h86v-977h-86z" />
<glyph unicode="&#xee;" horiz-adv-x="499" d="M-39 1126l211 236h123l209 -236h-80l-191 220l-186 -220h-86zM193 0v977h83v-977h-83z" />
<glyph unicode="&#xef;" horiz-adv-x="499" d="M18 1151v160h93v-160h-93zM193 0v977h83v-977h-83zM360 1151v160h93v-160h-93z" />
<glyph unicode="&#xf0;" d="M115 377v219q0 193 86 296t270 103q94 0 137 -22.5t111 -91.5q-6 94 -28.5 154.5t-55.5 112.5t-70 91t-65 55l-199 -104l-31 29l207 108q-43 20 -67.5 33.5t-44 22t-38 14.5t-51.5 18l-6 2q18 16 27.5 22.5t26.5 22.5q37 -14 65.5 -24.5t53 -21.5t48 -24.5t48.5 -31.5 l190 100l35 -33l-182 -94q53 -47 97 -104.5t75.5 -143.5t50 -206.5t18.5 -298.5v-203q0 -188 -85 -294t-267 -106q-184 0 -270 105.5t-86 294.5zM199 487q0 -106 9 -189t37.5 -141.5t83 -89t142.5 -30.5t140.5 30.5t80 89t36.5 141.5t9 189q0 102 -9 187.5t-36.5 145t-80 92 t-140.5 32.5t-142.5 -32.5t-83 -92t-37.5 -144.5t-9 -188z" />
<glyph unicode="&#xf1;" d="M143 0v977h84v-172q39 90 123 140t168 50q94 0 149.5 -29.5t84 -73.5t36 -96.5t7.5 -99.5v-696h-86v690q0 49 -11.5 95t-38 81t-68.5 56.5t-102 21.5q-49 0 -96 -17.5t-84 -55t-59.5 -100t-22.5 -153.5v-618h-84zM201 1262q29 100 81 142t136 42q18 0 60 -13.5t91 -31 t98.5 -31.5t80.5 -14q53 0 82.5 18.5t46.5 73.5h75q-12 -94 -66.5 -140t-129.5 -46q-29 0 -74 16t-94 33.5t-94 33t-68 15.5q-51 0 -89 -23.5t-50 -74.5h-86z" />
<glyph unicode="&#xf2;" d="M115 377v219q0 193 86 296t270 103q182 0 267 -103.5t85 -295.5v-219q0 -188 -85 -294t-267 -106q-184 0 -270 105.5t-86 294.5zM199 487q0 -106 9 -189t37.5 -141.5t83 -89t142.5 -30.5t140.5 30.5t80 89t36.5 141.5t9 189q0 102 -9 187.5t-36.5 145t-80 92t-140.5 32.5 t-142.5 -32.5t-83 -92t-37.5 -144.5t-9 -188zM233 1417h158l201 -282h-84z" />
<glyph unicode="&#xf3;" d="M115 377v219q0 193 86 296t270 103q182 0 267 -103.5t85 -295.5v-219q0 -188 -85 -294t-267 -106q-184 0 -270 105.5t-86 294.5zM199 487q0 -106 9 -189t37.5 -141.5t83 -89t142.5 -30.5t140.5 30.5t80 89t36.5 141.5t9 189q0 102 -9 187.5t-36.5 145t-80 92t-140.5 32.5 t-142.5 -32.5t-83 -92t-37.5 -144.5t-9 -188zM489 1208l136 240h188l-221 -240h-103z" />
<glyph unicode="&#xf4;" d="M115 377v219q0 193 86 296t270 103q182 0 267 -103.5t85 -295.5v-219q0 -188 -85 -294t-267 -106q-184 0 -270 105.5t-86 294.5zM199 487q0 -106 9 -189t37.5 -141.5t83 -89t142.5 -30.5t140.5 30.5t80 89t36.5 141.5t9 189q0 102 -9 187.5t-36.5 145t-80 92t-140.5 32.5 t-142.5 -32.5t-83 -92t-37.5 -144.5t-9 -188zM199 1126l209 236h120l211 -236h-80l-188 220l-192 -220h-80z" />
<glyph unicode="&#xf5;" d="M115 377v219q0 193 86 296t270 103q182 0 267 -103.5t85 -295.5v-219q0 -188 -85 -294t-267 -106q-184 0 -270 105.5t-86 294.5zM199 487q0 -106 9 -189t37.5 -141.5t83 -89t142.5 -30.5t140.5 30.5t80 89t36.5 141.5t9 189q0 102 -9 187.5t-36.5 145t-80 92t-140.5 32.5 t-142.5 -32.5t-83 -92t-37.5 -144.5t-9 -188zM201 1262q29 100 81 142t136 42q18 0 60 -13.5t91 -31t98.5 -31.5t80.5 -14q53 0 82.5 18.5t46.5 73.5h75q-12 -94 -66.5 -140t-129.5 -46q-29 0 -74 16t-94 33.5t-94 33t-68 15.5q-51 0 -89 -23.5t-50 -74.5h-86z" />
<glyph unicode="&#xf6;" d="M115 377v219q0 193 86 296t270 103q182 0 267 -103.5t85 -295.5v-219q0 -188 -85 -294t-267 -106q-184 0 -270 105.5t-86 294.5zM199 487q0 -106 9 -189t37.5 -141.5t83 -89t142.5 -30.5t140.5 30.5t80 89t36.5 141.5t9 189q0 102 -9 187.5t-36.5 145t-80 92t-140.5 32.5 t-142.5 -32.5t-83 -92t-37.5 -144.5t-9 -188zM252 1151v160h92v-160h-92zM594 1151v160h92v-160h-92z" />
<glyph unicode="&#xf7;" d="M57 469v63h826v-63h-826zM410 2v113h114v-113h-114zM410 883v114h114v-114h-114z" />
<glyph unicode="&#xf8;" d="M82 -63l100 149q-25 35 -38 83t-20 90t-8 75t-1 43v241q0 49 6 112t40 123t105.5 101t204.5 41q86 0 152.5 -23.5t111.5 -66.5q20 33 48 71t46 77q4 -2 11.5 -7.5t13.5 -9.5l-94 -153q23 -41 36 -72t18 -61.5t7 -60.5t2 -71v-241q0 -96 -18.5 -168t-60.5 -125t-109.5 -80 t-163.5 -27q-86 0 -150.5 23t-111.5 63l-98 -143zM199 487q0 -82 5 -157.5t29 -169.5l451 678q-31 55 -83 80.5t-130 25.5q-88 0 -142.5 -26.5t-83 -82t-37.5 -142.5t-9 -206zM256 137q35 -51 82 -75.5t125 -24.5q70 0 116 16.5t72.5 40t38.5 48t19 40.5l4 4q6 25 10 67 t8 87t5 86t1 61q0 74 -5 151t-27 171z" />
<glyph unicode="&#xf9;" d="M154 276v701h84v-680q0 -10 2 -53t19 -89t59 -82t124 -36q70 0 120 26.5t81 63.5t45 80t14 72v698h84v-977h-67v152q-72 -98 -146.5 -136.5t-158.5 -38.5q-78 0 -127 25t-80 67t-42 97t-11 110zM233 1417h158l201 -282h-84z" />
<glyph unicode="&#xfa;" d="M154 276v701h84v-680q0 -10 2 -53t19 -89t59 -82t124 -36q70 0 120 26.5t81 63.5t45 80t14 72v698h84v-977h-67v152q-72 -98 -146.5 -136.5t-158.5 -38.5q-78 0 -127 25t-80 67t-42 97t-11 110zM489 1176l136 241h161l-194 -241h-103z" />
<glyph unicode="&#xfb;" d="M154 276v701h84v-680q0 -10 2 -53t19 -89t59 -82t124 -36q70 0 120 26.5t81 63.5t45 80t14 72v698h84v-977h-67v152q-80 -86 -150.5 -130.5t-154.5 -44.5q-78 0 -127 25t-80 67t-42 97t-11 110zM199 1126l209 236h120l211 -236h-80l-188 220l-192 -220h-80z" />
<glyph unicode="&#xfc;" d="M154 276v701h84v-680q0 -10 2 -53t19 -89t59 -82t124 -36q70 0 120 26.5t81 63.5t45 80t14 72v698h84v-977h-67v152q-80 -86 -150.5 -130.5t-154.5 -44.5q-78 0 -127 25t-80 67t-42 97t-11 110zM252 1151v160h92v-160h-92zM594 1151v160h92v-160h-92z" />
<glyph unicode="&#xfd;" horiz-adv-x="876" d="M43 977h90l285 -895l282 895h80l-442 -1360h-78l121 358zM430 1208l139 240h189l-223 -240h-105z" />
<glyph unicode="&#xfe;" d="M150 -383v1798h81v-612q70 104 151 148t153 44q104 0 165.5 -41t92 -103.5t38 -139t7.5 -144.5v-80q0 -82 -6.5 -171t-38 -165.5t-95 -125t-174.5 -48.5q-164 0 -286 187q0 -57 -2.5 -128t-2.5 -142.5t-1 -143.5t-1 -133h-81zM231 399q0 -92 21.5 -161.5t57.5 -114.5 t83 -65.5t96 -20.5q96 0 149.5 34.5t79 95t32 141.5t6.5 173q0 96 -6.5 180t-32 147.5t-78.5 99.5t-150 36q-39 0 -84 -19.5t-82.5 -62.5t-64.5 -112.5t-27 -171.5v-179z" />
<glyph unicode="&#xff;" horiz-adv-x="876" d="M43 977h90l285 -895l282 895h80l-442 -1360h-78l121 358zM195 1151v160h92v-160h-92zM537 1151v160h92v-160h-92z" />
<glyph unicode="&#x2da;" horiz-adv-x="847" d="M209 1223q0 39 17.5 73.5t46 61t69.5 43t86 16.5q43 0 83 -16.5t69.5 -43t48 -62t18.5 -74.5q0 -43 -18.5 -80t-48 -64.5t-68.5 -44t-82 -16.5q-98 0 -159.5 60.5t-61.5 146.5zM289 1223q0 -23 7 -45.5t25.5 -41t48 -29.5t70.5 -11q63 0 95 40t32 85q0 41 -33.5 79.5 t-103.5 38.5q-72 0 -106.5 -36.5t-34.5 -79.5z" />
<glyph unicode="&#x2dc;" horiz-adv-x="811" d="M31 1225q27 104 80 147t137 43q18 0 59 -13t91.5 -31.5t98.5 -32t83 -13.5q51 0 81.5 17.5t43.5 74.5h79q-16 -94 -69 -142t-129 -48q-27 0 -74 16.5t-96 33.5t-93 34.5t-67 17.5q-55 0 -90 -23.5t-49 -80.5h-86z" />
<glyph unicode="&#x401;" horiz-adv-x="913" d="M133 -6v1311h590v-82h-496v-508h478v-78h-478v-565h508v-78h-602zM272 1366v113h84v-113h-84zM512 1366v113h82v-113h-82z" />
<glyph unicode="&#x410;" horiz-adv-x="1064" d="M41 0l408 1376h116l385 -1376h-110l-105 375h-493l-115 -375h-86zM264 455h455l-215 858z" />
<glyph unicode="&#x411;" horiz-adv-x="942" d="M131 0v1376h590v-82h-496v-532q63 18 120.5 24.5t109.5 6.5q162 0 244.5 -107.5t82.5 -300.5q0 -385 -331 -385h-320zM225 78h201q137 0 195.5 72.5t58.5 238.5q0 326 -227 326q-111 0 -228 -33v-604z" />
<glyph unicode="&#x412;" horiz-adv-x="989" d="M133 0v1376h334q143 0 231 -84t88 -241q0 -113 -46 -198t-173 -126q258 -90 258 -354q0 -180 -86 -276.5t-247 -96.5h-359zM227 72h248q244 0 244 297q0 317 -297 317q-90 0 -195 -14v-600zM227 770q57 -10 106.5 -16t88.5 -6q262 0 262 274q0 281 -231 281h-226v-533z " />
<glyph unicode="&#x413;" horiz-adv-x="749" d="M131 0v1376h533v-84h-439v-1292h-94z" />
<glyph unicode="&#x414;" horiz-adv-x="1083" d="M16 82q96 0 149.5 128t53.5 345v821h606v-1294h125v-426h-82q4 55 6.5 141t2.5 203h-787q0 -109 3 -192.5t9 -151.5h-86v426zM154 82h569v1210h-416v-755q0 -299 -153 -455z" />
<glyph unicode="&#x415;" horiz-adv-x="913" d="M131 0v1376h592v-84h-498v-532h480v-80h-480v-598h508v-82h-602z" />
<glyph unicode="&#x416;" horiz-adv-x="1523" d="M98 1307v77q18 6 39 7.5t43 1.5q117 0 117 -230v-143q0 -106 55 -172v2q27 -43 64 -62.5t82 -19.5q35 0 75.5 3t88.5 15v590h86v-590q49 -12 90 -15t77 -3q94 0 144 82v-2q53 66 53 172v143q0 229 115 230q27 0 46 -1t38 -8v-77q-10 2 -19.5 3t-19.5 1q-76 0 -76 -178 v-89q0 -45 -9 -81.5t-26.5 -70.5t-45.5 -69t-62 -75q74 -49 119 -87t69.5 -87.5t32.5 -119t8 -175.5q0 -197 23 -279h-91q-16 61 -24 130t-8 149q0 229 -61.5 328.5t-213.5 99.5q-72 0 -159 -21v-686h-86v686q-82 20 -162 21q-147 0 -211 -99.5t-64 -328.5q0 -172 -28 -279 h-91q10 47 16.5 115.5t6.5 163.5q0 117 7 187.5t32 117.5t71 82.5t119 81.5q-35 41 -61.5 75.5t-46 68.5t-27.5 70.5t-8 81.5v89q0 178 -78 178q-8 0 -17 -1t-22 -3z" />
<glyph unicode="&#x417;" horiz-adv-x="993" d="M74 303h100q8 -250 252 -250q299 0 299 314q0 78 -17.5 138t-62.5 99h2q-74 78 -196 78h-61t-54 -2v65q49 -6 115 -6q117 0 185.5 81t68.5 216q0 281 -254 281q-236 0 -246 -236h-107q4 68 31 126.5t74 100.5t113.5 66.5t148.5 24.5q164 0 247 -102.5t83 -268.5 q0 -225 -234 -323q268 -80 268 -324q0 -193 -95 -299.5t-292 -106.5q-164 0 -262 89.5t-106 238.5z" />
<glyph unicode="&#x418;" horiz-adv-x="1103" d="M129 0v1376h88v-1257l567 1257h109v-1376h-88v1260l-565 -1260h-111z" />
<glyph unicode="&#x419;" horiz-adv-x="1103" d="M129 0v1376h88v-1261l576 1261h100v-1376h-88v1260l-574 -1260h-102zM293 1554h86q4 -68 42 -111.5t89 -43.5q53 0 91 41t44 114h80q-4 -84 -58.5 -145t-156.5 -61t-156.5 59t-60.5 147z" />
<glyph unicode="&#x41a;" horiz-adv-x="997" d="M133 0v1376h94v-590q49 -12 99.5 -15t99.5 -3q43 0 79 18.5t62.5 53t42 81t15.5 99.5v143q0 229 112 230q20 0 42 -1t46 -8v-77q-14 4 -28 4q-45 0 -67.5 -38t-22.5 -140v-89q0 -45 -5.5 -81.5t-19.5 -70.5t-39 -69t-59 -75q68 -41 108.5 -78t63 -86t30 -123t7.5 -182 q0 -96 5 -164t15 -115h-92q-12 61 -17.5 130t-5.5 149q0 229 -63.5 328.5t-212.5 99.5q-49 0 -99.5 -4.5t-95.5 -16.5v-686h-94z" />
<glyph unicode="&#x41b;" horiz-adv-x="1015" d="M18 -2v92q53 -14 93 -14q111 0 110 330v970h592v-1376h-96v1292h-410v-930q0 -379 -180 -378q-39 0 -62.5 2t-46.5 12z" />
<glyph unicode="&#x41c;" horiz-adv-x="1392" d="M129 0v1376h147l359 -1292h18l355 1292h149v-1376h-78v1329l-49 -96l-334 -1233h-102l-332 1225l-51 98v-1323h-82z" />
<glyph unicode="&#x41d;" horiz-adv-x="1077" d="M131 0v1376h92v-624h551v624h94v-1376h-94v674h-551v-674h-92z" />
<glyph unicode="&#x41e;" horiz-adv-x="1159" d="M94 635v108q0 319 109.5 484.5t331.5 165.5q223 0 331.5 -165t108.5 -485v-108q0 -655 -440 -655t-441 655zM195 655q0 -299 89 -448.5t251 -149.5q344 0 344 598v68q0 592 -344 592q-162 0 -251 -147.5t-89 -444.5v-68z" />
<glyph unicode="&#x41f;" horiz-adv-x="1060" d="M133 0v1376h717v-1376h-92v1290h-533v-1290h-92z" />
<glyph unicode="&#x420;" horiz-adv-x="927" d="M129 0v1376h260q178 0 283.5 -100t105.5 -268q0 -201 -89 -306.5t-259 -105.5q-55 0 -109.5 9t-99.5 28v-633h-92zM221 719q57 -20 113.5 -31.5t101.5 -11.5q240 -1 240 323q0 295 -295 295h-160v-575z" />
<glyph unicode="&#x421;" horiz-adv-x="995" d="M94 631v117q0 651 387 651q164 0 259.5 -87t101.5 -231h-97q-4 113 -74.5 174.5t-174.5 61.5q-68 0 -124.5 -43t-95 -121t-60 -188.5t-21.5 -241.5v-66q0 -139 19 -250.5t59 -189.5t95.5 -121t127.5 -43q104 0 172.5 67.5t76.5 182.5h97q-6 -152 -104.5 -240t-256.5 -88 q-94 0 -165.5 45.5t-122 131.5t-75 206.5t-24.5 272.5z" />
<glyph unicode="&#x422;" horiz-adv-x="905" d="M37 1290v86h770v-86h-344v-1290h-86v1290h-340z" />
<glyph unicode="&#x423;" horiz-adv-x="897" d="M49 1382h96l277 -1194l283 1194h98l-344 -1337v2q-35 -137 -89.5 -192.5t-152.5 -55.5q-20 0 -46 8.5t-50 20.5v78q31 -18 47 -25.5t35 -7.5q127 0 178 201z" />
<glyph unicode="&#x424;" horiz-adv-x="1345" d="M72 698q0 119 29.5 214.5t80.5 163t126 104.5t167 37h107v182h86v-182h104q88 0 163 -36t126 -103.5t80.5 -164t29.5 -215.5q0 -121 -29.5 -219t-81.5 -165.5t-126 -103.5t-162 -36h-104v-199h-86v199h-107q-90 0 -163.5 37t-127 104.5t-83 165t-29.5 217.5zM166 698 q0 -453 315 -452h105v909h-105q-315 0 -315 -457zM662 246h102q311 -1 311 452q0 457 -311 457h-102v-909z" />
<glyph unicode="&#x425;" horiz-adv-x="1048" d="M57 0l385 723l-336 653h111l275 -579l278 579h109l-334 -653l373 -723h-107l-319 639l-320 -639h-115z" />
<glyph unicode="&#x426;" horiz-adv-x="1120" d="M131 0v1376h92v-1294h533v1294h94v-1294h131v-426h-84q6 72 8 155t2 189h-776z" />
<glyph unicode="&#x427;" horiz-adv-x="935" d="M78 1008v368h98v-381q0 -291 223 -290q133 0 240 32v639h94v-1376h-94v676q-82 -18 -153.5 -29.5t-129.5 -11.5q-139 0 -208.5 97t-69.5 276z" />
<glyph unicode="&#x428;" horiz-adv-x="1521" d="M129 0v1376h92v-1292h438v1292h86v-1292h441v1292h90v-1376h-1147z" />
<glyph unicode="&#x429;" horiz-adv-x="1574" d="M129 0v1376h90v-1294h436v1294h90v-1294h435v1294h90v-1294h141v-426h-84q6 57 8 143t2 201h-1208z" />
<glyph unicode="&#x42a;" horiz-adv-x="1087" d="M57 1290v86h305v-606q117 23 218 23q342 0 342 -408q0 -385 -332 -385h-322v1290h-211zM362 78h199q141 0 199.5 71.5t58.5 239.5q0 326 -227 326q-135 0 -230 -29v-608z" />
<glyph unicode="&#x42b;" horiz-adv-x="1257" d="M131 0v1376h90v-606q109 23 213 23q344 0 344 -408q0 -385 -332 -385h-315zM221 78h201q137 0 195.5 71.5t58.5 239.5q0 326 -227 326q-63 0 -121 -6.5t-107 -22.5v-608zM940 0v1376h94v-1376h-94z" />
<glyph unicode="&#x42c;" horiz-adv-x="940" d="M131 0v1376h92v-608q63 18 115.5 21.5t97.5 3.5q344 0 344 -408q0 -385 -331 -385h-318zM223 78h201q137 0 195.5 71.5t58.5 239.5q0 326 -227 326q-66 0 -124.5 -6.5t-103.5 -22.5v-608z" />
<glyph unicode="&#x42d;" horiz-adv-x="997" d="M74 303h100q8 -115 76.5 -182.5t175.5 -67.5q299 0 299 627h-389v76h389q0 561 -299 561q-100 0 -170 -61.5t-82 -157.5h-100q8 139 106.5 220t261.5 81q190 0 288.5 -162t98.5 -477v-92q0 -692 -387 -693q-164 0 -262 89.5t-106 238.5z" />
<glyph unicode="&#x42e;" horiz-adv-x="1470" d="M127 0v1376h92v-620h178q0 143 31 261t90.5 203t141 129t180.5 44q96 0 174 -44t134 -125t88 -189.5t32 -237.5v-160q0 -319 -107.5 -488t-320.5 -169q-215 0 -329 177t-114 523h-178v-680h-92zM498 670q0 -612 342 -613q330 0 329 613v90q0 258 -89 406.5t-240 148.5 q-156 0 -249 -143.5t-93 -411.5v-90z" />
<glyph unicode="&#x42f;" horiz-adv-x="987" d="M117 0q4 37 7 91t3 140q0 104 6 173t27.5 117t60.5 80t103 67q-61 31 -101.5 63.5t-62 73.5t-27.5 92t-6 119q0 164 91 262t259 98h305v-1376h-92v616q-51 10 -103 16.5t-112 6.5q-127 0 -188 -88h2q-63 -102 -64 -334q0 -141 -14 -217h-94zM225 1012q0 -315 250 -316 q63 0 114.5 4.5t100.5 14.5v583h-217q-135 0 -191.5 -65.5t-56.5 -220.5z" />
<glyph unicode="&#x430;" horiz-adv-x="878" d="M113 240q0 143 80.5 225t236.5 82h152v158q0 188 -170 188q-72 0 -117 -44t-51 -116h-82q2 106 63.5 156.5t177.5 50.5q156 0 212.5 -63.5t56.5 -204.5v-561q0 -35 1 -60.5t5 -50.5h-72q-4 20 -8 52t-4 91q-37 -92 -106.5 -129t-155.5 -37q-106 0 -162.5 71t-56.5 192z M203 254q0 -82 46 -142.5t118 -60.5q215 0 215 305v138h-138q-121 0 -181 -64.5t-60 -175.5z" />
<glyph unicode="&#x431;" horiz-adv-x="944" d="M117 549v121q0 592 309 592h70q131 0 211 55v-70q-16 -12 -32 -20t-34 -19h4q-33 -10 -79 -12t-103 -2q-260 0 -262 -479q41 94 113.5 147t156.5 53q301 0 301 -421v-68q0 -102 -22.5 -184t-65.5 -139.5t-103.5 -91.5t-134.5 -34q-330 0 -329 572zM203 457 q0 -406 243 -406q55 0 99.5 27.5t75 76t46 118t15.5 153.5v68q0 354 -225 354q-254 0 -254 -391z" />
<glyph unicode="&#x432;" horiz-adv-x="907" d="M154 0v932h303q250 0 250 -227q0 -80 -37 -125t-129 -86q192 -74 192 -254q0 -133 -55 -186.5t-191 -53.5h-333zM242 51h235q84 0 124 43.5t40 147.5q0 221 -190 221h-209v-412zM242 516h204q78 0 124 53.5t46 135.5q0 176 -165 176h-209v-365z" />
<glyph unicode="&#x433;" horiz-adv-x="651" d="M156 0v922h393v-74h-307v-848h-86z" />
<glyph unicode="&#x434;" horiz-adv-x="927" d="M47 66q139 0 139 272v584h512v-856h99v-312h-76q6 41 9 99.5t3 146.5h-627q0 -82 2.5 -143.5t8.5 -102.5h-70v312zM166 66h440v788h-334v-528q0 -152 -106 -260z" />
<glyph unicode="&#x435;" horiz-adv-x="890" d="M115 442q0 494 313 494q141 0 216 -97t75 -290q0 -80 -51 -80h-465v-100q0 -317 227 -318q84 0 135 54.5t64 140.5h80q-6 -119 -79 -190.5t-194 -71.5q-322 0 -321 458zM203 526h426v56q0 137 -53.5 216t-145.5 79q-98 0 -162.5 -88.5t-64.5 -262.5z" />
<glyph unicode="&#x436;" horiz-adv-x="1327" d="M121 0q12 39 17 89t5 106q0 109 50.5 181.5t128.5 115.5q-51 45 -71 100t-20 92v64q0 121 -86 120h-16v60q27 8 51 8q35 0 57.5 -9t36 -33t19.5 -65t6 -108q0 -119 30.5 -163t114.5 -44q37 0 71 4t67 8v396h82v-396q33 -4 66.5 -8t72.5 -4q78 0 108.5 44t30.5 163 q0 70 8 111.5t21.5 64.5t34 31t45.5 8q47 0 71 -8v-60h-12q-47 0 -70.5 -27.5t-23.5 -92.5v-64q0 -37 -21.5 -92t-72.5 -100q45 -23 91 -54.5t64 -68.5q12 -31 18.5 -80t9.5 -101.5t6 -103.5t13 -84h-92q-6 45 -11 93t-5 104q0 260 -203 260q-29 0 -66.5 -4t-82.5 -11v-442 h-82v442q-92 14 -148 15q-205 0 -205 -260q0 -127 -20 -197h-88z" />
<glyph unicode="&#x437;" horiz-adv-x="839" d="M113 264h84q8 -217 182 -217q51 0 87 9.5t75 47t39 146.5q0 119 -63.5 163t-164.5 44q-18 0 -28 -4v57h79q72 0 117 49t45 143q0 180 -178 181q-172 0 -180 -191h-70q6 109 70.5 178.5t179.5 69.5q121 0 187.5 -53t66.5 -170q0 -68 -37 -131.5t-117 -104.5 q94 -33 139.5 -97t45.5 -146q0 -131 -76 -196t-217 -65q-133 0 -196.5 74t-69.5 213z" />
<glyph unicode="&#x438;" horiz-adv-x="974" d="M156 0v922h84v-850l419 850h101v-922h-84v856l-420 -856h-100z" />
<glyph unicode="&#x439;" horiz-adv-x="974" d="M156 0v922h88v-828l415 828h101v-922h-88v825l-416 -825h-100zM256 1253h59q10 -141 144 -141q131 0 145 141h55q-6 -88 -57 -137t-143 -49t-144.5 49t-58.5 137z" />
<glyph unicode="&#x43a;" horiz-adv-x="907" d="M162 0v922h88v-396q76 -16 137 -16q156 0 156 211q0 68 8 109.5t22.5 65.5t35 32t44.5 8q43 0 64 -8v-60h-12q-45 0 -69 -29.5t-24 -90.5v-64q0 -39 -15 -88t-56 -104q82 -39 113.5 -91.5t41 -115t9.5 -136t16 -149.5h-90q-18 86 -19 197q0 133 -45 193.5t-157 60.5 q-43 0 -83 -2.5t-77 -6.5v-442h-88z" />
<glyph unicode="&#x43b;" horiz-adv-x="927" d="M47 -4v63q12 -2 23.5 -2h19.5q109 0 109 246v619h520v-922h-90v854h-348v-512q0 -358 -166 -358q-10 0 -68 12z" />
<glyph unicode="&#x43c;" horiz-adv-x="1216" d="M86 0v922h168l274 -871h21l280 871h166v-922h-75v899l-41 -6l-289 -893h-96l-291 893l-39 4v-897h-78z" />
<glyph unicode="&#x43d;" horiz-adv-x="958" d="M156 0v922h88v-396h411v396h88v-922h-88v453h-411v-453h-88z" />
<glyph unicode="&#x43e;" horiz-adv-x="946" d="M113 432v60q0 444 331 444q330 0 330 -444v-60q0 -449 -330 -448q-332 0 -331 448zM201 432q0 -182 64.5 -281.5t178.5 -99.5q117 0 179.5 97.5t62.5 283.5v60q0 178 -62.5 277t-179.5 99q-121 0 -182 -102t-61 -274v-60z" />
<glyph unicode="&#x43f;" horiz-adv-x="942" d="M154 0v922h575v-922h-88v846h-399v-846h-88z" />
<glyph unicode="&#x440;" horiz-adv-x="966" d="M150 928h77q4 -51 5 -75t1 -38l11 -29q37 74 110.5 118t145.5 44q301 0 301 -483q0 -479 -293 -479q-37 0 -78 12t-76 32.5t-62.5 48t-39.5 62.5l-10 -24v-461h-88v1104q0 53 -1 98t-3 70zM233 451q0 -86 18.5 -160t52.5 -131.5t80 -90t103 -32.5q96 0 158 108.5 t62 305.5q0 451 -232 450q-113 0 -177.5 -118.5t-64.5 -331.5z" />
<glyph unicode="&#x441;" horiz-adv-x="835" d="M115 465q0 471 295 471q119 0 186.5 -72.5t75.5 -183.5h-82q-8 94 -59.5 143t-120.5 49q-94 0 -149.5 -105t-55.5 -302q0 -414 205 -414q72 0 122 62.5t58 150.5h82q-8 -125 -76 -202.5t-186 -77.5q-141 0 -218 127t-77 354z" />
<glyph unicode="&#x442;" horiz-adv-x="745" d="M59 846v76h582v-76h-246v-846h-92v846h-244z" />
<glyph unicode="&#x443;" horiz-adv-x="862" d="M74 928h88l246 -844l245 844h84l-389 -1272h-78l95 317z" />
<glyph unicode="&#x444;" horiz-adv-x="1396" d="M106 457q0 221 63.5 342t190.5 121q92 0 157 -39t95 -107v514h88v-514q43 74 100.5 110t149.5 36q252 0 252 -463q0 -453 -252 -453q-76 0 -144.5 34t-105.5 118v-500h-88v500q-12 -41 -39.5 -69t-62.5 -47.5t-74 -27.5t-76 -8q-254 0 -254 453zM197 457q0 -92 14 -165 t41 -128t65.5 -84t85.5 -29q70 0 114 49.5t66.5 114t31 134t8.5 108.5q0 51 -7.5 121.5t-29 135t-65.5 110.5t-118 46q-207 0 -206 -413zM692 457q0 -43 7.5 -112t32 -134.5t65.5 -112.5t110 -47q68 0 109 49.5t62.5 114t26.5 135t5 107.5q0 414 -203 413q-76 0 -119 -49 t-64.5 -114.5t-26.5 -135t-5 -114.5z" />
<glyph unicode="&#x445;" horiz-adv-x="847" d="M84 0l272 481l-245 441h86l198 -381l207 381h84l-244 -441l265 -481h-93l-219 420l-217 -420h-94z" />
<glyph unicode="&#x446;" horiz-adv-x="958" d="M154 0v922h86v-856h397v856h90v-856h102v-312h-73q4 39 5 98.5t1 147.5h-608z" />
<glyph unicode="&#x447;" horiz-adv-x="839" d="M113 651v271h82v-252q0 -113 42 -163t142 -50q84 0 164 37v428h90v-922h-90v457q-86 -49 -191 -49q-143 0 -196 65q-43 63 -43 178z" />
<glyph unicode="&#x448;" horiz-adv-x="1286" d="M152 0v922h81v-856h330v856h82v-856h328v856h84v-922h-905z" />
<glyph unicode="&#x449;" horiz-adv-x="1302" d="M152 0v922h81v-856h328v856h84v-856h326v856h86v-856h98v-312h-72q6 39 9.5 98.5t3.5 147.5h-944z" />
<glyph unicode="&#x44a;" horiz-adv-x="946" d="M68 850v72h245v-410q104 27 201 27q127 0 196.5 -74t69.5 -205q0 -260 -278 -260h-275v850h-159zM313 66h195q182 -1 182 198q0 207 -178 207q-45 0 -94 -8t-105 -21v-376z" />
<glyph unicode="&#x44b;" horiz-adv-x="1140" d="M152 0v922h90v-406q43 12 92 17.5t102 5.5q254 -1 254 -273q0 -123 -64.5 -194.5t-181.5 -71.5h-292zM242 63h200q158 0 158 199q0 117 -37 163t-135 46q-45 0 -91 -8t-95 -19v-381zM829 0v922h93v-922h-93z" />
<glyph unicode="&#x44c;" horiz-adv-x="872" d="M154 0v922h90v-408q90 25 196 25q127 0 197 -74t70 -205q0 -260 -277 -260h-276zM244 66h188q180 -1 180 198q0 209 -176 209q-76 0 -192 -33v-374z" />
<glyph unicode="&#x44d;" horiz-adv-x="835" d="M113 264h84q10 -213 190 -213q102 0 147.5 93.5t45.5 306.5h-246v63h246q0 358 -193 358q-84 0 -135 -47t-55 -129h-84q4 109 77.5 174.5t196.5 65.5q285 0 285 -424v-59q0 -244 -66.5 -356.5t-218.5 -112.5q-268 0 -274 280z" />
<glyph unicode="&#x44e;" horiz-adv-x="1232" d="M150 0v922h88v-408h161q0 215 86 318.5t236 103.5q164 0 241.5 -111.5t77.5 -365.5q0 -475 -319 -475q-322 0 -322 469h-161v-453h-88zM489 459q0 -408 232 -408q231 0 231 408q0 219 -52 316t-179 97q-231 0 -232 -413z" />
<glyph unicode="&#x44f;" horiz-adv-x="894" d="M141 0q4 8 4 18v136q0 205 142 272q-141 82 -142 244q0 121 67 186.5t175 65.5h299v-922h-90v401q-33 4 -74 5.5t-86 1.5q-205 0 -205 -267q0 -47 -3 -81.5t-7 -59.5h-80zM231 670q0 -219 203 -219q90 0 162 24v395h-195q-170 0 -170 -200z" />
<glyph unicode="&#x451;" horiz-adv-x="890" d="M115 420q0 473 311 473q137 0 215 -96.5t78 -274.5q0 -80 -29 -80h-487v-94q0 -147 59.5 -225t165.5 -78q80 0 134 52.5t67 140.5h80q-6 -119 -80 -190t-195 -71q-319 0 -319 443zM203 494h426v55q0 133 -54.5 209t-146.5 76q-98 0 -158 -86q-68 -88 -67 -254zM233 1026 v121h86v-121h-86zM512 1026v121h90v-121h-90z" />
<glyph unicode="&#x10a0;" horiz-adv-x="1458" d="M100 629q0 207 98.5 365.5t290.5 275.5h-319v110l1087 -8v-108l-626 6q-432 -166 -432 -641q0 -238 144 -412t390 -170q113 -2 209 42t169 129t111 184.5t38 207.5q0 72 -17.5 151t-52.5 163l76 41q88 -173 88 -349q0 -276 -180.5 -457.5t-444.5 -181.5 q-272 0 -450.5 184.5t-178.5 467.5z" />
<glyph unicode="&#x10a1;" horiz-adv-x="1216" d="M102 961q0 106 53.5 213.5t145.5 205.5h119q-113 -102 -166 -203.5t-53 -211.5q2 -170 96 -262.5t207 -92.5q70 0 148.5 22.5t166.5 69.5v678h101v-1306h258v-74h-359v614q-92 -37 -169 -57t-140 -20q-178 0 -263 90t-115 165.5t-30 168.5z" />
<glyph unicode="&#x10a2;" horiz-adv-x="1169" d="M106 1087q0 133 96.5 219.5t243.5 86.5q74 0 132.5 -23.5t127 -91.5t68.5 -205v-1003h311v-330h-102v260h-305v1059q2 264 -221 264q-129 0 -190.5 -59.5t-61.5 -169.5q0 -43 16.5 -86t54.5 -88l-71 -58q-98 129 -99 225z" />
<glyph unicode="&#x10a3;" horiz-adv-x="1378" d="M104 596q-2 465 545 600v104h-475v80h1030v-80h-475v-102q543 -137 543 -604q0 -270 -166 -443.5t-416 -173.5q-242 0 -415 175.5t-171 443.5zM201 594q0 -233 142 -391t347 -158q219 0 352.5 164t135.5 385q-2 238 -154 387t-338 149q-188 0 -336.5 -151.5 t-148.5 -384.5z" />
<glyph unicode="&#x10a4;" horiz-adv-x="1050" d="M109 1014q0 66 29.5 133t80.5 123.5t129 89.5t168 33t165 -30t129 -89.5t85 -149.5t31 -209v-915h-101v915q0 231 -93 319.5t-216 88.5q-141 0 -224 -82t-83 -219q0 -86 28.5 -162t79.5 -135l-67 -70q-78 72 -109.5 160t-31.5 199z" />
<glyph unicode="&#x10a5;" horiz-adv-x="1316" d="M102 1073q0 129 101 225q98 94 237 95q150 0 236 -88q96 -86 96 -220v-145h442v-498h-96v426h-346v-868h-100v1087q0 68 -18.5 113t-50.5 72.5t-74 39t-89 11.5q-51 0 -95 -11.5t-75.5 -39t-50 -73.5t-18.5 -116q0 -72 65 -161l-63 -74q-51 61 -76 119.5t-25 105.5z" />
<glyph unicode="&#x10a6;" horiz-adv-x="1247" d="M47 1300v80h379v-438l246 -2q215 0 342 -116t129 -349q0 -117 -30 -209t-84 -156.5t-128 -98.5t-164 -34q-92 0 -167.5 27t-129 74t-81 136t-27.5 212v874h-285zM426 436q0 -223 71.5 -308t239.5 -81q119 -2 212 100.5t93 339.5q0 111 -34.5 206t-125.5 136t-210 41 l-246 -2v-432z" />
<glyph unicode="&#x10a7;" horiz-adv-x="1576" d="M96 688q0 317 189 512q184 193 526 193h223v-453h441v-520h-99v448h-342v-891h-223q-332 -4 -522 191v-2q-193 199 -193 522zM195 688q0 -252 141 -442q145 -199 463 -199h135v1276h-135q-309 0 -457 -178q-147 -170 -147 -457z" />
<glyph unicode="&#x10a8;" horiz-adv-x="751" d="M51 1282v217h99v-137l468 8v-1370h-100v1290z" />
<glyph unicode="&#x10a9;" horiz-adv-x="1034" d="M109 719v661h100l-2 -297q113 41 189.5 60.5t117.5 19.5q197 0 299 -129q111 -127 111 -317v-717h-99v346q-197 -88 -311 -88q-96 2 -171 33t-126 92q-53 66 -80.5 150.5t-27.5 185.5zM207 688q0 -72 17.5 -133t58.5 -117q86 -109 233 -108q49 2 127 22.5t182 55.5v354 q-2 57 -22.5 111.5t-54.5 107.5q-41 53 -98.5 82t-133.5 29q-137 0 -309 -56v-348z" />
<glyph unicode="&#x10aa;" horiz-adv-x="1456" d="M100 856v524h539v-506q178 66 287 66q211 0 317.5 -128t106.5 -374t-125 -352q-117 -109 -273 -109q-184 -2 -297.5 118t-113.5 364v846h-342v-449h-99zM639 457q0 -238 86 -324q84 -84 221 -88q113 4 207 80q47 41 73.5 122t28.5 204q0 240 -110 331q-109 86 -225 86 q-66 0 -136.5 -14t-144.5 -45v-352z" />
<glyph unicode="&#x10ab;" horiz-adv-x="1488" d="M100 455q0 121 32 210t91 152q123 125 324 125h270v356l-581 -8v84q588 6 679 8v-440h455l-20 -942h-97l17 868h-355v-413q0 -221 -97 -349.5t-312 -128.5q-160 0 -285 117q-121 115 -121 361zM199 455q0 -98 24.5 -175t65.5 -129.5t97 -79t120 -26.5q170 0 240.5 103.5 t70.5 306.5v413h-270q-125 0 -234 -88q-115 -92 -114 -325z" />
<glyph unicode="&#x10ac;" horiz-adv-x="1050" d="M127 0v1065q0 160 88 237.5t281 77.5h348v-82h-387q-61 0 -107.5 -11t-70.5 -34q-53 -49 -54 -202v-199q168 88 310 88q203 0 304 -117.5t101 -324.5l-18 -498h-95l13 508q0 98 -24.5 171t-65.5 114q-92 76 -232 75q-82 0 -154.5 -24.5t-138.5 -71.5v-772h-98z" />
<glyph unicode="&#x10ad;" horiz-adv-x="1458" d="M100 686q0 295 189 502q188 205 434 205q254 0 442 -205q188 -207 189 -502q0 -113 -29 -215t-82 -190q-55 -84 -127 -149.5t-158 -104.5q0 -258 158 -258q68 2 106 46t46 122h86q-6 -117 -64.5 -172.5t-175.5 -55.5q-225 0 -246 277l-141 -9q-260 0 -442 209 q-184 211 -185 500zM199 686q0 -272 155 -457q162 -184 369 -184q121 0 218 51t171 150q70 98 109 208.5t39 231.5q0 125 -39 234.5t-113 207.5q-154 195 -385 195q-219 0 -373 -193q-74 -98 -112.5 -207.5t-38.5 -236.5z" />
<glyph unicode="&#x10ae;" horiz-adv-x="1302" d="M39 1315v78h428v-985q0 -160 88 -261q90 -100 223 -100q66 0 122 25.5t96 73t62.5 115t22.5 147.5v985h99v-987q0 -168 -113 -304q-109 -125 -287 -125q-180 0 -295 123q-115 127 -114 312v903h-332z" />
<glyph unicode="&#x10af;" horiz-adv-x="1089" d="M109 1305v75h340v-77q-201 -109 -201 -357q0 -162 85 -250t251 -88q109 0 280 90v684h101v-1382h-101v623q-166 -86 -274 -86q-98 0 -179 28.5t-138.5 81.5t-89 132t-31.5 177q0 164 178 349h-221z" />
<glyph unicode="&#x10b0;" horiz-adv-x="1552" d="M98 379q0 207 127 321l58 -59q-49 -51 -67.5 -113.5t-18.5 -148.5q0 -143 96 -238v2q92 -96 215 -96q166 0 237.5 101.5t71.5 297.5v936h96v-442h525q-2 -111 -3 -210t-3 -204q-2 -104 -3.5 -204.5t-1.5 -208.5h-94l6 755h-426v-422q0 -242 -118 -354 q-113 -115 -287 -115q-180 0 -297 117q-113 119 -113 285z" />
<glyph unicode="&#x10b1;" horiz-adv-x="1050" d="M127 451v929h98v-934q0 -90 22.5 -164.5t64.5 -127t102.5 -80t134.5 -27.5q57 0 110.5 24.5t93.5 76t63.5 127t23.5 176.5q0 178 -115 307l47 73v-2q86 -76 127 -172t43 -219q-2 -106 -31.5 -190t-93.5 -148q-117 -123 -268 -123q-217 0 -316 142q-106 145 -106 332z" />
<glyph unicode="&#x10b2;" horiz-adv-x="1050" d="M127 0v1395h365q205 -2 325 -127q123 -124 123 -310q0 -174 -121 -299q-117 -125 -327 -124h-267v-465h590v-70h-688zM225 608h267q74 0 137 21.5t110 64.5t74 108.5t27 155.5q0 88 -27 156t-74 114t-110.5 70.5t-136.5 24.5h-267v-715z" />
<glyph unicode="&#x10b3;" horiz-adv-x="1458" d="M100 688q0 289 185 498q90 104 202.5 155.5t243.5 51.5q254 0 436 -207q186 -207 187 -500q0 -129 -45 -256t-138 -250q92 -57 137.5 -117.5t45.5 -117.5q0 -113 -57.5 -172.5t-184.5 -63.5v68q76 10 118 52t44 118q-2 59 -39 105t-105 77q-27 -25 -66.5 -51.5t-90.5 -49 t-113.5 -37t-132.5 -14.5q-131 0 -242.5 53.5t-201.5 155.5q-86 106 -134.5 235.5t-48.5 266.5zM199 686q0 -266 155 -450q162 -190 373 -191q111 0 207 49t174 144q74 94 113 205.5t39 242.5q0 248 -150 440q-156 197 -383 197q-111 0 -208 -51t-173 -150 q-70 -96 -108.5 -206.5t-38.5 -229.5z" />
<glyph unicode="&#x10b4;" horiz-adv-x="1486" d="M100 883q0 250 140 377q139 127 346 126h325q207 0 340 -122q129 -127 129 -381q0 -246 -133 -379t-336 -133h-114v-371h-92v371h-119q-207 0 -350 133q-135 131 -136 379zM199 883q0 -184 116 -314q121 -133 271 -133h119v889h-119q-164 0 -277 -125 q-111 -123 -110 -317zM797 436h114q168 0 271 135q100 133 100 312q0 98 -25.5 179t-73.5 139.5t-117 91t-155 32.5h-114v-889z" />
<glyph unicode="&#x10b5;" horiz-adv-x="1267" d="M104 827v328h97v-260h381v485h102v-499h477v-359h-96v287h-381v-809h-102v827h-478z" />
<glyph unicode="&#x10b6;" horiz-adv-x="1069" d="M127 958q0 186 117 314q117 123 295 123q90 0 161.5 -34t124.5 -93q55 -68 85 -142.5t30 -160.5v-988h-100v984q0 158 -84 260q-45 47 -100.5 74.5t-118.5 25.5q-131 0 -226 -100q-86 -102 -86 -260v-984h-96z" />
<glyph unicode="&#x10b7;" horiz-adv-x="1069" d="M127 924l25 456h96l-23 -456q0 -166 66.5 -240t220.5 -74q80 0 161 20.5t167 67.5v682h102v-1380h-102v614q-205 -78 -322 -77q-199 0 -295 107.5t-96 279.5z" />
<glyph unicode="&#x10b8;" horiz-adv-x="1069" d="M127 336l98 2q2 -70 26.5 -124t64.5 -92t93.5 -57.5t114.5 -19.5q137 0 226.5 80t89.5 237v261q-92 -41 -171 -63.5t-149 -22.5q-96 0 -170 30.5t-121 87.5q-45 59 -73.5 132t-28.5 139l25 454h96l-23 -454q0 -141 76 -228.5t231 -87.5q72 0 149 22.5t159 69.5v678h100 v-1018q0 -150 -98 -268q-43 -59 -123 -88t-193 -29q-76 0 -152.5 26t-131.5 67q-53 47 -83 113.5t-32 152.5z" />
<glyph unicode="&#x10b9;" horiz-adv-x="1067" d="M127 0v1380h96l2 -493q96 27 170 40t133 13q170 0 293 -100q119 -98 119 -336l-18 -504h-97l15 551q0 137 -66 225q-35 47 -101.5 69.5t-158.5 22.5q-61 0 -133 -11t-156 -36l-2 -821h-96z" />
<glyph unicode="&#x10ba;" horiz-adv-x="1374" d="M102 696q0 311 193 504q190 195 496 195q100 -2 201.5 -33t197.5 -86l-60 -94q-86 68 -174 104.5t-170 36.5q-238 0 -411 -168q-172 -166 -172 -459q0 -135 41 -248.5t129 -211.5q176 -190 426 -189q137 -2 366 148v415h103v-610h-103v104q-233 -127 -364 -127 q-328 0 -512 209q-92 106 -139.5 232.5t-47.5 277.5z" />
<glyph unicode="&#x10bb;" horiz-adv-x="1472" d="M100 473q0 217 129 340q131 127 342 127h248v440h96v-440h439v-920h-92v848h-347v-436q0 -117 -28.5 -203t-79.5 -141t-121 -83t-151 -28q-211 0 -323 132.5t-112 363.5zM199 473q0 -100 24.5 -179t69.5 -134.5t106.5 -85t132.5 -29.5q129 0 208 91t79 296v436h-248 q-90 0 -161.5 -33.5t-118.5 -95.5q-92 -117 -92 -266z" />
<glyph unicode="&#x10bc;" horiz-adv-x="1050" d="M127 0v1380h508q74 0 130 -23.5t95 -64.5t59.5 -97t20.5 -122q0 -63 -21.5 -120.5t-60.5 -106.5q-39 -41 -96 -67.5t-127 -26.5h-410v-281h449v-268h-99v200h-350v-403h-98zM225 827h410q39 0 76 15.5t65.5 45.5t46 76t17.5 107q0 129 -53.5 181.5t-151.5 52.5h-410v-478 z" />
<glyph unicode="&#x10bd;" horiz-adv-x="1071" d="M109 430h104q4 -72 26.5 -138.5t61.5 -119.5q102 -127 258 -127q158 0 229.5 81t71.5 226q0 190 -373 346q-336 131 -335 359q0 61 26.5 120.5t73.5 110.5v-2q53 51 119.5 79t146.5 28q176 0 268 -111q41 -51 66 -111.5t29 -134.5h-95q-2 78 -22.5 132.5t-61.5 88.5 q-78 66 -194 66q-123 0 -191.5 -72.5t-66.5 -185.5q0 -195 375 -354q338 -143 338 -346q0 -82 -27 -153t-84 -124q-109 -111 -289 -111q-109 0 -190.5 34t-141.5 106q-57 63 -87.5 142t-34.5 171z" />
<glyph unicode="&#x10be;" horiz-adv-x="1069" d="M127 0v1380h98v-751q72 -10 146.5 -14.5t158.5 -4.5q121 0 213 70q96 78 97 319v381h100v-362q0 -246 -113.5 -364.5t-306.5 -116.5q-66 0 -137.5 6t-157.5 20v-489h600v-74h-698z" />
<glyph unicode="&#x10bf;" horiz-adv-x="1183" d="M47 1309v73h1071l-428 -706l277 -520h-107l-217 469l-364 -625h-117l440 707l-348 602h-207zM369 1309l280 -549l348 549h-628z" />
<glyph unicode="&#x10c0;" horiz-adv-x="1472" d="M100 989v391h539v-977q0 -125 78 -243q84 -115 241 -115q121 0 211 100q47 51 67.5 116t20.5 142v537h95v-526q2 -98 -28 -177t-87 -141q-113 -119 -281 -119q-98 0 -177 36t-132 98q-47 66 -76.5 144.5t-29.5 158.5v891h-344v-316h-97z" />
<glyph unicode="&#x10c1;" horiz-adv-x="993" d="M127 0v1380h96l2 -440h242q145 0 227 -70.5t82 -199.5v-117h164v-72l-258 2v101q0 152 -44 218t-173 66h-240v-868h-98z" />
<glyph unicode="&#x10c2;" horiz-adv-x="1167" d="M106 457q0 86 34 165.5t67 129.5l80 -50q-33 -53 -57.5 -115.5t-24.5 -131.5q0 -104 28.5 -181t78.5 -128.5t119 -76t147 -24.5q197 0 288.5 107.5t91.5 296.5q0 129 -93 232t-257 179q-139 66 -223 148t-84 174q0 41 20.5 82t49.5 69q37 27 82 43.5t88 16.5 q98 0 167.5 -52.5t86.5 -142.5h-101q-6 72 -44 98.5t-109 26.5q-137 0 -138 -139q0 -178 345 -320q311 -124 311 -415q0 -223 -144 -347q-143 -125 -342 -125q-197 0 -331 123q-135 123 -136 357z" />
<glyph unicode="&#x10c3;" horiz-adv-x="993" d="M53 928v69h256v-53q-6 -45 1 -100.5t26 -108.5q51 -125 205 -125h223v770h102v-1380h-102v535h-219q-86 2 -146.5 25.5t-99.5 74.5q-84 102 -84 244v49h-162z" />
<glyph unicode="&#x10c4;" horiz-adv-x="1038" d="M127 954v426h98v-426q-4 -190 72 -266v2q41 -41 82 -61.5t92 -20.5h111q61 0 141 80q88 78 88 266v426h102v-426q0 -231 -125 -321q-63 -45 -114 -67.5t-99 -22.5v-543h-96v543q-98 0 -227 92q-125 94 -125 319z" />
<glyph unicode="&#x10c5;" horiz-adv-x="1271" d="M90 266q0 113 82 199v-2q82 86 221 86h195v305h-324v61h324v185q2 145 73.5 219t200.5 74q145 0 232.5 -68.5t87.5 -189.5q0 -61 -22.5 -112.5t-63.5 -88.5t-100.5 -58.5t-133.5 -21.5h-184v-305h293v-66h-293v-233q0 -121 -88 -197q-84 -76 -197 -76q-139 0 -221 74 t-82 215zM186 266q2 -100 51.5 -160.5t153.5 -58.5q39 0 74 13.5t62.5 39t44 63.5t16.5 87v233h-195q-35 0 -71.5 -10t-66.5 -34.5t-49.5 -66.5t-19.5 -106zM678 915h184q104 0 162.5 58.5t58.5 156.5q0 100 -57 146.5t-149 46.5q-49 0 -86 -17.5t-63 -48t-38 -71.5t-12 -86 v-185z" />
<glyph unicode="&#x10d0;" horiz-adv-x="872" d="M104 330q0 100 29 188l88 -26q-27 -100 -26 -162q0 -125 74.5 -192.5t172.5 -67.5q94 0 166 63.5t72 185.5q0 180 -176 311.5t-176 270.5v27h88v-25q0 -121 176 -253t176 -331q0 -131 -94 -225t-232 -94q-141 0 -239.5 101.5t-98.5 228.5z" />
<glyph unicode="&#x10d1;" horiz-adv-x="927" d="M104 418q0 164 93.5 280.5t240.5 141.5q14 70 21 121q10 137 -115 196.5t-125 181.5v52h94v-56q0 -92 119 -152.5t111 -215.5q-8 -59 -21 -133q104 -41 203.5 -146.5t99.5 -269.5q0 -174 -105.5 -296t-254.5 -122q-160 0 -260.5 122t-100.5 296zM195 418 q0 -147 78.5 -248.5t191.5 -101.5q104 0 187 101.5t83 248.5q0 137 -87 238.5t-173 117.5q-133 -16 -206.5 -117.5t-73.5 -238.5z" />
<glyph unicode="&#x10d2;" horiz-adv-x="944" d="M70 -39q0 184 109.5 303t266.5 125h15q152 0 282.5 -119.5t130.5 -310.5q0 -186 -122.5 -309t-292.5 -123q-164 0 -276.5 129t-112.5 305zM147 635q0 70 62.5 134.5t206.5 64.5q152 0 221.5 -56.5t69.5 -152.5q0 -115 -172 -240l-48 6h-41q170 125 170 234q0 53 -40.5 97 t-163.5 44q-92 0 -131 -38t-39 -93q0 -29 14 -57l-82 -33q-27 47 -27 90zM158 -41q0 -162 94 -263.5t217 -101.5q135 0 228.5 103.5t93.5 261.5q0 162 -103.5 262.5t-222.5 100.5q-139 0 -223 -105.5t-84 -257.5z" />
<glyph unicode="&#x10d3;" horiz-adv-x="1404" d="M106 436q0 182 97.5 286.5t240.5 104.5q129 0 240 -129q115 135 266 136q154 0 253.5 -123t99.5 -283q0 -164 -99.5 -284.5t-253.5 -120.5q-152 0 -249 120.5t-97 284.5q0 113 43 211q-86 121 -201 121q-111 0 -179 -86t-70 -238q-2 -188 84 -331.5t299 -233.5 q457 -139 489 -334h-115q-37 145 -178 198.5t-241.5 40t-298.5 -66.5v94l266 31q-221 100 -309.5 258t-86.5 344zM694 428q0 -135 74 -236.5t182 -101.5q109 0 185.5 101.5t76.5 236.5q0 133 -76.5 235.5t-185.5 102.5t-182.5 -102.5t-73.5 -235.5z" />
<glyph unicode="&#x10d4;" horiz-adv-x="905" d="M92 -131q0 145 80 256l72 -49q-61 -70 -62 -207q0 -131 73 -203t175 -72q106 0 180 70t74 242v612q0 104 -62.5 176t-146.5 72q-109 0 -166 -74t-57 -147q0 -100 24 -150l-79 -37q-37 90 -37 174q0 115 82 208.5t223 93.5q123 0 213 -89.5t90 -226.5v-612 q0 -193 -104.5 -286t-233.5 -93q-127 0 -232.5 99.5t-105.5 242.5z" />
<glyph unicode="&#x10d5;" horiz-adv-x="917" d="M92 -135q0 133 68 237l71 -45q-49 -70 -49 -192q0 -121 77 -196t202 -75q121 0 192.5 78t71.5 185v51q0 137 -84 223t-127 86h-111v74h111q37 0 111.5 60.5t74.5 176.5q0 119 -68.5 178.5t-158.5 59.5q-109 0 -171 -62.5t-62 -142.5q0 -59 18 -110l-80 -33 q-27 74 -26 129q0 127 85 207t234 80q133 0 226.5 -80t93.5 -215q0 -184 -220 -289q242 -123 242 -340v-51q0 -135 -105.5 -233.5t-246.5 -98.5q-156 0 -262.5 103.5t-106.5 234.5z" />
<glyph unicode="&#x10d6;" horiz-adv-x="929" d="M47 1087q0 131 79 220.5t212 89.5q106 0 196.5 -82t90.5 -248q0 -80 -22.5 -144.5t-67.5 -103.5q114 -18 188 -106q104 -123 104 -295q0 -174 -104.5 -296t-251.5 -122t-250.5 122t-103.5 296q0 172 104 295l39 39q-70 12 -141.5 100t-71.5 235zM133 1087 q0 -139 63.5 -211.5t149.5 -72.5q66 0 130.5 61.5t64.5 202.5q0 137 -63.5 199.5t-139.5 62.5q-106 0 -155.5 -69t-49.5 -173zM209 418q0 -147 79 -247.5t183 -100.5t184 100.5t80 247.5q0 145 -80 246.5t-184 101.5t-183 -101.5t-79 -246.5z" />
<glyph unicode="&#x10d7;" horiz-adv-x="1454" d="M104 418q0 172 104.5 294t256.5 122q172 0 297 -179q109 168 252 168q147 0 242.5 -109.5t95.5 -262.5q0 -262 -248 -463l-117 22q268 172 268 443q0 139 -72.5 219t-166.5 80q-127 0 -221 -168q30 -88 30 -166q0 -174 -105.5 -296t-254.5 -122q-152 0 -256.5 122 t-104.5 296zM195 414q0 -145 80.5 -245.5t185.5 -100.5q113 0 193.5 100.5t80.5 245.5q0 150 -81 251t-193 101q-104 0 -185 -101.5t-81 -250.5z" />
<glyph unicode="&#x10d8;" horiz-adv-x="905" d="M104 420q0 197 102.5 305.5t242.5 108.5q139 0 246.5 -109t107.5 -305q0 -186 -156 -410l-96 29q162 154 162 381q0 172 -72.5 259t-191.5 87q-121 0 -187.5 -87t-66.5 -259q0 -227 143 -397l-92 -23q-141 233 -142 420z" />
<glyph unicode="&#x10d9;" horiz-adv-x="894" d="M70 -115q0 121 67 213l74 -41q-51 -61 -51 -172q0 -147 83 -219t185 -72q123 0 198.5 63.5t75.5 199.5v77q0 137 -92 216t-184 79h-121v84h123q119 0 175 46.5t56 187.5t-143 254l39 67q190 -152 190 -315q0 -248 -215 -287q135 -49 198 -146t63 -181v-93 q0 -139 -100.5 -229t-262.5 -90q-147 0 -252.5 104.5t-105.5 253.5z" />
<glyph unicode="&#x10da;" horiz-adv-x="1804" d="M104 489q0 143 83 244t221 101q94 0 159.5 -43t102.5 -156q31 102 89 156.5t152 54.5q98 0 151.5 -54.5t82.5 -156.5q43 113 105.5 156t146.5 43q303 0 303 -324q0 -199 -125 -377l-102 23q135 147 135 348q0 258 -211 258q-117 0 -167 -94.5t-50 -180.5v-163h-78v168 q0 98 -37 190t-150 92q-117 0 -156.5 -92t-41.5 -190v-168h-80v168q0 82 -50 176t-181 94q-84 0 -147.5 -58.5t-63.5 -216.5q0 -262 194.5 -384.5t462.5 -206.5q375 -106 457 -353h-131q-47 209 -338 281q-211 49 -504 -123l-21 119l351 69q-328 129 -445 259.5t-117 340.5z " />
<glyph unicode="&#x10db;" horiz-adv-x="927" d="M104 418q0 172 104.5 294t256.5 122q162 0 276 -175v422q0 104 -57 176t-207 72q-106 0 -168.5 -47t-64.5 -104q2 -55 12 -91l-90 -24q-12 55 -12 115q2 88 88 153.5t235 65.5q186 0 267 -93.5t81 -224.5v-684q0 -186 -94 -290.5t-266 -104.5q-152 0 -256.5 122 t-104.5 296zM195 418q0 -147 81.5 -248.5t188.5 -101.5q127 0 201.5 84.5t74.5 242.5q0 168 -86 269.5t-190 101.5q-106 0 -188 -101.5t-82 -246.5z" />
<glyph unicode="&#x10dc;" horiz-adv-x="950" d="M125 395v748q0 233 287 233h209q123 0 122 70h93q0 -139 -215 -139h-236q-176 0 -176 -131v-531q111 188 278 189q150 0 255.5 -122t105.5 -294q0 -174 -105.5 -296t-255.5 -122q-174 0 -268 104.5t-94 290.5zM209 395q0 -162 73.5 -244.5t200.5 -82.5q111 0 193 100 t82 250q0 147 -82 247.5t-189 100.5q-109 0 -193.5 -100.5t-84.5 -270.5z" />
<glyph unicode="&#x10dd;" horiz-adv-x="1400" d="M104 446q0 186 103.5 287t224.5 101q82 0 150.5 -55.5t117.5 -174.5q49 119 118 174.5t151 55.5q121 0 224 -100.5t103 -287.5q0 -246 -213 -446l-114 23q238 180 237 428q0 154 -71.5 234.5t-163.5 80.5q-104 0 -166 -85t-62 -173v-164h-86v164q0 88 -61 173t-166 85 q-92 0 -163.5 -81t-71.5 -234q0 -248 231 -428l-115 -23q-207 201 -207 446z" />
<glyph unicode="&#x10de;" horiz-adv-x="927" d="M104 406q0 80 19 155l88 -22q-16 -63 -16 -140q0 -125 75.5 -228t194.5 -103t194.5 101t75.5 226q0 133 -93 231.5t-169 98.5h-108v80h114q96 0 159.5 57.5t61.5 122.5q0 135 -174 219t-174 193h101q0 -72 165.5 -164t165.5 -246q-2 -182 -231 -225q272 -111 272 -367 q0 -129 -99 -262t-261 -133q-145 0 -253 126t-108 280z" />
<glyph unicode="&#x10df;" horiz-adv-x="917" d="M82 -129q0 111 51 188l74 -41q-35 -39 -35 -147q0 -131 78 -204t192 -73q115 0 196 71t81 245v862q-158 -115 -477 -100q238 -78 237 -252q0 -90 -66.5 -142.5t-154.5 -52.5q-92 0 -176 49l37 72q70 -45 137 -45q145 6 145 121q0 201 -305 225h-14v76q416 -39 641 117h80 v-930q0 -201 -110.5 -292t-250.5 -91q-139 0 -249.5 100.5t-110.5 243.5z" />
<glyph unicode="&#x10e0;" horiz-adv-x="1402" d="M92 434q0 393 291 566.5t375 373.5h108q-135 -252 -368.5 -372.5t-300.5 -284.5q106 117 229 117q82 0 152.5 -56.5t119.5 -171.5q49 115 119 171.5t160 56.5q123 0 228.5 -100.5t105.5 -299.5q0 -266 -219 -428l-117 23q244 141 244 411q0 166 -74 246t-166 80 q-115 0 -176.5 -83t-61.5 -175v-164h-86v164q0 92 -62.5 175t-168.5 83q-92 0 -167 -80t-75 -246q0 -270 240 -415l-119 -23q-211 166 -211 432z" />
<glyph unicode="&#x10e1;" horiz-adv-x="931" d="M125 373v1018h84v-1018q0 -154 66.5 -229.5t197.5 -75.5q119 0 192.5 70.5t73.5 172.5q0 156 -123.5 237t-123.5 181q0 82 38 170l86 -22q-39 -68 -38 -154q0 -68 125.5 -147t125.5 -265q0 -137 -97 -224t-259 -87q-182 0 -265 101.5t-83 271.5z" />
<glyph unicode="&#x10e2;" horiz-adv-x="1103" d="M70 184q0 258 128 448.5t326 190.5h60q182 0 316 -195.5t134 -439.5q0 -270 -123 -465.5t-358 -195.5q-231 0 -357 195.5t-126 461.5zM162 184q0 -242 100 -416t297 -174q199 0 291 176.5t92 417.5q0 248 -92 402.5t-266 167.5h-60q-178 -12 -270 -170t-92 -404z M494 1092h124l-36 -209h-52zM502 199l24 493h49l35 -493h-108z" />
<glyph unicode="&#x10e3;" horiz-adv-x="1056" d="M47 848h92q-2 -154 70 -154q41 0 75.5 70t92.5 70h29q29 0 64.5 -36t55.5 -116q25 80 68 116t123 36q96 0 160.5 -77t64.5 -200v-641q0 -195 -111.5 -292t-248.5 -97q-139 0 -250 99.5t-111 242.5q0 160 88 272l74 -35q-72 -96 -72 -237q0 -131 79 -203t192 -72 q115 0 195.5 72t80.5 250v672q0 70 -30.5 124t-86.5 54h-53q-84 0 -106.5 -57.5t-16.5 -157.5l6 -219h-84l7 219q0 100 -26 157.5t-75 57.5h-24q-23 0 -68 -69.5t-106 -69.5q-123 0 -148 221z" />
<glyph unicode="&#x10e4;" horiz-adv-x="1376" d="M104 442q0 158 87.5 275t246.5 117q170 0 267 -148q106 141 256 141q131 0 221 -86t90 -225q0 -227 -217 -350q190 -78 190 -287v-29q-6 -133 -116.5 -226t-286.5 -93q-172 0 -278.5 79t-106.5 173q0 37 2 86h94q-2 -51 -2 -86q0 -80 71.5 -132t219.5 -52 q160 0 232.5 67.5t80.5 196.5v16q-2 104 -52 176t-130 72h-53v78h53q63 0 136 93t73 234q0 102 -53.5 165t-176.5 63q-109 0 -209 -135q37 -100 37 -183q0 -131 -93 -253.5t-249 -122.5q-152 0 -243 118.5t-91 257.5zM195 442q0 -111 66.5 -210t176.5 -99q111 0 180.5 103.5 t69.5 207.5q0 115 -65.5 218.5t-184.5 103.5q-117 0 -180 -97.5t-63 -226.5z" />
<glyph unicode="&#x10e5;" horiz-adv-x="917" d="M92 -131q0 145 90 266l72 -47q-72 -82 -72 -219q0 -131 79 -203t181 -72q104 0 184.5 67t80.5 245v602q0 102 -83 180t-159 78q-102 0 -157.5 -60.5t-55.5 -160.5q0 -113 39 -166l-82 -37q-49 94 -49 190q0 139 79.5 220.5t213.5 81.5q133 0 254 -121v678h84v-1485 q0 -199 -111 -289t-238 -90q-133 0 -241.5 95t-108.5 247z" />
<glyph unicode="&#x10e6;" horiz-adv-x="1357" d="M104 440q0 186 82 290t234 104q84 0 155.5 -56.5t112.5 -183.5q39 127 100.5 183.5t151.5 56.5q141 0 228 -104.5t87 -254.5q0 -158 -102 -311l-94 22q115 147 115 285q0 117 -53.5 206t-180.5 89q-102 0 -157.5 -101.5t-55.5 -199.5v-82h-80v82q0 100 -58.5 200.5 t-164.5 100.5q-113 0 -171 -75t-58 -267q0 -207 119.5 -325.5t267.5 -200.5q358 -96 405 -361h-123q-47 311 -319 277q-143 -18 -281 -97l-8 107l244 41q-395 219 -396 575z" />
<glyph unicode="&#x10e7;" horiz-adv-x="917" d="M104 -129q0 125 39 182l76 -43q-25 -27 -24 -139q0 -131 78.5 -204t179.5 -73q106 0 186 68t80 244v401q-109 -139 -258 -139q-137 0 -228.5 93t-91.5 233q0 182 193 354l72 -47q-172 -154 -173 -309q0 -111 59.5 -181.5t168.5 -70.5q96 0 177 75.5t81 208.5v299h84v-917 q0 -197 -109.5 -288t-240.5 -91q-127 0 -238 100.5t-111 243.5z" />
<glyph unicode="&#x10e8;" horiz-adv-x="972" d="M47 1042v115q0 111 50 175.5t143 64.5q137 0 206 -172q80 172 201 172q82 0 141.5 -76t59.5 -225v-701q0 -186 -94.5 -290.5t-266.5 -104.5q-154 0 -258 122t-104 296q0 172 104.5 294t257.5 122q154 0 277 -162v426q0 147 -34 191t-93 44q-45 0 -97.5 -59.5 t-52.5 -161.5v-90h-77v90q0 90 -41 155.5t-113 65.5q-78 0 -97.5 -44t-19.5 -138v-109h-92zM217 418q0 -147 81 -248.5t189 -101.5q127 0 202 84.5t75 242.5q0 168 -86 269.5t-191 101.5q-109 0 -189.5 -101.5t-80.5 -246.5z" />
<glyph unicode="&#x10e9;" horiz-adv-x="950" d="M125 6v1053q0 168 59.5 253t200.5 85q113 0 190.5 -60.5t77.5 -173.5q0 -49 -12 -112l-94 22q12 45 12 90q0 59 -32.5 112.5t-139.5 53.5q-96 0 -137 -59.5t-41 -200.5v-412q111 176 268 177q160 0 265.5 -104.5t105.5 -272.5q0 -217 -166 -469l-111 22q186 227 187 449 q0 137 -74 222t-207 85q-90 0 -179 -91t-89 -243v-426h-84z" />
<glyph unicode="&#x10ea;" horiz-adv-x="987" d="M104 158q0 340 197 676l82 -33q-188 -264 -188 -645q0 -283 78.5 -422.5t238.5 -139.5q113 0 197 76t84 232q0 102 -80 179t-197 77h-67v80h67q113 0 179.5 62t66.5 136q0 88 -104.5 173t-104.5 216h88q0 -100 105.5 -183t105.5 -216q0 -156 -244 -229q274 -63 275 -299 q0 -172 -108.5 -271.5t-272.5 -99.5q-184 0 -291 154.5t-107 476.5z" />
<glyph unicode="&#x10eb;" horiz-adv-x="950" d="M104 418q0 172 104.5 294t256.5 122q150 0 276 -160v710h84v-989q0 -186 -99 -290.5t-261 -104.5q-152 0 -256.5 122t-104.5 296zM195 418q0 -147 81.5 -248.5t188.5 -101.5q117 0 196.5 84.5t79.5 242.5q0 168 -86 269.5t-190 101.5q-106 0 -188 -101.5t-82 -246.5z" />
<glyph unicode="&#x10ec;" horiz-adv-x="1034" d="M29 1096q0 139 66.5 220t193.5 81q96 0 158.5 -48.5t70.5 -179.5h10q6 63 25.5 104.5t47.5 69t66 41t97 13.5q76 0 122 -21.5t73.5 -54.5t44 -67.5t16.5 -82.5q0 -86 -28.5 -145t-123.5 -125l-41 33q74 74 88.5 120t14.5 117q0 78 -42 115t-124 37q-51 0 -85 -15.5 t-58.5 -50t-42 -91t-17.5 -136.5v-33h-69v33q0 29 -6.5 77t-26 97t-59.5 84t-117 35q-20 0 -48 -7t-54.5 -31.5t-45 -70t-18.5 -120.5q0 -80 25.5 -176.5t58.5 -210.5l667 4q-68 -340 -175 -622t-249 -550h-86q2 20 2 37.5v40.5q0 51 -5 118.5t-22.5 153.5t-43 197 t-70.5 252q-41 150 -75.5 266.5t-60.5 204.5t-40 157.5t-14 129.5zM221 637q57 -217 98 -357.5t64 -243t35 -181t14 -154.5h12q43 86 90.5 201.5t88.5 237.5t78.5 248t62.5 253z" />
<glyph unicode="&#x10ed;" horiz-adv-x="927" d="M104 -131q0 152 86 266l76 -47q-72 -82 -71 -219q0 -129 78.5 -202t191.5 -73q117 0 193.5 73t76.5 235q0 150 -139 340t-84 501h-147q-92 0 -131 -53t-39 -127q0 -66 34.5 -113t112.5 -47v-79q-102 0 -170 70.5t-68 170.5q0 98 76 172t185 74h159l17 70 q41 150 -72 230.5t-113 277.5h90q0 -199 106.5 -263.5t68.5 -255.5l-11 -59h211v-68h-227q-55 -301 88 -488t143 -353q0 -180 -110.5 -277.5t-249.5 -97.5t-250 100.5t-111 241.5z" />
<glyph unicode="&#x10ee;" horiz-adv-x="950" d="M125 395v989h84v-710q127 160 278 160q150 0 255.5 -122t105.5 -294q0 -174 -105.5 -296t-255.5 -122q-172 0 -267 104.5t-95 290.5zM209 395q0 -158 75.5 -242.5t202.5 -84.5q104 0 187.5 101t83.5 249q0 145 -83 246.5t-188 101.5q-106 0 -192 -101.5t-86 -269.5z" />
<glyph unicode="&#x10ef;" horiz-adv-x="804" d="M37 -381q430 2 430 164q0 127 -246 223l-74 45l199 305l-285 185l48 67l280 -188l43 59q113 150 96 213q6 78 -82 78q-53 0 -75 -27l-66 52q57 47 133 51q174 -4 176 -152q12 -98 -116 -264l-41 -57l282 -187l-45 -61l-278 184l-158 -243q287 -94 291 -275 q0 -256 -512 -258v86z" />
<glyph unicode="&#x10f0;" horiz-adv-x="927" d="M104 367q0 80 17 149l88 -20q-14 -66 -14 -131q0 -137 85 -217t185 -80q127 0 198.5 69.5t71.5 161.5q-6 256 -424 346v76q150 -41 248 -76q45 -23 93 -2t48 72q0 143 -391 221v76q135 -27 217 -58q57 -18 96.5 2.5t39.5 98.5t-197 140t-197 198h84q0 -86 198 -151.5 t198 -184.5q0 -113 -132 -139q170 -104 170 -203q0 -92 -149 -113q188 -113 188 -299q0 -96 -87 -199.5t-273 -103.5q-141 0 -251 104.5t-110 262.5z" />
<glyph unicode="&#x10f1;" horiz-adv-x="927" d="M104 381v461q0 334 115 551h94q-127 -174 -127 -557v-457q0 -137 76 -226.5t205 -89.5q150 0 209 54.5t59 113.5q0 156 -190 156h-94v76h94q178 0 178 102q0 111 -188 111h-84v74h84q180 0 180 100q0 104 -193 104h-71v76h71q180 0 180 92q0 90 -76.5 131t-76.5 140h82 q0 -94 81 -138.5t81 -126.5q0 -86 -185 -137q197 -47 197 -141q0 -92 -197 -137q205 -51 205 -146q0 -96 -195 -145q207 -55 207 -193q0 -113 -105.5 -171t-252.5 -58q-154 0 -258.5 96.5t-104.5 284.5z" />
<glyph unicode="&#x10f2;" horiz-adv-x="927" d="M104 -39q197 0 287 62q-287 201 -287 452q0 156 105.5 257.5t255.5 101.5q145 0 252.5 -101.5t107.5 -257.5q0 -252 -286 -452q88 -61 286 -62v-96q-137 0 -358 139q-227 -137 -361 -137h-2v94zM199 477q0 -135 72.5 -247.5t193.5 -166.5q121 51 192.5 163t71.5 249 q0 104 -72.5 197.5t-191.5 93.5t-192.5 -93.5t-73.5 -195.5z" />
<glyph unicode="&#x10f3;" horiz-adv-x="927" d="M104 -158q0 106 74 234l76 -39q-59 -90 -59 -195q0 -119 78.5 -183.5t191.5 -64.5q127 0 198.5 58.5t71.5 222.5v131q0 160 -97 226.5t-228 66.5h-68v70h66q117 0 222 106.5t105 284.5h-536v-266h-84v325h710q0 -391 -317 -481q193 -43 255 -128t62 -204v-131 q0 -176 -108.5 -262t-251.5 -86q-139 0 -250 91t-111 224z" />
<glyph unicode="&#x10f4;" horiz-adv-x="927" d="M104 -154q0 109 74 232l76 -39q-59 -98 -59 -193q0 -119 79.5 -185.5t192.5 -66.5q117 0 192.5 67t75.5 224v52q0 195 -86 263t-174 68h-129v72h129q86 0 173 96t87 326q-164 -90 -260 -90q-158 0 -264.5 87t-106.5 263q0 141 125 257t293 116v-62q-96 -2 -211.5 -88 t-115.5 -219q0 -143 72.5 -215t205.5 -72q145 0 262 113h90v-92q0 -154 -49 -269.5t-207 -191.5q166 -49 211 -137t45 -225v-52q0 -172 -113.5 -265t-244.5 -93q-141 0 -252 93t-111 226z" />
<glyph unicode="&#x10f5;" horiz-adv-x="927" d="M104 319q0 111 100.5 209.5t315.5 98.5h221v178h-215q-217 0 -319.5 85t-102.5 202q0 145 96.5 225t250.5 80q164 0 269 -88t105 -254v-181h68v-69h-68v-178h68v-72h-68v-221q0 -156 -115.5 -245t-258.5 -89q-162 0 -254.5 91t-92.5 228zM195 319q0 -131 75.5 -193.5 t180.5 -62.5q125 0 207.5 89.5t82.5 179.5v223h-223q-174 0 -248.5 -79t-74.5 -157zM195 1092q0 -98 82.5 -158t250.5 -60h213v181q0 111 -83 194.5t-207 83.5q-102 0 -179 -56t-77 -185z" />
<glyph unicode="&#x10f6;" horiz-adv-x="1421" d="M104 442q0 193 87 292.5t255 99.5q172 0 254 -177q96 176 279 177q150 0 244 -102.5t94 -295.5q0 -166 -94.5 -268t-239.5 -102q-133 0 -246 108v-293q0 -217 -71.5 -282.5t-212.5 -65.5v78q113 0 159.5 44t46.5 220v614q0 121 -56 199t-161 78q-98 0 -169.5 -74 t-71.5 -256q0 -147 73.5 -224t153.5 -77v-69q-135 0 -229.5 104t-94.5 272zM737 348q0 -96 66.5 -154.5t181.5 -58.5q109 0 172.5 71.5t63.5 229.5q0 176 -63.5 253t-174.5 77q-117 0 -181.5 -78t-64.5 -176v-164z" />
<glyph unicode="&#x10f7;" horiz-adv-x="927" d="M104 -104q0 258 254 406.5t254 305.5q0 88 -45 132t-139 44q-90 0 -133 -45t-43 -104q-4 -47 20 -103l-86 -32q-33 78 -28 137q0 86 67.5 148.5t206.5 62.5q119 0 196 -63.5t77 -174.5q0 -190 -255 -331.5t-255 -382.5q0 -121 69.5 -211.5t200.5 -90.5q129 0 199.5 90.5 t70.5 190.5q0 139 -69 227l79 35q76 -100 80 -266q-4 -156 -101 -250t-259 -94q-164 0 -262.5 100.5t-98.5 268.5z" />
<glyph unicode="&#x10f8;" horiz-adv-x="917" d="M115 -84v913h84v-305q0 -133 86 -208.5t188 -75.5q106 0 164.5 70.5t58.5 189.5q0 156 -139 284l61 58q170 -166 170 -340q0 -147 -91 -240.5t-224 -93.5q-156 0 -274 139v-391q0 -176 79.5 -249t186.5 -73q100 0 179 73t79 204q0 113 -43 176l74 43q59 -94 59 -219 q0 -143 -111.5 -243.5t-236.5 -100.5q-131 0 -240.5 97t-109.5 292z" />
<glyph unicode="&#x10f9;" horiz-adv-x="899" d="M70 432q0 174 102 294t279 120q176 0 277 -120t101 -294q0 -147 -102 -269t-278 -145q-143 -90 -144 -229q0 -74 49 -132t144 -58q37 0 67.5 14t54 38.5t38 54.5t14.5 65q0 27 -13 67l89 21q6 -23 10 -44.5t6 -39.5q4 -51 -20.5 -96.5t-64.5 -78t-88 -51t-93 -18.5 q-123 0 -202 70.5t-79 187.5q0 125 137 240q-135 59 -209.5 171.5t-74.5 231.5zM154 428q0 -113 75.5 -216t219.5 -126q137 23 213.5 126t76.5 216q0 139 -76.5 244.5t-213.5 105.5q-143 0 -219 -105.5t-76 -244.5z" />
<glyph unicode="&#x10fa;" horiz-adv-x="927" d="M104 526q0 121 87.5 214.5t273.5 93.5q166 0 263 -93.5t97 -222.5q0 -123 -34 -221l-91 27q35 72 35 196q0 90 -65.5 168t-204.5 78q-141 0 -205.5 -71.5t-64.5 -174.5q0 -225 219 -394t274 -306l-121 -31q-14 104 -58 145t-115.5 19.5t-157.5 -103.5l-70 74 q74 68 264 96q-326 221 -326 506z" />
<glyph unicode="&#x10fb;" horiz-adv-x="925" d="M113 102q0 37 29.5 67t74.5 30q43 0 71.5 -29t28.5 -68q0 -45 -30.5 -73.5t-69.5 -28.5q-43 0 -73.5 30.5t-30.5 71.5zM113 748q0 37 29.5 67.5t74.5 30.5q43 0 71.5 -29t28.5 -69q0 -45 -30.5 -73t-69.5 -28q-43 0 -73.5 29t-30.5 72zM608 424q0 39 30 68.5t75 29.5 q43 0 71.5 -27.5t28.5 -70.5q0 -45 -30.5 -73.5t-69.5 -28.5q-43 0 -74 30.5t-31 71.5z" />
<glyph unicode="&#x10fc;" horiz-adv-x="684" d="M113 825v363q0 195 198 194h258v-53h-282q-61 0 -85 -40t-24 -81v-182q31 39 82 60.5t86 21.5q113 0 169 -81t56 -200q0 -164 -59 -239.5t-170 -75.5q-229 0 -229 313zM178 817q0 -53 13.5 -99t36 -80t52 -52.5t62.5 -18.5q66 0 116 72.5t50 187.5q0 96 -51 161t-121 65 q-63 0 -110.5 -66.5t-47.5 -169.5z" />
<glyph unicode="&#x2000;" horiz-adv-x="778" />
<glyph unicode="&#x2001;" horiz-adv-x="1556" />
<glyph unicode="&#x2002;" horiz-adv-x="778" />
<glyph unicode="&#x2003;" horiz-adv-x="1556" />
<glyph unicode="&#x2004;" horiz-adv-x="518" />
<glyph unicode="&#x2005;" horiz-adv-x="389" />
<glyph unicode="&#x2006;" horiz-adv-x="259" />
<glyph unicode="&#x2007;" horiz-adv-x="259" />
<glyph unicode="&#x2008;" horiz-adv-x="194" />
<glyph unicode="&#x2009;" horiz-adv-x="311" />
<glyph unicode="&#x200a;" horiz-adv-x="86" />
<glyph unicode="&#x2010;" horiz-adv-x="815" d="M111 487v80h594v-80h-594z" />
<glyph unicode="&#x2011;" horiz-adv-x="815" d="M111 487v80h594v-80h-594z" />
<glyph unicode="&#x2012;" horiz-adv-x="1357" d="M0 389v80h1423v-80h-1423z" />
<glyph unicode="&#x2013;" horiz-adv-x="991" d="M-23 383v86h1037v-86h-1037z" />
<glyph unicode="&#x2014;" horiz-adv-x="1396" d="M-23 383v86h1442v-86h-1442z" />
<glyph unicode="&#x2018;" horiz-adv-x="550" d="M158 1022q0 100 53 204.5t147 186.5l37 -35q-84 -90 -116.5 -155.5t-32.5 -120.5q0 -12 2 -24.5t4 -24.5q2 2 18 2h11q39 0 67.5 -21.5t28.5 -60.5q0 -53 -33 -76t-70 -23q-53 0 -84.5 34t-31.5 114z" />
<glyph unicode="&#x2019;" horiz-adv-x="550" d="M158 907q80 90 112.5 153.5t32.5 119.5q0 14 -1 26.5t-3 26.5q-2 -2 -18 -2h-11q-39 0 -67.5 20.5t-28.5 59.5q0 51 34 76.5t68 25.5q53 0 86 -35t33 -116q0 -102 -53 -203t-147 -185z" />
<glyph unicode="&#x201a;" horiz-adv-x="550" d="M158 -324q80 86 112.5 150.5t32.5 122.5q0 12 -1 24.5t-3 26.5q-2 -2 -18 -2h-11q-39 0 -67.5 21.5t-28.5 58.5q0 53 34 76.5t68 23.5q53 0 86 -34.5t33 -114.5q0 -100 -53 -202.5t-147 -186.5z" />
<glyph unicode="&#x201c;" horiz-adv-x="681" d="M68 1022q0 100 53 204.5t147 186.5l35 -35q-84 -90 -117.5 -157.5t-35.5 -122.5l-5 -49l48 6q37 0 61.5 -21.5t24.5 -60.5q0 -53 -29 -76t-66 -23q-53 0 -84.5 34t-31.5 114zM406 1022q0 100 53 203.5t147 187.5l35 -35q-80 -90 -116 -156.5t-36 -121.5v-49l39 4 q39 0 69 -21.5t30 -60.5q0 -53 -34 -76t-71 -23q-51 0 -83.5 34t-32.5 114z" />
<glyph unicode="&#x201d;" horiz-adv-x="880" d="M158 907q80 90 112.5 153.5t32.5 119.5q0 14 -1 26.5t-3 26.5l-18 -2h-11q-39 0 -67.5 20.5t-28.5 59.5q0 51 34 76.5t68 25.5q53 0 86 -35t33 -116q0 -102 -53 -203t-147 -185zM487 907q80 90 113 153.5t33 119.5q0 14 -1 26.5t-3 26.5l-19 -2h-8q-39 0 -68.5 20.5 t-29.5 59.5q0 51 32.5 76.5t71.5 25.5q51 0 83 -35t32 -116q0 -102 -53.5 -205t-147.5 -183z" />
<glyph unicode="&#x201e;" horiz-adv-x="880" d="M158 -324q80 86 112.5 150.5t32.5 122.5q0 12 -1 24.5t-3 26.5l-29 -2q-39 0 -67.5 21.5t-28.5 58.5q0 53 34 76.5t68 23.5q53 0 86 -34.5t33 -114.5q0 -100 -53 -202.5t-147 -186.5zM487 -324q80 86 113 150.5t33 122.5q0 12 -1 24.5t-3 26.5l-27 -2q-39 0 -68.5 21.5 t-29.5 58.5q0 53 32.5 76.5t71.5 23.5q51 0 83 -34.5t32 -114.5q0 -100 -53.5 -204t-147.5 -185z" />
<glyph unicode="&#x2020;" horiz-adv-x="1193" d="M125 791v86l426 106v430h100v-440l418 -103v-86l-428 103v-946h-98v956z" />
<glyph unicode="&#x2022;" horiz-adv-x="1126" d="M383 592q0 35 14.5 66.5t40 55t57 37t68.5 13.5t69 -13.5t57.5 -37t39.5 -55t14 -66.5t-14 -66.5t-39.5 -54t-57.5 -36t-69 -13.5t-68.5 13.5t-57 36t-40 54t-14.5 66.5z" />
<glyph unicode="&#x2026;" horiz-adv-x="1128" d="M68 102q0 35 29.5 65t74.5 30q43 0 71.5 -28t28.5 -67q0 -45 -30.5 -73.5t-69.5 -28.5q-43 0 -73.5 30.5t-30.5 71.5zM473 102q0 35 29.5 65t75.5 30q41 0 70.5 -28t29.5 -67q0 -45 -31 -73.5t-69 -28.5q-43 0 -74 30.5t-31 71.5zM879 102q0 35 29.5 65t74.5 30 q43 0 71.5 -28t28.5 -67q0 -45 -30.5 -73.5t-69.5 -28.5q-43 0 -73.5 30.5t-30.5 71.5z" />
<glyph unicode="&#x202f;" horiz-adv-x="311" />
<glyph unicode="&#x2039;" horiz-adv-x="811" d="M152 481l383 486h106l-330 -486l328 -479h-104z" />
<glyph unicode="&#x203a;" horiz-adv-x="811" d="M168 2l332 487l-332 478h106l373 -473l-373 -492h-106z" />
<glyph unicode="&#x205f;" horiz-adv-x="389" />
<glyph unicode="&#x20ac;" horiz-adv-x="1193" d="M29 551v76h133v26q0 59 6 115h-139v74h153q18 109 68.5 205t131.5 168.5t186.5 114.5t236.5 42q111 0 182.5 -24.5t112.5 -44.5l-33 -80q-49 31 -119.5 49t-152.5 18q-109 0 -194 -34.5t-148.5 -95t-104.5 -142.5t-61 -176h723v-74h-736q-6 -53 -6 -106v-35h742v-76h-736 q14 -115 59.5 -200t112 -145.5t153.5 -90t185 -29.5q111 0 188 28.5t120 53.5l28 -70q-57 -35 -140 -66.5t-206 -31.5q-133 0 -237.5 43t-181 116.5t-124 175t-63.5 216.5h-139z" />
<glyph unicode="&#x2116;" horiz-adv-x="1986" d="M113 209h80q16 -49 54 -93t72 -44q57 0 96.5 44t39.5 105v1024h-207v82h303l559 -1034l61 -129v1003q0 43 18.5 83t48.5 71t69 49.5t77 18.5q84 0 147.5 -56.5t86.5 -142.5h-94q-18 45 -54 81t-86 36q-53 0 -88.5 -44t-35.5 -96v-1167h-95l-563 1051l-61 145v-975 q0 -41 -15.5 -80t-43 -69.5t-66.5 -51t-86 -20.5q-39 0 -74 18.5t-64.5 45t-50 64.5t-28.5 81zM1401 637q0 43 16.5 85t44 72.5t70.5 50t98 19.5q59 0 104.5 -19.5t76 -51t46 -72.5t15.5 -86q0 -96 -61.5 -165t-180.5 -69q-51 0 -94 19.5t-72.5 51.5t-46 75t-16.5 90z M1419 63v80h432v-80h-432zM1481 629q0 -63 45 -107.5t104 -44.5q84 0 123 44t39 116q0 53 -44 99t-118 46q-68 0 -108.5 -48t-40.5 -105z" />
<glyph unicode="&#x2122;" horiz-adv-x="1433" d="M78 1327v70h534v-70h-225v-514h-84v514h-225zM633 813l63 584h123l203 -500h6l199 500h125l59 -584h-102l-27 520h-4l-209 -510h-96l-205 510h-4l-37 -520h-94z" />
<glyph unicode="&#x25fc;" horiz-adv-x="931" d="M0 0v932h932v-932h-932z" />
<glyph unicode="&#x2d00;" horiz-adv-x="940" d="M80 150l143 684h90l-30 -140q428 125 432 121q182 57 139 -145l-31 -152h-88l29 152q23 98 -51 78l-445 -127l-100 -471q-21 -99 57 -76q348 102 353 98q180 57 139 -145l-33 -152h-88l31 152q23 98 -52 77l-352 -104q-184 -51 -143 150z" />
<glyph unicode="&#x2d01;" horiz-adv-x="960" d="M4 -174h88q20 -158 299 -156q283 -2 322 174q25 125 -21 197q-23 35 -28 88q-446 -129 -451 -125q-182 -57 -139 146l149 684h84l-145 -687q-20 -96 49 -77l455 131q2 24 8 51l121 582h88l-123 -578q-39 -154 14 -220.5t25 -199.5q-49 -231 -424 -231q-358 0 -371 221z " />
<glyph unicode="&#x2d02;" horiz-adv-x="866" d="M20 -143l29 114h72l-25 -108q2 -195 281 -195q141 0 220 45t105 148q12 129 -74.5 200.5t-47.5 276.5l90 332q23 98 -52 78l-393 -72l-78 -361h-86l109 519h90l-18 -84q375 70 379 65q182 57 139 -145l-92 -332q-43 -176 47 -260t78 -211q-8 -137 -128 -199.5t-307 -62.5 q-326 0 -338 252z" />
<glyph unicode="&#x2d03;" horiz-adv-x="972" d="M90 205l76 356q18 82 109.5 141.5t250.5 94.5v358l-215 -43q-102 -18 -65 201h80q-29 -137 80 -119l407 90q176 43 143 -123h-34q-6 78 -144 43l-174 -39v-352l123 18q193 16 147 -184l-86 -387q-57 -274 -505 -274q-242 -14 -193 219zM176 199q-35 -160 86 -154 q393 16 434 201l88 385q33 158 -100 131q-274 -45 -343 -88t-89 -119z" />
<glyph unicode="&#x2d04;" horiz-adv-x="937" d="M41 -16l184 850h86l-30 -140q408 123 411 119q205 76 156 -145l-150 -701l64 -362h-88l-64 362l150 701q29 117 -68 80l-426 -125l-135 -637z" />
<glyph unicode="&#x2d05;" horiz-adv-x="1503" d="M41 -14l178 848h90l-30 -140q428 125 432 121q170 53 143 -119q424 123 428 119q180 55 139 -145l-143 -684h-90l145 684q20 98 -57 75l-438 -124l-142 -656l62 -360h-88l-62 360l152 705q23 98 -51 78l-447 -127l-135 -635h-86z" />
<glyph unicode="&#x2d06;" horiz-adv-x="944" d="M33 1159l26 168h86l-18 -145q-25 -147 203 -148l47 127h98l-182 -465v-2q426 125 430 121q180 55 139 -145l-82 -394q-47 -223 -547 -286q-184 -33 -143 168l113 538l104 281q-287 0 -274 182zM178 158q-20 -99 58 -97q426 63 454 215l84 394q20 98 -57 75l-441 -127z " />
<glyph unicode="&#x2d07;" horiz-adv-x="1507" d="M82 150l143 684h90l-30 -140q426 125 430 121q170 53 143 -119q424 123 428 119q180 55 139 -145l-143 -684h-90l145 684q20 98 -57 75l-436 -124l-137 -635h-89l29 137q-422 -123 -426 -119q-180 -55 -139 146zM170 150q-20 -98 57 -76l437 125l100 471q23 98 -51 78 l-443 -127z" />
<glyph unicode="&#x2d08;" horiz-adv-x="860" d="M61 420l89 411l86 3l-29 -138q424 123 428 119q180 55 139 -145l-143 -684h-90l145 684q20 98 -57 75l-439 -127l-40 -194z" />
<glyph unicode="&#x2d09;" horiz-adv-x="937" d="M82 150l129 589l-64 588h91l61 -588l-8 -39q408 121 411 117q195 55 154 -145l-123 -582l37 -485h-86l-37 485l6 35q-428 -125 -432 -121q-180 -57 -139 146zM170 150q-21 -101 53 -78l447 127l100 473q25 100 -68 78l-428 -123z" />
<glyph unicode="&#x2d0a;" horiz-adv-x="1501" d="M41 -14l180 848h88l-28 -132q424 117 428 113q170 53 143 -119q424 123 428 119q180 55 139 -145l-143 -684h-90l28 137q-426 -123 -430 -119q-180 -55 -139 146l113 520q23 98 -51 78l-441 -115l-137 -647h-88zM733 150q-20 -98 58 -76l440 127l100 469q20 98 -57 75 l-438 -124z" />
<glyph unicode="&#x2d0b;" horiz-adv-x="956" d="M82 147l100 467q45 219 619 220v299q0 84 -41 84q-47 0 -154.5 -54.5t-171.5 -56.5q-119 0 -117 143l17 78h90l-14 -67q-18 -80 55 -80q53 0 146.5 52t168.5 52q111 0 113 -141l-2 -309h67v-68h-84l-114 -539q-51 -242 -473 -241q-246 -35 -205 161zM178 166 q-29 -125 72 -119q385 20 426 213l108 506q-492 -33 -518 -172z" />
<glyph unicode="&#x2d0c;" horiz-adv-x="933" d="M41 -14l172 802q-8 289 -10 293q2 246 323 246q285 0 275 -110l-6 -80h-97l7 59q6 72 -154 72q-264 2 -266 -176l18 -304l-20 -94q424 125 428 121q182 57 139 -145l-148 -684h-88l146 684q23 98 -51 78l-443 -127l-139 -635h-86z" />
<glyph unicode="&#x2d0d;" horiz-adv-x="1503" d="M82 150l143 684h90l-145 -684q-20 -98 57 -76l437 125l137 635h88l-146 -684q-23 -98 52 -78l444 127l137 635h86l-178 -848h-90l29 139q-426 -125 -430 -121q-170 -53 -146 119q-422 -123 -426 -119q-180 -55 -139 146z" />
<glyph unicode="&#x2d0e;" horiz-adv-x="929" d="M82 150l143 684h90l-145 -684q-20 -98 57 -76l439 125l137 635h86l-178 -848h-90l28 137q-424 -123 -428 -119q-180 -55 -139 146z" />
<glyph unicode="&#x2d0f;" horiz-adv-x="1163" d="M72 473l75 358h91l-78 -358q-20 -98 57 -76l285 80l26 113h88l-98 -445q-23 -98 51 -77l322 90l147 671l-61 494h88l61 -494l-165 -766l61 -458h-90l-62 458l4 21q-303 -88 -307 -84q-182 -57 -139 145l57 256q-272 -78 -274 -73q-180 -55 -139 145z" />
<glyph unicode="&#x2d10;" horiz-adv-x="1507" d="M82 150l143 684h90l-145 -684q-20 -98 57 -76l439 125l133 635l-62 493h90l62 -493l-31 -138q424 123 428 119q180 55 139 -145l-143 -684h-90l145 684q20 98 -57 75l-438 -124l-135 -635h-86l28 137q-424 -123 -428 -119q-180 -55 -139 146z" />
<glyph unicode="&#x2d11;" horiz-adv-x="933" d="M84 150l147 684l-41 493h93l41 -493l-150 -684q-23 -98 51 -78l445 127l137 635h86l-178 -848h-90l28 139q-426 -125 -430 -121q-182 -57 -139 146z" />
<glyph unicode="&#x2d12;" horiz-adv-x="954" d="M82 43l168 791h86l-25 -123q330 123 510 123q92 0 62 -142l-101 -465q-20 -104 -628 -252q-63 -305 213 -305q135 0 290 125l37 -61q-152 -129 -360 -129q-180 0 -236.5 120.5t-15.5 317.5zM170 49q512 121 530 207l88 401q23 131 -77 101q-164 -31 -418 -133z" />
<glyph unicode="&#x2d13;" horiz-adv-x="1505" d="M82 150l143 684h90l-145 -684q-20 -98 57 -76l437 125l137 635h88l-146 -684q-23 -98 52 -78l444 127l137 635l-61 493h88l61 -493l-161 -758l61 -471h-90l-62 471l11 47q-426 -123 -430 -119q-170 -53 -146 119q-422 -123 -426 -119q-180 -55 -139 146z" />
<glyph unicode="&#x2d14;" horiz-adv-x="1507" d="M82 150l143 684h90l-30 -140q426 125 430 121q170 53 143 -119q424 123 428 119q180 55 139 -145l-143 -684h-90l29 137q-426 -123 -430 -119q-47 -14 -80 -12l61 -387h-92l-62 381l27 129v8q-420 -123 -424 -119q-180 -55 -139 146zM170 150q-20 -98 57 -76l435 125 l102 471q23 98 -51 78l-443 -127zM739 150q-20 -98 58 -76l440 127l100 469q20 98 -57 75l-438 -124z" />
<glyph unicode="&#x2d15;" horiz-adv-x="1296" d="M41 117l145 671h86l-88 -423l428 122l72 316l-59 524h82l61 -524l-59 -285l424 117l34 153h88l-143 -667l-86 4l92 440l-428 -129l-78 -364l62 -467h-90l-62 467l74 346l-424 -111l-41 -188z" />
<glyph unicode="&#x2d16;" horiz-adv-x="952" d="M41 -14l178 848h90l-30 -140q428 125 432 121q182 57 139 -145l-148 -684h-88l146 684q23 98 -51 78l-447 -127l-135 -635h-86z" />
<glyph unicode="&#x2d17;" horiz-adv-x="933" d="M84 150l147 684h88l-145 -684q-23 -98 51 -78l445 127l137 635h86l-158 -746l62 -483h-86l-62 501l4 17q-426 -123 -430 -119q-182 -57 -139 146z" />
<glyph unicode="&#x2d18;" horiz-adv-x="933" d="M53 -395l6 63h19q166 0 322.5 91t244.5 362q-418 -121 -422 -117q-182 -57 -139 146l147 684h88l-145 -684q-23 -98 51 -78l443 127l139 635h86l-127 -603q-82 -381 -298 -503.5t-386 -122.5h-29z" />
<glyph unicode="&#x2d19;" horiz-adv-x="933" d="M41 -14l182 848l-61 493h88l61 -493l-30 -140q426 125 430 121q182 57 139 -145l-148 -684h-88l146 684q23 98 -51 78l-443 -127l-135 -635l100 -381h-106z" />
<glyph unicode="&#x2d1a;" horiz-adv-x="976" d="M84 -14l178 848h90l-30 -140q428 125 432 121q182 57 139 -145l-125 -561h-88l123 561q23 98 -51 78l-447 -127l-135 -635q-37 -176 43 -247t240 -71q117 0 266 117l33 -53q-131 -127 -318 -127q-205 0 -299 90t-51 291z" />
<glyph unicode="&#x2d1b;" horiz-adv-x="962" d="M88 174l86 406q51 236 625 251l-60 496h90l62 -496h86l-2 -57l-98 -2l-113 -536q-45 -209 -471 -252q-252 -33 -205 190zM174 178q-41 -182 156 -145q315 70 340 188l116 551q-485 -4 -526 -194z" />
<glyph unicode="&#x2d1c;" horiz-adv-x="1482" d="M41 47l158 787h90l-29 -140q426 125 430 121q170 53 144 -119q424 123 428 119q180 55 139 -145l-144 -684h-90l146 684q20 98 -58 75l-436 -124l-137 -635h-88l145 684q23 98 -51 78l-444 -127l-117 -574l61 -442h-86z" />
<glyph unicode="&#x2d1d;" horiz-adv-x="960" d="M41 -340l20 84v14q160 -88 330 -88q342 0 365 262q10 203 -271 203q-100 2 -321 -90h-78l168 789h84l-29 -140q426 125 430 121q180 55 140 -145l-48 -219h-90l50 219q20 98 -58 75l-440 -127l-109 -518q252 109 328 109q344 0 319 -283q-55 -322 -456 -321 q-188 0 -334 55zM59 -250l2 -2h-2v2z" />
<glyph unicode="&#x2d1e;" horiz-adv-x="1007" d="M133 41l170 793h88l-166 -779q512 145 561 369l88 410h93l-88 -410q-66 -301 -666 -434q-72 -317 326 -320l-4 -65q-494 0 -402 436z" />
<glyph unicode="&#x2d1f;" horiz-adv-x="944" d="M41 -395q4 315 252 512q-127 150 -141 319l81 10q12 -141 115 -278q330 180 467 577q-221 -102 -385 -100q-305 0 -305 223h100q-4 -154 168 -153q147 0 258 31.5t180 87.5h72q-51 -469 -512 -725q121 -123 305 -222l-49 -71q-186 98 -313 250q-193 -156 -217 -461h-76z " />
<glyph unicode="&#x2d20;" horiz-adv-x="1497" d="M41 -14l180 848h88l-30 -140q428 125 432 121q182 57 139 -145l-115 -520q-20 -98 58 -76l440 127l135 633h88l-180 -848h-88l29 137q-426 -123 -431 -119q-180 -55 -139 146l113 520q23 98 -51 78l-445 -127l-135 -635h-88z" />
<glyph unicode="&#x2d21;" horiz-adv-x="915" d="M41 68l176 852q55 293 155.5 350t231.5 57h105v-86h-156q-72 0 -136.5 -42t-107.5 -281l-47 -224q426 125 430 121q182 57 139 -145l-67 -305h-88l65 305q23 98 -51 78l-444 -127l-115 -553l184 -463h-98z" />
<glyph unicode="&#x2d22;" horiz-adv-x="931" d="M84 158l53 256h92l-43 -201q-35 -168 60 -168q387 10 422 174l92 430q25 113 -51 109q-72 -4 -149 -30t-185 -26q-102 -2 -78 113l33 150h92l-25 -113q-18 -84 23 -84q66 0 174 33t158 33q139 8 98 -181l-94 -440q-49 -225 -494 -225q-209 -2 -178 170z" />
<glyph unicode="&#x2d23;" horiz-adv-x="933" d="M84 150l147 684h91l-148 -691q-20 -88 55 -63l437 119l141 635l-62 493h84l64 -493l-158 -725l62 -504h-92l-62 487l6 31q-422 -123 -426 -119q-182 -57 -139 146z" />
<glyph unicode="&#x2d24;" horiz-adv-x="1052" d="M82 150l143 684h90l-145 -684q-20 -98 57 -76l232 65v160h88v-133l250 72l129 596h86l-152 -725h-90l10 51l-233 -68v-487h-88v463q-236 -66 -238 -64q-180 -55 -139 146z" />
<glyph unicode="&#x2d25;" horiz-adv-x="1331" d="M92 219l70 334q37 178 622 246l27 344q4 184 268 184q199 0 189 -133l-6 -47h-82l2 35q8 94 -129 94q-147 -20 -160 -143l-23 -332l222 33q244 27 208 -158l-100 -410h-88l100 410q18 113 -131 112l-215 -38l-114 -535q-47 -229 -504 -229q-207 0 -156 233zM184 225 q-23 -166 56 -172q389 2 424 162l112 533q-502 -61 -530 -230z" />
<glyph unicode="&#xf400;" horiz-adv-x="1050" d="M115 414q0 141 75 276l99 -37q-72 -117 -72 -239q0 -209 95.5 -294t215.5 -85q106 0 201.5 74.5t106.5 252.5v97q0 213 -218.5 404.5t-218.5 527.5h95q0 -315 222 -495.5t222 -432.5v-98q-14 -190 -135 -300t-275 -110q-182 0 -297.5 119t-115.5 340z" />
<glyph unicode="&#xf401;" horiz-adv-x="1073" d="M115 428v53q0 172 93 293t304 146q119 213 -67.5 284.5t-192.5 192.5h133q2 -102 163 -166t54 -313q150 -35 254.5 -153t104.5 -306v-53q0 -199 -118 -325t-306 -126q-184 0 -303 132t-119 341zM217 428q0 -190 95.5 -291.5t222.5 -101.5q160 0 241.5 92t81.5 279v53 q0 180 -93 281.5t-239 113.5q-141 -4 -225 -103.5t-84 -269.5v-53z" />
<glyph unicode="&#xf402;" horiz-adv-x="1099" d="M92 422v37q0 168 127 301t324 147h51q133 109 133 240q0 72 -61.5 121t-157.5 49q-109 0 -169 -39t-60 -90q0 -57 10 -82l-94 -25q-16 53 -17 99q0 82 89 149.5t241 67.5q154 0 237.5 -81t83.5 -169q0 -129 -147 -260q129 -41 227.5 -164t98.5 -274v-39 q0 -170 -128 -312.5t-331 -142.5t-330 142.5t-127 324.5zM195 422q0 -176 104 -281.5t250 -105.5q147 0 251.5 105.5t104.5 269.5v36q0 156 -94 267.5t-266 115.5q-154 -14 -252 -107t-98 -265v-35z" />
<glyph unicode="&#xf403;" horiz-adv-x="1660" d="M115 915v74q0 156 97 279t292 125q184 -2 305 -170q133 174 328 174q176 0 292.5 -115t116.5 -340v-74q0 -178 -118.5 -319t-290.5 -141q-174 0 -292 137t-118 340v57q0 102 43 213q-100 158 -268 160q-135 -2 -212 -98.5t-77 -223.5v-75q0 -240 146.5 -423.5t477 -274.5 t437.5 -249h-170q-25 82 -166 128t-271 31t-339 -120v121q94 43 350 55q-315 127 -439 329t-124 400zM829 891q0 -213 92.5 -308.5t223.5 -95.5q98 0 197.5 94t99.5 287v78q0 188 -79 281.5t-214 93.5t-227.5 -94t-92.5 -273v-63z" />
<glyph unicode="&#xf404;" horiz-adv-x="1073" d="M115 373q0 176 94 307l84 -45q-76 -94 -76 -262q0 -203 107.5 -270.5t205.5 -67.5q119 0 216.5 59.5t97.5 245.5v715q0 164 -89 213t-180 49q-121 0 -195.5 -60.5t-74.5 -158.5q0 -86 41 -137l-88 -43q-49 74 -49 180q0 119 99.5 209t260.5 90q158 0 263.5 -87 t105.5 -255v-715q0 -203 -122 -294t-286 -91q-162 0 -288.5 110.5t-126.5 307.5z" />
<glyph unicode="&#xf405;" horiz-adv-x="1073" d="M115 354q0 102 69 246l92 -37q-59 -121 -59 -209q0 -160 97.5 -242.5t228.5 -82.5q154 0 234.5 73.5t80.5 198.5v113q0 158 -94 227.5t-182 69.5h-76v77h78q76 0 175 77t99 204q0 109 -91 178.5t-220 69.5q-111 0 -193 -65.5t-82 -166.5q0 -59 41 -141l-92 -37 q-49 90 -49 176q0 129 106.5 221.5t266.5 92.5q199 0 307.5 -97.5t108.5 -232.5q0 -197 -261 -324q260 -88 261 -340v-79q0 -170 -100.5 -270.5t-317.5 -100.5q-184 0 -306 112.5t-122 288.5z" />
<glyph unicode="&#xf406;" horiz-adv-x="1114" d="M70 1104q0 113 89 203t255 90q170 0 261 -96.5t91 -190.5q0 -98 -43 -155.5t-109 -96.5q137 -16 261 -125.5t124 -286.5v-24q0 -233 -132 -350t-302 -117q-162 0 -297 119t-135 348v24q0 94 47 187.5t180 171.5q-104 12 -197 90t-93 209zM172 1100q0 -106 80 -175 t164 -69q121 0 184.5 69.5t63.5 178.5q0 104 -73 158.5t-175 54.5q-96 0 -170 -53.5t-74 -163.5zM233 428q0 -221 116 -307t216 -86q98 0 216 86t118 307v8q0 166 -102.5 262.5t-231.5 96.5q-137 0 -234.5 -108.5t-97.5 -252.5v-6z" />
<glyph unicode="&#xf407;" horiz-adv-x="1693" d="M115 563v293q0 274 119.5 407.5t306.5 133.5q113 0 203 -47t139 -158q135 205 315 205q172 0 276.5 -137.5t104.5 -405.5v-186q0 -410 -242 -715l-110 35q252 291 252 686v178q0 266 -84 365.5t-176 99.5q-150 0 -304 -191q46 -141 46 -303v-256q0 -295 -116 -453.5 t-310 -158.5q-193 0 -306.5 158.5t-113.5 449.5zM217 567q0 -276 86 -404t232 -128q139 0 234 129t89 401v287q0 295 -91 380t-224 85q-150 0 -238 -105.5t-88 -359.5v-285z" />
<glyph unicode="&#xf408;" horiz-adv-x="1026" d="M115 662v165q0 285 112.5 427.5t286.5 142.5q172 0 284.5 -142.5t112.5 -427.5v-165q0 -379 -131 -676l-121 22q152 199 152 654v165q0 260 -76 375t-221 115q-147 0 -222 -115t-75 -375v-165q0 -451 137 -666l-121 -23q-119 313 -118 689z" />
<glyph unicode="&#xf409;" horiz-adv-x="1050" d="M92 385q0 119 74 233l86 -38q-57 -88 -57 -195q0 -186 109.5 -268t211.5 -82q113 0 216.5 61.5t103.5 257.5v166q0 256 -287 287h-158v82h160q248 12 248 219q0 90 -80 235l72 56q109 -195 108 -291q0 -190 -229 -260q268 -117 268 -326v-168q0 -201 -120 -300t-302 -99 q-170 0 -297 113.5t-127 316.5z" />
<glyph unicode="&#xf40a;" horiz-adv-x="2058" d="M115 895v82q0 147 84 277t266 130q100 0 175 -57t126 -182q31 137 103.5 194.5t160.5 57.5q92 0 158.5 -57.5t105.5 -196.5q31 127 111 184t190 57q349 0 349 -385v-57q0 -219 -168 -430l-113 23q180 211 180 415v49q0 307 -248 308q-123 0 -191.5 -99.5t-68.5 -210.5 v-260h-88v258q0 156 -61.5 239t-155.5 83q-96 0 -157.5 -94.5t-61.5 -227.5v-258h-88v258q0 113 -68.5 212.5t-193.5 99.5q-92 0 -168 -86t-76 -244v-84q0 -238 215 -427.5t615.5 -236.5t539.5 -264h-162q-23 129 -238.5 162t-392 9.5t-370.5 -101.5v102q133 45 350 66 q-330 84 -494.5 277.5t-164.5 414.5z" />
<glyph unicode="&#xf40b;" horiz-adv-x="1095" d="M115 408v94q0 166 114.5 308t300.5 142q215 0 336 -192v297q0 135 -75.5 197.5t-237.5 62.5q-131 0 -196.5 -36t-65.5 -77q0 -29 10 -61l-90 -23q-14 39 -14 90q0 66 90 126.5t266 60.5q215 0 311.5 -91.5t96.5 -277.5v-631q0 -227 -109 -334.5t-315 -107.5 q-180 0 -301 133t-121 320zM217 408q0 -166 93 -269.5t220 -103.5q141 0 238.5 74.5t97.5 287.5v105q0 162 -90 268.5t-246 106.5q-123 0 -218 -99.5t-95 -275.5v-94z" />
<glyph unicode="&#xf40c;" horiz-adv-x="1095" d="M137 397v766q0 213 248 213h336q86 0 86 37h121q0 -115 -207 -115h-340q-152 0 -152 -118v-414q117 186 324 186q227 0 328.5 -130t101.5 -320v-94q0 -184 -114.5 -318.5t-315.5 -134.5q-199 0 -307.5 113.5t-108.5 328.5zM229 397q0 -176 82 -269t242 -93 q162 0 245 101.5t83 271.5v94q2 184 -86 279.5t-242 95.5q-137 0 -230.5 -98.5t-93.5 -276.5v-105z" />
<glyph unicode="&#xf40d;" horiz-adv-x="1603" d="M115 711v137q0 307 125 428t268 121q90 0 166 -58.5t129 -183.5q51 125 127 183.5t164 58.5q145 0 270 -121t125 -428v-137q0 -451 -272 -740l-130 23q299 274 299 717v137q0 281 -91 375t-203 94q-94 0 -168 -82t-74 -268v-508h-96v508q0 186 -74 268t-168 82 q-113 0 -204 -94.5t-91 -374.5v-137q0 -442 291 -717l-127 -23q-266 289 -266 740z" />
<glyph unicode="&#xf40e;" horiz-adv-x="1073" d="M115 369q0 135 67 249l90 -34q-55 -106 -55 -215q0 -172 101.5 -253t224.5 -81q119 0 217 93t98 226v19q0 276 -315 350h-84v86h63q268 33 269 219q0 143 -231.5 151.5t-231.5 211.5h110q0 -147 220.5 -160t220.5 -203q0 -197 -250 -264q332 -111 332 -389v-21 q0 -150 -115 -274.5t-303 -124.5q-184 0 -306 112.5t-122 301.5z" />
<glyph unicode="&#xf40f;" horiz-adv-x="1095" d="M115 334q0 111 43 201l90 -37q-31 -76 -31 -162q0 -147 96.5 -224t216.5 -77q123 0 229.5 83t106.5 265v930q-250 -49 -549 -53q322 -68 322 -283q0 -102 -81 -173t-226 -71h-144v103l144 -11q104 -10 157.5 29t53.5 135q0 109 -105.5 170.5t-242.5 61.5v92q401 8 686 84 h80v-1012q0 -221 -129.5 -325.5t-301.5 -104.5q-166 0 -290.5 100.5t-124.5 278.5z" />
<glyph unicode="&#xf410;" horiz-adv-x="1642" d="M115 541v61q0 109 42 241t202.5 291.5t656.5 260.5l26 -101q-639 -84 -763 -362q172 88 239 88q129 0 193.5 -56.5t117.5 -175.5q51 119 123 175.5t187 56.5q193 0 291 -126t98 -294v-61q0 -317 -279 -568l-139 23q315 260 315 522v70q0 172 -84 266t-202 94 q-106 0 -185.5 -90t-79.5 -199v-268h-90v268q0 109 -75.5 199t-196.5 90q-113 0 -204 -91t-91 -269v-70q0 -258 299 -522l-139 -23q-262 252 -262 570z" />
<glyph unicode="&#xf411;" horiz-adv-x="1095" d="M137 420v969h92v-969q-4 -197 85 -291t229 -94q139 0 238.5 83t99.5 247q0 190 -141.5 284t-141.5 236q0 127 27 243l100 -30q-33 -92 -33 -199q0 -129 145.5 -228t145.5 -306q0 -156 -114.5 -283t-325.5 -127q-203 0 -304.5 131t-101.5 334z" />
<glyph unicode="&#xf412;" horiz-adv-x="1218" d="M92 604v111q0 270 141.5 446t352.5 176l-49 60h155l-45 -60q193 0 336 -176t143 -446v-111q0 -283 -122.5 -466t-393.5 -183q-244 0 -381 183.5t-137 465.5zM195 604q0 -274 123.5 -421.5t299.5 -147.5q188 0 297 147.5t109 421.5v111q0 227 -98.5 386t-278.5 179 l25 -764h-111l25 764q-186 -20 -288.5 -177t-102.5 -388v-111z" />
<glyph unicode="&#xf413;" horiz-adv-x="1073" d="M47 1270v121l96 -41q39 0 73 23.5t89 23.5q102 0 168 -205q51 205 221 205q244 0 244 -291v-752q0 -205 -110.5 -302t-321.5 -97q-178 0 -296 110.5t-118 303.5q0 170 84 293l84 -46q-66 -98 -65 -239q0 -180 91 -261t220 -81q147 0 242.5 61.5t95.5 272.5v764 q0 184 -166 184q-92 0 -126 -70.5t-34 -148.5v-226h-86v226q0 80 -37 149.5t-90 69.5q-49 0 -78.5 -23.5t-91.5 -23.5h-88z" />
<glyph unicode="&#xf414;" horiz-adv-x="1566" d="M115 903v113q0 162 101 271.5t290 109.5q190 0 299 -180q104 174 307 174q158 0 249 -107.5t91 -279.5q0 -219 -225 -336q199 -68 203 -273v-86q0 -127 -130.5 -240.5t-373.5 -113.5q-229 0 -369.5 86t-140.5 188v78h104v-78q-4 -76 105.5 -135t298.5 -59q190 0 298.5 79 t108.5 195v80q-2 240 -219 240h-92v82h96q236 14 236 293q0 152 -71 229.5t-175 77.5q-168 0 -270 -156q36 -92 36 -143v-111q-14 -168 -108 -285.5t-268 -117.5q-160 0 -270.5 119.5t-110.5 285.5zM217 903q0 -168 79 -244.5t200 -76.5q119 0 196.5 75.5t77.5 245.5v111 q0 127 -71.5 215t-192.5 88t-205 -67.5t-84 -233.5v-113z" />
<glyph unicode="&#xf415;" horiz-adv-x="1095" d="M115 322q0 141 49 221l90 -49q-37 -51 -37 -172q0 -127 91 -207t222 -80t233.5 68.5t102.5 240.5v375q0 66 -139 208t-276 140q-66 2 -101 -37t-35 -115q0 -74 33 -133l-96 -34q-39 86 -39 167q-2 111 65.5 170.5t172.5 59.5q186 0 415 -264v436h-233v74h328v-1047 q0 -199 -118 -294t-313 -95q-170 0 -292.5 101.5t-122.5 265.5z" />
<glyph unicode="&#xf416;" horiz-adv-x="1576" d="M115 954v37q0 162 98 284t266 122q203 0 314 -226q90 225 297 226q193 0 282.5 -116t89.5 -286v-57q0 -186 -182 -426l-111 23q190 209 191 397v57q0 168 -80 248t-190 80q-117 0 -186.5 -86t-69.5 -180v-215h-89v215q0 94 -69.5 180t-196.5 86q-117 0 -189.5 -87 t-72.5 -237v-45q0 -444 468 -629.5t507 -353.5h-154q-53 147 -161.5 195.5t-256 23t-286.5 -148.5v119q113 88 330 98q-549 199 -549 702z" />
<glyph unicode="&#xf417;" horiz-adv-x="1095" d="M115 336q0 31 14 88l98 -27q-10 -35 -10 -61q0 -139 96.5 -220t229.5 -81q145 0 237 65.5t92 225.5v387q-115 -176 -321 -176q-184 0 -287.5 104t-103.5 322q0 236 229 434l68 -60q-197 -182 -197 -376q0 -209 89 -282t202 -73q125 0 223 101.5t98 232.5v434h89v-1048 q0 -184 -110 -277.5t-308 -93.5q-164 0 -296 98.5t-132 282.5z" />
<glyph unicode="&#xf418;" horiz-adv-x="1081" d="M70 1081v131q0 98 59 141.5t143 43.5q133 0 228 -162q90 162 213 162q131 0 181 -70t50 -176v-754q0 -227 -109.5 -334.5t-316.5 -107.5q-180 0 -301 133t-121 320v49q0 166 115 308t303 142q213 0 338 -174v420q0 104 -36 134t-109 30q-63 0 -112.5 -56.5t-49.5 -97.5 v-55h-99v55q0 41 -38.5 97.5t-133.5 56.5q-102 0 -102 -115v-121h-102zM199 408q0 -166 93 -269.5t222 -103.5q139 0 237.5 74.5t100.5 287.5v60q0 162 -91 268t-247 106q-125 0 -220 -99t-95 -275v-49z" />
<glyph unicode="&#xf419;" horiz-adv-x="1095" d="M137 2v1042q0 137 80 245t248 108q150 0 214 -68.5t64 -138.5q0 -30 -2 -53h-92v53q0 57 -48 92t-144 35q-111 0 -169.5 -73t-58.5 -206v-274q158 188 351 188q190 0 296.5 -113.5t106.5 -275.5v-49q0 -299 -235 -524l-121 22q254 227 254 498v51q0 152 -87 234t-214 82 q-129 0 -240 -110t-111 -222v-543h-92z" />
<glyph unicode="&#xf41a;" horiz-adv-x="1173" d="M115 469v385q0 276 176 539l90 -47q-164 -209 -164 -484v-395q0 -190 114.5 -311t282.5 -121q133 0 240 88t107 283v47q0 82 -99.5 167t-197.5 85h-121v75h121q94 0 167.5 64.5t73.5 161.5q0 72 -143.5 161.5t-143.5 210.5l103 13q0 -102 143.5 -190t143.5 -197 q0 -156 -211 -259q262 -123 262 -288v-58q0 -217 -130 -330.5t-323 -113.5q-219 0 -355 153.5t-136 360.5z" />
<glyph unicode="&#xf41b;" horiz-adv-x="1095" d="M115 408v94q0 166 114.5 308t300.5 142q215 0 336 -192v631h95v-983q0 -227 -109 -340t-315 -113q-180 0 -301 133t-121 320zM217 408q0 -166 93 -269.5t220 -103.5q141 0 238.5 81t97.5 292v94q0 162 -90 268.5t-246 106.5q-123 0 -218 -99.5t-95 -275.5v-94z" />
<glyph unicode="&#xf41c;" horiz-adv-x="1079" d="M137 397v754q0 106 48 176t182 70q123 0 213 -162q94 162 227 162q82 0 142.5 -43t60.5 -142v-131h-103v121q0 115 -102 115q-96 0 -133 -56.5t-37 -103.5v-53h-105v53q0 47 -48 103.5t-111 56.5q-72 0 -107 -30t-35 -134v-420q123 174 336 174q186 0 302 -142t116 -308 v-49q0 -186 -121 -319.5t-301 -133.5q-207 0 -315.5 107.5t-108.5 334.5zM229 397q0 -213 98.5 -287.5t237.5 -74.5q129 0 222.5 103.5t93.5 269.5v49q0 176 -96.5 275t-219.5 99q-156 0 -246 -106.5t-90 -267.5v-60z" />
<glyph unicode="&#xf41d;" horiz-adv-x="1028" d="M92 356q0 76 47 160l90 -39q-35 -55 -34 -121q0 -158 97 -239.5t222 -81.5q137 0 229.5 91t92.5 224v10q0 178 -133.5 336t-133.5 351h-163q-117 0 -149 -52.5t-32 -99.5q0 -43 35 -90t148 -47h47v-78h-47q-135 0 -203 66.5t-68 150.5q0 80 64.5 153.5t204.5 73.5h167 v187h-215v80h301v-267h215v-77h-217q0 -178 140.5 -344t140.5 -338v-19q0 -143 -118 -267t-306 -124q-190 0 -306 126t-116 275z" />
<glyph unicode="&#xf41e;" horiz-adv-x="1095" d="M137 406v985h92v-631q123 193 336 192q186 0 302 -142t116 -308v-94q0 -186 -121 -319.5t-301 -133.5q-207 0 -315.5 111.5t-108.5 339.5zM229 406q0 -211 98.5 -291t237.5 -80q129 0 222.5 103.5t93.5 269.5v94q0 176 -96.5 275.5t-219.5 99.5q-156 0 -246 -106.5 t-90 -268.5v-96z" />
<glyph unicode="&#xf41f;" horiz-adv-x="866" d="M47 -35v96q516 -8 518 209q8 215 -354 242l-57 53l231 307l-324 164l45 74l326 -170l94 123q78 119 47.5 186.5t-106.5 67.5q-82 0 -170 -51l-39 71q66 59 211 60q127 0 179 -105.5t-27 -247.5l-113 -141l311 -160l-39 -71l-311 159l-186 -243q375 -50 383 -318 q0 -289 -619 -305z" />
<glyph unicode="&#xf420;" horiz-adv-x="1054" d="M94 307q0 119 23 193l96 -27q-16 -68 -16 -170q0 -123 97 -195.5t220 -72.5q135 0 229.5 71.5t94.5 165.5q0 268 -478 351v79q170 -27 279 -79q49 -23 102.5 9t53.5 97q0 150 -435 215v78q145 -12 244 -53q51 -14 99.5 17.5t48.5 90.5q0 102 -221.5 145.5t-221.5 174.5 h105q0 -76 220 -127t220 -195q0 -94 -147 -149q190 -88 190 -209q0 -94 -162 -150q205 -127 205 -291q0 -119 -110.5 -220t-317.5 -101q-215 0 -317.5 113.5t-100.5 238.5z" />
<glyph unicode="&#xf421;" horiz-adv-x="1073" d="M115 442v449q0 311 135 510l92 -45q-125 -156 -125 -471v-445q0 -252 90 -328.5t262 -76.5q160 0 224.5 55t64.5 131q0 178 -217 178h-113v66h113q201 0 201 115q0 121 -215 120h-99v64h99q205 0 204 123q0 113 -219 112h-84v66h84q205 0 205 111q0 80 -93 108.5 t-93 110.5h98q0 -49 96.5 -95.5t96.5 -117.5q0 -98 -156 -146q166 -47 166 -149q0 -104 -166 -158q178 -47 178 -147q0 -102 -168 -152q184 -51 185 -211q0 -137 -116 -200.5t-276 -63.5q-109 0 -197.5 27.5t-144 83t-84 127t-28.5 249.5z" />
<glyph unicode="&#xf422;" horiz-adv-x="1073" d="M115 18q104 0 342 68q-342 258 -342 586v205q0 256 123.5 388t298.5 132q172 0 298 -132t126 -388v-207q0 -326 -340 -584q236 -68 340 -68v-110q-29 0 -420 141q-399 -137 -424 -137h-2v106zM217 672q0 -330 320 -545q322 207 321 543v207q0 182 -93 313t-228 131 q-131 0 -225.5 -131t-94.5 -313v-205z" />
<glyph unicode="&#xf423;" horiz-adv-x="1073" d="M117 367q-2 145 45 301l102 -27q-47 -156 -47 -274q0 -147 90 -239.5t228 -92.5q147 0 235 95t88 216v82q0 162 -109.5 246t-213.5 84h-148v80h141q92 0 211 118.5t119 343.5h-602v-217h-100v295h805q0 -465 -347 -581q346 -96 347 -369v-82q0 -162 -124 -276.5 t-302 -114.5q-170 0 -294 111.5t-124 300.5z" />
<glyph unicode="&#xf424;" horiz-adv-x="1073" d="M115 358q0 193 63 316l88 -41q-49 -113 -49 -275q0 -143 96.5 -233t223.5 -90q137 0 229 74.5t92 277.5v12q0 156 -98 231t-174 75h-127v79h127q74 0 174 99.5t98 416.5q-152 -211 -409 -210q-154 0 -244 89t-90 218h102q0 -98 62.5 -166t169.5 -68q236 0 413 234h99 v-144q0 -408 -289 -512q289 -82 289 -342v-12q0 -233 -130.5 -332.5t-293.5 -99.5q-172 0 -297 122t-125 281z" />
<glyph unicode="&#xf425;" horiz-adv-x="1202" d="M115 246q0 158 103.5 250t393.5 92h246v219h-237q-297 0 -401.5 73.5t-104.5 229.5q0 113 109.5 200t305.5 87q193 0 312 -89t119 -225v-204h126v-72h-126v-219h126v-76h-126v-242q0 -133 -132.5 -224t-298.5 -91q-207 0 -311 99.5t-104 191.5zM217 248q0 -86 87 -149.5 t224 -63.5q156 0 243 74.5t87 156.5v246h-252q-240 0 -314.5 -73.5t-74.5 -190.5zM217 1110q0 -129 84 -177t320 -48h237v200q0 90 -87 161t-243 71q-135 0 -223 -54.5t-88 -152.5z" />
<glyph unicode="&#xf42a;" horiz-adv-x="872" d="M104 330q0 100 29 188l88 -26q-27 -100 -26 -162q0 -125 74.5 -192.5t172.5 -67.5q94 0 166 63.5t72 185.5q0 180 -176 311.5t-176 270.5v27h88v-25q0 -121 176 -253t176 -331q0 -131 -94 -225t-232 -94q-141 0 -239.5 101.5t-98.5 228.5zM176 1069v84h426v-84h-426z" />
<glyph unicode="&#xf42b;" horiz-adv-x="872" d="M104 330q0 100 29 188l88 -26q-27 -100 -26 -162q0 -125 74.5 -192.5t172.5 -67.5q94 0 166 63.5t72 185.5q0 180 -176 311.5t-176 270.5v27h88v-25q0 -121 176 -253t176 -331q0 -131 -94 -225t-232 -94q-141 0 -239.5 101.5t-98.5 228.5zM145 1069v127h103v-127h-103z M463 1069v127h102v-127h-102z" />
<glyph unicode="&#xf42c;" horiz-adv-x="872" d="M104 330q0 100 29 188l88 -26q-27 -100 -26 -162q0 -125 74.5 -192.5t172.5 -67.5q94 0 166 63.5t72 185.5q0 180 -176 311.5t-176 270.5v27h88v-25q0 -121 176 -253t176 -331q0 -131 -94 -225t-232 -94q-141 0 -239.5 101.5t-98.5 228.5zM176 1069v84h426v-84h-426z M176 1247v127h103v-127h-103zM494 1247v127h102v-127h-102z" />
<glyph unicode="&#xf42d;" horiz-adv-x="872" d="M104 330q0 100 29 188l88 -26q-27 -100 -26 -162q0 -125 74.5 -192.5t172.5 -67.5q94 0 166 63.5t72 185.5q0 180 -176 311.5t-176 270.5v27h88v-25q0 -121 176 -253t176 -331q0 -131 -94 -225t-232 -94q-141 0 -239.5 101.5t-98.5 228.5zM365 1069l102 195h156 l-193 -195h-65z" />
<glyph unicode="&#xf42e;" horiz-adv-x="872" d="M104 330q0 100 29 188l88 -26q-27 -100 -26 -162q0 -125 74.5 -192.5t172.5 -67.5q94 0 166 63.5t72 185.5q0 180 -176 311.5t-176 270.5v27h88v-25q0 -121 176 -253t176 -331q0 -131 -94 -225t-232 -94q-141 0 -239.5 101.5t-98.5 228.5zM217 1067v84h426v-84h-426z M406 1182l102 194h156l-193 -194h-65z" />
<glyph unicode="&#xf42f;" horiz-adv-x="872" d="M104 330q0 100 29 188l88 -26q-27 -100 -26 -162q0 -125 74.5 -192.5t172.5 -67.5q94 0 166 63.5t72 185.5q0 180 -176 311.5t-176 270.5v27h88v-25q0 -121 176 -253t176 -331q0 -131 -94 -225t-232 -94q-141 0 -239.5 101.5t-98.5 228.5zM123 1241l59 49 q53 -139 199.5 -137t196.5 137l51 -49q-92 -172 -242.5 -172t-263.5 172z" />
<glyph unicode="&#xf431;" horiz-adv-x="905" d="M92 -131q0 145 80 256l72 -49q-61 -70 -62 -207q0 -131 73 -203t175 -72q106 0 180 70t74 242v612q0 104 -62.5 176t-146.5 72q-109 0 -166 -74t-57 -147q0 -100 24 -150l-79 -37q-37 90 -37 174q0 115 82 208.5t223 93.5q123 0 213 -89.5t90 -226.5v-612 q0 -193 -104.5 -286t-233.5 -93q-127 0 -232.5 99.5t-105.5 242.5zM258 1069v84h426v-84h-426z" />
<glyph unicode="&#xf432;" horiz-adv-x="905" d="M92 -131q0 145 80 256l72 -49q-61 -70 -62 -207q0 -131 73 -203t175 -72q106 0 180 70t74 242v612q0 104 -62.5 176t-146.5 72q-109 0 -166 -74t-57 -147q0 -100 24 -150l-79 -37q-37 90 -37 174q0 115 82 208.5t223 93.5q123 0 213 -89.5t90 -226.5v-612 q0 -193 -104.5 -286t-233.5 -93q-127 0 -232.5 99.5t-105.5 242.5zM487 1069l103 195h155l-192 -195h-66z" />
<glyph unicode="&#xf433;" horiz-adv-x="905" d="M92 -131q0 145 80 256l72 -49q-61 -70 -62 -207q0 -131 73 -203t175 -72q106 0 180 70t74 242v612q0 104 -62.5 176t-146.5 72q-109 0 -166 -74t-57 -147q0 -100 24 -150l-79 -37q-37 90 -37 174q0 115 82 208.5t223 93.5q123 0 213 -89.5t90 -226.5v-612 q0 -193 -104.5 -286t-233.5 -93q-127 0 -232.5 99.5t-105.5 242.5zM279 1067v84h426v-84h-426zM467 1182l102 194h156l-193 -194h-65z" />
<glyph unicode="&#xf434;" horiz-adv-x="905" d="M92 -131q0 145 80 256l72 -49q-61 -70 -62 -207q0 -131 73 -203t175 -72q106 0 180 70t74 242v612q0 104 -62.5 176t-146.5 72q-109 0 -166 -74t-57 -147q0 -100 24 -150l-79 -37q-37 90 -37 174q0 115 82 208.5t223 93.5q123 0 213 -89.5t90 -226.5v-612 q0 -193 -104.5 -286t-233.5 -93q-127 0 -232.5 99.5t-105.5 242.5zM225 1241l60 49q53 -139 199.5 -137t195.5 137l51 -49q-92 -172 -242.5 -172t-263.5 172z" />
<glyph unicode="&#xf436;" horiz-adv-x="905" d="M104 420q0 197 102.5 305.5t242.5 108.5q139 0 246.5 -109t107.5 -305q0 -186 -156 -410l-96 29q162 154 162 381q0 172 -72.5 259t-191.5 87q-121 0 -187.5 -87t-66.5 -259q0 -227 143 -397l-92 -23q-141 233 -142 420zM238 1069v84h426v-84h-426z" />
<glyph unicode="&#xf437;" horiz-adv-x="905" d="M104 420q0 197 102.5 305.5t242.5 108.5q139 0 246.5 -109t107.5 -305q0 -186 -156 -410l-96 29q162 154 162 381q0 172 -72.5 259t-191.5 87q-121 0 -187.5 -87t-66.5 -259q0 -227 143 -397l-92 -23q-141 233 -142 420zM446 1069l103 195h156l-193 -195h-66z" />
<glyph unicode="&#xf438;" horiz-adv-x="905" d="M104 420q0 197 102.5 305.5t242.5 108.5q139 0 246.5 -109t107.5 -305q0 -186 -156 -410l-96 29q162 154 162 381q0 172 -72.5 259t-191.5 87q-121 0 -187.5 -87t-66.5 -259q0 -227 143 -397l-92 -23q-141 233 -142 420zM180 1241l60 49q53 -139 199.5 -137t195.5 137 l51 -49q-92 -172 -242.5 -172t-263.5 172z" />
<glyph unicode="&#xf43a;" horiz-adv-x="1400" d="M104 446q0 186 103.5 287t224.5 101q82 0 150.5 -55.5t117.5 -174.5q49 119 118 174.5t151 55.5q121 0 224 -100.5t103 -287.5q0 -246 -213 -446l-114 23q238 180 237 428q0 154 -71.5 234.5t-163.5 80.5q-104 0 -166 -85t-62 -173v-164h-86v164q0 88 -61 173t-166 85 q-92 0 -163.5 -81t-71.5 -234q0 -248 231 -428l-115 -23q-207 201 -207 446zM483 1069v84h426v-84h-426z" />
<glyph unicode="&#xf43b;" horiz-adv-x="1400" d="M104 446q0 186 103.5 287t224.5 101q82 0 150.5 -55.5t117.5 -174.5q49 119 118 174.5t151 55.5q121 0 224 -100.5t103 -287.5q0 -246 -213 -446l-114 23q238 180 237 428q0 154 -71.5 234.5t-163.5 80.5q-104 0 -166 -85t-62 -173v-164h-86v164q0 88 -61 173t-166 85 q-92 0 -163.5 -81t-71.5 -234q0 -248 231 -428l-115 -23q-207 201 -207 446zM453 1069v127h102v-127h-102zM770 1069v127h102v-127h-102z" />
<glyph unicode="&#xf43c;" horiz-adv-x="1400" d="M104 446q0 186 103.5 287t224.5 101q82 0 150.5 -55.5t117.5 -174.5q49 119 118 174.5t151 55.5q121 0 224 -100.5t103 -287.5q0 -246 -213 -446l-114 23q238 180 237 428q0 154 -71.5 234.5t-163.5 80.5q-104 0 -166 -85t-62 -173v-164h-86v164q0 88 -61 173t-166 85 q-92 0 -163.5 -81t-71.5 -234q0 -248 231 -428l-115 -23q-207 201 -207 446zM512 1069v84h426v-84h-426zM512 1247v127h102v-127h-102zM829 1247v127h103v-127h-103z" />
<glyph unicode="&#xf43d;" horiz-adv-x="1400" d="M104 446q0 186 103.5 287t224.5 101q82 0 150.5 -55.5t117.5 -174.5q49 119 118 174.5t151 55.5q121 0 224 -100.5t103 -287.5q0 -246 -213 -446l-114 23q238 180 237 428q0 154 -71.5 234.5t-163.5 80.5q-104 0 -166 -85t-62 -173v-164h-86v164q0 88 -61 173t-166 85 q-92 0 -163.5 -81t-71.5 -234q0 -248 231 -428l-115 -23q-207 201 -207 446zM692 1069l103 195h155l-192 -195h-66z" />
<glyph unicode="&#xf43e;" horiz-adv-x="1400" d="M104 446q0 186 103.5 287t224.5 101q82 0 150.5 -55.5t117.5 -174.5q49 119 118 174.5t151 55.5q121 0 224 -100.5t103 -287.5q0 -246 -213 -446l-114 23q238 180 237 428q0 154 -71.5 234.5t-163.5 80.5q-104 0 -166 -85t-62 -173v-164h-86v164q0 88 -61 173t-166 85 q-92 0 -163.5 -81t-71.5 -234q0 -248 231 -428l-115 -23q-207 201 -207 446zM426 1241l59 49q53 -139 199.5 -137t196.5 137l51 -49q-92 -172 -242.5 -172t-263.5 172z" />
<glyph unicode="&#xf440;" horiz-adv-x="1056" d="M47 848h92q-2 -154 70 -154q41 0 75.5 70t92.5 70h29q29 0 64.5 -36t55.5 -116q25 80 68 116t123 36q96 0 160.5 -77t64.5 -200v-641q0 -195 -111.5 -292t-248.5 -97q-139 0 -250 99.5t-111 242.5q0 160 88 272l74 -35q-72 -96 -72 -237q0 -131 79 -203t192 -72 q115 0 195.5 72t80.5 250v672q0 70 -30.5 124t-86.5 54h-53q-84 0 -106.5 -57.5t-16.5 -157.5l6 -219h-84l7 219q0 100 -26 157.5t-75 57.5h-24q-23 0 -68 -69.5t-106 -69.5q-123 0 -148 221zM299 1069v84h426v-84h-426z" />
<glyph unicode="&#xf441;" horiz-adv-x="1056" d="M47 848h92q-2 -154 70 -154q41 0 75.5 70t92.5 70h29q29 0 64.5 -36t55.5 -116q25 80 68 116t123 36q96 0 160.5 -77t64.5 -200v-641q0 -195 -111.5 -292t-248.5 -97q-139 0 -250 99.5t-111 242.5q0 160 88 272l74 -35q-72 -96 -72 -237q0 -131 79 -203t192 -72 q115 0 195.5 72t80.5 250v672q0 70 -30.5 124t-86.5 54h-53q-84 0 -106.5 -57.5t-16.5 -157.5l6 -219h-84l7 219q0 100 -26 157.5t-75 57.5h-24q-23 0 -68 -69.5t-106 -69.5q-123 0 -148 221zM309 1069v127h103v-127h-103zM627 1069v127h102v-127h-102z" />
<glyph unicode="&#xf442;" horiz-adv-x="1056" d="M47 848h92q-2 -154 70 -154q41 0 75.5 70t92.5 70h29q29 0 64.5 -36t55.5 -116q25 80 68 116t123 36q96 0 160.5 -77t64.5 -200v-641q0 -195 -111.5 -292t-248.5 -97q-139 0 -250 99.5t-111 242.5q0 160 88 272l74 -35q-72 -96 -72 -237q0 -131 79 -203t192 -72 q115 0 195.5 72t80.5 250v672q0 70 -30.5 124t-86.5 54h-53q-84 0 -106.5 -57.5t-16.5 -157.5l6 -219h-84l7 219q0 100 -26 157.5t-75 57.5h-24q-23 0 -68 -69.5t-106 -69.5q-123 0 -148 221zM279 1069v84h426v-84h-426zM279 1247v127h102v-127h-102zM596 1247v127h102v-127 h-102z" />
<glyph unicode="&#xf443;" horiz-adv-x="1056" d="M47 848h92q-2 -154 70 -154q41 0 75.5 70t92.5 70h29q29 0 64.5 -36t55.5 -116q25 80 68 116t123 36q96 0 160.5 -77t64.5 -200v-641q0 -195 -111.5 -292t-248.5 -97q-139 0 -250 99.5t-111 242.5q0 160 88 272l74 -35q-72 -96 -72 -237q0 -131 79 -203t192 -72 q115 0 195.5 72t80.5 250v672q0 70 -30.5 124t-86.5 54h-53q-84 0 -106.5 -57.5t-16.5 -157.5l6 -219h-84l7 219q0 100 -26 157.5t-75 57.5h-24q-23 0 -68 -69.5t-106 -69.5q-123 0 -148 221zM528 1069l103 195h155l-192 -195h-66z" />
<glyph unicode="&#xf444;" horiz-adv-x="1056" d="M47 848h92q-2 -154 70 -154q41 0 75.5 70t92.5 70h29q29 0 64.5 -36t55.5 -116q25 80 68 116t123 36q96 0 160.5 -77t64.5 -200v-641q0 -195 -111.5 -292t-248.5 -97q-139 0 -250 99.5t-111 242.5q0 160 88 272l74 -35q-72 -96 -72 -237q0 -131 79 -203t192 -72 q115 0 195.5 72t80.5 250v672q0 70 -30.5 124t-86.5 54h-53q-84 0 -106.5 -57.5t-16.5 -157.5l6 -219h-84l7 219q0 100 -26 157.5t-75 57.5h-24q-23 0 -68 -69.5t-106 -69.5q-123 0 -148 221zM266 1241l60 49q53 -139 199.5 -137t195.5 137l51 -49q-92 -172 -242.5 -172 t-263.5 172z" />
<glyph unicode="&#xf445;" horiz-adv-x="1056" d="M47 848h92q-2 -154 70 -154q41 0 75.5 70t92.5 70h29q29 0 64.5 -36t55.5 -116q25 80 68 116t123 36q96 0 160.5 -77t64.5 -200v-641q0 -195 -111.5 -292t-248.5 -97q-139 0 -250 99.5t-111 242.5q0 160 88 272l74 -35q-72 -96 -72 -237q0 -131 79 -203t192 -72 q115 0 195.5 72t80.5 250v672q0 70 -30.5 124t-86.5 54h-53q-84 0 -106.5 -57.5t-16.5 -157.5l6 -219h-84l7 219q0 100 -26 157.5t-75 57.5h-24q-23 0 -68 -69.5t-106 -69.5q-123 0 -148 221zM291 1069l223 260l225 -260h-84l-141 154l-139 -154h-84z" />
<glyph unicode="&#xf447;" horiz-adv-x="1402" d="M104 395q0 141 97 246q76 82 180 98q-33 66 -33 140q0 100 29 188l100 -27q-39 -100 -39 -161q0 -78 29 -136q115 -10 215 -96q96 82 217 101q25 51 25 120q0 180 -140.5 270.5t-140.5 229.5v27h98v-25q0 -121 135.5 -212t135.5 -290q0 -63 -23 -120q127 -14 219 -107.5 t92 -253.5q0 -164 -99 -264t-253 -100q-152 0 -249 100t-97 264q0 102 43 201q-86 90 -201 90q-111 0 -179 -86t-70 -197q-2 -147 84 -290.5t299 -233.5q457 -139 489 -334h-115q-37 145 -178 198.5t-241.5 40t-299.5 -66.5v94l267 31q-221 100 -309.5 258t-86.5 303z M692 387q0 -135 74 -216t182 -81q109 0 185.5 81t76.5 216q0 133 -76.5 215t-185.5 82t-182.5 -87t-73.5 -210z" />
<glyph unicode="&#xf448;" horiz-adv-x="1024" d="M125 383v803q0 76 59.5 143.5t141.5 67.5q121 0 200 -172q70 172 201 172q98 0 148.5 -64.5t50.5 -175.5v-115h-92v109q0 94 -19.5 138t-105.5 44q-66 0 -106 -65.5t-40 -155.5v-90h-76v90q0 102 -53 161.5t-98 59.5q-59 0 -93 -35.5t-34 -109.5v-516q123 162 270 162 t251 -122t104 -294q0 -174 -103.5 -296t-251.5 -122q-166 0 -260 99.5t-94 283.5zM209 383q0 -158 74.5 -236.5t195.5 -78.5q102 0 183 101t81 249q0 145 -80.5 246.5t-183.5 101.5q-98 0 -184 -101.5t-86 -281.5z" />
<glyph unicode="&#xf450;" horiz-adv-x="1402" d="M104 395q0 141 97 246q76 82 180 98q-33 66 -33 140q0 100 29 188l100 -27q-39 -100 -39 -161q0 -78 29 -136q115 -10 215 -96q96 82 217 101q25 51 25 120q0 180 -140.5 270.5t-140.5 229.5v27h98v-25q0 -121 135.5 -212t135.5 -290q0 -63 -23 -120q127 -14 219 -107.5 t92 -253.5q0 -164 -99 -264t-253 -100q-152 0 -249 100t-97 264q0 102 43 201q-86 90 -201 90q-111 0 -179 -86t-70 -197q-2 -147 84 -290.5t299 -233.5q457 -139 489 -334h-115q-37 145 -178 198.5t-241.5 40t-299.5 -66.5v94l267 31q-221 100 -309.5 258t-86.5 303z M692 387q0 -135 74 -216t182 -81q109 0 185.5 81t76.5 216q0 133 -76.5 215t-185.5 82t-182.5 -87t-73.5 -210z" />
<glyph unicode="&#xf490;" horiz-adv-x="1024" d="M125 383v803q0 76 59.5 143.5t141.5 67.5q121 0 200 -172q70 172 201 172q98 0 148.5 -64.5t50.5 -175.5v-115h-92v109q0 94 -19.5 138t-105.5 44q-66 0 -106 -65.5t-40 -155.5v-90h-76v90q0 102 -53 161.5t-98 59.5q-59 0 -93 -35.5t-34 -109.5v-516q123 162 270 162 t251 -122t104 -294q0 -174 -103.5 -296t-251.5 -122q-166 0 -260 99.5t-94 283.5zM209 383q0 -158 74.5 -236.5t195.5 -78.5q102 0 183 101t81 249q0 145 -80.5 246.5t-183.5 101.5q-98 0 -184 -101.5t-86 -281.5z" />
</font>
</defs>
</svg>
