<?xml version="1.0" standalone="no"?>
<!DOCTYPE svg PUBLIC "-//W3C//DTD SVG 1.1//EN" "http://www.w3.org/Graphics/SVG/1.1/DTD/svg11.dtd" >
<svg xmlns="http://www.w3.org/2000/svg" xmlns:xlink="http://www.w3.org/1999/xlink" version="1.1">
<metadata></metadata>
<defs>
<font id="bpg_nino_elite_cond_capsregular" horiz-adv-x="973" >
<font-face units-per-em="2048" ascent="1475" descent="-573" />
<missing-glyph horiz-adv-x="437" />
<glyph unicode="&#xd;" horiz-adv-x="686" />
<glyph unicode=" "  horiz-adv-x="437" />
<glyph unicode="&#x09;" horiz-adv-x="437" />
<glyph unicode="&#xa0;" horiz-adv-x="437" />
<glyph unicode="!" horiz-adv-x="469" d="M160 93q0 34 10.5 58.5t32 38.5t51.5 14q26 0 47.5 -13t33.5 -36.5t12 -53.5q0 -40 -27.5 -70.5t-68.5 -30.5h-2q-35 0 -62 28.5t-27 64.5zM200 1503h110l-32 -1149h-46z" />
<glyph unicode="&#x22;" horiz-adv-x="660" d="M132 1584h131l-31 -486h-70zM398 1584h132l-30 -486h-71z" />
<glyph unicode="#" horiz-adv-x="1388" d="M132 522l20 88h285l64 332h-313l16 87h313l98 526h112l-97 -526h237l101 526h108l-98 -526h279l-18 -87h-278l-65 -332h302l-15 -88h-302l-96 -522h-111l100 522h-242l-100 -522h-108l99 522h-291zM552 610h237l58 332h-237z" />
<glyph unicode="$" horiz-adv-x="1159" d="M173 100l48 81q28 -22 62 -40t72.5 -31t82 -20t88.5 -7q141 0 227 73.5t86 188.5q0 100 -70 171t-203 124q-194 78 -280 162.5t-86 210.5q0 132 88.5 222t239.5 112v234h92v-234q89 -3 154 -26t127 -59l-49 -83q-3 2 -18.5 10.5t-23 13t-26 13.5t-32 14t-35 12 t-41.5 10.5t-45.5 6.5t-51.5 3q-73 0 -129 -21.5t-87.5 -56.5t-46.5 -74t-15 -81q0 -94 66.5 -158t227.5 -127q84 -35 145.5 -72t108 -84t70 -106t23.5 -131q0 -44 -12.5 -89t-40 -89t-66.5 -79.5t-97 -61t-128 -34.5v-230h-91v230q-95 0 -184 26.5t-150 75.5z" />
<glyph unicode="%" horiz-adv-x="1686" d="M65 1027q0 111 28.5 199.5t76 141.5t105.5 81t120 28h1q143 0 225 -106.5t82 -316.5q0 -112 -25 -199.5t-69 -142.5t-102.5 -83.5t-127.5 -28.5q-64 0 -118 26t-97 76.5t-69 134t-30 190.5zM160 1010q0 -156 61.5 -246t161.5 -90q112 0 169.5 97t57.5 275q0 167 -55 262 t-170 95h-2q-104 0 -163.5 -106.5t-59.5 -286.5zM354 0l885 1477h89l-884 -1477h-90zM983 442q0 111 28.5 199t76 141.5t105.5 81t120 27.5h2q142 0 224.5 -106.5t82.5 -315.5q0 -112 -25 -199.5t-69.5 -142.5t-102.5 -83.5t-127 -28.5q-62 0 -117 26t-99 77t-70.5 134.5 t-28.5 189.5zM1079 425q0 -157 61 -246t161 -89q113 0 170 95t57 274q0 171 -55 264.5t-170 93.5h-2q-104 0 -163 -104t-59 -288z" />
<glyph unicode="&#x26;" horiz-adv-x="1291" d="M65 413q0 286 316 439v7q-135 169 -135 319q0 67 24 129.5t67.5 113t112.5 81t152 30.5q132 0 217.5 -84t85.5 -215q0 -121 -86 -217.5t-289 -185.5v-8q274 -304 466 -496q61 85 102 190t68 286h101q-24 -134 -54 -234.5t-68.5 -174.5t-87.5 -124q89 -89 256 -240h-139 l-178 167q-124 -109 -239.5 -152.5t-249.5 -43.5q-122 0 -223 53t-160 148t-59 212zM171 432q0 -103 49 -182.5t130.5 -120.5t181.5 -41h3q120 0 223.5 46.5t176.5 124.5q-264 264 -503 530q-32 -15 -65 -35.5t-69 -53.5t-63.5 -71.5t-45.5 -90t-18 -106.5zM347 1187 q0 -46 10.5 -88.5t33.5 -82.5t39 -63.5t46 -62.5q52 24 91.5 45t79 46t66.5 50.5t48.5 55.5t32.5 64.5t11 73.5q0 41 -13 79.5t-38 71t-68 52.5t-99 20h-2q-75 0 -130.5 -38t-81.5 -96t-26 -127z" />
<glyph unicode="'" horiz-adv-x="393" d="M132 1584h131l-31 -486h-70z" />
<glyph unicode="(" horiz-adv-x="590" d="M149 535q0 143 20.5 276.5t52.5 238.5t80.5 206t94.5 175t104 150h86q-170 -206 -260.5 -462t-90.5 -587q0 -165 26 -311.5t77 -273t109 -229t139 -216.5h-86q-352 426 -352 1033z" />
<glyph unicode=")" horiz-adv-x="590" d="M32 -501q82 109 142 213.5t110 231.5t75.5 277t25.5 320q0 167 -24.5 315t-73 274.5t-110 234t-145.5 214.5h88q58 -76 103.5 -148t94 -172.5t80.5 -203.5t52.5 -237t20.5 -279t-20.5 -279t-52.5 -236t-80.5 -203t-93.5 -171.5t-104 -150.5h-88z" />
<glyph unicode="*" horiz-adv-x="1196" d="M169 1151q0 53 61 47l307 -30l4 13l-224 188q-37 21 -37 54q0 20 14.5 32t32.5 12q9 0 15 -1.5t12.5 -6.5t8.5 -6.5t9.5 -10.5t8.5 -9l187 -225l13 4l-34 305q0 35 15 48.5t36 13.5q57 0 48 -61l-31 -306l14 -4l186 225q2 2 10.5 11t12.5 12t12 7t17 4q22 0 36 -13 t14 -34q0 -6 -2 -11.5t-4 -9.5t-7 -9.5t-7.5 -7.5t-8.5 -7t-7 -6l-225 -188l3 -13l305 30q36 4 49.5 -10.5t13.5 -36.5q0 -28 -22 -41t-54 -9l-292 33l-3 -14l225 -186q2 -2 9.5 -8t10.5 -9t7.5 -9t6.5 -12.5t2 -14.5q0 -18 -13 -33.5t-31 -15.5q-34 0 -58 35l-186 227 l-14 -4l31 -311q4 -22 -4 -36t-19.5 -18.5t-24.5 -4.5q-51 0 -51 63l34 307l-13 4l-187 -227q-27 -35 -57 -35q-17 0 -30.5 13.5t-13.5 30.5q0 29 37 58l224 186l-4 14q-276 -34 -308 -34q-60 0 -60 51zM539 1149q0 -24 16.5 -41t39.5 -17t42 17.5t19 40.5q0 22 -19 40.5 t-42 18.5q-11 0 -21.5 -5t-18 -13t-12 -19t-4.5 -22z" />
<glyph unicode="+" horiz-adv-x="1304" d="M88 541v88h517v537h96v-537h517v-88h-517v-541h-96v541h-517z" />
<glyph unicode="," horiz-adv-x="408" d="M88 -334q51 64 81.5 111.5t45.5 88.5t15 80q0 37 -5 54q-2 -2 -17 -2h-12q-38 0 -65.5 23t-27.5 61q0 48 31 73.5t70 25.5q53 0 83.5 -36.5t30.5 -114.5q0 -104 -51.5 -208t-144.5 -190z" />
<glyph unicode="-" horiz-adv-x="791" d="M107 498v83h579v-83h-579z" />
<glyph unicode="." horiz-adv-x="395" d="M97 103q0 40 28 69.5t71 29.5q42 0 70.5 -29t28.5 -70q0 -45 -29 -74t-70 -29q-40 0 -69.5 30.5t-29.5 72.5z" />
<glyph unicode="/" horiz-adv-x="569" d="M2 0l455 1457h112l-462 -1457h-105z" />
<glyph unicode="0" d="M107 574v333q0 81 1 123t8 116.5t20 116t40 95t65.5 81.5t98 48.5t136.5 20.5q59 0 108 -12.5t85 -30.5t63.5 -52t46 -63.5t31 -78.5t18.5 -83.5t9.5 -93t4 -92.5t0.5 -95v-333q0 -60 -0.5 -93.5t-4 -91.5t-9.5 -92.5t-18.5 -83.5t-30.5 -79t-46 -63.5t-64 -52t-85 -31 t-108 -12.5q-77 0 -136.5 20.5t-98 49t-65.5 82t-40 95t-20 115.5t-8 115.5t-1 121.5zM202 440q0 -75 9.5 -135.5t25 -100.5t38.5 -70t46 -46t52 -25.5t52 -12t51 -2.5q27 0 49 2.5t51 12t52 25.5t46 46t38.5 70t25 100.5t9.5 135.5v600q0 76 -10 137t-25 101t-38.5 70 t-45.5 45.5t-51.5 25t-51.5 12t-49 2.5q-28 0 -50.5 -2.5t-52.5 -12t-52.5 -25t-45.5 -45.5t-38.5 -70t-25 -101t-9.5 -137v-600z" />
<glyph unicode="1" d="M210 1159v97q176 122 263 228h88v-1484h-85v1405q-31 -29 -86 -83.5t-99 -95.5t-81 -67z" />
<glyph unicode="2" d="M97 0v93q77 120 185 278t178 261t138.5 213.5t102 193.5t33.5 144q0 64 -16.5 111t-41 73t-63.5 41.5t-74 20t-82 4.5q-130 0 -198 -73.5t-72 -202.5h-86q3 62 20 114.5t44.5 90t61 66.5t73 46t78.5 25.5t79 8.5q55 0 103.5 -7t99 -27t86 -52t58.5 -85.5t23 -124.5 q0 -27 -2 -51.5t-10 -54.5t-13.5 -51t-24.5 -59.5t-30.5 -62.5t-43 -75.5t-51 -83t-66 -102t-75.5 -114t-92 -136.5l-234 -349h644v-73h-732z" />
<glyph unicode="3" d="M86 327h93q6 -130 72 -204.5t198 -74.5q66 0 116 16t81.5 43.5t51.5 68t28 85.5t8 101q0 100 -13.5 166.5t-47.5 114.5t-93 69.5t-148 21.5h-47v71q6 0 17.5 -1.5t19.5 -1.5q298 0 298 340q0 141 -63.5 216t-202.5 75q-250 0 -250 -276h-99q0 76 21 140t62 111t105 73.5 t146 26.5q190 0 283 -82t93 -269q0 -55 -5.5 -100.5t-21 -91.5t-41 -81t-66.5 -63t-96 -42v-20q50 -8 88.5 -26t65 -45t44.5 -59t28 -72t14 -79.5t4 -84.5q0 -201 -91.5 -309.5t-266.5 -108.5q-187 0 -285.5 87t-99.5 265z" />
<glyph unicode="4" d="M73 381v99l462 1004h170v-1028h181v-75h-181v-381h-85v381h-547zM132 456h488v971l-20 8z" />
<glyph unicode="5" d="M126 320h95q2 -136 65.5 -204t204.5 -68q53 0 94.5 13t70 33.5t49.5 53t32.5 65.5t18 77.5t8.5 81t2 84.5q0 38 -1 66.5t-4 64.5t-8.5 62.5t-16 56.5t-24.5 51t-35.5 41.5t-48.5 33t-63 20t-79 7.5q-53 0 -105 -17.5t-95 -54.5t-57 -87h-86v784h657v-72h-571v-626 q86 81 148.5 114.5t144.5 33.5q69 0 123.5 -16.5t89.5 -41.5t60.5 -65.5t38.5 -76t20 -86.5t8 -84t1 -81q0 -59 -3 -108t-13.5 -102.5t-27.5 -95.5t-45 -81t-66 -64.5t-92.5 -41t-122.5 -15.5q-183 0 -274 84.5t-93 260.5z" />
<glyph unicode="6" d="M109 476v500q0 80 4.5 142.5t16 119.5t31 98t48.5 75t69 54.5t93.5 31.5t121.5 11q160 0 242 -79.5t92 -239.5h-93q-12 119 -70.5 181.5t-177.5 62.5q-59 0 -105.5 -17.5t-76.5 -43.5t-51.5 -71t-32.5 -84.5t-17 -101t-7 -103t-1 -107.5v-188h18q19 66 70.5 113t113 67 t127.5 20q62 0 112 -16.5t82.5 -42.5t56.5 -62.5t36.5 -70.5t20 -74t9 -65t1.5 -51q0 -57 -1 -98.5t-5 -92.5t-11.5 -88t-20.5 -77.5t-31 -69t-44.5 -55.5t-59.5 -43t-77.5 -26t-98.5 -10q-52 0 -96 6t-78.5 18.5t-63 28t-49.5 39t-36.5 48t-26 58t-17.5 65t-10.5 73.5 t-5 79.5t-1.5 85.5zM193 413q0 -22 1.5 -44.5t5.5 -54.5t13.5 -61t23 -60t35.5 -56t50.5 -45.5t68.5 -32t87 -11.5q42 0 77 8.5t61 22t46 36t34 44.5t23.5 54.5t15 59.5t8 64.5t3.5 65t1 66.5q0 97 -13 165.5t-43 117t-80 71.5t-123 23q-145 0 -220 -104t-75 -329z" />
<glyph unicode="7" d="M82 1412v72h728v-120l-465 -1364h-105l492 1412h-650z" />
<glyph unicode="8" d="M100 393q0 59 4.5 103.5t18.5 91t38.5 79.5t66.5 60t99 42v20q-37 8 -68 24.5t-53 37t-38.5 47.5t-26.5 55t-16 62t-8.5 65.5t-2.5 68.5q0 27 1 46t4.5 50.5t10 54t19.5 51.5t30.5 49.5t45.5 42t62.5 35t83 22t105.5 8.5q72 0 129 -14t94 -34.5t63.5 -53.5t40 -62 t21.5 -69t9.5 -65.5t1.5 -60.5q0 -312 -222 -358l-3 -20q61 -13 105 -40t70 -60.5t40.5 -81.5t19.5 -92.5t5 -103.5q0 -44 -4 -83t-14.5 -82.5t-27.5 -78.5t-46 -68.5t-67 -56t-93 -36t-122 -13.5q-68 0 -124 13.5t-94.5 36t-67.5 56t-46 68.5t-27.5 79t-13.5 82t-3 83z M193 376q0 -62 8 -111t28 -93t51.5 -74t81 -47t114.5 -17q280 0 280 342q0 42 -1.5 75t-8.5 73t-18.5 70t-32.5 59.5t-50 48.5t-72 31t-97 12q-55 0 -99 -12t-73.5 -30.5t-50.5 -49t-32.5 -59.5t-18 -70t-8 -73t-1.5 -75zM205 1128q0 -74 14 -130.5t44.5 -101t84 -67.5 t128.5 -23q73 0 125.5 23t82.5 67.5t44 101t14 130.5q0 76 -13 132t-42 99.5t-82 66t-129 22.5q-79 0 -133 -22.5t-83.5 -66.5t-42 -99.5t-12.5 -131.5z" />
<glyph unicode="9" d="M105 1061q0 80 9.5 143.5t34 122t64.5 97t104 61.5t148 23q61 0 109.5 -8.5t85.5 -22t65 -39.5t47.5 -50.5t32.5 -66.5t20.5 -77t11 -92t4.5 -101t1 -114v-190q0 -98 -0.5 -154t-3 -132.5t-7.5 -119t-14 -98.5t-23 -85t-34 -65.5t-46 -53.5t-61 -34t-78 -23.5t-97 -6.5 q-178 0 -262.5 74t-95.5 244h97q9 -245 240 -245q157 0 221 79q59 74 72 267q6 94 6 391q-44 -63 -98 -105t-105.5 -60t-104.5 -18q-185 0 -264 111.5t-79 347.5zM200 1061q0 -43 2 -77.5t8.5 -76t17.5 -73t30.5 -62.5t46.5 -51t66 -32.5t88 -12.5q288 0 288 366 q0 45 -0.5 67.5t-3 63t-7 61.5t-14 53.5t-23 49.5t-34.5 38.5t-48 32t-64 18t-82 7.5q-50 0 -90 -11t-68 -29.5t-48.5 -47t-33 -59t-19.5 -70t-9.5 -75.5t-2.5 -80z" />
<glyph unicode=":" horiz-adv-x="567" d="M185 103q0 42 27.5 70.5t71.5 28.5q41 0 70 -29t29 -70q0 -29 -13.5 -52t-36.5 -36t-49 -13q-41 0 -70 29.5t-29 71.5zM185 732q0 41 27.5 69.5t71.5 28.5q27 0 50 -12.5t36 -35.5t13 -50q0 -43 -30 -72.5t-69 -29.5q-41 0 -70 30t-29 72z" />
<glyph unicode=";" horiz-adv-x="537" d="M152 -335q78 91 110.5 155t32.5 126q0 18 -4 52q-2 -2 -17 -2h-11q-40 0 -67 22.5t-27 59.5q0 51 30 77t70 26q114 0 114 -152q0 -104 -51.5 -209t-143.5 -189zM169 728q-4 38 26 68.5t74 30.5q41 0 70 -29t29 -70q0 -29 -13.5 -52.5t-36.5 -36t-49 -12.5 q-41 0 -70.5 29.5t-29.5 71.5z" />
<glyph unicode="&#x3c;" horiz-adv-x="1083" d="M143 463v91l852 329v-60l-807 -315l807 -315v-59z" />
<glyph unicode="=" horiz-adv-x="1083" d="M147 456v57h848v-57h-848zM147 857v60h848v-60h-848z" />
<glyph unicode="&#x3e;" horiz-adv-x="1083" d="M143 132v61l816 322l-816 307v59l865 -327v-76z" />
<glyph unicode="?" horiz-adv-x="885" d="M109 1196q0 76 30 140t80.5 106.5t116 66t137.5 23.5q119 0 202 -53t122.5 -145t39.5 -217q0 -25 -4 -49.5t-8.5 -44.5t-17.5 -44.5t-20 -39.5t-28 -42t-30.5 -39t-37.5 -42.5t-38.5 -42t-44.5 -46.5q-18 -19 -27.5 -29t-23.5 -25.5t-21.5 -25.5t-16.5 -23.5t-13 -24 t-7.5 -23.5t-3.5 -25t3 -14v-159h-94v159q0 64 40 124.5t120 140.5q91 83 135.5 157t44.5 158q0 42 -4.5 79t-14.5 71t-25 62t-36.5 50.5t-49 38t-63.5 24t-78 8.5q-50 0 -98 -19t-86 -52t-61 -81t-23 -102q0 -45 15 -90t49.5 -79t81.5 -34q60 0 87 30t27 107q0 41 -9 92h44 q30 -74 30 -132q0 -84 -45 -129.5t-134 -45.5q-73 0 -129 40.5t-84.5 104t-28.5 136.5zM356 105q0 25 11.5 45.5t33 32.5t48.5 12q38 0 59.5 -25t21.5 -65q0 -36 -21.5 -60t-59.5 -24q-41 0 -67 23.5t-26 60.5z" />
<glyph unicode="@" horiz-adv-x="1677" d="M83 703q0 131 35.5 253t105.5 226t168 181t230.5 121t284.5 44q155 0 285 -52.5t218 -144t136.5 -215t48.5 -264.5q0 -88 -21.5 -165.5t-59.5 -133.5t-87 -96.5t-104.5 -60.5t-112.5 -20q-24 0 -47 6.5t-44 21.5t-37 36.5t-25 54t-9 71.5v29h-9q-66 -109 -150.5 -164 t-205.5 -55q-48 0 -93 20.5t-80 56.5t-56.5 89.5t-21.5 114.5q0 107 43.5 203t116 164t171 108t205.5 40q123 0 254 -47l-77 -366q-17 -86 -17 -147q0 -144 101 -153h8q46 0 91 27t81.5 75t59.5 121t23 157q0 131 -41 243t-116.5 193t-190 127t-254.5 46q-116 0 -222 -33 t-193 -96.5t-151.5 -151t-100.5 -203.5t-36 -247q0 -137 47.5 -255.5t128.5 -200.5t192 -128.5t236 -46.5q228 0 366 89l36 -82q-179 -93 -408 -93q-141 0 -269 52t-223.5 143t-152.5 223.5t-57 284.5zM530 656q0 -83 49.5 -141t142.5 -58q43 0 84.5 16.5t76 45t65.5 64.5 t54.5 76.5t39.5 80t24 75.5l49 246q-87 29 -161 29q-83 0 -160.5 -33t-136 -90t-93 -138.5t-34.5 -172.5z" />
<glyph unicode="A" horiz-adv-x="1216" d="M49 0l477 1501h128l468 -1501h-97l-122 406h-642l-124 -406h-88zM288 478h590l-293 974z" />
<glyph unicode="B" horiz-adv-x="1095" d="M162 0v1501h407q175 0 258.5 -80.5t83.5 -265.5q0 -58 -4.5 -100t-18 -84.5t-37.5 -72t-64 -54t-97 -39.5l1 -41q60 -14 104 -38t72 -55t45 -73.5t23.5 -87.5t6.5 -102q0 -201 -92.5 -304.5t-275.5 -103.5h-412zM251 71h242q186 0 271.5 74t85.5 251q0 49 -6.5 92.5 t-25.5 92.5t-50 83t-86 57t-128 23h-303v-673zM251 813h286q79 0 135.5 25t88 71t45.5 104t14 132q0 59 -10 105t-24 75.5t-38.5 50.5t-45 31.5t-53 16t-52 6.5t-52.5 1h-294v-618z" />
<glyph unicode="C" horiz-adv-x="1095" d="M135 749q0 279 20 402q39 235 180 321q96 58 246 58q356 0 356 -402h-90q-10 331 -266 331q-57 0 -103.5 -11t-81 -28t-60.5 -51.5t-44 -64.5t-30 -85t-18 -95.5t-9.5 -114.5t-4 -122.5t-0.5 -137.5q0 -88 0.5 -136t4 -121.5t9.5 -113.5t18 -95.5t30 -85t44 -64.5 t60.5 -51.5t81 -28t103.5 -11.5q68 0 119 26.5t82 75t47 112t18 142.5h104q-1 -33 -5 -65t-14.5 -76t-26.5 -81.5t-45 -76.5t-65.5 -66t-92 -44.5t-121.5 -17.5q-72 0 -131.5 14.5t-103 36t-77.5 62.5t-56 77t-37.5 98.5t-23.5 107t-12 122t-4.5 126t-0.5 134.5z" />
<glyph unicode="D" horiz-adv-x="1216" d="M173 0v1501h388q89 0 157 -16t117 -43.5t83 -78t54.5 -105.5t31.5 -140.5t15 -169.5t4 -204q0 -88 -3 -157.5t-11 -137.5t-21.5 -120t-34 -100t-49.5 -83t-67 -63.5t-86.5 -46t-109 -27t-134.5 -9.5h-334zM266 71h190q67 0 118 3.5t96.5 14t78.5 24.5t61 40.5t46.5 56 t33 77.5t22.5 97.5t13.5 123.5t7 149t1.5 180q0 91 -3.5 158t-13 129t-24.5 104t-40.5 78.5t-59.5 58.5t-82 37.5t-106.5 22t-135.5 6.5h-203v-1360z" />
<glyph unicode="E" d="M175 0v1501h655v-70h-564v-625h539v-71h-539v-664h581v-71h-672z" />
<glyph unicode="F" horiz-adv-x="851" d="M162 0v1501h607v-70h-518v-625h481v-71h-481v-735h-89z" />
<glyph unicode="G" horiz-adv-x="1216" d="M143 629v244q0 56 1.5 99t6.5 99.5t14 100t25.5 93.5t39 86.5t56.5 72t76 57.5t99.5 35.5t125.5 13.5q211 0 315 -89.5t104 -289.5h-91q-6 157 -82.5 232.5t-245.5 75.5q-57 0 -103.5 -11.5t-81.5 -28t-61.5 -51t-44 -64t-29.5 -83t-18.5 -92.5t-9.5 -108.5t-4 -115 t-1 -127.5v-47q0 -85 0.5 -127.5t3.5 -115.5t9 -110t18 -93.5t29.5 -85t44 -64.5t61.5 -52.5t82 -28.5t105 -12q174 0 311 49v600h-311v71h404v-733q-202 -58 -404 -58q-68 0 -125.5 13.5t-99.5 36t-76 58t-56.5 72t-39 86.5t-25.5 93.5t-14 100t-6.5 99.5t-1.5 99z" />
<glyph unicode="H" horiz-adv-x="1216" d="M166 0v1501h95v-695h654v695h91v-1501h-91v735h-654v-735h-95z" />
<glyph unicode="I" horiz-adv-x="485" d="M188 0v1501h92v-1501h-92z" />
<glyph unicode="J" d="M63 393h93q0 -42 2.5 -76t9 -71.5t18 -66t31 -55.5t45.5 -44t64.5 -27.5t85.5 -10.5q54 0 98.5 14t82 46t59 90.5t21.5 139.5v1169h89v-1191q0 -54 -11 -100.5t-28 -79t-43 -59t-50.5 -42.5t-55.5 -28t-53.5 -17.5t-49 -8.5t-37.5 -3.5t-24 -0.5q-64 0 -116 12.5 t-87.5 33.5t-62 53.5t-42 67t-24.5 79.5t-12 85.5t-3 90.5z" />
<glyph unicode="K" horiz-adv-x="1095" d="M181 0v1501h93v-1501h-93zM274 754v88l35 -47zM309 795l550 706h107l-570 -699l589 -802h-114z" />
<glyph unicode="L" horiz-adv-x="851" d="M160 0v1501h89v-1430h513v-71h-602z" />
<glyph unicode="M" horiz-adv-x="1704" d="M173 0v1501h181l475 -1452l472 1452h170v-1501h-84v1398l-42 7l-455 -1405h-126l-463 1405l-47 -7v-1398h-81z" />
<glyph unicode="N" horiz-adv-x="1338" d="M185 0v1501h142l651 -1352l44 -78v1430h83v-1501h-137l-656 1369l-43 98v-1467h-84z" />
<glyph unicode="O" horiz-adv-x="1216" d="M143 749q0 277 19 398q38 236 176 323q97 60 249 60q72 0 131 -14.5t102.5 -35.5t77 -63t55.5 -77t37 -98.5t22.5 -107.5t11.5 -123.5t5 -126.5t0 -135q0 -88 -0.5 -134.5t-4.5 -125.5t-11.5 -123t-22.5 -107t-37 -98t-55.5 -76.5t-77 -63t-102.5 -36t-131 -14.5 t-131 14.5t-102.5 35.5t-77.5 63t-56 77t-37 98t-22.5 107t-11.5 123t-5 125.5t-1 134.5zM234 749q0 -79 0.5 -123t3 -111t7.5 -104.5t13.5 -90.5t22 -82.5t32 -66.5t45 -56.5t59.5 -38.5t76 -26.5t94 -7.5q203 0 281 137q59 105 67 345q2 68 2 221v4v4q0 92 -0.5 136.5 t-3.5 121.5t-9 114.5t-17.5 95t-29 85t-44 63.5t-61 51.5t-81 27t-104 11.5t-104 -11t-81.5 -28t-61.5 -51.5t-44 -64.5t-29.5 -85t-18.5 -95.5t-9.5 -114.5t-4 -122.5t-1 -137.5z" />
<glyph unicode="P" d="M152 0v1501h402q32 0 56.5 -1.5t59 -9.5t61 -22t54.5 -40t46 -62t30 -91t12 -124q0 -227 -79.5 -330t-265.5 -103h-282v-718h-94zM246 789h276q62 0 107 15.5t80 52.5t52.5 103.5t17.5 161.5q0 60 -8 107t-20.5 79t-32.5 55t-40.5 36t-49 20t-52.5 9.5t-56 2.5h-274v-642 z" />
<glyph unicode="Q" horiz-adv-x="1216" d="M143 749v124q0 75 2.5 128.5t12 127t27 125t50 107.5t78.5 90t115.5 56.5t156.5 22.5q69 0 126.5 -13.5t100 -35.5t76.5 -57.5t56.5 -72t38.5 -86.5t25 -93t14 -100.5t6 -100t1 -98.5v-124q0 -126 -5.5 -212.5t-19 -161t-39.5 -127t-64.5 -95t-95.5 -79.5q43 0 160 -1.5 t163 -1.5v-71h-271q-34 0 -97.5 -5t-105.5 -5q-284 0 -397 126q-86 96 -105 306q-9 95 -9 327zM234 778q0 -90 1.5 -152t5.5 -131.5t11.5 -116.5t20.5 -96.5t31.5 -80.5t44.5 -60.5t60 -45t78 -25t98 -9.5q47 0 86.5 8t71 25t57.5 39t45.5 54t34 66t24.5 79t16.5 89.5 t10.5 101t5 109t1 117.5q0 273 -13 375q-25 202 -127 278q-79 57 -212 57q-57 0 -103 -11.5t-80.5 -28t-61 -51t-44 -64t-29.5 -83t-18.5 -92.5t-9.5 -108.5t-4 -115t-1 -127.5z" />
<glyph unicode="R" horiz-adv-x="1095" d="M162 0v1501h404q60 0 106.5 -6t83.5 -18t63.5 -32.5t45 -47t29.5 -63.5t16 -80.5t5 -98.5q0 -60 -5 -103.5t-19.5 -85.5t-40 -71.5t-67 -53t-99.5 -36.5v-41q35 -8 56 -13.5t45 -16.5t37 -20t27.5 -30t21 -40t14 -56.5t10 -72.5t5 -94.5t3 -117t0.5 -145.5q0 -69 8 -114 l6 -44h-88q-11 69 -19 364v29v41q0 26 -1.5 47.5t-5.5 50.5t-13 52.5t-22 49.5t-34.5 45t-49 35t-66.5 24.5t-86 8.5h-281v-747h-89zM251 820h247q70 0 119 8t90 30t65 59.5t37 96t13 141.5q0 84 -16 139t-51.5 84.5t-81.5 41t-117 11.5h-305v-611z" />
<glyph unicode="S" horiz-adv-x="1095" d="M132 391h98q0 -43 2.5 -75.5t10 -70.5t20.5 -66t36.5 -55t56 -44t79.5 -27.5t106 -10.5q289 0 289 295q0 58 -14.5 105t-33 79t-63 68.5t-77 58t-101.5 63.5l-15 9l-70 44q-95 63 -155 114.5t-91.5 101t-42.5 93t-11 101.5q0 183 103 269.5t293 86.5q85 0 149 -20 t104 -54t65.5 -83.5t35.5 -101.5t12 -116h-95q-3 60 -11.5 104.5t-28 84t-50 64t-78.5 38t-114 13.5q-145 0 -219 -59.5t-74 -203.5q0 -35 3 -64t10.5 -53.5t14 -42.5t21.5 -36.5t25.5 -29.5t33 -27t36 -25t41.5 -26l9 -6v2l105 -71q27 -17 69 -42t69 -41t62.5 -41t58 -46 t47 -52t38 -63.5t22.5 -76.5t9 -94q0 -390 -390 -390q-202 0 -301 108t-99 312z" />
<glyph unicode="T" d="M46 1431v70h845v-70h-376v-1431h-93v1431h-376z" />
<glyph unicode="U" horiz-adv-x="1216" d="M158 452v1049h90v-949q0 -48 0.5 -74t3.5 -75t8.5 -78t17.5 -72t28.5 -69t42.5 -56t59 -47t78.5 -28t100.5 -11t100.5 11t78.5 28t58.5 47t42 56t28 69t17.5 72t9 78t3 75v74v949h94v-1049q0 -112 -23.5 -197t-62 -138t-95 -86.5t-117 -46.5t-133.5 -13q-72 0 -132 13 t-116.5 46.5t-95 86.5t-62 138t-23.5 197z" />
<glyph unicode="V" horiz-adv-x="1095" d="M42 1501h95l387 -1452l403 1452h86l-430 -1501h-114z" />
<glyph unicode="W" horiz-adv-x="1825" d="M39 1501h96l332 -1442l21 85l317 1357h147l329 -1436l352 1436h88l-372 -1501h-144l-322 1471h-12l-336 -1471h-135z" />
<glyph unicode="X" horiz-adv-x="1095" d="M48 0l406 776l-372 725h96l344 -672l352 672h92l-385 -725q306 -565 424 -776h-112l-378 734l-371 -734h-96z" />
<glyph unicode="Y" horiz-adv-x="1095" d="M56 1501h106l366 -798q226 466 383 798h87l-427 -876v-625h-91v625z" />
<glyph unicode="Z" d="M68 0v122l721 1309h-680v70h754v-125l-716 -1305h724v-71h-803z" />
<glyph unicode="[" horiz-adv-x="590" d="M196 -513v2013h406v-63h-328v-1891h328v-59h-406z" />
<glyph unicode="\" horiz-adv-x="569" d="M2 1457h112l455 -1457h-104z" />
<glyph unicode="]" horiz-adv-x="590" d="M-12 -454h330v1891h-330v63h407v-2013h-407v59z" />
<glyph unicode="^" horiz-adv-x="1304" d="M152 456l450 994h101l449 -994h-102l-394 896h-4l-395 -896h-105z" />
<glyph unicode="_" horiz-adv-x="1095" d="M0 -137h1096v-111h-1096v111z" />
<glyph unicode="`" horiz-adv-x="656" d="M63 1544h162l200 -307h-84z" />
<glyph unicode="a" d="M93 282q0 50 10 92t25 73t42.5 56.5t51 42t63.5 29.5t67.5 20t74.5 13t72.5 8t74.5 5q14 1 21 2l112 4v115q0 127 -50 207q-48 76 -194 76q-64 0 -115.5 -22t-85 -66t-41.5 -105h-92q6 65 36 114.5t78 78.5t106 43.5t124 14.5q22 0 39.5 -0.5t44 -3.5t47.5 -8.5t46.5 -15 t44.5 -23t38.5 -34.5t31.5 -46.5t20 -61t8 -77.5v-556v-33.5v-34t0.5 -30.5t1 -35.5t2 -35t4 -43t5.5 -45.5h-88v187q-32 -72 -88.5 -121t-119.5 -70t-132 -21q-136 0 -210.5 83.5t-74.5 223.5zM188 290q0 -111 56.5 -181t165.5 -70q48 0 95.5 22.5t82.5 58t63 76.5t42 79.5 t14 65.5v218h-49q-22 0 -44 -0.5t-44 0.5h-15q-39 -1 -77 -5q-46 -6 -88.5 -14t-79 -28.5t-64 -48t-43 -72t-15.5 -101.5z" />
<glyph unicode="b" d="M143 0q6 33 6 86v1452h85v-692q12 38 26 69t28 53.5t32 40.5t33.5 30t36 20.5t36.5 13t38.5 7t38 3t38.5 0.5q60 0 107.5 -16t79 -41.5t55 -65t36 -77.5t20 -88.5t9.5 -89.5t2 -88v-87q0 -46 -1 -81t-4.5 -82.5t-10 -84t-18 -79t-27.5 -73.5t-40.5 -62t-54.5 -50 t-71.5 -31t-90.5 -12q-46 0 -91.5 11t-88 33t-75.5 60t-47 87q0 -20 -2.5 -82.5t-2.5 -83.5h-82zM244 547q0 -34 0.5 -60t2.5 -64t6 -68t10 -67t16 -65.5t23 -58.5t32 -51t41.5 -39t52.5 -26.5t65 -8.5q56 0 98.5 13.5t71 34t48 59.5t30 73t16 92.5t6.5 101t1 113.5 q0 72 -1 115.5t-6.5 103t-16 94.5t-30 75t-48 61t-71.5 35.5t-98 14.5q-51 0 -91.5 -22.5t-67 -62.5t-45 -87.5t-28 -104t-13.5 -104.5t-4 -97z" />
<glyph unicode="c" horiz-adv-x="851" d="M97 522v4v19q0 73 1 111t7.5 105t18.5 104t37 84.5t61 72.5t91 43t127 18q287 0 287 -294h-87q0 113 -51 174.5t-167 61.5q-35 0 -64 -8t-50.5 -22.5t-39 -34.5t-29 -44.5t-21 -52.5t-14 -58.5t-8.5 -62t-4.5 -63t-1.5 -62.5t0 -59v-32q0 -61 1 -94t5 -92.5t12 -94.5 t24.5 -79.5t40 -68.5t59.5 -41t83 -17q53 0 93 13t63.5 33.5t39 53.5t22 66t9.5 77h86q-2 -71 -23.5 -127.5t-52 -89t-70 -54t-71.5 -29t-62 -7.5q-73 0 -130 18.5t-93.5 43t-62 73t-38.5 85.5t-19.5 105t-7.5 107t-1 115z" />
<glyph unicode="d" d="M103 530v2q0 61 0.5 96t6.5 101.5t17.5 107t35 92.5t56.5 82t85 51t118 21q40 0 78 -7.5t80 -25.5t76.5 -54.5t53.5 -88.5q0 96 3.5 314.5t3.5 316.5h85v-1342q0 -141 8 -196h-78l-5 187q-19 -57 -53 -99.5t-76 -66t-86.5 -35t-92.5 -11.5t-89 11.5t-71.5 30t-54.5 48 t-40 60t-27.5 72.5t-18 78.5t-10 84.5t-4.5 84.5t-1 85.5zM188 526q0 -91 7 -162.5t18.5 -122t30.5 -86.5t39.5 -57.5t49.5 -33.5t56 -16t63 -4q54 0 99.5 20.5t82.5 64t58 121t21 182.5v18q0 59 -0.5 90t-3 87.5t-6.5 88.5t-13 79t-22 74.5t-33.5 60t-46 49.5t-61.5 29 t-79 12q-42 0 -76.5 -9t-60.5 -21.5t-45.5 -38t-32.5 -47t-21.5 -61t-13 -67t-7 -78.5t-3 -82t-0.5 -90z" />
<glyph unicode="e" d="M117 368v272q0 228 89 335.5t270 107.5q57 0 103.5 -9.5t81.5 -24.5t61.5 -42.5t44.5 -53.5t30.5 -68.5t19.5 -76.5t10.5 -88t4 -93t0.5 -101h-630v-107q0 -56 6 -105t24.5 -101.5t47.5 -89.5t79.5 -60.5t116.5 -23.5q128 0 194 67t72 185h88q-15 -167 -106 -241.5 t-248 -74.5q-58 0 -107.5 10.5t-97.5 38t-81 70.5t-53 113t-20 161zM202 587h545q0 72 -4.5 127t-15.5 106.5t-31 87.5t-49.5 63.5t-72 40.5t-98.5 13q-57 0 -100 -13t-73 -40.5t-50 -63.5t-31 -87.5t-15.5 -106.5t-4.5 -127z" />
<glyph unicode="f" horiz-adv-x="608" d="M57 1003v61h177v207q0 25 1.5 45.5t7.5 50.5t16 53t29.5 48t46.5 41.5t68 27t92 10.5l50 -3v-71h-74q-22 0 -41 -3t-33 -10.5t-25.5 -15.5t-19.5 -20.5t-13.5 -22.5t-9 -26t-5.5 -26t-3 -27t-1 -25v-24v-209h224v-61h-224v-1003h-86v1003h-177z" />
<glyph unicode="g" d="M103 510q0 48 0.5 84.5t0.5 63t2.5 51.5t3 37.5t4.5 34t5.5 29.5t7 34.5t8.5 38.5q4 13 9 24.5t17.5 33t27 39t38 37.5t50.5 33.5t65.5 23t82.5 9.5q58 0 114.5 -18t108.5 -61.5t79 -105.5v168h79q-4 -64 -4 -195v-932q0 -75 -9.5 -129.5t-34 -101t-66 -75t-105.5 -44.5 t-153 -16q-57 0 -104.5 12t-79.5 32.5t-55.5 46t-36 55.5t-18.5 58.5t-6 56.5h85q2 -96 65.5 -149.5t164.5 -53.5q51 0 89 5t66 21t47.5 29t32 48t19.5 58t10 77.5t3.5 88.5t0.5 109v4v129q-55 -187 -295 -187q-49 0 -90 9.5t-71.5 25.5t-54.5 41.5t-40.5 52.5t-28.5 64 t-18.5 70t-10 76.5t-4.5 78t-1 79.5zM188 551q0 -48 0.5 -72.5t2 -68.5t5 -68t9.5 -61.5t16 -58t23.5 -48t33 -42t44 -29.5t57 -21t70.5 -6q43 0 81.5 13.5t66 34.5t46.5 42.5t30 43.5q27 69 34.5 150.5t7.5 322.5q0 89 -23 157t-62.5 106.5t-86 57t-99.5 18.5 q-52 0 -92.5 -17.5t-67 -43.5t-45.5 -68.5t-28.5 -79.5t-15 -89.5t-6.5 -86t-1 -81.5v-5z" />
<glyph unicode="h" d="M144 0v1538h86v-662q11 49 35.5 86t54 59.5t66.5 37t71 19.5t69 5q53 0 95.5 -11.5t71 -29.5t49.5 -45t33 -54t19 -61.5t9 -62t2 -60.5v-759h-87v751q0 56 -12 103t-37 85t-70 59.5t-106 21.5q-41 0 -78.5 -13.5t-71.5 -43t-59 -72.5t-39.5 -107t-14.5 -142v-642h-86z " />
<glyph unicode="i" horiz-adv-x="485" d="M178 1418v120h117v-120h-117zM190 0v1094h94v-1094h-94z" />
<glyph unicode="j" horiz-adv-x="485" d="M27 -356q12 -5 38 -5q21 0 37 2t29 6.5t23 8.5t17.5 14t12.5 17.5t8.5 22.5t5.5 26t3 31.5t1 35v41.5v1252h93v-1321q0 -25 -4.5 -50t-17.5 -53.5t-33.5 -49.5t-57 -35t-82.5 -14q-58 0 -73 2v69zM190 1418v120h115v-120h-115z" />
<glyph unicode="k" horiz-adv-x="851" d="M149 0v1538h85v-1010l5 4q-5 -351 -5 -532h-85zM239 532v122l41 -66zM280 588l376 476h93l-371 -473l401 -591h-110z" />
<glyph unicode="l" horiz-adv-x="485" d="M195 0v1538h85v-1538h-85z" />
<glyph unicode="m" horiz-adv-x="1460" d="M135 0v1066h73v-193q20 65 68 114t106.5 72.5t117.5 23.5q82 0 147 -54t98 -155q13 60 42 102.5t68.5 64.5t80 32t87.5 10q124 0 192.5 -76.5t72.5 -204.5v-802h-85v769q0 48 -10.5 90.5t-32 79.5t-60.5 59t-92 22q-45 0 -83 -14.5t-65 -39.5t-47.5 -57t-32.5 -70.5 t-18 -77.5t-6 -78v-683h-85v769q-2 39 -8.5 73t-21 67t-36 57t-54.5 39t-75 15q-53 0 -96.5 -20.5t-72.5 -54t-48.5 -78t-28.5 -90.5t-9 -94v-683h-86z" />
<glyph unicode="n" d="M144 0v1064h86v-188q15 58 48 100.5t75.5 64.5t85.5 32t87 10q53 0 95.5 -11.5t71 -29.5t49.5 -45t33 -54t19 -61.5t9 -62t2 -60.5v-759h-87v751q0 56 -12 103t-37 85.5t-70 60.5t-106 22q-51 0 -97.5 -24.5t-84 -71.5t-59.5 -123.5t-22 -173.5v-629h-86z" />
<glyph unicode="o" d="M117 412v240q0 209 89 320t270 111q179 0 267.5 -111t88.5 -320v-240q0 -139 -38 -235.5t-118.5 -149t-199.5 -52.5q-121 0 -202 52.5t-119 149t-38 235.5zM202 530q0 -71 3 -123.5t9.5 -106t19 -90.5t33 -71t49.5 -54t69 -31.5t91 -11.5q50 0 89 11.5t67.5 31.5 t48.5 53.5t33 71.5t20.5 91t10 106t2.5 123t-2.5 123.5t-10 107t-20.5 91.5t-33 71.5t-48.5 54.5t-67.5 32.5t-89 11.5q-45 0 -81 -8.5t-63.5 -26t-48 -40.5t-35 -57t-23.5 -70t-14 -85t-7 -96.5t-2 -108.5z" />
<glyph unicode="p" d="M149 -419v1483h81v-188q16 49 45 87t60 60t68 36t66.5 19t56.5 5q52 0 95.5 -10.5t75 -26.5t56 -42.5t40.5 -51t27 -59.5t17 -61t9 -63.5t3.5 -58.5t0.5 -53v-245q0 -106 -19 -184.5t-60 -136t-110.5 -87t-167.5 -29.5q-22 0 -43 3t-47 10.5t-49 22t-45 36t-40.5 54.5 t-29.5 74q0 -87 -2.5 -294t-2.5 -300h-85zM240 434q4 -192 74 -291t179 -99q50 0 89 11.5t67.5 32t49 53.5t33 71t20 90.5t10 105.5t2.5 122t-2.5 122t-10 106t-20 91t-33 72t-49 54.5t-67.5 32.5t-89 12q-31 0 -64 -12t-67.5 -41.5t-61 -72.5t-43.5 -111.5t-17 -152.5v-196 z" />
<glyph unicode="q" d="M100 439v89q0 46 1 82t4.5 83.5t10 84.5t18.5 79t28.5 73t40.5 61.5t54.5 49.5t72 30.5t89.5 11.5q36 0 70 -5t70.5 -17t66 -31t55 -49.5t39.5 -69.5q0 19 3.5 74t3.5 79h81q-6 -37 -6 -88v-1395h-85v594q-39 -200 -311 -200q-60 0 -108 16.5t-79.5 41.5t-54.5 64 t-35 76.5t-19 88.5t-8.5 89t-1.5 88zM185 540q0 -55 0.5 -87t5.5 -91.5t14.5 -96.5t29 -84t46.5 -74t70 -46t97 -19q44 0 79.5 9t61.5 22t46 39t33.5 48t22.5 61.5t13.5 66.5t7 76.5t3 78.5t0.5 83q0 56 -0.5 85t-3 79.5t-7 78t-13.5 68t-22.5 63t-33.5 49.5t-46 40.5 t-61.5 23t-79.5 9.5q-263 0 -263 -475v-7z" />
<glyph unicode="r" horiz-adv-x="608" d="M158 0v1064h86v-183q27 61 79.5 107.5t111.5 69t117 25.5v-87q-146 0 -227 -79.5t-81 -226.5v-690h-86z" />
<glyph unicode="s" horiz-adv-x="851" d="M109 282h87q3 -48 9.5 -83t21.5 -69t39.5 -54.5t63.5 -33t93 -12.5q106 0 159 57t53 162q0 50 -17.5 90t-46.5 68.5t-66 52.5t-78.5 44.5t-83 41.5t-79 47.5t-66.5 58t-46 77.5t-17 101q0 69 23.5 118.5t67 78.5t99 42.5t124.5 13.5t120.5 -21.5t82 -60.5t46 -86.5 t17.5 -104.5h-85q-6 113 -53 164t-164 51q-83 0 -137.5 -51t-54.5 -132q0 -46 17.5 -84t46 -65t66 -50.5t79 -44t82.5 -42t78.5 -49t66.5 -60t46 -78.5t17 -103q0 -95 -35 -160.5t-103 -98t-167 -32.5q-160 0 -233 75t-73 232z" />
<glyph unicode="t" horiz-adv-x="608" d="M49 1003v61h180v236l83 34v-270h225v-61h-225v-737q0 -52 3.5 -84.5t11.5 -58t25 -38t41.5 -18.5t62.5 -6q63 0 81 4v-65q-32 -4 -100 -4q-116 0 -162 46.5t-46 144.5v816h-180z" />
<glyph unicode="u" d="M152 303v761h87v-740v-3v-29t4 -43.5t11.5 -54.5t23 -53.5t37 -49.5t56 -33.5t77.5 -13.5q55 0 100.5 21t74.5 53t49.5 71t29 74t8.5 63v738h85v-1064h-65v164q-27 -52 -63.5 -90t-78 -59t-82.5 -30.5t-84 -9.5q-52 0 -94 12.5t-71 35t-49.5 52t-32.5 67.5t-17.5 77 t-5.5 84z" />
<glyph unicode="v" horiz-adv-x="851" d="M42 1064h92l285 -1008l294 1008h76l-316 -1064h-112z" />
<glyph unicode="w" horiz-adv-x="1460" d="M32 1064h94l257 -1005l21 -2l243 1007h127l255 -1008l23 1l257 1007h82l-291 -1064h-126l-254 978h-20l-244 -978h-129z" />
<glyph unicode="x" horiz-adv-x="851" d="M56 0l310 568l-263 496h105l215 -451l236 451h90l-286 -496l315 -568h-105l-260 508l-269 -508h-88z" />
<glyph unicode="y" horiz-adv-x="851" d="M42 1064h92l289 -974l284 974h82l-448 -1483h-80l124 392z" />
<glyph unicode="z" horiz-adv-x="729" d="M76 0v78l476 925h-451v61h524v-83l-467 -922h477v-59h-559z" />
<glyph unicode="{" horiz-adv-x="590" d="M48 617v81h13q46 0 80 10t53 25.5t31 38.5t15.5 45t3.5 50q0 63 -24 185.5t-24 186.5q0 75 24.5 131.5t70 91t105.5 51.5t134 17h29v-83h-42q-120 0 -171 -55t-51 -167q0 -55 22 -170.5t22 -176.5q0 -78 -38 -136t-101 -81v-4q61 -17 100 -80.5t39 -139.5 q0 -58 -22 -173.5t-22 -175.5q0 -223 222 -223h42v-84h-29q-73 0 -132 17.5t-105.5 54t-71.5 99t-25 145.5q0 61 24 178t24 173q0 169 -188 169h-8z" />
<glyph unicode="|" horiz-adv-x="93" d="M0 -683v2374h93v-2374h-93z" />
<glyph unicode="}" horiz-adv-x="590" d="M32 -135h42q221 0 221 223q0 60 -22 175.5t-22 173.5q0 77 39.5 140t102.5 80v4q-64 23 -103 81t-39 136q0 61 22 176.5t22 170.5q0 113 -50 167.5t-171 54.5h-42v83h29q59 0 109 -10.5t91.5 -33t71 -56.5t46 -82.5t16.5 -108.5q0 -65 -23 -188t-23 -184q0 -20 1.5 -36 t6 -34t12.5 -31.5t22 -27t32.5 -22t45.5 -13.5t61 -5h14v-81h-9q-39 0 -70 -7t-51 -20.5t-33.5 -29t-20 -36t-9 -38t-2.5 -38.5q0 -56 23 -173t23 -178q0 -83 -25.5 -145.5t-71.5 -99t-105 -54t-132 -17.5h-29v84z" />
<glyph unicode="~" horiz-adv-x="1304" d="M91 345v21q0 123 72 198t172 75q40 0 87.5 -12.5t85 -27.5t151.5 -62q7 -3 19 -8q73 -32 111.5 -47t94 -29t99.5 -14q147 0 147 196h83q0 -4 1.5 -12.5t1.5 -12.5q0 -70 -21 -123.5t-56.5 -84t-76 -46t-84.5 -15.5q-60 0 -132.5 20t-205.5 79q-13 5 -63.5 28.5 t-67.5 30.5t-54 20.5t-64 17.5t-56 4q-157 0 -157 -196h-87z" />
<glyph unicode="&#xa4;" horiz-adv-x="1159" d="M103 74l141 139q-40 32 -66.5 109.5t-26.5 155.5q0 88 27 160.5t73 122.5l-148 140l68 67l141 -148q118 95 267 95h2q80 0 150 -26t115 -69l157 148l66 -65l-162 -142q39 -45 63.5 -116.5t24.5 -144.5q0 -90 -24 -164.5t-60 -112.5l150 -149l-68 -70l-147 156 q-101 -97 -275 -97q-75 0 -144.5 22.5t-117.5 61.5l-143 -143zM251 484q0 -73 21.5 -132t55 -96t76.5 -62.5t84.5 -36t80.5 -10.5q46 0 89.5 10t87 35t75.5 63.5t52 101t20 141.5q0 43 -11 88t-36.5 88.5t-62 77.5t-91.5 54.5t-121 20.5h-2q-75 0 -137 -30t-100.5 -79 t-59.5 -109.5t-21 -124.5z" />
<glyph unicode="&#xa6;" horiz-adv-x="481" d="M215 326h80v-905h-80v905zM215 667v905h80v-905h-80z" />
<glyph unicode="&#xa7;" horiz-adv-x="940" d="M76 629q0 67 16 122.5t39 91t57 64t62 43.5t62 28q-48 33 -76 70.5t-38.5 79.5t-10.5 101q0 52 11.5 94.5t32 71t46 50t56.5 33t61.5 17t62.5 5.5q59 0 105.5 -18.5t83 -57.5t56.5 -107t20 -160v-12h-70q0 77 -14 130t-41 81.5t-61 40t-80 11.5q-7 0 -13 -0.5l-18 -1.5 t-23 -4t-25.5 -7t-26.5 -12t-25 -17.5t-23 -24t-18.5 -32t-13 -41t-4.5 -50.5q0 -20 1.5 -36.5t7 -31.5t10 -26.5t16 -24.5t19 -21.5t26 -21t29.5 -20t37 -21.5t41.5 -22t49.5 -25q39 -20 61 -31q54 -27 94 -52.5t77 -60t59.5 -72.5t36 -89t13.5 -112q0 -49 -8.5 -93 t-22 -77t-33 -62t-39.5 -48.5t-44 -36.5t-43.5 -27.5t-40.5 -19.5q122 -71 122 -241q0 -60 -16.5 -112.5t-49.5 -94t-87 -65t-123 -23.5q-70 0 -122.5 23.5t-83.5 59.5t-50 87t-25.5 98t-6.5 100h77q0 -15 1 -31t4 -37t8 -41t13.5 -41t19.5 -39.5t27 -35t35.5 -28t46 -18.5 t56.5 -7q39 0 73.5 11.5t62.5 34.5t44.5 62.5t16.5 91.5q0 34 -6.5 60.5t-21 47.5t-30 36.5t-42 31.5t-48.5 27t-58 28.5t-62 31.5q-161 79 -236.5 176.5t-75.5 248.5zM162 632q0 -50 7 -88.5t27 -72.5t45 -60t70.5 -56t92.5 -55t122 -61q45 14 81.5 35.5t60 43.5t40.5 49.5 t26 50.5t14.5 49t6.5 42.5t1 34.5q0 36 -4 66.5t-16 57.5t-26 48t-39 43t-49.5 39.5t-65 39t-77.5 39t-94 43.5q-40 -6 -77 -24.5t-71.5 -51t-54.5 -87.5t-20 -125z" />
<glyph unicode="&#xa9;" horiz-adv-x="1752" d="M109 813q0 154 60 295.5t162 244.5t245 164.5t300 61.5q156 0 297.5 -60.5t244.5 -162.5t163.5 -244t60.5 -299q0 -104 -27.5 -204t-77 -184t-120 -154.5t-155 -120t-183.5 -77t-203 -27.5q-158 0 -300.5 61t-244.5 164t-162 245t-60 297zM196 813q0 -144 53 -273.5 t143 -223.5t216.5 -149t267.5 -55q137 0 262 55t216.5 148.5t146 224t54.5 273.5t-55.5 273.5t-147.5 224t-216.5 149t-259.5 55.5q-139 0 -265.5 -55.5t-217 -149.5t-144 -224t-53.5 -273zM522 815q0 128 38.5 219t118.5 142t197 51q83 0 152.5 -29t113.5 -87t47 -135h-95 q-4 63 -54 120q-49 55 -164 55q-51 0 -92 -15t-67 -37.5t-45 -56.5t-28 -63t-14.5 -65.5t-6 -56t-0.5 -42.5q0 -62 12 -113t30 -83t44.5 -56t50 -35.5t51.5 -18.5t44 -8t33 -1q36 0 66 8t51 20.5t38 31.5t27.5 36t18 38t11 34.5t5.5 29.5h96q-5 -22 -9.5 -40.5t-16.5 -48 t-26.5 -53t-39.5 -49.5t-55 -43.5t-73.5 -29t-94.5 -11.5q-171 0 -267.5 102.5t-96.5 289.5z" />
<glyph unicode="&#xab;" horiz-adv-x="1068" d="M152 406l311 400h78l-253 -400l253 -402h-82zM551 406q102 134 306 400h80l-253 -400l253 -402h-83z" />
<glyph unicode="&#xac;" horiz-adv-x="1304" d="M88 596v88h1130v-557h-96v469h-1034z" />
<glyph unicode="&#xad;" horiz-adv-x="788" d="M48 456v91h731v-91h-731z" />
<glyph unicode="&#xae;" horiz-adv-x="1752" d="M109 817q0 156 61 297.5t164 244.5t245 164t297 61q157 0 299.5 -61t244.5 -164t162 -244.5t60 -297.5t-60 -298.5t-162 -245.5t-244 -164t-300 -61q-155 0 -297 61t-245 164t-164 245.5t-61 298.5zM196 817q0 -143 54 -273t145 -224t217 -150t264 -56q141 0 267 55.5 t216 149t143 224t53 274.5q0 143 -53 272.5t-143 223.5t-216 149t-267 55q-108 0 -211.5 -35t-187.5 -100t-147.5 -150.5t-98.5 -192.5t-35 -222zM596 440v765h331q50 0 90.5 -9t67.5 -22.5t46.5 -34t30 -39.5t16.5 -42.5t7.5 -39.5t1.5 -35q0 -40 -12.5 -73t-33 -54.5 t-41 -34t-43.5 -21.5v-5q28 -6 48 -19.5t31 -29t18.5 -38.5t9.5 -41t4 -44q1 -19 2.5 -50t2 -42t2 -29t4.5 -26t7.5 -18t11.5 -18h-102q-18 23 -23.5 53.5t-5.5 119.5q0 2 -1 7q-1 19 -2 29t-5.5 27.5t-11 26.5t-19 21.5t-29.5 18.5t-42.5 11t-58.5 5h-207v-319h-95z M691 832h212q76 0 129.5 39.5t53.5 111.5q0 36 -11.5 63t-30 42.5t-45.5 25.5t-53 13t-58 3h-197v-298z" />
<glyph unicode="&#xaf;" horiz-adv-x="1310" d="M-25 1492v92h1423v-92h-1423z" />
<glyph unicode="&#xb0;" horiz-adv-x="950" d="M179 1286q0 56 25.5 108t68 90.5t100 61.5t118.5 23q83 0 155.5 -39t115.5 -104t43 -140q0 -49 -16.5 -94.5t-45.5 -80.5t-68 -61.5t-86.5 -40.5t-97.5 -14q-79 0 -150.5 37t-116.5 104.5t-45 149.5zM234 1286q0 -50 21 -93t56.5 -72.5t82 -46.5t97.5 -17 q107 0 182.5 64.5t75.5 164.5q0 90 -76.5 156t-181.5 66q-103 0 -180 -66t-77 -156z" />
<glyph unicode="&#xb1;" horiz-adv-x="1304" d="M88 -73h1130v-87h-1130v87zM88 541v88h517v454h96v-454h517v-88h-517v-470h-96v470h-517z" />
<glyph unicode="&#xb4;" horiz-adv-x="788" d="M320 1315l139 261h193l-227 -261h-105z" />
<glyph unicode="&#xb6;" horiz-adv-x="1159" d="M76 1105q0 49 8 94.5t28 94.5t50.5 90t79 78.5t111 64t148.5 42t189 15.5q170 0 242 -15v-1573h-95v1500h-164v-1500h-94v678h-20q-68 0 -135.5 16.5t-130.5 51.5t-111 84.5t-77 121.5t-29 157z" />
<glyph unicode="&#xb7;" horiz-adv-x="740" d="M295 369v176h178v-176h-178z" />
<glyph unicode="&#xba;" horiz-adv-x="656" d="M65 1069q0 117 78 196t189 79h2q62 0 112.5 -21.5t81 -58t47 -81t16.5 -93.5q0 -63 -24 -115.5t-62 -85.5t-85 -51t-96 -18q-115 0 -187 74t-72 175zM149 1071q0 -76 51 -128t126 -52q80 0 131 54t51 139q0 22 -4.5 44.5t-17 49t-32 46.5t-52.5 33.5t-76 13.5h-2 q-47 0 -82.5 -18.5t-55 -49t-28.5 -64t-9 -68.5z" />
<glyph unicode="&#xbb;" horiz-adv-x="1068" d="M175 2l254 402l-254 401h84l305 -405l-305 -398h-84zM574 2l253 402l-253 401h80l300 -401l-300 -402h-80z" />
<glyph unicode="&#xc0;" horiz-adv-x="1216" d="M40 0q65 215 191.5 614t183.5 584l52 154h121l424 -1352h-97l-113 362h-563l-107 -362h-92zM266 439h512l-254 842q-43 -144 -129 -421t-129 -421zM303 1691h162l189 -288h-90z" />
<glyph unicode="&#xc1;" horiz-adv-x="1216" d="M40 0q65 215 191.5 614t183.5 584l52 154h121l424 -1352h-97l-113 362h-563l-107 -362h-92zM266 439h512l-254 842q-43 -144 -129 -421t-129 -421zM535 1444l132 247h128l-153 -247h-107z" />
<glyph unicode="&#xc2;" horiz-adv-x="1216" d="M40 0q65 215 191.5 614t183.5 584l52 154h121l424 -1352h-97l-113 362h-563l-107 -362h-92zM266 439h512l-254 842q-43 -144 -129 -421t-129 -421zM274 1450l197 241h112l195 -241h-87l-165 206l-162 -206h-90z" />
<glyph unicode="&#xc3;" horiz-adv-x="1216" d="M40 0q65 215 191.5 614t183.5 584l52 154h121l424 -1352h-97l-113 362h-563l-107 -362h-92zM200 1492q23 74 53.5 117.5t66 60t84.5 16.5q28 0 60.5 -10t86.5 -34l30 -11q75 -35 122 -35q31 0 51.5 8t35.5 28t23 54h85q-16 -94 -66.5 -143t-121.5 -49q-34 0 -153 47.5 t-145 47.5q-95 0 -121 -97h-91zM266 439h512l-254 842q-43 -144 -129 -421t-129 -421z" />
<glyph unicode="&#xc4;" horiz-adv-x="1216" d="M40 0q65 215 191.5 614t183.5 584l52 154h121l424 -1352h-97l-113 362h-563l-107 -362h-92zM266 439h512l-254 842q-43 -144 -129 -421t-129 -421zM327 1505v166h95v-166h-95zM630 1505v166h97v-166h-97z" />
<glyph unicode="&#xc5;" horiz-adv-x="1216" d="M40 0q65 215 191.5 614t183.5 584l52 154h121l424 -1352h-97l-113 362h-563l-107 -362h-92zM266 439h512l-254 842q-43 -144 -129 -421t-129 -421zM442 1633q0 77 59.5 133.5t145.5 56.5q82 0 143.5 -57.5t61.5 -134.5q0 -84 -60.5 -142t-139.5 -58q-61 0 -109.5 26.5 t-74.5 72.5t-26 103zM528 1632.5q0 -44.5 32.5 -80t96.5 -35.5q53 0 81 33.5t28 80.5q0 40 -31.5 73.5t-82.5 33.5q-60 0 -92 -30.5t-32 -75z" />
<glyph unicode="&#xc6;" horiz-adv-x="1704" d="M40 0q275 604 382 832l235 520h717v-75h-545q7 -101 25 -284t24 -261h474v-75h-466l51 -581h461v-76h-552l-29 362h-514l-93 -202q-66 -138 -76 -160h-94zM337 439h473q-13 163 -40 457.5t-35 384.5q-4 0 -10 1t-10 1z" />
<glyph unicode="&#xc7;" horiz-adv-x="1095" d="M117 671v3q0 81 0.5 123t4 114t10.5 111t20.5 96.5t33.5 89t50.5 69t70 56.5t93.5 32t120 13q326 0 326 -372h-95q-2 49 -9 90t-23.5 80t-41.5 66t-65 43t-92 16q-50 0 -90.5 -10t-71 -24.5t-53.5 -45t-38.5 -56t-26 -75.5t-16 -84.5t-8 -101t-3 -108.5t-0.5 -122 q0 -79 0.5 -120.5t3 -107t8 -100.5t16 -84.5t26 -75t38.5 -56.5t53.5 -45.5t71 -25t90.5 -10.5q59 0 103 23.5t71 67.5t41 101t16 128h108q-1 -32 -5 -62.5t-14 -71.5t-26 -75.5t-43 -70t-62.5 -60.5t-87 -40.5t-114.5 -15.5q-7 0 -9 2l-86 -107l91 5q55 0 96 -33.5 t41 -93.5q0 -142 -203 -142q-61 0 -157 28l23 36q58 -22 110 -22q25 0 48 4.5t44 15t34 30.5t13 47q0 32 -16.5 53t-40 29.5t-53.5 8.5q-39 0 -71 -19l-17 21l105 142q-72 11 -127 40t-91 61.5t-60.5 91.5t-37 103t-19 125.5t-7 129.5t-0.5 142z" />
<glyph unicode="&#xc8;" d="M151 0v1352h598v-75h-501v-545h479v-75h-479v-581h516v-76h-613zM240 1691h166l189 -288h-94z" />
<glyph unicode="&#xc9;" d="M151 0v1352h598v-75h-501v-545h479v-75h-479v-581h516v-76h-613zM408 1444l133 247h194l-218 -247h-109z" />
<glyph unicode="&#xca;" d="M151 0v1352h598v-75h-501v-545h479v-75h-479v-581h516v-76h-613zM169 1450l195 241h112l195 -241h-84l-165 204l-165 -204h-88z" />
<glyph unicode="&#xcb;" d="M151 0v1352h598v-75h-501v-545h479v-75h-479v-581h516v-76h-613zM219 1523v168h98v-168h-98zM524 1523v168h93v-168h-93z" />
<glyph unicode="&#xcc;" horiz-adv-x="485" d="M-12 1691h164l187 -288h-90zM162 0v1352h95v-1352h-95z" />
<glyph unicode="&#xcd;" horiz-adv-x="485" d="M162 0v1352h95v-1352h-95zM223 1444l131 247h190l-217 -247h-104z" />
<glyph unicode="&#xce;" horiz-adv-x="485" d="M-42 1450q8 9 43 54t53 62l102 125h109l200 -241h-87l-170 206l-162 -206h-88zM162 0v1352h95v-1352h-95z" />
<glyph unicode="&#xcf;" horiz-adv-x="485" d="M12 1505v166h95v-166h-95zM162 0v1352h95v-1352h-95zM312 1505v166h96v-166h-96z" />
<glyph unicode="&#xd0;" horiz-adv-x="1216" d="M34 705v80h117v567h352q80 0 141 -14t105.5 -39.5t75.5 -70t50 -95t29.5 -127t14 -153t3.5 -184.5q0 -79 -2.5 -141.5t-9.5 -124t-19 -108t-30.5 -90t-44.5 -74.5t-60.5 -57t-79 -41.5t-100 -24t-122.5 -8.5h-303v705h-117zM248 76h160q59 0 104 3t85.5 12.5t69.5 22 t53.5 36t40.5 49.5t29 68.5t20 86.5t11.5 109.5t6 132t1.5 158.5q0 81 -3 140t-11 113.5t-21.5 91.5t-36 69t-52 51t-71.5 33t-93.5 19.5t-118.5 5.5h-174v-492h289v-80h-289v-629z" />
<glyph unicode="&#xd1;" horiz-adv-x="1338" d="M166 13v1327h144l563 -1211l45 -72v656q0 110 1 320.5t1 306.5h65v-1327h-139l-562 1226l-45 72q0 -101 -1.5 -327t-1.5 -338v-633h-70zM290 1494q27 106 75 151.5t128 45.5q13 0 45 -7t71.5 -21.5t59.5 -29.5q73 -34 122 -34q23 0 39.5 4t30.5 14t24 28t16 46h82 q-15 -98 -63 -146.5t-122 -48.5q-37 0 -154.5 47.5t-143.5 47.5q-95 0 -117 -97h-93z" />
<glyph unicode="&#xd2;" horiz-adv-x="1216" d="M122 674q0 77 0.5 122.5t4.5 114.5t11.5 110.5t21.5 97t34 88.5t50.5 69.5t70 56t93 32.5t118.5 13q246 0 334 -178q59 -119 65 -372q2 -52 2 -154q0 -79 -1 -121.5t-4.5 -113.5t-10.5 -110.5t-20.5 -96t-33.5 -88.5t-50 -69.5t-69.5 -56.5t-92.5 -32t-118.5 -13t-119 13 t-93 32.5t-70 56t-50.5 69.5t-34 88t-21.5 96.5t-11.5 110.5t-4.5 114t-0.5 121zM217 674q0 -76 0.5 -120t3.5 -107.5t9 -100.5t16.5 -84.5t26.5 -74.5t39 -57t53.5 -45.5t71 -25.5t89.5 -10q181 0 248 129q51 98 57 328l1 168q0 89 -0.5 136.5t-4 119.5t-12 110t-22.5 88 t-36.5 75.5t-54.5 51.5t-76 36t-100 10q-45 0 -82 -6.5t-66 -23t-52 -34t-39.5 -49t-28.5 -58.5t-19.5 -73t-12 -80.5t-6.5 -93t-2.5 -99.5t-0.5 -110zM303 1691h162l189 -288h-90z" />
<glyph unicode="&#xd3;" horiz-adv-x="1216" d="M122 674q0 77 0.5 122.5t4.5 114.5t11.5 110.5t21.5 97t34 88.5t50.5 69.5t70 56t93 32.5t118.5 13q246 0 334 -178q59 -119 65 -372q2 -52 2 -154q0 -79 -1 -121.5t-4.5 -113.5t-10.5 -110.5t-20.5 -96t-33.5 -88.5t-50 -69.5t-69.5 -56.5t-92.5 -32t-118.5 -13t-119 13 t-93 32.5t-70 56t-50.5 69.5t-34 88t-21.5 96.5t-11.5 110.5t-4.5 114t-0.5 121zM217 674q0 -76 0.5 -120t3.5 -107.5t9 -100.5t16.5 -84.5t26.5 -74.5t39 -57t53.5 -45.5t71 -25.5t89.5 -10q181 0 248 129q51 98 57 328l1 168q0 89 -0.5 136.5t-4 119.5t-12 110t-22.5 88 t-36.5 75.5t-54.5 51.5t-76 36t-100 10q-45 0 -82 -6.5t-66 -23t-52 -34t-39.5 -49t-28.5 -58.5t-19.5 -73t-12 -80.5t-6.5 -93t-2.5 -99.5t-0.5 -110zM535 1444l132 247h187l-212 -247h-107z" />
<glyph unicode="&#xd4;" horiz-adv-x="1216" d="M122 674q0 77 0.5 122.5t4.5 114.5t11.5 110.5t21.5 97t34 88.5t50.5 69.5t70 56t93 32.5t118.5 13q246 0 334 -178q59 -119 65 -372q2 -52 2 -154q0 -79 -1 -121.5t-4.5 -113.5t-10.5 -110.5t-20.5 -96t-33.5 -88.5t-50 -69.5t-69.5 -56.5t-92.5 -32t-118.5 -13t-119 13 t-93 32.5t-70 56t-50.5 69.5t-34 88t-21.5 96.5t-11.5 110.5t-4.5 114t-0.5 121zM217 674q0 -76 0.5 -120t3.5 -107.5t9 -100.5t16.5 -84.5t26.5 -74.5t39 -57t53.5 -45.5t71 -25.5t89.5 -10q181 0 248 129q51 98 57 328l1 168q0 89 -0.5 136.5t-4 119.5t-12 110t-22.5 88 t-36.5 75.5t-54.5 51.5t-76 36t-100 10q-45 0 -82 -6.5t-66 -23t-52 -34t-39.5 -49t-28.5 -58.5t-19.5 -73t-12 -80.5t-6.5 -93t-2.5 -99.5t-0.5 -110zM274 1450l197 241h112l195 -241h-87l-165 206l-162 -206h-90z" />
<glyph unicode="&#xd5;" horiz-adv-x="1216" d="M122 674q0 77 0.5 122.5t4.5 114.5t11.5 110.5t21.5 97t34 88.5t50.5 69.5t70 56t93 32.5t118.5 13q246 0 334 -178q59 -119 65 -372q2 -52 2 -154q0 -79 -1 -121.5t-4.5 -113.5t-10.5 -110.5t-20.5 -96t-33.5 -88.5t-50 -69.5t-69.5 -56.5t-92.5 -32t-118.5 -13t-119 13 t-93 32.5t-70 56t-50.5 69.5t-34 88t-21.5 96.5t-11.5 110.5t-4.5 114t-0.5 121zM217 674q0 -76 0.5 -120t3.5 -107.5t9 -100.5t16.5 -84.5t26.5 -74.5t39 -57t53.5 -45.5t71 -25.5t89.5 -10q181 0 248 129q51 98 57 328l1 168q0 89 -0.5 136.5t-4 119.5t-12 110t-22.5 88 t-36.5 75.5t-54.5 51.5t-76 36t-100 10q-45 0 -82 -6.5t-66 -23t-52 -34t-39.5 -49t-28.5 -58.5t-19.5 -73t-12 -80.5t-6.5 -93t-2.5 -99.5t-0.5 -110zM278 1494q34 110 81.5 153.5t123.5 43.5q7 0 15 -1t15 -2.5t17 -4.5t16.5 -5t19.5 -6.5t19 -7t21.5 -9t22.5 -8.5l30 -14 q84 -37 124 -34q47 0 71.5 19t36.5 73h85q-16 -96 -65.5 -145.5t-121.5 -49.5q-37 0 -155 47.5t-143 47.5q-96 0 -122 -97h-91z" />
<glyph unicode="&#xd6;" horiz-adv-x="1216" d="M122 674q0 77 0.5 122.5t4.5 114.5t11.5 110.5t21.5 97t34 88.5t50.5 69.5t70 56t93 32.5t118.5 13q246 0 334 -178q59 -119 65 -372q2 -52 2 -154q0 -79 -1 -121.5t-4.5 -113.5t-10.5 -110.5t-20.5 -96t-33.5 -88.5t-50 -69.5t-69.5 -56.5t-92.5 -32t-118.5 -13t-119 13 t-93 32.5t-70 56t-50.5 69.5t-34 88t-21.5 96.5t-11.5 110.5t-4.5 114t-0.5 121zM217 674q0 -76 0.5 -120t3.5 -107.5t9 -100.5t16.5 -84.5t26.5 -74.5t39 -57t53.5 -45.5t71 -25.5t89.5 -10q181 0 248 129q51 98 57 328l1 168q0 89 -0.5 136.5t-4 119.5t-12 110t-22.5 88 t-36.5 75.5t-54.5 51.5t-76 36t-100 10q-45 0 -82 -6.5t-66 -23t-52 -34t-39.5 -49t-28.5 -58.5t-19.5 -73t-12 -80.5t-6.5 -93t-2.5 -99.5t-0.5 -110zM327 1505v166h95v-166h-95zM630 1505v166h92v-166h-92z" />
<glyph unicode="&#xd7;" d="M49 158l322 320l-322 320l54 52l322 -322l320 322l53 -52l-322 -320l317 -318v-9q-8 -10 -27 -24l-21 -24l-320 322l-322 -322z" />
<glyph unicode="&#xd8;" horiz-adv-x="1216" d="M101 -32l95 175q-31 58 -48.5 135.5t-21.5 138t-4 139.5v229q0 68 2 116.5t11 115t25 113t46 96.5t71.5 81t105 51t143.5 20q97 0 166.5 -30t130.5 -91l94 163l35 -29l-98 -181q73 -143 73 -412v-230q0 -59 -2 -101t-7 -101t-17 -101.5t-30.5 -91t-49 -81.5t-70.5 -61.5 t-97.5 -43t-127.5 -14.5q-176 0 -297 124l-88 -153zM217 541q0 -12 0.5 -47.5t2 -52t4 -47.5t5.5 -53t8.5 -50t11.5 -55l525 934q-70 131 -248 131q-50 0 -91.5 -10.5t-72 -25t-53.5 -46t-38.5 -57t-26 -75t-16 -82t-8 -97.5t-3 -102.5t-0.5 -113.5v-18v-28v-51.5v-53.5z M276 185q36 -67 95.5 -101.5t154.5 -34.5q50 0 90 10t70 25.5t53 45t38.5 56t26 73t16.5 81.5t8.5 95t3 100.5t0.5 110.5q0 12 0.5 60.5t0 62.5t-1 55t-1.5 59.5t-3.5 54t-6 59t-8.5 54.5t-12 60z" />
<glyph unicode="&#xd9;" horiz-adv-x="1216" d="M135 408v944h95v-852v-2q0 -42 0.5 -65t3 -66t7.5 -68.5t15 -63t24.5 -60.5t37.5 -50t51.5 -41.5t68.5 -24.5t88 -10t88 10t69 24.5t51.5 41t37 49.5t24.5 60.5t15 63t7.5 68t3 65.5t0.5 65v4v852h96v-944q0 -435 -392 -435q-45 0 -86 6t-81 20.5t-73 37t-61.5 57 t-48 78.5t-30.5 104t-11 132zM303 1691h162l189 -288h-90z" />
<glyph unicode="&#xda;" horiz-adv-x="1216" d="M135 408v944h95v-852v-2q0 -42 0.5 -65t3 -66t7.5 -68.5t15 -63t24.5 -60.5t37.5 -50t51.5 -41.5t68.5 -24.5t88 -10t88 10t69 24.5t51.5 41t37 49.5t24.5 60.5t15 63t7.5 68t3 65.5t0.5 65v4v852h96v-944q0 -435 -392 -435q-45 0 -86 6t-81 20.5t-73 37t-61.5 57 t-48 78.5t-30.5 104t-11 132zM535 1444l132 247h187l-212 -247h-107z" />
<glyph unicode="&#xdb;" horiz-adv-x="1216" d="M135 408v944h95v-852v-2q0 -42 0.5 -65t3 -66t7.5 -68.5t15 -63t24.5 -60.5t37.5 -50t51.5 -41.5t68.5 -24.5t88 -10t88 10t69 24.5t51.5 41t37 49.5t24.5 60.5t15 63t7.5 68t3 65.5t0.5 65v4v852h96v-944q0 -435 -392 -435q-45 0 -86 6t-81 20.5t-73 37t-61.5 57 t-48 78.5t-30.5 104t-11 132zM274 1450l197 241h112l195 -241h-87l-165 206l-162 -206h-90z" />
<glyph unicode="&#xdc;" horiz-adv-x="1216" d="M135 408v944h95v-852v-2q0 -42 0.5 -65t3 -66t7.5 -68.5t15 -63t24.5 -60.5t37.5 -50t51.5 -41.5t68.5 -24.5t88 -10t88 10t69 24.5t51.5 41t37 49.5t24.5 60.5t15 63t7.5 68t3 65.5t0.5 65v4v852h96v-944q0 -435 -392 -435q-45 0 -86 6t-81 20.5t-73 37t-61.5 57 t-48 78.5t-30.5 104t-11 132zM327 1505v166h95v-166h-95zM630 1505v166h92v-166h-92z" />
<glyph unicode="&#xdd;" horiz-adv-x="1095" d="M61 1340h82l330 -720l115 237q37 76 115 239.5t117 243.5h63l-376 -774v-553h-70v553zM391 1444l131 247h188l-212 -247h-107z" />
<glyph unicode="&#xde;" d="M147 0v1501h104v-346h301q30 0 54.5 -2t59 -10.5t61.5 -22.5t56 -41t48 -63.5t31 -92.5t12 -125q0 -227 -80.5 -329.5t-267.5 -102.5h-275v-366h-104zM251 449h269q58 0 100.5 15t77.5 50t53 99.5t18 157.5q0 58 -7 103t-19 76t-31.5 53.5t-39.5 35.5t-47.5 20.5 t-51.5 9.5t-56 2h-266v-622z" />
<glyph unicode="&#xdf;" horiz-adv-x="1095" d="M151 0v1213q0 31 4 61t15 65t28 65.5t46 59.5t66 49.5t90 33t117 12.5q79 0 147.5 -30t113.5 -91.5t45 -141.5q0 -58 -24 -114.5t-58 -101.5t-68.5 -87.5t-58 -89t-23.5 -88.5q0 -31 15.5 -63.5t42 -60.5t59.5 -59.5t67.5 -60.5t68 -64t59.5 -69.5t42 -77.5t16 -87 q0 -147 -83.5 -222.5t-231.5 -75.5q-128 0 -195.5 68t-69.5 193h99q13 -187 191 -187q95 0 143.5 55.5t48.5 149.5q0 41 -15.5 81.5t-41.5 72.5t-59.5 65t-68 61t-68 59t-59.5 59.5t-42 63t-16 69.5q0 58 24.5 114t58.5 102.5t68.5 92.5t59 100t24.5 107q0 44 -21 80.5 t-54.5 59.5t-73 35t-79.5 12q-252 0 -252 -318v-1170h-97z" />
<glyph unicode="&#xe0;" d="M93 282q0 50 10.5 92t25 73t42.5 56t51.5 42t64 30t67.5 20t74 13t72 8t73 5q15 1 22 2l112 4v115q0 127 -50 207q-48 76 -194 76q-64 0 -115.5 -22t-85 -66t-41.5 -105h-92q6 65 36 114.5t78 78.5t106 43.5t124 14.5q22 0 39.5 -0.5t44 -3.5t47.5 -8.5t46.5 -15 t44.5 -23t38.5 -34.5t31.5 -46.5t20 -61t8 -77.5v-556v-33.5v-34t0.5 -30.5t1 -35.5t2 -35t4 -43t5.5 -45.5h-88v187q-32 -72 -88.5 -121t-119.5 -70t-132 -21q-136 0 -210.5 83.5t-74.5 223.5zM188 290q0 -111 56.5 -181t165.5 -70q80 0 149.5 43t108.5 112.5t39 146.5v225 h-38q-33 -1 -68.5 0t-72.5 -2t-72.5 -7t-69 -13.5t-63.5 -23t-54.5 -34.5t-42.5 -48t-28 -65t-10 -83zM236 1544h162l200 -307h-83z" />
<glyph unicode="&#xe1;" d="M93 282q0 50 10.5 92t25 73t42.5 56t51.5 42t64 30t67.5 20t74 13t72 8t73 5q15 1 22 2l112 4v115q0 127 -50 207q-48 76 -194 76q-64 0 -115.5 -22t-85 -66t-41.5 -105h-92q6 65 36 114.5t78 78.5t106 43.5t124 14.5q22 0 39.5 -0.5t44 -3.5t47.5 -8.5t46.5 -15 t44.5 -23t38.5 -34.5t31.5 -46.5t20 -61t8 -77.5v-556v-33.5v-34t0.5 -30.5t1 -35.5t2 -35t4 -43t5.5 -45.5h-88v187q-32 -72 -88.5 -121t-119.5 -70t-132 -21q-136 0 -210.5 83.5t-74.5 223.5zM188 290q0 -111 56.5 -181t165.5 -70q80 0 149.5 43t108.5 112.5t39 146.5v225 h-38q-33 -1 -68.5 0t-72.5 -2t-72.5 -7t-69 -13.5t-63.5 -23t-54.5 -34.5t-42.5 -48t-28 -65t-10 -83zM493 1315l139 261h191l-225 -261h-105z" />
<glyph unicode="&#xe2;" d="M93 282q0 50 10.5 92t25 73t42.5 56t51.5 42t64 30t67.5 20t74 13t72 8t73 5q15 1 22 2l112 4v115q0 127 -50 207q-48 76 -194 76q-64 0 -115.5 -22t-85 -66t-41.5 -105h-92q6 65 36 114.5t78 78.5t106 43.5t124 14.5q22 0 39.5 -0.5t44 -3.5t47.5 -8.5t46.5 -15 t44.5 -23t38.5 -34.5t31.5 -46.5t20 -61t8 -77.5v-556v-33.5v-34t0.5 -30.5t1 -35.5t2 -35t4 -43t5.5 -45.5h-88v187q-149 -212 -340 -212q-136 0 -210.5 83.5t-74.5 223.5zM188 290q0 -111 56.5 -181t165.5 -70q80 0 149.5 43t108.5 112.5t39 146.5v225h-38q-33 -1 -68.5 0 t-72.5 -2t-72.5 -7t-69 -13.5t-63.5 -23t-54.5 -34.5t-42.5 -48t-28 -65t-10 -83zM204 1225l211 259h122l212 -259h-78l-195 237l-188 -237h-84z" />
<glyph unicode="&#xe3;" d="M93 282q0 50 10.5 92t25 73t42.5 56t51.5 42t64 30t67.5 20t74 13t72 8t73 5q15 1 22 2l112 4v115q0 127 -50 207q-48 76 -194 76q-64 0 -115.5 -22t-85 -66t-41.5 -105h-92q6 65 36 114.5t78 78.5t106 43.5t124 14.5q22 0 39.5 -0.5t44 -3.5t47.5 -8.5t46.5 -15 t44.5 -23t38.5 -34.5t31.5 -46.5t20 -61t8 -77.5v-556v-33.5v-34t0.5 -30.5t1 -35.5t2 -35t4 -43t5.5 -45.5h-88v187q-32 -72 -88.5 -121t-119.5 -70t-132 -21q-136 0 -210.5 83.5t-74.5 223.5zM188 290q0 -111 56.5 -181t165.5 -70q80 0 149.5 43t108.5 112.5t39 146.5v225 h-38q-33 -1 -68.5 0t-72.5 -2t-72.5 -7t-69 -13.5t-63.5 -23t-54.5 -34.5t-42.5 -48t-28 -65t-10 -83zM204 1372q29 110 80.5 156t138.5 46q20 0 86 -25t139 -50t111 -25q54 0 84 21.5t45 80.5h78q-10 -66 -38 -112t-69.5 -68t-94.5 -22q-35 0 -168.5 52.5t-163.5 52.5 q-117 0 -141 -107h-87z" />
<glyph unicode="&#xe4;" d="M93 282q0 50 10.5 92t25 73t42.5 56t51.5 42t64 30t67.5 20t74 13t72 8t73 5q15 1 22 2l112 4v115q0 127 -50 207q-48 76 -194 76q-64 0 -115.5 -22t-85 -66t-41.5 -105h-92q6 65 36 114.5t78 78.5t106 43.5t124 14.5q22 0 39.5 -0.5t44 -3.5t47.5 -8.5t46.5 -15 t44.5 -23t38.5 -34.5t31.5 -46.5t20 -61t8 -77.5v-556v-33.5v-34t0.5 -30.5t1 -35.5t2 -35t4 -43t5.5 -45.5h-88v187q-149 -212 -340 -212q-136 0 -210.5 83.5t-74.5 223.5zM188 290q0 -111 56.5 -181t165.5 -70q80 0 149.5 43t108.5 112.5t39 146.5v225h-38q-33 -1 -68.5 0 t-72.5 -2t-72.5 -7t-69 -13.5t-63.5 -23t-54.5 -34.5t-42.5 -48t-28 -65t-10 -83zM254 1252v175h95v-175h-95zM602 1252v175h94v-175h-94z" />
<glyph unicode="&#xe5;" d="M93 282q0 50 10.5 92t25 73t42.5 56t51.5 42t64 30t67.5 20t74 13t72 8t73 5q15 1 22 2l112 4v115q0 127 -50 207q-48 76 -194 76q-64 0 -115.5 -22t-85 -66t-41.5 -105h-92q6 65 36 114.5t78 78.5t106 43.5t124 14.5q22 0 39.5 -0.5t44 -3.5t47.5 -8.5t46.5 -15 t44.5 -23t38.5 -34.5t31.5 -46.5t20 -61t8 -77.5v-556v-33.5v-34t0.5 -30.5t1 -35.5t2 -35t4 -43t5.5 -45.5h-88v187q-32 -72 -88.5 -121t-119.5 -70t-132 -21q-136 0 -210.5 83.5t-74.5 223.5zM188 290q0 -111 56.5 -181t165.5 -70q80 0 149.5 43t108.5 112.5t39 146.5v225 h-38q-33 -1 -68.5 0t-72.5 -2t-72.5 -7t-69 -13.5t-63.5 -23t-54.5 -34.5t-42.5 -48t-28 -65t-10 -83zM385 1370q0 83 65.5 145.5t157.5 62.5q87 0 154 -63.5t67 -145.5q0 -62 -31 -112.5t-81 -78t-107 -27.5q-98 0 -161.5 63t-63.5 156zM467 1370q0 -24 8.5 -47t25.5 -44 t47 -33.5t69 -12.5q33 0 58.5 12t40.5 32t23 43.5t8 48.5q0 48 -36.5 87.5t-100.5 39.5q-69 0 -106 -37.5t-37 -88.5z" />
<glyph unicode="&#xe6;" horiz-adv-x="1581" d="M86 265q0 56 12 102.5t29.5 80t51 59.5t62 43t77.5 28.5t82.5 17t92.5 8.5t91.5 3.5t94.5 0.5h31q0 53 -0.5 84.5t-5.5 81.5t-14.5 80t-28.5 66.5t-45.5 56.5t-68 34t-93.5 14q-97 0 -164.5 -51t-76.5 -142h-93q9 66 39.5 115t77 78t104 43.5t124.5 14.5 q62 0 118.5 -19.5t107 -66t75.5 -114.5q26 46 60.5 83.5t72.5 63t78.5 39.5t79.5 14q73 0 130 -16.5t95 -41t64.5 -67.5t40.5 -83t22 -101.5t9.5 -107t1.5 -115.5h-634v-132q0 -55 6.5 -104.5t25 -101.5t47.5 -89.5t78 -61t114 -23.5q128 0 195.5 67t73.5 185h92 q-16 -169 -107.5 -242.5t-253.5 -73.5q-65 0 -125.5 28.5t-108.5 84.5t-72 131q-55 -125 -133 -184.5t-184 -59.5q-97 0 -174.5 31.5t-125.5 98.5t-48 160zM181 274q0 -120 68.5 -177.5t192.5 -57.5q64 0 113 26t78 66.5t47.5 97.5t25.5 111t7 114q0 64 -6 98 q-38 -4 -120 -6l-67.5 -3t-63.5 -5t-63.5 -9t-56 -15t-52.5 -23.5t-41.5 -33.5t-34 -46t-19.5 -60.5t-8 -76.5zM786 608h548q0 82 -6 141.5t-24 114t-48 88.5t-80 53.5t-119 19.5q-125 0 -198 -113t-73 -304z" />
<glyph unicode="&#xe7;" horiz-adv-x="851" d="M97 522v4q0 286 29 360q66 197 314 197q287 0 287 -294h-87q0 113 -51 174.5t-167 61.5q-70 0 -123 -36.5t-80 -105.5q-7 -26 -13.5 -80t-11 -128t-4.5 -149q0 -61 1 -94t5 -92.5t12 -94.5t24.5 -79.5t40 -68.5t59.5 -41t83 -17q53 0 93 13t63.5 33.5t39 53.5t22 66 t9.5 77h86q-2 -70 -23 -125t-51.5 -87.5t-70.5 -54t-73 -30t-66 -10.5l-107 -141q10 0 56 3t59 3q61 0 104.5 -36.5t43.5 -100.5q0 -159 -229 -159q-66 0 -163 31l15 29q71 -27 129 -27q38 0 73.5 11.5t62.5 40.5t27 70q0 54 -38 82.5t-94 28.5q-31 0 -82 -18l-11 8l125 175 q-52 7 -94.5 22.5t-73.5 33.5t-55.5 49t-40 56.5t-26.5 69t-16 72t-8 80.5t-3.5 80t-0.5 84z" />
<glyph unicode="&#xe8;" d="M117 368v272q0 228 89 335.5t270 107.5q57 0 103.5 -9.5t81.5 -24.5t61.5 -42.5t44.5 -53.5t30.5 -68.5t19.5 -76.5t10.5 -88t4 -93t0.5 -101h-630v-107q0 -56 6 -105t24.5 -101.5t47.5 -89.5t79.5 -60.5t116.5 -23.5q128 0 194 67t72 185h88q-15 -167 -106 -241.5 t-248 -74.5q-58 0 -107.5 10.5t-97.5 38t-81 70.5t-53 113t-20 161zM202 587h545q0 72 -4.5 127t-15.5 106.5t-31 87.5t-49.5 63.5t-72 40.5t-98.5 13q-57 0 -100 -13t-73 -40.5t-50 -63.5t-31 -87.5t-15.5 -106.5t-4.5 -127zM236 1544h162l200 -307h-83z" />
<glyph unicode="&#xe9;" d="M117 368v272q0 228 89 335.5t270 107.5q57 0 103.5 -9.5t81.5 -24.5t61.5 -42.5t44.5 -53.5t30.5 -68.5t19.5 -76.5t10.5 -88t4 -93t0.5 -101h-630v-107q0 -56 6 -105t24.5 -101.5t47.5 -89.5t79.5 -60.5t116.5 -23.5q128 0 194 67t72 185h88q-15 -167 -106 -241.5 t-248 -74.5q-58 0 -107.5 10.5t-97.5 38t-81 70.5t-53 113t-20 161zM202 587h545q0 72 -4.5 127t-15.5 106.5t-31 87.5t-49.5 63.5t-72 40.5t-98.5 13q-57 0 -100 -13t-73 -40.5t-50 -63.5t-31 -87.5t-15.5 -106.5t-4.5 -127zM493 1315l139 261h191l-225 -261h-105z" />
<glyph unicode="&#xea;" d="M117 368v272q0 228 89 335.5t270 107.5q57 0 103.5 -9.5t81.5 -24.5t61.5 -42.5t44.5 -53.5t30.5 -68.5t19.5 -76.5t10.5 -88t4 -93t0.5 -101h-630v-107q0 -56 6 -105t24.5 -101.5t47.5 -89.5t79.5 -60.5t116.5 -23.5q128 0 194 67t72 185h88q-15 -167 -106 -241.5 t-248 -74.5q-58 0 -107.5 10.5t-97.5 38t-81 70.5t-53 113t-20 161zM202 587h545q0 72 -4.5 127t-15.5 106.5t-31 87.5t-49.5 63.5t-72 40.5t-98.5 13q-57 0 -100 -13t-73 -40.5t-50 -63.5t-31 -87.5t-15.5 -106.5t-4.5 -127zM202 1225l211 259h124l212 -259h-80l-193 237 l-192 -237h-82z" />
<glyph unicode="&#xeb;" d="M117 368v272q0 228 89 335.5t270 107.5q57 0 103.5 -9.5t81.5 -24.5t61.5 -42.5t44.5 -53.5t30.5 -68.5t19.5 -76.5t10.5 -88t4 -93t0.5 -101h-630v-107q0 -56 6 -105t24.5 -101.5t47.5 -89.5t79.5 -60.5t116.5 -23.5q128 0 194 67t72 185h88q-15 -167 -106 -241.5 t-248 -74.5q-58 0 -107.5 10.5t-97.5 38t-81 70.5t-53 113t-20 161zM202 587h545q0 72 -4.5 127t-15.5 106.5t-31 87.5t-49.5 63.5t-72 40.5t-98.5 13q-57 0 -100 -13t-73 -40.5t-50 -63.5t-31 -87.5t-15.5 -106.5t-4.5 -127zM254 1252v175h95v-175h-95zM602 1252v175h94 v-175h-94z" />
<glyph unicode="&#xec;" horiz-adv-x="485" d="M13 1484h183l136 -255h-54zM196 0v1064h86v-1064h-86z" />
<glyph unicode="&#xed;" horiz-adv-x="485" d="M144 1229l210 255h105l-266 -255h-49zM193 0v1064h85v-1064h-85z" />
<glyph unicode="&#xee;" horiz-adv-x="485" d="M-39 1225q35 43 104 124.5t110 134.5h126q34 -43 105.5 -129t106.5 -130h-84l-193 237l-190 -237h-85zM195 0v1064h85v-1064h-85z" />
<glyph unicode="&#xef;" horiz-adv-x="485" d="M17 1252v175h95v-175h-95zM195 0v1064h85v-1064h-85zM364 1252v175h93v-175h-93z" />
<glyph unicode="&#xf0;" d="M117 412v240q0 209 89 320t270 111q90 0 136 -23t72 -71l36 7q0 62 -22.5 130t-56 123t-69 97.5t-64.5 61.5l-201 -112l-34 32l210 116q-35 17 -67 34t-46 24.5t-36 16.5t-52 19l-9 2q14 16 30.5 29t23.5 20q73 -23 118.5 -46.5t99.5 -63.5l197 108l32 -34l-187 -103 q49 -45 83 -89t66.5 -111t52.5 -149t31.5 -200.5t11.5 -268.5v-220q0 -139 -38 -235.5t-118.5 -149t-199.5 -52.5q-121 0 -202 52.5t-119 149t-38 235.5zM202 530q0 -71 2.5 -124t9.5 -106.5t19.5 -91.5t33 -72t49.5 -54t69 -31.5t91 -11.5q50 0 89 11.5t67.5 32t48.5 54 t33 71.5t20.5 91.5t10 107t2.5 123.5q0 53 -1.5 96.5t-5.5 87.5t-11 78.5t-18 68t-25.5 58t-35 45.5t-46 34t-57.5 20t-71 7q-51 0 -91 -12t-69 -33t-49.5 -55.5t-33 -72.5t-19.5 -92t-9.5 -107t-2.5 -123z" />
<glyph unicode="&#xf1;" d="M144 0v1064h86v-188q37 94 123 150.5t173 56.5q53 0 95.5 -11.5t71 -29.5t49.5 -45t33 -54t19 -61.5t9 -62t2 -60.5v-759h-87v751q0 57 -12 104t-37 86.5t-70 61.5t-106 22q-53 0 -98 -18t-83 -57t-60 -110t-22 -167v-673h-86zM204 1372q29 110 80.5 156t138.5 46 q20 0 86 -25t139 -50t111 -25q54 0 84 21.5t45 80.5h78q-10 -66 -38 -112t-69.5 -68t-94.5 -22q-35 0 -168.5 52.5t-163.5 52.5q-117 0 -141 -107h-87z" />
<glyph unicode="&#xf2;" d="M117 412v240q0 209 89 320t270 111q179 0 267.5 -111t88.5 -320v-240q0 -139 -38 -235.5t-118.5 -149t-199.5 -52.5q-121 0 -202 52.5t-119 149t-38 235.5zM202 530q0 -71 2.5 -124t9.5 -106.5t19.5 -91.5t33 -72t49.5 -54t69 -31.5t91 -11.5q50 0 89 11.5t67.5 32 t48.5 54t33 71.5t20.5 91.5t10 107t2.5 123.5q0 53 -1.5 96.5t-5.5 87.5t-11 78.5t-18 68t-25.5 58t-35 45.5t-46 34t-57.5 20t-71 7q-51 0 -91 -12t-69 -33t-49.5 -55.5t-33 -72.5t-19.5 -92t-9.5 -107t-2.5 -123zM236 1544h162l200 -307h-83z" />
<glyph unicode="&#xf3;" d="M117 412v240q0 209 89 320t270 111q179 0 267.5 -111t88.5 -320v-240q0 -139 -38 -235.5t-118.5 -149t-199.5 -52.5q-121 0 -202 52.5t-119 149t-38 235.5zM202 530q0 -71 2.5 -124t9.5 -106.5t19.5 -91.5t33 -72t49.5 -54t69 -31.5t91 -11.5q50 0 89 11.5t67.5 32 t48.5 54t33 71.5t20.5 91.5t10 107t2.5 123.5q0 53 -1.5 96.5t-5.5 87.5t-11 78.5t-18 68t-25.5 58t-35 45.5t-46 34t-57.5 20t-71 7q-51 0 -91 -12t-69 -33t-49.5 -55.5t-33 -72.5t-19.5 -92t-9.5 -107t-2.5 -123zM493 1315l139 261h191l-225 -261h-105z" />
<glyph unicode="&#xf4;" d="M117 412v240q0 209 89 320t270 111q179 0 267.5 -111t88.5 -320v-240q0 -139 -38 -235.5t-118.5 -149t-199.5 -52.5q-121 0 -202 52.5t-119 149t-38 235.5zM202 530q0 -71 2.5 -124t9.5 -106.5t19.5 -91.5t33 -72t49.5 -54t69 -31.5t91 -11.5q50 0 89 11.5t67.5 32 t48.5 54t33 71.5t20.5 91.5t10 107t2.5 123.5q0 53 -1.5 96.5t-5.5 87.5t-11 78.5t-18 68t-25.5 58t-35 45.5t-46 34t-57.5 20t-71 7q-51 0 -91 -12t-69 -33t-49.5 -55.5t-33 -72.5t-19.5 -92t-9.5 -107t-2.5 -123zM202 1225l211 259h124l212 -259h-80l-193 237l-192 -237 h-82z" />
<glyph unicode="&#xf5;" d="M117 412v240q0 209 89 320t270 111q179 0 267.5 -111t88.5 -320v-240q0 -139 -38 -235.5t-118.5 -149t-199.5 -52.5q-121 0 -202 52.5t-119 149t-38 235.5zM202 530q0 -71 2.5 -124t9.5 -106.5t19.5 -91.5t33 -72t49.5 -54t69 -31.5t91 -11.5q50 0 89 11.5t67.5 32 t48.5 54t33 71.5t20.5 91.5t10 107t2.5 123.5q0 53 -1.5 96.5t-5.5 87.5t-11 78.5t-18 68t-25.5 58t-35 45.5t-46 34t-57.5 20t-71 7q-51 0 -91 -12t-69 -33t-49.5 -55.5t-33 -72.5t-19.5 -92t-9.5 -107t-2.5 -123zM204 1372q29 110 80.5 156t138.5 46q20 0 86 -25t139 -50 t111 -25q54 0 84 21.5t45 80.5h78q-10 -66 -38 -112t-69.5 -68t-94.5 -22q-35 0 -168.5 52.5t-163.5 52.5q-117 0 -141 -107h-87z" />
<glyph unicode="&#xf6;" d="M117 412v240q0 209 89 320t270 111q179 0 267.5 -111t88.5 -320v-240q0 -139 -38 -235.5t-118.5 -149t-199.5 -52.5q-121 0 -202 52.5t-119 149t-38 235.5zM202 530q0 -71 2.5 -124t9.5 -106.5t19.5 -91.5t33 -72t49.5 -54t69 -31.5t91 -11.5q50 0 89 11.5t67.5 32 t48.5 54t33 71.5t20.5 91.5t10 107t2.5 123.5q0 53 -1.5 96.5t-5.5 87.5t-11 78.5t-18 68t-25.5 58t-35 45.5t-46 34t-57.5 20t-71 7q-51 0 -91 -12t-69 -33t-49.5 -55.5t-33 -72.5t-19.5 -92t-9.5 -107t-2.5 -123zM254 1252v175h95v-175h-95zM602 1252v175h94v-175h-94z " />
<glyph unicode="&#xf7;" d="M56 500v66h837v-66h-837zM415 2v120h117v-120h-117zM415 942v122h117v-122h-117z" />
<glyph unicode="&#xf8;" d="M83 -71l104 164q-70 104 -70 319v262v1q0 42 0.5 66.5t7.5 72.5t19.5 79.5t39 70.5t64 62.5t96 40t132.5 16.5q164 0 269 -98q13 26 49 81.5t48 77.5q5 -5 24 -18l-97 -164q43 -81 53 -137t10 -151v-262q0 -106 -18.5 -184.5t-60 -136t-111 -87t-166.5 -29.5 q-161 0 -263 96l-101 -159zM202 530q0 -202 34 -352l455 733q-29 61 -81.5 87.5t-133.5 26.5q-45 0 -81 -7t-63.5 -22.5t-48 -36t-35 -53t-23.5 -68t-14 -86.5t-7 -102t-2 -120zM259 147q25 -38 54 -61.5t70 -36.5t93 -10q184 0 242 161l2 4q14 46 20.5 149.5t6.5 176.5 q0 197 -34 351z" />
<glyph unicode="&#xf9;" d="M152 303v761h87v-740v-3v-29.5t4 -44.5t11.5 -55.5t23 -54.5t37 -50.5t56 -34t77.5 -13.5q55 0 100.5 19.5t74.5 49t49.5 66.5t29 70t8.5 61v759h85v-1064h-65v164q-70 -103 -145.5 -146t-162.5 -43q-52 0 -94 12.5t-71 35t-49.5 52t-32.5 67.5t-17.5 77t-5.5 84z M236 1544h162l200 -307h-83z" />
<glyph unicode="&#xfa;" d="M152 303v761h87v-740v-3v-29.5t4 -44.5t11.5 -55.5t23 -54.5t37 -50.5t56 -34t77.5 -13.5q55 0 100.5 19.5t74.5 49t49.5 66.5t29 70t8.5 61v759h85v-1064h-65v164q-70 -103 -145.5 -146t-162.5 -43q-52 0 -94 12.5t-71 35t-49.5 52t-32.5 67.5t-17.5 77t-5.5 84z M493 1315l139 261h163l-197 -261h-105z" />
<glyph unicode="&#xfb;" d="M152 303v761h87v-740v-3v-29.5t4 -44.5t11.5 -55.5t23 -54.5t37 -50.5t56 -34t77.5 -13.5q55 0 100.5 19.5t74.5 49t49.5 66.5t29 70t8.5 61v759h85v-1064h-65v164q-87 -97 -158.5 -143t-149.5 -46q-52 0 -94 12.5t-71 35t-49.5 52t-32.5 67.5t-17.5 77t-5.5 84z M202 1225l211 259h124l212 -259h-80l-193 237l-192 -237h-82z" />
<glyph unicode="&#xfc;" d="M152 303v761h87v-740v-3v-29.5t4 -44.5t11.5 -55.5t23 -54.5t37 -50.5t56 -34t77.5 -13.5q55 0 100.5 19.5t74.5 49t49.5 66.5t29 70t8.5 61v759h85v-1064h-65v164q-87 -97 -158.5 -143t-149.5 -46q-52 0 -94 12.5t-71 35t-49.5 52t-32.5 67.5t-17.5 77t-5.5 84z M254 1252v175h95v-175h-95zM602 1252v175h94v-175h-94z" />
<glyph unicode="&#xfd;" horiz-adv-x="851" d="M42 1064h92l289 -974l284 974h82l-448 -1483h-80l124 392zM437 1315l139 261h190l-225 -261h-104z" />
<glyph unicode="&#xfe;" d="M149 -419v1957h85v-664q67 105 147.5 157t159.5 52q60 0 107.5 -16t79 -41.5t55 -65t36 -77.5t20 -88.5t9.5 -89.5t2 -88v-48v-39q0 -46 -1 -81t-4.5 -82.5t-10 -84t-18 -79t-27.5 -73.5t-40.5 -62t-54.5 -50t-71.5 -31t-90.5 -12q-168 0 -293 206q0 -87 -2.5 -297.5 t-2.5 -302.5h-85zM234 434q0 -97 21.5 -174t58 -124.5t82.5 -72t97 -24.5q56 0 98.5 13.5t71 34t48 59.5t30 73t16 92.5t6.5 101t1 113.5q0 72 -1 115.5t-6.5 103t-16 94.5t-30 75t-48 61t-71.5 35.5t-98 14.5q-31 0 -65 -12.5t-69 -42.5t-62.5 -73.5t-45 -113t-17.5 -153.5 v-196z" />
<glyph unicode="&#xff;" horiz-adv-x="851" d="M42 1064h92l289 -974l284 974h82l-448 -1483h-80l124 392zM196 1252v175h95v-175h-95zM544 1252v175h95v-175h-95z" />
<glyph unicode="&#x2da;" horiz-adv-x="822" d="M213 1370q0 83 65 145.5t156 62.5q88 0 155 -63.5t67 -145.5q0 -93 -65.5 -155.5t-153.5 -62.5q-66 0 -117.5 29.5t-79 79t-27.5 110.5zM293 1370q0 -24 8.5 -47t25.5 -44t47.5 -33.5t69.5 -12.5q63 0 96.5 41t33.5 95q0 49 -36 88t-101 39q-69 0 -106.5 -37.5 t-37.5 -88.5z" />
<glyph unicode="&#x2dc;" horiz-adv-x="788" d="M30 1372q28 110 80.5 156t138.5 46q21 0 87 -25t139 -50t110 -25q28 0 47.5 4.5t36 16t27.5 31t19 50.5h78q-11 -66 -39 -112t-69 -68t-94 -22q-36 0 -169.5 52.5t-162.5 52.5q-117 0 -141 -107h-88z" />
<glyph unicode="&#x401;" horiz-adv-x="887" d="M134 -5v1496h600v-93h-504v-583h485v-87h-485v-642h515v-91h-611zM276 1561v130h85v-130h-85zM520 1561v130h82v-130h-82z" />
<glyph unicode="&#x410;" horiz-adv-x="1035" d="M40 0l414 1496h117l393 -1496h-112l-107 410h-501l-117 -410h-87zM265 493h465l-206 862h-40z" />
<glyph unicode="&#x411;" horiz-adv-x="915" d="M132 0v1496h600v-88h-503v-579q123 37 230 37q163 0 247.5 -117.5t84.5 -326.5q0 -422 -335 -422h-324zM229 88h203q139 0 197.5 77.5t58.5 259.5q0 353 -231 353q-104 0 -228 -33v-657z" />
<glyph unicode="&#x412;" horiz-adv-x="961" d="M134 0v1496h337q149 0 236.5 -93.5t87.5 -262.5q0 -63 -10.5 -114t-35 -97.5t-68.5 -81.5t-107 -56q261 -95 261 -383q0 -196 -87 -302t-250 -106h-364zM230 82h250q248 0 248 324q0 343 -301 343q-100 0 -197 -17v-650zM230 837q114 -24 197 -24q264 0 264 300 q0 303 -234 303h-227v-579z" />
<glyph unicode="&#x413;" horiz-adv-x="729" d="M132 0v1496h541v-90h-444v-1406h-97z" />
<glyph unicode="&#x414;" horiz-adv-x="1052" d="M15 90q96 0 151 138t55 372v896h614v-1406h129v-461h-86q10 133 10 371h-797q0 -152 12 -371h-88v461zM213 90h521v1316h-424v-823q0 -325 -97 -449v-44z" />
<glyph unicode="&#x415;" horiz-adv-x="887" d="M132 0v1496h602v-90h-505v-579h484v-85h-484v-652h515v-90h-612z" />
<glyph unicode="&#x416;" horiz-adv-x="1479" d="M101 1422v83q30 12 84 12q118 0 118 -252v-154q0 -117 51 -191v2q59 -87 149 -87q70 0 168 19v642h88v-642q99 -19 165 -19q95 0 149 87v-2q53 71 53 191v154q0 252 116 252q52 0 86 -12v-83q-19 5 -38 5q-78 0 -78 -197v-95q0 -90 -32 -157t-113 -168q54 -36 87 -61.5 t62 -59t43 -64t24.5 -79.5t13.5 -103.5t3 -137.5q0 -202 20 -305h-91q-31 130 -31 305q0 249 -64 357.5t-216 108.5q-65 0 -159 -22v-749h-88v749q-95 22 -163 22q-152 0 -215.5 -108.5t-63.5 -357.5q0 -181 -29 -305h-93q22 100 22 305q0 89 2.5 144t13 106t23.5 80 t42.5 61.5t62 55.5t89.5 58q-42 54 -63.5 85.5t-43 72.5t-30 80.5t-8.5 86.5v95q0 197 -80 197q-20 0 -36 -5z" />
<glyph unicode="&#x417;" horiz-adv-x="965" d="M76 332h102q4 -139 66 -205t188 -66q303 0 303 343q0 172 -81 253h2q-73 88 -200 88q-69 0 -117 -3v66q40 -6 117 -6q79 0 137.5 41.5t89 114t30.5 168.5q0 309 -257 309q-240 0 -248 -257h-107q4 151 104 248t264 97q81 0 145 -29.5t105.5 -83t63.5 -128t22 -165.5 q0 -245 -237 -351q271 -88 271 -351q0 -210 -99.5 -326t-291.5 -116q-166 0 -265.5 96t-106.5 263z" />
<glyph unicode="&#x418;" horiz-adv-x="1072" d="M129 0v1496h90v-1367l44 122l530 1245h110v-1496h-90v1369l-47 -125l-526 -1244h-111z" />
<glyph unicode="&#x419;" horiz-adv-x="1072" d="M129 0v1496h90v-1370l44 122l539 1248h101v-1496h-90v1369l-47 -125l-532 -1244h-105zM297 1691h84q4 -69 44.5 -118.5t91.5 -49.5q54 0 92.5 44.5t44.5 123.5h81q-6 -97 -63 -161.5t-155 -64.5q-99 0 -155.5 62.5t-64.5 163.5z" />
<glyph unicode="&#x41a;" horiz-adv-x="969" d="M134 0v1496h96v-642q100 -19 202 -19q87 0 143.5 78t56.5 198v154q0 252 115 252q42 0 88 -12v-83q-13 5 -42 5q-76 0 -76 -197v-95q0 -97 -26.5 -163.5t-102.5 -161.5q48 -28 80 -52.5t57 -56t39 -65t23.5 -84t12 -107t2.5 -140.5q0 -220 20 -305h-90q-27 137 -27 305 q0 250 -63 358t-215 108q-94 0 -197 -22v-749h-96z" />
<glyph unicode="&#x41b;" horiz-adv-x="988" d="M17 -2v102q53 -14 95 -14q111 0 111 354v1056h600v-1496h-96v1406h-417v-1011q0 -410 -183 -410h-35.5t-26.5 1.5t-26 4t-22 7.5z" />
<glyph unicode="&#x41c;" horiz-adv-x="1354" d="M129 0v1496h153l362 -1405h17l359 1405h154v-1496h-80v1447l-52 -105l-339 -1342h-101l-339 1334l-48 106v-1440h-86z" />
<glyph unicode="&#x41d;" horiz-adv-x="1047" d="M132 0v1496h93v-679h560v679h93v-1496h-93v734h-560v-734h-93z" />
<glyph unicode="&#x41e;" horiz-adv-x="1127" d="M97 690v116q0 349 112 530t332 181q222 0 335 -181t113 -530v-116q0 -351 -112 -530t-336 -179q-222 0 -333 179t-111 530zM196 710q0 -318 89.5 -482.5t255.5 -164.5q349 0 349 647v76q0 647 -349 647q-166 0 -255.5 -164.5t-89.5 -482.5v-76z" />
<glyph unicode="&#x41f;" horiz-adv-x="1032" d="M134 0v1496h727v-1496h-95v1405h-537v-1405h-95z" />
<glyph unicode="&#x420;" horiz-adv-x="903" d="M129 0v1496h267q178 0 284 -109t106 -291q0 -217 -89 -330.5t-260 -113.5q-116 0 -214 36v-688h-94zM223 783q132 -48 219 -48q242 0 242 355q0 318 -299 318h-162v-625z" />
<glyph unicode="&#x421;" horiz-adv-x="967" d="M97 686v124q0 713 389 713q165 0 263.5 -94t104.5 -251h-98q-5 119 -75.5 188t-179.5 69q-90 0 -160 -82.5t-107.5 -230t-37.5 -336.5v-71q0 -302 82 -478t223 -176q104 0 175 74t80 197h98q-6 -166 -106.5 -262.5t-261.5 -96.5q-125 0 -213 87.5t-132 247t-44 378.5z " />
<glyph unicode="&#x422;" horiz-adv-x="879" d="M34 1405v91h781v-91h-348v-1405h-88v1405h-345z" />
<glyph unicode="&#x423;" horiz-adv-x="872" d="M48 1503h99l276 -1230h17l273 1230h97l-345 -1457v2q-36 -145 -91.5 -206t-154.5 -61q-39 0 -97 31v85q50 -32 83 -32q130 0 178 218z" />
<glyph unicode="&#x424;" horiz-adv-x="1308" d="M74 761q0 257 111 410.5t295 153.5h107v198h87v-198h109q181 0 292.5 -153.5t111.5 -410.5q0 -264 -112 -417.5t-292 -153.5h-109v-217h-87v217h-107q-184 0 -295 154.5t-111 416.5zM171 760.5q0 -495.5 315 -495.5h105v991h-105q-315 0 -315 -495.5zM671 265h103 q316 0 316 495.5t-316 495.5h-103v-991z" />
<glyph unicode="&#x425;" horiz-adv-x="1018" d="M59 0l389 786l-341 710h112l279 -625l281 625h111l-338 -710l375 -786h-107l-322 696q-57 -126 -171.5 -371t-151.5 -325h-116z" />
<glyph unicode="&#x426;" horiz-adv-x="1089" d="M132 0v1496h93v-1406h539v1406h97v-1406h132v-461h-86q11 111 11 371h-786z" />
<glyph unicode="&#x427;" horiz-adv-x="908" d="M82 1096v400h97v-413q0 -317 227 -317q129 0 241 34v696h97v-1496h-97v735q-168 -45 -286 -45q-136 0 -207.5 107t-71.5 299z" />
<glyph unicode="&#x428;" horiz-adv-x="1477" d="M129 0v1496h94v-1405h446v1405h87v-1405h445v1405h90v-1496h-1162z" />
<glyph unicode="&#x429;" horiz-adv-x="1531" d="M129 0v1496h92v-1406h442v1406h93v-1406h440v1406h92v-1406h142v-461h-86q11 111 11 371h-1226z" />
<glyph unicode="&#x42a;" horiz-adv-x="1057" d="M57 1405v91h309v-659q124 29 219 29q347 0 347 -444q0 -422 -336 -422h-327v1405h-212zM366 88h202q143 0 202.5 77.5t59.5 259.5q0 353 -232 353q-137 0 -232 -29v-661z" />
<glyph unicode="&#x42b;" horiz-adv-x="1223" d="M132 0v1496h91v-659q114 29 217 29q346 0 346 -444q0 -422 -334 -422h-320zM223 88h204q139 0 198 76.5t59 260.5q0 353 -230 353q-126 0 -231 -29v-661zM951 0v1496h97v-1496h-97z" />
<glyph unicode="&#x42c;" horiz-adv-x="913" d="M132 0v1496h93v-661q118 31 217 31q347 0 347 -444q0 -422 -335 -422h-322zM225 88h204q139 0 198 76.5t59 260.5q0 353 -230 353q-132 0 -231 -29v-661z" />
<glyph unicode="&#x42d;" horiz-adv-x="969" d="M76 332h102q9 -124 79 -197.5t175 -73.5q303 0 303 681h-396v78h396q0 615 -303 615q-99 0 -168.5 -67.5t-85.5 -172.5h-102q7 151 107 239.5t265 88.5q188 0 289.5 -180t101.5 -516v-100q0 -754 -391 -754q-166 0 -265.5 96t-106.5 263z" />
<glyph unicode="&#x42e;" horiz-adv-x="1430" d="M127 0v1496h94v-676h183q0 155 32 285t90 221t141.5 141t184.5 50q127 0 226.5 -85t153.5 -232t54 -329v-180q0 -343 -112 -526.5t-322 -183.5q-219 0 -333.5 193t-114.5 568h-183v-742h-94zM507 728q0 -328 88.5 -496.5t256.5 -168.5q334 0 334 665v99q0 280 -91 443 t-243 163q-158 0 -251.5 -161.5t-93.5 -444.5v-99z" />
<glyph unicode="&#x42f;" horiz-adv-x="959" d="M118 0q9 92 9 249q0 81 3 135t11 102.5t21 79.5t36.5 61t53.5 52t75 48q-51 25 -86 53t-57.5 58.5t-35 72.5t-17 87t-4.5 109q0 119 41 206t121.5 135t193.5 48h308v-1496h-93v671q-91 25 -218 25q-130 0 -189 -98h2q-64 -103 -64 -364q0 -74 -3.5 -132t-10.5 -102h-97z M229 1101q0 -342 251 -342q139 0 218 19v634h-220q-133 0 -191 -72t-58 -239z" />
<glyph unicode="&#x430;" horiz-adv-x="852" d="M114 273q0 164 83.5 259t239.5 95h150v178q0 217 -168 217q-73 0 -120 -50.5t-53 -134.5h-84q4 124 65 181.5t183 57.5q78 0 130 -17.5t82.5 -56.5t43 -94t12.5 -137v-644q0 -76 8 -127h-73q-10 60 -13 143h-13q-21 -81 -91 -125.5t-161 -44.5q-69 0 -119 37.5t-76 105 t-26 157.5zM205 293q0 -100 46 -166t118 -66q218 0 218 349v154h-138q-114 0 -179 -74t-65 -197z" />
<glyph unicode="&#x431;" horiz-adv-x="918" d="M118 632v134q0 681 314 681h69q129 0 216 61v-77q-23 -23 -65 -47h2q-60 -20 -187 -20q-262 0 -262 -510l12 -15q28 88 101 147.5t158 59.5q307 0 307 -480v-82q0 -111 -23 -205t-65.5 -161t-105 -105t-137.5 -38q-334 0 -334 657zM205 526q0 -470 247 -470 q111 0 174.5 118t63.5 310v82q0 403 -227 403q-258 0 -258 -443z" />
<glyph unicode="&#x432;" horiz-adv-x="881" d="M152 0v1069h311q254 0 254 -264q0 -89 -38 -142t-132 -99q197 -83 197 -291q0 -147 -58.5 -210t-194.5 -63h-339zM244 61h239q86 0 127.5 50t41.5 163q0 256 -196 256h-212v-469zM244 588h208q79 0 127 61.5t48 156.5q0 204 -171 204h-212v-422z" />
<glyph unicode="&#x433;" horiz-adv-x="632" d="M156 0v1056h400v-87h-312v-969h-88z" />
<glyph unicode="&#x434;" horiz-adv-x="903" d="M46 78q144 0 144 305v673h515v-978h101v-358h-74q12 72 12 280h-637q0 -196 11 -280h-72v358zM171 78h442v901h-339v-608q0 -175 -103 -293z" />
<glyph unicode="&#x435;" horiz-adv-x="864" d="M117 507q0 564 317 564q142 0 218 -113.5t76 -325.5q0 -95 -54 -95h-469v-112q0 -368 232 -368q82 0 136 63t66 162h79q-7 -135 -82 -216t-194 -81q-325 0 -325 522zM205 600h434v67q0 154 -55 245t-147 91q-103 0 -167.5 -105t-64.5 -298z" />
<glyph unicode="&#x436;" horiz-adv-x="1289" d="M122 0q22 98 22 223q0 121 49 206t133 132q-47 47 -69.5 109.5t-22.5 114.5v69q0 139 -87 139h-13q-3 14 -2.5 37.5t-2.5 35.5q22 5 56 5q44 0 69 -20t38 -73.5t13 -150.5q0 -138 30.5 -189t113.5 -51q59 0 138 15v454h86v-454q79 -15 137 -15q82 0 113 51.5t31 188.5 q0 99 14 154t36.5 72.5t61.5 17.5q45 0 69 -7v-71h-10q-50 0 -74 -31.5t-24 -107.5v-69q0 -33 -8.5 -69.5t-31 -79.5t-55.5 -75q51 -24 96.5 -62t62.5 -74q15 -41 21 -125t11 -172t14 -128h-91q-19 100 -19 225q0 301 -205 301q-54 0 -149 -19v-507h-86v507q-88 19 -147 19 q-208 0 -208 -301q0 -148 -19 -225h-91z" />
<glyph unicode="&#x437;" horiz-adv-x="816" d="M114 303h86q8 -254 181 -254q105 0 154 56v-2q50 64 50 187q0 101 -50 168.5t-125 67.5q-63 0 -83 -4v61q25 -2 83 -2q75 0 118 59.5t43 161.5q0 210 -178 210q-175 0 -183 -221h-73q7 129 75.5 207t182.5 78q122 0 189.5 -64t67.5 -192q0 -77 -38.5 -148.5t-96.5 -112.5 v-14q46 -20 82.5 -60.5t57.5 -97.5t21 -121q0 -141 -77 -217t-220 -76q-255 0 -267 330z" />
<glyph unicode="&#x438;" horiz-adv-x="948" d="M156 0v1056h84v-970l429 970h100v-1056h-85v981l-425 -981h-103z" />
<glyph unicode="&#x439;" horiz-adv-x="948" d="M156 0v1056h90v-949l38 101q179 398 385 848h100v-1056h-91v942l-38 -98l-381 -844h-103zM259 1435h61q11 -162 145 -162q45 0 76 18t48.5 53.5t22.5 90.5h57q-5 -64 -30 -111.5t-69.5 -74t-104.5 -26.5q-61 0 -107 25.5t-71 73t-28 113.5z" />
<glyph unicode="&#x43a;" horiz-adv-x="881" d="M162 0v1056h89v-456q70 -17 144 -17q156 0 156 244q0 97 14 152t36.5 73.5t59.5 18.5q42 0 66 -7v-71h-12q-31 0 -51 -14.5t-30.5 -45.5t-10.5 -79v-69q0 -103 -76 -224q53 -27 87 -64.5t49 -77.5t22 -94t7.5 -101t5 -110.5t14.5 -113.5h-92q-17 92 -17 225 q0 155 -48 225t-160 70q-72 0 -164 -17v-503h-89z" />
<glyph unicode="&#x43b;" horiz-adv-x="903" d="M46 -4v72q13 -3 45 -3q111 0 111 284v707h526v-1056h-89v979h-351v-588q0 -406 -171 -406q-22 0 -71 11z" />
<glyph unicode="&#x43c;" horiz-adv-x="1182" d="M88 0v1056h169l280 -995h19l283 995h169v-1056h-78v1027l-40 -5l-294 -1022h-96l-295 1022l-36 3v-1025h-81z" />
<glyph unicode="&#x43d;" horiz-adv-x="930" d="M156 0v1056h90v-454h417v454h91v-1056h-91v522h-417v-522h-90z" />
<glyph unicode="&#x43e;" horiz-adv-x="920" d="M114 495v66q0 510 335 510q336 0 336 -510v-66q0 -510 -336 -510q-335 0 -335 510zM204 495q0 -204 65.5 -319t179.5 -115q117 0 182 112t65 322v66q0 102 -16.5 182.5t-47.5 136t-77.5 84.5t-105.5 29q-117 0 -181 -115t-64 -317v-66z" />
<glyph unicode="&#x43f;" horiz-adv-x="915" d="M152 0v1056h590v-1056h-90v968h-408v-968h-92z" />
<glyph unicode="&#x440;" horiz-adv-x="938" d="M149 1066h81q6 -91 6 -132l10 -36q41 84 114.5 135t147.5 51q300 0 300 -552q0 -545 -293 -545q-80 0 -158.5 48t-102.5 123l-10 -24v-529h-92v1268q0 133 -3 193zM236 520q0 -132 32.5 -242t91 -174t131.5 -64q101 0 163.5 128.5t62.5 351.5q0 509 -237 509 q-111 0 -177.5 -136t-66.5 -373z" />
<glyph unicode="&#x441;" horiz-adv-x="813" d="M117 532q0 539 298 539q76 0 135 -38t92 -104t36 -150h-82q-9 104 -59 160.5t-122 56.5q-95 0 -151 -122.5t-56 -341.5q0 -475 207 -475q73 0 121 70t60 176h82q-5 -147 -74.5 -232.5t-188.5 -85.5q-71 0 -127 37t-93.5 107.5t-57.5 172.5t-20 230z" />
<glyph unicode="&#x442;" horiz-adv-x="725" d="M61 968v88h591v-88h-252v-968h-91v968h-248z" />
<glyph unicode="&#x443;" horiz-adv-x="837" d="M76 1066h86l238 -932h22q143 533 239 932h86q-70 -254 -199.5 -736t-195.5 -725h-79l95 365q-34 127 -93.5 346.5t-108.5 403.5t-90 346z" />
<glyph unicode="&#x444;" horiz-adv-x="1357" d="M107 526q0 253 66 389.5t191 136.5q89 0 155.5 -43.5t103.5 -120.5v586h84v-586q45 84 106 124t151 40q254 0 254 -526q0 -522 -254 -522q-82 0 -151 43.5t-106 133.5v-576h-84v576q-12 -38 -33 -69t-47 -50.5t-57 -33t-61 -19t-61 -5.5q-257 0 -257 522zM200 526 q0 -210 57 -337.5t153 -127.5q45 0 82 25.5t60 68.5t39.5 92t24.5 104.5t11 97t3 78t-1.5 72.5t-7.5 84t-15 89.5t-26 84t-39.5 72t-56 48t-74.5 18.5q-210 0 -210 -469zM700 526q0 -38 3.5 -80.5t11.5 -98t24 -104t39 -90.5t59 -67t81 -25q39 0 71 20t52.5 51t36.5 75 t24.5 86t14 89.5t7 80t1.5 63.5q0 469 -207 469q-42 1 -76 -18.5t-56.5 -50t-39 -74.5t-25 -85.5t-14 -90.5t-6.5 -82t-1 -68z" />
<glyph unicode="&#x445;" horiz-adv-x="822" d="M86 0l275 552l-249 504h88l200 -436l210 436h86l-248 -504l269 -552h-92l-225 478l-219 -478h-95z" />
<glyph unicode="&#x446;" horiz-adv-x="930" d="M152 0v1056h88v-978h406v978h93v-978h100v-360h-75q7 58 7 282h-619z" />
<glyph unicode="&#x447;" horiz-adv-x="816" d="M114 747v309h82v-287q0 -130 43 -186.5t142 -56.5q95 0 170 38v492h91v-1056h-91v526q-84 -59 -197 -59q-143 0 -198 77l2 -3q-44 74 -44 206z" />
<glyph unicode="&#x448;" horiz-adv-x="1251" d="M151 0v1056h85v-978h333v978h85v-978h331v978h86v-1056h-920z" />
<glyph unicode="&#x449;" horiz-adv-x="1266" d="M151 0v1056h85v-978h332v978h86v-978h329v978h88v-978h99v-360h-72q11 65 11 282h-958z" />
<glyph unicode="&#x44a;" horiz-adv-x="920" d="M71 976v80h247v-471q106 32 204 32q127 0 197 -83.5t70 -236.5q0 -297 -279 -297h-280v976h-159zM318 78h197q183 0 183 225q0 238 -178 238q-83 0 -202 -38v-425z" />
<glyph unicode="&#x44b;" horiz-adv-x="1108" d="M151 0v1056h93v-468q91 29 198 29q256 0 256 -312q0 -141 -66.5 -223t-182.5 -82h-298zM244 73h204q160 0 160 228q0 132 -39 186t-135 54q-87 0 -190 -33v-435zM839 0v1056h93v-1056h-93z" />
<glyph unicode="&#x44c;" horiz-adv-x="847" d="M152 0v1056h94v-469q88 30 198 30q131 0 202 -83t71 -237q0 -297 -280 -297h-285zM246 78h193q93 0 138.5 56t45.5 169q0 241 -181 241q-83 0 -196 -43v-423z" />
<glyph unicode="&#x44d;" horiz-adv-x="813" d="M114 303h86q8 -246 195 -246q101 0 145.5 108t44.5 355h-248v67h248q0 409 -190 409q-57 0 -100 -24.5t-67.5 -70t-27.5 -106.5h-86q5 127 80 201.5t201 74.5q283 0 283 -486v-63q0 -284 -66.5 -410.5t-216.5 -126.5q-274 0 -281 318z" />
<glyph unicode="&#x44e;" horiz-adv-x="1198" d="M149 0v1056h90v-469h167q0 240 86 362t240 122q167 0 244.5 -129t77.5 -414q0 -543 -322 -543q-326 0 -326 537h-167v-522h-90zM493 528q0 -471 239 -471q234 0 234 471q0 248 -54.5 358t-179.5 110q-239 0 -239 -468z" />
<glyph unicode="&#x44f;" horiz-adv-x="869" d="M143 0q2 13 3 33t1 36v52.5v57.5q0 231 144 307q-144 93 -144 283q0 133 67 210t181 77h301v-1056h-91v457q-60 10 -163 10q-208 0 -208 -307q0 -110 -11 -160h-80zM234 769q0 -249 206 -249q95 0 165 25v450h-197q-174 0 -174 -226z" />
<glyph unicode="&#x451;" horiz-adv-x="864" d="M120 501q0 568 314 568q93 0 159 -52.5t101.5 -152.5t35.5 -239q0 -95 -32 -95h-488v-108q0 -176 61.5 -274.5t165.5 -98.5q79 0 134.5 65t67.5 168h79q-7 -138 -82.5 -223.5t-193.5 -85.5q-322 0 -322 528zM210 591h429v68q0 158 -55 247.5t-147 89.5q-103 0 -163 -100 h2q-66 -107 -66 -305zM240 1227v147h86v-147h-86zM522 1227v147h88v-147h-88z" />
<glyph unicode="&#x10a0;" horiz-adv-x="967" d="M132 484q0 185 100 338l69 -39q-91 -127 -91 -299q0 -247 91 -352q90 -105 192 -105q97 0 181 100q85 104 85 359q0 283 -188 522q-186 237 -186 547h82q0 -290 185 -515t185 -554q0 -263 -103 -398q-99 -132 -241 -132q-153 0 -259 135q-102 136 -102 393z" />
<glyph unicode="&#x10a1;" horiz-adv-x="967" d="M132 491q0 242 80 370.5t255 150.5q80 211 -44 322q-122 109 -130 228h105q0 -120 109 -215q108 -94 37 -335q293 -76 293 -521q0 -251 -100 -394q-99 -141 -253 -141q-159 0 -255.5 141t-96.5 394zM210 488q0 -238 83 -349q85 -112 190 -112q276 0 276 461 q0 429 -276 463q-130 -10 -201.5 -126.5t-71.5 -336.5z" />
<glyph unicode="&#x10a2;" horiz-adv-x="1068" d="M132 498q0 204 114 359q116 156 282 156h24q161 169 161 288q0 98 -57.5 154t-142.5 56q-95 0 -150.5 -50.5t-55.5 -145.5q0 -48 19 -110l-67 -2q-20 57 -20 106q0 120 74 194.5t200 74.5q127 0 195 -82q70 -84 70 -195q0 -130 -149 -295q140 -54 224 -184.5t84 -323.5 q0 -216 -117 -380q-116 -162 -296 -162q-174 0 -284 161q-108 159 -108 381zM210 498q0 -226 93 -347q95 -124 223 -124q157 0 245 135q90 137 90 339q0 184 -95 321q-94 139 -238 139q-141 0 -228 -134q-90 -134 -90 -329z" />
<glyph unicode="&#x10a3;" horiz-adv-x="1499" d="M132 1098q0 198 85 339q85 139 269 142q149 -3 246 -209q117 208 286 208q148 0 249 -138q102 -139 102 -392q0 -236 -104 -387q-99 -148 -247 -148q-155 0 -256 144q-101 148 -101 395q0 151 42 253q-89 207 -219 210q-131 -4 -202.5 -115.5t-71.5 -301.5 q0 -309 120 -505q123 -197 290 -273q385 -146 476 -350h-128q-22 117 -136 181q-110 62 -186 59q-177 -20 -349 -93v119l290 21v6q-189 73 -324 293q-131 220 -131 542zM747 1052q0 -263 80 -366t196 -103q83 0 172 101q89 103 89 362q0 112 -18.5 200.5t-52 146t-81 88 t-105.5 30.5q-62 0 -112 -26.5t-88 -80t-59 -143.5t-21 -209z" />
<glyph unicode="&#x10a4;" horiz-adv-x="990" d="M120 356q0 158 80 315h78q-78 -148 -78 -315q0 -192 91 -260.5t182 -68.5q97 0 186 73q88 71 88 262v851q0 191 -76 244q-72 54 -161 54q-54 0 -96.5 -16t-73 -47.5t-46.5 -82.5t-16 -118q0 -84 39 -199h-71q-50 83 -50 199q0 146 85 238.5t226 92.5q145 0 232.5 -92 t87.5 -273v-851q0 -197 -109 -303q-109 -103 -245 -103q-141 0 -246 110q-107 112 -107 290z" />
<glyph unicode="&#x10a5;" horiz-adv-x="957" d="M120 361q0 100 55 226h73q-48 -157 -48 -226q0 -168 84 -252q82 -82 189 -82q83 0 145 38t95.5 109.5t33.5 166.5v147q0 194 -73 266.5t-148 72.5h-116v69h118q70 0 143 93q76 93 76 234q0 136 -76.5 212t-190.5 76q-92 0 -162 -71q-70 -66 -70 -178q0 -68 30 -157h-74 q-38 69 -38 154q0 128 90 224q89 95 222 95q110 0 189 -45t119.5 -125t40.5 -186q0 -212 -200 -351v-19q200 -80 200 -374v-137q0 -165 -87.5 -275t-266.5 -110q-151 0 -252 112q-101 114 -101 293z" />
<glyph unicode="&#x10a6;" horiz-adv-x="1013" d="M88 1271q0 122 74 213q76 94 221 94t222 -97q78 -99 78 -225q0 -91 -33.5 -150t-95.5 -101q121 -15 224 -144q105 -127 105 -375q0 -267 -107 -400q-107 -130 -263 -130q-152 0 -262 132q-108 133 -108 398q0 58 5.5 109.5t18.5 104t34.5 96.5t55.5 84t78 69 q-82 14 -167 88q-80 74 -80 234zM166 1267q0 -125 70 -196q72 -68 149 -68q103 0 160 65t57 180q0 136 -59 199.5t-158 63.5q-97 0 -158 -60.5t-61 -183.5zM225 486q0 -129 23 -219t69 -140q95 -100 196 -100q96 0 192 100q95 100 95 359q0 231 -90 354q-88 121 -197 121 q-118 0 -204 -126q-84 -126 -84 -349z" />
<glyph unicode="&#x10a7;" horiz-adv-x="1479" d="M132 713q0 548 97 705q99 160 257 160q94 0 169 -59.5t116 -171.5q46 128 109.5 179.5t154.5 51.5q144 0 229 -151t85 -564q0 -318 -64.5 -545.5t-193.5 -363.5h-96q276 279 276 909q0 419 -80 533q-77 115 -152 115q-63 0 -106 -21t-76.5 -68.5t-65.5 -133.5 q46 -154 46 -581q0 -414 -100 -583q-97 -168 -251 -168q-158 0 -257 170q-97 171 -97 587zM210 713q0 -404 76 -545q78 -141 197 -141q116 0 193 131q79 139 83 555q-4 601 -86 699q-83 99 -190 99q-126 0 -201 -130q-72 -129 -72 -668z" />
<glyph unicode="&#x10a8;" horiz-adv-x="967" d="M132 810q0 467 102 617q106 151 254 151q140 0 244 -153q105 -149 105 -615q0 -550 -178 -852h-103q203 209 203 879q0 425 -86 550q-84 124 -185 124q-107 0 -193 -124q-85 -125 -85 -548q0 -674 205 -883h-108q-175 298 -175 854z" />
<glyph unicode="&#x10a9;" horiz-adv-x="935" d="M100 369q0 150 58 226l57 -19q-37 -100 -37 -207q0 -185 93 -264q96 -78 181 -78q81 0 177 70q98 72 98 252v139q0 167 -102 264q-99 98 -185 98h-149v70h151q87 0 171 67q85 69 85 179q0 227 -220 330l20 70q268 -106 268 -392q0 -97 -42 -161q-44 -63 -170 -122v-20 q111 -29 181 -136t70 -244v-142q0 -176 -107 -286q-107 -107 -246 -107q-142 0 -248 109q-104 110 -104 304z" />
<glyph unicode="&#x10aa;" horiz-adv-x="1893" d="M132 1130q0 171 73 300q75 129 244 129q66 0 114.5 -24t85.5 -77t64 -141h2q19 95 52.5 153.5t79.5 83t112 24.5q65 0 108 -25t72 -82t48 -154h11q45 242 250 242q314 0 314 -400q0 -381 -232 -608h-78q231 254 231 608q0 333 -235 333q-103 0 -162 -99q-59 -97 -59 -221 v-265h-66v267q0 158 -59 247.5t-143 89.5q-85 0 -147 -98q-63 -98 -63 -220v-286h-66v286q0 101 -60 200q-57 99 -174 99q-77 0 -159 -87q-80 -88 -80 -277q0 -380 229 -600q230 -219 522 -259q263 -60 388 -286h-124q-19 144 -303 225q-115 11 -195 -3q-92 -15 -300 -100 l-15 105l308 44v19q-230 72 -411 288q-177 216 -177 569z" />
<glyph unicode="&#x10ab;" horiz-adv-x="1001" d="M132 478q0 221 95 379q94 156 268 156q165 0 259 -186h8v391q1 144 -64 218.5t-181 74.5q-114 0 -176.5 -52t-62.5 -150q0 -49 10 -106l-75 -17q-17 52 -17 127q0 118 87 191.5t237 73.5q155 0 236 -98.5t81 -286.5v-749q0 -148 -42.5 -258t-123 -170t-188.5 -60 q-153 0 -253 151q-98 149 -98 371zM213 480q0 -208 78 -333q77 -120 187.5 -120t194.5 105q88 105 88 308q0 287 -75 395q-75 107 -193 107q-125 0 -202.5 -116.5t-77.5 -345.5z" />
<glyph unicode="&#x10ac;" horiz-adv-x="1001" d="M164 483v801q0 234 319 234h105q125 0 125 61h104q0 -127 -229 -127h-134q-215 0 -215 -168v-457h10q85 186 266 186q183 0 268 -152q88 -150 88 -378q0 -235 -97 -380q-99 -147 -259 -147q-163 0 -257 139t-94 388zM240 483q0 -219 72.5 -337.5t209.5 -118.5 q124 0 196.5 117.5t72.5 338.5q0 228 -81 342q-76 117 -184 117q-66 0 -118.5 -27.5t-90 -82.5t-57.5 -143t-20 -206z" />
<glyph unicode="&#x10ad;" horiz-adv-x="1428" d="M132 846q0 459 102 594q104 138 220 138q178 0 251 -267h17q34 128 98 197.5t154 69.5q125 0 224 -138q100 -135 100 -596q0 -634 -315 -883h-116q355 254 355 889q0 434 -78 546q-78 115 -168 115q-102 0 -164.5 -101.5t-62.5 -267.5v-546h-71v546q0 166 -61.5 267.5 t-160.5 101.5q-92 0 -170 -113q-76 -109 -76 -552q0 -627 320 -885h-107q-291 252 -291 885z" />
<glyph unicode="&#x10ae;" horiz-adv-x="957" d="M120 376q0 120 49 244l63 -37q-32 -99 -32 -207q0 -160 88 -254q89 -95 188 -95q101 0 185 97q86 99 86 282q0 188 -101 292q-98 104 -183 104h-78v69h78q88 0 154.5 63t66.5 166q0 149 -211 203q-212 58 -212 271h90q0 -176 201 -230q204 -55 204 -254q0 -176 -192 -243 v-25q131 -43 197 -154t66 -264q0 -180 -97 -314q-94 -134 -254 -134q-151 0 -255 124q-101 128 -101 296z" />
<glyph unicode="&#x10af;" horiz-adv-x="1001" d="M132 339q0 187 81 284l46 -52q-49 -85 -49 -230q0 -162 90 -240q91 -74 188 -74q94 0 183 85q90 90 90 276v1113h-19q-185 -66 -430 -96v-18q249 -60 249 -261q0 -123 -63.5 -193t-185.5 -70h-119v91l119 -9q96 1 137.5 42t41.5 150q0 92 -89 154q-87 66 -206 66v91 q342 32 575 128h66v-1185q0 -221 -107 -328t-242 -107q-127 0 -242 101q-114 103 -114 282z" />
<glyph unicode="&#x10b0;" horiz-adv-x="1420" d="M134 588q-3 181 44 327q48 142 195 339q148 201 500 299v-89q-395 -89 -593 -452l72 49q60 39 113 39q102 0 156 -55.5t89 -185.5h20q29 125 88 183t151 58q321 0 321 -512q0 -386 -292 -617h-100q314 260 314 617q0 254 -72 349q-72 98 -171 98q-83 0 -152 -98 q-66 -95 -66 -203v-339h-63v339q0 109 -65 203q-66 98 -164 98q-92 0 -169 -100q-77 -98 -77 -347q0 -354 309 -627h-100q-288 240 -288 627z" />
<glyph unicode="&#x10b1;" horiz-adv-x="1001" d="M164 480v1081h76v-1081q0 -113 21 -201.5t59 -142.5t87.5 -81.5t107.5 -27.5q109 0 193 85q83 87 83 307q0 164 -124 308q-122 144 -122 241q0 110 38 221h91q-62 -110 -62 -208q0 -84 129.5 -224.5t129.5 -337.5q0 -209 -93 -336q-94 -127 -263 -127q-163 0 -258 144 q-93 143 -93 380z" />
<glyph unicode="&#x10b2;" horiz-adv-x="1191" d="M132 718q0 341 134 521q138 181 319 181l-31 175h93l-30 -175q170 0 307 -181q137 -180 137 -521q0 -349 -119 -556q-121 -206 -346 -206q-201 0 -332.5 205.5t-131.5 556.5zM210 718q0 -348 124 -520q123 -171 268 -171q161 0 271 171q112 174 112 520q0 302 -104 469 q-107 170 -264 189l30 -720h-93l31 720q-165 -19 -270 -187q-105 -167 -105 -471z" />
<glyph unicode="&#x10b3;" horiz-adv-x="1020" d="M44 1456v105l99 -43q32 0 69 29q36 31 79 31q103 0 151 -208q54 208 185 208q109 0 169.5 -78t60.5 -223v-908q0 -194 -98.5 -303.5t-267.5 -109.5q-152 0 -255 110q-102 111 -102 310q0 188 89 346h70q-80 -176 -80 -341q0 -188 82 -271q84 -83 196 -83q117 0 202 74 q86 77 86 282v926q0 135 -40 172q-36 36 -110 36q-89 0 -121 -82q-30 -75 -30 -162v-295h-66v295q0 86 -31 164q-32 80 -90 80q-39 0 -72 -31q-30 -30 -85 -30h-90z" />
<glyph unicode="&#x10b4;" horiz-adv-x="1506" d="M132 1098q0 189 93 333q95 147 268 147q177 0 276 -194q95 194 292 194q145 0 229 -116q86 -115 86 -290q0 -303 -212 -442v-12q200 -106 200 -269v-87q0 -89 -31 -163.5t-90.5 -128.5t-150.5 -84t-206 -30q-218 0 -345.5 98t-127.5 273v54h95l-1 -54 q-5 -153 93.5 -226.5t282.5 -73.5q129 0 214.5 34t131 109t45.5 192v82q-8 99 -73 171q-67 75 -132 75h-103v69h107q64 0 137 122q76 121 76 291q0 158 -66 248.5t-166 90.5q-168 0 -256 -200q39 -134 39 -211q0 -218 -95 -365q-94 -144 -258 -144q-147 0 -250 143 q-102 146 -102 364zM210 1096q0 -230 80 -330q83 -99 194 -99q112 0 192 95q83 93 83 334q0 188 -78 300q-78 115 -187.5 115t-198.5 -103q-85 -103 -85 -312z" />
<glyph unicode="&#x10b5;" horiz-adv-x="990" d="M120 327q0 118 70 225l50 -49q-40 -76 -40 -176q0 -134 82 -217q84 -83 191 -83q103 0 188 83q88 83 88 252v541q3 80 -71 193q-73 115 -200 112q-65 1 -110 -26.5t-67.5 -79t-22.5 -124.5q0 -85 25 -151l-69 -10q-32 60 -32 161q-1 66 18 121t54.5 94t87.5 60t116 21 q154 0 264 -191h9v405h-219v74h295v-1200q0 -186 -100 -297q-100 -109 -254 -109q-140 0 -246 103q-107 104 -107 268z" />
<glyph unicode="&#x10b6;" horiz-adv-x="1428" d="M132 1090q0 224 85 356t231 132q49 0 89.5 -17.5t72.5 -51.5t56.5 -79t43.5 -104h12q42 124 101.5 188t154.5 64q163 0 242 -130q78 -130 78 -311q0 -331 -204 -568h-86q214 208 214 561q0 193 -77 288q-73 93 -167 93q-104 0 -166 -93q-63 -96 -63 -215v-229h-66v229 q0 119 -63 215q-62 93 -172 93q-106 0 -172 -107t-66 -314q0 -474 388 -745q324 -136 408 -360h-123q-66 224 -263 261q-225 -19 -332 -129l-48 85q137 73 311 76v19q-419 292 -419 793z" />
<glyph unicode="&#x10b7;" horiz-adv-x="990" d="M120 351q0 92 42 194l72 -32q-34 -93 -34 -162q0 -157 82 -241q84 -83 191 -83q59 0 108.5 20t87 59t59 102t21.5 144v492h-10q-129 -137 -255 -137q-153 0 -240.5 107t-87.5 287q0 121 46 229q49 107 183 249h84q-169 -191 -203 -285q-30 -86 -30 -194q0 -178 76 -254 q79 -75 172 -75q103 0 183 83q82 82 82 225v487h78v-1214q0 -178 -99 -287q-98 -109 -255 -109q-134 0 -244 101q-109 102 -109 294z" />
<glyph unicode="&#x10b8;" horiz-adv-x="981" d="M88 1257v63q0 123 48.5 190.5t129.5 67.5q115 0 173 -165h9q60 165 164 165q107 0 154 -82q51 -84 51 -191v-819q0 -269 -102 -400q-101 -130 -252 -130q-163 0 -258 151q-93 148 -93 379q0 248 92.5 387.5t258.5 139.5q159 0 265 -186h14v482q0 97 -39.5 153t-92.5 56 q-54 0 -97 -68q-42 -64 -42 -145v-133h-58v133q0 79 -32 145q-33 70 -112 67q-111 0 -111 -204v-56h-70zM190 486q0 -233 71 -346t195 -113q114 0 200 100t86 359q0 230 -74.5 343t-211.5 113q-121 0 -193.5 -121t-72.5 -335z" />
<glyph unicode="&#x10b9;" horiz-adv-x="1001" d="M164 -46v1224q0 188 68.5 294t204.5 106q80 0 137.5 -35.5t84.5 -93.5t27 -132q0 -91 -51 -168h-61q34 74 34 168q0 107 -45.5 150.5t-130.5 43.5q-67 0 -108 -31t-63 -107t-22 -203v-341h12q110 184 266 184q167 0 261 -122q93 -121 93 -300q0 -329 -258 -631h-100 q278 287 278 625q0 168 -77 262.5t-197 94.5q-103 0 -191 -105q-87 -106 -87 -241v-642h-75z" />
<glyph unicode="&#x10ba;" horiz-adv-x="1121" d="M132 815q0 423 171 740h88q-181 -310 -181 -742q0 -469 108 -628q110 -158 256 -158q138 0 238 124q99 122 99 356q0 209 -88 286q-90 78 -169 78h-117v64h117q58 0 141 58q86 58 86 171q0 73 -130 168q-128 95 -128 223h77q0 -120 127 -196t127 -198q0 -176 -210 -253 v-7q247 -77 247 -398q0 -254 -117.5 -400.5t-307.5 -146.5q-187 0 -310 188q-124 191 -124 671z" />
<glyph unicode="&#x10bb;" horiz-adv-x="1001" d="M132 484q0 254 94 391.5t257 137.5q164 0 259 -186h19v728h76v-1071q0 -227 -90 -379q-88 -149 -264 -149q-159 0 -255 140.5t-96 387.5zM210 484q0 -236 72.5 -346.5t200.5 -110.5q137 0 207.5 108t70.5 349q0 227 -73.5 342.5t-207.5 115.5q-133 0 -201.5 -116 t-68.5 -342z" />
<glyph unicode="&#x10bc;" horiz-adv-x="1022" d="M164 484v775q0 319 207 319q101 0 164 -165h6q59 165 174 165q52 0 92 -29.5t62 -88t22 -140.5v-107h-68v100q0 204 -110 204q-78 2 -111.5 -63t-33.5 -195v-43h-60v43q0 119 -40.5 189t-96.5 70q-49 0 -93 -49q-39 -47 -39 -207v-423h15q105 174 263 174 q112 0 192 -63.5t121 -182.5t41 -283q0 -232 -93 -379q-94 -149 -261 -149q-150 0 -252 127q-101 132 -101 401zM239 484q0 -127 21.5 -217t63.5 -140q86 -100 200 -100q126 0 196.5 112t70.5 345q0 216 -72 337t-195 121q-131 0 -209 -102q-76 -98 -76 -356z" />
<glyph unicode="&#x10bd;" horiz-adv-x="967" d="M132 309q0 129 30 177l70 -2q-22 -60 -22 -175q0 -152 85 -218q83 -64 189 -64q119 0 197 85.5t78 239.5q0 141 -120 366q-106 202 -113 426h-170q-74 0 -114 -56.5t-40 -136.5q0 -65 40 -122q40 -58 119 -58h76v-68h-76q-99 0 -163 70.5t-64 178.5q0 106 62 178 q67 75 160 75h168v283h-170v65h234v-348h195v-61h-195q8 -234 125 -429q124 -207 124 -363q0 -168 -98 -281q-98 -115 -255 -115q-160 0 -257 105q-95 107 -95 248z" />
<glyph unicode="&#x10be;" horiz-adv-x="1001" d="M164 488v1064h75v-730h15q111 191 263 191q177 0 264 -147q90 -152 90 -380q0 -236 -102 -385q-98 -145 -254 -145q-141 0 -246 134q-105 133 -105 398zM239 486q0 -241 85 -351q84 -108 198 -108q123 0 196 120t73 339q0 239 -67.5 347.5t-201.5 108.5q-131 0 -207 -123 t-76 -333z" />
<glyph unicode="&#x10bf;" horiz-adv-x="887" d="M100 39q258 16 387 93t130 217q6 108 -101 161t-326 49l-47 43l265 406l-307 170l50 44l293 -161l95 149q80 110 42 195q-38 87 -114 95q-71 0 -130 -48l-57 40q74 67 189 67q130 -15 173 -128q43 -115 -30 -242l-111 -156l299 -162l-38 -51l-291 154l-223 -345 q435 -8 443 -278q0 -346 -591 -397v85z" />
<glyph unicode="&#x10c0;" horiz-adv-x="967" d="M132 345q0 93 47 183l61 -48q-30 -34 -30 -139q3 -126 85 -219q84 -95 189 -95q107 0 190 83q85 85 85 251q0 300 -407 384v84q144 -26 233 -84q40 -25 89 16q53 44 53 127q0 153 -376 219v79q118 -14 203 -52q44 -18 90 21q46 37 46 110q0 92 -190.5 143t-190.5 158h87 q0 -75 185 -119q185 -43 185 -185q0 -106 -119 -164q155 -100 155 -224q0 -117 -129 -184q164 -131 164 -326q0 -190 -93.5 -299t-259.5 -109q-185 3 -269 134q-83 131 -83 255z" />
<glyph unicode="&#x10c1;" horiz-adv-x="967" d="M132 398v568q0 360 114 581h80q-121 -176 -121 -586v-565q0 -175 79 -272t231 -97q112 0 178 56.5t66 141.5q0 158 -229 158h-73v69h73q217 0 217 139q0 141 -227 141h-63v70h63q219 0 219 143q0 138 -231 138h-51v66h51q220 0 220 149q0 79 -89 137q-73 58 -73 112h78 q0 -54 78 -114q83 -57 83 -130q0 -137 -138 -186q148 -48 148 -172q0 -127 -148 -181q156 -48 156 -169q0 -125 -147 -180q161 -51 161 -185q0 -154 -105 -213q-106 -61 -217 -61q-195 0 -289 114t-94 328z" />
<glyph unicode="&#x10c2;" horiz-adv-x="967" d="M132 -22q87 0 283 110q-283 261 -283 820q0 377 102 523q104 147 249 147t249 -147q105 -145 105 -523q0 -560 -283 -820q197 -110 283 -110v-112q-22 0 -351 183q-327 -178 -352 -178h-2v107zM208 911q0 -282 68.5 -478t206.5 -306q279 208 279 781q0 324 -81 461 q-80 142 -198 142q-115 0 -195 -142q-80 -140 -80 -458z" />
<glyph unicode="&#x10c3;" horiz-adv-x="969" d="M134 371q-3 129 45 264h78q-44 -166 -44 -264q0 -153 76.5 -248.5t194.5 -95.5q123 0 200 97q77 98 77 228v174q0 163 -95 252q-95 88 -182 88h-122v68h118q76 0 177 122q104 125 104 438h-513v-313h-79v378h670q0 -517 -280 -656v-12q280 -102 280 -365v-174 q0 -163 -105 -279q-102 -117 -250 -117q-138 0 -245 112q-105 110 -105 303z" />
<glyph unicode="&#x10c4;" horiz-adv-x="967" d="M132 364q0 159 46 246h73q-41 -113 -41 -246q0 -144 83 -242q84 -95 190 -95q113 0 193 80q83 82 83 286v56q0 181 -86 258q-86 78 -166 78h-124v81h124q79 0 166 98q89 100 86 509q-160 -214 -349 -214q-128 0 -203 89.5t-75 229.5h78q0 -69 24.5 -126.5t70.5 -91.5 t105 -34q197 0 346 252h81v-155q0 -498 -246 -593v-10q246 -84 246 -371v-56q0 -237 -109 -336q-111 -101 -245 -101q-140 0 -247 124q-104 123 -104 284z" />
<glyph unicode="&#x10c5;" horiz-adv-x="961" d="M132 309q0 154 95 260q94 105 318 105h216v227h-209q-113 0 -194 22t-130.5 65.5t-72.5 105.5t-23 146q0 151 92 244.5t254 93.5q161 0 260 -92.5t99 -260.5v-249h102v-75h-102v-227h102v-76h-102v-276q0 -178 -113 -274q-111 -92 -246 -92q-171 0 -259 105 q-87 105 -87 248zM210 309q0 -138 74 -210t194 -72q122 0 203 83q80 85 80 208v280h-217q-183 0 -260 -85q-74 -86 -74 -204zM210 1252q0 -153 80.5 -214.5t265.5 -61.5h205v261q0 112 -80 193q-79 81 -203 81q-120 0 -194 -65.5t-74 -193.5z" />
<glyph unicode="&#x10c6;" horiz-adv-x="1382" d="M109 810v312q0 99 18 180t55 144t98 97.5t143 34.5q68 0 115 -18.5t84.5 -61t73.5 -119.5q17 58 38 95t52 61t71 33.5t97 9.5q72 0 127 -19.5t91 -55t59 -88.5t32.5 -115t9.5 -139v-351q0 -102 -26 -183t-71 -131.5t-101.5 -76.5t-120.5 -26q-68 0 -115 33.5t-107 120.5 v-269q0 -69 -16.5 -118.5t-43.5 -79t-73.5 -47.5t-95 -24.5t-118.5 -8.5v71q46 1 82.5 7.5t70.5 21t56.5 37t36 58.5t13.5 83l3 871q0 121 -22 199.5t-72.5 120.5t-129.5 42q-53 0 -94 -22t-65.5 -58t-40.5 -87.5t-21.5 -103.5t-5.5 -112v-318q0 -82 19.5 -147.5t52 -106 t72 -62.5t83.5 -25v-76q-141 9 -227.5 121t-86.5 296zM732 810q0 -53 8.5 -100t22.5 -81.5t32.5 -63.5t39 -48.5t42.5 -32.5t41.5 -19t35.5 -6q63 0 108.5 27t71 76.5t37.5 111t12 136.5v339q0 362 -232 362q-34 0 -62.5 -6.5t-49.5 -17t-37.5 -28t-28 -35.5t-19.5 -44.5 t-12 -49t-6.5 -55.5t-3 -58.5t-0.5 -61.5v-345z" />
<glyph unicode="&#x10d0;" horiz-adv-x="967" d="M132 484q0 185 100 338l69 -39q-91 -127 -91 -299q0 -247 91 -352q90 -105 192 -105q97 0 181 100q85 104 85 359q0 283 -188 522q-186 237 -186 547h82q0 -290 185 -515t185 -554q0 -263 -103 -398q-99 -132 -241 -132q-153 0 -259 135q-102 136 -102 393z" />
<glyph unicode="&#x10d1;" horiz-adv-x="967" d="M132 491q0 242 80 370.5t255 150.5q80 211 -44 322q-122 109 -130 228h105q0 -120 109 -215q108 -94 37 -335q293 -76 293 -521q0 -251 -100 -394q-99 -141 -253 -141q-159 0 -255.5 141t-96.5 394zM210 488q0 -238 83 -349q85 -112 190 -112q276 0 276 461 q0 429 -276 463q-130 -10 -201.5 -126.5t-71.5 -336.5z" />
<glyph unicode="&#x10d2;" horiz-adv-x="1068" d="M132 498q0 204 114 359q116 156 282 156h24q161 169 161 288q0 98 -57.5 154t-142.5 56q-95 0 -150.5 -50.5t-55.5 -145.5q0 -48 19 -110l-67 -2q-20 57 -20 106q0 120 74 194.5t200 74.5q127 0 195 -82q70 -84 70 -195q0 -130 -149 -295q140 -54 224 -184.5t84 -323.5 q0 -216 -117 -380q-116 -162 -296 -162q-174 0 -284 161q-108 159 -108 381zM210 498q0 -226 93 -347q95 -124 223 -124q157 0 245 135q90 137 90 339q0 184 -95 321q-94 139 -238 139q-141 0 -228 -134q-90 -134 -90 -329z" />
<glyph unicode="&#x10d3;" horiz-adv-x="1499" d="M132 1098q0 198 85 339q85 139 269 142q149 -3 246 -209q117 208 286 208q148 0 249 -138q102 -139 102 -392q0 -236 -104 -387q-99 -148 -247 -148q-155 0 -256 144q-101 148 -101 395q0 151 42 253q-89 207 -219 210q-131 -4 -202.5 -115.5t-71.5 -301.5 q0 -309 120 -505q123 -197 290 -273q385 -146 476 -350h-128q-22 117 -136 181q-110 62 -186 59q-177 -20 -349 -93v119l290 21v6q-189 73 -324 293q-131 220 -131 542zM747 1052q0 -263 80 -366t196 -103q83 0 172 101q89 103 89 362q0 112 -18.5 200.5t-52 146t-81 88 t-105.5 30.5q-62 0 -112 -26.5t-88 -80t-59 -143.5t-21 -209z" />
<glyph unicode="&#x10d4;" horiz-adv-x="990" d="M120 356q0 158 80 315h78q-78 -148 -78 -315q0 -192 91 -260.5t182 -68.5q97 0 186 73q88 71 88 262v851q0 191 -76 244q-72 54 -161 54q-54 0 -96.5 -16t-73 -47.5t-46.5 -82.5t-16 -118q0 -84 39 -199h-71q-50 83 -50 199q0 146 85 238.5t226 92.5q145 0 232.5 -92 t87.5 -273v-851q0 -197 -109 -303q-109 -103 -245 -103q-141 0 -246 110q-107 112 -107 290z" />
<glyph unicode="&#x10d5;" horiz-adv-x="957" d="M120 361q0 100 55 226h73q-48 -157 -48 -226q0 -168 84 -252q82 -82 189 -82q83 0 145 38t95.5 109.5t33.5 166.5v147q0 194 -73 266.5t-148 72.5h-116v69h118q70 0 143 93q76 93 76 234q0 136 -76.5 212t-190.5 76q-92 0 -162 -71q-70 -66 -70 -178q0 -68 30 -157h-74 q-38 69 -38 154q0 128 90 224q89 95 222 95q110 0 189 -45t119.5 -125t40.5 -186q0 -212 -200 -351v-19q200 -80 200 -374v-137q0 -165 -87.5 -275t-266.5 -110q-151 0 -252 112q-101 114 -101 293z" />
<glyph unicode="&#x10d6;" horiz-adv-x="1013" d="M88 1271q0 122 74 213q76 94 221 94t222 -97q78 -99 78 -225q0 -91 -33.5 -150t-95.5 -101q121 -15 224 -144q105 -127 105 -375q0 -267 -107 -400q-107 -130 -263 -130q-152 0 -262 132q-108 133 -108 398q0 58 5.5 109.5t18.5 104t34.5 96.5t55.5 84t78 69 q-82 14 -167 88q-80 74 -80 234zM166 1267q0 -125 70 -196q72 -68 149 -68q103 0 160 65t57 180q0 136 -59 199.5t-158 63.5q-97 0 -158 -60.5t-61 -183.5zM225 486q0 -129 23 -219t69 -140q95 -100 196 -100q96 0 192 100q95 100 95 359q0 231 -90 354q-88 121 -197 121 q-118 0 -204 -126q-84 -126 -84 -349z" />
<glyph unicode="&#x10d7;" horiz-adv-x="1479" d="M132 713q0 548 97 705q99 160 257 160q94 0 169 -59.5t116 -171.5q46 128 109.5 179.5t154.5 51.5q144 0 229 -151t85 -564q0 -318 -64.5 -545.5t-193.5 -363.5h-96q276 279 276 909q0 419 -80 533q-77 115 -152 115q-63 0 -106 -21t-76.5 -68.5t-65.5 -133.5 q46 -154 46 -581q0 -414 -100 -583q-97 -168 -251 -168q-158 0 -257 170q-97 171 -97 587zM210 713q0 -404 76 -545q78 -141 197 -141q116 0 193 131q79 139 83 555q-4 601 -86 699q-83 99 -190 99q-126 0 -201 -130q-72 -129 -72 -668z" />
<glyph unicode="&#x10d8;" horiz-adv-x="967" d="M132 810q0 467 102 617q106 151 254 151q140 0 244 -153q105 -149 105 -615q0 -550 -178 -852h-103q203 209 203 879q0 425 -86 550q-84 124 -185 124q-107 0 -193 -124q-85 -125 -85 -548q0 -674 205 -883h-108q-175 298 -175 854z" />
<glyph unicode="&#x10d9;" horiz-adv-x="935" d="M100 369q0 150 58 226l57 -19q-37 -100 -37 -207q0 -185 93 -264q96 -78 181 -78q81 0 177 70q98 72 98 252v139q0 167 -102 264q-99 98 -185 98h-149v70h151q87 0 171 67q85 69 85 179q0 227 -220 330l20 70q268 -106 268 -392q0 -97 -42 -161q-44 -63 -170 -122v-20 q111 -29 181 -136t70 -244v-142q0 -176 -107 -286q-107 -107 -246 -107q-142 0 -248 109q-104 110 -104 304z" />
<glyph unicode="&#x10da;" horiz-adv-x="1893" d="M132 1130q0 171 73 300q75 129 244 129q66 0 114.5 -24t85.5 -77t64 -141h2q19 95 52.5 153.5t79.5 83t112 24.5q65 0 108 -25t72 -82t48 -154h11q45 242 250 242q314 0 314 -400q0 -381 -232 -608h-78q231 254 231 608q0 333 -235 333q-103 0 -162 -99q-59 -97 -59 -221 v-265h-66v267q0 158 -59 247.5t-143 89.5q-85 0 -147 -98q-63 -98 -63 -220v-286h-66v286q0 101 -60 200q-57 99 -174 99q-77 0 -159 -87q-80 -88 -80 -277q0 -380 229 -600q230 -219 522 -259q263 -60 388 -286h-124q-19 144 -303 225q-115 11 -195 -3q-92 -15 -300 -100 l-15 105l308 44v19q-230 72 -411 288q-177 216 -177 569z" />
<glyph unicode="&#x10db;" horiz-adv-x="1001" d="M132 478q0 221 95 379q94 156 268 156q165 0 259 -186h8v391q1 144 -64 218.5t-181 74.5q-114 0 -176.5 -52t-62.5 -150q0 -49 10 -106l-75 -17q-17 52 -17 127q0 118 87 191.5t237 73.5q155 0 236 -98.5t81 -286.5v-749q0 -148 -42.5 -258t-123 -170t-188.5 -60 q-153 0 -253 151q-98 149 -98 371zM213 480q0 -208 78 -333q77 -120 187.5 -120t194.5 105q88 105 88 308q0 287 -75 395q-75 107 -193 107q-125 0 -202.5 -116.5t-77.5 -345.5z" />
<glyph unicode="&#x10dc;" horiz-adv-x="1001" d="M164 483v801q0 234 319 234h105q125 0 125 61h104q0 -127 -229 -127h-134q-215 0 -215 -168v-457h10q85 186 266 186q183 0 268 -152q88 -150 88 -378q0 -235 -97 -380q-99 -147 -259 -147q-163 0 -257 139t-94 388zM240 483q0 -219 72.5 -337.5t209.5 -118.5 q124 0 196.5 117.5t72.5 338.5q0 228 -81 342q-76 117 -184 117q-66 0 -118.5 -27.5t-90 -82.5t-57.5 -143t-20 -206z" />
<glyph unicode="&#x10dd;" horiz-adv-x="1428" d="M132 846q0 459 102 594q104 138 220 138q178 0 251 -267h17q34 128 98 197.5t154 69.5q125 0 224 -138q100 -135 100 -596q0 -634 -315 -883h-116q355 254 355 889q0 434 -78 546q-78 115 -168 115q-102 0 -164.5 -101.5t-62.5 -267.5v-546h-71v546q0 166 -61.5 267.5 t-160.5 101.5q-92 0 -170 -113q-76 -109 -76 -552q0 -627 320 -885h-107q-291 252 -291 885z" />
<glyph unicode="&#x10de;" horiz-adv-x="957" d="M120 376q0 120 49 244l63 -37q-32 -99 -32 -207q0 -160 88 -254q89 -95 188 -95q101 0 185 97q86 99 86 282q0 188 -101 292q-98 104 -183 104h-78v69h78q88 0 154.5 63t66.5 166q0 149 -211 203q-212 58 -212 271h90q0 -176 201 -230q204 -55 204 -254q0 -176 -192 -243 v-25q131 -43 197 -154t66 -264q0 -180 -97 -314q-94 -134 -254 -134q-151 0 -255 124q-101 128 -101 296z" />
<glyph unicode="&#x10df;" horiz-adv-x="1001" d="M132 339q0 187 81 284l46 -52q-49 -85 -49 -230q0 -162 90 -240q91 -74 188 -74q94 0 183 85q90 90 90 276v1113h-19q-185 -66 -430 -96v-18q249 -60 249 -261q0 -123 -63.5 -193t-185.5 -70h-119v91l119 -9q96 1 137.5 42t41.5 150q0 92 -89 154q-87 66 -206 66v91 q342 32 575 128h66v-1185q0 -221 -107 -328t-242 -107q-127 0 -242 101q-114 103 -114 282z" />
<glyph unicode="&#x10e0;" horiz-adv-x="1420" d="M134 588q-3 181 44 327q48 142 195 339q148 201 500 299v-89q-395 -89 -593 -452l72 49q60 39 113 39q102 0 156 -55.5t89 -185.5h20q29 125 88 183t151 58q321 0 321 -512q0 -386 -292 -617h-100q314 260 314 617q0 254 -72 349q-72 98 -171 98q-83 0 -152 -98 q-66 -95 -66 -203v-339h-63v339q0 109 -65 203q-66 98 -164 98q-92 0 -169 -100q-77 -98 -77 -347q0 -354 309 -627h-100q-288 240 -288 627z" />
<glyph unicode="&#x10e1;" horiz-adv-x="1001" d="M164 480v1081h76v-1081q0 -113 21 -201.5t59 -142.5t87.5 -81.5t107.5 -27.5q109 0 193 85q83 87 83 307q0 164 -124 308q-122 144 -122 241q0 110 38 221h91q-62 -110 -62 -208q0 -84 129.5 -224.5t129.5 -337.5q0 -209 -93 -336q-94 -127 -263 -127q-163 0 -258 144 q-93 143 -93 380z" />
<glyph unicode="&#x10e2;" horiz-adv-x="1191" d="M132 718q0 341 134 521q138 181 319 181l-31 175h93l-30 -175q170 0 307 -181q137 -180 137 -521q0 -349 -119 -556q-121 -206 -346 -206q-201 0 -332.5 205.5t-131.5 556.5zM210 718q0 -348 124 -520q123 -171 268 -171q161 0 271 171q112 174 112 520q0 302 -104 469 q-107 170 -264 189l30 -720h-93l31 720q-165 -19 -270 -187q-105 -167 -105 -471z" />
<glyph unicode="&#x10e3;" horiz-adv-x="1020" d="M44 1456v105l99 -43q32 0 69 29q36 31 79 31q103 0 151 -208q54 208 185 208q109 0 169.5 -78t60.5 -223v-908q0 -194 -98.5 -303.5t-267.5 -109.5q-152 0 -255 110q-102 111 -102 310q0 188 89 346h70q-80 -176 -80 -341q0 -188 82 -271q84 -83 196 -83q117 0 202 74 q86 77 86 282v926q0 135 -40 172q-36 36 -110 36q-89 0 -121 -82q-30 -75 -30 -162v-295h-66v295q0 86 -31 164q-32 80 -90 80q-39 0 -72 -31q-30 -30 -85 -30h-90z" />
<glyph unicode="&#x10e4;" horiz-adv-x="1506" d="M132 1098q0 189 93 333q95 147 268 147q177 0 276 -194q95 194 292 194q145 0 229 -116q86 -115 86 -290q0 -303 -212 -442v-12q200 -106 200 -269v-87q0 -89 -31 -163.5t-90.5 -128.5t-150.5 -84t-206 -30q-218 0 -345.5 98t-127.5 273v54h95l-1 -54 q-5 -153 93.5 -226.5t282.5 -73.5q129 0 214.5 34t131 109t45.5 192v82q-8 99 -73 171q-67 75 -132 75h-103v69h107q64 0 137 122q76 121 76 291q0 158 -66 248.5t-166 90.5q-168 0 -256 -200q39 -134 39 -211q0 -218 -95 -365q-94 -144 -258 -144q-147 0 -250 143 q-102 146 -102 364zM210 1096q0 -230 80 -330q83 -99 194 -99q112 0 192 95q83 93 83 334q0 188 -78 300q-78 115 -187.5 115t-198.5 -103q-85 -103 -85 -312z" />
<glyph unicode="&#x10e5;" horiz-adv-x="990" d="M120 327q0 118 70 225l50 -49q-40 -76 -40 -176q0 -134 82 -217q84 -83 191 -83q103 0 188 83q88 83 88 252v541q3 80 -71 193q-73 115 -200 112q-65 1 -110 -26.5t-67.5 -79t-22.5 -124.5q0 -85 25 -151l-69 -10q-32 60 -32 161q-1 66 18 121t54.5 94t87.5 60t116 21 q154 0 264 -191h9v405h-219v74h295v-1200q0 -186 -100 -297q-100 -109 -254 -109q-140 0 -246 103q-107 104 -107 268z" />
<glyph unicode="&#x10e6;" horiz-adv-x="1428" d="M132 1090q0 224 85 356t231 132q49 0 89.5 -17.5t72.5 -51.5t56.5 -79t43.5 -104h12q42 124 101.5 188t154.5 64q163 0 242 -130q78 -130 78 -311q0 -331 -204 -568h-86q214 208 214 561q0 193 -77 288q-73 93 -167 93q-104 0 -166 -93q-63 -96 -63 -215v-229h-66v229 q0 119 -63 215q-62 93 -172 93q-106 0 -172 -107t-66 -314q0 -474 388 -745q324 -136 408 -360h-123q-66 224 -263 261q-225 -19 -332 -129l-48 85q137 73 311 76v19q-419 292 -419 793z" />
<glyph unicode="&#x10e7;" horiz-adv-x="990" d="M120 351q0 92 42 194l72 -32q-34 -93 -34 -162q0 -157 82 -241q84 -83 191 -83q59 0 108.5 20t87 59t59 102t21.5 144v492h-10q-129 -137 -255 -137q-153 0 -240.5 107t-87.5 287q0 121 46 229q49 107 183 249h84q-169 -191 -203 -285q-30 -86 -30 -194q0 -178 76 -254 q79 -75 172 -75q103 0 183 83q82 82 82 225v487h78v-1214q0 -178 -99 -287q-98 -109 -255 -109q-134 0 -244 101q-109 102 -109 294z" />
<glyph unicode="&#x10e8;" horiz-adv-x="981" d="M88 1257v63q0 123 48.5 190.5t129.5 67.5q115 0 173 -165h9q60 165 164 165q107 0 154 -82q51 -84 51 -191v-819q0 -269 -102 -400q-101 -130 -252 -130q-163 0 -258 151q-93 148 -93 379q0 248 92.5 387.5t258.5 139.5q159 0 265 -186h14v482q0 97 -39.5 153t-92.5 56 q-54 0 -97 -68q-42 -64 -42 -145v-133h-58v133q0 79 -32 145q-33 70 -112 67q-111 0 -111 -204v-56h-70zM190 486q0 -233 71 -346t195 -113q114 0 200 100t86 359q0 230 -74.5 343t-211.5 113q-121 0 -193.5 -121t-72.5 -335z" />
<glyph unicode="&#x10e9;" horiz-adv-x="1001" d="M164 -46v1224q0 188 68.5 294t204.5 106q80 0 137.5 -35.5t84.5 -93.5t27 -132q0 -91 -51 -168h-61q34 74 34 168q0 107 -45.5 150.5t-130.5 43.5q-67 0 -108 -31t-63 -107t-22 -203v-341h12q110 184 266 184q167 0 261 -122q93 -121 93 -300q0 -329 -258 -631h-100 q278 287 278 625q0 168 -77 262.5t-197 94.5q-103 0 -191 -105q-87 -106 -87 -241v-642h-75z" />
<glyph unicode="&#x10ea;" horiz-adv-x="1121" d="M132 815q0 423 171 740h88q-181 -310 -181 -742q0 -469 108 -628q110 -158 256 -158q138 0 238 124q99 122 99 356q0 209 -88 286q-90 78 -169 78h-117v64h117q58 0 141 58q86 58 86 171q0 73 -130 168q-128 95 -128 223h77q0 -120 127 -196t127 -198q0 -176 -210 -253 v-7q247 -77 247 -398q0 -254 -117.5 -400.5t-307.5 -146.5q-187 0 -310 188q-124 191 -124 671z" />
<glyph unicode="&#x10eb;" horiz-adv-x="1001" d="M132 484q0 254 94 391.5t257 137.5q164 0 259 -186h19v728h76v-1071q0 -227 -90 -379q-88 -149 -264 -149q-159 0 -255 140.5t-96 387.5zM210 484q0 -236 72.5 -346.5t200.5 -110.5q137 0 207.5 108t70.5 349q0 227 -73.5 342.5t-207.5 115.5q-133 0 -201.5 -116 t-68.5 -342z" />
<glyph unicode="&#x10ec;" horiz-adv-x="1022" d="M164 484v775q0 319 207 319q101 0 164 -165h6q59 165 174 165q52 0 92 -29.5t62 -88t22 -140.5v-107h-68v100q0 204 -110 204q-78 2 -111.5 -63t-33.5 -195v-43h-60v43q0 119 -40.5 189t-96.5 70q-49 0 -93 -49q-39 -47 -39 -207v-423h15q105 174 263 174 q112 0 192 -63.5t121 -182.5t41 -283q0 -232 -93 -379q-94 -149 -261 -149q-150 0 -252 127q-101 132 -101 401zM239 484q0 -127 21.5 -217t63.5 -140q86 -100 200 -100q126 0 196.5 112t70.5 345q0 216 -72 337t-195 121q-131 0 -209 -102q-76 -98 -76 -356z" />
<glyph unicode="&#x10ed;" horiz-adv-x="967" d="M132 309q0 129 30 177l70 -2q-22 -60 -22 -175q0 -152 85 -218q83 -64 189 -64q119 0 197 85.5t78 239.5q0 141 -120 366q-106 202 -113 426h-170q-74 0 -114 -56.5t-40 -136.5q0 -65 40 -122q40 -58 119 -58h76v-68h-76q-99 0 -163 70.5t-64 178.5q0 106 62 178 q67 75 160 75h168v283h-170v65h234v-348h195v-61h-195q8 -234 125 -429q124 -207 124 -363q0 -168 -98 -281q-98 -115 -255 -115q-160 0 -257 105q-95 107 -95 248z" />
<glyph unicode="&#x10ee;" horiz-adv-x="1001" d="M164 488v1064h75v-730h15q111 191 263 191q177 0 264 -147q90 -152 90 -380q0 -236 -102 -385q-98 -145 -254 -145q-141 0 -246 134q-105 133 -105 398zM239 486q0 -241 85 -351q84 -108 198 -108q123 0 196 120t73 339q0 239 -67.5 347.5t-201.5 108.5q-131 0 -207 -123 t-76 -333z" />
<glyph unicode="&#x10ef;" horiz-adv-x="887" d="M100 39q258 16 387 93t130 217q6 108 -101 161t-326 49l-47 43l265 406l-307 170l50 44l293 -161l95 149q80 110 42 195q-38 87 -114 95q-71 0 -130 -48l-57 40q74 67 189 67q130 -15 173 -128q43 -115 -30 -242l-111 -156l299 -162l-38 -51l-291 154l-223 -345 q435 -8 443 -278q0 -346 -591 -397v85z" />
<glyph unicode="&#x10f0;" horiz-adv-x="967" d="M132 345q0 93 47 183l61 -48q-30 -34 -30 -139q3 -126 85 -219q84 -95 189 -95q107 0 190 83q85 85 85 251q0 300 -407 384v84q144 -26 233 -84q40 -25 89 16q53 44 53 127q0 153 -376 219v79q118 -14 203 -52q44 -18 90 21q46 37 46 110q0 92 -190.5 143t-190.5 158h87 q0 -75 185 -119q185 -43 185 -185q0 -106 -119 -164q155 -100 155 -224q0 -117 -129 -184q164 -131 164 -326q0 -190 -93.5 -299t-259.5 -109q-185 3 -269 134q-83 131 -83 255z" />
<glyph unicode="&#x10f1;" horiz-adv-x="967" d="M132 398v568q0 360 114 581h80q-121 -176 -121 -586v-565q0 -175 79 -272t231 -97q112 0 178 56.5t66 141.5q0 158 -229 158h-73v69h73q217 0 217 139q0 141 -227 141h-63v70h63q219 0 219 143q0 138 -231 138h-51v66h51q220 0 220 149q0 79 -89 137q-73 58 -73 112h78 q0 -54 78 -114q83 -57 83 -130q0 -137 -138 -186q148 -48 148 -172q0 -127 -148 -181q156 -48 156 -169q0 -125 -147 -180q161 -51 161 -185q0 -154 -105 -213q-106 -61 -217 -61q-195 0 -289 114t-94 328z" />
<glyph unicode="&#x10f2;" horiz-adv-x="967" d="M132 -22q87 0 283 110q-283 261 -283 820q0 377 102 523q104 147 249 147t249 -147q105 -145 105 -523q0 -560 -283 -820q197 -110 283 -110v-112q-22 0 -351 183q-327 -178 -352 -178h-2v107zM208 911q0 -282 68.5 -478t206.5 -306q279 208 279 781q0 324 -81 461 q-80 142 -198 142q-115 0 -195 -142q-80 -140 -80 -458z" />
<glyph unicode="&#x10f3;" horiz-adv-x="969" d="M134 371q-3 129 45 264h78q-44 -166 -44 -264q0 -153 76.5 -248.5t194.5 -95.5q123 0 200 97q77 98 77 228v174q0 163 -95 252q-95 88 -182 88h-122v68h118q76 0 177 122q104 125 104 438h-513v-313h-79v378h670q0 -517 -280 -656v-12q280 -102 280 -365v-174 q0 -163 -105 -279q-102 -117 -250 -117q-138 0 -245 112q-105 110 -105 303z" />
<glyph unicode="&#x10f4;" horiz-adv-x="967" d="M132 364q0 159 46 246h73q-41 -113 -41 -246q0 -144 83 -242q84 -95 190 -95q113 0 193 80q83 82 83 286v56q0 181 -86 258q-86 78 -166 78h-124v81h124q79 0 166 98q89 100 86 509q-160 -214 -349 -214q-128 0 -203 89.5t-75 229.5h78q0 -69 24.5 -126.5t70.5 -91.5 t105 -34q197 0 346 252h81v-155q0 -498 -246 -593v-10q246 -84 246 -371v-56q0 -237 -109 -336q-111 -101 -245 -101q-140 0 -247 124q-104 123 -104 284z" />
<glyph unicode="&#x10f5;" horiz-adv-x="961" d="M132 309q0 154 95 260q94 105 318 105h216v227h-209q-113 0 -194 22t-130.5 65.5t-72.5 105.5t-23 146q0 151 92 244.5t254 93.5q161 0 260 -92.5t99 -260.5v-249h102v-75h-102v-227h102v-76h-102v-276q0 -178 -113 -274q-111 -92 -246 -92q-171 0 -259 105 q-87 105 -87 248zM210 309q0 -138 74 -210t194 -72q122 0 203 83q80 85 80 208v280h-217q-183 0 -260 -85q-74 -86 -74 -204zM210 1252q0 -153 80.5 -214.5t265.5 -61.5h205v261q0 112 -80 193q-79 81 -203 81q-120 0 -194 -65.5t-74 -193.5z" />
<glyph unicode="&#x10f6;" horiz-adv-x="1382" d="M109 810v312q0 99 18 180t55 144t98 97.5t143 34.5q68 0 115 -18.5t84.5 -61t73.5 -119.5q17 58 38 95t52 61t71 33.5t97 9.5q72 0 127 -19.5t91 -55t59 -88.5t32.5 -115t9.5 -139v-351q0 -102 -26 -183t-71 -131.5t-101.5 -76.5t-120.5 -26q-68 0 -115 33.5t-107 120.5 v-269q0 -69 -16.5 -118.5t-43.5 -79t-73.5 -47.5t-95 -24.5t-118.5 -8.5v71q46 1 82.5 7.5t70.5 21t56.5 37t36 58.5t13.5 83l3 871q0 121 -22 199.5t-72.5 120.5t-129.5 42q-53 0 -94 -22t-65.5 -58t-40.5 -87.5t-21.5 -103.5t-5.5 -112v-318q0 -82 19.5 -147.5t52 -106 t72 -62.5t83.5 -25v-76q-141 9 -227.5 121t-86.5 296zM732 810q0 -53 8.5 -100t22.5 -81.5t32.5 -63.5t39 -48.5t42.5 -32.5t41.5 -19t35.5 -6q63 0 108.5 27t71 76.5t37.5 111t12 136.5v339q0 362 -232 362q-34 0 -62.5 -6.5t-49.5 -17t-37.5 -28t-28 -35.5t-19.5 -44.5 t-12 -49t-6.5 -55.5t-3 -58.5t-0.5 -61.5v-345z" />
<glyph unicode="&#x10fb;" horiz-adv-x="874" d="M97 103q0 40 28 69.5t71 29.5q42 0 70.5 -29t28.5 -70q0 -45 -29 -74t-70 -29q-40 0 -69.5 30.5t-29.5 72.5zM97 756q0 38 28 68t71 30q42 0 70.5 -28t28.5 -70q0 -44 -29 -73t-70 -29q-26 0 -49 14t-36.5 37.5t-13.5 50.5zM579 429q0 40 28 69.5t71 29.5q42 0 71 -28.5 t29 -70.5q0 -22 -8 -41.5t-21.5 -33t-32 -21t-38.5 -7.5q-39 0 -69 31.5t-30 71.5z" />
<glyph unicode="&#x2000;" horiz-adv-x="911" />
<glyph unicode="&#x2001;" horiz-adv-x="1823" />
<glyph unicode="&#x2002;" horiz-adv-x="911" />
<glyph unicode="&#x2003;" horiz-adv-x="1823" />
<glyph unicode="&#x2004;" horiz-adv-x="607" />
<glyph unicode="&#x2005;" horiz-adv-x="455" />
<glyph unicode="&#x2006;" horiz-adv-x="303" />
<glyph unicode="&#x2007;" horiz-adv-x="303" />
<glyph unicode="&#x2008;" horiz-adv-x="227" />
<glyph unicode="&#x2009;" horiz-adv-x="364" />
<glyph unicode="&#x200a;" horiz-adv-x="101" />
<glyph unicode="&#x2010;" horiz-adv-x="791" d="M107 498v83h579v-83h-579z" />
<glyph unicode="&#x2011;" horiz-adv-x="791" d="M107 498v83h579v-83h-579z" />
<glyph unicode="&#x2012;" horiz-adv-x="1320" d="M0 408v112h1386v-112h-1386z" />
<glyph unicode="&#x2013;" horiz-adv-x="964" d="M-22 393v87h1007v-87h-1007z" />
<glyph unicode="&#x2014;" horiz-adv-x="1357" d="M-22 393v87h1401v-87h-1401z" />
<glyph unicode="&#x2018;" horiz-adv-x="537" d="M152 1187q0 101 52.5 208.5t144.5 191.5l34 -35q-78 -89 -111 -156.5t-33 -126.5q0 -8 1 -16.5t3 -18.5t3 -16q4 4 17 4h11q38 0 65 -23t27 -62q0 -36 -15.5 -60t-37 -33t-47.5 -9q-114 0 -114 152z" />
<glyph unicode="&#x2019;" horiz-adv-x="537" d="M152 1069q77 90 110 155.5t33 124.5q0 20 -4 54q-2 -2 -17 -2h-11q-40 0 -67 22t-27 61q0 48 30.5 75.5t69.5 27.5q53 0 83.5 -37.5t30.5 -116.5q0 -69 -23 -139.5t-67 -136t-105 -122.5z" />
<glyph unicode="&#x201a;" horiz-adv-x="537" d="M152 -334q53 62 84 111t45 89.5t14 79.5q0 20 -4 54q-2 -2 -17 -2h-11q-40 0 -67 23t-27 61q0 48 30.5 73.5t69.5 25.5q114 0 114 -151q0 -104 -51 -208t-144 -190z" />
<glyph unicode="&#x201c;" horiz-adv-x="662" d="M65 1178q0 102 52 208.5t144 189.5l34 -36q-147 -163 -151 -286l-1 -53l44 9q38 0 62 -22.5t24 -61.5q0 -53 -27.5 -78t-66.5 -25q-114 0 -114 155zM395 1178q0 101 51 207t142 191l37 -36q-53 -61 -85.5 -111t-48 -92t-15.5 -81v-53l39 7q40 0 67.5 -23t27.5 -61 q0 -53 -30.5 -78t-71.5 -25q-113 0 -113 155z" />
<glyph unicode="&#x201d;" horiz-adv-x="857" d="M152 1157q77 90 110 155t33 125q0 19 -4 54q-2 -3 -17 -3h-11q-40 0 -67 22.5t-27 61.5q0 48 30.5 75.5t69.5 27.5q53 0 83.5 -38t30.5 -117q0 -103 -51 -207t-144 -191zM473 1157q78 88 110 153.5t32 126.5q0 28 -3 54q-2 -3 -17 -3h-10q-40 0 -67 22.5t-27 61.5 q0 48 30 75.5t70 27.5q112 0 112 -155q0 -104 -51.5 -210t-143.5 -188z" />
<glyph unicode="&#x201e;" horiz-adv-x="857" d="M152 -334q53 62 84 111t45 89.5t14 79.5q0 20 -4 54q-2 -2 -17 -2h-11q-40 0 -67 23t-27 61q0 48 30.5 73.5t69.5 25.5q114 0 114 -151q0 -104 -51 -208t-144 -190zM473 -334q78 91 110 155.5t32 124.5q0 28 -3 54q-2 -2 -17 -2h-10q-40 0 -67 23t-27 61q0 48 29.5 73.5 t70.5 25.5q112 0 112 -151q0 -105 -51.5 -210.5t-143.5 -187.5z" />
<glyph unicode="&#x2020;" horiz-adv-x="1159" d="M120 644v88l417 107v478h95v-487l408 -108v-87l-415 109v-1013h-97v1020z" />
<glyph unicode="&#x2022;" horiz-adv-x="1095" d="M371 608q0 68 54 121.5t122 53.5q70 0 122.5 -53t52.5 -122q0 -49 -24 -89.5t-64 -63.5t-87 -23q-70 0 -123 51t-53 125z" />
<glyph unicode="&#x2026;" horiz-adv-x="1181" d="M74 103q0 39 29 69t72 30q28 0 50.5 -13t35.5 -36t13 -50q0 -45 -29 -74t-70 -29t-71 30.5t-30 72.5zM491 103q0 19 7.5 37t20.5 32t31.5 22t40.5 8q41 0 70 -29t29 -70q0 -45 -29 -74t-70 -29t-70.5 30.5t-29.5 72.5zM907 103q0 39 29 69t72 30q27 0 50 -13t36 -36 t13 -50q0 -45 -29 -74t-70 -29q-42 0 -71.5 30.5t-29.5 72.5z" />
<glyph unicode="&#x202f;" horiz-adv-x="364" />
<glyph unicode="&#x2039;" horiz-adv-x="788" d="M147 493l373 498h105l-322 -498l320 -491h-103z" />
<glyph unicode="&#x203a;" horiz-adv-x="788" d="M164 2l322 498l-322 491h102l363 -488l-363 -501h-102z" />
<glyph unicode="&#x205f;" horiz-adv-x="455" />
<glyph unicode="&#x20ac;" horiz-adv-x="1159" d="M29 595v79h135v29q0 69 7 124h-142v80h156q16 95 51.5 179.5t92 156t128.5 123.5t165 81.5t198 29.5q161 0 302 -76l-32 -84q-124 72 -280 72q-85 0 -160.5 -24t-133.5 -67t-104 -103t-76 -132.5t-45 -155.5h738v-80h-751q-5 -48 -5 -114v-39h756v-79h-751 q15 -120 60.5 -216.5t115 -159t157.5 -95.5t189 -33q170 0 313 90l29 -76q-149 -105 -353 -105q-132 0 -242 45.5t-187 126.5t-125.5 188.5t-63.5 234.5h-142z" />
<glyph unicode="&#x2116;" horiz-adv-x="1931" d="M97 254h81q22 -57 59.5 -104t69.5 -47q58 0 97.5 48.5t39.5 117.5v1127h-210v90h310l571 -1139l63 -142v1104q0 96 66 169.5t152 73.5q82 0 147 -62t88 -158h-97q-17 54 -55.5 92t-82.5 38q-55 -2 -92 -47.5t-37 -105.5v-1282h-97l-574 1152l-64 163v-1073 q0 -61 -26.5 -116t-76.5 -90.5t-111 -35.5q-78 0 -141 66.5t-80 160.5zM1412 727q0 64 26.5 120.5t81 93.5t127.5 37q75 0 132 -38t84.5 -95t27.5 -123q0 -109 -65 -182t-179 -73q-106 0 -170.5 75t-64.5 185zM1430 93v92h441v-92h-441zM1492 717q0 -68 46 -116.5t109 -48.5 q80 -1 120.5 47t40.5 128q0 61 -45.5 110t-115.5 49q-45 0 -81 -23.5t-55 -62t-19 -83.5z" />
<glyph unicode="&#x2122;" horiz-adv-x="1392" d="M76 1430v70h520v-70h-218v-527h-83v527h-219zM625 903l51 597h122l153 -387q28 -70 44 -124h3l42 120l155 391h120l57 -597h-88l-37 532h-5q-2 -8 -6.5 -18.5l-10.5 -24.5t-9 -23l-13 -41q-5 -8 -14 -37l-149 -380h-93l-152 392q-30 85 -48 132h-3l-5 -126l-32 -406h-82z " />
<glyph unicode="&#x25fc;" horiz-adv-x="1066" d="M0 0v1067h1067v-1067h-1067z" />
</font>
</defs>
</svg>
