<?xml version="1.0" standalone="no"?>
<!DOCTYPE svg PUBLIC "-//W3C//DTD SVG 1.1//EN" "http://www.w3.org/Graphics/SVG/1.1/DTD/svg11.dtd" >
<svg xmlns="http://www.w3.org/2000/svg" xmlns:xlink="http://www.w3.org/1999/xlink" version="1.1">
<metadata></metadata>
<defs>
<font id="bpg_ingiriregular" horiz-adv-x="1536" >
<font-face units-per-em="2048" ascent="1638" descent="-410" />
<missing-glyph horiz-adv-x="569" />
<glyph unicode="&#xd;" horiz-adv-x="569" />
<glyph unicode=" "  horiz-adv-x="569" />
<glyph unicode="&#x09;" horiz-adv-x="569" />
<glyph unicode="&#xa0;" horiz-adv-x="569" />
<glyph unicode="!" horiz-adv-x="569" d="M176 1141v325h223v-325l-52 -777h-116zM184 0v205h207v-205h-207z" />
<glyph unicode="&#x22;" horiz-adv-x="727" d="M94 1226v240h205v-240l-45 -279h-110zM426 1226v240h205v-240l-48 -279h-108z" />
<glyph unicode="#" horiz-adv-x="1139" d="M21 401v149h199l74 363h-273v149h303l87 429h150l-87 -429h315l87 429h151l-87 -429h173v-149h-203l-75 -363h278v-149h-308l-87 -426h-150l86 426h-314l-87 -426h-150l87 426h-169zM370 550h314l75 363h-315z" />
<glyph unicode="$" horiz-adv-x="1139" d="M73 407l181 34q21 -145 74 -213q76 -96 182 -107v573q-111 21 -227 86q-86 48 -132.5 133t-46.5 193q0 192 136 311q91 80 270 98v86h106v-86q157 -15 249 -92q118 -98 142 -269l-186 -28q-16 106 -66.5 162.5t-138.5 74.5v-519q136 -34 180 -53q84 -37 137 -90 t81.5 -126t28.5 -158q0 -187 -119 -312t-308 -134v-182h-106v180q-135 17 -219.5 60.5t-146 140.5t-71.5 237zM284 1120q0 -92 51.5 -154t174.5 -99v498q-105 -16 -165.5 -84t-60.5 -161zM616 121q105 13 173.5 91t68.5 193q0 98 -48.5 157.5t-193.5 106.5v-548z" />
<glyph unicode="%" horiz-adv-x="1821" d="M119 1114q0 157 79 267t229 110q138 0 228.5 -98.5t90.5 -289.5q0 -186 -91.5 -286.5t-225.5 -100.5q-133 0 -221.5 99t-88.5 299zM276 1096q0 -141 45 -198.5t111 -57.5q68 0 112.5 58t44.5 212q0 142 -45 199.5t-112 57.5t-111.5 -58t-44.5 -213zM433 -54l802 1545h146 l-799 -1545h-149zM1067 344q0 158 79 267.5t230 109.5q138 0 228.5 -98.5t90.5 -289.5q0 -186 -91.5 -286.5t-226.5 -100.5q-133 0 -221.5 99.5t-88.5 298.5zM1224 326q0 -140 45 -198t111 -58q69 0 113.5 58t44.5 212q0 142 -45 199.5t-112 57.5q-68 0 -112.5 -58 t-44.5 -213z" />
<glyph unicode="&#x26;" horiz-adv-x="1366" d="M88 404q0 136 87.5 245.5t261.5 192.5q-99 114 -132 185t-33 137q0 132 103.5 229.5t260.5 97.5q150 0 245.5 -92t95.5 -221q0 -209 -277 -357l263 -335q45 88 70 204l187 -40q-48 -192 -130 -316q101 -134 229 -225l-121 -143q-109 70 -225 207q-89 -99 -194 -148.5 t-227 -49.5q-225 0 -357 152q-107 124 -107 277zM282 415q0 -89 71 -185t201 -96q81 0 167.5 50.5t138.5 130.5l-330 409q-146 -87 -197 -161.5t-51 -147.5zM457 1181q0 -34 17.5 -71.5t52.5 -79.5l80 -93q117 69 151.5 121t34.5 115q0 75 -47.5 122.5t-118.5 47.5 q-73 0 -121.5 -47t-48.5 -115z" />
<glyph unicode="'" horiz-adv-x="391" d="M90 1221v245h205v-245l-48 -274h-111z" />
<glyph unicode="(" horiz-adv-x="682" d="M124 531q0 238 77 456q90 253 278 504h129q-121 -208 -160 -297q-61 -138 -96 -288q-43 -187 -43 -376q0 -481 299 -961h-129q-149 188 -252 440t-103 522z" />
<glyph unicode=")" horiz-adv-x="682" d="M124 -431q299 480 299 961q0 188 -43 373q-34 150 -95 288q-39 90 -161 300h129q188 -251 278 -504q77 -218 77 -456q0 -270 -103.5 -522t-251.5 -440h-129z" />
<glyph unicode="*" horiz-adv-x="797" d="M64 1197l46 142q159 -56 231 -97q-19 181 -20 249h145q-3 -99 -23 -248q103 52 236 96l46 -142q-127 -42 -249 -56q61 -53 172 -189l-120 -85q-58 79 -137 215q-74 -141 -130 -215l-118 85q116 143 166 189q-129 25 -245 56z" />
<glyph unicode="+" horiz-adv-x="1196" d="M114 639v168h399v399h170v-399h399v-168h-399v-402h-170v402h-399z" />
<glyph unicode="," horiz-adv-x="569" d="M170 -213q57 25 84 73.5t30 139.5h-102v205h205v-205q0 -113 -40 -182.5t-127 -107.5z" />
<glyph unicode="-" horiz-adv-x="682" d="M65 440v181h553v-181h-553z" />
<glyph unicode="." horiz-adv-x="569" d="M186 0v205h205v-205h-205z" />
<glyph unicode="/" horiz-adv-x="569" d="M0 -25l425 1516h144l-424 -1516h-145z" />
<glyph unicode="0" horiz-adv-x="1139" d="M85 723q0 260 53.5 418.5t159 244.5t265.5 86q118 0 207 -47.5t147 -137t91 -218t33 -346.5q0 -258 -53 -416.5t-158.5 -245t-266.5 -86.5q-212 0 -333 152q-145 183 -145 596zM270 723q0 -361 84.5 -480.5t208.5 -119.5t208.5 120t84.5 480q0 362 -84.5 481t-210.5 119 q-124 0 -198 -105q-93 -134 -93 -495z" />
<glyph unicode="1" horiz-adv-x="1139" d="M223 930v174q151 71 264 172t160 196h116v-1472h-180v1147q-65 -62 -170.5 -124t-189.5 -93z" />
<glyph unicode="2" horiz-adv-x="1139" d="M62 0q-2 65 21 125q37 99 118.5 195t235.5 222q239 196 323 310.5t84 216.5q0 107 -76.5 180.5t-199.5 73.5q-130 0 -208 -78t-79 -216l-185 19q19 207 143 315.5t333 108.5q211 0 334 -117t123 -290q0 -88 -36 -173t-119.5 -179t-277.5 -258q-162 -136 -208 -184.5 t-76 -97.5h719v-173h-969z" />
<glyph unicode="3" horiz-adv-x="1139" d="M86 387l180 24q31 -153 105.5 -220.5t181.5 -67.5q127 0 214.5 88t87.5 218q0 124 -81 204.5t-206 80.5q-51 0 -127 -20l20 158q18 -2 29 -2q115 0 207 60t92 185q0 99 -67 164t-173 65q-105 0 -175 -66t-90 -198l-180 32q33 181 150 280.5t291 99.5q120 0 221 -51.5 t154.5 -140.5t53.5 -189q0 -95 -51 -173t-151 -124q130 -30 202 -124.5t72 -236.5q0 -192 -140 -325.5t-354 -133.5q-193 0 -320.5 115t-145.5 298z" />
<glyph unicode="4" horiz-adv-x="1139" d="M26 351v165l669 950h147v-950h198v-165h-198v-351h-180v351h-636zM203 516h459v661z" />
<glyph unicode="5" horiz-adv-x="1139" d="M85 384l189 16q21 -138 97.5 -207.5t184.5 -69.5q130 0 220 98t90 260q0 154 -86.5 243t-226.5 89q-87 0 -157 -39.5t-110 -102.5l-169 22l142 753h729v-172h-585l-79 -394q132 92 277 92q192 0 324 -133t132 -342q0 -199 -116 -344q-141 -178 -385 -178 q-200 0 -326.5 112t-144.5 297z" />
<glyph unicode="6" horiz-adv-x="1139" d="M77 686q0 425 157 618q137 168 369 168q173 0 283.5 -97t132.5 -268l-179 -14q-24 106 -68 154q-73 77 -180 77q-86 0 -151 -48q-85 -62 -134 -181t-51 -339q65 99 159 147t197 48q180 0 306.5 -132.5t126.5 -342.5q0 -138 -59.5 -256.5t-163.5 -181.5t-236 -63 q-225 0 -367 165.5t-142 545.5zM284 475q0 -93 39.5 -178t110.5 -129.5t149 -44.5q114 0 196 92t82 250q0 152 -81 239.5t-204 87.5q-122 0 -207 -87.5t-85 -229.5z" />
<glyph unicode="7" horiz-adv-x="1139" d="M97 1274v173h949v-140q-140 -149 -277.5 -396t-212.5 -508q-54 -184 -69 -403h-185q3 173 68 418t186.5 472.5t258.5 383.5h-718z" />
<glyph unicode="8" horiz-adv-x="1139" d="M83 424q0 143 72.5 239.5t206.5 131.5q-112 41 -166 117t-54 182q0 160 115 269t306 109q192 0 309 -111.5t117 -271.5q0 -102 -53.5 -177.5t-162.5 -116.5q135 -44 205.5 -142t70.5 -234q0 -188 -133 -316t-350 -128t-350 128.5t-133 320.5zM268 423q0 -77 36.5 -149 t108.5 -111.5t155 -39.5q129 0 213 83t84 211q0 130 -86.5 215t-216.5 85q-127 0 -210.5 -84t-83.5 -210zM326 1100q0 -104 67 -170t174 -66q104 0 170.5 65.5t66.5 160.5q0 99 -68.5 166.5t-170.5 67.5q-103 0 -171 -66t-68 -158z" />
<glyph unicode="9" horiz-adv-x="1139" d="M85 977q0 223 131.5 359t329.5 136q143 0 261.5 -77t180 -219.5t61.5 -412.5q0 -281 -61 -447.5t-181.5 -253.5t-282.5 -87q-172 0 -281 95.5t-131 268.5l173 16q22 -122 84 -177t159 -55q83 0 145.5 38t102.5 101.5t67 171.5t27 220q0 12 -1 36q-54 -86 -147.5 -139.5 t-202.5 -53.5q-182 0 -308 132t-126 348zM270 971q0 -140 84.5 -227.5t208.5 -87.5q125 0 205.5 87.5t80.5 242.5t-82.5 246t-198.5 91q-120 0 -209 -98t-89 -254z" />
<glyph unicode=":" horiz-adv-x="569" d="M185 0v205h205v-205h-205zM185 857v205h205v-205h-205z" />
<glyph unicode=";" horiz-adv-x="569" d="M170 -213q57 25 84 73.5t30 139.5h-102v205h205v-205q0 -113 -40 -182.5t-127 -107.5zM182 857v205h205v-205h-205z" />
<glyph unicode="&#x3c;" horiz-adv-x="1196" d="M112 641v168l971 410v-179l-770 -316l770 -319v-179z" />
<glyph unicode="=" horiz-adv-x="1196" d="M114 417v168h968v-168h-968zM114 862v168h968v-168h-968z" />
<glyph unicode="&#x3e;" horiz-adv-x="1196" d="M112 226v179l769 319l-769 316v179l971 -410v-168z" />
<glyph unicode="?" horiz-adv-x="1139" d="M90 1068q25 205 148.5 314t326.5 109q215 0 343 -117t128 -283q0 -96 -45 -177t-176 -197q-88 -78 -115 -115t-40 -85t-15 -156h-173q-1 36 -1 54q0 106 30 183q22 58 71 117q36 43 129.5 125.5t121.5 131.5t28 107q0 105 -82 184.5t-201 79.5q-115 0 -192 -72t-101 -225 zM461 0v205h205v-205h-205z" />
<glyph unicode="@" horiz-adv-x="2079" d="M111 469q0 244 100 465q122 271 346.5 415t544.5 144q248 0 445.5 -101.5t311.5 -302.5q97 -173 97 -376q0 -290 -204 -515q-182 -202 -398 -202q-69 0 -111.5 21t-62.5 60q-13 25 -19 86q-65 -75 -145.5 -120.5t-161.5 -45.5q-89 0 -173 52t-136.5 160t-52.5 237 q0 159 81.5 318.5t202.5 239.5t235 80q87 0 166 -45.5t136 -138.5l34 155h179l-144 -671q-30 -140 -30 -155q0 -27 20.5 -46.5t49.5 -19.5q53 0 139 61q114 80 180.5 214.5t66.5 277.5q0 167 -85.5 312t-255 232t-374.5 87q-234 0 -427.5 -109.5t-300 -314t-106.5 -438.5 q0 -245 106.5 -422t308 -261.5t446.5 -84.5q262 0 439 88t265 214h181q-51 -105 -175 -214t-295 -172.5t-412 -63.5q-222 0 -409.5 57t-319.5 171.5t-199 263.5q-84 189 -84 408zM677 434q0 -137 65 -213t149 -76q56 0 118 33.5t118.5 99.5t92.5 167.5t36 203.5 q0 136 -67.5 211t-164.5 75q-64 0 -120.5 -32.5t-109.5 -104.5t-85 -175t-32 -189z" />
<glyph unicode="A" horiz-adv-x="1366" d="M-3 0l563 1466h209l600 -1466h-221l-171 444h-613l-161 -444h-206zM420 602h497l-153 406q-70 185 -104 304q-28 -141 -79 -280z" />
<glyph unicode="B" horiz-adv-x="1366" d="M150 0v1466h550q168 0 269.5 -44.5t159 -137t57.5 -193.5q0 -94 -51 -177t-154 -134q133 -39 204.5 -133t71.5 -222q0 -103 -43.5 -191.5t-107.5 -136.5t-160.5 -72.5t-236.5 -24.5h-559zM344 173h365q94 0 132 7q67 12 112 40t74 81.5t29 123.5q0 82 -42 142.5 t-116.5 85t-214.5 24.5h-339v-504zM344 850h317q129 0 185 17q74 22 111.5 73t37.5 128q0 73 -35 128.5t-100 76t-223 20.5h-293v-443z" />
<glyph unicode="C" horiz-adv-x="1479" d="M102 744q0 229 87.5 399.5t249 259t355.5 88.5q220 0 370 -112t209 -315l-191 -45q-51 160 -148 233t-244 73q-169 0 -282.5 -81t-159.5 -217.5t-46 -281.5q0 -187 54.5 -326.5t169.5 -208.5t249 -69q163 0 276 94t153 279l194 -49q-61 -239 -219.5 -364.5t-387.5 -125.5 q-237 0 -385.5 96.5t-226 279.5t-77.5 393z" />
<glyph unicode="D" horiz-adv-x="1479" d="M158 0v1466h505q171 0 261 -21q126 -29 215 -105q116 -98 173.5 -250.5t57.5 -348.5q0 -167 -39 -296t-100 -213.5t-133.5 -133t-175 -73.5t-235.5 -25h-529zM352 173h313q145 0 227.5 27t131.5 76q69 69 107.5 185.5t38.5 282.5q0 230 -75.5 353.5t-183.5 165.5 q-78 30 -251 30h-308v-1120z" />
<glyph unicode="E" horiz-adv-x="1366" d="M162 0v1466h1060v-173h-866v-449h811v-172h-811v-499h900v-173h-1094z" />
<glyph unicode="F" horiz-adv-x="1251" d="M168 0v1466h989v-173h-795v-454h688v-173h-688v-666h-194z" />
<glyph unicode="G" horiz-adv-x="1593" d="M109 726q0 214 89.5 399.5t257.5 275.5t387 90q159 0 287.5 -51.5t201.5 -143.5t111 -240l-175 -48q-33 112 -82 176t-140 102.5t-202 38.5q-133 0 -230 -40.5t-156.5 -106.5t-92.5 -145q-56 -136 -56 -295q0 -196 67.5 -328t196.5 -196t274 -64q126 0 246 48.5 t182 103.5v273h-431v172l621 1v-544q-143 -114 -295 -171.5t-312 -57.5q-216 0 -392.5 92.5t-266.5 267.5t-90 391z" />
<glyph unicode="H" horiz-adv-x="1479" d="M164 0v1466h194v-602h762v602h194v-1466h-194v691h-762v-691h-194z" />
<glyph unicode="I" horiz-adv-x="569" d="M191 0v1466h194v-1466h-194z" />
<glyph unicode="J" horiz-adv-x="1024" d="M59 416l175 24q7 -168 63 -230t155 -62q73 0 126 33.5t73 91t20 183.5v1010h194v-999q0 -184 -44.5 -285t-141 -154t-226.5 -53q-193 0 -295 111q-99 107 -99 314v16z" />
<glyph unicode="K" horiz-adv-x="1366" d="M150 0v1466h194v-727l728 727h263l-615 -594l642 -872h-256l-522 742l-240 -234v-508h-194z" />
<glyph unicode="L" horiz-adv-x="1139" d="M150 0v1466h194v-1293h722v-173h-916z" />
<glyph unicode="M" horiz-adv-x="1706" d="M152 0v1466h292l347 -1038q48 -145 70 -217q25 80 78 235l351 1020h261v-1466h-187v1227l-426 -1227h-175l-424 1248v-1248h-187z" />
<glyph unicode="N" horiz-adv-x="1479" d="M156 0v1466h199l770 -1151v1151h186v-1466h-199l-770 1152v-1152h-186z" />
<glyph unicode="O" horiz-adv-x="1593" d="M99 714q0 365 196 571.5t506 206.5q203 0 366 -97t248.5 -270.5t85.5 -393.5q0 -223 -90 -399t-255 -266.5t-356 -90.5q-207 0 -370 100t-247 273t-84 366zM299 711q0 -265 142.5 -417.5t357.5 -152.5q219 0 360.5 154t141.5 437q0 179 -60.5 312.5t-177 207t-261.5 73.5 q-206 0 -354.5 -141.5t-148.5 -472.5z" />
<glyph unicode="P" horiz-adv-x="1366" d="M158 0v1466h553q146 0 223 -14q108 -18 181 -68.5t117.5 -141.5t44.5 -200q0 -187 -119 -316.5t-430 -129.5h-376v-596h-194zM352 769h379q188 0 267 70t79 197q0 92 -46.5 157.5t-122.5 86.5q-49 13 -181 13h-375v-524z" />
<glyph unicode="Q" horiz-adv-x="1593" d="M88 733q0 217 88 395t250.5 271t363.5 93q203 0 366 -96.5t248.5 -270t85.5 -391.5q0 -181 -55 -325.5t-166 -251.5q135 -93 249 -136l-57 -135q-158 57 -315 180q-163 -91 -360 -91q-199 0 -361 96t-249.5 270t-87.5 392zM288 733q0 -286 141.5 -439t361.5 -153 q104 0 196 39q-91 59 -192 84l47 141q168 -47 277 -140q171 156 171 469q0 178 -60.5 311t-177 206.5t-261.5 73.5q-217 0 -360 -148.5t-143 -443.5z" />
<glyph unicode="R" horiz-adv-x="1479" d="M161 0v1466h650q196 0 298 -39.5t163 -139.5t61 -221q0 -156 -101 -263t-312 -136q77 -37 117 -73q85 -78 161 -195l255 -399h-244l-194 305q-85 132 -140 202t-98.5 98t-88.5 39q-33 7 -108 7h-225v-651h-194zM355 819h417q133 0 208 27.5t114 88t39 131.5 q0 104 -75.5 171t-238.5 67h-464v-485z" />
<glyph unicode="S" horiz-adv-x="1366" d="M92 471l183 16q13 -110 60.5 -180.5t147.5 -114t225 -43.5q111 0 196 33t126.5 90.5t41.5 125.5q0 69 -40 120.5t-132 86.5q-59 23 -261 71.5t-283 91.5q-105 55 -156.5 136.5t-51.5 182.5q0 111 63 207.5t184 146.5t269 50q163 0 287.5 -52.5t191.5 -154.5t72 -231 l-186 -14q-15 139 -101.5 210t-255.5 71q-176 0 -256.5 -64.5t-80.5 -155.5q0 -79 57 -130q56 -51 292.5 -104.5t324.5 -93.5q128 -59 189 -149.5t61 -208.5q0 -117 -67 -220.5t-192.5 -161t-282.5 -57.5q-199 0 -333.5 58t-211 174.5t-80.5 263.5z" />
<glyph unicode="T" horiz-adv-x="1251" d="M48 1293v173h1162v-173h-485v-1293h-194v1293h-483z" />
<glyph unicode="U" horiz-adv-x="1479" d="M161 619v847h194v-846q0 -191 35.5 -281.5t122 -139.5t211.5 -49q214 0 305 97t91 373v846h194v-847q0 -221 -50 -351t-180.5 -211.5t-342.5 -81.5q-206 0 -337 71t-187 205.5t-56 367.5z" />
<glyph unicode="V" horiz-adv-x="1366" d="M9 1466h210l381 -1065q46 -128 77 -240q34 120 79 240l396 1065h198l-574 -1466h-199z" />
<glyph unicode="W" horiz-adv-x="1933" d="M25 1466h199l223 -961q36 -151 62 -300q56 235 66 271l279 990h234l210 -742q79 -276 114 -519q28 139 73 319l230 942h195l-402 -1466h-187l-309 1117q-39 140 -46 172q-23 -101 -43 -172l-311 -1117h-198z" />
<glyph unicode="X" horiz-adv-x="1366" d="M9 0l567 764l-500 702h231l266 -376q83 -117 118 -180q49 80 116 167l295 389h211l-515 -691l555 -775h-240l-369 523q-31 45 -64 98q-49 -80 -70 -110l-368 -511h-233z" />
<glyph unicode="Y" horiz-adv-x="1366" d="M6 1466h236l289 -442q80 -124 149 -248q66 115 160 259l284 431h226l-585 -845v-621h-194v621z" />
<glyph unicode="Z" horiz-adv-x="1251" d="M41 0v180l751 939q80 100 152 174h-818v173h1050v-173l-823 -1017l-89 -103h936v-173h-1159z" />
<glyph unicode="[" horiz-adv-x="569" d="M139 -407v1873h397v-149h-217v-1575h217v-149h-397z" />
<glyph unicode="\" horiz-adv-x="569" d="M0 1491h145l424 -1516h-144z" />
<glyph unicode="]" horiz-adv-x="569" d="M39 -258h217v1575h-217v149h397v-1873h-397v149z" />
<glyph unicode="^" horiz-adv-x="961" d="M54 690l353 801h145l355 -801h-181l-247 597l-240 -597h-185z" />
<glyph unicode="_" horiz-adv-x="1139" d="M-31 -277h1193v-130h-1193v130z" />
<glyph unicode="`" horiz-adv-x="682" d="M89 1474h241l135 -280h-145z" />
<glyph unicode="a" horiz-adv-x="1139" d="M74 280q0 78 35.5 142.5t93 103.5t129.5 59q53 14 160 27q218 26 321 62q1 37 1 47q0 110 -51 155q-69 61 -205 61q-127 0 -187.5 -44.5t-89.5 -157.5l-176 24q24 113 79 182.5t159 107t241 37.5q136 0 221 -32t125 -80.5t56 -122.5q9 -46 9 -166v-240 q0 -251 11.5 -317.5t45.5 -127.5h-188q-28 56 -36 131q-100 -85 -192.5 -120t-198.5 -35q-175 0 -269 85.5t-94 218.5zM266 285q0 -72 54.5 -120t159.5 -48q104 0 185 45.5t119 124.5q29 61 29 180v66q-98 -40 -294 -68q-111 -16 -157 -36t-71 -58.5t-25 -85.5z" />
<glyph unicode="b" horiz-adv-x="1139" d="M134 0v1466h180v-523q114 143 291 143q98 0 185.5 -39.5t144 -111t88.5 -172.5t32 -216q0 -273 -135 -422t-324 -149q-188 0 -295 157v-133h-167zM299 539q0 -191 52 -276q85 -139 230 -139q118 0 204 102.5t86 305.5q0 208 -82.5 307t-199.5 99q-118 0 -204 -102.5 t-86 -296.5z" />
<glyph unicode="c" horiz-adv-x="1024" d="M80 527q0 172 57 301t173.5 193.5t253.5 64.5q173 0 283 -87.5t141 -248.5l-175 -27q-25 107 -88.5 161t-153.5 54q-136 0 -221 -97.5t-85 -308.5q0 -214 82 -311t214 -97q106 0 177 65t90 200l177 -23q-29 -183 -148.5 -286.5t-293.5 -103.5q-218 0 -350.5 142.5 t-132.5 408.5z" />
<glyph unicode="d" horiz-adv-x="1139" d="M70 530q0 159 53 288.5t159 198.5t237 69q96 0 171 -40.5t122 -105.5v526h179v-1466h-167v134q-101 -158 -297 -158q-127 0 -233.5 70t-165 195.5t-58.5 288.5zM255 530q0 -204 86 -305t203 -101q118 0 200.5 96.5t82.5 294.5q0 218 -84 320t-207 102q-120 0 -200.5 -98 t-80.5 -309z" />
<glyph unicode="e" horiz-adv-x="1139" d="M75 522q0 268 138 416t358 148q213 0 348 -145t135 -408q0 -16 -1 -48h-792q10 -175 99 -268t222 -93q99 0 169 52t111 166l186 -23q-44 -163 -163 -253t-304 -90q-233 0 -369.5 143.5t-136.5 402.5zM271 633h593q-12 134 -68 201q-86 104 -223 104q-124 0 -208.5 -83 t-93.5 -222z" />
<glyph unicode="f" horiz-adv-x="569" d="M19 922v140h159v113q0 107 19 159q26 70 91.5 113.5t183.5 43.5q76 0 168 -18l-27 -157q-56 10 -106 10q-82 0 -116 -35t-34 -131v-98h207v-140h-207v-922h-179v922h-159z" />
<glyph unicode="g" horiz-adv-x="1139" d="M66 537q0 152 55 280.5t159.5 198.5t245.5 70q188 0 310 -152v128h166v-918q0 -248 -50.5 -351.5t-160 -163.5t-269.5 -60q-190 0 -307 85q-113 83 -113 247v11l175 -26q11 -81 61 -118q67 -50 183 -50q125 0 193 50t92 140q13 51 13 208v23q-118 -139 -294 -139 q-219 0 -339 158t-120 379zM251 550q0 -209 83 -305t208 -96q124 0 208 95.5t84 299.5q0 195 -86.5 294t-208.5 99q-120 0 -204 -97.5t-84 -289.5z" />
<glyph unicode="h" horiz-adv-x="1139" d="M135 0v1466h180v-526q126 146 318 146q118 0 205 -46.5t124.5 -128.5t37.5 -238v-673h-180v673q0 135 -58.5 196.5t-165.5 61.5q-80 0 -150.5 -41.5t-100.5 -112.5t-30 -196v-581h-180z" />
<glyph unicode="i" horiz-adv-x="455" d="M136 0v1062h180v-1062h-180zM136 1259v207h180v-207h-180z" />
<glyph unicode="j" horiz-adv-x="455" d="M-94 -412l34 153q54 -14 85 -14q55 0 82 36.5t27 182.5v1116h180v-1120q0 -196 -51 -273q-65 -100 -216 -100q-73 0 -141 19zM134 1257v209h180v-209h-180z" />
<glyph unicode="k" horiz-adv-x="1024" d="M136 0v1466h180v-836l426 432h233l-406 -394l447 -668h-222l-351 543l-127 -122v-421h-180z" />
<glyph unicode="l" horiz-adv-x="455" d="M131 0v1466h180v-1466h-180z" />
<glyph unicode="m" horiz-adv-x="1706" d="M135 0v1062h161v-149q50 78 133 125.5t189 47.5q118 0 193.5 -49t106.5 -137q126 186 328 186q158 0 243 -87.5t85 -269.5v-729h-179v669q0 108 -17.5 155.5t-63.5 76.5t-108 29q-112 0 -186 -74.5t-74 -238.5v-617h-180v690q0 120 -44 180t-144 60q-76 0 -140.5 -40 t-93.5 -117t-29 -222v-551h-180z" />
<glyph unicode="n" horiz-adv-x="1139" d="M135 0v1062h162v-151q117 175 338 175q96 0 176.5 -34.5t120.5 -90.5t56 -133q10 -50 10 -175v-653h-180v646q0 110 -21 164.5t-74.5 87t-125.5 32.5q-115 0 -198.5 -73t-83.5 -277v-580h-180z" />
<glyph unicode="o" horiz-adv-x="1139" d="M68 531q0 295 164 437q137 118 334 118q219 0 358 -143.5t139 -396.5q0 -205 -61.5 -322.5t-179 -182.5t-256.5 -65q-223 0 -360.5 143t-137.5 412zM253 531q0 -204 89 -305.5t224 -101.5q134 0 223 102t89 311q0 197 -89.5 298.5t-222.5 101.5q-135 0 -224 -101 t-89 -305z" />
<glyph unicode="p" horiz-adv-x="1139" d="M135 -407v1469h164v-138q58 81 131 121.5t177 40.5q136 0 240 -70t157 -197.5t53 -279.5q0 -163 -58.5 -293.5t-170 -200t-234.5 -69.5q-90 0 -161.5 38t-117.5 96v-517h-180zM298 525q0 -205 83 -303t201 -98q120 0 205.5 101.5t85.5 314.5q0 203 -83.5 304t-199.5 101 q-115 0 -203.5 -107.5t-88.5 -312.5z" />
<glyph unicode="q" horiz-adv-x="1139" d="M72 541q0 160 55.5 287t161 192.5t231.5 65.5q197 0 310 -166v142h162v-1469h-180v520q-42 -59 -117.5 -98t-160.5 -39q-189 0 -325.5 151t-136.5 414zM257 534q0 -205 86 -307.5t206 -102.5q115 0 198 97.5t83 296.5q0 212 -87.5 319t-205.5 107q-117 0 -198.5 -99.5 t-81.5 -310.5z" />
<glyph unicode="r" horiz-adv-x="682" d="M133 0v1062h162v-161q62 113 114.5 149t115.5 36q91 0 185 -58l-62 -167q-66 39 -132 39q-59 0 -106 -35.5t-67 -98.5q-30 -96 -30 -210v-556h-180z" />
<glyph unicode="s" horiz-adv-x="1024" d="M63 317l178 28q15 -107 83.5 -164t191.5 -57q124 0 184 50.5t60 118.5q0 61 -53 96q-37 24 -184 61q-198 50 -274.5 86.5t-116 101t-39.5 142.5q0 71 32.5 131.5t88.5 100.5q42 31 114.5 52.5t155.5 21.5q125 0 219.5 -36t139.5 -97.5t62 -164.5l-176 -24 q-12 82 -69.5 128t-162.5 46q-124 0 -177 -41t-53 -96q0 -35 22 -63q22 -29 69 -48q27 -10 159 -46q191 -51 266.5 -83.5t118.5 -94.5t43 -154q0 -90 -52.5 -169.5t-151.5 -123t-224 -43.5q-207 0 -315.5 86t-138.5 255z" />
<glyph unicode="t" horiz-adv-x="569" d="M36 922v140h132v263l179 108v-371h181v-140h-181v-621q0 -77 9.5 -99t31 -35t61.5 -13q30 0 79 7l26 -159q-76 -16 -136 -16q-98 0 -152 31t-76 81.5t-22 212.5v611h-132z" />
<glyph unicode="u" horiz-adv-x="1139" d="M131 404v658h180v-589q0 -141 11 -190q17 -71 72 -111.5t136 -40.5t152 41.5t100.5 113t29.5 207.5v569h180v-1062h-161v156q-124 -180 -337 -180q-94 0 -175.5 36t-121 90.5t-55.5 133.5q-11 53 -11 168z" />
<glyph unicode="v" horiz-adv-x="1024" d="M26 1062h190l228 -636q37 -103 68 -214q24 84 67 202l236 648h185l-402 -1062h-168z" />
<glyph unicode="w" horiz-adv-x="1479" d="M6 1062h186l169 -613l63 -228q4 17 55 219l169 622h185l159 -616l53 -203l61 205l182 614h175l-332 -1062h-187l-169 636l-41 181l-215 -817h-188z" />
<glyph unicode="x" horiz-adv-x="1024" d="M15 0l388 552l-359 510h225l163 -249q46 -71 74 -119q44 66 81 117l179 251h215l-367 -500l395 -562h-221l-218 330l-58 89l-279 -419h-218z" />
<glyph unicode="y" horiz-adv-x="1024" d="M33 1062h194l221 -615q43 -117 77 -246q31 124 74 242l227 619h180l-404 -1080q-65 -175 -101 -241q-48 -89 -110 -130.5t-148 -41.5q-52 0 -116 22l-20 169q59 -16 103 -16q60 0 96 20t59 56q17 27 55 134q5 15 16 44z" />
<glyph unicode="z" horiz-adv-x="1024" d="M40 0v146l676 776q-115 -6 -203 -6h-433v146h868v-119l-575 -674l-111 -123q121 9 227 9h491v-155h-940z" />
<glyph unicode="{" horiz-adv-x="684" d="M57 449v163q77 2 125.5 41.5t64.5 108.5t17 236t6 220q9 84 33.5 135t60.5 81.5t92 46.5q38 10 124 10h56v-157h-31q-104 0 -138 -37.5t-34 -167.5q0 -262 -11 -331q-18 -107 -61.5 -165t-136.5 -103q110 -46 159.5 -140.5t49.5 -309.5q0 -195 4 -232q8 -68 40.5 -95 t127.5 -27h31v-157h-56q-98 0 -142 16q-64 23 -106 74.5t-54.5 130.5t-13.5 259t-17 249t-64.5 109t-125.5 42z" />
<glyph unicode="|" horiz-adv-x="532" d="M188 -431v1922h157v-1922h-157z" />
<glyph unicode="}" horiz-adv-x="684" d="M47 -274h31q104 0 138 37.5t34 168.5q0 250 9 317q16 111 64 177.5t136 103.5q-115 55 -162 145.5t-47 305.5q0 195 -5 233q-7 67 -39.5 93.5t-127.5 26.5h-31v157h56q98 0 142 -16q64 -22 106 -74t54.5 -131t13.5 -259t17 -248.5t64.5 -108.5t125.5 -42v-163 q-77 -2 -125.5 -42t-64.5 -108.5t-17 -235.5t-6 -220q-9 -85 -33.5 -135.5t-60.5 -81t-92 -46.5q-38 -11 -124 -11h-56v157z" />
<glyph unicode="~" horiz-adv-x="1196" d="M87 557v205q106 120 278 120q60 0 126 -17.5t188 -69.5q69 -29 103.5 -38t69.5 -9q65 0 134.5 39t123.5 98v-212q-64 -60 -129.5 -87t-147.5 -27q-60 0 -114.5 14t-173 67t-197.5 53q-64 0 -120.5 -27.5t-140.5 -108.5z" />
<glyph unicode="&#xa1;" horiz-adv-x="682" d="M232 -79l52 776h116l55 -776v-325h-223v325zM240 857v205h207v-205h-207z" />
<glyph unicode="&#xa2;" horiz-adv-x="1139" d="M107 526q0 178 58.5 305.5t175 191.5t237.5 64q36 0 100 -8l113 387l110 -32l-112 -387q99 -43 152 -115.5t74 -181.5l-175 -27q-26 112 -96 171l-222 -766q33 -9 61 -9q104 0 179.5 71t92.5 199l179 -20q-33 -185 -156.5 -291t-291.5 -106q-49 0 -103 14l-118 -395 l-112 32l115 398q-115 55 -188 183.5t-73 321.5zM292 535q0 -132 32 -223t91 -135l223 763q-32 3 -50 3q-82 0 -153.5 -45.5t-107 -141t-35.5 -221.5z" />
<glyph unicode="&#xa3;" horiz-adv-x="1139" d="M27 145q96 53 163 151.5t67 240.5q0 61 -17 124h-196v148h154q-33 112 -42 163.5t-9 100.5q0 208 154 325q124 93 300 93q181 0 298.5 -99.5t144.5 -279.5l-179 -27q-15 120 -89.5 189t-178.5 69q-111 0 -184.5 -71.5t-73.5 -172.5q0 -111 57 -290h315v-148h-284 q19 -44 19 -88q0 -87 -41.5 -184t-136.5 -198q79 22 144 22q83 0 187 -25q172 -41 233 -41q74 0 192 56l58 -165q-92 -39 -142.5 -51t-100.5 -12q-42 0 -85 8q-27 5 -129.5 36.5t-132.5 37.5q-47 8 -94 8q-72 0 -153.5 -25t-148.5 -68z" />
<glyph unicode="&#xa4;" horiz-adv-x="1139" d="M74 354l139 136q-71 110 -71 236q0 125 71 235l-139 136l115 119l139 -139q106 72 237 72q132 0 237 -72l139 139l116 -119l-139 -136q71 -110 71 -235q0 -126 -71 -236l139 -136l-116 -119l-139 140q-105 -73 -237 -73q-131 0 -237 73l-139 -140zM305 726 q0 -108 76 -184t183 -76t183 76t76 184q0 107 -75.5 183t-183.5 76q-107 0 -183 -76t-76 -183z" />
<glyph unicode="&#xa5;" horiz-adv-x="1139" d="M-3 1466h200l290 -516q49 -88 76 -154q23 53 82 163l274 507h214l-405 -711h341v-148h-412v-143h412v-139h-412v-325h-180v325h-415v139h415v143h-415v148h341z" />
<glyph unicode="&#xa6;" horiz-adv-x="532" d="M188 360h157v-791h-157v791zM188 701v790h157v-790h-157z" />
<glyph unicode="&#xa7;" horiz-adv-x="1139" d="M81 644q0 96 60 174t165 109q-71 68 -100 125.5t-29 122.5q0 128 100 222t265 94q187 0 292 -89t126 -258l-187 -19q-21 122 -73.5 170t-141.5 48q-92 0 -148.5 -49.5t-56.5 -109.5q0 -52 36 -96q56 -68 306 -220q157 -96 212 -141q71 -60 104.5 -124t33.5 -139 q0 -113 -73 -193q-42 -46 -154 -93q80 -61 119.5 -131t39.5 -150q0 -88 -50 -166.5t-144 -120t-203 -41.5q-191 0 -303 95.5t-134 265.5l181 26q28 -130 89 -182.5t166 -52.5q102 0 159.5 52t57.5 122q0 51 -36 94q-62 75 -340 245q-148 91 -206.5 142.5t-95.5 121.5 t-37 146zM244 664q0 -63 46 -120t207 -152q134 -79 231 -148q74 38 110.5 88.5t36.5 98.5q0 57 -52 120q-53 63 -225 169q-137 84 -204 138q-81 -46 -115.5 -92t-34.5 -102z" />
<glyph unicode="&#xa8;" horiz-adv-x="682" d="M61 1270v205h188v-205h-188zM434 1270v205h188v-205h-188z" />
<glyph unicode="&#xa9;" horiz-adv-x="1509" d="M3 736q0 197 101.5 378.5t282.5 279t371 97.5t371 -97.5t282 -279t101 -378.5q0 -195 -99.5 -375t-279 -279.5t-375.5 -99.5t-375.5 99.5t-279.5 279.5t-100 375zM128 736q0 -163 83.5 -312.5t233.5 -233t313 -83.5t313 83.5t233 233t83 312.5q0 164 -84.5 315.5 t-235.5 233t-309 81.5q-159 0 -309.5 -81.5t-235.5 -233t-85 -315.5zM363 734q0 132 50 229.5t142.5 147t211.5 49.5q133 0 221 -63.5t120 -172.5l-119 -29q-30 74 -88.5 113.5t-137.5 39.5q-115 0 -189.5 -82t-74.5 -235t70.5 -231.5t182.5 -78.5q90 0 158 52t90 141 l123 -36q-30 -125 -127.5 -199.5t-236.5 -74.5q-176 0 -286 114t-110 316z" />
<glyph unicode="&#xaa;" horiz-adv-x="758" d="M47 965q0 48 16 84t47.5 64t81.5 45q35 11 99 21l147 22q72 14 96 20q-1 70 -14 94t-48.5 41.5t-94.5 17.5q-79 0 -118 -32.5t-48 -92.5l-137 34q12 89 88 148.5t217 59.5q164 0 232 -61q67 -62 67 -181v-240l-1 -61q0 -134 41 -184h-148q-20 40 -22 89 q-122 -107 -256 -107q-113 0 -179 61.5t-66 157.5zM196 965q0 -41 34 -70t96 -29q73 0 127 39t72 96q7 20 8 103q-53 -14 -192 -36q-90 -14 -117 -39q-28 -26 -28 -64z" />
<glyph unicode="&#xab;" horiz-adv-x="1139" d="M134 528l319 456h148l-261 -456l259 -456h-146zM526 528l313 456h152l-264 -456l264 -456h-152z" />
<glyph unicode="&#xac;" horiz-adv-x="1196" d="M114 862v168h968v-606h-170v438h-798z" />
<glyph unicode="&#xad;" horiz-adv-x="682" d="M65 440v181h553v-181h-553z" />
<glyph unicode="&#xae;" horiz-adv-x="1509" d="M3 736q0 197 101.5 378.5t282.5 279t371 97.5t371 -97.5t282 -279t101 -378.5q0 -195 -99.5 -375t-279 -279.5t-375.5 -99.5t-375.5 99.5t-279.5 279.5t-100 375zM128 736q0 -163 83.5 -312.5t233.5 -233t313 -83.5t313 83.5t233 233t83 312.5q0 164 -84.5 315.5 t-235.5 233t-309 81.5q-159 0 -309.5 -81.5t-235.5 -233t-85 -315.5zM427 319v812h279q143 0 207 -22.5t102 -78.5t38 -119q0 -89 -63.5 -155t-168.5 -74q43 -18 69 -43q49 -48 120 -161l99 -159h-160l-72 128q-85 151 -137 189q-36 28 -105 28h-77v-345h-131zM558 776h159 q114 0 155.5 34t41.5 90q0 36 -20 64.5t-55.5 42.5t-131.5 14h-149v-245z" />
<glyph unicode="&#xaf;" horiz-adv-x="1131" d="M-31 1566v129h1193v-129h-1193z" />
<glyph unicode="&#xb0;" horiz-adv-x="819" d="M128 1214q0 115 81.5 196t195.5 81q116 0 197 -81t81 -196t-81.5 -196.5t-196.5 -81.5q-114 0 -195.5 81t-81.5 197zM237 1214q0 -70 49.5 -119.5t119.5 -49.5q69 0 118.5 49.5t49.5 119.5t-49.5 119.5t-118.5 49.5q-70 0 -119.5 -49.5t-49.5 -119.5z" />
<glyph unicode="&#xb1;" horiz-adv-x="1124" d="M78 0v168h968v-168h-968zM78 663v167h399v399h170v-399h399v-167h-399v-403h-170v403h-399z" />
<glyph unicode="&#xb2;" horiz-adv-x="682" d="M25 733q6 57 47 114q63 86 207 190.5t171 134.5q37 41 37 84q0 48 -35 79t-103 31q-66 0 -98.5 -23.5t-53.5 -90.5l-151 16q29 111 100.5 163.5t205.5 52.5q151 0 221.5 -59t70.5 -144q0 -84 -59 -159q-45 -56 -205 -171q-83 -61 -118 -97h386v-121h-623z" />
<glyph unicode="&#xb3;" horiz-adv-x="682" d="M33 929l146 15q20 -60 52 -82q43 -30 102 -30q71 0 114 39t43 94q0 50 -36 80t-123 30q-12 0 -33 -2q-14 -1 -22 -1l22 110q81 -1 118.5 29t37.5 73q0 37 -30 63t-89 26q-56 0 -87.5 -22t-54.5 -80l-143 23q41 106 103.5 148t182.5 42q144 0 209.5 -53.5t65.5 -133.5 q0 -55 -35.5 -98t-102.5 -62q89 -22 131 -72.5t42 -118.5q0 -93 -79 -162t-225 -69q-140 0 -214 55.5t-95 158.5z" />
<glyph unicode="&#xb4;" horiz-adv-x="682" d="M222 1194l133 280h236l-220 -280h-149z" />
<glyph unicode="&#xb5;" horiz-adv-x="1180" d="M160 -407v1469h178v-450q0 -245 26 -317.5t84.5 -114.5t134.5 -42q80 0 143 44t89 113.5t26 313.5v453h177v-1062h-161v126q-52 -80 -103 -110q-70 -41 -163 -41q-83 0 -147 33q-48 25 -106 99v-514h-178z" />
<glyph unicode="&#xb6;" horiz-adv-x="1100" d="M1 1044q0 193 120.5 307.5t352.5 114.5h633v-173h-144v-1700h-170v1700h-223v-1700h-165v1045q-187 10 -295.5 121.5t-108.5 284.5z" />
<glyph unicode="&#xb7;" horiz-adv-x="569" d="M185 619v205h205v-205h-205z" />
<glyph unicode="&#xb8;" horiz-adv-x="682" d="M107 -409l11 117q64 -4 94 -4q94 0 132 26q29 20 29 49q0 18 -11.5 32t-42.5 24t-103 11l52 177h134l-33 -107q85 -10 128 -52.5t43 -94.5q0 -75 -72 -132.5t-217 -57.5q-82 0 -144 12z" />
<glyph unicode="&#xb9;" horiz-adv-x="682" d="M107 1174v123q62 20 138 73t123 114h108v-751h-145v554q-102 -81 -224 -113z" />
<glyph unicode="&#xba;" horiz-adv-x="748" d="M45 1111q0 180 91.5 280t236.5 100t236.5 -100t91.5 -276q0 -175 -92 -275t-235 -100q-145 0 -237 98t-92 273zM193 1115q0 -126 50.5 -184.5t129.5 -58.5q80 0 130 58.5t50 189.5q0 122 -50.5 180t-129.5 58q-81 0 -130.5 -57t-49.5 -186z" />
<glyph unicode="&#xbb;" horiz-adv-x="1139" d="M140 72l264 456l-264 456h151l314 -456l-314 -456h-151zM530 984h148l319 -456l-319 -456h-147l260 456z" />
<glyph unicode="&#xbc;" horiz-adv-x="1708" d="M107 1174v123q62 20 138 73t123 114h108v-751h-145v554q-102 -81 -224 -113zM252 -57l1102 1548h156l-1101 -1548h-157zM1047 123v123l405 474h122v-489h104v-108h-104v-154h-144v154h-383zM1200 231h230v263z" />
<glyph unicode="&#xbd;" horiz-adv-x="1708" d="M107 1174v123q62 20 138 73t123 114h108v-751h-145v554q-102 -81 -224 -113zM228 -57l1101 1548h157l-1101 -1548h-157zM1049 -31q6 56 48 113q62 87 206 191t171 135q37 41 37 84q0 48 -34.5 78.5t-103.5 30.5q-66 0 -98.5 -23.5t-53.5 -89.5l-151 15q29 112 101 164.5 t205 52.5q151 0 221.5 -59t70.5 -144q0 -84 -59 -159q-45 -56 -204 -172q-84 -61 -119 -96h386v-121h-623z" />
<glyph unicode="&#xbe;" horiz-adv-x="1708" d="M33 929l146 15q20 -60 52 -82q43 -30 102 -30q71 0 114 39t43 94q0 50 -36 80t-120 30q-50 -3 -58 -3l22 110q81 -1 118.5 29t37.5 73q0 37 -30 63t-89 26q-56 0 -87.5 -22t-54.5 -80l-143 23q41 106 103.5 148t182.5 42q144 0 209.5 -53.5t65.5 -133.5q0 -55 -35.5 -98 t-102.5 -62q89 -22 131 -72.5t42 -118.5q0 -93 -79 -162t-225 -69q-140 0 -214 55.5t-95 158.5zM252 -57l1101 1548h157l-1101 -1548h-157zM1047 123v123l404 474h123v-489h104v-108h-104v-154h-145v154h-382zM1200 231h229v263z" />
<glyph unicode="&#xbf;" horiz-adv-x="1251" d="M158 -29q0 97 44.5 177t175.5 196q89 79 116 116t39.5 85t14.5 156h173q1 -34 1 -51q0 -110 -30 -187q-22 -58 -71 -117q-36 -43 -129.5 -125t-121 -131t-27.5 -107q0 -106 82 -185t201 -79q114 0 191.5 72t101.5 224l184 -21q-25 -203 -148.5 -313t-325.5 -110 q-216 0 -343.5 117t-127.5 283zM528 857v205h205v-205h-205z" />
<glyph unicode="&#xc0;" horiz-adv-x="1366" d="M-3 0l563 1466h209l600 -1466h-221l-171 444h-613l-161 -444h-206zM420 602h497l-153 406q-70 185 -104 304q-28 -141 -79 -280zM448 1836h241l135 -280h-145z" />
<glyph unicode="&#xc1;" horiz-adv-x="1366" d="M-3 0l563 1466h209l600 -1466h-221l-171 444h-613l-161 -444h-206zM420 602h497l-153 406q-70 185 -104 304q-28 -141 -79 -280zM541 1556l133 280h236l-220 -280h-149z" />
<glyph unicode="&#xc2;" horiz-adv-x="1366" d="M-3 0l563 1466h209l600 -1466h-221l-171 444h-613l-161 -444h-206zM345 1556l216 280h192l225 -280h-204l-110 170l-113 -170h-206zM420 602h497l-153 406q-70 185 -104 304q-28 -141 -79 -280z" />
<glyph unicode="&#xc3;" horiz-adv-x="1366" d="M-3 0l563 1466h209l600 -1466h-221l-171 444h-613l-161 -444h-206zM349 1556q-1 104 57 166q57 62 146 62q62 0 169 -54q59 -30 94 -30q32 0 49 17.5t24 69.5h130q-3 -114 -57.5 -171t-138.5 -57q-63 0 -166 56q-67 36 -98 36q-34 0 -55 -24q-22 -24 -21 -71h-133z M420 602h497l-153 406q-70 185 -104 304q-28 -141 -79 -280z" />
<glyph unicode="&#xc4;" horiz-adv-x="1366" d="M-3 0l563 1466h209l600 -1466h-221l-171 444h-613l-161 -444h-206zM379 1556v205h188v-205h-188zM420 602h497l-153 406q-70 185 -104 304q-28 -141 -79 -280zM752 1556v205h188v-205h-188z" />
<glyph unicode="&#xc5;" horiz-adv-x="1366" d="M-3 0l563 1466h209l600 -1466h-221l-171 444h-613l-161 -444h-206zM420 602h497l-153 406q-70 185 -104 304q-28 -141 -79 -280zM481 1601q0 73 53.5 126t126.5 53q74 0 127 -53.5t53 -129.5q0 -77 -53 -130t-126 -53q-75 0 -128 53.5t-53 133.5zM557 1600 q0 -47 31.5 -79t74.5 -32t74.5 32t31.5 77t-31 77t-75 32q-43 0 -74.5 -31.5t-31.5 -75.5z" />
<glyph unicode="&#xc6;" horiz-adv-x="2048" d="M1 0l705 1466h1203v-173h-737v-451h685v-172h-685v-497h764v-173h-959v423h-566l-200 -423h-210zM493 595h484v698h-145z" />
<glyph unicode="&#xc7;" horiz-adv-x="1479" d="M102 744q0 229 87.5 399.5t249 259t355.5 88.5q220 0 370 -112t209 -315l-191 -45q-51 160 -148 233t-244 73q-169 0 -282.5 -81t-159.5 -217.5t-46 -281.5q0 -187 54.5 -326.5t169.5 -208.5t249 -69q163 0 276 94t153 279l194 -49q-61 -239 -219.5 -364.5t-387.5 -125.5 q-237 0 -385.5 96.5t-226 279.5t-77.5 393zM511 -409l11 117q64 -4 94 -4q94 0 132 26q29 20 29 49q0 18 -11.5 32t-42.5 24t-103 11l52 177h134l-33 -107q85 -10 128 -52.5t43 -94.5q0 -75 -72 -132.5t-217 -57.5q-82 0 -144 12z" />
<glyph unicode="&#xc8;" horiz-adv-x="1366" d="M162 0v1466h1060v-173h-866v-449h811v-172h-811v-499h900v-173h-1094zM474 1836h241l135 -280h-145z" />
<glyph unicode="&#xc9;" horiz-adv-x="1366" d="M162 0v1466h1060v-173h-866v-449h811v-172h-811v-499h900v-173h-1094zM562 1556l133 280h236l-220 -280h-149z" />
<glyph unicode="&#xca;" horiz-adv-x="1366" d="M162 0v1466h1060v-173h-866v-449h811v-172h-811v-499h900v-173h-1094zM388 1556l216 280h192l225 -280h-204l-110 170l-113 -170h-206z" />
<glyph unicode="&#xcb;" horiz-adv-x="1366" d="M162 0v1466h1060v-173h-866v-449h811v-172h-811v-499h900v-173h-1094zM425 1556v205h188v-205h-188zM798 1556v205h188v-205h-188z" />
<glyph unicode="&#xcc;" horiz-adv-x="569" d="M55 1836h241l135 -280h-145zM191 0v1466h194v-1466h-194z" />
<glyph unicode="&#xcd;" horiz-adv-x="569" d="M142 1556l133 280h236l-220 -280h-149zM191 0v1466h194v-1466h-194z" />
<glyph unicode="&#xce;" horiz-adv-x="569" d="M-31 1556l216 280h192l225 -280h-204l-110 170l-113 -170h-206zM191 0v1466h194v-1466h-194z" />
<glyph unicode="&#xcf;" horiz-adv-x="569" d="M5 1556v205h188v-205h-188zM191 0v1466h194v-1466h-194zM378 1556v205h188v-205h-188z" />
<glyph unicode="&#xd0;" horiz-adv-x="1479" d="M-3 667v132h161v667h506q170 0 260 -21q126 -29 215 -105q116 -98 173.5 -250.5t57.5 -348.5q0 -224 -71 -385.5t-170 -234.5t-228 -104q-71 -17 -214 -17h-529v667h-161zM352 173h313q146 0 228 27t130 75q69 69 108 185t39 283q0 172 -38.5 275t-100.5 165t-138 86 t-233 24h-308v-494h404v-132h-404v-494z" />
<glyph unicode="&#xd1;" horiz-adv-x="1479" d="M156 0v1466h199l770 -1151v1151h186v-1466h-199l-770 1152v-1152h-186zM430 1556q-1 104 57 166q57 62 146 62q62 0 169 -54q59 -30 94 -30q32 0 49 17.5t24 69.5h130q-3 -114 -57.5 -171t-138.5 -57q-63 0 -166 56q-67 36 -98 36q-34 0 -55 -24q-22 -24 -21 -71h-133z " />
<glyph unicode="&#xd2;" horiz-adv-x="1593" d="M99 714q0 365 196 571.5t506 206.5q203 0 366 -97t248.5 -270.5t85.5 -393.5q0 -223 -90 -399t-255 -266.5t-356 -90.5q-207 0 -370 100t-247 273t-84 366zM299 711q0 -265 142.5 -417.5t357.5 -152.5q219 0 360.5 154t141.5 437q0 179 -60.5 312.5t-177 207t-261.5 73.5 q-206 0 -354.5 -141.5t-148.5 -472.5zM540 1836h241l135 -280h-145z" />
<glyph unicode="&#xd3;" horiz-adv-x="1593" d="M99 714q0 365 196 571.5t506 206.5q203 0 366 -97t248.5 -270.5t85.5 -393.5q0 -223 -90 -399t-255 -266.5t-356 -90.5q-207 0 -370 100t-247 273t-84 366zM299 711q0 -265 142.5 -417.5t357.5 -152.5q219 0 360.5 154t141.5 437q0 179 -60.5 312.5t-177 207t-261.5 73.5 q-206 0 -354.5 -141.5t-148.5 -472.5zM677 1556l133 280h236l-220 -280h-149z" />
<glyph unicode="&#xd4;" horiz-adv-x="1593" d="M99 714q0 365 196 571.5t506 206.5q203 0 366 -97t248.5 -270.5t85.5 -393.5q0 -223 -90 -399t-255 -266.5t-356 -90.5q-207 0 -370 100t-247 273t-84 366zM299 711q0 -265 142.5 -417.5t357.5 -152.5q219 0 360.5 154t141.5 437q0 179 -60.5 312.5t-177 207t-261.5 73.5 q-206 0 -354.5 -141.5t-148.5 -472.5zM479 1556l216 280h192l225 -280h-204l-110 170l-113 -170h-206z" />
<glyph unicode="&#xd5;" horiz-adv-x="1593" d="M99 714q0 365 196 571.5t506 206.5q203 0 366 -97t248.5 -270.5t85.5 -393.5q0 -223 -90 -399t-255 -266.5t-356 -90.5q-207 0 -370 100t-247 273t-84 366zM299 711q0 -265 142.5 -417.5t357.5 -152.5q219 0 360.5 154t141.5 437q0 179 -60.5 312.5t-177 207t-261.5 73.5 q-206 0 -354.5 -141.5t-148.5 -472.5zM466 1556q-1 104 57 166q57 62 146 62q62 0 169 -54q59 -30 94 -30q32 0 49 17.5t24 69.5h130q-3 -114 -57.5 -171t-138.5 -57q-63 0 -166 56q-67 36 -98 36q-34 0 -55 -24q-22 -24 -21 -71h-133z" />
<glyph unicode="&#xd6;" horiz-adv-x="1593" d="M99 714q0 365 196 571.5t506 206.5q203 0 366 -97t248.5 -270.5t85.5 -393.5q0 -223 -90 -399t-255 -266.5t-356 -90.5q-207 0 -370 100t-247 273t-84 366zM299 711q0 -265 142.5 -417.5t357.5 -152.5q219 0 360.5 154t141.5 437q0 179 -60.5 312.5t-177 207t-261.5 73.5 q-206 0 -354.5 -141.5t-148.5 -472.5zM516 1556v205h188v-205h-188zM889 1556v205h188v-205h-188z" />
<glyph unicode="&#xd7;" horiz-adv-x="1196" d="M161 409l315 315l-314 314l122 122l314 -314l313 313l120 -121l-312 -313l314 -314l-122 -122l-314 314l-315 -315z" />
<glyph unicode="&#xd8;" horiz-adv-x="1593" d="M83 25l176 197q-98 149 -131 254.5t-33 253.5q0 226 90 402.5t252.5 267.5t361.5 91q134 0 234.5 -35.5t216.5 -123.5l168 188l99 -84l-176 -198q86 -128 116 -224q40 -126 40 -282q0 -225 -91 -401t-255.5 -266t-349.5 -90q-138 0 -250 39q-86 30 -201 115l-168 -188z M295 733q0 -116 22 -206q16 -67 67 -165l746 835q-94 74 -164.5 101t-165.5 27q-219 0 -362 -148.5t-143 -443.5zM469 262q77 -63 142 -88q85 -33 184 -33q218 0 360 154t142 432q0 208 -85 367z" />
<glyph unicode="&#xd9;" horiz-adv-x="1479" d="M161 619v847h194v-846q0 -191 35.5 -281.5t122 -139.5t211.5 -49q214 0 305 97t91 373v846h194v-847q0 -221 -50 -351t-180.5 -211.5t-342.5 -81.5q-206 0 -337 71t-187 205.5t-56 367.5zM478 1836h241l135 -280h-145z" />
<glyph unicode="&#xda;" horiz-adv-x="1479" d="M161 619v847h194v-846q0 -191 35.5 -281.5t122 -139.5t211.5 -49q214 0 305 97t91 373v846h194v-847q0 -221 -50 -351t-180.5 -211.5t-342.5 -81.5q-206 0 -337 71t-187 205.5t-56 367.5zM614 1556l133 280h236l-220 -280h-149z" />
<glyph unicode="&#xdb;" horiz-adv-x="1479" d="M161 619v847h194v-846q0 -191 35.5 -281.5t122 -139.5t211.5 -49q214 0 305 97t91 373v846h194v-847q0 -221 -50 -351t-180.5 -211.5t-342.5 -81.5q-206 0 -337 71t-187 205.5t-56 367.5zM417 1556l216 280h192l225 -280h-204l-110 170l-113 -170h-206z" />
<glyph unicode="&#xdc;" horiz-adv-x="1479" d="M161 619v847h194v-846q0 -191 35.5 -281.5t122 -139.5t211.5 -49q214 0 305 97t91 373v846h194v-847q0 -221 -50 -351t-180.5 -211.5t-342.5 -81.5q-206 0 -337 71t-187 205.5t-56 367.5zM454 1556v205h188v-205h-188zM827 1556v205h188v-205h-188z" />
<glyph unicode="&#xdd;" horiz-adv-x="1366" d="M6 1466h236l289 -442q80 -124 149 -248q66 115 160 259l284 431h226l-585 -845v-621h-194v621zM555 1556l133 280h236l-220 -280h-149z" />
<glyph unicode="&#xde;" horiz-adv-x="1366" d="M158 0v1466h194v-298h359q146 0 224 -14q108 -19 181 -69.5t117 -141.5t44 -200q0 -186 -119 -315.5t-430 -129.5h-376v-298h-194zM352 471h379q188 0 267 70t79 196q0 91 -46 157t-122 87q-49 14 -182 14h-375v-524z" />
<glyph unicode="&#xdf;" horiz-adv-x="1251" d="M153 0v999q0 183 44.5 281.5t148.5 154.5t234 56q173 0 272 -86.5t99 -200.5q0 -51 -18 -105t-64 -134.5t-58 -112t-12 -55.5q0 -32 22 -63q21 -32 121 -97q136 -89 181 -143q64 -77 64 -182q0 -139 -102.5 -238t-262.5 -99q-126 0 -221 67.5t-142 173.5l155 72 q50 -93 100 -129t105 -36q76 0 130 52t54 122q0 56 -32 96q-21 26 -112 88q-166 114 -205 171q-40 57 -40 117q0 39 13.5 79t65 128t67.5 132t16 78q0 62 -54.5 109.5t-145.5 47.5q-107 0 -175 -66t-68 -286v-991h-180z" />
<glyph unicode="&#xe0;" horiz-adv-x="1139" d="M74 280q0 78 35.5 142.5t93 103.5t129.5 59q53 14 160 27q218 26 321 62q1 37 1 47q0 110 -51 155q-69 61 -205 61q-127 0 -187.5 -44.5t-89.5 -157.5l-176 24q24 113 79 182.5t159 107t241 37.5q136 0 221 -32t125 -80.5t56 -122.5q9 -46 9 -166v-240 q0 -251 11.5 -317.5t45.5 -127.5h-188q-28 56 -36 131q-100 -85 -192.5 -120t-198.5 -35q-175 0 -269 85.5t-94 218.5zM266 285q0 -72 54.5 -120t159.5 -48q104 0 185 45.5t119 124.5q29 61 29 180v66q-98 -40 -294 -68q-111 -16 -157 -36t-71 -58.5t-25 -85.5zM339 1474 h241l135 -280h-145z" />
<glyph unicode="&#xe1;" horiz-adv-x="1139" d="M74 280q0 78 35.5 142.5t93 103.5t129.5 59q53 14 160 27q218 26 321 62q1 37 1 47q0 110 -51 155q-69 61 -205 61q-127 0 -187.5 -44.5t-89.5 -157.5l-176 24q24 113 79 182.5t159 107t241 37.5q136 0 221 -32t125 -80.5t56 -122.5q9 -46 9 -166v-240 q0 -251 11.5 -317.5t45.5 -127.5h-188q-28 56 -36 131q-100 -85 -192.5 -120t-198.5 -35q-175 0 -269 85.5t-94 218.5zM266 285q0 -72 54.5 -120t159.5 -48q104 0 185 45.5t119 124.5q29 61 29 180v66q-98 -40 -294 -68q-111 -16 -157 -36t-71 -58.5t-25 -85.5zM463 1194 l133 280h236l-220 -280h-149z" />
<glyph unicode="&#xe2;" horiz-adv-x="1139" d="M74 280q0 78 35.5 142.5t93 103.5t129.5 59q53 14 160 27q218 26 321 62q1 37 1 47q0 110 -51 155q-69 61 -205 61q-127 0 -187.5 -44.5t-89.5 -157.5l-176 24q24 113 79 182.5t159 107t241 37.5q136 0 221 -32t125 -80.5t56 -122.5q9 -46 9 -166v-240 q0 -251 11.5 -317.5t45.5 -127.5h-188q-28 56 -36 131q-100 -85 -192.5 -120t-198.5 -35q-175 0 -269 85.5t-94 218.5zM247 1194l216 280h192l225 -280h-204l-110 170l-113 -170h-206zM266 285q0 -72 54.5 -120t159.5 -48q104 0 185 45.5t119 124.5q29 61 29 180v66 q-98 -40 -294 -68q-111 -16 -157 -36t-71 -58.5t-25 -85.5z" />
<glyph unicode="&#xe3;" horiz-adv-x="1139" d="M74 280q0 78 35.5 142.5t93 103.5t129.5 59q53 14 160 27q218 26 321 62q1 37 1 47q0 110 -51 155q-69 61 -205 61q-127 0 -187.5 -44.5t-89.5 -157.5l-176 24q24 113 79 182.5t159 107t241 37.5q136 0 221 -32t125 -80.5t56 -122.5q9 -46 9 -166v-240 q0 -251 11.5 -317.5t45.5 -127.5h-188q-28 56 -36 131q-100 -85 -192.5 -120t-198.5 -35q-175 0 -269 85.5t-94 218.5zM229 1219q-1 104 57 166q57 62 146 62q62 0 169 -54q59 -30 94 -30q32 0 49 17.5t24 69.5h130q-3 -114 -57.5 -171t-138.5 -57q-63 0 -166 56 q-67 36 -98 36q-34 0 -55 -24q-22 -24 -21 -71h-133zM266 285q0 -72 54.5 -120t159.5 -48q104 0 185 45.5t119 124.5q29 61 29 180v66q-98 -40 -294 -68q-111 -16 -157 -36t-71 -58.5t-25 -85.5z" />
<glyph unicode="&#xe4;" horiz-adv-x="1139" d="M74 280q0 78 35.5 142.5t93 103.5t129.5 59q53 14 160 27q218 26 321 62q1 37 1 47q0 110 -51 155q-69 61 -205 61q-127 0 -187.5 -44.5t-89.5 -157.5l-176 24q24 113 79 182.5t159 107t241 37.5q136 0 221 -32t125 -80.5t56 -122.5q9 -46 9 -166v-240 q0 -251 11.5 -317.5t45.5 -127.5h-188q-28 56 -36 131q-100 -85 -192.5 -120t-198.5 -35q-175 0 -269 85.5t-94 218.5zM266 285q0 -72 54.5 -120t159.5 -48q104 0 185 45.5t119 124.5q29 61 29 180v66q-98 -40 -294 -68q-111 -16 -157 -36t-71 -58.5t-25 -85.5zM283 1270 v205h188v-205h-188zM656 1270v205h188v-205h-188z" />
<glyph unicode="&#xe5;" horiz-adv-x="1139" d="M74 280q0 78 35.5 142.5t93 103.5t129.5 59q53 14 160 27q218 26 321 62q1 37 1 47q0 110 -51 155q-69 61 -205 61q-127 0 -187.5 -44.5t-89.5 -157.5l-176 24q24 113 79 182.5t159 107t241 37.5q136 0 221 -32t125 -80.5t56 -122.5q9 -46 9 -166v-240 q0 -251 11.5 -317.5t45.5 -127.5h-188q-28 56 -36 131q-100 -85 -192.5 -120t-198.5 -35q-175 0 -269 85.5t-94 218.5zM266 285q0 -72 54.5 -120t159.5 -48q104 0 185 45.5t119 124.5q29 61 29 180v66q-98 -40 -294 -68q-111 -16 -157 -36t-71 -58.5t-25 -85.5zM383 1338 q0 73 53.5 126t126.5 53q74 0 127 -53.5t53 -129.5q0 -77 -53 -130t-126 -53q-75 0 -128 53.5t-53 133.5zM459 1337q0 -47 31.5 -79t74.5 -32t74.5 32t31.5 77t-31 77t-75 32q-43 0 -74.5 -31.5t-31.5 -75.5z" />
<glyph unicode="&#xe6;" horiz-adv-x="1821" d="M68 280q0 86 49.5 161.5t138 114.5t282.5 64q150 20 252 49q1 25 1 41q0 126 -52.5 176.5t-183.5 50.5q-87 0 -147 -21t-88.5 -59.5t-47.5 -123.5l-175 21q28 117 80.5 185.5t150.5 107.5t229 39q167 0 269 -50q59 -29 99 -93q64 70 145 106.5t196 36.5q162 0 268 -78.5 t155 -207.5t49 -254q0 -19 -2 -61h-767q2 -144 35.5 -209t107 -108.5t161.5 -43.5q103 0 174.5 59t98.5 166l188 -24q-50 -167 -170 -258t-298 -91q-127 0 -222.5 48t-172.5 150q-104 -102 -210.5 -150t-229.5 -48q-172 0 -267.5 88.5t-95.5 215.5zM259 286q0 -71 53 -119.5 t154 -48.5q115 0 200.5 57t111.5 142q15 52 15 216q-79 -34 -322 -73q-109 -17 -153 -51q-59 -47 -59 -123zM969 633h584q-14 158 -90 231t-198 73q-126 0 -206.5 -80t-89.5 -224z" />
<glyph unicode="&#xe7;" horiz-adv-x="1024" d="M80 527q0 172 57 301t173.5 193.5t253.5 64.5q173 0 283 -87.5t141 -248.5l-175 -27q-25 107 -88.5 161t-153.5 54q-136 0 -221 -97.5t-85 -308.5q0 -214 82 -311t214 -97q106 0 177 65t90 200l177 -23q-29 -183 -148.5 -286.5t-293.5 -103.5q-218 0 -350.5 142.5 t-132.5 408.5zM302 -389l11 117q64 -4 94 -4q94 0 132 26q29 20 29 49q0 18 -11.5 32t-42.5 24t-103 11l52 177h134l-33 -107q85 -10 128 -52.5t43 -94.5q0 -75 -72 -132.5t-217 -57.5q-82 0 -144 12z" />
<glyph unicode="&#xe8;" horiz-adv-x="1139" d="M75 522q0 268 138 416t358 148q213 0 348 -145t135 -408q0 -16 -1 -48h-792q10 -175 99 -268t222 -93q99 0 169 52t111 166l186 -23q-44 -163 -163 -253t-304 -90q-233 0 -369.5 143.5t-136.5 402.5zM271 633h593q-12 134 -68 201q-86 104 -223 104q-124 0 -208.5 -83 t-93.5 -222zM310 1474h241l135 -280h-145z" />
<glyph unicode="&#xe9;" horiz-adv-x="1139" d="M75 522q0 268 138 416t358 148q213 0 348 -145t135 -408q0 -16 -1 -48h-792q10 -175 99 -268t222 -93q99 0 169 52t111 166l186 -23q-44 -163 -163 -253t-304 -90q-233 0 -369.5 143.5t-136.5 402.5zM271 633h593q-12 134 -68 201q-86 104 -223 104q-124 0 -208.5 -83 t-93.5 -222zM465 1194l133 280h236l-220 -280h-149z" />
<glyph unicode="&#xea;" horiz-adv-x="1139" d="M75 522q0 268 138 416t358 148q213 0 348 -145t135 -408q0 -16 -1 -48h-792q10 -175 99 -268t222 -93q99 0 169 52t111 166l186 -23q-44 -163 -163 -253t-304 -90q-233 0 -369.5 143.5t-136.5 402.5zM248 1194l216 280h192l225 -280h-204l-110 170l-113 -170h-206z M271 633h593q-12 134 -68 201q-86 104 -223 104q-124 0 -208.5 -83t-93.5 -222z" />
<glyph unicode="&#xeb;" horiz-adv-x="1139" d="M75 522q0 268 138 416t358 148q213 0 348 -145t135 -408q0 -16 -1 -48h-792q10 -175 99 -268t222 -93q99 0 169 52t111 166l186 -23q-44 -163 -163 -253t-304 -90q-233 0 -369.5 143.5t-136.5 402.5zM271 633h593q-12 134 -68 201q-86 104 -223 104q-124 0 -208.5 -83 t-93.5 -222zM284 1270v205h188v-205h-188zM657 1270v205h188v-205h-188z" />
<glyph unicode="&#xec;" horiz-adv-x="569" d="M35 1474h241l135 -280h-145zM198 0v1062h180v-1062h-180z" />
<glyph unicode="&#xed;" horiz-adv-x="569" d="M189 1194l133 280h236l-220 -280h-149zM198 0v1062h180v-1062h-180z" />
<glyph unicode="&#xee;" horiz-adv-x="569" d="M-17 1194l216 280h192l225 -280h-204l-110 170l-113 -170h-206zM198 0v1062h180v-1062h-180z" />
<glyph unicode="&#xef;" horiz-adv-x="569" d="M9 1270v205h188v-205h-188zM198 0v1062h180v-1062h-180zM382 1270v205h188v-205h-188z" />
<glyph unicode="&#xf0;" horiz-adv-x="1139" d="M73 517q0 261 129 403t323 142q58 0 102 -12t110 -47q-36 73 -63 113.5t-79 99.5l-275 -127l-44 103l239 109q-97 90 -207 165h217q72 -54 125 -102l214 102l45 -102l-172 -83q320 -368 320 -760q0 -253 -139 -399.5t-354 -146.5q-255 0 -398 194q-93 127 -93 348z M257 512q0 -194 87.5 -292t218.5 -98q128 0 217.5 103.5t89.5 303.5q0 192 -90.5 293.5t-222.5 101.5q-130 0 -215 -101.5t-85 -310.5z" />
<glyph unicode="&#xf1;" horiz-adv-x="1139" d="M135 0v1062h162v-151q117 175 338 175q96 0 176.5 -34.5t120.5 -90.5t56 -133q10 -50 10 -175v-653h-180v646q0 110 -21 164.5t-74.5 87t-125.5 32.5q-115 0 -198.5 -73t-83.5 -277v-580h-180zM262 1219q-1 104 57 166q57 62 146 62q62 0 169 -54q59 -30 94 -30 q32 0 49 17.5t24 69.5h130q-3 -114 -57.5 -171t-138.5 -57q-63 0 -166 56q-67 36 -98 36q-34 0 -55 -24q-22 -24 -21 -71h-133z" />
<glyph unicode="&#xf2;" horiz-adv-x="1139" d="M68 531q0 295 164 437q137 118 334 118q219 0 358 -143.5t139 -396.5q0 -205 -61.5 -322.5t-179 -182.5t-256.5 -65q-223 0 -360.5 143t-137.5 412zM253 531q0 -204 89 -305.5t224 -101.5q134 0 223 102t89 311q0 197 -89.5 298.5t-222.5 101.5q-135 0 -224 -101 t-89 -305zM311 1474h241l135 -280h-145z" />
<glyph unicode="&#xf3;" horiz-adv-x="1139" d="M68 531q0 295 164 437q137 118 334 118q219 0 358 -143.5t139 -396.5q0 -205 -61.5 -322.5t-179 -182.5t-256.5 -65q-223 0 -360.5 143t-137.5 412zM253 531q0 -204 89 -305.5t224 -101.5q134 0 223 102t89 311q0 197 -89.5 298.5t-222.5 101.5q-135 0 -224 -101 t-89 -305zM466 1194l133 280h236l-220 -280h-149z" />
<glyph unicode="&#xf4;" horiz-adv-x="1139" d="M68 531q0 295 164 437q137 118 334 118q219 0 358 -143.5t139 -396.5q0 -205 -61.5 -322.5t-179 -182.5t-256.5 -65q-223 0 -360.5 143t-137.5 412zM249 1194l216 280h192l225 -280h-204l-110 170l-113 -170h-206zM253 531q0 -204 89 -305.5t224 -101.5q134 0 223 102 t89 311q0 197 -89.5 298.5t-222.5 101.5q-135 0 -224 -101t-89 -305z" />
<glyph unicode="&#xf5;" horiz-adv-x="1139" d="M68 531q0 295 164 437q137 118 334 118q219 0 358 -143.5t139 -396.5q0 -205 -61.5 -322.5t-179 -182.5t-256.5 -65q-223 0 -360.5 143t-137.5 412zM231 1219q-1 104 57 166q57 62 146 62q62 0 169 -54q59 -30 94 -30q32 0 49 17.5t24 69.5h130q-3 -114 -57.5 -171 t-138.5 -57q-63 0 -166 56q-67 36 -98 36q-34 0 -55 -24q-22 -24 -21 -71h-133zM253 531q0 -204 89 -305.5t224 -101.5q134 0 223 102t89 311q0 197 -89.5 298.5t-222.5 101.5q-135 0 -224 -101t-89 -305z" />
<glyph unicode="&#xf6;" horiz-adv-x="1139" d="M68 531q0 295 164 437q137 118 334 118q219 0 358 -143.5t139 -396.5q0 -205 -61.5 -322.5t-179 -182.5t-256.5 -65q-223 0 -360.5 143t-137.5 412zM253 531q0 -204 89 -305.5t224 -101.5q134 0 223 102t89 311q0 197 -89.5 298.5t-222.5 101.5q-135 0 -224 -101 t-89 -305zM285 1270v205h188v-205h-188zM658 1270v205h188v-205h-188z" />
<glyph unicode="&#xf7;" horiz-adv-x="1124" d="M78 639v168h968v-168h-968zM459 319v205h205v-205h-205zM459 922v205h205v-205h-205z" />
<glyph unicode="&#xf8;" horiz-adv-x="1251" d="M129 516q0 301 147 435.5t345 134.5q82 0 151 -21t147 -66l99 128l96 -70l-107 -138q63 -86 86 -156q31 -100 31 -233q0 -300 -169 -441q-137 -113 -330 -113q-159 0 -281 80l-105 -135l-94 71l108 141q-59 68 -84 136q-40 109 -40 247zM314 531q0 -150 52 -251l452 587 q-91 70 -191 70q-133 0 -223 -102t-90 -304zM444 187q78 -63 176 -63q139 0 229.5 102t90.5 306q0 76 -12 133q-8 42 -35 105z" />
<glyph unicode="&#xf9;" horiz-adv-x="1139" d="M131 404v658h180v-589q0 -141 11 -190q17 -71 72 -111.5t136 -40.5t152 41.5t100.5 113t29.5 207.5v569h180v-1062h-161v156q-124 -180 -337 -180q-94 0 -175.5 36t-121 90.5t-55.5 133.5q-11 53 -11 168zM352 1474h241l135 -280h-145z" />
<glyph unicode="&#xfa;" horiz-adv-x="1139" d="M131 404v658h180v-589q0 -141 11 -190q17 -71 72 -111.5t136 -40.5t152 41.5t100.5 113t29.5 207.5v569h180v-1062h-161v156q-124 -180 -337 -180q-94 0 -175.5 36t-121 90.5t-55.5 133.5q-11 53 -11 168zM453 1194l133 280h236l-220 -280h-149z" />
<glyph unicode="&#xfb;" horiz-adv-x="1139" d="M131 404v658h180v-589q0 -141 11 -190q17 -71 72 -111.5t136 -40.5t152 41.5t100.5 113t29.5 207.5v569h180v-1062h-161v156q-124 -180 -337 -180q-94 0 -175.5 36t-121 90.5t-55.5 133.5q-11 53 -11 168zM245 1194l216 280h192l225 -280h-204l-110 170l-113 -170h-206z " />
<glyph unicode="&#xfc;" horiz-adv-x="1139" d="M131 404v658h180v-589q0 -141 11 -190q17 -71 72 -111.5t136 -40.5t152 41.5t100.5 113t29.5 207.5v569h180v-1062h-161v156q-124 -180 -337 -180q-94 0 -175.5 36t-121 90.5t-55.5 133.5q-11 53 -11 168zM281 1270v205h188v-205h-188zM654 1270v205h188v-205h-188z" />
<glyph unicode="&#xfd;" horiz-adv-x="1024" d="M33 1062h194l221 -615q43 -117 77 -246q31 124 74 242l227 619h180l-404 -1080q-65 -175 -101 -241q-48 -89 -110 -130.5t-148 -41.5q-52 0 -116 22l-20 169q59 -16 103 -16q60 0 96 20t59 56q17 27 55 134q5 15 16 44zM420 1194l133 280h236l-220 -280h-149z" />
<glyph unicode="&#xfe;" horiz-adv-x="1139" d="M135 -407v1873h180v-516q73 77 128 102q72 34 164 34q136 0 240 -70t157 -197.5t53 -279.5q0 -164 -58.5 -294t-170 -199.5t-233.5 -69.5q-83 0 -154 33q-54 26 -126 101v-517h-180zM298 525q0 -205 83 -303t201 -98q120 0 205.5 101.5t85.5 314.5q0 203 -83.5 304 t-199.5 101q-115 0 -203.5 -107.5t-88.5 -312.5z" />
<glyph unicode="&#xff;" horiz-adv-x="1024" d="M33 1062h194l221 -615q43 -117 77 -246q31 124 74 242l227 619h180l-404 -1080q-65 -175 -101 -241q-48 -89 -110 -130.5t-148 -41.5q-52 0 -116 22l-20 169q59 -16 103 -16q60 0 96 20t59 56q17 27 55 134q5 15 16 44zM243 1270v205h188v-205h-188zM616 1270v205h188 v-205h-188z" />
<glyph unicode="&#x2c6;" horiz-adv-x="682" d="M25 1194l216 280h192l225 -280h-204l-110 170l-113 -170h-206z" />
<glyph unicode="&#x2c7;" horiz-adv-x="682" d="M40 1474h206l113 -170l110 170h204l-225 -280h-192z" />
<glyph unicode="&#x2c9;" horiz-adv-x="682" d="M29 1227v148h624v-148h-624z" />
<glyph unicode="&#x2d8;" horiz-adv-x="682" d="M46 1464h123q14 -68 55.5 -101.5t111.5 -33.5q81 0 122.5 32.5t55.5 102.5h123q-15 -125 -91.5 -192t-203.5 -67q-128 0 -204.5 66.5t-91.5 192.5z" />
<glyph unicode="&#x2d9;" horiz-adv-x="682" d="M229 1194v224h223v-224h-223z" />
<glyph unicode="&#x2da;" horiz-adv-x="682" d="M162 1338q0 73 53.5 126t126.5 53q74 0 127 -53.5t53 -129.5q0 -77 -53 -130t-126 -53q-75 0 -128 53.5t-53 133.5zM238 1337q0 -47 31.5 -79t74.5 -32t74.5 32t31.5 77t-31 77t-75 32q-43 0 -74.5 -31.5t-31.5 -75.5z" />
<glyph unicode="&#x2db;" horiz-adv-x="682" d="M183 -205q0 86 41 229h124q-39 -89 -39 -164q0 -68 41 -110t103 -42q77 0 168 46v-119q-52 -27 -113 -44t-106 -17q-99 0 -159 60t-60 161z" />
<glyph unicode="&#x2dc;" horiz-adv-x="682" d="M7 1219q-1 104 57 166q57 62 146 62q62 0 169 -54q59 -30 94 -30q32 0 49 17.5t24 69.5h130q-3 -114 -57.5 -171t-138.5 -57q-63 0 -166 56q-67 36 -98 36q-34 0 -55 -24q-22 -24 -21 -71h-133z" />
<glyph unicode="&#x2dd;" horiz-adv-x="682" d="M58 1194l121 280h234l-211 -280h-144zM405 1194l127 280h231l-207 -280h-151z" />
<glyph unicode="&#x300;" horiz-adv-x="0" d="M-534 1827h241l135 -280h-145z" />
<glyph unicode="&#x301;" horiz-adv-x="0" d="M-380 1547l135 280h241l-231 -280h-145z" />
<glyph unicode="&#x303;" horiz-adv-x="0" d="M-909 1547q-1 102 55.5 165t147.5 63q62 0 169 -54q59 -30 94 -30q61 0 73 87h130q-6 -228 -196 -228q-63 0 -166 56q-67 36 -98 36q-78 0 -76 -95h-133z" />
<glyph unicode="&#x309;" horiz-adv-x="0" d="M-471 1828q39 8 144 7q123 -1 201 -40q86 -42 88 -109q4 -101 -182 -124v-50h-112v112q57 6 73 11q53 13 54 41q1 23 -28 39q-42 23 -133 23q-31 0 -94 -4z" />
<glyph unicode="&#x323;" horiz-adv-x="0" d="M-782 -120h205v-205h-205v205z" />
<glyph unicode="&#x3d6;" horiz-adv-x="1124" d="M0 905v158h1124v-158h-162v-905h-189v905h-426v-905h-188v905h-159z" />
<glyph unicode="&#x6a4;" d="M256 0v1280h1024v-1280h-1024zM288 32h960v1216h-960v-1216z" />
<glyph unicode="&#x10a0;" horiz-adv-x="987" d="M80 555l57 221l169 -54l-40 -163q11 -372 229 -391q216 19 227 392q0 298 -196 488q-195 192 -198 488h178q12 -257 206 -457q195 -200 195 -519q-11 -541 -412 -560q-404 19 -415 555z" />
<glyph unicode="&#x10a1;" horiz-adv-x="982" d="M80 520q27 431 346 497q103 169 -50 258q-152 89 -152 262h177q0 -94 141 -184q141 -88 64 -336q263 -66 296 -497q-22 -489 -404 -520q-402 28 -418 520zM261 520q19 -332 237 -352q209 20 225 352q-12 324 -221 338q-223 -13 -241 -338z" />
<glyph unicode="&#x10a2;" horiz-adv-x="1081" d="M60 530q30 459 464 506q141 106 141 226q-27 102 -161 110q-127 -8 -146 -99l10 -62l-165 -50l-30 112q23 251 331 261q320 -8 340 -272q-2 -143 -131 -246q278 -80 308 -486q-19 -490 -479 -532q-467 42 -482 532zM242 530q18 -321 302 -362q273 41 292 356 q-30 304 -290 345q-275 -45 -304 -339z" />
<glyph unicode="&#x10a3;" horiz-adv-x="1570" d="M84 946q-4 570 383 590q178 0 267 -146q107 146 324 146q422 -11 432 -550q-7 -533 -432 -544q-423 19 -429 538q-1 143 26 253q-62 132 -188 132q-198 -20 -198 -419q0 -738 729 -778h164v-168h-116q-962 41 -962 946zM810 986q11 -353 248 -372q237 10 248 372 q-10 369 -248 379q-248 0 -248 -379z" />
<glyph unicode="&#x10a4;" horiz-adv-x="1010" d="M84 430q-4 141 110 290l150 -75q-75 -131 -75 -215q9 -243 228 -262q217 19 228 262v733q-11 184 -201 203q-175 -21 -186 -176q2 -59 73 -150l-135 -84q-120 91 -120 241q7 319 371 339q372 -19 383 -373v-733q-11 -410 -416 -432q-398 23 -410 432z" />
<glyph unicode="&#x10a5;" horiz-adv-x="996" d="M80 430q-1 126 73 255l167 -65q-55 -82 -55 -190q20 -243 228 -262q208 19 228 222v112q0 203 -202 239h-73v168h73q202 19 202 264q-20 181 -210 189q-188 -8 -207 -139q-4 -94 22 -142l-145 -54q-60 102 -60 196q19 303 392 313q373 -11 393 -360q0 -204 -206 -341 q206 -135 206 -353v-92q-19 -370 -413 -390q-393 20 -413 430z" />
<glyph unicode="&#x10a6;" horiz-adv-x="1129" d="M80 1163q12 356 365 373q373 -17 390 -363q0 -92 -81 -219q292 -93 295 -452q-11 -483 -454 -502q-427 19 -445 493q11 271 140 356q-197 74 -210 314zM257 1170q14 -185 188 -210q199 13 210 210q-8 195 -210 195q-170 -3 -188 -195zM335 502q11 -315 260 -334 q245 19 256 334q0 308 -248 341q-268 -1 -268 -341z" />
<glyph unicode="&#x10a7;" horiz-adv-x="1588" d="M90 612v339q11 566 413 585q210 0 317 -192q94 192 304 192q363 -19 374 -585v-389q-19 -491 -374 -562v168q178 60 188 394v389q-11 395 -188 414q-208 0 -208 -414v-339q-11 -593 -420 -612q-395 19 -406 612zM275 612q10 -425 228 -444q217 19 228 444v339 q0 414 -228 414q-218 -20 -228 -414v-339z" />
<glyph unicode="&#x10a8;" horiz-adv-x="1006" d="M90 682v279q10 565 413 575q403 -10 413 -575v-279q0 -595 -330 -682v168q145 61 145 514v279q-10 393 -228 404q-218 -11 -228 -404v-279q0 -453 151 -514v-168q-336 88 -336 682z" />
<glyph unicode="&#x10a9;" horiz-adv-x="986" d="M80 410q-5 120 81 272l153 -90q-49 -88 -49 -182q9 -223 228 -242q217 19 228 242v102q0 183 -182 249h-143v168h143q152 29 152 194q0 182 -215 244l54 170q323 -97 346 -411q0 -175 -176 -271q206 -135 206 -343v-102q-11 -391 -413 -410q-402 19 -413 410z" />
<glyph unicode="&#x10aa;" horiz-adv-x="2207" d="M82 936q-2 580 411 600q227 0 325 -201q88 201 286 201t290 -201q94 201 320 201q413 -20 401 -546q-30 -437 -372 -580l-60 128q245 151 259 452q0 355 -228 375q-226 0 -228 -365v-214h-184v214q0 365 -198 365q-199 0 -197 -365v-214h-184v214q-2 365 -230 365 q-228 -20 -228 -428q61 -771 1089 -769h214v-168h-214q-1190 0 -1272 936z" />
<glyph unicode="&#x10ab;" horiz-adv-x="1006" d="M80 524q0 482 409 504q142 -10 232 -94v239q-4 193 -222 193q-188 2 -197 -128q2 -41 18 -83l-170 -45q-29 56 -29 128q9 279 382 298q392 -19 403 -363v-649q-11 -505 -413 -524q-402 19 -413 524zM265 524q11 -337 228 -356q217 19 228 356q0 297 -232 325 q-224 -20 -224 -325z" />
<glyph unicode="&#x10ac;" horiz-adv-x="1007" d="M102 500v715q-2 321 361 321h374v-171h-372q-179 0 -179 -150v-306q116 113 227 119q403 -24 414 -524q-11 -485 -414 -504q-402 19 -411 500zM286 504q11 -317 227 -336q218 19 229 336q-11 324 -229 346q-227 -8 -227 -346z" />
<glyph unicode="&#x10ad;" horiz-adv-x="1469" d="M90 722v159q0 625 373 655q178 0 270 -171q93 171 261 171q383 -30 383 -655v-171q2 -636 -422 -710v158q237 30 237 564v159q0 454 -198 484q-168 0 -168 -259v-542h-185v549q0 252 -178 252q-188 -30 -188 -484v-159q0 -494 208 -564v-158q-393 73 -393 722z" />
<glyph unicode="&#x10ae;" horiz-adv-x="985" d="M80 420q-2 129 90 240l143 -79q-50 -74 -50 -161q11 -233 227 -252q221 19 232 262q0 257 -232 305h-102v175h104q198 0 201 190q-2 124 -180 176q-178 54 -233 256h199q23 -116 209 -167q187 -51 187 -262q0 -192 -197 -278q227 -140 227 -395q-11 -411 -413 -430 q-401 19 -412 420z" />
<glyph unicode="&#x10af;" horiz-adv-x="1008" d="M84 406q2 94 83 220l142 -74q-42 -71 -42 -146q11 -219 228 -238q219 19 230 262v905l-363 -30q202 -115 202 -234q0 -309 -478 -309l-2 162q297 1 297 144q-2 119 -251 220v158l777 60l1 -1076q-11 -410 -414 -432q-399 22 -410 408z" />
<glyph unicode="&#x10b0;" horiz-adv-x="1628" d="M82 608q-2 312 238 592q241 282 750 352v-169q-434 -34 -655 -321q306 30 398 -179q93 213 327 213q388 -19 408 -488q0 -518 -414 -608v168q226 79 226 444q-19 274 -206 297q-249 0 -249 -309v-244h-182v244q-2 306 -231 309q-227 0 -227 -297q0 -364 227 -444v-168 q-412 90 -410 608z" />
<glyph unicode="&#x10b1;" horiz-adv-x="1004" d="M100 494v1041h182v-1041q2 -296 229 -326q218 30 233 296q-5 202 -111 326q-105 125 47 367l130 -96q-111 -123 1 -261q113 -137 113 -336q-11 -434 -416 -464q-408 30 -408 494z" />
<glyph unicode="&#x10b2;" horiz-adv-x="1382" d="M80 738q0 159 45.5 294.5t127 234t193.5 154.5t245 56t245 -56t193.5 -154.5t127 -234t45.5 -294.5t-45.5 -294t-127 -234t-193.5 -154.5t-245 -55.5t-245 55.5t-193.5 154.5t-127 234t-45.5 294zM264 738q0 -124 31.5 -228.5t88 -180t135 -118t173.5 -42.5t174 42.5 t135.5 118t88 180t31.5 228.5t-31.5 228.5t-88 180t-135.5 118t-174 42.5t-173.5 -42.5t-135 -118t-88 -180t-31.5 -228.5zM604 646v932h174v-932h-174z" />
<glyph unicode="&#x10b3;" horiz-adv-x="1067" d="M80 1365v171h126q131 0 231 -145q85 145 214 142q316 3 316 -321v-806q-32 -377 -407 -408q-398 22 -408 408q1 162 111 293l133 -73q-58 -127 -60 -220q11 -218 224 -237q206 29 206 237v807q2 152 -115 152q-129 0 -129 -148v-276h-185v276q0 148 -129 148h-128z" />
<glyph unicode="&#x10b4;" horiz-adv-x="1567" d="M80 1021q20 495 413 515q228 0 317 -171q96 171 284 171q362 -20 382 -403q1 -284 -165 -414q165 -92 165 -309q-20 -410 -538 -412q-498 1 -525 368h178q11 -197 347 -197q334 -1 354 241q0 212 -122 217h-120v168h120q122 56 122 338q-20 213 -198 232 q-188 0 -188 -344q-19 -508 -418 -528q-389 25 -408 528zM265 1021q19 -333 223 -356q215 20 235 356q0 344 -230 344q-208 -19 -228 -344z" />
<glyph unicode="&#x10b5;" horiz-adv-x="1004" d="M80 430q-4 101 70 227l161 -63q-49 -83 -49 -164q11 -242 229 -262q217 19 228 262v538q0 182 -210 194q-152 -26 -165 -151q1 -43 18 -88l-147 -68q-53 71 -53 156q11 299 341 323q117 -5 216 -71v273h185v-1106q-11 -410 -416 -428q-397 18 -408 428z" />
<glyph unicode="&#x10b6;" horiz-adv-x="1548" d="M81 1001q-2 515 392 535q208 0 301 -177q91 177 300 177q394 -19 394 -515q0 -379 -291 -559l-83 132q188 131 188 427q0 325 -208 344q-208 0 -208 -304v-308h-184v308q-1 304 -209 304q-208 -19 -208 -364q0 -833 729 -833h138v-168h-78q-975 0 -973 1001z" />
<glyph unicode="&#x10b7;" horiz-adv-x="1006" d="M80 430q0 100 79 210l158 -65q-52 -79 -52 -145q11 -243 227 -262q218 19 229 262v420q-69 -90 -227 -93q-395 14 -414 374q0 240 174 429l153 -77q-142 -181 -142 -352q19 -195 227 -206q229 25 229 246v345h185v-1086q-11 -410 -414 -432q-401 22 -412 432z" />
<glyph unicode="&#x10b8;" horiz-adv-x="1017" d="M80 1366v168q254 2 320 -148q81 149 214 148q292 1 303 -291v-763q-11 -461 -413 -480q-401 19 -411 480q7 458 412 481q124 -5 227 -68v350q-20 123 -118 123q-122 0 -130 -182v-76h-174v76q-8 182 -230 182zM275 480q10 -292 229 -312q217 19 228 312q0 306 -227 309 q-220 -23 -230 -309z" />
<glyph unicode="&#x10b9;" horiz-adv-x="1005" d="M100 0v1159q9 366 354 377q324 -11 336 -296q-12 -161 -167 -283q277 -71 302 -477q0 -288 -162 -480h-191q168 192 168 480q-17 330 -228 345q-229 0 -229 -303v-522h-183zM283 894q64 64 159 75q147 109 168 271q-11 115 -156 126q-161 -11 -171 -207v-265z" />
<glyph unicode="&#x10ba;" horiz-adv-x="1150" d="M80 632v249q0 409 140 654h189q-144 -245 -144 -654v-249q20 -434 329 -464q274 30 291 344q-26 255 -234 255h-100v174h94q227 2 240 187q-5 70 -135 167q-131 97 -138 237h205q-2 -105 126 -197q127 -91 126 -208q1 -187 -250 -274q251 -86 251 -341 q-20 -482 -476 -512q-494 30 -514 632z" />
<glyph unicode="&#x10bb;" horiz-adv-x="1006" d="M80 522q11 486 413 505q175 -21 228 -110v619h185v-1014q-11 -503 -411 -522q-404 19 -415 522zM265 522q10 -335 228 -354q217 19 228 354q0 325 -232 326q-214 -19 -224 -326z" />
<glyph unicode="&#x10bc;" horiz-adv-x="1006" d="M100 523l2 685q-1 328 293 328q123 0 209 -150q96 150 301 150v-171q-205 0 -211 -181v-36h-174v36q1 180 -125 182q-110 -2 -110 -161v-275q90 95 227 97q403 -21 414 -504q-11 -504 -413 -523q-401 20 -413 523zM285 523q11 -336 228 -355q217 19 228 355 q-11 298 -232 317q-224 0 -224 -317z" />
<glyph unicode="&#x10bd;" horiz-adv-x="999" d="M80 400q-2 161 129 274l145 -79q-90 -102 -90 -195q11 -213 228 -232q217 19 228 262v357h-161q-377 2 -377 270q-3 268 377 268l161 -1v209h186l-1 -209h59v-156h-59v-228l58 1v-154h-58v-368q-10 -398 -417 -421q-398 22 -408 402zM344 1059q0 -120 240 -120h136v229 h-158q-218 2 -218 -109z" />
<glyph unicode="&#x10be;" horiz-adv-x="1004" d="M100 522v1014h183v-607q79 92 229 97q401 -24 412 -504q-11 -503 -412 -522q-401 19 -412 522zM283 522q10 -335 228 -354q217 19 228 354q-11 295 -227 317q-229 0 -229 -317z" />
<glyph unicode="&#x10bf;" horiz-adv-x="985" d="M80 410q1 161 95 289l149 -67q-60 -92 -60 -222q11 -223 228 -242q206 30 229 239q-2 210 -186 349q-185 141 -185 304v99l-270 88v168l272 -87v208h174v-242l295 -96v-167l-295 94v-64q3 -114 191 -264t188 -390q-20 -378 -417 -409q-398 42 -408 412z" />
<glyph unicode="&#x10c0;" horiz-adv-x="985" d="M80 412l30 133l174 -40l-20 -94q0 -224 228 -243q229 19 229 188q0 155 -106 156h-159v168h159q107 5 108 115q-2 96 -108 100h-159v170h167q97 -4 97 95q0 134 -225 163q-224 29 -224 234h186q2 -110 224 -143q224 -32 224 -254q0 -99 -106 -183q106 -76 106 -177 q0 -128 -106 -204q106 -84 106 -240q0 -336 -413 -356q-412 19 -412 412z" />
<glyph unicode="&#x10c1;" horiz-adv-x="1067" d="M100 430v961h185v-961q0 -262 253 -262q259 0 259 215q0 188 -95 190h-154v177h152q97 0 100 106q-3 99 -102 100h-150v181h150q99 3 102 100q-3 128 -252 127v172q434 0 432 -299q2 -100 -104 -186q106 -97 104 -195q1 -106 -114 -197q116 -89 116 -276 q0 -383 -447 -383q-435 0 -435 430z" />
<glyph unicode="&#x10c2;" horiz-adv-x="1006" d="M91 -16q182 16 238 55q-238 129 -238 473v540q-1 484 410 482q415 1 415 -482v-540q0 -345 -243 -475q59 -38 239 -60v-182q-182 26 -409 205q-227 -179 -412 -205v189zM275 512q0 -344 228 -344q229 0 229 344v540q-2 313 -231 312q-226 1 -226 -312v-540z" />
<glyph unicode="&#x10c3;" horiz-adv-x="996" d="M85 1176v360h826q0 -484 -229 -644q229 -34 229 -462q0 -431 -417 -432q-408 1 -408 408v106h184v-112q0 -232 228 -232q229 0 229 262q0 359 -233 364h-152v178h152q169 0 232 393h-456v-189h-185z" />
<glyph unicode="&#x10c4;" horiz-adv-x="996" d="M85 430v25h185v-25q0 -262 226 -262q230 0 230 262q0 254 -208 291h-174v178h152q230 60 233 332q-76 -19 -134 -28t-99 -9q-411 6 -411 342h185q0 -170 226 -170q251 -1 415 170v-308q0 -315 -258 -415q258 -96 258 -383q0 -431 -415 -432q-411 1 -411 432z" />
<glyph unicode="&#x10c5;" horiz-adv-x="1116" d="M85 356q0 303 215 396q-215 92 -215 448q0 336 413 336t413 -336v-124h120v-178h-120v-274l120 4v-176h-120v-96q0 -357 -412 -358q-414 1 -414 358zM270 356q0 -188 228 -188t228 188v306h-233q-223 -3 -223 -306zM270 1200q0 -356 223 -356h233v356q0 165 -228 165 t-228 -165z" />
<glyph unicode="&#x10c6;" horiz-adv-x="1640" d="M85 1046q1 490 415 490q228 0 312 -147q100 147 329 147q414 0 414 -496q0 -485 -421 -485q-114 0 -221 85v-284q0 -356 -413 -356v168q228 0 228 188v686q0 323 -228 323t-228 -319q0 -305 245 -313v-178q-430 0 -432 491zM913 1042q0 -302 228 -302t228 302 q0 323 -228 323t-228 -323z" />
<glyph unicode="&#x10d0;" horiz-adv-x="1017" d="M94 438q0 26 10 61t23.5 69.5t27 63.5t21.5 44l143 -76q-8 -16 -17 -37t-16.5 -43t-12 -43.5t-4.5 -37.5q0 -295 248 -295q118 0 175.5 78.5t57.5 246.5q0 49 -13.5 98t-38.5 91t-60.5 73.5t-78.5 46.5q-57 19 -105.5 45.5t-84 61t-55.5 78.5t-20 98h169q0 -41 8.5 -65 t26.5 -40t45.5 -27t65.5 -25q63 -23 119.5 -70.5t99.5 -108t68.5 -128.5t25.5 -131q0 -101 -25 -186t-75 -147t-126.5 -97t-179.5 -35q-99 0 -177.5 30t-133 86t-83 137.5t-28.5 183.5z" />
<glyph unicode="&#x10d1;" horiz-adv-x="1017" d="M94 500q0 229 94.5 356t270.5 153l23 143l1 22q0 26 -8.5 42t-24.5 26.5t-40 16.5t-54 12q-42 8 -78 18t-62.5 32.5t-42 62t-15.5 105.5h185q0 -35 7 -53t21.5 -27.5t38 -14t56.5 -11.5t65 -25t57 -45t40.5 -62.5t15.5 -77.5l-2 -29l-25 -138q71 -18 127.5 -57.5 t96 -101.5t60.5 -148t21 -198q0 -121 -27.5 -214.5t-80 -157t-129.5 -96.5t-176 -33t-176 32.5t-130.5 95.5t-81 156.5t-27.5 215.5zM269 500q0 -175 59.5 -265.5t180.5 -90.5t181 90.5t60 265.5q0 93 -14 166t-42 124t-70 78t-99 27q-66 0 -114.5 -27.5t-80 -78.5 t-46.5 -124.5t-15 -164.5z" />
<glyph unicode="&#x10d2;" horiz-adv-x="1077" d="M67 41q0 99 28.5 174.5t79.5 131t120.5 92.5t151.5 59q38 6 77.5 34.5t72 66.5t53 78.5t20.5 69.5q0 85 -51.5 129.5t-135.5 44.5q-38 0 -72.5 -8.5t-60.5 -27.5t-41 -48.5t-15 -71.5q0 -17 0.5 -29.5t2.5 -23t6 -20.5t12 -23l-128 -65q-15 26 -26 45.5t-18.5 37.5 t-11 36t-3.5 42q0 84 33 141t85 91.5t116.5 49.5t127.5 15q67 0 131 -14.5t113.5 -50.5t79.5 -98t30 -156q0 -24 -10 -55t-32.5 -65t-59 -69.5t-90.5 -69.5q75 -23 140 -63.5t113.5 -95.5t76.5 -123.5t28 -147.5q0 -111 -31 -200.5t-91 -152.5t-147 -97t-199 -34 q-110 0 -198 32.5t-149.5 93.5t-94.5 148t-33 197zM239 45q0 -75 20.5 -137.5t58.5 -107t93.5 -69t126.5 -24.5q72 0 127.5 23.5t93.5 68.5t57.5 109.5t19.5 145.5q0 65 -22 118.5t-62 94t-95.5 65.5t-122.5 33q-72 -11 -127 -33.5t-92.5 -60.5t-56.5 -93.5t-19 -132.5z" />
<glyph unicode="&#x10d3;" horiz-adv-x="1566" d="M102 577q0 91 28 178.5t79 155.5t123 109.5t160 41.5q40 0 80.5 -9t76.5 -27t65.5 -45t47.5 -63q25 31 58.5 57.5t72.5 45.5t83 29.5t91 10.5q99 0 174 -45t125.5 -119t76 -170.5t25.5 -198.5q0 -104 -28.5 -194.5t-81 -158t-126.5 -106.5t-165 -39t-166.5 42.5 t-129.5 111t-84 153.5t-30 170q0 72 12 142.5t34 127.5q-8 31 -32 57.5t-55 45.5t-64 29.5t-60 10.5q-56 0 -97 -27.5t-67.5 -74.5t-39 -109.5t-12.5 -131.5q0 -134 27 -240.5t72.5 -190t106.5 -145.5t129.5 -106.5t140.5 -73t139.5 -45t126.5 -23t103 -6.5v-157 q-100 0 -216.5 25.5t-246.5 88.5q-41 13 -78.5 12t-71 -11t-64 -27t-55.5 -35l-49 143q33 14 62 23.5t60 10.5l3 12q-72 58 -137.5 130t-116 162.5t-80 202.5t-29.5 250zM832 508q0 -48 11 -106t38 -108.5t72.5 -85t113.5 -34.5q60 0 103.5 27t71 74.5t41 112t13.5 140.5 q0 72 -6.5 142t-30 125.5t-69 89.5t-123.5 34q-73 0 -118.5 -36t-71.5 -94t-35.5 -131.5t-9.5 -149.5z" />
<glyph unicode="&#x10d4;" horiz-adv-x="997" d="M88 -66q0 23 2 60.5t10.5 79t24.5 82.5t44 71l117 -65q-18 -24 -27.5 -55.5t-13 -63.5t-3.5 -60.5v-46.5q0 -56 20 -99t55.5 -71.5t84.5 -43t108 -14.5t102.5 22.5t72.5 61.5t43 92t14 113v636q0 80 -14.5 135t-43 88.5t-70.5 48.5t-96 15q-47 0 -84.5 -17t-63.5 -47.5 t-39.5 -74t-13.5 -95.5q0 -36 4.5 -60t16.5 -44t33 -41.5t53 -51.5l-47 -129q-65 37 -109 67t-71.5 65.5t-39.5 82t-12 115.5q0 72 25.5 139t73.5 119t117 83t156 31q195 0 293 -107.5t100 -321.5l4 -639q0 -94 -27.5 -172t-79 -134t-126.5 -87t-171 -31q-97 0 -175 30.5 t-133 81t-84.5 116t-29.5 136.5z" />
<glyph unicode="&#x10d5;" horiz-adv-x="1017" d="M88 -47q0 51 17.5 112.5t53.5 127.5l115 -62q-15 -33 -23.5 -79.5t-8.5 -97.5q0 -44 18 -88.5t51.5 -79.5t82 -57t109.5 -22q57 0 101 12t74 39t45.5 69.5t15.5 103.5l-4 111q-3 62 -12.5 109t-31 79t-56.5 48t-89 16h-88v117h91q39 0 73 19.5t59.5 54.5t40.5 82t15 103 q0 250 -211 250q-49 0 -89 -14t-68.5 -41.5t-44 -67.5t-15.5 -92q0 -23 13.5 -59.5t42.5 -79.5l-108 -75q-58 48 -86.5 102.5t-28.5 108.5q0 76 26.5 142t75.5 114t119.5 75.5t159.5 27.5q90 0 162 -28t121.5 -79t76 -123.5t26.5 -160.5q0 -55 -16.5 -100t-45.5 -82.5 t-68 -69t-83 -59.5q102 -26 154 -108.5t59 -205.5l2 -122q0 -80 -29.5 -145t-82.5 -111.5t-128 -72t-166 -25.5q-100 0 -177.5 33.5t-131 88t-81 123t-27.5 139.5z" />
<glyph unicode="&#x10d6;" horiz-adv-x="1028" d="M56 1160q0 78 22 139t64 103.5t103 65t138 22.5t138.5 -22.5t104.5 -64.5t66 -103t23 -138q0 -41 -8.5 -73.5t-22.5 -58.5t-32 -48t-37 -42l3 -13q64 -12 121 -45t99.5 -89.5t67.5 -137.5t25 -189q0 -114 -28.5 -201.5t-82 -146t-129 -88.5t-169.5 -30q-98 0 -175.5 30.5 t-131 89.5t-82 147t-28.5 202q0 76 12.5 135.5t34 105.5t51.5 79.5t66 58.5l-2 11q-51 21 -90.5 47t-66 61t-40.5 82.5t-14 110.5zM214 1158q0 -112 44.5 -162.5t129.5 -50.5q79 0 121 51.5t43 165.5q-1 85 -46.5 135t-123.5 50t-123 -47.5t-45 -141.5zM277 466 q0 -165 62 -243.5t183 -78.5q118 0 178 78.5t60 243.5q0 174 -65 256t-186 82q-116 0 -174 -80t-58 -258z" />
<glyph unicode="&#x10d7;" horiz-adv-x="1553" d="M102 549q0 128 28.5 224t82.5 160.5t131 96.5t175 32q94 0 161.5 -32.5t124.5 -93.5q23 25 52 46.5t60 37t63 24.5t62 9q90 0 165 -33.5t129 -99.5t84 -164t30 -227q0 -95 -19 -179t-61 -154.5t-108.5 -125.5t-162.5 -92l-60 146q76 28 122.5 68t72 91t34 112.5 t8.5 133.5q0 88 -11.5 160.5t-37.5 124t-70 79.5t-108 28q-29 0 -54 -11.5t-46.5 -29.5t-40 -40.5t-33.5 -44.5q19 -57 26 -117.5t7 -130.5q0 -124 -25.5 -225t-76.5 -172.5t-126 -110.5t-174 -39t-174.5 39t-126.5 111t-77 173t-26 226zM276 549q0 -93 13 -168t41 -127.5 t71.5 -81t104.5 -28.5q60 0 103.5 28.5t71.5 81t41.5 127.5t13.5 168q0 72 -6 139t-28.5 118.5t-65.5 82.5t-117 31q-122 0 -182.5 -89.5t-60.5 -281.5z" />
<glyph unicode="&#x10d8;" horiz-adv-x="1038" d="M94 540q0 127 28.5 224.5t82 163.5t130.5 100t175 34q98 -1 178 -35.5t137 -101t88 -164.5t31 -226q0 -183 -75 -316.5t-217 -227.5l-39 148q73 51 115.5 147t42.5 249q0 93 -18 165t-51.5 120.5t-82 74t-108.5 25.5q-121 0 -181 -96.5t-60 -283.5q0 -155 39.5 -253.5 t114.5 -152.5l-40 -146q-143 104 -216.5 237t-73.5 315z" />
<glyph unicode="&#x10d9;" horiz-adv-x="981" d="M51 -38q0 100 71 231l116 -61q-32 -66 -32 -169q0 -68 19 -116.5t53.5 -80t83.5 -46.5t109 -15q123 0 178.5 64t55.5 189v115q0 44 -17.5 82.5t-47.5 67t-69 45t-81 16.5h-134v138h142q44 0 78 19.5t57.5 52t35.5 75t12 89.5q0 82 -33 130.5t-84.5 73t-114 31.5t-121.5 7 v139q107 0 203 -17.5t168 -61.5t114.5 -118.5t42.5 -188.5q0 -48 -20 -96.5t-51.5 -90t-70.5 -72t-76 -42.5q39 -17 81.5 -44t78 -62.5t58.5 -79t23 -92.5v-116q0 -88 -27 -159.5t-78.5 -122.5t-126.5 -79t-172 -28q-101 0 -180 25.5t-133 75t-82.5 123t-28.5 169.5z" />
<glyph unicode="&#x10da;" horiz-adv-x="2117" d="M110 573q0 108 22.5 195t69 147.5t118 93t170.5 32.5q60 0 106.5 -12t81.5 -35.5t61 -58t45 -79.5q17 49 39 87t54 64.5t76 40.5t106 14q61 0 105.5 -14t77 -41t55.5 -65t42 -86q38 94 107.5 139.5t177.5 45.5q82 0 150.5 -37t118 -100.5t77 -148t27.5 -178.5 q0 -110 -21 -196.5t-68 -154.5t-122.5 -119t-184.5 -90v157q65 19 109 54.5t70.5 86t37.5 115.5t11 143q0 157 -52.5 241t-152.5 84q-71 0 -112.5 -27t-64 -74.5t-29 -111t-6.5 -136.5v-157h-152l-7 156q-5 95 -13.5 165t-28.5 116t-56.5 68.5t-96.5 22.5q-59 0 -94 -22.5 t-54.5 -69t-25.5 -116.5t-6 -165v-155h-155l-7 156q-4 79 -10.5 143.5t-28.5 110.5t-66 71t-122 25q-59 0 -99 -21.5t-64 -62.5t-34 -101.5t-10 -139.5q0 -114 41 -211.5t116.5 -180t183 -149.5t240.5 -120q85 -34 164 -62t155.5 -52t152 -44.5t153.5 -39.5l-5 -144 q-96 20 -180 42t-164 46.5t-158 51t-162 55.5q-67 23 -128 27t-112.5 -4.5t-91.5 -27.5t-64 -42l-66 114q22 19 51 29.5t60.5 15t64.5 6t63 2.5q-113 49 -203 126t-153 169.5t-96.5 193.5t-33.5 199z" />
<glyph unicode="&#x10db;" horiz-adv-x="1034" d="M94 535q0 97 31 184.5t86 154t131 106t165 39.5q70 0 132.5 -31t114.5 -85v203q0 60 -19.5 105t-53.5 74t-79.5 43.5t-97.5 14.5q-40 0 -73.5 -7t-58 -26.5t-38.5 -53t-16 -87.5l-3 -28h-174v34q0 81 29.5 141t79.5 99.5t116 59t138 19.5q94 0 171 -26t132 -76t85 -123 t30 -166v-623q0 -114 -26.5 -203t-77.5 -150.5t-126.5 -94t-174.5 -32.5q-100 0 -178.5 36t-133 104.5t-83 168t-28.5 226.5zM269 535q0 -193 61 -292t187 -99q120 0 178.5 84.5t58.5 247.5q0 133 -16 213t-47 122.5t-76.5 55.5t-104.5 13q-118 0 -179.5 -89.5t-61.5 -255.5 z" />
<glyph unicode="&#x10dc;" horiz-adv-x="1034" d="M112 480v673q0 94 25 158.5t75.5 104t127 56.5t179.5 17h312v-164l-317 31q-63 4 -107.5 -4t-72.5 -31.5t-40.5 -64t-12.5 -101.5v-250q55 57 117.5 87t128.5 30q93 0 169 -39t130 -106t84 -155.5t30 -188.5q0 -129 -28.5 -229t-82.5 -167.5t-132 -102.5t-177 -35 q-101 0 -177.5 32.5t-127.5 94t-77 151t-26 203.5zM274 481q0 -166 61 -251.5t186 -85.5q121 0 182.5 98t61.5 291q0 82 -16.5 146.5t-47 109t-75 68t-100.5 23.5q-87 0 -137 -23.5t-75.5 -72.5t-32.5 -124.5t-7 -178.5z" />
<glyph unicode="&#x10dd;" horiz-adv-x="1606" d="M103 551q0 122 27 217t77.5 160.5t123.5 99.5t166 34q61 0 107.5 -13.5t82.5 -40t63 -65.5t49 -89q22 49 49.5 88t64.5 65.5t84 40.5t109 14q101 0 175.5 -42t124 -112.5t73.5 -163t24 -193.5q0 -113 -23.5 -202.5t-74.5 -158.5t-130 -118t-190 -80v154 q131 34 187.5 134.5t56.5 270.5q0 87 -13 155.5t-40 116t-69.5 72.5t-100.5 25q-119 0 -171.5 -86t-52.5 -254v-168h-158v168q0 165 -56 252.5t-176 87.5q-59 0 -100 -25t-66.5 -72.5t-37 -116t-11.5 -155.5q0 -74 14.5 -139t45 -118t78 -91.5t113.5 -59.5v-152 q-113 32 -193.5 83t-132 121t-75.5 159t-24 197z" />
<glyph unicode="&#x10de;" horiz-adv-x="1017" d="M94 416q0 69 26.5 124.5t83.5 104.5l106 -83q-14 -27 -27.5 -60.5t-13.5 -83.5q0 -80 15 -132.5t45 -84t75 -44.5t105 -13t105 21t75.5 59t45.5 91t15 116q0 51 -12 105.5t-36.5 99t-61.5 73.5t-86 29h-162v133h158q45 0 75 19.5t49 50t27 68t8 73.5q0 41 -16 71 t-48.5 52t-81 37t-112.5 26q-75 12 -127.5 29t-85.5 42.5t-48.5 62t-15.5 87.5h172q0 -29 15.5 -45.5t44 -26.5t68.5 -15.5t89 -13.5q75 -12 133.5 -35.5t99.5 -60.5t62.5 -89t21.5 -121q0 -24 -6 -61.5t-22.5 -78t-47 -80t-78.5 -67.5q46 -24 82.5 -65t62 -90t38.5 -103 t13 -105q0 -83 -27 -161t-79 -138t-128 -96.5t-175 -36.5t-177 23t-131.5 73t-82 129t-28.5 191z" />
<glyph unicode="&#x10df;" horiz-adv-x="1113" d="M70 545h155q0 -42 12.5 -84t36 -75t56 -53.5t72.5 -20.5q47 0 78.5 18.5t50.5 50t27 73t8 87.5q0 31 -24 62.5t-64.5 64t-93 64t-110.5 62.5v103l728 154l13 -1015q0 -99 -28 -184t-81 -147.5t-129.5 -98t-173.5 -35.5q-201 0 -308 88t-107 262q0 27 2 45t6.5 33.5 t11.5 30.5t18 36l133 -60q-6 -11 -9 -18t-4.5 -15.5t-2 -20.5t-0.5 -31q0 -109 68.5 -162t191.5 -53t184 84.5t61 250.5v850l-360 -69q46 -29 88 -62t73.5 -68.5t50 -73.5t18.5 -77q0 -75 -18.5 -139.5t-56.5 -112t-96.5 -74t-137.5 -26.5q-158 0 -243.5 93.5t-95.5 262.5z " />
<glyph unicode="&#x10e0;" horiz-adv-x="1606" d="M103 545q0 121 27 217.5t73.5 173.5t108.5 137.5t132 109t143.5 88t144 75.5t133 71t109.5 74l68 -114q-76 -46 -130.5 -76.5t-96.5 -51.5t-74.5 -35.5t-65 -27.5t-68.5 -28.5t-84 -38.5q-9 -4 -27.5 -14.5t-40.5 -25t-45.5 -32t-42.5 -36t-31.5 -36t-12.5 -31.5l9 -8 q13 13 29.5 27.5t37.5 26.5t47.5 20t59.5 8q60 0 106 -13.5t82 -39t63 -63.5t49 -87q19 46 46 83.5t64 64t84.5 41t107.5 14.5q111 0 186.5 -35.5t122 -98.5t66.5 -149.5t20 -189.5q0 -111 -23.5 -199.5t-74.5 -156.5t-130 -117t-190 -80v145q131 43 187.5 143t56.5 265 q0 66 -7.5 125.5t-31 105.5t-66.5 73t-114 27q-60 0 -102 -16t-68.5 -51t-39 -91t-12.5 -135v-171h-158l-12 171q-1 76 -7.5 131.5t-28.5 91.5t-64 53t-114 17q-77 0 -123 -23.5t-70.5 -67t-32 -104.5t-7.5 -136q0 -158 62 -259t195 -149v-146q-111 34 -191.5 85t-132.5 120 t-76.5 156t-24.5 193z" />
<glyph unicode="&#x10e1;" horiz-adv-x="1028" d="M106 532v905l51 53h61l54 -53v-906q0 -189 66.5 -288t184.5 -99q72 0 118 20t72.5 59t37 97.5t10.5 135.5q0 67 -17 112t-43 78t-56 59.5t-56 56t-43 67t-17 93.5q0 21 4.5 54t20.5 66.5t47 63t84 43.5l72 -119q-23 -9 -37 -21t-21.5 -26t-10 -29t-2.5 -30 q0 -45 18 -74.5t45.5 -55t59.5 -51t59.5 -62.5t45.5 -90.5t18 -134.5q0 -113 -28.5 -198.5t-82 -142.5t-129 -86t-169.5 -29q-101 0 -178.5 35.5t-130.5 103.5t-80.5 167t-27.5 226z" />
<glyph unicode="&#x10e2;" horiz-adv-x="1297" d="M94 265q0 168 40 294.5t107.5 215.5t157 142t187.5 73l-20 312h164l-20 -313q98 -22 187 -74.5t157 -140.5t108 -214t40 -295q0 -79 -17.5 -161t-50 -159.5t-80.5 -146t-108.5 -119.5t-133 -81t-155.5 -30q-88 0 -163.5 29.5t-138.5 80.5t-111.5 119.5t-81.5 145.5 t-50.5 159.5t-17.5 162.5zM266 265q0 -119 24 -221t72.5 -176.5t122 -117t172.5 -42.5q83 0 151.5 42.5t117 117t75.5 176t27 220.5q0 134 -24.5 238.5t-67 179.5t-99.5 120t-121 60l20 -456h-170l20 457q-64 -15 -122 -59.5t-102 -118.5t-70 -179t-26 -241z" />
<glyph unicode="&#x10e3;" horiz-adv-x="1057" d="M25 926l17 158q26 -38 62.5 -62.5t70.5 -24.5q12 0 21 7t20.5 15.5t26.5 15.5t39 7q34 0 58 -11t42.5 -32t34.5 -52t35 -71q30 74 83 120t133 46q139 0 214 -72.5t75 -220.5v-722q0 -107 -27 -191.5t-79 -144t-128 -91t-175 -31.5q-96 0 -172.5 28.5t-130 82.5t-82 131 t-28.5 174q0 45 12 88t30 80t38.5 65.5t37.5 45.5l115 -70q-19 -29 -30 -50t-17 -43t-8 -48.5t-2 -66.5q0 -137 58 -208t179 -71q118 0 182.5 79t64.5 232v706q0 84 -36.5 130t-96.5 46q-74 0 -107 -67t-33 -212v-147h-144v145q0 144 -24.5 212.5t-88.5 68.5 q-21 0 -35.5 -7.5t-26 -16t-21.5 -16t-23 -7.5q-25 0 -45.5 7t-37 18t-29 23.5t-22.5 24.5z" />
<glyph unicode="&#x10e4;" horiz-adv-x="1543" d="M102 551q0 120 29.5 215t82.5 161t127.5 100.5t164.5 34.5q177 0 289 -133q22 27 52 51t64.5 42t71 29t70.5 11q94 0 166 -33t121 -92.5t74.5 -140.5t25.5 -177q0 -78 -17.5 -140.5t-48 -111t-71 -85.5t-86.5 -64v-13q97 -33 152.5 -93t56.5 -141v-45q0 -89 -41 -156 t-108.5 -111.5t-153.5 -66.5t-176 -22q-78 0 -159.5 18.5t-149 58t-110.5 102.5t-43 153h168q0 -59 27.5 -96.5t70 -59.5t94.5 -30.5t101 -8.5t103.5 7t100 30t75.5 68t30 122v33q-5 39 -21.5 73.5t-40 60t-52 40t-57.5 14.5h-89v115h91q35 0 68.5 24t59.5 69.5t42 110.5 t16 147q0 61 -15 115.5t-43 95t-69.5 64.5t-93.5 24q-30 0 -55.5 -12t-47.5 -31.5t-39.5 -44t-30.5 -49.5q6 -23 11.5 -53.5t9.5 -63.5t6.5 -67t2.5 -64q0 -111 -36.5 -193t-94 -136t-129.5 -80.5t-142 -26.5q-80 0 -153 30t-128.5 87.5t-89 142t-33.5 192.5zM276 579 q0 -76 16 -138t45.5 -106t72 -68t96.5 -24q55 0 99.5 26t75 69t47 99t16.5 117q0 366 -238 366q-122 0 -176 -82t-54 -259z" />
<glyph unicode="&#x10e5;" horiz-adv-x="1024" d="M92 -41q0 169 93 268l128 -57q-21 -28 -34.5 -80t-13.5 -133q0 -57 18 -103t51 -79t79.5 -50.5t102.5 -17.5q60 0 104.5 18t73 58t42.5 103t14 152v637q0 63 -24 109t-61 76.5t-82 45t-86 14.5q-44 0 -77 -16t-55.5 -43.5t-34 -64t-11.5 -77.5q8 -76 38 -125t104 -75 l-36 -141q-70 21 -120 51t-83 71t-49.5 95t-19.5 123q5 79 27.5 143t64.5 108.5t104.5 68.5t147.5 24q78 0 142.5 -33t113.5 -96q-1 72 -2.5 132.5t-2.5 118t-2.5 117t-2.5 131.5l38 57h79l45 -56l15 -1392q1 -120 -25 -208.5t-78 -147t-128 -87t-174 -28.5q-90 0 -165 29.5 t-130 82t-88 123.5t-40 154z" />
<glyph unicode="&#x10e6;" horiz-adv-x="1606" d="M103 593q0 106 25 192.5t73.5 148t119.5 95t163 33.5q60 0 109.5 -17t88 -46t67.5 -67.5t49 -81.5q21 49 48.5 88.5t64 67t82.5 42t104 14.5q91 0 165.5 -33.5t128 -95.5t83 -151t29.5 -200q0 -70 -18.5 -143.5t-59.5 -144.5t-107.5 -136.5t-162.5 -119.5l-56 127 q61 30 106 79t74 106t43 116.5t14 110.5q0 76 -15 139t-45 108.5t-74.5 70.5t-104.5 25q-74 0 -116 -25.5t-63 -69.5t-26.5 -104.5t-5.5 -129.5v-179h-152l-7 180q-7 169 -64.5 248.5t-178.5 79.5q-59 0 -98.5 -24t-63.5 -67.5t-34.5 -104t-10.5 -133.5q0 -117 30 -215 t83 -178.5t126.5 -143t159.5 -108.5q64 -34 121.5 -62.5t120.5 -53t135.5 -45t166.5 -38.5l-17 -157q-100 20 -179 45.5t-147.5 54t-131 59t-130.5 60.5q-27 12 -65 5.5t-77 -23t-73 -40t-52 -46.5l-89 117q17 17 41 33.5t51 30.5t56 24.5t56 16.5q-82 47 -148.5 119.5 t-113.5 160.5t-72.5 187t-25.5 199z" />
<glyph unicode="&#x10e7;" horiz-adv-x="1013" d="M88 -58q0 51 20 99t63 87l115 -71q-8 -12 -12.5 -29.5t-7 -35.5t-3.5 -35t-1 -29q0 -62 22.5 -104t57.5 -68.5t78.5 -38t84.5 -11.5q120 0 184.5 79.5t64.5 250.5v228q-35 -38 -91 -55t-134 -17q-98 0 -174 33.5t-127.5 92t-78.5 139t-27 175.5q0 67 14 124.5t43.5 108.5 t75.5 97.5t109 91.5l77 -106q-44 -36 -72 -67.5t-44.5 -67.5t-23 -79.5t-6.5 -102.5q0 -164 58.5 -238t183.5 -74q45 0 79.5 10t60.5 33t44.5 60t30.5 90q-2 131 -6 264.5t-18 266.5h170q7 -104 11 -227t5.5 -255t1.5 -267v-261q0 -117 -27.5 -204t-79.5 -144.5 t-126.5 -86.5t-168.5 -29q-77 0 -153.5 21.5t-137 67.5t-98 116t-37.5 168z" />
<glyph unicode="&#x10e8;" horiz-adv-x="1015" d="M11 1239q0 59 15.5 105.5t42.5 79t64 49.5t79 17q75 0 123.5 -34.5t77.5 -109.5q66 144 203 144q70 0 123.5 -23.5t89.5 -67t54.5 -105t18.5 -136.5v-693q0 -227 -101 -346t-301 -119q-99 0 -177 33t-133 97t-84 158.5t-29 217.5q0 118 28 206.5t81 147t130.5 88 t175.5 29.5q40 0 77 -11t69 -29t58.5 -42t45.5 -51v338q0 50 -8 82t-23.5 50.5t-39.5 25.5t-56 7q-38 0 -63.5 -8t-41 -29t-22.5 -56.5t-7 -90.5l-6 -54h-132l-9 53v3q0 55 -3.5 90.5t-14.5 56t-33 28t-58 7.5q-27 0 -43.5 -5t-25.5 -17.5t-12 -33.5t-3 -52h-130zM251 506 q0 -362 249 -362q118 0 177 81.5t59 240.5q0 115 -17 187.5t-48.5 114t-76.5 57t-102 15.5q-118 0 -179.5 -80t-61.5 -254z" />
<glyph unicode="&#x10e9;" horiz-adv-x="1026" d="M106 403v726q0 69 18 134t54 116t90.5 81.5t128.5 30.5q85 0 148.5 -22.5t106 -64.5t63.5 -102.5t21 -136.5q0 -32 -15.5 -73t-41 -80t-59 -71.5t-68.5 -47.5l1 -14q100 -8 171.5 -36t117 -75t67 -112t21.5 -146q0 -153 -66 -293.5t-201 -251.5l-99 87q66 63 104.5 116 t58 105.5t25 108t5.5 123.5q0 75 -15 124.5t-45.5 79t-76 42t-106.5 14.5q-48 -6 -91.5 -15t-77 -28t-53 -52t-19.5 -87v-211q0 -81 4 -170t16 -202h-163q-15 121 -19.5 218t-4.5 185zM273 821q31 28 67.5 43.5t79.5 25.5q27 26 56 56t53.5 63t40 70t15.5 76 q0 94 -45.5 142.5t-130.5 48.5q-33 0 -58.5 -11.5t-42.5 -37t-26 -67.5t-9 -103v-306z" />
<glyph unicode="&#x10ea;" horiz-adv-x="1094" d="M85 212v179q0 179 34 337.5t117 302.5l143 -59q-41 -74 -65.5 -147t-38 -146.5t-18 -148t-4.5 -151.5v-155q0 -135 23.5 -232.5t65 -161t97 -94t120.5 -30.5q71 0 122.5 31t85 80t49.5 110.5t16 121.5q0 33 -9 76t-31 81.5t-58.5 65t-90.5 26.5h-114v154h111 q50 0 83.5 12t53.5 34.5t28.5 56t8.5 76.5q0 36 -10 58t-26.5 36.5t-37.5 24t-42.5 20.5t-42.5 26t-37.5 40t-26.5 62.5t-10 94.5h157q0 -56 18.5 -88t46.5 -52t60 -35t60 -37t46.5 -56t18.5 -94q0 -75 -46.5 -139t-153.5 -120q53 -18 94 -44.5t69.5 -65.5t43 -92t14.5 -123 q0 -89 -30.5 -174.5t-88.5 -153t-142.5 -109t-193.5 -41.5q-95 0 -180 39.5t-149 119t-102 200.5t-38 284z" />
<glyph unicode="&#x10eb;" horiz-adv-x="1026" d="M94 529q0 127 28 226.5t81 167.5t130 103.5t175 35.5q75 0 137 -34t110 -88v75.5t-1 113t-3 142.5t-6 163l46 57h71l51 -57q4 -102 6 -224t3 -245.5t1 -240v-208.5q0 -119 -28 -214.5t-81.5 -162.5t-130.5 -102.5t-175 -35.5t-175 35.5t-130 103.5t-81 166t-28 223z M269 529q0 -190 59.5 -287.5t180.5 -97.5t183 86.5t62 274.5q0 212 -63.5 313.5t-183.5 101.5t-179 -99.5t-59 -291.5z" />
<glyph unicode="&#x10ec;" horiz-adv-x="1016" d="M114 465v693q0 75 18 136.5t54 105t89.5 67t124.5 23.5q137 0 203 -144q29 75 77.5 109.5t123.5 34.5q42 0 79 -17t64 -49.5t42.5 -79t15.5 -105.5h-130q0 31 -3 52t-12 33.5t-25.5 17.5t-43.5 5q-36 0 -58 -7.5t-33 -28t-14.5 -56t-3.5 -90.5v-3l-9 -53h-132l-6 54 q0 62 -5.5 98.5t-20 55.5t-40.5 24.5t-68 5.5q-39 0 -64 -5.5t-39 -23t-19 -50t-5 -86.5v-338q22 23 49 46.5t58.5 43t67 31.5t75.5 12q98 0 175 -33.5t130.5 -96t81.5 -151.5t28 -200q0 -123 -29 -216t-84 -155t-133 -93.5t-177 -31.5q-200 0 -301 119t-101 346zM280 466 q0 -159 59 -240.5t177 -81.5q124 0 186.5 86t62.5 266q0 175 -61.5 259.5t-179.5 84.5q-72 0 -119 -17t-75 -59t-39 -114.5t-11 -183.5z" />
<glyph unicode="&#x10ed;" horiz-adv-x="952" d="M55 27q0 111 80 227l121 -60q-11 -48 -20.5 -87t-9.5 -81q0 -70 15 -128.5t45 -101t75 -66.5t105 -24q121 0 181.5 81t60.5 237q0 67 -14.5 112t-37.5 76.5t-51.5 56.5t-55 52.5t-48.5 63.5t-33 91q-20 -4 -47.5 -11.5t-46.5 -7.5q-60 0 -107.5 25t-81 66.5t-51 94 t-17.5 107.5q0 60 20.5 115t57.5 97t88 67t112 25q13 0 28.5 -2t27.5 -7l-16 387l43 57h73l49 -56l15 -453q81 -71 87 -162l185 6v-126h-185q-2 -19 -9 -42.5t-19 -47.5t-28 -44.5t-37 -33.5q8 -56 31.5 -97t53.5 -75t63 -65.5t60.5 -69t45.5 -84t18 -111.5q0 -107 -28 -192 t-81.5 -144t-130.5 -90.5t-175 -31.5q-97 0 -173.5 37t-129 99.5t-80.5 145.5t-28 175zM270 749q0 -38 10.5 -69t28.5 -53t42.5 -34t53.5 -12q39 0 72.5 12.5t58.5 35t39.5 53.5t14.5 67q0 34 -14 66t-38.5 56.5t-57 39.5t-68.5 15q-29 0 -55 -15t-45.5 -39.5t-30.5 -56.5 t-11 -66z" />
<glyph unicode="&#x10ee;" horiz-adv-x="1034" d="M112 531v901l40 57h80l44 -57v-501q22 21 48.5 44.5t57 42.5t66.5 31.5t77 12.5q106 0 184 -44t129.5 -117t76.5 -168t25 -198q0 -127 -28 -226.5t-81 -168t-129.5 -104.5t-173.5 -36q-100 0 -177.5 35.5t-130.5 103t-80.5 166.5t-27.5 226zM281 535q0 -193 60.5 -292 t185.5 -99q121 0 179.5 99t58.5 292q0 88 -15 159t-44.5 121t-74 77.5t-104.5 27.5q-62 0 -108.5 -17.5t-77 -61.5t-45.5 -118.5t-15 -187.5z" />
<glyph unicode="&#x10ef;" horiz-adv-x="1026" d="M54 757q17 37 43 69.5t60.5 54t76.5 27.5t90 -10l154 -53l66 178q11 31 14 52.5t-3.5 36.5t-22.5 24.5t-42 17.5l52 144q36 -17 71 -40t58.5 -57.5t30 -81.5t-15.5 -112l-72 -212l126 -44q19 -7 34 -9.5t27.5 2t24 17.5t23.5 39l142 -33q-18 -61 -50 -94.5t-72 -47 t-84.5 -10.5t-87.5 16l-132 38l-14 -47q-12 -41 -1.5 -75.5t35.5 -66t61.5 -61t76 -62t79 -68t70.5 -79t50.5 -96t19.5 -117.5q0 -90 -28.5 -168t-82.5 -135.5t-132.5 -90.5t-177.5 -33q-91 0 -167 30.5t-130.5 88t-85 141t-30.5 189.5q0 38 12 81t54 99l125 -64 q-8 -38 -10 -73t-2 -54q0 -63 14.5 -117.5t44 -95.5t73 -64.5t101.5 -23.5q122 0 184 77.5t62 212.5q0 62 -33 114.5t-80.5 101t-100.5 97t-92.5 101.5t-56 114t7.5 136l18 55l-130 47q-17 6 -32 8t-28.5 -3t-25 -18t-22.5 -37z" />
<glyph unicode="&#x10f0;" horiz-adv-x="1030" d="M94 423q0 25 4.5 48t13.5 46t22 48.5t31 57.5l137 -68q-10 -20 -16.5 -36.5t-10 -31.5t-5 -30t-1.5 -33q0 -136 61 -207.5t182 -71.5t179.5 50.5t58.5 144.5q0 31 -6.5 63.5t-20 58.5t-34.5 42.5t-51 16.5h-147v138h148q27 0 47.5 9.5t34.5 25.5t21.5 37t7.5 44 q0 24 -7.5 47t-21.5 40.5t-35 28t-48 10.5h-147v147h155q22 0 38.5 12.5t26.5 33t15 46.5t5 53q0 28 -15 50t-41.5 36.5t-63.5 22t-81 7.5q-135 0 -207.5 50.5t-72.5 131.5h147q0 -17 17.5 -29.5t46 -21.5t66 -13.5t77.5 -4.5q56 0 109 -15t93.5 -44t65 -72t24.5 -99 q0 -75 -31.5 -129.5t-83.5 -90.5q67 -32 104 -80t37 -123q0 -63 -35.5 -110.5t-90.5 -79.5q54 -40 90 -100t36 -145q0 -77 -28 -138.5t-81 -105t-129 -67t-172 -23.5q-101 0 -178.5 29.5t-131 84t-81 133t-27.5 176.5z" />
<glyph unicode="&#x10f1;" horiz-adv-x="1018" d="M90 486v625q0 97 33 189t102 192l100 -61q-34 -66 -51.5 -146t-17.5 -180v-617q0 -64 13.5 -126.5t44 -112t80 -80t121.5 -30.5q53 0 100 4.5t82.5 19t56 42t20.5 73.5q0 57 -32 93t-86 36h-161v88h161q54 0 86 37t32 94q0 48 -30.5 80t-84.5 32h-164v95h166 q51 0 74 32.5t23 83.5t-31 82t-82 31h-156v100h152q54 0 77.5 32t23.5 89q0 51 -26 75t-59 24h-172v110h176q112 0 173.5 -49.5t61.5 -152.5q0 -66 -24.5 -108t-81.5 -66q60 -26 91 -65t31 -96q0 -61 -29.5 -103.5t-86.5 -68.5q58 -24 95 -63t37 -94q0 -65 -37 -108.5 t-92 -67.5q54 -27 91.5 -69t37.5 -99q0 -83 -32.5 -137t-88 -86.5t-130 -45.5t-158.5 -13q-111 0 -192 38t-133.5 104t-78 154.5t-25.5 189.5z" />
<glyph unicode="&#x10f2;" horiz-adv-x="1020" d="M94 558q0 108 27.5 200t80 159.5t130 106t177.5 38.5q103 0 180.5 -40t129 -108.5t77.5 -160.5t26 -195q0 -66 -17 -132.5t-50 -128.5t-82.5 -117.5t-113.5 -99.5v-20q31 -23 69 -27.5t94 -4.5v-177q-80 22 -128.5 43t-79.5 43.5t-51 46.5t-42 53h-20q-26 -29 -47.5 -53 t-53 -46t-79 -43t-124.5 -43v176q33 0 58 0.5t44.5 3.5t34.5 9.5t29 18.5v20q-66 44 -116 100t-84 118.5t-51.5 128.5t-17.5 131zM269 558q0 -62 15 -127.5t44.5 -123.5t74.5 -103.5t105 -67.5q60 24 105 69t75.5 102.5t46 122.5t15.5 128q0 80 -12 146.5t-40 114.5 t-74 74.5t-115 26.5t-115 -27.5t-73.5 -76.5t-39.5 -115t-12 -143z" />
<glyph unicode="&#x10f3;" horiz-adv-x="1030" d="M94 -7q0 38 4 64.5t11.5 48.5t19 43t26.5 48l148 -48q-9 -18 -17 -32.5t-14 -30.5t-9.5 -37.5t-3.5 -52.5q0 -77 19 -132t52.5 -90t78.5 -51t97 -16q120 0 182 72.5t62 230.5v81q0 46 -16 86t-44.5 70t-68 47t-86.5 17h-177v122h159q10 0 31.5 28t47.5 72t53.5 99 t49.5 108.5t36.5 100t14.5 74.5v1l-457 -10v-266h-157v389l786 10q0 -55 -13 -118.5t-34.5 -129t-50.5 -128.5t-60 -115.5t-62.5 -91.5t-59.5 -56q57 -17 107.5 -45t89 -67t61 -88.5t22.5 -108.5v-86q0 -215 -107.5 -325t-305.5 -110q-89 0 -164.5 25.5t-131.5 77.5 t-87.5 132t-31.5 188z" />
<glyph unicode="&#x10f4;" horiz-adv-x="1030" d="M94 -5q0 51 17 114.5t52 119.5l147 -76q-20 -38 -36.5 -75.5t-16.5 -85.5q0 -150 67 -217.5t188 -67.5q60 0 104 16t73.5 50.5t44 89t14.5 132.5v165q0 48 -14 84.5t-38 61t-56.5 36.5t-69.5 12h-151v128h153q44 0 76.5 27.5t55 77t34.5 119.5t15 154 q-42 -31 -98.5 -55.5t-133.5 -24.5q-215 1 -321 87.5t-106 248.5q0 249 322 433l61 -113q-49 -38 -89.5 -77.5t-69.5 -80t-45 -80.5t-16 -79q0 -93 62.5 -146.5t183.5 -53.5q69 0 118.5 14t85.5 37.5t63 54.5t52 66h100v-161q0 -104 -11.5 -184.5t-36 -143t-62.5 -108 t-91 -78.5q44 -23 81 -44.5t63.5 -50t41.5 -67t15 -94.5v-166q0 -214 -106.5 -319t-303.5 -105q-200 0 -309 105t-109 320z" />
<glyph unicode="&#x10f5;" horiz-adv-x="1094" d="M97 334q0 186 102.5 270t309.5 84h247v155h-249q-104 0 -181 18t-128 58.5t-76 105.5t-25 159q0 161 103.5 234t312.5 73q204 0 306.5 -86t102.5 -275v-147h131v-140h-131v-155h133v-133h-131v-158q0 -204 -102.5 -300.5t-305.5 -96.5q-104 0 -182.5 19.5t-131 60 t-79 103.5t-26.5 151zM271 332q0 -100 59.5 -144t180.5 -44q60 0 106 14t76.5 44t46.5 78t16 116v159h-247q-120 0 -179 -54t-59 -169zM271 1186q0 -57 14.5 -96t44 -63t74 -34t103.5 -10h247v142q0 117 -61 168.5t-182 51.5q-120 0 -180 -36.5t-60 -122.5z" />
<glyph unicode="&#x10f6;" horiz-adv-x="1606" d="M103 531q0 112 18 209t63 168.5t120.5 112.5t191.5 41q60 0 107.5 -13.5t84.5 -40t65 -65t50 -88.5q19 48 46 86t63.5 65t85 41t110.5 14q201 0 298 -136.5t97 -393.5q0 -115 -26.5 -212.5t-78.5 -168t-128.5 -110.5t-176.5 -40q-62 0 -107.5 22t-95.5 63v-128 q0 -93 -28.5 -165t-81.5 -121.5t-127.5 -75.5t-167.5 -26v148q115 0 173 57.5t58 180.5v674q0 70 -11.5 124.5t-38 91.5t-68 56t-101.5 19q-59 0 -101 -25t-68.5 -74.5t-38.5 -122t-12 -167.5q0 -29 2.5 -63.5t11.5 -71t25.5 -71.5t44 -64t67.5 -50t96 -29v-158 q-82 16 -144.5 46.5t-109.5 71t-79 88.5t-51.5 99t-28 102.5t-8.5 99.5zM890 406q0 -62 8.5 -111t31 -82.5t62 -51t101.5 -17.5q74 0 120.5 35.5t72 92t34.5 125t9 134.5q0 190 -50.5 289.5t-168.5 99.5q-59 0 -101 -17.5t-68.5 -53.5t-38.5 -91.5t-12 -131.5v-220z" />
<glyph unicode="&#x10f7;" horiz-adv-x="1088" d="M96 15q0 87 21 157t62 124.5t100.5 95t136.5 69.5q50 19 99 39.5t87.5 50t62 73t23.5 108.5q0 85 -29 136.5t-90 51.5q-80 0 -115 -50.5t-35 -135.5q0 -14 0.5 -25t4.5 -34l-149 -26q-11 45 -13.5 74t-2.5 50q0 68 20.5 121.5t58.5 90.5t92 56.5t122 19.5 q153 0 234.5 -81.5t81.5 -244.5q0 -49 -25.5 -106t-70.5 -110t-106.5 -96.5t-133.5 -65.5q-74 -23 -124.5 -54.5t-81 -74t-43.5 -97t-13 -123.5q0 -65 17.5 -120t52.5 -95.5t87.5 -63t122.5 -22.5q75 0 127.5 25.5t85.5 70.5t48 105.5t15 130.5q0 28 -8 50.5t-20 41 t-26.5 35t-26.5 31.5l124 106q20 -21 41.5 -53t39.5 -68.5t30 -74t12 -69.5q0 -101 -28.5 -187t-84.5 -148t-139 -97t-192 -35q-106 0 -190 33.5t-142 93t-89 141t-31 176.5z" />
<glyph unicode="&#x10f8;" horiz-adv-x="1013" d="M88 33v261t1.5 267t5.5 255t11 227h170q-14 -133 -18 -266.5t-6 -264.5q12 -53 30.5 -90t44.5 -60t60.5 -33t79.5 -10q62 0 107.5 15t75.5 49.5t44.5 90t14.5 137.5q0 59 -13 104t-37 82.5t-58.5 71t-77.5 69.5l87 126q127 -91 199.5 -204.5t72.5 -247.5 q0 -98 -27 -177.5t-78.5 -135.5t-127.5 -86.5t-174 -30.5q-78 0 -134 22t-91 60v-228q0 -171 64.5 -250.5t184.5 -79.5q41 0 84 11.5t78.5 38t58 68.5t22.5 104q0 12 -1 29t-4 35t-7.5 35.5t-11.5 29.5l115 71q43 -39 63 -87t20 -99q0 -98 -37.5 -168t-98 -116t-137 -67.5 t-153.5 -21.5q-94 0 -168.5 29t-126.5 86.5t-79.5 144.5t-27.5 204z" />
<glyph unicode="&#x10f9;" horiz-adv-x="1077" d="M66 578q0 111 31 203.5t91 159.5t147 104t199 37q110 0 198 -34t149.5 -97t94.5 -152t33 -198q0 -99 -32 -176t-86.5 -134.5t-127 -96t-154.5 -60.5q-52 -24 -93 -55t-70 -64.5t-44.5 -67t-15.5 -62.5q0 -43 13.5 -77.5t38 -59t59 -37.5t76.5 -13q38 0 72.5 10.5t60.5 32 t41 53t15 73.5q0 18 -0.5 32t-3.5 27t-9.5 26.5t-17.5 30.5l128 65q31 -52 50 -93t19 -88q0 -84 -33 -141t-85 -91.5t-116.5 -49.5t-127.5 -15q-68 0 -131.5 14.5t-113 50.5t-79.5 97.5t-30 156.5q0 24 10 55t32.5 65t59 69.5t90.5 69.5q-75 26 -137 66.5t-106.5 95 t-69.5 122t-25 146.5zM240 578q0 -64 19 -119.5t55 -98t88.5 -69.5t119.5 -34q72 10 130 36t99.5 68t63.5 101t22 135q0 75 -20.5 138.5t-58.5 109.5t-94 71.5t-126 25.5q-72 0 -127.5 -26.5t-93.5 -74.5t-57.5 -115t-19.5 -148z" />
<glyph unicode="&#x10fa;" horiz-adv-x="1020" d="M94 595q0 109 28 196t81 147t130 92t175 32q100 0 177.5 -27.5t130 -80.5t79.5 -129.5t27 -174.5q0 -150 -54 -247l-168 67q50 86 50 180q0 132 -60 201t-181 69t-180.5 -83.5t-59.5 -245.5q0 -258 206 -383q56 -34 110.5 -55.5t106.5 -44t101.5 -54t96.5 -86.5 l-116 -122q-32 36 -65 68t-69 57t-75.5 39.5t-82.5 14.5q-35 0 -67 -10.5t-62.5 -28.5t-58.5 -41t-54 -48l-88 87q38 51 82.5 85t90.5 52q-231 175 -231 474z" />
<glyph unicode="&#x10fb;" horiz-adv-x="823" d="M86 0v206h227v-206h-227zM86 667v207h227v-207h-227zM517 340v207h224v-207h-224z" />
<glyph unicode="&#x10fc;" horiz-adv-x="467" d="M-9 949v278q0 236 205 236h257v-134h-257q-31 0 -44.5 -22t-13.5 -74v-24l87 27q103 -14 162 -86t68 -200q-13 -123 -71.5 -197.5t-161.5 -88.5q-101 17 -162 88t-69 197zM138 951q0 -149 87 -149h4q38 0 58 36t20 111q1 30 -7.5 57t-21.5 47t-29 32t-30 12 q-81 3 -81 -146z" />
<glyph unicode="&#x1e80;" horiz-adv-x="1933" d="M25 1466h199l223 -961q36 -151 62 -300q56 235 66 271l279 990h234l210 -742q79 -276 114 -519q28 139 73 319l230 942h195l-402 -1466h-187l-309 1117q-39 140 -46 172q-23 -101 -43 -172l-311 -1117h-198zM739 1836h241l135 -280h-145z" />
<glyph unicode="&#x1e81;" horiz-adv-x="1479" d="M6 1062h186l169 -613l63 -228q4 17 55 219l169 622h185l159 -616l53 -203l61 205l182 614h175l-332 -1062h-187l-169 636l-41 181l-215 -817h-188zM449 1474h241l135 -280h-145z" />
<glyph unicode="&#x1e82;" horiz-adv-x="1933" d="M25 1466h199l223 -961q36 -151 62 -300q56 235 66 271l279 990h234l210 -742q79 -276 114 -519q28 139 73 319l230 942h195l-402 -1466h-187l-309 1117q-39 140 -46 172q-23 -101 -43 -172l-311 -1117h-198zM872 1556l133 280h236l-220 -280h-149z" />
<glyph unicode="&#x1e83;" horiz-adv-x="1479" d="M6 1062h186l169 -613l63 -228q4 17 55 219l169 622h185l159 -616l53 -203l61 205l182 614h175l-332 -1062h-187l-169 636l-41 181l-215 -817h-188zM582 1194l133 280h236l-220 -280h-149z" />
<glyph unicode="&#x1e84;" horiz-adv-x="1933" d="M25 1466h199l223 -961q36 -151 62 -300q56 235 66 271l279 990h234l210 -742q79 -276 114 -519q28 139 73 319l230 942h195l-402 -1466h-187l-309 1117q-39 140 -46 172q-23 -101 -43 -172l-311 -1117h-198zM681 1556v205h188v-205h-188zM1054 1556v205h188v-205h-188z " />
<glyph unicode="&#x1e85;" horiz-adv-x="1479" d="M6 1062h186l169 -613l63 -228q4 17 55 219l169 622h185l159 -616l53 -203l61 205l182 614h175l-332 -1062h-187l-169 636l-41 181l-215 -817h-188zM471 1270v205h188v-205h-188zM844 1270v205h188v-205h-188z" />
<glyph unicode="&#x1ea0;" horiz-adv-x="1366" d="M-3 0l563 1466h209l600 -1466h-221l-171 444h-613l-161 -444h-206zM420 602h497l-153 406q-70 185 -104 304q-28 -141 -79 -280zM566 -120h205v-205h-205v205z" />
<glyph unicode="&#x1ea1;" horiz-adv-x="1139" d="M74 280q0 78 35.5 142.5t93 103.5t129.5 59q53 14 160 27q218 26 321 62q1 37 1 47q0 110 -51 155q-69 61 -205 61q-127 0 -187.5 -44.5t-89.5 -157.5l-176 24q24 113 79 182.5t159 107t241 37.5q136 0 221 -32t125 -80.5t56 -122.5q9 -46 9 -166v-240 q0 -251 11.5 -317.5t45.5 -127.5h-188q-28 56 -36 131q-100 -85 -192.5 -120t-198.5 -35q-175 0 -269 85.5t-94 218.5zM266 285q0 -72 54.5 -120t159.5 -48q104 0 185 45.5t119 124.5q29 61 29 180v66q-98 -40 -294 -68q-111 -16 -157 -36t-71 -58.5t-25 -85.5zM458 -120 h205v-205h-205v205z" />
<glyph unicode="&#x1ea2;" horiz-adv-x="1366" d="M-3 0l563 1466h209l600 -1466h-221l-171 444h-613l-161 -444h-206zM420 602h497l-153 406q-70 185 -104 304q-28 -141 -79 -280zM469 1828q39 8 144 7q123 -1 201 -40q86 -42 88 -109q4 -101 -182 -124v-50h-112v112q57 6 73 11q53 13 54 41q1 23 -28 39q-42 23 -133 23 q-31 0 -94 -4z" />
<glyph unicode="&#x1ea3;" horiz-adv-x="1139" d="M74 280q0 78 35.5 142.5t93 103.5t129.5 59q53 14 160 27q218 26 321 62q1 37 1 47q0 110 -51 155q-69 61 -205 61q-127 0 -187.5 -44.5t-89.5 -157.5l-176 24q24 113 79 182.5t159 107t241 37.5q136 0 221 -32t125 -80.5t56 -122.5q9 -46 9 -166v-240 q0 -251 11.5 -317.5t45.5 -127.5h-188q-28 56 -36 131q-100 -85 -192.5 -120t-198.5 -35q-175 0 -269 85.5t-94 218.5zM266 285q0 -72 54.5 -120t159.5 -48q104 0 185 45.5t119 124.5q29 61 29 180v66q-98 -40 -294 -68q-111 -16 -157 -36t-71 -58.5t-25 -85.5zM391 1541 q39 8 144 7q123 -1 201 -40q86 -42 88 -117q4 -124 -182 -147v-50h-112v120q57 6 73 11q53 18 54 56q1 23 -28 39q-42 23 -133 23q-31 0 -94 -4z" />
<glyph unicode="&#x1ea4;" horiz-adv-x="1366" d="M-3 0l563 1466h209l600 -1466h-221l-171 444h-613l-161 -444h-206zM354 1517l209 123h195l208 -123h-175l-131 67l-131 -67h-175zM420 602h497l-153 406q-70 185 -104 304q-28 -141 -79 -280zM563 1677l135 158h226l-231 -158h-130z" />
<glyph unicode="&#x1ea5;" horiz-adv-x="1139" d="M74 280q0 78 35.5 142.5t93 103.5t129.5 59q53 14 160 27q218 26 321 62q1 37 1 47q0 110 -51 155q-69 61 -205 61q-127 0 -187.5 -44.5t-89.5 -157.5l-176 24q24 113 79 182.5t159 107t241 37.5q136 0 221 -32t125 -80.5t56 -122.5q9 -46 9 -166v-240 q0 -251 11.5 -317.5t45.5 -127.5h-188q-28 56 -36 131q-100 -85 -192.5 -120t-198.5 -35q-175 0 -269 85.5t-94 218.5zM247 1194l216 280h192l225 -280h-204l-110 170l-113 -170h-206zM266 285q0 -72 54.5 -120t159.5 -48q104 0 185 45.5t119 124.5q29 61 29 180v66 q-98 -40 -294 -68q-111 -16 -157 -36t-71 -58.5t-25 -85.5zM463 1547l135 280h241l-231 -280h-145z" />
<glyph unicode="&#x1ea6;" horiz-adv-x="1366" d="M-3 0l563 1466h209l600 -1466h-221l-171 444h-613l-161 -444h-206zM354 1517l209 123h195l208 -123h-175l-131 67l-131 -67h-175zM397 1835h226l135 -158h-130zM420 602h497l-153 406q-70 185 -104 304q-28 -141 -79 -280z" />
<glyph unicode="&#x1ea7;" horiz-adv-x="1139" d="M74 280q0 78 35.5 142.5t93 103.5t129.5 59q53 14 160 27q218 26 321 62q1 37 1 47q0 110 -51 155q-69 61 -205 61q-127 0 -187.5 -44.5t-89.5 -157.5l-176 24q24 113 79 182.5t159 107t241 37.5q136 0 221 -32t125 -80.5t56 -122.5q9 -46 9 -166v-240 q0 -251 11.5 -317.5t45.5 -127.5h-188q-28 56 -36 131q-100 -85 -192.5 -120t-198.5 -35q-175 0 -269 85.5t-94 218.5zM247 1194l216 280h192l225 -280h-204l-110 170l-113 -170h-206zM266 285q0 -72 54.5 -120t159.5 -48q104 0 185 45.5t119 124.5q29 61 29 180v66 q-98 -40 -294 -68q-111 -16 -157 -36t-71 -58.5t-25 -85.5zM279 1827h241l135 -280h-145z" />
<glyph unicode="&#x1ea8;" horiz-adv-x="1366" d="M-3 0l563 1466h209l600 -1466h-221l-171 444h-613l-161 -444h-206zM354 1517l209 123h195l208 -123h-175l-131 67l-131 -67h-175zM420 602h497l-153 406q-70 185 -104 304q-28 -141 -79 -280zM481 1831q36 5 134 4q262 -1 267 -91q3 -63 -169 -77v-22h-93v55q39 2 57 6 q49 11 50 33q1 13 -26 22q-39 13 -123 13q-8 0 -38 -2.5t-48 -5.5z" />
<glyph unicode="&#x1ea9;" horiz-adv-x="1139" d="M74 280q0 78 35.5 142.5t93 103.5t129.5 59q53 14 160 27q218 26 321 62q1 37 1 47q0 110 -51 155q-69 61 -205 61q-127 0 -187.5 -44.5t-89.5 -157.5l-176 24q24 113 79 182.5t159 107t241 37.5q136 0 221 -32t125 -80.5t56 -122.5q9 -46 9 -166v-240 q0 -251 11.5 -317.5t45.5 -127.5h-188q-28 56 -36 131q-100 -85 -192.5 -120t-198.5 -35q-175 0 -269 85.5t-94 218.5zM247 1194l216 280h192l225 -280h-204l-110 170l-113 -170h-206zM266 285q0 -72 54.5 -120t159.5 -48q104 0 185 45.5t119 124.5q29 61 29 180v66 q-98 -40 -294 -68q-111 -16 -157 -36t-71 -58.5t-25 -85.5zM369 1828q39 8 144 7q123 -1 201 -40q86 -42 88 -109q4 -101 -182 -124v-50h-112v112q57 6 73 11q53 13 54 41q1 23 -28 39q-42 23 -133 23q-31 0 -94 -4z" />
<glyph unicode="&#x1eaa;" horiz-adv-x="1366" d="M-3 0l563 1466h209l600 -1466h-221l-171 444h-613l-161 -444h-206zM335 1660q0 82 56 127.5t147 45.5q62 0 169 -44q59 -24 127 -24q61 0 73 70h97q-6 -172 -196 -172q-63 0 -166 44q-67 29 -131 29q-81 0 -79 -76h-97zM354 1517l209 123h195l208 -123h-175l-131 67 l-131 -67h-175zM420 602h497l-153 406q-70 185 -104 304q-28 -141 -79 -280z" />
<glyph unicode="&#x1eab;" horiz-adv-x="1139" d="M74 280q0 78 35.5 142.5t93 103.5t129.5 59q53 14 160 27q218 26 321 62q1 37 1 47q0 110 -51 155q-69 61 -205 61q-127 0 -187.5 -44.5t-89.5 -157.5l-176 24q24 113 79 182.5t159 107t241 37.5q136 0 221 -32t125 -80.5t56 -122.5q9 -46 9 -166v-240 q0 -251 11.5 -317.5t45.5 -127.5h-188q-28 56 -36 131q-100 -85 -192.5 -120t-198.5 -35q-175 0 -269 85.5t-94 218.5zM231 1547q-1 102 55.5 165t147.5 63q62 0 169 -54q59 -30 94 -30q61 0 73 87h130q-6 -228 -196 -228q-63 0 -166 56q-67 36 -98 36q-78 0 -76 -95h-133z M247 1194l216 280h192l225 -280h-204l-110 170l-113 -170h-206zM266 285q0 -72 54.5 -120t159.5 -48q104 0 185 45.5t119 124.5q29 61 29 180v66q-98 -40 -294 -68q-111 -16 -157 -36t-71 -58.5t-25 -85.5z" />
<glyph unicode="&#x1eac;" horiz-adv-x="1366" d="M-3 0l563 1466h209l600 -1466h-221l-171 444h-613l-161 -444h-206zM354 1517l209 123h195l208 -123h-175l-131 67l-131 -67h-175zM420 602h497l-153 406q-70 185 -104 304q-28 -141 -79 -280zM566 -120h205v-205h-205v205z" />
<glyph unicode="&#x1ead;" horiz-adv-x="1139" d="M74 280q0 78 35.5 142.5t93 103.5t129.5 59q53 14 160 27q218 26 321 62q1 37 1 47q0 110 -51 155q-69 61 -205 61q-127 0 -187.5 -44.5t-89.5 -157.5l-176 24q24 113 79 182.5t159 107t241 37.5q136 0 221 -32t125 -80.5t56 -122.5q9 -46 9 -166v-240 q0 -251 11.5 -317.5t45.5 -127.5h-188q-28 56 -36 131q-100 -85 -192.5 -120t-198.5 -35q-175 0 -269 85.5t-94 218.5zM247 1194l216 280h192l225 -280h-204l-110 170l-113 -170h-206zM266 285q0 -72 54.5 -120t159.5 -48q104 0 185 45.5t119 124.5q29 61 29 180v66 q-98 -40 -294 -68q-111 -16 -157 -36t-71 -58.5t-25 -85.5zM458 -120h205v-205h-205v205z" />
<glyph unicode="&#x1eae;" horiz-adv-x="1366" d="M-3 0l563 1466h209l600 -1466h-221l-171 444h-613l-161 -444h-206zM384 1638h78q24 -29 83 -48q64 -20 129 -20q67 0 131 20q59 18 83 48h79q-31 -72 -104 -108q-77 -38 -189 -38q-35 0 -66 4q-118 14 -177 75q-30 30 -47 67zM420 602h497l-153 406q-70 185 -104 304 q-28 -141 -79 -280zM563 1677l135 158h226l-231 -158h-130z" />
<glyph unicode="&#x1eaf;" horiz-adv-x="1139" d="M74 280q0 78 35.5 142.5t93 103.5t129.5 59q53 14 160 27q218 26 321 62q1 37 1 47q0 110 -51 155q-69 61 -205 61q-127 0 -187.5 -44.5t-89.5 -157.5l-176 24q24 113 79 182.5t159 107t241 37.5q136 0 221 -32t125 -80.5t56 -122.5q9 -46 9 -166v-240 q0 -251 11.5 -317.5t45.5 -127.5h-188q-28 56 -36 131q-100 -85 -192.5 -120t-198.5 -35q-175 0 -269 85.5t-94 218.5zM266 285q0 -72 54.5 -120t159.5 -48q104 0 185 45.5t119 124.5q29 61 29 180v66q-98 -40 -294 -68q-111 -16 -157 -36t-71 -58.5t-25 -85.5zM291 1464 h123q14 -68 55.5 -101.5t111.5 -33.5q81 0 122.5 32.5t55.5 102.5h123q-15 -125 -91.5 -192t-203.5 -67q-128 0 -204.5 66.5t-91.5 192.5zM460 1547l135 280h241l-231 -280h-145z" />
<glyph unicode="&#x1eb0;" horiz-adv-x="1366" d="M-3 0l563 1466h209l600 -1466h-221l-171 444h-613l-161 -444h-206zM384 1638h78q24 -29 83 -48q64 -20 129 -20q67 0 131 20q59 18 83 48h79q-31 -72 -104 -108q-77 -38 -189 -38q-35 0 -66 4q-118 14 -177 75q-30 30 -47 67zM397 1835h226l135 -158h-130zM420 602h497 l-153 406q-70 185 -104 304q-28 -141 -79 -280z" />
<glyph unicode="&#x1eb1;" horiz-adv-x="1139" d="M74 280q0 78 35.5 142.5t93 103.5t129.5 59q53 14 160 27q218 26 321 62q1 37 1 47q0 110 -51 155q-69 61 -205 61q-127 0 -187.5 -44.5t-89.5 -157.5l-176 24q24 113 79 182.5t159 107t241 37.5q136 0 221 -32t125 -80.5t56 -122.5q9 -46 9 -166v-240 q0 -251 11.5 -317.5t45.5 -127.5h-188q-28 56 -36 131q-100 -85 -192.5 -120t-198.5 -35q-175 0 -269 85.5t-94 218.5zM266 285q0 -72 54.5 -120t159.5 -48q104 0 185 45.5t119 124.5q29 61 29 180v66q-98 -40 -294 -68q-111 -16 -157 -36t-71 -58.5t-25 -85.5zM291 1464 h123q14 -68 55.5 -101.5t111.5 -33.5q81 0 122.5 32.5t55.5 102.5h123q-15 -125 -91.5 -192t-203.5 -67q-128 0 -204.5 66.5t-91.5 192.5zM326 1827h241l135 -280h-145z" />
<glyph unicode="&#x1eb2;" horiz-adv-x="1366" d="M-3 0l563 1466h209l600 -1466h-221l-171 444h-613l-161 -444h-206zM384 1638h78q24 -29 83 -48q64 -20 129 -20q67 0 131 20q59 18 83 48h79q-31 -72 -104 -108q-77 -38 -189 -38q-35 0 -66 4q-118 14 -177 75q-30 30 -47 67zM420 602h497l-153 406q-70 185 -104 304 q-28 -141 -79 -280zM481 1831q36 5 134 4q262 -1 267 -91q3 -63 -169 -77v-22h-93v55q39 2 57 6q49 11 50 33q1 13 -26 22q-39 13 -123 13q-8 0 -38 -2.5t-48 -5.5z" />
<glyph unicode="&#x1eb3;" horiz-adv-x="1139" d="M74 280q0 78 35.5 142.5t93 103.5t129.5 59q53 14 160 27q218 26 321 62q1 37 1 47q0 110 -51 155q-69 61 -205 61q-127 0 -187.5 -44.5t-89.5 -157.5l-176 24q24 113 79 182.5t159 107t241 37.5q136 0 221 -32t125 -80.5t56 -122.5q9 -46 9 -166v-240 q0 -251 11.5 -317.5t45.5 -127.5h-188q-28 56 -36 131q-100 -85 -192.5 -120t-198.5 -35q-175 0 -269 85.5t-94 218.5zM266 285q0 -72 54.5 -120t159.5 -48q104 0 185 45.5t119 124.5q29 61 29 180v66q-98 -40 -294 -68q-111 -16 -157 -36t-71 -58.5t-25 -85.5zM291 1464 h123q14 -68 55.5 -101.5t111.5 -33.5q81 0 122.5 32.5t55.5 102.5h123q-15 -125 -91.5 -192t-203.5 -67q-128 0 -204.5 66.5t-91.5 192.5zM389 1828q39 8 144 7q123 -1 201 -40q86 -42 88 -109q4 -101 -182 -124v-50h-112v112q57 6 73 11q53 13 54 41q1 23 -28 39 q-42 23 -133 23q-31 0 -94 -4z" />
<glyph unicode="&#x1eb4;" horiz-adv-x="1366" d="M-3 0l563 1466h209l600 -1466h-221l-171 444h-613l-161 -444h-206zM355 1660q0 82 56 127.5t147 45.5q62 0 169 -44q59 -24 127 -24q61 0 73 70h97q-6 -172 -196 -172q-63 0 -166 44q-67 29 -131 29q-81 0 -79 -76h-97zM384 1638h78q24 -29 83 -48q64 -20 129 -20 q67 0 131 20q59 18 83 48h79q-31 -72 -104 -108q-77 -38 -189 -38q-35 0 -66 4q-118 14 -177 75q-30 30 -47 67zM420 602h497l-153 406q-70 185 -104 304q-28 -141 -79 -280z" />
<glyph unicode="&#x1eb5;" horiz-adv-x="1139" d="M74 280q0 78 35.5 142.5t93 103.5t129.5 59q53 14 160 27q218 26 321 62q1 37 1 47q0 110 -51 155q-69 61 -205 61q-127 0 -187.5 -44.5t-89.5 -157.5l-176 24q24 113 79 182.5t159 107t241 37.5q136 0 221 -32t125 -80.5t56 -122.5q9 -46 9 -166v-240 q0 -251 11.5 -317.5t45.5 -127.5h-188q-28 56 -36 131q-100 -85 -192.5 -120t-198.5 -35q-175 0 -269 85.5t-94 218.5zM266 285q0 -72 54.5 -120t159.5 -48q104 0 185 45.5t119 124.5q29 61 29 180v66q-98 -40 -294 -68q-111 -16 -157 -36t-71 -58.5t-25 -85.5zM271 1547 q-1 102 55.5 165t147.5 63q62 0 169 -54q59 -30 94 -30q61 0 73 87h130q-6 -228 -196 -228q-63 0 -166 56q-67 36 -98 36q-78 0 -76 -95h-133zM291 1464h123q14 -68 55.5 -101.5t111.5 -33.5q81 0 122.5 32.5t55.5 102.5h123q-15 -125 -91.5 -192t-203.5 -67 q-128 0 -204.5 66.5t-91.5 192.5z" />
<glyph unicode="&#x1eb6;" horiz-adv-x="1366" d="M-3 0l563 1466h209l600 -1466h-221l-171 444h-613l-161 -444h-206zM384 1638h78q24 -29 83 -48q64 -20 129 -20q67 0 131 20q59 18 83 48h79q-31 -72 -104 -108q-77 -38 -189 -38q-35 0 -66 4q-118 14 -177 75q-30 30 -47 67zM420 602h497l-153 406q-70 185 -104 304 q-28 -141 -79 -280zM566 -120h205v-205h-205v205z" />
<glyph unicode="&#x1eb7;" horiz-adv-x="1139" d="M74 280q0 78 35.5 142.5t93 103.5t129.5 59q53 14 160 27q218 26 321 62q1 37 1 47q0 110 -51 155q-69 61 -205 61q-127 0 -187.5 -44.5t-89.5 -157.5l-176 24q24 113 79 182.5t159 107t241 37.5q136 0 221 -32t125 -80.5t56 -122.5q9 -46 9 -166v-240 q0 -251 11.5 -317.5t45.5 -127.5h-188q-28 56 -36 131q-100 -85 -192.5 -120t-198.5 -35q-175 0 -269 85.5t-94 218.5zM266 285q0 -72 54.5 -120t159.5 -48q104 0 185 45.5t119 124.5q29 61 29 180v66q-98 -40 -294 -68q-111 -16 -157 -36t-71 -58.5t-25 -85.5zM291 1464 h123q14 -68 55.5 -101.5t111.5 -33.5q81 0 122.5 32.5t55.5 102.5h123q-15 -125 -91.5 -192t-203.5 -67q-128 0 -204.5 66.5t-91.5 192.5zM458 -120h205v-205h-205v205z" />
<glyph unicode="&#x1eb8;" horiz-adv-x="1366" d="M162 0v1466h1060v-173h-866v-449h811v-172h-811v-499h900v-173h-1094zM606 -120h205v-205h-205v205z" />
<glyph unicode="&#x1eb9;" horiz-adv-x="1139" d="M75 522q0 268 138 416t358 148q213 0 348 -145t135 -408q0 -16 -1 -48h-792q10 -175 99 -268t222 -93q99 0 169 52t111 166l186 -23q-44 -163 -163 -253t-304 -90q-233 0 -369.5 143.5t-136.5 402.5zM271 633h593q-12 134 -68 201q-86 104 -223 104q-124 0 -208.5 -83 t-93.5 -222zM476 -120h205v-205h-205v205z" />
<glyph unicode="&#x1eba;" horiz-adv-x="1366" d="M162 0v1466h1060v-173h-866v-449h811v-172h-811v-499h900v-173h-1094zM509 1828q39 8 144 7q123 -1 201 -40q86 -42 88 -109q4 -101 -182 -124v-50h-112v112q57 6 73 11q53 13 54 41q1 23 -28 39q-42 23 -133 23q-31 0 -94 -4z" />
<glyph unicode="&#x1ebb;" horiz-adv-x="1139" d="M75 522q0 268 138 416t358 148q213 0 348 -145t135 -408q0 -16 -1 -48h-792q10 -175 99 -268t222 -93q99 0 169 52t111 166l186 -23q-44 -163 -163 -253t-304 -90q-233 0 -369.5 143.5t-136.5 402.5zM271 633h593q-12 134 -68 201q-86 104 -223 104q-124 0 -208.5 -83 t-93.5 -222zM381 1541q39 8 144 7q123 -1 201 -40q86 -42 88 -117q4 -124 -182 -147v-50h-112v120q57 6 73 11q53 18 54 56q1 23 -28 39q-42 23 -133 23q-31 0 -94 -4z" />
<glyph unicode="&#x1ebc;" horiz-adv-x="1366" d="M162 0v1466h1060v-173h-866v-449h811v-172h-811v-499h900v-173h-1094zM387 1581q-1 104 57 166q57 62 146 62q62 0 169 -54q59 -30 94 -30q32 0 49 17.5t24 69.5h130q-3 -114 -57.5 -171t-138.5 -57q-63 0 -166 56q-67 36 -98 36q-34 0 -55 -24q-22 -24 -21 -71h-133z " />
<glyph unicode="&#x1ebd;" horiz-adv-x="1139" d="M75 522q0 268 138 416t358 148q213 0 348 -145t135 -408q0 -16 -1 -48h-792q10 -175 99 -268t222 -93q99 0 169 52t111 166l186 -23q-44 -163 -163 -253t-304 -90q-233 0 -369.5 143.5t-136.5 402.5zM247 1219q-1 104 57 166q57 62 146 62q62 0 169 -54q59 -30 94 -30 q32 0 49 17.5t24 69.5h130q-3 -114 -57.5 -171t-138.5 -57q-63 0 -166 56q-67 36 -98 36q-34 0 -55 -24q-22 -24 -21 -71h-133zM271 633h593q-12 134 -68 201q-86 104 -223 104q-124 0 -208.5 -83t-93.5 -222z" />
<glyph unicode="&#x1ebe;" horiz-adv-x="1366" d="M162 0v1466h1060v-173h-866v-449h811v-172h-811v-499h900v-173h-1094zM384 1517l209 123h195l208 -123h-175l-131 67l-131 -67h-175zM593 1677l135 158h226l-231 -158h-130z" />
<glyph unicode="&#x1ebf;" horiz-adv-x="1139" d="M75 522q0 268 138 416t358 148q213 0 348 -145t135 -408q0 -16 -1 -48h-792q10 -175 99 -268t222 -93q99 0 169 52t111 166l186 -23q-44 -163 -163 -253t-304 -90q-233 0 -369.5 143.5t-136.5 402.5zM248 1194l216 280h192l225 -280h-204l-110 170l-113 -170h-206z M271 633h593q-12 134 -68 201q-86 104 -223 104q-124 0 -208.5 -83t-93.5 -222zM464 1547l135 280h241l-231 -280h-145z" />
<glyph unicode="&#x1ec0;" horiz-adv-x="1366" d="M162 0v1466h1060v-173h-866v-449h811v-172h-811v-499h900v-173h-1094zM384 1517l209 123h195l208 -123h-175l-131 67l-131 -67h-175zM427 1835h226l135 -158h-130z" />
<glyph unicode="&#x1ec1;" horiz-adv-x="1139" d="M75 522q0 268 138 416t358 148q213 0 348 -145t135 -408q0 -16 -1 -48h-792q10 -175 99 -268t222 -93q99 0 169 52t111 166l186 -23q-44 -163 -163 -253t-304 -90q-233 0 -369.5 143.5t-136.5 402.5zM248 1194l216 280h192l225 -280h-204l-110 170l-113 -170h-206z M271 633h593q-12 134 -68 201q-86 104 -223 104q-124 0 -208.5 -83t-93.5 -222zM280 1827h241l135 -280h-145z" />
<glyph unicode="&#x1ec2;" horiz-adv-x="1366" d="M162 0v1466h1060v-173h-866v-449h811v-172h-811v-499h900v-173h-1094zM384 1517l209 123h195l208 -123h-175l-131 67l-131 -67h-175zM501 1831q36 5 134 4q262 -1 267 -91q3 -63 -169 -77v-22h-93v55q39 2 57 6q49 11 50 33q1 13 -26 22q-39 13 -123 13q-8 0 -38 -2.5 t-48 -5.5z" />
<glyph unicode="&#x1ec3;" horiz-adv-x="1139" d="M75 522q0 268 138 416t358 148q213 0 348 -145t135 -408q0 -16 -1 -48h-792q10 -175 99 -268t222 -93q99 0 169 52t111 166l186 -23q-44 -163 -163 -253t-304 -90q-233 0 -369.5 143.5t-136.5 402.5zM248 1194l216 280h192l225 -280h-204l-110 170l-113 -170h-206z M271 633h593q-12 134 -68 201q-86 104 -223 104q-124 0 -208.5 -83t-93.5 -222zM369 1828q39 8 144 7q123 -1 201 -40q86 -42 88 -109q4 -101 -182 -124v-50h-112v112q57 6 73 11q53 13 54 41q1 23 -28 39q-42 23 -133 23q-31 0 -94 -4z" />
<glyph unicode="&#x1ec4;" horiz-adv-x="1366" d="M162 0v1466h1060v-173h-866v-449h811v-172h-811v-499h900v-173h-1094zM355 1660q0 82 56 127.5t147 45.5q62 0 169 -44q59 -24 127 -24q61 0 73 70h97q-6 -172 -196 -172q-63 0 -166 44q-67 29 -131 29q-81 0 -79 -76h-97zM384 1517l209 123h195l208 -123h-175l-131 67 l-131 -67h-175z" />
<glyph unicode="&#x1ec5;" horiz-adv-x="1139" d="M75 522q0 268 138 416t358 148q213 0 348 -145t135 -408q0 -16 -1 -48h-792q10 -175 99 -268t222 -93q99 0 169 52t111 166l186 -23q-44 -163 -163 -253t-304 -90q-233 0 -369.5 143.5t-136.5 402.5zM231 1547q-1 102 55.5 165t147.5 63q62 0 169 -54q59 -30 94 -30 q61 0 73 87h130q-6 -228 -196 -228q-63 0 -166 56q-67 36 -98 36q-78 0 -76 -95h-133zM248 1194l216 280h192l225 -280h-204l-110 170l-113 -170h-206zM271 633h593q-12 134 -68 201q-86 104 -223 104q-124 0 -208.5 -83t-93.5 -222z" />
<glyph unicode="&#x1ec6;" horiz-adv-x="1366" d="M162 0v1466h1060v-173h-866v-449h811v-172h-811v-499h900v-173h-1094zM384 1517l209 123h195l208 -123h-175l-131 67l-131 -67h-175zM606 -120h205v-205h-205v205z" />
<glyph unicode="&#x1ec7;" horiz-adv-x="1139" d="M75 522q0 268 138 416t358 148q213 0 348 -145t135 -408q0 -16 -1 -48h-792q10 -175 99 -268t222 -93q99 0 169 52t111 166l186 -23q-44 -163 -163 -253t-304 -90q-233 0 -369.5 143.5t-136.5 402.5zM248 1194l216 280h192l225 -280h-204l-110 170l-113 -170h-206z M271 633h593q-12 134 -68 201q-86 104 -223 104q-124 0 -208.5 -83t-93.5 -222zM476 -120h205v-205h-205v205z" />
<glyph unicode="&#x1ec8;" horiz-adv-x="569" d="M99 1828q39 8 144 7q123 -1 201 -40q86 -42 88 -109q4 -101 -182 -124v-50h-112v112q57 6 73 11q53 13 54 41q1 23 -28 39q-42 23 -133 23q-31 0 -94 -4zM191 0v1466h194v-1466h-194z" />
<glyph unicode="&#x1ec9;" horiz-adv-x="455" d="M31 1541q39 8 144 7q123 -1 201 -40q86 -42 88 -117q4 -124 -182 -147v-50h-112v120q57 6 73 11q53 18 54 56q1 23 -28 39q-42 23 -133 23q-31 0 -94 -4zM136 0v1062h180v-1062h-180z" />
<glyph unicode="&#x1eca;" horiz-adv-x="569" d="M186 -120h205v-205h-205v205zM191 0v1466h194v-1466h-194z" />
<glyph unicode="&#x1ecb;" horiz-adv-x="455" d="M124 -120h205v-205h-205v205zM136 0v1062h180v-1062h-180zM136 1259v207h180v-207h-180z" />
<glyph unicode="&#x1ecc;" horiz-adv-x="1593" d="M99 714q0 365 196 571.5t506 206.5q203 0 366 -97t248.5 -270.5t85.5 -393.5q0 -223 -90 -399t-255 -266.5t-356 -90.5q-207 0 -370 100t-247 273t-84 366zM299 711q0 -265 142.5 -417.5t357.5 -152.5q219 0 360.5 154t141.5 437q0 179 -60.5 312.5t-177 207t-261.5 73.5 q-206 0 -354.5 -141.5t-148.5 -472.5zM686 -120h205v-205h-205v205z" />
<glyph unicode="&#x1ecd;" horiz-adv-x="1139" d="M68 531q0 295 164 437q137 118 334 118q219 0 358 -143.5t139 -396.5q0 -205 -61.5 -322.5t-179 -182.5t-256.5 -65q-223 0 -360.5 143t-137.5 412zM253 531q0 -204 89 -305.5t224 -101.5q134 0 223 102t89 311q0 197 -89.5 298.5t-222.5 101.5q-135 0 -224 -101 t-89 -305zM456 -120h205v-205h-205v205z" />
<glyph unicode="&#x1ece;" horiz-adv-x="1593" d="M99 714q0 365 196 571.5t506 206.5q203 0 366 -97t248.5 -270.5t85.5 -393.5q0 -223 -90 -399t-255 -266.5t-356 -90.5q-207 0 -370 100t-247 273t-84 366zM299 711q0 -265 142.5 -417.5t357.5 -152.5q219 0 360.5 154t141.5 437q0 179 -60.5 312.5t-177 207t-261.5 73.5 q-206 0 -354.5 -141.5t-148.5 -472.5zM609 1828q39 8 144 7q123 -1 201 -40q86 -42 88 -109q4 -101 -182 -124v-50h-112v112q57 6 73 11q53 13 54 41q1 23 -28 39q-42 23 -133 23q-31 0 -94 -4z" />
<glyph unicode="&#x1ecf;" horiz-adv-x="1139" d="M68 531q0 295 164 437q137 118 334 118q219 0 358 -143.5t139 -396.5q0 -205 -61.5 -322.5t-179 -182.5t-256.5 -65q-223 0 -360.5 143t-137.5 412zM253 531q0 -204 89 -305.5t224 -101.5q134 0 223 102t89 311q0 197 -89.5 298.5t-222.5 101.5q-135 0 -224 -101 t-89 -305zM381 1541q39 8 144 7q123 -1 201 -40q86 -42 88 -117q4 -124 -182 -147v-50h-112v120q57 6 73 11q53 18 54 56q1 23 -28 39q-42 23 -133 23q-31 0 -94 -4z" />
<glyph unicode="&#x1ed0;" horiz-adv-x="1593" d="M99 714q0 365 196 571.5t506 206.5q203 0 366 -97t248.5 -270.5t85.5 -393.5q0 -223 -90 -399t-255 -266.5t-356 -90.5q-207 0 -370 100t-247 273t-84 366zM299 711q0 -265 142.5 -417.5t357.5 -152.5q219 0 360.5 154t141.5 437q0 179 -60.5 312.5t-177 207t-261.5 73.5 q-206 0 -354.5 -141.5t-148.5 -472.5zM497 1517l209 123h195l208 -123h-175l-131 67l-131 -67h-175zM706 1677l135 158h226l-231 -158h-130z" />
<glyph unicode="&#x1ed1;" horiz-adv-x="1139" d="M68 531q0 295 164 437q137 118 334 118q219 0 358 -143.5t139 -396.5q0 -205 -61.5 -322.5t-179 -182.5t-256.5 -65q-223 0 -360.5 143t-137.5 412zM249 1194l216 280h192l225 -280h-204l-110 170l-113 -170h-206zM253 531q0 -204 89 -305.5t224 -101.5q134 0 223 102 t89 311q0 197 -89.5 298.5t-222.5 101.5q-135 0 -224 -101t-89 -305zM465 1547l135 280h241l-231 -280h-145z" />
<glyph unicode="&#x1ed2;" horiz-adv-x="1593" d="M99 714q0 365 196 571.5t506 206.5q203 0 366 -97t248.5 -270.5t85.5 -393.5q0 -223 -90 -399t-255 -266.5t-356 -90.5q-207 0 -370 100t-247 273t-84 366zM299 711q0 -265 142.5 -417.5t357.5 -152.5q219 0 360.5 154t141.5 437q0 179 -60.5 312.5t-177 207t-261.5 73.5 q-206 0 -354.5 -141.5t-148.5 -472.5zM497 1517l209 123h195l208 -123h-175l-131 67l-131 -67h-175zM540 1835h226l135 -158h-130z" />
<glyph unicode="&#x1ed3;" horiz-adv-x="1139" d="M68 531q0 295 164 437q137 118 334 118q219 0 358 -143.5t139 -396.5q0 -205 -61.5 -322.5t-179 -182.5t-256.5 -65q-223 0 -360.5 143t-137.5 412zM249 1194l216 280h192l225 -280h-204l-110 170l-113 -170h-206zM253 531q0 -204 89 -305.5t224 -101.5q134 0 223 102 t89 311q0 197 -89.5 298.5t-222.5 101.5q-135 0 -224 -101t-89 -305zM281 1827h241l135 -280h-145z" />
<glyph unicode="&#x1ed4;" horiz-adv-x="1593" d="M99 714q0 365 196 571.5t506 206.5q203 0 366 -97t248.5 -270.5t85.5 -393.5q0 -223 -90 -399t-255 -266.5t-356 -90.5q-207 0 -370 100t-247 273t-84 366zM299 711q0 -265 142.5 -417.5t357.5 -152.5q219 0 360.5 154t141.5 437q0 179 -60.5 312.5t-177 207t-261.5 73.5 q-206 0 -354.5 -141.5t-148.5 -472.5zM497 1517l209 123h195l208 -123h-175l-131 67l-131 -67h-175zM621 1831q36 5 134 4q262 -1 267 -91q3 -63 -169 -77v-22h-93v55q39 2 57 6q49 11 50 33q1 13 -26 22q-39 13 -123 13q-8 0 -38 -2.5t-48 -5.5z" />
<glyph unicode="&#x1ed5;" horiz-adv-x="1139" d="M68 531q0 295 164 437q137 118 334 118q219 0 358 -143.5t139 -396.5q0 -205 -61.5 -322.5t-179 -182.5t-256.5 -65q-223 0 -360.5 143t-137.5 412zM249 1194l216 280h192l225 -280h-204l-110 170l-113 -170h-206zM253 531q0 -204 89 -305.5t224 -101.5q134 0 223 102 t89 311q0 197 -89.5 298.5t-222.5 101.5q-135 0 -224 -101t-89 -305zM369 1828q39 8 144 7q123 -1 201 -40q86 -42 88 -109q4 -101 -182 -124v-50h-112v112q57 6 73 11q53 13 54 41q1 23 -28 39q-42 23 -133 23q-31 0 -94 -4z" />
<glyph unicode="&#x1ed6;" horiz-adv-x="1593" d="M99 714q0 365 196 571.5t506 206.5q203 0 366 -97t248.5 -270.5t85.5 -393.5q0 -223 -90 -399t-255 -266.5t-356 -90.5q-207 0 -370 100t-247 273t-84 366zM299 711q0 -265 142.5 -417.5t357.5 -152.5q219 0 360.5 154t141.5 437q0 179 -60.5 312.5t-177 207t-261.5 73.5 q-206 0 -354.5 -141.5t-148.5 -472.5zM475 1660q0 82 56 127.5t147 45.5q62 0 169 -44q59 -24 127 -24q61 0 73 70h97q-6 -172 -196 -172q-63 0 -166 44q-67 29 -131 29q-81 0 -79 -76h-97zM497 1517l209 123h195l208 -123h-175l-131 67l-131 -67h-175z" />
<glyph unicode="&#x1ed7;" horiz-adv-x="1139" d="M68 531q0 295 164 437q137 118 334 118q219 0 358 -143.5t139 -396.5q0 -205 -61.5 -322.5t-179 -182.5t-256.5 -65q-223 0 -360.5 143t-137.5 412zM231 1547q-1 102 55.5 165t147.5 63q62 0 169 -54q59 -30 94 -30q61 0 73 87h130q-6 -228 -196 -228q-63 0 -166 56 q-67 36 -98 36q-78 0 -76 -95h-133zM249 1194l216 280h192l225 -280h-204l-110 170l-113 -170h-206zM253 531q0 -204 89 -305.5t224 -101.5q134 0 223 102t89 311q0 197 -89.5 298.5t-222.5 101.5q-135 0 -224 -101t-89 -305z" />
<glyph unicode="&#x1ed8;" horiz-adv-x="1593" d="M99 714q0 365 196 571.5t506 206.5q203 0 366 -97t248.5 -270.5t85.5 -393.5q0 -223 -90 -399t-255 -266.5t-356 -90.5q-207 0 -370 100t-247 273t-84 366zM299 711q0 -265 142.5 -417.5t357.5 -152.5q219 0 360.5 154t141.5 437q0 179 -60.5 312.5t-177 207t-261.5 73.5 q-206 0 -354.5 -141.5t-148.5 -472.5zM497 1517l209 123h195l208 -123h-175l-131 67l-131 -67h-175zM686 -120h205v-205h-205v205z" />
<glyph unicode="&#x1ed9;" horiz-adv-x="1139" d="M68 531q0 295 164 437q137 118 334 118q219 0 358 -143.5t139 -396.5q0 -205 -61.5 -322.5t-179 -182.5t-256.5 -65q-223 0 -360.5 143t-137.5 412zM249 1194l216 280h192l225 -280h-204l-110 170l-113 -170h-206zM253 531q0 -204 89 -305.5t224 -101.5q134 0 223 102 t89 311q0 197 -89.5 298.5t-222.5 101.5q-135 0 -224 -101t-89 -305zM456 -120h205v-205h-205v205z" />
<glyph unicode="&#x1eda;" horiz-adv-x="1756" d="M99 714q0 360 196 572q191 206 506 206q227 0 402.5 -123.5t248.5 -331.5q91 49 128 105q30 45 29 131h-94v209h193v-165q0 -124 -38 -190q-52 -91 -195 -167q26 -108 26 -229q0 -224 -90.5 -399.5t-255 -266t-355.5 -90.5q-206 0 -369.5 99.5t-247.5 273t-84 366.5z M299 711q0 -260 143 -418q138 -152 357 -152q224 0 361 154q141 160 141 437q0 370 -237 520q-117 73 -262 73q-223 0 -354 -141q-149 -160 -149 -473zM677 1556l133 280h236l-220 -280h-149z" />
<glyph unicode="&#x1edb;" horiz-adv-x="1343" d="M68 531q0 295 164 437q137 118 334 118q219 0 358 -143q105 -109 131 -281q68 42 97.5 87t28.5 130h-94v209h193v-165q0 -124 -38 -190q-49 -86 -179 -158v-29q0 -372 -240 -505q-118 -65 -257 -65q-228 0 -361 143q-137 148 -137 412zM253 531q0 -197 89 -305 q84 -102 224 -102t223 102q89 109 89 311q0 191 -90 298q-84 102 -222 102q-141 0 -224 -101q-89 -108 -89 -305zM466 1194l133 280h236l-220 -280h-149z" />
<glyph unicode="&#x1edc;" horiz-adv-x="1756" d="M99 714q0 360 196 572q191 206 506 206q227 0 402.5 -123.5t248.5 -331.5q91 49 128 105q30 45 29 131h-94v209h193v-165q0 -124 -38 -190q-52 -91 -195 -167q26 -108 26 -229q0 -224 -90.5 -399.5t-255 -266t-355.5 -90.5q-206 0 -369.5 99.5t-247.5 273t-84 366.5z M299 711q0 -260 143 -418q138 -152 357 -152q224 0 361 154q141 160 141 437q0 370 -237 520q-117 73 -262 73q-223 0 -354 -141q-149 -160 -149 -473zM540 1836h241l135 -280h-145z" />
<glyph unicode="&#x1edd;" horiz-adv-x="1343" d="M68 531q0 295 164 437q137 118 334 118q219 0 358 -143q105 -109 131 -281q68 42 97.5 87t28.5 130h-94v209h193v-165q0 -124 -38 -190q-49 -86 -179 -158v-29q0 -372 -240 -505q-118 -65 -257 -65q-228 0 -361 143q-137 148 -137 412zM253 531q0 -197 89 -305 q84 -102 224 -102t223 102q89 109 89 311q0 191 -90 298q-84 102 -222 102q-141 0 -224 -101q-89 -108 -89 -305zM311 1474h241l135 -280h-145z" />
<glyph unicode="&#x1ede;" horiz-adv-x="1756" d="M99 714q0 360 196 572q191 206 506 206q227 0 402.5 -123.5t248.5 -331.5q91 49 128 105q30 45 29 131h-94v209h193v-165q0 -124 -38 -190q-52 -91 -195 -167q26 -108 26 -229q0 -224 -90.5 -399.5t-255 -266t-355.5 -90.5q-206 0 -369.5 99.5t-247.5 273t-84 366.5z M299 711q0 -260 143 -418q138 -152 357 -152q224 0 361 154q141 160 141 437q0 370 -237 520q-117 73 -262 73q-223 0 -354 -141q-149 -160 -149 -473zM609 1853q39 8 144 7q123 -1 201 -40q86 -42 88 -109q4 -101 -182 -124v-50h-112v112q57 6 73 11q53 13 54 41 q1 23 -28 39q-42 23 -133 23q-31 0 -94 -4z" />
<glyph unicode="&#x1edf;" horiz-adv-x="1343" d="M68 531q0 295 164 437q137 118 334 118q219 0 358 -143q105 -109 131 -281q68 42 97.5 87t28.5 130h-94v209h193v-165q0 -124 -38 -190q-49 -86 -179 -158v-29q0 -372 -240 -505q-118 -65 -257 -65q-228 0 -361 143q-137 148 -137 412zM253 531q0 -197 89 -305 q84 -102 224 -102t223 102q89 109 89 311q0 191 -90 298q-84 102 -222 102q-141 0 -224 -101q-89 -108 -89 -305zM381 1541q39 8 144 7q123 -1 201 -40q86 -42 88 -117q4 -124 -182 -147v-50h-112v120q57 6 73 11q53 18 54 56q1 23 -28 39q-42 23 -133 23q-31 0 -94 -4z" />
<glyph unicode="&#x1ee0;" horiz-adv-x="1756" d="M99 714q0 360 196 572q191 206 506 206q227 0 402.5 -123.5t248.5 -331.5q91 49 128 105q30 45 29 131h-94v209h193v-165q0 -124 -38 -190q-52 -91 -195 -167q26 -108 26 -229q0 -224 -90.5 -399.5t-255 -266t-355.5 -90.5q-206 0 -369.5 99.5t-247.5 273t-84 366.5z M299 711q0 -260 143 -418q138 -152 357 -152q224 0 361 154q141 160 141 437q0 370 -237 520q-117 73 -262 73q-223 0 -354 -141q-149 -160 -149 -473zM466 1556q-1 104 57 166q57 62 146 62q62 0 169 -54q59 -30 94 -30q32 0 49 17.5t24 69.5h130q-3 -114 -57.5 -171 t-138.5 -57q-63 0 -166 56q-67 36 -98 36q-34 0 -55 -24q-22 -24 -21 -71h-133z" />
<glyph unicode="&#x1ee1;" horiz-adv-x="1343" d="M68 531q0 295 164 437q137 118 334 118q219 0 358 -143q105 -109 131 -281q68 42 97.5 87t28.5 130h-94v209h193v-165q0 -124 -38 -190q-49 -86 -179 -158v-29q0 -372 -240 -505q-118 -65 -257 -65q-228 0 -361 143q-137 148 -137 412zM231 1219q-1 104 57 166 q57 62 146 62q62 0 169 -54q59 -30 94 -30q32 0 49 17.5t24 69.5h130q-3 -114 -57.5 -171t-138.5 -57q-63 0 -166 56q-67 36 -98 36q-34 0 -55 -24q-22 -24 -21 -71h-133zM253 531q0 -197 89 -305q84 -102 224 -102t223 102q89 109 89 311q0 191 -90 298q-84 102 -222 102 q-141 0 -224 -101q-89 -108 -89 -305z" />
<glyph unicode="&#x1ee2;" horiz-adv-x="1756" d="M99 714q0 360 196 572q191 206 506 206q227 0 402.5 -123.5t248.5 -331.5q91 49 128 105q30 45 29 131h-94v209h193v-165q0 -124 -38 -190q-52 -91 -195 -167q26 -108 26 -229q0 -224 -90.5 -399.5t-255 -266t-355.5 -90.5q-206 0 -369.5 99.5t-247.5 273t-84 366.5z M299 711q0 -260 143 -418q138 -152 357 -152q224 0 361 154q141 160 141 437q0 370 -237 520q-117 73 -262 73q-223 0 -354 -141q-149 -160 -149 -473zM686 -120h205v-205h-205v205z" />
<glyph unicode="&#x1ee3;" horiz-adv-x="1343" d="M68 531q0 295 164 437q137 118 334 118q219 0 358 -143q105 -109 131 -281q68 42 97.5 87t28.5 130h-94v209h193v-165q0 -124 -38 -190q-49 -86 -179 -158v-29q0 -372 -240 -505q-118 -65 -257 -65q-228 0 -361 143q-137 148 -137 412zM253 531q0 -197 89 -305 q84 -102 224 -102t223 102q89 109 89 311q0 191 -90 298q-84 102 -222 102q-141 0 -224 -101q-89 -108 -89 -305zM456 -120h205v-205h-205v205z" />
<glyph unicode="&#x1ee4;" horiz-adv-x="1479" d="M161 619v847h194v-846q0 -191 35.5 -281.5t122 -139.5t211.5 -49q214 0 305 97t91 373v846h194v-847q0 -221 -50 -351t-180.5 -211.5t-342.5 -81.5q-206 0 -337 71t-187 205.5t-56 367.5zM626 -120h205v-205h-205v205z" />
<glyph unicode="&#x1ee5;" horiz-adv-x="1139" d="M131 404v658h180v-589q0 -141 11 -190q17 -71 72 -111.5t136 -40.5t152 41.5t100.5 113t29.5 207.5v569h180v-1062h-161v156q-124 -180 -337 -180q-94 0 -175.5 36t-121 90.5t-55.5 133.5q-11 53 -11 168zM426 -120h205v-205h-205v205z" />
<glyph unicode="&#x1ee6;" horiz-adv-x="1479" d="M161 619v847h194v-846q0 -191 35.5 -281.5t122 -139.5t211.5 -49q214 0 305 97t91 373v846h194v-847q0 -221 -50 -351t-180.5 -211.5t-342.5 -81.5q-206 0 -337 71t-187 205.5t-56 367.5zM529 1828q39 8 144 7q123 -1 201 -40q86 -42 88 -109q4 -101 -182 -124v-50h-112 v112q57 6 73 11q53 13 54 41q1 23 -28 39q-42 23 -133 23q-31 0 -94 -4z" />
<glyph unicode="&#x1ee7;" horiz-adv-x="1139" d="M131 404v658h180v-589q0 -141 11 -190q17 -71 72 -111.5t136 -40.5t152 41.5t100.5 113t29.5 207.5v569h180v-1062h-161v156q-124 -180 -337 -180q-94 0 -175.5 36t-121 90.5t-55.5 133.5q-11 53 -11 168zM366 1541q39 8 144 7q123 -1 201 -40q86 -42 88 -117 q4 -124 -182 -147v-50h-112v120q57 6 73 11q53 18 54 56q1 23 -28 39q-42 23 -133 23q-31 0 -94 -4z" />
<glyph unicode="&#x1ee8;" horiz-adv-x="1749" d="M161 619v847h194v-846q0 -189 36 -282q34 -89 121 -138.5t212 -49.5q219 0 305 97q91 102 91 373v846h194v-493q156 16 226 124q27 42 27 160h-94v209h193v-165q0 -157 -36 -219q-99 -173 -316 -183v-280q0 -225 -50 -351q-52 -131 -180 -211q-131 -82 -343 -82 q-409 0 -524 277q-56 134 -56 367zM614 1556l133 280h236l-220 -280h-149z" />
<glyph unicode="&#x1ee9;" horiz-adv-x="1371" d="M131 404v658h180v-589q0 -143 11 -190q35 -152 208 -152q83 0 153.5 42t99.5 113t29 207v569h180v-488q127 22 190 119q28 42 28 160h-94v209h193v-165q0 -157 -36 -219q-92 -160 -281 -180v-498h-161v156q-124 -180 -337 -180q-93 0 -174.5 35.5t-121.5 90.5t-56 134 q-11 54 -11 168zM453 1194l133 280h236l-220 -280h-149z" />
<glyph unicode="&#x1eea;" horiz-adv-x="1749" d="M161 619v847h194v-846q0 -189 36 -282q34 -89 121 -138.5t212 -49.5q219 0 305 97q91 102 91 373v846h194v-493q156 16 226 124q27 42 27 160h-94v209h193v-165q0 -157 -36 -219q-99 -173 -316 -183v-280q0 -225 -50 -351q-52 -131 -180 -211q-131 -82 -343 -82 q-409 0 -524 277q-56 134 -56 367zM478 1836h241l135 -280h-145z" />
<glyph unicode="&#x1eeb;" horiz-adv-x="1371" d="M131 404v658h180v-589q0 -143 11 -190q35 -152 208 -152q83 0 153.5 42t99.5 113t29 207v569h180v-488q127 22 190 119q28 42 28 160h-94v209h193v-165q0 -157 -36 -219q-92 -160 -281 -180v-498h-161v156q-124 -180 -337 -180q-93 0 -174.5 35.5t-121.5 90.5t-56 134 q-11 54 -11 168zM311 1474h241l135 -280h-145z" />
<glyph unicode="&#x1eec;" horiz-adv-x="1749" d="M161 619v847h194v-846q0 -189 36 -282q34 -89 121 -138.5t212 -49.5q219 0 305 97q91 102 91 373v846h194v-493q156 16 226 124q27 42 27 160h-94v209h193v-165q0 -157 -36 -219q-99 -173 -316 -183v-280q0 -225 -50 -351q-52 -131 -180 -211q-131 -82 -343 -82 q-409 0 -524 277q-56 134 -56 367zM529 1828q39 8 144 7q123 -1 201 -40q86 -42 88 -109q4 -101 -182 -124v-50h-112v112q57 6 73 11q53 13 54 41q1 23 -28 39q-42 23 -133 23q-31 0 -94 -4z" />
<glyph unicode="&#x1eed;" horiz-adv-x="1371" d="M131 404v658h180v-589q0 -143 11 -190q35 -152 208 -152q83 0 153.5 42t99.5 113t29 207v569h180v-488q127 22 190 119q28 42 28 160h-94v209h193v-165q0 -157 -36 -219q-92 -160 -281 -180v-498h-161v156q-124 -180 -337 -180q-93 0 -174.5 35.5t-121.5 90.5t-56 134 q-11 54 -11 168zM366 1541q39 8 144 7q123 -1 201 -40q86 -42 88 -117q4 -124 -182 -147v-50h-112v120q57 6 73 11q53 18 54 56q1 23 -28 39q-42 23 -133 23q-31 0 -94 -4z" />
<glyph unicode="&#x1eee;" horiz-adv-x="1749" d="M161 619v847h194v-846q0 -189 36 -282q34 -89 121 -138.5t212 -49.5q219 0 305 97q91 102 91 373v846h194v-493q156 16 226 124q27 42 27 160h-94v209h193v-165q0 -157 -36 -219q-99 -173 -316 -183v-280q0 -225 -50 -351q-52 -131 -180 -211q-131 -82 -343 -82 q-409 0 -524 277q-56 134 -56 367zM416 1556q-1 104 57 166q57 62 146 62q62 0 169 -54q59 -30 94 -30q32 0 49 17.5t24 69.5h130q-3 -114 -57.5 -171t-138.5 -57q-63 0 -166 56q-67 36 -98 36q-34 0 -55 -24q-22 -24 -21 -71h-133z" />
<glyph unicode="&#x1eef;" horiz-adv-x="1371" d="M131 404v658h180v-589q0 -143 11 -190q35 -152 208 -152q83 0 153.5 42t99.5 113t29 207v569h180v-488q127 22 190 119q28 42 28 160h-94v209h193v-165q0 -157 -36 -219q-92 -160 -281 -180v-498h-161v156q-124 -180 -337 -180q-93 0 -174.5 35.5t-121.5 90.5t-56 134 q-11 54 -11 168zM237 1219q-1 104 57 166q57 62 146 62q62 0 169 -54q59 -30 94 -30q32 0 49 17.5t24 69.5h130q-3 -114 -57.5 -171t-138.5 -57q-63 0 -166 56q-67 36 -98 36q-34 0 -55 -24q-22 -24 -21 -71h-133z" />
<glyph unicode="&#x1ef0;" horiz-adv-x="1749" d="M161 619v847h194v-846q0 -189 36 -282q34 -89 121 -138.5t212 -49.5q219 0 305 97q91 102 91 373v846h194v-493q156 16 226 124q27 42 27 160h-94v209h193v-165q0 -157 -36 -219q-99 -173 -316 -183v-280q0 -225 -50 -351q-52 -131 -180 -211q-131 -82 -343 -82 q-409 0 -524 277q-56 134 -56 367zM626 -120h205v-205h-205v205z" />
<glyph unicode="&#x1ef1;" horiz-adv-x="1371" d="M131 404v658h180v-589q0 -143 11 -190q35 -152 208 -152q83 0 153.5 42t99.5 113t29 207v569h180v-488q127 22 190 119q28 42 28 160h-94v209h193v-165q0 -157 -36 -219q-92 -160 -281 -180v-498h-161v156q-124 -180 -337 -180q-93 0 -174.5 35.5t-121.5 90.5t-56 134 q-11 54 -11 168zM426 -120h205v-205h-205v205z" />
<glyph unicode="&#x1ef2;" horiz-adv-x="1366" d="M6 1466h236l289 -442q80 -124 149 -248q66 115 160 259l284 431h226l-585 -845v-621h-194v621zM422 1836h241l135 -280h-145z" />
<glyph unicode="&#x1ef3;" horiz-adv-x="1024" d="M33 1062h194l221 -615q43 -117 77 -246q31 124 74 242l227 619h180l-404 -1080q-65 -175 -101 -241q-48 -89 -110 -130.5t-148 -41.5q-52 0 -116 22l-20 169q59 -16 103 -16q60 0 96 20t59 56q17 27 55 134q5 15 16 44zM272 1474h241l135 -280h-145z" />
<glyph unicode="&#x1ef4;" horiz-adv-x="1366" d="M6 1466h236l289 -442q80 -124 149 -248q66 115 160 259l284 431h226l-585 -845v-621h-194v621zM566 -120h205v-205h-205v205z" />
<glyph unicode="&#x1ef5;" horiz-adv-x="1024" d="M33 1062h194l221 -615q43 -117 77 -246q31 124 74 242l227 619h180l-404 -1080q-65 -175 -101 -241q-48 -89 -110 -130.5t-148 -41.5q-52 0 -116 22l-20 169q59 -16 103 -16q60 0 96 20t59 56q17 27 55 134q5 15 16 44zM686 -120h205v-205h-205v205z" />
<glyph unicode="&#x1ef6;" horiz-adv-x="1366" d="M6 1466h236l289 -442q80 -124 149 -248q66 115 160 259l284 431h226l-585 -845v-621h-194v621zM479 1828q39 8 144 7q123 -1 201 -40q86 -42 88 -109q4 -101 -182 -124v-50h-112v112q57 6 73 11q53 13 54 41q1 23 -28 39q-42 23 -133 23q-31 0 -94 -4z" />
<glyph unicode="&#x1ef7;" horiz-adv-x="1024" d="M33 1062h194l221 -615q43 -117 77 -246q31 124 74 242l227 619h180l-404 -1080q-65 -175 -101 -241q-48 -89 -110 -130.5t-148 -41.5q-52 0 -116 22l-20 169q59 -16 103 -16q60 0 96 20t59 56q17 27 55 134q5 15 16 44zM331 1541q39 8 144 7q123 -1 201 -40 q86 -42 88 -117q4 -124 -182 -147v-50h-112v120q57 6 73 11q53 18 54 56q1 23 -28 39q-42 23 -133 23q-31 0 -94 -4z" />
<glyph unicode="&#x1ef8;" horiz-adv-x="1366" d="M6 1466h236l289 -442q80 -124 149 -248q66 115 160 259l284 431h226l-585 -845v-621h-194v621zM367 1556q-1 104 57 166q57 62 146 62q62 0 169 -54q59 -30 94 -30q32 0 49 17.5t24 69.5h130q-3 -114 -57.5 -171t-138.5 -57q-63 0 -166 56q-67 36 -98 36q-34 0 -55 -24 q-22 -24 -21 -71h-133z" />
<glyph unicode="&#x1ef9;" horiz-adv-x="1024" d="M33 1062h194l221 -615q43 -117 77 -246q31 124 74 242l227 619h180l-404 -1080q-65 -175 -101 -241q-48 -89 -110 -130.5t-148 -41.5q-52 0 -116 22l-20 169q59 -16 103 -16q60 0 96 20t59 56q17 27 55 134q5 15 16 44zM197 1219q-1 104 57 166q57 62 146 62 q62 0 169 -54q59 -30 94 -30q32 0 49 17.5t24 69.5h130q-3 -114 -57.5 -171t-138.5 -57q-63 0 -166 56q-67 36 -98 36q-34 0 -55 -24q-22 -24 -21 -71h-133z" />
<glyph unicode="&#x2000;" horiz-adv-x="955" />
<glyph unicode="&#x2001;" horiz-adv-x="1911" />
<glyph unicode="&#x2002;" horiz-adv-x="955" />
<glyph unicode="&#x2003;" horiz-adv-x="1911" />
<glyph unicode="&#x2004;" horiz-adv-x="637" />
<glyph unicode="&#x2005;" horiz-adv-x="477" />
<glyph unicode="&#x2006;" horiz-adv-x="318" />
<glyph unicode="&#x2007;" horiz-adv-x="318" />
<glyph unicode="&#x2008;" horiz-adv-x="238" />
<glyph unicode="&#x2009;" horiz-adv-x="382" />
<glyph unicode="&#x200a;" horiz-adv-x="106" />
<glyph unicode="&#x2010;" horiz-adv-x="682" d="M65 440v181h553v-181h-553z" />
<glyph unicode="&#x2011;" horiz-adv-x="682" d="M65 440v181h553v-181h-553z" />
<glyph unicode="&#x2012;" horiz-adv-x="682" d="M65 440v181h553v-181h-553z" />
<glyph unicode="&#x2013;" horiz-adv-x="1139" d="M-4 458v145h1139v-145h-1139z" />
<glyph unicode="&#x2014;" horiz-adv-x="2048" d="M0 458v145h2048v-145h-2048z" />
<glyph unicode="&#x2015;" horiz-adv-x="2048" d="M65 458v145h1919v-145h-1919z" />
<glyph unicode="&#x2017;" horiz-adv-x="1131" d="M-31 -277h1193v-130h-1193v130zM-31 -536h1193v-129h-1193v129z" />
<glyph unicode="&#x2018;" horiz-adv-x="455" d="M128 1011v165q0 134 32 194q42 80 133 121l44 -70q-55 -23 -81 -68.5t-29 -132.5h94v-209h-193z" />
<glyph unicode="&#x2019;" horiz-adv-x="455" d="M108 1072q54 22 80.5 69.5t29.5 130.5h-94v209h193v-165q0 -134 -31 -193q-43 -81 -134 -122z" />
<glyph unicode="&#x201a;" horiz-adv-x="455" d="M108 -200q54 22 80.5 69.5t29.5 130.5h-94v209h193v-165q0 -134 -31 -193q-43 -81 -134 -122z" />
<glyph unicode="&#x201b;" horiz-adv-x="455" d="M138 1316v165h193v-209h-94q2 -156 110 -200l-44 -71q-93 42 -129 113t-36 202z" />
<glyph unicode="&#x201c;" horiz-adv-x="682" d="M83 1011v165q0 134 32 194q42 80 133 121l44 -70q-55 -23 -81 -68.5t-29 -132.5h94v-209h-193zM393 1011v165q0 134 32 194q42 80 133 121l44 -70q-55 -23 -81 -68.5t-29 -132.5h94v-209h-193z" />
<glyph unicode="&#x201d;" horiz-adv-x="682" d="M71 1072q54 22 80.5 69.5t29.5 130.5h-94v209h193v-165q0 -134 -31 -193q-43 -81 -134 -122zM381 1072q54 22 80.5 69.5t29.5 130.5h-94v209h193v-165q0 -134 -31 -193q-43 -81 -134 -122z" />
<glyph unicode="&#x201e;" horiz-adv-x="682" d="M71 -200q54 22 80.5 69.5t29.5 130.5h-94v209h193v-165q0 -134 -31 -193q-43 -81 -134 -122zM381 -200q54 22 80.5 69.5t29.5 130.5h-94v209h193v-165q0 -134 -31 -193q-43 -81 -134 -122z" />
<glyph unicode="&#x2020;" horiz-adv-x="1139" d="M73 866v160h399v406h180v-406h402v-160h-402v-1212h-180v1212h-399z" />
<glyph unicode="&#x2021;" horiz-adv-x="1139" d="M73 24v161h402v725h-402v161h402v375h180v-375h403v-161h-403v-725h403v-161h-403v-370h-180v370h-402z" />
<glyph unicode="&#x2022;" horiz-adv-x="717" d="M109 718q0 105 74.5 179t178.5 74q105 0 179.5 -74t74.5 -179t-74.5 -179.5t-179.5 -74.5q-104 0 -178.5 74.5t-74.5 179.5z" />
<glyph unicode="&#x2026;" horiz-adv-x="2048" d="M239 0v205h205v-205h-205zM922 0v205h205v-205h-205zM1604 0v205h206v-205h-206z" />
<glyph unicode="&#x202f;" horiz-adv-x="382" />
<glyph unicode="&#x2030;" horiz-adv-x="2048" d="M37 1099q0 199 78.5 289.5t207.5 90.5q128 0 208 -91t80 -285q0 -196 -70 -295.5t-216 -99.5q-128 0 -208 93t-80 298zM185 1091q0 -152 39.5 -205t104.5 -53q59 0 91 45q43 60 43 215q0 152 -44 215q-34 47 -94 47q-62 0 -95 -46q-45 -63 -45 -218zM320 -54l601 1545 h131l-600 -1545h-132zM763 336q0 199 78.5 289.5t206.5 90.5t208.5 -91t80.5 -285q0 -196 -70 -295t-216 -99q-128 0 -208 92.5t-80 297.5zM911 328q0 -151 39.5 -204.5t104.5 -53.5q59 0 91 45q43 61 43 215q0 153 -45 215q-34 47 -93 47q-62 0 -95 -46q-45 -62 -45 -218z M1437 336q0 199 78.5 289.5t207.5 90.5q128 0 208 -91t80 -285q0 -196 -69.5 -295t-216.5 -99q-128 0 -208 92.5t-80 297.5zM1585 328q0 -151 39.5 -204.5t104.5 -53.5q59 0 91 45q43 61 43 215q0 153 -44 215q-34 47 -94 47q-62 0 -95 -46q-45 -62 -45 -218z" />
<glyph unicode="&#x2032;" horiz-adv-x="384" d="M128 947l12 274l52 245h206l-53 -245l-105 -274h-112z" />
<glyph unicode="&#x2033;" horiz-adv-x="725" d="M128 947l12 274l52 245h206l-53 -245l-105 -274h-112zM411 947l12 274l52 245h206l-53 -245l-105 -274h-112z" />
<glyph unicode="&#x2039;" horiz-adv-x="682" d="M92 527l315 457h149l-265 -457l265 -455h-149z" />
<glyph unicode="&#x203a;" horiz-adv-x="682" d="M92 72l265 458l-265 454h149l304 -448l-304 -464h-149z" />
<glyph unicode="&#x203c;" horiz-adv-x="1024" d="M176 1141v325h223v-325l-52 -777h-116zM184 0v205h207v-205h-207zM624 1141v325h223v-325l-52 -777h-116zM632 0v205h207v-205h-207z" />
<glyph unicode="&#x203e;" horiz-adv-x="682" d="M-31 1227v148h745v-148h-745z" />
<glyph unicode="&#x2044;" horiz-adv-x="342" d="M-455 -57l1101 1548h157l-1101 -1548h-157z" />
<glyph unicode="&#x205f;" horiz-adv-x="477" />
<glyph unicode="&#x207f;" horiz-adv-x="747" d="M82 519v665h130v-69q41 41 92.5 62t115.5 21q83 0 140 -31.5t82 -82t25 -159.5v-406h-141v401q0 88 -32.5 122.5t-100.5 34.5q-81 0 -125.5 -46t-44.5 -150v-362h-141z" />
<glyph unicode="&#x20a4;" horiz-adv-x="1139" d="M27 145q194 112 226 321h-209v148h209q-4 31 -41 148h-168v148h126q-23 90 -23 167q0 194 132.5 304t325.5 110q166 0 289.5 -95.5t149.5 -283.5l-179 -27q-13 113 -87 185.5t-181 72.5q-117 0 -187.5 -75t-70.5 -167q0 -58 28 -191h344v-148h-310q26 -105 32 -148h278 v-148h-282q-33 -144 -161 -275q77 22 141 22q87 0 190 -25q170 -41 238 -41q69 0 187 56l58 -165q-146 -63 -238 -63q-74 0 -218 44q-151 46 -221 46q-165 0 -309 -93z" />
<glyph unicode="&#x20ac;" horiz-adv-x="1139" d="M-28 535l28 134h105q-3 42 -3 91q0 20 1 41h-131l28 134h116q62 326 323 468q161 88 355 88q186 0 313 -81l-40 -186q-122 101 -277 101q-168 0 -282 -81q-68 -48 -123 -136q-56 -91 -66 -173h682l-27 -134h-671q-1 -21 -1 -40q0 -77 1 -92h644l-28 -134h-595 q42 -229 202 -325q115 -69 249 -69q187 0 292 98v-206q-125 -58 -276 -58q-452 0 -611 376q-32 76 -55 184h-153z" />
<glyph unicode="&#x2113;" horiz-adv-x="662" d="M15 422l177 235v455q0 226 61.5 302.5t172.5 76.5q96 0 158 -65t62 -174q0 -92 -60 -224.5t-225 -362.5v-415q0 -89 14.5 -110.5t41.5 -21.5q26 0 60 16.5t139 90.5v-162q-111 -87 -225 -87q-92 0 -145.5 57t-53.5 184v225l-79 -98zM361 899q98 169 121.5 233t23.5 119 q0 61 -26 95q-20 25 -50 25q-31 0 -46 -26q-23 -42 -23 -219v-227z" />
<glyph unicode="&#x2116;" horiz-adv-x="2197" d="M160 0v1466h195l717 -1136v1136h185v-1466h-194l-721 1131v-1131h-182zM1391 785q0 177 99.5 282t263.5 105q163 0 260.5 -108t97.5 -291q0 -185 -100.5 -293t-265.5 -108q-142 0 -248.5 97.5t-106.5 315.5zM1410 118v148h681v-148h-681zM1566 779q0 -134 53.5 -202 t131.5 -68q73 0 129.5 65.5t56.5 198.5q0 140 -58.5 202.5t-128.5 62.5q-75 0 -129.5 -65t-54.5 -194z" />
<glyph unicode="&#x2122;" horiz-adv-x="2048" d="M225 1345v121h666v-121h-266v-694h-136v694h-264zM982 651v815h200l206 -651l199 651h196v-815h-124v684l-210 -684h-123l-219 694v-694h-125z" />
<glyph unicode="&#x2126;" horiz-adv-x="1573" d="M127 0v168l369 -8q-108 67 -165 130q-87 96 -134 225.5t-47 286.5q0 196 79.5 360.5t231 252.5t347.5 88q336 0 516 -254q131 -186 131 -448q0 -168 -54 -297.5t-141 -222.5q-53 -58 -149 -121l364 6v-166h-575v177q80 40 124 78q72 61 122 145t75.5 179t25.5 198 q0 138 -49.5 277.5t-150 212.5t-243.5 73q-191 0 -296 -120q-146 -169 -146 -440q0 -217 91 -372.5t251 -227.5v-180h-577z" />
<glyph unicode="&#x212e;" horiz-adv-x="1229" d="M90 531q0 247 147 406t382 159q214 0 366 -142t163 -423h-827v-371q120 -121 298 -121q254 0 395 246l72 -43q-120 -173 -232 -224.5t-235 -51.5q-237 0 -383 160t-146 405zM321 605h596v297q-128 121 -300 121q-175 0 -296 -122v-296z" />
<glyph unicode="&#x2190;" horiz-adv-x="2048" d="M79 498v45q87 37 184 113t229 220h76q-59 -118 -88.5 -165.5t-106.5 -143.5h1595v-101h-1595q104 -108 198 -309h-78q-129 144 -222 218.5t-192 122.5z" />
<glyph unicode="&#x2191;" horiz-adv-x="1024" d="M153 850v76q145 133 220.5 230t112.5 183h46q47 -99 121.5 -192t218.5 -222v-77q-201 94 -309 197v-1474h-101v1474q-96 -76 -143.5 -106t-165.5 -89z" />
<glyph unicode="&#x2192;" horiz-adv-x="2048" d="M79 466v101h1595q-76 97 -106 144t-89 165h76q133 -145 230 -220.5t183 -112.5v-45q-99 -48 -192 -122.5t-222 -218.5h-77q94 201 197 309h-1595z" />
<glyph unicode="&#x2193;" horiz-adv-x="1024" d="M153 -16v76q119 -59 166 -89t143 -106v1474h101v-1474q108 103 309 197v-77q-144 -129 -218.5 -222t-121.5 -192h-46q-37 86 -112.5 183t-220.5 230z" />
<glyph unicode="&#x2194;" horiz-adv-x="2048" d="M79 495v45q94 44 185 116.5t221 221.5h80q-69 -172 -194 -311h1305q-125 139 -194 311h80q130 -149 221 -221.5t185 -116.5v-45q-94 -43 -185 -116t-221 -221h-80q69 172 194 311h-1305q125 -139 194 -311h-80q-130 148 -221 221t-185 116z" />
<glyph unicode="&#x2195;" horiz-adv-x="1024" d="M152 -20v79q171 -68 311 -194v1306q-140 -126 -311 -195v80q148 130 221 221.5t116 185.5h45q44 -94 116.5 -185.5t220.5 -221.5v-80q-171 69 -311 195v-1306q140 126 311 194v-79q-148 -130 -220.5 -221.5t-116.5 -185.5h-45q-43 94 -116 185.5t-221 221.5z" />
<glyph unicode="&#x21a8;" horiz-adv-x="1024" d="M152 -20v79q171 -68 311 -194v1306q-140 -126 -311 -195v80q148 130 221 221.5t116 185.5h45q44 -94 116.5 -185.5t220.5 -221.5v-80q-171 69 -311 195v-1306q140 126 311 194v-79q-148 -130 -220.5 -221.5t-116.5 -185.5h-45q-43 94 -116 185.5t-221 221.5zM154 -522 h717v-98h-717v98z" />
<glyph unicode="&#x2202;" horiz-adv-x="1012" d="M56 322q0 226 153 387q197 207 649 215q-4 168 -24 256t-68 135.5t-113 47.5q-62 0 -121 -49.5t-106 -175.5l-135 60q70 157 168 225t192 68q76 0 137.5 -39.5t92.5 -90.5q47 -79 69.5 -187t22.5 -248q0 -288 -86.5 -512.5t-233.5 -331.5t-289 -107q-137 0 -222.5 91 t-85.5 256zM236 303q0 -83 51 -137t119 -54q75 0 160 55q117 76 190.5 234.5t97.5 394.5q-244 -14 -357.5 -68t-187 -176.5t-73.5 -248.5z" />
<glyph unicode="&#x2206;" horiz-adv-x="1253" d="M26 0l628 1387l572 -1387h-1200zM151 82h839l-399 967z" />
<glyph unicode="&#x220f;" horiz-adv-x="1686" d="M161 -431v1922h1362v-1922h-191v1748h-978v-1748h-193z" />
<glyph unicode="&#x2211;" horiz-adv-x="1460" d="M122 -244l620 788l-603 772v175h1237v-164h-988l607 -775l-649 -822h1040v-161h-1264v187z" />
<glyph unicode="&#x2212;" horiz-adv-x="1196" d="M114 639v168h968v-168h-968z" />
<glyph unicode="&#x221a;" horiz-adv-x="1124" d="M84 916l301 151l405 -823l260 1625h74l-312 -1947l-496 1021l-198 -91z" />
<glyph unicode="&#x2264;" horiz-adv-x="1124" d="M77 762v168l971 410v-180l-770 -315l770 -319v-179zM78 106v167h968v-167h-968z" />
<glyph unicode="&#x2265;" horiz-adv-x="1124" d="M77 347v179l769 319l-769 315v180l971 -410v-168zM78 106v167h968v-167h-968z" />
<glyph unicode="&#x2310;" horiz-adv-x="1196" d="M113 424v606h968v-168h-798v-438h-170z" />
<glyph unicode="&#x2320;" horiz-adv-x="1237" d="M546 -515v1811q0 219 89.5 330t202.5 111q67 0 102.5 -32.5t35.5 -76.5q0 -40 -25.5 -66t-62.5 -26q-30 0 -57 15q-18 10 -41.5 46.5t-46.5 36.5q-17 0 -31 -12q-10 -8 -14 -27q-7 -33 -7 -139v-1971h-145z" />
<glyph unicode="&#x2321;" horiz-adv-x="1237" d="M261 -406q0 40 25.5 66t61.5 26q31 0 59 -16q18 -10 41 -46t46 -36q17 0 31 12q10 7 14 28q7 32 7 138v1971h145v-1811q0 -219 -89.5 -330t-202.5 -111q-67 0 -102.5 32.5t-35.5 76.5z" />
<glyph unicode="&#x25a0;" horiz-adv-x="1237" d="M146 0v944h944v-944h-944z" />
<glyph unicode="&#x25a1;" horiz-adv-x="1237" d="M146 0v944h944v-944h-944zM222 76h792v792h-792v-792z" />
<glyph unicode="&#x25aa;" horiz-adv-x="726" d="M131 445v463h463v-463h-463z" />
<glyph unicode="&#x25ab;" horiz-adv-x="726" d="M131 445v463h463v-463h-463zM207 521h311v311h-311v-311z" />
<glyph unicode="&#x25ac;" horiz-adv-x="2048" d="M0 317v386h2047v-386h-2047z" />
<glyph unicode="&#x25b2;" horiz-adv-x="2027" d="M304 0l710 1419l710 -1419h-1420z" />
<glyph unicode="&#x25ba;" horiz-adv-x="2027" d="M288 -31v1448l1451 -724z" />
<glyph unicode="&#x25bc;" horiz-adv-x="2027" d="M304 1388h1420l-710 -1419z" />
<glyph unicode="&#x25c4;" horiz-adv-x="2027" d="M288 693l1451 724v-1448z" />
<glyph unicode="&#x25ca;" horiz-adv-x="1012" d="M47 709l391 713h111l418 -713l-418 -709h-111zM155 709l340 -615l359 615l-359 616z" />
<glyph unicode="&#x25cb;" horiz-adv-x="1237" d="M178 578q0 115 59 220.5t165 162.5t216 57q111 0 217 -57t165 -163t59 -220q0 -183 -129 -312t-311 -129q-183 0 -312 129t-129 312zM254 578q0 -151 107 -258t258 -107t257.5 107t106.5 258q0 94 -49 182t-136 135t-179 47q-93 0 -180 -47t-136 -135t-49 -182z" />
<glyph unicode="&#x25cf;" horiz-adv-x="1237" d="M178 578q0 115 59 220.5t165 162.5t217 57q110 0 216 -57t165 -163t59 -220q0 -183 -129 -312t-311 -129q-183 0 -312 129t-129 312z" />
<glyph unicode="&#x25d8;" horiz-adv-x="1237" d="M128 0v980h980v-980h-980zM416 490q0 -83 59.5 -142.5t142.5 -59.5q84 0 143 59.5t59 142.5q0 84 -59 143t-143 59t-143 -59t-59 -143z" />
<glyph unicode="&#x25d9;" horiz-adv-x="1237" d="M42 0v1155h1155v-1155h-1155zM179 577q0 -182 129 -311t312 -129q182 0 311 129t129 311q0 115 -59 221t-164.5 163t-216.5 57q-112 0 -217.5 -57t-164.5 -163t-59 -221zM255 577q0 96 49 183.5t136.5 134.5t179.5 47q91 0 178.5 -47t136.5 -134.5t49 -183.5 q0 -151 -106.5 -257.5t-257.5 -106.5q-152 0 -258.5 106.5t-106.5 257.5z" />
<glyph unicode="&#x25e6;" horiz-adv-x="726" d="M112 677q0 104 73 177.5t178 73.5q104 0 177.5 -73.5t73.5 -177.5t-73.5 -177.5t-177.5 -73.5t-177.5 73.5t-73.5 177.5zM188 677q0 -73 51.5 -124t123.5 -51t123.5 51t51.5 124q0 72 -51 123.5t-124 51.5t-124 -51.5t-51 -123.5z" />
<glyph unicode="&#x25fc;" horiz-adv-x="1060" d="M0 0v1060h1060v-1060h-1060z" />
<glyph unicode="&#x263a;" horiz-adv-x="2091" d="M408 518q0 265 187 451.5t451 186.5t450.5 -186.5t186.5 -451.5q0 -264 -186.5 -450.5t-450.5 -186.5t-451 186.5t-187 450.5zM501 518q0 -225 159.5 -384.5t385.5 -159.5t385.5 159.5t159.5 384.5q0 226 -159.5 385.5t-385.5 159.5t-385.5 -159.5t-159.5 -385.5z M720 650q0 34 24 57.5t57 23.5q34 0 57.5 -23.5t23.5 -57.5q0 -33 -23.5 -57t-57.5 -24q-33 0 -57 24t-24 57zM752 313l62 36q79 -144 232 -144t231 144l63 -36q-50 -95 -123.5 -145t-170.5 -50q-98 0 -171 50t-123 145zM1209 650q0 34 24 57.5t57 23.5q34 0 57.5 -23.5 t23.5 -57.5q0 -33 -23.5 -57t-57.5 -24q-33 0 -57 24t-24 57z" />
<glyph unicode="&#x263b;" horiz-adv-x="2155" d="M440 518q0 265 187 451.5t451 186.5t450.5 -186.5t186.5 -451.5q0 -264 -186.5 -450.5t-450.5 -186.5t-451 186.5t-187 450.5zM752 650q0 -33 24 -57t57 -24q34 0 57.5 24t23.5 57q0 34 -23.5 57.5t-57.5 23.5q-33 0 -57 -23.5t-24 -57.5zM784 313q50 -95 123 -145 t171 -50q97 0 170.5 50t123.5 145l-63 36q-78 -144 -231 -144t-232 144zM1241 650q0 -33 24 -57t57 -24q34 0 57.5 24t23.5 57q0 34 -23.5 57.5t-57.5 23.5q-33 0 -57 -23.5t-24 -57.5z" />
<glyph unicode="&#x263c;" horiz-adv-x="1877" d="M16 665v69h336q9 106 42 185.5t102 163.5l-284 287l48 57l292 -282q101 70 179.5 100.5t170.5 38.5v337h76v-337q102 -7 181.5 -38.5t167.5 -102.5l290 284l52 -53l-286 -286q73 -95 103 -169q38 -96 40 -189h336v-69h-335q-19 -189 -143 -347l285 -291l-57 -50l-283 282 q-98 -72 -171 -100.5t-180 -40.5v-337h-76v337q-112 15 -188.5 46t-156.5 92l-294 -278l-51 51l285 286q-66 84 -100 166t-45 188h-336zM425 699q0 -212 150 -362.5t362 -150.5t362.5 150.5t150.5 362.5t-150.5 362t-362.5 150t-362 -150t-150 -362z" />
<glyph unicode="&#x2660;" horiz-adv-x="1088" d="M58 496q0 73 33 132q45 82 146 165t149 137q73 83 106.5 148t52.5 153q26 -108 80 -193t192.5 -210.5t175.5 -192.5t37 -136q0 -96 -64 -160t-156 -64q-78 0 -141.5 48.5t-112.5 141.5q1 -147 38.5 -233.5t120 -136t219.5 -58.5l7 -37h-793l8 37q184 0 285.5 107.5 t97.5 320.5q-45 -95 -111.5 -142.5t-150.5 -47.5q-90 0 -154.5 65t-64.5 156z" />
<glyph unicode="&#x2663;" horiz-adv-x="1344" d="M55 553q0 116 74 195.5t168 79.5q60 0 163 -51q-42 70 -54.5 105.5t-12.5 76.5q0 114 79 193t197 79t198.5 -79t80.5 -188q0 -89 -69 -187q84 40 101 45q27 8 61 8q100 0 173.5 -78.5t73.5 -194.5q0 -120 -80.5 -201.5t-193.5 -81.5q-63 0 -129.5 30.5t-115.5 81.5 q-35 37 -87 125q4 -159 48.5 -251.5t136.5 -153.5q62 -41 223 -72l8 -34h-848l8 34q165 35 219 69q81 51 132.5 151t51.5 211q0 16 -1 46q-61 -124 -148.5 -181t-178.5 -57q-116 0 -197 81t-81 199z" />
<glyph unicode="&#x2665;" horiz-adv-x="1216" d="M63 969q0 111 74 186t183 75q110 0 191 -78q61 -58 99 -173q33 113 93 172q83 80 192 80q108 0 183 -74.5t75 -177.5q0 -90 -44 -187.5t-170 -255.5q-164 -207 -239 -340q-59 -105 -90 -220q-31 118 -88.5 221.5t-222.5 321.5q-121 160 -149 203q-46 70 -66.5 128.5 t-20.5 118.5z" />
<glyph unicode="&#x2666;" horiz-adv-x="1045" d="M64 604q101 115 260 328q118 158 197 299q89 -151 219 -324q150 -200 242 -303q-74 -78 -242 -302q-136 -182 -218 -326q-27 52 -74 121q-81 120 -201 279q-26 35 -183 228z" />
<glyph unicode="&#xe83a;" horiz-adv-x="1307" d="M-70 293v174h1377v-174h-1377z" />
<glyph unicode="&#xf004;" horiz-adv-x="682" d="M226 -467q93 40 109 147h-96v175h209v-117q0 -110 -37 -180.5t-131 -108.5z" />
<glyph unicode="&#xf005;" horiz-adv-x="682" d="M107 -409l11 117q44 -4 87 -4q167 0 167 76q0 67 -127 67q-14 0 -32 -2v105q35 4 66 4q137 0 199 -55t62 -127q0 -77 -70.5 -135t-222.5 -58q-63 0 -140 12z" />
<glyph unicode="&#xf006;" horiz-adv-x="0" d="M-428 1677l135 158h226l-231 -158h-130z" />
<glyph unicode="&#xf007;" horiz-adv-x="0" d="M-809 1677l135 158h226l-231 -158h-130z" />
<glyph unicode="&#xf008;" horiz-adv-x="0" d="M-330 1194l135 280h241l-231 -280h-145z" />
<glyph unicode="&#xf009;" horiz-adv-x="0" d="M-653 1547l135 280h241l-231 -280h-145z" />
<glyph unicode="&#xf00a;" horiz-adv-x="0" d="M-36 -425v968h72v-968h-72zM-36 863v968h72v-968h-72z" />
<glyph unicode="&#xf00f;" horiz-adv-x="0" d="M-858 1474h241l135 -280h-145z" />
<glyph unicode="&#xf010;" horiz-adv-x="0" d="M-499 1831q36 5 134 4q262 -1 267 -91q3 -63 -169 -77v-22h-93v55q39 2 57 6q49 11 50 33q1 13 -26 22q-39 13 -123 13q-8 0 -38 -2.5t-48 -5.5z" />
<glyph unicode="&#xf011;" horiz-adv-x="0" d="M-921 1831q36 5 134 4q262 -1 267 -91q3 -63 -169 -77v-22h-93v55q39 2 57 6q49 11 50 33q1 13 -26 22q-39 13 -123 13q-8 0 -38 -2.5t-48 -5.5z" />
<glyph unicode="&#xf012;" horiz-adv-x="0" d="M-429 1541q39 8 144 7q123 -1 201 -40q86 -42 88 -117q4 -124 -182 -147v-50h-112v120q57 6 73 11q53 18 54 56q1 23 -28 39q-42 23 -133 23q-31 0 -94 -4z" />
<glyph unicode="&#xf013;" horiz-adv-x="0" d="M-751 1828q39 8 144 7q123 -1 201 -40q86 -42 88 -117q4 -93 -182 -116v-50h-112v112q57 6 73 11q53 13 54 41q1 23 -28 39q-42 23 -133 23q-31 0 -94 -4z" />
<glyph unicode="&#xf014;" horiz-adv-x="0" d="M-751 1541q39 8 144 7q123 -1 201 -40q86 -42 88 -117q4 -124 -182 -147v-50h-112v120q57 6 73 11q53 18 54 56q1 23 -28 39q-42 23 -133 23q-31 0 -94 -4z" />
<glyph unicode="&#xf015;" horiz-adv-x="0" d="M-1034 1660q-1 82 55.5 127.5t147.5 45.5q62 0 169 -44q59 -24 127 -24q61 0 73 70h97q-6 -172 -196 -172q-63 0 -166 44q-67 29 -134 29q-78 0 -76 -76h-97z" />
<glyph unicode="&#xf016;" horiz-adv-x="0" d="M-1079 1609q-1 102 55.5 165t147.5 63q62 0 169 -54q59 -30 94 -30q61 0 73 87h130q-6 -228 -196 -228q-63 0 -166 56q-67 36 -98 36q-78 0 -76 -95h-133z" />
<glyph unicode="&#xf017;" horiz-adv-x="0" d="M-1291 1609q-1 102 55.5 165t147.5 63q62 0 169 -54q59 -30 94 -30q61 0 73 87h130q-6 -228 -196 -228q-63 0 -166 56q-67 36 -98 36q-78 0 -76 -95h-133z" />
<glyph unicode="&#xf018;" horiz-adv-x="0" d="M-1360 1609q-1 102 55.5 165t147.5 63q62 0 169 -54q59 -30 94 -30q61 0 73 87h130q-6 -228 -196 -228q-63 0 -166 56q-67 36 -98 36q-78 0 -76 -95h-133z" />
<glyph unicode="&#xf019;" horiz-adv-x="0" d="M-909 1219q-1 104 57 166q57 62 146 62q62 0 169 -54q59 -30 94 -30q32 0 49 17.5t24 69.5h130q-3 -114 -57.5 -171t-138.5 -57q-63 0 -166 56q-67 36 -98 36q-34 0 -55 -24q-22 -24 -21 -71h-133z" />
<glyph unicode="&#xf01a;" horiz-adv-x="0" d="M-1109 1219q-1 104 57 166q57 62 146 62q62 0 169 -54q59 -30 94 -30q32 0 49 17.5t24 69.5h130q-3 -114 -57.5 -171t-138.5 -57q-63 0 -166 56q-67 36 -98 36q-34 0 -55 -24q-22 -24 -21 -71h-133z" />
<glyph unicode="&#xf01b;" horiz-adv-x="0" d="M-1173 1219q-1 104 57 166q57 62 146 62q62 0 169 -54q59 -30 94 -30q32 0 49 17.5t24 69.5h130q-3 -114 -57.5 -171t-138.5 -57q-63 0 -166 56q-67 36 -98 36q-34 0 -55 -24q-22 -24 -21 -71h-133z" />
<glyph unicode="&#xf01c;" horiz-adv-x="0" d="M-610 1609q-1 102 55.5 165t147.5 63q62 0 169 -54q59 -30 94 -30q61 0 73 87h130q-6 -228 -196 -228q-63 0 -166 56q-67 36 -98 36q-78 0 -76 -95h-133z" />
<glyph unicode="&#xf01d;" horiz-adv-x="0" d="M-573 1219q-1 104 57 166q57 62 146 62q62 0 169 -54q59 -30 94 -30q32 0 49 17.5t24 69.5h130q-3 -114 -57.5 -171t-138.5 -57q-63 0 -166 56q-67 36 -98 36q-34 0 -55 -24q-22 -24 -21 -71h-133z" />
<glyph unicode="&#xf01e;" horiz-adv-x="0" d="M-782 -120h205v-205h-205v205z" />
<glyph unicode="&#xf01f;" horiz-adv-x="0" d="M-898 -120h205v-205h-205v205z" />
<glyph unicode="&#xf020;" horiz-adv-x="0" d="M-1058 -120h205v-205h-205v205z" />
<glyph unicode="&#xf021;" horiz-adv-x="0" d="M-830 -120h205v-205h-205v205z" />
<glyph unicode="&#xf022;" horiz-adv-x="0" d="M-1127 -120h205v-205h-205v205z" />
<glyph unicode="&#xf023;" horiz-adv-x="0" d="M-672 -120h205v-205h-205v205z" />
<glyph unicode="&#xf024;" horiz-adv-x="0" d="M-659 -120h205v-205h-205v205z" />
<glyph unicode="&#xf025;" horiz-adv-x="0" d="M-679 -120h205v-205h-205v205z" />
<glyph unicode="&#xf026;" horiz-adv-x="0" d="M-879 -120h205v-205h-205v205z" />
<glyph unicode="&#xf027;" horiz-adv-x="0" d="M-746 -120h205v-205h-205v205z" />
<glyph unicode="&#xf028;" horiz-adv-x="0" d="M-979 -120h205v-205h-205v205z" />
<glyph unicode="&#xf029;" horiz-adv-x="0" d="M-393 -120h205v-205h-205v205z" />
<glyph unicode="&#xf02a;" horiz-adv-x="0" d="M-323 -120h205v-205h-205v205z" />
<glyph unicode="&#xf02b;" horiz-adv-x="0" d="M-788 -120h205v-205h-205v205z" />
<glyph unicode="&#xf02c;" horiz-adv-x="0" d="M-254 -120h205v-205h-205v205z" />
<glyph unicode="&#xf02d;" horiz-adv-x="0" d="M-1005 1660q0 82 56 127.5t147 45.5q62 0 169 -44q59 -24 127 -24q61 0 73 70h97q-6 -172 -196 -172q-63 0 -166 44q-67 29 -131 29q-81 0 -79 -76h-97z" />
<glyph unicode="&#xf02e;" horiz-adv-x="0" d="M-1005 1609q-1 102 55.5 165t147.5 63q62 0 169 -54q59 -30 94 -30q61 0 73 87h130q-6 -228 -196 -228q-63 0 -166 56q-67 36 -98 36q-78 0 -76 -95h-133z" />
<glyph unicode="&#xf02f;" horiz-adv-x="0" d="M-1129 1660q-1 82 55.5 127.5t147.5 45.5q62 0 169 -44q59 -24 127 -24q61 0 73 70h97q-6 -172 -196 -172q-63 0 -166 44q-67 29 -134 29q-78 0 -76 -76h-97z" />
<glyph unicode="&#xf030;" horiz-adv-x="0" d="M-1129 1609q-1 102 55.5 165t147.5 63q62 0 169 -54q59 -30 94 -30q61 0 73 87h130q-6 -228 -196 -228q-63 0 -166 56q-67 36 -98 36q-78 0 -76 -95h-133z" />
<glyph unicode="&#xf031;" horiz-adv-x="455" d="M136 0v1062h180v-1062h-180z" />
<glyph unicode="&#xfb01;" horiz-adv-x="1024" d="M23 923v139h160v103q0 158 68 242t215 84q99 0 183 -23l-28 -152q-53 9 -97 9q-93 0 -127 -37t-34 -157v-69h206v-139h-206v-923h-180v923h-160zM705 0v1062h180v-1062h-180zM705 1259v207h180v-207h-180z" />
<glyph unicode="&#xfb02;" horiz-adv-x="1024" d="M23 923v139h160v103q0 158 68 242t215 84q99 0 183 -23l-28 -152q-53 9 -97 9q-93 0 -127 -37t-34 -157v-69h206v-139h-206v-923h-180v923h-160zM703 0v1466h180v-1466h-180z" />
<glyph unicode="&#xfb1d;" horiz-adv-x="505" d="M155 512v549h195v-549h-195zM169 307q0 31 21.5 57.5t62.5 26.5q30 0 57 -22t27 -62q0 -36 -24.5 -60t-59.5 -24q-24 0 -43 11t-30 29.5t-11 43.5z" />
<glyph unicode="&#xfb1e;" horiz-adv-x="0" d="M-295 1510h123q14 -68 55.5 -101.5t111.5 -33.5q81 0 122.5 32.5t55.5 102.5h123q-15 -125 -91.5 -192t-203.5 -67q-128 0 -204.5 66.5t-91.5 192.5z" />
<glyph unicode="&#xfffc;" horiz-adv-x="2048" d="M0 0v323h100v-223h223v-100h-323zM0 575v323h100v-323h-100zM0 1150v323h323v-100h-223v-223h-100zM223 735q0 175 80.5 271t233.5 96t235 -96t82 -271q0 -173 -82 -269t-235 -96t-233.5 96t-80.5 269zM339 735q0 -267 198 -267q201 0 201 267q0 269 -201 269 q-198 0 -198 -269zM575 0v100h323v-100h-323zM575 1373v100h323v-100h-323zM909 382v708h235q249 0 249 -186q0 -91 -89 -145q119 -46 119 -168q0 -209 -274 -209h-240zM1025 480h124q158 0 158 111q0 109 -171 109h-111v-220zM1025 798h101q151 0 151 95q0 99 -163 99h-89 v-194zM1150 0v100h323v-100h-323zM1150 1373v100h323v-100h-323zM1433 415l73 79q25 -26 65 -26q95 0 95 138v484h116v-479q0 -241 -211 -241q-86 0 -138 45zM1725 0v100h223v223h100v-323h-323zM1725 1373v100h323v-323h-100v223h-223zM1948 575v323h100v-323h-100z" />
<glyph horiz-adv-x="682" d="M497 637v205h205v-205h-205z" />
<glyph d="M256 0v1280h1024v-1280h-1024zM288 32h960v1216h-960v-1216z" />
<glyph d="M256 0v1280h1024v-1280h-1024zM288 32h960v1216h-960v-1216z" />
<glyph d="M256 0v1280h1024v-1280h-1024zM288 32h960v1216h-960v-1216z" />
<glyph d="M256 0v1280h1024v-1280h-1024zM288 32h960v1216h-960v-1216z" />
<glyph d="M256 0v1280h1024v-1280h-1024zM288 32h960v1216h-960v-1216z" />
<glyph d="M256 0v1280h1024v-1280h-1024zM288 32h960v1216h-960v-1216z" />
<glyph d="M256 0v1280h1024v-1280h-1024zM288 32h960v1216h-960v-1216z" />
<glyph d="M256 0v1280h1024v-1280h-1024zM288 32h960v1216h-960v-1216z" />
<glyph d="M256 0v1280h1024v-1280h-1024zM288 32h960v1216h-960v-1216z" />
<glyph d="M256 0v1280h1024v-1280h-1024zM288 32h960v1216h-960v-1216z" />
<glyph d="M256 0v1280h1024v-1280h-1024zM288 32h960v1216h-960v-1216z" />
<glyph d="M256 0v1280h1024v-1280h-1024zM288 32h960v1216h-960v-1216z" />
<glyph d="M256 0v1280h1024v-1280h-1024zM288 32h960v1216h-960v-1216z" />
<glyph d="M256 0v1280h1024v-1280h-1024zM288 32h960v1216h-960v-1216z" />
<glyph d="M256 0v1280h1024v-1280h-1024zM288 32h960v1216h-960v-1216z" />
<glyph d="M256 0v1280h1024v-1280h-1024zM288 32h960v1216h-960v-1216z" />
<glyph d="M256 0v1280h1024v-1280h-1024zM288 32h960v1216h-960v-1216z" />
<glyph d="M256 0v1280h1024v-1280h-1024zM288 32h960v1216h-960v-1216z" />
<glyph d="M256 0v1280h1024v-1280h-1024zM288 32h960v1216h-960v-1216z" />
<glyph d="M256 0v1280h1024v-1280h-1024zM288 32h960v1216h-960v-1216z" />
<glyph d="M256 0v1280h1024v-1280h-1024zM288 32h960v1216h-960v-1216z" />
<glyph d="M256 0v1280h1024v-1280h-1024zM288 32h960v1216h-960v-1216z" />
<glyph d="M256 0v1280h1024v-1280h-1024zM288 32h960v1216h-960v-1216z" />
<glyph d="M256 0v1280h1024v-1280h-1024zM288 32h960v1216h-960v-1216z" />
<glyph d="M256 0v1280h1024v-1280h-1024zM288 32h960v1216h-960v-1216z" />
<glyph d="M256 0v1280h1024v-1280h-1024zM288 32h960v1216h-960v-1216z" />
<glyph d="M256 0v1280h1024v-1280h-1024zM288 32h960v1216h-960v-1216z" />
<glyph d="M256 0v1280h1024v-1280h-1024zM288 32h960v1216h-960v-1216z" />
<glyph d="M256 0v1280h1024v-1280h-1024zM288 32h960v1216h-960v-1216z" />
<glyph d="M256 0v1280h1024v-1280h-1024zM288 32h960v1216h-960v-1216z" />
<glyph d="M256 0v1280h1024v-1280h-1024zM288 32h960v1216h-960v-1216z" />
<glyph d="M256 0v1280h1024v-1280h-1024zM288 32h960v1216h-960v-1216z" />
<glyph d="M256 0v1280h1024v-1280h-1024zM288 32h960v1216h-960v-1216z" />
<glyph d="M256 0v1280h1024v-1280h-1024zM288 32h960v1216h-960v-1216z" />
<glyph d="M256 0v1280h1024v-1280h-1024zM288 32h960v1216h-960v-1216z" />
<glyph d="M256 0v1280h1024v-1280h-1024zM288 32h960v1216h-960v-1216z" />
<glyph d="M256 0v1280h1024v-1280h-1024zM288 32h960v1216h-960v-1216z" />
<glyph d="M256 0v1280h1024v-1280h-1024zM288 32h960v1216h-960v-1216z" />
<glyph d="M256 0v1280h1024v-1280h-1024zM288 32h960v1216h-960v-1216z" />
<glyph d="M256 0v1280h1024v-1280h-1024zM288 32h960v1216h-960v-1216z" />
<glyph d="M256 0v1280h1024v-1280h-1024zM288 32h960v1216h-960v-1216z" />
<glyph d="M256 0v1280h1024v-1280h-1024zM288 32h960v1216h-960v-1216z" />
<glyph d="M256 0v1280h1024v-1280h-1024zM288 32h960v1216h-960v-1216z" />
<glyph d="M256 0v1280h1024v-1280h-1024zM288 32h960v1216h-960v-1216z" />
<glyph d="M256 0v1280h1024v-1280h-1024zM288 32h960v1216h-960v-1216z" />
<glyph d="M256 0v1280h1024v-1280h-1024zM288 32h960v1216h-960v-1216z" />
<glyph d="M256 0v1280h1024v-1280h-1024zM288 32h960v1216h-960v-1216z" />
<glyph d="M256 0v1280h1024v-1280h-1024zM288 32h960v1216h-960v-1216z" />
<glyph d="M256 0v1280h1024v-1280h-1024zM288 32h960v1216h-960v-1216z" />
<glyph d="M256 0v1280h1024v-1280h-1024zM288 32h960v1216h-960v-1216z" />
<glyph d="M256 0v1280h1024v-1280h-1024zM288 32h960v1216h-960v-1216z" />
<glyph d="M256 0v1280h1024v-1280h-1024zM288 32h960v1216h-960v-1216z" />
<glyph d="M256 0v1280h1024v-1280h-1024zM288 32h960v1216h-960v-1216z" />
<glyph d="M256 0v1280h1024v-1280h-1024zM288 32h960v1216h-960v-1216z" />
<glyph d="M256 0v1280h1024v-1280h-1024zM288 32h960v1216h-960v-1216z" />
<glyph d="M256 0v1280h1024v-1280h-1024zM288 32h960v1216h-960v-1216z" />
<glyph d="M256 0v1280h1024v-1280h-1024zM288 32h960v1216h-960v-1216z" />
<glyph d="M256 0v1280h1024v-1280h-1024zM288 32h960v1216h-960v-1216z" />
<glyph d="M256 0v1280h1024v-1280h-1024zM288 32h960v1216h-960v-1216z" />
<glyph d="M256 0v1280h1024v-1280h-1024zM288 32h960v1216h-960v-1216z" />
<glyph d="M256 0v1280h1024v-1280h-1024zM288 32h960v1216h-960v-1216z" />
<glyph d="M256 0v1280h1024v-1280h-1024zM288 32h960v1216h-960v-1216z" />
<glyph d="M256 0v1280h1024v-1280h-1024zM288 32h960v1216h-960v-1216z" />
<glyph d="M256 0v1280h1024v-1280h-1024zM288 32h960v1216h-960v-1216z" />
<glyph d="M256 0v1280h1024v-1280h-1024zM288 32h960v1216h-960v-1216z" />
<glyph d="M256 0v1280h1024v-1280h-1024zM288 32h960v1216h-960v-1216z" />
<glyph d="M256 0v1280h1024v-1280h-1024zM288 32h960v1216h-960v-1216z" />
<glyph d="M256 0v1280h1024v-1280h-1024zM288 32h960v1216h-960v-1216z" />
<glyph d="M256 0v1280h1024v-1280h-1024zM288 32h960v1216h-960v-1216z" />
<glyph d="M256 0v1280h1024v-1280h-1024zM288 32h960v1216h-960v-1216z" />
<glyph d="M256 0v1280h1024v-1280h-1024zM288 32h960v1216h-960v-1216z" />
<glyph horiz-adv-x="412" d="M70 1378q0 44 44 84q83 35 298 123q0 -46 -52 -91q-90 -35 -290 -116z" />
<glyph horiz-adv-x="412" d="M70 1239q0 43 44 83q83 35 298 125q0 -48 -13.5 -59.5t-36.5 -31.5q-92 -37 -292 -117zM70 1391q0 43 44 83q83 35 298 123q0 -46 -51 -89q-91 -37 -291 -117z" />
<glyph d="M256 0v1280h1024v-1280h-1024zM288 32h960v1216h-960v-1216z" />
<glyph d="M256 0v1280h1024v-1280h-1024zM288 32h960v1216h-960v-1216z" />
<glyph d="M256 0v1280h1024v-1280h-1024zM288 32h960v1216h-960v-1216z" />
<glyph horiz-adv-x="337" d="M70 1353q0 77 40 136.5t99 59.5q54 0 91 -45t37 -105q0 -62 -46 -111t-113 -49q-54 0 -81 30t-27 84zM110 1399q0 -35 33 -49q26 -11 75 -11q25 0 42 7t17 26q0 28 -39 62t-66 34q-26 0 -44 -22.5t-18 -46.5z" />
<glyph horiz-adv-x="433" d="M70 1346q0 26 7 51t20 57l21 9q0 -8 -2 -26t-2 -30q0 -22 9 -39.5t27 -17.5q43 0 69 56q12 26 30 101l21 6q8 -49 13 -60q12 -31 40 -31q38 0 60 50q18 40 18 83l21 6q4 -19 7.5 -42.5t3.5 -41.5q0 -75 -26 -123q-29 -54 -80 -54q-18 0 -33 6t-34 19q-21 -36 -39 -54 q-32 -32 -67 -32q-42 0 -63 28.5t-21 78.5z" />
<glyph d="M256 0v1280h1024v-1280h-1024zM288 32h960v1216h-960v-1216z" />
<glyph d="M256 0v1280h1024v-1280h-1024zM288 32h960v1216h-960v-1216z" />
<glyph horiz-adv-x="429" d="M72 1239q53 25 124 81q64 51 97 90q-31 19 -47 40q-20 26 -20 57q0 66 38.5 116.5t83.5 50.5q26 0 47 -28t21 -68q0 -19 -5.5 -39.5t-25.5 -75.5q16 -14 33 -27q11 -11 11 -31q0 -17 -3 -35l-6 -36l-83 50q-50 -55 -68 -73q-74 -72 -124 -72h-73zM277 1570q0 -22 25 -46 l44 -34q8 20 8 28q0 27 -19 50t-37 23q-10 0 -15.5 -7t-5.5 -14z" />
<glyph horiz-adv-x="485" d="M70 1357q7 70 18 101q20 55 66 55q34 0 53 -33t19 -75q0 -21 -4 -42q-7 -29 -10 -44q69 20 132 67q-17 16 -33 33q-26 29 -26 61q0 47 39 94q43 52 96 52q27 0 46 -19t19 -45q0 -37 -11 -69.5t-33 -66.5q14 -10 23 -21.5t9 -24.5q0 -47 -7 -88l-86 67q-46 -54 -104 -84 q-71 -36 -158 -36q40 66 44 75q12 27 12 51t-10 42.5t-29 18.5q-20 0 -38 -24q-7 -10 -27 -45zM348 1536q0 -18 18 -38q5 -6 35 -33q13 19 13 38q0 23 -12 42t-32 19q-22 0 -22 -28z" />
<glyph d="M256 0v1280h1024v-1280h-1024zM288 32h960v1216h-960v-1216z" />
<glyph d="M256 0v1280h1024v-1280h-1024zM288 32h960v1216h-960v-1216z" />
<glyph d="M256 0v1280h1024v-1280h-1024zM288 32h960v1216h-960v-1216z" />
<glyph horiz-adv-x="433" d="M70 1345q0 26 8 55q5 18 19 54l21 8q0 -8 -2 -26t-2 -30q0 -22 9 -39.5t27 -17.5q43 0 69 56q12 25 30 101l21 6q8 -49 13 -60q12 -31 40 -31q38 0 60 50q18 41 18 85l21 6q4 -19 7.5 -43.5t3.5 -42.5q0 -75 -26 -123q-29 -54 -80 -54q-17 0 -33.5 6.5t-33.5 18.5 q-20 -34 -39 -53q-32 -32 -67 -32q-42 0 -63 28t-21 78zM76 1514q0 42 45 83q82 34 297 124q0 -46 -52 -92q-89 -35 -290 -115z" />
<glyph horiz-adv-x="433" d="M70 1345q0 26 8 55q5 18 19 54l21 8q0 -8 -2 -26t-2 -30q0 -22 9 -39.5t27 -17.5q43 0 69 56q12 25 30 100l21 7q9 -49 13 -60q12 -32 40 -32q38 0 60 50q18 41 18 86l21 6q4 -19 7.5 -43.5t3.5 -41.5q0 -76 -26 -124q-29 -54 -80 -54q-17 0 -33.5 6.5t-33.5 18.5 q-20 -34 -39 -53q-32 -32 -67 -32q-41 0 -62.5 28.5t-21.5 77.5zM70 1521q0 43 44 83q83 35 298 125q0 -48 -13.5 -59.5t-36.5 -31.5q-92 -37 -292 -117zM70 1673q0 43 44 83q83 35 298 123q0 -46 -51 -89q-91 -37 -291 -117z" />
<glyph horiz-adv-x="433" d="M70 1532q0 25 8 54q5 18 19 53l21 9q0 -9 -2 -27t-2 -30q0 -22 9 -38.5t27 -16.5q43 0 69 55q12 26 30 100l21 6q8 -49 13 -60q12 -31 40 -31q38 0 60 50q18 41 18 85l21 6q4 -19 7.5 -43.5t3.5 -42.5q0 -75 -26 -122q-29 -53 -80 -53q-18 0 -33 6t-34 19 q-20 -34 -39 -53q-32 -32 -67 -32q-42 0 -63 28t-21 78zM76 1239q0 43 44 83q83 35 298 125q0 -47 -51 -92q-90 -36 -291 -116z" />
<glyph horiz-adv-x="433" d="M70 1636q0 25 8 54q5 18 19 54l21 8q0 -8 -2 -26t-2 -30q0 -23 8.5 -39.5t27.5 -16.5q43 0 69 56q13 27 30 100l21 6q9 -49 13 -60q12 -32 40 -32q38 0 60 50q18 41 18 86l21 7q4 -24 7.5 -46t3.5 -40q0 -76 -26 -124q-29 -53 -80 -53q-17 0 -33.5 6.5t-33.5 18.5 q-19 -34 -39 -53q-32 -31 -67 -31q-42 0 -63 28t-21 77zM76 1239q0 43 43 84q84 35 299 125q0 -47 -51 -92q-90 -36 -291 -117zM76 1364q0 44 43 85q84 34 299 122q0 -46 -52 -90q-89 -35 -290 -117z" />
<glyph horiz-adv-x="433" d="M64 1522q76 34 107 49q48 23 106 56q-23 22 -34 37q-17 23 -17 46q0 43 35.5 85.5t80.5 42.5q29 0 52.5 -20.5t23.5 -49.5q0 -21 -10 -44q-3 -7 -23 -42q32 -15 38 -26q10 -17 10 -71q-35 0 -74 9q-8 2 -43 12q-57 -49 -80 -63q-60 -38 -116 -38q-14 0 -27.5 4.5 t-28.5 12.5zM70 1347q0 26 8 55q5 18 19 54l21 8q0 -8 -2 -26t-2 -30q0 -22 9 -39.5t27 -17.5q43 0 69 56q12 25 30 100l21 7q9 -50 13 -61q12 -31 40 -31q38 0 60 50q18 41 18 86l21 6q4 -20 7.5 -44.5t3.5 -41.5q0 -75 -26 -123q-29 -54 -80 -54q-17 0 -33.5 6.5 t-33.5 18.5q-20 -34 -39 -53q-32 -32 -67 -32q-42 0 -63 28t-21 78zM287 1775q0 -21 10 -35.5t45 -33.5q3 7 6.5 16t3.5 15q0 21 -15 41t-37 20q-7 0 -10 -7t-3 -16z" />
<glyph horiz-adv-x="463" d="M48 1640q7 71 18 101q20 55 66 55q34 0 53 -33.5t19 -75.5q0 -17 -3.5 -34.5t-11.5 -50.5q69 20 133 66q-32 32 -41 44q-18 24 -18 51q0 47 37 92q46 55 96 56q29 -1 48 -20t14 -78q-4 -23 -10.5 -46.5t-28.5 -58.5q15 -12 23.5 -22.5t8.5 -23.5q0 -18 -1.5 -39.5 t-5.5 -47.5l-86 67q-46 -54 -104 -84q-71 -36 -158 -36l36 60q20 37 20 66q0 22 -10 41t-29 19q-21 0 -39 -24zM70 1345q0 26 7 51t20 58l21 8q0 -8 -2 -26t-2 -30q0 -22 9 -39.5t27 -17.5q43 0 69 56q12 25 30 101l21 6q8 -49 13 -60q12 -31 40 -31q38 0 60 50q18 41 18 85 l21 6q4 -19 7.5 -43.5t3.5 -42.5q0 -75 -26 -123q-29 -54 -80 -54q-18 0 -33 6t-34 19q-20 -34 -39 -53q-32 -32 -67 -32q-42 0 -63 28t-21 78zM326 1819q0 -18 18 -38q5 -6 35 -33q13 17 13 38q0 24 -11.5 43t-23.5 19q-19 0 -25 -8.5t-6 -20.5z" />
<glyph d="M256 0v1280h1024v-1280h-1024zM288 32h960v1216h-960v-1216z" />
<glyph horiz-adv-x="412" d="M70 -43q0 43 44 83q83 34 298 124q0 -48 -52 -92q-90 -35 -290 -115z" />
<glyph horiz-adv-x="412" d="M70 -116q0 44 44 84q83 34 298 123q0 -47 -52 -91q-90 -35 -290 -116zM70 -266q0 43 44 85q83 35 298 124q0 -47 -52 -92q-90 -35 -290 -117z" />
<glyph d="M256 0v1280h1024v-1280h-1024zM288 32h960v1216h-960v-1216z" />
<glyph d="M256 0v1280h1024v-1280h-1024zM288 32h960v1216h-960v-1216z" />
<glyph d="M256 0v1280h1024v-1280h-1024zM288 32h960v1216h-960v-1216z" />
<glyph d="M256 0v1280h1024v-1280h-1024zM288 32h960v1216h-960v-1216z" />
<glyph d="M256 0v1280h1024v-1280h-1024zM288 32h960v1216h-960v-1216z" />
<glyph d="M256 0v1280h1024v-1280h-1024zM288 32h960v1216h-960v-1216z" />
<glyph d="M256 0v1280h1024v-1280h-1024zM288 32h960v1216h-960v-1216z" />
<glyph d="M256 0v1280h1024v-1280h-1024zM288 32h960v1216h-960v-1216z" />
<glyph d="M256 0v1280h1024v-1280h-1024zM288 32h960v1216h-960v-1216z" />
<glyph d="M256 0v1280h1024v-1280h-1024zM288 32h960v1216h-960v-1216z" />
<glyph d="M256 0v1280h1024v-1280h-1024zM288 32h960v1216h-960v-1216z" />
<glyph d="M256 0v1280h1024v-1280h-1024zM288 32h960v1216h-960v-1216z" />
<glyph d="M256 0v1280h1024v-1280h-1024zM288 32h960v1216h-960v-1216z" />
<glyph d="M256 0v1280h1024v-1280h-1024zM288 32h960v1216h-960v-1216z" />
<glyph d="M256 0v1280h1024v-1280h-1024zM288 32h960v1216h-960v-1216z" />
<glyph d="M256 0v1280h1024v-1280h-1024zM288 32h960v1216h-960v-1216z" />
<glyph d="M256 0v1280h1024v-1280h-1024zM288 32h960v1216h-960v-1216z" />
<glyph d="M256 0v1280h1024v-1280h-1024zM288 32h960v1216h-960v-1216z" />
<glyph d="M256 0v1280h1024v-1280h-1024zM288 32h960v1216h-960v-1216z" />
<glyph d="M256 0v1280h1024v-1280h-1024zM288 32h960v1216h-960v-1216z" />
<glyph d="M256 0v1280h1024v-1280h-1024zM288 32h960v1216h-960v-1216z" />
<glyph d="M256 0v1280h1024v-1280h-1024zM288 32h960v1216h-960v-1216z" />
<glyph d="M256 0v1280h1024v-1280h-1024zM288 32h960v1216h-960v-1216z" />
<glyph d="M256 0v1280h1024v-1280h-1024zM288 32h960v1216h-960v-1216z" />
<glyph d="M256 0v1280h1024v-1280h-1024zM288 32h960v1216h-960v-1216z" />
<glyph d="M256 0v1280h1024v-1280h-1024zM288 32h960v1216h-960v-1216z" />
<glyph d="M256 0v1280h1024v-1280h-1024zM288 32h960v1216h-960v-1216z" />
<glyph d="M256 0v1280h1024v-1280h-1024zM288 32h960v1216h-960v-1216z" />
<glyph d="M256 0v1280h1024v-1280h-1024zM288 32h960v1216h-960v-1216z" />
<glyph d="M256 0v1280h1024v-1280h-1024zM288 32h960v1216h-960v-1216z" />
<glyph d="M256 0v1280h1024v-1280h-1024zM288 32h960v1216h-960v-1216z" />
<glyph d="M256 0v1280h1024v-1280h-1024zM288 32h960v1216h-960v-1216z" />
<glyph d="M256 0v1280h1024v-1280h-1024zM288 32h960v1216h-960v-1216z" />
<glyph d="M256 0v1280h1024v-1280h-1024zM288 32h960v1216h-960v-1216z" />
<glyph d="M256 0v1280h1024v-1280h-1024zM288 32h960v1216h-960v-1216z" />
<glyph d="M256 0v1280h1024v-1280h-1024zM288 32h960v1216h-960v-1216z" />
<glyph d="M256 0v1280h1024v-1280h-1024zM288 32h960v1216h-960v-1216z" />
<glyph d="M256 0v1280h1024v-1280h-1024zM288 32h960v1216h-960v-1216z" />
<glyph d="M256 0v1280h1024v-1280h-1024zM288 32h960v1216h-960v-1216z" />
<glyph d="M256 0v1280h1024v-1280h-1024zM288 32h960v1216h-960v-1216z" />
<glyph d="M256 0v1280h1024v-1280h-1024zM288 32h960v1216h-960v-1216z" />
<glyph d="M256 0v1280h1024v-1280h-1024zM288 32h960v1216h-960v-1216z" />
<glyph d="M256 0v1280h1024v-1280h-1024zM288 32h960v1216h-960v-1216z" />
<glyph d="M256 0v1280h1024v-1280h-1024zM288 32h960v1216h-960v-1216z" />
<glyph d="M256 0v1280h1024v-1280h-1024zM288 32h960v1216h-960v-1216z" />
<glyph d="M256 0v1280h1024v-1280h-1024zM288 32h960v1216h-960v-1216z" />
<glyph d="M256 0v1280h1024v-1280h-1024zM288 32h960v1216h-960v-1216z" />
<glyph d="M256 0v1280h1024v-1280h-1024zM288 32h960v1216h-960v-1216z" />
<glyph d="M256 0v1280h1024v-1280h-1024zM288 32h960v1216h-960v-1216z" />
<glyph d="M256 0v1280h1024v-1280h-1024zM288 32h960v1216h-960v-1216z" />
<glyph d="M256 0v1280h1024v-1280h-1024zM288 32h960v1216h-960v-1216z" />
<glyph d="M256 0v1280h1024v-1280h-1024zM288 32h960v1216h-960v-1216z" />
<glyph d="M256 0v1280h1024v-1280h-1024zM288 32h960v1216h-960v-1216z" />
<glyph d="M256 0v1280h1024v-1280h-1024zM288 32h960v1216h-960v-1216z" />
<glyph horiz-adv-x="653" d="M202 1309q0 61 35 107.5t90 46.5q57 0 93.5 -46t36.5 -108q0 -67 -26 -185q-43 -195 -48 -223q-26 -146 -26 -282h-57q0 126 -25 279q-10 58 -47 240q-26 126 -26 171zM205 402q0 51 36 88t88 37q50 0 86 -37t36 -88q0 -50 -36 -86t-88 -36q-50 0 -86 36t-36 86z" />
<glyph horiz-adv-x="653" d="M199 413q0 54 38.5 93.5t91.5 39.5q56 0 95 -39t39 -94q0 -54 -39.5 -93.5t-94.5 -39.5q-54 0 -92 39t-38 94z" />
<glyph horiz-adv-x="653" d="M198 413q0 54 37.5 93.5t91.5 39.5q56 0 95 -39t39 -94q0 -54 -39.5 -93.5t-94.5 -39.5q-53 0 -91 39t-38 94zM198 978q0 55 37 94t92 39q56 0 95 -39t39 -94q0 -56 -39 -95t-95 -39q-53 0 -91 39t-38 95z" />
<glyph d="M256 0v1280h1024v-1280h-1024zM288 32h960v1216h-960v-1216z" />
<glyph d="M256 0v1280h1024v-1280h-1024zM288 32h960v1216h-960v-1216z" />
<glyph d="M256 0v1280h1024v-1280h-1024zM288 32h960v1216h-960v-1216z" />
<glyph d="M256 0v1280h1024v-1280h-1024zM288 32h960v1216h-960v-1216z" />
<glyph d="M256 0v1280h1024v-1280h-1024zM288 32h960v1216h-960v-1216z" />
<glyph d="M256 0v1280h1024v-1280h-1024zM288 32h960v1216h-960v-1216z" />
<glyph d="M256 0v1280h1024v-1280h-1024zM288 32h960v1216h-960v-1216z" />
<glyph d="M256 0v1280h1024v-1280h-1024zM288 32h960v1216h-960v-1216z" />
<glyph d="M256 0v1280h1024v-1280h-1024zM288 32h960v1216h-960v-1216z" />
<glyph d="M256 0v1280h1024v-1280h-1024zM288 32h960v1216h-960v-1216z" />
<glyph d="M256 0v1280h1024v-1280h-1024zM288 32h960v1216h-960v-1216z" />
<glyph d="M256 0v1280h1024v-1280h-1024zM288 32h960v1216h-960v-1216z" />
<glyph d="M256 0v1280h1024v-1280h-1024zM288 32h960v1216h-960v-1216z" />
<glyph d="M256 0v1280h1024v-1280h-1024zM288 32h960v1216h-960v-1216z" />
<glyph d="M256 0v1280h1024v-1280h-1024zM288 32h960v1216h-960v-1216z" />
<glyph d="M256 0v1280h1024v-1280h-1024zM288 32h960v1216h-960v-1216z" />
<glyph d="M256 0v1280h1024v-1280h-1024zM288 32h960v1216h-960v-1216z" />
<glyph d="M256 0v1280h1024v-1280h-1024zM288 32h960v1216h-960v-1216z" />
<glyph d="M256 0v1280h1024v-1280h-1024zM288 32h960v1216h-960v-1216z" />
<glyph d="M256 0v1280h1024v-1280h-1024zM288 32h960v1216h-960v-1216z" />
<glyph d="M256 0v1280h1024v-1280h-1024zM288 32h960v1216h-960v-1216z" />
<glyph d="M256 0v1280h1024v-1280h-1024zM288 32h960v1216h-960v-1216z" />
<glyph d="M256 0v1280h1024v-1280h-1024zM288 32h960v1216h-960v-1216z" />
<glyph d="M256 0v1280h1024v-1280h-1024zM288 32h960v1216h-960v-1216z" />
<glyph horiz-adv-x="256" d="M-70 293v174h326v-174h-326z" />
<glyph horiz-adv-x="2048" d="M-70 293v174h2118v-174h-2118z" />
<glyph horiz-adv-x="4096" d="M-70 293v174h4166v-174h-4166z" />
<glyph horiz-adv-x="0" d="M-548 1835h226l135 -158h-130z" />
<glyph horiz-adv-x="0" d="M-977 1835h226l135 -158h-130z" />
<glyph horiz-adv-x="0" d="M-858 1827h241l135 -280h-145z" />
<glyph horiz-adv-x="0" d="M-299 1638h78q24 -29 83 -48q64 -20 129 -20q67 0 131 20q59 18 83 48h79q-31 -72 -104 -108q-77 -38 -189 -38q-35 0 -66 4q-118 14 -177 75q-30 30 -47 67z" />
<glyph horiz-adv-x="0" d="M-299 1492l209 123h195l208 -123h-175l-131 67l-131 -67h-175z" />
<glyph horiz-adv-x="0" d="M-653 1194l135 280h241l-231 -280h-145z" />
<glyph horiz-adv-x="0" d="M-504 1474h241l135 -280h-145z" />
</font>
</defs>
</svg>
