<?xml version="1.0" standalone="no"?>
<!DOCTYPE svg PUBLIC "-//W3C//DTD SVG 1.1//EN" "http://www.w3.org/Graphics/SVG/1.1/DTD/svg11.dtd" >
<svg xmlns="http://www.w3.org/2000/svg" xmlns:xlink="http://www.w3.org/1999/xlink" version="1.1">
<metadata></metadata>
<defs>
<font id="bpg_banner_supersquare_capsregular" horiz-adv-x="1024" >
<font-face units-per-em="2048" ascent="1556" descent="-492" />
<missing-glyph horiz-adv-x="692" />
<glyph unicode="&#xd;" horiz-adv-x="692" />
<glyph unicode=" "  horiz-adv-x="692" />
<glyph unicode="&#x09;" horiz-adv-x="692" />
<glyph unicode="&#xa0;" horiz-adv-x="692" />
<glyph unicode="!" horiz-adv-x="516" d="M163 0v227h190v-227h-190zM172 388v1099h181v-1099h-181z" />
<glyph unicode="&#x22;" horiz-adv-x="569" d="M84 857v577h137v-577h-137zM349 857v577h138v-577h-138z" />
<glyph unicode="#" horiz-adv-x="1575" d="M107 466l53 145h315q11 32 21 59.5t20.5 54.5t21 55t22.5 61h-342l46 143h344q20 55 41.5 114.5t43.5 120t43.5 120t40.5 114.5h165l-164 -469h215q20 55 41.5 114.5t43 120t43 120t41.5 114.5h164l-165 -469h306l-50 -143h-307q-22 -62 -41.5 -114.5t-41.5 -115.5h331 l-50 -145h-329q-40 -115 -83.5 -234.5t-83.5 -231.5h-167l168 466h-220q-20 -55 -41.5 -114.5t-43.5 -119.5t-43 -119t-40 -113h-164l165 466h-319zM644 611h219l79 230h-216q-11 -31 -21 -59t-20 -55.5t-20 -55.5t-21 -60z" />
<glyph unicode="$" horiz-adv-x="1384" d="M129 404q0 12 1 33t3 47v27h190v-29q0 -25 -1 -34.5t-1 -19.5q0 -77 10.5 -126.5t37.5 -78t73 -40t117 -11.5h41q7 0 10 1v494q-131 3 -219.5 26t-142 71t-76.5 123.5t-23 183.5q0 229 98 333h-1q99 103 320 103q16 0 26.5 -0.5t18.5 -0.5v101h178v-102h21 q109 0 189.5 -20.5t133 -64.5t78 -113t25.5 -166q0 -12 -1.5 -33t-5.5 -68h-189v39q0 8 0.5 18t0.5 25q0 58 -11 95.5t-38.5 58.5t-74.5 29t-119 8h-9v-459q133 -5 222 -28.5t142 -72t75.5 -125.5t22.5 -188q0 -123 -23.5 -211t-73.5 -144t-127.5 -82.5t-186.5 -26.5h-51 v-92h-178v94q-10 0 -20 -1t-15 -1q-117 0 -201.5 25t-139 77t-80.5 133t-26 193zM343 1071q0 -62 10.5 -99.5t39.5 -60t81.5 -33t136.5 -17.5v456h-22q-75 0 -123 -10.5t-75 -37.5t-37.5 -75t-10.5 -123zM789 168h19q75 0 123 11.5t76 41.5t39 81.5t11 131.5q0 67 -13 109.5 t-43.5 68t-82 36.5t-128.5 14z" />
<glyph unicode="%" horiz-adv-x="1858" d="M78 868v307q0 89 16.5 152t54 102.5t97.5 57.5t148 18h87q87 0 147 -17.5t97.5 -56.5t54 -102t16.5 -154v-307q0 -91 -16.5 -153.5t-53.5 -101.5t-97 -56t-148 -17h-87q-87 0 -147.5 17t-98 56t-54 101.5t-16.5 153.5zM244 900q0 -66 5.5 -103.5t22.5 -57t48 -24.5t82 -5 h72q49 0 79.5 5.5t47.5 25t22.5 57t5.5 102.5v245q0 66 -6 104t-23.5 57.5t-47.5 25t-78 5.5h-72q-47 0 -77.5 -4.5t-48.5 -23.5t-25 -57.5t-7 -106.5v-245zM576 -18l524 1523h180l-525 -1523h-179zM1061 312v305q0 91 17 154t54.5 102.5t97.5 57t147 17.5h87q88 0 148 -18 t97.5 -57.5t54 -102.5t16.5 -153v-305q0 -90 -16 -153t-53.5 -102t-98 -57t-148.5 -18h-87q-88 0 -148 18t-97.5 57t-54 102t-16.5 153zM1229 342q0 -64 5.5 -101.5t22 -57t47.5 -25t82 -5.5h69q51 0 82 5.5t48.5 24.5t23 56.5t5.5 102.5v246q0 67 -6.5 105t-24 57t-48.5 24 t-80 5h-69q-98 0 -128 -31q-29 -29 -29 -160v-246z" />
<glyph unicode="&#x26;" horiz-adv-x="1489" d="M113 474q0 88 13 154.5t41.5 115t73.5 80.5t109 52q-57 51 -83.5 122.5t-26.5 174.5q0 91 22 154.5t74 103t139 57t217 17.5q123 0 209.5 -19.5t142 -60.5t81 -104.5t25.5 -151.5v-141h-200v131q0 94 -37 125q-20 17 -75 24t-146 7q-80 0 -128.5 -4t-74.5 -18.5 t-34 -42.5t-8 -77q0 -63 31.5 -123t97.5 -114l11 -9q63 -53 123.5 -103.5t120.5 -101t121 -101.5t125 -104v180h200v-233q0 -22 -2 -48.5t-8 -58.5q66 -57 139.5 -117.5t139.5 -114.5l-119 -143l-222 187q-28 -53 -65.5 -88.5t-100.5 -58t-158.5 -32t-238.5 -9.5 q-104 0 -175.5 6t-122.5 21t-86.5 40t-66.5 62q-20 24 -35 56.5t-24.5 76.5t-14 101t-4.5 130zM317 458q0 -63 2.5 -103t8.5 -66t16 -40.5t24 -26.5q15 -12 38 -23q23 -10 59 -15q75 -12 263 -12q72 0 126 7t92.5 23t62.5 41t36 60l-519 433q-59 -2 -99 -14.5t-64.5 -43.5 t-35 -84t-10.5 -136z" />
<glyph unicode="'" horiz-adv-x="295" d="M80 857v577h137v-577h-137z" />
<glyph unicode="(" horiz-adv-x="664" d="M138 498v491q0 145 20 244t64 159.5t115 86.5t173 26h82v-190h-65q-111 0 -145 -51q-37 -55 -37 -280v-480q0 -225 37 -280q34 -52 145 -52h65v-190h-82q-102 0 -173 26t-115 86.5t-64 159t-20 244.5z" />
<glyph unicode=")" horiz-adv-x="664" d="M72 -18v190h64q109 0 145 52q38 56 38 280v480q0 224 -38 280q-17 25 -52.5 38t-92.5 13h-64v190h82q102 0 173 -27t115 -88t64 -159.5t20 -241.5v-491q0 -144 -20 -242.5t-64 -159t-115 -87.5t-173 -27h-82z" />
<glyph unicode="*" d="M92 1021v168h276l-137 238l142 83l139 -238l139 238l142 -83l-136 -238h275v-168h-275l136 -237l-142 -84l-139 237l-139 -238l-142 83l136 239h-275zM406 1045l106 -60l104 59v120l-104 62l-106 -61v-120z" />
<glyph unicode="+" horiz-adv-x="1706" d="M251 546v134h536v547h134v-547h534v-134h-534v-546h-134v546h-536z" />
<glyph unicode="," horiz-adv-x="692" d="M241 0v250h210v-274q0 -88 -55 -134.5t-155 -46.5v126q38 4 55 16.5t17 38.5v24h-72z" />
<glyph unicode="-" horiz-adv-x="825" d="M121 472v175h583v-175h-583z" />
<glyph unicode="." horiz-adv-x="692" d="M116 0v250h208v-250h-208z" />
<glyph unicode="/" horiz-adv-x="545" d="M-64 -185l525 1690h177l-528 -1690h-174z" />
<glyph unicode="0" horiz-adv-x="1384" d="M129 498v491q0 143 26 241.5t84.5 159.5t152.5 88t231 27h139q274 0 383 -115h-1q111 -117 111 -401v-491q0 -284 -111 -401h1q-109 -115 -383 -115h-139q-137 0 -231.5 27.5t-153 88.5t-84 159.5t-25.5 240.5zM333 502q0 -69 2.5 -113.5t9 -74t17.5 -48t27 -35.5t35 -28 t42 -19h-1q53 -14 164 -14h127q110 0 161 14h-1q100 33 122 127q6 25 9.5 72.5t3.5 116.5v485q0 71 -2.5 116t-9 74t-17 46.5t-26.5 33.5q-18 16 -37.5 28t-46.5 19.5t-64.5 11t-91.5 3.5h-127q-54 0 -92.5 -2.5t-65.5 -9.5t-46.5 -18.5t-35.5 -29.5q-16 -17 -26.5 -35 t-17 -46.5t-9.5 -73.5t-3 -117v-483z" />
<glyph unicode="1" horiz-adv-x="1384" d="M260 1080l408 407h236v-1487h-197v1276q-39 -40 -79 -80l-242 -242z" />
<glyph unicode="2" horiz-adv-x="1384" d="M145 0v265q0 104 17 174.5t52.5 119t91.5 79.5t134 57t180 51.5t229 62.5q78 21 119.5 40.5t59.5 48t20.5 71.5t2.5 111q0 49 -2.5 82.5t-8.5 56t-16.5 36.5t-25.5 24q-29 19 -112.5 28.5t-233.5 9.5q-203 0 -255 -43q-48 -39 -48 -179v-105h-204v115q0 223 109 313 q55 45 155.5 66t253.5 21q83 0 145 -1.5t108 -6t78.5 -12t56.5 -18.5q58 -27 96 -57.5t61 -75.5t32.5 -109.5t9.5 -159.5q0 -107 -14 -177.5t-48.5 -118.5t-94 -79t-149.5 -58q-50 -15 -107 -30.5t-115 -31t-113.5 -31.5t-102 -32t-79.5 -31.5t-46 -30.5q-32 -38 -32 -115 v-139h901v-191h-1105z" />
<glyph unicode="3" horiz-adv-x="1384" d="M141 386v133h200v-149q0 -62 13.5 -101t52.5 -61t110.5 -30t187.5 -8q105 0 168.5 5.5t99 19.5t50 39.5t20.5 64.5q6 45 6 161q0 65 -11.5 105t-38.5 61.5t-72 29t-111 7.5h-241v187h221q135 0 182 44v-1q46 46 46 197q0 51 -2 83t-7.5 52.5t-14 32t-20.5 21.5 q-23 18 -95 27t-210 9q-99 0 -159.5 -7.5t-93.5 -26.5t-44 -52t-11 -84v-151h-200v147q0 97 28 166.5t88.5 113t156.5 64t231 20.5q88 0 151 -2t108 -7t77 -13.5t59 -21.5q43 -22 74 -50t50.5 -69.5t28.5 -100.5t9 -142q0 -81 -9 -137.5t-27.5 -95t-47 -62t-68.5 -38.5 q46 -15 79.5 -39.5t54.5 -62.5t31 -92t10 -128q0 -99 -10 -170t-32.5 -120.5t-59 -81t-88.5 -52.5q-108 -38 -352 -38q-118 0 -194.5 4.5t-121.5 15.5q-43 11 -78.5 28t-62.5 43h1q-58 54 -85 128t-27 185z" />
<glyph unicode="4" horiz-adv-x="1384" d="M110 337v212l719 938h252v-958h220v-192h-220v-337h-201v337h-770zM326 529h554v723z" />
<glyph unicode="5" horiz-adv-x="1384" d="M136 350v113h201v-115q0 -103 57 -140h-1q65 -38 287 -38h50q62 0 102.5 4t68 13.5t47 24t38.5 35.5q10 11 16.5 25t10.5 35.5t6 52.5t2 76v66q0 54 -1.5 91.5t-5 65.5t-9.5 47.5t-14 37.5q-14 29 -35.5 48.5t-57 31.5t-87 17t-123.5 5q-96 0 -158.5 -5.5t-99 -20.5 t-51.5 -42.5t-17 -70.5h-198v780h996v-192h-797v-346q23 22 50 36.5t66.5 23.5t94.5 12.5t134 3.5q84 0 142.5 -4t101 -13.5t73.5 -24.5t61 -37q36 -31 63.5 -71t43.5 -86v1q31 -89 31 -282q0 -184 -25 -269v1q-26 -96 -89.5 -152.5t-151.5 -80.5q-87 -25 -268 -25 q-115 0 -192 5.5t-129.5 19.5t-86.5 37t-63 58q-42 49 -62.5 111.5t-20.5 136.5z" />
<glyph unicode="6" horiz-adv-x="1384" d="M151 424v666q0 113 24.5 192t78.5 128.5t138.5 72t204.5 22.5h225q116 0 198.5 -20t135 -61.5t76.5 -105t24 -151.5v-97h-201v65q0 54 -11 88.5t-45.5 54.5t-99 27.5t-171.5 7.5q-72 0 -124 -2t-88.5 -6t-61 -11.5t-40.5 -17.5q-32 -21 -51.5 -67t-19.5 -104v-279 q26 28 59 47.5t78.5 31.5t107.5 17t146 5q145 0 244 -18.5t160 -57.5t87.5 -98t26.5 -140v-263q0 -162 -67 -248t-206 -107h1q-42 -8 -117 -11t-190 -3q-148 0 -248 23t-161 75.5t-87 137t-26 207.5zM341 472q0 -91 7 -140.5t22 -68.5q37 -47 102 -67h-1q74 -20 273 -20 q99 0 160 6.5t94 26.5t44 56t11 95v207q0 103 -53 138q-29 19 -103 27.5t-199 8.5q-88 0 -148.5 -5.5t-100.5 -18t-61.5 -32.5t-32 -50t-12.5 -70.5t-2 -92.5z" />
<glyph unicode="7" horiz-adv-x="1384" d="M169 1295v192h1079v-184l-706 -1303h-239l723 1295h-857z" />
<glyph unicode="8" horiz-adv-x="1384" d="M137 434q0 175 47 249q33 54 116 89q-38 17 -64.5 41.5t-43.5 61t-25 87.5t-8 122q0 65 3 109.5t9.5 76.5t17 55.5t26.5 47.5q24 36 60.5 61.5t93.5 41t137.5 22.5t193.5 7q139 0 228.5 -13t145 -38t84 -62t46.5 -85v1q24 -68 24 -213q0 -71 -8 -124.5t-25.5 -92.5 t-44.5 -65.5t-64 -42.5q44 -18 75 -43.5t50 -64.5t27.5 -93.5t8.5 -130.5q0 -80 -4.5 -137.5t-15.5 -99.5t-29.5 -72.5t-46.5 -55.5q-29 -26 -65.5 -43.5t-91 -28t-131.5 -15t-187 -4.5t-187 7t-131.5 23t-92 41.5t-68.5 62.5q-17 21 -28.5 45t-18.5 59.5t-10 87t-3 126.5z M337 438q0 -47 2 -81t7 -58.5t12.5 -41t19.5 -26.5h-1q14 -16 38.5 -27t62 -18t90 -10.5t122.5 -3.5q99 0 161.5 5.5t100 18t55 32.5t26.5 50q6 21 10 56t4 86q0 69 -6.5 112t-20.5 68.5t-36 38t-53 20.5q-61 16 -241 16q-72 0 -122.5 -2t-85.5 -7t-57 -13.5t-37 -20.5 q-28 -23 -39.5 -68t-11.5 -126zM361 1071q0 -133 55 -172q59 -41 286 -41q109 0 174.5 11t93.5 31q54 40 54 180q0 41 -1.5 69t-5 48t-8.5 33.5t-12 25.5q-11 16 -33 27t-59 18t-90.5 10.5t-126.5 3.5q-85 0 -142 -3.5t-93.5 -13t-55 -26.5t-27 -44.5t-9 -66t-0.5 -90.5z " />
<glyph unicode="9" horiz-adv-x="1384" d="M108 316v97h201v-65q0 -56 12 -90.5t47 -54t99 -26.5t169 -7q73 0 125 2t88.5 6.5t60.5 11.5t40 17q32 20 51.5 67t19.5 104v283q-25 -29 -57 -49t-77.5 -32t-108.5 -17.5t-150 -5.5q-141 0 -239 17.5t-159.5 55t-89.5 97t-28 143.5v265q0 161 68.5 246.5t208.5 108.5 q42 7 116.5 11t183.5 4q146 0 246.5 -23t162 -75t88.5 -137t27 -209v-667q0 -112 -23.5 -190.5t-76.5 -128t-138 -72t-208 -22.5h-225q-118 0 -200.5 19.5t-134.5 60.5t-75.5 104t-23.5 151zM311 916q0 -105 53 -138q57 -36 302 -36q88 0 149 5.5t100.5 17.5t61 32.5 t31.5 50.5t11.5 70.5t1.5 93.5q0 91 -7 141t-21 67q-21 26 -45 43.5t-64.5 27.5t-103.5 14t-163 4q-98 0 -158 -6.5t-93 -26.5t-44 -56t-11 -96v-208z" />
<glyph unicode=":" horiz-adv-x="692" d="M241 0v250h210v-250h-210zM241 811v252h210v-252h-210z" />
<glyph unicode=";" horiz-adv-x="692" d="M241 0v250h210v-274q0 -88 -55 -134.5t-155 -46.5v126q38 4 55 16.5t17 38.5v24h-72zM241 811v252h210v-252h-210z" />
<glyph unicode="&#x3c;" horiz-adv-x="1706" d="M261 559v107l1184 488v-150l-960 -391q242 -97 480.5 -194t479.5 -194v-149z" />
<glyph unicode="=" horiz-adv-x="1706" d="M251 365v134h1204v-134h-1204zM251 728v134h1204v-134h-1204z" />
<glyph unicode="&#x3e;" horiz-adv-x="1706" d="M261 76v149l959 388q-242 97 -480 195.5t-479 195.5v149l1184 -487v-107z" />
<glyph unicode="?" horiz-adv-x="1063" d="M71 1000v164q0 91 24.5 155.5t80.5 106t148.5 60.5t228.5 19q135 0 223.5 -21.5t137.5 -66.5h-1q98 -86 98 -314q0 -93 -9 -160t-30.5 -115.5t-57 -81t-87.5 -56.5h1q-29 -14 -81 -36q-85 -38 -132 -80.5t-47 -84.5v-92h-200v134q0 48 8.5 84t34 67t73 60.5t125.5 63.5 l3 1q2 1 4.5 2t4.5 2q66 29 107.5 53.5t55.5 44.5h-1q17 25 25 73.5t8 124.5q0 64 -9.5 105t-33.5 64t-65.5 32t-105.5 9q-67 0 -116 -1.5t-83 -4.5t-55 -9t-33 -15q-25 -20 -36 -65.5t-11 -126.5q0 -17 0.5 -29t0.5 -21v-45h-198zM368 0v224h200v-224h-200z" />
<glyph unicode="@" horiz-adv-x="2048" d="M122 542q0 206 84 379.5t252 312.5q264 219 654 219q187 0 337.5 -55t256.5 -148t163 -215.5t57 -258.5q0 -173 -61.5 -309.5t-182.5 -233.5q-72 -54 -150.5 -82.5t-163.5 -28.5q-183 0 -204 132q-104 -132 -267 -132q-324 0 -324 338q0 115 37 216t101 175t149.5 117 t182.5 43q176 0 249 -133l44 96h129l-141 -571l1 1q-5 -22 -8 -36.5t-5 -24t-3 -15.5t-1 -10q0 -33 22.5 -51.5t62.5 -18.5q76 0 146 43t123 116.5t84.5 170t31.5 204.5q0 120 -50 220t-139 172t-211.5 112.5t-267.5 40.5q-189 0 -343 -64.5t-263.5 -175t-169.5 -257.5 t-60 -312t57 -289t174 -219v1q97 -78 231.5 -122t285.5 -44q167 0 324 49.5t299 146.5l60 -85q-306 -231 -663 -231q-382 0 -617 184q-155 117 -229 272t-74 361zM730 451q0 -100 47 -154.5t135 -54.5q51 0 95.5 18.5t80 50.5t61 75.5t37.5 94.5l59 235q-17 85 -67 129.5 t-122 44.5q-71 0 -131 -33.5t-103.5 -92.5t-67.5 -139.5t-24 -173.5z" />
<glyph unicode="A" horiz-adv-x="1417" d="M13 0l550 1487h291l553 -1487h-208l-138 371h-704q-33 -91 -68.5 -185.5t-67.5 -185.5h-208zM424 553h571q-69 189 -136.5 371t-137.5 371h-25z" />
<glyph unicode="B" horiz-adv-x="1436" d="M180 0v1487h693q243 0 323 -75q83 -78 83 -305q0 -72 -6.5 -125.5t-21.5 -92.5t-40 -65.5t-61 -44.5q45 -18 76 -45.5t51 -69t29 -100.5t9 -140q0 -247 -101 -336q-100 -88 -391 -88h-643zM376 191h509q139 0 181 39q43 40 43 216q0 145 -49 187q-50 42 -275 42h-409 v-484zM376 862h503q58 0 96 7t60 30.5t31 68.5t9 122q0 68 -10 111t-30 60q-43 34 -226 34h-433v-433z" />
<glyph unicode="C" horiz-adv-x="1399" d="M129 498v491q0 144 26 242.5t85.5 159t155 87.5t235.5 27h170q139 0 235 -24t155.5 -76t86 -134t26.5 -198v-83h-205v60q0 79 -13 130t-47.5 81t-95 42t-154.5 12h-112q-64 0 -107.5 -3t-74.5 -10.5t-53 -20t-42 -31.5t-33 -38.5t-20.5 -51t-10 -81.5t-2.5 -130v-412 q0 -76 2.5 -125t10 -81.5t20 -53.5t33.5 -41q18 -18 37 -30.5t49 -20t75 -10.5t116 -3h112q96 0 156.5 12t95.5 44t48 87.5t13 142.5q0 27 -1 51.5t-2 37.5h205v-115q0 -250 -112 -350h1q-109 -100 -392 -100h-170q-140 0 -235.5 27t-155 87.5t-85.5 159t-26 242.5z" />
<glyph unicode="D" horiz-adv-x="1536" d="M177 0v1487h719q141 0 238.5 -27t158.5 -86.5t88 -155.5t27 -234v-478q0 -138 -27.5 -234.5t-88 -157t-158 -87.5t-238.5 -27h-719zM376 182h494q103 0 167.5 15t101 51.5t50 98.5t13.5 157v468q0 103 -17 168.5t-49 98.5q-65 66 -266 66h-494v-1123z" />
<glyph unicode="E" horiz-adv-x="1309" d="M175 0v1487h1055v-192h-857v-435h833v-187h-833v-482h857v-191h-1055z" />
<glyph unicode="F" horiz-adv-x="1214" d="M173 0v1487h944v-192h-745v-435h722v-187h-722v-673h-199z" />
<glyph unicode="G" horiz-adv-x="1503" d="M121 498v491q0 144 28 242.5t92 159t167.5 87.5t253.5 27h183q278 0 409.5 -96t131.5 -298v-81h-204v37q0 72 -15.5 119.5t-54.5 76t-106 40.5t-170 12h-128q-77 0 -127.5 -3.5t-84.5 -11t-56.5 -20.5t-43.5 -32q-19 -17 -32.5 -37.5t-21.5 -49.5v1q-7 -29 -11 -82 t-4 -131v-412q0 -78 4 -130t11 -81v1q18 -61 59.5 -93t95.5 -46q57 -16 211 -16h128q69 0 114.5 3t76.5 9.5t51.5 18t39.5 29.5q18 17 30.5 36t20 49t10.5 74.5t3 112.5v70h-402v186h606v-262q0 -144 -27.5 -242.5t-91 -159t-167 -87.5t-255.5 -27h-183q-152 0 -255.5 27 t-167 87.5t-91 159t-27.5 242.5z" />
<glyph unicode="H" horiz-adv-x="1546" d="M177 0v1487h198v-625h796v625h198v-1487h-198v671h-796v-671h-198z" />
<glyph unicode="I" horiz-adv-x="526" d="M163 0v1487h200v-1487h-200z" />
<glyph unicode="J" horiz-adv-x="1208" d="M41 498v49h200v-43q0 -112 12.5 -179.5t35.5 -96.5q45 -56 198 -56h115q154 0 199 56q23 29 35.5 96.5t12.5 179.5v983h199v-1031q0 -126 -24 -215.5t-76 -147t-134 -84.5t-198 -27h-143q-120 0 -202.5 26.5t-133.5 87t-73.5 159t-22.5 243.5z" />
<glyph unicode="K" horiz-adv-x="1370" d="M177 0v1487h199v-613h96q149 154 294.5 306.5t293.5 306.5h264l-686 -711q93 -93 190.5 -191t196.5 -197t196.5 -197t189.5 -191h-274l-665 679h-96v-679h-199z" />
<glyph unicode="L" horiz-adv-x="1223" d="M174 0v1487h197v-1296h821v-191h-1018z" />
<glyph unicode="M" horiz-adv-x="1919" d="M182 0v1487h296l483 -1255q120 315 239 628t239 627h298v-1487h-198v1226q-118 -309 -234 -613.5t-233 -612.5h-225l-467 1225v-1225h-198z" />
<glyph unicode="N" horiz-adv-x="1587" d="M177 0v1487h277l755 -1243v1243h199v-1487h-277l-755 1245v-1245h-199z" />
<glyph unicode="O" horiz-adv-x="1526" d="M131 498v491q0 144 28 242.5t92 159t167.5 87.5t254.5 27h182q303 0 423 -114v1q119 -114 119 -403v-491q0 -143 -27.5 -241.5t-91 -159.5t-167.5 -88t-256 -27h-182q-152 0 -256 27t-167.5 87.5t-91 159t-27.5 242.5zM335 537q0 -72 3.5 -121t11.5 -82t22 -55t34 -40 q22 -20 45.5 -33t57.5 -20.5t84 -10.5t125 -3h90q76 0 127 3t85.5 10.5t57.5 20.5t44 33q21 18 34 38t21 52.5t11 82t3 125.5v412q0 77 -3.5 127t-12 83t-22 53t-33.5 38q-21 18 -43.5 30.5t-56.5 20t-85 11t-127 3.5h-90q-77 0 -126.5 -3.5t-83.5 -11t-56.5 -20.5 t-45.5 -32q-20 -17 -34 -38.5t-22 -54.5t-11.5 -83t-3.5 -124v-411z" />
<glyph unicode="P" horiz-adv-x="1341" d="M175 0v1487h629q128 0 214 -18.5t138 -60.5t74 -108.5t22 -162.5v-219q0 -200 -99 -279h1q-98 -77 -350 -77h-431v-562h-198zM373 754h430q77 0 124.5 7.5t74 26.5t35.5 50.5t9 79.5v213q0 47 -8 78.5t-34 50.5t-74 27t-127 8h-430v-541z" />
<glyph unicode="Q" horiz-adv-x="1526" d="M131 498v491q0 143 28 241.5t91.5 159.5t167 88t255.5 27h183q302 0 422 -114v1q120 -114 120 -403v-491q0 -63 -3.5 -112t-11.5 -87.5t-21 -68t-32 -52.5l89 -88l-133 -136l-93 94q-22 -19 -49.5 -31.5t-66.5 -20t-92.5 -11t-128.5 -3.5h-183q-153 0 -257 27.5 t-167.5 88.5t-90.5 159.5t-27 240.5zM335 537q0 -72 3.5 -120.5t11.5 -82t22 -55.5t34 -40q23 -19 45.5 -32t56 -20.5t83.5 -11t128 -3.5h125q88 0 138.5 3.5t75.5 9.5q-66 64 -135 133.5t-132 132.5l129 132l263 -259q4 38 6 83.5t2 96.5v445q0 78 -3.5 128.5t-12 83.5 t-22 52.5t-33.5 36.5q-21 18 -43.5 30.5t-56.5 20t-84.5 11t-127.5 3.5h-89q-77 0 -126.5 -3t-83 -10.5t-56.5 -20.5t-47 -33q-20 -17 -33.5 -37.5t-22 -53.5t-12 -83t-3.5 -126v-411z" />
<glyph unicode="R" horiz-adv-x="1432" d="M176 0v1487h673q128 0 214 -18.5t137.5 -60.5t73.5 -108.5t22 -162.5v-219q0 -201 -140 -260q37 -17 63.5 -40t43.5 -57t25 -81t8 -112v-368h-206v318q0 75 -9.5 123t-34.5 75.5t-68 37.5t-110 10h-494v-564h-198zM374 754h443q88 0 142 9t83 31t38.5 57.5t9.5 88.5v169 q0 53 -9 88.5t-38 57.5t-82.5 31t-143.5 9h-443v-541z" />
<glyph unicode="S" horiz-adv-x="1460" d="M136 420v91h200v-47q0 -88 8 -141t27.5 -83t53 -43t85.5 -19q38 -5 112.5 -6.5t186.5 -1.5q118 0 183 15t95 48q16 17 23.5 60t7.5 119t-6 120.5t-21.5 68.5t-43.5 32t-73 11l-446 35q-105 8 -176 33t-114.5 72.5t-62.5 121t-19 178.5q0 177 58 277.5t187 126.5 q40 8 109.5 12.5t172.5 4.5h52q117 0 194.5 -5t129.5 -17t86.5 -31t67.5 -47q44 -38 66.5 -107t22.5 -169q0 -28 -1 -52.5t-2 -36.5h-199v55q0 68 -6 107t-21 59.5t-40.5 28t-63.5 13.5q-77 12 -290 12q-219 0 -268 -45q-26 -23 -38.5 -71t-12.5 -117q0 -60 8.5 -99.5 t24.5 -61.5v1q17 -20 49 -32.5t83 -15.5l455 -38q95 -8 160 -33.5t105 -73t57.5 -119t17.5 -170.5q0 -75 -5 -128.5t-15 -93t-26 -68.5t-38 -56q-30 -33 -63 -54.5t-85 -34.5t-131.5 -18.5t-201.5 -5.5h-72q-103 0 -172.5 4.5t-118 15.5t-82 29.5t-63.5 46.5h1 q-58 49 -85 131.5t-27 211.5z" />
<glyph unicode="T" horiz-adv-x="1069" d="M-27 1295v192h1123v-192h-463v-1295h-199v1295h-461z" />
<glyph unicode="U" horiz-adv-x="1532" d="M163 498v989h200v-969q0 -135 14 -191v1q8 -25 19.5 -45t28.5 -36h-1q19 -17 37 -28t46 -18t71 -9.5t112 -2.5h152q68 0 110.5 2.5t70 9t47 18t40.5 28.5h-1q18 16 29.5 34.5t18.5 48t9.5 74.5t2.5 114v969h200v-989q0 -143 -27 -241t-87.5 -159.5t-159 -88.5t-241.5 -27 h-176q-144 0 -242.5 27t-159 88t-87 159.5t-26.5 241.5z" />
<glyph unicode="V" horiz-adv-x="1331" d="M-9 1487h214l448 -1259q112 317 225 630t225 629h213l-545 -1487h-235z" />
<glyph unicode="W" horiz-adv-x="2062" d="M62 1487h205l317 -1197q79 304 159 600t159 597h256l321 -1197q78 301 158 599.5t158 597.5h207l-406 -1487h-234l-332 1220q-81 -308 -163 -610.5t-163 -609.5h-242z" />
<glyph unicode="X" horiz-adv-x="1305" d="M-35 0l582 780q-63 85 -129.5 174.5t-133.5 179.5t-133.5 179t-129.5 174h233l399 -554q97 139 197 277.5t200 276.5h236l-527 -705q139 -190 287.5 -391t291.5 -391h-231l-452 631q-115 -160 -229 -316t-229 -315h-232z" />
<glyph unicode="Y" horiz-adv-x="1219" d="M-108 1487h237l479 -661q121 167 241 331.5t238 329.5h238l-618 -830v-657h-196v654q-75 100 -153.5 205t-157 211.5t-156.5 211.5t-152 205z" />
<glyph unicode="Z" horiz-adv-x="1331" d="M92 0v199l909 1106h-867v182h1097v-195l-904 -1101h904v-191h-1139z" />
<glyph unicode="[" horiz-adv-x="664" d="M138 0v1487h454v-192h-260v-1102h260v-193h-454z" />
<glyph unicode="\" horiz-adv-x="545" d="M-66 1505h178l526 -1690h-177z" />
<glyph unicode="]" horiz-adv-x="664" d="M72 0v193h259v1102h-259v192h454v-1487h-454z" />
<glyph unicode="^" horiz-adv-x="2048" d="M393 877l555 580h152l552 -580h-191l-437 434q-109 -109 -219.5 -217t-219.5 -217h-192z" />
<glyph unicode="_" d="M-6 -334h1036v-136h-1036v136z" />
<glyph unicode="`" d="M241 1523h198l227 -377h-133z" />
<glyph unicode="a" horiz-adv-x="1157" d="M104 330q0 112 20 179.5t68 104t128 48.5t199 12q118 0 190 -16.5t114 -51.5v127q0 61 -9 96.5t-37.5 54t-82.5 24t-145 5.5q-64 0 -105.5 -4t-66.5 -19t-35 -43t-11 -76h-189v43q0 70 21.5 120t68.5 82t123 46.5t185 14.5q84 0 146.5 -3t108 -10t77 -19t52.5 -29 q25 -20 42 -41t27.5 -51t15 -75t4.5 -113v-736h-176v71q-46 -45 -119.5 -65t-190.5 -20q-126 0 -207.5 17t-129.5 57t-67 106t-19 164zM301 348q0 -57 10 -92.5t37.5 -55.5t75.5 -27t123 -7q136 0 206 29.5t70 84.5v108q0 63 -69.5 92.5t-222.5 29.5q-67 0 -111.5 -6 t-70.5 -23.5t-37 -49.5t-11 -83z" />
<glyph unicode="b" horiz-adv-x="1176" d="M157 0v1487h189v-522q48 54 121 83t179 29q116 0 196 -23.5t129.5 -74.5t71 -131.5t21.5 -194.5v-243q0 -115 -22 -195.5t-71.5 -131.5t-129.5 -74t-195 -23q-114 0 -187 27t-118 90v-103h-184zM346 448q0 -150 70 -218t224 -68q139 0 183 47q45 48 45 235v175 q0 93 -9.5 149t-35 85.5t-70 38.5t-113.5 9q-154 0 -224 -68t-70 -218v-167z" />
<glyph unicode="c" horiz-adv-x="1157" d="M112 410v243q0 118 23 199.5t74 131t133 71.5t200 22h71q111 0 192 -21.5t133.5 -69t78.5 -122.5t28 -182l-195 -1q-2 68 -13 110.5t-37 66.5t-71.5 32.5t-115.5 8.5h-71q-147 0 -191 -47q-42 -45 -42 -233v-175q0 -189 43 -235q44 -47 190 -47h71q71 0 117 9.5 t72.5 34.5t36.5 67t10 107v37h196v-39q0 -105 -24.5 -179t-76.5 -121.5t-133.5 -69.5t-195.5 -22h-71q-119 0 -201 22t-133.5 72t-74.5 131t-23 199z" />
<glyph unicode="d" horiz-adv-x="1176" d="M112 410v243q0 115 22.5 195.5t73 131.5t130 74t193.5 23q109 0 178.5 -28t119.5 -84v522h190v-1487h-185v101q-45 -58 -118 -86.5t-185 -28.5q-114 0 -194 23.5t-130 74.5t-72.5 131.5t-22.5 194.5zM308 444q0 -185 44 -235v1q43 -48 184 -48q153 0 223 68t70 218v167 q0 150 -70 218t-223 68q-141 0 -184 -48v1q-44 -50 -44 -235v-175z" />
<glyph unicode="e" horiz-adv-x="1157" d="M112 410v243q0 118 23 199.5t74 131t133 71.5t200 22h71q120 0 202.5 -22.5t133.5 -73t73.5 -131t22.5 -197.5v-174l-737 -1q-1 -6 -1 -14v-54q0 -77 9 -125t35 -75.5t71.5 -37.5t119.5 -10h71q66 0 109 7.5t69.5 27t39 54t17.5 89.5h196q-7 -97 -34 -164.5t-78.5 -109.5 t-129.5 -61t-187 -19h-71q-119 0 -201 22t-133.5 72t-74.5 131t-23 199zM309 651h540v20q0 70 -10 114t-36 69.5t-72 35t-118 9.5h-71q-70 0 -115 -9t-71.5 -34t-36.5 -69.5t-10 -115.5v-20z" />
<glyph unicode="f" horiz-adv-x="688" d="M36 895v168l143 1q0 9 -0.5 21t-0.5 28q0 99 17 170t55 116.5t100.5 66.5t153.5 21q85 0 189 -9v-180q-24 6 -30 6h-7q-34 0 -66 1.5t-44 1.5q-57 0 -92 -8t-52 -24q-32 -29 -32 -162v-50h323v-168h-323v-895h-190v895h-144z" />
<glyph unicode="g" horiz-adv-x="1204" d="M141 -39h193q6 -56 19.5 -90t39 -53t66.5 -25.5t103 -6.5h68q62 0 105.5 9.5t71.5 29.5t40.5 52t12.5 76v145q-48 -54 -121 -83t-179 -29q-115 0 -194.5 23t-129 74t-71.5 131.5t-22 195.5v243q0 115 22 195.5t71.5 131.5t129 74t194.5 23q112 0 186 -28t119 -91v105h184 v-1032q0 -117 -22 -197.5t-72 -131t-130 -72.5t-195 -22h-70q-104 0 -179.5 18t-126.5 59.5t-78.5 109t-34.5 166.5zM336 444q0 -186 45 -234t185 -48q154 0 224 68t70 218v167q0 150 -70 218t-224 68q-139 0 -185 -49q-45 -48 -45 -233v-175z" />
<glyph unicode="h" horiz-adv-x="1180" d="M154 0v1487h184v-516q90 106 315 106q106 0 179 -21t118.5 -67t65.5 -119.5t20 -178.5v-691h-191v659q0 75 -8.5 122t-32 73.5t-64.5 36.5t-106 10q-150 0 -220 -68.5t-70 -217.5v-615h-190z" />
<glyph unicode="i" horiz-adv-x="479" d="M145 0v1063h189v-1063h-189zM145 1277v210h189v-210h-189z" />
<glyph unicode="j" horiz-adv-x="508" d="M47 -228h72q15 0 25 5t17 23t10 53.5t3 97.5v1112h192v-1193q0 -262 -227 -262q-17 0 -40 2t-51 6zM174 1277v210h192v-210h-192z" />
<glyph unicode="k" horiz-adv-x="991" d="M154 0v1487h189v-823h19q82 100 167.5 199.5t167.5 199.5h223l-403 -475q57 -70 117.5 -144.5t122 -150t122 -150t117.5 -143.5h-243l-392 486h-18v-486h-189z" />
<glyph unicode="l" horiz-adv-x="479" d="M145 0v1487h189v-1487h-189z" />
<glyph unicode="m" horiz-adv-x="1810" d="M185 0v1063h186v-87q86 101 287 101q124 0 199 -35t117 -110q47 78 120.5 111.5t187.5 33.5q105 0 177 -20t116.5 -65.5t63.5 -119.5t19 -181v-691h-190v643q0 79 -8 129.5t-30 79t-60.5 39t-99.5 10.5q-132 0 -192 -68t-60 -218v-615h-186v713q0 60 -9.5 96.5t-31.5 57 t-59.5 27.5t-92.5 7q-136 0 -200 -69.5t-64 -216.5v-615h-190z" />
<glyph unicode="n" horiz-adv-x="1180" d="M154 0v1063h184v-92q90 106 315 106q106 0 179 -21t118.5 -67t65.5 -119.5t20 -178.5v-691h-191v659q0 75 -8.5 122t-32 73.5t-64.5 36.5t-106 10q-150 0 -220 -69t-70 -217v-615h-190z" />
<glyph unicode="o" horiz-adv-x="1157" d="M112 410v243q0 118 23 199.5t74 131t133 71.5t200 22h71q120 0 202.5 -22.5t133.5 -73t73.5 -131t22.5 -197.5v-243q0 -118 -23 -199t-74 -131t-133 -72t-200 -22h-71q-119 0 -201 22t-133.5 72t-74.5 131t-23 199zM309 444q0 -189 43 -235q44 -47 190 -47h71 q147 0 192 48q44 47 44 234v175q0 185 -44 232q-45 48 -192 48h-71q-147 0 -191 -47q-42 -45 -42 -233v-175z" />
<glyph unicode="p" horiz-adv-x="1176" d="M157 -392v1455h184v-105q45 63 119 91t186 28q116 0 196 -23.5t129.5 -74.5t71 -131.5t21.5 -194.5v-243q0 -115 -22 -195.5t-71.5 -131.5t-129.5 -74t-195 -23q-106 0 -179 29t-121 83v-490h-189zM346 448q0 -150 70 -218t224 -68q139 0 183 47q45 48 45 235v175 q0 93 -9.5 149t-35 85.5t-70 38.5t-113.5 9q-154 0 -224 -68t-70 -218v-167z" />
<glyph unicode="q" horiz-adv-x="1176" d="M112 410v243q0 115 22.5 195.5t73 131.5t130 74t193.5 23t186.5 -27t116.5 -91v104h185v-1455h-190v490q-47 -59 -117 -85.5t-181 -26.5q-114 0 -194 23.5t-130 74.5t-72.5 131.5t-22.5 194.5zM308 444q0 -185 44 -235v1q43 -48 184 -48q153 0 223 68t70 218v167 q0 150 -70 218t-223 68q-141 0 -184 -48v1q-44 -50 -44 -235v-175z" />
<glyph unicode="r" horiz-adv-x="958" d="M151 0v1063h186v-85q39 54 102 76.5t159 22.5q88 0 149.5 -21t99.5 -67t55.5 -119.5t17.5 -178.5v-28h-191v50q0 58 -7.5 94.5t-26.5 57.5t-51.5 28.5t-81.5 7.5q-58 0 -99.5 -16t-68.5 -50.5t-39.5 -89t-12.5 -130.5v-615h-191z" />
<glyph unicode="s" horiz-adv-x="1194" d="M116 297v46h193v-42q0 -84 49 -114h-1q53 -32 225 -32q190 0 231 32q38 30 38 123q0 92 -32 119q-14 11 -37 18.5t-61 12t-93.5 7t-132.5 5.5q-106 4 -168.5 10.5t-84.5 20.5v-1q-32 17 -54.5 40.5t-36.5 55.5t-20.5 73.5t-6.5 95.5q0 180 95 246q91 64 392 64 q236 0 321 -61h-1q91 -63 91 -237h-191v29q0 29 -11.5 48.5t-42 31t-83.5 16.5t-136 5q-78 0 -125.5 -4.5t-74 -19.5t-35.5 -43t-9 -75q0 -50 6 -73.5t25 -31.5v1q21 -13 77.5 -20.5t144.5 -7.5q143 0 226.5 -12.5t118.5 -26.5q38 -19 64.5 -43.5t42.5 -57.5t23 -76t7 -99 q0 -59 -7 -102.5t-23 -77.5t-42.5 -60.5t-65.5 -50.5q-35 -22 -113.5 -32.5t-213.5 -10.5q-279 0 -373 67q-95 68 -95 244z" />
<glyph unicode="t" horiz-adv-x="1010" d="M49 895v168h125v231h191v-231h502v-168h-502v-545q0 -115 34 -152v1q34 -37 136 -37q53 0 86 8.5t51 29.5t24.5 57.5t6.5 92.5v50h192v-28q0 -112 -17 -186.5t-60.5 -118.5t-118.5 -62.5t-192 -18.5q-93 0 -156.5 20t-103 65.5t-56.5 119t-17 181.5v523h-125z" />
<glyph unicode="u" horiz-adv-x="1180" d="M144 372v691h190v-659q0 -75 9 -122.5t32.5 -74t65 -36t107.5 -9.5q150 0 218.5 68.5t68.5 217.5v615h193v-1063h-185v91q-46 -55 -124 -80t-193 -25q-105 0 -178 21t-118.5 67t-65.5 119.5t-20 178.5z" />
<glyph unicode="v" horiz-adv-x="967" d="M-1 1063h194l290 -839q72 211 145.5 419.5t145.5 419.5h189l-366 -1063h-225z" />
<glyph unicode="w" horiz-adv-x="1597" d="M54 1063h182l220 -826q55 209 110.5 414.5t109.5 411.5h239l223 -826q54 209 110 414.5t110 411.5h185l-288 -1063h-238l-221 825q-57 -208 -112 -413.5t-112 -411.5h-234z" />
<glyph unicode="x" horiz-adv-x="1036" d="M10 0l402 567q-42 59 -86.5 122t-89.5 126.5t-89.5 126t-86.5 121.5h220l236 -343q58 85 118.5 171.5t117.5 171.5h219l-348 -495q48 -67 99 -139t102.5 -145t102.5 -145t99 -139h-219l-291 417q-70 -103 -142 -208.5t-142 -208.5h-222z" />
<glyph unicode="y" horiz-adv-x="999" d="M32 1063h194l290 -839q72 212 144.5 420t144.5 419h191l-395 -1140q-33 -94 -65.5 -156t-70.5 -99t-83.5 -52t-104.5 -15q-18 0 -42 2.5t-58 7.5l1 171q14 -2 30 -3t36 -1q31 0 55 6.5t43 23t34 43.5t30 69l28 80h-31z" />
<glyph unicode="z" horiz-adv-x="1057" d="M111 0v192l610 692h-580v179h828v-168l-632 -719h632v-176h-858z" />
<glyph unicode="{" d="M164 464v145q22 0 40 -1t23 -1q63 0 106 13t70 42.5t38.5 78t11.5 119.5v235q0 114 17 188t57 116.5t106.5 59.5t165.5 17h65v-143h-55q-59 0 -97 -8.5t-60.5 -33.5t-31.5 -69.5t-9 -116.5v-235q0 -76 -9 -131.5t-27.5 -95t-47.5 -65.5t-69 -43q42 -19 71 -45t47.5 -65 t26.5 -94t8 -131v-234q0 -72 8.5 -116.5t29.5 -69.5t58 -33.5t94 -8.5q6 0 26 1t37 1v-143h-65q-99 0 -165.5 16.5t-106.5 59t-57 116t-17 187.5v237q0 71 -11.5 119.5t-38 78t-69.5 42.5t-107 13q-6 0 -26 -1t-37 -1z" />
<glyph unicode="|" d="M441 -470v2031h144v-2031h-144z" />
<glyph unicode="}" d="M162 -260h57q62 0 100.5 9.5t59.5 34.5t28.5 69t7.5 113v234q0 80 8 135t26 93t47.5 62.5t72.5 44.5q-44 20 -73.5 45t-47.5 63.5t-25.5 93t-7.5 133.5v235q0 73 -8.5 118.5t-30 70t-58 33t-93.5 8.5q-6 0 -26 -1t-37 -1v143h65q98 0 164.5 -16.5t107 -59.5t57.5 -116.5 t17 -188.5v-235q0 -71 11.5 -119.5t38.5 -78t70 -42.5t106 -13q6 0 26 1t37 1v-145q-23 0 -40.5 1t-22.5 1q-64 0 -107.5 -13t-69.5 -43t-37.5 -78.5t-11.5 -118.5v-237q0 -225 -74 -302h1q-72 -77 -273 -77h-65v143z" />
<glyph unicode="~" horiz-adv-x="1706" d="M177 441v156q112 78 208.5 114.5t187.5 36.5q54 0 120 -14.5t151 -45.5q7 -4 14 -6l6 -2q94 -31 158.5 -49t112.5 -18q39 0 82 10t91.5 31t103.5 54t119 79v-158q-106 -75 -204 -111.5t-192 -36.5q-51 0 -115 13.5t-145 42.5q-12 7 -25 10l1 -1l-19 7q-81 29 -147.5 45 t-111.5 16q-39 0 -81.5 -10t-90.5 -31.5t-103.5 -54t-120.5 -77.5z" />
<glyph unicode="&#xa4;" horiz-adv-x="1384" d="M29 520l53 158h131v137h-184l52 159h132v15q0 144 26 242.5t85.5 159t155 87.5t235.5 27h87q452 0 452 -465h-204q0 80 -13 133.5t-44.5 85.5t-84.5 45t-132 13h-101q-75 0 -124.5 -13t-79.5 -47t-42 -93.5t-12 -151.5v-38h659l-52 -159h-607v-137h564l-53 -158h-511v-54 q0 -87 12 -144t42 -91t79.5 -47.5t124.5 -13.5h101q153 0 213 57q61 58 61 270h204q0 -141 -27.5 -239.5t-83.5 -159.5t-141 -88.5t-200 -27.5h-87q-140 0 -235.5 27t-155 87.5t-85.5 159t-26 242.5v22h-184z" />
<glyph unicode="&#xa6;" d="M441 -340v776h144v-776h-144zM441 656v776h144v-776h-144z" />
<glyph unicode="&#xa7;" horiz-adv-x="1118" d="M57 769q0 85 46 145.5t134 89.5q-55 32 -78.5 84t-23.5 139q0 157 88 218h-1q43 31 122 45.5t197 14.5q103 0 175.5 -14t118 -44t66 -76.5t20.5 -111.5v-65h-192v42q0 28 -8 46t-30 28.5t-61 14.5t-101 4q-67 0 -106 -3.5t-59.5 -13t-26.5 -27.5t-6 -47q0 -42 19 -65 t61 -38q106 -34 217.5 -70t217.5 -71q215 -71 215 -256q0 -40 -12 -76.5t-35.5 -67t-56.5 -53t-75 -34.5q23 -17 39.5 -37.5t27.5 -48.5t16.5 -64.5t5.5 -84.5q0 -80 -19 -135t-65.5 -89.5t-125.5 -50t-200 -15.5q-122 0 -203.5 13.5t-130 43t-68.5 77t-20 115.5v87h192v-67 q0 -30 10 -48t35 -28t68 -13t109 -3q71 0 114.5 4t67.5 16t32 33.5t8 57.5q0 48 -17 72.5t-59 36.5l-363 118q-77 25 -130 52t-86 59.5t-48 71.5t-15 89zM252 801q0 -42 34.5 -73.5t107.5 -54.5l283 -91q94 18 141.5 52t47.5 79q0 42 -33.5 71.5t-108.5 53.5l-283 93 q-94 -17 -141.5 -51t-47.5 -79z" />
<glyph unicode="&#xa9;" horiz-adv-x="1706" d="M121 723q0 146 55.5 279t163.5 242q103 105 232.5 157.5t279.5 53.5q99 0 192 -26t174.5 -73t149 -113.5t116 -148t75 -175.5t26.5 -196q0 -153 -53 -282t-159 -232q-109 -106 -241 -162.5t-280 -56.5t-279 55.5t-237 161.5t-160.5 236.5t-54.5 279.5zM238 723 q0 -83 22.5 -161t63 -146t97 -124.5t124.5 -97t146 -63t161 -22.5q80 0 157 20.5t145.5 59t126 93t99 123t65 149t23.5 169.5q0 86 -22.5 165.5t-63 147.5t-97 124t-125 96t-146.5 61.5t-162 21.5q-87 0 -166.5 -23t-147.5 -64.5t-123.5 -99t-94.5 -126t-60.5 -145.5 t-21.5 -158zM460 727q0 102 28.5 186t81 144t126.5 93t164 33q69 0 128.5 -19.5t104.5 -57t73.5 -92t35.5 -124.5h-151q-17 78 -68.5 121t-126.5 43q-112 0 -172 -86.5t-60 -246.5q0 -73 15 -133t44.5 -102.5t72.5 -66t100 -23.5q81 0 136 49t70 134h150q-7 -75 -36.5 -134 t-77 -99.5t-111 -61.5t-137.5 -21q-90 0 -162 32t-122.5 92t-78 146t-27.5 194z" />
<glyph unicode="&#xab;" horiz-adv-x="981" d="M84 531l254 325h217l-257 -325l257 -324h-217zM426 531l253 325h217l-257 -325l257 -324h-217z" />
<glyph unicode="&#xac;" horiz-adv-x="1706" d="M251 737v137h1204v-528h-132v391h-1072z" />
<glyph unicode="&#xad;" horiz-adv-x="825" d="M121 472v175h583v-175h-583z" />
<glyph unicode="&#xae;" horiz-adv-x="1706" d="M121 723q0 145 55.5 278.5t163.5 242.5q103 105 232 157.5t280 53.5q101 0 195 -26t175.5 -73.5t148.5 -114.5t114.5 -148.5t73.5 -175t26 -194.5q0 -153 -53 -282t-159 -232q-109 -106 -241 -162.5t-280 -56.5q-150 0 -280 55.5t-236 161.5t-160.5 236.5t-54.5 279.5z M238 723q0 -83 22.5 -161t63 -146t97 -124.5t124.5 -97t146 -63t161 -22.5q120 0 231 45.5t196.5 127t137 193.5t51.5 246q0 132 -49 245t-133 196t-196 130t-238 47q-124 0 -232.5 -44.5t-196.5 -132.5q-93 -93 -139 -204.5t-46 -234.5zM553 305v859h320q184 0 271.5 -59.5 t87.5 -186.5q0 -42 -13 -79.5t-37 -67.5t-58 -52t-76 -32q22 -45 46 -94t48 -98.5t47 -98t44 -91.5h-184l-174 360h-159v-360h-163zM716 786h134q123 0 173 29h-1q44 29 44 95q0 71 -50.5 101.5t-165.5 30.5h-134v-256z" />
<glyph unicode="&#xaf;" d="M243 1243v153h538v-153h-538z" />
<glyph unicode="&#xb0;" horiz-adv-x="674" d="M47 1162q0 60 23 112.5t63 92t93 62t112 22.5q60 0 112.5 -23.5t91.5 -63.5t61.5 -92t22.5 -110q0 -59 -23 -112t-62.5 -93t-92 -63t-112.5 -23q-63 0 -116 23.5t-91.5 63t-60 92.5t-21.5 112zM154 1162q0 -39 14.5 -72t39.5 -57.5t58.5 -38.5t71.5 -14t71.5 14t58 38.5 t38.5 58t14 71.5q0 36 -14 69t-38.5 58t-58 40t-71.5 15q-39 0 -72.5 -14.5t-58.5 -39.5t-39 -58t-14 -70z" />
<glyph unicode="&#xb1;" horiz-adv-x="1706" d="M251 50v135h1204v-135h-1204zM251 703v135h536v338h134v-338h534v-135h-534v-338h-134v338h-536z" />
<glyph unicode="&#xb4;" d="M358 1146l227 377h198l-292 -377h-133z" />
<glyph unicode="&#xb6;" d="M76 1119q0 80 29 146t82 113.5t127 73.5t164 26h470v-107h-124v-1371h-118v1371h-142v-1371h-121v762q-86 6 -154 34.5t-115.5 75t-72.5 109.5t-25 138z" />
<glyph unicode="&#xb7;" horiz-adv-x="692" d="M211 793q0 27 11 51.5t29.5 43t43 29t51.5 10.5t51.5 -10.5t43 -29t29.5 -43t11 -51.5t-10.5 -51t-28.5 -42t-43 -29t-53 -11q-29 0 -53.5 11t-42.5 29t-28.5 42t-10.5 51z" />
<glyph unicode="&#xbb;" horiz-adv-x="981" d="M85 207l256 324q-30 37 -63 78.5t-66 84t-65.5 84t-61.5 78.5h217l253 -325l-253 -324h-217zM428 207l254 324q-29 37 -62 79t-66 84.5t-65.5 84t-60.5 77.5h215l254 -325l-254 -324h-215z" />
<glyph unicode="&#xf7;" horiz-adv-x="1706" d="M251 546v134h1204v-134h-1204zM731 270q0 26 9.5 48.5t26.5 39.5t39 26.5t48 9.5t48.5 -9.5t39.5 -26t26.5 -39.5t9.5 -49t-9.5 -48t-26.5 -38.5t-39.5 -26t-48.5 -9.5t-48.5 9.5t-39 26t-26 38.5t-9.5 48zM731 956q0 27 10.5 50t28 39.5t39.5 26t45 9.5q24 0 46 -10 t39.5 -27t28 -40t10.5 -48q0 -26 -9.5 -48.5t-26.5 -39t-39.5 -26t-48.5 -9.5t-48.5 9.5t-39 26t-26 39t-9.5 48.5z" />
<glyph unicode="&#x2c6;" d="M210 1146l217 377h170l217 -377h-133l-169 241q-43 -61 -85 -120.5t-84 -120.5h-133z" />
<glyph unicode="&#x2c7;" d="M210 1523h133l169 -241q43 63 85 122t84 119h133l-217 -377h-170z" />
<glyph unicode="&#x2d8;" d="M225 1482h116q6 -75 46 -108.5t125 -33.5q84 0 123.5 33.5t46.5 108.5h117q-5 -77 -24 -132.5t-54.5 -91.5t-87 -53t-121.5 -17q-138 0 -207.5 70.5t-79.5 223.5z" />
<glyph unicode="&#x2d9;" d="M419 1215v208h186v-208h-186z" />
<glyph unicode="&#x2da;" d="M259 1346q0 53 19.5 99.5t53.5 81t80.5 54.5t99.5 20q51 0 97.5 -20t81.5 -54.5t55.5 -81t20.5 -99.5q0 -54 -20.5 -100.5t-55.5 -80t-81 -53t-98 -19.5q-53 0 -99.5 20t-80.5 54.5t-53.5 80.5t-19.5 98zM386 1346q0 -28 10 -51t27 -39.5t40 -26t49 -9.5q25 0 47.5 9.5 t40 26t28 40t10.5 50.5t-10 50.5t-27 40t-40 26t-49 9.5t-49 -9.5t-40 -26t-27 -39.5t-10 -51z" />
<glyph unicode="&#x2db;" d="M310 -287q0 60 48 123q36 48 75.5 101.5t75.5 101.5h109l-121 -204l1 1q-14 -26 -19.5 -40.5t-5.5 -25.5q0 -18 18 -18h121v-144h-175q-36 0 -60.5 5t-39.5 17.5t-21 32.5t-6 50z" />
<glyph unicode="&#x2dc;" d="M207 1203q26 106 80.5 160t133.5 54q28 0 53.5 -7.5t49.5 -16t47.5 -16t48.5 -7.5q52 0 80 70h119q-61 -214 -212 -214q-16 1 -33 2.5t-37 7.5l-92 28q-17 5 -26.5 7t-20.5 2q-21 0 -41.5 -18.5t-36.5 -51.5h-113z" />
<glyph unicode="&#x2dd;" d="M314 1146l162 377h176l-226 -377h-112zM541 1146l182 377h178l-246 -377h-114z" />
<glyph unicode="&#x3a9;" horiz-adv-x="1579" d="M116 0v174h298q-150 126 -222 276t-72 332q0 159 50 293t139 231t212.5 151t269.5 54q144 0 267 -53.5t212.5 -149.5t140 -230t50.5 -294q0 -184 -72 -332.5t-224 -277.5h298v-174h-604v154q205 121 306.5 281.5t101.5 357.5q0 123 -35.5 223.5t-98.5 172t-150.5 111 t-191.5 39.5q-106 0 -194 -39.5t-151.5 -111t-98.5 -172t-35 -221.5q0 -400 408 -641v-154h-604z" />
<glyph unicode="&#x3c0;" horiz-adv-x="1171" d="M-12 791q15 86 37.5 141t59 87t90 44t131.5 12h850l-35 -157h-176q-12 -57 -27 -124t-30.5 -136t-30 -136.5t-26 -125t-18.5 -101.5t-7 -66q0 -46 20 -65t68 -19q26 0 55 4.5t60 10.5l-33 -156q-34 -11 -63.5 -15.5t-52.5 -4.5q-109 0 -168 56.5t-59 159.5q0 27 2 54.5 t8 65.5t17 92t28 134q20 91 39.5 184.5t39.5 187.5h-315q-48 -229 -96.5 -458.5t-96.5 -459.5h-176l193 918h-13q-45 0 -70.5 -30.5t-36.5 -96.5h-168z" />
<glyph unicode="&#x10a0;" horiz-adv-x="1150" d="M100 320l20 300h200l-20 -300q0 -170 145 -170h260q145 0 145 170v350q0 140 -145 140h-90q-270 0 -270 325h200q0 -150 68 -150h92q345 0 345 -315v-350q0 -345 -345 -345h-260q-345 0 -345 345z" />
<glyph unicode="&#x10a1;" horiz-adv-x="1150" d="M100 320v360q0 345 343 345h45l20 123q1 3 1 10v11q0 100 -96 115q-105 16 -105 216h231q1 -117 90 -152q38 -15 55 -53t17 -99q0 -11 -1 -23t-2 -25l-10 -123h25q337 0 337 -345v-360q0 -345 -345 -345h-260q-345 0 -345 345zM300 320q0 -169 145 -169h260 q145 0 145 169v360q0 170 -175 170h-230q-145 0 -145 -170v-360z" />
<glyph unicode="&#x10a2;" horiz-adv-x="1230" d="M100 -88v278q0 345 343 345h297v226q0 90 -115 90h-100q-125 0 -125 -87v-63h-200v84q0 240 250 240h256q234 0 234 -244v-267q190 -27 190 -324v-278q0 -345 -345 -345h-340q-345 0 -345 345zM300 -88q0 -169 145 -169h340q145 0 145 169v278q0 170 -145 170h-340 q-145 0 -145 -170v-278z" />
<glyph unicode="&#x10a3;" horiz-adv-x="1790" d="M100 352v328q0 345 345 345h155q150 0 240 -123q94 123 245 123h262q343 0 343 -345v-300q0 -345 -345 -345h-260q-345 0 -345 345v300q0 170 -165 170h-130q-145 0 -145 -170v-328q0 -201 362 -581l313 2q425 -2 425 -266h-200q0 89 -225 91h-747v175h195 q-323 371 -323 579zM940 380q0 -169 145 -169h260q145 0 145 169v300q0 170 -145 170h-260q-145 0 -145 -170v-300z" />
<glyph unicode="&#x10a4;" horiz-adv-x="1160" d="M100 -88l30 277h200l-30 -277q0 -169 145 -169h260q145 0 145 169v768q0 170 -145 170h-200q-145 0 -145 -170l10 -191h-200v191q-1 8 -1 15v14q0 158 84.5 237t249.5 79h202q345 0 345 -345v-768q0 -345 -345 -345h-260q-345 0 -345 345z" />
<glyph unicode="&#x10a5;" horiz-adv-x="1160" d="M100 -88l20 239h200l-20 -239q0 -169 145 -169h260q145 0 145 169v138q0 200 -135 200h-240v175h240q115 0 115 200v56q0 170 -145 170h-200q-145 0 -145 -200l10 -72h-200l-10 72q0 375 343 375h202q345 0 345 -345v-116q-30 -125 -131 -218q121 -93 151 -217v-218 q0 -345 -345 -345h-260q-345 0 -345 345z" />
<glyph unicode="&#x10a6;" horiz-adv-x="1240" d="M30 935v219q0 345 343 345h142q325 -10 335 -335v-110q-1 -5 -1 -9.5t-1 -9.5l-2 -18q294 -47 294 -327v-370q0 -345 -345 -345h-260q-345 0 -345 345v301q0 30 8 70q-168 82 -168 244zM230 935q0 -124 135 -124h170q115 0 115 193v160q0 160 -135 160h-140 q-145 0 -145 -170v-219zM390 320q0 -169 145 -169h260q145 0 145 169v370q0 126 -120 185q-14 -115 -99.5 -170t-245.5 -55h-85v-330z" />
<glyph unicode="&#x10a7;" horiz-adv-x="1820" d="M100 320v360q0 345 343 345h282q150 0 234 -123q114 123 234 123h182q345 0 345 -345v-360q0 -315 -394 -345l-1 176q195 30 195 169v360q0 170 -145 170h-180q-132 0 -153 -108q2 -15 4 -30.5t4 -31.5v-360q0 -345 -345 -345h-260q-345 0 -345 345zM300 320 q0 -169 145 -169h260q145 0 145 169v360q0 170 -145 170h-260q-145 0 -145 -170v-360z" />
<glyph unicode="&#x10a8;" horiz-adv-x="1150" d="M100 320v360q0 345 343 345h262q345 0 345 -345v-360q0 -296 -355 -345v186q155 24 155 159v360q0 170 -145 170h-260q-145 0 -145 -170v-360q0 -135 155 -159v-186q-355 49 -355 345z" />
<glyph unicode="&#x10a9;" horiz-adv-x="1160" d="M100 -88l30 258h200l-30 -258q0 -169 145 -169h260q145 0 145 169v168q0 170 -140 170h-225v175h230q115 0 115 170v126q-5 95 -170 129l75 175q266 -100 295 -284v-226q-30 -101 -140 -169q130 -94 160 -216v-218q0 -345 -345 -345h-260q-345 0 -345 345z" />
<glyph unicode="&#x10aa;" horiz-adv-x="2300" d="M100 350v330q0 345 343 345h162q150 0 245 -153q94 153 243 153h112q147 0 242 -150q94 150 248 150h162q343 0 343 -345v-288q0 -309 -355 -367v186q155 47 155 182v287q0 170 -145 170h-160q-145 0 -145 -160v-350h-200v350q0 160 -145 160h-110q-145 0 -145 -160v-350 h-200v350q0 160 -145 160h-160q-145 0 -145 -170v-330q0 -191 457 -579l548 2q435 1 435 -265h-200q0 90 -235 90l-1037 -2v175l207 1q-375 337 -375 578z" />
<glyph unicode="&#x10ab;" horiz-adv-x="1160" d="M100 320v360q0 345 343 345h262q71 0 145 -68v227q0 140 -135 140h-286q-105 0 -105 -150h-200q0 325 303 325h288q335 0 335 -315v-864q0 -345 -345 -345h-260q-345 0 -345 345zM300 320q0 -169 145 -169h260q145 0 145 169v340q0 171 -145 190h-260q-145 0 -145 -170 v-360z" />
<glyph unicode="&#x10ac;" horiz-adv-x="1160" d="M110 320v886q0 285 325 285l525 -1v-175l-525 1q-125 0 -125 -110v-248q73 67 143 67h262q345 0 345 -345v-360q0 -345 -345 -345h-260q-345 0 -345 345zM310 320q0 -169 145 -169h260q145 0 145 169v360q0 170 -145 170h-260q-145 -19 -145 -190v-340z" />
<glyph unicode="&#x10ad;" horiz-adv-x="1720" d="M100 320v360q0 345 343 345h172q150 0 245 -143q95 143 245 143h162q343 0 343 -345v-360q0 -315 -415 -345v176q215 30 215 169v360q0 170 -145 170h-160q-145 0 -145 -150v-300h-200v300q0 150 -145 150h-170q-145 0 -145 -170v-360q0 -139 215 -169v-176 q-415 30 -415 345z" />
<glyph unicode="&#x10ae;" horiz-adv-x="1160" d="M100 320l30 300h200l-30 -300q0 -169 145 -169h260q145 0 145 169v281q0 172 -135 172h-240v175h240q135 0 135 146v81q0 71 -175 71q-300 0 -300 255h200q0 -80 98 -80q378 0 378 -229v-100q0 -172 -175 -241q90 -43 132 -105.5t42 -144.5v-281q0 -345 -345 -345h-260 q-345 0 -345 345z" />
<glyph unicode="&#x10af;" horiz-adv-x="1160" d="M100 -88l20 227h200l-20 -227q0 -169 145 -169h260q145 0 145 169v938l-175 -11v-199q0 -315 -325 -315h-230v176h230q125 0 125 139v186l-255 -16v175h830v-1073q0 -345 -345 -345h-260q-345 0 -345 345z" />
<glyph unicode="&#x10b0;" horiz-adv-x="1710" d="M100 320v360q0 212 154 297q-54 76 -54 147v121q0 245 373 245h632v-175h-630q-175 0 -175 -70v-121q0 -99 185 -99q180 0 275 -143q95 143 245 143h162q343 0 343 -345v-360q0 -315 -375 -345v176q175 30 175 169v360q0 170 -145 170h-160q-145 0 -145 -160v-290h-200 v290q0 160 -145 160h-170q-145 0 -145 -170v-360q0 -139 175 -169v-176q-375 30 -375 345z" />
<glyph unicode="&#x10b1;" horiz-adv-x="1160" d="M110 310v1190h200v-1190q0 -159 175 -159h200q175 0 175 159v240q0 164 -83 169q-215 11 -215 375h200q0 -218 93 -219q205 -19 205 -325v-240q0 -335 -375 -335h-200q-375 0 -375 335z" />
<glyph unicode="&#x10b2;" horiz-adv-x="1363" d="M110 -87v737q0 345 343 345h133v210h180v-210h142q345 0 345 -345v-737q0 -345 -345 -345h-453q-345 0 -345 345zM310 -87q0 -169 145 -169h453q145 0 145 169v737q0 170 -145 170h-142v-635h-180v635h-131q-145 0 -145 -170v-737z" />
<glyph unicode="&#x10b3;" horiz-adv-x="1140" d="M80 -88l20 297h200l-20 -297q0 -169 145 -169h260q145 0 145 169v788q0 150 -80 150h-81q-87 0 -87 -140v-311h-200v311q0 140 -135 140h-165v175h165q129 0 224 -132q81 132 184 132h125q250 0 250 -275v-838q0 -345 -345 -345h-260q-345 0 -345 345z" />
<glyph unicode="&#x10b4;" horiz-adv-x="1810" d="M100 415v265q0 345 343 345h262q149 0 244 -123q94 123 244 123h162q345 0 345 -315v-210q0 -170 -159 -261q139 -93 139 -246v-80q0 -340 -375 -347h-475q-377 0 -377 295h200q0 -118 177 -118h475q175 1 175 140v140q0 72 -37 105t-112 34l-101 1v174l95 1 q175 1 175 132v240q0 140 -145 140h-160q-132 0 -153 -138q2 -15 4 -30.5t4 -31.5v-235q0 -345 -345 -345h-260q-345 0 -345 345zM300 415q0 -169 145 -169h260q145 0 145 169v265q0 170 -145 170h-260q-145 0 -145 -170v-265z" />
<glyph unicode="&#x10b5;" horiz-adv-x="1160" d="M100 -88l20 237h200l-20 -237q0 -169 145 -169h260q145 0 145 169v662q-8 276 -235 276h-140q-125 0 -125 -170l10 -201h-200v201q-1 8 -1 15v16q0 157 79.5 235.5t234.5 78.5h142q127 0 235 -78v553h200v-1588q0 -345 -345 -345h-260q-345 0 -345 345z" />
<glyph unicode="&#x10b6;" horiz-adv-x="1700" d="M100 370v310q0 345 343 345h162q150 0 245 -123q94 123 245 123h162q343 0 343 -345v-260q0 -324 -365 -395v176q165 70 165 219v260q0 170 -145 170h-160q-145 0 -145 -150v-300h-200v300q0 150 -145 150h-160q-145 0 -145 -170v-310q0 -237 397 -598l218 -1 q205 -1 305 -64.5t100 -199.5h-200q0 88 -205 89l-707 2v175h226q-334 349 -334 597z" />
<glyph unicode="&#x10b7;" horiz-adv-x="1160" d="M100 -88l10 117h200l-10 -117q0 -169 145 -169h260q145 0 145 169v333q-104 -62 -225 -62h-100q-395 0 -395 345v172q20 270 290 325l56 -178q-146 -30 -146 -210v-129q0 -149 195 -149h100q225 0 225 199v446h200v-1092q0 -345 -345 -345h-260q-345 0 -345 345z" />
<glyph unicode="&#x10b8;" horiz-adv-x="1160" d="M100 330v270q0 353 353 355l397 1v288q0 81 -105 81h-80q-68 0 -69 -70v-154h-214l-1 158q0 66 -99 66h-182v174h172q159 0 159 -130h115q0 130 212 130q292 0 292 -255v-914q0 -355 -355 -355h-240q-355 0 -355 355zM301 330q0 -179 154 -179h240q155 0 155 179v450 h-395q-154 0 -154 -180v-270z" />
<glyph unicode="&#x10b9;" horiz-adv-x="1160" d="M110 -10v1256q0 256 285 255l210 -1q132 -1 197.5 -60t65.5 -180v-109l-101 -206q293 -48 293 -244l-10 -711h-200l10 711q1 40 -21 60t-64 20h-372q-93 -2 -93 -80v-711h-200zM310 909q74 47 173 47q175 0 175 195v77q0 49 -18 73t-51 24l-194 1q-85 0 -85 -80v-337z " />
<glyph unicode="&#x10ba;" horiz-adv-x="1240" d="M110 -88v1083h200v-1083q0 -169 145 -169h340q145 0 145 169v128q0 180 -135 180h-280v175l260 1q135 0 135 162q0 81 -26.5 123t-80.5 44q-106 4 -159 76.5t-53 223.5h200q4 -129 74 -139q245 -11 245 -328q0 -162 -136 -246q156 -95 156 -272v-128q0 -345 -345 -345 h-340q-345 0 -345 345z" />
<glyph unicode="&#x10bb;" horiz-adv-x="1160" d="M100 320v360q0 345 345 345h405v475h200v-1180q0 -345 -345 -345h-260q-345 0 -345 345zM300 320q0 -169 145 -169h260q145 0 145 169v530h-405q-145 0 -145 -170v-360z" />
<glyph unicode="&#x10bc;" horiz-adv-x="1160" d="M110 330v914q0 255 292 255q212 0 212 -130h115q0 130 159 130h172v-174h-182q-99 0 -99 -66l-1 -157h-214v153q-1 70 -69 70h-80q-105 0 -105 -81v-288l397 -1q353 -2 353 -355v-270q0 -355 -355 -355h-240q-355 0 -355 355zM310 330q0 -179 155 -179h240q154 0 154 179 v270q0 180 -154 180h-395v-450z" />
<glyph unicode="&#x10bd;" horiz-adv-x="1215" d="M110 -91l50 337h200l-50 -337q0 -169 145 -169h260q145 0 145 169l-39 941h-295q-51 0 -78 -29t-27 -87q0 -120 105 -120h210v-175h-212q-303 0 -303 295q0 291 303 291h285v475h187v-475h144v-175h-119l39 -941q0 -345 -345 -345h-260q-345 0 -345 345z" />
<glyph unicode="&#x10be;" horiz-adv-x="1160" d="M110 320v1180h200v-475h405q345 0 345 -345v-360q0 -345 -345 -345h-260q-345 0 -345 345zM310 320q0 -169 145 -169h260q145 0 145 169v360q0 170 -145 170h-405v-530z" />
<glyph unicode="&#x10bf;" horiz-adv-x="1150" d="M100 -89l20 270h200l-20 -270q0 -169 145 -169h260q145 0 145 169l-10 220q-9 200 -175 200h-242v469h-263v175h295v201h207v-201h268v-175h-290v-294h25q364 0 375 -375l10 -220q0 -345 -345 -345h-260q-345 0 -345 345z" />
<glyph unicode="&#x10c0;" horiz-adv-x="1140" d="M100 320l10 110h200l-10 -110q0 -169 145 -169l250 -1q135 0 135 107v102q0 118 -125 118h-272v175h263q114 1 114 81v67q0 69 -125 69h-263v175l273 1q101 0 101 66v89q0 32 -34.5 46.5t-101.5 15.5l-212 1q-193 0 -193 238h200q0 -65 55 -65h250q235 0 235 -177v-115 q0 -124 -141 -182q156 -48 156 -132v-140q0 -76 -139 -128q157 -72 158 -187l1 -139q2 -260 -345 -262l-240 1q-345 1 -345 345z" />
<glyph unicode="&#x10d0;" horiz-adv-x="1180" d="M110 320l10 490h200l-10 -490q0 -169 145 -169h260q145 0 145 169l-5 596q0 170 -145 170h-85q-270 0 -270 405h200q0 -230 68 -230h87q345 0 345 -345l5 -596q0 -345 -345 -345h-260q-345 0 -345 345z" />
<glyph unicode="&#x10d1;" horiz-adv-x="1170" d="M110 320v330q0 345 333 345h65l20 93q0 209 -105 241q-105 31 -105 181h231q1 -68 90 -117q80 -45 80 -255v-37q0 -6 -1 -13l-10 -93h52q300 0 300 -345v-330q0 -345 -345 -345h-260q-345 0 -345 345zM310 320q0 -169 145 -169h260q145 0 145 169v330q0 170 -145 170 h-280q-125 0 -125 -170v-330z" />
<glyph unicode="&#x10d2;" horiz-adv-x="1250" d="M110 320v331q0 345 343 345h297v249q0 80 -100 80h-95q-126 0 -126 -65v-65h-189v65q0 240 304 240h126q280 0 280 -255v-260q190 -46 190 -334v-331q0 -345 -345 -345h-340q-345 0 -345 345zM310 320q0 -169 145 -169h340q145 0 145 169v331q0 170 -145 170h-340 q-145 0 -145 -170v-331z" />
<glyph unicode="&#x10d3;" horiz-adv-x="1820" d="M120 1155q0 345 345 345h122q179 0 263 -133q105 133 255 133h262q343 0 343 -345v-308q0 -375 -345 -375h-260q-345 0 -345 375v308q0 170 -175 170h-120q-145 0 -145 -170l17 -792q0 -153 143 -153h565q375 0 375 -235h-220q0 60 -175 60l-620 -1q-268 0 -268 313z M960 847q0 -199 145 -199h260q145 0 145 199v308q0 170 -145 170h-260q-145 0 -145 -170v-308z" />
<glyph unicode="&#x10d4;" horiz-adv-x="1180" d="M110 320l30 327h200l-30 -327q0 -169 145 -169h260q145 0 145 169v835q0 170 -145 170h-200q-145 0 -145 -170l10 -221h-200v221q-1 8 -1 15v14q0 158 84.5 237t249.5 79h202q345 0 345 -345v-835q0 -345 -345 -345h-260q-345 0 -345 345z" />
<glyph unicode="&#x10d5;" horiz-adv-x="1180" d="M110 319l20 279h200l-20 -279q0 -169 175 -169h200q175 0 175 169v185q0 170 -155 170h-220v176h203q152 0 152 179v126q0 170 -145 170h-200q-145 0 -145 -170l20 -162h-200l-20 162q0 345 343 345h202q345 0 345 -345v-126q0 -165 -151 -258q171 -93 171 -267v-185 q0 -345 -375 -345h-200q-375 0 -375 345z" />
<glyph unicode="&#x10d6;" horiz-adv-x="1260" d="M0 915v209q0 375 333 375h182q301 0 305 -295v-100q0 -48 -2 -75t-2 -34q334 -10 334 -345v-330q0 -345 -355 -345h-260q-345 0 -345 345v347q-190 51 -190 248zM200 915q0 -51 25 -79q135 159 308 159h87v209q-10 109 -125 120h-160q-135 0 -135 -200v-209zM390 320 q0 -169 145 -169h260q155 0 155 169v330q0 170 -155 170h-260q-145 0 -145 -170v-330z" />
<glyph unicode="&#x10d7;" horiz-adv-x="1800" d="M120 310v855q0 335 333 335h242q140 0 238 -143q90 143 230 143h182q335 0 335 -335v-855q0 -305 -394 -335l-1 176q195 30 195 159v855q0 160 -135 160h-140q-162 0 -183 -138q2 -15 4 -30.5t4 -31.5v-815q0 -335 -335 -335h-240q-335 0 -335 335zM320 310 q0 -159 135 -159h240q135 0 135 159v855q0 160 -135 160h-240q-135 0 -135 -160v-855z" />
<glyph unicode="&#x10d8;" horiz-adv-x="1190" d="M120 310v854q0 335 333 335h282q335 0 335 -335v-854q0 -286 -355 -335v186q155 24 155 149v854q0 160 -135 160h-280q-135 0 -135 -160v-854q0 -125 155 -149v-186q-355 49 -355 335z" />
<glyph unicode="&#x10d9;" horiz-adv-x="1170" d="M110 310l30 354h200l-30 -354q0 -159 145 -159h260q145 0 145 159v224q0 169 -150 171l-215 -1v175l130 -1q215 -1 215 183v73q0 116 -225 191l50 185q376 -109 376 -360v-71q0 -185 -149 -280q168 -95 168 -265v-224q0 -335 -345 -335h-260q-345 0 -345 335z" />
<glyph unicode="&#x10da;" horiz-adv-x="2330" d="M120 1156q0 345 343 345h152q149 0 244 -123q94 123 244 123h112q147 0 242 -120q94 120 248 120h172q343 0 343 -345v-439q0 -295 -365 -385v196q165 70 165 189v439q0 170 -145 170h-170q-145 0 -145 -170v-439h-200v439q0 170 -145 170h-110q-145 0 -145 -170v-439 h-200v439q0 170 -145 170h-150q-145 0 -145 -170l15 -771q2 -173 232 -173h838q375 0 375 -237h-220q0 60 -171 60l-917 -1q-336 0 -337 351z" />
<glyph unicode="&#x10db;" horiz-adv-x="1180" d="M110 320v330q0 345 343 345h262q71 0 145 -48v267q0 111 -135 111h-286q-105 0 -105 -121h-200q0 295 303 295h288q335 0 335 -285v-894q0 -345 -345 -345h-260q-345 0 -345 345zM310 320q0 -169 145 -169h260q145 0 145 169v330q0 170 -145 170h-260q-145 0 -145 -170 v-330z" />
<glyph unicode="&#x10dc;" horiz-adv-x="1180" d="M120 320v876q0 285 325 285l525 -1v-175l-525 1q-125 0 -125 -110v-248q74 47 143 47h262q345 0 345 -345v-330q0 -345 -345 -345h-260q-345 0 -345 345zM320 320q0 -169 145 -169h260q145 0 145 169v330q0 170 -145 170h-260q-145 0 -145 -170v-330z" />
<glyph unicode="&#x10dd;" horiz-adv-x="1750" d="M120 320v836q0 345 343 345h172q150 0 245 -153q94 153 245 153h162q343 0 343 -345v-836q0 -315 -405 -345v186q205 30 205 159v836q0 170 -145 170h-160q-145 0 -145 -170v-656h-200v656q0 170 -145 170h-170q-145 0 -145 -170v-836q0 -129 205 -159v-186 q-405 30 -405 345z" />
<glyph unicode="&#x10de;" horiz-adv-x="1170" d="M110 320l30 360h200l-30 -360q0 -169 145 -169h260q145 0 145 169v261q0 170 -175 170h-200v175h200q175 0 175 168q0 140 -174 140h-91q-300 0 -300 267h200q0 -92 98 -92h92q375 0 375 -315q0 -174 -136 -261q136 -96 136 -252v-261q0 -345 -345 -345h-260 q-345 0 -345 345z" />
<glyph unicode="&#x10df;" horiz-adv-x="1180" d="M110 320l20 315h200l-20 -315q0 -169 145 -169h260q145 0 145 169v1006h-175v-190q0 -315 -325 -315h-230v176h230q125 0 125 139v178h-255v167h830v-1161q0 -345 -345 -345h-260q-345 0 -345 345z" />
<glyph unicode="&#x10e0;" horiz-adv-x="1740" d="M120 320v329l6 553q0 284 394 288h702v-175h-800q-95 0 -95 -110l-7 -300q53 84 146 89h139q180 0 275 -143q95 143 275 143h132q343 0 343 -345v-329q0 -315 -395 -345v176q195 30 195 169v329q0 170 -145 170h-130q-175 0 -175 -170v-299h-200v299q0 170 -175 170h-140 q-145 0 -145 -170v-329q0 -139 195 -169v-176q-395 30 -395 345z" />
<glyph unicode="&#x10e1;" horiz-adv-x="1180" d="M120 320v1180h200v-1180q0 -169 145 -169h260q145 0 145 169v260q0 195 -103 219q-195 30 -195 365h200q0 -186 113 -209q185 -50 185 -375v-260q0 -345 -345 -345h-260q-345 0 -345 345z" />
<glyph unicode="&#x10e2;" horiz-adv-x="1383" d="M120 320v760q0 345 343 345h133v75h180v-75h142q345 0 345 -345v-760q0 -345 -345 -345h-453q-345 0 -345 345zM320 320q0 -169 145 -169h453q145 0 145 169v775q0 170 -145 170h-142v-673h-180v673h-131q-145 0 -145 -170v-775z" />
<glyph unicode="&#x10e3;" horiz-adv-x="1180" d="M110 320l20 365h200l-20 -365q0 -169 145 -169h260q145 0 145 169v876q0 129 -60 129h-131q-62 0 -62 -129v-321h-190v321q0 129 -142 129h-163v175h163q132 0 226 -121q85 121 199 121h116q244 0 244 -274v-906q0 -345 -345 -345h-260q-345 0 -345 345z" />
<glyph unicode="&#x10e4;" horiz-adv-x="1810" d="M110 821v334q0 345 343 345h262q149 0 244 -123q94 123 274 123h122q345 0 345 -345v-180q0 -216 -185 -324q165 -95 165 -252v-90q0 -335 -374 -335h-479q-380 0 -380 293h200q0 -117 178 -117h480q175 0 175 159v90q0 171 -175 171h-50v172h50q99 0 147 56t48 177v180 q0 170 -145 170h-120q-177 0 -177 -141q0 -7 0.5 -14t1.5 -15v-334q0 -345 -345 -345h-260q-345 0 -345 345zM310 821q0 -169 145 -169h260q145 0 145 169v334q0 170 -145 170h-260q-145 0 -145 -170v-334z" />
<glyph unicode="&#x10e5;" horiz-adv-x="1180" d="M110 319l20 307h200l-20 -307q0 -169 145 -169h260q145 0 145 169v645q-7 196 -275 256h-90q-135 0 -135 -170l10 -171h-200v171q-1 8 -1 15v15q0 158 81.5 236.5t242.5 78.5h92q139 0 275 -118v222h200v-1180q0 -345 -345 -345h-260q-345 0 -345 345z" />
<glyph unicode="&#x10e6;" horiz-adv-x="1730" d="M120 1156q0 345 343 345h152q160 0 255 -123q94 123 255 123h152q343 0 343 -345v-380q0 -316 -355 -395v196q155 41 155 199v380q0 170 -145 170h-150q-155 0 -155 -170v-360h-200v360q0 170 -155 170h-150q-145 0 -145 -170l17 -792q0 -153 191 -153h432 q380 0 380 -235h-200q0 59 -175 59l-437 -1q-391 -1 -391 351z" />
<glyph unicode="&#x10e7;" horiz-adv-x="1180" d="M110 319l10 147h200l-10 -147q0 -169 175 -169h200q175 0 175 169v353q-100 -82 -225 -82h-80q-209 0 -312.5 85t-102.5 260l1 192v-1q5 325 319 374l56 -184q-175 -40 -175 -201l-1 -180q-1 -169 215 -169h80q225 0 225 149v564h200v-1160q0 -345 -375 -345h-200 q-375 0 -375 345z" />
<glyph unicode="&#x10e8;" horiz-adv-x="1180" d="M110 330v270q0 353 353 355l397 1v288q0 81 -105 81h-80q-68 0 -69 -70v-154h-214l-1 158q0 66 -99 66h-182v174h172q159 0 159 -130h115q0 130 212 130q292 0 292 -255v-914q0 -355 -355 -355h-240q-355 0 -355 355zM311 330q0 -179 154 -179h240q155 0 155 179v450 h-395q-154 0 -154 -180v-270z" />
<glyph unicode="&#x10e9;" horiz-adv-x="1160" d="M110 -10v1256q0 256 285 255l210 -1q132 -1 197.5 -60t65.5 -180v-109l-101 -206q293 -48 293 -244l-10 -711h-200l10 711q1 40 -21 60t-64 20h-372q-93 -2 -93 -80v-711h-200zM310 909q74 47 173 47q175 0 175 195v77q0 49 -18 73t-51 24l-194 1q-85 0 -85 -80v-337z " />
<glyph unicode="&#x10ea;" horiz-adv-x="1230" d="M120 319v1153h200v-1153q0 -169 145 -169h310q145 0 145 169v208q0 170 -145 170h-240v175l240 1q125 0 125 162q0 151 -54 151q-255 0 -255 315h200q0 -138 54 -138q255 0 255 -328q0 -162 -106 -246q126 -95 126 -262v-208q0 -345 -345 -345h-310q-345 0 -345 345z" />
<glyph unicode="&#x10eb;" horiz-adv-x="1180" d="M110 320v330q0 345 345 345h405v505h200v-1180q0 -345 -345 -345h-260q-345 0 -345 345zM310 320q0 -169 145 -169h260q145 0 145 169v500h-405q-145 0 -145 -170v-330z" />
<glyph unicode="&#x10ec;" horiz-adv-x="1170" d="M120 330v914q0 255 292 255q212 0 212 -130h115q0 130 159 130h172v-174h-182q-99 0 -99 -66l-1 -158h-214v154q-1 70 -69 70h-80q-105 0 -105 -81v-288l397 -1q353 -2 353 -355v-270q0 -355 -355 -355h-240q-355 0 -355 355zM320 330q0 -179 155 -179h240q154 0 154 179 v270q0 180 -154 180h-395v-450z" />
<glyph unicode="&#x10ed;" horiz-adv-x="1215" d="M110 319l50 337h200l-50 -337q0 -169 145 -169h260q145 0 145 169l-124 938h-191q-51 0 -78 -26t-27 -80q0 -110 105 -110h190v-175h-192q-303 0 -303 285q0 281 303 281h181v68h196v-68h215v-175h-199l124 -938q0 -345 -345 -345h-260q-345 0 -345 345z" />
<glyph unicode="&#x10ee;" horiz-adv-x="1180" d="M120 320v1180h200v-505h405q345 0 345 -345v-330q0 -345 -345 -345h-260q-345 0 -345 345zM320 320q0 -169 145 -169h260q145 0 145 169v330q0 170 -145 170h-405v-500z" />
<glyph unicode="&#x10ef;" horiz-adv-x="1170" d="M110 319l10 331h200l-10 -331q0 -169 145 -169h260q145 0 145 169l-10 301q0 200 -175 200h-235v376h-280v170h305v133h202l-12 -138h285v-170h-295v-196h30q375 0 375 -375l10 -301q0 -345 -345 -345h-260q-345 0 -345 345z" />
<glyph unicode="&#x10f0;" horiz-adv-x="1180" d="M110 320l10 170h200l-10 -170q0 -169 145 -169l270 -1q135 1 135 125v88q0 134 -145 134h-235v175h245q125 0 125 78v75q0 85 -145 85h-235v175h245q125 0 125 65v118q0 57 -173 57l-390 -1v176h388q376 0 376 -209v-105q0 -137 -150 -183q159 -53 159 -178v-70 q0 -113 -152 -173q162 -65 162 -222v-97q0 -288 -345 -289l-260 1q-345 1 -345 345z" />
<glyph unicode="&#x2000;" horiz-adv-x="803" />
<glyph unicode="&#x2001;" horiz-adv-x="1607" />
<glyph unicode="&#x2002;" horiz-adv-x="803" />
<glyph unicode="&#x2003;" horiz-adv-x="1607" />
<glyph unicode="&#x2004;" horiz-adv-x="535" />
<glyph unicode="&#x2005;" horiz-adv-x="401" />
<glyph unicode="&#x2006;" horiz-adv-x="267" />
<glyph unicode="&#x2007;" horiz-adv-x="267" />
<glyph unicode="&#x2008;" horiz-adv-x="200" />
<glyph unicode="&#x2009;" horiz-adv-x="321" />
<glyph unicode="&#x200a;" horiz-adv-x="89" />
<glyph unicode="&#x2010;" horiz-adv-x="825" d="M121 472v175h583v-175h-583z" />
<glyph unicode="&#x2011;" horiz-adv-x="825" d="M121 472v175h583v-175h-583z" />
<glyph unicode="&#x2012;" horiz-adv-x="825" d="M121 472v175h583v-175h-583z" />
<glyph unicode="&#x2013;" d="M-6 488v140h1036v-140h-1036z" />
<glyph unicode="&#x2014;" horiz-adv-x="2048" d="M8 488v140h2032v-140h-2032z" />
<glyph unicode="&#x2018;" horiz-adv-x="664" d="M233 1052v262q0 85 50.5 129t147.5 44l-1 -122q-35 -4 -50 -15t-15 -36v-22h66v-240h-198z" />
<glyph unicode="&#x2019;" horiz-adv-x="664" d="M233 1052v122q35 3 50 14.5t15 36.5v22h-65v240h198v-262q0 -85 -50.5 -129t-147.5 -44z" />
<glyph unicode="&#x201a;" horiz-adv-x="664" d="M233 0v240h198v-262q0 -85 -50.5 -129.5t-147.5 -44.5v123q35 3 50 14.5t15 36.5v22h-65z" />
<glyph unicode="&#x201c;" horiz-adv-x="1006" d="M235 1052v262q0 85 51 129t148 44l-1 -122q-36 -4 -50.5 -15t-14.5 -36v-22h66v-240h-199zM570 1052v262q0 85 50.5 129t150.5 44l-1 -122q-38 -4 -53 -15t-15 -36v-22h69v-240h-201z" />
<glyph unicode="&#x201d;" horiz-adv-x="1006" d="M235 1052v122q36 4 51 15t15 36v22h-66v240h199v-262q0 -85 -51 -129t-148 -44zM570 1052v122q35 3 50 14.5t15 36.5v22h-65v240h199v-262q0 -85 -51 -129t-148 -44z" />
<glyph unicode="&#x201e;" horiz-adv-x="1006" d="M235 0v240h199v-262q0 -85 -51 -129.5t-148 -44.5v123q35 3 50.5 14.5t15.5 36.5v22h-66zM570 0v240h199v-262q0 -85 -51 -129.5t-148 -44.5v123q35 3 50 14.5t15 36.5v22h-65z" />
<glyph unicode="&#x2020;" d="M130 922v177h287v388h190v-388h287v-177h-287v-922h-190v922h-287z" />
<glyph unicode="&#x2021;" d="M130 333v176h287v472h-287v176h287v330h190v-330h287v-176h-287v-472h287v-176h-287v-333h-190v333h-287z" />
<glyph unicode="&#x2022;" horiz-adv-x="1208" d="M296 761q0 64 24.5 119.5t66.5 97t98 65.5t119 24t118.5 -24t97.5 -66t66 -97.5t24 -118.5t-25 -119t-67 -98.5t-98 -67t-118 -24.5q-63 0 -119 24.5t-97.5 67t-65.5 98.5t-24 119z" />
<glyph unicode="&#x2026;" horiz-adv-x="2048" d="M113 0v250h208v-250h-208zM794 0v250h208v-250h-208zM1478 0v250h208v-250h-208z" />
<glyph unicode="&#x202f;" horiz-adv-x="321" />
<glyph unicode="&#x2039;" horiz-adv-x="631" d="M80 531l253 325h217l-256 -325l256 -324h-217z" />
<glyph unicode="&#x203a;" horiz-adv-x="631" d="M81 207l255 324q-14 19 -29.5 38t-32.5 41l-66 84q-33 42 -65.5 83.5t-61.5 78.5h216l253 -325l-253 -324h-216z" />
<glyph unicode="&#x205f;" horiz-adv-x="401" />
<glyph unicode="&#x20ac;" horiz-adv-x="1384" d="M29 520l53 158h131v137h-184l52 159h132v15q0 144 26 242.5t85.5 159t155 87.5t235.5 27h87q452 0 452 -465h-204q0 80 -13 133.5t-44.5 85.5t-84.5 45t-132 13h-101q-75 0 -124.5 -13t-79.5 -47t-42 -93.5t-12 -151.5v-38h659l-52 -159h-607v-137h564l-53 -158h-511v-54 q0 -87 12 -144t42 -91t79.5 -47.5t124.5 -13.5h101q153 0 213 57q61 58 61 270h204q0 -141 -27.5 -239.5t-83.5 -159.5t-141 -88.5t-200 -27.5h-87q-140 0 -235.5 27t-155 87.5t-85.5 159t-26 242.5v22h-184z" />
<glyph unicode="&#x2122;" horiz-adv-x="1706" d="M260 1359v94h457v-94h-167v-460h-119v460h-171zM802 899v554h146l148 -374q35 94 70 188.5t68 185.5h146v-554h-108v367q-35 -94 -69.5 -185t-69.5 -182h-75l-148 373v-373h-108z" />
<glyph unicode="&#x2212;" horiz-adv-x="1706" d="M251 546v134h1204v-134h-1204z" />
<glyph unicode="&#x2215;" horiz-adv-x="342" d="M-361 -18l867 1523h195l-865 -1523h-197z" />
<glyph unicode="&#x2219;" horiz-adv-x="692" d="M211 793q0 27 11 51.5t29.5 43t43 29t51.5 10.5t51.5 -10.5t43 -29t29.5 -43t11 -51.5t-10.5 -51t-28.5 -42t-43 -29t-53 -11q-29 0 -53.5 11t-42.5 29t-28.5 42t-10.5 51z" />
<glyph unicode="&#x25fc;" horiz-adv-x="1065" d="M0 0v1065h1065v-1065h-1065z" />
</font>
</defs>
</svg>
