<?xml version="1.0" standalone="no"?>
<!DOCTYPE svg PUBLIC "-//W3C//DTD SVG 1.1//EN" "http://www.w3.org/Graphics/SVG/1.1/DTD/svg11.dtd" >
<svg xmlns="http://www.w3.org/2000/svg" xmlns:xlink="http://www.w3.org/1999/xlink" version="1.1">
<metadata></metadata>
<defs>
<font id="ka_kolhetiregular" horiz-adv-x="1024" >
<font-face units-per-em="2048" ascent="1638" descent="-410" />
<missing-glyph horiz-adv-x="477" />
<glyph unicode="&#xd;" />
<glyph unicode=" "  horiz-adv-x="477" />
<glyph unicode="&#x09;" horiz-adv-x="477" />
<glyph unicode="&#xa0;" horiz-adv-x="477" />
<glyph unicode="!" horiz-adv-x="676" d="M214 82q0 49 37.5 86t86.5 37t86 -37t37 -86t-37 -86t-86 -37t-86.5 37t-37.5 86zM225 1434h226l-51 -1092h-123z" />
<glyph unicode="&#x22;" horiz-adv-x="860" d="M102 1434h270l-81 -393h-106zM488 1434h270l-82 -393h-106z" />
<glyph unicode="#" horiz-adv-x="1436" d="M102 365l27 174h275l57 366h-275l27 175h275l53 342h139l-54 -342h294l53 342h139l-53 -342h274l-26 -174h-275l-57 -367h275l-27 -174h-275l-53 -344h-139l53 344h-293l-53 -344h-140l54 344h-275zM542 539h294l57 366h-293z" />
<glyph unicode="$" horiz-adv-x="1252" d="M109 426h182q8 -164 94 -233q86 -72 196 -76v545q-137 30 -225 73q-90 43 -135 95q-45 53 -59 110q-17 60 -17 131q0 150 70 238q71 86 170 119q98 30 196 30v134h109v-134q91 -4 183 -34q90 -33 155 -115q68 -82 68 -223h-176q-2 94 -66 166q-63 69 -164 71v-506 q189 -32 289 -102q101 -72 132.5 -152.5t31.5 -169.5q0 -161 -78 -253q-78 -95 -178 -127q-100 -34 -197 -38v-166h-109v166q-151 6 -252 56q-102 51 -157 147q-55 99 -63 248zM324 1077q0 -100 63 -157q61 -60 194 -84v487q-96 -2 -176.5 -55t-80.5 -191zM690 117 q84 0 146 39q61 37 91 100q33 64 33 137q0 125 -81 183q-84 55 -189 67v-526z" />
<glyph unicode="%" horiz-adv-x="1866" d="M109 1041q0 153 57 245q55 93 133 129q76 35 146 35q69 0 145 -35q78 -36 135 -129q56 -92 56 -245q0 -88 -29 -183q-31 -94 -107 -159q-73 -68 -200 -68t-201 68q-76 65 -104 159q-31 95 -31 183zM240 1041q0 -109 43 -205q45 -97 162 -97q116 0 159 97q45 96 45 205 q0 159 -63 231q-64 70 -141 70q-78 0 -142 -70q-63 -72 -63 -231zM400 0l929 1434h146l-930 -1433zM1086 393q0 154 57 246q55 92 133 129q76 35 146 35q69 0 145 -35q78 -37 133 -129q57 -92 57 -246q0 -88 -28 -182q-31 -94 -107 -160q-73 -67 -200 -67t-201 67 q-76 66 -104 160q-31 94 -31 182zM1217 393q0 -108 43 -204q45 -97 162 -97q116 0 159 97q45 96 45 204q0 160 -63 232q-64 69 -141 69q-78 0 -142 -69q-63 -72 -63 -232z" />
<glyph unicode="&#x26;" horiz-adv-x="1399" d="M147 383q0 156 89 262q86 105 264 185q-142 161 -142 309q0 90 46 158q43 67 118 102q76 35 170 35q101 0 170 -41q72 -39 110 -107q34 -65 34 -141q0 -123 -80 -213q-78 -90 -188 -143l313 -373q37 63 59 211h162q-16 -105 -43 -182q-25 -76 -76 -154l246 -291h-215 l-141 168q-68 -104 -189 -158q-123 -53 -256 -53q-153 0 -256 64q-102 61 -148.5 158.5t-46.5 203.5zM334 385q0 -65 31 -129q33 -63 98 -104q66 -41 160 -41q102 0 188 45q88 45 137 129l-354 428q-260 -107 -260 -328zM527 1143q0 -63 31 -115q28 -51 91 -131 q84 29 140 97q52 67 52 155q0 41 -18 74q-20 35 -55 55q-33 21 -78 21q-63 0 -114 -39q-49 -39 -49 -117z" />
<glyph unicode="'" horiz-adv-x="475" d="M102 1434h271l-82 -393h-106z" />
<glyph unicode="(" horiz-adv-x="641" d="M123 434q0 105 14 222q15 118 49.5 251.5t98.5 268.5q61 135 151 258h144q-78 -105 -133 -215q-60 -113 -98 -232q-39 -118 -57 -229q-21 -111 -21 -205q0 -139 14 -284q15 -148 49 -298q33 -149 90 -285q55 -135 137 -239h-143q-164 250 -229 510q-66 258 -66 477z" />
<glyph unicode=")" horiz-adv-x="641" d="M62 1434h143q90 -123 154 -258q61 -137 96 -268q35 -134 49 -252q14 -117 14 -222q0 -98 -12 -206q-12 -111 -45 -243.5t-92 -267.5q-57 -135 -146 -270h-143q82 106 139 241q58 138 90 285q33 148 47 296q14 145 14 284q0 94 -20 209q-18 113 -57 227q-39 117 -98 230 q-58 114 -133 215z" />
<glyph unicode="*" horiz-adv-x="1026" d="M144 887l235 129l-231 145q32 72 71 127l229 -133l3 275q49 4 71 4q25 0 74 -4v-273l232 131q39 -53 69 -127l-229 -145l235 -129q-24 -70 -67 -121l-240 125v-264q-49 -4 -74 -4q-22 0 -71 4v264l-240 -125q-51 58 -67 121z" />
<glyph unicode="+" horiz-adv-x="1229" d="M103 664v127h448v448h127v-448h449v-127h-449v-449h-127v449h-448z" />
<glyph unicode="," horiz-adv-x="561" d="M184 -332q57 45 105 123q45 78 45 135q0 18 -6 33q-57 2 -90 39q-33 39 -33 84q0 51 37 88q35 35 86 35q65 0 104 -51q37 -51 37 -141q0 -91 -39 -185t-103 -174q-65 -82 -143 -146v160z" />
<glyph unicode="-" horiz-adv-x="815" d="M122 327v144h570v-144h-570z" />
<glyph unicode="." horiz-adv-x="533" d="M143 82q0 49 37 86q35 37 86 37q52 0 87 -35q36 -37 36 -88t-36 -86q-35 -37 -87 -37q-51 0 -86 37q-37 37 -37 86z" />
<glyph unicode="/" horiz-adv-x="860" d="M-1 -379l732 1813h129l-731 -1813h-130z" />
<glyph unicode="0" horiz-adv-x="1088" d="M93 717q0 172 21 307q23 137 74 238q50 102 138 157.5t217 55.5q180 0 278 -101q101 -102 138 -266q35 -166 35 -391q0 -352 -95 -555q-94 -203 -356 -203q-137 0 -227 60q-90 57 -138.5 160.5t-65.5 236.5q-19 133 -19 301zM258 570q15 -488 285 -488q100 0 162 47 q59 49 85.5 133t32.5 187q6 104 6 268v47q0 184 -16 305t-78 201q-63 82 -192 82q-104 0 -164 -53q-59 -54 -84 -142q-24 -90 -31 -174q-4 -84 -6 -266v-147z" />
<glyph unicode="1" horiz-adv-x="1086" d="M369 1018v100q67 48 108 101t66 114q25 62 41 142h113v-1475h-144v1118q-82 -63 -184 -100z" />
<glyph unicode="2" horiz-adv-x="1088" d="M70 0q27 135 93.5 235.5t180.5 198.5q2 2 141 115q137 113 201 176q61 66 100 146q39 77 39 174q0 135 -81 221q-84 86 -222 86q-86 0 -145 -37q-59 -35 -86 -90q-29 -55 -29 -111q0 -53 7 -82h-164q-4 33 -4 52q0 102 49 192q47 88 143 143.5t232 55.5q141 0 245 -55 q107 -58 164 -156q55 -98 55 -219q0 -111 -43 -201q-43 -88 -114 -164q-74 -76 -213 -190q-142 -117 -185 -155q-57 -52 -88 -91q-30 -40 -53 -98l537 -2l53 102h135l-121 -246h-827z" />
<glyph unicode="3" horiz-adv-x="1086" d="M98 346q0 50 9 88h164q-9 -36 -9 -86q0 -127 74 -196q72 -70 193 -70q125 0 192 58q66 55 84 129q18 71 18 145q0 45 -14 111q-16 67 -78 131q-61 61 -184 61q-33 0 -51 -2v123q16 -2 47 -2q80 0 145 33q64 34 101 96q34 61 34 139t-36 133q-37 58 -101 86 q-63 29 -145 29q-121 0 -195.5 -86t-74.5 -234h-165q0 121 50 224q49 100 151 159q101 60 246 60q113 0 197 -32q82 -34 135 -89q53 -53 78 -119q24 -65 24 -133q0 -113 -69 -201q-68 -86 -189 -114q90 -21 148 -76q57 -53 83.5 -131t26.5 -172q0 -53 -14 -123 q-12 -70 -57 -145q-47 -76 -144 -127q-96 -54 -250 -54q-227 0 -325 119q-99 117 -99 268z" />
<glyph unicode="4" horiz-adv-x="1086" d="M60 295v144q88 86 184 203q96 119 188 255q93 137 168 277q78 139 123 260h164q-47 -107 -115 -234q-67 -127 -202 -321q-136 -196 -340 -440h523v374l144 82v-456h129v-143l-129 -1v-295h-144v295h-693z" />
<glyph unicode="5" horiz-adv-x="1086" d="M88 379q0 60 11 100h142q-5 -30 -5 -90q0 -94 41 -163.5t108 -106.5q68 -37 148 -37q121 0 211 78q87 78 87 283q0 192 -79 288q-78 97 -203 97q-39 0 -82 -10q-45 -11 -90 -40.5t-76 -82.5h-102v739h745v-144h-602v-423q105 84 256 84q109 0 199 -57q92 -60 145 -173 q54 -112 54 -264q0 -254 -134 -377q-135 -121 -321 -121q-135 0 -238 58q-102 57 -159 153q-56 96 -56 209z" />
<glyph unicode="6" horiz-adv-x="1086" d="M96 428q0 252 113 520q113 269 316 486h143q-78 -92 -156 -207t-141 -258q-64 -141 -90 -291q123 141 321 141q113 0 201 -55q90 -55 137 -151q49 -97 49 -211q0 -121 -55 -224q-55 -102 -156 -161q-100 -62 -229 -62q-70 0 -147 24q-78 27 -148 83q-69 53 -113 147 q-45 92 -45 219zM260 387q0 -90 39 -161q37 -72 103 -109q67 -39 147 -39q82 0 146 45q61 43 96 119q34 78 34 172q0 141 -81 211q-82 72 -191 72q-69 0 -137 -35q-70 -35 -113 -107q-43 -69 -43 -168z" />
<glyph unicode="7" horiz-adv-x="1084" d="M80 1188l57 246h867v-82q-39 -70 -170 -305q-133 -236 -194 -365q-64 -129 -124 -293q-57 -163 -118 -389h-164q82 266 129 405.5t102.5 258.5t133.5 256q78 135 231 391h-551l-58 -123h-141z" />
<glyph unicode="8" horiz-adv-x="1086" d="M85 391q0 131 68 242q68 109 204 156q-91 39 -144 96q-56 55 -76 117q-23 61 -23 121q0 88 53.5 169.5t152.5 131.5q96 51 223 51t223 -49q99 -52 152 -133q51 -80 51 -170q0 -37 -12 -93q-14 -57 -68 -127q-55 -69 -162 -114q92 -31 154 -92q61 -64 91 -142 q28 -80 28 -164q0 -120 -56 -221q-55 -98 -157 -153q-105 -58 -240 -58q-117 0 -223 49q-107 50 -173 146q-66 98 -66 237zM250 393q0 -102 45 -174q45 -69 115 -104q67 -33 143 -33q78 0 144 39q65 41 102 113q37 69 37 159q0 99 -41 172q-43 74 -111 113q-65 37 -141 37 q-72 0 -137 -37q-70 -39 -113 -113q-43 -73 -43 -172zM279 1108q0 -76 32.5 -137t92.5 -98q61 -36 139 -36t138.5 34t90.5 96q33 61 33 141q0 119 -76 180q-75 64 -186 64q-68 0 -129 -30q-61 -32 -98 -87q-37 -57 -37 -127z" />
<glyph unicode="9" horiz-adv-x="1086" d="M96 991q0 115 55 216q56 102 161 163q104 64 243 64q109 0 209 -51q101 -52 164 -158q61 -107 61 -260q0 -146 -41 -313q-43 -168 -139 -349.5t-248 -343.5h-143q78 92 156 207t141 258q63 144 90 291q-123 -141 -321 -141q-113 0 -201 55q-90 55 -137 152 q-50 94 -50 210zM260 979q0 -139 82 -211q82 -71 191 -71q69 0 137 35q68 36 113 106q42 70 42 168q0 102 -42 172q-43 67 -111 101q-68 32 -135 32q-80 0 -144 -43q-63 -45 -98 -119q-35 -76 -35 -170z" />
<glyph unicode=":" horiz-adv-x="533" d="M143 82q0 49 37 86q35 37 86 37q52 0 87 -35q36 -37 36 -88t-36 -86q-35 -37 -87 -37q-51 0 -86 37q-37 37 -37 86zM143 697q0 51 35 86q37 36 88 36q52 0 89 -34q34 -37 34 -88q0 -52 -36 -86q-35 -37 -87 -37q-51 0 -86 37q-37 36 -37 86z" />
<glyph unicode=";" horiz-adv-x="561" d="M184 -332q57 45 105 123q45 78 45 135q0 18 -6 33q-57 2 -90 39q-33 39 -33 84q0 51 37 88q35 35 86 35q57 0 100 -45q41 -45 41 -147q0 -77 -33 -167q-33 -88 -96 -178q-66 -88 -156 -160v160zM205 697q0 51 35 86q37 36 88 36t88 -34q35 -37 35 -88q0 -52 -37 -86 q-35 -37 -86 -37t-86 37q-37 36 -37 86z" />
<glyph unicode="&#x3c;" horiz-adv-x="1370" d="M122 652v98l1015 583l61 -110l-920 -522l920 -523l-61 -110z" />
<glyph unicode="=" horiz-adv-x="1229" d="M102 438v127h1025v-127h-1025zM102 848v127h1025v-127h-1025z" />
<glyph unicode="&#x3e;" horiz-adv-x="1370" d="M171 178l921 523l-921 522l63 110l1013 -583v-98l-1013 -584z" />
<glyph unicode="?" horiz-adv-x="1098" d="M82 1123q15 104 78 184q61 80 160 125q100 43 221 43q141 0 240 -51q98 -54 147 -134q47 -79 47 -161q0 -164 -57 -242q-60 -80 -172 -143q-115 -64 -170 -123q-54 -60 -54 -193q0 -10 5 -61h-146v22q-2 17 -2 23q0 135 43 219q41 82 133 162q54 43 99 80t79 73 q35 39 56 86q22 48 22 103q0 59 -37 108q-36 50 -102 79.5t-147 29.5q-97 0 -179 -62q-82 -61 -100 -167h-164zM340 82q0 49 37 86t86 37q51 0 86 -35q37 -37 37 -88t-37 -86q-35 -37 -86 -37q-49 0 -86 37t-37 86z" />
<glyph unicode="@" horiz-adv-x="1768" d="M123 719q0 219 100 393q101 172 277 269q174 95 383 95q188 0 334 -57q143 -57 238.5 -157.5t142.5 -229.5q47 -127 47 -272q0 -111 -45 -217q-43 -107 -129 -174q-84 -68 -199 -68q-135 0 -182 99q-58 -111 -250 -111q-109 0 -188.5 49t-122.5 141q-44 93 -44 213 q0 82 23 158q25 72 68 129q43 55 106 87q64 30 144 30q172 0 241 -112h6v84h156v-517q0 -74 20.5 -96.5t57.5 -22.5q70 0 117 49.5t70 124.5q22 76 22 154q0 188 -84 326q-84 135 -228 207q-145 69 -321 69q-143 0 -260 -51q-119 -51 -201 -143q-82 -90 -127 -207 q-43 -115 -43 -242q0 -211 92 -358.5t238 -217.5q143 -70 301 -70q174 0 321 95l60 -108q-174 -103 -381 -103q-213 0 -385 88q-174 90 -275 262q-100 175 -100 412zM658 690q0 -106 45 -186q45 -82 157 -82q113 0 156 82q42 80 42 186q0 125 -49 197q-48 74 -147 74 q-104 0 -153 -76q-51 -78 -51 -195z" />
<glyph unicode="A" horiz-adv-x="1274" d="M-9 0l544 1434h205l542 -1434h-207l-135 371h-606l-135 -371h-208zM387 533h500l-250 706z" />
<glyph unicode="B" horiz-adv-x="1411" d="M174 0v1434h629q164 0 258 -53q96 -54 133 -136q37 -81 37 -176q0 -75 -31.5 -141t-87.5 -111q-55 -43 -121 -55v-6q74 -12 140 -49q67 -37 114 -113q48 -76 48 -194q0 -179 -115 -289.5t-397 -110.5h-607zM367 162h400q139 0 235 49q93 49 93 205q0 133 -85 190 q-84 58 -244 58h-399v-502zM367 826h387q100 0 164 30q61 29 87 80q28 49 28 113q0 88 -56 155q-57 68 -217 68h-393v-446z" />
<glyph unicode="C" horiz-adv-x="1458" d="M91 692q0 265 81 429q82 163 197 239t217 96.5t182 20.5q307 0 440.5 -141.5t153.5 -344.5h-192q-13 119 -101 221.5t-301 102.5q-170 0 -274 -84q-107 -84 -152 -223t-45 -307t60 -299q57 -133 168 -207q110 -76 258 -76q112 0 202 47q90 45 143.5 127t59.5 182h193 q-11 -90 -43 -178q-35 -86 -103 -164q-69 -77 -184 -127q-115 -49 -277 -49q-157 0 -284 49q-127 52 -216.5 148t-134.5 231q-48 137 -48 307z" />
<glyph unicode="D" horiz-adv-x="1473" d="M174 0v1434h527q92 0 195.5 -18.5t215.5 -84.5q113 -67 193 -217q78 -149 78 -393q0 -321 -125 -481q-127 -158 -287 -199t-342 -41h-455zM367 162h269q276 0 408.5 135t132.5 420q0 203 -67 328t-178 176q-108 51 -242 51h-323v-1110z" />
<glyph unicode="E" horiz-adv-x="1254" d="M174 0v1434h1022v-162h-829v-451h751v-162h-751v-497h852v-162h-1045z" />
<glyph unicode="F" horiz-adv-x="1164" d="M174 0v1434h963v-162h-770v-467h674v-162h-674v-643h-193z" />
<glyph unicode="G" horiz-adv-x="1516" d="M91 731q0 238 87 408q84 168 244 252q158 86 371 86q182 0 309 -66q125 -63 193 -170q68 -106 82 -231h-193q-6 76 -45 144.5t-125 115.5q-88 45 -225 45q-205 0 -316 -104q-108 -107 -141 -238q-35 -133 -35 -248q0 -98 33 -235t141 -254q111 -117 316 -117 q127 0 211 45q86 46 133 117q49 72 68.5 150t21.5 155h-410v162h586v-748h-150v232h-4q-41 -86 -110 -148q-70 -61 -162 -94q-94 -33 -205 -33q-135 0 -254 41q-119 43 -215 133q-94 92 -150 244q-56 150 -56 356z" />
<glyph unicode="H" horiz-adv-x="1454" d="M174 0v1434h193v-598h720v598h193v-1434h-193v674h-720v-674h-193z" />
<glyph unicode="I" horiz-adv-x="541" d="M174 0v1434h193v-1434h-193z" />
<glyph unicode="J" horiz-adv-x="1065" d="M47 402v73h193q0 -118 22 -196q23 -78 78 -119q53 -41 148 -41q98 0 149 45q51 43 70 119q18 78 18 194v957h193v-938q0 -191 -43 -307q-43 -119 -137 -174q-97 -58 -252 -58q-439 0 -439 445z" />
<glyph unicode="K" horiz-adv-x="1366" d="M174 0v1434h193v-711l708 711h261l-598 -590l636 -844h-256l-522 715l-229 -223v-492h-193z" />
<glyph unicode="L" horiz-adv-x="1084" d="M174 0v1434h193v-1272h729v-162h-922z" />
<glyph unicode="M" horiz-adv-x="1823" d="M174 0v1434h289l449 -1180l448 1180h289v-1434h-193v1149l4 55h-6l-465 -1204h-155l-467 1204h-4l4 -55v-1149h-193z" />
<glyph unicode="N" horiz-adv-x="1516" d="M174 0v1434h213l762 -1137v1137h193v-1434h-211l-764 1137v-1137h-193z" />
<glyph unicode="O" horiz-adv-x="1553" d="M91 717q0 244 86.5 416t242.5 258t356 86q175 0 330 -71q156 -75 256 -245q98 -170 98 -444q0 -336 -137 -504q-137 -170 -286.5 -213t-260.5 -43q-114 0 -262.5 43t-286.5 213q-136 168 -136 504zM297 717q0 -100 21 -201q18 -102 69 -192q54 -90 148 -148 q96 -57 241 -57q162 0 322 115q157 112 157 483q0 172 -51 307q-53 137 -159 213q-109 78 -269 78q-153 0 -249 -65q-101 -66 -148 -162q-49 -99 -65 -193q-17 -96 -17 -178z" />
<glyph unicode="P" horiz-adv-x="1309" d="M174 0v1434h584q485 0 485 -412q0 -139 -49 -239q-51 -101 -164 -156q-112 -56 -290 -56h-373v-571h-193zM367 733h353q168 0 247 72q79 70 79 213q0 131 -79.5 192.5t-247.5 61.5h-352v-539z" />
<glyph unicode="Q" horiz-adv-x="1553" d="M91 717q0 158 56 330q53 172 208 301q153 129 421 129q203 0 357 -86q155 -86 241 -258t86 -416q0 -94 -14 -188q-14 -99 -59 -203q-45 -107 -133 -199l161 -178l-106 -101l-170 191q-131 -82 -363 -82q-198 0 -331 70q-136 72 -214 186q-76 113 -106 244 q-34 129 -34 260zM297 717q0 -139 39 -272q37 -136 146 -230q106 -96 294 -96q158 0 238 57l-160 179l111 96l162 -182q67 86 98 192q30 104 30 256q0 188 -48 311q-52 121 -127.5 182.5t-153.5 84.5q-78 20 -150 20q-178 0 -327 -125q-152 -123 -152 -473z" />
<glyph unicode="R" horiz-adv-x="1395" d="M174 0v1434h635q475 0 475 -385q0 -82 -28 -158q-31 -76 -86 -129q-58 -53 -131 -67v-7q90 -32 135 -84q43 -49 55 -110q12 -60 16 -152q5 -145 7 -184t12 -78q12 -41 39 -80h-203q-35 45 -43 97q-8 53 -11 206q-2 93 -16 156q-16 66 -75 106q-60 43 -179 43h-409v-608 h-193zM367 770h430q60 0 123 21q66 20 112 78q47 57 47 159q0 133 -81.5 188.5t-229.5 55.5h-401v-502z" />
<glyph unicode="S" horiz-adv-x="1344" d="M92 455h193q0 -98 49 -174q49 -78 141 -119q95 -43 220 -43q180 0 265.5 76t85.5 190q0 117 -80 170q-77 56 -208 82q-84 19 -222 49q-135 31 -217 72t-129 115q-49 73 -49 192q0 133 68 225q68 93 191 140q120 47 284 47q170 0 285 -55q117 -56 177.5 -150t68.5 -211 h-192q-17 154 -124 203q-106 51 -221 51q-98 0 -174 -29.5t-117 -84t-41 -126.5q0 -79 47 -127q48 -45 115 -65q68 -21 197 -47q178 -35 285.5 -72t183.5 -125q78 -90 78 -250q0 -274 -185 -352q-184 -80 -383 -80q-135 0 -260 35q-127 35 -225 145q-96 111 -107 318z" />
<glyph unicode="T" horiz-adv-x="1178" d="M27 1272v162h1124v-161l-465 -1v-1272h-193v1272h-466z" />
<glyph unicode="U" horiz-adv-x="1426" d="M147 555v879h193v-854q0 -123 23 -219q20 -97 102 -168q82 -74 248 -74q104 0 178 31q72 28 113 86q43 57 63 143q18 84 18 201v854h193v-879q0 -205 -61 -329q-62 -123 -152 -183q-92 -58 -178 -72q-88 -14 -174 -14q-184 0 -301 56q-115 55 -172 143q-55 88 -74 186 q-19 101 -19 213z" />
<glyph unicode="V" horiz-adv-x="1217" d="M-8 1434h211l406 -1235l405 1235h211l-502 -1434h-229z" />
<glyph unicode="W" horiz-adv-x="1831" d="M-9 1434h218l299 -1204l297 1204h221l297 -1204l299 1204h217l-381 -1434h-245l-297 1207l-297 -1207h-246z" />
<glyph unicode="X" horiz-adv-x="1250" d="M0 0l502 733l-475 701h239l359 -563l358 563h240l-475 -701l502 -733h-248l-377 596l-377 -596h-248z" />
<glyph unicode="Y" horiz-adv-x="1239" d="M-8 1434h229l400 -664l397 664h229l-530 -836v-598h-193v598z" />
<glyph unicode="Z" horiz-adv-x="1215" d="M52 0v176l843 1096h-797l1 162h1022v-153l-833 -1119h873v-162h-1109z" />
<glyph unicode="[" horiz-adv-x="565" d="M164 -559v1993h320v-123h-177v-1747h177v-123h-320z" />
<glyph unicode="\" horiz-adv-x="860" d="M-1 1434h130l731 -1813h-129z" />
<glyph unicode="]" horiz-adv-x="565" d="M82 -436h176v1747h-176v123h320v-1993h-320v123z" />
<glyph unicode="^" horiz-adv-x="905" d="M114 987l247 447h184l246 -447h-143l-195 359l-195 -359h-144z" />
<glyph unicode="_" horiz-adv-x="1018" d="M-1 -273h1019v-106h-1019v106z" />
<glyph unicode="`" horiz-adv-x="637" d="M216 946v287q0 193 204 240v-113q-43 -4 -72 -41q-31 -39 -31 -86l1 -63h102v-224h-204z" />
<glyph unicode="a" horiz-adv-x="1133" d="M75 273q0 69 23 125q23 53 78 94t158 69q102 29 251 41q95 9 132 15q34 8 53 35q19 28 19 94q0 209 -234 209q-270 0 -270 -222h-173q0 82 37 160q39 80 138 133q100 56 268 56q414 0 414 -351l-10 -481q0 -72 16 -96q19 -27 92 -27v-127q-33 -8 -82 -8q-86 0 -129 28.5 t-57 123.5q-51 -93 -147 -140q-97 -45 -209 -45q-170 0 -269 78t-99 236zM262 279q0 -88 56 -142q57 -51 145 -51q129 0 219 80q92 82 103 279l4 88q-25 -21 -54 -27q-28 -8 -86.5 -14t-89.5 -10q-118 -19 -170 -33q-51 -13 -90 -53q-37 -39 -37 -117z" />
<glyph unicode="b" horiz-adv-x="1231" d="M147 0v1434h181v-529q41 89 133 132q92 45 209 45q291 0 381 -183q92 -184 92 -377q0 -208 -74.5 -335t-181.5 -177q-109 -51 -221 -51q-219 0 -344 185h-6v-144h-169zM316 527q0 -228 90 -334.5t221 -106.5q90 0 164 43t119 142q42 96 42 251q0 148 -40 246 q-43 97 -115 142t-160 45q-90 0 -164 -45q-71 -45 -114 -142.5t-43 -240.5z" />
<glyph unicode="c" horiz-adv-x="1123" d="M88 529q0 139 43 264t154 207q113 82 299 82q139 0 240 -50q98 -49 151 -133t66 -184h-172q-39 240 -281 240q-160 0 -233 -117q-76 -117 -76 -309q0 -191 80 -316q80 -127 241 -127q138 0 204.5 88t72.5 197h172q-15 -150 -113 -281t-340 -131q-98 0 -207.5 33 t-203.5 160q-97 127 -97 377z" />
<glyph unicode="d" horiz-adv-x="1227" d="M88 522q0 134 37 258.5t141 213.5q105 88 291 88q117 0 199 -39q84 -39 143 -138v529h181v-1434h-168v144h-7q-36 -72 -116 -127q-82 -58 -228 -58q-147 0 -256 72q-106 70 -161 199q-56 127 -56 292zM279 522q0 -256 101.5 -346t219.5 -90q84 0 154 45q72 43 115 144 q43 98 43 252q0 143 -43 240.5t-117 142.5q-72 45 -162 45t-160 -45q-71 -48 -110 -144q-41 -96 -41 -244z" />
<glyph unicode="e" horiz-adv-x="1168" d="M88 516q0 80 15 166q14 88 65 180q49 95 156 156q104 64 272 64q191 0 296.5 -84t142.5 -203q35 -119 43 -264q0 -9 2 -23v-29h-801q0 -96 34.5 -186t108.5 -149q72 -58 187 -58q122 0 198 62q74 63 90 153h173q-27 -139 -132 -239q-106 -103 -323 -103q-232 0 -349 109 q-118 106 -147 229q-31 121 -31 219zM279 606h611q-5 138 -69 244q-63 105 -221 105q-121 0 -194 -56q-72 -57 -99 -135q-28 -82 -28 -158z" />
<glyph unicode="f" horiz-adv-x="654" d="M27 914v127h192v141q0 136 68 197q68 63 207 63q26 0 78 -4q49 -4 55 -4v-127q-86 1 -127 1q-100 0 -100 -142v-125h227v-127h-227v-914h-181v914h-192z" />
<glyph unicode="g" horiz-adv-x="1229" d="M96 529q0 186 82 369.5t369 183.5q258 0 361 -185h6v144h168v-1014q0 -181 -86 -275q-88 -94 -191.5 -121t-189.5 -27t-170 14q-84 15 -166 79q-82 61 -111 186h172q21 -82 98.5 -115.5t176.5 -33.5q180 0 233 108q53 109 53 216v112q-71 -119 -145 -164 q-76 -47 -191 -47q-129 0 -235 62q-107 59 -170.5 188t-63.5 320zM287 535q0 -146 35 -238q35 -94 88 -139t102 -57q51 -15 94 -15q54 0 123 33q70 33 127 133q58 98 58 281q0 129 -37 225t-111 145q-71 52 -176 52q-192 0 -248 -138q-55 -135 -55 -282z" />
<glyph unicode="h" horiz-adv-x="1172" d="M147 0v1434h181v-539q72 96 160 142q86 45 196 45q152 0 228 -68q75 -70 94 -152q18 -81 18 -170v-692h-181v637q0 148 -38 232q-39 86 -178 86q-113 0 -205 -80q-94 -80 -94 -307v-568h-181z" />
<glyph unicode="i" horiz-adv-x="467" d="M143 0v1041h181v-1041h-181zM143 1245v189h181v-189h-181z" />
<glyph unicode="j" horiz-adv-x="473" d="M-33 -252q95 16 129.5 30.5t43.5 43t9 104.5v1115h181v-1138q0 -147 -53 -219q-56 -71 -193 -71q-16 0 -117 8v127zM149 1245v189h181v-189h-181z" />
<glyph unicode="k" horiz-adv-x="1071" d="M147 0v1434h181v-889l496 496h215l-410 -402l451 -639h-209l-367 529l-176 -174v-355h-181z" />
<glyph unicode="l" horiz-adv-x="475" d="M147 0v1434h181v-1434h-181z" />
<glyph unicode="m" horiz-adv-x="1786" d="M147 0v1041h181v-142l-2 -12q41 88 131 141q90 54 190 54q125 0 201 -66q72 -63 96 -158q43 86 131 156q86 68 230 68q207 0 270 -129q64 -129 64 -281v-672h-180l-1 660q0 121 -38 209q-39 86 -162 86q-111 0 -193 -76t-82 -258v-621h-181v658q0 297 -200 297 q-116 0 -194 -93q-80 -92 -80 -241v-621h-181z" />
<glyph unicode="n" horiz-adv-x="1174" d="M147 0v1041h181v-146q58 84 149 135q93 52 207 52q342 0 342 -390v-692h-181v637q0 66 -4 115q-6 51 -26 98q-22 47 -67 76t-121 29q-113 0 -205 -80q-94 -80 -94 -307v-568h-181z" />
<glyph unicode="o" horiz-adv-x="1198" d="M88 522q0 162 55.5 289t170 199t284.5 72q127 0 226 -43q98 -41 159 -117q64 -74 97 -176q30 -103 30 -224q0 -249 -104 -374q-105 -127 -217.5 -158t-190.5 -31q-127 0 -223 43q-98 43 -160.5 119t-95.5 178q-31 103 -31 223zM279 522q0 -266 104 -352q103 -84 215 -84 q129 0 201 70q72 72 96 168q24 98 24 198q0 267 -102 351q-104 82 -219 82q-45 0 -94 -12t-100 -54q-54 -41 -88 -133q-37 -90 -37 -234z" />
<glyph unicode="p" horiz-adv-x="1223" d="M147 -379v1420h169v-144h6q125 185 344 185q100 0 184 -33q84 -35 148 -103q65 -69 100 -176q37 -106 37 -250q0 -192 -64 -317q-65 -127 -170 -184q-104 -60 -231 -60q-76 0 -180 39q-103 37 -162 152v-529h-181zM316 516q0 -149 49 -245q49 -99 122.5 -142t149.5 -43 q80 0 150 43q69 41 112 137q45 99 45 254q0 203 -84 318q-82 117 -233 117q-113 0 -211 -90q-100 -93 -100 -349z" />
<glyph unicode="q" horiz-adv-x="1225" d="M88 520q0 117 31 220q29 102 88 178q59 78 149.5 121t204.5 43q119 0 205 -52q86 -51 137 -133h7v144h167v-1420h-181v527q-32 -64 -112 -127q-79 -62 -229 -62q-182 0 -286 92q-105 93 -142 220q-39 127 -39 249zM279 520q0 -155 45 -251q43 -99 115 -140 q71 -43 151 -43q76 0 149.5 43t120.5 140q49 96 49 247q0 162 -45 260q-45 99 -114 140q-68 39 -150 39q-88 0 -161 -43q-74 -45 -117 -144q-43 -98 -43 -248z" />
<glyph unicode="r" horiz-adv-x="756" d="M147 0v1041h181v-201h5q36 111 132 172q94 63 211 68l53 2v-127q-190 -11 -288 -93q-99 -81 -111 -272q-2 -37 -2 -111v-479h-181z" />
<glyph unicode="s" horiz-adv-x="1037" d="M74 309h180q2 -114 86 -167q82 -56 197 -56q239 0 239 197q0 39 -14 67q-14 29 -59 56q-48 26 -144 51q-84 16 -156 33q-74 14 -137 44.5t-107 90.5q-41 59 -41 158q0 159 116 229q114 70 280 70q164 0 256 -52q92 -49 128 -118q33 -70 39 -144h-172q-2 41 -23 82 q-19 42 -74 74q-53 31 -148 31q-65 0 -139 -31q-76 -29 -76 -133q0 -51 20.5 -84t57.5 -49q37 -19 99 -33q59 -14 112 -27q127 -28 203 -57t121 -88q45 -57 45 -158q0 -145 -88 -221q-86 -76 -183 -95q-94 -20 -157 -20q-221 0 -338 98.5t-123 251.5z" />
<glyph unicode="t" horiz-adv-x="656" d="M27 914v127h185v311h181v-311h222v-127h-222v-661q0 -78 18.5 -111t90.5 -33q51 0 113 18v-127q-97 -41 -189 -41q-98 0 -145 39q-46 37 -58 88q-11 54 -11 129v699h-185z" />
<glyph unicode="u" horiz-adv-x="1174" d="M147 350v691h181v-637q0 -185 55 -250q56 -68 164 -68q193 0 245 127q53 127 53 260v568h181v-1041h-181v148h-4q-67 -117 -171 -152q-105 -37 -180 -37q-142 0 -217 62q-76 59 -101 145t-25 184z" />
<glyph unicode="v" horiz-adv-x="963" d="M-9 1041h196l295 -861l294 861h195l-385 -1041h-209z" />
<glyph unicode="w" horiz-adv-x="1475" d="M-9 1041h187l254 -834l217 834h177l217 -834l254 834h186l-336 -1041h-192l-217 834l-218 -834h-192z" />
<glyph unicode="x" horiz-adv-x="991" d="M-1 0l394 543l-365 498h202l266 -385l266 385h201l-365 -498l393 -543h-200l-295 428l-295 -428h-202z" />
<glyph unicode="y" horiz-adv-x="1020" d="M14 1041h216l333 -842l277 842h180l-414 -1164q-32 -92 -53 -137q-20 -45 -74.5 -86t-144.5 -41q-102 0 -148 10l1 133q65 -10 90 -10q49 0 80 22q30 23 47 56q14 32 36 98l25 78z" />
<glyph unicode="z" horiz-adv-x="959" d="M52 0v127l624 787h-580l1 127h778v-127l-605 -787h635v-127h-853z" />
<glyph unicode="{" horiz-adv-x="1018" d="M228 539v135q181 23 181 277q0 36 -4 110t-4 109q0 323 320 344v-109q-143 -31 -143 -194q0 -54 6 -109q6 -57 6 -117q0 -141 -55.5 -227t-181.5 -145v-13q126 -59 182 -145q55 -88 55 -227q0 -60 -6 -117q-6 -55 -6 -109q0 -164 143 -195v-108q-320 20 -320 344 q0 35 4 109t4 110q0 254 -181 277z" />
<glyph unicode="|" horiz-adv-x="979" d="M426 -459v2157h127v-2157h-127z" />
<glyph unicode="}" horiz-adv-x="1018" d="M297 -193q144 31 144 195q0 56 -7 109q-6 59 -6 117q0 94 25 163q24 70 78 119q51 51 135 90v13q-84 39 -135 90q-54 51 -78 118q-25 70 -25 164q0 60 6 117q7 53 7 109q0 163 -144 194v109q320 -21 320 -344q0 -35 -4 -109t-4 -110q0 -254 182 -277v-135 q-182 -23 -182 -277q0 -36 4 -110t4 -109q0 -324 -320 -344v108z" />
<glyph unicode="~" horiz-adv-x="1229" d="M102 623q23 61 60 123q35 57 90 98q53 41 123 41q92 0 178 -47l211 -113q4 -4 39 -14q33 -12 68 -12q43 0 90 36q49 37 86 130l80 -33q-39 -107 -107 -185q-65 -77 -166 -77q-90 0 -178 47l-211 112q-53 27 -108 27q-58 0 -105 -47t-69 -119z" />
<glyph unicode="&#xa1;" horiz-adv-x="682" d="M228 -289q0 24 5 67l89 809h38l89 -809q5 -53 5 -79q0 -63 -33.5 -101.5t-79.5 -38.5q-47 0 -80 38t-33 114zM232 863q0 46 32 78.5t78 32.5q47 0 79 -32.5t32 -78.5t-32.5 -78t-78.5 -32t-78 32t-32 78z" />
<glyph unicode="&#xa2;" d="M129 452q0 254 157 390q120 105 273 105q20 0 61 -4l140 383h72l-145 -402q101 -45 138 -87q48 -54 48 -115q0 -39 -24 -62t-70 -23q-55 0 -86 38q-18 22 -26 82q-4 31 -17 65l-228 -631q56 -38 94 -51q28 -10 69 -10q61 0 117 25.5t85 60t83 146.5l30 -13 q-47 -188 -163 -292q-90 -80 -221 -80q-81 0 -162 34l-142 -389h-70l155 426q-81 76 -117 154q-51 110 -51 250zM289 535q0 -75 17.5 -138t63.5 -147l223 615q-28 12 -60 12q-102 0 -162 -74q-82 -100 -82 -268z" />
<glyph unicode="&#xa3;" d="M61 105q0 67 46 111.5t118 44.5q17 0 38 -2t47 -6q2 26 2.5 45t0.5 32q0 88 -21 329h-194v95h194q-13 149 -13 199q0 122 49 223t135.5 154.5t185.5 53.5q126 0 189.5 -68t63.5 -136q0 -32 -24.5 -57t-53.5 -25q-38 0 -63 38q-11 18 -15 77.5t-34 87.5q-31 28 -87 28 q-79 0 -130.5 -62t-51.5 -218q0 -73 12 -187q7 -75 10 -108h258v-95h-258q1 -46 1 -68q0 -94 -13.5 -174t-48.5 -184q196 -63 224 -69q52 -12 102 -12q83 0 135 38.5t76 121.5l36 -9q-21 -161 -103.5 -243.5t-183.5 -82.5q-68 0 -123 24t-203 135q-40 -80 -86.5 -119.5 t-99.5 -39.5q-50 0 -83.5 34t-33.5 94zM118 112q0 -36 19.5 -57t45.5 -21q33 0 64.5 31t50.5 107q-22 14 -43 21t-42 7q-45 0 -70 -24.5t-25 -63.5z" />
<glyph unicode="&#xa4;" horiz-adv-x="1690" d="M135 109l228 227q-107 152 -107 340q0 195 107 340l-228 229l136 136l225 -230q151 117 348 117q199 0 348 -117l228 230l135 -136l-228 -229q109 -147 109 -340q0 -186 -109 -340l228 -227l-135 -136l-228 228q-145 -115 -348 -115t-348 115l-225 -228zM408 676 q0 -119 58.5 -219t158.5 -160q100 -59 219 -59t221 59q101 60 160 162q59 100 59 217t-59 219q-59 103 -162 162q-102 59 -219 59t-217 -59t-159 -162q-60 -102 -60 -219z" />
<glyph unicode="&#xa5;" d="M2 352v73h424v144l-15 36h-409v73h377l-213 496q-37 87 -72.5 115t-91.5 29v38h442v-38q-72 -5 -96.5 -23t-24.5 -39q0 -16 18 -59l214 -519l213 504q21 50 21 75q0 21 -21 41q-14 13 -64 17q-9 0 -27 3v38h346v-38q-60 0 -87 -23q-43 -35 -86 -132l-214 -485h387v-73 h-419l-7 -16v-164h426v-73h-426v-108q0 -112 11 -143q9 -22 34 -38q37 -22 85 -22h41v-41h-515v41h32q70 0 104 26q24 19 33 57q4 19 4 120v108h-424z" />
<glyph unicode="&#xa6;" horiz-adv-x="979" d="M426 422h127v-881h-127v881zM426 817v881h127v-881h-127z" />
<glyph unicode="&#xa7;" horiz-adv-x="1084" d="M102 518q0 82 40.5 156t117.5 119q78 45 185 45q-70 35 -125 90q-54 53 -82.5 114.5t-28.5 116.5q0 76 39 150t115 119q73 47 178 47q92 0 172 -41q78 -41 125 -115q46 -76 46 -172q0 -16 -3 -53h-164q8 27 8 80q0 80 -55 129t-127 49q-66 0 -117 -47q-53 -45 -53 -133 q0 -49 16.5 -88t49.5 -70q31 -33 104 -86q74 -53 78 -57q68 -50 137 -99q70 -49 117 -98q49 -49 77.5 -111.5t28.5 -146.5q0 -121 -78 -219q-77 -96 -219 -100q107 -70 150 -165q45 -96 45 -188q0 -86 -43 -154q-41 -69 -115 -106t-166 -37q-114 0 -194 41q-78 39 -117 100 q-37 59 -37 123q0 78 10 119h164q-10 -39 -10 -113q0 -72 55 -110q53 -37 123 -37q84 0 125 59t41 123q0 92 -63 162q-64 71 -187 156q-61 41 -133 92q-72 49 -121 98q-52 52 -80 115q-29 64 -29 143zM266 514q0 -92 58 -166q57 -73 139 -114q82 -43 150 -43q79 0 143 63 q62 64 62 168q0 82 -51 156q-52 76 -126 121q-71 47 -131 47q-63 0 -119.5 -27t-89.5 -78q-35 -53 -35 -127z" />
<glyph unicode="&#xa8;" horiz-adv-x="682" d="M57 1228q0 45 31.5 77t76.5 32q46 0 77.5 -32t31.5 -77t-32 -76.5t-76 -31.5q-45 0 -77 31.5t-32 76.5zM409 1228q0 45 32 77t77 32t76.5 -32t31.5 -77t-31.5 -76.5t-76.5 -31.5t-77 31.5t-32 76.5z" />
<glyph unicode="&#xa9;" horiz-adv-x="1651" d="M109 717q0 193 97 358q93 166 259 263q164 95 361 95q194 0 358 -96t262 -260q96 -165 96 -360t-96 -358q-96 -166 -262 -262q-164 -97 -358 -97q-197 0 -361 97q-166 96 -259 262q-97 166 -97 358zM244 717q0 -164 78 -305q76 -139 211 -221q133 -83 293 -83 q155 0 290 82q134 83 212.5 222t78.5 305t-80 305q-77 142 -213 221q-133 82 -288 82q-160 0 -293 -82q-135 -82 -211 -221q-78 -139 -78 -305zM493 719q0 127 50 234q51 104 186 139q45 12 97 12q133 0 198 -57q66 -58 82 -139q4 -25 4 -39h-127q-6 96 -98 125q-25 8 -59 8 q-52 0 -109 -35q-59 -35 -78 -150q-6 -32 -6 -98q0 -211 143 -257q19 -7 60 -7q121 0 151 121l4 16q0 10 3 17h135q-33 -191 -176 -240q-52 -16 -119 -16q-252 0 -320 233q-21 74 -21 133z" />
<glyph unicode="&#xaa;" horiz-adv-x="565" d="M-5 911q0 44 21 77q30 46 107 93q52 31 217 99q0 109 -26.5 142.5t-79.5 33.5q-48 0 -71 -21.5t-23 -67.5q0 -45 -16.5 -65.5t-41.5 -20.5q-23 0 -39.5 17t-16.5 43q0 55 56.5 99t177.5 44q92 0 141.5 -31t63 -64t13.5 -109v-218q0 -53 2 -61q3 -13 11 -20q7 -6 13 -6 q14 0 58 30v-48q-73 -53 -98 -63.5t-51 -10.5q-25 0 -44.5 20.5t-28.5 74.5q-63 -45 -117 -68t-98 -23q-53 0 -91.5 38t-38.5 86zM133 958q0 -34 25.5 -60t63.5 -26q22 0 51.5 11t66.5 33v226q-120 -40 -163.5 -88t-43.5 -96z" />
<glyph unicode="&#xab;" horiz-adv-x="1415" d="M164 328v141q131 15 299 115t283 213h156q-68 -84 -154 -158q-88 -76 -191 -137q-102 -59 -219 -102q348 -136 564 -400h-156q-74 72 -174 144q-103 71 -211 122q-109 52 -197 62zM705 400q116 57 192 114q76 60 203 174h152q-119 -153 -317 -288q127 -93 194 -154 q68 -61 123 -137h-151q-123 112 -204 172q-78 61 -192 119z" />
<glyph unicode="&#xac;" horiz-adv-x="1229" d="M103 664v127h1024v-414h-127v287h-897z" />
<glyph unicode="&#xad;" horiz-adv-x="865" d="M162 461v174h541v-174h-541z" />
<glyph unicode="&#xae;" horiz-adv-x="1651" d="M109 717q0 195 97 358q95 166 261 262q164 96 359 96q196 0 360 -95q164 -97 260 -263q96 -163 96 -358t-96 -358q-96 -166 -260 -262.5t-360 -96.5q-195 0 -359 97q-166 96 -261 262q-97 163 -97 358zM244 717q0 -164 78 -305q80 -139 213 -222q133 -82 291 -82 q157 0 291.5 82.5t211.5 221.5q78 141 78 305q0 166 -78 305q-77 139 -213 221q-133 82 -290 82q-156 0 -291 -82q-133 -82 -213 -221q-78 -139 -78 -305zM563 365v716h318q88 0 162 -42q73 -41 73 -164q0 -115 -120 -164v-4q61 -12 79 -55q19 -43 23 -117q2 -64 4 -90.5 t6 -43t19 -36.5h-138q-18 20 -20 43q-2 20 -6 121q-2 66 -29 100q-29 33 -129 33h-108v-297h-134zM697 760h154q130 0 130 115q0 61 -37 84q-36 24 -108 24h-139v-223z" />
<glyph unicode="&#xaf;" d="M-16 1462v84h1058v-84h-1058z" />
<glyph unicode="&#xb0;" horiz-adv-x="545" d="M75 1239q0 82 58 139.5t140 57.5t139 -57.5t57 -139.5t-57 -139t-139 -57t-140 57t-58 139zM169 1239q0 -26 15 -51q14 -22 37 -37q25 -14 52 -14q41 0 71 31q31 30 31 71t-31 72q-30 31 -71 31q-43 0 -73.5 -31t-30.5 -72z" />
<glyph unicode="&#xb1;" horiz-adv-x="1229" d="M103 164v127h1024v-127h-1024zM103 797v127h448v407h127v-407h449v-127h-449v-367h-127v367h-448z" />
<glyph unicode="&#xb2;" horiz-adv-x="614" d="M20 664v29q247 192 328 313q50 74 50 143q0 61 -41.5 102.5t-104.5 41.5q-57 0 -100 -29.5t-65 -88.5h-45q14 98 77.5 153.5t164.5 55.5q106 0 172.5 -58t66.5 -130q0 -66 -48 -141q-75 -117 -295 -295h186q87 0 115.5 12t48.5 44h45l-61 -152h-494z" />
<glyph unicode="&#xb3;" horiz-adv-x="614" d="M44 712q0 17 16.5 31t42.5 14q28 0 81 -24t91 -24q56 0 96 39.5t40 92.5q0 45 -26.5 86t-68.5 57q-60 23 -107 23h-30v28q77 0 129.5 47t52.5 108q0 49 -33 80t-88 31q-85 0 -147 -88l-38 16q36 74 81 108q64 47 149 47q92 0 145 -46t53 -101q0 -68 -105 -155 q72 -26 108.5 -74.5t36.5 -107.5q0 -103 -85.5 -177t-246.5 -74q-84 0 -121 24q-26 17 -26 39z" />
<glyph unicode="&#xb4;" horiz-adv-x="682" d="M236 1045l105 345h224l-295 -345h-34z" />
<glyph unicode="&#xb5;" horiz-adv-x="1188" d="M174 -379v1420h181v-568q0 -370 239 -370t239 370v568h181v-791q0 -59 15.5 -92t72.5 -33l21 2v-127q-82 -8 -89 -8q-201 0 -201 135q-85 -168 -239 -168q-67 0 -133 39q-65 39 -106 109v-486h-181z" />
<glyph unicode="&#xb6;" horiz-adv-x="1006" d="M82 1096q0 92 45 170t125 123q76 45 168 45h127v-1813h-127v1137q-94 4 -170 47q-78 43 -123 119q-45 78 -45 172zM742 -379v1813h127v-1813h-127z" />
<glyph unicode="&#xb7;" horiz-adv-x="682" d="M495 703q0 44 30.5 74.5t74.5 30.5t74.5 -30.5t30.5 -74.5q0 -43 -31 -74t-74 -31t-74 31t-31 74z" />
<glyph unicode="&#xb8;" horiz-adv-x="682" d="M187 -339q28 -4 48 -4q51 0 86 33.5t35 76.5q0 30 -23 52t-57 22q-10 0 -26 -2l111 177h60l-50 -78q63 -16 94 -54t31 -92q0 -72 -60 -126.5t-155 -54.5q-37 0 -94 7v43z" />
<glyph unicode="&#xb9;" horiz-adv-x="2063" d="M144 0v114h59q47 0 70 22q20 18 20 96v1202h129l708 -1106v858q0 154 66 201t174 47h240v-143l-223 -1q-74 0 -92 -36q-21 -39 -21 -115v-1139h-88l-750 1096v-873q0 -86 -10 -129q-12 -45 -55 -69q-45 -25 -139 -25h-88zM1389 701q0 137 45 212.5t102 100.5 q58 23 107 23q45 0 88 -17q43 -16 82 -53q39 -39 64 -102q22 -66 22 -160q0 -158 -74 -246q-76 -86 -182 -86q-97 0 -174 78q-80 78 -80 250zM1438 78v102h406l-1 -102h-405zM1526 705q0 -70 8 -115q6 -45 31 -74q27 -28 78 -28q78 0 98 55q21 53 21 164q0 104 -21 160 q-20 55 -98 55q-51 0 -78 -29q-25 -31 -31 -76q-8 -43 -8 -112z" />
<glyph unicode="&#xba;" horiz-adv-x="635" d="M29 1075q0 138 82.5 223.5t212.5 85.5q124 0 205.5 -84.5t81.5 -208.5t-89 -214t-211 -90q-118 0 -200 81.5t-82 206.5zM170 1153q0 -159 69 -258q39 -57 102 -57q57 0 94.5 44.5t37.5 140.5q0 157 -71 256q-44 62 -106 62q-52 0 -89 -45t-37 -143z" />
<glyph unicode="&#xbb;" horiz-adv-x="1415" d="M164 109q57 76 123 137q66 59 195 154q-199 135 -318 288h152q129 -114 203 -174q76 -57 192 -114q-112 -58 -192 -117q-78 -60 -203 -174h-152zM514 0q216 264 564 400q-117 43 -219 102q-103 61 -189 137q-88 74 -156 158h156q74 -72 174 -143q103 -72 211 -123 q109 -52 197 -62v-141q-88 -10 -197 -62q-108 -51 -211 -122q-100 -72 -174 -144h-156z" />
<glyph unicode="&#xbc;" horiz-adv-x="1536" d="M134 1297l205 87h35v-592q0 -60 6 -74q5 -9 16 -14q16 -8 79 -8v-32h-325v32q64 0 80 7q12 5 17 16t5 73v374q0 71 -5 94q-3 16 -10.5 22.5t-19.5 6.5q-20 0 -67 -20zM268 -53l935 1437h89l-934 -1437h-90zM933 143v73l376 465h84v-457h108v-81h-108v-182h-117v182h-343z M1016 224h260v316z" />
<glyph unicode="&#xbd;" horiz-adv-x="1536" d="M134 1297l205 87h35v-592q0 -60 6 -74q5 -9 16 -14q16 -8 79 -8v-32h-325v32q64 0 80 7q12 5 17 16t5 73v374q0 71 -5 94q-3 16 -10.5 22.5t-19.5 6.5q-20 0 -67 -20zM244 -53l935 1437h89l-935 -1437h-89zM939 -9q247 191 328 312q50 74 50 143q0 61 -41.5 102.5 t-104.5 41.5q-57 0 -100 -29.5t-65 -88.5h-45q14 97 77.5 153t164.5 56q106 0 172.5 -58.5t66.5 -129.5q0 -66 -48 -142q-75 -116 -295 -294h187q86 0 114.5 11.5t48.5 44.5h45l-61 -152h-494v30z" />
<glyph unicode="&#xbe;" horiz-adv-x="1536" d="M42 712q0 17 16.5 31t42.5 14q28 0 81 -24t91 -24q56 0 96 39.5t40 92.5q0 72 -56.5 120t-175.5 46v28q77 0 129.5 47t52.5 108q0 49 -33 80t-88 31q-85 0 -147 -88l-38 16q36 74 81 108q64 47 149 47q92 0 145 -46t53 -101q0 -68 -105 -155q72 -26 108.5 -74.5 t36.5 -107.5q0 -103 -85.5 -177t-246.5 -74q-84 0 -121 24q-26 17 -26 39zM256 -53l935 1437h86l-931 -1437h-90zM933 143v73l376 465h84v-457h108v-81h-108v-182h-116v182h-344zM1017 224h260v316z" />
<glyph unicode="&#xbf;" horiz-adv-x="909" d="M89 -124q0 83 29 151q43 98 150 221.5t137 191.5t36 186h39q-5 -124 -24.5 -196.5t-102 -246.5t-82.5 -288q0 -132 66 -204t170 -72q87 0 137 41t50 90q0 31 -31 84.5t-31 85.5q0 34 24 57t57 23q41 0 76 -41t35 -110q0 -115 -97.5 -202.5t-266.5 -87.5 q-170 0 -270.5 93.5t-100.5 223.5zM341 864q0 46 32.5 78.5t78.5 32.5t78.5 -32.5t32.5 -78.5t-32.5 -78.5t-78.5 -32.5t-78.5 32.5t-32.5 78.5z" />
<glyph unicode="&#xc0;" horiz-adv-x="975" d="M102 262q0 82 35 152h144q-35 -66 -35 -152q0 -100 72 -149q71 -52 161 -52q76 0 134 38q57 34 88 90q28 55 28 112q0 113 -61 172q-62 60 -154 107q-121 61 -159 110q-39 50 -39 117q0 41 8 74h143q-4 -29 -4 -41q0 -45 12 -72q15 -28 45 -51q33 -22 103 -59 q115 -62 183 -136q67 -73 67 -208q0 -107 -54 -189q-51 -82 -141 -123q-90 -43 -196 -43q-111 0 -197 41t-134.5 110.5t-48.5 151.5z" />
<glyph unicode="&#x410;" horiz-adv-x="975" d="M102 262q0 82 35 152h144q-35 -66 -35 -152q0 -100 72 -149q71 -52 161 -52q76 0 134 38q57 34 88 90q28 55 28 112q0 113 -61 172q-62 60 -154 107q-121 61 -159 110q-39 50 -39 117q0 41 8 74h143q-4 -29 -4 -41q0 -45 12 -72q15 -28 45 -51q33 -22 103 -59 q115 -62 183 -136q67 -73 67 -208q0 -107 -54 -189q-51 -82 -141 -123q-90 -43 -196 -43q-111 0 -197 41t-134.5 110.5t-48.5 151.5z" />
<glyph unicode="&#xc1;" horiz-adv-x="1088" d="M102 365q0 104 49 200q48 97 140 164q92 68 219 92v379h-231q-53 0 -72 19q-18 18 -18 51v164h143v-62q0 -30 10 -41q13 -12 49 -12h271l-23 -498q94 -36 172 -98.5t127 -154.5q47 -91 47 -203q0 -86 -32 -162q-33 -74 -91 -129q-59 -53 -141 -84t-176 -31 q-131 0 -231 54q-101 55 -156 147q-56 94 -56 205zM246 365q0 -84 39 -152.5t107.5 -110t152.5 -41.5q82 0 150 42q67 39 108 108q38 70 38 154q0 88 -38 164q-37 75 -106 123q-70 49 -160 59q-94 -16 -160 -70q-65 -51 -98 -125q-33 -73 -33 -151z" />
<glyph unicode="&#x411;" horiz-adv-x="1088" d="M102 365q0 104 49 200q48 97 140 164q92 68 219 92v379h-231q-53 0 -72 19q-18 18 -18 51v164h143v-62q0 -30 10 -41q13 -12 49 -12h271l-23 -498q94 -36 172 -98.5t127 -154.5q47 -91 47 -203q0 -86 -32 -162q-33 -74 -91 -129q-59 -53 -141 -84t-176 -31 q-131 0 -231 54q-101 55 -156 147q-56 94 -56 205zM246 365q0 -84 39 -152.5t107.5 -110t152.5 -41.5q82 0 150 42q67 39 108 108q38 70 38 154q0 88 -38 164q-37 75 -106 123q-70 49 -160 59q-94 -16 -160 -70q-65 -51 -98 -125q-33 -73 -33 -151z" />
<glyph unicode="&#xc2;" horiz-adv-x="1164" d="M102 -215q0 324 390 418q78 18 106 33q31 14 39 36.5t8 75.5v189q0 180 -157 180q-62 0 -111 -49q-51 -47 -51 -146q0 -81 14 -133h-137q-20 60 -20 144q0 88 43 151q43 66 116 101q74 34 164 34q107 0 195 -61q88 -59 88 -221v-230q0 -51 12.5 -77.5t61.5 -61.5 q198 -147 198 -357q0 -127 -59 -223q-62 -96 -168 -149q-109 -53 -246 -53q-147 0 -258 57q-111 55 -168 147q-60 92 -60 195zM246 -223q0 -84 47 -150q47 -68 127 -102q80 -37 172 -37q86 0 160 41q76 39 121 112q44 74 44 170q0 224 -294 333q-377 -84 -377 -367z" />
<glyph unicode="&#x412;" horiz-adv-x="1164" d="M102 -215q0 324 390 418q78 18 106 33q31 14 39 36.5t8 75.5v189q0 180 -157 180q-62 0 -111 -49q-51 -47 -51 -146q0 -81 14 -133h-137q-20 60 -20 144q0 88 43 151q43 66 116 101q74 34 164 34q107 0 195 -61q88 -59 88 -221v-230q0 -51 12.5 -77.5t61.5 -61.5 q198 -147 198 -357q0 -127 -59 -223q-62 -96 -168 -149q-109 -53 -246 -53q-147 0 -258 57q-111 55 -168 147q-60 92 -60 195zM246 -223q0 -84 47 -150q47 -68 127 -102q80 -37 172 -37q86 0 160 41q76 39 121 112q44 74 44 170q0 224 -294 333q-377 -84 -377 -367z" />
<glyph unicode="&#xc3;" horiz-adv-x="1499" d="M102 350q0 152 51.5 258.5t135.5 159.5q86 51 180 51q156 0 242 -141q119 141 301 141q86 0 156 -30q71 -29 122 -84q52 -56 79 -133q28 -76 28 -168q0 -135 -57 -228q-58 -90 -150 -133t-199 -43q-104 0 -188 47q-86 47 -133 131q-48 82 -48 183q0 110 17 202 q-17 68 -65 111q-52 43 -111 43q-43 0 -92 -25q-47 -24 -86 -104t-39 -231q0 -174 68 -279q65 -103 162.5 -148t220.5 -67q119 -21 215 -48q94 -28 178 -73q84 -47 146 -125q59 -78 75 -193h-170q-20 109 -113 183q-92 73 -227 110q-137 35 -287 35q-184 0 -365 -37v143h220 q-267 163 -267 492zM766 393q0 -163 74 -227t158 -64q57 0 114 25q58 25 101 92q41 68 41 183q0 114 -35 184q-35 72 -90 100q-54 31 -117 31q-76 0 -160 -63q-86 -62 -86 -261z" />
<glyph unicode="&#x413;" horiz-adv-x="1499" d="M102 350q0 152 51.5 258.5t135.5 159.5q86 51 180 51q156 0 242 -141q119 141 301 141q86 0 156 -30q71 -29 122 -84q52 -56 79 -133q28 -76 28 -168q0 -135 -57 -228q-58 -90 -150 -133t-199 -43q-104 0 -188 47q-86 47 -133 131q-48 82 -48 183q0 110 17 202 q-17 68 -65 111q-52 43 -111 43q-43 0 -92 -25q-47 -24 -86 -104t-39 -231q0 -174 68 -279q65 -103 162.5 -148t220.5 -67q119 -21 215 -48q94 -28 178 -73q84 -47 146 -125q59 -78 75 -193h-170q-20 109 -113 183q-92 73 -227 110q-137 35 -287 35q-184 0 -365 -37v143h220 q-267 163 -267 492zM766 393q0 -163 74 -227t158 -64q57 0 114 25q58 25 101 92q41 68 41 183q0 114 -35 184q-35 72 -90 100q-54 31 -117 31q-76 0 -160 -63q-86 -62 -86 -261z" />
<glyph unicode="&#xc4;" horiz-adv-x="1039" d="M102 -252q0 125 91 252h143q-90 -107 -90 -250q0 -68 31 -129q32 -60 90 -96q59 -37 139 -37q266 0 266 344v621q0 104 -43 184t-190 80q-64 0 -111 -27.5t-71 -74.5q-27 -50 -27 -109q0 -104 39 -174h-143q-39 78 -39 172q0 78 39 150q38 73 118 118q80 47 191 47 q139 0 221 -57q80 -57 111 -131q28 -76 28 -137v-689q0 -162 -59 -254q-60 -94 -150 -130q-90 -35 -196 -35q-115 0 -203 46q-88 50 -137 132q-48 81 -48 184z" />
<glyph unicode="&#x414;" horiz-adv-x="1039" d="M102 -252q0 125 91 252h143q-90 -107 -90 -250q0 -68 31 -129q32 -60 90 -96q59 -37 139 -37q266 0 266 344v621q0 104 -43 184t-190 80q-64 0 -111 -27.5t-71 -74.5q-27 -50 -27 -109q0 -104 39 -174h-143q-39 78 -39 172q0 78 39 150q38 73 118 118q80 47 191 47 q139 0 221 -57q80 -57 111 -131q28 -76 28 -137v-689q0 -162 -59 -254q-60 -94 -150 -130q-90 -35 -196 -35q-115 0 -203 46q-88 50 -137 132q-48 81 -48 184z" />
<glyph unicode="&#xc5;" horiz-adv-x="1039" d="M102 -246q0 131 60 246h143q-59 -125 -59 -250q0 -92 41 -152q39 -59 98 -84q60 -26 121 -26q84 0 135 35q49 34 74 90q23 55 28 110q6 56 8 137v125q-11 206 -186 206h-59v103h66h4q52 0 90 32q38 33 58.5 84t20.5 104q0 88 -55 146q-57 57 -153 57q-105 0 -172.5 -59.5 t-67.5 -169.5q0 -62 17 -109h-144q-17 53 -17 103q0 100 46 178q45 75 133 118q86 41 203 41q114 0 196 -45q80 -45 119 -112q39 -70 39 -142q0 -90 -49 -170q-51 -79 -154 -106q138 -39 172 -143q37 -103 37 -241q0 -474 -397 -474q-100 0 -191 41q-92 42 -147 126 q-58 84 -58 201z" />
<glyph unicode="&#x415;" horiz-adv-x="1039" d="M102 -246q0 131 60 246h143q-59 -125 -59 -250q0 -92 41 -152q39 -59 98 -84q60 -26 121 -26q84 0 135 35q49 34 74 90q23 55 28 110q6 56 8 137v125q-11 206 -186 206h-59v103h66h4q52 0 90 32q38 33 58.5 84t20.5 104q0 88 -55 146q-57 57 -153 57q-105 0 -172.5 -59.5 t-67.5 -169.5q0 -62 17 -109h-144q-17 53 -17 103q0 100 46 178q45 75 133 118q86 41 203 41q114 0 196 -45q80 -45 119 -112q39 -70 39 -142q0 -90 -49 -170q-51 -79 -154 -106q138 -39 172 -143q37 -103 37 -241q0 -474 -397 -474q-100 0 -191 41q-92 42 -147 126 q-58 84 -58 201z" />
<glyph unicode="&#xc6;" horiz-adv-x="1368" d="M102 1143q0 92 46 168q43 76 125 119q82 44 186 44q141 0 240 -85q98 -84 98 -232q0 -118 -118 -428q104 94 267 94q88 0 160 -49q74 -49 117 -145q43 -94 43 -223q0 -152 -57 -254q-58 -101 -148 -146q-92 -47 -199 -47q-104 0 -194 47q-92 47 -146 134q-55 88 -55 200 q0 209 152 586q-92 -82 -223 -82q-127 0 -209 86q-85 86 -85 213zM246 1135q0 -96 57 -150q58 -53 133 -53q86 0 152 57q66 58 66 162q0 101 -62 160q-59 61 -151 61q-86 0 -140.5 -65.5t-54.5 -171.5zM611 357q0 -148 77 -222q78 -74 189 -74q94 0 170 76t76 254 q0 179 -74 254q-74 76 -174 76q-66 0 -127 -37q-60 -37 -99 -119q-38 -81 -38 -208z" />
<glyph unicode="&#x416;" horiz-adv-x="1368" d="M102 1143q0 92 46 168q43 76 125 119q82 44 186 44q141 0 240 -85q98 -84 98 -232q0 -118 -118 -428q104 94 267 94q88 0 160 -49q74 -49 117 -145q43 -94 43 -223q0 -152 -57 -254q-58 -101 -148 -146q-92 -47 -199 -47q-104 0 -194 47q-92 47 -146 134q-55 88 -55 200 q0 209 152 586q-92 -82 -223 -82q-127 0 -209 86q-85 86 -85 213zM246 1135q0 -96 57 -150q58 -53 133 -53q86 0 152 57q66 58 66 162q0 101 -62 160q-59 61 -151 61q-86 0 -140.5 -65.5t-54.5 -171.5zM611 357q0 -148 77 -222q78 -74 189 -74q94 0 170 76t76 254 q0 179 -74 254q-74 76 -174 76q-66 0 -127 -37q-60 -37 -99 -119q-38 -81 -38 -208z" />
<glyph unicode="&#xc7;" horiz-adv-x="1348" d="M29 701v84l102 43q6 131 37 274q29 143 101 252q69 109 186 109q76 0 131 -52q53 -53 53 -153q0 -176 -130.5 -293t-284.5 -182v-43q0 -166 43 -324q42 -156 157 -262q115 -109 316 -109q118 0 211 35q90 33 139 94q48 62 48 140q0 84 -42.5 137t-115 79.5t-175.5 41.5 v84q98 -23 148 -23q57 0 106 29q47 28 47 102q0 88 -80 133q-82 43 -221 78v84q98 -33 162 -33q53 0 84 33t31 82q0 47 -21.5 82t-81.5 72l-174 108v103l205 -129q165 -105 165 -238q0 -57 -26 -102q-28 -48 -82 -74q76 -37 105 -90q28 -56 28 -109q0 -59 -34.5 -112.5 t-96.5 -75.5q164 -80 164 -267q0 -98 -63 -178q-62 -78 -176 -123q-113 -45 -254 -45q-236 0 -373 125q-135 125 -187 301q-51 176 -51 357zM228 862q317 142 317 402q0 117 -96 117q-58 0 -107 -72t-79 -193q-31 -120 -35 -254z" />
<glyph unicode="&#x417;" horiz-adv-x="1348" d="M29 701v84l102 43q6 131 37 274q29 143 101 252q69 109 186 109q76 0 131 -52q53 -53 53 -153q0 -176 -130.5 -293t-284.5 -182v-43q0 -166 43 -324q42 -156 157 -262q115 -109 316 -109q118 0 211 35q90 33 139 94q48 62 48 140q0 84 -42.5 137t-115 79.5t-175.5 41.5 v84q98 -23 148 -23q57 0 106 29q47 28 47 102q0 88 -80 133q-82 43 -221 78v84q98 -33 162 -33q53 0 84 33t31 82q0 47 -21.5 82t-81.5 72l-174 108v103l205 -129q165 -105 165 -238q0 -57 -26 -102q-28 -48 -82 -74q76 -37 105 -90q28 -56 28 -109q0 -59 -34.5 -112.5 t-96.5 -75.5q164 -80 164 -267q0 -98 -63 -178q-62 -78 -176 -123q-113 -45 -254 -45q-236 0 -373 125q-135 125 -187 301q-51 176 -51 357zM228 862q317 142 317 402q0 117 -96 117q-58 0 -107 -72t-79 -193q-31 -120 -35 -254z" />
<glyph unicode="&#xc8;" horiz-adv-x="1585" d="M102 387q0 135 58 232q59 98 158 149q100 51 221 51q166 0 291 -124q114 124 284 124q72 0 140 -26q65 -27 116 -76q54 -49 82 -123q31 -74 31 -168q0 -110 -45 -223q-47 -115 -125 -203h-143q77 84 123 203t46 233q0 117 -59 199t-172 82q-133 0 -213 -106 q39 -105 39 -220q0 -129 -51 -225q-53 -98 -148 -153q-94 -54 -213 -54q-118 0 -215 54q-94 51 -149 149q-56 96 -56 225zM246 387q0 -106 35 -180t98 -108q62 -38 143 -38q74 0 134 35q61 35 97.5 117t36.5 211q0 139 -75 217q-76 76 -186 76q-109 0 -195 -72 q-88 -71 -88 -258z" />
<glyph unicode="&#x418;" horiz-adv-x="1585" d="M102 387q0 135 58 232q59 98 158 149q100 51 221 51q166 0 291 -124q114 124 284 124q72 0 140 -26q65 -27 116 -76q54 -49 82 -123q31 -74 31 -168q0 -110 -45 -223q-47 -115 -125 -203h-143q77 84 123 203t46 233q0 117 -59 199t-172 82q-133 0 -213 -106 q39 -105 39 -220q0 -129 -51 -225q-53 -98 -148 -153q-94 -54 -213 -54q-118 0 -215 54q-94 51 -149 149q-56 96 -56 225zM246 387q0 -106 35 -180t98 -108q62 -38 143 -38q74 0 134 35q61 35 97.5 117t36.5 211q0 139 -75 217q-76 76 -186 76q-109 0 -195 -72 q-88 -71 -88 -258z" />
<glyph unicode="&#xc9;" horiz-adv-x="1002" d="M102 400q0 90 31 168q29 75 84 135q56 55 128.5 85.5t156.5 30.5q96 0 188 -47q93 -45 150 -139q59 -96 59 -233q0 -230 -121 -400h-143q120 162 120 402q0 143 -71 229q-69 86 -182 86q-72 0 -131 -39q-57 -39 -92 -108q-33 -72 -33 -168q0 -238 121 -402h-144 q-59 88 -90 195q-31 108 -31 205z" />
<glyph unicode="&#x419;" horiz-adv-x="1002" d="M102 400q0 90 31 168q29 75 84 135q56 55 128.5 85.5t156.5 30.5q96 0 188 -47q93 -45 150 -139q59 -96 59 -233q0 -230 -121 -400h-143q120 162 120 402q0 143 -71 229q-69 86 -182 86q-72 0 -131 -39q-57 -39 -92 -108q-33 -72 -33 -168q0 -238 121 -402h-144 q-59 88 -90 195q-31 108 -31 205z" />
<glyph unicode="&#xca;" horiz-adv-x="1034" d="M102 -240q0 131 66 240h144q-66 -109 -66 -240q0 -123 70 -196q69 -76 192 -76q105 0 154 47q51 49 65 122.5t14 184.5v70v43q0 232 -126 232h-82v103h82h2q130 0 130 224q0 97 -26 146t-117 57h-71v102h86q272 -18 272 -292q0 -88 -29.5 -162t-123.5 -119 q94 -45 120 -121q27 -80 27 -189v-49q0 -143 -18 -244q-21 -102 -103 -180q-82 -77 -252 -77q-137 0 -229 55t-136.5 141t-44.5 178z" />
<glyph unicode="&#x41a;" horiz-adv-x="1034" d="M102 -240q0 131 66 240h144q-66 -109 -66 -240q0 -123 70 -196q69 -76 192 -76q105 0 154 47q51 49 65 122.5t14 184.5v70v43q0 232 -126 232h-82v103h82h2q130 0 130 224q0 97 -26 146t-117 57h-71v102h86q272 -18 272 -292q0 -88 -29.5 -162t-123.5 -119 q94 -45 120 -121q27 -80 27 -189v-49q0 -143 -18 -244q-21 -102 -103 -180q-82 -77 -252 -77q-137 0 -229 55t-136.5 141t-44.5 178z" />
<glyph unicode="&#xcb;" horiz-adv-x="1809" d="M102 355q0 172 55.5 276t131.5 145q78 43 154 43q153 0 223 -149q74 149 252 149q61 0 126.5 -36.5t108.5 -112.5q76 149 248 149q74 0 143 -38q70 -37 117 -113q45 -76 45 -180q0 -158 -94 -332h-143q93 153 93 334q0 106 -52 168q-54 59 -119 59q-60 0 -115 -45 q-55 -47 -55 -176v-193h-143v193q-1 125 -54 174q-51 47 -114 47q-72 0 -123.5 -49t-51.5 -143v-222h-143v207q0 113 -45 160t-102 47q-199 0 -199 -358q0 -172 49 -277t129 -154q78 -47 158 -60.5t205 -19.5q659 -37 704 -422h-168q-24 166 -190 234q-166 69 -447 69h-524 v119h172q-232 167 -232 507z" />
<glyph unicode="&#x41b;" horiz-adv-x="1809" d="M102 355q0 172 55.5 276t131.5 145q78 43 154 43q153 0 223 -149q74 149 252 149q61 0 126.5 -36.5t108.5 -112.5q76 149 248 149q74 0 143 -38q70 -37 117 -113q45 -76 45 -180q0 -158 -94 -332h-143q93 153 93 334q0 106 -52 168q-54 59 -119 59q-60 0 -115 -45 q-55 -47 -55 -176v-193h-143v193q-1 125 -54 174q-51 47 -114 47q-72 0 -123.5 -49t-51.5 -143v-222h-143v207q0 113 -45 160t-102 47q-199 0 -199 -358q0 -172 49 -277t129 -154q78 -47 158 -60.5t205 -19.5q659 -37 704 -422h-168q-24 166 -190 234q-166 69 -447 69h-524 v119h172q-232 167 -232 507z" />
<glyph unicode="&#xcc;" horiz-adv-x="1043" d="M102 383q0 144 60 242q59 100 153.5 147t198.5 47q62 0 131 -28q70 -31 131 -101v369q0 272 -239 272q-94 0 -146 -45q-53 -43 -71 -94q-17 -53 -17 -90q0 -76 4 -115h-143q-5 29 -5 84q0 121 56 203t142 120q88 39 188 39q86 0 166 -32q80 -35 135 -113q53 -79 53 -208 v-693q0 -143 -47 -239q-49 -97 -135 -144q-84 -45 -197 -45q-120 0 -217 56q-94 53 -147.5 149t-53.5 219zM246 383q0 -114 39 -186q39 -74 99.5 -105t125.5 -31q92 0 170 70q75 72 75 271q0 182 -81 247q-82 68 -170 68q-98 0 -178 -78t-80 -256z" />
<glyph unicode="&#x41c;" horiz-adv-x="1043" d="M102 383q0 144 60 242q59 100 153.5 147t198.5 47q62 0 131 -28q70 -31 131 -101v369q0 272 -239 272q-94 0 -146 -45q-53 -43 -71 -94q-17 -53 -17 -90q0 -76 4 -115h-143q-5 29 -5 84q0 121 56 203t142 120q88 39 188 39q86 0 166 -32q80 -35 135 -113q53 -79 53 -208 v-693q0 -143 -47 -239q-49 -97 -135 -144q-84 -45 -197 -45q-120 0 -217 56q-94 53 -147.5 149t-53.5 219zM246 383q0 -114 39 -186q39 -74 99.5 -105t125.5 -31q92 0 170 70q75 72 75 271q0 182 -81 247q-82 68 -170 68q-98 0 -178 -78t-80 -256z" />
<glyph unicode="&#xcd;" horiz-adv-x="1043" d="M143 414v686q0 68 27 144.5t98.5 132.5t194.5 56q68 0 141 -16q121 -23 160 -23q62 0 125 39v-137q-49 -28 -106 -28q-31 0 -58 4q-26 6 -65 16q-41 11 -68 19q-70 18 -145 18q-64 0 -123 -45q-58 -45 -58 -180v-399q119 118 283 118q98 0 189 -47q90 -45 145 -141 q57 -98 57 -240q0 -145 -57 -241q-57 -99 -152 -144q-94 -47 -202 -47q-142 0 -263 99q-123 98 -123 356zM287 410q0 -205 78 -277q76 -72 168 -72q106 0 184 81q79 77 79 247q0 119 -40 193q-39 74 -98 104q-60 31 -119 31q-51 0 -109 -22q-55 -25 -100 -93 q-43 -69 -43 -192z" />
<glyph unicode="&#x41d;" horiz-adv-x="1043" d="M143 414v686q0 68 27 144.5t98.5 132.5t194.5 56q68 0 141 -16q121 -23 160 -23q62 0 125 39v-137q-49 -28 -106 -28q-31 0 -58 4q-26 6 -65 16q-41 11 -68 19q-70 18 -145 18q-64 0 -123 -45q-58 -45 -58 -180v-399q119 118 283 118q98 0 189 -47q90 -45 145 -141 q57 -98 57 -240q0 -145 -57 -241q-57 -99 -152 -144q-94 -47 -202 -47q-142 0 -263 99q-123 98 -123 356zM287 410q0 -205 78 -277q76 -72 168 -72q106 0 184 81q79 77 79 247q0 119 -40 193q-39 74 -98 104q-60 31 -119 31q-51 0 -109 -22q-55 -25 -100 -93 q-43 -69 -43 -192z" />
<glyph unicode="&#xce;" horiz-adv-x="832" d="M86 -37v82q97 4 250 60q-88 41 -162 118q-73 78 -73 211q0 93 39 166q36 72 108 113t168 41t168 -41t108 -113q39 -73 39 -166q0 -133 -73 -211q-74 -77 -162 -118q151 -54 250 -60v-82q-97 12 -166 33q-70 19 -164 57q-164 -68 -330 -90zM195 439q0 -193 221 -293 q221 100 221 293q0 100 -55 166.5t-166 66.5t-166 -66.5t-55 -166.5z" />
<glyph unicode="&#x41e;" horiz-adv-x="832" d="M86 -37v82q97 4 250 60q-88 41 -162 118q-73 78 -73 211q0 93 39 166q36 72 108 113t168 41t168 -41t108 -113q39 -73 39 -166q0 -133 -73 -211q-74 -77 -162 -118q151 -54 250 -60v-82q-97 12 -166 33q-70 19 -164 57q-164 -68 -330 -90zM195 439q0 -193 221 -293 q221 100 221 293q0 100 -55 166.5t-166 66.5t-166 -66.5t-55 -166.5z" />
<glyph unicode="&#xcf;" horiz-adv-x="1479" d="M102 434q0 121 50 207q47 88 127 133t172 45q182 0 289 -161q102 161 309 161q82 0 158 -43q73 -45 122 -131q48 -88 48 -211q0 -196 -150 -434h-123q57 97 92 213q37 119 37 217q0 99 -31 162q-30 66 -81 96q-50 29 -107 29q-88 0 -152 -59q-61 -60 -61 -162v-203h-123 v203q0 69 -29 119q-28 51 -77 75q-50 27 -107 27t-106.5 -29.5t-81.5 -95.5q-31 -63 -31 -162q0 -98 37 -217q37 -116 92 -213h-123q-69 119 -111 223q-39 103 -39 211z" />
<glyph unicode="&#x41f;" horiz-adv-x="1479" d="M102 434q0 121 50 207q47 88 127 133t172 45q182 0 289 -161q102 161 309 161q82 0 158 -43q73 -45 122 -131q48 -88 48 -211q0 -196 -150 -434h-123q57 97 92 213q37 119 37 217q0 99 -31 162q-30 66 -81 96q-50 29 -107 29q-88 0 -152 -59q-61 -60 -61 -162v-203h-123 v203q0 69 -29 119q-28 51 -77 75q-50 27 -107 27t-106.5 -29.5t-81.5 -95.5q-31 -63 -31 -162q0 -98 37 -217q37 -116 92 -213h-123q-69 119 -111 223q-39 103 -39 211z" />
<glyph unicode="&#xd0;" horiz-adv-x="1043" d="M102 299q0 105 38 189h145q-39 -99 -39 -181q0 -124 76 -184q78 -62 170 -62q78 0 139 40q59 36 92 104q32 70 32 156q0 67 -20 127q-22 57 -65 94q-43 35 -107 35h-86v103h86h2q79 0 129 63q51 63 51 133q0 63 -26 100q-25 37 -68 59q-41 21 -121 52q-79 28 -124 51 q-70 35 -101 78q-30 43 -30 116q0 35 8 62h137q-2 -19 -2 -51q0 -50 27 -80q24 -31 61 -47q39 -19 98 -35q62 -19 84 -29q201 -82 201 -268q0 -111 -57.5 -172.5t-128.5 -89.5q196 -86 196 -336q0 -84 -28 -152q-27 -67 -82 -114q-54 -50 -129 -77q-78 -24 -168 -24 q-119 0 -207 45q-90 47 -136.5 125t-46.5 170z" />
<glyph unicode="&#x420;" horiz-adv-x="1043" d="M102 299q0 105 38 189h145q-39 -99 -39 -181q0 -124 76 -184q78 -62 170 -62q78 0 139 40q59 36 92 104q32 70 32 156q0 67 -20 127q-22 57 -65 94q-43 35 -107 35h-86v103h86h2q79 0 129 63q51 63 51 133q0 63 -26 100q-25 37 -68 59q-41 21 -121 52q-79 28 -124 51 q-70 35 -101 78q-30 43 -30 116q0 35 8 62h137q-2 -19 -2 -51q0 -50 27 -80q24 -31 61 -47q39 -19 98 -35q62 -19 84 -29q201 -82 201 -268q0 -111 -57.5 -172.5t-128.5 -89.5q196 -86 196 -336q0 -84 -28 -152q-27 -67 -82 -114q-54 -50 -129 -77q-78 -24 -168 -24 q-119 0 -207 45q-90 47 -136.5 125t-46.5 170z" />
<glyph unicode="&#xd1;" horiz-adv-x="1168" d="M103 406q0 53 45 119h141q-43 -60 -43 -111q0 -82 45 -121q45 -37 111 -37q73 0 110 45q35 45 35 107q0 94 -90 141v148q41 -9 92 -9q201 0 352 131h123v-987q0 -150 -39 -246q-39 -98 -125 -149q-88 -51 -225 -51q-125 0 -215 49q-92 49 -142 133q-47 82 -47 180 q0 133 91 252h143q-90 -109 -90 -250q0 -78 33 -137q31 -60 90 -92.5t135 -32.5q111 0 191 65q77 68 77 238v879q-137 -84 -317 -105q106 -55 106 -163q0 -105 -79 -176q-78 -72 -222 -72q-98 0 -161 39q-66 39 -95.5 96t-29.5 117z" />
<glyph unicode="&#x421;" horiz-adv-x="1168" d="M103 406q0 53 45 119h141q-43 -60 -43 -111q0 -82 45 -121q45 -37 111 -37q73 0 110 45q35 45 35 107q0 94 -90 141v148q41 -9 92 -9q201 0 352 131h123v-987q0 -150 -39 -246q-39 -98 -125 -149q-88 -51 -225 -51q-125 0 -215 49q-92 49 -142 133q-47 82 -47 180 q0 133 91 252h143q-90 -109 -90 -250q0 -78 33 -137q31 -60 90 -92.5t135 -32.5q111 0 191 65q77 68 77 238v879q-137 -84 -317 -105q106 -55 106 -163q0 -105 -79 -176q-78 -72 -222 -72q-98 0 -161 39q-66 39 -95.5 96t-29.5 117z" />
<glyph unicode="&#xd2;" horiz-adv-x="1479" d="M102 486q0 149 51 262q52 112 131 188q81 76 167 123q88 47 184 82q199 74 287 113t133 79q45 44 45 101h150q-17 -141 -119.5 -213t-309.5 -144q-208 -69 -337 -139q-131 -69 -209 -207q80 88 202 88q70 0 141.5 -38.5t121.5 -122.5q98 161 292 161q91 0 169.5 -45 t127.5 -131q48 -88 48 -209q0 -196 -150 -434h-123q57 97 92 213q37 119 37 217q0 99 -31 162q-30 66 -81 96q-50 29 -107 29q-88 0 -152 -59q-61 -60 -61 -162v-203h-123v203q0 69 -29 119q-28 51 -77 75q-50 27 -107 27t-106.5 -29.5t-81.5 -95.5q-31 -63 -31 -162 q0 -98 37 -217q37 -116 92 -213h-123q-82 142 -117 252q-33 113 -33 234z" />
<glyph unicode="&#x422;" horiz-adv-x="1479" d="M102 486q0 149 51 262q52 112 131 188q81 76 167 123q88 47 184 82q199 74 287 113t133 79q45 44 45 101h150q-17 -141 -119.5 -213t-309.5 -144q-208 -69 -337 -139q-131 -69 -209 -207q80 88 202 88q70 0 141.5 -38.5t121.5 -122.5q98 161 292 161q91 0 169.5 -45 t127.5 -131q48 -88 48 -209q0 -196 -150 -434h-123q57 97 92 213q37 119 37 217q0 99 -31 162q-30 66 -81 96q-50 29 -107 29q-88 0 -152 -59q-61 -60 -61 -162v-203h-123v203q0 69 -29 119q-28 51 -77 75q-50 27 -107 27t-106.5 -29.5t-81.5 -95.5q-31 -63 -31 -162 q0 -98 37 -217q37 -116 92 -213h-123q-82 142 -117 252q-33 113 -33 234z" />
<glyph unicode="&#xd3;" horiz-adv-x="1082" d="M144 1434h143v-1034q0 -86 14.5 -156t77.5 -125q62 -58 191 -58q73 0 135 31q59 33 96 95q34 63 34 147q0 96 -30 137q-33 41 -100 103q-66 59 -66 102q0 76 39 137l125 6q-22 -45 -22 -73q0 -43 10 -74q12 -31 26 -49q17 -21 58 -64q53 -53 78 -104q26 -49 26 -121 q0 -98 -47 -184t-143 -137q-97 -54 -234 -54q-239 0 -315 140q-76 137 -76 301v933q0 44 -20 101z" />
<glyph unicode="&#x423;" horiz-adv-x="1082" d="M144 1434h143v-1034q0 -86 14.5 -156t77.5 -125q62 -58 191 -58q73 0 135 31q59 33 96 95q34 63 34 147q0 96 -30 137q-33 41 -100 103q-66 59 -66 102q0 76 39 137l125 6q-22 -45 -22 -73q0 -43 10 -74q12 -31 26 -49q17 -21 58 -64q53 -53 78 -104q26 -49 26 -121 q0 -98 -47 -184t-143 -137q-97 -54 -234 -54q-239 0 -315 140q-76 137 -76 301v933q0 44 -20 101z" />
<glyph unicode="&#xd4;" horiz-adv-x="1536" d="M102 70q0 235 154 489h146q-156 -256 -156 -493q0 -175 72 -308q69 -131 192 -201q123 -69 271 -69q98 0 190 39t164 115.5t115 191.5q40 113 40 258q0 154 -45 256q-47 101 -116 154q-70 55 -162 88q76 -80 76 -190q0 -91 -37 -160q-35 -70 -98.5 -109t-139.5 -39 q-84 0 -147 41q-64 43 -97 113q-35 70 -35 152q0 165 156 249q-156 76 -156 254q0 80 38 148q34 67 98 104q61 39 139 39q76 0 140.5 -39t101.5 -102q37 -66 37 -143q0 -138 -113 -230q127 -24 242 -94q112 -68 188 -191q74 -122 74 -299q0 -176 -71 -340 q-75 -162 -226 -266q-152 -102 -375 -102q-203 0 -352.5 92t-229.5 249q-78 158 -78 343zM592 396q0 -97 51 -150q49 -52 127 -52q70 0 121 54q49 51 49 152q0 96 -51 143q-53 49 -111 49q-75 0 -131 -51q-55 -51 -55 -145zM592 901q0 -67 27 -112q24 -49 65 -72 q41 -25 84 -25q76 0 125 66q47 63 47 145q0 45 -18.5 88t-56.5 72q-39 27 -93 27q-67 0 -125 -47q-55 -45 -55 -142z" />
<glyph unicode="&#x424;" horiz-adv-x="1536" d="M102 70q0 235 154 489h146q-156 -256 -156 -493q0 -175 72 -308q69 -131 192 -201q123 -69 271 -69q98 0 190 39t164 115.5t115 191.5q40 113 40 258q0 154 -45 256q-47 101 -116 154q-70 55 -162 88q76 -80 76 -190q0 -91 -37 -160q-35 -70 -98.5 -109t-139.5 -39 q-84 0 -147 41q-64 43 -97 113q-35 70 -35 152q0 165 156 249q-156 76 -156 254q0 80 38 148q34 67 98 104q61 39 139 39q76 0 140.5 -39t101.5 -102q37 -66 37 -143q0 -138 -113 -230q127 -24 242 -94q112 -68 188 -191q74 -122 74 -299q0 -176 -71 -340 q-75 -162 -226 -266q-152 -102 -375 -102q-203 0 -352.5 92t-229.5 249q-78 158 -78 343zM592 396q0 -97 51 -150q49 -52 127 -52q70 0 121 54q49 51 49 152q0 96 -51 143q-53 49 -111 49q-75 0 -131 -51q-55 -51 -55 -145zM592 901q0 -67 27 -112q24 -49 65 -72 q41 -25 84 -25q76 0 125 66q47 63 47 145q0 45 -18.5 88t-56.5 72q-39 27 -93 27q-67 0 -125 -47q-55 -45 -55 -142z" />
<glyph unicode="&#xd5;" horiz-adv-x="795" d="M28 -305q0 178 122 276l49 -47q-76 -76 -76 -221q0 -113 74 -182q76 -70 186 -70q113 0 169.5 51t74.5 137q16 84 16 213q0 322 -196 322q-78 0 -125 -47l-51 47l276 461h-434v82h575l-288 -481q41 12 79 12q160 0 209 -119q50 -119 50 -277q0 -149 -25 -254 q-25 -102 -107 -166q-79 -63 -235 -63q-109 0 -186 41q-78 43 -117.5 116.5t-39.5 168.5z" />
<glyph unicode="&#x425;" horiz-adv-x="795" d="M28 -305q0 178 122 276l49 -47q-76 -76 -76 -221q0 -113 74 -182q76 -70 186 -70q113 0 169.5 51t74.5 137q16 84 16 213q0 322 -196 322q-78 0 -125 -47l-51 47l276 461h-434v82h575l-288 -481q41 12 79 12q160 0 209 -119q50 -119 50 -277q0 -149 -25 -254 q-25 -102 -107 -166q-79 -63 -235 -63q-109 0 -186 41q-78 43 -117.5 116.5t-39.5 168.5z" />
<glyph unicode="&#xd6;" horiz-adv-x="1420" d="M61 654q0 92 79 165h143q-78 -90 -78 -165q0 -56 27 -86q24 -31 55 -31q53 0 92 41q37 41 82 110q37 60 80 97q41 34 106 34q45 0 92.5 -28.5t65.5 -102.5q68 131 240 131q61 0 114 -28q54 -27 84 -88q33 -60 33 -152v-664q0 -104 -26 -196q-27 -91 -82 -160 q-58 -68 -144 -106.5t-203 -38.5q-141 0 -258 55q-114 53 -178 145t-64 199q0 121 58 215h131q-45 -84 -45 -215q0 -90 47 -158t127 -102q78 -37 170 -37q148 0 225 78q76 75 99 161q20 86 20 146v676q0 168 -153 168q-60 0 -103 -45q-45 -45 -45 -139v-285h-123v285 q0 86 -14 135t-68 49q-30 0 -57 -31q-29 -30 -68 -92q-40 -61 -57 -80q-78 -80 -178 -80q-107 0 -166.5 63.5t-59.5 156.5z" />
<glyph unicode="&#x426;" horiz-adv-x="1420" d="M61 654q0 92 79 165h143q-78 -90 -78 -165q0 -56 27 -86q24 -31 55 -31q53 0 92 41q37 41 82 110q37 60 80 97q41 34 106 34q45 0 92.5 -28.5t65.5 -102.5q68 131 240 131q61 0 114 -28q54 -27 84 -88q33 -60 33 -152v-664q0 -104 -26 -196q-27 -91 -82 -160 q-58 -68 -144 -106.5t-203 -38.5q-141 0 -258 55q-114 53 -178 145t-64 199q0 121 58 215h131q-45 -84 -45 -215q0 -90 47 -158t127 -102q78 -37 170 -37q148 0 225 78q76 75 99 161q20 86 20 146v676q0 168 -153 168q-60 0 -103 -45q-45 -45 -45 -139v-285h-123v285 q0 86 -14 135t-68 49q-30 0 -57 -31q-29 -30 -68 -92q-40 -61 -57 -80q-78 -80 -178 -80q-107 0 -166.5 63.5t-59.5 156.5z" />
<glyph unicode="&#xd7;" horiz-adv-x="1551" d="M102 455q0 106 52 190q51 82 141 129q88 45 195 45q209 0 317 -157q105 157 303 157q80 0 148 -41q67 -43 108 -120q41 -80 41 -189q0 -151 -74 -219q-73 -67 -149 -92q109 -18 166 -105.5t57 -216.5q0 -145 -51 -238q-53 -92 -129 -137q-78 -44 -150 -61 q-73 -14 -124 -14q-224 0 -342 89q-54 41 -95 117q-41 74 -41 185q0 73 37 143h133q-26 -70 -26 -150q0 -139 86 -211q84 -71 239 -71q144 0 215 63q72 62 88 134.5t16 148.5q0 260 -249 260v123q80 0 136.5 33t84.5 91.5t28 131.5q0 82 -26 138q-24 53 -67 79 q-45 27 -99 27q-192 0 -198 -281q-4 -102 -54 -184q-49 -84 -137 -131t-198 -47q-84 0 -156 30.5t-121 84.5q-51 53 -78 120q-27 70 -27 146zM246 469q0 -127 63 -211q64 -82 191 -82q117 0 174 82q55 82 55 213q0 127 -71.5 186.5t-165.5 59.5q-105 0 -174 -68 q-72 -69 -72 -180z" />
<glyph unicode="&#x427;" horiz-adv-x="1551" d="M102 455q0 106 52 190q51 82 141 129q88 45 195 45q209 0 317 -157q105 157 303 157q80 0 148 -41q67 -43 108 -120q41 -80 41 -189q0 -151 -74 -219q-73 -67 -149 -92q109 -18 166 -105.5t57 -216.5q0 -145 -51 -238q-53 -92 -129 -137q-78 -44 -150 -61 q-73 -14 -124 -14q-224 0 -342 89q-54 41 -95 117q-41 74 -41 185q0 73 37 143h133q-26 -70 -26 -150q0 -139 86 -211q84 -71 239 -71q144 0 215 63q72 62 88 134.5t16 148.5q0 260 -249 260v123q80 0 136.5 33t84.5 91.5t28 131.5q0 82 -26 138q-24 53 -67 79 q-45 27 -99 27q-192 0 -198 -281q-4 -102 -54 -184q-49 -84 -137 -131t-198 -47q-84 0 -156 30.5t-121 84.5q-51 53 -78 120q-27 70 -27 146zM246 469q0 -127 63 -211q64 -82 191 -82q117 0 174 82q55 82 55 213q0 127 -71.5 186.5t-165.5 59.5q-105 0 -174 -68 q-72 -69 -72 -180z" />
<glyph unicode="&#xd8;" horiz-adv-x="1039" d="M102 -252q0 125 91 252h144q-91 -107 -91 -250q0 -90 41 -150q39 -59 98 -86q60 -26 121 -26q266 0 266 344v623q0 35 -28 78q-29 45 -78 73q-49 31 -111 31q-78 0 -131 -53q-53 -51 -53 -186q0 -19 4 -48h-131q-16 50 -16 111q0 74 36 139q37 64 103 103q67 36 149 36 q158 0 256 -124v807h123v-1586q0 -186 -74 -320q-73 -130 -321 -130q-119 0 -209 49q-90 47 -139 131q-50 81 -50 182z" />
<glyph unicode="&#x428;" horiz-adv-x="1039" d="M102 -252q0 125 91 252h144q-91 -107 -91 -250q0 -90 41 -150q39 -59 98 -86q60 -26 121 -26q266 0 266 344v623q0 35 -28 78q-29 45 -78 73q-49 31 -111 31q-78 0 -131 -53q-53 -51 -53 -186q0 -19 4 -48h-131q-16 50 -16 111q0 74 36 139q37 64 103 103q67 36 149 36 q158 0 256 -124v807h123v-1586q0 -186 -74 -320q-73 -130 -321 -130q-119 0 -209 49q-90 47 -139 131q-50 81 -50 182z" />
<glyph unicode="&#xd9;" horiz-adv-x="1520" d="M102 381q0 150 60 250q59 98 149.5 143t184.5 45q84 0 151 -43q68 -45 111 -118q59 82 143 120q84 41 181 41q84 0 161 -43q78 -45 125 -129q49 -84 49 -198q0 -129 -106 -291h-143q53 70 79 143q27 74 27 140q0 133 -61 204q-60 72 -156 72t-168 -70q-70 -71 -70 -184 v-166h-123v166q0 86 -30 143q-33 56 -82 83.5t-105 27.5q-90 0 -161 -80q-72 -82 -72 -260q0 -203 109 -340q106 -140 280 -170q62 -11 184 -31q121 -23 220 -64q96 -41 172 -125q75 -86 100 -221h-176q-14 101 -84 166q-70 66 -172.5 100.5t-206.5 47.5q-107 12 -207 12 q-65 0 -299 -10v121h187q-111 86 -166 199q-56 110 -71 190q-14 82 -14 129z" />
<glyph unicode="&#x429;" horiz-adv-x="1520" d="M102 381q0 150 60 250q59 98 149.5 143t184.5 45q84 0 151 -43q68 -45 111 -118q59 82 143 120q84 41 181 41q84 0 161 -43q78 -45 125 -129q49 -84 49 -198q0 -129 -106 -291h-143q53 70 79 143q27 74 27 140q0 133 -61 204q-60 72 -156 72t-168 -70q-70 -71 -70 -184 v-166h-123v166q0 86 -30 143q-33 56 -82 83.5t-105 27.5q-90 0 -161 -80q-72 -82 -72 -260q0 -203 109 -340q106 -140 280 -170q62 -11 184 -31q121 -23 220 -64q96 -41 172 -125q75 -86 100 -221h-176q-14 101 -84 166q-70 66 -172.5 100.5t-206.5 47.5q-107 12 -207 12 q-65 0 -299 -10v121h187q-111 86 -166 199q-56 110 -71 190q-14 82 -14 129z" />
<glyph unicode="&#xda;" horiz-adv-x="1039" d="M102 -252q0 125 91 252h143q-90 -107 -90 -250q0 -70 31 -129q30 -62 90 -96q59 -37 139 -37q55 0 115 20q57 21 104 93.5t47 209.5v464q-125 -103 -262 -103q-139 0 -239.5 86t-100.5 250q0 76 26 156q27 82 79 155h143q-31 -41 -68 -122q-36 -82 -36 -181 q0 -77 32 -133q33 -55 82 -82q49 -26 99 -26q71 0 141 37q70 34 104 104v403h123v-1008q0 -200 -98 -313q-100 -112 -297 -112q-121 0 -211 49q-92 47 -139 131q-48 81 -48 182z" />
<glyph unicode="&#x42a;" horiz-adv-x="1039" d="M102 -252q0 125 91 252h143q-90 -107 -90 -250q0 -70 31 -129q30 -62 90 -96q59 -37 139 -37q55 0 115 20q57 21 104 93.5t47 209.5v464q-125 -103 -262 -103q-139 0 -239.5 86t-100.5 250q0 76 26 156q27 82 79 155h143q-31 -41 -68 -122q-36 -82 -36 -181 q0 -77 32 -133q33 -55 82 -82q49 -26 99 -26q71 0 141 37q70 34 104 104v403h123v-1008q0 -200 -98 -313q-100 -112 -297 -112q-121 0 -211 49q-92 47 -139 131q-48 81 -48 182z" />
<glyph unicode="&#xdb;" horiz-adv-x="1086" d="M41 1247v144q90 83 228 83h2q122 0 184 -128q78 128 244 128q53 0 108 -22q55 -24 94 -92q41 -67 41 -188v-772q0 -115 -43 -215q-43 -103 -131 -164q-86 -62 -211 -62q-106 0 -198 47q-97 47 -154 146q-60 98 -60 239q0 125 50 224q51 96 143 151q90 53 209 53 q168 0 272 -118v510q0 75 -41 118q-38 43 -102 43q-70 0 -113 -43q-43 -45 -43 -116v-164h-102v158q0 77 -47 120q-47 45 -117 45q-57 0 -114.5 -32.5t-98.5 -92.5zM289 389q0 -170 80 -247q80 -81 184 -81q90 0 168 72q77 70 77 256q0 179 -77.5 253.5t-173.5 74.5 q-59 0 -119 -31q-59 -30 -98 -104q-41 -74 -41 -193z" />
<glyph unicode="&#x42b;" horiz-adv-x="1086" d="M41 1247v144q90 83 228 83h2q122 0 184 -128q78 128 244 128q53 0 108 -22q55 -24 94 -92q41 -67 41 -188v-772q0 -115 -43 -215q-43 -103 -131 -164q-86 -62 -211 -62q-106 0 -198 47q-97 47 -154 146q-60 98 -60 239q0 125 50 224q51 96 143 151q90 53 209 53 q168 0 272 -118v510q0 75 -41 118q-38 43 -102 43q-70 0 -113 -43q-43 -45 -43 -116v-164h-102v158q0 77 -47 120q-47 45 -117 45q-57 0 -114.5 -32.5t-98.5 -92.5zM289 389q0 -170 80 -247q80 -81 184 -81q90 0 168 72q77 70 77 256q0 179 -77.5 253.5t-173.5 74.5 q-59 0 -119 -31q-59 -30 -98 -104q-41 -74 -41 -193z" />
<glyph unicode="&#xdc;" d="M143 0v1110q0 123 54 205q55 82 139 120q86 39 178 39t166 -32q72 -33 113 -90q41 -55 41 -125q0 -78 -53 -143q-56 -68 -183 -111t-332 -45v-254q117 145 316 145q90 0 168 -45q78 -43 125 -129q47 -84 47 -198q0 -230 -154 -447h-143q84 123 119 230q35 104 35 206 q0 97 -39 160q-37 64 -95 92q-59 29 -116 29q-68 0 -129.5 -37t-96.5 -90q-37 -55 -37 -106v-484h-123zM266 1006q197 12 312 61q112 49 112 172q0 49 -45 92q-45 41 -123 41q-104 0 -180 -65.5t-76 -192.5v-108z" />
<glyph unicode="&#x42c;" d="M143 0v1110q0 123 54 205q55 82 139 120q86 39 178 39t166 -32q72 -33 113 -90q41 -55 41 -125q0 -78 -53 -143q-56 -68 -183 -111t-332 -45v-254q117 145 316 145q90 0 168 -45q78 -43 125 -129q47 -84 47 -198q0 -230 -154 -447h-143q84 123 119 230q35 104 35 206 q0 97 -39 160q-37 64 -95 92q-59 29 -116 29q-68 0 -129.5 -37t-96.5 -90q-37 -55 -37 -106v-484h-123zM266 1006q197 12 312 61q112 49 112 172q0 49 -45 92q-45 41 -123 41q-104 0 -180 -65.5t-76 -192.5v-108z" />
<glyph unicode="&#xdd;" horiz-adv-x="1458" d="M144 117q0 88 25 203q22 116 79 248q57 129 154 251h143q-84 -118 -143.5 -235t-89.5 -242q-33 -129 -33 -272q0 -119 21 -201q89 -381 483 -381q122 0 211 43q86 43 131 119q42 75 42 170q0 81 -28.5 143t-83.5 94.5t-133 32.5h-129v123h129q100 0 174.5 31t74.5 133 q0 84 -98 127q-43 21 -125 55q-81 35 -108 54q-29 20 -39 49q-12 28 -12 84q0 49 4 73h143q-6 -24 -6 -51q0 -41 10 -63q8 -23 43 -45q33 -21 109 -49q106 -39 166 -89q57 -51 57 -147q0 -70 -47 -139.5t-164 -93.5q94 -35 152 -115q55 -80 55 -191t-53 -213 q-56 -105 -172 -170q-121 -67 -301 -67q-158 0 -271 47q-112 49 -182 120q-70 74 -102 142q-35 65 -53 131q-33 114 -33 291z" />
<glyph unicode="&#x42d;" horiz-adv-x="1458" d="M144 117q0 88 25 203q22 116 79 248q57 129 154 251h143q-84 -118 -143.5 -235t-89.5 -242q-33 -129 -33 -272q0 -119 21 -201q89 -381 483 -381q122 0 211 43q86 43 131 119q42 75 42 170q0 81 -28.5 143t-83.5 94.5t-133 32.5h-129v123h129q100 0 174.5 31t74.5 133 q0 84 -98 127q-43 21 -125 55q-81 35 -108 54q-29 20 -39 49q-12 28 -12 84q0 49 4 73h143q-6 -24 -6 -51q0 -41 10 -63q8 -23 43 -45q33 -21 109 -49q106 -39 166 -89q57 -51 57 -147q0 -70 -47 -139.5t-164 -93.5q94 -35 152 -115q55 -80 55 -191t-53 -213 q-56 -105 -172 -170q-121 -67 -301 -67q-158 0 -271 47q-112 49 -182 120q-70 74 -102 142q-35 65 -53 131q-33 114 -33 291z" />
<glyph unicode="&#xde;" horiz-adv-x="1043" d="M102 383q0 123 52 223q49 101 141 158q92 55 209 55q156 0 272 -129v744h123v-1081q0 -127 -53 -218q-53 -90 -141 -133t-195 -43q-114 0 -209 54q-92 51 -145 149q-54 96 -54 221zM246 383q0 -114 39 -188q37 -72 97.5 -103t127.5 -31q245 0 245 341q0 186 -79 252 q-80 63 -172 63q-59 0 -119 -31q-57 -30 -98 -106q-41 -74 -41 -197z" />
<glyph unicode="&#x42e;" horiz-adv-x="1043" d="M102 383q0 123 52 223q49 101 141 158q92 55 209 55q156 0 272 -129v744h123v-1081q0 -127 -53 -218q-53 -90 -141 -133t-195 -43q-114 0 -209 54q-92 51 -145 149q-54 96 -54 221zM246 383q0 -114 39 -188q37 -72 97.5 -103t127.5 -31q245 0 245 341q0 186 -79 252 q-80 63 -172 63q-59 0 -119 -31q-57 -30 -98 -106q-41 -74 -41 -197z" />
<glyph unicode="&#xdf;" horiz-adv-x="1086" d="M143 400v772q0 174 76 237q76 65 168 65h2q165 0 234 -128q67 128 194 128q138 0 228 -83v-144q-41 60 -99 93q-57 32 -114 32q-72 0 -117 -45q-47 -43 -47 -120v-158h-102l-1 164q0 71 -43 116q-43 43 -112 43q-64 0 -103 -43q-41 -43 -41 -118v-510q105 118 273 118 q119 0 211 -53q90 -55 141 -151q49 -99 49 -224q0 -127 -51 -223q-51 -100 -143 -153q-94 -56 -217 -56q-105 0 -193 49q-88 50 -139 148q-54 100 -54 244zM287 389q0 -129 41 -202.5t96 -98.5q55 -27 109 -27q106 0 186 79q77 77 77 249q0 119 -40 193q-39 74 -98 104 q-60 31 -119 31q-96 0 -174 -74.5t-78 -253.5z" />
<glyph unicode="&#x42f;" horiz-adv-x="1086" d="M143 400v772q0 174 76 237q76 65 168 65h2q165 0 234 -128q67 128 194 128q138 0 228 -83v-144q-41 60 -99 93q-57 32 -114 32q-72 0 -117 -45q-47 -43 -47 -120v-158h-102l-1 164q0 71 -43 116q-43 43 -112 43q-64 0 -103 -43q-41 -43 -41 -118v-510q105 118 273 118 q119 0 211 -53q90 -55 141 -151q49 -99 49 -224q0 -127 -51 -223q-51 -100 -143 -153q-94 -56 -217 -56q-105 0 -193 49q-88 50 -139 148q-54 100 -54 244zM287 389q0 -129 41 -202.5t96 -98.5q55 -27 109 -27q106 0 186 79q77 77 77 249q0 119 -40 193q-39 74 -98 104 q-60 31 -119 31q-96 0 -174 -74.5t-78 -253.5z" />
<glyph unicode="&#xe0;" horiz-adv-x="1180" d="M102 -252q0 125 91 252h143q-90 -107 -90 -250q0 -115 72 -189q69 -73 184 -73q141 0 205 80q65 79 65 243v585q-104 -154 -288 -154q-86 0 -154 39q-67 39 -106 106q-37 66 -37 144t37 143q37 68 106 107q70 38 162 38q149 0 280 -163v778h123v-791l244 289v-172 l-244 -227l244 -226v-217l-244 346v-584q0 -116 -22 -215q-25 -100 -115 -176q-90 -75 -268 -75q-115 0 -203 46q-88 50 -137 132q-48 81 -48 184zM330 535q0 -90 53 -139q53 -52 119 -52q74 0 152 58q75 55 118 133q-69 88 -135 135q-65 47 -143 47q-62 0 -113 -49 q-51 -51 -51 -133z" />
<glyph unicode="&#x430;" horiz-adv-x="1180" d="M102 -252q0 125 91 252h143q-90 -107 -90 -250q0 -115 72 -189q69 -73 184 -73q141 0 205 80q65 79 65 243v585q-104 -154 -288 -154q-86 0 -154 39q-67 39 -106 106q-37 66 -37 144t37 143q37 68 106 107q70 38 162 38q149 0 280 -163v778h123v-791l244 289v-172 l-244 -227l244 -226v-217l-244 346v-584q0 -116 -22 -215q-25 -100 -115 -176q-90 -75 -268 -75q-115 0 -203 46q-88 50 -137 132q-48 81 -48 184zM330 535q0 -90 53 -139q53 -52 119 -52q74 0 152 58q75 55 118 133q-69 88 -135 135q-65 47 -143 47q-62 0 -113 -49 q-51 -51 -51 -133z" />
<glyph unicode="&#xe1;" horiz-adv-x="1043" d="M143 353v1081h123v-744l299 334h160l-194 -205q106 0 200 -47q95 -47 152 -145t57 -244q0 -141 -59 -235q-60 -97 -154 -144q-92 -45 -194 -45q-97 0 -187 45q-88 45 -145.5 135.5t-57.5 213.5zM287 402q0 -183 70 -260q71 -81 176 -81q67 0 127 31q59 33 97.5 105 t38.5 186q0 123 -40 197q-41 76 -98 106q-60 31 -119 31q-92 0 -172 -63q-80 -66 -80 -252z" />
<glyph unicode="&#x431;" horiz-adv-x="1043" d="M143 353v1081h123v-744l299 334h160l-194 -205q106 0 200 -47q95 -47 152 -145t57 -244q0 -141 -59 -235q-60 -97 -154 -144q-92 -45 -194 -45q-97 0 -187 45q-88 45 -145.5 135.5t-57.5 213.5zM287 402q0 -183 70 -260q71 -81 176 -81q67 0 127 31q59 33 97.5 105 t38.5 186q0 123 -40 197q-41 76 -98 106q-60 31 -119 31q-92 0 -172 -63q-80 -66 -80 -252z" />
<glyph unicode="&#xe2;" horiz-adv-x="832" d="M28 -320q0 113 75 191l51 -41q-31 -62 -31 -137q0 -97 66 -168q65 -74 180 -74q94 0 157.5 45t94.5 118.5t31 157.5q0 136 -80 226t-263 90q-6 0 -22 -2h-23v88q101 0 181 35t125 96q43 60 43 138q0 55 -25 98q-27 43 -63 74q-37 28 -82 55q-47 25 -97 53 q-262 160 -262 420q0 94 33 178t98 133q66 52 160 52q76 0 137 -29q62 -29 96.5 -82t34.5 -121q0 -63 -37 -127q-36 -63 -100 -100l-43 45q86 51 86 176q0 84 -53 121q-51 35 -115 35q-51 0 -98 -31t-76 -90q-29 -62 -29 -144q0 -94 35 -161q37 -68 92 -113q56 -45 138 -94 q125 -74 195 -148q69 -71 69 -184q0 -80 -47 -168q-49 -90 -203 -139v-12q133 -15 211 -115q78 -99 78 -251q0 -116 -45 -208.5t-131 -143.5q-86 -53 -205 -53q-162 0 -248 94q-89 92 -89 217z" />
<glyph unicode="&#x432;" horiz-adv-x="832" d="M28 -320q0 113 75 191l51 -41q-31 -62 -31 -137q0 -97 66 -168q65 -74 180 -74q94 0 157.5 45t94.5 118.5t31 157.5q0 136 -80 226t-263 90q-6 0 -22 -2h-23v88q101 0 181 35t125 96q43 60 43 138q0 55 -25 98q-27 43 -63 74q-37 28 -82 55q-47 25 -97 53 q-262 160 -262 420q0 94 33 178t98 133q66 52 160 52q76 0 137 -29q62 -29 96.5 -82t34.5 -121q0 -63 -37 -127q-36 -63 -100 -100l-43 45q86 51 86 176q0 84 -53 121q-51 35 -115 35q-51 0 -98 -31t-76 -90q-29 -62 -29 -144q0 -94 35 -161q37 -68 92 -113q56 -45 138 -94 q125 -74 195 -148q69 -71 69 -184q0 -80 -47 -168q-49 -90 -203 -139v-12q133 -15 211 -115q78 -99 78 -251q0 -116 -45 -208.5t-131 -143.5q-86 -53 -205 -53q-162 0 -248 94q-89 92 -89 217z" />
<glyph unicode="&#xe3;" horiz-adv-x="1549" d="M103 -418q157 -94 256 -94q75 0 134.5 41t59.5 131q0 69 -45 114q-47 46 -123 46v149l350 269l-163 348q-27 58 -56 91q-30 30 -90 30q-63 0 -102 -41q-39 -39 -39 -90q0 -41 24 -99q23 -55 56 -92l-101 -63q-43 49 -71.5 109.5t-28.5 115.5q0 70 33 132.5t92 101.5 q61 38 143 38q156 0 230 -149l172 -358l344 266q39 31 55 45q14 16 14 39q0 35 -108 35h-257v122h284q94 0 147 -36q51 -39 51 -91q0 -106 -90 -176l-385 -295l191 -408q45 -98 84 -120q24 -15 61 -15q29 0 55 21q29 18 37 45q6 14 6 30q0 78 -104 199l104 74 q123 -150 123 -275q0 -67 -37 -114q-39 -49 -94 -74t-113 -25q-133 0 -208 162l-203 421l-297 -232q59 -19 104 -58q47 -37 74 -86q25 -49 25 -106q0 -117 -82 -197q-82 -77 -230 -77q-139 0 -282 71v125z" />
<glyph unicode="&#x433;" horiz-adv-x="1549" d="M103 -418q157 -94 256 -94q75 0 134.5 41t59.5 131q0 69 -45 114q-47 46 -123 46v149l350 269l-163 348q-27 58 -56 91q-30 30 -90 30q-63 0 -102 -41q-39 -39 -39 -90q0 -41 24 -99q23 -55 56 -92l-101 -63q-43 49 -71.5 109.5t-28.5 115.5q0 70 33 132.5t92 101.5 q61 38 143 38q156 0 230 -149l172 -358l344 266q39 31 55 45q14 16 14 39q0 35 -108 35h-257v122h284q94 0 147 -36q51 -39 51 -91q0 -106 -90 -176l-385 -295l191 -408q45 -98 84 -120q24 -15 61 -15q29 0 55 21q29 18 37 45q6 14 6 30q0 78 -104 199l104 74 q123 -150 123 -275q0 -67 -37 -114q-39 -49 -94 -74t-113 -25q-133 0 -208 162l-203 421l-297 -232q59 -19 104 -58q47 -37 74 -86q25 -49 25 -106q0 -117 -82 -197q-82 -77 -230 -77q-139 0 -282 71v125z" />
<glyph unicode="&#xe4;" horiz-adv-x="1094" d="M102 371q0 39 15 94h143q-14 -51 -14 -86q0 -199 90 -258.5t205 -59.5q151 0 208.5 66t57.5 135q0 201 -182 201h-127v122h168q141 0 141 110q0 124 -139 124h-170v123h172q51 0 82 33t31 76q0 45 -39 65q-41 21 -101 31q-82 17 -149 29q-68 14 -115 33q-47 16 -76 47 q-53 57 -53 131q0 22 6 47h133q0 -80 45 -111q45 -30 144 -49q162 -31 254 -76q94 -47 94 -153q0 -49 -37 -97q-37 -47 -98 -65q69 -14 114 -64q46 -49 46 -127q0 -77 -48 -127q-49 -49 -127 -51q86 -24 132 -88q43 -63 43 -145q0 -133 -95 -228q-94 -94 -311 -94 q-199 0 -319 102q-124 103 -124 310z" />
<glyph unicode="&#x434;" horiz-adv-x="1094" d="M102 371q0 39 15 94h143q-14 -51 -14 -86q0 -199 90 -258.5t205 -59.5q151 0 208.5 66t57.5 135q0 201 -182 201h-127v122h168q141 0 141 110q0 124 -139 124h-170v123h172q51 0 82 33t31 76q0 45 -39 65q-41 21 -101 31q-82 17 -149 29q-68 14 -115 33q-47 16 -76 47 q-53 57 -53 131q0 22 6 47h133q0 -80 45 -111q45 -30 144 -49q162 -31 254 -76q94 -47 94 -153q0 -49 -37 -97q-37 -47 -98 -65q69 -14 114 -64q46 -49 46 -127q0 -77 -48 -127q-49 -49 -127 -51q86 -24 132 -88q43 -63 43 -145q0 -133 -95 -228q-94 -94 -311 -94 q-199 0 -319 102q-124 103 -124 310z" />
<glyph unicode="&#xe5;" horiz-adv-x="1061" d="M114 289q0 156 97 250q96 92 260 92h200v172h-200q-166 0 -260 94q-97 92 -97 248q0 102 44 176q43 72 121 111t176 39q90 0 159.5 -37.5t108.5 -106.5q37 -70 37 -164v-279h244v-81h-244v-172h244v-82h-244v-278q0 -95 -37 -164q-39 -68 -108 -107q-70 -37 -160 -37 q-152 0 -246.5 86t-94.5 240zM209 287q0 -115 67.5 -178.5t178.5 -63.5q135 0 176 76q40 78 40 156v272h-171q-100 0 -197 -47q-94 -47 -94 -215zM209 1147q0 -164 96 -213q97 -50 195 -50h171v273q0 78 -40 156q-41 76 -176 76q-133 0 -189.5 -74t-56.5 -168z" />
<glyph unicode="&#x435;" horiz-adv-x="1061" d="M114 289q0 156 97 250q96 92 260 92h200v172h-200q-166 0 -260 94q-97 92 -97 248q0 102 44 176q43 72 121 111t176 39q90 0 159.5 -37.5t108.5 -106.5q37 -70 37 -164v-279h244v-81h-244v-172h244v-82h-244v-278q0 -95 -37 -164q-39 -68 -108 -107q-70 -37 -160 -37 q-152 0 -246.5 86t-94.5 240zM209 287q0 -115 67.5 -178.5t178.5 -63.5q135 0 176 76q40 78 40 156v272h-171q-100 0 -197 -47q-94 -47 -94 -215zM209 1147q0 -164 96 -213q97 -50 195 -50h171v273q0 78 -40 156q-41 76 -176 76q-133 0 -189.5 -74t-56.5 -168z" />
<glyph unicode="&#x152;" horiz-adv-x="1821" d="M75 676q0 258 141 455q169 237 493 237q23 0 194 -7q140 -5 267 -5h473l12 -298h-32q-24 118 -43 149q-25 40 -77 62q-33 13 -143 13h-256v-535h183q115 0 163 47.5t47 148.5h39v-472h-39q-9 123 -51 162.5t-159 39.5h-183v-448q0 -80 10 -104t33 -37q15 -8 77 -8h104 q120 0 167.5 13t98.5 59q75 68 129 192h40l-108 -340h-485h-171q-12 0 -167 -9q-108 -6 -145 -6q-169 0 -308.5 85t-221.5 249.5t-82 356.5zM305 668q0 -155 42 -301t135.5 -229t226.5 -83q76 0 122 25.5t63.5 71.5t17.5 188v702q0 130 -18.5 171.5t-53.5 61.5 q-50 29 -127 29q-124 0 -218.5 -73t-142 -223.5t-47.5 -339.5z" />
<glyph unicode="&#x153;" horiz-adv-x="1479" d="M67 443q0 229 123.5 364.5t299.5 135.5q107 0 186 -44t126 -114q59 85 124 122t159 37q147 0 239 -99t87 -272h-548q-2 -25 -2 -38q0 -94 33.5 -196t99.5 -152t145 -50q80 0 141.5 51t97.5 167l33 -17q-36 -193 -125.5 -279t-214.5 -86q-97 0 -165.5 46.5t-103.5 113.5 q-62 -80 -141.5 -120t-176.5 -40q-176 0 -296.5 128t-120.5 342zM254 539q0 -258 102 -406q62 -90 153 -90q89 0 147.5 74t58.5 261q0 233 -67.5 371.5t-194.5 138.5q-36 0 -85.5 -26.5t-76.5 -90.5q-37 -83 -37 -232zM863 638h351q1 70 -24 134q-18 48 -61 76.5t-90 28.5 q-67 0 -118.5 -60t-57.5 -179z" />
<glyph unicode="&#x160;" horiz-adv-x="1139" d="M128 1030q0 146 112 251.5t285 105.5q108 0 229 -53q56 -25 79 -25q26 0 42.5 15.5t26.5 62.5h37v-469h-37q-18 135 -64.5 215t-132.5 127t-178 47q-104 0 -172 -63.5t-68 -144.5q0 -62 43 -113q62 -75 295 -200q190 -102 259.5 -156.5t107 -128.5t37.5 -155 q0 -154 -119.5 -265t-307.5 -111q-59 0 -111 9q-31 5 -128.5 36t-123.5 31q-25 0 -39.5 -15t-21.5 -61h-37v464h37q26 -146 70 -218.5t134.5 -120.5t198.5 -48q125 0 197.5 66t72.5 156q0 50 -27.5 101t-85.5 95q-39 30 -213 127.5t-247.5 155.5t-111.5 128t-38 154z M283 1793h31l273 -212l229 212h30l-189 -331h-184z" />
<glyph unicode="&#x161;" horiz-adv-x="797" d="M100 678q0 113 77.5 189t200.5 76q54 0 131 -23q51 -15 68 -15q16 0 25 7t21 31h33v-312h-33q-38 147 -97.5 200t-151.5 53q-70 0 -113 -37t-43 -82q0 -56 32 -96q31 -41 126 -87l146 -71q203 -99 203 -261q0 -125 -94.5 -201t-211.5 -76q-84 0 -192 29q-33 10 -54 10 q-23 0 -36 -25h-33v326h33q28 -140 107 -211t177 -71q69 0 112.5 40.5t43.5 97.5q0 69 -48.5 116t-193.5 119t-190 130q-45 57 -45 144zM117 1385h31l273 -212l229 212h30l-189 -331h-184z" />
<glyph unicode="&#x178;" horiz-adv-x="1479" d="M19 1319v37h580v-37h-30q-47 0 -86.5 -22t-39.5 -66q0 -36 61 -130l283 -437l266 418q60 94 60 140q0 28 -14.5 50t-41.5 34.5t-81 12.5v37h473v-37h-26q-26 0 -76 -23t-91 -66t-101 -140l-327 -515v-340q0 -125 28 -156q38 -42 120 -42h44v-37h-576v37h48q86 0 122 52 q22 32 22 146v321l-372 568q-66 100 -89.5 125t-97.5 60q-20 10 -58 10zM475 1599q0 45 31.5 77t76.5 32q46 0 77.5 -32t31.5 -77t-32 -76.5t-76 -31.5q-45 0 -77 31.5t-32 76.5zM827 1599q0 45 32 77t77 32t76.5 -32t31.5 -77t-31.5 -76.5t-76.5 -31.5t-77 31.5t-32 76.5z " />
<glyph unicode="&#x192;" d="M2 -325q0 39 23.5 64t53.5 25q26 0 45.5 -18t19.5 -38q0 -22 -14 -38q-10 -12 -10 -19q0 -8 7 -14.5t18 -6.5q20 0 37 10q30 17 59 64t60 177q6 22 86 414q7 35 123 514h-177l15 66q99 7 124.5 15.5t42.5 31.5q26 34 60 134q73 212 140 272q66 59 147 59q62 0 99.5 -33 t37.5 -79q0 -35 -20 -56t-48 -21q-26 0 -44.5 17.5t-18.5 38.5q0 16 11 34.5t11 26.5q0 11 -9 19q-9 7 -26 7q-32 0 -58 -24q-35 -33 -46 -84q-27 -121 -64 -358h178l-17 -66h-174q-52 -269 -172 -708q-94 -340 -205 -448q-84 -83 -173 -83q-56 0 -89 30.5t-33 74.5z" />
<glyph unicode="&#x2c6;" horiz-adv-x="963" d="M102 1164l244 270h271l243 -270h-180l-198 202l-199 -202h-181z" />
<glyph unicode="&#x2dc;" horiz-adv-x="0" />
<glyph unicode="&#x2000;" horiz-adv-x="896" />
<glyph unicode="&#x2001;" horiz-adv-x="1793" />
<glyph unicode="&#x2002;" horiz-adv-x="896" />
<glyph unicode="&#x2003;" horiz-adv-x="1793" />
<glyph unicode="&#x2004;" horiz-adv-x="597" />
<glyph unicode="&#x2005;" horiz-adv-x="448" />
<glyph unicode="&#x2006;" horiz-adv-x="298" />
<glyph unicode="&#x2007;" horiz-adv-x="298" />
<glyph unicode="&#x2008;" horiz-adv-x="224" />
<glyph unicode="&#x2009;" horiz-adv-x="358" />
<glyph unicode="&#x200a;" horiz-adv-x="99" />
<glyph unicode="&#x2010;" horiz-adv-x="815" d="M122 327v144h570v-144h-570z" />
<glyph unicode="&#x2011;" horiz-adv-x="815" d="M122 327v144h570v-144h-570z" />
<glyph unicode="&#x2012;" horiz-adv-x="815" d="M122 327v144h570v-144h-570z" />
<glyph unicode="&#x2013;" horiz-adv-x="1229" d="M102 482v127h1025v-127h-1025z" />
<glyph unicode="&#x2014;" horiz-adv-x="2142" d="M123 246v82h1900v-82h-1900z" />
<glyph unicode="&#x2018;" horiz-adv-x="637" d="M216 946v287q0 193 204 240v-113q-43 -4 -72 -41q-31 -39 -31 -86l1 -63h102v-224h-204z" />
<glyph unicode="&#x2019;" horiz-adv-x="637" d="M216 908v112q43 4 74 41q29 37 29 86l1 64h-104v223h204v-286q0 -111 -62 -166.5t-142 -73.5z" />
<glyph unicode="&#x201a;" horiz-adv-x="637" d="M216 0v223h204v-287q0 -110 -60 -166q-62 -53 -144 -73v112q43 4 74 41q29 37 29 86v64h-103z" />
<glyph unicode="&#x201c;" horiz-adv-x="865" d="M162 946v289q0 101 60 162q57 61 143 78v-111q-45 -12 -73 -47q-30 -35 -30 -82v-65h103v-224h-203zM499 946v289q0 98 60 162q60 61 144 78v-111q-45 -12 -74 -47t-29 -82v-65h103v-224h-204z" />
<glyph unicode="&#x201d;" horiz-adv-x="865" d="M162 905v111q43 12 74 47q29 33 29 82l-1 66h-102v223h203v-289q0 -98 -60 -160q-57 -63 -143 -80zM499 905v111q43 12 74 47q29 33 29 82v66h-103v223h204v-289q0 -100 -60 -162q-58 -61 -144 -78z" />
<glyph unicode="&#x201e;" horiz-adv-x="865" d="M162 0v223h203v-287q0 -184 -203 -239v112q45 8 74 43t29 84v64h-103zM499 0v223h204v-287q0 -186 -204 -239v112q46 8 74 43q29 35 29 84v64h-103z" />
<glyph unicode="&#x2020;" d="M51 901v140h378v393h165v-393h379v-139l-379 -1v-1280h-165v1280h-378z" />
<glyph unicode="&#x2021;" d="M139 997q0 37 24.5 61.5t62.5 24.5q46 0 131 -34q51 -21 76 -27q18 -5 57 -8q-2 43 -8 63q-11 40 -45 129q-21 53 -23 60q-4 18 -4 45q0 50 29 80.5t72 30.5t70 -29t27 -86q0 -31 -5.5 -51t-36 -90.5t-36.5 -151.5q44 3 63 7.5t76 28.5q76 33 126 33q40 0 65 -24.5 t25 -62.5q0 -39 -26 -64t-68 -25q-47 0 -126 33q-51 23 -71 28t-64 8q8 -66 26 -98t68 -72q-50 -73 -72 -144t-22 -178q0 -100 21 -168.5t73 -145.5q-48 -41 -66.5 -73.5t-27.5 -96.5q39 6 56.5 11t71.5 27q85 35 134 35q41 0 67 -25t26 -62q0 -40 -26 -66t-66 -26 q-41 0 -127 37q-46 19 -74 26q-21 5 -62 7q8 -61 13 -80.5t21 -55.5q50 -110 50 -164q0 -45 -29 -75t-72 -30q-42 0 -71 31t-29 77q0 23 6.5 49.5t39.5 114.5q24 65 31 133q-45 -2 -70.5 -8t-74.5 -28q-76 -34 -113 -34q-41 0 -66 24.5t-25 63.5q0 40 26.5 65.5t69.5 25.5 q40 0 113 -32q49 -21 76 -27q21 -5 64 -7q-9 61 -27.5 92.5t-68.5 70.5q46 61 66 120q31 91 31 206q0 118 -32 205q-19 54 -65 105q48 36 66.5 68.5t29.5 101.5q-41 -3 -58.5 -7.5t-86.5 -32t-118 -27.5q-38 0 -63 25t-25 63z" />
<glyph unicode="&#x2022;" horiz-adv-x="1229" d="M409 717q0 86 60 145q60 60 146 60q57 0 104 -27q45 -28 74 -74q26 -47 26 -104q0 -86 -59 -145.5t-145 -59.5t-146 59.5t-60 145.5z" />
<glyph unicode="&#x2026;" horiz-adv-x="1907" d="M216 0v223h204v-223h-204zM852 0v223h203v-223h-203zM1487 0v223h203v-223h-203z" />
<glyph unicode="&#x202f;" horiz-adv-x="358" />
<glyph unicode="&#x2030;" horiz-adv-x="1536" d="M123 1020q0 164 76 247.5t194 83.5q121 0 181 -67q61 -67 75.5 -139t14.5 -125q0 -102 -49 -217q-52 -115 -222 -115q-118 0 -194 84t-76 248zM146 -183l1087 1617h107l-1084 -1617h-110zM266 1020q0 -88 23 -151.5t104 -63.5q72 0 101 57q26 56 26 158q0 103 -26 158 q-29 57 -101 57q-81 0 -104 -63.5t-23 -151.5zM872 291q0 53 14.5 125t76.5 139q59 67 180 67q78 0 139 -36q62 -35 97 -111q34 -75 34 -184q0 -111 -34 -184q-35 -76 -97 -111q-61 -37 -139 -37q-170 0 -221 115q-50 117 -50 217zM1016 291q0 -88 22.5 -151.5t104.5 -63.5 t104 61q23 64 23 154q0 215 -127 215q-82 0 -104.5 -63.5t-22.5 -151.5z" />
<glyph unicode="&#x2039;" horiz-adv-x="586" d="M126 473v168l306 269v-168l-217 -185l217 -184v-168z" />
<glyph unicode="&#x203a;" horiz-adv-x="586" d="M153 205v168l218 184l-218 185v168l306 -269v-168z" />
<glyph unicode="&#x205f;" horiz-adv-x="448" />
<glyph unicode="&#x2122;" horiz-adv-x="1764" d="M41 1321v112h617v-112h-232v-604h-154v604h-231zM816 717v716h206l193 -493l18 -71h8l17 71l192 493h205v-716h-155v457l9 92h-11l-210 -549h-106l-209 549h-10l8 -92v-457h-155z" />
<glyph unicode="&#x25fc;" horiz-adv-x="1040" d="M0 0v1040h1040v-1040h-1040z" />
</font>
</defs>
</svg>
