<?xml version="1.0" standalone="no"?>
<!DOCTYPE svg PUBLIC "-//W3C//DTD SVG 1.1//EN" "http://www.w3.org/Graphics/SVG/1.1/DTD/svg11.dtd" >
<svg xmlns="http://www.w3.org/2000/svg" xmlns:xlink="http://www.w3.org/1999/xlink" version="1.1">
<metadata></metadata>
<defs>
<font id="bpg_phone_sansbold" horiz-adv-x="1075" >
<font-face units-per-em="2048" ascent="1556" descent="-492" />
<missing-glyph horiz-adv-x="684" />
<glyph unicode="&#xd;" horiz-adv-x="717" />
<glyph unicode=" "  horiz-adv-x="684" />
<glyph unicode="&#x09;" horiz-adv-x="684" />
<glyph unicode="&#xa0;" horiz-adv-x="684" />
<glyph unicode="!" horiz-adv-x="862" d="M257 0v351h306l-23 -351h-283zM257 456v1069h283v-1069h-283z" />
<glyph unicode="&#x22;" horiz-adv-x="989" d="M154 886v639h274v-639h-274zM511 886v639h273v-639h-273z" />
<glyph unicode="#" horiz-adv-x="1802" d="M137 391v257h346l51 204h-288v256h352q5 17 9 31.5t8 31.5l80 328h268l-99 -391h160q9 45 22 90.5t25 90.5l54 210h266l-99 -391h281v-256h-343l-9 -34q-11 -42 -22.5 -84.5t-19.5 -85.5h286v-257h-349l-100 -391h-265l97 391h-161l-22 -90q-7 -28 -15 -55t-14 -54 l-50 -192h-264l98 391h-283zM749 648h162l52 204h-160l-7 -28q-5 -17 -8.5 -35t-8.5 -35v1l-16 -60q-4 -14 -7 -22t-7 -25z" />
<glyph unicode="$" horiz-adv-x="1368" d="M137 103v313q119 -75 216.5 -116t184.5 -50v326q-205 38 -303 132t-98 252q0 174 99.5 272.5t301.5 121.5v229h207v-222q36 -5 77 -11.5t84.5 -15.5t86 -20.5t81.5 -24.5v-300q-95 50 -178.5 79.5t-150.5 39.5v-292q214 -42 314.5 -138.5t100.5 -261.5q0 -176 -105 -279 t-310 -129v-292h-207l-2 284q-47 3 -94 11t-96 21t-100.5 30.5t-108.5 40.5zM424 976q0 -47 26 -75.5t88 -45.5v247q-53 -16 -83.5 -48t-30.5 -78zM745 263q127 36 127 136q0 48 -30.5 79.5t-96.5 51.5v-267z" />
<glyph unicode="%" horiz-adv-x="2044" d="M101 1108q0 202 102 316l-1 -1q102 124 279 124q174 0 281 -123l-1 1q51 -58 77.5 -138.5t26.5 -178.5q0 -100 -25 -179t-78 -139l1 1q-54 -64 -123.5 -94.5t-158.5 -30.5q-177 0 -279 126v-1q-51 58 -76 137.5t-25 179.5zM351 -28l951 1575h281l-948 -1575h-284z M365 1108q0 -99 29.5 -153t86.5 -54q59 0 90.5 54t31.5 153q0 97 -33 152.5t-89 55.5q-55 0 -85.5 -54.5t-30.5 -153.5zM1074 412q0 102 25.5 180.5t75.5 136.5v-1q104 125 282 125q84 0 154 -31t121 -89t79 -139.5t28 -181.5q0 -102 -28.5 -183.5t-79 -138.5t-120.5 -87.5 t-154 -30.5q-86 0 -157 31t-121 88t-77.5 138.5t-27.5 182.5zM1338 412q0 -100 31 -154t88 -54q55 0 87 54t32 154q0 99 -32 154t-87 55q-57 0 -88 -54.5t-31 -154.5z" />
<glyph unicode="&#x26;" horiz-adv-x="1677" d="M110 491q0 125 59 234t175 203q-34 56 -54 114.5t-20 109.5q0 90 30.5 162t93.5 126v-1q118 108 315 108q85 0 176 -20.5t196 -67.5v-301q-118 63 -206.5 96t-144.5 33q-37 0 -68 -9t-53.5 -26t-35 -41.5t-12.5 -56.5q0 -19 6 -37.5t20.5 -41t39 -50t62.5 -64.5l428 -439 q36 69 55 155t24 193h291q-11 -156 -56.5 -287.5t-126.5 -251.5q38 -39 79 -81t83 -85t83 -84.5t79 -80.5h-396l-115 120q-99 -73 -205 -110.5t-227 -37.5q-125 0 -230.5 39t-182 108t-119.5 164t-43 208zM405 504q0 -54 22 -103t58 -87v1q42 -37 96.5 -57t117.5 -20 q65 0 122.5 16.5t110.5 52.5l-419 430q-108 -114 -108 -233z" />
<glyph unicode="'" horiz-adv-x="592" d="M145 886v639h272v-639h-272z" />
<glyph unicode="(" horiz-adv-x="840" d="M131 664q0 220 77 446t234 471h280q-149 -254 -222 -481t-73 -436q0 -210 73 -437.5t222 -482.5h-280q-156 244 -233.5 471.5t-77.5 448.5z" />
<glyph unicode=")" horiz-adv-x="840" d="M77 -256q144 253 217.5 481t73.5 439t-73 437.5t-218 479.5h278q157 -245 232.5 -471.5t75.5 -445.5q0 -222 -76.5 -449t-231.5 -471h-278z" />
<glyph unicode="*" d="M5 889l296 162l-296 160l112 194l281 -170v312h223v-312l280 170l113 -194l-295 -160l79 -43q53 -29 110 -61t107 -58l-115 -190l-279 169v-315h-223v315q-68 -42 -140 -85.5t-140 -83.5z" />
<glyph unicode="+" horiz-adv-x="1802" d="M192 527v273h528v524h270v-524h528v-273h-528v-527h-270v527h-528z" />
<glyph unicode="," horiz-adv-x="684" d="M94 -225l91 365v211h312v-232l-177 -344h-226z" />
<glyph unicode="-" horiz-adv-x="776" d="M56 454v266h624v-266h-624z" />
<glyph unicode="." horiz-adv-x="684" d="M167 0v351h311v-351h-311z" />
<glyph unicode="/" horiz-adv-x="725" d="M-59 -181l527 1706h279l-526 -1706h-280z" />
<glyph unicode="0" horiz-adv-x="1368" d="M105 759q0 193 35.5 340.5t104.5 247t170 150t233 50.5t233.5 -50.5t170.5 -150t105 -247t36 -340.5q0 -192 -36 -339t-105 -246.5t-170.5 -150.5t-233.5 -51t-233 51t-170 150.5t-104.5 246.5t-35.5 339zM409 759q0 -523 239 -523q242 0 242 523q0 265 -60.5 395 t-181.5 130q-120 0 -179.5 -130t-59.5 -395z" />
<glyph unicode="1" horiz-adv-x="1368" d="M192 1154v292l380 79h259v-1254h312v-271h-925v271h311v953q-20 -3 -39.5 -8.5t-38.5 -9.5z" />
<glyph unicode="2" horiz-adv-x="1368" d="M118 0v239l549 561h-1q42 48 70.5 87.5t46 72.5t25 61.5t7.5 56.5q0 46 -17.5 82.5t-48.5 62t-73.5 39t-91.5 13.5q-79 0 -190.5 -40.5t-267.5 -126.5v330q140 54 252.5 81.5t201.5 27.5q123 0 222.5 -34t170 -95t108.5 -144.5t38 -183.5q0 -48 -8.5 -91.5t-28 -89.5 t-51 -95.5t-77.5 -109.5l-11 -11q-17 -17 -43 -44.5t-72 -76t-116 -121.5t-175 -180h588v-271h-1007z" />
<glyph unicode="3" horiz-adv-x="1368" d="M126 59v321q115 -66 223.5 -100.5t201.5 -34.5q155 0 233.5 55.5t78.5 167.5q0 50 -20 89t-56 65.5t-87 40.5t-113 14h-220v268h230q114 0 174 41t60 120q0 82 -62.5 125.5t-181.5 43.5q-74 0 -175 -21t-245 -72v294q135 36 242 53.5t198 17.5q120 0 217.5 -31t166 -86.5 t105.5 -132.5t37 -170q0 -108 -39 -183.5t-124 -125.5q94 -54 145 -145t51 -205q0 -116 -40.5 -207.5t-118.5 -156t-190.5 -98.5t-256.5 -34q-99 0 -205.5 21.5t-228.5 65.5z" />
<glyph unicode="4" horiz-adv-x="1368" d="M71 334v253l615 938h326v-921h199v-270h-199v-334h-304v334h-637zM382 604h326v504q-30 -47 -64 -97.5t-64 -98.5l-68 -108q-34 -54 -66 -101.5t-64 -98.5z" />
<glyph unicode="5" horiz-adv-x="1368" d="M126 48v329q244 -132 423 -132q73 0 129.5 19.5t94 54.5t57 83.5t19.5 107.5q0 62 -21 110.5t-60 82t-94.5 51t-124.5 17.5q-72 0 -161.5 -23t-203.5 -74v851h863v-275h-575v-214q29 5 55 6.5t55 1.5q130 0 235.5 -37.5t179 -107t113.5 -168t40 -221.5 q0 -125 -40.5 -224.5t-117 -169.5t-186.5 -107t-250 -37q-99 0 -203 18.5t-227 57.5z" />
<glyph unicode="6" horiz-adv-x="1368" d="M113 759q0 186 47.5 332.5t132.5 247.5t203 154.5t258 53.5q78 0 164.5 -17.5t187.5 -53.5v-305q-210 104 -345 104q-130 0 -212 -76t-115 -227q109 72 251 72q117 0 212 -38t162 -108t103.5 -168.5t36.5 -219.5q0 -120 -39 -219.5t-108.5 -170t-166 -109.5t-211.5 -39 q-137 0 -241.5 51t-175.5 150.5t-107.5 246.5t-36.5 339zM449 510q0 -131 62 -205v1q59 -70 163 -70q50 0 90.5 18t69.5 51v-1q29 38 45.5 90.5t16.5 115.5q0 130 -62 204v-1q-29 33 -68 50.5t-92 17.5t-95 -19t-71 -54.5t-44 -85.5t-15 -112z" />
<glyph unicode="7" horiz-adv-x="1368" d="M135 1250v275h1019v-149l-528 -1376h-320l483 1250h-654z" />
<glyph unicode="8" horiz-adv-x="1368" d="M108 452q0 153 88 264l1 3q47 55 109 91q-76 51 -121 133.5t-45 183.5q0 95 37 172.5t104 132.5t160.5 85t206.5 30q116 0 209.5 -29.5t159.5 -84.5t101.5 -132.5t35.5 -173.5q0 -206 -165 -317q46 -27 83.5 -65.5t63 -84.5t39.5 -99t14 -109q0 -111 -36 -200 t-105.5 -151.5t-170 -95.5t-229.5 -33q-130 0 -230.5 31.5t-169.5 92.5t-104.5 150.5t-35.5 205.5zM412 452q0 -101 61 -158v1q68 -59 175 -59q112 0 175.5 56t63.5 160q0 106 -62 161t-177 55q-110 0 -173 -53.5t-63 -162.5zM444 1108q0 -85 54 -131t150 -46q97 0 152 46 t55 131q0 84 -55 130t-152 46q-96 0 -150 -46t-54 -130z" />
<glyph unicode="9" horiz-adv-x="1368" d="M99 1013q0 120 38.5 218.5t107.5 168.5t166 108.5t214 38.5q136 0 240.5 -50.5t175.5 -150t107.5 -247t36.5 -340.5q0 -181 -46.5 -326.5t-131.5 -248t-203 -157.5t-261 -55q-76 0 -162 18t-192 57v299q105 -50 192.5 -75.5t153.5 -25.5q134 0 214.5 74.5t112.5 227.5 q-52 -35 -114.5 -53t-133.5 -18q-116 0 -211 38.5t-162.5 108.5t-104.5 169t-37 221zM403 1013q0 -128 58.5 -201t163.5 -73q52 0 94 19.5t70.5 55.5t44 86.5t15.5 112.5q0 60 -15 110t-44 85.5t-70.5 55.5t-94.5 20q-105 0 -163.5 -70t-58.5 -201z" />
<glyph unicode=":" horiz-adv-x="725" d="M189 0v351h310v-351h-310zM189 761v351h310v-351h-310z" />
<glyph unicode=";" horiz-adv-x="725" d="M94 -225l91 365v211h312v-232l-177 -344h-226zM185 761v351h312v-351h-312z" />
<glyph unicode="&#x3c;" horiz-adv-x="1802" d="M192 548v231l1326 481v-291l-865 -307q43 -14 86 -30t86 -31l693 -243v-294z" />
<glyph unicode="=" horiz-adv-x="1802" d="M192 334v272h1326v-272h-1326zM192 720v271h1326v-271h-1326z" />
<glyph unicode="&#x3e;" horiz-adv-x="1802" d="M192 64v294l862 304l-862 307v291l1326 -481v-231z" />
<glyph unicode="?" horiz-adv-x="1141" d="M111 1102v316q109 66 214.5 97.5t208.5 31.5q100 0 181.5 -28.5t139.5 -80.5t89 -123.5t31 -156.5q0 -41 -8 -78.5t-27.5 -75.5t-52 -79t-81.5 -89l-83 -81q-19 -19 -32 -32.5t-21.5 -24.5t-13.5 -19.5t-8 -16.5h1q-5 -17 -8 -42.5t-3 -68.5v-172h-289v203q0 54 7 97 t24 81.5t46.5 76.5t74.5 82l86 85q47 42 66.5 76t19.5 68q0 31 -14 55.5t-37.5 42t-54.5 26.5t-65 9q-66 0 -164 -45.5t-227 -133.5zM343 0v351h303v-351h-303z" />
<glyph unicode="@" horiz-adv-x="2150" d="M123 569q0 125 33.5 240.5t94 216t145 183t187 141.5t220 91.5t244.5 32.5q115 0 224 -28t205 -79.5t175.5 -124t137 -161t89.5 -190.5t32 -213q0 -137 -43.5 -246t-129 -186.5t-212.5 -120t-294 -45.5v71q-101 -68 -244 -68q-93 0 -170.5 35t-133 98t-86.5 151.5 t-31 195.5q0 108 31.5 197t87.5 152t133 97.5t169 34.5q74 0 133.5 -16.5t110.5 -49.5v49h247v-679q43 15 77 45.5t57.5 73t35.5 95.5t12 112q0 79 -23.5 151t-65 133.5t-99 111.5t-125.5 85t-144 54t-154 19q-144 0 -268 -51t-215 -140t-143 -209.5t-52 -258.5 q0 -66 14 -131t39.5 -126t61 -116t77.5 -99q46 -40 101.5 -74t116 -58.5t125 -38.5t128.5 -14q112 0 231.5 46t231.5 134l156 -193q-149 -115 -306.5 -176t-312.5 -61q-126 0 -242.5 32.5t-218 91.5t-184.5 142t-142 183.5t-91.5 216.5t-32.5 241zM829 563q0 -109 51 -170.5 t144 -61.5q88 0 140 58v-1q54 63 54 175q0 52 -13 95t-38 74t-61.5 48t-83.5 17q-45 0 -80 -15.5t-61 -42.5l1 1q-53 -65 -53 -177z" />
<glyph unicode="A" horiz-adv-x="1470" d="M-40 0l594 1563h304l592 -1563h-322l-134 371h-574q-7 -18 -13.5 -38t-13.5 -39l-23 -66q-9 -27 -20 -56t-21.5 -59t-20.5 -59t-19 -54h-329zM520 649h374l-188 499q-47 -127 -93 -249t-93 -250z" />
<glyph unicode="B" horiz-adv-x="1475" d="M167 0v1563h557q124 0 221.5 -29.5t164.5 -84t102 -131t35 -170.5q0 -114 -31 -189.5t-109 -121.5q97 -58 148.5 -152t51.5 -223q0 -107 -37 -192.5t-108 -145.5t-176.5 -92t-241.5 -32h-577zM478 275h256q131 0 193 50.5t62 159.5q0 106 -62 157t-193 51h-256v-418z M478 966h231q115 0 170.5 38t55.5 122q0 81 -55.5 121.5t-170.5 40.5h-231v-322z" />
<glyph unicode="C" horiz-adv-x="1501" d="M83 780q0 186 53.5 335.5t153 254.5t241 161t317.5 56q274 0 516 -164v-369q-140 131 -266.5 194.5t-239.5 63.5q-223 0 -339 -135t-116 -397q0 -267 118 -401h-1q118 -133 338 -133q114 0 240 65t266 195v-366q-125 -86 -253 -127.5t-263 -41.5q-178 0 -319.5 57 t-240.5 162.5t-152 255t-53 334.5z" />
<glyph unicode="D" horiz-adv-x="1657" d="M170 0v1563h459q446 0 660 -192t214 -589q0 -401 -218 -593v1q-214 -190 -656 -190h-459zM481 275h181q140 0 239 29.5t161.5 92t91 158t28.5 227.5q0 133 -30 228.5t-93 157t-161.5 91t-235.5 29.5h-181v-1013z" />
<glyph unicode="E" horiz-adv-x="1360" d="M164 0v1563h1030v-279h-719v-315h688v-278h-688v-414h736v-277h-1047z" />
<glyph unicode="F" horiz-adv-x="1237" d="M163 0v1563h945v-279h-635v-313h573v-278h-573v-693h-310z" />
<glyph unicode="G" horiz-adv-x="1665" d="M85 780q0 189 54 338.5t154.5 253.5t245 159.5t326.5 55.5q152 0 290 -40t271 -120v-363q-150 125 -284 186.5t-261 61.5q-476 0 -476 -532q0 -267 119 -400.5t357 -133.5q85 0 152 11.5t123 39.5v299h-320v274h629v-707q-138 -95 -287 -143.5t-313 -48.5 q-181 0 -325.5 55.5t-245.5 160t-155 254.5t-54 339z" />
<glyph unicode="H" horiz-adv-x="1618" d="M169 0v1563h310v-594h598v594h310v-1563h-310v691h-598v-691h-310z" />
<glyph unicode="I" horiz-adv-x="635" d="M150 0v1563h311v-1563h-311z" />
<glyph unicode="J" horiz-adv-x="635" d="M-154 -118h118q56 0 91.5 13.5t55 46t26.5 85.5t7 131v1405h310v-1405q0 -143 -28.5 -247.5t-85.5 -169.5h1q-60 -69 -149 -104t-215 -35h-131v280z" />
<glyph unicode="K" horiz-adv-x="1409" d="M169 0v1563h311v-536l568 536h423l-782 -733q203 -204 412 -415t411 -415h-416l-616 617v-617h-311z" />
<glyph unicode="L" horiz-adv-x="1198" d="M163 0v1563h312v-1286h705v-277h-1017z" />
<glyph unicode="M" horiz-adv-x="1855" d="M173 0v1563h388l331 -880l177 467v-1l76 203q19 51 40 105.5t40 105.5h386v-1563h-305v1009l-277 -732h-275l-275 734v-1011h-306z" />
<glyph unicode="N" horiz-adv-x="1610" d="M169 0v1563h355l551 -1038v1038h305v-1563h-357l-550 1038v-1038h-304z" />
<glyph unicode="O" horiz-adv-x="1694" d="M86 780q0 183 52.5 332t148 254.5t230 163t299.5 57.5q162 0 295.5 -58t229.5 -163.5t148.5 -254.5t52.5 -331t-52 -331t-147.5 -255t-229.5 -164.5t-297 -58.5q-164 0 -298.5 57t-230.5 162.5t-148.5 255t-52.5 334.5zM407 780q0 -119 27.5 -218t80 -169.5t128.5 -109.5 t173 -39q96 0 170.5 39.5t126.5 110.5t79 169.5t27 216.5t-27.5 216t-79 168.5t-126.5 110t-170 39.5q-97 0 -173 -39t-128.5 -109.5t-80 -169t-27.5 -216.5z" />
<glyph unicode="P" horiz-adv-x="1296" d="M164 0v1563h500q274 0 411.5 -124t137.5 -365q0 -248 -137.5 -369.5t-411.5 -121.5h-189v-583h-311zM475 858h189q112 0 170.5 55t58.5 161q0 102 -58.5 158t-170.5 56h-189v-430z" />
<glyph unicode="Q" horiz-adv-x="1694" d="M86 780q0 183 52.5 332t148 254.5t230 163t299.5 57.5q162 0 295.5 -58t229.5 -163.5t148.5 -254.5t52.5 -331q0 -122 -24.5 -230t-70.5 -199t-113 -163t-152 -121l294 -323h-391l-212 227q-5 -1 -8.5 -1h-7.5q-7 0 -12.5 0.5t-10.5 0.5h-18q-164 0 -298.5 57 t-230.5 162.5t-148.5 255t-52.5 334.5zM407 780q0 -119 27.5 -218t80 -169.5t128.5 -109.5t173 -39q96 0 170.5 39.5t126.5 110.5t79 169.5t27 216.5t-27.5 216t-79 168.5t-126.5 110t-170 39.5q-97 0 -173 -39t-128.5 -109.5t-80 -169t-27.5 -216.5z" />
<glyph unicode="R" horiz-adv-x="1493" d="M169 0v1563h499q276 0 412.5 -119t136.5 -357q0 -127 -44.5 -218t-136.5 -145q45 -41 87 -103t84 -143l238 -478h-337l-201 402v-1q-34 68 -62.5 109.5t-58.5 64.5t-66 31t-85 8h-155v-614h-311zM480 888h188q228 0 228 199q0 201 -228 201h-188v-400z" />
<glyph unicode="S" horiz-adv-x="1366" d="M99 1118q0 107 39 194t112 148t178 94t238 33q108 0 226.5 -22t252.5 -65v-326q-149 71 -260.5 105.5t-197.5 34.5q-134 0 -205.5 -46.5t-71.5 -134.5q0 -30 10.5 -56.5t26.5 -44.5l-2 1q26 -17 77 -35.5t117 -30.5l121 -25q229 -47 351 -168.5t122 -317.5 q0 -241 -154 -363t-458 -122q-214 0 -516 113v339q157 -90 284.5 -134.5t231.5 -44.5q142 0 218 51t76 148q0 80 -54.5 127t-180.5 70l-118 26q-119 24 -206.5 62t-144.5 93t-84.5 128.5t-27.5 168.5z" />
<glyph unicode="T" horiz-adv-x="1315" d="M-38 1284v279h1341v-279h-515v-1284h-311v1284h-515z" />
<glyph unicode="U" horiz-adv-x="1575" d="M144 602v961h311v-939q0 -104 17 -176.5t53.5 -117.5t93.5 -65.5t137 -20.5q82 0 139.5 22t93.5 68.5t52 118.5t16 171v939h311v-961q0 -311 -154.5 -471t-457.5 -160q-304 0 -458 160t-154 471z" />
<glyph unicode="V" horiz-adv-x="1470" d="M-40 1563h327l419 -1114l421 1114h323l-592 -1563h-304z" />
<glyph unicode="W" horiz-adv-x="2126" d="M34 1563h314l260 -1043l176 705q20 83 42.5 170t41.5 168h308l261 -1044q64 264 129 522.5t130 521.5h316l-393 -1563h-334l-262 1073l-188 -768q-17 -71 -37 -148t-39 -157h-334z" />
<glyph unicode="X" horiz-adv-x="1473" d="M-22 0l559 832l-493 731h349l331 -492q85 123 166.5 245.5t164.5 246.5h348l-505 -756q93 -141 193.5 -293.5t201.5 -302.5l142 -211h-350l-379 570q-33 -51 -69.5 -108t-70.5 -108l-238 -354h-350z" />
<glyph unicode="Y" horiz-adv-x="1315" d="M-88 1563h349l371 -551l369 551h350l-563 -835v-728h-311v728z" />
<glyph unicode="Z" horiz-adv-x="1473" d="M60 0v229l850 1055h-827v279h1251v-229l-853 -1057h875v-277h-1296z" />
<glyph unicode="[" horiz-adv-x="840" d="M129 -256v1839h515v-246h-227v-1345h227v-248h-515z" />
<glyph unicode="\" horiz-adv-x="725" d="M-59 1525h280l526 -1706h-279z" />
<glyph unicode="]" horiz-adv-x="840" d="M153 -8h227v1345h-227v246h512v-1839h-512v248z" />
<glyph unicode="^" horiz-adv-x="1802" d="M115 884l625 641h230l624 -641h-343l-397 355q-29 -26 -58.5 -52.5t-58.5 -52.5l-112 -100v1l-166 -151h-344z" />
<glyph unicode="_" d="M-48 -208h1117v-249h-1117v249z" />
<glyph unicode="`" d="M56 1659h340l351 -465h-285z" />
<glyph unicode="a" horiz-adv-x="1319" d="M91 364q0 209 133 311t397 104l188 1q-12 76 -74.5 115.5t-168.5 39.5q-81 0 -181.5 -30.5t-217.5 -93.5v293q121 47 223 69.5t194 22.5q259 0 386 -132.5t127 -403.5v-660h-285v72q-63 -48 -139.5 -74t-172.5 -26q-95 0 -170.5 28.5t-128.5 80.5t-81.5 124t-28.5 159z M377 374q0 -65 41.5 -104.5t128.5 -39.5q58 0 105 22t81.5 61.5t55 95t23.5 123.5h-118q-87 0 -147 -7t-98 -24.5t-55 -48t-17 -78.5z" />
<glyph unicode="b" horiz-adv-x="1366" d="M154 0v1583h286v-476q57 48 125.5 68.5t158.5 20.5q104 0 193.5 -42.5t155 -122t103 -192.5t37.5 -253q0 -143 -37.5 -257t-103 -193.5t-155 -121.5t-193.5 -42q-90 0 -158.5 21t-125.5 68v-61h-286zM440 586q0 -80 16 -145.5t46.5 -112.5t76 -72.5t104.5 -25.5 q56 0 100 25.5t75 72.5t47 112.5t16 145.5q0 79 -16 144t-46 111t-74.5 71t-101.5 25q-59 0 -104.5 -25t-76 -71t-46.5 -111t-16 -144z" />
<glyph unicode="c" horiz-adv-x="1182" d="M80 586q0 139 41 252t117 192.5t185 122.5t246 43q167 0 360 -89v-293q-111 62 -198.5 91.5t-154.5 29.5q-147 0 -224.5 -88.5t-77.5 -260.5q0 -81 19 -146.5t56.5 -111.5t94 -71t132.5 -25q66 0 153 30t200 91v-292q-96 -48 -187.5 -68.5t-187.5 -20.5q-130 0 -236 43.5 t-181 123.5t-116 193.5t-41 253.5z" />
<glyph unicode="d" horiz-adv-x="1366" d="M83 586q0 138 36.5 250.5t102 192.5t155 123.5t194.5 43.5q89 0 158 -20.5t125 -68.5v476h285v-1583h-285v63q-57 -47 -125.5 -69t-157.5 -22q-106 0 -195.5 43.5t-154.5 123.5t-101.5 193.5t-36.5 253.5zM373 586q0 -79 16.5 -144.5t47 -112.5t75.5 -73t102 -26t102 26 t75.5 73.5t46.5 113t16 143.5t-15.5 142.5t-45.5 111t-75 72t-104 25.5t-104 -25.5t-75.5 -72t-46 -111t-15.5 -142.5z" />
<glyph unicode="e" horiz-adv-x="1323" d="M83 574q0 141 41 256t116 196.5t181 125.5t236 44q117 0 213 -40t164 -114t105 -179t37 -234v-141h-791q45 -256 312 -256q96 0 202.5 34.5t235.5 106.5v-299q-117 -51 -227.5 -76.5t-219.5 -25.5q-136 0 -247.5 42.5t-191 120.5t-123 189.5t-43.5 249.5zM393 735h494 q-7 45 -26 82t-48.5 63t-68 40.5t-85.5 14.5q-109 0 -176.5 -50.5t-89.5 -149.5z" />
<glyph unicode="f" horiz-adv-x="758" d="M8 924v246h166v18q0 103 24 178t73 123t124 71t177 23h223v-258h-224q-33 0 -54 -3.5t-33.5 -15.5t-17.5 -35.5t-5 -63.5v-37h289v-246h-289v-924h-287v924h-166z" />
<glyph unicode="g" horiz-adv-x="1366" d="M83 598q0 133 35.5 243.5t100 189t154 122t198.5 43.5q88 0 157 -21t126 -68v63h285v-983q0 -298 -133.5 -443.5t-407.5 -145.5q-100 0 -193.5 17t-194.5 55v305q112 -63 199.5 -92.5t159.5 -29.5q128 0 197.5 56t82.5 175q-56 -41 -126.5 -62.5t-151.5 -21.5 q-108 0 -198 43t-154.5 121t-100 188.5t-35.5 245.5zM373 598q0 -74 15.5 -136.5t46 -107.5t75.5 -70.5t104 -25.5q58 0 102.5 23.5t75 67.5t46.5 107t16 142q0 76 -15.5 138.5t-45.5 107t-75 69t-104 24.5t-104 -24.5t-75.5 -68.5t-46 -107t-15.5 -139z" />
<glyph unicode="h" horiz-adv-x="1364" d="M153 0v1583h287v-485q59 45 131.5 71.5t155.5 26.5q212 0 318 -127t106 -372v-697h-286v688q0 126 -44 185t-132 59q-115 0 -182 -70.5t-67 -207.5v-654h-287z" />
<glyph unicode="i" horiz-adv-x="598" d="M141 0v1170h285v-1170h-285zM141 1250v333h285v-333h-285z" />
<glyph unicode="j" horiz-adv-x="598" d="M-82 -144h101q42 0 65 7.5t34.5 27.5t14 55t2.5 91v1133h285v-1133q0 -228 -93 -333.5t-286 -105.5h-123v258zM135 1250v333h285v-333h-285z" />
<glyph unicode="k" horiz-adv-x="1245" d="M157 0v1583h286v-800l440 387h391l-625 -552l641 -618h-388l-459 441v-441h-286z" />
<glyph unicode="l" horiz-adv-x="598" d="M141 0v1583h285v-1583h-285z" />
<glyph unicode="m" horiz-adv-x="2095" d="M171 0v1170h287v-69q57 49 126 72t160 23q217 0 323 -171q137 171 361 171q91 0 165.5 -34t126.5 -98t80.5 -157t28.5 -210v-697h-288v688q0 126 -39.5 185t-123.5 59q-52 0 -95 -16.5t-73.5 -51t-47.5 -86.5t-17 -124v-654h-288v688q0 127 -39.5 185.5t-123.5 58.5 q-110 0 -173 -72t-63 -206v-654h-287z" />
<glyph unicode="n" horiz-adv-x="1364" d="M153 0v1170h287v-72q59 45 131.5 71.5t155.5 26.5q212 0 318 -127t106 -372v-697h-286v688q0 126 -44 185t-132 59q-115 0 -182 -70.5t-67 -207.5v-654h-287z" />
<glyph unicode="o" horiz-adv-x="1317" d="M83 586q0 142 37.5 255t108 192t170 121t224.5 42q124 0 225 -43t171.5 -122.5t109 -192t38.5 -252.5q0 -141 -38 -254.5t-108.5 -193.5t-171 -123t-226.5 -43q-122 0 -222 42t-170.5 121.5t-109 193.5t-38.5 257zM379 586q0 -76 15.5 -141t46 -112t76 -74t106.5 -27 q60 0 106.5 26t77.5 72.5t47 112t16 143.5q0 76 -16 140t-47 110.5t-77 72.5t-107 26q-59 0 -104.5 -25t-76.5 -71t-47 -110.5t-16 -142.5z" />
<glyph unicode="p" horiz-adv-x="1366" d="M154 -402v1572h286v-63q57 48 125.5 68.5t158.5 20.5q104 0 193.5 -42.5t155 -122t103 -192.5t37.5 -253q0 -143 -37.5 -257t-103 -193.5t-155 -121.5t-193.5 -42q-90 0 -158.5 21t-125.5 68v-463h-286zM440 586q0 -80 16 -145.5t46.5 -112.5t76 -72.5t104.5 -25.5 q56 0 100 25.5t75 72.5t47 112.5t16 145.5q0 79 -16 144t-46 111t-74.5 71t-101.5 25q-59 0 -104.5 -25t-76 -71t-46.5 -111t-16 -144z" />
<glyph unicode="q" horiz-adv-x="1366" d="M83 586q0 138 36.5 250.5t102 192.5t155 123.5t194.5 43.5q89 0 158 -20.5t125 -68.5v63h285v-1572h-285v465q-57 -47 -125.5 -69t-157.5 -22q-106 0 -195.5 43.5t-154.5 123.5t-101.5 193.5t-36.5 253.5zM373 586q0 -79 16.5 -144.5t47 -112.5t75.5 -73t102 -26t102 26 t75.5 73.5t46.5 113t16 143.5t-15.5 142.5t-45.5 111t-75 72t-104 25.5t-104 -25.5t-75.5 -72t-46 -111t-15.5 -142.5z" />
<glyph unicode="r" horiz-adv-x="885" d="M146 0v1170h287v-66q58 48 132 70t167 22q26 0 57.5 -2.5t49.5 -7.5h-2l40 -4l2 -328q-67 39 -115 56.5t-82 17.5q-122 0 -185.5 -80.5t-63.5 -235.5v-612h-287z" />
<glyph unicode="s" horiz-adv-x="1120" d="M76 53v318q134 -75 241 -108t190 -33q97 0 148 27t51 77q0 27 -11.5 45t-37 31.5t-65.5 25t-98 25.5q-5 0 -11 3l-7 2q-8 0 -15.5 1.5l-12.5 2.5l-14 3q-88 21 -153.5 52t-109.5 73.5t-66 99t-22 130.5q0 88 31 156.5t90 115.5t145 71.5t196 24.5q106 0 202.5 -18 t192.5 -56v-298q-109 60 -201.5 86.5t-170.5 26.5q-204 0 -204 -102q0 -30 24 -49h-1q20 -14 63.5 -27.5t100.5 -27.5l28 -6q8 -2 16 -3.5t17 -3.5q102 -23 175 -55t120 -77t69 -104t22 -134q0 -82 -33.5 -151t-97 -119t-155.5 -78t-208 -28q-91 0 -197 20.5t-231 60.5z" />
<glyph unicode="t" horiz-adv-x="844" d="M15 924v246h129v301h286v-301h361v-246h-361v-519q0 -54 3 -83.5t16 -44t38 -17t69 -2.5h235v-258h-235q-113 0 -191 21.5t-127.5 70t-71.5 125.5t-22 188v519h-129z" />
<glyph unicode="u" horiz-adv-x="1364" d="M140 475v695h288v-691q0 -124 44 -183.5t135 -59.5q114 0 180.5 72t66.5 208v654h285v-1170h-285v69q-112 -97 -284 -97q-214 0 -322 126t-108 377z" />
<glyph unicode="v" horiz-adv-x="1274" d="M7 1170h304l294 -786q0 1 0.5 1.5t0.5 1.5q47 128 93.5 255t94.5 255v-1l102 274h302l-437 -1170h-315z" />
<glyph unicode="w" horiz-adv-x="1759" d="M52 1170h289l173 -658l175 658h290l176 -658l172 658h288l-303 -1170h-292l-184 704l-70 -265q-14 -50 -29.5 -106.5t-31 -114.5t-30 -113.5t-25.5 -104.5h-293z" />
<glyph unicode="x" horiz-adv-x="1274" d="M-26 0l455 608q-103 138 -210 281t-210 281h347l251 -338l252 338h346l-425 -571l446 -599h-345l-280 379q-69 -94 -140.5 -189.5t-139.5 -189.5h-347z" />
<glyph unicode="y" horiz-adv-x="1274" d="M3 1170h309l293 -729q48 125 98.5 249.5t101.5 252.5l90 227h307l-496 -1233q-41 -101 -80.5 -166.5t-84 -104t-97 -53.5t-120.5 -15h-196v257h157q30 0 49 5t34 21.5t29.5 47.5t37.5 84l-1 -1q2 6 5 13.5t6 16.5v-1l5 11q4 13 8 19l1 2q-54 133 -110.5 265t-110.5 265 l-32 78q-24 58 -50.5 121.5l-53 127t-52 124.5t-47.5 116z" />
<glyph unicode="z" horiz-adv-x="1128" d="M55 0v237l588 683h-565v250h938v-238l-585 -681h585v-251h-961z" />
<glyph unicode="{" horiz-adv-x="1368" d="M219 510v249h115q58 0 93 9t54.5 31t26 59.5t6.5 93.5v226q0 236 98 320v-1q95 86 352 86h116v-246h-121q-53 0 -84.5 -3.5t-47.5 -19.5t-20.5 -49t-4.5 -91v-234q0 -117 -27.5 -190.5t-83.5 -115.5q52 -39 81.5 -113t29.5 -194v-235q0 -59 5 -91.5t21.5 -47.5t47.5 -18 t83 -3h121v-246h-116q-257 0 -352 83v-1q-98 84 -98 321v226q0 51 -5.5 88t-24 60.5t-54 35t-96.5 11.5h-115z" />
<glyph unicode="|" horiz-adv-x="725" d="M206 -457v2047h275v-2047h-275z" />
<glyph unicode="}" horiz-adv-x="1368" d="M219 -68h123q56 0 87.5 4.5t47 20.5t19 48t3.5 87v235q0 121 28 193t82 114q-30 21 -50.5 48t-34 63t-19.5 84t-6 111v234q0 57 -4 89.5t-20 49t-47.5 20.5t-85.5 4h-123v246h117q128 0 214 -18.5t138 -64.5t74 -124.5t22 -197.5v-226q0 -60 7.5 -97.5t28 -58.5t55.5 -29 t89 -8h116v-249h-116q-56 0 -91 -8t-54.5 -30t-27 -59.5t-7.5 -97.5v-226q0 -121 -22.5 -199t-74.5 -123.5t-138 -63t-213 -17.5h-117v246z" />
<glyph unicode="~" horiz-adv-x="1802" d="M192 376v319q68 49 122.5 81.5t103 52t95 27.5t98.5 8q54 0 119.5 -15.5t137.5 -46.5l-2 1l36 -11q147 -59 221 -59q35 0 75 12.5t88 38.5t105 66t127 96v-313q-68 -50 -122 -82.5t-102.5 -51.5t-95 -26.5t-97.5 -7.5q-116 0 -267 63l-1 -1l-1 1l-12 4q-6 0 -10 2l-10 3 q-68 29 -121 41t-91 12q-37 0 -78.5 -12t-89.5 -38t-104.5 -66.5t-123.5 -97.5z" />
<glyph unicode="&#xa1;" horiz-adv-x="862" d="M257 1170l22 355h284v-355h-306zM279 0v1069h284v-1069h-284z" />
<glyph unicode="&#xa4;" horiz-adv-x="1368" d="M43 243l203 203q-26 54 -40.5 108t-14.5 108q0 112 55 214l-201 204l188 185l201 -201q49 26 105 41t111 15q111 0 217 -55l205 205l186 -187l-202 -202q25 -51 39 -109.5t14 -109.5q0 -56 -15 -112.5t-41 -104.5l201 -200l-184 -186l-204 202q-50 -27 -106 -43t-110 -16 q-51 0 -107 14.5t-110 42.5q-51 -49 -102.5 -102t-101.5 -102zM451 664q0 -42 15.5 -78.5t42.5 -63.5t63.5 -42.5t77.5 -15.5q42 0 78 15t63 41.5t42.5 63t15.5 80.5q0 42 -15.5 78t-42.5 61.5t-63 40t-78 14.5q-43 0 -79.5 -15.5t-63 -42t-41.5 -61.5t-15 -75z" />
<glyph unicode="&#xa6;" horiz-adv-x="725" d="M206 -332v829h275v-829h-275zM206 638v827h275v-827h-275z" />
<glyph unicode="&#xa7;" d="M57 740q0 86 33 155t103 122q-42 45 -58 93t-16 109q0 72 28.5 132t81 103.5t126.5 68t166 24.5q73 0 157 -16.5t187 -53.5v-283q-229 107 -323 107q-66 0 -102 -23t-36 -65q0 -27 41 -62t125 -83l21 -12q10 -7 20 -11q105 -59 172.5 -107t107 -93.5t55 -93.5t15.5 -107 q0 -84 -37.5 -153t-104.5 -124q36 -45 58 -96.5t22 -105.5q0 -78 -30 -142t-84 -110.5t-129.5 -72t-167.5 -25.5q-74 0 -160.5 18t-195.5 55v279q230 -103 332 -103q73 0 111 24.5t38 70.5q0 61 -177 157l-28 21l1 -1q-113 63 -182 111t-106.5 92.5t-50.5 91.5t-13 109z M260 954l127 -81l137 96zM322 769q0 -27 11.5 -50t44.5 -51t93.5 -65.5t158.5 -91.5q66 57 66 106q0 44 -51 92q-27 28 -91 67.5t-166 96.5q-66 -57 -66 -104z" />
<glyph unicode="&#xa8;" d="M173 1275v304h303v-304h-303zM544 1275v304h302v-304h-302z" />
<glyph unicode="&#xa9;" horiz-adv-x="2150" d="M263 756q0 104 28 201t78 181.5t120 154t154 119t179.5 76.5t197.5 27q313 0 533 -224q115 -112 169 -243t54 -292q0 -158 -54 -289.5t-169 -243.5q-220 -223 -533 -223q-101 0 -197 27t-180 76.5t-154 119t-120 153.5t-78 180t-28 200zM470 756q0 -74 20 -143t56.5 -130 t87.5 -111.5t112 -87t130.5 -56.5t143.5 -20q112 0 212 43.5t175 118t118.5 174t43.5 212.5q0 111 -44 211t-119.5 175t-175 119t-210.5 44q-112 0 -212 -44t-175 -119t-119 -175t-44 -211zM545 756q0 111 36.5 200t102.5 152t158 96.5t203 33.5q75 0 151 -17.5t163 -54.5 v-248q-100 49 -172.5 72.5t-132.5 23.5q-111 0 -176 -64.5t-65 -193.5q0 -126 65.5 -192.5t185.5 -66.5q54 0 124 24.5t171 78.5v-257q-84 -34 -161.5 -52t-152.5 -18q-111 0 -203 33.5t-158 96t-102.5 152t-36.5 201.5z" />
<glyph unicode="&#xab;" horiz-adv-x="1317" d="M124 561v127l554 493v-330l-255 -228q30 -27 59.5 -52.5t58.5 -52.5l137 -125v-329zM536 561v127l554 493v-330l-255 -227q61 -56 127 -116t128 -115v-329z" />
<glyph unicode="&#xac;" horiz-adv-x="1802" d="M192 654v272h1326v-655h-272v383h-1054z" />
<glyph unicode="&#xad;" horiz-adv-x="776" d="M56 454v266h624v-266h-624z" />
<glyph unicode="&#xae;" horiz-adv-x="2150" d="M263 756q0 104 28 201t78 181.5t120 154t154 119t179.5 76.5t197.5 27q313 0 533 -224q115 -112 169 -243t54 -292q0 -158 -54 -289.5t-169 -243.5q-220 -223 -533 -223q-101 0 -197 27t-180 76.5t-154 119t-120 153.5t-78 180t-28 200zM470 756q0 -112 41.5 -208.5 t122.5 -177.5q11 -11 21.5 -20.5t21.5 -18.5v853q-103 -82 -155 -193t-52 -235zM693 318q142 -110 327 -110q96 0 177 27.5t153 82.5h-141l-142 224q-20 37 -36 59.5t-30.5 34.5t-29 16t-31.5 4h-5v-338h-242zM727 1221h274q386 0 386 -283q0 -78 -33.5 -135.5t-99.5 -90.5 q12 -17 28.5 -42t36.5 -55l125 -207q125 146 125 348q0 111 -44 211t-119.5 175t-175 119t-210.5 44q-164 0 -293 -84zM935 865h59q36 0 60.5 1.5t40 9t22.5 21.5t7 40q0 42 -29 58.5t-101 16.5h-59v-147z" />
<glyph unicode="&#xaf;" d="M171 1303v250h677v-250h-677z" />
<glyph unicode="&#xb0;" d="M155 1191q0 72 27 137t75 113.5t113 77t141 28.5q70 0 134 -28t113 -76t78 -113t29 -139q0 -77 -29 -142t-77.5 -112t-113.5 -73.5t-137 -26.5q-75 0 -139.5 27.5t-112 75t-74.5 112t-27 139.5zM387 1191q0 -25 8.5 -47.5t25 -39t39 -26t51.5 -9.5q56 0 89.5 34.5 t33.5 87.5q0 25 -10 47.5t-27.5 39t-39.5 26.5t-46 10q-26 0 -48.5 -9.5t-39.5 -26.5t-26.5 -39.5t-9.5 -47.5z" />
<glyph unicode="&#xb1;" horiz-adv-x="1802" d="M192 0v271h1326v-271h-1326zM192 688v272h528v364h270v-364h528v-272h-528v-368h-270v368h-528z" />
<glyph unicode="&#xb4;" d="M269 1192l349 467h343l-406 -467h-286z" />
<glyph unicode="&#xb6;" horiz-adv-x="1368" d="M124 1068q0 100 36.5 183.5t103.5 144.5t160 95t206 34h479v-1712h-245v1480h-70v-1480h-243v806q-98 12 -177 49.5t-134.5 95.5t-85.5 135t-30 169z" />
<glyph unicode="&#xb7;" horiz-adv-x="684" d="M167 551v354h311v-354h-311z" />
<glyph unicode="&#xb9;" horiz-adv-x="862" d="M94 1261v225l264 47h195v-686h192v-216h-631v216h192v454q-3 -1 -10.5 -2t-15.5 -2.5t-14 -3l-6 -1.5l7 1z" />
<glyph unicode="&#xba;" horiz-adv-x="1014" d="M58 1102q0 105 30.5 187.5t86 139.5t134 87.5t173.5 30.5t172.5 -31t132 -89t84.5 -140t30 -185q0 -82 -20.5 -153.5t-58.5 -127t-94 -94t-126 -54.5h260v-230h-763v230h262q-72 17 -128.5 55.5t-95 94.5t-59 127t-20.5 152zM319 1102q0 -103 48 -166l-1 1q23 -25 52 -40 t64 -15q36 0 66 16.5t51.5 46t33.5 70t12 87.5q0 54 -13 97t-36 75v-1q-48 54 -114 54q-69 0 -115 -54v1q-48 -59 -48 -172z" />
<glyph unicode="&#xbb;" horiz-adv-x="1317" d="M160 64v329l253 231q-26 22 -52 46t-52 47l-72 65v-1q-19 17 -39 35t-38 35v330l554 -493v-127zM569 64v329l256 231q-10 8 -19 16.5t-19 16.5l-218 194v329l556 -492v-127z" />
<glyph unicode="&#xbf;" horiz-adv-x="1141" d="M107 363q0 40 7.5 76t27 73.5t52 79t82.5 91.5l82 80h-1l20 22q22 22 35.5 37t20 28t8.5 27t2 35v233h294v-205q0 -53 -7 -96.5t-25 -83.5t-48 -79t-76 -81l-86 -85q-45 -41 -64.5 -75.5t-19.5 -69.5q0 -56 41 -92l-2 1q24 -16 59.5 -27.5t70.5 -11.5q66 0 165 45.5 t227 136.5v-319q-109 -66 -213.5 -98.5t-208.5 -32.5q-102 0 -184 28.5t-139.5 80t-88.5 123.5t-31 159zM443 1170v355h300v-355h-300z" />
<glyph unicode="&#xc0;" horiz-adv-x="1470" d="M-22 37l594 1564h80l-309 356h338l272 -373h-71l586 -1547h-322l-134 371h-574q-8 -21 -15.5 -42.5t-14.5 -42.5l-20 -59q-10 -26 -20.5 -55.5l-21 -59t-20.5 -58.5t-19 -54h-329zM538 687h373l-187 498q-47 -127 -93 -248.5t-93 -249.5z" />
<glyph unicode="&#xc1;" horiz-adv-x="1470" d="M-22 37l587 1547h-108l275 373h332l-304 -356h116l592 -1564h-322l-134 371h-574q-8 -21 -15.5 -42.5t-14.5 -42.5l-20 -59q-10 -26 -20.5 -55.5l-21 -59t-20.5 -58.5t-19 -54h-329zM538 687h373l-187 498q-47 -127 -93 -248.5t-93 -249.5z" />
<glyph unicode="&#xc2;" horiz-adv-x="1470" d="M-22 37l587 1547h-269l292 375h239l291 -375h-236l586 -1547h-322l-134 371h-574q-8 -21 -15.5 -42.5t-14.5 -42.5l-20 -59q-10 -26 -20.5 -55.5l-21 -59t-20.5 -58.5t-19 -54h-329zM585 1601h241l-119 131l-37 -40zM588 687h323l-187 498q-24 -63 -46 -125t-40.5 -123.5 t-31.5 -123.5t-18 -126z" />
<glyph unicode="&#xc3;" horiz-adv-x="1470" d="M-22 37l594 1564h304l592 -1564h-322l-134 371h-574q-8 -21 -15.5 -42.5t-14.5 -42.5l-20 -59q-10 -26 -20.5 -55.5l-21 -59t-20.5 -58.5t-19 -54h-329zM327 1615q0 92 19 154.5t52 101t77.5 55.5t94.5 17q25 0 44 -3t37 -8.5t37.5 -14t46.5 -20.5l59 -31q16 -8 24 -13 t16 -5q14 0 14 33v62h235q-1 -87 -19 -149.5t-50 -102t-75.5 -58t-94.5 -18.5q-21 0 -38.5 2t-36 7.5t-40 14.5t-49.5 23l-59 34q-20 11 -28.5 14.5t-10.5 3.5q-18 0 -18 -34v-65h-237zM538 687h373l-187 498q-47 -127 -93 -248.5t-93 -249.5z" />
<glyph unicode="&#xc4;" horiz-adv-x="1470" d="M-22 37l594 1564h304l592 -1564h-322l-134 371h-574q-8 -21 -15.5 -42.5t-14.5 -42.5l-20 -59q-10 -26 -20.5 -55.5l-21 -59t-20.5 -58.5t-19 -54h-329zM362 1615v311h311v-311h-311zM538 687h373l-187 498q-47 -127 -93 -248.5t-93 -249.5zM741 1615v311h312v-311h-312z " />
<glyph unicode="&#xc5;" horiz-adv-x="1470" d="M-40 0l529 1391q-57 48 -81.5 106t-24.5 136q0 67 25 126t69 103.5t102.5 70.5t126.5 26q65 0 124 -25.5t103.5 -70t70.5 -104t26 -126.5q0 -69 -28.5 -131.5t-79.5 -110.5q121 -315 241 -631.5t240 -634.5l47 -125h-322l-134 371h-574q-7 -18 -13.5 -38t-13.5 -39 l-23 -66q-9 -27 -20 -56t-21.5 -59t-20.5 -59t-19 -54h-329zM523 649h369l-186 499q-47 -128 -92.5 -249.5t-90.5 -249.5zM616 1633q0 -21 7.5 -37.5t20.5 -28t29 -17.5t33 -6q24 0 41 8.5t28 21.5t16.5 28.5t5.5 30.5t-5.5 31.5t-17 30t-28.5 22.5t-40 9q-39 0 -64.5 -25.5 t-25.5 -67.5z" />
<glyph unicode="&#xc6;" horiz-adv-x="2095" d="M-41 0l657 1563h1267v-279h-718v-315h689v-278h-689v-414h737v-277h-1048v371h-419l-154 -371h-322zM551 649h303v646h-31q-33 -84 -66.5 -159t-66.5 -156l-37 -90q-13 -31 -25.5 -59.5l-25 -57t-25.5 -59t-26 -65.5z" />
<glyph unicode="&#xc7;" horiz-adv-x="1501" d="M102 816q0 187 53.5 337t153 254t241 160t316.5 56q138 0 266 -39.5t249 -124.5v-369q-139 132 -265 196t-239 64q-223 0 -339 -136t-116 -398q0 -269 118.5 -401.5t336.5 -132.5q115 0 240.5 65.5t263.5 195.5v-365q-92 -66 -187 -105t-195 -54q32 -46 48 -87.5 t16 -82.5q0 -116 -72.5 -174.5t-215.5 -58.5q-51 0 -107 11t-120 28v265q133 -72 205 -72q57 0 57 38q0 14 -17 46t-53 84q-150 19 -268.5 84t-200.5 168.5t-125.5 242.5t-43.5 305z" />
<glyph unicode="&#xc8;" horiz-adv-x="1360" d="M182 37v1564h438l-307 356h336l264 -356h299v-281h-719v-313h688v-280h-688v-412h736v-278h-1047z" />
<glyph unicode="&#xc9;" horiz-adv-x="1360" d="M182 37v1564h256l264 356h330l-303 -356h483v-281h-719v-313h688v-280h-688v-412h736v-278h-1047z" />
<glyph unicode="&#xca;" horiz-adv-x="1360" d="M182 37v1564h93l281 358h241l278 -358h137v-281h-719v-313h688v-280h-688v-412h736v-278h-1047zM555 1601h244l-123 132l-3 -3q-29 -32 -59.5 -64.5t-58.5 -64.5z" />
<glyph unicode="&#xcb;" horiz-adv-x="1360" d="M182 37v1564h1030v-281h-719v-313h688v-280h-688v-412h736v-278h-1047zM331 1615v311h311v-311h-311zM712 1615v311h310v-311h-310z" />
<glyph unicode="&#xcc;" horiz-adv-x="635" d="M-61 1957h337l276 -373h-86v-1547h-311v1564h93z" />
<glyph unicode="&#xcd;" horiz-adv-x="635" d="M56 1584l278 373h328l-300 -356h109v-1564h-311v1547h-104z" />
<glyph unicode="&#xce;" horiz-adv-x="635" d="M-108 1584l295 375h239l292 -375h-249v-1547h-311v1547h-266zM185 1601h240l-120 131l-47 -52q-17 -17 -36.5 -38.5t-36.5 -40.5z" />
<glyph unicode="&#xcf;" horiz-adv-x="635" d="M-39 1615v311h310v-311h-310zM158 37v1564h311v-1564h-311zM341 1615v311h310v-311h-310z" />
<glyph unicode="&#xd0;" horiz-adv-x="1665" d="M-20 679v254h197v630h458q225 0 389 -48t271.5 -145.5t159.5 -244t52 -343.5t-52 -343.5t-159 -244t-271.5 -146t-389.5 -48.5h-458v679h-197zM487 275h179q140 0 239 29t162 91t92 157.5t29 229.5q0 135 -30.5 230.5t-94.5 157t-162.5 90t-234.5 28.5h-179v-355h325 v-254h-325v-404z" />
<glyph unicode="&#xd1;" horiz-adv-x="1610" d="M189 37v1564h355l550 -1041v1041h306v-1564h-358l-549 1038v-1038h-304zM397 1615q0 75 17 135.5t48 103.5t75 66t98 23q22 0 41.5 -2.5t40 -7.5t41.5 -13.5t46 -21.5l15 -11l-1 1l34 -20q17 -10 27.5 -15t19.5 -5q16 0 16 33v62h236q-1 -89 -19.5 -151t-51 -101.5 t-76 -57.5t-94.5 -18q-19 0 -33 1t-29 5t-32.5 10.5t-42.5 17.5l-33 14l-57 35q-15 10 -22 13t-11 3q-18 0 -18 -34v-65h-235z" />
<glyph unicode="&#xd2;" horiz-adv-x="1694" d="M108 816q0 170 45.5 311t128.5 245t201 167.5t262 78.5l-292 339h333l269 -362q117 -33 211 -103t160 -171t102 -229t36 -276q0 -182 -52.5 -330.5t-148 -254.5t-230 -164t-297.5 -58q-162 0 -296 57t-230 162t-149 254t-53 334zM429 816q0 -120 27.5 -218.5t80 -169 t128 -109.5t171.5 -39t171.5 39.5t127 110.5t79 169.5t27.5 216.5q0 119 -27.5 218t-79 169.5t-127 109.5t-171.5 39q-97 0 -173 -39.5t-128 -110t-79 -169.5t-27 -217z" />
<glyph unicode="&#xd3;" horiz-adv-x="1694" d="M108 816q0 142 32.5 266t93.5 223t148.5 170.5t197.5 108.5h-17l276 373h335l-289 -335q152 -9 277 -69.5t214.5 -165.5t138.5 -250t49 -321q0 -182 -52.5 -330.5t-148 -254.5t-230 -164t-297.5 -58q-162 0 -296 57t-230 162t-149 254t-53 334zM429 816 q0 -120 27.5 -218.5t80 -169t128 -109.5t171.5 -39t171.5 39.5t127 110.5t79 169.5t27.5 216.5q0 119 -27.5 218t-79 169.5t-127 109.5t-171.5 39q-97 0 -173 -39.5t-128 -110t-79 -169.5t-27 -217z" />
<glyph unicode="&#xd4;" horiz-adv-x="1694" d="M108 816q0 142 32.5 266t93.5 223t148.5 170.5t197.5 108.5h-183l299 375h238l291 -375h-136q111 -38 199 -109t149.5 -170t94 -223t32.5 -266q0 -182 -52.5 -330.5t-148 -254.5t-230 -164t-297.5 -58q-162 0 -296 57t-230 162t-149 254t-53 334zM429 816 q0 -120 27.5 -218.5t80 -169t128 -109.5t171.5 -39t171.5 39.5t127 110.5t79 169.5t27.5 216.5q0 119 -27.5 218t-79 169.5t-127 109.5t-171.5 39q-97 0 -173 -39.5t-128 -110t-79 -169.5t-27 -217zM707 1614q61 9 129 9q21 0 41 -1t40 -3l-102 113q-25 -27 -53.5 -58 t-54.5 -60z" />
<glyph unicode="&#xd5;" horiz-adv-x="1694" d="M108 816q0 184 52.5 333t148 254.5t229.5 162.5t298 57h25.5t24.5 -1l-11 3q-13 4 -37.5 14.5t-56.5 25.5l-56 34q-14 9 -22 12t-13 3q-15 0 -15 -34v-65h-236q0 75 17 135.5t48 103.5t75 66t99 23q44 0 80.5 -9.5t86.5 -36.5l56 -33q12 -7 21.5 -11.5t18.5 -4.5 q17 0 17 33v62h234q-1 -89 -19.5 -151t-50.5 -101t-75 -57t-92 -19q138 -19 250 -84.5t192 -169t123.5 -242t43.5 -303.5q0 -182 -52.5 -330.5t-148 -254.5t-230 -164t-297.5 -58q-162 0 -296 57t-230 162t-149 254t-53 334zM429 816q0 -120 27.5 -218.5t80 -169t128 -109.5 t171.5 -39t171.5 39.5t127 110.5t79 169.5t27.5 216.5q0 119 -27.5 218t-79 169.5t-127 109.5t-171.5 39q-97 0 -173 -39.5t-128 -110t-79 -169.5t-27 -217z" />
<glyph unicode="&#xd6;" horiz-adv-x="1694" d="M108 816q0 165 43 303.5t122.5 242t191.5 169t250 84.5h-247v311h314v-305q13 1 26.5 1.5t27.5 0.5h13v303h310v-311h-204q138 -19 250 -84.5t192 -169t123.5 -242t43.5 -303.5q0 -182 -52.5 -330.5t-148 -254.5t-230 -164t-297.5 -58q-162 0 -296 57t-230 162t-149 254 t-53 334zM429 816q0 -120 27.5 -218.5t80 -169t128 -109.5t171.5 -39t171.5 39.5t127 110.5t79 169.5t27.5 216.5q0 119 -27.5 218t-79 169.5t-127 109.5t-171.5 39q-97 0 -173 -39.5t-128 -110t-79 -169.5t-27 -217z" />
<glyph unicode="&#xd7;" horiz-adv-x="1802" d="M231 230l432 432l-432 432l191 194l432 -432l434 432l191 -194l-431 -432l431 -432l-191 -194l-434 435l-432 -435z" />
<glyph unicode="&#xd8;" horiz-adv-x="1694" d="M48 68l176 203q-69 106 -103.5 230t-34.5 279q0 183 52 332t148 254.5t230.5 163t299.5 57.5q121 0 224.5 -29.5t189.5 -95.5q38 46 80 94.5t80 93.5l183 -162l-169 -201q67 -105 102.5 -230.5t35.5 -276.5q0 -182 -52 -331t-147.5 -255t-229.5 -164.5t-297 -58.5 q-122 0 -225 31t-194 94l-160 -188zM407 780q0 -76 7 -138.5t27 -114.5l602 712q-48 39 -104 57t-123 18q-97 0 -173 -39t-128.5 -109.5t-80 -169t-27.5 -216.5zM584 321q50 -36 109.5 -56.5t122.5 -20.5q96 0 170.5 39.5t126.5 110.5t79 169.5t27 216.5q0 75 -7.5 136.5 t-24.5 113.5z" />
<glyph unicode="&#xd9;" horiz-adv-x="1575" d="M164 638v963h311v-941q0 -103 17 -175.5t53 -118t93 -66t138 -20.5q36 0 70 7t63 18t53.5 26t42.5 31q33 45 52.5 121.5t19.5 176.5v941h311v-963q0 -313 -154.5 -471t-457.5 -158q-304 0 -458 159t-154 470zM393 1957h336l278 -373h-290z" />
<glyph unicode="&#xda;" horiz-adv-x="1575" d="M164 638v963h311v-941q0 -103 17 -175.5t53 -118t93 -66t138 -20.5q36 0 70 7t63 18t53.5 26t42.5 31q33 45 52.5 121.5t19.5 176.5v941h311v-963q0 -313 -154.5 -471t-457.5 -158q-304 0 -458 159t-154 470zM505 1584l278 373h327l-313 -373h-292z" />
<glyph unicode="&#xdb;" horiz-adv-x="1575" d="M164 638v963h192l281 358h240l279 -358h232v-963q0 -313 -154.5 -471t-457.5 -158q-304 0 -458 159t-154 470zM475 660q0 -103 17 -175.5t53 -118t93 -66t138 -20.5q36 0 70 7t63 18t53.5 26t42.5 31q33 45 52.5 121.5t19.5 176.5v924h-183l-138 149l-39 -44 q-23 -26 -49 -52.5t-47 -52.5h-146v-924z" />
<glyph unicode="&#xdc;" horiz-adv-x="1575" d="M164 638v963h311v-941q0 -103 17 -175.5t53 -118t93 -66t138 -20.5q36 0 70 7t63 18t53.5 26t42.5 31q33 45 52.5 121.5t19.5 176.5v941h311v-963q0 -313 -154.5 -471t-457.5 -158q-304 0 -458 159t-154 470zM412 1615v311h311v-311h-311zM792 1615v311h310v-311h-310z " />
<glyph unicode="&#xdd;" horiz-adv-x="1315" d="M-72 1601h349l370 -551q5 10 12.5 20t14.5 20l36 54q37 55 76 113t78.5 116t78 115.5t74.5 112.5h350l-563 -835v-729h-311v729zM381 1584l278 373h327l-314 -373h-291z" />
<glyph unicode="&#xde;" horiz-adv-x="1300" d="M164 0v1563h311v-257h189q272 0 410.5 -122t138.5 -367t-137.5 -367t-411.5 -122h-189v-328h-311zM475 602h189q112 0 170.5 56t58.5 159q0 105 -58.5 159.5t-170.5 54.5h-189v-429z" />
<glyph unicode="&#xdf;" horiz-adv-x="1354" d="M154 0v1131q0 106 34 189.5t97 142t154 89.5t205 31q228 0 343 -136t117 -407q-71 -3 -126.5 -15t-93.5 -31.5t-58.5 -46t-20.5 -58.5q0 -29 20 -56.5t69 -56.5l54 -35h-1q84 -56 137.5 -101.5t84 -88.5t41.5 -88t11 -99q0 -193 -119.5 -292.5t-346.5 -99.5 q-72 0 -148.5 15.5t-164.5 41.5v-29h-288zM442 309q109 -41 188 -60t136 -19q81 0 124 31t43 91q0 18 -5 35t-13 31l1 -2q-15 17 -41.5 39t-64.5 46v-1q-11 5 -22 12.5t-22 13.5l-44 25q-53 32 -91 66.5t-62.5 72.5t-36 82t-11.5 96q0 63 20.5 118.5t58.5 100.5t92 79 t121 54q-33 105 -173 105q-97 0 -147.5 -50.5t-50.5 -147.5v-818z" />
<glyph unicode="&#xe0;" horiz-adv-x="1319" d="M91 364q0 209 133 311t397 104l188 1q-12 76 -74.5 115.5t-168.5 39.5q-81 0 -181.5 -30.5t-217.5 -93.5v293q121 47 223 69.5t194 22.5q259 0 386 -132.5t127 -403.5v-660h-285v72q-63 -48 -139.5 -74t-172.5 -26q-95 0 -170.5 28.5t-128.5 80.5t-81.5 124t-28.5 159z M142 1659h340l351 -465h-285zM377 374q0 -65 41.5 -104.5t128.5 -39.5q58 0 105 22t81.5 61.5t55 95t23.5 123.5h-118q-87 0 -147 -7t-98 -24.5t-55 -48t-17 -78.5z" />
<glyph unicode="&#xe1;" horiz-adv-x="1319" d="M91 364q0 209 133 311t397 104l188 1q-12 76 -74.5 115.5t-168.5 39.5q-81 0 -181.5 -30.5t-217.5 -93.5v293q121 47 223 69.5t194 22.5q259 0 386 -132.5t127 -403.5v-660h-285v72q-63 -48 -139.5 -74t-172.5 -26q-95 0 -170.5 28.5t-128.5 80.5t-81.5 124t-28.5 159z M355 1192l349 467h343l-406 -467h-286zM377 374q0 -65 41.5 -104.5t128.5 -39.5q58 0 105 22t81.5 61.5t55 95t23.5 123.5h-118q-87 0 -147 -7t-98 -24.5t-55 -48t-17 -78.5z" />
<glyph unicode="&#xe2;" horiz-adv-x="1319" d="M111 401q0 210 132.5 311.5t398.5 103.5l187 1q-12 76 -74 115.5t-168 39.5q-82 0 -183 -31t-216 -94v295q39 15 76.5 27.5t73.5 22.5h-150l306 467h196l306 -467h-145q267 -106 267 -494v-662h-286v72q-61 -48 -138 -73.5t-173 -25.5t-172 28.5t-129 80.5t-81 124 t-28 159zM397 412q0 -66 42.5 -105.5t126.5 -39.5q59 0 107 22t82.5 61.5t54 95.5t22.5 124h-117q-86 0 -146.5 -7t-98.5 -25t-55.5 -48.5t-17.5 -77.5zM471 1221q35 5 68.5 8t65.5 3q55 0 103 -6l-115 157l-88 -117z" />
<glyph unicode="&#xe3;" horiz-adv-x="1319" d="M111 401q0 210 132.5 311.5t398.5 103.5l187 1q-12 76 -74 115.5t-168 39.5q-82 0 -183 -31t-216 -94v295q121 46 223 68t194 22q259 0 386 -132t127 -402v-662h-286v72q-61 -48 -138 -73.5t-173 -25.5t-172 28.5t-129 80.5t-81 124t-28 159zM223 1237q2 181 65 280 t175 99q47 0 86.5 -17t83.5 -59l55 -52q24 -19 27 -19q6 0 10 34t6 113h229q-1 -90 -18 -160.5t-48 -119t-75 -74t-98 -25.5q-51 0 -90 17.5t-82 52.5l-55 54q-13 12 -18 16.5t-7 4.5q-6 0 -9.5 -33.5t-7.5 -111.5h-229zM397 412q0 -66 42.5 -105.5t126.5 -39.5q59 0 107 22 t82.5 61.5t54 95.5t22.5 124h-117q-86 0 -146.5 -7t-98.5 -25t-55.5 -48.5t-17.5 -77.5z" />
<glyph unicode="&#xe4;" horiz-adv-x="1319" d="M91 364q0 209 133 311t397 104l188 1q-12 76 -74.5 115.5t-168.5 39.5q-81 0 -181.5 -30.5t-217.5 -93.5v293q121 47 223 69.5t194 22.5q259 0 386 -132.5t127 -403.5v-660h-285v72q-63 -48 -139.5 -74t-172.5 -26q-95 0 -170.5 28.5t-128.5 80.5t-81.5 124t-28.5 159z M259 1275v304h303v-304h-303zM377 374q0 -65 41.5 -104.5t128.5 -39.5q58 0 105 22t81.5 61.5t55 95t23.5 123.5h-118q-87 0 -147 -7t-98 -24.5t-55 -48t-17 -78.5zM630 1275v304h302v-304h-302z" />
<glyph unicode="&#xe5;" horiz-adv-x="1319" d="M111 401q0 210 132.5 311.5t398.5 103.5l187 1q-12 76 -74 115.5t-168 39.5q-82 0 -183 -31t-216 -94v295q140 53 255 74q-40 21 -71 51.5t-52 67t-32 77t-11 82.5q0 66 25 123.5t68 100.5t100.5 68t122.5 25q63 0 119.5 -24t99.5 -66.5t68.5 -100.5t25.5 -126 q0 -84 -40 -157t-118 -117q188 -34 279 -162.5t91 -359.5v-662h-286v72q-61 -48 -138 -73.5t-173 -25.5t-172 28.5t-129 80.5t-81 124t-28 159zM397 412q0 -66 42.5 -105.5t126.5 -39.5q59 0 107 22t82.5 61.5t54 95.5t22.5 124h-117q-86 0 -146.5 -7t-98.5 -25t-55.5 -48.5 t-17.5 -77.5zM505 1494q0 -35 23 -59.5t65 -24.5q37 0 61 24t24 60q0 41 -24 64.5t-61 23.5q-43 0 -65.5 -25t-22.5 -63z" />
<glyph unicode="&#xe6;" horiz-adv-x="2111" d="M112 364q0 209 133.5 311t399.5 104l185 1q-11 76 -73 115.5t-167 39.5q-83 0 -183.5 -30.5t-215.5 -93.5v293q234 92 413 92q128 0 228 -36.5t164 -107.5q76 71 174.5 107.5t217.5 36.5q114 0 209.5 -39t164.5 -112.5t107 -178.5t38 -237v-141h-794 q22 -129 101.5 -193.5t214.5 -64.5q90 0 196 34.5t242 106.5v-300q-118 -48 -228.5 -73.5t-219.5 -25.5q-297 0 -464 188q-148 -188 -410 -188q-101 0 -181.5 27t-136.5 78t-85.5 123.5t-29.5 163.5zM398 374q0 -69 46 -106.5t124 -37.5q58 0 105 22t81.5 61.5t55 95 t23.5 123.5h-118q-91 0 -159 -11t-104 -31l1 1q-25 -16 -40 -46t-15 -71zM1122 735h494q-18 91 -75 145.5t-151 54.5q-106 0 -175.5 -51.5t-92.5 -148.5z" />
<glyph unicode="&#xe7;" horiz-adv-x="1182" d="M99 622q0 139 40.5 251.5t117 192t186 123t246.5 43.5q172 0 358 -88v-293q-218 121 -351 121q-148 0 -225.5 -89.5t-77.5 -260.5q0 -85 21 -151t60 -114l-1 1q38 -43 93 -66.5t130 -23.5q66 0 152.5 30.5t198.5 90.5v-292q-57 -29 -111.5 -47t-110.5 -28q61 -89 61 -168 q0 -114 -69.5 -171t-213.5 -57q-47 0 -101.5 10t-117.5 27v260q70 -36 118 -52t84 -16q55 0 55 34q0 14 -17 44.5t-52 81.5q-110 15 -198 66t-149 130.5t-93.5 183.5t-32.5 227z" />
<glyph unicode="&#xe8;" horiz-adv-x="1323" d="M83 574q0 141 41 256t116 196.5t181 125.5t236 44q117 0 213 -40t164 -114t105 -179t37 -234v-141h-791q45 -256 312 -256q96 0 202.5 34.5t235.5 106.5v-299q-117 -51 -227.5 -76.5t-219.5 -25.5q-136 0 -247.5 42.5t-191 120.5t-123 189.5t-43.5 249.5zM201 1659h340 l351 -465h-285zM393 735h494q-7 45 -26 82t-48.5 63t-68 40.5t-85.5 14.5q-109 0 -176.5 -50.5t-89.5 -149.5z" />
<glyph unicode="&#xe9;" horiz-adv-x="1323" d="M83 574q0 141 41 256t116 196.5t181 125.5t236 44q117 0 213 -40t164 -114t105 -179t37 -234v-141h-791q45 -256 312 -256q96 0 202.5 34.5t235.5 106.5v-299q-117 -51 -227.5 -76.5t-219.5 -25.5q-136 0 -247.5 42.5t-191 120.5t-123 189.5t-43.5 249.5zM393 735h494 q-7 45 -26 82t-48.5 63t-68 40.5t-85.5 14.5q-109 0 -176.5 -50.5t-89.5 -149.5zM414 1192l349 467h343l-406 -467h-286z" />
<glyph unicode="&#xea;" horiz-adv-x="1323" d="M105 610q0 105 22.5 196.5t66.5 166t108 130.5t147 89h-205l304 467h200l303 -467h-155q72 -30 128 -80.5t94.5 -118t58 -150t19.5 -178.5v-140h-789q22 -129 98.5 -193t213.5 -64q95 0 201.5 35t236.5 107v-300q-117 -51 -227.5 -76t-219.5 -25q-137 0 -249 42.5 t-191 120.5t-122 189t-43 249zM414 771h495q-7 44 -25.5 81t-47.5 63.5t-68 41.5t-87 15q-109 0 -176.5 -50.5t-90.5 -150.5zM525 1215q74 17 154 17q22 0 43.5 -1.5t41.5 -3.5l-116 156l-33 -45z" />
<glyph unicode="&#xeb;" horiz-adv-x="1323" d="M83 574q0 141 41 256t116 196.5t181 125.5t236 44q117 0 213 -40t164 -114t105 -179t37 -234v-141h-791q45 -256 312 -256q96 0 202.5 34.5t235.5 106.5v-299q-117 -51 -227.5 -76.5t-219.5 -25.5q-136 0 -247.5 42.5t-191 120.5t-123 189.5t-43.5 249.5zM318 1275v304 h303v-304h-303zM393 735h494q-7 45 -26 82t-48.5 63t-68 40.5t-85.5 14.5q-109 0 -176.5 -50.5t-89.5 -149.5zM689 1275v304h302v-304h-302z" />
<glyph unicode="&#xec;" horiz-adv-x="598" d="M-157 1697h340l351 -466h-284zM136 0v1170h285v-1170h-285z" />
<glyph unicode="&#xed;" horiz-adv-x="598" d="M65 1229l349 468h342l-406 -468h-285zM146 0v1170h285v-1170h-285z" />
<glyph unicode="&#xee;" horiz-adv-x="598" d="M-121 1192l304 467h202l303 -467h-263l-142 191l-140 -191h-264zM141 0v1170h285v-1170h-285z" />
<glyph unicode="&#xef;" horiz-adv-x="598" d="M-36 1312v303h304v-303h-304zM141 0v1170h285v-1170h-285zM336 1312v303h302v-303h-302z" />
<glyph unicode="&#xf0;" horiz-adv-x="1317" d="M83 563q0 124 36.5 229t102.5 182t158 122.5t202 51.5l-36 42q-38 -13 -78.5 -27t-82 -27.5t-82 -27t-77.5 -25.5l-65 201l237 77q-25 27 -52 57.5t-53 60.5l-90 104h364l112 -128q22 8 46 16t48 15v-1l241 79l63 -200l-248 -82l97 -110h-1q124 -138 183 -286.5 t59 -322.5q0 -132 -41 -240.5t-113.5 -186.5t-172 -121t-217.5 -43q-120 0 -219.5 43.5t-170.5 122t-110.5 187t-39.5 238.5zM379 563q0 -72 16.5 -132.5t48 -104.5t77 -69t102.5 -25q59 0 105 25t77.5 69.5t48 105t16.5 131.5q0 195 -79 309q-41 13 -73 18.5t-63 5.5 q-132 0 -204 -85.5t-72 -247.5zM608 1123l16 -17l9 23q35 -5 57 -7t35 -2q20 0 20 3q0 2 -13.5 3t-32.5 1.5t-39.5 1.5t-35.5 3zM774 988q0 -19 0.5 -37.5t2.5 -34.5t6 -27.5t11 -15.5l-2 1q2 -2 9 -3.5t23 -2.5t44 -1.5t73 -0.5z" />
<glyph unicode="&#xf1;" horiz-adv-x="1364" d="M176 36v1170h287v-71q58 46 131 71.5t156 25.5q212 0 318 -127t106 -372v-697h-286v688q0 126 -44.5 185.5t-133.5 59.5q-56 0 -102 -18.5t-78 -53.5t-49.5 -87t-17.5 -118v-656h-287zM293 1237q1 90 18 160.5t48 119t75 74t100 25.5q48 0 88 -19.5t81 -56.5l56 -51 q23 -20 25 -20q6 0 9.5 34t5.5 113h231q-1 -90 -18 -160.5t-48 -119t-75 -74t-99 -25.5q-50 0 -89 17.5t-82 52.5l-55 54q-11 12 -18 16t-8 5q-5 0 -9.5 -33.5t-6.5 -111.5h-229z" />
<glyph unicode="&#xf2;" horiz-adv-x="1317" d="M83 586q0 142 37.5 255t108 192t170 121t224.5 42q124 0 225 -43t171.5 -122.5t109 -192t38.5 -252.5q0 -141 -38 -254.5t-108.5 -193.5t-171 -123t-226.5 -43q-122 0 -222 42t-170.5 121.5t-109 193.5t-38.5 257zM177 1659h340l351 -465h-285zM379 586q0 -76 15.5 -141 t46 -112t76 -74t106.5 -27q60 0 106.5 26t77.5 72.5t47 112t16 143.5q0 76 -16 140t-47 110.5t-77 72.5t-107 26q-59 0 -104.5 -25t-76.5 -71t-47 -110.5t-16 -142.5z" />
<glyph unicode="&#xf3;" horiz-adv-x="1317" d="M83 586q0 142 37.5 255t108 192t170 121t224.5 42q124 0 225 -43t171.5 -122.5t109 -192t38.5 -252.5q0 -141 -38 -254.5t-108.5 -193.5t-171 -123t-226.5 -43q-122 0 -222 42t-170.5 121.5t-109 193.5t-38.5 257zM379 586q0 -76 15.5 -141t46 -112t76 -74t106.5 -27 q60 0 106.5 26t77.5 72.5t47 112t16 143.5q0 76 -16 140t-47 110.5t-77 72.5t-107 26q-59 0 -104.5 -25t-76.5 -71t-47 -110.5t-16 -142.5zM390 1192l349 467h343l-406 -467h-286z" />
<glyph unicode="&#xf4;" horiz-adv-x="1317" d="M105 622q0 214 82 360.5t234 209.5h-200l304 467h199l305 -467h-164q77 -32 137.5 -85.5t102 -126.5t63 -163t21.5 -195q0 -141 -38 -254.5t-108.5 -193t-171 -122.5t-226.5 -43q-122 0 -221.5 41.5t-170.5 120.5t-109.5 193t-38.5 258zM401 622q0 -78 16 -143t46.5 -112 t76 -73t105.5 -26q59 0 105 26t77.5 73t48 112t16.5 143q0 76 -16 140.5t-47.5 111t-77.5 72.5t-106 26q-59 0 -104 -24.5t-76.5 -70.5t-47.5 -110.5t-16 -144.5zM500 1217q67 15 145 15q26 0 50 -1.5t47 -5.5l-117 159z" />
<glyph unicode="&#xf5;" horiz-adv-x="1317" d="M105 622q0 144 38 257.5t108 191.5t170 119.5t224 41.5q123 0 223.5 -42t171.5 -121t110 -192t39 -255q0 -141 -38 -254.5t-108.5 -193t-171 -122.5t-226.5 -43q-122 0 -221.5 41.5t-170.5 120.5t-109.5 193t-38.5 258zM256 1237q1 90 18 160.5t48.5 119t75.5 74t99 25.5 q45 0 85.5 -17.5t85.5 -58.5l55 -51q21 -21 23 -20q7 0 11 32t8 115h229q-1 -90 -18 -160.5t-48.5 -119t-75.5 -74t-99 -25.5q-50 0 -89 17.5t-82 52.5l-55 54q-20 21 -25 21q-7 0 -11 -33.5t-6 -111.5h-229zM401 622q0 -78 16 -143t46.5 -112t76 -73t105.5 -26q59 0 105 26 t77.5 73t48 112t16.5 143q0 76 -16 140.5t-47.5 111t-77.5 72.5t-106 26q-59 0 -104 -24.5t-76.5 -70.5t-47.5 -110.5t-16 -144.5z" />
<glyph unicode="&#xf6;" horiz-adv-x="1317" d="M83 586q0 142 37.5 255t108 192t170 121t224.5 42q124 0 225 -43t171.5 -122.5t109 -192t38.5 -252.5q0 -141 -38 -254.5t-108.5 -193.5t-171 -123t-226.5 -43q-122 0 -222 42t-170.5 121.5t-109 193.5t-38.5 257zM294 1275v304h303v-304h-303zM379 586q0 -76 15.5 -141 t46 -112t76 -74t106.5 -27q60 0 106.5 26t77.5 72.5t47 112t16 143.5q0 76 -16 140t-47 110.5t-77 72.5t-107 26q-59 0 -104.5 -25t-76.5 -71t-47 -110.5t-16 -142.5zM665 1275v304h302v-304h-302z" />
<glyph unicode="&#xf7;" horiz-adv-x="1802" d="M192 527v273h1326v-273h-1326zM683 142v344h343v-344h-343zM683 841v345h343v-345h-343z" />
<glyph unicode="&#xf8;" horiz-adv-x="1317" d="M21 34l150 182q-88 150 -88 370q0 142 37.5 255t108 192t170 121t224.5 42q84 0 156.5 -20t135.5 -58l135 163l177 -147l-151 -181q91 -150 91 -367q0 -141 -38 -254.5t-109 -193.5t-171.5 -123t-225.5 -43q-83 0 -156 20t-133 58q-11 -12 -21.5 -24t-20.5 -24l-94 -112z M379 571q0 -52 6 -95l356 430q-50 29 -118 29q-60 0 -105.5 -24.5t-76.5 -71t-46.5 -114.5t-15.5 -154zM505 259q25 -14 55 -20.5t63 -6.5q60 0 106.5 26t77.5 72.5t47 112t16 143.5q0 30 -1.5 57.5t-5.5 52.5z" />
<glyph unicode="&#xf9;" horiz-adv-x="1364" d="M140 475v695h288v-691q0 -124 44 -183.5t135 -59.5q114 0 180.5 72t66.5 208v654h285v-1170h-285v69q-112 -97 -284 -97q-214 0 -322 126t-108 377zM185 1659h340l351 -465h-285z" />
<glyph unicode="&#xfa;" horiz-adv-x="1364" d="M140 475v695h288v-691q0 -124 44 -183.5t135 -59.5q114 0 180.5 72t66.5 208v654h285v-1170h-285v69q-112 -97 -284 -97q-214 0 -322 126t-108 377zM398 1192l349 467h343l-406 -467h-286z" />
<glyph unicode="&#xfb;" horiz-adv-x="1364" d="M162 511v695h76l295 453h199l296 -453h133v-1170h-285v70q-59 -51 -128 -74t-158 -23q-214 0 -321 126t-107 376zM450 517q0 -245 179 -245q57 0 102.5 18.5t77.5 54.5t49.5 88t17.5 119v640h-101l-140 193q-38 -48 -73 -96t-72 -97h-40v-675z" />
<glyph unicode="&#xfc;" horiz-adv-x="1364" d="M140 475v695h288v-691q0 -124 44 -183.5t135 -59.5q114 0 180.5 72t66.5 208v654h285v-1170h-285v69q-112 -97 -284 -97q-214 0 -322 126t-108 377zM302 1275v304h303v-304h-303zM673 1275v304h302v-304h-302z" />
<glyph unicode="&#xfd;" horiz-adv-x="1274" d="M3 1170h309l293 -729q48 125 98.5 249.5t101.5 252.5l90 227h307l-496 -1233q-41 -101 -80.5 -166.5t-84 -104t-97 -53.5t-120.5 -15h-196v257h157q30 0 49 5t34 21.5t29.5 47.5t37.5 84l-1 -1q2 6 5 13.5t6 16.5v-1l5 11q4 13 8 19l1 2q-54 133 -110.5 265t-110.5 265 l-32 78q-24 58 -50.5 121.5l-53 127t-52 124.5t-47.5 116zM367 1192l349 467h343l-406 -467h-286z" />
<glyph unicode="&#xfe;" horiz-adv-x="1366" d="M154 -402v1985h286v-476q57 48 125.5 68.5t158.5 20.5q104 0 193.5 -42.5t155 -122t103 -192.5t37.5 -253q0 -143 -37.5 -257t-103 -193.5t-155 -121.5t-193.5 -42q-90 0 -158.5 21t-125.5 68v-463h-286zM440 586q0 -80 16 -145.5t46.5 -112.5t76 -72.5t104.5 -25.5 q56 0 100 25.5t75 72.5t47 112.5t16 145.5q0 79 -16 144t-46 111t-74.5 71t-101.5 25q-59 0 -104.5 -25t-76 -71t-46.5 -111t-16 -144z" />
<glyph unicode="&#xff;" horiz-adv-x="1274" d="M3 1170h309l293 -729q48 125 98.5 249.5t101.5 252.5l90 227h307l-496 -1233q-41 -101 -80.5 -166.5t-84 -104t-97 -53.5t-120.5 -15h-196v257h157q30 0 49 5t34 21.5t29.5 47.5t37.5 84l-1 -1q2 6 5 13.5t6 16.5v-1l5 11q4 13 8 19l1 2q-54 133 -110.5 265t-110.5 265 l-32 78q-24 58 -50.5 121.5l-53 127t-52 124.5t-47.5 116zM271 1275v304h303v-304h-303zM642 1275v304h302v-304h-302z" />
<glyph unicode="&#x401;" horiz-adv-x="1360" d="M164 0v1563h1030v-279h-719v-315h688v-278h-688v-414h736v-277h-1047zM331 1615v311h311v-311h-311zM710 1615v311h310v-311h-310z" />
<glyph unicode="&#x410;" horiz-adv-x="1470" d="M-40 0l594 1563h304l592 -1563h-322l-134 371h-574q-7 -18 -13.5 -38t-13.5 -39l-23 -66q-9 -27 -20 -56t-21.5 -59t-20.5 -59t-19 -54h-329zM520 649h374l-188 499q-47 -127 -93 -249t-93 -250z" />
<glyph unicode="&#x411;" horiz-adv-x="1475" d="M167 0v1563h1039v-275h-728v-321h266q134 0 238.5 -30t176.5 -90t110 -151t38 -213q0 -244 -140.5 -363.5t-422.5 -119.5h-577zM478 275h256q131 0 193 50.5t62 157.5q0 210 -255 210h-256v-418z" />
<glyph unicode="&#x412;" horiz-adv-x="1475" d="M167 0v1563h557q124 0 221.5 -29.5t164.5 -84t102 -131t35 -170.5q0 -114 -31 -189.5t-109 -121.5q97 -58 148.5 -152t51.5 -223q0 -107 -37 -192.5t-108 -145.5t-176.5 -92t-241.5 -32h-577zM478 275h256q131 0 193 50.5t62 159.5q0 106 -62 157t-193 51h-256v-418z M478 966h231q115 0 170.5 38t55.5 122q0 81 -55.5 121.5t-170.5 40.5h-231v-322z" />
<glyph unicode="&#x413;" horiz-adv-x="1311" d="M163 0v1563h1017v-279h-705v-1284h-312z" />
<glyph unicode="&#x414;" horiz-adv-x="1679" d="M72 277h112q53 28 82.5 62t41.5 78q47 147 70.5 349.5t23.5 465.5v331h975v-1286h166v-589h-280v312h-911v-312h-280v589zM585 269l4 8h479v1007h-357v-149q0 -242 -29.5 -449t-84.5 -374l1 1l-5 -20q-2 -4 -4.5 -12t-3.5 -12z" />
<glyph unicode="&#x415;" horiz-adv-x="1360" d="M164 0v1563h1030v-279h-719v-315h688v-278h-688v-414h736v-277h-1047z" />
<glyph unicode="&#x416;" horiz-adv-x="2316" d="M-21 0l595 927l-201 218q-42 45 -93.5 100.5t-104 112.5t-101.5 110.5t-86 94.5h391l580 -628v628h310v-628q38 45 78.5 88.5t80.5 86.5l421 453h394l-591 -638l244 -378q42 -66 87 -137t92 -142l170 -268h-336l-454 710l-186 -202v-508h-310v509l-126 134q-8 9 -13.5 16 t-12 14.5t-15 16.5t-20.5 21l-455 -711h-338z" />
<glyph unicode="&#x417;" horiz-adv-x="1378" d="M99 88v335q116 -70 191 -107.5t109 -45.5q37 -9 85 -14.5t106 -5.5q155 0 241 57t86 173q0 100 -76 157.5t-236 57.5h-253v274h260q145 0 208 43t63 123q0 90 -69 131.5t-224 41.5q-126 0 -160 -9q-53 -15 -315 -113v312q82 30 149 47.5t124.5 26.5t107.5 12t98 3 q130 0 239.5 -31t189 -87.5t124 -136t44.5 -176.5q0 -109 -39 -186.5t-126 -128.5q95 -58 147 -152t52 -209q0 -128 -50 -224t-149 -161q-93 -58 -201 -91t-231 -33q-59 0 -130 9.5t-140 26t-129 37.5t-96 44z" />
<glyph unicode="&#x418;" horiz-adv-x="1610" d="M169 0v1563h304v-1034l373 701q45 84 90.5 169.5t86.5 163.5h357v-1563h-305v1037l-13 -26q-63 -117 -124.5 -232t-123.5 -232l-290 -547h-355z" />
<glyph unicode="&#x419;" horiz-adv-x="1610" d="M189 37v1564h304v-1036l273 514q32 60 67 126.5t71 134t71 134t67 127.5h358v-1564h-306v1036q-30 -58 -60.5 -114.5t-60.5 -113.5l-429 -808h-355zM399 1959h220q14 -54 50 -82.5t96 -28.5q114 0 144 111h220q-14 -173 -106.5 -261t-257.5 -88q-339 0 -366 349z" />
<glyph unicode="&#x41a;" horiz-adv-x="1528" d="M170 0v1563h311v-633l621 633h407l-621 -635q66 -99 143.5 -214t159 -236t163.5 -243.5t157 -234.5h-351l-480 711l-199 -202v-509h-311z" />
<glyph unicode="&#x41b;" horiz-adv-x="1618" d="M52 -11v279q114 26 182 69.5t92 106.5v-1q40 121 59.5 323t19.5 492v305h978v-1563h-310v1284h-357v-123q0 -275 -26.5 -482t-77.5 -344q-55 -132 -195 -221t-365 -125z" />
<glyph unicode="&#x41c;" horiz-adv-x="1855" d="M173 0v1563h388l331 -880l177 467v-1l76 203q19 51 40 105.5t40 105.5h386v-1563h-305v1009l-277 -732h-275l-275 734v-1011h-306z" />
<glyph unicode="&#x41d;" horiz-adv-x="1618" d="M169 0v1563h310v-594h598v594h310v-1563h-310v691h-598v-691h-310z" />
<glyph unicode="&#x41e;" horiz-adv-x="1694" d="M86 780q0 183 52.5 332t148 254.5t230 163t299.5 57.5q162 0 295.5 -58t229.5 -163.5t148.5 -254.5t52.5 -331t-52 -331t-147.5 -255t-229.5 -164.5t-297 -58.5q-164 0 -298.5 57t-230.5 162.5t-148.5 255t-52.5 334.5zM407 780q0 -119 27.5 -218t80 -169.5t128.5 -109.5 t173 -39q96 0 170.5 39.5t126.5 110.5t79 169.5t27 216.5t-27.5 216t-79 168.5t-126.5 110t-170 39.5q-97 0 -173 -39t-128.5 -109.5t-80 -169t-27.5 -216.5z" />
<glyph unicode="&#x41f;" horiz-adv-x="1618" d="M169 0v1563h1218v-1563h-310v1284h-598v-1284h-310z" />
<glyph unicode="&#x420;" horiz-adv-x="1296" d="M164 0v1563h500q274 0 411.5 -124t137.5 -365q0 -248 -137.5 -369.5t-411.5 -121.5h-189v-583h-311zM475 858h189q112 0 170.5 55t58.5 161q0 102 -58.5 158t-170.5 56h-189v-430z" />
<glyph unicode="&#x421;" horiz-adv-x="1501" d="M83 780q0 186 53.5 335.5t153 254.5t241 161t317.5 56q274 0 516 -164v-369q-140 131 -266.5 194.5t-239.5 63.5q-223 0 -339 -135t-116 -397q0 -267 118 -401h-1q118 -133 338 -133q114 0 240 65t266 195v-366q-125 -86 -253 -127.5t-263 -41.5q-178 0 -319.5 57 t-240.5 162.5t-152 255t-53 334.5z" />
<glyph unicode="&#x422;" horiz-adv-x="1315" d="M-38 1284v279h1341v-279h-515v-1284h-311v1284h-515z" />
<glyph unicode="&#x423;" horiz-adv-x="1311" d="M-27 1563h331l325 -764l326 764h332l-575 -1353q-26 -55 -59.5 -95t-82 -65.5t-117 -37.5t-164.5 -12h-132v277h118q48 0 80 5.5t49 14.5l-1 -1q9 7 17 20t15.5 28.5t14 32.5t14.5 32q-48 112 -98.5 230t-101.5 238t-102.5 240.5t-100.5 237.5z" />
<glyph unicode="&#x424;" horiz-adv-x="1851" d="M95 799q0 136 44 244t126.5 187t201 127.5t267.5 65.5v140h311v-140q150 -17 268.5 -66t201 -127.5t126 -187t43.5 -243.5t-43 -242.5t-124.5 -185.5t-200.5 -126.5t-271 -66.5v-178h-311v177q-315 40 -477 196.5t-162 425.5zM415 799q0 -154 80 -237.5t239 -107.5v687 q-154 -27 -236.5 -110.5t-82.5 -231.5zM1045 458q150 28 233.5 111.5t83.5 229.5q0 154 -78 237.5t-239 107.5v-686z" />
<glyph unicode="&#x425;" horiz-adv-x="1473" d="M-22 0l559 832l-493 731h349l331 -492q85 123 166.5 245.5t164.5 246.5h348l-505 -756q93 -141 193.5 -293.5t201.5 -302.5l142 -211h-350l-379 570q-33 -51 -69.5 -108t-70.5 -108l-238 -354h-350z" />
<glyph unicode="&#x426;" horiz-adv-x="1669" d="M172 0v1563h310v-1286h597v1286h310v-1286h164v-589h-276v312h-1105z" />
<glyph unicode="&#x427;" horiz-adv-x="1475" d="M140 1107v456h310v-441q0 -126 44 -188t137 -62h310v691h311v-1563h-311v594h-348q-100 0 -183.5 32.5t-143.5 96.5t-93 160t-33 224z" />
<glyph unicode="&#x428;" horiz-adv-x="2300" d="M181 0v1563h311v-1286h459v1286h309v-1286h459v1286h310v-1563h-1848z" />
<glyph unicode="&#x429;" horiz-adv-x="2351" d="M185 0v1563h311v-1286h457v1286h310v-1286h460v1286h310v-1286h164v-589h-279v312h-1733z" />
<glyph unicode="&#x42a;" horiz-adv-x="1790" d="M33 1284v279h736v-596h271q134 0 238.5 -30t176.5 -90t109.5 -151t37.5 -213q0 -121 -37.5 -211.5t-109.5 -151t-176.5 -90.5t-238.5 -30h-580v1284h-427zM769 275h258q130 0 191.5 47t61.5 161q0 52 -15.5 93t-40.5 64v-1q-61 54 -197 54h-258v-418z" />
<glyph unicode="&#x42b;" horiz-adv-x="1896" d="M167 0v1563h311v-596h266q134 0 238.5 -30t176.5 -90t110 -151t38 -213q0 -121 -38 -211.5t-110 -151t-176.5 -90.5t-238.5 -30h-577zM478 275h256q136 0 195.5 51t59.5 157q0 111 -63.5 160.5t-191.5 49.5h-256v-418zM1414 0v1563h311v-1563h-311z" />
<glyph unicode="&#x42c;" horiz-adv-x="1475" d="M167 0v1563h311v-596h266q134 0 238.5 -30t176.5 -90t110 -151t38 -213q0 -121 -38 -211.5t-110 -151t-176.5 -90.5t-238.5 -30h-577zM478 275h256q136 0 195.5 51t59.5 157q0 111 -63.5 160.5t-191.5 49.5h-256v-418z" />
<glyph unicode="&#x42d;" horiz-adv-x="1501" d="M79 138v362q283 -254 509 -254q110 0 188.5 28.5t131.5 80.5t83 124t43 159h-769v280h768q-14 83 -45 153t-70 123l1 -1q-51 57 -134 88t-197 31q-228 0 -509 -253v366q121 80 250.5 121t270.5 41q173 0 313.5 -57.5t239.5 -163t153 -254.5t54 -332q0 -182 -53 -331 t-152 -255.5t-239.5 -164.5t-315.5 -58q-139 0 -268 42.5t-253 124.5z" />
<glyph unicode="&#x42e;" horiz-adv-x="2322" d="M193 0v1563h310v-643h187q24 259 195 452q97 109 228.5 162t296.5 53q162 0 295.5 -57.5t229.5 -163.5t148.5 -254.5t52.5 -331.5q0 -182 -52 -331t-147.5 -255.5t-229.5 -164.5t-297 -58q-158 0 -285.5 53.5t-220 145t-147.5 213t-67 257.5h-187v-640h-310zM1001 780 q0 -119 27.5 -217.5t80 -169t128.5 -110t173 -39.5q96 0 171 39.5t126.5 110.5t79 169.5t27.5 216.5q0 120 -27 218t-78.5 168.5t-127 109t-171.5 38.5q-97 0 -173 -39.5t-128.5 -110t-80 -168.5t-27.5 -216z" />
<glyph unicode="&#x42f;" horiz-adv-x="1493" d="M58 0l410 658q-61 25 -118 59.5t-101.5 84.5t-71 119.5t-26.5 165.5q0 114 35 202.5t105 149t175 92.5t245 32h556v-1563h-308v614h-175l-380 -614h-346zM482 1087q0 -199 229 -199h248v400h-248q-229 0 -229 -201z" />
<glyph unicode="&#x430;" horiz-adv-x="1319" d="M91 364q0 209 133 311t397 104l188 1q-12 76 -74.5 115.5t-168.5 39.5q-81 0 -181.5 -30.5t-217.5 -93.5v293q121 47 223 69.5t194 22.5q259 0 386 -132.5t127 -403.5v-660h-285v72q-63 -48 -139.5 -74t-172.5 -26q-95 0 -170.5 28.5t-128.5 80.5t-81.5 124t-28.5 159z M377 374q0 -65 41.5 -104.5t128.5 -39.5q58 0 105 22t81.5 61.5t55 95t23.5 123.5h-118q-87 0 -147 -7t-98 -24.5t-55 -48t-17 -78.5z" />
<glyph unicode="&#x431;" horiz-adv-x="1325" d="M83 952q0 81 14.5 152.5t44.5 133.5q47 97 109.5 166t146 112t189.5 63t240 20q52 0 101 8t99 24l83 -242q-48 -20 -87.5 -31.5t-66.5 -12.5l-236 -16q-48 -3 -94 -16t-74 -27h1q-50 -29 -87.5 -63t-60.5 -69q99 42 230 42q124 0 224.5 -44t170.5 -124.5t108 -193 t38 -248.5q0 -142 -38.5 -255.5t-109 -193t-170.5 -122.5t-223 -43q-127 0 -226 41t-168 119t-106.5 192t-41.5 260l-6 215q-2 47 -3 90.5t-1 62.5zM389 586q0 -79 16 -144t47 -111.5t77 -72.5t106 -26q58 0 104 26t77 73t47.5 112t16.5 143q0 77 -16.5 141.5t-48 110.5 t-77 71.5t-103.5 25.5q-61 0 -107 -24.5t-77 -70.5t-46.5 -110.5t-15.5 -143.5z" />
<glyph unicode="&#x432;" horiz-adv-x="1268" d="M152 0v1170h471q214 0 328 -82t114 -235q0 -150 -97 -224q77 -45 112.5 -112.5t35.5 -162.5q0 -82 -32 -147.5t-93.5 -111.5t-150.5 -70.5t-202 -24.5h-486zM437 251h193q93 0 140 30t47 87q0 59 -47 89.5t-140 30.5h-193v-237zM437 739h175q39 0 71 7.5t58 21.5v-1 q38 24 38 63q0 22 -13.5 39t-37 28t-53.5 17t-63 6h-175v-181z" />
<glyph unicode="&#x433;" horiz-adv-x="1130" d="M149 0v1170h858v-250h-571v-920h-287z" />
<glyph unicode="&#x434;" horiz-adv-x="1487" d="M83 251h108q48 22 81 80.5t53.5 145.5t29.5 197.5t9 238.5v257h827v-919h139v-518h-251v267h-747v-267h-249v518zM452 251l50 -89l33 60v11q0 3 0.5 10t0.5 8h-84zM548 251h355v669h-254v-77q0 -189 -25.5 -336t-75.5 -256z" />
<glyph unicode="&#x435;" horiz-adv-x="1323" d="M83 574q0 141 41 256t116 196.5t181 125.5t236 44q117 0 213 -40t164 -114t105 -179t37 -234v-141h-791q45 -256 312 -256q96 0 202.5 34.5t235.5 106.5v-299q-117 -51 -227.5 -76.5t-219.5 -25.5q-136 0 -247.5 42.5t-191 120.5t-123 189.5t-43.5 249.5zM393 735h494 q-7 45 -26 82t-48.5 63t-68 40.5t-85.5 14.5q-109 0 -176.5 -50.5t-89.5 -149.5z" />
<glyph unicode="&#x436;" horiz-adv-x="1937" d="M7 0l468 700q-54 56 -112 118.5t-112 121.5l-212 230h354l382 -410v410h286v-408l20 21q91 96 182.5 194t180.5 193h356l-439 -470l471 -700h-324l-332 500l-115 -124v-376h-286v376l-114 124l-134 -205q-47 -72 -99 -149t-97 -146h-324z" />
<glyph unicode="&#x437;" horiz-adv-x="1143" d="M97 39v298q209 -109 372 -109q126 0 191 42h-1q26 20 40.5 43.5t14.5 50.5q0 58 -54 93t-160 35h-195v257h203q81 0 131 25t50 69q0 15 -12.5 31t-36.5 29t-59.5 21t-80.5 8q-60 0 -148 -16t-218 -54v277q120 28 214 42.5t167 14.5q102 0 186 -24t144 -67.5t93 -105.5 t33 -138q0 -77 -30.5 -134.5t-89.5 -98.5q72 -44 109.5 -110t37.5 -154q0 -94 -35 -167t-102 -123t-164.5 -76t-222.5 -26q-85 0 -178 17.5t-199 49.5z" />
<glyph unicode="&#x438;" horiz-adv-x="1399" d="M153 0v1170h285v-701l421 701h313v-1170h-285v705q-106 -175 -212.5 -352.5t-210.5 -352.5h-311z" />
<glyph unicode="&#x439;" horiz-adv-x="1399" d="M176 36v1170h285v-701l420 701h314v-1170h-285v706q-106 -176 -212.5 -353.5l-211.5 -352.5h-310zM309 1583h223q8 -74 40.5 -108t89.5 -34q60 0 92.5 34t43.5 108h222q-14 -192 -102.5 -288.5t-255.5 -96.5q-164 0 -253 96.5t-100 288.5z" />
<glyph unicode="&#x43a;" horiz-adv-x="1298" d="M155 0v1170h285v-414l412 414h370l-466 -472l490 -698h-327l-357 503l-122 -125v-378h-285z" />
<glyph unicode="&#x43b;" horiz-adv-x="1374" d="M48 -6v258q93 12 150 41.5t78 72.5v-1q29 81 44 224.5t15 350.5v230h829v-1170h-286v920h-257v-50q0 -417 -88 -614q-52 -110 -173.5 -176.5t-311.5 -85.5z" />
<glyph unicode="&#x43c;" horiz-adv-x="1622" d="M159 0v1170h345l265 -623q66 156 133.5 312t133.5 311h343v-1170h-286v674l-202 -472h-244l-201 468v-670h-287z" />
<glyph unicode="&#x43d;" horiz-adv-x="1407" d="M153 0v1170h287v-431h453v431h287v-1170h-287v488h-453v-488h-287z" />
<glyph unicode="&#x43e;" horiz-adv-x="1317" d="M83 586q0 142 37.5 255t108 192t170 121t224.5 42q124 0 225 -43t171.5 -122.5t109 -192t38.5 -252.5q0 -141 -38 -254.5t-108.5 -193.5t-171 -123t-226.5 -43q-122 0 -222 42t-170.5 121.5t-109 193.5t-38.5 257zM379 586q0 -76 15.5 -141t46 -112t76 -74t106.5 -27 q60 0 106.5 26t77.5 72.5t47 112t16 143.5q0 76 -16 140t-47 110.5t-77 72.5t-107 26q-59 0 -104.5 -25t-76.5 -71t-47 -110.5t-16 -142.5z" />
<glyph unicode="&#x43f;" horiz-adv-x="1407" d="M153 0v1170h1027v-1170h-287v920h-453v-920h-287z" />
<glyph unicode="&#x440;" horiz-adv-x="1366" d="M154 -402v1572h286v-63q57 48 125.5 68.5t158.5 20.5q104 0 193.5 -42.5t155 -122t103 -192.5t37.5 -253q0 -143 -37.5 -257t-103 -193.5t-155 -121.5t-193.5 -42q-90 0 -158.5 21t-125.5 68v-463h-286zM440 586q0 -80 16 -145.5t46.5 -112.5t76 -72.5t104.5 -25.5 q56 0 100 25.5t75 72.5t47 112.5t16 145.5q0 79 -16 144t-46 111t-74.5 71t-101.5 25q-59 0 -104.5 -25t-76 -71t-46.5 -111t-16 -144z" />
<glyph unicode="&#x441;" horiz-adv-x="1182" d="M80 586q0 139 41 252t117 192.5t185 122.5t246 43q167 0 360 -89v-293q-111 62 -198.5 91.5t-154.5 29.5q-147 0 -224.5 -88.5t-77.5 -260.5q0 -81 19 -146.5t56.5 -111.5t94 -71t132.5 -25q66 0 153 30t200 91v-292q-96 -48 -187.5 -68.5t-187.5 -20.5q-130 0 -236 43.5 t-181 123.5t-116 193.5t-41 253.5z" />
<glyph unicode="&#x442;" horiz-adv-x="1253" d="M31 920v250h1127v-250h-423v-920h-284v920h-420z" />
<glyph unicode="&#x443;" horiz-adv-x="1274" d="M3 1170h309l293 -729q48 125 98.5 249.5t101.5 252.5l90 227h307l-496 -1233q-41 -101 -80.5 -166.5t-84 -104t-97 -53.5t-120.5 -15h-196v257h157q30 0 49 5t34 21.5t29.5 47.5t37.5 84l-1 -1q2 6 5 13.5t6 16.5v-1l5 11q4 13 8 19l1 2q-54 133 -110.5 265t-110.5 265 l-32 78q-24 58 -50.5 121.5l-53 127t-52 124.5t-47.5 116z" />
<glyph unicode="&#x444;" horiz-adv-x="1839" d="M95 582q0 139 34 252.5t92.5 193.5t138 124t169.5 44q60 0 108 -14.5t91 -48.5v392h288v-392q45 35 93 49t106 14q90 0 169 -43t137.5 -123t92.5 -193.5t34 -254.5q0 -139 -33 -252t-91.5 -192.5t-137.5 -122.5t-171 -43q-30 0 -56.5 1.5t-50.5 7.5t-47 17.5t-45 31.5 v-432h-288v438q-85 -64 -199 -64q-91 0 -170 42.5t-137.5 121.5t-92.5 192t-34 254zM386 586q0 -96 17 -169.5t42 -115.5l-1 1q25 -34 61.5 -53t78.5 -19q32 0 67 30t77 91v465q-43 63 -77.5 92t-66.5 29q-47 0 -83.5 -19t-62 -60.5t-39 -108.5t-13.5 -163zM1016 348 q43 -61 78 -89.5t66 -28.5q46 0 82.5 20t62 62.5t39 110t13.5 163.5q0 98 -14 165t-39.5 108.5t-62 59.5t-81.5 18q-29 0 -65 -28t-79 -89v-472z" />
<glyph unicode="&#x445;" horiz-adv-x="1274" d="M-26 0l455 608q-103 138 -210 281t-210 281h347l251 -338l252 338h346l-425 -571l446 -599h-345l-280 379q-69 -94 -140.5 -189.5t-139.5 -189.5h-347z" />
<glyph unicode="&#x446;" horiz-adv-x="1464" d="M158 0v1170h286v-919h452v919h288v-919h140v-518h-253v267h-913z" />
<glyph unicode="&#x447;" horiz-adv-x="1270" d="M116 847v323h285v-308q0 -89 34 -127t108 -38h226v473h284v-1170h-284v446h-269q-79 0 -148.5 23t-122 71.5t-83 124.5t-30.5 182z" />
<glyph unicode="&#x448;" horiz-adv-x="1968" d="M167 0v1170h288v-919h335v919h285v-919h338v919h286v-1170h-1532z" />
<glyph unicode="&#x449;" horiz-adv-x="2025" d="M171 0v1170h287v-919h336v919h285v-919h338v919h286v-919h139v-518h-251v267h-1420z" />
<glyph unicode="&#x44a;" horiz-adv-x="1520" d="M40 920v250h626v-431h204q228 0 351.5 -91.5t123.5 -279.5q0 -187 -123.5 -277.5t-351.5 -90.5h-490v920h-340zM666 251h196q91 0 138 30t47 87q0 59 -47 89.5t-138 30.5h-196v-237z" />
<glyph unicode="&#x44b;" horiz-adv-x="1698" d="M183 36v1170h287v-431h199q229 0 353.5 -91t124.5 -278q0 -188 -124.5 -279t-353.5 -91h-486zM470 287h194q91 0 137.5 30t46.5 89q0 57 -46.5 88t-137.5 31h-194v-238zM1169 0v1170h285v-1170h-285z" />
<glyph unicode="&#x44c;" horiz-adv-x="1268" d="M152 0v1170h287v-431h199q229 0 353.5 -91t124.5 -280q0 -93 -32 -162.5t-93 -115t-150 -68t-203 -22.5h-486zM439 251h193q91 0 138 30t47 87q0 59 -47 89.5t-138 30.5h-193v-237z" />
<glyph unicode="&#x44d;" horiz-adv-x="1180" d="M80 62v290q223 -120 353 -120q58 0 109 17.5t92 49.5h-1q67 59 92 189h-530v251h515q-13 37 -31.5 72.5t-49.5 63t-78.5 44t-117.5 16.5q-66 0 -153.5 -28.5t-199.5 -89.5v291q191 88 361 88q137 0 246 -44t185 -124.5t116.5 -193t40.5 -248.5q0 -142 -41 -255.5 t-116.5 -193t-182 -122.5t-236.5 -43q-98 0 -191 22t-182 68z" />
<glyph unicode="&#x44e;" horiz-adv-x="1810" d="M173 0v1170h285v-421h94q17 90 58 171t107 142.5t157.5 97.5t210.5 36q125 0 225 -43t170.5 -122.5t108.5 -192t38 -252.5q0 -142 -38.5 -256t-109 -193.5t-171 -122t-223.5 -42.5q-117 0 -211.5 37t-162.5 105.5t-110 164.5t-54 213h-89v-492h-285zM837 586 q0 -76 15.5 -141t46 -112t77 -74t109.5 -27q59 0 104.5 26t77 72.5t47.5 112t16 143.5t-16.5 142.5t-48 110t-77 71t-103.5 25.5q-62 0 -108 -25.5t-77.5 -71t-47 -110t-15.5 -142.5z" />
<glyph unicode="&#x44f;" horiz-adv-x="1294" d="M34 0l339 488q-54 20 -95.5 48t-70 67t-43 90t-14.5 117q0 360 465 360h470v-1170h-285v448h-132l-10 -13q-22 -31 -46 -65t-48 -69l-48 -70t-45 -66l-116 -165h-321zM442 810q0 -53 45 -82t132 -29h181v221h-181q-87 0 -132 -28.5t-45 -81.5z" />
<glyph unicode="&#x451;" horiz-adv-x="1323" d="M83 574q0 141 41 256t116 196.5t181 125.5t236 44q117 0 213 -40t164 -114t105 -179t37 -234v-141h-791q45 -256 312 -256q96 0 202.5 34.5t235.5 106.5v-299q-117 -51 -227.5 -76.5t-219.5 -25.5q-136 0 -247.5 42.5t-191 120.5t-123 189.5t-43.5 249.5zM321 1275v304 h304v-304h-304zM393 735h494q-7 45 -26 82t-48.5 63t-68 40.5t-85.5 14.5q-109 0 -176.5 -50.5t-89.5 -149.5zM692 1275v304h304v-304h-304z" />
<glyph unicode="&#x10a0;" horiz-adv-x="1464" d="M118 413v86q0 75 43.5 174.5t129.5 227.5l237 -117q-52 -91 -76.5 -162.5t-24.5 -122.5v-93q0 -68 17.5 -130.5t40.5 -106.5l-1 1q58 -76 219 -76q66 0 118.5 21t83.5 54l-1 -1q32 44 51 104.5t19 133.5v188q0 141 -59.5 264t-180.5 237q-140 134 -210 272t-70 281v188 h295v-188q0 -188 243 -417q142 -135 215 -295.5t73 -341.5v-188q0 -136 -43.5 -246t-120.5 -187.5t-183 -119.5t-230 -42q-122 0 -229 41t-186 119t-124.5 189.5t-45.5 252.5z" />
<glyph unicode="&#x10a1;" horiz-adv-x="1464" d="M118 383v273q0 258 171 426q75 69 153 109.5t155 50.5q22 70 22 165q0 17 -29.5 42.5t-76.5 51.5q-82 45 -131 134t-49 220h305q0 -69 31 -119t76 -77q38 -23 70.5 -50.5t56 -58t37 -64t13.5 -69.5q0 -48 -6.5 -98t-18.5 -92q44 -20 96.5 -56t107.5 -89 q88 -84 133.5 -191.5t45.5 -234.5v-276q0 -71 -20.5 -141.5t-58 -134.5t-90.5 -118.5t-117.5 -94.5t-139 -62.5t-154.5 -22.5q-85 0 -161 22.5t-141 62t-116.5 94t-88 118.5t-56 135t-19.5 145zM427 409q0 -67 17.5 -125t52 -101.5t85.5 -68.5t118 -25q66 0 117 25t86 67 t53 97t18 115v256q0 72 -22 131.5t-59.5 102t-87 65.5t-105.5 23q-66 0 -115 -22.5t-83 -61.5v1q-35 -46 -55 -108.5t-20 -138.5v-232z" />
<glyph unicode="&#x10a2;" horiz-adv-x="1647" d="M125 422v148q4 150 59 268.5t146 202t212 129.5t257 50q44 51 65 99t21 93q0 38 -9 68t-29 50.5t-51.5 31.5t-77.5 11q-96 0 -140 -29.5t-44 -76.5v-59h-287v59q0 79 37 150t101 123.5t150 83.5t183 31q111 0 196.5 -33t143.5 -90t88 -133.5t30 -164.5q0 -70 -20.5 -134 t-65.5 -132q37 -20 81.5 -54.5t97.5 -84.5q85 -80 133 -188t48 -239v-180q0 -115 -48.5 -225.5t-137 -197.5t-212 -140t-273.5 -53q-263 0 -460 190q-98 94 -146 201t-48 225zM431 443q0 -69 25.5 -132.5t70.5 -116.5h-1q96 -105 259 -105q100 0 168 28.5t109.5 77t59 112.5 t17.5 136v157q0 61 -24 121t-65 108t-95 77.5t-113 29.5h-84q-69 0 -129 -21t-104 -66t-69 -116t-25 -171v-119z" />
<glyph unicode="&#x10a3;" horiz-adv-x="2179" d="M136 1106v177q0 110 33 213t100.5 183t170 128t241.5 48q92 0 179.5 -36t174.5 -114q141 150 370 150q141 0 243 -51t168 -140t97.5 -210t31.5 -261v-111q0 -325 -136.5 -492.5t-403.5 -170.5q-123 0 -223 47t-171 134.5t-110 212t-39 280.5v94q0 62 9.5 137t35.5 169 q-16 17 -35.5 31.5t-38.5 23.5h1q-29 11 -68.5 18t-84.5 7q-57 0 -101.5 -20.5t-75 -58t-46.5 -91t-16 -120.5v-171q2 -121 37.5 -245.5t101.5 -242.5q34 -55 86 -107.5t118.5 -99t145.5 -85.5t167 -68q106 -35 190 -82t142.5 -105t90 -126.5t32.5 -146.5h-339 q-2 42 -33.5 81t-84.5 72.5t-123.5 60.5t-150.5 47q-82 -5 -183 -46.5t-216 -119.5l-122 306q65 18 122 32.5t110 22.5q-397 369 -397 846zM1171 1096q0 -105 12 -179t39.5 -121.5t72 -69.5t110.5 -22q125 0 176 79h-1q25 48 41 125t16 179v106q0 108 -16 186.5t-39 122.5 l1 -1q-26 32 -72 52t-106 20q-69 0 -114.5 -18t-72 -61t-37 -115t-10.5 -181v-102z" />
<glyph unicode="&#x10a4;" horiz-adv-x="1509" d="M121 362q0 50 3 90t11 78.5t23 79.5t38 92h320q-27 -64 -43.5 -111.5t-26 -89t-13 -82t-3.5 -90.5q0 -115 66.5 -177.5t206.5 -62.5q53 0 105.5 17t93.5 40l-1 -1q35 27 55 70t20 95v1065q0 39 -14.5 74.5t-43.5 63t-71.5 44t-99.5 16.5q-48 0 -91.5 -12.5t-77.5 -37.5 t-54 -62.5t-20 -87.5q0 -23 1.5 -43t5 -46.5t11 -63t19.5 -91.5h-281q-15 50 -25 84t-16 60.5t-8.5 49.5t-2.5 50q0 110 42 199t113.5 152t166.5 97t202 34q118 0 218.5 -33.5t174.5 -96t116 -151t42 -199.5v-1071q0 -114 -43.5 -206t-120.5 -157t-183.5 -100t-232.5 -35 q-134 0 -241.5 44.5t-183 121t-116.5 177t-41 213.5z" />
<glyph unicode="&#x10a5;" horiz-adv-x="1467" d="M121 306v109q0 31 4.5 60.5t14.5 62.5t26.5 71t40.5 88h293q-20 -63 -33.5 -108.5t-21.5 -80t-11.5 -61.5t-3.5 -54v-72q0 -61 20.5 -105t57.5 -72t86.5 -41.5t108.5 -13.5q131 0 202 57.5t71 168.5v205q0 47 -12 86.5t-31.5 70t-45 52t-53.5 32.5h-161v281h171 q106 0 106 270v58q0 100 -61 151.5t-173 51.5q-62 0 -107 -19.5t-74 -47.5t-43 -57.5t-14 -48.5v-36q0 -19 1 -35.5t4 -36.5t9 -46.5t16 -64.5l-294 -4q-13 32 -21 55t-12.5 42.5t-6 38t-1.5 40.5v59q0 93 47 174t124 140.5t174 94t198 34.5q127 0 227 -41.5t169.5 -109 t106.5 -152t37 -171.5v-83q0 -111 -44 -210t-118 -173q40 -32 75 -73.5t60 -92t39.5 -108t14.5 -121.5v-205q0 -103 -42 -195.5t-118.5 -162t-183.5 -110.5t-236 -41q-124 0 -230.5 38.5t-184.5 106t-122.5 159t-44.5 196.5z" />
<glyph unicode="&#x10a6;" horiz-adv-x="1588" d="M43 1396v58q0 84 33.5 157t96.5 127.5t153.5 85.5t204.5 31q124 0 217 -27.5t155.5 -79.5t94 -126.5t31.5 -167.5v-63q0 -58 -23.5 -115t-66.5 -111q107 -23 191 -77t142.5 -129t89 -165.5t30.5 -186.5v-206q0 -130 -39 -239.5t-115.5 -188.5t-190 -123t-261.5 -44 q-131 0 -241.5 42t-190.5 120t-125 188t-45 245v199q0 118 36 212t104 166q-139 49 -210 154t-71 264zM336 1353q0 -41 15.5 -69t42.5 -46t64 -26t81 -8q42 0 77 11.5t60 31.5t38.5 47t13.5 59v95q0 29 -17 52.5t-45 39.5t-62.5 24.5t-69.5 8.5q-41 0 -77 -7t-63 -22 t-42.5 -39.5t-15.5 -59.5v-92zM487 430q0 -70 19 -132t56.5 -108.5t93.5 -73.5t130 -27q79 0 136 27.5t93.5 75.5t53.5 112.5t17 138.5v115q0 75 -19.5 138t-57.5 108t-94 70.5t-129 25.5q-60 0 -114 -16t-95 -53.5t-65.5 -99t-24.5 -152.5v-149z" />
<glyph unicode="&#x10a7;" horiz-adv-x="2262" d="M137 600v512q0 199 41.5 340t116.5 230.5t179 131t229 41.5q115 0 209 -35t169 -108q85 75 178.5 109t200.5 34q135 0 239.5 -44.5t176 -139t109 -241.5t37.5 -352v-186q0 -362 -103 -634t-310 -452h-397q253 237 378.5 504t125.5 566v281q0 103 -18 184.5t-45 138.5 l1 -1q-27 43 -85 68.5t-146 25.5q-116 0 -203 -65q28 -49 38.5 -98.5t10.5 -109.5v-736q0 -159 -36.5 -297.5t-108.5 -241t-177.5 -161t-243.5 -58.5q-125 0 -229 45.5t-179 141.5t-116.5 246.5t-41.5 360.5zM444 621q0 -149 14 -251t44.5 -164.5t80 -89.5t120.5 -27 q75 0 125 33t80 94.5t42.5 148t12.5 193.5v742q0 64 -18.5 115t-53 86t-82.5 53.5t-106 18.5q-133 0 -196 -125.5t-63 -381.5v-445z" />
<glyph unicode="&#x10a8;" horiz-adv-x="1464" d="M118 906v219q0 184 44.5 321t123 228t185.5 136t232 45q132 0 238.5 -45t181.5 -136.5t116 -231t41 -327.5v-201q0 -127 -6 -258.5t-24.5 -267t-52.5 -275.5t-90 -284h-313q64 154 100 298.5t54 278.5t22 259t4 241v209q0 120 -18 207t-52.5 142.5t-85 82t-115.5 26.5 q-72 0 -124.5 -27t-86 -83t-49.5 -142.5t-16 -205.5v-209q0 -116 2 -240.5t17.5 -259t50.5 -279t100 -298.5h-310q-57 146 -90.5 286t-51 275t-22.5 264t-5 252z" />
<glyph unicode="&#x10a9;" horiz-adv-x="1464" d="M118 299v110q0 47 5.5 83t17.5 68t30 64.5t44 71.5h282q-20 -61 -33 -105.5t-21.5 -79.5t-12 -64.5t-3.5 -60.5v-57q0 -53 19.5 -97t55.5 -75.5t86.5 -49.5t111.5 -18q27 0 54.5 5t54 14t50 21t42.5 25l-2 -1q30 35 52.5 93t22.5 131v125q0 69 -18 131t-50 111v-1 q-30 43 -67.5 67t-82.5 24h-250v283h241q86 0 129.5 46t43.5 127v94q0 157 -233 199v290q542 -136 542 -492v-55q0 -227 -174 -347q111 -70 168 -189.5t57 -287.5v-125q0 -132 -46.5 -237.5t-125.5 -179.5t-184.5 -114t-223.5 -40q-120 0 -226 40.5t-185 109t-125 157.5 t-46 186z" />
<glyph unicode="&#x10aa;" horiz-adv-x="2867" d="M151 1138v94q0 122 33.5 233t98.5 195.5t161 134.5t222 50q241 0 369 -181q54 99 137 145t195 46q118 0 202.5 -44.5t141.5 -145.5q66 85 157 132.5t203 47.5q109 0 203.5 -42.5t164 -114t109 -164t39.5 -192.5v-131q0 -386 -366 -701h-383q444 373 444 714v103 q0 40 -15.5 83.5t-43.5 78.5t-66 58t-83 23q-46 0 -90.5 -16t-73.5 -36q-25 -31 -40.5 -89.5t-15.5 -143.5v-350h-292v347q0 157 -45.5 229t-149.5 72q-42 0 -77.5 -18t-60.5 -54.5t-39 -91t-14 -126.5v-358h-290v362q0 82 -11.5 135t-37 83.5t-68 42.5t-103.5 12 q-37 0 -75 -20.5t-70 -55.5v2q-27 -42 -46 -110t-19 -150v-101q0 -72 20.5 -143t57.5 -139t88.5 -131t114.5 -119l-1 1q69 -53 151 -101t170 -89.5t179 -74t178 -53.5q98 -24 193 -64.5t181.5 -96.5t161 -127t131.5 -156h-397q-51 47 -115.5 83t-136.5 61t-148 39.5 t-149 19.5q-53 -7 -112 -20t-118 -31.5t-115.5 -42.5t-105.5 -52l-201 274l84 24h-1q25 7 46.5 13t44 12t48.5 12t60 13q-614 393 -614 901z" />
<glyph unicode="&#x10ab;" horiz-adv-x="1507" d="M118 409v265q0 119 44.5 228t123 192.5t186 133.5t233.5 50q167 0 280 -94v231q0 31 -20 59.5t-56 50.5t-84.5 35t-105.5 13q-52 0 -95.5 -9.5t-74.5 -25t-48 -35t-17 -39.5v-51h-308v51q0 51 20.5 100t57.5 92t88 80t111.5 63t128.5 41t139 15q105 0 205 -32t179 -89.5 t127 -138.5t48 -180v-1035q0 -133 -48 -239.5t-128 -180.5t-184 -114t-217 -40q-123 0 -230 41t-185.5 119t-124 190t-45.5 253zM427 409q0 -85 21 -145.5t58 -99.5t87.5 -57t109.5 -18q54 0 103 18.5t86.5 57.5t59.5 99.5t22 144.5v268q0 89 -21 150.5t-57.5 99.5t-86 55 t-106.5 17q-55 0 -103.5 -22.5t-88.5 -62.5h1q-42 -48 -63.5 -106.5t-21.5 -133.5v-265z" />
<glyph unicode="&#x10ac;" horiz-adv-x="1507" d="M159 388v1042q0 98 29.5 173.5t79.5 126.5t117.5 77.5t143.5 26.5q36 0 91 -9.5t113 -21.5t111 -21.5t83 -9.5q58 0 147 32t210 93v-276q-98 -61 -190 -89.5t-183 -28.5q-43 0 -90.5 7.5t-94.5 16t-90.5 16t-77.5 7.5q-56 0 -81.5 -30t-25.5 -97v-250q64 54 135.5 79.5 t152.5 25.5q122 0 228 -42.5t184.5 -119t123.5 -183.5t45 -237v-310q0 -139 -43.5 -247t-120.5 -182t-183 -112.5t-232 -38.5q-118 0 -223.5 40t-185 115t-126.5 183t-47 244zM469 388q0 -75 19.5 -131t55.5 -93.5t85.5 -56t109.5 -18.5q137 0 204.5 80.5t67.5 234.5v286 q0 155 -71 232t-199 77q-143 0 -207.5 -75t-64.5 -238v-298z" />
<glyph unicode="&#x10ad;" horiz-adv-x="2289" d="M139 964v118q0 166 30 307.5t96.5 245t172 162t255.5 58.5q263 0 402 -208q67 102 168 155t232 53q143 0 247.5 -58.5t172.5 -159.5t101 -235.5t33 -286.5v-151q0 -663 -442 -1135h-417q273 273 411 560.5t138 586.5v120q0 120 -15 215.5t-38 159.5v-1q-24 46 -71.5 74.5 t-119.5 28.5q-122 0 -185 -73t-63 -235v-760h-309v760q0 162 -60 235t-187 73q-66 0 -111.5 -27.5t-71.5 -77.5v1q-29 -64 -46.5 -161.5t-17.5 -225.5v-114q4 -141 41 -285t106.5 -288t170.5 -286t234 -277h-400q-457 475 -457 1132z" />
<glyph unicode="&#x10ae;" horiz-adv-x="1467" d="M121 334v150q0 25 4 49.5t13.5 52.5t25.5 60t40 71h287q-20 -57 -32 -100t-18.5 -75t-8.5 -55.5t-2 -41.5v-70q0 -50 18.5 -101t53.5 -92t85.5 -67t115.5 -26q143 0 208 91.5t65 267.5v116q0 52 -14 101t-39.5 86.5t-61.5 60t-80 22.5h-184v283h184q58 0 94 39t36 124v43 q0 29 -53.5 57.5t-159.5 60.5q-157 48 -232.5 150.5t-75.5 263.5h306q0 -75 54.5 -125.5t157.5 -77.5q149 -40 230 -120t81 -198v-57q0 -88 -41.5 -164t-122.5 -140q122 -81 175 -178.5t53 -224.5v-140q0 -138 -42 -253t-118 -197.5t-183 -128t-237 -45.5q-73 0 -144.5 19 t-136 53.5t-120 83t-95.5 107t-63 126t-23 139.5z" />
<glyph unicode="&#x10af;" horiz-adv-x="1507" d="M118 321v56q0 16 1.5 30t5 31t11 40t19.5 58h297q-9 -42 -14 -67.5t-7.5 -41.5t-3 -25.5t-0.5 -18.5v-68q0 -51 20 -92.5t58 -69.5l-1 1q45 -27 100 -46t107 -19q60 0 109 21t83 56.5t52.5 82.5t18.5 99v1201l-298 -22q36 -31 62 -62l-1 1q45 -50 69.5 -119.5 t24.5 -153.5q0 -120 -45 -204.5t-134 -138t-222.5 -78t-311.5 -24.5v283q115 0 195 6t130 22t72.5 43.5t22.5 70.5q0 69 -22 119t-71.5 82.5t-129.5 47.5t-197 15v220l1162 218v-1539q0 -118 -45 -215.5t-122.5 -167.5t-181 -108.5t-220.5 -38.5q-122 0 -230 31.5t-188.5 95 t-127.5 160.5t-47 228z" />
<glyph unicode="&#x10b0;" horiz-adv-x="2289" d="M139 659v55q0 117 22 227.5t64 213.5t101.5 195.5t134.5 173.5q163 162 446 246.5t680 84.5v-282q-99 0 -196 -8t-186.5 -23t-170.5 -35.5t-148 -44.5h1q-78 -33 -152.5 -82.5t-132.5 -109.5q24 4 48.5 6t42.5 2q134 0 233.5 -56.5t167.5 -163.5q78 112 178.5 166 t222.5 54q105 0 204.5 -37.5t177.5 -109.5t125 -177t47 -240v-59q0 -469 -402 -823h-396q493 455 493 820v62q0 67 -20 121.5t-54 93.5t-79.5 60t-95.5 21q-49 0 -94 -18.5t-79.5 -57.5t-55.5 -98.5t-21 -140.5v-346h-307v346q0 83 -22 142.5t-57 98t-79 56.5t-87 18 q-58 0 -104 -21.5t-78.5 -60.5t-49.5 -93.5t-17 -120.5v-70q0 -177 123.5 -381t372.5 -434h-417q-192 181 -288 386.5t-96 443.5z" />
<glyph unicode="&#x10b1;" horiz-adv-x="1507" d="M159 455v1400h310v-1400q0 -174 69 -270t201 -96q61 0 112 25.5t86 69.5v-1q33 50 53.5 122t20.5 153v73q0 76 -36 152.5t-96 142.5q-38 42 -69 85.5t-53 85t-34 80.5t-12 74q0 141 101 284l327 -87q-66 -71 -98 -119t-34 -79q0 -21 10.5 -46.5t29 -53.5t43 -57t53.5 -56 q38 -39 70.5 -84.5t56 -95t37 -100.5t13.5 -102v-115q0 -134 -43 -249.5t-120 -201t-184 -134.5t-234 -49q-121 0 -226.5 39t-184 119.5t-124 202.5t-45.5 288z" />
<glyph unicode="&#x10b2;" horiz-adv-x="1850" d="M128 543v371q0 182 59 327t168 248q90 79 182.5 129.5t187.5 65.5l-77 171h456l-74 -171q126 -20 237 -81.5t194 -159.5t131 -231.5t48 -297.5v-371q0 -106 -28 -202.5t-78.5 -178t-120.5 -147.5t-154 -112.5t-179 -71.5t-196 -25q-103 0 -198.5 24.5t-179.5 70.5 t-153.5 111.5t-119.5 147t-77.5 178.5t-27.5 205zM433 543q0 -97 31 -180t89.5 -144t142 -95.5t188.5 -34.5q110 0 194 37t140.5 99t85.5 144.5t29 173.5v371q0 239 -83 366.5t-250 151.5q0 -5 0.5 -10.5t1.5 -10.5l11 -250q3 -64 6.5 -137t7 -147t6.5 -144.5t6 -129.5h-323 l39 829q-128 -21 -210 -117v1q-54 -63 -83 -164.5t-29 -237.5v-371z" />
<glyph unicode="&#x10b3;" horiz-adv-x="1610" d="M15 1591v329q212 -171 243 -171q7 0 18.5 8.5t21.5 18.5q31 32 69.5 53t74.5 21q80 0 141.5 -24t107.5 -72q59 49 121 72.5t123 23.5q79 0 157.5 -26t140.5 -71t100.5 -105t38.5 -128v-1111q0 -137 -35.5 -248.5t-105 -190t-172 -121.5t-235.5 -43q-134 0 -245.5 40 t-191.5 114t-124.5 179.5t-44.5 237.5v117q0 40 4 70t14 57.5t25 54.5t38 61h290q-18 -55 -30 -96t-19 -75t-10 -63.5t-3 -62.5v-65q0 -68 20 -120t57 -90v1q42 -36 97 -56.5t123 -20.5q63 0 111.5 18.5t72.5 50.5l-1 -1q26 42 43.5 109t17.5 150v1104q0 8 -10.5 19 t-29.5 20.5t-46 16t-60 6.5q-111 0 -111 -62v-420h-268v420q0 62 -83 62q-17 0 -29.5 -10t-26.5 -29q-29 -41 -69.5 -66.5t-83.5 -25.5q-55 0 -113 36t-123 104z" />
<glyph unicode="&#x10b4;" horiz-adv-x="2241" d="M137 1138v99q0 126 32 238t99.5 196.5t172 134t250.5 49.5q111 0 204 -38.5t176 -123.5q82 81 177.5 121.5t207.5 40.5q129 0 230.5 -42.5t171 -113.5t106.5 -163t39 -191v-113q-5 -304 -219 -421q48 -27 83.5 -69.5t59 -94.5t35 -111.5t11.5 -122.5v-77q0 -122 -50 -220 t-142.5 -167t-223 -106t-292.5 -37q-182 0 -316 27.5t-225 90.5h1q-48 31 -84 69t-60.5 88.5t-36.5 117.5t-12 156h300q0 -54 8.5 -90.5t23.5 -61t35.5 -39.5t44.5 -27l-1 1q78 -23 166.5 -36t173.5 -13q189 0 286.5 62t97.5 185v65q0 60 -12 109t-34 83.5t-54 53t-72 18.5 h-205v283h205q36 0 72 13t64.5 44.5t46.5 84t18 130.5v114q0 122 -59.5 180.5t-180.5 58.5q-69 0 -129.5 -22t-120.5 -70q22 -58 31.5 -117t9.5 -119v-109q0 -123 -40 -232t-112.5 -190t-175 -128t-228.5 -47q-122 0 -223.5 48t-175 129.5t-114.5 190.5t-41 231zM442 1138 q0 -85 15 -144t45.5 -96.5t77.5 -54.5t111 -17t110.5 17t77 54.5t45 96.5t14.5 144v91q0 92 -17 161.5t-43 111.5l1 -2q-28 32 -76 52.5t-112 20.5q-69 0 -117.5 -17.5t-74.5 -46.5v1q-26 -38 -41.5 -105.5t-15.5 -167.5v-99z" />
<glyph unicode="&#x10b5;" horiz-adv-x="1507" d="M118 315v23q0 57 20.5 126t62.5 147h316q-45 -91 -67.5 -160t-22.5 -120v-30q0 -112 68 -162t205 -50q62 0 112.5 13.5t86.5 39t55.5 62.5t19.5 84v575q0 44 -31 99t-82 118v-1q-48 55 -103.5 89t-106.5 34q-47 0 -78 -10.5t-49.5 -28.5t-26.5 -41t-8 -48 q0 -31 8.5 -89.5t26.5 -147.5h-278q-26 75 -37.5 133.5t-11.5 103.5q0 91 33 166t92.5 128t143 82t185.5 29q103 0 185.5 -40t148.5 -109v257h-250v268h545v-1554q0 -116 -45 -207.5t-123 -155.5t-184 -98t-228 -34q-115 0 -220.5 35t-185.5 100.5t-128 160t-48 213.5z" />
<glyph unicode="&#x10b6;" horiz-adv-x="2125" d="M133 1138v105q0 106 33 211t96 200q66 99 163.5 150t222.5 51q239 0 361 -206q61 107 152.5 156.5t216.5 49.5q118 0 214 -36t163.5 -104.5t104.5 -168t37 -226.5v-122q0 -174 -62.5 -338.5t-186.5 -331.5h-323q131 188 196 359.5t65 332.5v95q0 132 -49 195t-157 63 q-53 0 -96.5 -15t-68.5 -35q-23 -27 -35.5 -105.5t-12.5 -209.5v-349h-308v349q0 131 -12 208.5t-41 102.5q-30 26 -66.5 40t-85.5 14q-46 0 -85.5 -21t-67.5 -56l1 1q-26 -46 -43.5 -112.5t-17.5 -141.5v-105q0 -81 14.5 -160t41 -152.5t64 -139.5t83.5 -122l-1 1 q45 -48 105 -96t125.5 -91t131.5 -77.5t123 -56.5h-1q76 -27 140 -69t113.5 -97.5t82 -124t45.5 -149.5h-333q-17 46 -44.5 82.5t-62 63.5t-74.5 44t-81 25h1q-17 2 -36 3.5t-29 1.5q-81 0 -166.5 -36.5t-178.5 -103.5l-141 281q61 31 112.5 50.5t102.5 32.5 q-230 181 -337.5 402.5t-107.5 487.5z" />
<glyph unicode="&#x10b7;" horiz-adv-x="1509" d="M118 301q0 26 2 50t8 51.5t16.5 60t26.5 76.5h308q-14 -44 -23.5 -79t-15 -66.5t-8 -62.5t-2.5 -66q0 -36 20 -68t56.5 -56t86.5 -38t110 -14q68 0 119 11t85 43t51 90t17 153v388q-55 -42 -120 -60.5t-150 -18.5q-68 0 -135.5 19t-128 54t-112.5 85t-89.5 113t-59 136.5 t-21.5 156.5v107q0 52 8.5 106t29.5 110.5t55.5 116t87.5 122.5h363q-70 -87 -117.5 -159.5t-77 -133t-42.5 -109.5t-13 -87v-73q0 -56 21 -108t59 -95h-1q38 -39 80.5 -60t92.5 -21q75 0 126.5 24t83.5 62.5t46 86.5t14 96v587h308v-1466q0 -132 -35 -236t-107 -176 t-181 -109.5t-257 -37.5q-113 0 -218 29.5t-186 90t-130.5 154t-50.5 221.5z" />
<glyph unicode="&#x10b8;" horiz-adv-x="1614" d="M70 1275v233q0 79 29 143t76 109.5t105.5 70t118.5 24.5q34 0 73 -7t78.5 -22.5t77 -39.5t67.5 -58q27 36 61.5 60.5t71 39t72 21t65.5 6.5q98 0 174.5 -27t129 -86t80 -154t27.5 -230v-949q0 -86 -23 -164.5t-64 -145.5t-98 -121t-124 -92.5t-142 -59t-153 -20.5 q-54 0 -108 12t-106.5 33.5t-102 52t-94.5 67.5q-94 84 -143.5 198.5t-49.5 257.5v133q0 128 47 240.5t128.5 196.5t191.5 132.5t237 48.5q93 0 171 -23.5t138 -67.5v262q0 82 -4 129.5t-18 71.5t-41.5 30.5t-73.5 6.5q-53 0 -80 -37.5t-27 -102.5v-93h-273v93 q0 36 -4.5 62.5t-17 44t-36 25.5t-61.5 8q-49 0 -77.5 -18.5t-28.5 -60.5v-233h-269zM473 434q0 -69 25 -132t66.5 -110t95.5 -75t112 -28q71 0 126.5 27.5t94 72.5t58.5 102.5t20 117.5v151q0 174 -75.5 253.5t-220.5 79.5q-63 0 -118 -28t-96 -76.5t-64.5 -114.5 t-23.5 -142v-98z" />
<glyph unicode="&#x10b9;" horiz-adv-x="1507" d="M159 -168v1630q0 91 40 164t105.5 124t149 78t170.5 27q105 0 197 -25.5t160.5 -74t108 -118.5t39.5 -158q0 -65 -27 -132.5t-80 -138.5l-283 50q50 66 75 120t25 99q0 96 -218 96q-84 0 -124 -32.5t-42 -97.5v-365q64 52 134.5 76t149.5 24q139 0 247 -38.5t182 -114.5 t113 -189.5t39 -263.5v-80q0 -171 -71.5 -334t-214.5 -326h-417q196 187 295 352t99 315v73q0 69 -14 128.5t-46 103t-84 69t-129 27.5q-56 -2 -106.5 -25t-89.5 -60.5t-62.5 -87.5t-24.5 -105v-790h-296z" />
<glyph unicode="&#x10ba;" horiz-adv-x="1658" d="M126 543v479q0 248 50 448t151 361h315q-211 -397 -211 -809v-479q0 -91 31 -173.5t85 -148.5l-1 1q56 -63 123 -98t137 -35t133 27t110.5 74t75 112t27.5 141v42q0 55 -8 102.5t-27.5 83t-53 56t-85.5 20.5h-249v280h249q33 0 64.5 11t55.5 34.5t39 60t15 87.5 q0 105 -153 187q-112 63 -167.5 168t-55.5 256h279q0 -37 13 -72.5t35.5 -67.5t53 -60t66.5 -50v1q52 -32 96 -71.5t75 -85t48.5 -95.5t17.5 -104q0 -67 -12 -119t-35 -92.5t-57 -72t-78 -56.5q97 -63 139.5 -162t42.5 -235v-46q0 -131 -49 -247t-136 -202.5t-207 -137 t-262 -50.5q-100 0 -189 27t-164.5 76t-136 117t-103 150t-65 175t-22.5 192z" />
<glyph unicode="&#x10bb;" horiz-adv-x="1507" d="M118 413v273q0 123 32.5 230.5t103 188t181 127t265.5 46.5q70 0 140 -25.5t134 -70.5v673h306v-1462q0 -124 -43.5 -231.5t-120.5 -186.5t-183.5 -124t-232.5 -45q-130 0 -237 44.5t-183.5 124.5t-119 192t-42.5 246zM427 393q0 -304 273 -304q58 0 108 19.5t87 58.5 t58 97.5t21 136.5v273q0 63 -20.5 122t-55.5 110v-1q-35 40 -86.5 67t-111.5 27q-133 0 -203 -80.5t-70 -244.5v-281z" />
<glyph unicode="&#x10bc;" horiz-adv-x="1614" d="M164 409v949q0 135 27.5 229.5t80 154t129.5 86.5t176 27q31 0 65 -6t69 -20.5t69 -39.5t66 -63q23 26 48 47.5t56 33.5h-1q51 26 99 37t96 11q61 0 120 -27t105.5 -74t75 -110.5t28.5 -135.5v-233h-274v233q0 42 -27 60.5t-78 18.5q-38 0 -61 -9t-36 -26.5t-17.5 -43.5 t-4.5 -61v-93h-269v93q0 65 -28 102.5t-80 37.5q-51 0 -78.5 -7.5t-40.5 -32t-15.5 -72t-2.5 -126.5v-262q60 48 137.5 69.5t171.5 21.5q84 0 161.5 -22.5t144.5 -63t122.5 -97t94.5 -125t60.5 -147.5t21.5 -163v-133q0 -92 -24.5 -174t-67.5 -151t-101 -124t-125.5 -93 t-140.5 -58.5t-146 -20.5q-78 0 -153.5 20t-143 57.5t-124 91t-98 120.5t-64.5 146t-23 168zM471 409q0 -59 19.5 -116t57.5 -102.5t93.5 -73.5t128.5 -28q58 0 111.5 27t94.5 73.5t65 109.5t24 135v98q0 73 -23 138.5t-63 115t-95 78.5t-119 29q-143 0 -218.5 -79.5 t-75.5 -253.5v-151z" />
<glyph unicode="&#x10bd;" horiz-adv-x="1467" d="M118 383q0 78 23.5 152t68.5 149h288q-32 -96 -49.5 -172.5t-17.5 -136.5q0 -47 16.5 -97.5t50.5 -92.5t85 -69t120 -27q62 0 112.5 16.5t86 49.5t54.5 82.5t19 115.5v40q0 55 -29.5 109.5t-88.5 114.5q-44 44 -74.5 102t-49.5 135v-89h-154q-62 0 -121.5 17t-106 56.5 t-75 104.5t-28.5 161q0 83 28.5 144t75 101.5t106 60t121.5 19.5h125v158h-220v268h498v-426h237v-253h-237v-38q0 -65 10 -123.5t27 -109.5t40 -92t49 -70q34 -34 65.5 -76.5t56 -89.5t39 -96t14.5 -96v-32q0 -122 -42.5 -223t-119 -173t-183 -111.5t-235.5 -39.5 q-130 0 -237.5 48t-185 128.5t-120 184.5t-42.5 216zM519 1107q0 -41 20.5 -60.5t70.5 -19.5h97q-3 49 -3 103v46h-130q-55 0 -55 -69z" />
<glyph unicode="&#x10be;" horiz-adv-x="1507" d="M159 353v1502h310v-677q130 100 270 100q146 0 255 -47t181.5 -127t108.5 -185.5t36 -223.5v-342q0 -107 -38.5 -206t-113 -175t-182.5 -121t-247 -45q-74 0 -145.5 19t-136 53.5t-119 83.5t-94.5 110t-62.5 132t-22.5 149zM469 393q0 -74 20.5 -130.5t57 -95t86 -58.5 t106.5 -20q60 0 110 20t86 58.5t56 95t20 130.5v266q0 158 -74 253v-1q-36 42 -85 65t-113 23q-130 0 -200 -79.5t-70 -252.5v-274z" />
<glyph unicode="&#x10bf;" horiz-adv-x="1467" d="M121 361v108q0 82 19 168.5t64 177.5h289q-32 -131 -47.5 -216t-15.5 -130v-99q0 -67 19.5 -118.5t55.5 -87.5v1q42 -36 91.5 -56t108.5 -20q61 0 111 15.5t85.5 49.5t55 86.5t19.5 126.5v94q0 85 -51 169t-145 163h1q-109 94 -177.5 223t-88.5 285l-87 10l-307 44v286 l398 -61q4 31 8.5 67.5t9 74t8 72t6.5 61.5h292l-47 -297q88 -11 182 -22.5t180 -23.5l30 -3q6 -1 15 -1.5t26 -0.5v-289l-424 58q26 -106 81 -198.5t136 -153.5q59 -47 107.5 -100.5t82.5 -112.5t52.5 -122t18.5 -128v-91q0 -120 -43 -223t-119.5 -179t-183.5 -119 t-234 -43q-118 0 -223.5 45.5t-185 122t-126.5 177t-47 210.5z" />
<glyph unicode="&#x10c0;" horiz-adv-x="1464" d="M118 527h309q0 -117 17 -208t41 -143l-1 1q56 -88 216 -88q127 0 200.5 48t73.5 146q0 127 -35 186t-101 59h-281v273h281q21 0 38 2t30 14t20 37.5t7 72.5q0 23 -4.5 40.5t-19 29.5t-40 18t-67.5 6h-281v283h281q25 0 43 11t29.5 29t17 40.5t5.5 45.5q0 32 -6.5 55 t-28 39t-61.5 25.5t-107 15t-165 7t-235 1.5v272q261 0 439.5 -21.5t269.5 -63.5q97 -48 148 -129t51 -192q0 -149 -115 -262q153 -91 153 -248q0 -85 -33.5 -152.5t-97.5 -115.5q171 -114 171 -346q0 -127 -43.5 -222.5t-120.5 -159t-183.5 -95.5t-232.5 -32 q-289 0 -435.5 176.5t-146.5 544.5z" />
<glyph unicode="&#x10c1;" horiz-adv-x="1507" d="M159 390v1465h296v-1470q3 -146 77.5 -221t208.5 -75q130 0 200 54.5t70 174.5q0 99 -29 149.5t-103 50.5h-202v271h202q68 0 100 32.5t32 92.5q0 17 -9 36t-29.5 34.5t-52 26t-76.5 10.5h-167v283h167q45 0 77 12t52 32t29 47.5t9 58.5q0 25 -11.5 46.5t-30.5 32.5l1 -1 q-35 17 -108 29t-185 12v282q156 0 275.5 -23.5t201.5 -72t124 -123.5t42 -178q0 -182 -144 -285q144 -84 144 -262q0 -92 -39.5 -160.5t-108.5 -113.5q148 -111 148 -319q0 -118 -40 -213t-115.5 -161.5t-183 -102t-242.5 -35.5q-124 0 -230 40t-184 115t-122 183.5 t-44 245.5z" />
<glyph unicode="&#x10c2;" horiz-adv-x="1464" d="M118 26q110 0 198 11t151 33q-176 112 -262.5 254t-86.5 320v519q0 195 44.5 333t122.5 213q83 72 188 109t230 37q126 0 231.5 -34t182.5 -114t120 -213t43 -331v-519q0 -179 -84 -322.5t-256 -255.5q58 -21 142.5 -30.5t197.5 -9.5v-283q-157 0 -301.5 44.5 t-278.5 135.5q-149 -92 -293 -136t-289 -44v283zM427 641q0 -122 67.5 -229.5t207.5 -201.5q140 95 206 202.5t66 231.5v519q0 115 -20 197t-55 130v-1q-35 39 -82.5 61.5t-113.5 22.5t-115 -23t-85 -63l1 1q-37 -48 -57 -142.5t-20 -233.5v-471z" />
<glyph unicode="&#x10c3;" horiz-adv-x="1464" d="M118 299v110q0 88 63 184t188 199l179 -202q-121 -105 -121 -204v-57q0 -44 16.5 -87t50 -77t85 -55t121.5 -21q57 0 107.5 16t91.5 46q38 28 56.5 83t18.5 143v125q0 73 -19.5 136.5t-50.5 109.5t-70 72.5t-78 26.5h-310v285h301q35 0 74 26.5t72 79t55.5 131 t25.5 181.5h-510v-225h-307v506h1123v-280q0 -175 -57.5 -309t-185.5 -238q126 -70 184.5 -194t58.5 -308v-125q0 -125 -41 -229.5t-117 -180.5t-183 -118.5t-239 -42.5q-114 0 -219.5 39.5t-186 106.5t-128.5 156.5t-48 190.5z" />
<glyph unicode="&#x10c4;" horiz-adv-x="1464" d="M118 353q0 169 207 379l204 -193q-102 -131 -102 -191q0 -57 19 -104.5t55 -82t87 -53.5t115 -19q80 0 132.5 18t83 48t43 67.5t12.5 76.5v91q0 93 -43 139t-142 46h-152v283h152q77 0 121 72.5t59 219.5q-93 -55 -182.5 -78t-184.5 -23q-127 0 -218.5 30.5t-150.5 83.5 t-87 124t-28 152q0 87 52 164.5t144 137.5q93 57 234.5 85.5t333.5 28.5v-282q-146 0 -243.5 -11.5t-147.5 -29.5h1q-29 -13 -47 -39.5t-18 -62.5q0 -28 9.5 -52t26.5 -45v1q15 -18 44.5 -25t72.5 -7q54 0 123.5 21t155.5 66.5t191 116.5t230 171q0 -377 -53.5 -613.5 t-156.5 -335.5q103 -58 156.5 -144t53.5 -196v-73q0 -117 -40.5 -211t-115.5 -160.5t-182 -102t-239 -35.5q-137 0 -245 45.5t-184 121.5t-116 174.5t-40 205.5z" />
<glyph unicode="&#x10c5;" horiz-adv-x="1628" d="M125 299q0 85 38 172t104 162q72 75 182.5 115.5t257.5 40.5h269v70h-269q-151 0 -260.5 40.5t-181 107.5t-106 154.5t-34.5 181.5q0 106 41.5 199t117.5 162.5t183.5 110t239.5 40.5q115 0 219.5 -35t183.5 -102t125.5 -163.5t46.5 -220.5v-197h149v-278h-149v-70h149 v-286h-149v-204q0 -137 -47.5 -232.5t-138.5 -151.5v1q-172 -110 -389 -110q-137 0 -245 37.5t-183 103.5t-114.5 156t-39.5 196zM430 290q0 -44 21 -81t57.5 -63.5t87.5 -41.5t111 -15q130 0 199.5 49.5t69.5 160.5v204h-269q-86 0 -140 -14.5t-84.5 -41.5t-41.5 -66.5 t-11 -90.5zM430 1343q0 -50 18.5 -89t52 -65t79.5 -39.5t100 -13.5h24h1q1 0 1 0.5t1 0.5h269v197q0 117 -69 177h1q-35 29 -85 45.5t-116 16.5q-74 0 -126.5 -16.5t-86 -46.5t-49 -72.5t-15.5 -94.5z" />
<glyph unicode="&#x10c6;" horiz-adv-x="2069" d="M143 788v488q0 122 30 219.5t91 166t153 105.5t216 37q212 0 340 -152q118 152 339 152q113 0 204 -29t155 -92t98.5 -161.5t34.5 -237.5v-496q0 -123 -40 -220.5t-107.5 -165t-156.5 -103t-186 -35.5q-54 0 -102 10t-97 38v-40q0 -460 -617 -460v266q334 0 334 189v1001 q-2 77 -11 127t-31 79.5t-60 41t-97 11.5q-44 0 -79.5 -7t-60.5 -32t-38 -73.5t-13 -130.5v-496q0 -81 15.5 -135.5t41.5 -77.5l-2 1q34 -23 91.5 -35.5t134.5 -12.5v-264q-279 0 -429.5 130t-150.5 394zM1115 788q0 -160 57 -200q29 -20 67 -33.5t74 -13.5q66 0 104 18 t57.5 50.5t24.5 78t5 100.5v480q0 85 -11 136t-37 74q-29 25 -63.5 37t-80.5 12q-57 0 -94.5 -8.5t-60.5 -35.5t-32.5 -76.5t-9.5 -130.5v-488z" />
<glyph unicode="&#x10d0;" horiz-adv-x="1306" d="M114 563q0 60 18 124t57 132l202 -49q8 -3 12 -4t8 -1l84 -15q-29 -56 -44.5 -103t-15.5 -84q0 -278 184 -278q179 0 179 273q0 80 -33 143t-93 105l3 -1q-132 48 -223.5 174t-122.5 322h311q13 -93 38.5 -147.5t53.5 -70.5h-1q91 -38 163.5 -90t123.5 -117t78 -143.5 t27 -169.5q-2 -549 -510 -549q-499 0 -499 549z" />
<glyph unicode="&#x10d1;" horiz-adv-x="1306" d="M114 610q3 240 97 389.5t280 200.5v136q0 38 -22 66t-66 40q-82 28 -123 112t-43 224h311q2 -59 21.5 -93t57.5 -48q81 -29 120.5 -104t39.5 -193v-145q169 -72 252.5 -215.5t83.5 -369.5q0 -596 -502 -596q-250 0 -377 153t-130 443zM435 615q0 -167 45 -249.5 t141 -82.5q181 0 181 327q-1 165 -44 248.5t-135 83.5q-93 0 -140.5 -81.5t-47.5 -245.5z" />
<glyph unicode="&#x10d2;" horiz-adv-x="1468" d="M117 141q12 117 58 212t119 166.5t169 118.5t208 68q59 38 88 88t31 110q0 19 -12 35t-34 28.5t-51.5 21.5t-63.5 14q-28 -6 -52.5 -15t-43 -21t-29.5 -27t-11 -33q0 -4 3.5 -24.5t14.5 -73.5l-297 -44q-9 40 -14.5 82.5t-5.5 76.5q0 163 111.5 250.5t317.5 98.5 q233 -11 356 -106t123 -273q0 -73 -30.5 -136.5t-96.5 -118.5q146 -76 219 -199t77 -302v-2q-6 -130 -47.5 -231.5t-115.5 -173.5t-179.5 -113.5t-239.5 -51.5q-128 11 -231 53.5t-177.5 115t-116.5 174.5t-47 232zM436 131q6 -59 27.5 -107t55 -84.5t77 -60.5t93.5 -34 q-1 0 -2 -1h4q-1 0 -2 1q54 9 97.5 34.5t76.5 64t54 88.5t29 107q-6 56 -26.5 104t-53 85t-76 62t-95.5 35q-50 -9 -93 -35.5t-76.5 -65.5t-56.5 -88.5t-33 -104.5z" />
<glyph unicode="&#x10d3;" horiz-adv-x="1975" d="M130 645q0 583 455 583q116 0 196 -37.5t134 -120.5q50 87 133 127t208 40q479 0 479 -568q0 -289 -123.5 -435.5t-358.5 -149.5q-239 17 -365 166t-126 427q0 143 -38 211t-121 68q-78 0 -115 -77t-37 -234q0 -119 29 -216.5t81.5 -174t127 -131t165.5 -85.5v1 q127 -37 240 -85.5t200 -107.5t142 -127t68 -143h-318q-11 33 -49 64.5t-94 59t-125 50.5t-142 39q-72 -11 -155 -64.5t-166 -144.5l-167 212q43 43 92.5 79.5t92.5 59.5q-176 124 -259.5 301t-83.5 413zM1058 680q0 -154 48.5 -230.5t149.5 -76.5q168 0 168 307 q0 283 -168 283q-101 0 -149.5 -70.5t-48.5 -212.5z" />
<glyph unicode="&#x10d4;" horiz-adv-x="1328" d="M116 48q0 28 2.5 56t8.5 58.5t17 65t28 75.5l299 -79q-36 -125 -36 -173q0 -214 184 -214q181 0 181 214v639q0 139 -37.5 207.5t-118.5 68.5q-179 0 -179 -170q0 -32 13.5 -74t42.5 -102l-284 -77q-73 109 -73 244q0 450 478 450q481 0 481 -547v-625q0 -497 -504 -497 q-503 0 -503 480z" />
<glyph unicode="&#x10d5;" horiz-adv-x="1304" d="M115 25q0 29 1.5 54.5t6.5 51.5t15 54.5t28 63.5q82 -23 134.5 -37.5t84.5 -23.5t47.5 -13t24.5 -7q-9 -34 -13.5 -56.5t-7 -38.5t-3 -27t-0.5 -21q0 -188 201 -188q166 0 166 143v128q0 92 -34.5 136.5t-108.5 44.5h-130v269h130q134 0 134 198q0 212 -159 212 q-158 0 -158 -155v-24t1.5 -22.5t5 -29.5t10.5 -43l-143 -43l-131 -36q-17 39 -28 67t-17.5 50t-9.5 41t-3 40q0 424 473 424q477 0 477 -483q0 -109 -42 -188t-133 -139q96 -43 142 -121.5t46 -199.5v-124q0 -208 -122 -311t-366 -103q-257 0 -388 112.5t-131 344.5z" />
<glyph unicode="&#x10d6;" horiz-adv-x="1306" d="M58 1361q0 208 108.5 311t325.5 103q419 0 419 -402q0 -29 -5 -60t-14 -61t-21 -58.5t-26 -52.5q140 -51 207.5 -183t67.5 -352q0 -592 -506 -592q-502 0 -502 592q0 154 31 258t95 167q-89 46 -134.5 128t-45.5 202zM357 1342q0 -87 35.5 -128.5t112.5 -42.5 q20 0 37.5 14.5t32 38.5t24.5 55.5t15 66.5q-3 34 -12.5 63.5t-25 51.5t-38 35t-51.5 13q-67 0 -98.5 -41t-31.5 -126zM434 611q0 -164 44 -245t136 -81q183 0 183 321q0 156 -44 231t-141 75q-92 0 -135 -72.5t-43 -228.5z" />
<glyph unicode="&#x10d7;" horiz-adv-x="2007" d="M132 631q0 604 500 604q115 0 199 -38.5t138 -111.5q102 150 325 150q237 0 353.5 -142.5t116.5 -427.5q0 -89 -11.5 -174.5t-40.5 -168.5t-79 -163t-128 -158h-404q100 91 166.5 177.5t106.5 168.5t57 160t17 152q0 307 -154 307q-78 0 -116 -84.5t-38 -258.5 q0 -609 -510 -609q-498 0 -498 617zM452 639q0 -180 43 -268t135 -88q95 0 143.5 84.5t48.5 255.5q0 343 -190 343q-180 0 -180 -327z" />
<glyph unicode="&#x10d8;" horiz-adv-x="1304" d="M115 675q0 562 504 562q503 0 503 -562q0 -86 -4 -171t-17 -170t-37.5 -170t-65.5 -169h-304q36 98 57 188t32 171.5t14 154.5t3 137q0 160 -41 238.5t-140 78.5q-95 0 -140.5 -70.5t-45.5 -217.5q0 -69 4 -145.5t15.5 -161t32 -177.5t54.5 -196h-289q-42 86 -68.5 171 t-41.5 169.5t-20 169.5t-5 170z" />
<glyph unicode="&#x10d9;" horiz-adv-x="1306" d="M114 57q0 43 16 103t45 129l278 -124l-27 -119q7 -96 52.5 -151.5t132.5 -55.5q189 0 189 218v34q0 200 -189 200h-203v281h203q168 0 168 148q0 72 -69.5 131.5t-213.5 112.5v278q305 -70 455 -199.5t150 -322.5q0 -100 -41.5 -169t-135.5 -118q94 -47 146.5 -132 t52.5 -210v-34q-2 -489 -512 -489q-497 0 -497 489z" />
<glyph unicode="&#x10da;" horiz-adv-x="2636" d="M148 676q0 552 476 552q210 0 321 -147q54 76 128 116t170 40q103 0 180 -40.5t129 -115.5q57 69 134.5 108t178.5 39q477 0 477 -546q0 -302 -257 -508l-116 68l-10 9l-63 35h1l-55 28q91 94 137.5 184t46.5 184q0 146 -42 209t-128 63q-84 0 -122 -54t-38 -165l-9 -173 q0 -1 -0.5 -2t-0.5 -2l-4 -16v-128h-271l-15 321q0 117 -37 172.5t-116 55.5q-147 0 -147 -228l-14 -321h-268q0 58 -2 101.5t-4 79.5t-4.5 69.5t-2.5 71.5q-2 110 -44.5 164t-132.5 54q-75 0 -114 -68.5t-39 -209.5q0 -250 156 -391.5t473 -178.5q380 -68 576 -198.5 t206 -331.5h-301q-3 45 -48 84.5t-123.5 73t-186.5 60t-236 45.5q-8 1 -18.5 1h-15.5q-113 0 -200.5 -42.5t-156.5 -137.5l-199 249q66 59 132 97q-197 101 -289 268t-92 402z" />
<glyph unicode="&#x10db;" horiz-adv-x="1325" d="M114 592q0 286 125.5 429.5t379.5 143.5q59 0 105.5 -10.5t86.5 -41.5v268q0 128 -192 128q-35 0 -61.5 -6t-44.5 -21t-28 -40.5t-13 -63.5h-315q2 106 32 182t87.5 124.5t143.5 71t199 22.5q252 0 377.5 -100t125.5 -297v-842q0 -264 -123 -394.5t-367 -130.5 q-518 0 -518 578zM433 594q0 -311 203 -311q162 0 162 256q0 352 -179 352q-186 0 -186 -297z" />
<glyph unicode="&#x10dc;" horiz-adv-x="1328" d="M134 568v842q0 341 361 341h517v-274h-516q-56 -3 -56 -62v-277q38 29 87.5 46.5t103.5 17.5q511 0 511 -592q-1 -299 -130 -447.5t-381 -148.5q-497 0 -497 554zM444 568q0 -283 184 -283q97 0 144.5 79.5t47.5 245.5q-1 158 -47 237t-143 79q-186 0 -186 -358z" />
<glyph unicode="&#x10dd;" horiz-adv-x="1971" d="M130 673q0 564 475 564q221 0 330 -159q57 85 137.5 122t192.5 37q467 0 467 -564q0 -391 -316 -666h-332q162 217 245 382t83 284q0 293 -148 293q-96 0 -140.5 -61t-44.5 -186l-12 -257h-271l-8 154q-2 12 -3.5 29.5t-1.5 33.5v40q0 247 -180 247q-77 0 -112.5 -72.5 t-35.5 -220.5q0 -113 78 -278t236 -388h-332q-307 279 -307 666z" />
<glyph unicode="&#x10de;" horiz-adv-x="1306" d="M114 510q0 72 17.5 143t59.5 144l285 -93q-23 -64 -35.5 -111.5t-12.5 -80.5q0 -229 185 -229q94 0 139.5 76.5t45.5 236.5q0 265 -213 265h-167v264h188q75 0 114.5 37t39.5 113q0 60 -45 99t-132 54q-121 23 -191 110.5t-81 230.5h307q15 -91 185 -132 q136 -35 202 -125t66 -239q0 -93 -40.5 -165t-114.5 -121q206 -111 207 -391q0 -582 -510 -582q-499 0 -499 496z" />
<glyph unicode="&#x10df;" horiz-adv-x="1328" d="M114 48h324q1 -62 11.5 -102.5t31 -64.5t51.5 -34t72 -10q201 0 201 224v882q-8 -2 -14 -3t-13 -2l-72 -10h1l-88 -13q-3 -1 -2.5 -1.5t-0.5 -0.5t-3.5 -0.5t-11.5 -1.5q36 -29 59 -59t36 -65t18 -78t5 -97q0 -94 -35.5 -165.5t-110 -120t-188.5 -74t-271 -26.5v298 q170 2 254.5 23t84.5 65q0 55 -21 99t-63.5 79.5t-106 64.5t-148.5 55v211l168 26h-1l671 106q19 3 43 6.5l48 7t44.5 7t34.5 6.5v-1221q0 -491 -511 -491q-124 0 -216.5 27.5t-155 85.5t-93.5 149t-32 218z" />
<glyph unicode="&#x10e0;" horiz-adv-x="1994" d="M131 700q0 157 58 312.5t167 312.5q112 152 358 279t626 221l77 -287q-282 -56 -478 -130.5t-307 -171.5q107 -5 182.5 -47t127.5 -127q54 94 134.5 134.5t196.5 40.5q478 0 478 -537q0 -406 -306 -695h-346q170 235 251.5 405.5t81.5 289.5q0 266 -166 266 q-174 0 -174 -267l-19 -198h-263l-5 83q-1 17 -3 32t-3 26l-6 54q0 134 -42.5 202t-127.5 68q-88 0 -129 -65t-41 -201q0 -118 80.5 -289t246.5 -406h-342q-307 289 -307 695z" />
<glyph unicode="&#x10e1;" horiz-adv-x="1328" d="M132 617v1122h317v-1122q0 -168 47.5 -251t147.5 -83q92 0 134 82.5t42 251.5q0 75 -15.5 129t-39 94t-50.5 70t-50.5 56.5t-39 53t-15.5 60.5q0 94 60.5 180t178.5 167l169 -243q-34 -18 -57.5 -31.5t-39.5 -21.5q-18 -10 -31 -16q0 -14 28.5 -45t77.5 -74v1 q68 -60 107 -157t39 -223q0 -603 -498 -603q-512 0 -512 603z" />
<glyph unicode="&#x10e2;" horiz-adv-x="1664" d="M122 400q0 350 137.5 545t406.5 235q-2 37 -4.5 82t-4.5 93t-4 97t-3 94h279l-19 -369q268 -38 403.5 -234t135.5 -548q0 -413 -165.5 -620t-493.5 -207q-668 0 -668 832zM439 400q0 -285 86 -424t261 -139q176 0 262.5 139t86.5 424q0 204 -57.5 336t-166.5 188l18 -91 v-454h-279l16 545q-109 -54 -168 -186t-59 -338z" />
<glyph unicode="&#x10e3;" horiz-adv-x="1376" d="M116 966v271h169q174 0 257 -122q45 64 102.5 93t131.5 29q390 0 390 -486v-700q-3 -483 -507 -483q-498 0 -498 483q0 46 4 87t13 81.5t24 83.5t38 93q12 -5 31.5 -13t40.5 -16.5t39.5 -16t29.5 -11.5l144 -56q-12 -37 -21 -66t-14 -55.5t-7.5 -53t-2.5 -57.5 q0 -214 179 -214q200 0 200 214v700q-1 215 -97 215q-19 0 -36.5 -10.5t-30.5 -32t-21 -54t-8 -77.5l-17 -202h-229l-9 204q0 88 -31.5 130t-86.5 42h-177z" />
<glyph unicode="&#x10e4;" horiz-adv-x="1973" d="M130 663q0 574 497 574q114 0 198 -43.5t139 -126.5q56 80 137.5 120.5t186.5 40.5q446 0 446 -477q0 -128 -38 -220.5t-119 -149.5q61 -42 97.5 -106.5t36.5 -151.5v-148q0 -203 -152 -305t-458 -102q-140 0 -246.5 20.5t-178.5 66t-109.5 117t-40.5 173.5h314 q3 -35 20.5 -56t50 -32.5t80 -15.5t110.5 -4q287 0 287 138v144q0 115 -42 115h-139v283h139q66 0 66 234q0 106 -29 155.5t-95 49.5q-78 0 -115.5 -54t-37.5 -169v-90q0 -541 -499 -541q-252 0 -379 139.5t-127 421.5zM455 663q0 -147 41.5 -218.5t130.5 -71.5 q201 0 201 270q0 320 -201 320q-89 0 -130.5 -73t-41.5 -227z" />
<glyph unicode="&#x10e5;" horiz-adv-x="1328" d="M114 51q0 60 14 119t50 130l301 -86q-22 -57 -34 -97.5t-12 -65.5q0 -214 180 -214q194 0 194 214v598q0 163 -50 238.5t-154 75.5q-78 0 -114.5 -36.5t-36.5 -114.5q0 -24 16.5 -68.5t44.5 -103.5l-147 -59l1 1l-18 -7h1q-9 -4 -20 -9t-23 -10.5t-23.5 -11t-19.5 -9.5 l-12 -9q-49 70 -72 141t-23 145q0 212 115 318.5t347 106.5q62 0 106 -8.5t84 -35.5v546h314v-1688q0 -483 -510 -483q-499 0 -499 483z" />
<glyph unicode="&#x10e6;" horiz-adv-x="1971" d="M130 649q0 294 121 441t357 147q100 0 183 -44t142 -118q51 78 129.5 120t179.5 42q246 0 368 -130.5t122 -391.5v-4q0 -294 -244 -530l-70 39h1l-3 1q0 3 -8.5 13.5t-28.5 31.5l-12 -14l-29 17q-1 0 -2.5 0.5t-3.5 0.5l-15 11l1 -1l-65 37q82 99 122 198.5t40 199.5 q0 251 -168 251t-168 -231l-12 -324h-271l-8 195q-2 17 -3.5 41t-1.5 45v45q0 118 -42.5 173.5t-132.5 55.5q-81 0 -118 -77.5t-37 -239.5q0 -242 129 -400t372 -226q208 -67 323 -181t121 -277h-303q-3 31 -23 60t-52.5 54.5t-76.5 46.5t-96 36h1q-35 9 -61 9 q-57 0 -137 -43t-171 -120l-152 223q40 45 74.5 78t65.5 53q-337 232 -337 687zM1391 235l13 -8l12 -6q0 -1 -2 -1q-6 0 -23 15z" />
<glyph unicode="&#x10e7;" horiz-adv-x="1328" d="M114 80h321q1 -68 12.5 -114.5t33.5 -75t55 -41t77 -12.5q198 0 198 214v170q-38 -19 -89 -29t-109 -10q-125 0 -218.5 26t-156 86.5t-93.5 159t-31 242.5q0 279 274 550l303 -105q-133 -134 -195.5 -243.5t-62.5 -201.5q0 -75 11.5 -121t34 -72t56 -35t78.5 -9 q198 0 198 189v550h312v-1155q0 -475 -510 -475q-124 0 -217 29t-155.5 91t-94.5 159t-32 233z" />
<glyph unicode="&#x10e8;" horiz-adv-x="1325" d="M114 600q0 280 124.5 411.5t374.5 131.5q60 0 107.5 -12.5t88.5 -45.5v281q0 77 -21.5 113.5t-68.5 36.5q-19 0 -38.5 -8.5t-35 -26t-25.5 -43t-10 -59.5v-66h-227v68q0 33 -8 57.5t-21 41t-30 25.5t-34 11l-17 -5h1q-17 -9 -40.5 -16.5t-39.5 -12.5l-63 -21v314h161 q62 0 113.5 -29t91.5 -90q43 64 102.5 91.5t141.5 27.5q381 0 381 -409v-778q0 -288 -117.5 -431t-347.5 -143q-543 0 -543 586zM433 600q0 -160 54 -238.5t170 -78.5q77 0 111.5 74t34.5 231q0 76 -12 129.5t-35.5 87.5t-59 49.5t-83.5 15.5q-45 0 -79 -15t-56.5 -47.5 t-33.5 -83.5t-11 -124z" />
<glyph unicode="&#x10e9;" horiz-adv-x="1325" d="M134 14v1322q0 219 106.5 329t324.5 110q432 0 432 -390q0 -45 -17 -104.5t-41 -119.5q95 -71 147 -182t52 -266q0 -222 -61 -402t-181 -320q-14 1 -32 3t-37.5 4t-37 4.5t-29.5 3.5l-61 6q-12 0 -30 1t-33 2l-84 4q137 162 201.5 333.5t64.5 360.5q0 130 -41 191.5 t-131 61.5q-103 0 -153.5 -68.5t-50.5 -201.5v-682h-308zM309 1101l133 -135v190q48 32 110 54t136 27q9 38 13 70t4 57q0 145 -136 145q-127 0 -127 -191v-125l-65 -92h-68z" />
<glyph unicode="&#x10ea;" horiz-adv-x="1447" d="M117 203v273q0 240 42.5 437t125.5 362l132 -63q13 -6 29 -13t30 -12l103 -49q-70 -95 -107 -244t-37 -355v-336q0 -183 65 -274.5t193 -91.5q126 0 185.5 62.5t59.5 193.5q0 105 -25 156t-82 51h-224v264h216q43 0 67.5 45.5t24.5 135.5q0 42 -22.5 73t-59.5 50h1 q-75 34 -120.5 122.5t-47.5 223.5h312q2 -73 18 -119t44 -60q81 -42 129 -113t48 -168q0 -202 -139 -313q82 -55 127.5 -147.5t45.5 -227.5q0 -248 -141.5 -373t-419.5 -125q-573 0 -573 635z" />
<glyph unicode="&#x10eb;" horiz-adv-x="1328" d="M114 612q0 625 499 625q60 0 109 -12t87 -34v548h313v-1120q0 -605 -509 -605q-499 0 -499 598zM433 612q0 -329 180 -329q187 0 187 336q-1 347 -187 347q-180 0 -180 -354z" />
<glyph unicode="&#x10ec;" horiz-adv-x="1328" d="M132 554v856q0 365 340 365q192 0 284 -117q82 117 206 117h180v-316l-178 57q-15 -3 -31.5 -13t-30 -28t-22.5 -44t-9 -60v-75h-227v72q0 37 -12.5 64.5t-34 46t-50 28t-60.5 9.5q-47 0 -47 -106v-338q41 32 91.5 46.5t110.5 14.5q124 0 218 -30.5t156.5 -94.5 t94 -163.5t31.5 -238.5q0 -592 -502 -592q-508 0 -508 540zM451 554q0 -269 189 -269q93 0 135.5 79t42.5 242q0 72 -10.5 121t-32 78.5t-54.5 42t-79 12.5q-48 0 -84 -16.5t-59.5 -52.5t-35.5 -94.5t-12 -142.5z" />
<glyph unicode="&#x10ed;" horiz-adv-x="1348" d="M116 823q0 58 21.5 121t60.5 115.5t94 87t123 34.5h157v558h286v-558h199v-248h-199v-355q1 -16 11.5 -35t27.5 -39.5t39 -42t45 -42.5h-1q84 -64 130.5 -156t46.5 -203q0 -245 -125 -368.5t-378 -123.5q-122 0 -214.5 33t-155.5 95.5t-97 153.5t-38 207q2 60 36 131 t105 161l248 -181q-29 -37 -47.5 -67.5t-18.5 -49.5q0 -214 182 -214q185 0 185 220q0 65 -33 120.5t-88 97.5q-68 72 -106 147t-40 150v361h-139q-12 0 -20.5 -9.5t-13.5 -24.5t-7.5 -33t-2.5 -34q0 -15 2.5 -34.5t7.5 -37t13.5 -29t20.5 -11.5h84v-234h-102 q-68 0 -123 30.5t-94 79t-60.5 108.5t-21.5 119z" />
<glyph unicode="&#x10ee;" horiz-adv-x="1325" d="M132 625v1114h317v-579q21 16 45.5 30t49 24.5t49 16.5t47.5 6q500 0 500 -612q-1 -611 -500 -611q-508 0 -508 611zM458 625q0 -340 178 -340q94 0 138.5 84t45.5 256q-1 338 -186 338q-176 0 -176 -338z" />
<glyph unicode="&#x10ef;" horiz-adv-x="1306" d="M114 57q0 95 32.5 186.5t107.5 188.5l124 -71l126 -76q-37 -68 -53 -124.5t-16 -103.5q0 -112 43.5 -166t134.5 -54q189 0 189 229q0 41 -11 83.5t-30.5 84t-45 79t-55.5 69.5q-41 40 -76 85.5t-60.5 93t-40 96.5t-14.5 96v100l-22 6q-6 2 -11 4t-11 3.5t-11 3.5l-24 9h1 q-41 16 -93.5 32.5t-101.5 32.5l-59 19v325l332 -125v279h274v-350l85 -27q17 -5 36 -13t37 -11l15 -5q9 0 22 -3.5t27 -9t27 -11t22 -8.5l-1 1l110 -33v-316l-380 125v-28q0 -23 13.5 -51.5t36.5 -61t53.5 -66t64.5 -65.5q47 -44 86 -97.5t66.5 -113.5t43.5 -125.5 t16 -133.5q0 -471 -510 -471q-499 0 -499 489z" />
<glyph unicode="&#x10f0;" horiz-adv-x="1304" d="M114 512v68h324v-68q0 -116 41 -172.5t134 -56.5q187 0 187 159q0 31 -3 59.5t-9.5 50.5t-16.5 35t-24 13h-203v218h203q12 0 20 8.5t13.5 22.5t8 32t2.5 36q0 15 -2.5 31t-7.5 29.5t-13.5 22t-20.5 8.5h-203v221h202q9 0 15.5 9.5t11 24.5t6.5 34.5t2 40.5q0 17 -49 34 t-129 31q-65 12 -119 41.5t-93 76t-61.5 110.5t-25.5 144h312q3 -24 19.5 -45.5t41.5 -38.5t57 -30t67 -20q62 -13 116 -39.5t94.5 -65t64 -89t23.5 -111.5q0 -136 -105 -209q56 -38 85.5 -90.5t29.5 -120.5q0 -138 -118 -213q69 -54 100 -115t31 -133q0 -441 -503 -441 q-505 0 -505 498z" />
<glyph unicode="&#x10f1;" horiz-adv-x="1395" d="M99 1362h323q38 -124 57.5 -235.5t19.5 -220.5q0 -54 -2.5 -101.5t-9.5 -92.5q-23 -122 -36 -265.5t-15 -321.5q2 -148 64.5 -218t191.5 -70q202 0 202 100q0 156 -50 157h-203v273h203q50 0 50 78q0 115 -48 115h-205v266h205q48 0 48 104q0 79 -50 79h-203v272h203 q50 0 50 90q0 18 -32 33t-86 29q-94 23 -145.5 110.5t-56.5 231.5h289q3 -23 15 -43.5t31 -38t42.5 -31.5t49.5 -24h-1q91 -33 146.5 -101.5t55.5 -165.5q0 -76 -27.5 -132t-81.5 -92q54 -38 81.5 -91.5t27.5 -125.5q0 -81 -29.5 -141.5t-83.5 -98.5q58 -39 85.5 -99.5 t27.5 -145.5q0 -75 -31 -129t-97 -91q61 -47 94.5 -118t33.5 -165q0 -374 -510 -374q-290 0 -433 139t-143 418q0 75 4.5 155.5t12 160t18 154.5t22.5 140q9 41 13.5 83.5t4.5 81.5q0 80 -23.5 197.5t-68.5 264.5z" />
<glyph unicode="&#x10f2;" horiz-adv-x="1287" d="M113 612q3 141 35.5 252.5t94.5 189t153.5 119t211.5 41.5q494 0 494 -602q0 -158 -57 -286t-169 -226q26 -11 63.5 -17.5t85.5 -6.5h14t15 1v-363q-77 24 -141.5 51.5t-119.5 59.5t-101 69t-86 80q-83 -84 -195.5 -146.5t-255.5 -112.5v358q61 2 104.5 8.5t69.5 19.5 q-114 99 -164.5 225t-51.5 286zM428 612q0 -138 44.5 -223t135.5 -124q88 38 131.5 119.5t43.5 214.5q0 177 -41 262.5t-141 85.5q-88 0 -130.5 -82t-42.5 -253z" />
<glyph unicode="&#x10f3;" horiz-adv-x="1287" d="M113 68l13 40l-1 -1l3 16q0 5 3 11l27 101l309 -33l-39 -150q5 -45 19 -83.5t36.5 -66t53.5 -43.5t71 -16q175 0 175 214v27q0 129 -55 189t-169 60h-178v287h178q97 0 146 77t49 233l-1 12l-239 -19q-11 -2 -24.5 -2.5t-25.5 -1.5h-8v-218h-301v482l947 31 q-1 -127 -14 -234t-41.5 -196t-72.5 -161t-107 -127q66 -36 111 -78t72.5 -92.5t39.5 -110t12 -131.5v-27q0 -240 -125 -360.5t-376 -120.5q-488 0 -488 492z" />
<glyph unicode="&#x10f4;" horiz-adv-x="1287" d="M113 115h315q5 -272 178 -272q91 0 134 53t43 161v55q0 182 -182 182h-220v281h209q33 10 64 36t57.5 64.5t45.5 88t27 107.5q-75 -15 -173 -15q-249 0 -373.5 106t-124.5 321q0 459 558 462v-268q-285 -5 -285 -194q0 -156 222 -156q90 0 213 57.5t281 175.5v-394 q0 -181 -51.5 -309.5t-159.5 -204.5q110 -48 161.5 -131t51.5 -209v-55q0 -481 -496 -481q-245 0 -369.5 133.5t-125.5 405.5z" />
<glyph unicode="&#x10f5;" horiz-adv-x="1419" d="M117 420q0 205 120.5 310t365.5 105h186v82h-186q-246 0 -366 104.5t-120 315.5q0 202 123 305t371 103q494 0 494 -408v-149h117v-271h-117v-82h117v-306h-117v-109q0 -406 -497 -406q-491 0 -491 406zM430 424q0 -145 180 -145q91 0 135 38t44 119v125h-186 q-173 0 -173 -137zM430 1336q0 -148 173 -148h186v149q0 140 -179 140q-180 0 -180 -141z" />
<glyph unicode="&#x10f6;" horiz-adv-x="2037" d="M132 625q0 589 494 589q109 0 195 -41.5t143 -121.5q56 81 139 122t192 41q494 0 494 -589q0 -306 -122 -458.5t-372 -152.5q-100 0 -174 51v-33q0 -223 -137.5 -337.5t-416.5 -116.5v266q236 4 236 186v595q0 165 -43 243.5t-134 78.5q-90 0 -133.5 -78.5t-43.5 -243.5 q0 -302 256 -305v-271q-288 4 -430.5 148t-142.5 428zM1121 467q0 -188 174 -188q175 0 175 346q0 165 -44 243.5t-134 78.5q-171 0 -171 -292v-188z" />
<glyph unicode="&#x10f7;" horiz-adv-x="1494" d="M117 74q0 217 93.5 354.5t285.5 204.5q298 93 298 180q0 134 -98 134q-127 0 -130 -100q2 -27 4.5 -60t4.5 -60l-133 -14l-150 -20l-22 126q1 395 426 395q205 0 308 -102.5t103 -309.5q0 -133 -93.5 -235.5t-284.5 -174.5q-146 -37 -220 -114t-74 -197q0 -238 261 -238 q279 0 279 242q0 48 -26.5 96t-80.5 100l277 157q148 -170 149 -364q-1 -250 -151.5 -373t-451.5 -123q-284 0 -429 124t-145 372z" />
<glyph unicode="&#x10f8;" horiz-adv-x="1287" d="M113 46v1144h320v-642q0 -134 186 -134q170 0 170 251q0 115 -72 229.5t-214 233.5l119 48q18 5 27 8t14 5l148 55q146 -141 219.5 -284.5t73.5 -294.5q0 -267 -121.5 -399t-363.5 -132q-57 0 -102.5 8t-83.5 29v-120q0 -105 44.5 -156.5t141.5 -51.5q167 0 170 267h315 q-2 -272 -126 -402t-363 -130q-502 0 -502 468z" />
<glyph unicode="&#x10f9;" horiz-adv-x="1395" d="M118 715q0 517 547 517q270 0 403.5 -130.5t133.5 -386.5q0 -322 -378 -520q-131 -54 -194 -110t-63 -115q0 -127 104 -127q137 0 137 83v141h306v-141q0 -177 -111.5 -263.5t-331.5 -86.5q-417 0 -417 384q0 98 39.5 176t122.5 135q-146 67 -222 177.5t-76 266.5z M434 715q0 -100 62.5 -162t169.5 -81q103 20 162.5 82t59.5 161q0 124 -56.5 185.5t-166.5 61.5q-115 0 -173 -61.5t-58 -185.5z" />
<glyph unicode="&#x10fa;" horiz-adv-x="1393" d="M112 704q0 251 129.5 379t376.5 131q228 -26 343.5 -144t115.5 -335q0 -54 -13 -134t-44 -201l-256 113q11 67 15 112t4 72q0 50 -14.5 91.5t-39 73t-57.5 53t-70 32.5q-36 -6 -65.5 -26.5t-51.5 -52.5t-36.5 -73.5t-18.5 -87.5q6 -61 21 -118.5t36.5 -105.5t49 -84.5 t59.5 -54.5q98 -24 192 -87.5t187 -174.5l-216 -177q-13 21 -23.5 36.5t-19.5 27t-17.5 20.5t-18.5 19l-14 17q-20 19 -49 29.5t-63 10.5q-49 0 -93.5 -31t-89.5 -102l-243 132q46 65 87.5 107.5t85.5 68.5q-96 73 -142.5 189.5t-46.5 274.5z" />
<glyph unicode="&#x10fb;" horiz-adv-x="872" d="M60 45v278h292v-278h-292zM60 773v279h294v-279h-294zM501 430v277h287v-277h-287z" />
<glyph unicode="&#x10fc;" horiz-adv-x="653" d="M54 1042v315q0 114 56.5 170t174.5 56h280v-190l-303 2q-8 0 -8 -22v-48l45 31q268 0 268 -314q0 -326 -260 -326q-253 0 -253 326zM254 1036q0 -133 53 -133q59 0 59 139q0 113 -63 113q-49 0 -49 -119z" />
<glyph unicode="&#x2000;" horiz-adv-x="979" />
<glyph unicode="&#x2001;" horiz-adv-x="1959" />
<glyph unicode="&#x2002;" horiz-adv-x="979" />
<glyph unicode="&#x2003;" horiz-adv-x="1959" />
<glyph unicode="&#x2004;" horiz-adv-x="653" />
<glyph unicode="&#x2005;" horiz-adv-x="489" />
<glyph unicode="&#x2006;" horiz-adv-x="326" />
<glyph unicode="&#x2007;" horiz-adv-x="326" />
<glyph unicode="&#x2008;" horiz-adv-x="244" />
<glyph unicode="&#x2009;" horiz-adv-x="391" />
<glyph unicode="&#x200a;" horiz-adv-x="108" />
<glyph unicode="&#x200f;" horiz-adv-x="0" />
<glyph unicode="&#x2010;" horiz-adv-x="776" d="M56 454v266h624v-266h-624z" />
<glyph unicode="&#x2011;" horiz-adv-x="776" d="M56 454v266h624v-266h-624z" />
<glyph unicode="&#x2012;" horiz-adv-x="1368" d="M72 461v250h1156v-250h-1156z" />
<glyph unicode="&#x2013;" d="M63 461v250h894v-250h-894z" />
<glyph unicode="&#x2014;" horiz-adv-x="2150" d="M91 461v250h1858v-250h-1858z" />
<glyph unicode="&#x2015;" horiz-adv-x="2150" d="M-4 461v250h2048v-250h-2048z" />
<glyph unicode="&#x2016;" d="M206 -457v2047h275v-2047h-275zM552 -457v2047h275v-2047h-275z" />
<glyph unicode="&#x2017;" d="M-48 -119v249h1117v-249h-1117zM-48 -208h1117v-249h-1117v249z" />
<glyph unicode="&#x2018;" horiz-adv-x="684" d="M125 946v235l177 344h226l-93 -365v-214h-310z" />
<glyph unicode="&#x2019;" horiz-adv-x="684" d="M113 965l92 362v198h315v-218l-180 -342h-227z" />
<glyph unicode="&#x201a;" horiz-adv-x="684" d="M109 -225l92 364v212h312v-232l-178 -344h-226z" />
<glyph unicode="&#x201b;" horiz-adv-x="684" d="M129 1307v218h311v-198l32 -119q7 -27 15.5 -59.5t17.5 -65t17.5 -63.5t15.5 -55h-232z" />
<glyph unicode="&#x201c;" horiz-adv-x="1114" d="M134 946v235l178 344h226l-92 -365v-214h-312zM521 946v235l178 344h229l-92 -365v-214h-315z" />
<glyph unicode="&#x201d;" horiz-adv-x="1114" d="M120 946l92 361v218h310v-236l-176 -343h-226zM506 946l93 362v217h313v-236l-176 -343h-230z" />
<glyph unicode="&#x201e;" horiz-adv-x="1114" d="M120 -225l92 364v212h310v-232l-176 -344h-226zM506 -225l93 364v212h313v-232l-176 -344h-230z" />
<glyph unicode="&#x201f;" horiz-adv-x="1114" d="M134 1289v236h312v-217l92 -362h-226zM521 1289v236h315v-217l92 -362h-229z" />
<glyph unicode="&#x2020;" d="M23 870v256h347v399h280v-399h348v-256h-348v-1057h-280v1057h-347z" />
<glyph unicode="&#x2021;" d="M23 209v259h347v402h-347v256h347v399h280v-399h348v-256h-348v-402h348v-259h-348v-396h-280v396h-347z" />
<glyph unicode="&#x2022;" horiz-adv-x="1268" d="M266 777q0 70 26.5 131t72 106t107.5 70.5t133 25.5q67 0 127.5 -26t106.5 -71t73 -105.5t27 -130.5q0 -68 -26 -129.5t-71 -108t-106.5 -74t-132.5 -27.5t-132 26.5t-107 72.5t-72 108t-26 132z" />
<glyph unicode="&#x2023;" horiz-adv-x="1268" d="M267 324v902l809 -451z" />
<glyph unicode="&#x2024;" horiz-adv-x="719" d="M185 0v351h312v-351h-312z" />
<glyph unicode="&#x2025;" horiz-adv-x="1436" d="M203 0v351h312v-351h-312zM848 0v351h312v-351h-312z" />
<glyph unicode="&#x2026;" horiz-adv-x="2150" d="M220 0v351h314v-351h-314zM866 0v351h310v-351h-310zM1507 0v351h315v-351h-315z" />
<glyph unicode="&#x2027;" horiz-adv-x="684" d="M169 584v354h311v-354h-311z" />
<glyph unicode="&#x202a;" horiz-adv-x="0" />
<glyph unicode="&#x202b;" horiz-adv-x="0" />
<glyph unicode="&#x202c;" horiz-adv-x="0" />
<glyph unicode="&#x202d;" horiz-adv-x="0" />
<glyph unicode="&#x202e;" horiz-adv-x="0" />
<glyph unicode="&#x202f;" horiz-adv-x="428" />
<glyph unicode="&#x2032;" horiz-adv-x="487" d="M-34 1058l212 467h341l-360 -467h-193z" />
<glyph unicode="&#x2035;" horiz-adv-x="487" d="M-62 1525h339l212 -467h-195z" />
<glyph unicode="&#x2039;" horiz-adv-x="860" d="M113 561v127l555 493v-330l-257 -227l257 -231v-329z" />
<glyph unicode="&#x203a;" horiz-adv-x="860" d="M148 64v329l254 231q-26 22 -52 46t-52 47l-13 12v-1q-17 15 -35 31.5t-35 31.5l1 -1q-17 14 -34 30t-34 31v330l554 -493v-127z" />
<glyph unicode="&#x203e;" d="M-48 1523v249h1117v-249h-1117z" />
<glyph unicode="&#x2043;" d="M178 607v319h678v-319h-678z" />
<glyph unicode="&#x2044;" horiz-adv-x="358" d="M-445 -28l949 1575h282l-948 -1575h-283z" />
<glyph unicode="&#x204b;" horiz-adv-x="1368" d="M204 -187v1712h479q109 0 201 -33.5t159.5 -94t105.5 -144.5t38 -185q0 -89 -28 -165.5t-82.5 -135.5t-134 -97t-181.5 -51v-806h-245v1480h-70v-1480h-242z" />
<glyph unicode="&#x204c;" d="M174 761q0 73 26.5 134.5t76.5 106t123.5 69.5t168.5 25l-2 -673q-96 0 -169 26.5t-123 72.5t-75.5 107.5t-25.5 131.5zM569 423v673h276v-673h-276z" />
<glyph unicode="&#x204d;" d="M174 425v671h279q98 -1 171.5 -27t122.5 -71t73.5 -106t24.5 -131q0 -66 -23.5 -127.5t-72 -108t-122.5 -74.5t-174 -28z" />
<glyph unicode="&#x204e;" d="M5 213l296 162l-296 160l112 194l281 -170v312h223v-312l280 170l113 -194l-295 -160l79 -43q53 -29 110 -61t107 -58l-115 -190l-279 169v-315h-223v315q-68 -42 -140 -85.5t-140 -83.5z" />
<glyph unicode="&#x2055;" horiz-adv-x="1802" d="M284 629v262h255l-182 182l186 186l181 -181v256h263v-257l180 180l185 -184l-182 -182h257v-262h-254q44 -45 90 -90t89 -89l-185 -188l-180 181v-252h-263v252q-44 -45 -91 -91t-90 -90l-186 188l180 179h-253z" />
<glyph unicode="&#x205f;" horiz-adv-x="489" />
<glyph unicode="&#x20a4;" horiz-adv-x="1303" d="M91 0v266h212v177h-172v241h172v16h-179v241h179v30q0 132 26.5 228t82.5 158.5t142.5 92.5t206.5 30q59 0 141.5 -18t175.5 -53v-299q-210 114 -302 114q-51 0 -85.5 -12t-54.5 -35v1q-40 -58 -40 -228v-9h350v-241h-350v-16h358v-241h-358v-177h501v-266h-1006z" />
<glyph unicode="&#x20ac;" horiz-adv-x="1368" d="M-55 492l100 229h110v61q0 5 -0.5 7.5t-0.5 5.5q0 2 0.5 3.5t0.5 4.5h-210l100 229h135q26 119 80.5 214.5t132.5 162t177 102.5t214 36q103 0 203 -40.5t202 -121.5v-380q-91 104 -152.5 164t-96.5 78q-72 37 -149 37q-114 0 -189 -61.5t-110 -190.5h557l-100 -229h-489 v-83h455l-107 -228h-316q68 -256 299 -256q29 0 53.5 2t50 10.5t53 26t62.5 49t78.5 78t100.5 114.5v-378q-103 -83 -203 -124.5t-202 -41.5q-118 0 -218 36t-177.5 103.5t-131 163.5t-77.5 217h-235z" />
<glyph unicode="&#x2116;" horiz-adv-x="2130" d="M42 0v266q133 0 133 40v1150h335l505 -950v643q0 72 21 129t70 96.5t130 60.5t200 21v-266q-133 0 -133 -41v-1149h-335l-505 950v-644q0 -68 -18.5 -124t-65.5 -96.5t-128.5 -63t-208.5 -22.5zM1335 0v222h557v-222h-557zM1335 616q0 71 21.5 135t59.5 112.5t89 77 t110 28.5q56 0 106.5 -27.5t88.5 -75t60 -112t22 -138.5q0 -75 -22 -140t-60 -112t-88.5 -74t-106.5 -27q-59 0 -110 27t-88.5 74.5t-59.5 112t-22 139.5zM1575 616q0 -47 10 -77t30 -30q19 0 29.5 30t10.5 77t-10.5 76.5t-29.5 29.5q-20 0 -30 -29.5t-10 -76.5z" />
<glyph unicode="&#x2122;" horiz-adv-x="2048" d="M257 1259v197h807l127 -185l36 56h-1l81 129h240v-633h-213v302q-22 -35 -45 -69.5t-44 -69.5h-109l-96 141v-304h-217v436h-171v-436h-216v436h-179z" />
<glyph unicode="&#x2190;" horiz-adv-x="1716" d="M76 571v126l410 409l186 -186l-153 -154h1018v-265h-1018l153 -153l-186 -187z" />
<glyph unicode="&#x21b2;" horiz-adv-x="1716" d="M296 362v124l409 411l186 -188l-153 -152h252v899h267v-1164h-519l153 -153l-186 -187z" />
<glyph unicode="&#x21b5;" horiz-adv-x="1716" d="M70 571v126l409 409l185 -186l-152 -154h523v500h265v-765h-788l152 -153l-185 -187z" />
<glyph unicode="&#x21e7;" horiz-adv-x="1716" d="M222 932l592 592l591 -592h-324v-932h-534v932h-325zM710 1134h39v-932h130v932h40l-105 105z" />
<glyph unicode="&#x25fc;" horiz-adv-x="1170" d="M0 0v1170h1170v-1170h-1170z" />
<glyph horiz-adv-x="0" />
</font>
</defs>
</svg>
