<?xml version="1.0" standalone="no"?>
<!DOCTYPE svg PUBLIC "-//W3C//DTD SVG 1.1//EN" "http://www.w3.org/Graphics/SVG/1.1/DTD/svg11.dtd" >
<svg xmlns="http://www.w3.org/2000/svg" xmlns:xlink="http://www.w3.org/1999/xlink" version="1.1">
<metadata></metadata>
<defs>
<font id="bpg_boxoregular" horiz-adv-x="1139" >
<font-face units-per-em="2048" ascent="1638" descent="-410" />
<missing-glyph horiz-adv-x="700" />
<glyph unicode="&#xd;" horiz-adv-x="569" />
<glyph unicode=" "  horiz-adv-x="700" />
<glyph unicode="&#x09;" horiz-adv-x="700" />
<glyph unicode="&#xa0;" horiz-adv-x="700" />
<glyph unicode="!" horiz-adv-x="569" d="M176 1141v325h223v-325l-52 -777h-116zM184 0v205h207v-205h-207z" />
<glyph unicode="&#x22;" horiz-adv-x="727" d="M94 1226v240h205v-240l-45 -279h-110zM426 1226v240h205v-240l-48 -279h-108z" />
<glyph unicode="#" d="M21 401v149h199l74 363h-273v149h303l87 429h150l-87 -429h315l87 429h151l-87 -429h173v-149h-203l-75 -363h278v-149h-308l-87 -426h-150l86 426h-314l-87 -426h-150l87 426h-169zM370 550h314l75 363h-315z" />
<glyph unicode="$" d="M73 407l181 34q21 -145 74 -213q76 -96 182 -107v573q-111 21 -227 86q-86 48 -132.5 133t-46.5 193q0 192 136 311q91 80 270 98v86h106v-86q157 -15 249 -92q118 -98 142 -269l-186 -28q-16 106 -66.5 162.5t-138.5 74.5v-519q136 -34 180 -53q84 -37 137 -90 t81.5 -126t28.5 -158q0 -187 -119 -312t-308 -134v-182h-106v180q-135 17 -219.5 60.5t-146 140.5t-71.5 237zM284 1120q0 -92 51.5 -154t174.5 -99v498q-105 -16 -165.5 -84t-60.5 -161zM616 121q105 13 173.5 91t68.5 193q0 98 -48.5 157.5t-193.5 106.5v-548z" />
<glyph unicode="%" horiz-adv-x="1821" d="M119 1114q0 157 79 267t229 110q138 0 228.5 -98.5t90.5 -289.5q0 -186 -91.5 -286.5t-225.5 -100.5q-133 0 -221.5 99t-88.5 299zM276 1096q0 -141 45 -198.5t111 -57.5q68 0 112.5 58t44.5 212q0 142 -45 199.5t-112 57.5t-111.5 -58t-44.5 -213zM433 -54l802 1545h146 l-799 -1545h-149zM1067 344q0 158 79 267.5t230 109.5q138 0 228.5 -98.5t90.5 -289.5q0 -186 -91.5 -286.5t-226.5 -100.5q-133 0 -221.5 99.5t-88.5 298.5zM1224 326q0 -140 45 -198t111 -58q69 0 113.5 58t44.5 212q0 142 -45 199.5t-112 57.5q-68 0 -112.5 -58 t-44.5 -213z" />
<glyph unicode="&#x26;" horiz-adv-x="1366" d="M88 404q0 136 87.5 245.5t261.5 192.5q-99 114 -132 185t-33 137q0 132 103.5 229.5t260.5 97.5q150 0 245.5 -92t95.5 -221q0 -209 -277 -357l263 -335q45 88 70 204l187 -40q-48 -192 -130 -316q101 -134 229 -225l-121 -143q-109 70 -225 207q-89 -99 -194 -148.5 t-227 -49.5q-225 0 -357 152q-107 124 -107 277zM282 415q0 -89 71 -185t201 -96q81 0 167.5 50.5t138.5 130.5l-330 409q-146 -87 -197 -161.5t-51 -147.5zM457 1181q0 -34 17.5 -71.5t52.5 -79.5l80 -93q117 69 151.5 121t34.5 115q0 75 -47.5 122.5t-118.5 47.5 q-73 0 -121.5 -47t-48.5 -115z" />
<glyph unicode="'" horiz-adv-x="391" d="M90 1221v245h205v-245l-48 -274h-111z" />
<glyph unicode="(" horiz-adv-x="682" d="M124 531q0 238 77 456q90 253 278 504h129q-121 -208 -160 -297q-61 -138 -96 -288q-43 -187 -43 -376q0 -481 299 -961h-129q-149 188 -252 440t-103 522z" />
<glyph unicode=")" horiz-adv-x="682" d="M75 -431q299 480 299 961q0 188 -43 373q-34 150 -95 288q-39 90 -161 300h129q188 -251 278 -504q77 -218 77 -456q0 -270 -103.5 -522t-251.5 -440h-129z" />
<glyph unicode="*" horiz-adv-x="797" d="M64 1197l46 142q159 -56 231 -97q-19 181 -20 249h145q-3 -99 -23 -248q103 52 236 96l46 -142q-127 -42 -249 -56q61 -53 172 -189l-120 -85q-58 79 -137 215q-74 -141 -130 -215l-118 85q116 143 166 189q-129 25 -245 56z" />
<glyph unicode="+" horiz-adv-x="1196" d="M114 639v168h399v399h170v-399h399v-168h-399v-402h-170v402h-399z" />
<glyph unicode="," horiz-adv-x="569" d="M170 -213q57 25 84 73.5t30 139.5h-102v205h205v-205q0 -113 -40 -182.5t-127 -107.5z" />
<glyph unicode="-" horiz-adv-x="682" d="M65 440v181h553v-181h-553z" />
<glyph unicode="." horiz-adv-x="569" d="M186 0v205h205v-205h-205z" />
<glyph unicode="/" horiz-adv-x="569" d="M0 -25l425 1516h144l-424 -1516h-145z" />
<glyph unicode="0" d="M82 723q0 129 13 232.5t40 182.5q26 81 66.5 142t93.5 105q109 86 268 86q119 0 208.5 -48t148.5 -139v1q59 -91 92 -219v1q32 -128 32 -344q0 -128 -13 -231t-40 -183q-52 -159 -160 -247q-107 -87 -268 -87q-212 0 -336 154q-145 182 -145 594zM284 723q0 -354 81 -469 q81 -113 198 -113t197 114q82 115 82 468q0 355 -82 468q-82 114 -199 114q-58 0 -105 -26t-82 -74q-45 -66 -67.5 -186t-22.5 -296z" />
<glyph unicode="1" d="M217 913v192q77 35 142.5 78t120.5 92q110 98 159 196h130v-1471h-197v1118q-31 -26 -70.5 -54.5t-83.5 -53.5q-48 -28 -100.5 -54t-100.5 -43z" />
<glyph unicode="2" d="M59 0q-2 75 21 137q38 101 118 194q41 48 100 103t135 118q54 45 103 88.5t89.5 82.5t72 72.5t51.5 60.5q38 54 59.5 107t21.5 101q0 100 -73 171q-73 70 -189 70q-123 0 -199 -74q-74 -74 -74 -217l-204 21q20 214 144.5 325t336.5 111t336 -118t124 -293 q0 -89 -36 -174.5t-121 -179.5h1q-39 -45 -108 -109t-167 -146q-80 -68 -130.5 -113t-73.5 -69q-19 -18 -34.5 -38.5t-29.5 -40.5h701v-190h-975z" />
<glyph unicode="3" d="M82 400l196 26q15 -76 40.5 -130t61 -88.5t79 -50.5t94.5 -16q121 0 204 84q84 83 84 208q0 120 -77 194q-76 77 -196 77q-26 0 -59.5 -6t-77.5 -17l23 179q2 0 8 -0.5t8 -0.5q7 -1 11.5 -1h9.5q113 0 199 57t86 175q0 93 -63 155q-64 61 -164 61t-166 -65.5t-86 -197.5 l-198 36q33 191 153 292h-1q118 100 294 100q62 0 117 -12.5t106 -39.5q101 -52 156 -142q25 -42 39.5 -92t14.5 -99q0 -91 -46 -166.5t-135 -123.5q123 -34 187.5 -127t64.5 -232q0 -194 -141 -329q-140 -134 -356 -134q-196 0 -323 117q-127 114 -147 309z" />
<glyph unicode="4" d="M23 346v176l665 944h160v-937h195v-183h-195v-346h-198v346h-627zM226 529h424v610q-107 -155 -211.5 -305t-212.5 -305z" />
<glyph unicode="5" d="M81 397l206 18q10 -68 34.5 -119.5t59.5 -86t79.5 -51.5t95.5 -17q122 0 210 94q86 94 86 249q0 148 -83 233q-82 85 -216 85q-84 0 -152 -39t-107 -102l-183 23l143 762h738v-190h-579q-18 -93 -35 -178t-36 -179q63 41 126.5 60t132.5 19q193 0 326 -134t133 -344 q0 -99 -29.5 -186t-86.5 -159q-72 -89 -169 -134.5t-219 -45.5q-200 0 -329 114q-127 113 -146 308z" />
<glyph unicode="6" d="M74 686q0 208 41 363.5t116 252.5q69 83 162.5 126t208.5 43q176 0 286 -98v1q112 -97 136 -281l-196 -16q-24 111 -66 156q-70 73 -170 73q-82 0 -143 -46q-42 -29 -74 -73t-56 -101q-23 -55 -35.5 -126.5t-13.5 -173.5q66 87 154.5 129.5t186.5 42.5q91 0 168.5 -34 t140.5 -100q62 -67 95 -154.5t33 -190.5q0 -140 -60 -258v1q-29 -61 -71 -106.5t-94 -77.5q-104 -63 -237 -63q-227 0 -370 166q-72 83 -107 219t-35 326zM298 478q0 -90 37 -171q20 -42 46 -72.5t60 -52.5v1q34 -20 69.5 -31t72.5 -11q107 0 186 88q78 87 78 239 q0 146 -77 229q-77 84 -194 84q-116 0 -197 -84q-81 -81 -81 -219z" />
<glyph unicode="7" d="M94 1256v191h955v-152q-68 -73 -138 -173.5t-137 -218.5q-66 -120 -119 -245.5t-89 -253.5q-54 -183 -69 -404h-201q2 92 18.5 198t48.5 227q31 121 77.5 238.5t106.5 229.5q27 49 57 99t61.5 97t63 89.5t60.5 77.5h-695z" />
<glyph unicode="8" d="M80 428q0 138 65.5 233t189.5 135q-101 44 -149 118t-48 175q0 162 116 272t309 110t312 -113q118 -112 118 -274q0 -99 -48 -172.5t-147 -116.5q125 -48 189.5 -144.5t64.5 -227.5q0 -191 -134 -318q-68 -65 -155 -97.5t-197 -32.5t-197 32.5t-155 97.5 q-134 128 -134 323zM282 427q0 -72 34 -143v1q37 -69 104 -106q70 -38 148 -38q122 0 203 79q80 78 80 201q0 124 -83 205q-80 81 -206 81q-122 0 -201 -80q-79 -81 -79 -200zM339 1095q0 -100 63 -161q65 -62 165 -62q97 0 161 61q63 61 63 152q0 92 -65 157 q-66 64 -161 64q-97 0 -162 -62q-64 -66 -64 -149z" />
<glyph unicode="9" d="M82 973q0 224 132 361q133 137 332 137q142 0 263 -77q60 -39 105 -94.5t76 -126.5q62 -140 62 -411q0 -139 -14.5 -249.5t-46.5 -194.5q-30 -85 -76 -148t-106 -107q-60 -42 -132.5 -65t-151.5 -23q-173 0 -284 96q-108 95 -134 282l190 18q21 -122 80 -176t152 -54 q80 0 139 36t97 96q39 59 64 167q27 106 27 215v5q-53 -71 -132 -117q-94 -53 -204 -53q-183 0 -311 133q-127 133 -127 350zM284 967q0 -134 80 -217t199 -83q121 0 195 83q77 83 77 232q0 150 -79 236q-78 87 -188 87q-114 0 -199 -94t-85 -244z" />
<glyph unicode=":" horiz-adv-x="569" d="M185 0v205h205v-205h-205zM185 857v205h205v-205h-205z" />
<glyph unicode=";" horiz-adv-x="569" d="M170 -213q57 25 84 73.5t30 139.5h-102v205h205v-205q0 -113 -40 -182.5t-127 -107.5zM182 857v205h205v-205h-205z" />
<glyph unicode="&#x3c;" horiz-adv-x="1196" d="M112 641v168l971 410v-179l-770 -316l770 -319v-179z" />
<glyph unicode="=" horiz-adv-x="1196" d="M114 417v168h968v-168h-968zM114 862v168h968v-168h-968z" />
<glyph unicode="&#x3e;" horiz-adv-x="1196" d="M112 226v179l769 319l-769 316v179l971 -410v-168z" />
<glyph unicode="?" d="M90 1068q25 205 148.5 314t326.5 109q215 0 343 -117t128 -283q0 -96 -45 -177t-176 -197q-88 -78 -115 -115t-40 -85t-15 -156h-173q-1 36 -1 54q0 106 30 183q22 58 71 117q36 43 129.5 125.5t121.5 131.5t28 107q0 105 -82 184.5t-201 79.5q-115 0 -192 -72t-101 -225 zM461 0v205h205v-205h-205z" />
<glyph unicode="@" horiz-adv-x="2079" d="M111 469q0 244 100 465q122 271 346.5 415t544.5 144q248 0 445.5 -101.5t311.5 -302.5q97 -173 97 -376q0 -290 -204 -515q-182 -202 -398 -202q-69 0 -111.5 21t-62.5 60q-13 25 -19 86q-65 -75 -145.5 -120.5t-161.5 -45.5q-89 0 -173 52t-136.5 160t-52.5 237 q0 159 81.5 318.5t202.5 239.5t235 80q87 0 166 -45.5t136 -138.5l34 155h179l-144 -671q-30 -140 -30 -155q0 -27 20.5 -46.5t49.5 -19.5q53 0 139 61q114 80 180.5 214.5t66.5 277.5q0 167 -85.5 312t-255 232t-374.5 87q-234 0 -427.5 -109.5t-300 -314t-106.5 -438.5 q0 -245 106.5 -422t308 -261.5t446.5 -84.5q262 0 439 88t265 214h181q-51 -105 -175 -214t-295 -172.5t-412 -63.5q-222 0 -409.5 57t-319.5 171.5t-199 263.5q-84 189 -84 408zM677 434q0 -137 65 -213t149 -76q56 0 118 33.5t118.5 99.5t92.5 167.5t36 203.5 q0 136 -67.5 211t-164.5 75q-64 0 -120.5 -32.5t-109.5 -104.5t-85 -175t-32 -189z" />
<glyph unicode="A" horiz-adv-x="1366" d="M-3 0l563 1466h209l600 -1466h-221l-171 444h-613l-161 -444h-206zM420 602h497l-153 406q-70 185 -104 304q-28 -141 -79 -280z" />
<glyph unicode="B" horiz-adv-x="1366" d="M150 0v1466h550q168 0 269.5 -44.5t159 -137t57.5 -193.5q0 -94 -51 -177t-154 -134q133 -39 204.5 -133t71.5 -222q0 -103 -43.5 -191.5t-107.5 -136.5t-160.5 -72.5t-236.5 -24.5h-559zM344 173h365q94 0 132 7q67 12 112 40t74 81.5t29 123.5q0 82 -42 142.5 t-116.5 85t-214.5 24.5h-339v-504zM344 850h317q129 0 185 17q74 22 111.5 73t37.5 128q0 73 -35 128.5t-100 76t-223 20.5h-293v-443z" />
<glyph unicode="C" horiz-adv-x="1479" d="M102 744q0 229 87.5 399.5t249 259t355.5 88.5q220 0 370 -112t209 -315l-191 -45q-51 160 -148 233t-244 73q-169 0 -282.5 -81t-159.5 -217.5t-46 -281.5q0 -187 54.5 -326.5t169.5 -208.5t249 -69q163 0 276 94t153 279l194 -49q-61 -239 -219.5 -364.5t-387.5 -125.5 q-237 0 -385.5 96.5t-226 279.5t-77.5 393z" />
<glyph unicode="D" horiz-adv-x="1479" d="M158 0v1466h505q171 0 261 -21q126 -29 215 -105q116 -98 173.5 -250.5t57.5 -348.5q0 -167 -39 -296t-100 -213.5t-133.5 -133t-175 -73.5t-235.5 -25h-529zM352 173h313q145 0 227.5 27t131.5 76q69 69 107.5 185.5t38.5 282.5q0 230 -75.5 353.5t-183.5 165.5 q-78 30 -251 30h-308v-1120z" />
<glyph unicode="E" horiz-adv-x="1366" d="M162 0v1466h1060v-173h-866v-449h811v-172h-811v-499h900v-173h-1094z" />
<glyph unicode="F" horiz-adv-x="1251" d="M168 0v1466h989v-173h-795v-454h688v-173h-688v-666h-194z" />
<glyph unicode="G" horiz-adv-x="1593" d="M109 726q0 214 89.5 399.5t257.5 275.5t387 90q159 0 287.5 -51.5t201.5 -143.5t111 -240l-175 -48q-33 112 -82 176t-140 102.5t-202 38.5q-133 0 -230 -40.5t-156.5 -106.5t-92.5 -145q-56 -136 -56 -295q0 -196 67.5 -328t196.5 -196t274 -64q126 0 246 48.5 t182 103.5v273h-431v172l621 1v-544q-143 -114 -295 -171.5t-312 -57.5q-216 0 -392.5 92.5t-266.5 267.5t-90 391z" />
<glyph unicode="H" horiz-adv-x="1479" d="M161 0v1466h194v-602h762v602h194v-1466h-194v691h-762v-691h-194z" />
<glyph unicode="I" horiz-adv-x="569" d="M191 0v1466h194v-1466h-194z" />
<glyph unicode="J" horiz-adv-x="1024" d="M59 416l175 24q7 -168 63 -230t155 -62q73 0 126 33.5t73 91t20 183.5v1010h194v-999q0 -184 -44.5 -285t-141 -154t-226.5 -53q-193 0 -295 111q-99 107 -99 314v16z" />
<glyph unicode="K" horiz-adv-x="1366" d="M150 0v1466h194v-727l728 727h263l-615 -594l642 -872h-256l-522 742l-240 -234v-508h-194z" />
<glyph unicode="L" d="M150 0v1466h194v-1293h722v-173h-916z" />
<glyph unicode="M" horiz-adv-x="1706" d="M152 0v1466h292l347 -1038q48 -145 70 -217q25 80 78 235l351 1020h261v-1466h-187v1227l-426 -1227h-175l-424 1248v-1248h-187z" />
<glyph unicode="N" horiz-adv-x="1479" d="M156 0v1466h199l770 -1151v1151h186v-1466h-199l-770 1152v-1152h-186z" />
<glyph unicode="O" horiz-adv-x="1593" d="M99 714q0 365 196 571.5t506 206.5q203 0 366 -97t248.5 -270.5t85.5 -393.5q0 -223 -90 -399t-255 -266.5t-356 -90.5q-207 0 -370 100t-247 273t-84 366zM299 711q0 -265 142.5 -417.5t357.5 -152.5q219 0 360.5 154t141.5 437q0 179 -60.5 312.5t-177 207t-261.5 73.5 q-206 0 -354.5 -141.5t-148.5 -472.5z" />
<glyph unicode="P" horiz-adv-x="1366" d="M158 0v1466h553q146 0 223 -14q108 -18 181 -68.5t117.5 -141.5t44.5 -200q0 -187 -119 -316.5t-430 -129.5h-376v-596h-194zM352 769h379q188 0 267 70t79 197q0 92 -46.5 157.5t-122.5 86.5q-49 13 -181 13h-375v-524z" />
<glyph unicode="Q" horiz-adv-x="1593" d="M88 733q0 217 88 395t250.5 271t363.5 93q203 0 366 -96.5t248.5 -270t85.5 -391.5q0 -181 -55 -325.5t-166 -251.5q135 -93 249 -136l-57 -135q-158 57 -315 180q-163 -91 -360 -91q-199 0 -361 96t-249.5 270t-87.5 392zM288 733q0 -286 141.5 -439t361.5 -153 q104 0 196 39q-91 59 -192 84l47 141q168 -47 277 -140q171 156 171 469q0 178 -60.5 311t-177 206.5t-261.5 73.5q-217 0 -360 -148.5t-143 -443.5z" />
<glyph unicode="R" horiz-adv-x="1479" d="M161 0v1466h650q196 0 298 -39.5t163 -139.5t61 -221q0 -156 -101 -263t-312 -136q77 -37 117 -73q85 -78 161 -195l255 -399h-244l-194 305q-85 132 -140 202t-98.5 98t-88.5 39q-33 7 -108 7h-225v-651h-194zM355 819h417q133 0 208 27.5t114 88t39 131.5 q0 104 -75.5 171t-238.5 67h-464v-485z" />
<glyph unicode="S" horiz-adv-x="1366" d="M92 471l183 16q13 -110 60.5 -180.5t147.5 -114t225 -43.5q111 0 196 33t126.5 90.5t41.5 125.5q0 69 -40 120.5t-132 86.5q-59 23 -261 71.5t-283 91.5q-105 55 -156.5 136.5t-51.5 182.5q0 111 63 207.5t184 146.5t269 50q163 0 287.5 -52.5t191.5 -154.5t72 -231 l-186 -14q-15 139 -101.5 210t-255.5 71q-176 0 -256.5 -64.5t-80.5 -155.5q0 -79 57 -130q56 -51 292.5 -104.5t324.5 -93.5q128 -59 189 -149.5t61 -208.5q0 -117 -67 -220.5t-192.5 -161t-282.5 -57.5q-199 0 -333.5 58t-211 174.5t-80.5 263.5z" />
<glyph unicode="T" horiz-adv-x="1251" d="M48 1293v173h1162v-173h-485v-1293h-194v1293h-483z" />
<glyph unicode="U" horiz-adv-x="1479" d="M161 619v847h194v-846q0 -191 35.5 -281.5t122 -139.5t211.5 -49q214 0 305 97t91 373v846h194v-847q0 -221 -50 -351t-180.5 -211.5t-342.5 -81.5q-206 0 -337 71t-187 205.5t-56 367.5z" />
<glyph unicode="V" horiz-adv-x="1366" d="M9 1466h210l381 -1065q46 -128 77 -240q34 120 79 240l396 1065h198l-574 -1466h-199z" />
<glyph unicode="W" horiz-adv-x="1933" d="M25 1466h199l223 -961q36 -151 62 -300q56 235 66 271l279 990h234l210 -742q79 -276 114 -519q28 139 73 319l230 942h195l-402 -1466h-187l-309 1117q-39 140 -46 172q-23 -101 -43 -172l-311 -1117h-198z" />
<glyph unicode="X" horiz-adv-x="1366" d="M9 0l567 764l-500 702h231l266 -376q83 -117 118 -180q49 80 116 167l295 389h211l-515 -691l555 -775h-240l-369 523q-31 45 -64 98q-49 -80 -70 -110l-368 -511h-233z" />
<glyph unicode="Y" horiz-adv-x="1366" d="M6 1466h236l289 -442q80 -124 149 -248q66 115 160 259l284 431h226l-585 -845v-621h-194v621z" />
<glyph unicode="Z" horiz-adv-x="1251" d="M41 0v180l751 939q80 100 152 174h-818v173h1050v-173l-823 -1017l-89 -103h936v-173h-1159z" />
<glyph unicode="[" horiz-adv-x="569" d="M139 -407v1873h397v-149h-217v-1575h217v-149h-397z" />
<glyph unicode="\" horiz-adv-x="569" d="M0 1491h145l424 -1516h-144z" />
<glyph unicode="]" horiz-adv-x="569" d="M39 -258h217v1575h-217v149h397v-1873h-397v149z" />
<glyph unicode="^" horiz-adv-x="961" d="M54 690l353 801h145l355 -801h-181l-247 597l-240 -597h-185z" />
<glyph unicode="_" d="M-31 -277h1193v-130h-1193v130z" />
<glyph unicode="`" horiz-adv-x="682" d="M89 1474h241l135 -280h-145z" />
<glyph unicode="a" d="M74 280q0 78 35.5 142.5t93 103.5t129.5 59q53 14 160 27q218 26 321 62q1 37 1 47q0 110 -51 155q-69 61 -205 61q-127 0 -187.5 -44.5t-89.5 -157.5l-176 24q24 113 79 182.5t159 107t241 37.5q136 0 221 -32t125 -80.5t56 -122.5q9 -46 9 -166v-240 q0 -251 11.5 -317.5t45.5 -127.5h-188q-28 56 -36 131q-100 -85 -192.5 -120t-198.5 -35q-175 0 -269 85.5t-94 218.5zM266 285q0 -72 54.5 -120t159.5 -48q104 0 185 45.5t119 124.5q29 61 29 180v66q-98 -40 -294 -68q-111 -16 -157 -36t-71 -58.5t-25 -85.5z" />
<glyph unicode="b" d="M134 0v1466h180v-523q114 143 291 143q98 0 185.5 -39.5t144 -111t88.5 -172.5t32 -216q0 -273 -135 -422t-324 -149q-188 0 -295 157v-133h-167zM299 539q0 -191 52 -276q85 -139 230 -139q118 0 204 102.5t86 305.5q0 208 -82.5 307t-199.5 99q-118 0 -204 -102.5 t-86 -296.5z" />
<glyph unicode="c" horiz-adv-x="1024" d="M80 527q0 172 57 301t173.5 193.5t253.5 64.5q173 0 283 -87.5t141 -248.5l-175 -27q-25 107 -88.5 161t-153.5 54q-136 0 -221 -97.5t-85 -308.5q0 -214 82 -311t214 -97q106 0 177 65t90 200l177 -23q-29 -183 -148.5 -286.5t-293.5 -103.5q-218 0 -350.5 142.5 t-132.5 408.5z" />
<glyph unicode="d" d="M70 530q0 159 53 288.5t159 198.5t237 69q96 0 171 -40.5t122 -105.5v526h179v-1466h-167v134q-101 -158 -297 -158q-127 0 -233.5 70t-165 195.5t-58.5 288.5zM255 530q0 -204 86 -305t203 -101q118 0 200.5 96.5t82.5 294.5q0 218 -84 320t-207 102q-120 0 -200.5 -98 t-80.5 -309z" />
<glyph unicode="e" d="M75 522q0 268 138 416t358 148q213 0 348 -145t135 -408q0 -16 -1 -48h-792q10 -175 99 -268t222 -93q99 0 169 52t111 166l186 -23q-44 -163 -163 -253t-304 -90q-233 0 -369.5 143.5t-136.5 402.5zM271 633h593q-12 134 -68 201q-86 104 -223 104q-124 0 -208.5 -83 t-93.5 -222z" />
<glyph unicode="f" horiz-adv-x="569" d="M19 922v140h159v113q0 107 19 159q26 70 91.5 113.5t183.5 43.5q76 0 168 -18l-27 -157q-56 10 -106 10q-82 0 -116 -35t-34 -131v-98h207v-140h-207v-922h-179v922h-159z" />
<glyph unicode="g" d="M66 537q0 152 55 280.5t159.5 198.5t245.5 70q188 0 310 -152v128h166v-918q0 -248 -50.5 -351.5t-160 -163.5t-269.5 -60q-190 0 -307 85q-113 83 -113 247v11l175 -26q11 -81 61 -118q67 -50 183 -50q125 0 193 50t92 140q13 51 13 208v23q-118 -139 -294 -139 q-219 0 -339 158t-120 379zM251 550q0 -209 83 -305t208 -96q124 0 208 95.5t84 299.5q0 195 -86.5 294t-208.5 99q-120 0 -204 -97.5t-84 -289.5z" />
<glyph unicode="h" d="M135 0v1466h180v-526q126 146 318 146q118 0 205 -46.5t124.5 -128.5t37.5 -238v-673h-180v673q0 135 -58.5 196.5t-165.5 61.5q-80 0 -150.5 -41.5t-100.5 -112.5t-30 -196v-581h-180z" />
<glyph unicode="i" horiz-adv-x="455" d="M136 0v1062h180v-1062h-180zM136 1259v207h180v-207h-180z" />
<glyph unicode="j" horiz-adv-x="455" d="M-94 -412l34 153q54 -14 85 -14q55 0 82 36.5t27 182.5v1116h180v-1120q0 -196 -51 -273q-65 -100 -216 -100q-73 0 -141 19zM134 1257v209h180v-209h-180z" />
<glyph unicode="k" horiz-adv-x="1024" d="M136 0v1466h180v-836l426 432h233l-406 -394l447 -668h-222l-351 543l-127 -122v-421h-180z" />
<glyph unicode="l" horiz-adv-x="455" d="M131 0v1466h180v-1466h-180z" />
<glyph unicode="m" horiz-adv-x="1706" d="M135 0v1062h161v-149q50 78 133 125.5t189 47.5q118 0 193.5 -49t106.5 -137q126 186 328 186q158 0 243 -87.5t85 -269.5v-729h-179v669q0 108 -17.5 155.5t-63.5 76.5t-108 29q-112 0 -186 -74.5t-74 -238.5v-617h-180v690q0 120 -44 180t-144 60q-76 0 -140.5 -40 t-93.5 -117t-29 -222v-551h-180z" />
<glyph unicode="n" d="M135 0v1062h162v-151q117 175 338 175q96 0 176.5 -34.5t120.5 -90.5t56 -133q10 -50 10 -175v-653h-180v646q0 110 -21 164.5t-74.5 87t-125.5 32.5q-115 0 -198.5 -73t-83.5 -277v-580h-180z" />
<glyph unicode="o" d="M68 531q0 295 164 437q137 118 334 118q219 0 358 -143.5t139 -396.5q0 -205 -61.5 -322.5t-179 -182.5t-256.5 -65q-223 0 -360.5 143t-137.5 412zM253 531q0 -204 89 -305.5t224 -101.5q134 0 223 102t89 311q0 197 -89.5 298.5t-222.5 101.5q-135 0 -224 -101 t-89 -305z" />
<glyph unicode="p" d="M135 -407v1469h164v-138q58 81 131 121.5t177 40.5q136 0 240 -70t157 -197.5t53 -279.5q0 -163 -58.5 -293.5t-170 -200t-234.5 -69.5q-90 0 -161.5 38t-117.5 96v-517h-180zM298 525q0 -205 83 -303t201 -98q120 0 205.5 101.5t85.5 314.5q0 203 -83.5 304t-199.5 101 q-115 0 -203.5 -107.5t-88.5 -312.5z" />
<glyph unicode="q" d="M72 541q0 160 55.5 287t161 192.5t231.5 65.5q197 0 310 -166v142h162v-1469h-180v520q-42 -59 -117.5 -98t-160.5 -39q-189 0 -325.5 151t-136.5 414zM257 534q0 -205 86 -307.5t206 -102.5q115 0 198 97.5t83 296.5q0 212 -87.5 319t-205.5 107q-117 0 -198.5 -99.5 t-81.5 -310.5z" />
<glyph unicode="r" horiz-adv-x="682" d="M133 0v1062h162v-161q62 113 114.5 149t115.5 36q91 0 185 -58l-62 -167q-66 39 -132 39q-59 0 -106 -35.5t-67 -98.5q-30 -96 -30 -210v-556h-180z" />
<glyph unicode="s" horiz-adv-x="1024" d="M63 317l178 28q15 -107 83.5 -164t191.5 -57q124 0 184 50.5t60 118.5q0 61 -53 96q-37 24 -184 61q-198 50 -274.5 86.5t-116 101t-39.5 142.5q0 71 32.5 131.5t88.5 100.5q42 31 114.5 52.5t155.5 21.5q125 0 219.5 -36t139.5 -97.5t62 -164.5l-176 -24 q-12 82 -69.5 128t-162.5 46q-124 0 -177 -41t-53 -96q0 -35 22 -63q22 -29 69 -48q27 -10 159 -46q191 -51 266.5 -83.5t118.5 -94.5t43 -154q0 -90 -52.5 -169.5t-151.5 -123t-224 -43.5q-207 0 -315.5 86t-138.5 255z" />
<glyph unicode="t" horiz-adv-x="569" d="M36 922v140h132v263l179 108v-371h181v-140h-181v-621q0 -77 9.5 -99t31 -35t61.5 -13q30 0 79 7l26 -159q-76 -16 -136 -16q-98 0 -152 31t-76 81.5t-22 212.5v611h-132z" />
<glyph unicode="u" d="M131 404v658h180v-589q0 -141 11 -190q17 -71 72 -111.5t136 -40.5t152 41.5t100.5 113t29.5 207.5v569h180v-1062h-161v156q-124 -180 -337 -180q-94 0 -175.5 36t-121 90.5t-55.5 133.5q-11 53 -11 168z" />
<glyph unicode="v" horiz-adv-x="1024" d="M26 1062h190l228 -636q37 -103 68 -214q24 84 67 202l236 648h185l-402 -1062h-168z" />
<glyph unicode="w" horiz-adv-x="1479" d="M6 1062h186l169 -613l63 -228q4 17 55 219l169 622h185l159 -616l53 -203l61 205l182 614h175l-332 -1062h-187l-169 636l-41 181l-215 -817h-188z" />
<glyph unicode="x" horiz-adv-x="1024" d="M15 0l388 552l-359 510h225l163 -249q46 -71 74 -119q44 66 81 117l179 251h215l-367 -500l395 -562h-221l-218 330l-58 89l-279 -419h-218z" />
<glyph unicode="y" horiz-adv-x="1024" d="M33 1062h194l221 -615q43 -117 77 -246q31 124 74 242l227 619h180l-404 -1080q-65 -175 -101 -241q-48 -89 -110 -130.5t-148 -41.5q-52 0 -116 22l-20 169q59 -16 103 -16q60 0 96 20t59 56q17 27 55 134q5 15 16 44z" />
<glyph unicode="z" horiz-adv-x="1024" d="M40 0v146l676 776q-115 -6 -203 -6h-433v146h868v-119l-575 -674l-111 -123q121 9 227 9h491v-155h-940z" />
<glyph unicode="{" horiz-adv-x="684" d="M57 449v163q77 2 125.5 41.5t64.5 108.5t17 236t6 220q9 84 33.5 135t60.5 81.5t92 46.5q38 10 124 10h56v-157h-31q-104 0 -138 -37.5t-34 -167.5q0 -262 -11 -331q-18 -107 -61.5 -165t-136.5 -103q110 -46 159.5 -140.5t49.5 -309.5q0 -195 4 -232q8 -68 40.5 -95 t127.5 -27h31v-157h-56q-98 0 -142 16q-64 23 -106 74.5t-54.5 130.5t-13.5 259t-17 249t-64.5 109t-125.5 42z" />
<glyph unicode="|" horiz-adv-x="532" d="M188 -431v1922h157v-1922h-157z" />
<glyph unicode="}" horiz-adv-x="684" d="M47 -274h31q104 0 138 37.5t34 168.5q0 250 9 317q16 111 64 177.5t136 103.5q-115 55 -162 145.5t-47 305.5q0 195 -5 233q-7 67 -39.5 93.5t-127.5 26.5h-31v157h56q98 0 142 -16q64 -22 106 -74t54.5 -131t13.5 -259t17 -248.5t64.5 -108.5t125.5 -42v-163 q-77 -2 -125.5 -42t-64.5 -108.5t-17 -235.5t-6 -220q-9 -85 -33.5 -135.5t-60.5 -81t-92 -46.5q-38 -11 -124 -11h-56v157z" />
<glyph unicode="~" horiz-adv-x="1196" d="M87 557v205q106 120 278 120q60 0 126 -17.5t188 -69.5q69 -29 103.5 -38t69.5 -9q65 0 134.5 39t123.5 98v-212q-64 -60 -129.5 -87t-147.5 -27q-60 0 -114.5 14t-173 67t-197.5 53q-64 0 -120.5 -27.5t-140.5 -108.5z" />
<glyph unicode="&#xa4;" d="M74 354l139 136q-71 110 -71 236q0 125 71 235l-139 136l115 119l139 -139q106 72 237 72q132 0 237 -72l139 139l116 -119l-139 -136q71 -110 71 -235q0 -126 -71 -236l139 -136l-116 -119l-139 140q-105 -73 -237 -73q-131 0 -237 73l-139 -140zM305 726 q0 -108 76 -184t183 -76t183 76t76 184q0 107 -75.5 183t-183.5 76q-107 0 -183 -76t-76 -183z" />
<glyph unicode="&#xa6;" horiz-adv-x="532" d="M188 360h157v-791h-157v791zM188 701v790h157v-790h-157z" />
<glyph unicode="&#xa7;" d="M81 644q0 96 60 174t165 109q-71 68 -100 125.5t-29 122.5q0 128 100 222t265 94q187 0 292 -89t126 -258l-187 -19q-21 122 -73.5 170t-141.5 48q-92 0 -148.5 -49.5t-56.5 -109.5q0 -52 36 -96q56 -68 306 -220q157 -96 212 -141q71 -60 104.5 -124t33.5 -139 q0 -113 -73 -193q-42 -46 -154 -93q80 -61 119.5 -131t39.5 -150q0 -88 -50 -166.5t-144 -120t-203 -41.5q-191 0 -303 95.5t-134 265.5l181 26q28 -130 89 -182.5t166 -52.5q102 0 159.5 52t57.5 122q0 51 -36 94q-62 75 -340 245q-148 91 -206.5 142.5t-95.5 121.5 t-37 146zM244 664q0 -63 46 -120t207 -152q134 -79 231 -148q74 38 110.5 88.5t36.5 98.5q0 57 -52 120q-53 63 -225 169q-137 84 -204 138q-81 -46 -115.5 -92t-34.5 -102z" />
<glyph unicode="&#xa9;" horiz-adv-x="1509" d="M3 736q0 197 101.5 378.5t282.5 279t371 97.5t371 -97.5t282 -279t101 -378.5q0 -195 -99.5 -375t-279 -279.5t-375.5 -99.5t-375.5 99.5t-279.5 279.5t-100 375zM128 736q0 -163 83.5 -312.5t233.5 -233t313 -83.5t313 83.5t233 233t83 312.5q0 164 -84.5 315.5 t-235.5 233t-309 81.5q-159 0 -309.5 -81.5t-235.5 -233t-85 -315.5zM363 734q0 132 50 229.5t142.5 147t211.5 49.5q133 0 221 -63.5t120 -172.5l-119 -29q-30 74 -88.5 113.5t-137.5 39.5q-115 0 -189.5 -82t-74.5 -235t70.5 -231.5t182.5 -78.5q90 0 158 52t90 141 l123 -36q-30 -125 -127.5 -199.5t-236.5 -74.5q-176 0 -286 114t-110 316z" />
<glyph unicode="&#xab;" d="M134 528l319 456h148l-261 -456l259 -456h-146zM526 528l313 456h152l-264 -456l264 -456h-152z" />
<glyph unicode="&#xac;" horiz-adv-x="1196" d="M114 862v168h968v-606h-170v438h-798z" />
<glyph unicode="&#xad;" horiz-adv-x="682" d="M65 440v181h553v-181h-553z" />
<glyph unicode="&#xae;" horiz-adv-x="1509" d="M3 736q0 197 101.5 378.5t282.5 279t371 97.5t371 -97.5t282 -279t101 -378.5q0 -195 -99.5 -375t-279 -279.5t-375.5 -99.5t-375.5 99.5t-279.5 279.5t-100 375zM128 736q0 -163 83.5 -312.5t233.5 -233t313 -83.5t313 83.5t233 233t83 312.5q0 164 -84.5 315.5 t-235.5 233t-309 81.5q-159 0 -309.5 -81.5t-235.5 -233t-85 -315.5zM427 319v812h279q143 0 207 -22.5t102 -78.5t38 -119q0 -89 -63.5 -155t-168.5 -74q43 -18 69 -43q49 -48 120 -161l99 -159h-160l-72 128q-85 151 -137 189q-36 28 -105 28h-77v-345h-131zM558 776h159 q114 0 155.5 34t41.5 90q0 36 -20 64.5t-55.5 42.5t-131.5 14h-149v-245z" />
<glyph unicode="&#xaf;" horiz-adv-x="1131" d="M-31 1566v129h1193v-129h-1193z" />
<glyph unicode="&#xb0;" horiz-adv-x="819" d="M128 1214q0 115 81.5 196t195.5 81q116 0 197 -81t81 -196t-81.5 -196.5t-196.5 -81.5q-114 0 -195.5 81t-81.5 197zM237 1214q0 -70 49.5 -119.5t119.5 -49.5q69 0 118.5 49.5t49.5 119.5t-49.5 119.5t-118.5 49.5q-70 0 -119.5 -49.5t-49.5 -119.5z" />
<glyph unicode="&#xb1;" horiz-adv-x="1124" d="M78 0v168h968v-168h-968zM78 663v167h399v399h170v-399h399v-167h-399v-403h-170v403h-399z" />
<glyph unicode="&#xb4;" horiz-adv-x="682" d="M222 1194l133 280h236l-220 -280h-149z" />
<glyph unicode="&#xb6;" horiz-adv-x="1100" d="M1 1044q0 193 120.5 307.5t352.5 114.5h633v-173h-144v-1700h-170v1700h-223v-1700h-165v1045q-187 10 -295.5 121.5t-108.5 284.5z" />
<glyph unicode="&#xb7;" horiz-adv-x="682" d="M497 637v205h205v-205h-205z" />
<glyph unicode="&#xba;" horiz-adv-x="748" d="M45 1111q0 180 91.5 280t236.5 100t236.5 -100t91.5 -276q0 -175 -92 -275t-235 -100q-145 0 -237 98t-92 273zM193 1115q0 -126 50.5 -184.5t129.5 -58.5q80 0 130 58.5t50 189.5q0 122 -50.5 180t-129.5 58q-81 0 -130.5 -57t-49.5 -186z" />
<glyph unicode="&#xbb;" d="M140 72l264 456l-264 456h151l314 -456l-314 -456h-151zM530 984h148l319 -456l-319 -456h-147l260 456z" />
<glyph unicode="&#x2da;" horiz-adv-x="682" d="M162 1338q0 73 53.5 126t126.5 53q74 0 127 -53.5t53 -129.5q0 -77 -53 -130t-126 -53q-75 0 -128 53.5t-53 133.5zM238 1337q0 -47 31.5 -79t74.5 -32t74.5 32t31.5 77t-31 77t-75 32q-43 0 -74.5 -31.5t-31.5 -75.5z" />
<glyph unicode="&#x2dc;" horiz-adv-x="682" d="M7 1219q-1 104 57 166q57 62 146 62q62 0 169 -54q59 -30 94 -30q32 0 49 17.5t24 69.5h130q-3 -114 -57.5 -171t-138.5 -57q-63 0 -166 56q-67 36 -98 36q-34 0 -55 -24q-22 -24 -21 -71h-133z" />
<glyph unicode="&#x10d0;" horiz-adv-x="1103" d="M70 573l203 -44q4 -77 27 -143t59.5 -114.5t85 -76t102.5 -27.5t103 28.5t87 76t62 109t29 128.5q-8 110 -54 181t-116 112t-156.5 57t-174.5 16l17 183q75 0 154 -9t154.5 -31.5t142.5 -61.5t118.5 -99t83 -144t35.5 -196q0 -92 -20.5 -167.5t-56 -135.5t-83.5 -104.5 t-102.5 -73.5t-113 -43.5t-115.5 -14.5q-75 0 -142.5 21.5t-124 61.5t-100 97.5t-70.5 129.5v-1q-34 89 -34 285z" />
<glyph unicode="&#x10d1;" horiz-adv-x="1102" d="M70 501q0 122 35 218.5t95 165t139.5 107.5t168.5 47q1 54 -14.5 92t-42.5 63.5t-64 40t-79 21.5t-87 9t-89 2v190q74 0 143.5 -6t131 -23.5t114.5 -48.5t94 -80.5t69 -120t41 -167.5q67 -28 123 -74.5t97 -109.5t64 -141t23 -168q0 -94 -19 -170.5t-52 -136.5 t-78.5 -104t-97.5 -72.5t-109.5 -42t-114.5 -13.5q-99 0 -188 37t-156.5 105t-107 164.5t-39.5 215.5zM274 507q0 -72 23.5 -134t64 -107.5t93.5 -71.5t112 -26q58 0 106 26t82.5 72.5t53.5 110t19 137.5q0 54 -15 113t-48 109t-85 82.5t-127 32.5q-72 0 -124.5 -30.5 t-87 -79t-51 -110t-16.5 -124.5z" />
<glyph unicode="&#x10d2;" horiz-adv-x="1102" d="M70 129q0 131 40 227.5t107 159.5t155 94t183 31q25 0 46 -1t40.5 -5t39 -12.5t41.5 -23.5q19 58 6.5 108.5t-46 88t-83.5 58.5t-105 21q-41 0 -79.5 -13t-71.5 -38.5t-58 -62t-38 -82.5l-159 73q80 128 181.5 204.5t227.5 78.5q121 1 206 -32t137 -95.5t71.5 -152.5 t9.5 -202q-2 -17 -2 -35t-2 -34q27 -32 48 -71t36 -83.5t23 -91.5t8 -93q0 -94 -20.5 -170.5t-56 -136t-83 -103.5t-102 -72.5t-113.5 -42t-116 -13.5q-99 0 -185 37.5t-149.5 105.5t-100 164.5t-36.5 214.5zM274 135q0 -72 21 -134t57.5 -107.5t86.5 -71.5t108 -26 t109.5 26t89.5 72.5t60 109.5t22 137q0 52 -15 107.5t-48 101t-85 74.5t-127 29q-72 0 -124.5 -26t-87 -70t-51 -101.5t-16.5 -120.5z" />
<glyph unicode="&#x10d3;" horiz-adv-x="1572" d="M70 302v205q0 87 25.5 160t68 132t98 103.5t115.5 74.5t121 45t114 15q55 0 101.5 -15t91.5 -37q24 10 52.5 20t57 18t56.5 12.5t52 4.5q107 0 195 -38t151 -107t98 -165t35 -212q0 -94 -20.5 -170.5t-56 -136.5t-83.5 -104t-102.5 -72.5t-112.5 -42t-115 -13.5 q-101 0 -187 37t-150 105t-100 164.5t-36 215.5q0 118 24 202.5t77 149.5q-2 0 -7.5 3.5t-12.5 7.5t-12.5 7.5t-7.5 3.5q-53 5 -98 -9.5t-81 -42.5t-63.5 -66t-45.5 -80.5t-27.5 -86.5t-9.5 -83v-199q0 -66 25 -129t69 -120t103.5 -105.5t128.5 -83.5t144 -54.5t150 -19.5 h58q11 0 21 -0.5t19 -0.5h63q11 0 21 -0.5t20 -0.5h51t45 -1v-187h-304q-94 0 -191.5 24t-188.5 68.5t-171 107.5t-139.5 140t-94 167t-34.5 189zM742 507q0 -72 21.5 -134t58.5 -107.5t87 -71.5t107 -26q58 0 109 26t89 72.5t60 110t22 137.5q0 54 -14.5 113t-47.5 109 t-85 82.5t-127 32.5q-72 0 -125 -30.5t-87.5 -79t-51 -110t-16.5 -124.5z" />
<glyph unicode="&#x10d4;" horiz-adv-x="1056" d="M70 188h210q0 -84 17.5 -156.5t50 -125t79 -82.5t104.5 -30t104.5 26t79 72.5t49.5 110t17 137.5v374q0 54 -5 113t-26 109t-62.5 82.5t-114.5 32.5q-53 0 -92.5 -19t-65.5 -51.5t-39 -76.5t-13 -94q0 -17 1.5 -44.5t12.5 -60.5l-160 -65q-12 30 -22.5 61.5t-18 61.5 t-11.5 56.5t-4 46.5q1 85 35.5 154t92 118t132 75.5t154.5 26.5q108 0 185.5 -38t128 -107t74 -165t23.5 -212v-375q0 -141 -40 -242.5t-105 -167t-147.5 -96.5t-168.5 -31q-99 0 -182.5 41.5t-144 117.5t-94.5 183.5t-34 239.5z" />
<glyph unicode="&#x10d5;" horiz-adv-x="1119" d="M70 97l195 23q22 -78 47 -132.5t51 -90.5t53 -56.5t53.5 -30.5t52.5 -12.5t51 -2.5q58 0 108 13t86 46t56.5 89.5t20.5 143.5q1 3 -1 14t-7.5 25t-14.5 29.5t-23 29.5q-33 -27 -61 -45.5t-56 -30t-59 -17.5t-70 -9l-46 179q72 11 134 30.5t107 54t71 88t26 133.5 q0 45 -16 92t-49.5 87.5t-85 68.5t-121.5 35q-38 -5 -82.5 -17.5t-83 -38.5t-64.5 -69t-26 -109q0 -9 0.5 -19.5t3.5 -23.5t9 -30t18 -40l-174 -74q-17 22 -28.5 49.5t-19.5 55t-11.5 51t-3.5 36.5q0 91 32 168t92 132.5t145.5 86.5t192.5 31q106 0 194 -28.5t151 -87 t97.5 -146.5t34.5 -206q-3 -31 -8 -61.5t-14.5 -62t-26 -64t-41.5 -66.5q24 -20 41 -52.5t28 -66t16 -61t5 -37.5q0 -131 -42.5 -224.5t-112 -153.5t-157.5 -88.5t-179 -28.5q-29 0 -70 3.5t-86.5 18t-94 45.5t-93 85.5t-82 137t-62.5 201.5z" />
<glyph unicode="&#x10d6;" horiz-adv-x="1113" d="M30 1039q0 103 34 181t92 130.5t134.5 79t160.5 26.5q109 0 190 -35t135 -97t81 -148t27 -189v-66q44 -43 74.5 -94t49 -104t27 -106t8.5 -99q0 -141 -44.5 -243t-115 -168t-157.5 -97t-172 -31q-100 0 -187.5 37.5t-152 106t-101 165.5t-35.5 216q0 32 4.5 67t12 68 t16.5 62.5t17 52.5q-21 29 -39 59.5t-31 64.5t-20.5 73.5t-7.5 87.5zM218 1056q0 -13 2 -30t5 -35.5t7.5 -35.5t10.5 -30q39 37 78.5 59t80 34t82.5 15.5t85 3.5h10q13 0 30.5 -1.5t35 -3.5t34 -4.5t29.5 -4.5q-5 38 -22.5 81t-49.5 79t-78.5 60t-107.5 24q-64 0 -108 -19.5 t-71.5 -50t-40 -68t-12.5 -73.5zM285 507q0 -72 21 -134t57.5 -107.5t86.5 -71.5t108 -26t109.5 26t89.5 72.5t60 110t22 137.5q0 54 -15 113t-48 109t-85 82.5t-127 32.5q-72 0 -125 -30.5t-87 -79t-50.5 -110t-16.5 -124.5z" />
<glyph unicode="&#x10d7;" horiz-adv-x="1616" d="M70 501q0 130 40 230.5t107.5 169t155 104t182.5 35.5q29 0 68 -4t79.5 -14t76.5 -28.5t59 -46.5q22 26 50.5 43.5t59 28t61 15.5t56.5 6q107 0 195.5 -38t152 -107t98.5 -165t35 -212q0 -85 -20.5 -158t-55 -132.5t-80.5 -106t-97 -78t-103.5 -48t-100.5 -16.5l15 189 q55 0 98.5 26t74 72.5t47 110t16.5 137.5q0 56 -15.5 115.5t-50 108.5t-89 81t-133.5 33q-29 0 -47 -3t-29.5 -7.5t-18 -9t-10.5 -5.5q25 -32 41.5 -64.5t26 -69t13.5 -79.5t4 -96q0 -94 -20.5 -170.5t-56 -136.5t-83 -104t-102 -72.5t-113 -42t-115.5 -13.5 q-99 0 -185.5 37t-150 105t-100 164.5t-36.5 215.5zM275 507q0 -72 21 -134t57.5 -107.5t86 -71.5t107.5 -26q59 0 110 26t89 72.5t60 110t22 137.5q0 54 -15 113t-48 109t-85 82.5t-127 32.5q-72 0 -124 -30.5t-86.5 -79t-51 -110t-16.5 -124.5z" />
<glyph unicode="&#x10d8;" horiz-adv-x="1102" d="M70 501q0 130 40 230.5t107 169t155 104t183 35.5q106 0 194 -38t151 -107t97.5 -165t34.5 -212q0 -99 -26 -180t-71 -144.5t-105 -110t-127 -77.5l-111 157q52 24 95 60.5t74.5 81.5t49 98t17.5 111q0 54 -15 113t-48 109t-85 82.5t-127 32.5q-72 0 -124.5 -30.5 t-87 -79t-51 -110t-16.5 -124.5q0 -109 46 -191t131 -142l-37 -181q-72 31 -135 82t-109.5 116.5t-73 144t-26.5 165.5z" />
<glyph unicode="&#x10d9;" horiz-adv-x="1102" d="M70 161l204 8q0 -85 21 -157.5t57.5 -126t86.5 -83.5t108 -30t109.5 26t89.5 72t60 109t22 137q0 37 -15 87t-52.5 95.5t-102 77t-162.5 31.5l2 197q60 -6 100.5 -11t70 -11t52 -13t45.5 -17q19 16 25 35t6 46q0 64 -37 109t-99.5 73.5t-144 41.5t-171.5 13l2 189 q76 0 154.5 -9t151.5 -29t137 -52.5t111.5 -79t75 -109t26.5 -143.5q-1 -70 -22.5 -118.5t-51.5 -75.5q35 -41 55.5 -86.5t31 -89.5t13.5 -82.5t3 -64.5q0 -141 -44.5 -242.5t-115 -167t-158 -97t-173.5 -31.5q-99 0 -185 41t-149.5 117t-100 182.5t-36.5 238.5z" />
<glyph unicode="&#x10da;" horiz-adv-x="1922" d="M70 504q0 130 29.5 230t84 168t132.5 103t174 35q54 0 107 -19.5t97 -39.5q21 9 41 19.5t39.5 19t39 14.5t39.5 6q30 0 67.5 -1.5t76 -8t75 -20t65.5 -38.5q23 13 52.5 25.5t61.5 22t64 15t60 5.5q106 0 194 -38t151 -107t97.5 -165t34.5 -212q0 -94 -22.5 -169.5 t-62 -134.5t-92 -101.5t-113 -70t-125.5 -40.5t-128 -13v185q70 0 132 25.5t108 70.5t72.5 107.5t26.5 136.5q0 36 -6 76.5t-19 80.5t-34 77t-51 65t-69 45t-89 17h-16.5h-31.5t-32 0.5t-19 0.5q-2 0 -3.5 0.5t-3.5 0.5q-15 1 -21 -4.5t-20 -5.5q39 -51 62 -113t35.5 -127.5 t16.5 -131.5t4 -125l-205 -7v36q0 8 0.5 15.5t0.5 14.5v29q0 7 0.5 13.5t0.5 14.5q0 114 -13.5 189t-48.5 119.5t-94.5 62.5t-152.5 18q18 -39 30.5 -89t20 -103t10.5 -106.5t3 -101.5v-105l-204 -7v73q0 3 0.5 6t0.5 6v79q0 2 0.5 4.5t0.5 4.5q0 76 -6.5 138.5t-28.5 107 t-64.5 69t-114.5 24.5q-68 0 -109 -34.5t-63 -88.5t-28.5 -119.5t-6.5 -128.5q0 -108 32.5 -202.5t89.5 -173.5t133.5 -140.5t165.5 -104t185 -65t191 -22.5h279v-190h-286q-97 0 -208.5 24.5t-222.5 74t-213.5 124t-181 174.5t-126 225t-48.5 276z" />
<glyph unicode="&#x10db;" horiz-adv-x="1112" d="M70 501q0 130 40 230.5t107 169t155 104t183 35.5q40 0 77.5 -13t71.5 -32.5t65 -44t59 -46.5q-1 83 -16 150t-48 114.5t-85 73t-126 25.5q-47 0 -88 -9t-74 -30t-57 -55t-36 -84l-196 34q12 68 37.5 119.5t60.5 88.5t78 61t89.5 38.5t94.5 20t93 5.5q106 0 194 -37.5 t150.5 -106t97 -164t34.5 -212.5v-413q0 -1 0.5 -2t0.5 -3q0 -94 -20.5 -170.5t-56 -136.5t-83 -104t-102 -72.5t-113.5 -42t-116 -13.5q-99 0 -185 37t-149.5 105t-100 164.5t-36.5 215.5zM274 507q0 -72 21 -134t57.5 -107.5t86.5 -71.5t108 -26t109.5 26t89.5 72.5 t60 110t22 137.5q0 54 -15 113t-48 109t-85 82.5t-127 32.5q-72 0 -124.5 -30.5t-87 -79t-51 -110t-16.5 -124.5z" />
<glyph unicode="&#x10dc;" horiz-adv-x="1112" d="M80 518v26q0 1 0.5 1.5t0.5 1.5v389q0 117 34.5 212.5t97 164t150 106t194.5 37.5h334v-189h-332q-74 0 -126 -20t-85 -65t-48 -118.5t-16 -179.5q28 22 59 49.5t65 51t71.5 39.5t77.5 16q95 0 183 -35.5t155 -104t107 -169t40 -230.5q0 -119 -36.5 -215.5t-100.5 -164.5 t-150 -105t-186 -37q-85 0 -172 31t-157.5 97t-115 168t-44.5 243zM284 514q0 -74 22 -137.5t60 -110t90 -72.5t111 -26q57 0 106.5 26t86 71.5t57.5 107.5t21 134q0 63 -16.5 124.5t-51 110t-87 79t-124.5 30.5q-75 0 -127 -32.5t-85 -82.5t-48 -109t-15 -113z" />
<glyph unicode="&#x10dd;" horiz-adv-x="1534" d="M70 501q0 130 38 230t100.5 168t143.5 104t167 37q39 -1 76 -10t69.5 -23.5t60.5 -33t51 -38.5q53 45 113 75.5t131 29.5q99 -1 181 -39t140.5 -106.5t90.5 -164.5t32 -212q0 -94 -22.5 -170t-61 -134.5t-90.5 -101t-111.5 -70t-124 -40.5t-126.5 -13l-8 179q71 0 133 26 t107.5 72.5t71.5 110t26 137.5q0 54 -9.5 113t-36 109t-72.5 82.5t-119 32.5q-51 0 -88.5 -10t-59.5 -25q25 -34 46 -67t36 -73t23.5 -90.5t8.5 -119.5l-160 -15q0 72 -15 142t-41 125q-27 -53 -47 -118t-20 -143l-157 -11q0 73 8.5 125t23 91.5t34 71t41.5 63.5l-1 -1 q2 4 4.5 8t3.5 7q2 4 1.5 2.5t2.5 3.5q-17 12 -53.5 22t-95.5 12q-70 1 -116.5 -29.5t-74 -79.5t-39 -110.5t-11.5 -124.5q0 -71 27 -131t73.5 -103.5t108.5 -67.5t131 -24v-192q-111 0 -210 35.5t-173.5 101.5t-118 161t-43.5 214z" />
<glyph unicode="&#x10de;" horiz-adv-x="1102" d="M70 565l204 14q0 -86 21 -159.5t57.5 -127t86.5 -83.5t108 -30t109.5 26t89.5 72.5t60 110t22 137.5q0 53 -16 108.5t-54.5 102.5t-102.5 80t-159 42l2 168q51 -5 91.5 -10t74.5 -14t62.5 -22.5t57.5 -35.5q3 10 6 26t5 32t3 29t1 17q-1 37 -13 76.5t-40.5 71t-76.5 52 t-121 20.5l-368 -2v191h370q109 0 191 -30.5t136.5 -84t81 -126.5t25.5 -158q-2 -42 -8.5 -72t-16 -53.5t-20.5 -42t-21 -37.5q36 -23 58 -67t34.5 -93t17 -94t4.5 -70q0 -141 -44.5 -243t-115 -168t-158 -97.5t-173.5 -31.5q-99 0 -185 40.5t-149.5 115.5t-100 181.5 t-36.5 238.5z" />
<glyph unicode="&#x10df;" horiz-adv-x="1412" d="M70 556l203 11q0 -86 17 -155t49.5 -117t78 -73.5t102.5 -25.5q58 0 109 22t89 63t60 100t22 133q0 54 -18.5 113t-58 109t-103 82.5t-153.5 32.5l2 186q99 0 183.5 -25t150.5 -70.5t111.5 -110.5t67.5 -145q72 40 115.5 123.5t43.5 194.5l1 59h200v-935 q0 -118 -37 -214.5t-101 -164.5t-151 -105.5t-186 -37.5h-384v204h380q58 0 108.5 24t88.5 67t60 102.5t22 130.5v434q-35 -35 -69 -53t-70 -29q-7 -131 -53.5 -222t-115.5 -148t-153 -83t-166 -26q-101 0 -183.5 36t-140.5 105.5t-89.5 172t-31.5 235.5z" />
<glyph unicode="&#x10e0;" horiz-adv-x="1534" d="M70 501q0 87 14 153.5t39.5 118.5t61 92t79.5 74q2 126 43 222.5t107.5 162t153.5 99.5t181 34q44 0 76.5 -1t63.5 -3.5t66.5 -6t86.5 -9.5l-37 -168l-258 9q-74 0 -125 -20.5t-82.5 -53.5t-45.5 -76t-13 -89q11 1 21.5 1h24.5q37 0 72 -9.5t66 -24.5t57.5 -33t48.5 -35 q46 41 106.5 71.5t137.5 30.5q107 0 190.5 -38t141 -107t87.5 -165t30 -212q0 -94 -22.5 -170t-61 -134.5t-90.5 -101t-111.5 -70t-124 -40.5t-126.5 -13l-8 179q71 0 133 26t107.5 72.5t71.5 110t26 137.5q0 54 -11 113t-39 109t-75.5 82.5t-119.5 32.5q-12 0 -30 -2 t-38 -6t-40 -9.5t-37 -11.5q27 -30 50.5 -61t40.5 -70t27 -88.5t10 -117.5l-160 -17q0 58 -4 98t-12 69.5t-20.5 52t-29.5 43.5q-15 -21 -25.5 -43t-17 -51.5t-10 -69.5t-3.5 -97l-167 -5q0 74 9.5 128t26 95t39 72.5t49.5 60.5q-17 7 -37 12.5t-40 9.5t-38 6t-31 2 q-54 1 -100 -25.5t-79 -73t-52 -110t-19 -135.5q0 -71 27 -131t73.5 -103.5t108.5 -67.5t131 -24v-192q-111 0 -210 35.5t-173.5 101.5t-118 161t-43.5 214z" />
<glyph unicode="&#x10e1;" horiz-adv-x="1117" d="M80 501v956h210v-950q0 -72 20.5 -134t57 -107.5t86 -71.5t107.5 -26t108.5 26t88 72.5t59.5 110t24 137.5q1 56 -10.5 110.5t-42.5 98.5t-83.5 73t-131.5 35l1 204q115 -6 203.5 -52.5t148.5 -118.5t90.5 -162t29.5 -184q1 -94 -19.5 -170.5t-56 -136.5t-83.5 -104 t-103 -72.5t-113.5 -42t-115.5 -13.5q-99 0 -186 37t-151 105t-101 164.5t-37 215.5z" />
<glyph unicode="&#x10e2;" horiz-adv-x="1330" d="M70 184v310q0 72 25.5 140.5t67.5 129t97 111.5t115 89t120 61t113 27l-46 296q-11 67 17.5 104.5t94.5 37.5q60 0 91.5 -36t21.5 -98l-48 -300q55 -7 115.5 -32t118.5 -64t110 -90.5t91.5 -111t62.5 -125.5t23 -133v-301q0 -93 -25 -173t-68.5 -146t-102 -117t-126 -86 t-140 -53t-143.5 -18q-124 0 -231 46.5t-185.5 125.5t-123.5 184t-45 222zM273 189q0 -74 25.5 -144.5t74.5 -126t121.5 -89.5t166.5 -34q91 0 164 34t124.5 90t79 128t27.5 148v301q0 28 -9.5 65t-28 77t-45.5 78.5t-62.5 69t-78.5 49t-93 18.5l44 -397q3 -29 -6.5 -57.5 t-26 -50.5t-38 -35.5t-41.5 -13.5q-18 0 -39 11.5t-38 32t-26.5 49.5t-5.5 64l46 397q-47 0 -90 -17t-80 -45.5t-67.5 -65.5t-52 -76t-33.5 -78t-12 -71v-311z" />
<glyph unicode="&#x10e3;" horiz-adv-x="1219" d="M70 863q31 59 69 97t82 60t92.5 30.5t101.5 8.5q55 0 94.5 -19t77.5 -49q38 33 87.5 50.5t106.5 17.5q99 0 168.5 -38t113.5 -106.5t64 -164.5t20 -213l2 -391q0 -94 -20.5 -170.5t-56 -136t-83 -103.5t-102 -72.5t-113 -42t-115.5 -13.5q-100 0 -186 41t-149.5 116 t-99.5 182t-36 239l203 10q0 -86 21 -159t58 -126.5t87 -83.5t108 -30t109 26t88.5 72t59.5 109.5t22 137.5l-2 391q0 54 -3.5 111t-20 105.5t-50.5 81.5t-95 39q-30 3 -53 -14t-40.5 -47.5t-30 -70.5t-20.5 -84t-12 -87.5t-6 -80.5l-206 29q6 58 16.5 112.5t23.5 101 t27.5 84t28.5 63.5q-17 7 -42.5 8.5t-45.5 1.5q-46 0 -76 -12t-51 -33t-35 -49.5t-29 -60.5z" />
<glyph unicode="&#x10e4;" horiz-adv-x="1606" d="M70 501q0 130 40 230.5t107 169t155 104t183 35.5q25 0 56.5 -4t64.5 -13t66 -23.5t60 -35.5q23 18 53.5 32t66 23t73.5 14t76 5q109 0 195 -33t146 -96t92 -155t32 -210q0 -10 -2 -32t-9.5 -52.5t-21.5 -67.5t-37 -76q38 -38 54 -83.5t16 -92.5q0 -107 -26.5 -188 t-71 -141t-102.5 -100t-121.5 -64.5t-128 -34.5t-121.5 -10q-91 0 -178 39.5t-172 116.5l134 155q57 -57 113 -90t109 -33q39 0 83 8.5t87 26.5t82.5 46.5t69.5 69t48 93t18 118.5v15t-2 22t-8 20.5t-19 11.5q-40 -39 -87.5 -81.5t-106.5 -70.5l-33 196q43 24 84 43.5 t73 46.5t51 68.5t19 109.5q0 35 -3.5 73.5t-13 75.5t-25.5 71.5t-41.5 60.5t-61.5 42.5t-85 18.5q-33 0 -57.5 -5t-43 -12.5t-31.5 -15t-22 -12.5q42 -54 64 -130t22 -182q0 -94 -20.5 -170.5t-56 -136.5t-83 -104t-102 -72.5t-113 -42t-115.5 -13.5q-99 0 -185.5 37 t-150 105t-100 164.5t-36.5 215.5zM275 507q0 -72 21 -134t57.5 -107.5t86 -71.5t107.5 -26t109.5 26t89.5 72.5t60 110t22 137.5q0 54 -15 113t-48 109t-85 82.5t-127 32.5q-72 0 -124 -30.5t-86.5 -79t-51 -110t-16.5 -124.5z" />
<glyph unicode="&#x10e5;" horiz-adv-x="1086" d="M70 202l205 -6q0 -87 17 -160.5t49.5 -127t79.5 -83.5t106 -30q57 0 106.5 26t85.5 71.5t56.5 107.5t20.5 134v441q-5 133 -65.5 204.5t-167.5 71.5q-70 0 -119.5 -22.5t-73.5 -66.5t-21.5 -111t37.5 -155l-198 -54q-37 93 -41.5 173.5t16 147t62 118t96 87t117.5 54 t127 18.5q36 0 68.5 -11t61 -27.5t54 -35.5t47.5 -35v526h210v-1329q0 -118 -37 -214.5t-101.5 -164.5t-151.5 -105.5t-187 -37.5q-85 0 -167.5 34.5t-147 107t-104.5 185.5t-40 269z" />
<glyph unicode="&#x10e6;" horiz-adv-x="1538" d="M70 504q0 130 35.5 230t97.5 168t145 102t179 33q50 -2 87 -11t65 -23.5t50.5 -32t44.5 -36.5q21 22 44.5 40.5t52.5 32.5t65 22t83 8q109 0 192.5 -37.5t140.5 -106t86.5 -164t29.5 -211.5q0 -94 -22.5 -170t-61 -134.5t-90.5 -101t-111.5 -70t-124 -40.5t-126.5 -13 l-8 179q71 0 133 26t107.5 72.5t71.5 110t26 137.5q0 54 -11 113t-39 109t-75.5 82.5t-119.5 32.5q-13 0 -31.5 -1t-38 -3t-39 -6.5t-34.5 -10.5q27 -32 51.5 -69.5t43 -82.5t30 -99.5t11.5 -121.5l-170 -14q0 101 -18.5 174t-46.5 125q-17 -25 -30.5 -52.5t-24 -62.5 t-16 -79.5t-5.5 -103.5l-167 -6q0 69 12 125t31.5 103t44.5 86t53 74q-17 7 -36.5 12t-39 8t-37.5 4t-31 1q-71 0 -118 -30.5t-76 -80t-41 -111.5t-12 -125q0 -118 32 -215.5t83.5 -175t116.5 -135.5t130.5 -96.5t126 -57.5t102.5 -19h173v-199h-175q-48 0 -107.5 14 t-125 42t-133 70t-130.5 98t-118.5 126.5t-97 154.5t-65.5 182.5t-24 210.5z" />
<glyph unicode="&#x10e7;" horiz-adv-x="1102" d="M70 501q0 73 17 153.5t65 158t135 145t227 114.5l76 -189q-68 -17 -118 -44t-85 -60t-57 -69.5t-34.5 -73t-17 -70t-4.5 -59.5q0 -72 21 -134t57.5 -107.5t86.5 -71.5t108 -26t109 26t89 72.5t59.5 110t21.5 137.5v545h205l1 -916q0 -141 -44.5 -242.5t-115 -166.5 t-158 -96t-173.5 -31q-49 0 -97.5 7.5t-96 25.5t-93 48t-88.5 75l168 119q26 -28 53 -45t53.5 -26t53.5 -12t53 -3q51 0 100.5 23.5t88.5 64t62.5 94.5t20.5 114q-32 -21 -66 -41.5t-69.5 -36t-71.5 -25.5t-71 -10q-99 0 -185 37t-149.5 105t-100 164.5t-36.5 215.5z" />
<glyph unicode="&#x10e8;" horiz-adv-x="1195" d="M-28 1260q30 60 69.5 98t85 60.5t96.5 31t103 8.5q28 0 51 -4.5t43 -14t39.5 -25.5t41.5 -39q43 49 97.5 66t121.5 17q108 0 184.5 -38t125 -106.5t71 -164.5t22.5 -213v-369q1 -11 1.5 -26t0.5 -23q0 -94 -20.5 -170.5t-55.5 -136.5t-83 -104t-102 -72.5t-112.5 -42 t-115.5 -13.5q-100 0 -186.5 37t-150.5 105t-100.5 164.5t-36.5 215.5q0 130 40 230.5t107.5 169t155.5 104t183 35.5q79 0 147 -30.5t124 -75.5q0 36 -1 77.5t-6 83.5t-16.5 80.5t-32 68.5t-52.5 48t-78 18q-50 0 -77.5 -13.5t-41.5 -39t-19.5 -61t-12.5 -78.5h-201 q4 35 10 60.5t12.5 45t12 34t9.5 27.5q-7 13 -19.5 20t-28 10t-32.5 4t-33 2q-32 -1 -62 -16t-55.5 -41.5t-44 -61.5t-25.5 -75zM368 507q0 -72 21 -134t57.5 -107.5t86.5 -71.5t108 -26t109 26t89 72.5t60 110t22 137.5q0 54 -15 113t-48 109t-85 82.5t-127 32.5 q-72 0 -124.5 -30.5t-86.5 -79t-50.5 -110t-16.5 -124.5z" />
<glyph unicode="&#x10e9;" horiz-adv-x="1113" d="M80 0l1 911q-3 110 15 193.5t53 144.5t84 101.5t108.5 64.5t126.5 33.5t138 8.5q84 -1 153 -25.5t117.5 -69t75.5 -106.5t27 -138q0 -30 -7 -62t-17 -62t-22.5 -55.5t-22.5 -42.5q27 -23 47.5 -54.5t35.5 -67t24.5 -73.5t15 -72.5t8 -63.5t2.5 -47q0 -99 -26 -184.5 t-71 -154.5t-105 -120.5t-127 -82.5l-111 157q51 25 94.5 66t74.5 91.5t48.5 108t17.5 115.5q0 54 -15 113t-47.5 109t-84.5 82.5t-127 32.5q-145 0 -212.5 -86.5t-67.5 -257.5v-507h-204zM285 903q52 76 125.5 106.5t155.5 30.5q41 0 70 -0.5t52 -5t44 -14.5t47 -29 q1 7 4.5 21t6.5 29t5.5 28t2.5 16q0 33 -10 65.5t-33.5 59t-62.5 42.5t-98 16q-83 0 -140.5 -16.5t-94 -58t-54 -112t-20.5 -178.5z" />
<glyph unicode="&#x10ea;" horiz-adv-x="1153" d="M70 129v929h204v-923q0 -72 24 -134t64.5 -107.5t94 -71.5t111.5 -26t114 21.5t99.5 62.5t70 100t26.5 134q0 72 -18.5 122t-58 81.5t-102.5 46t-152 14.5l2 189q106 0 189.5 -18t136.5 -44q3 18 3 34.5v28.5q0 52 -18.5 106t-58 97t-102.5 70.5t-152 27.5l2 189 q119 0 217 -32t168.5 -93.5t109.5 -152t39 -208.5q0 -59 -17 -109t-44 -92q18 -29 30 -62.5t18.5 -67.5t9.5 -66t3 -58q0 -94 -22.5 -168.5t-61.5 -131t-90.5 -96.5t-109.5 -65.5t-119 -37t-118 -11.5q-99 0 -188.5 37.5t-157 105.5t-107 164.5t-39.5 214.5z" />
<glyph unicode="&#x10eb;" horiz-adv-x="1102" d="M70 501q0 130 40 230.5t107 169t155 104t183 35.5q79 0 147 -21.5t125 -60.5q-5 52 -25.5 107t-60.5 100t-100.5 73.5t-144.5 28.5l2 189q119 0 217.5 -37.5t168.5 -106t108.5 -164t38.5 -212.5v-413q0 -1 0.5 -2t0.5 -3q0 -94 -20.5 -170.5t-56 -136.5t-83 -104 t-102 -72.5t-113.5 -42t-116 -13.5q-99 0 -185 37t-149.5 105t-100 164.5t-36.5 215.5zM274 507q0 -72 21 -134t57.5 -107.5t86.5 -71.5t108 -26t109.5 26t89.5 72.5t60 110t22 137.5q0 54 -15 113t-48 109t-85 82.5t-127 32.5q-72 0 -124.5 -30.5t-87 -79t-51 -110 t-16.5 -124.5z" />
<glyph unicode="&#x10ec;" horiz-adv-x="1219" d="M70 518v109q0 16 0.5 33.5t0.5 36.5v158q0 20 0.5 39.5t0.5 41.5q0 117 28.5 213t84 164.5t138 106.5t190.5 38q63 0 110 -16t88 -63q25 20 47 35t45 24.5t48.5 14.5t55.5 5q53 0 96.5 -6t82.5 -26.5t77 -60t79 -105.5l-157 -99q-27 43 -47.5 70.5t-41 43.5t-43.5 22 t-54 6q-9 0 -23 -1.5t-28.5 -4t-27 -5t-19.5 -4.5q11 -16 19 -30.5t13.5 -33t9 -43t6.5 -60.5l-178 -10q-8 58 -18 95.5t-29 59t-48.5 29.5t-75.5 8q-72 0 -116 -37.5t-67.5 -93t-31.5 -119.5t-8 -118q55 45 123 75t149 30q94 0 182 -35.5t155 -104t107.5 -169t40.5 -230.5 q0 -119 -36.5 -215.5t-100 -164.5t-150.5 -105t-188 -37q-57 0 -115 13.5t-112.5 42t-102 72.5t-83 104t-56 136.5t-20.5 170.5zM275 514q0 -74 22 -137.5t60.5 -110t89.5 -72.5t110 -26q57 0 107 26t87 71.5t58 107.5t21 134q0 63 -16.5 124.5t-51 110t-87.5 79t-126 30.5 q-75 0 -127 -32.5t-84.5 -82.5t-47.5 -109t-15 -113z" />
<glyph unicode="&#x10ed;" horiz-adv-x="1187" d="M70 202l206 -6q0 -87 22 -160.5t60 -127t89 -83.5t110 -30q47 0 95 22t87 62t64 94.5t25 119.5v126q0 1 -0.5 1.5t-0.5 2.5v10h-4q-67 0 -133.5 5.5t-128 20.5t-114.5 41.5t-92.5 69t-62 103t-22.5 142.5q0 87 24 149.5t65.5 106.5t96.5 71t117 42t127.5 20t127.5 6v447 h210v-442l30 -3q11 -1 25 -2t24 -1l-4 -187h-75v-395h75v-194l-75 6v-135q0 -78 -19 -145.5t-52.5 -123t-79.5 -98t-99 -72t-111.5 -44.5t-117.5 -15q-56 0 -114 15t-112.5 46.5t-102.5 80t-83.5 114.5t-56 151t-20.5 189zM476 619q0 -69 33 -108t84.5 -59t113.5 -25t120 -5 l-2 399q-71 -1 -134 -11t-111 -33t-76 -61.5t-28 -96.5z" />
<glyph unicode="&#x10ee;" horiz-adv-x="1112" d="M80 518v26q0 1 0.5 1.5t0.5 1.5v910h203v-498q56 39 125 60t148 21q95 0 183 -35.5t155 -104t107 -169t40 -230.5q0 -119 -36.5 -215.5t-100.5 -164.5t-150 -105t-186 -37q-85 0 -172 31t-157.5 97t-115 168t-44.5 243zM284 514q0 -74 22 -137.5t60 -110t90 -72.5 t111 -26q57 0 106.5 26t86 71.5t57.5 107.5t21 134q0 63 -16.5 124.5t-51 110t-87 79t-124.5 30.5q-75 0 -127 -32.5t-85 -82.5t-48 -109t-15 -113z" />
<glyph unicode="&#x10ef;" horiz-adv-x="1103" d="M39 795l115 164q17 -64 42 -102t58.5 -56t77 -20.5t97.5 4.5q-17 78 -3 159t59.5 153t122.5 127.5t185 81.5l79 -178q-71 -25 -119 -44.5t-79 -38.5t-47 -40t-22 -48t-4 -62.5t6 -84.5q34 9 74 20.5t82.5 18.5t86 8t85.5 -9.5t81 -35.5t73 -69l-134 -160q-24 40 -61.5 64 t-81 32.5t-91 2t-90.5 -26.5q6 -48 37.5 -83.5t76.5 -68t95 -67t93 -80.5t71 -109t29 -153q0 -94 -20 -166.5t-55.5 -127t-83.5 -91.5t-103 -60t-113.5 -33t-115.5 -10q-99 0 -185 41t-150 116t-100.5 182t-36.5 239l204 11q0 -86 21 -159.5t58 -127t87 -83.5t108 -30 t109.5 18.5t90 55.5t60 92.5t20.5 129.5q-1 63 -28 109t-67.5 84t-88.5 72t-90.5 74t-73 89t-37.5 117q-46 -23 -105 -24t-117 19t-107.5 61t-74.5 103z" />
<glyph unicode="&#x10f0;" horiz-adv-x="1112" d="M70 557l204 5q0 -85 21 -157t57.5 -124.5t86.5 -82.5t108 -30q59 0 110 19.5t88.5 57t59.5 93.5t23 129v4q0 63 -19 102.5t-59 61.5t-103 30t-152 8l-1 157q46 0 81.5 0.5t72 -5t81 -21t108.5 -46.5q8 47 -4 81.5t-38.5 58t-63 38t-76.5 22.5t-79.5 10.5t-71.5 2.5 l-7 156q50 0 86.5 -0.5t72.5 -8.5t80 -26.5t109 -53.5q12 61 -11.5 107.5t-66.5 77.5t-97.5 46.5t-103.5 15.5l-347 -11l-9 183h345q105 0 191.5 -26t149.5 -76t98.5 -122.5t37.5 -164.5v-11q0 -14 -5 -34t-14 -42t-21.5 -42t-27.5 -32q17 -11 27.5 -26t16 -31.5t7.5 -31.5 t2 -26q0 -36 -14.5 -74t-56.5 -68q18 -11 33.5 -30.5t27.5 -44t18.5 -52t6.5 -53.5q0 -94 -20.5 -167t-56 -127.5t-83 -92t-102 -61t-113.5 -33.5t-116 -10q-99 0 -185 41t-149.5 116.5t-100 182.5t-36.5 238z" />
<glyph unicode="&#x2000;" horiz-adv-x="847" />
<glyph unicode="&#x2001;" horiz-adv-x="1695" />
<glyph unicode="&#x2002;" horiz-adv-x="847" />
<glyph unicode="&#x2003;" horiz-adv-x="1695" />
<glyph unicode="&#x2004;" horiz-adv-x="565" />
<glyph unicode="&#x2005;" horiz-adv-x="423" />
<glyph unicode="&#x2006;" horiz-adv-x="282" />
<glyph unicode="&#x2007;" horiz-adv-x="282" />
<glyph unicode="&#x2008;" horiz-adv-x="211" />
<glyph unicode="&#x2009;" horiz-adv-x="339" />
<glyph unicode="&#x200a;" horiz-adv-x="94" />
<glyph unicode="&#x2010;" horiz-adv-x="682" d="M65 440v181h553v-181h-553z" />
<glyph unicode="&#x2011;" horiz-adv-x="682" d="M65 440v181h553v-181h-553z" />
<glyph unicode="&#x2012;" d="M-12 457v147h1163v-147h-1163z" />
<glyph unicode="&#x2013;" d="M-4 458v145h1139v-145h-1139z" />
<glyph unicode="&#x2014;" horiz-adv-x="2048" d="M0 458v145h2048v-145h-2048z" />
<glyph unicode="&#x2015;" horiz-adv-x="1155" d="M53 457v147h1049v-147h-1049z" />
<glyph unicode="&#x2018;" horiz-adv-x="455" d="M128 1011v165q0 134 32 194q42 80 133 121l44 -70q-55 -23 -81 -68.5t-29 -132.5h94v-209h-193z" />
<glyph unicode="&#x2019;" horiz-adv-x="455" d="M108 1072q54 22 80.5 69.5t29.5 130.5h-94v209h193v-165q0 -134 -31 -193q-43 -81 -134 -122z" />
<glyph unicode="&#x201a;" horiz-adv-x="455" d="M108 -200q54 22 80.5 69.5t29.5 130.5h-94v209h193v-165q0 -134 -31 -193q-43 -81 -134 -122z" />
<glyph unicode="&#x201b;" horiz-adv-x="455" d="M131 1303v163h193v-209h-95q2 -156 111 -200l-45 -70q-76 34 -111.5 86.5t-44 105t-8.5 124.5z" />
<glyph unicode="&#x201c;" horiz-adv-x="682" d="M83 1011v165q0 134 32 194q42 80 133 121l44 -70q-55 -23 -81 -68.5t-29 -132.5h94v-209h-193zM393 1011v165q0 134 32 194q42 80 133 121l44 -70q-55 -23 -81 -68.5t-29 -132.5h94v-209h-193z" />
<glyph unicode="&#x201d;" horiz-adv-x="682" d="M71 1072q54 22 80.5 69.5t29.5 130.5h-94v209h193v-165q0 -134 -31 -193q-43 -81 -134 -122zM381 1072q54 22 80.5 69.5t29.5 130.5h-94v209h193v-165q0 -134 -31 -193q-43 -81 -134 -122z" />
<glyph unicode="&#x201e;" horiz-adv-x="682" d="M71 -200q54 22 80.5 69.5t29.5 130.5h-94v209h193v-165q0 -134 -31 -193q-43 -81 -134 -122zM381 -200q54 22 80.5 69.5t29.5 130.5h-94v209h193v-165q0 -134 -31 -193q-43 -81 -134 -122z" />
<glyph unicode="&#x201f;" horiz-adv-x="682" d="M90 1303v163h193v-209h-95q2 -156 111 -200l-45 -70q-76 34 -111.5 86.5t-44 105t-8.5 124.5zM401 1303v163h193v-209h-94q1 -156 110 -200l-45 -70q-75 34 -111 86.5t-44.5 105t-8.5 124.5z" />
<glyph unicode="&#x2022;" horiz-adv-x="717" d="M109 718q0 105 74.5 179t178.5 74q105 0 179.5 -74t74.5 -179t-74.5 -179.5t-179.5 -74.5q-104 0 -178.5 74.5t-74.5 179.5z" />
<glyph unicode="&#x2026;" horiz-adv-x="2048" d="M239 0v205h205v-205h-205zM922 0v205h205v-205h-205zM1604 0v205h206v-205h-206z" />
<glyph unicode="&#x2027;" horiz-adv-x="569" d="M182 618v205h205v-205h-205z" />
<glyph unicode="&#x202f;" horiz-adv-x="339" />
<glyph unicode="&#x2039;" horiz-adv-x="682" d="M92 527l315 457h149l-265 -457l265 -455h-149z" />
<glyph unicode="&#x203a;" horiz-adv-x="682" d="M127 72l265 458l-265 454h149l304 -448l-304 -464h-149z" />
<glyph unicode="&#x205f;" horiz-adv-x="423" />
<glyph unicode="&#x20ac;" d="M-28 535l28 134h105l-2 132h-131l28 134h116q122 546 678 556q186 0 313 -81l-40 -186q-122 101 -277 101q-369 -10 -471 -390h682l-27 -134h-671v-132h644l-28 -134h-595q42 -229 179.5 -311.5t271.5 -82.5q187 0 292 98v-206q-125 -58 -276 -58q-536 5 -666 560h-153z " />
<glyph unicode="&#x2122;" horiz-adv-x="2048" d="M225 1345v121h666v-121h-266v-694h-136v694h-264zM982 651v815h200l206 -651l199 651h196v-815h-124v684l-210 -684h-123l-219 694v-694h-125z" />
<glyph unicode="&#x2219;" horiz-adv-x="569" d="M185 619v205h205v-205h-205z" />
<glyph unicode="&#x25fc;" horiz-adv-x="1060" d="M0 0v1060h1060v-1060h-1060z" />
</font>
</defs>
</svg>
