<?xml version="1.0" standalone="no"?>
<!DOCTYPE svg PUBLIC "-//W3C//DTD SVG 1.1//EN" "http://www.w3.org/Graphics/SVG/1.1/DTD/svg11.dtd" >
<svg xmlns="http://www.w3.org/2000/svg" xmlns:xlink="http://www.w3.org/1999/xlink" version="1.1">
<metadata></metadata>
<defs>
<font id="bpg_nino_mkhedruli_bookregular" horiz-adv-x="798" >
<font-face units-per-em="2048" ascent="1638" descent="-410" />
<missing-glyph horiz-adv-x="400" />
<glyph unicode="&#xd;" horiz-adv-x="643" />
<glyph unicode=" "  horiz-adv-x="400" />
<glyph unicode="&#x09;" horiz-adv-x="400" />
<glyph unicode="&#xa0;" horiz-adv-x="400" />
<glyph unicode="!" horiz-adv-x="440" d="M133 239q0 45 23 73.5t65 28.5q38 0 62 -27t24 -69q0 -19 -6.5 -36t-18 -30t-28 -21t-35.5 -8h-2q-18 0 -33 7.5t-26.5 19.5t-18 28t-6.5 34zM186 544v1011h105v-1011h-105z" />
<glyph unicode="&#x22;" horiz-adv-x="618" d="M123 1630h123l-29 -454h-65zM373 1630h123l-29 -454h-66z" />
<glyph unicode="#" horiz-adv-x="1719" d="M174 151v1330h93l580 -1205v1205h64v-1330h-84l-584 1201v-1201h-69zM1021 1086q0 89 22 157t59 114t84 69.5t97 23.5h1q60 0 108.5 -25.5t82.5 -72t52 -112t18 -144.5q0 -98 -23.5 -166.5t-61 -111.5t-84.5 -63t-93 -20q-57 0 -105 24t-83 69t-54.5 110t-19.5 148z M1069 565v80h430v-80h-430zM1095 1088q0 -68 16 -120.5t42.5 -88.5t60.5 -54.5t69 -18.5q39 0 73 19t59.5 55t40.5 89.5t15 122.5q0 50 -10.5 101t-33 92.5t-58 67.5t-86.5 26h-2q-47 0 -82 -24.5t-58 -65t-34.5 -93t-11.5 -108.5z" />
<glyph unicode="$" horiz-adv-x="1085" d="M162 243l45 78q52 -42 126 -68t159 -26q65 0 119 18.5t92.5 51.5t59.5 77.5t21 96.5q0 49 -17.5 90t-50.5 74.5t-80.5 61.5t-107.5 52q-88 36 -152.5 72t-106.5 77t-62.5 90t-20.5 111q0 60 21.5 112.5t61.5 93.5t97 68t128 36v219h86v-219q92 -4 154.5 -27.5 t107.5 -52.5l-45 -78q-15 10 -38 23.5t-55 25.5t-72.5 20.5t-90.5 8.5q-72 0 -121.5 -20t-80 -51.5t-44.5 -70t-14 -75.5q0 -45 15 -81t48 -67t85 -59.5t126 -59.5q76 -32 136.5 -67.5t102.5 -79t64.5 -97.5t22.5 -124q0 -50 -19 -103.5t-59 -100t-100.5 -80.5t-143.5 -46 v-215h-86v215q-42 0 -85 6.5t-84 18.5t-77.5 30t-64.5 41z" />
<glyph unicode="%" horiz-adv-x="1577" d="M61 1110q0 108 26.5 187t70 130.5t98.5 77t113 25.5h2q64 0 116.5 -24.5t90 -73.5t58.5 -123t21 -174q0 -107 -23.5 -186.5t-64.5 -132.5t-96 -79t-119 -26q-57 0 -109 23.5t-92.5 72t-65 124t-26.5 179.5zM149 1094q0 -74 16 -132t43.5 -98.5t66 -62t83.5 -21.5 q53 0 92.5 24t66 68.5t39.5 108.5t13 145q0 75 -12 137t-37 105.5t-65 67.5t-95 24h-2q-49 0 -87.5 -25.5t-65.5 -73t-41.5 -115t-14.5 -152.5zM332 149l825 1381h84l-825 -1381h-84zM920 563q0 108 26.5 187t69.5 130.5t98 77t113 25.5h2q64 0 116.5 -24.5t90.5 -73.5 t59 -123t21 -174q0 -107 -23.5 -186.5t-64.5 -132.5t-96.5 -79t-119.5 -26q-56 0 -108.5 23.5t-93 72.5t-65 124t-25.5 179zM1007 548q0 -74 16 -132t44.5 -99t66.5 -62.5t83 -21.5q53 0 92.5 24t65.5 68.5t39 109t13 145.5q0 75 -12 136.5t-37 105t-64.5 67.5t-94.5 24h-2 q-49 0 -88 -25.5t-66 -72.5t-41.5 -114.5t-14.5 -152.5z" />
<glyph unicode="&#x26;" horiz-adv-x="1208" d="M61 538q0 78 24.5 141t65 112.5t94 87.5t111.5 67v6q-66 82 -96.5 156.5t-30.5 140.5q0 63 22 122.5t65 106t105 75t142 28.5q61 0 113 -21t90 -57.5t59 -87.5t21 -111q0 -56 -18.5 -105.5t-59.5 -96t-108 -90t-164 -86.5v-7q64 -72 127.5 -141t121 -129.5t105.5 -110 t82 -83.5q25 32 47 71t41.5 91.5t37 121t32.5 160.5h94q-34 -184 -81 -305.5t-114 -192.5q68 -66 125 -120.5t113 -104.5h-129q-38 35 -76 73t-90 85q-60 -53 -117 -88.5t-113.5 -56.5t-113 -29.5t-115.5 -8.5q-85 0 -160 28.5t-131 80t-88.5 122.5t-32.5 156zM160 553 q0 -73 26.5 -132.5t72.5 -101.5t107.5 -65t131.5 -23h2q59 0 112.5 12.5t100.5 34t87.5 50.5t73.5 63q-21 21 -68 69t-110.5 114t-139 146.5t-153.5 166.5q-34 -17 -76 -45t-79 -69t-62.5 -95.5t-25.5 -124.5zM324 1259q0 -45 11 -84t28.5 -73t38.5 -64t42 -57 q68 32 124.5 64.5t97.5 69.5t63.5 81t22.5 98q0 37 -11.5 74.5t-36.5 67.5t-63 48.5t-92 18.5h-2q-55 0 -96.5 -20.5t-69.5 -54t-42.5 -77.5t-14.5 -92z" />
<glyph unicode="'" horiz-adv-x="369" d="M123 1630h123l-29 -454h-65z" />
<glyph unicode="(" horiz-adv-x="553" d="M133 600q0 167 27 304.5t71.5 251t100.5 206.5t114 171h97q-71 -91 -129 -190t-99 -212.5t-63.5 -245t-22.5 -287.5q0 -152 23.5 -280t65.5 -239t99.5 -208.5t125.5 -189.5h-97q-58 74 -114 165t-100.5 203t-71.5 248.5t-27 302.5z" />
<glyph unicode=")" horiz-adv-x="553" d="M10 -316q67 90 124.5 188t99.5 211t66 243.5t24 285.5q0 153 -23 282t-64.5 241t-99.5 210.5t-127 190.5h96q58 -76 114.5 -167.5t100.5 -204.5t71.5 -250t27.5 -304t-27.5 -303.5t-71.5 -249t-100.5 -204.5t-114.5 -169h-96z" />
<glyph unicode="*" horiz-adv-x="1118" d="M158 1061q0 7 2 15t8 15t17.5 11t29.5 4h14l273 -29l4 13l-211 174q-15 11 -24 25t-9 28q0 15 12 29q9 8 17.5 10t15.5 2h10q11 0 20.5 -10.5t18.5 -22.5l174 -211l13 4l-29 273q-1 3 -1 13q0 18 4.5 29.5t11 18t14.5 8.5t16 2t16 -2t14.5 -8t10.5 -17.5t4 -29.5v-14 l-29 -273l13 -4l174 211q9 12 18.5 22.5t20.5 10.5h10q7 0 15.5 -2t17.5 -10q8 -9 10 -17.5t2 -15.5v-10q0 -11 -10 -20.5t-23 -18.5l-211 -174l4 -13l273 29h13q36 0 47.5 -15t11.5 -30q0 -8 -2 -16.5t-8.5 -15t-18 -10.5t-29.5 -4h-6.5t-7.5 1l-273 28l-4 -12l211 -174 q13 -9 23 -18.5t10 -20.5v-10q0 -7 -2 -16t-10 -17q-14 -12 -29 -12q-14 0 -28 9t-25 24l-174 211l-13 -4l29 -273v-15q0 -36 -14 -46.5t-31 -10.5q-8 0 -16 2t-14.5 8.5t-11 18t-4.5 29.5q0 11 1 14l29 273l-13 4l-174 -211q-12 -15 -25.5 -24t-27.5 -9q-17 0 -29 12 t-12 29q0 14 9 27.5t24 25.5l211 174l-4 12l-273 -28q-3 -1 -15 -1q-36 0 -46 14.5t-10 31.5z" />
<glyph unicode="+" horiz-adv-x="1221" d="M82 656v82h483v502h90v-502h484v-82h-484v-506h-90v506h-483z" />
<glyph unicode="," horiz-adv-x="502" d="M143 -162q73 84 103 145.5t30 117.5q0 12 -1 24t-3 24q-6 -2 -16 -2h-10q-35 0 -61.5 20.5t-26.5 57.5q0 25 8.5 43t22 30t30 17.5t33.5 5.5q48 0 77 -33t29 -110q0 -48 -12.5 -97.5t-36 -97.5t-57.5 -93.5t-76 -84.5z" />
<glyph unicode="-" horiz-adv-x="742" d="M100 615v78h542v-78h-542z" />
<glyph unicode="." horiz-adv-x="530" d="M172 246q0 18 7 35t20 29.5t30 20t37 7.5q39 0 65.5 -26.5t26.5 -65.5q0 -42 -27.5 -68.5t-64.5 -26.5q-19 0 -36 7.5t-30 20.5t-20.5 30t-7.5 37z" />
<glyph unicode="/" horiz-adv-x="532" d="M2 150l426 1362h104l-432 -1362h-98z" />
<glyph unicode="0" d="M51 874q0 190 30.5 328.5t81 228.5t115.5 133.5t133 43.5q73 0 135 -42.5t106.5 -129.5t69.5 -218.5t25 -309.5q0 -186 -25 -326.5t-71.5 -235t-113.5 -142t-151 -47.5q-64 0 -123.5 42t-106 129.5t-75 223t-30.5 322.5zM149 861q0 -144 18.5 -258.5t51 -194t78 -122 t99.5 -42.5q65 0 112.5 46.5t79 131.5t46.5 205t15 267q0 140 -14.5 255.5t-44.5 198t-77.5 128t-113.5 45.5q-55 0 -101 -45t-79 -127t-51.5 -197.5t-18.5 -257.5v-33z" />
<glyph unicode="1" horiz-adv-x="659" d="M186 1428l186 153h87v-1397h-94v1281q-38 -30 -80.5 -65.5t-77.5 -63.5z" />
<glyph unicode="2" d="M63 184v63l99 130q81 107 144 193t110.5 158t81 132t54 114.5t30 106.5t9.5 107q0 57 -9.5 115.5t-35 105.5t-69 76.5t-110.5 29.5q-34 0 -67 -13.5t-63 -34.5t-56.5 -47.5t-47.5 -52.5l-35 84q57 75 128 116t156 41q59 0 104.5 -19t79.5 -50t57 -71.5t37.5 -84t21 -87 t6.5 -80.5q0 -104 -27 -197t-81 -192t-135 -211t-188 -252l-69 -88h2v-4h527v-88h-654z" />
<glyph unicode="3" d="M66 262l34 96q16 -17 42.5 -36t58.5 -35.5t68 -27.5t71 -11q53 0 93 15.5t68.5 41.5t47.5 59t29.5 67.5t15 67.5t4.5 59v13q-1 91 -28.5 153.5t-70.5 101t-96.5 55.5t-107.5 17h-84v88h89q43 0 88.5 16.5t82.5 50.5t60.5 87t23.5 125q0 45 -10 90t-32.5 81t-60.5 58.5 t-93 22.5q-29 0 -59 -10t-57.5 -27t-53 -39t-45.5 -45l-36 92q19 22 47 43.5t62 38.5t72.5 27.5t77.5 10.5q80 0 135 -30.5t88.5 -78t48 -106t14.5 -115.5q0 -53 -17.5 -102.5t-48 -93t-72 -79t-90.5 -60.5q52 -14 101.5 -47t87 -81t60.5 -109t23 -131q0 -75 -21 -149.5 t-66 -134.5t-114.5 -97t-165.5 -37q-45 0 -85.5 10t-74.5 25.5t-60.5 34t-43.5 35.5z" />
<glyph unicode="4" horiz-adv-x="830" d="M30 592v69l531 920h78v-901h162v-88h-162v-408h-91v408h-518zM139 685h1v-5h408v773l-54 -151z" />
<glyph unicode="5" d="M64 259l33 94q18 -17 42.5 -35.5t54.5 -34t64 -25.5t70 -10q56 0 103.5 28t82 76.5t54 113.5t19.5 139q0 71 -16.5 135.5t-52 113t-90.5 77.5t-133 29q-48 0 -91 -6.5t-78 -13.5l62 641h481v-92h-402l-47 -446q16 2 38 4.5t57 2.5q51 0 96 -11t90 -34q32 -20 64.5 -54.5 t58 -82.5t41.5 -108.5t16 -132.5q0 -105 -28.5 -191.5t-77 -148.5t-114 -96t-139.5 -34q-45 0 -84.5 9.5t-72.5 24.5t-58.5 33t-42.5 35z" />
<glyph unicode="6" d="M47 752q0 106 14.5 200.5t39 175.5t57.5 147.5t70 116.5q55 72 129.5 123t162.5 75q30 9 64 13.5t60 4.5l2 -97q-28 0 -61.5 -2.5t-67.5 -13.5q-77 -21 -140 -72.5t-109.5 -125t-76 -164.5t-39.5 -191q20 34 47 64t61 52.5t73.5 35.5t84.5 13q78 0 139.5 -35t104 -96.5 t65.5 -145t23 -180.5q0 -87 -22 -175t-65.5 -158.5t-108 -115t-149.5 -44.5q-70 0 -134.5 35.5t-114 109t-79.5 185.5t-30 265zM143 719q0 -97 17 -183t50.5 -150.5t83.5 -102t117 -37.5q56 0 100.5 32t76 86.5t48 127t16.5 154.5q0 89 -19 158t-52.5 116t-79.5 71.5 t-100 24.5q-43 0 -88.5 -23.5t-83 -64t-62 -94.5t-24.5 -115z" />
<glyph unicode="7" d="M97 1493v88h638v-81l-482 -1316h-91l475 1305v4h-540z" />
<glyph unicode="8" d="M55 539q0 128 56 225.5t165 163.5q-49 27 -83.5 63t-56.5 77.5t-32 85.5t-10 88q0 79 24 146t66 116t100 76.5t127 27.5q67 0 121.5 -26t93 -71.5t59.5 -108t21 -135.5q0 -41 -8 -85.5t-29 -89.5t-58 -88t-95 -80h-2q120 -57 174.5 -150.5t54.5 -211.5q0 -95 -29 -170 t-77 -127.5t-110 -80t-128 -27.5q-70 0 -132.5 26t-109.5 75.5t-74.5 120t-27.5 160.5zM151 538q0 -57 16.5 -110.5t48.5 -94t77.5 -65t104.5 -24.5t105.5 24.5t78.5 66t49 95.5t17 113q0 77 -14.5 134.5t-45.5 99.5t-78 71t-112 49q-54 -17 -99 -49.5t-78 -77t-51 -98.5 t-18 -114q0 -5 -0.5 -10t-0.5 -10zM188 1253q0 -124 52 -193.5t163 -100.5q41 16 78.5 42t66 63.5t45.5 86t17 110.5q0 43 -10.5 89.5t-35 85t-64 63.5t-97.5 25q-53 0 -93.5 -22.5t-67.5 -60t-40.5 -85.5t-13.5 -99v-4z" />
<glyph unicode="9" d="M67 1107q0 95 25 185t71.5 160.5t112 113t147.5 42.5q66 0 125.5 -35.5t104.5 -108.5t72 -185t27 -265q0 -123 -16.5 -226.5t-43 -187.5t-60.5 -149t-69 -110q-24 -29 -54 -55.5t-62 -48.5t-64.5 -37.5t-60.5 -22.5q-42 -10 -77.5 -15.5t-65.5 -5.5h-9.5t-9.5 1v100 q18 -3 38 -3q43 0 96 12q60 12 121.5 59t109.5 117q43 69 76.5 166.5t47.5 227.5q-104 -158 -267 -158q-79 0 -138 37.5t-98.5 98.5t-59 138t-19.5 155zM163 1111q0 -73 16.5 -135.5t47 -108.5t73 -72t94.5 -26q48 0 94.5 21t84 56.5t60.5 81t23 95.5q0 102 -14.5 192.5 t-45 158t-78 106.5t-113.5 39q-56 0 -101 -34t-76.5 -90.5t-48 -130.5t-16.5 -153z" />
<glyph unicode=":" horiz-adv-x="530" d="M172 247q0 18 7 35t20 29.5t30 20t37 7.5q39 0 65.5 -26.5t26.5 -65.5q0 -42 -27.5 -68.5t-64.5 -26.5q-19 0 -36 7.5t-30 20.5t-20.5 30t-7.5 37zM172 834q0 18 7 35t20 29.5t30 20t37 7.5q39 0 65.5 -26.5t26.5 -65.5q0 -20 -7.5 -37t-20 -30t-29.5 -20t-35 -7 q-19 0 -36 7.5t-30 20.5t-20.5 30t-7.5 36z" />
<glyph unicode=";" horiz-adv-x="502" d="M143 -163q73 84 103 145.5t30 117.5q0 12 -1 24t-3 24q-6 -2 -16 -2h-10q-35 0 -61.5 20.5t-26.5 57.5q0 25 8.5 43t22 30t30 17.5t33.5 5.5q48 0 77 -33t29 -110q0 -48 -12.5 -97.5t-36 -97.5t-57.5 -93.5t-76 -84.5zM158 830q0 18 7 35t20 29.5t30 20t37 7.5 q39 0 65.5 -26.5t26.5 -65.5q0 -20 -7.5 -37t-20 -30t-29.5 -20t-35 -7q-19 0 -36 7.5t-30 20.5t-20.5 30t-7.5 36z" />
<glyph unicode="&#x3c;" horiz-adv-x="1014" d="M133 583v85l797 307v-54l-754 -295l754 -296v-55z" />
<glyph unicode="=" horiz-adv-x="1014" d="M137 575v54h793v-54h-793zM137 950v56h793v-56h-793z" />
<glyph unicode="&#x3e;" horiz-adv-x="1014" d="M133 272v58l761 301l-761 288v55l810 -305v-72z" />
<glyph unicode="?" horiz-adv-x="827" d="M102 1268q0 72 28 130t75 98.5t108.5 62.5t128.5 22q85 0 149 -28t107 -79t64 -122t21 -158q0 -55 -15.5 -99.5t-44 -86.5t-68 -85.5t-88.5 -95.5q-45 -48 -74.5 -85.5t-29.5 -77.5q0 -9 1 -12v-150h-87v150q0 33 11 63.5t31 60.5t47.5 60.5t60.5 62.5q81 74 124 143.5 t43 151.5q0 66 -13 123t-43 99t-78 66t-118 24q-47 0 -91.5 -17.5t-79.5 -49t-56.5 -75.5t-21.5 -96q0 -29 8 -62.5t24.5 -62t42 -47.5t60.5 -19q54 0 80.5 28.5t26.5 101.5q0 14 -1 31t-9 52h42q16 -39 22.5 -69.5t6.5 -53.5q0 -75 -41.5 -119.5t-126.5 -44.5 q-53 0 -95 23.5t-71 61t-44.5 85t-15.5 95.5zM334 248q0 35 23 59.5t62 24.5q38 0 57 -24.5t19 -59.5q0 -32 -19 -55t-57 -23q-39 0 -62 22t-23 56z" />
<glyph unicode="@" horiz-adv-x="1569" d="M78 808q0 101 23.5 198t68.5 182.5t111 157t151.5 123t190 80.5t225.5 29q147 0 265.5 -48.5t202.5 -134t129.5 -201t45.5 -248.5q0 -105 -32 -188t-83 -140t-115.5 -87t-130.5 -30q-27 0 -54 10t-49 31.5t-35.5 55t-13.5 80.5v13.5t1 14.5h-8q-29 -48 -62.5 -86.5 t-73.5 -64.5t-89 -40t-109 -14q-44 0 -86 19t-75 53.5t-53 83t-20 108.5q0 102 40.5 190t109.5 152.5t160 101t192 36.5q76 0 132 -12.5t104 -32.5l-70 -342q-16 -77 -16 -136q0 -72 24.5 -106t69.5 -35h6q44 0 87 24.5t77 70.5t55 111.5t21 147.5q0 122 -38 226t-110.5 180 t-177.5 119t-238 43q-136 0 -255.5 -47.5t-209 -136.5t-141 -215.5t-51.5 -284.5q0 -130 44.5 -238.5t121.5 -186.5t179.5 -121.5t219.5 -43.5q100 0 188 21t154 63l33 -74q-88 -48 -181.5 -69t-199.5 -21q-89 0 -171.5 22t-155.5 62.5t-133.5 99t-103.5 131.5t-67 160 t-24 184zM496 763q0 -36 11 -69.5t33 -59t56 -40.5t80 -15q60 0 114 33.5t96.5 83.5t71 108t37.5 107l47 231q-20 8 -57.5 16.5t-91.5 8.5q-80 0 -152 -30t-126.5 -84t-86.5 -128t-32 -162z" />
<glyph unicode="A" horiz-adv-x="1062" d="M49 157l451 1242h80l449 -1242h-86l-156 437h-499l-154 -437h-85zM317 670h443l-158 437q-12 31 -20.5 57t-15.5 49.5t-13 45.5t-12 45h-3q-13 -48 -27 -92t-35 -100z" />
<glyph unicode="B" horiz-adv-x="909" d="M146 157v1226q51 13 116 20.5t134 7.5q115 0 190 -27t126 -82q35 -39 52 -89t17 -116q0 -46 -15 -89t-41.5 -79t-62.5 -64t-78 -44v-6q30 -6 72 -26t80 -57.5t65 -93.5t27 -134t-23 -134.5t-62 -99.5q-60 -66 -154.5 -94.5t-232.5 -28.5q-64 0 -118 4t-92 6zM228 233 q28 -7 67.5 -9t88.5 -2q66 0 130.5 12.5t115.5 44t82 85t31 136.5q0 73 -28 125.5t-75.5 86.5t-111 49.5t-134.5 15.5h-166v-544zM228 850h195q66 0 117 19.5t86 52.5t53.5 77t18.5 94q0 71 -24.5 118t-66.5 74.5t-97.5 39t-118.5 11.5q-66 0 -104.5 -5t-58.5 -11v-470z" />
<glyph unicode="C" horiz-adv-x="1062" d="M63 773q0 81 18 160.5t53.5 151.5t89 134t124 107t158 70.5t192.5 25.5q64 0 113.5 -7t86.5 -16.5t62 -20.5t40 -19l-26 -76q-51 28 -122 45.5t-149 17.5q-136 0 -239.5 -43.5t-173.5 -121t-106 -183.5t-36 -232q0 -115 34 -216t101.5 -176t168 -118.5t232.5 -43.5 q82 0 159.5 17.5t134.5 49.5l25 -72q-46 -28 -137 -50t-213 -22q-113 0 -219 39t-188.5 118t-132.5 199t-50 282z" />
<glyph unicode="D" horiz-adv-x="1201" d="M146 157v1226q75 11 158 19.5t177 8.5q180 0 312 -51.5t210 -148.5q71 -84 103 -184t32 -221q0 -53 -8 -111t-26 -117t-47.5 -116t-72.5 -109q-81 -97 -219.5 -151.5t-328.5 -54.5q-76 0 -146.5 1.5t-143.5 8.5zM228 233q39 -7 96.5 -9t124.5 -2q159 0 273.5 45.5 t189 124.5t109.5 185.5t35 227.5v7q0 112 -34 208t-105 166.5t-181 110t-262 39.5q-81 0 -142 -7.5t-104 -17.5v-1078z" />
<glyph unicode="E" horiz-adv-x="848" d="M146 157v1242h607v-75h-525v-474h496v-75h-496v-542h553v-76h-635z" />
<glyph unicode="F" horiz-adv-x="846" d="M146 157v1242h607v-75h-525v-488h480v-76h-480v-603h-82z" />
<glyph unicode="G" horiz-adv-x="1151" d="M63 780q0 73 17 148.5t51.5 145.5t87.5 132t125 108t164 72.5t204 26.5q52 0 99 -6.5t85.5 -16t67.5 -20.5t46 -20l-26 -74q-52 26 -118.5 43.5t-157.5 17.5q-137 0 -242 -44.5t-175.5 -120.5t-106.5 -178t-36 -217q0 -121 36 -223t105 -176.5t169.5 -116t228.5 -41.5 q103 0 171.5 14.5t107.5 37.5v425h-289v74h370v-551q-24 -9 -59 -22t-82.5 -25t-106 -20t-128.5 -8q-127 0 -239.5 40t-205.5 136q-37 39 -67 89t-51.5 109t-33 124.5t-11.5 136.5z" />
<glyph unicode="H" horiz-adv-x="1154" d="M146 157v1242h82v-543h699v543h81v-1242h-81v623h-699v-623h-82z" />
<glyph unicode="I" horiz-adv-x="373" d="M146 157v1242h82v-1242h-82z" />
<glyph unicode="J" horiz-adv-x="627" d="M10 170l20 74q23 -13 58.5 -22.5t80.5 -9.5q58 0 103.5 17.5t76.5 60.5t47.5 115t16.5 182v812h81v-836q0 -86 -13 -151.5t-35.5 -113t-54 -79t-67.5 -50.5t-75.5 -26.5t-79.5 -7.5q-22 0 -45.5 3t-45 8.5t-39.5 11.5t-29 12z" />
<glyph unicode="K" horiz-adv-x="895" d="M146 157v1242h82v-635h6q25 36 51 66.5t51 58.5l445 510h104l-472 -528l521 -714h-102l-476 657l-128 -144v-513h-82z" />
<glyph unicode="L" horiz-adv-x="814" d="M146 157v1242h82v-1166h553v-76h-635z" />
<glyph unicode="M" horiz-adv-x="1402" d="M111 157l90 1242h92l269 -740q43 -118 75.5 -214.5t57.5 -181.5h3q23 79 56.5 174.5t81.5 219.5l282 742h96l79 -1242h-79l-35 586q-4 70 -8.5 147t-8.5 151.5t-6.5 141.5t-2.5 117h-4q-34 -99 -74.5 -211t-92.5 -253l-258 -679h-63l-242 669q-52 145 -90.5 260 t-65.5 214h-5q-2 -54 -4 -121.5t-5 -143t-7.5 -155t-11.5 -155.5l-39 -568h-80z" />
<glyph unicode="N" horiz-adv-x="1171" d="M146 157v1242h76l506 -765q39 -58 71 -106.5t59.5 -91.5t51.5 -83t46 -81l3 3q-10 108 -12 224t-2 260v640h80v-1242h-74l-490 739q-72 109 -134 205t-107 181l-5 -4q4 -53 6.5 -105t3.5 -107t1 -115.5v-129.5v-664h-80z" />
<glyph unicode="O" horiz-adv-x="1249" d="M63 762q0 147 43.5 268.5t120 208.5t180 135t223.5 48q123 0 225.5 -47.5t176 -131.5t114 -198.5t40.5 -248.5q0 -162 -47.5 -285.5t-126.5 -207t-181 -126t-211 -42.5h-1q-120 0 -221.5 47t-176 130.5t-116.5 198.5t-42 251zM148 766q0 -110 32.5 -211t94 -178 t148.5 -122.5t197 -45.5h2q111 0 200 44t151 121.5t95.5 183.5t33.5 229q0 101 -30 201.5t-89.5 180.5t-148.5 129.5t-207 49.5q-120 0 -209.5 -48t-149.5 -128.5t-90 -185.5t-30 -220z" />
<glyph unicode="P" horiz-adv-x="909" d="M146 157v1230q54 10 120.5 17t144.5 7q114 0 193 -28.5t130 -82.5q45 -45 67.5 -104.5t22.5 -137.5q0 -160 -86 -255q-58 -69 -149 -102t-203 -33q-43 0 -83 3t-75 16v-530h-82zM228 766q35 -13 77.5 -18t90.5 -5q168 0 257.5 80.5t89.5 224.5q0 80 -26.5 135t-72 89 t-106.5 49t-129 15q-63 0 -109.5 -6t-71.5 -12v-552z" />
<glyph unicode="Q" horiz-adv-x="1249" d="M63 760q0 149 43.5 271t120 209t180.5 134.5t225 47.5q122 0 224 -47.5t175.5 -131.5t114 -198.5t40.5 -248.5q0 -126 -29.5 -229.5t-82.5 -183t-126.5 -134t-162.5 -83.5v-7q54 -11 109 -23.5t108.5 -24t103 -21t92.5 -15.5l-24 -85q-127 29 -250 62t-229 65 q-19 5 -35.5 11.5t-35.5 6.5q-117 4 -219 49t-178 125.5t-120 194.5t-44 256zM148 762q0 -110 33 -210.5t94 -176.5t148 -121t196 -45h1q111 0 200 44t151.5 121.5t96.5 183.5t34 229q0 101 -30 201.5t-89 180.5t-147 129.5t-204 49.5q-121 0 -212 -48.5t-151.5 -129.5 t-90.5 -187t-30 -221z" />
<glyph unicode="R" horiz-adv-x="911" d="M146 157v1226q28 7 61.5 12.5t69.5 9t72.5 5t68.5 1.5q120 0 198 -28t129 -83q36 -37 57.5 -95t21.5 -122q0 -62 -17 -113.5t-47.5 -92t-72.5 -70t-93 -47.5v-3q68 -26 112.5 -93t64.5 -160q16 -74 29 -129.5t23.5 -97t20 -70.5t18.5 -50h-86q-14 27 -33 104.5t-42 194.5 q-26 133 -87.5 199t-173.5 72h-212v-570h-82zM228 801h215q69 0 124.5 19.5t94.5 54.5t60 84t21 109q0 75 -26 126.5t-70 83t-103.5 45.5t-126.5 14q-70 0 -118 -6.5t-71 -13.5v-516z" />
<glyph unicode="S" horiz-adv-x="838" d="M76 228l32 75q55 -42 125 -67t151 -25q68 0 122.5 19t92 53.5t57.5 82t20 105.5q0 53 -13.5 95.5t-43.5 77t-78 63t-118 53.5q-84 30 -144 64.5t-97.5 76t-55 91.5t-17.5 111q0 68 25 126.5t71 101t110 67t141 24.5q90 0 153 -20t96 -43l-32 -76q-12 9 -32.5 20.5 t-48.5 21.5t-63 16.5t-76 6.5q-76 0 -126.5 -22.5t-81 -56.5t-43.5 -75t-13 -78q0 -50 14 -89.5t44.5 -72t78 -59.5t115.5 -52q76 -28 135 -60t98.5 -74t60 -97.5t20.5 -131.5q0 -65 -22 -126.5t-68 -110.5t-118 -78.5t-172 -29.5q-39 0 -81 6.5t-82 19t-75.5 29.5t-60.5 38 z" />
<glyph unicode="T" horiz-adv-x="846" d="M-33 1324v75h913v-75h-416v-1167h-81v1167h-416z" />
<glyph unicode="U" horiz-adv-x="1146" d="M146 681v718h82v-716q0 -127 26.5 -216.5t72 -146.5t106.5 -83t130 -26q78 0 143.5 27.5t113 85t73.5 147t26 212.5v716h81v-709q0 -150 -35.5 -255.5t-96 -172t-140.5 -97t-169 -30.5q-82 0 -156.5 28.5t-131.5 93t-91 168.5t-34 256z" />
<glyph unicode="V" horiz-adv-x="904" d="M-13 1399h86l220 -683q46 -144 82.5 -257t62.5 -210h3q29 100 70.5 214t90.5 251l249 685h88l-465 -1242h-80z" />
<glyph unicode="W" horiz-adv-x="1462" d="M19 1399h82l178 -712q28 -121 55.5 -229t45.5 -188h3q16 77 46.5 185t66.5 232l205 712h80l181 -711q14 -56 28 -113.5t27 -111.5t23.5 -103.5t17.5 -89.5h4q19 88 48 189t64 226l207 714h83l-369 -1242h-80l-181 712q-19 73 -33.5 133t-26 111.5t-20 96t-14.5 85.5h-4 q-7 -41 -17.5 -84.5t-24.5 -94.5t-31.5 -110.5t-38.5 -132.5l-209 -716h-79z" />
<glyph unicode="X" horiz-adv-x="995" d="M53 157l392 629l-376 613h97l199 -334q42 -70 72.5 -121.5t56.5 -96.5h4q27 47 59 97t75 119l212 336h98l-401 -607l401 -635h-96l-186 294q-31 50 -56 89.5t-45.5 71.5t-37 59t-31.5 53h-4q-14 -26 -29 -53t-34 -59t-43.5 -71.5t-56.5 -91.5l-174 -292h-96z" />
<glyph unicode="Y" horiz-adv-x="897" d="M20 1399h92l207 -387q42 -73 74.5 -133.5t62.5 -125.5h3q28 60 62.5 123.5t76.5 135.5l218 387h93l-417 -714v-528h-81v531z" />
<glyph unicode="Z" horiz-adv-x="1003" d="M61 157v62l765 1099v6h-701v75h809v-62l-767 -1099v-5h778v-76h-884z" />
<glyph unicode="[" horiz-adv-x="553" d="M184 -330v1880h379v-78h-287v-1725h287v-77h-379z" />
<glyph unicode="\" horiz-adv-x="532" d="M2 1512h104l426 -1362h-98z" />
<glyph unicode="]" horiz-adv-x="553" d="M-10 -253h286v1725h-286v78h379v-1880h-379v77z" />
<glyph unicode="^" horiz-adv-x="1221" d="M143 576l420 930h94l420 -930h-96l-369 838h-4l-368 -838h-97z" />
<glyph unicode="_" horiz-adv-x="1024" d="M0 21h1024v-102h-1024v102z" />
<glyph unicode="`" horiz-adv-x="614" d="M59 1592h152l186 -287h-78z" />
<glyph unicode="a" horiz-adv-x="823" d="M69 379q0 74 31 134.5t95.5 103t163 65.5t233.5 24h17v19q0 17 -2 43.5t-9.5 55.5t-22 58.5t-39.5 53t-62.5 38.5t-90.5 15q-60 0 -119 -17.5t-110 -56.5l-26 64q65 49 134.5 67.5t127.5 18.5q67 0 115.5 -18t82 -47.5t53.5 -68.5t31 -80.5t14.5 -82.5t3.5 -76v-320 q0 -54 2.5 -107.5t10.5 -107.5h-75l-12 137h-4q-15 -26 -41.5 -54t-63.5 -51.5t-83 -38.5t-101 -15q-68 0 -116 23t-79 59t-45 79t-14 83zM157 395q0 -47 14 -82t38 -58t55 -34.5t66 -11.5q58 0 102.5 17t77.5 43.5t54.5 58.5t33.5 62q6 14 8.5 27t2.5 24v188 q-12 0 -23.5 0.5t-23.5 0.5q-74 0 -146.5 -10t-130 -36.5t-93 -72t-35.5 -116.5z" />
<glyph unicode="b" horiz-adv-x="1016" d="M139 157q5 54 6 107.5t1 107.5v1105h82v-618h2q21 44 52 82t72.5 65.5t93 43t114.5 15.5q88 0 158.5 -36t120.5 -97.5t77 -144t27 -174.5q0 -117 -34 -206.5t-89.5 -150t-127 -91t-145.5 -30.5q-105 0 -187 44.5t-140 148.5h-8v-171h-75zM228 509q0 -16 1.5 -33.5 t6.5 -34.5q12 -46 39 -88t66 -74t88.5 -51t106.5 -19q75 0 136 28.5t103.5 81t65.5 126t23 164.5q0 77 -22 146.5t-63 122t-100 83t-133 30.5q-49 0 -96.5 -15.5t-88.5 -46.5t-72.5 -77.5t-48.5 -108.5q-5 -16 -8.5 -35.5t-3.5 -45.5v-153z" />
<glyph unicode="c" horiz-adv-x="826" d="M71 587q0 111 35 199.5t96 150.5t143.5 95t178.5 33q44 0 83 -6t70 -15.5t54 -20.5t35 -21l-30 -74q-35 23 -88 41t-131 18q-89 0 -157 -30.5t-114 -83t-70 -123.5t-24 -152q0 -87 26.5 -158t74 -121.5t112 -78.5t140.5 -28q42 0 77 6.5t63.5 15.5t51 19.5t39.5 18.5 l24 -72q-13 -7 -37.5 -18t-58.5 -21.5t-77.5 -18t-94.5 -7.5q-95 0 -173 34.5t-133 95.5t-85 143.5t-30 178.5z" />
<glyph unicode="d" horiz-adv-x="999" d="M71 580v7q0 106 31.5 194t86 151t128 98t156.5 35q61 0 110 -16.5t86 -41.5t61.5 -55t37.5 -57h3v582h82v-1105q0 -54 1 -107.5t5 -107.5h-79v185h-4q-17 -42 -46 -79.5t-69.5 -66t-92.5 -45t-114 -16.5q-84 0 -154.5 35t-121 95.5t-79 141.5t-28.5 173zM152 590 q0 -75 19.5 -143.5t59.5 -121.5t100.5 -84.5t141.5 -31.5q51 0 97.5 18.5t85 51t66 77t39.5 97.5q10 33 10 77v157q0 19 -2.5 42.5t-7.5 43.5q-13 45 -38.5 84.5t-62 69.5t-83.5 47t-103 17q-71 0 -130 -29t-102 -81.5t-66.5 -126.5t-23.5 -164z" />
<glyph unicode="e" horiz-adv-x="891" d="M71 578q0 112 30.5 202.5t84 153.5t126.5 97t158 34q74 0 128 -22t92.5 -57.5t63 -80.5t38.5 -90.5t19 -87.5t5 -72v-32.5t-2 -22.5h-664q0 -97 26 -169.5t72 -121t107.5 -73t132.5 -24.5q51 0 90.5 5t69.5 13t53 18t42 20l22 -72q-11 -5 -33.5 -15.5t-57.5 -20.5 t-83 -17.5t-111 -7.5q-93 0 -168.5 33t-129 92.5t-82.5 140.5t-29 177zM157 671h575q0 23 -3.5 56t-13.5 68.5t-29 70.5t-49 63t-74 45t-104 17q-76 0 -130.5 -31t-90.5 -78.5t-55.5 -104t-25.5 -106.5z" />
<glyph unicode="f" horiz-adv-x="473" d="M25 970v72h121v42q0 115 22.5 198.5t73.5 137.5q38 38 85.5 58.5t103.5 20.5q44 0 78 -10t53 -23l-26 -70q-19 11 -44.5 19.5t-66.5 8.5q-61 0 -99.5 -27.5t-60 -74t-29.5 -108t-8 -128.5v-44h233v-72h-233v-813h-82v813h-121z" />
<glyph unicode="g" horiz-adv-x="999" d="M71 589q0 111 33.5 199.5t89.5 150t127.5 94t148.5 32.5q66 0 116.5 -17.5t88 -44.5t62.5 -60t39 -65h9v164h74q-4 -54 -5 -107t-1 -107v-540q0 -81 -9 -145t-25 -114t-38.5 -87.5t-50.5 -65.5q-31 -32 -68 -52.5t-76.5 -33.5t-79 -18t-75.5 -5q-37 0 -76.5 5.5t-77 16 t-71 27t-58.5 37.5l29 72q49 -35 114.5 -59.5t153.5 -24.5q71 0 131 21t103.5 66t67.5 116.5t24 172.5v129h-3q-17 -36 -45.5 -70t-68 -60.5t-90.5 -42.5t-113 -16q-85 0 -155 36t-120 96t-77.5 138t-27.5 162zM152 600q0 -66 19 -132t58.5 -118.5t100.5 -85.5t144 -33 q48 0 91.5 16t80.5 44t65 67t44 85q8 21 12 46t4 50v148q0 26 -2 48.5t-9 42.5q-15 44 -40.5 83t-61.5 68t-81 45.5t-99 16.5q-72 0 -131.5 -28t-103 -79.5t-67.5 -123.5t-24 -160z" />
<glyph unicode="h" horiz-adv-x="980" d="M146 157v1320h82v-614h2q20 43 50.5 80.5t72.5 63.5q39 26 84.5 42t94.5 16q19 0 49.5 -4.5t65 -18.5t69.5 -41t63 -72t45.5 -110.5t17.5 -156.5v-505h-81v502q0 64 -13 123t-43 104t-77.5 72t-116.5 27q-48 0 -90.5 -17t-78 -46t-61.5 -66.5t-41 -78.5q-8 -21 -10 -42 t-2 -52v-526h-82z" />
<glyph unicode="i" horiz-adv-x="373" d="M119 1304q0 31 19.5 55t48.5 24t48 -23.5t19 -55.5q0 -30 -18.5 -54.5t-50.5 -24.5h-1q-29 0 -47 24.5t-18 54.5zM146 157v885h82v-885h-82z" />
<glyph unicode="j" horiz-adv-x="382" d="M-96 -159q124 3 184 72q17 21 29.5 47t20.5 67.5t12 104t4 156.5v754h82v-820q0 -115 -18.5 -203t-73.5 -155q-23 -28 -54.5 -46.5t-64 -30t-62.5 -16t-51 -4.5zM128 1304q0 31 19.5 55t50.5 24q29 0 47 -24t18 -55q0 -30 -18 -54.5t-51 -24.5h-1q-31 0 -48 24.5 t-17 54.5z" />
<glyph unicode="k" horiz-adv-x="760" d="M146 157v1320h82v-861h2q17 22 42 50.5t47 51.5l309 324h104l-356 -364l407 -521h-101l-363 468l-91 -97v-371h-82z" />
<glyph unicode="l" horiz-adv-x="373" d="M146 157v1320h82v-1320h-82z" />
<glyph unicode="m" horiz-adv-x="1488" d="M139 1042h83v-171h4q21 41 48 76.5t61.5 61.5t78.5 41t99 15q47 0 87 -17t72 -46t55 -67.5t36 -80.5h3q17 41 39 71.5t45 51.5q21 21 43.5 37t48.5 27.5t56.5 17.5t67.5 6q19 0 47.5 -5t60 -20.5t63.5 -43t57.5 -73.5t41.5 -112.5t16 -158.5v-495h-81v493 q0 168 -61.5 252.5t-170.5 84.5q-42 0 -79 -15.5t-67 -40.5t-52.5 -57t-35.5 -66q-6 -18 -11 -39.5t-5 -46.5v-565h-81v539q0 65 -15.5 118.5t-44 92t-68.5 59.5t-90 21q-45 0 -85 -18.5t-72 -47.5t-55 -65.5t-36 -73.5q-14 -37 -14 -86v-539h-82v671q0 54 -1 107t-6 107z " />
<glyph unicode="n" horiz-adv-x="980" d="M139 1042h83v-177h4q18 41 47.5 77.5t68.5 63.5t87 43t103 16q18 0 48.5 -4.5t65 -18.5t69.5 -41t63 -72t46 -110.5t18 -157.5v-504h-81v504q0 65 -13.5 124t-43.5 104t-77.5 71.5t-115.5 26.5q-48 0 -91 -17t-78.5 -46t-61.5 -67t-40 -80q-5 -16 -8.5 -37.5t-3.5 -42.5 v-540h-82v671q0 54 -1 107t-6 107z" />
<glyph unicode="o" horiz-adv-x="980" d="M71 590q0 111 34.5 199t92.5 149.5t134.5 94t159.5 32.5q96 0 173.5 -35.5t131.5 -97t83 -144.5t29 -177q0 -125 -39.5 -214.5t-101 -148t-137.5 -86t-149 -27.5h-1q-89 0 -164 34t-129.5 95t-85.5 144.5t-31 181.5zM152 596q0 -93 28 -165t74 -121.5t106 -75t124 -25.5 h2q66 0 127.5 26t109 76.5t76.5 124.5t29 170q0 63 -19.5 131t-60.5 124.5t-104.5 93t-151.5 36.5q-84 0 -148 -33t-106.5 -87.5t-64 -126t-21.5 -148.5z" />
<glyph unicode="p" horiz-adv-x="1016" d="M139 1042h84v-184h5q22 45 53.5 82.5t73 65.5t93.5 43.5t114 15.5q88 0 158.5 -36t120.5 -97t77 -142.5t27 -171.5q0 -116 -32.5 -206t-87.5 -151.5t-128 -93.5t-154 -32q-47 0 -92.5 11t-86 33.5t-75 56.5t-59.5 80h-2v-528h-82v969q0 72 -1 142.5t-6 142.5zM228 513 q0 -18 1.5 -35.5t6.5 -34.5q12 -47 39.5 -89.5t66.5 -74.5t88.5 -51t105.5 -19q75 0 136 28.5t103.5 81.5t65.5 128t23 168q0 75 -22 143t-63 120t-100 82.5t-133 30.5q-50 0 -97.5 -15.5t-87.5 -46t-71 -76t-48 -106.5q-5 -18 -9.5 -38.5t-4.5 -38.5v-157z" />
<glyph unicode="q" horiz-adv-x="995" d="M71 580q0 131 38 223t97.5 150.5t132 85t141.5 26.5q63 0 112 -17.5t85.5 -45t61 -61t37.5 -64.5h9v165h74q-4 -54 -5 -107t-1 -107v-1040h-82v539h-3q-17 -37 -45 -71.5t-67.5 -61.5t-90.5 -43t-112 -16q-84 0 -154 35.5t-120.5 96t-79 141.5t-28.5 172zM152 592 q0 -72 18.5 -141t57.5 -123t99 -86.5t143 -32.5q48 0 92 15.5t80.5 43.5t65 67t45.5 86q8 20 13 43.5t5 44.5v179q0 50 -10 87q-13 43 -38.5 82t-61.5 69t-82.5 47.5t-102.5 17.5q-71 0 -130.5 -28t-102.5 -80t-67 -126t-24 -165z" />
<glyph unicode="r" horiz-adv-x="530" d="M139 1042h78v-192h5q15 46 38.5 85.5t54.5 68.5t68.5 45t81.5 16q23 0 40 -7v-82q-11 2 -22.5 2.5t-25.5 0.5q-41 0 -77 -18.5t-65 -52t-49 -80.5t-30 -104q-5 -20 -6.5 -42.5t-1.5 -45.5v-479h-82v600q0 72 -1 142.5t-6 142.5z" />
<glyph unicode="s" horiz-adv-x="677" d="M83 200l29 77q37 -25 88 -45.5t111 -20.5q52 0 90.5 14t63 37.5t36.5 54.5t12 65q0 39 -12 68.5t-35.5 53t-58.5 41.5t-82 35q-109 38 -162.5 99t-53.5 140q0 47 17 91t50 78.5t82 55.5t114 21q58 0 107 -17t84 -43l-31 -74q-9 8 -25 18t-38 19t-50.5 15t-62.5 6 q-41 0 -72 -13t-52 -35t-32 -50.5t-11 -59.5q0 -38 12.5 -65t36 -48t58 -37.5t79.5 -32.5q55 -21 95.5 -45t67.5 -55t40.5 -69.5t13.5 -88.5q0 -54 -19.5 -100.5t-56 -81t-90 -54t-121.5 -19.5q-64 0 -120.5 18t-101.5 47z" />
<glyph unicode="t" horiz-adv-x="562" d="M33 970v72h146v168l82 27v-195h252v-72h-252v-566q0 -41 6 -76t20.5 -60.5t39 -40.5t61.5 -15q36 0 61.5 5t42.5 12l11 -70q-22 -10 -52 -17t-71 -7q-48 0 -85.5 16.5t-62.5 50.5q-29 38 -41 94.5t-12 119.5v554h-146z" />
<glyph unicode="u" horiz-adv-x="972" d="M138 546v496h81v-477q0 -78 12.5 -142.5t41 -111t74.5 -72t112 -25.5q45 0 86.5 15t76 40.5t60.5 59.5t42 73q8 21 14.5 48t6.5 56v536h81v-670q0 -54 1 -107.5t5 -107.5h-81v180h-2q-19 -37 -47 -73.5t-66.5 -65t-88 -46t-109.5 -17.5q-23 0 -54 4.5t-64.5 19t-66 41.5 t-58 72.5t-41.5 112.5t-16 161z" />
<glyph unicode="v" horiz-adv-x="823" d="M23 1042h88l208 -545q28 -75 49.5 -134.5t40.5 -116.5h4q20 59 44.5 119t51.5 132l213 545h85l-362 -885h-73z" />
<glyph unicode="w" horiz-adv-x="1300" d="M40 1042h85l146 -516q22 -81 39.5 -146t33.5 -127h2q17 60 39.5 126t49.5 147l177 516h81l169 -514q28 -84 48 -151t37 -124h4q14 60 33 126t45 147l158 516h84l-289 -885h-73l-162 489q-29 85 -53 162t-42 153h-3q-20 -78 -45.5 -156.5t-54.5 -160.5l-174 -487h-73z" />
<glyph unicode="x" horiz-adv-x="780" d="M16 157l324 454l-304 431h94l152 -218q28 -41 52 -75t49 -74h3q25 40 50.5 75.5t53.5 73.5l153 218h90l-306 -429l322 -456h-96l-159 225q-31 45 -58 86l-54 82h-4q-25 -44 -52 -82t-59 -86l-156 -225h-95z" />
<glyph unicode="y" horiz-adv-x="796" d="M14 1042h89l237 -591q18 -44 36 -94.5t29 -91.5h4q14 41 29.5 90t35.5 103l223 584h88l-282 -715q-42 -105 -77 -185t-69 -140t-68 -103t-74 -75q-25 -21 -49 -35.5t-43.5 -24t-33.5 -14.5t-20 -6l-21 76q31 10 69.5 30.5t76.5 55.5q32 29 73.5 86.5t78.5 152.5 q10 23 10 35t-11 40z" />
<glyph unicode="z" horiz-adv-x="730" d="M27 157v55l476 624q25 33 49.5 64.5t53.5 64.5v3h-545v74h642v-63l-475 -623q-24 -32 -47 -61.5t-48 -59.5v-4h577v-74h-683z" />
<glyph unicode="{" horiz-adv-x="553" d="M45 728v74h13q55 0 88.5 14t51.5 36.5t23.5 51t5.5 57.5q0 45 -6 87.5t-14 87.5q-9 43 -16 85t-7 87q0 70 23.5 121.5t65 85t98.5 49.5t125 16h26v-78h-39q-57 0 -96.5 -13.5t-64 -40t-35.5 -65t-11 -88.5q0 -40 6.5 -80t14.5 -82q8 -40 14 -79.5t6 -81.5q0 -37 -9.5 -70 t-27 -59.5t-41.5 -45.5t-53 -28v-4q29 -9 53 -29t41.5 -47.5t27 -61t9.5 -69.5q0 -42 -6 -82t-14 -80q-8 -42 -14.5 -82t-6.5 -82q0 -209 207 -209h39v-77h-26q-66 0 -123 15.5t-99 50.5t-66 91t-24 138q0 42 7 82.5t16 80.5q8 42 14 82t6 82q0 25 -5.5 53.5t-24 52t-53 39 t-92.5 15.5h-7z" />
<glyph unicode="|" horiz-adv-x="449" d="M180 -413v2048h88v-2048h-88z" />
<glyph unicode="}" horiz-adv-x="553" d="M31 23h39q206 0 206 209q0 42 -6 82t-14 82q-8 40 -14 80t-6 82q0 36 9.5 69.5t26.5 61t41.5 47.5t53.5 29v4q-29 9 -53.5 28t-41.5 45.5t-26.5 59.5t-9.5 70q0 42 6 81.5t14 79.5q8 42 14 82t6 80q0 50 -10.5 88.5t-35 65t-64 40t-96.5 13.5h-39v78h26q67 0 124.5 -16 t99 -49.5t65 -85t23.5 -121.5q0 -45 -6.5 -87t-14.5 -85q-9 -45 -15.5 -87.5t-6.5 -87.5q0 -29 5.5 -57.5t23.5 -51t51 -36.5t89 -14h13v-74h-8q-57 0 -91.5 -15.5t-53 -39t-24 -52t-5.5 -53.5q0 -42 6.5 -82t15.5 -82q8 -40 14.5 -80.5t6.5 -82.5q0 -82 -24 -138t-66 -91 t-99 -50.5t-123 -15.5h-26v77z" />
<glyph unicode="~" horiz-adv-x="1221" d="M85 482v11q0 60 19 107t51 79.5t73 49.5t85 17q31 0 58 -4.5t60 -15.5t77 -29t108 -45l80.5 -34.5t76 -29t74 -20.5t73.5 -8q137 0 137 184h78q0 -7 0.5 -13t0.5 -12q0 -68 -20 -115.5t-52 -77.5t-71.5 -43.5t-79.5 -13.5q-26 0 -54 4t-64 14.5t-84 28.5t-113 46 q-40 17 -76.5 33.5t-71 30t-68.5 22t-69 8.5q-72 0 -109.5 -47t-37.5 -138h-80q-1 5 -1 11z" />
<glyph unicode="&#xa4;" horiz-adv-x="1085" d="M96 219l131 129q-18 18 -33.5 45t-27.5 60t-18.5 69.5t-6.5 73.5q0 85 26.5 152t68.5 112l-140 131l64 65l133 -141q46 40 110.5 64t137.5 24h2q78 0 142 -24t106 -64l145 141l63 -63l-151 -133q18 -20 33 -47.5t26 -59.5t17 -67t6 -70q0 -88 -24 -156t-54 -102l139 -139 l-63 -64l-137 144q-52 -48 -120.5 -69t-135.5 -21q-35 0 -70 5.5t-67 16t-60 25t-49 32.5l-133 -133zM236 602q0 -88 30 -148t74.5 -97t96 -53t95.5 -16q50 0 104 15t98.5 52.5t73 100.5t28.5 158q0 50 -17.5 104.5t-54.5 100t-93.5 75t-135.5 29.5h-3q-73 0 -128 -28 t-92.5 -73.5t-56.5 -103t-19 -116.5z" />
<glyph unicode="&#xa6;" horiz-adv-x="451" d="M201 -389v842h75zM201 772v846h75v-846h-75z" />
<glyph unicode="&#xa7;" horiz-adv-x="1126" d="M109 794q0 84 27 142.5t68.5 97.5t91.5 61t95 33q-45 26 -74.5 52.5t-46.5 55.5t-23.5 62.5t-6.5 73.5q0 76 30 126t76.5 79t103 41t109.5 12q67 0 125 -16.5t101 -55.5t67.5 -102t24.5 -156v-8h-91q0 75 -16 124t-46 77.5t-72.5 39.5t-94.5 11q-7 0 -26 -1t-43.5 -6 t-51 -16.5t-48.5 -31.5t-36 -51t-14 -76q0 -54 18.5 -87.5t59.5 -60t107.5 -53.5t162.5 -68q75 -32 136 -66t104.5 -77t67.5 -99t24 -132q0 -83 -27.5 -143.5t-69 -101.5t-89.5 -65.5t-89 -36.5q46 -22 75.5 -49t46 -57t22.5 -62t6 -63q0 -59 -20 -110t-61 -89t-103 -60 t-146 -22q-72 0 -125 15.5t-90.5 41.5t-62 61t-38 74t-19 80t-5.5 79h90q0 -21 3 -49t12 -57.5t26 -58t44.5 -51t68 -36t96.5 -13.5q45 0 86.5 10.5t74 33.5t52 58.5t19.5 86.5q0 58 -24 94t-66.5 61.5t-100.5 47t-125 49.5q-93 38 -162.5 78.5t-115.5 89t-69 107t-23 132.5 zM211 800q0 -72 22 -122.5t72.5 -92t133 -79.5t204.5 -86q97 27 152 67t81.5 82t32.5 80.5t6 62.5q0 69 -23.5 118.5t-76 90t-136 76.5t-202.5 78q-43 -6 -90 -23t-86 -49.5t-64.5 -82t-25.5 -120.5z" />
<glyph unicode="&#xa9;" horiz-adv-x="1638" d="M102 910q0 98 25.5 189.5t71.5 171t111 145.5t145 112.5t172 72.5t192 26q98 0 189.5 -25.5t171 -72t145.5 -112t112.5 -145t72.5 -171.5t26 -191q0 -100 -26 -191.5t-72.5 -171t-112.5 -145t-145.5 -112t-171 -72t-189.5 -25.5q-100 0 -192 26t-172 72.5t-145 112.5 t-111 145.5t-71.5 171t-25.5 189.5zM184 910q0 -90 22 -174t63 -156.5t98.5 -132.5t128 -103t152 -66.5t171.5 -23.5q86 0 167 23.5t151.5 66t129 102.5t100 132.5t64.5 156.5t23 175t-23.5 175.5t-65.5 157t-100.5 132t-129 102t-151 65.5t-165.5 23q-89 0 -170 -23 t-152 -65.5t-128.5 -102.5t-98.5 -132.5t-63.5 -156.5t-22.5 -175zM487 912q0 87 20.5 158.5t62 121.5t103.5 77.5t146 27.5q58 0 110.5 -16t93 -46.5t64.5 -74.5t25 -99h-90q-3 31 -14.5 60.5t-34.5 52.5t-61 37t-93 14q-58 0 -98.5 -18.5t-66.5 -47.5t-40.5 -64.5 t-21.5 -70.5t-8.5 -65t-1.5 -47q0 -71 15 -120.5t38 -82.5t51.5 -51.5t56 -27.5t50.5 -11t36 -2q61 0 99.5 21.5t61 51t31.5 60.5t11 51h90q-3 -18 -10 -44t-20.5 -54.5t-34.5 -56.5t-53 -50.5t-75.5 -36.5t-101.5 -14q-78 0 -141 24.5t-107.5 71.5t-68 115t-23.5 156z" />
<glyph unicode="&#xab;" horiz-adv-x="999" d="M143 528l289 375h74l-238 -375l238 -374h-76zM514 528q2 0 287 375h76l-238 -375l238 -374h-78z" />
<glyph unicode="&#xac;" horiz-adv-x="1221" d="M82 707v81h1057v-520h-90v439h-967z" />
<glyph unicode="&#xad;" horiz-adv-x="737" d="M45 576v86h684v-86h-684z" />
<glyph unicode="&#xae;" horiz-adv-x="1638" d="M102 913q0 99 25.5 190.5t72.5 171t112.5 145t145 112.5t171 72.5t190.5 25.5q100 0 192 -25.5t171.5 -72.5t145 -112.5t111.5 -145t71.5 -171t25.5 -190.5t-25.5 -190.5t-71.5 -171t-111.5 -145t-145 -112.5t-171.5 -72.5t-192 -25.5q-99 0 -190.5 25.5t-171 72.5 t-145 112.5t-112.5 145t-72.5 171t-25.5 190.5zM184 913q0 -90 23 -174t64.5 -156.5t99.5 -132.5t128.5 -103t151.5 -66.5t168 -23.5q134 0 250 51.5t201.5 140.5t134.5 208.5t49 255.5q0 137 -49.5 256.5t-135.5 208t-202 139.5t-248 51q-86 0 -166.5 -23t-151 -65.5 t-129 -102.5t-100.5 -132.5t-65 -156.5t-23 -175zM557 561v716h309q85 0 133.5 -23.5t73 -56t31 -68t6.5 -59.5q0 -39 -12.5 -68.5t-30.5 -50t-39 -33.5t-39 -20v-4q34 -8 54 -24.5t30 -38.5t13.5 -47.5t5.5 -52.5q2 -41 2.5 -67.5t2.5 -45t7 -31.5t16 -26h-96 q-9 10 -14 20.5t-7.5 27.5t-3.5 44t-2 71q-1 25 -4.5 49t-18.5 43t-46 30.5t-88 11.5h-193v-297h-90zM647 929h197q33 0 64 8t55 25t38.5 43.5t14.5 64.5q0 42 -16.5 68.5t-43.5 41.5t-60.5 20.5t-66.5 5.5h-182v-277z" />
<glyph unicode="&#xaf;" horiz-adv-x="1225" d="M-23 1544v86h1330v-86h-1330z" />
<glyph unicode="&#xb0;" horiz-adv-x="889" d="M168 1352q0 53 24 101t64.5 84t93 57.5t109.5 21.5q59 0 112 -21.5t93.5 -57.5t64 -84t23.5 -101q0 -59 -23.5 -108.5t-64 -86.5t-93.5 -57.5t-112 -20.5q-56 0 -108.5 20.5t-93 57t-65 86.5t-24.5 109zM219 1352q0 -48 19.5 -87t52.5 -67t76.5 -43.5t91.5 -15.5 q49 0 93 15.5t77 43.5t52 67t19 87q0 41 -19 78.5t-52 66t-77 45.5t-93 17q-48 0 -91.5 -17t-76.5 -45.5t-52.5 -66t-19.5 -78.5z" />
<glyph unicode="&#xb1;" horiz-adv-x="1221" d="M82 0v82h1057v-82h-1057zM82 655v82h483v424h90v-424h484v-82h-484v-440h-90v440h-483z" />
<glyph unicode="&#xb4;" horiz-adv-x="737" d="M299 1378l131 244h178l-211 -244h-98z" />
<glyph unicode="&#xb6;" horiz-adv-x="1085" d="M72 1182q0 51 10.5 104t35.5 103t67.5 94t106 76.5t151 51.5t202.5 19q91 0 142.5 -4t82.5 -10v-1470h-88v1402h-153v-1402h-88v634h-19q-78 0 -158 24.5t-145 74.5t-106 125.5t-41 177.5z" />
<glyph unicode="&#xb7;" horiz-adv-x="692" d="M276 496v163h166v-163h-166z" />
<glyph unicode="&#xba;" horiz-adv-x="614" d="M61 1149q0 56 19.5 103t53 81t79 53t96.5 19h2q61 0 106.5 -20.5t75.5 -54t45 -76t15 -87.5q0 -60 -22.5 -106.5t-58 -79t-80 -49.5t-89.5 -17q-56 0 -100.5 19.5t-76 52t-48.5 75t-17 87.5zM139 1151q0 -35 12.5 -66t35 -53.5t53 -35.5t65.5 -13q37 0 68 13.5t53.5 37.5 t35.5 57t13 72q0 23 -7 53t-26 57t-52 45.5t-85 18.5h-2q-45 0 -76.5 -18t-51 -45t-28 -60t-8.5 -63z" />
<glyph unicode="&#xbb;" horiz-adv-x="999" d="M164 152l237 374l-237 375h78l284 -377l-284 -372h-78zM537 152l235 374l-235 375h73l283 -375l-283 -374h-73z" />
<glyph unicode="&#x2da;" horiz-adv-x="770" d="M199 1430q0 38 16 73t44 62t65.5 43t81.5 16q41 0 78.5 -16t66 -43t45 -62.5t16.5 -75.5q0 -42 -16.5 -78.5t-44.5 -64t-65 -43.5t-78 -16q-47 0 -85.5 16.5t-66 44t-42.5 65t-15 79.5zM274 1430q1 -21 8.5 -43.5t24 -41t43.5 -30.5t66 -12q31 0 54 11.5t38 29.5t22 40 t7 43q0 22 -8 43.5t-23.5 39t-40 28t-57.5 10.5q-35 0 -60 -10t-41.5 -26.5t-24.5 -38t-8 -43.5z" />
<glyph unicode="&#x2dc;" horiz-adv-x="737" d="M29 1432q12 48 28.5 83t41.5 58q26 24 62 35.5t72 11.5q31 0 74.5 -16.5t106.5 -40.5q42 -19 72 -27t61 -8q49 0 77.5 18.5t43.5 75.5h73q-14 -94 -65 -141t-123 -47q-35 0 -78 15t-100 42q-90 41 -133 41q-52 0 -85.5 -23t-45.5 -77h-82z" />
<glyph unicode="&#x10d0;" horiz-adv-x="780" d="M80 462q0 105 63 185l68 -39q-46 -55 -46 -146q0 -113 71 -173q74 -59 159 -59q86 0 151 59t65 196q0 173 -177 283q-158 99 -158 209q0 6 0.5 12.5t1.5 12.5h90q-1 -5 -1.5 -10.5t-0.5 -10.5q0 -96 158 -195q176 -111 176 -301q0 -170 -91 -252q-92 -83 -214 -83 q-134 0 -225 81q-90 81 -90 231z" />
<glyph unicode="&#x10d1;" horiz-adv-x="810" d="M80 550q0 150 81 266q82 116 216 136q39 103 39 188q0 131 -97 213q-164 113 -164 254v3h100q0 -2 -0.5 -4.5t-0.5 -5.5q0 -89 135 -212q109 -87 109 -243q0 -90 -34 -195q112 -33 189 -138q77 -107 77 -262q0 -164 -92 -283q-92 -117 -233 -117q-140 0 -233 116 q-92 119 -92 284zM170 550q0 -144 75 -232t160 -88q98 0 167 92q69 91 69 228q0 135 -68 227q-68 93 -166 93q-108 0 -172 -93q-65 -92 -65 -227z" />
<glyph unicode="&#x10d2;" horiz-adv-x="907" d="M70 18q0 176 107 304q136 127 274 127q156 114 156 270q0 62 -51 115q-50 53 -135 53q-86 0 -135 -45t-49 -106q0 -74 29 -101l-63 -55q-53 77 -53 151q0 109 81 172t190 63q119 0 195 -70q78 -71 78 -176q0 -168 -141 -279q126 -53 204 -156q79 -100 79 -267v-5 q0 -168 -113 -296q-112 -127 -278 -127q-146 0 -261 127q-114 127 -114 301zM160 18q0 -163 95 -255q94 -93 190 -93q130 0 214 92q83 92 85 256q-2 151 -92 253q-90 103 -199 103q-116 0 -204 -103q-89 -104 -89 -253z" />
<glyph unicode="&#x10d3;" horiz-adv-x="1224" d="M80 579q0 197 89 284q88 87 205 87q126 0 222 -129q90 129 232 129q138 0 226 -115q90 -116 90 -270q0 -185 -92 -301q-92 -114 -224 -114t-224 116q-91 115 -91 284q0 98 38 194q-65 126 -158 126q-92 0 -158 -68q-65 -68 -65 -223q0 -190 107 -348q108 -156 294 -271 q327 -169 388 -355h-107q-81 147 -157 199q-75 51 -172 52q-104 -2 -237 -39v102h190v6q-198 126 -297 287t-99 367zM603 550q0 -157 69 -239q70 -81 156 -81q74 0 150 79q77 80 77 251q0 125 -68 217q-68 93 -158 93q-87 0 -157 -84q-69 -83 -69 -236z" />
<glyph unicode="&#x10d4;" horiz-adv-x="820" d="M70 -75q0 149 125 250l55 -51q-90 -84 -90 -199q0 -120 75 -187q77 -68 155 -68q100 0 171 65q70 64 70 188v713q0 122 -54.5 178t-149.5 56q-91 0 -149 -58q-59 -59 -59 -129q0 -105 72 -163l-69 -52q-83 74 -83 203q0 124 76 200q76 79 205 79t214 -73q86 -74 86 -241 v-713q0 -174 -99 -253q-98 -80 -231 -80q-125 0 -223 89q-97 88 -97 246z" />
<glyph unicode="&#x10d5;" horiz-adv-x="800" d="M70 -75q0 155 125 250l31 -66q-66 -69 -66 -184q0 -107 74 -181q77 -74 161 -74q112 0 173 73q62 74 62 192v138q0 77 -55 150q-56 75 -115 75h-96v77h97q54 0 111 71q58 70 58 202q0 92 -65 157t-158 65q-88 0 -152 -54t-64 -133q0 -74 42 -123l-66 -56q-57 73 -57 167 q0 129 86 204q87 75 209 75q148 0 230 -82q85 -81 85 -222q0 -194 -179 -301v-15q179 -110 179 -267v-128q0 -172 -80.5 -258.5t-244.5 -86.5q-142 0 -234 95q-91 94 -91 240z" />
<glyph unicode="&#x10d6;" horiz-adv-x="828" d="M10 1330q0 121 77 210q78 90 199 90q131 0 208 -89t77 -204t-51 -197q-25 -42 -68 -90.5t-104 -106.5l74 7q122 0 224 -104t102 -296q-1 -182 -99 -292q-98 -108 -227 -108q-126 0 -226 114q-99 114 -99 286q0 118 44 223q22 51 73.5 112t132.5 136h-62q-93 0 -185 86 q-90 88 -90 223zM95 1329q0 -105 69 -177q69 -71 129 -71q69 0 132 54q63 55 63 197q0 88 -55 152q-56 66 -145 66q-76 0 -134 -63q-59 -65 -59 -158zM190 550q0 -156 72 -238q73 -82 160 -82q93 0 163 82t70 238q0 130 -65 225t-168 95q-122 0 -177 -90q-55 -88 -55 -230z " />
<glyph unicode="&#x10d7;" horiz-adv-x="1265" d="M80 550q0 169 97 284q98 116 228 116q67 0 140 -40q75 -40 125 -124q43 82 102.5 123t126.5 41q126 0 206 -107t80 -279q0 -265 -227 -421h-107q240 163 240 422q0 152 -61 228q-62 77 -130 77q-73 0 -122 -57q-23 -28 -41 -54.5t-31 -52.5q24 -83 24 -156 q0 -158 -94 -279q-93 -121 -231 -121q-142 0 -233 123q-92 125 -92 277zM170 550q0 -138 71 -230q70 -90 164 -90q91 0 163 88t72 232q0 148 -75 234q-74 86 -160 86q-95 0 -165 -91q-70 -88 -70 -229z" />
<glyph unicode="&#x10d8;" horiz-adv-x="810" d="M80 580q0 175 86 273q85 97 239 97t239 -97q86 -98 86 -273q0 -215 -156 -420h-79q145 223 145 423q0 123 -68 206q-68 81 -167 81q-100 0 -167 -81q-68 -83 -68 -206q0 -179 145 -423h-78q-157 226 -157 420z" />
<glyph unicode="&#x10d9;" horiz-adv-x="790" d="M60 -75q0 155 125 250l36 -67q-71 -63 -71 -183q0 -104 72 -179q73 -76 163 -76q85 0 159 69q74 68 74 186v91q0 156 -83 233t-163 77h-85v82h87q87 0 148 58q62 59 62 148q0 144 -241 256l11 80q326 -131 326 -328q0 -82 -44 -141q-42 -57 -173 -107v-18 q122 -24 184 -125q63 -101 63 -211v-95q0 -147 -93 -241q-91 -94 -232 -94q-143 0 -234 97q-91 94 -91 238z" />
<glyph unicode="&#x10da;" horiz-adv-x="1588" d="M80 563q0 172 69 274q70 103 204 103q91 0 149 -45.5t84 -127.5h15q16 91 67.5 142t136.5 51q88 0 135.5 -51t64.5 -142h16q25 82 81.5 127.5t137.5 45.5q268 0 268 -327q0 -211 -190 -416h-76q179 230 179 416q0 247 -180 247q-112 0 -150 -83q-38 -87 -38 -206v-149 h-85v153q0 159 -29 234q-29 71 -133 71q-101 0 -134 -71q-32 -75 -35 -234v-153h-86v153q0 114 -38 201q-38 84 -163 84q-64 0 -122 -67t-58 -232q0 -230 190 -387q191 -156 433 -236q255 -87 408 -311h-115q-131 182 -308 238q-57 18 -114 18q-18 0 -35.5 -2t-34.5 -5 q-93 -18 -266 -72l-17 104l291 25l1 17q-292 111 -407 274q-116 164 -116 339z" />
<glyph unicode="&#x10db;" horiz-adv-x="831" d="M80 550q2 158 95 278q95 122 230 122q142 0 235 -123l6 1v421q0 82 -11.5 140t-38.5 92q-54 69 -159 69q-103 0 -166 -57t-64 -151q2 -61 44 -127l-89 -37q-42 88 -42 151q3 134 89 217q87 84 227 84q149 0 222 -99t73 -279l-1 -713q0 -159 -94 -274q-93 -115 -231 -115 t-232 120q-93 120 -93 280zM171 544q0 -144 74 -230q75 -84 160 -84q90 0 162 86q73 85 73 219q0 84 -17 147t-47.5 104.5t-74 62.5t-95.5 21q-104 0 -170 -100q-65 -101 -65 -215v-11z" />
<glyph unicode="&#x10dc;" horiz-adv-x="830" d="M100 550v818q0 227 253 227h184q105 0 105 39h82q0 -111 -187 -111h-209q-146 0 -146 -125v-568h20q99 120 223 120q135 0 229 -118q96 -117 96 -282t-93 -283q-93 -117 -232 -117q-140 0 -233 115q-92 116 -92 285zM190 550q0 -135 66 -228q68 -92 169 -92q94 0 165 89 q70 88 70 231t-78 232q-76 88 -154 88q-109 0 -173.5 -79t-64.5 -241z" />
<glyph unicode="&#x10dd;" horiz-adv-x="1250" d="M80 576q0 97 20.5 167.5t59.5 116.5t94.5 68t126.5 22q85 0 144 -50t88 -153h16q29 103 89.5 153t145.5 50q123 0 215 -89q91 -88 91 -286q0 -259 -299 -415h-99q307 175 307 420q0 129 -63 209q-62 81 -150 81q-94 0 -146 -85q-58 -85 -58 -214v-122h-79v122 q0 129 -58 214q-52 85 -142 85q-88 0 -150 -80t-62 -214q0 -238 279 -416h-95q-275 158 -275 416z" />
<glyph unicode="&#x10de;" horiz-adv-x="810" d="M80 502q0 110 90 214l64 -47q-63 -68 -63 -167v-4q0 -48 17.5 -91.5t52.5 -88.5q72 -88 164 -88q97 0 166 86q69 85 69 205q0 164 -94 249t-175 85h-57v80h77q83 0 145 75q62 77 62 176q0 126 -168 188q-168 63 -168 236h77q0 -110 175 -195q176 -86 176 -237 q0 -89 -39 -146q-38 -56 -153 -127v-21q85 -34 158 -124q74 -92 74 -241q0 -126 -92 -248q-91 -121 -233 -121q-133 0 -229 110q-96 111 -96 242z" />
<glyph unicode="&#x10df;" horiz-adv-x="810" d="M60 290v71h107q31 1 62 8.5t55.5 24t39.5 41.5t15 61q0 40 -26 76.5t-65 63.5t-85.5 43t-86.5 16h-14v67q348 28 548 198h100v-1034q0 -74 -25 -136t-68.5 -106.5t-102.5 -69t-127 -24.5q-130 0 -228 86q-97 85 -97 223q0 117 87 200l43 -54q-45 -59 -45 -143 q0 -92 67 -162t173 -70q48 0 92 18.5t77.5 52.5t53.5 81t20 103v943h-28q-166 -142 -395 -142v-14q205 -43 205 -224q0 -103 -59 -150.5t-186 -47.5h-107z" />
<glyph unicode="&#x10e0;" horiz-adv-x="1246" d="M80 561q0 180 101 314q103 137 180.5 238t129.5 173q105 144 175 301h98q-120 -220 -240.5 -385t-236.5 -290l11 -11q58 49 107 49q82 0 132.5 -49t80.5 -152h20q29 103 84.5 152t143.5 49q149 0 224.5 -102t75.5 -287q0 -261 -284 -401h-97q290 164 290 401 q0 142 -59 225q-58 83 -147 85q-86 -2 -141 -86q-62 -86 -62 -200v-131h-79v131q0 116 -57 199q-52 84 -147 86q-89 0 -150 -81q-62 -80 -62 -228q0 -237 283 -400h-105q-269 140 -269 400z" />
<glyph unicode="&#x10e1;" horiz-adv-x="810" d="M100 543v1067h84v-1067q2 -153 67 -233q68 -80 164 -80q90 0 158 84q69 85 69 226q0 113 -85 189q-84 78 -84 161t58 168l74 -41q-57 -59 -57 -121q0 -47 91 -141t91 -215q0 -171 -93 -280q-92 -110 -222 -110q-141 0 -228 116q-87 117 -87 277z" />
<glyph unicode="&#x10e2;" horiz-adv-x="1043" d="M70 273q0 325 134 489q135 163 289 163l-20 300h100l-20 -300q143 0 281 -163q139 -160 139 -489q0 -290 -112 -486q-113 -197 -334 -197q-212 0 -335 196q-122 197 -122 487zM160 273q0 -282 108 -442q108 -161 263 -161q163 0 261 161q97 160 97 442q0 250 -101 426 q-101 174 -235 174l20 -532h-100l20 532q-135 0 -234 -174q-99 -173 -99 -426z" />
<glyph unicode="&#x10e3;" horiz-adv-x="926" d="M20 930l65 33q10 -121 72 -121q42 0 71 54q28 54 68 54h29q26 0 61 -32t50 -109h10q14 76 59 108.5t109 32.5q97 0 154 -69q58 -67 58 -179v-774q0 -160 -85 -248q-86 -90 -228 -90q-154 0 -245 93q-92 92 -92 243q0 143 130 249l30 -68q-69 -74 -69 -176q0 -101 67 -180 q67 -81 178 -81q86 0 160 68q73 67 73 187v804q0 51 -28 100q-26 50 -92 50h-53q-54 0 -74 -54q-20 -58 -20 -127v-232h-73v232q0 37 -7 70t-19 58t-28.5 39t-35.5 14h-19q-17 0 -33.5 -17.5t-32.5 -43.5q-30 -51 -85 -51q-86 0 -125 163z" />
<glyph unicode="&#x10e4;" horiz-adv-x="1165" d="M80 573q0 154 81 265q82 112 217 112q126 0 222 -142q87 142 212 142q104 0 184 -86q79 -85 79 -254q0 -183 -161 -320v-12q136 -100 136 -295v-44q0 -175 -98 -262t-225 -87q-150 0 -238 85q-89 86 -89 202q0 123 79 189l51 -37q-55 -58 -55 -115q0 -92 65 -169 q64 -75 185 -75q86 0 159 67q74 66 74 201v39q0 126 -35.5 199.5t-101.5 73.5h-64v69h64q55 0 108 74q54 75 54 191q0 168 -46 226q-47 60 -137 60q-98 0 -170 -112q29 -124 29 -183q0 -143 -76 -255q-77 -113 -212 -113q-123 0 -207 103t-84 263zM165 572q0 -121 57 -206 q57 -86 149 -86t152 86q60 85 60 206q0 132 -56 215t-149 83q-91 0 -152 -85q-61 -82 -61 -213z" />
<glyph unicode="&#x10e5;" horiz-adv-x="840" d="M80 -75q0 164 125 250l36 -66q-70 -51 -70 -184q0 -90 65 -173q66 -82 169 -82q95 0 167 72q73 72 73 183v728q0 103 -64 160q-65 57 -156 57q-111 0 -150 -57t-39 -132q0 -98 65 -163l-51 -61q-98 113 -98 224v3q0 132 67 199t206 67q103 0 201 -80h24v740h80v-1685 q0 -157 -92 -246t-233 -89q-131 0 -228 94q-97 93 -97 241z" />
<glyph unicode="&#x10e6;" horiz-adv-x="1160" d="M80 590q0 102 23 171t59 111t80.5 60t86.5 18q39 0 76.5 -10.5t69.5 -35t58 -65.5t43 -101h10q15 59 36 99.5t48 65.5t60 36t72 11q67 0 119 -25t87 -68.5t53.5 -103t18.5 -128.5q0 -201 -170 -374h-58q135 166 135 370q0 63 -15.5 109.5t-41 77.5t-59 46.5t-69.5 15.5 q-41 0 -75 -24.5t-59 -67t-38.5 -99t-13.5 -120.5v-146h-72v146q-1 64 -14 120.5t-38 99t-61 67t-82 24.5q-36 0 -68 -12.5t-56 -44t-39 -86t-16 -137.5q0 -133 105 -314q43 -70 104 -128.5t140 -107.5q276 -152 377 -403h-106q-98 237 -278 297q-7 1 -13.5 1h-13.5 q-51 0 -112 -17t-133 -52l-6 110l191 27v13q-345 271 -345 574z" />
<glyph unicode="&#x10e7;" horiz-adv-x="820" d="M70 -75q0 116 80 205l46 -28q-41 -74 -41 -177q0 -105 82 -180t158 -75q98 0 169 65t71 190v442h-14q-101 -107 -215 -107q-148 0 -227 85t-79 256q0 115 47 206t128 148h90q-107 -115 -143 -185q-36 -71 -36 -171q0 -117 65 -194q66 -75 154 -75q94 0 162 69 q68 71 68 180v364h85v-1018q0 -164 -91 -249q-92 -86 -234 -86q-127 0 -226 87q-99 85 -99 248z" />
<glyph unicode="&#x10e8;" horiz-adv-x="883" d="M20 1213v204q0 103 48.5 158t151.5 55q119 0 167 -136h9q55 136 158 136q115 0 172 -66t57 -196v-818q0 -169 -94 -284q-93 -116 -231 -116q-151 0 -238 120t-87 280v5q0 176 96 284q97 111 229 111q108 0 224 -110h16v530q0 103 -29 147q-28 43 -107 43q-38 0 -63 -14.5 t-40.5 -41t-22 -63.5t-6.5 -82v-219h-76v219q0 94 -25 145q-26 56 -95 56q-85 0 -111 -41q-25 -40 -25 -108v-198h-78zM228 550q0 -168 67 -244t162 -76q87 0 164 86t77 234t-74 234t-167 86q-94 0 -162 -80q-67 -79 -67 -240z" />
<glyph unicode="&#x10e9;" horiz-adv-x="830" d="M100 170v1104q0 94 17 161.5t50 110.5t81 63.5t110 20.5q122 0 189 -67q68 -66 68 -170q0 -147 -101 -284l-48 31q67 118 67 253q0 52 -49 104q-50 53 -130 53q-85 0 -127 -68t-42 -215v-437h20q100 120 220 120q153 0 239 -101t86 -244q0 -230 -197 -445h-99 q201 199 201 443q0 108 -64 187q-63 80 -166 80q-96 0 -168 -73q-72 -72 -72 -194v-433h-85z" />
<glyph unicode="&#x10ea;" horiz-adv-x="945" d="M70 283q0 342 134 630h90q-129 -278 -129 -632q0 -261 80 -438q80 -173 255 -173q131 0 206 109t75 258q0 126 -68 200q-68 72 -142 72h-119v91h119q71 0 125 55q55 55 55 147q0 77 -116 143q-115 67 -115 178h84q0 -84 121 -145t121 -177q0 -143 -172 -237v-9 q201 -68 201 -320q0 -200 -103 -321q-102 -124 -280 -124q-198 0 -310 181t-112 512z" />
<glyph unicode="&#x10eb;" horiz-adv-x="830" d="M80 550q0 179 100 288q100 112 224 112q123 0 221 -110h17v770h88v-1060q0 -163 -92 -282q-91 -118 -234 -118q-141 0 -232 120q-92 122 -92 280zM171 549q0 -131 72 -225q73 -94 162 -94q101 0 169 93q68 95 68 227q0 137 -71 229q-70 91 -167 91q-98 0 -166 -98 q-67 -97 -67 -223z" />
<glyph unicode="&#x10ec;" horiz-adv-x="844" d="M61 1299v5q0 168 52.5 247t168.5 79q106 0 162 -122q44 122 153 122q96 0 141.5 -61t45.5 -194v-160h-74v158q0 111 -33 149t-89 38q-49 0 -79.5 -49.5t-30.5 -165.5v-164h-73v166q0 112 -26 162q-26 51 -101 51q-61 0 -95 -51q-31 -46 -31 -194v-14q1 -63 3.5 -125.5 t7.5 -128.5q5 -64 10.5 -119t10.5 -101h10q100 123 243 123q157 0 241 -92t84 -235q0 -206 -205 -546t-205 -462h-90q-1 275 -45 496q-22 112 -42 222.5t-39 222.5q-66 478 -75 743zM215 676q0 -8 0.5 -16t1.5 -16v-8q0 -128 48 -330q25 -103 40.5 -240t20.5 -313h10 q55 211 193 446q138 234 138 418q0 128 -66 190q-66 63 -163 63q-108 0 -170 -56q-53 -48 -53 -138z" />
<glyph unicode="&#x10ed;" horiz-adv-x="780" d="M80 -75q0 164 125 250l36 -68q-66 -62 -66 -182q0 -111 66 -183q67 -72 164 -72q107 0 169 78q61 76 61 177q0 142 -100 293t-114 298v36h-9q-91 -76 -124 -76h-4q-202 0 -202 226v6q0 225 202 225h3q32 0 138 -82h10q17 72 26 144.5t9 148.5v6q0 118 -114 183 q-117 67 -117 281h88q0 -181 112 -241t112 -225q0 -104 -60 -381h16q24 17 46.5 33.5t44.5 31.5q22 16 45 41t47 60l50 -119q-58 -14 -120 -41.5t-125 -62.5v-14q38 -25 69 -44.5t56 -34.5q49 -30 120 -54l-50 -119q-25 37 -51.5 67t-51 53t-45.5 40t-36 28h-19v-56 q13 -142 128 -320q115 -175 115 -331q0 -149 -90 -242t-235 -93q-146 0 -236 95q-89 95 -89 240zM152 702q0 -151 136 -151q58 0 171 129v47q-115 133 -171 133q-136 0 -136 -158z" />
<glyph unicode="&#x10ee;" horiz-adv-x="830" d="M100 552v1058h84v-789h11q96 129 232 129q133 0 228 -116t95 -284q0 -164 -95 -283q-95 -117 -230 -117q-133 0 -229 110q-96 111 -96 292zM190 550q0 -142 73 -230q73 -90 164 -90t162 92q71 95 71 228q0 124 -68 222t-167 98q-101 0 -168 -97q-67 -94 -67 -223z" />
<glyph unicode="&#x10ef;" horiz-adv-x="722" d="M40 667l44 67l280 -193l49 75q109 169 110 239q0 85 -86 85q-94 0 -95 -82h-75q0 152 171 152q165 -2 165 -165q0 -91 -100 -248l-70 -107l249 -177l-45 -63l-248 176l-168 -258q225 -53 225 -234v-2q0 -272 -360 -342v80q273 70 273 259q0 137 -166 183l-74 51l201 310z " />
<glyph unicode="&#x10f0;" horiz-adv-x="810" d="M80 450q0 75 42 170l77 -37q-24 -53 -24 -135q0 -51 60 -135t170 -84q101 1 166 72q64 70 64 157q0 235 -351 346v66q127 -21 215 -65q12 -6 25 -6q23 0 49 23q37 34 37 94q0 136 -328 226v67q111 -12 183 -48q9 -3 17 -3q28 0 57 27q37 34 37 115q0 89 -167 143 q-167 56 -167 187h84q0 -88 169 -137t169 -190q0 -115 -101 -186q135 -89 135 -185q0 -144 -118 -189q150 -134 150 -281q0 -124 -86 -219q-86 -93 -240 -93q-157 0 -241 98q-83 101 -83 202z" />
<glyph unicode="&#x10f1;" horiz-adv-x="850" d="M100 552v508q0 325 104 550h90q-109 -184 -109 -556v-504q0 -150 63 -235t209 -85q75 0 143 47t68 122q0 139 -198 139h-69v61h69q188 0 188 124q0 128 -198 128h-59v61h59q188 0 188 128q0 123 -198 123h-49v61h49q188 0 188 135q0 74 -69 124q-68 50 -68 127h74 q0 -76 72 -128q73 -52 73 -117q0 -124 -165 -170q175 -46 175 -155q0 -114 -175 -160q185 -44 185 -155t-175 -157q185 -50 185 -170q0 -137 -95 -193q-94 -55 -198 -55q-91 0 -158 27.5t-111.5 79t-66 126t-21.5 169.5z" />
<glyph unicode="&#x10f2;" horiz-adv-x="850" d="M100 55v89q181 0 241 78q-241 171 -241 371q0 165 96 261t230 96q129 0 227 -96q97 -96 97 -262q0 -199 -240 -371q60 -77 240 -77v-90q-123 0 -323 131q-203 -130 -324 -130h-3zM190 595q2 -130 66 -212q63 -81 169 -136q52 26 94.5 59t74.5 75q65 83 66 212 q0 119 -65 199q-65 78 -170 78q-104 0 -170 -78q-65 -80 -65 -197z" />
<glyph unicode="&#x10f3;" horiz-adv-x="850" d="M100 -75q0 152 125 250l29 -66q-63 -59 -63 -184q0 -100 67 -176q67 -79 167 -79q106 0 168 81q62 80 62 174v132q0 128 -75 200t-189 72h-80v77h78q103 0 184 102q82 100 82 352h-450v-250h-75v320h620q0 -435 -257 -555v-10q147 -30 202 -103q55 -70 55 -205v-132 q0 -140 -95 -238q-94 -97 -230 -97q-131 0 -229 95q-96 94 -96 240z" />
<glyph unicode="&#x10f4;" horiz-adv-x="850" d="M100 -75q0 163 125 250l32 -71q-66 -53 -66 -179q0 -114 68 -185q69 -70 166 -70q95 0 163 69q67 67 67 186v156q0 156 -67 232q-66 78 -144 78h-113v75h114q74 0 142 81q68 83 68 318q-147 -43 -211 -43q-155 0 -249 106q-95 107 -95 258q0 166 112 284q112 120 273 120 v-80q-99 -2 -197 -91q-98 -90 -98 -219q0 -119 80 -208q79 -87 173 -87q151 0 307 163v-162q0 -191 -44 -315q-44 -120 -175 -158v-10q136 -46 177 -131q42 -83 42 -211v-156q0 -158 -99 -246q-101 -89 -225 -89q-132 0 -229 97q-97 96 -97 238z" />
<glyph unicode="&#x10f5;" horiz-adv-x="950" d="M100 472q0 142 89 237q90 93 298 93h178v207h-172q-212 0 -304 83q-89 83 -89 234q0 132 85 217q85 87 240 87q147 0 235 -82q90 -83 90 -236v-219h100v-84h-100v-207h100v-86h-100v-233q0 -166 -99 -250q-98 -83 -226 -83q-163 0 -244 96t-81 226zM191 472 q0 -113 68 -178q67 -64 166 -64q101 0 170 78q70 79 70 172v236h-179q-162 0 -229 -67q-66 -66 -66 -177zM191 1326q0 -123 67 -178t237 -55h170v219q0 92 -70 165q-69 73 -170 73q-97 0 -166 -57q-68 -57 -68 -167z" />
<glyph unicode="&#x10f6;" horiz-adv-x="1250" d="M100 553q0 166 77 282q76 115 224 115q152 0 224 -163h10q79 163 228 163q121 0 204 -117q83 -119 83 -283q0 -163 -83 -282q-82 -118 -201 -118q-106 0 -197 102v-264q0 -228 -70 -313q-69 -85 -174 -85v80q40 0 97 61t57 254v637q0 105 -50 176q-50 72 -131 72 q-86 0 -147 -88t-61 -232q0 -133 62 -228q63 -92 133 -92v-80q-120 0 -202 120q-83 122 -83 283zM669 466q0 -97 54 -167q55 -69 146 -69q77 0 130 89q52 88 52 231q0 138 -53 230q-53 90 -132 90q-90 0 -144 -72q-53 -71 -53 -176v-156z" />
<glyph unicode="&#x10f7;" horiz-adv-x="935" d="M100 -26q0 232 266 397q266 167 266 346q0 60 -41 122q-41 60 -140 60q-89 0 -135 -54q-47 -53 -47 -102q0 -74 41 -107l-53 -78q-66 78 -66 178q0 92 65 169q66 78 205 78q128 0 190 -80q63 -80 63 -185q0 -209 -260 -382q-259 -171 -259 -363q0 -119 70 -210 q70 -93 210 -93q125 0 195 88q71 89 71 185q0 151 -86 220l30 81q148 -128 150 -303q-1 -149 -102 -250t-258 -101q-175 0 -276 110q-99 109 -99 274z" />
<glyph unicode="&#x10f8;" horiz-adv-x="850" d="M100 -75v1018h85v-344q0 -110 52 -189q53 -80 178 -80q87 0 153 75t66 194q0 100 -36 171q-36 70 -143 185h90q81 -57 128 -148t47 -206q0 -171 -79 -256t-227 -85q-143 0 -220 107h-9v-442q0 -125 71 -190t169 -65q74 0 157 75t83 180q0 103 -41 177l46 28 q80 -89 80 -205q0 -163 -99 -248q-99 -87 -226 -87q-143 0 -235 86q-90 85 -90 249z" />
<glyph unicode="&#x10f9;" horiz-adv-x="966" d="M100 538q0 168 113 299q112 129 278 129q146 0 260 -127q115 -127 115 -301q0 -177 -108 -304q-106 -127 -273 -127q-156 -114 -156 -270q0 -62 50 -115q51 -53 136 -53t135 45q49 45 49 106q0 74 -29 101l63 55q53 -77 53 -151q0 -109 -81 -172t-190 -63q-119 0 -195 70 q-78 70 -78 176q0 168 141 279q-126 53 -205 155q-78 103 -78 268zM196 538q0 -127 89 -243q89 -113 198 -113q115 0 204 102q89 104 89 254q0 163 -95 255q-95 93 -190 93q-130 0 -213 -107q-82 -106 -82 -241z" />
<glyph unicode="&#x10fa;" horiz-adv-x="850" d="M100 619q0 148 85 239q86 92 232 92q155 0 244 -84t89 -232q0 -124 -90 -211l-53 48q53 62 53 161q0 109 -68 174q-67 64 -175 64q-96 0 -162 -68q-65 -68 -65 -186q0 -195 187 -304q187 -110 312 -264l-74 -52q-89 179 -190 179q-99 0 -178 -127l-57 41q34 79 157 141 q-247 163 -247 389z" />
<glyph unicode="&#x10fb;" horiz-adv-x="813" d="M100 138v160h158v-160h-158zM100 809v158h158v-158h-158zM555 471v157h158v-157h-158z" />
<glyph unicode="&#x10fc;" horiz-adv-x="498" d="M6 1118v330q0 178 180 178h236v-72l-258 2q-34 0 -56 -25t-22 -65v-166q29 38 65 57t68 19q51 0 89.5 -19.5t64 -53.5t38.5 -81t13 -102q0 -144 -54.5 -215t-154.5 -71q-209 0 -209 284zM86 1112q0 -99 34.5 -153t94.5 -54t95 56t35 159q0 88 -36.5 137t-99.5 49 q-57 0 -89.5 -50.5t-33.5 -143.5z" />
<glyph unicode="&#x2000;" horiz-adv-x="817" />
<glyph unicode="&#x2001;" horiz-adv-x="1635" />
<glyph unicode="&#x2002;" horiz-adv-x="817" />
<glyph unicode="&#x2003;" horiz-adv-x="1635" />
<glyph unicode="&#x2004;" horiz-adv-x="545" />
<glyph unicode="&#x2005;" horiz-adv-x="408" />
<glyph unicode="&#x2006;" horiz-adv-x="272" />
<glyph unicode="&#x2007;" horiz-adv-x="272" />
<glyph unicode="&#x2008;" horiz-adv-x="204" />
<glyph unicode="&#x2009;" horiz-adv-x="327" />
<glyph unicode="&#x200a;" horiz-adv-x="90" />
<glyph unicode="&#x2010;" horiz-adv-x="742" d="M100 615v78h542v-78h-542z" />
<glyph unicode="&#x2011;" horiz-adv-x="742" d="M100 615v78h542v-78h-542z" />
<glyph unicode="&#x2012;" horiz-adv-x="1235" d="M0 530v105h1294v-105h-1294z" />
<glyph unicode="&#x2013;" horiz-adv-x="1235" d="M-14 501v98h1272v-98h-1272z" />
<glyph unicode="&#x2014;" horiz-adv-x="2218" d="M-24 500v98h2335v-98h-2335z" />
<glyph unicode="&#x2018;" horiz-adv-x="501" d="M143 1259q0 48 12.5 97.5t36 97.5t57.5 93.5t76 84.5l33 -33q-75 -83 -104.5 -146t-29.5 -118q0 -12 1.5 -23.5t3.5 -23.5q6 2 16 2h10q35 0 61.5 -20.5t26.5 -57.5q0 -25 -8.5 -43t-22 -30t-30.5 -17.5t-33 -5.5q-48 0 -77 33t-29 110z" />
<glyph unicode="&#x2019;" horiz-adv-x="501" d="M143 1149q73 84 103 145.5t30 117.5q0 12 -1 24t-3 24q-6 -2 -16 -2h-10q-35 0 -61.5 20.5t-26.5 57.5q0 25 8.5 43t22 30t30 17.5t33.5 5.5q48 0 77 -33t29 -110q0 -48 -12.5 -97.5t-36 -97.5t-57.5 -93.5t-76 -84.5z" />
<glyph unicode="&#x201a;" horiz-adv-x="501" d="M143 -162q73 84 103 145.5t30 117.5q0 12 -1 24t-3 24q-6 -2 -16 -2h-10q-35 0 -61.5 20.5t-26.5 57.5q0 25 8.5 43t22 30t30 17.5t33.5 5.5q48 0 77 -33t29 -110q0 -48 -12.5 -97.5t-36 -97.5t-57.5 -93.5t-76 -84.5z" />
<glyph unicode="&#x201c;" horiz-adv-x="801" d="M143 1259q0 48 12.5 97.5t36 97.5t57.5 93.5t76 84.5l33 -33q-75 -83 -104.5 -146t-29.5 -118q0 -12 1.5 -23.5t3.5 -23.5q6 2 16 2h10q35 0 61.5 -20.5t26.5 -57.5q0 -25 -8.5 -43t-22 -30t-30.5 -17.5t-33 -5.5q-48 0 -77 33t-29 110zM443 1259q0 48 12.5 97.5t36 97.5 t57.5 93.5t76 84.5l33 -33q-75 -83 -104.5 -146t-29.5 -118q0 -12 1.5 -23.5t3.5 -23.5q6 2 16 2h10q35 0 61.5 -20.5t26.5 -57.5q0 -25 -8.5 -43t-22 -30t-30.5 -17.5t-33 -5.5q-48 0 -77 33t-29 110z" />
<glyph unicode="&#x201d;" horiz-adv-x="801" d="M143 1149q73 84 103 145.5t30 117.5q0 12 -1 24t-3 24q-6 -2 -16 -2h-10q-35 0 -61.5 20.5t-26.5 57.5q0 25 8.5 43t22 30t30 17.5t33.5 5.5q48 0 77 -33t29 -110q0 -48 -12.5 -97.5t-36 -97.5t-57.5 -93.5t-76 -84.5zM443 1149q73 84 103 145.5t30 117.5q0 12 -1 24 t-3 24q-6 -2 -16 -2h-10q-35 0 -61.5 20.5t-26.5 57.5q0 25 8.5 43t22 30t30 17.5t33.5 5.5q48 0 77 -33t29 -110q0 -48 -12.5 -97.5t-36 -97.5t-57.5 -93.5t-76 -84.5z" />
<glyph unicode="&#x201e;" horiz-adv-x="801" d="M143 -162q73 84 103 145.5t30 117.5q0 12 -1 24t-3 24q-6 -2 -16 -2h-10q-35 0 -61.5 20.5t-26.5 57.5q0 25 8.5 43t22 30t30 17.5t33.5 5.5q48 0 77 -33t29 -110q0 -48 -12.5 -97.5t-36 -97.5t-57.5 -93.5t-76 -84.5zM443 -162q73 84 103 145.5t30 117.5q0 12 -1 24 t-3 24q-6 -2 -16 -2h-10q-35 0 -61.5 20.5t-26.5 57.5q0 25 8.5 43t22 30t30 17.5t33.5 5.5q48 0 77 -33t29 -110q0 -48 -12.5 -97.5t-36 -97.5t-57.5 -93.5t-76 -84.5z" />
<glyph unicode="&#x2020;" horiz-adv-x="1085" d="M113 752v82l389 100v446h90v-454l381 -100v-82l-389 100v-946h-90v954z" />
<glyph unicode="&#x2022;" horiz-adv-x="1024" d="M348 717q0 34 13 63.5t35.5 52t52 35.5t63.5 13t63.5 -13t52 -35.5t35.5 -52t13 -63.5t-13 -63.5t-35.5 -52t-52 -35.5t-63.5 -13t-63.5 13t-52 35.5t-35.5 52t-13 63.5z" />
<glyph unicode="&#x2026;" horiz-adv-x="1855" d="M338 154v161h164v-161h-164zM872 154v161h168v-161h-168zM1411 154v161h166v-161h-166z" />
<glyph unicode="&#x202f;" horiz-adv-x="327" />
<glyph unicode="&#x2039;" horiz-adv-x="737" d="M137 610l348 465h99l-301 -465l299 -458h-97z" />
<glyph unicode="&#x203a;" horiz-adv-x="737" d="M154 152l301 464l-301 459h96l338 -454l-338 -469h-96z" />
<glyph unicode="&#x205f;" horiz-adv-x="408" />
<glyph unicode="&#x20ac;" horiz-adv-x="1085" d="M27 705v76h127v27q0 59 6 115h-133v75h145q19 112 67 206.5t123 166.5q77 73 176 116.5t228 43.5q51 0 94.5 -7t79 -17.5t62.5 -23t47 -24.5l-31 -78q-48 29 -115 48.5t-145 19.5q-103 0 -181 -33t-141 -90q-63 -60 -104 -145.5t-60 -182.5h691v-75h-703q-6 -53 -6 -107 v-35h709v-76h-703q14 -109 54 -194t100 -143q132 -132 334 -132q50 0 94 8.5t81 21t66.5 27t50.5 27.5l27 -71q-26 -19 -59 -37t-74 -31.5t-90 -22t-107 -8.5q-125 0 -224.5 42.5t-174.5 117.5t-119.5 176t-58.5 219h-133z" />
<glyph unicode="&#x2122;" horiz-adv-x="1303" d="M72 1485v65h485v-65h-205v-492h-76v492h-204zM584 993l49 557h112l144 -360q12 -31 22 -60t19 -57h4q11 29 21 60t18 53l143 364h113l53 -557h-82l-29 379q-2 25 -3 55t-3 64h-4q-5 -12 -11 -28.5t-13 -34.5l-13 -36q-3 -9 -6 -17.5t-6 -16.5l-139 -357h-88l-142 367 q-9 26 -22 61.5t-23 61.5h-4q0 -28 -1 -57.5t-3 -61.5l-28 -379h-78z" />
<glyph unicode="&#x25fc;" horiz-adv-x="1040" d="M0 0v1040h1040v-1040h-1040z" />
</font>
</defs>
</svg>
